<svg id="Layer_2" data-name="Layer 2" xmlns="http://www.w3.org/2000/svg" viewBox="0 0 100.29 32.02"><title>CoastGuard</title><path d="M30.37,74.74h-1.6l-2.95.05q-1.69,0-3.6.12t-3.53.24q-1.63.16-2.74,0.38a1.81,1.81,0,0,0-1.24.54,1.18,1.18,0,0,1-.15-0.2,2.43,2.43,0,0,1-.17-0.32l-0.15-.33A0.72,0.72,0,0,1,14.18,75a2.33,2.33,0,0,1,.11-0.54c0.07-.25.12-0.43,0.16-0.52h0.13l0.13,0a2.4,2.4,0,0,1,.28.25,2.53,2.53,0,0,1,.25.28V73.45a0.34,0.34,0,0,0-.29-0.15,4.41,4.41,0,0,0-.66-0.09l-0.75,0H12.33a2.33,2.33,0,0,0-.37.93q-0.11.56-.16,0.93H10.08V72.92a0.82,0.82,0,0,1-.78-0.28,2.87,2.87,0,0,1-.56-1,7.68,7.68,0,0,1-.36-1.32c-0.09-.49-0.15-1-0.2-1.4s-0.07-.85-0.09-1.19,0-.57,0-0.67,0-.12,0-0.27,0-.23,0-0.26L8.36,67.1H24.23A0.64,0.64,0,0,1,24.35,67a0.71,0.71,0,0,1,.15-0.12l0.36-.08,0.56-.09L26,66.6l0.37,0V66l-2.91-.53,2.16-.17q1.2-.09,2.31-0.09h0.36a1.42,1.42,0,0,1,.36.07,0.62,0.62,0,0,1,.28.2,0.59,0.59,0,0,1,.12.38A0.77,0.77,0,0,1,29,66a2.22,2.22,0,0,1-.25.28,2.24,2.24,0,0,1-.28.25h2.64a1,1,0,0,0,.08.2,3.51,3.51,0,0,0,.21.38,0.36,0.36,0,0,0,.24.21h1.75a1.94,1.94,0,0,0-.1-0.75A0.78,0.78,0,0,0,33,66.29l-0.24-.15a0.21,0.21,0,0,1-.11-0.21,1.23,1.23,0,0,1,.12-0.62A1,1,0,0,1,33.11,65l0.36-.25a0.86,0.86,0,0,0,.29-0.42H40.1V53.08l-0.53-.4h2.51V49.11l0.4,3.83H40.63V64.19l0.53,0.53H45.4c-0.05-.28,0-0.45.17-0.5a1.52,1.52,0,0,1,1,0c0.17,0.05.22,0.22,0.17,0.5H48a0.59,0.59,0,0,1,.09-0.7,1,1,0,0,1,1.14,0,0.59,0.59,0,0,1,.09.7h4.5l0.2-.15a2.5,2.5,0,0,1,.32-0.17l0.33-.15a0.73,0.73,0,0,1,.21-0.06l0.14,0,0.25,0.09,0.25,0.09,0.15,0h0.13a6.47,6.47,0,0,0,1.06-.09,6.78,6.78,0,0,0,1.1-.28,9.88,9.88,0,0,0,1-.42,5.57,5.57,0,0,0,.9-0.53V62.6L59.84,62c-0.05-.28-0.11-0.58-0.16-0.89s-0.11-.6-0.16-0.87-0.09-.46-0.11-0.57A2.09,2.09,0,0,1,60,58.63,2.78,2.78,0,0,1,61,58a4.59,4.59,0,0,1,1.16-.25c0.4,0,.78-0.05,1.14-0.05a0.89,0.89,0,0,0-.07-0.31,1.21,1.21,0,0,1-.08-0.33,0.3,0.3,0,0,1,.08-0.25,0.6,0.6,0,0,1,.44-0.07c0,0.05,0,.14.07,0.27l0.08,0.4c0,0.14.05,0.27,0.08,0.4a1.39,1.39,0,0,1,0,.27v0.16a0.43,0.43,0,0,1-.09.29l-0.18.21a2.38,2.38,0,0,0-.19.24,0.64,0.64,0,0,0-.09.37,9.5,9.5,0,0,0,.17,1.77c0.11,0.6.24,1.17,0.38,1.72a0.36,0.36,0,0,0,.23.25,1.19,1.19,0,0,0,.33,0A0.59,0.59,0,0,0,65,63a2,2,0,0,0,.28-0.64L70,61.67H67.62c0-.05,0-0.15.08-0.29s0.06-.29.09-0.44,0-.3.06-0.44,0-.24,0-0.29V59.93a1.13,1.13,0,0,0-.08-0.48A1.5,1.5,0,0,0,67.35,59h1.72V57.84h1.85V58.9a2.18,2.18,0,0,0,0-.36q0-.25,0-0.56c0-.2,0-0.39,0-0.57s0-.3,0-0.37L71,56c0-.47-0.08-1-0.12-1.59s-0.1-1.21-.16-1.87-0.12-1.27-.17-1.86l-0.15-1.59q-0.07-.7-0.12-1a8.94,8.94,0,0,0-.83-1.11,9.93,9.93,0,0,0-1-1,1.63,1.63,0,0,0,.41-0.11,2.18,2.18,0,0,0,.38-0.16V45.4l1.48,0s0,0,.07,0,0.06,0,0,0a1.12,1.12,0,0,0-.49-0.25A0.4,0.4,0,0,1,70,44.74a0.18,0.18,0,0,1,0-.07,0.22,0.22,0,0,0,0-.06,1.22,1.22,0,0,1,.2-0.15,2.45,2.45,0,0,1,.32-0.17l0.33-.15a0.72,0.72,0,0,1,.21-0.07,1.68,1.68,0,0,1,.89.15,0.68,0.68,0,0,1,.46.67,2.29,2.29,0,0,1,0,.24l-0.15.07L72,45.27l-0.25.07-0.14.07c-0.07.05,0,.19,0.18,0.4h0.87a0.74,0.74,0,0,1-.42.37,2.15,2.15,0,0,1-.63.12,3.68,3.68,0,0,1-.64,0l-0.42-.07a2.81,2.81,0,0,1,.07.3c0,0.15.05,0.31,0.08,0.49s0.05,0.34.08,0.49a2.31,2.31,0,0,1,0,.3,1.7,1.7,0,0,1,0,.19c0,0.09,0,.14,0,0.16A1.5,1.5,0,0,0,71.24,48c0.16-.05.27,0,0.34,0.27l-0.53.26a0.55,0.55,0,0,0,0,.23c0,0.13,0,.23,0,0.3s0,0.11,0,.21a1.45,1.45,0,0,0,0,.33,1.38,1.38,0,0,0,.09.33,0.28,0.28,0,0,0,.23.19V52a0.36,0.36,0,0,0,.21.24,3.55,3.55,0,0,0,.38.21l0.2,0.08-0.53.27c0,0.33,0,.55,0,0.63a14.72,14.72,0,0,0,.13,2,11.55,11.55,0,0,0,.42,1.91,1.59,1.59,0,0,1,.11-0.41,2,2,0,0,1,.16-0.38,0.05,0.05,0,0,1,.05,0h0.16a0.06,0.06,0,0,1,.05,0,0.44,0.44,0,0,1,.07.15c0,0.08.05,0.17,0.08,0.26l0.07,0.25a0.32,0.32,0,0,0,.05.13s0,0,.05,0H73a0.18,0.18,0,0,0,.13-0.05l0.11-.41c0.05-.2.11-0.42,0.16-0.64l0.16-.63c0.05-.2.09-0.35,0.11-0.44A0.65,0.65,0,0,1,73.82,55,0.58,0.58,0,0,1,74,54.93l0.13,0a0.65,0.65,0,0,1,.54.33A2.87,2.87,0,0,1,75,56a6.44,6.44,0,0,1,.2.85c0,0.27.07,0.47,0.09,0.6h6.22v0.93l0.34,0,0.52,0.08,0.52,0.08,0.34,0.07a1.53,1.53,0,0,1,.33.12,0.32,0.32,0,0,1,.2.14v2.38a0.62,0.62,0,0,0-.46,0,0.22,0.22,0,0,0-.07.22,1.17,1.17,0,0,0,.11.3,0.6,0.6,0,0,1,.08.24,2.71,2.71,0,0,1,.6.05,0.64,0.64,0,0,0,.36,0,0.31,0.31,0,0,0,.17-0.25,4.25,4.25,0,0,0,0-.73,3.08,3.08,0,0,1,1.16.23,2.14,2.14,0,0,1,.93.73h2.64c0.05,0.16.09,0.29,0.12,0.41l0.08,0.36c0,0.12,0,.22.07,0.29l0.08,0.44c0,0.2.07,0.42,0.09,0.65s0,0.44.07,0.63,0,0.33,0,.4h1a2.17,2.17,0,0,0,.5-0.08,1.26,1.26,0,0,0,.42-0.2,0.53,0.53,0,0,0,.21-0.4H94.6l-1.32-.66a1.68,1.68,0,0,1,0-.21,0.47,0.47,0,0,1,.29-0.56,3.94,3.94,0,0,1,.71-0.05q1.06,0,2,.08L98.3,63.4l-0.3,0-0.49.08L97,63.59l-0.3.07-0.46.15a1.57,1.57,0,0,0-.33.12,0.37,0.37,0,0,0,.08.32,1.25,1.25,0,0,1,.13.32c0.27,0,.5,0,0.7,0l0.56,0.05,0.5,0.05,0.54,0h0.13l-0.26-.27a12.46,12.46,0,0,1,2-.26,19.15,19.15,0,0,1,2,0L102,63.92q1.27-.29,2.74-0.48a12.67,12.67,0,0,1,2.82-.05l-0.27-.27,0.27-.12a1,1,0,0,0,.27-0.14,0.94,0.94,0,0,0,.18-0.32c0.09-.19.16-0.37,0.23-0.53a1.53,1.53,0,0,1,.12-0.26v2.7L106.5,74a0.73,0.73,0,0,1-.45.63,4.61,4.61,0,0,1-.87.16l-1.15.08-1.76.09-1.76.07-1.15,0a0.83,0.83,0,0,1-.46.25H94l-5.4,0-6.63,0-7.45,0-7.86,0-7.86,0-7.45,0-6.62,0-5.4,0H35.61l-1.18-.13-1-.09-0.86-.05H30.37Zm-22-7.38a0.27,0.27,0,1,0,.21.27A0.22,0.22,0,0,0,8.36,67.36Zm4.5,0.53a0.27,0.27,0,1,0,.21.26A0.21,0.21,0,0,0,12.86,67.89Zm1.85-.27a0.54,0.54,0,0,0,.4.13,0.54,0.54,0,0,0,.4-0.13s0-.06-0.08-0.08a1.82,1.82,0,0,0-.64,0C14.7,67.56,14.67,67.59,14.71,67.63Zm0,0.53a0.53,0.53,0,0,0,.4.13,0.54,0.54,0,0,0,.4-0.13s0-.06-0.08-0.08a1.89,1.89,0,0,0-.64,0C14.7,68.09,14.67,68.12,14.71,68.16ZM16,67.63a0.77,0.77,0,0,0,.53.13,0.77,0.77,0,0,0,.53-0.13s0-.06-0.12-0.08a3,3,0,0,0-.82,0C16,67.56,16,67.59,16,67.63Zm0,0.53a0.76,0.76,0,0,0,.53.13,0.76,0.76,0,0,0,.53-0.13s0-.06-0.12-0.08a3.13,3.13,0,0,0-.82,0C16,68.09,16,68.12,16,68.16ZM22.12,74l-5.82-.53H16v1.16h0.89l1.36,0,1.36,0h0.89a3.09,3.09,0,0,0,.45,0l0.52-.08,0.44-.08a0.32,0.32,0,0,0,.18-0.07V74Zm-4.23-5.82a1.71,1.71,0,0,0,1.32,0c0.05,0,0-.06-0.16-0.08l-0.5,0a4.71,4.71,0,0,0-.52,0C17.88,68.09,17.83,68.12,17.88,68.16Zm0-.53a0.88,0.88,0,0,0,.3.09,2.79,2.79,0,0,0,.49,0,2.82,2.82,0,0,0,.49,0,0.87,0.87,0,0,0,.3-0.09c0.05,0,0-.06-0.18-0.08s-0.38,0-.61,0-0.43,0-.61,0S17.83,67.59,17.88,67.63Zm2.12,0a1.73,1.73,0,0,0,1.32,0c0.05,0,0-.06-0.16-0.08l-0.5,0a4.43,4.43,0,0,0-.52,0C20,67.56,19.95,67.59,20,67.63Zm3.17,6.61a2.1,2.1,0,0,0,.48.09,6.32,6.32,0,0,0,1.43,0,2.14,2.14,0,0,0,.48-0.09c0.11,0,0-.06-0.25-0.08l-0.94,0H23.7a2.16,2.16,0,0,0-.46,0C23.13,74.2,23.1,74.22,23.17,74.24Zm0-6.61a0.16,0.16,0,0,0,.13.13,0.13,0.13,0,0,0,.13-0.13c0-.09,0-0.13-0.13-0.13S23.14,67.54,23.17,67.63Zm0,0.53a0.16,0.16,0,0,0,.13.13,0.13,0.13,0,0,0,.13-0.13c0-.09,0-0.13-0.13-0.13S23.14,68.07,23.17,68.16ZM24,67.89a0.27,0.27,0,1,0,.21.26A0.21,0.21,0,0,0,24,67.89ZM34,64.72a0.66,0.66,0,0,0,.79,0s0-.06-0.08-0.08l-0.32,0a1.7,1.7,0,0,0-.32,0Q34,64.66,34,64.72Zm1.32-.27a0.27,0.27,0,1,0,.21.27A0.21,0.21,0,0,0,35.34,64.45Zm1.06,0.27a1.71,1.71,0,0,0,1.32,0c0.05,0,0-.06-0.16-0.08l-0.5,0-0.52,0C36.4,64.65,36.35,64.68,36.4,64.72Zm1.85,0a0.16,0.16,0,0,0,.13.13,0.14,0.14,0,0,0,.13-0.13c0-.09,0-0.13-0.13-0.13S38.22,64.63,38.25,64.72Zm1.06-.27a0.27,0.27,0,1,0,.21.27A0.21,0.21,0,0,0,39.31,64.45ZM39.84,65a0.27,0.27,0,1,0,.21.27A0.21,0.21,0,0,0,39.84,65Zm0-.26a0.16,0.16,0,0,0,.13.13,0.13,0.13,0,0,0,.13-0.13c0-.09,0-0.13-0.13-0.13S39.8,64.63,39.84,64.72Zm0.79-.27a0.27,0.27,0,1,0,.21.27A0.21,0.21,0,0,0,40.63,64.45Zm0.53,0.79a0.33,0.33,0,0,0,.53,0s0-.06-0.06-0.08a0.69,0.69,0,0,0-.2,0,0.67,0.67,0,0,0-.2,0C41.17,65.18,41.15,65.21,41.16,65.25Zm1.06,0.53a0.25,0.25,0,0,0,.26.13,0.25,0.25,0,0,0,.26-0.13s0-.06-0.07-0.08l-0.2,0-0.2,0C42.23,65.71,42.2,65.74,42.22,65.78ZM43,65a0.27,0.27,0,0,0,0,.53A0.27,0.27,0,0,0,43,65Zm0.53,0.27a0.17,0.17,0,0,0,.13.13,0.13,0.13,0,0,0,.13-0.13c0-.09,0-0.13-0.13-0.13S43.51,65.16,43.54,65.25Zm0,0.53a0.16,0.16,0,0,0,.13.13,0.13,0.13,0,0,0,.13-0.13c0-.09,0-0.13-0.13-0.13S43.51,65.69,43.54,65.78Zm5.82-.8a0.27,0.27,0,1,0,.21.27A0.21,0.21,0,0,0,49.36,65ZM52,65.25a0.33,0.33,0,0,0,.53,0s0-.06-0.07-0.08a0.67,0.67,0,0,0-.2,0,0.66,0.66,0,0,0-.2,0C52,65.18,52,65.21,52,65.25Zm0.26,0.26a0.27,0.27,0,1,0,.21.27A0.21,0.21,0,0,0,52.27,65.51Zm0.79-.26a0.33,0.33,0,0,0,.53,0s0-.06-0.07-0.08a0.77,0.77,0,0,0-.4,0C53.07,65.18,53,65.21,53.07,65.25ZM66,62.6H65.42a1.44,1.44,0,0,0,.12.57,0.48,0.48,0,0,0,.49.28V62.6Zm0.53,0a0.66,0.66,0,0,0,0,.79s0.07,0,.09-0.08a1.33,1.33,0,0,0,0-.64C66.62,62.59,66.59,62.57,66.56,62.6Zm0.79,0H67.09V63.4h0.26V62.6Zm0.53,0a0.66,0.66,0,0,0,0,.79s0.07,0,.09-0.08a1.3,1.3,0,0,0,0-.64C67.95,62.59,67.92,62.57,67.88,62.6Zm0.79,0H68.41V63.4h0.26V62.6ZM69.6,46.12l-0.2,0-0.2.05a1.82,1.82,0,0,1,.18.23l0.21,0.3L69.81,47a1.77,1.77,0,0,0,.19.23,0.65,0.65,0,0,0,.12.15,0.69,0.69,0,0,0,.14.12V47.26a3.17,3.17,0,0,0-.09-0.77A0.5,0.5,0,0,0,69.6,46.12ZM69.47,62.34H69.2V63.4h0.27V62.34Zm0.53,0a1.13,1.13,0,0,0,0,1.06s0.07,0,.09-0.12a2.23,2.23,0,0,0,0-.82C70.06,62.34,70,62.3,70,62.34Zm1.06-15.08a0.27,0.27,0,1,1-.21.27A0.21,0.21,0,0,1,71.06,47.26ZM71.32,47c0.09,0,.13,0,0.13.13s0,0.17-.13.13a0.16,0.16,0,0,1-.13-0.13A0.17,0.17,0,0,1,71.32,47Zm0.27-.53a0.27,0.27,0,1,1-.21.27A0.21,0.21,0,0,1,71.59,46.46Zm0,4.23a0.27,0.27,0,1,1-.21.26A0.21,0.21,0,0,1,71.59,50.7Zm0.26-4.5a0.27,0.27,0,1,1-.21.26A0.21,0.21,0,0,1,71.85,46.2Zm0,5.29a0.27,0.27,0,1,1-.21.27A0.21,0.21,0,0,1,71.85,51.49Zm3.7,6.35a0.13,0.13,0,0,0,.26,0c0-.09,0-0.13-0.13-0.13S75.52,57.75,75.55,57.84Zm0,0.53a0.13,0.13,0,1,0,.26,0c0-.09,0-0.13-0.13-0.13S75.52,58.28,75.55,58.37Zm0.79-.53a0.67,0.67,0,0,0,.8,0s0-.06-0.09-0.08l-0.3,0-0.29,0C76.36,57.78,76.33,57.8,76.35,57.84Zm0,0.53a0.66,0.66,0,0,0,.8,0s0-.06-0.09-0.08l-0.3,0-0.29,0C76.36,58.3,76.33,58.33,76.35,58.37Zm1.33-.53a0.66,0.66,0,0,0,.79,0s0-.06-0.09-0.08l-0.3,0-0.29,0C77.69,57.78,77.65,57.8,77.67,57.84Zm0,0.53a0.66,0.66,0,0,0,.79,0s0-.06-0.09-0.08l-0.3,0-0.29,0C77.69,58.3,77.65,58.33,77.67,58.37Zm1.32,0a0.75,0.75,0,0,0,.53.13,0.76,0.76,0,0,0,.53-0.13s0-.06-0.12-0.08a3.32,3.32,0,0,0-.82,0C79,58.3,79,58.33,79,58.37Zm0-.53a0.66,0.66,0,0,0,.79,0s0-.06-0.09-0.08l-0.3,0-0.29,0C79,57.78,79,57.8,79,57.84Zm1.59,0a0.33,0.33,0,0,0,.53,0s0-.06-0.07-0.08l-0.2,0-0.2,0C80.58,57.78,80.56,57.8,80.58,57.84Zm0.26,0.53a0.16,0.16,0,0,0,.13.13,0.17,0.17,0,0,0,.13-0.13c0-.09,0-0.13-0.13-0.13S80.81,58.28,80.84,58.37Zm2.65,4.76a0.27,0.27,0,1,0,.21.27A0.21,0.21,0,0,0,83.49,63.13Zm0-.26a0.33,0.33,0,0,0,.53,0s0-.06-0.07-0.08a0.68,0.68,0,0,0-.2,0,0.69,0.69,0,0,0-.2,0C83.49,62.8,83.47,62.83,83.49,62.87Zm2.91-.27a0.66,0.66,0,0,0,.79,0s0-.06-0.09-0.08l-0.3,0-0.29,0C86.42,62.54,86.38,62.57,86.4,62.6Zm0.27,0.53a0.66,0.66,0,0,0,.79,0s0-.06-0.09-0.08a1.54,1.54,0,0,0-.3,0,1.35,1.35,0,0,0-.29,0C86.68,63.07,86.65,63.1,86.67,63.13Zm1.59-.79a0.66,0.66,0,0,0,.79,0s0-.06-0.09-0.08l-0.3,0-0.29,0C88.27,62.27,88.23,62.3,88.25,62.34Zm0,0.53a0.67,0.67,0,0,0,.79,0s0-.06-0.09-0.08a1.59,1.59,0,0,0-.3,0,1.41,1.41,0,0,0-.29,0C88.27,62.8,88.23,62.83,88.25,62.87Zm10.58,0a0.27,0.27,0,1,1-.21.26A0.21,0.21,0,0,1,98.83,62.87Zm1.59,1.59a0.17,0.17,0,0,0,.13.13,0.14,0.14,0,0,0,.13-0.13c0-.09,0-0.13-0.13-0.13S100.39,64.36,100.42,64.45Zm0.79,0.27a0.16,0.16,0,0,0,.13.13,0.13,0.13,0,0,0,.13-0.13c0-.09,0-0.13-0.13-0.13S101.18,64.63,101.22,64.72Zm2.11-.53a0.27,0.27,0,1,0,.21.26A0.21,0.21,0,0,0,103.33,64.19Zm0.79-.53a0.27,0.27,0,1,0,.21.26A0.21,0.21,0,0,0,104.12,63.66Z" transform="translate(-8.07 -44.07)"/></svg>