<svg id="Layer_1" data-name="Layer 1" xmlns="http://www.w3.org/2000/svg" viewBox="0 0 600 600"><defs><style>.cls-1{fill:#ef4136;}.cls-2{fill:#fff;}</style></defs><title>china_power_social_media</title><path class="cls-1" d="M0,0V600H600V0H0ZM407,145.74H386.86l-3.37-16.61h-145V269.81h28.68v-94.5a12.58,12.58,0,0,1,.13-1.32,12.59,12.59,0,0,1-.13-1.32A13,13,0,0,1,280,159.75h114A13,13,0,0,1,407,172.67c0,0.39-.08.75-0.11,1.12v107c0,0.25-.06.48-0.07,0.72,0,0.4.12,0.78,0.12,1.18A13,13,0,0,1,394,295.66H293V387l16.82,3.42v20.13H250.47V390.38L267.12,387V295.66H225.52a13,13,0,0,1-12.92-12.92V116.21a13,13,0,0,1,12.92-12.92c0.35,0,.67.08,1,0.1s0.67-.1,1-0.1h155.9l3.42-16.86H407v59.32Z"/><rect class="cls-1" x="292.97" y="185.6" width="88.06" height="84.21"/><path class="cls-2" d="M100.55,491.14H94.43l-1.63-9.07a16.77,16.77,0,0,0-5.19-3.39,18.59,18.59,0,0,0-7.35-1.32q-10,0-15.36,7.24T59.53,503v1q0,11.14,5.26,18.42a17,17,0,0,0,14.59,7.29,22,22,0,0,0,7.92-1.36,15.19,15.19,0,0,0,5.5-3.35l1.63-9.07h6.12v11.4a24,24,0,0,1-8.32,6.36,28.19,28.19,0,0,1-12.85,2.8,25.92,25.92,0,0,1-20.51-9.24q-8-9.24-8-23.24v-0.92q0-14.09,7.88-23.31t20.65-9.22a27.83,27.83,0,0,1,12.85,2.84,24.75,24.75,0,0,1,8.32,6.36v11.4Z"/><path class="cls-2" d="M106.36,530l7.18-1.23V473.71l-7.18-1.23v-5.59H122.2v27.38a17.41,17.41,0,0,1,6-5.33,16.63,16.63,0,0,1,7.92-1.89q7.66,0,11.89,4.58t4.23,14.09v23.07l7.18,1.23v5.55h-23V530l7.18-1.23V505.62q0-5.9-2.53-8.72t-7.55-2.82a12.73,12.73,0,0,0-6.49,1.69,14.16,14.16,0,0,0-4.82,4.6v28.39l7.18,1.23v5.55h-23V530Z"/><path class="cls-2" d="M165.74,530l7.18-1.23v-34l-7.18-1.23v-5.59h15.85v40.85l7.18,1.23v5.55h-23V530Zm15.85-54.28h-8.67v-8.85h8.67v8.85Z"/><path class="cls-2" d="M194.09,530l7.18-1.23v-34l-7.18-1.23v-5.59H209l0.62,7.09a17.3,17.3,0,0,1,6-5.88,15.91,15.91,0,0,1,8.17-2.09q7.7,0,11.93,4.51t4.23,13.93v23.29l7.18,1.23v5.55h-23V530l7.18-1.23V505.66q0-6.29-2.49-8.94t-7.59-2.64a12.22,12.22,0,0,0-6.62,1.8,13.19,13.19,0,0,0-4.6,4.93v28l7.18,1.23v5.55h-23V530Z"/><path class="cls-2" d="M284.46,535.55q-0.4-1.94-.62-3.48T283.54,529a21,21,0,0,1-6.27,5.35,16,16,0,0,1-8,2.13q-7.44,0-11.31-3.63T254,522.61a11.86,11.86,0,0,1,5.48-10.46q5.48-3.68,15-3.68h8.94v-5.55a8.58,8.58,0,0,0-2.64-6.62,10.42,10.42,0,0,0-7.35-2.44,18,18,0,0,0-5.74.84,10.79,10.79,0,0,0-4,2.29l-0.92,5h-6.69v-9.24a25.74,25.74,0,0,1,7.88-4.16A31.17,31.17,0,0,1,274,487q8.1,0,13.12,4.14t5,11.84V526q0,0.93,0,1.81t0.11,1.76l3.52,0.48v5.55H284.46Zm-14-6.34a15.42,15.42,0,0,0,7.88-2.07,12.84,12.84,0,0,0,5.11-5v-7.84h-9.24q-5.33,0-8.43,2.47a7.41,7.41,0,0,0-3.1,6,5.92,5.92,0,0,0,1.94,4.78Q266.59,529.22,270.51,529.22Z"/><path class="cls-2" d="M331.69,471.46q10.26,0,16,5.28t5.7,13.91q0,8.72-5.7,14t-16,5.24h-13.6v18.93l7.18,1.23v5.55h-23V530l7.18-1.23V478.28l-7.18-1.23v-5.59h29.45Zm-13.6,31.61h13.6q6.51,0,9.75-3.5a12.5,12.5,0,0,0,3.24-8.83,12.74,12.74,0,0,0-3.24-8.89q-3.24-3.57-9.75-3.57h-13.6v24.78Z"/><path class="cls-2" d="M353.59,511.3q0-10.56,5.72-17.41T374.85,487q9.86,0,15.61,6.82t5.74,17.43v1q0,10.65-5.72,17.43t-15.54,6.78q-9.9,0-15.63-6.8t-5.72-17.41v-1Zm8.67,1q0,7.57,3.19,12.5a11.49,11.49,0,0,0,18.86,0q3.21-4.93,3.21-12.5v-1a22.53,22.53,0,0,0-3.21-12.46,10.55,10.55,0,0,0-9.46-5,10.45,10.45,0,0,0-9.42,5,22.76,22.76,0,0,0-3.17,12.46v1Z"/><path class="cls-2" d="M416.52,493.52l-5.46,1,6.21,23.73,1,5.77h0.26l1.23-5.77,9.51-30.29h7l9.55,30.29,1.36,6.43h0.26l1.28-6.43,5.85-23.73-5.55-1v-5.59h18.14v5.59l-4.14.62-12,41.42h-7l-9.24-29-2-8-0.26,0-1.85,8-9.07,29h-7l-12-41.42-4.18-.62v-5.59h18.14v5.59Z"/><path class="cls-2" d="M489.13,536.48q-9.95,0-15.83-6.62t-5.88-17.19v-1.94q0-10.17,6.05-16.93T487.81,487q9.6,0,14.55,5.81t5,15.5v5.41h-30.9l-0.13.22a18.83,18.83,0,0,0,3.48,11.29,11.08,11.08,0,0,0,9.38,4.42,21.81,21.81,0,0,0,7.73-1.25A17.74,17.74,0,0,0,502.6,525l3.39,5.63a20.79,20.79,0,0,1-6.76,4.16A27,27,0,0,1,489.13,536.48Zm-1.32-42.61a9.4,9.4,0,0,0-7.44,3.68,17.41,17.41,0,0,0-3.79,9.22l0.09,0.22h22v-1.14a13.3,13.3,0,0,0-2.73-8.54Q493.18,493.87,487.81,493.87Z"/><path class="cls-2" d="M515.85,493.52v-5.59h14.92l0.84,6.91a16.64,16.64,0,0,1,5-5.72,11.61,11.61,0,0,1,6.8-2.07,14.79,14.79,0,0,1,2.09.15,11.54,11.54,0,0,1,1.65.33L546,495.58l-4.93-.26a9.93,9.93,0,0,0-5.77,1.61,10.4,10.4,0,0,0-3.61,4.51v27.34l7.18,1.23v5.55h-23V530l7.18-1.23v-34Z"/></svg>