<svg id="Layer_1" data-name="Layer 1" xmlns="http://www.w3.org/2000/svg" viewBox="0 0 194.4 324.09"><title>cp-logo-black</title><path d="M391.79,138.66l3.37,16.61h20.13V96H395.16l-3.42,16.86H235.84c-0.35,0-.67.08-1,0.1s-0.67-.1-1-0.1a13,13,0,0,0-12.92,12.92V292.27a13,13,0,0,0,12.92,12.92h41.61v91.34l-16.65,3.38V420h59.32V399.91l-16.82-3.42v-91.3h101a13,13,0,0,0,12.92-12.92c0-.4-0.08-0.79-0.12-1.18,0-.24.07-0.47,0.07-0.72v-107c0-.38.11-0.74,0.11-1.12a13,13,0,0,0-12.92-12.92h-114a13,13,0,0,0-12.92,12.92,12.59,12.59,0,0,0,.13,1.32,12.58,12.58,0,0,0-.13,1.32v94.5H246.74V138.66h145Zm-89.41,56.23h88.06V279.1H302.38V194.89Z" transform="translate(-220.89 -95.96)"/></svg>