<svg id="Layer_2" data-name="Layer 2" xmlns="http://www.w3.org/2000/svg" viewBox="0 0 67.73 27.87"><title>fv</title><path d="M288,38.37l-0.57.15-0.58.14-0.38.08a0.77,0.77,0,0,0-.44.37l-0.31.57a2.69,2.69,0,0,1-.35.53,0.69,0.69,0,0,1-.55.24,0.47,0.47,0,0,1-.33-0.11,0.92,0.92,0,0,1-.2-0.27l-0.18-.33a1,1,0,0,0-.24-0.28l-0.47.47a1.25,1.25,0,0,1-.4-0.31,1.24,1.24,0,0,1-.31-0.4,0.7,0.7,0,0,1,.07-0.32,2.11,2.11,0,0,1,.17-0.39,0.61,0.61,0,0,1,.12-0.14,0.31,0.31,0,0,1,.12-0.1,0.8,0.8,0,0,1,.23.11l0.24,0.13h0.26a0.72,0.72,0,0,0,.39-0.08,1.07,1.07,0,0,0,.29-0.41H282a0.4,0.4,0,0,0-.11.18l-0.13.29a3.77,3.77,0,0,0-.13.47l-0.11.47h-1.77V38a1.31,1.31,0,0,1-.88-0.41,2.3,2.3,0,0,1-.45-0.81,5.82,5.82,0,0,1-.22-1,7.85,7.85,0,0,0-.18-0.91,1.24,1.24,0,0,0-.32-0.6,0.64,0.64,0,0,0-.66-0.06V30.49a0.61,0.61,0,0,1,.14-0.45,0.63,0.63,0,0,1,.33-0.18,1.52,1.52,0,0,1,.41,0l0.41,0V27.09a0.7,0.7,0,0,1,.37.11,0.49,0.49,0,0,1,.22.34h2.83v2.24h4.13V27.19h0.47v2.59h1.42V27.66h1.89v1.89H290V26.83h-3.7a0.8,0.8,0,0,1,.12-0.47,1.2,1.2,0,0,1,.28-0.28l0.35-.22a1.21,1.21,0,0,0,.35-0.32h2.12V24.71h-3.07l0.87-.13,1.36-.18,1.36-.18,0.9-.11h2.36a0.32,0.32,0,0,1,.22.21,1.11,1.11,0,0,1,0,.28,0.5,0.5,0,0,1-.24.48,2.24,2.24,0,0,1-.73.2,0.56,0.56,0,0,0,.11.13,0.57,0.57,0,0,0,.13.11l0.27,0.07,0.44,0.08L294,25.75l0.27,0s0,0.11,0,.24,0,0.2,0,.24a3.1,3.1,0,0,1,0,.57,0.54,0.54,0,0,1-.45.38v2.36h5.42V26.48a0.22,0.22,0,0,1-.13-0.09,0.73,0.73,0,0,1-.11-0.14c0-.08,0-0.24-0.06-0.47s0-.39,0-0.47h1v4.25h0.35V27h0.47v2.24h2L303,29.55h2V24.83l0.59-.24a0.39,0.39,0,0,1-.25-0.25,1,1,0,0,1-.06-0.34h3.61a0.35,0.35,0,0,0,.11-0.14l0.13-.21,0.27-.54,0.29-.59,0.14-.28-2.12-6.37h0.12l0.12,0a1.37,1.37,0,0,1,.11.2l0.13,0.27c0.06,0.19.16,0.47,0.29,0.85l0.46,1.29L309.44,20,310,21.52l0.46,1.28,0.3,0.85L311,23.89a0.76,0.76,0,0,1,0-.11,1.25,1.25,0,0,0,0-.13,0.67,0.67,0,0,0-.13-0.42,0.62,0.62,0,0,1-.13-0.4,0.31,0.31,0,0,1,.14-0.29,0.82,0.82,0,0,1,.84.07,0.62,0.62,0,0,1,.14.38,1.88,1.88,0,0,1,0,.47,2.47,2.47,0,0,0,0,.44h2.38V21.41h2.95v-6.6h-0.94a3.2,3.2,0,0,1,.4-1,1.81,1.81,0,0,1,.78-0.69h-2.59V12.57h5.66v0.59h-2c0,0.16-.09.29-0.12,0.41a2.77,2.77,0,0,0-.07.37,0.52,0.52,0,0,0,0,.28,0.76,0.76,0,0,0,.2.27,0.75,0.75,0,0,0,.27.2,1,1,0,0,0-.48,0,1,1,0,0,0-.46.2,0.16,0.16,0,0,0,0,.17c0,0.08.07,0.16,0.12,0.25l0.13,0.25a0.49,0.49,0,0,1,.06.16h3.33a1.29,1.29,0,0,1-.22.73c-0.15.22-.32,0.45-0.5,0.68a5.56,5.56,0,0,0-.5.78,2.08,2.08,0,0,0-.22,1h1.58a0.62,0.62,0,0,1-.44,0,0.75,0.75,0,0,1-.3-0.25,1.05,1.05,0,0,1-.17-0.37,1.61,1.61,0,0,1,0-.39,35.6,35.6,0,0,1,3.66.19,35.24,35.24,0,0,0,3.65.19v0.28h-3.3l-0.47.47h1.16a1.21,1.21,0,0,0,.13.61,0.82,0.82,0,0,0,.36.32,1.42,1.42,0,0,0,.51.13l0.59,0a1.33,1.33,0,0,0,.4,0l0.27-.09,0.26-.09a1.2,1.2,0,0,1,.39,0h0.24a0.64,0.64,0,0,1,.34.09,0.34,0.34,0,0,1,.08.4l0.29,0,0.29,0a1,1,0,0,0,.46-0.09,1.84,1.84,0,0,0,.33-0.22,2.12,2.12,0,0,1,.32-0.22,0.86,0.86,0,0,1,.42-0.09v0.83l1.65,0.47a0.91,0.91,0,0,0-.13.23l-0.11.24v0.24a0.84,0.84,0,0,0,0,.18c0,0.09,0,.18.07,0.28s0,0.2.07,0.28l0.06,0.2,0.24,0.71h1.27c0,0.08,0,.24,0,0.47s0,0.39-.06.47a0.23,0.23,0,0,1-.09.13l-0.14.11a0.58,0.58,0,0,1,.13.11,0.57,0.57,0,0,1,.11.13v0.24l-0.09.19-0.15.29-0.15.29a0.8,0.8,0,0,0-.07.17c0,0.12,0,.2,0,0.24a1.22,1.22,0,0,0,0,.37,1,1,0,0,0,.21.34,0.48,0.48,0,0,1,0-.15l0.12-.22a1.6,1.6,0,0,1,.15-0.21,0.39,0.39,0,0,1,.16-0.12,2.92,2.92,0,0,1,.59-0.09v2.22h0.35l0.85-.06,1.3-.08,1.52-.09,1.51-.09,1.28-.08,0.85-.06a0.84,0.84,0,0,1,0-.77,0.66,0.66,0,0,1,.57-0.25,0.74,0.74,0,0,1,.38.27,7.63,7.63,0,0,1,.53.63c0.18,0.23.34,0.46,0.47,0.67a1.3,1.3,0,0,1,.2.39,0.34,0.34,0,0,1-.08.25,1,1,0,0,1-.2.15l-0.25.13a0.59,0.59,0,0,0-.22.18l-2.83,3.77a15.2,15.2,0,0,1-3.32,3,13.62,13.62,0,0,1-3.58,1.63,18.59,18.59,0,0,1-4,.67q-2.11.13-4.54,0.13-7.73,0-15.49-.25t-15.52-.25h-6.37ZM291.4,27l-0.24,1.3h1.53v1.3H293V27.19a0.19,0.19,0,0,0-.18-0.12L292.46,27l-0.46,0h-0.32Zm1.53-2.48a0.15,0.15,0,0,0,.12.12c0.08,0,.12,0,0.12-0.12s0-.15-0.12-0.12A0.15,0.15,0,0,0,292.93,24.48ZM308,24.71a0.12,0.12,0,0,0,.12-0.12c0-.08,0-0.12-0.12-0.12s-0.15,0-.12.12A0.15,0.15,0,0,0,308,24.71Zm1.64-1.36a1.07,1.07,0,0,0-.15.53h0.78a0.78,0.78,0,0,0,0-.12,0.72,0.72,0,0,1,0-.12q0-.1-0.11-0.37a1.63,1.63,0,0,0-.13-0.34A1.17,1.17,0,0,0,309.67,23.36Zm5.12,1.32a2.67,2.67,0,0,0,.87,0,0.82,0.82,0,0,0,.27-0.08s0-.06-0.17-0.07l-0.54,0-0.54,0c-0.16,0-.21,0-0.17.07A0.81,0.81,0,0,0,314.78,24.68ZM314.51,22v1.89h1.42V22h-1.42Zm1.89,0v1.89h0.23V22H316.4Zm2.22-2.77,0.27-.27,0.32-.35a1.82,1.82,0,0,0,.26-0.38l0.94-1.89h-2.67q0,1.23.06,2.48a23.72,23.72,0,0,0,.25,2.48h1a1.27,1.27,0,0,0-.08-0.44c-0.05-.15-0.12-0.31-0.19-0.47s-0.13-.33-0.19-0.49a1.65,1.65,0,0,1-.08-0.53A0.45,0.45,0,0,1,318.62,19.23Zm-0.21,5.48a0.39,0.39,0,0,0,.35-0.12s0-.06-0.08-0.07l-0.27,0-0.26,0c-0.08,0-.11,0-0.1.07A0.4,0.4,0,0,0,318.4,24.71ZM318,24.12h0.52a3.78,3.78,0,0,0-.13-1,3.38,3.38,0,0,0-.39-0.91v1.89Zm0.89-2.37h-0.06l-0.12,0-0.14.13a0.26,0.26,0,0,0-.09.11L319,23.42V21.76h-0.06Zm2.3-3.41a0.14,0.14,0,0,0,.12.12c0.08,0,.12,0,0.12-0.12s0-.15-0.12-0.12A0.14,0.14,0,0,0,321.23,18.35Zm1.58,0.59A0.19,0.19,0,1,0,323,18.7,0.19,0.19,0,0,0,322.81,18.93ZM333,24.59a0.19,0.19,0,1,0,.19-0.24A0.19,0.19,0,0,0,333,24.59Z" transform="translate(-277.01 -12.57)"/></svg>