<svg id="Layer_2" data-name="Layer 2" xmlns="http://www.w3.org/2000/svg" viewBox="0 0 87.3 36.84"><title>msv</title><path d="M84.45,39l-2.88.07-3.51.07-3.82.08-3.81.07-3.5.06-2.89,0H28.13l-1.89-.24L25.72,38l-0.39-.87q-0.19-.41-0.26-0.53l-1-.12-0.81-.07-0.76,0H20.82a13,13,0,0,0-.33,1.43c-0.09.53-.18,1-0.26,1.4V36.33a1.9,1.9,0,0,0-.18.65c0,0.29-.09.58-0.14,0.87a3.69,3.69,0,0,1-.22.77,0.45,0.45,0,0,1-.4.33l-0.12,0A0.93,0.93,0,0,1,19,38.7a2.65,2.65,0,0,1-.11-0.25L18.87,38q0-.33-0.08-0.71c0-.25,0-0.49-0.06-0.71s0-.38,0-0.47H18.23l-0.47,2.59H17.4V35.93L10,35.15a0.75,0.75,0,0,1-.11-0.27l-0.13-.44q-0.14-.64-0.2-1.1a9.05,9.05,0,0,1-.07-0.91q0-.45,0-1t0-1.27V29.64c0-.27,0-0.55,0-0.85s0-.58,0-0.85V27.37l0.94,0.47L10,28.31v2.24a0.72,0.72,0,0,0,.24-0.07l0.35-.15,0.35-.13a0.29,0.29,0,0,1,.24,0,0.43,0.43,0,0,1,.06.16c0,0.09,0,.2.06,0.31a2.91,2.91,0,0,0,.06.31,0.46,0.46,0,0,0,.06.16l0.47,0.11,0.39,0.07,0.32,0.06h0.26a0.26,0.26,0,0,0,.22-0.08,1,1,0,0,0,.11-0.19,0.75,0.75,0,0,1,.12-0.19,0.29,0.29,0,0,1,.24-0.08,0.57,0.57,0,0,1,.35.11,0.45,0.45,0,0,1,.12.41l0.47-.47h2.12l0.47,0.47h4.48A0.78,0.78,0,0,1,21.87,31a1.12,1.12,0,0,1,.48-0.09,0.57,0.57,0,0,1,.38.06,0.33,0.33,0,0,1,0,.13,0.2,0.2,0,0,0,.15.11,2.73,2.73,0,0,0,.74.06V29.49a1.42,1.42,0,0,0,.57-0.71,4.64,4.64,0,0,0,.27-1,8.19,8.19,0,0,0,.09-1c0-.34,0-0.6,0-0.79l0.47-.24a1.27,1.27,0,0,0,.14-0.35q0.12-.35.27-0.85l0.31-1c0.1-.35.18-0.63,0.22-0.85a2.53,2.53,0,0,0,.09-0.54,1.93,1.93,0,0,1,.12-0.55,1,1,0,0,1,.31-0.42A1,1,0,0,1,27.19,21l0.13,0,0.11,0-0.12,3.3V22.66l-0.59-.24a1.59,1.59,0,0,0-.13.34l-0.11.37q0,0.28-.14,1T26.13,25.7q-0.12.83-.21,1.57t-0.14,1s0,0.11,0,.25,0,0.22,0,.27a0.5,0.5,0,0,0,.08.33,0.57,0.57,0,0,0,.18.14l0.18,0.09a0.22,0.22,0,0,1,.08.21,0.3,0.3,0,0,1-.08.22L26,30l-0.18.18a0.35,0.35,0,0,0-.08.24,1.36,1.36,0,0,0,0,.39,1,1,0,0,0,.21.34,0.45,0.45,0,0,1,.24-0.24,0.73,0.73,0,0,1,.24.12,0.71,0.71,0,0,0,.24.12,0.28,0.28,0,0,0,.11-0.09L27,30.91l0.15-.27,0.22-.42c0.08-.15.15-0.29,0.21-0.44s0.1-.24.12-0.28h0.71V28.55l-0.47.71a0.85,0.85,0,0,0,0-.11,1,1,0,0,1,0-.13A1.44,1.44,0,0,1,28,28.35a5.08,5.08,0,0,1,.34-0.57,5.31,5.31,0,0,0,.34-0.57,1.45,1.45,0,0,0,.15-0.67s0-.14,0-0.29,0-.25,0-0.29a0.59,0.59,0,0,1-.52.28,0.47,0.47,0,0,1,.52-0.54,1,1,0,0,1,.27,0,0.33,0.33,0,0,1,.2.23c0-.08,0-0.21,0-0.39s0-.38,0-0.59l0-.66c0-.23,0-0.44.07-0.63s0.05-.46.07-0.57a1.25,1.25,0,0,1,.21-0.45,0.46,0.46,0,0,1,.38-0.28,0.35,0.35,0,0,1,.37.25,2.81,2.81,0,0,1,.12.53,2,2,0,0,0,.14.53,0.43,0.43,0,0,0,.44.25h5v0.35L34.74,25v0.71h1.89l0.12-.83c0-.22.06-0.45,0.08-0.7s0-.44,0-0.6V23.46c0-.09,0-0.2,0-0.31s0-.22,0-0.33v-0.5c0-.09,0-0.2,0-0.32s0-.22,0-0.32V21.48A1.49,1.49,0,0,0,36.25,21a1.18,1.18,0,0,1-.57-0.47h0.24a1,1,0,0,1,.51.13,2.09,2.09,0,0,1,.43.33l0.4,0.4a2.29,2.29,0,0,0,.44.34v3.77l0.14-.18L38,25l0.17-.28a1.46,1.46,0,0,0,.09-0.2c0.06-.16.16-0.44,0.29-0.84L39,22.42l0.42-1.28q0.2-.6.27-0.84a2.67,2.67,0,0,0-.42-0.42l-0.52-.4q-0.26-.19-0.52-0.34l-0.42-.25h0.35a34.55,34.55,0,0,1,3.83.21,34.54,34.54,0,0,0,3.83.21V11.1a0.22,0.22,0,0,0-.12-0.15l-0.25-.15-0.34-.16a1.42,1.42,0,0,0,.37-0.1,1.89,1.89,0,0,0,.34-0.14,0.76,0.76,0,0,0,0-.12,0.79,0.79,0,0,0,0-.12,2.69,2.69,0,0,0-.34-0.25l-0.37-.22a2,2,0,0,0,.25-0.23,2.06,2.06,0,0,0,.22-0.25,0.77,0.77,0,0,0,0-.12,0.81,0.81,0,0,0,0-.12,0.65,0.65,0,0,0-.11-0.13l-0.13-.11a0.47,0.47,0,0,0,.21-0.19,0.27,0.27,0,0,0,0-.28l0.47,0.24V4l-0.24-.24A0.39,0.39,0,0,0,46,3.56a2.85,2.85,0,0,0,.14-0.37,2.23,2.23,0,0,0,.08-0.37c0-.12,0-0.19,0-0.22l0.47,9.79h2.12V13l-0.38.12L48,13.27l-0.54.2a2.85,2.85,0,0,0-.46.22v0.21c0,0.09,0,.2,0,0.32s0,0.22,0,.32v0.21q0,2.22.15,4.42a37.12,37.12,0,0,0,.58,4.42A2.08,2.08,0,0,0,48,22.77c0.06-.33.11-0.61,0.14-0.83H48.3l0.12,0a0.79,0.79,0,0,1,.38.59,3.93,3.93,0,0,1,.09.78V23.6h0.35V22.66h0.71V23.6h0.47V20.77h0.35c0,0.06,0,.17,0,0.33s0,0.33.06,0.51,0.05,0.35.08,0.5L51,22.42a0.34,0.34,0,0,0,.11.12l0.13,0.12a0.74,0.74,0,0,1,0,.12,0.72,0.72,0,0,1,0,.12L51,23.13a0.66,0.66,0,0,0,0,.12,0.19,0.19,0,0,0,0,.06,0.2,0.2,0,0,1,0,.06,4.66,4.66,0,0,0,.59.19,1.85,1.85,0,0,0,.4,0l0.39,0a4.27,4.27,0,0,1,.63,0V20.77h1.06a0.86,0.86,0,0,0,0,1,2.32,2.32,0,0,0,.94.64,6,6,0,0,0,1.28.34q0.68,0.11,1,.13a0.78,0.78,0,0,0,0,.41,0.15,0.15,0,0,0,.15.07,0.55,0.55,0,0,0,.21-0.08A0.46,0.46,0,0,1,58,23.22a2.38,2.38,0,0,1,0-.47,1.44,1.44,0,0,0,0-.31,1,1,0,0,0,0-.29,3,3,0,0,0-.19-0.43h0.59v1.65a0.35,0.35,0,0,0,.22.13,2.09,2.09,0,0,0,.37.11h1.65a3.88,3.88,0,0,0,.1-0.48,5.21,5.21,0,0,1,.13-0.62,1.58,1.58,0,0,1,.26-0.54,0.55,0.55,0,0,1,.46-0.23l-0.25-.11a0.88,0.88,0,0,1-.22-0.13,0.6,0.6,0,0,1,0-.12,0.64,0.64,0,0,1,0-.12,1.07,1.07,0,0,1,.28-0.14,1.16,1.16,0,0,1,.31-0.1V18a0.68,0.68,0,0,0,.46-0.15,1.12,1.12,0,0,0,.28-0.39,3.51,3.51,0,0,0,.18-0.5q0.07-.26.14-0.45H63v1.41h1.42v-3.3a1.05,1.05,0,0,1-.26-0.57,4.29,4.29,0,0,1,0-.61h1.08a4.42,4.42,0,0,1,0,.61,1.05,1.05,0,0,1-.26.57V17.7l0.24,0.24a1.73,1.73,0,0,1,.33,0h3.82a1.75,1.75,0,0,1,.33,0l0.27,0,0.43,0.11,0.44,0.12,0.27,0.08H69.88l0.38,0.09,0.65,0.18a2.72,2.72,0,0,1,.61.27,0.48,0.48,0,0,1,.27.4,1.38,1.38,0,0,1-.08.48l-0.18.46c-0.06.16-.12,0.32-0.18,0.48a1.68,1.68,0,0,0-.08.53q0,0.54,0,1c0,0.29,0,.58.08,0.87s0.09,0.59.15,0.91,0.14,0.67.24,1.06a0.48,0.48,0,0,1,.32.38c0,0.19.07,0.38,0.09,0.58a2.29,2.29,0,0,0,.12.52,0.38,0.38,0,0,0,.41.22,0.57,0.57,0,0,0,.35-0.11,0.44,0.44,0,0,0,.12-0.41l0.59,0.47V24.14A0.68,0.68,0,0,0,74.23,24a1.09,1.09,0,0,0,.28-0.39,3.35,3.35,0,0,0,.18-0.49c0-.17.1-0.32,0.14-0.45a0.77,0.77,0,0,0,0,.52,0.36,0.36,0,0,0,.25.18,1.11,1.11,0,0,0,.37,0,1.2,1.2,0,0,1,.34,0,2,2,0,0,1,1,.37,1.24,1.24,0,0,1,.37.6,6.73,6.73,0,0,1,.15.77,2.05,2.05,0,0,0,.37.86,0.92,0.92,0,0,1,.13.23l0.11,0.24a0.48,0.48,0,0,0,.21-0.19,0.26,0.26,0,0,0,0-.28,1.22,1.22,0,0,0,.22.14,0.65,0.65,0,0,0,.25.09h0.47l0.71,0,0.71,0H81v0.57h1.46a6.33,6.33,0,0,0,.8,0,1.42,1.42,0,0,0,.57-0.16,0.61,0.61,0,0,0,.35-0.37,1.46,1.46,0,0,0,0-.31,0.24,0.24,0,0,1,.08-0.21,1.1,1.1,0,0,1,.57-0.08l0.4,0a1,1,0,0,1,.2.46,1,1,0,0,1,0,.48h3.07V26.43a2.15,2.15,0,0,0,.28.19,0.42,0.42,0,0,0,.19,0l0.17,0a1.4,1.4,0,0,1,.31,0V26.43l0.47,0.24,0.38,0,0.61,0h0.73l0.84,0,0.51,0,0.57-.08,0.68-.13,0.59-.14a0.6,0.6,0,0,0,.28-0.12l0.24-.47a0.43,0.43,0,0,0,.07.41,0.39,0.39,0,0,0,.28.06A1.52,1.52,0,0,0,96,26.1,0.82,0.82,0,0,1,96.29,26V23.83l-0.47.94a0.94,0.94,0,0,0,0-.11,0.69,0.69,0,0,1,0-.26,0.92,0.92,0,0,0,0-.11c0-.08.08-0.22,0.14-0.42s0.13-.42.21-0.65l0.21-.64q0.09-.29.14-0.41,0,0.26.07,0.88t0.08,1.35c0,0.48,0,.93.06,1.36s0,0.72,0,.9V26.9a1.09,1.09,0,0,1-.22.14,0.67,0.67,0,0,1-.25.09l-0.47.65-0.71,1-0.84,1.17-0.84,1.18-0.71,1-0.45.66q-0.57.83-1.12,1.83a17.29,17.29,0,0,1-1.23,1.91,8.19,8.19,0,0,1-1.53,1.58,4,4,0,0,1-2,.81ZM24,30.44a0.22,0.22,0,0,0,.12.24s0.06,0,.08-0.06a0.46,0.46,0,0,0,0-.18,0.46,0.46,0,0,0,0-.18c0-.05-0.05-0.07-0.08-0.06A0.22,0.22,0,0,0,24,30.44ZM27.31,31a0.15,0.15,0,0,0,.12.12c0.08,0,.12,0,0.12-0.12s0-.15-0.12-0.12A0.15,0.15,0,0,0,27.31,31Zm0.87-.12a0.19,0.19,0,1,0,.19-0.24A0.19,0.19,0,0,0,28.18,30.91ZM28.72,31a0.15,0.15,0,0,0,.12.12c0.08,0,.12,0,0.12-0.12s0-.15-0.12-0.12A0.15,0.15,0,0,0,28.72,31Zm0-2.85a5.25,5.25,0,0,0,0,1,1,1,0,0,0,.07.33q0,0.09.08-.19a5.7,5.7,0,0,0,0-1.27c0-.19-0.05-0.25-0.08-0.19A1,1,0,0,0,28.77,28.17Zm2.31-3a0.48,0.48,0,0,0,.12.35s0.06,0,.08-0.07a1.16,1.16,0,0,0,0-.57c0-.08-0.05-0.1-0.08-0.07A0.48,0.48,0,0,0,31.08,25.13Zm5.73-3.66a0.19,0.19,0,1,1-.19-0.24A0.19,0.19,0,0,1,36.81,21.48ZM45.94,9.09a0.15,0.15,0,0,0,.12.12c0.08,0,.12,0,0.12-0.09s0-.17-0.12-0.14A0.15,0.15,0,0,0,45.94,9.09ZM47,12.75a0.19,0.19,0,1,0,.19-0.24A0.19,0.19,0,0,0,47,12.75Zm0.47,0a0.19,0.19,0,1,0,.19-0.24A0.19,0.19,0,0,0,47.52,12.75Zm0.78,0.12a0.12,0.12,0,0,0,.12-0.12q0-.12-0.12-0.12c-0.11,0-.15,0-0.12.12A0.15,0.15,0,0,0,48.3,12.87ZM58,23.13a0.19,0.19,0,1,1-.19-0.24A0.19,0.19,0,0,1,58,23.13ZM62,18.53a0.14,0.14,0,0,0,.12.12c0.08,0,.12,0,0.12-0.12s0-.15-0.12-0.12A0.15,0.15,0,0,0,62,18.53ZM63,18.41v0.31a2.07,2.07,0,0,0,.4,0,0.37,0.37,0,0,0,.31-0.26H63Zm1.18,0.24h0.24V18.41Zm0.94-.24v0.24H67V18.41H65.16Zm2.36,0v0.24h1.42V18.41H67.52Zm6.6,8.25h0.24V26.43ZM75,24.54a2.53,2.53,0,0,0,0,.71,0.57,0.57,0,0,0,.07.24s0.06,0,.08-0.14a2.76,2.76,0,0,0,0-.45,2.7,2.7,0,0,0,0-.46c0-.13-0.05-0.18-0.08-0.13A0.59,0.59,0,0,0,75,24.54Zm1.25-.24A0.37,0.37,0,0,0,75.91,24l-0.42,0a0.72,0.72,0,0,0,.15.37,4.61,4.61,0,0,0,.35.45q0.2,0.22.4,0.41a2,2,0,0,0,.32.26s0-.11,0-0.24,0-.2,0-0.24,0-.34,0-0.49a0.74,0.74,0,0,0-.24-0.45ZM77,26.43a0.19,0.19,0,1,0,.19-0.24A0.19,0.19,0,0,0,77,26.43Zm0.24-.24a0.19,0.19,0,1,0,.38,0A0.19,0.19,0,1,0,77.23,26.19Zm18.43-1.12a0.46,0.46,0,0,1,0,.35c0,0.06-.05.08-0.08,0.06a0.3,0.3,0,0,1,0-.47S95.64,25,95.67,25.07Z" transform="translate(-9.46 -2.61)"/></svg>