<svg id="Layer_1" data-name="Layer 1" xmlns="http://www.w3.org/2000/svg" viewBox="0 0 411.29 115.4"><defs><style>.cls-1{fill:#010101;}</style></defs><title>Navy</title><path class="cls-1" d="M1239,43.09a75.87,75.87,0,0,1-4,8.76q-2.3,4.33-4.79,8.29t-4,7.06H835.69a3.27,3.27,0,0,1-.46-1.18c-0.25-.79-0.43-1.43-0.56-1.91-0.48-1.85-1-3.9-1.65-6.13s-1.19-4.5-1.71-6.8-1-4.55-1.34-6.75a36.31,36.31,0,0,1-.56-6.07c0-.14,0-0.48,0-1s0.05-.89.05-1a12.77,12.77,0,0,1,1.91,3.76c0.37,1.27.73,2.52,1.08,3.76a19.79,19.79,0,0,0,1.39,3.61,9.94,9.94,0,0,0,2.83,3.3,189.57,189.57,0,0,0,19,1.7q9.43,0.36,19.11.36h3.1a11.67,11.67,0,0,0,1.18-2.47q0.46-1.34.87-2.68c0.69,0,1.57,0,2.63-.1a15.23,15.23,0,0,0,3.09-.52,6.13,6.13,0,0,0,2.52-1.34,3.43,3.43,0,0,0,1-2.68V42.47a19.46,19.46,0,0,0-1.86-2.68,4.81,4.81,0,0,1-1.23-3V36.29l2.06,1a1.23,1.23,0,0,1,.21-1.49,1.6,1.6,0,0,1,1.85-.57l8.24,8.24-1,2.06H924.3V42.47L910.9,40.41v-1h17.51a21,21,0,0,1,1.49-1.6,18.79,18.79,0,0,1,1.6-1.49,1.61,1.61,0,0,1,.51-0.1,3.06,3.06,0,0,1,.52.1l2.06,1a3,3,0,0,0,.52-0.1,3,3,0,0,1,.51-0.11V36.29h3.92c0,0.34,0,1,.1,2a28.6,28.6,0,0,0,.41,3.14,23.45,23.45,0,0,0,.72,2.88c0.27,0.82.62,1.24,1,1.24h17.52V31.14l5.15,2.06a27.44,27.44,0,0,0,1.19-3.61c0.3-1.24.6-2.44,0.87-3.61a4.43,4.43,0,0,0,1.39,1.54,13.13,13.13,0,0,0,2.17,1.29,17.09,17.09,0,0,0,2.31.93,6.37,6.37,0,0,0,1.85.36,6.62,6.62,0,0,0,2.83-.41,2.29,2.29,0,0,0,1.08-1.14,9.54,9.54,0,0,0,.52-1.65,4.16,4.16,0,0,1,1.24-2,3.19,3.19,0,0,1,1.7-1.08,3.13,3.13,0,0,1,1,.06,0.45,0.45,0,0,0,.52-0.1,3.6,3.6,0,0,0,.15-1.45,5.36,5.36,0,0,0-.1-0.77,3.75,3.75,0,0,0-.21-0.77L981,22.9V15.68a8.8,8.8,0,0,0,2.17.93,14.43,14.43,0,0,1,2.17.77,5.89,5.89,0,0,1,1.8,1.24,4.26,4.26,0,0,1,1.08,2.21,1.64,1.64,0,0,1-.31,1.09,2.86,2.86,0,0,1-.72,1,2,2,0,0,1,1.65.51,4,4,0,0,1,.92,1.44,7.28,7.28,0,0,1,.41,1.75,14.08,14.08,0,0,1,.1,1.44h7.21q0.1-1.55.21-3.86c0.06-1.55.17-3.19,0.31-4.94s0.33-3.49.57-5.2a28.15,28.15,0,0,1,1-4.54V-18.32l1,2.06,2.06,24.73A11.65,11.65,0,0,1,1005,8a9.33,9.33,0,0,1,2.78.1,5.36,5.36,0,0,1,2.37,1.08,3.5,3.5,0,0,1,1.23,2.37V-1.83a2.47,2.47,0,0,1,1.39-.56,18.63,18.63,0,0,1,2.22-.47h0.72c0.34,0,.77,0,1.29,0s1-.05,1.6-0.05h2.26c0.48,0,1,0,1.45.05s0.92,0,1.34,0h0.62a6.1,6.1,0,0,1,1.29.47,1.28,1.28,0,0,1,.77.56V9.5a2.93,2.93,0,0,0-2.27.05,2.53,2.53,0,0,0-1,1.39,8.83,8.83,0,0,0-.42,2,5.7,5.7,0,0,1-.41,1.75,3.94,3.94,0,0,1-1.75,2.16c-0.83.48-1.65,1-2.48,1.54a8.77,8.77,0,0,0-2.16,2.06,5.73,5.73,0,0,0-.93,3.5,3.43,3.43,0,0,0,.05.56c0,0.24.05,0.4,0.05,0.46a1.91,1.91,0,0,1,.88,0c0.38,0.07.79,0.15,1.23,0.26a10.82,10.82,0,0,1,1.24.36,2.18,2.18,0,0,1,.77.41,0.74,0.74,0,0,1,.15.57c0,0.38,0,.66,0,0.87a3.13,3.13,0,0,1-.51,1.85,11.28,11.28,0,0,1-1.19,1.39,11.33,11.33,0,0,0-1.18,1.39,3.28,3.28,0,0,0-.51,2,22.65,22.65,0,0,0,.15,2.73,7.4,7.4,0,0,0,1,2.63,6,6,0,0,0,2.27-2.21,13.18,13.18,0,0,0,1.44-3.25,25.67,25.67,0,0,0,.77-3.56,22.6,22.6,0,0,0,.26-3.15,1.92,1.92,0,0,1,1.6,1.29,16.18,16.18,0,0,1,1.19,3.19,41.63,41.63,0,0,1,.88,4.17q0.36,2.27.61,4.18c0.17,1.27.36,2.33,0.57,3.19s0.45,1.29.72,1.29l6.18-.52v-6.7h17V43.5h10.31V35.78h4.12V27a1.37,1.37,0,0,0,1.34-.46,2.69,2.69,0,0,0,.21-1.09V24.64a45.55,45.55,0,0,0-.56-7.16,44.86,44.86,0,0,1-.57-7.16c0-1.17,0-2.18.11-3a7.28,7.28,0,0,1,1-2.93c0.28-.07.76-0.21,1.45-0.41l2.21-.67q1.19-.36,2.16-0.62l1.4-.36a6.28,6.28,0,0,1,1.13-.52,2,2,0,0,0,.92-0.51,1.47,1.47,0,0,0,.1-0.41,2.52,2.52,0,0,0-.1-0.62q-0.41-1.34-1.08-3.45c-0.45-1.41-.89-2.77-1.33-4.07s-1-2.92-1.7-4.84l-1-3.09,0.41-.05,0.41-.06c0-.34,0-1,0.1-2.11s0.11-2,.11-2.73v-1.24c-0.08-.68-0.16-1.54-0.27-2.57s-0.2-2-.3-3-0.26-2.21-.46-3.66l-1-1a1,1,0,0,1,.25-1,7.33,7.33,0,0,1,1.08-1.39,3.15,3.15,0,0,1,.72-0.72,1.63,1.63,0,0,1,1.33.31,4.9,4.9,0,0,0,1.24.52V-48.2h1.54v16.49l-1,2.06h0.52a4.44,4.44,0,0,0,2.11-.52c0.65-.34,1.29-0.7,1.9-1.08s1.24-.74,1.85-1.08a3.83,3.83,0,0,1,1.86-.52,9,9,0,0,1,2.94.52,9.21,9.21,0,0,1,2.68,1.44,8.08,8.08,0,0,1,2,2.22,5.41,5.41,0,0,1,.77,2.83c0,0.34,0,.81-0.05,1.39s0,0.91,0,1a1.11,1.11,0,0,1-.46.41,11.37,11.37,0,0,1-1.08.62,9.75,9.75,0,0,0-1.08.62,1.14,1.14,0,0,0-.47.41,2.75,2.75,0,0,0,0,1.8,17.23,17.23,0,0,0,.62,2,4.21,4.21,0,0,0,.41.87h7.21a1,1,0,0,1,1,1.08,13.43,13.43,0,0,1,.15,1.6,3.32,3.32,0,0,1-.72,1.44,21.3,21.3,0,0,1-1.7,2.12A13.16,13.16,0,0,1,1093-8.68a2.66,2.66,0,0,1-1.8.67,1.62,1.62,0,0,1,1.75.67,6.23,6.23,0,0,1,.93,2.07,11.06,11.06,0,0,1,.36,2.26c0,0.72.05,1.12,0.05,1.18a3.29,3.29,0,0,1-1,1,13,13,0,0,1-1.19.67,6.89,6.89,0,0,0-1.14.72,2.88,2.88,0,0,0-.82,1.24h4.23c0,0.14-.05.63-0.15,1.49s-0.24,1.92-.41,3.19a25.41,25.41,0,0,1-.56,3,3.93,3.93,0,0,1-1.19,2c-0.58.51-1.17,1-1.76,1.49a12,12,0,0,0-1.59,1.59A3.72,3.72,0,0,0,1088,17c0,0.21,0,.54,0,1s0.05,0.71.05,0.77c0.07,0.48.16,1.07,0.26,1.75s0.21,1.36.31,2,0.26,1.46.47,2.42h7.21a2.16,2.16,0,0,1-.1-0.82,7.06,7.06,0,0,1,.31-1.9,2.3,2.3,0,0,1,.83-1.39c1.16-.13,1.92-0.2,2.26-0.2a6.51,6.51,0,0,1,1.81.2,8.27,8.27,0,0,1,1.18.47,9,9,0,0,0,1.08.46,4.45,4.45,0,0,0,1.5.21,2.64,2.64,0,0,0,2.26-1.14,9.74,9.74,0,0,0,1.34-2.68c0.34-1,.65-2.06.93-3.09a8.32,8.32,0,0,1,1-2.47l1.55-14.43V8.27a4.94,4.94,0,0,1,1.18.1,2.38,2.38,0,0,0,.67.1,1.28,1.28,0,0,0,.56-0.2,13.41,13.41,0,0,0,1.19-.83,8.93,8.93,0,0,0,0,3.81c0.28,1.37.62,2.8,1,4.28s0.82,3,1.23,4.53a17.9,17.9,0,0,1,.62,4.69q4.64,0,8.86-.41t8.87-.41v5.15a2.48,2.48,0,0,0-1.65.51,3.53,3.53,0,0,0-1,1.34,6,6,0,0,0-.47,1.75c-0.06.62-.1,1.17-0.1,1.65a4.65,4.65,0,0,0,.1,1,4.91,4.91,0,0,0,.26.77c0.1,0.24.21,0.53,0.31,0.88a4.8,4.8,0,0,1,.15,1.34h12.16v6.18c0.42,0,1.14,0,2.17-.11s2.11-.15,3.24-0.26,2.21-.22,3.25-0.36,1.75-.24,2.16-0.31l1-.46a3.8,3.8,0,0,0,1-.56c0.07-1.44.17-2.66,0.26-3.66a5.67,5.67,0,0,1,.78-2.47,3.6,3.6,0,0,1,1.8-1.44,13,13,0,0,1,3.35-.67L1168,12.59V32.17a2.26,2.26,0,0,0,.87,1.7,7.63,7.63,0,0,0,2.11,1.29,17.27,17.27,0,0,0,2.47.82,9,9,0,0,0,2.07.31,39,39,0,0,0,6.39-.51,38,38,0,0,1,6.28-.52,5.58,5.58,0,0,1,1.19.1,1.28,1.28,0,0,1,.78.93l-14.43,3.09v2.06l62.85-7.21a1,1,0,0,0,.56-0.41,3.48,3.48,0,0,0,.47-0.62,7.67,7.67,0,0,0,.57-1.49c0.24-.79.38-1.32,0.46-1.6V31c0,0.41,0,.88.06,1.39s0,1,0,1.39v0.93A23.18,23.18,0,0,1,1239,43.09Zm-343,4a0.52,0.52,0,0,0,.52.52c0.34,0.07.51-.1,0.51-0.52s-0.17-.65-0.51-0.51A0.64,0.64,0,0,0,896,47.1ZM1021.29,37c-0.38.79-.79,1.61-1.24,2.48s-0.86,1.68-1.24,2.47-0.63,1.32-.77,1.59a1,1,0,0,0-.16.52q-0.05.42-.05,0.52h5.56a33,33,0,0,0-.36-4.74c-0.25-1.65-.53-3.16-0.88-4.53C1022,35.6,1021.67,36.17,1021.29,37Zm51.88-64a1.72,1.72,0,0,0,.52,1.54c0.14,0.14.26,0,.36-0.36a4.32,4.32,0,0,0,.16-1.19,3.82,3.82,0,0,0-.16-1.13c-0.1-.34-0.22-0.48-0.36-0.41A1.72,1.72,0,0,0,1073.17-27.08Zm1.49,13.14a0.76,0.76,0,0,0,0,.25,3.78,3.78,0,0,0,.1.52,4.19,4.19,0,0,0,1,.57c0.51,0.24.88,0.4,1.08,0.47l-2.06-2.06A0.74,0.74,0,0,1,1074.66-13.94ZM1077.81-9a11.59,11.59,0,0,0-1.5-1.08c-0.79-.52-1.32-0.84-1.6-1,0,0.14,0,.4,0,0.78s0,0.63,0,.77a8.14,8.14,0,0,0,.41,2.83,12.28,12.28,0,0,0,1.75,2.83,17.53,17.53,0,0,0,.57-2.06c0.24-1,.39-1.71.46-2.06V-9Zm-1.55-12.88a0.52,0.52,0,0,0,.51-0.51c0.07-.35-0.1-0.52-0.51-0.52s-0.66.17-.52,0.52A0.64,0.64,0,0,0,1076.26-21.92Zm-0.52,5.67A10.81,10.81,0,0,0,1078-14,4.8,4.8,0,0,0,1080.9-13v-3.3h-5.15Zm5.15,18.44a22.21,22.21,0,0,0-.67,2.88,22.68,22.68,0,0,0-.31,3q-0.05,1.44-.05,2.37v1.13a14.66,14.66,0,0,0,.1,1.55c0.06,0.68.15,1.43,0.26,2.21s0.22,1.51.36,2.16,0.24,1.08.31,1.29,0.16,0.74.26,1.18l0.31,1.35a16.52,16.52,0,0,0,.46,1.6h2.47c0-.41,0-1.1,0-2.06s-0.09-2-.15-3.09-0.12-2.13-.16-3.09S1084,13,1084,12.59c-0.07-.83-0.1-1.82-0.1-3s0-2.36-.11-3.56a17.4,17.4,0,0,0-.51-3.4,4.71,4.71,0,0,0-1.34-2.42A4.75,4.75,0,0,0,1080.9,2.19Zm3.81-18.44a9.48,9.48,0,0,0,.2,1.75,1.65,1.65,0,0,0,1.14,1.34v-3.09h-1.34Zm3.76,10a3.62,3.62,0,0,0-1.39,1.29h3.09V-7A15.76,15.76,0,0,0,1088.47-6.21Zm-1.39,6.44v1l1-1h-1Zm0,4.12h2.06V2.29Z" transform="translate(-829.41 48.2)"/></svg>