<svg id="Layer_2" data-name="Layer 2" xmlns="http://www.w3.org/2000/svg" viewBox="0 0 63.05 17.8"><title>uv</title><path d="M571,175.33a10.89,10.89,0,0,0-.63,1.92,13.25,13.25,0,0,0-.3,2,19.48,19.48,0,0,0-.05,2H519.88a10.34,10.34,0,0,0-2.52-.64,22.21,22.21,0,0,0-2.59-.15h-0.71l-0.36,0h-0.18l-0.51.25a0.27,0.27,0,0,0,0-.06,0.21,0.21,0,0,1,0-.06,0.8,0.8,0,0,1,0-.12l0.51-.51a0.69,0.69,0,0,0,0-.13,0.27,0.27,0,0,0-.1-0.23,0.63,0.63,0,0,0-.26-0.11l-0.3-.05h-0.25a0.59,0.59,0,0,0-.56.25,2.37,2.37,0,0,0-.24.55,3,3,0,0,1-.23.54,0.54,0.54,0,0,1-.52.25,1.19,1.19,0,0,1-.29,0,0.23,0.23,0,0,1-.14-0.12,0.71,0.71,0,0,1-.08-0.25,3.22,3.22,0,0,0-.1-0.42c-0.12-.42-0.27-1-0.44-1.63s-0.35-1.3-.51-1.92-0.3-1.15-.41-1.6-0.17-.68-0.17-0.7V173.1h25.29v-2.29a0.28,0.28,0,0,1,.17-0.2,1.8,1.8,0,0,1,.4-0.18,3.17,3.17,0,0,1,.44-0.12l0.29,0a0.85,0.85,0,0,1,.74.32,1.78,1.78,0,0,1,.3.76,4.12,4.12,0,0,1,.05.93c0,0.32,0,.59,0,0.81h0.3a5.44,5.44,0,0,1,.14-0.94c0.08-.32.15-0.64,0.22-1s0.12-.64.17-1a3.25,3.25,0,0,0,0-.94,0.93,0.93,0,0,1,.25-0.14l0.25-.12,0.13,0,0.13,0a4.94,4.94,0,0,1,.39.37c0.19,0.2.32,0.33,0.37,0.39h2.29v-5.08a0.79,0.79,0,0,1-.44-0.37,1.38,1.38,0,0,1-.09-0.52s0-.1,0-0.19,0-.16,0-0.19a0.45,0.45,0,0,0,.08.44,0.42,0.42,0,0,0,.32.06,1.65,1.65,0,0,0,.39-0.1,1,1,0,0,1,.28-0.08c-0.05,0-.06,0,0-0.1a0.56,0.56,0,0,1,.24-0.23,0.61,0.61,0,0,0,.36.58,1.48,1.48,0,0,0,.66.18l-1,.51a0.78,0.78,0,0,0,.17.38,0.87,0.87,0,0,0,.27.2l0.31,0.16a1,1,0,0,1,.28.27,0.32,0.32,0,0,0-.27.33c0,0.19,0,.33,0,0.43a2,2,0,0,0,.19.89,0.86,0.86,0,0,0,.85.38,0.9,0.9,0,0,0-.37.48,1.62,1.62,0,0,0-.14.53,0.21,0.21,0,0,0,.1.13l0.15,0.13,0.14,0,0.26,0.08,0.24,0.07,0.13,0.07a0.26,0.26,0,0,1-.08.25,0.75,0.75,0,0,0-.13.25h1v0.25l-0.25,2.54v0.25h1.09a0.7,0.7,0,0,1,.08-0.34,1.4,1.4,0,0,1,.19-0.27l0.23-.28a1.4,1.4,0,0,0,.19-0.38,2.86,2.86,0,0,1,.29.61c0.08,0.22.15,0.44,0.22,0.66l0.2-.13,0.32-.23,0.31-.24,0.19-.17,0.13-.14a0.35,0.35,0,0,1,.13-0.12h0.28l0.33,0c0.08,0,.11,0,0.09,0a2,2,0,0,1-.45.05l1.27,1.27H572v0.38A7.61,7.61,0,0,0,571,175.33Z" transform="translate(-508.95 -163.44)"/></svg>