<svg id="Layer_2" data-name="Layer 2" xmlns="http://www.w3.org/2000/svg" viewBox="0 0 78.45 19.82"><title>uv</title><path d="M504.63,210.43l-1.44-.29-1.5-.29a8,8,0,0,0-.81-0.14,0.4,0.4,0,0,0-.28.1l-0.21.21-0.19.21a0.35,0.35,0,0,1-.26.1,0.82,0.82,0,0,1-.21-0.14,4,4,0,0,0-.45-0.3,4.25,4.25,0,0,0-.62-0.3,1.82,1.82,0,0,0-.67-0.14,0.83,0.83,0,0,0-.58.18,3.36,3.36,0,0,0-.36.4,2.24,2.24,0,0,1-.38.4,1.14,1.14,0,0,1-.72.18h-0.43l-0.4,0a6.52,6.52,0,0,0-.19-1.07,1.82,1.82,0,0,0-.23-0.52,0.47,0.47,0,0,0-.28-0.19l-0.34-.08a1.25,1.25,0,0,1-.41-0.23,2.17,2.17,0,0,1-.47-0.65c0-.11-0.05-0.31-0.11-0.59s-0.11-.59-0.16-0.91l-0.17-.92c-0.06-.3-0.09-0.5-0.11-0.61v-0.28a1.38,1.38,0,0,1,.26-0.17,0.81,0.81,0,0,1,.29-0.11l-0.27-.55,2.2-2.2a2,2,0,0,1,1.21-.5,11.93,11.93,0,0,1,1.57-.11h0.85a0.73,0.73,0,0,1,0,.17,0.73,0.73,0,0,0,0,.16c0,0.09-.09.21-0.15,0.34a0.51,0.51,0,0,1-.12.21l-0.15,0-0.26-.1-0.26-.1-0.15,0a2.69,2.69,0,0,0-1.86.78,2.94,2.94,0,0,0-.53,1.91,6.5,6.5,0,0,1,.74,0l0.38,0a1.93,1.93,0,0,0,.41-0.05l0.85-.22-1.93-.55a0.57,0.57,0,0,1,0-.11,0.33,0.33,0,0,1,0-.08,0.34,0.34,0,0,0,0-.08c0-.09.09-0.24,0.15-0.45a3.82,3.82,0,0,1,.13-0.37l0.14,0,0.14,0a3.72,3.72,0,0,1,.55.55h1.78a4.76,4.76,0,0,0,.55,0,2.69,2.69,0,0,0,.55-0.08,0.92,0.92,0,0,0,.43-0.23q0,0.08,0,.28c0,0.13,0,.27,0,0.41s0,0.28,0,.41,0,0.22,0,.27a0.31,0.31,0,0,0,.11.17,0.29,0.29,0,0,0,.16.11l1.66,0.14,1.32,0.08,1.24,0h2.93l-0.45,0-0.62-.08a3.65,3.65,0,0,1-.63-0.17,1.53,1.53,0,0,1-.5-0.28l0.27-.27a10.24,10.24,0,0,0,1.38,0c0.42,0,.83-0.06,1.22-0.11l1.2-.14a11.67,11.67,0,0,1,1.29-.07h1.51a0.94,0.94,0,0,1,.34.37,4,4,0,0,1,.21.45,2.28,2.28,0,0,1,.55-0.48l0.55-.34-0.43-.26a3.15,3.15,0,0,1-.4-0.29,0.19,0.19,0,0,1-.11-0.22H514c0.29,0,.6,0,0.93,0a7.63,7.63,0,0,0,1-.14,4.26,4.26,0,0,0,.88-0.28,2,2,0,0,0,.66-0.43,0.5,0.5,0,0,0,0-.26,0.74,0.74,0,0,1,0-.29l0.1-.27,0.15-.41,0.16-.41a2.45,2.45,0,0,1,.14-0.27h0.42a0.87,0.87,0,0,1,.59.11,0.4,0.4,0,0,1,.07.22,0.3,0.3,0,0,0,.19.22,2.54,2.54,0,0,0,1,.11s0,0,0,0,0,0,0,0a4.87,4.87,0,0,1,.17-0.63,3.22,3.22,0,0,1,.36-0.72,2.27,2.27,0,0,1,.65.17l0.43,0.21,0.41,0.18a1.66,1.66,0,0,0,.58.08,1.86,1.86,0,0,1,.07-0.55,1.86,1.86,0,0,0,.08-0.4,0.65,0.65,0,0,0-.08-0.36,1.76,1.76,0,0,0-.46-0.45,0.33,0.33,0,0,0,.24-0.17,0.6,0.6,0,0,0,0-.26,1.43,1.43,0,0,0-.06-0.29,0.85,0.85,0,0,1,0-.25,0.14,0.14,0,0,1-.07-0.1c0-.06-0.06-0.08-0.1,0a0.53,0.53,0,0,0-.07.15c0,0.08,0,.17-0.07.26a2,2,0,0,1-.07.26,0.42,0.42,0,0,1-.07.15,1,1,0,0,1-.25.11l-0.36.1-0.36.07-0.25,0a1.85,1.85,0,0,1,.26-0.56c0.17-.3.38-0.62,0.61-1s0.45-.63.65-0.89a1.13,1.13,0,0,1,.38-0.4l0.14,0,0.22,0.26a1.22,1.22,0,0,1,.19.29V193.5h0.41l0.23,1.07,0.19,0.91a7,7,0,0,1,.12.77v0.27a1.3,1.3,0,0,1-.27.17,1,1,0,0,1-.28.11v1.6a3.64,3.64,0,0,0,1-.13,3.7,3.7,0,0,1,1-.12,3.05,3.05,0,0,1,.59.06,0.47,0.47,0,0,1,.32.52V196.8h0.41v2.75a0.26,0.26,0,0,0-.28.28v0.82l0.07,0.69,0.08,0.81c0,0.27.07,0.59,0.12,1l0.27,0.28a0.74,0.74,0,0,1,.21-0.54,1.82,1.82,0,0,1,.5-0.34,2.38,2.38,0,0,1,.62-0.19,3.52,3.52,0,0,1,.58-0.05,5.31,5.31,0,0,1,.67,0,1.62,1.62,0,0,1,.59.18,0.86,0.86,0,0,1,.37.41,1.36,1.36,0,0,1,0,.77l0.37-.21a0.63,0.63,0,0,1,.45-0.07c0-.05,0-0.15-0.07-0.28l-0.08-.41c0-.15-0.05-0.29-0.08-0.41a1.45,1.45,0,0,1,0-.28v-0.27a10.35,10.35,0,0,0,0-1.42,5.82,5.82,0,0,1,.07-1.34,1.89,1.89,0,0,1,.48-1,1.69,1.69,0,0,1,1.25-.39h0.11s0.06,0.16.12,0.37,0.12,0.36.15,0.45l0.55,2.75,0.28,0.28v-1.1q0-.22,0-0.81c0-.39,0-0.81-0.07-1.25s-0.06-.86-0.1-1.25-0.06-.67-0.08-0.81a3.09,3.09,0,0,0-.5-0.5,2,2,0,0,0-.61-0.33v-4.07a1.14,1.14,0,0,1,.43.05,0.2,0.2,0,0,1,.14.14,0.52,0.52,0,0,1,0,.21,1.33,1.33,0,0,0,0,.26,0.59,0.59,0,0,0,.3.38,0.65,0.65,0,0,0,.22.07l0.44,0.08,0.45,0.08,0.26,0,0.35,0.15a0.5,0.5,0,0,1,.21.13v2.48l-0.55.28v0.13c0,0.09,0,.19,0,0.3s0,0.23,0,.36v0.28c0,0.41,0,.78,0,1.14s0,0.71.06,1.06,0.06,0.7.1,1.06,0.08,0.75.14,1.17l0.55-.27a0.31,0.31,0,0,0,.07-0.19c0-.13.06-0.29,0.08-0.47s0.05-.37.08-0.55a2.94,2.94,0,0,0,0-.44v-0.63c0-.22,0-0.46,0-0.72a2.77,2.77,0,0,1,.14-0.7,1.47,1.47,0,0,1,.32-0.54,0.74,0.74,0,0,1,.56-0.22,2.17,2.17,0,0,0,.12.73,5.07,5.07,0,0,0,.3.68c0.12,0.22.23,0.44,0.34,0.67a3.11,3.11,0,0,1,.25.73v-3h0.69v2.2a0.31,0.31,0,0,1,.29-0.29h0.43a0.58,0.58,0,0,1,.48.23,2.43,2.43,0,0,1,.3.55,3.3,3.3,0,0,1,.18.65,5.18,5.18,0,0,0,.11.52v-1.93a1.1,1.1,0,0,1,.33.41,3.11,3.11,0,0,1,.22.61,4.18,4.18,0,0,1,.11.67q0,0.34,0,.62v0.44a1.59,1.59,0,0,0,1,1.32,4.41,4.41,0,0,0,1.71.33h1.18a0.19,0.19,0,0,1,.05.14,0.26,0.26,0,0,1,0,.08,0.06,0.06,0,0,1,0,.06l-0.15.07-0.28.09-0.26.07a0.38,0.38,0,0,0-.14.05s0,0,0,0,0.1,0,.1,0a1.48,1.48,0,0,1,.48.15,0.73,0.73,0,0,0,.48.1,1,1,0,0,0,.34-0.37,1.05,1.05,0,0,0,.21-0.45h1.51a13.42,13.42,0,0,1,1.39.07l1.28,0.14,1.31,0.14a14,14,0,0,0,1.45.07,0.23,0.23,0,0,1-.05.17,0.73,0.73,0,0,1-.13.15,0.63,0.63,0,0,1-.15.12l0.43,0a5.65,5.65,0,0,1,.62.1c0.22,0,.44.1,0.65,0.17a1.42,1.42,0,0,1,.51.26h3q1.82,0.06,3.32.07t2.82,0c0.88,0,1.72-.05,2.52-0.11s1.58-.13,2.35-0.22a4.33,4.33,0,0,0,.68-0.12,0.71,0.71,0,0,0,.36-0.22,1,1,0,0,0,.18-0.4c0-.16.08-0.38,0.14-0.66a0.74,0.74,0,0,1,0-.25h0.27c0.06,0.29.1,0.54,0.12,0.74s0.06,0.41.08,0.63L571.1,204v0.3a9.57,9.57,0,0,1-.12,1.56q-0.12.76-.29,1.55c-0.11.53-.21,1.08-0.29,1.65a12.61,12.61,0,0,0-.12,1.82l-0.28.27h-3.8l-1.93,0h-8l-3,0h-9.72l-4.93-.06-6-.07q-3.22,0-6.54-.08l-6.54-.1-6-.08-4.93-.08-3.32-.07Zm-5.17-6.55a0.69,0.69,0,0,0-.21,0,0.68,0.68,0,0,0-.21,0c-0.06,0-.09,0-0.07.08a0.34,0.34,0,0,0,.55,0S499.52,203.89,499.46,203.88Zm-5.46-.8a0.91,0.91,0,0,0-.33.69,1,1,0,0,0,.65-0.26,0.84,0.84,0,0,0,.29-0.65,1,1,0,0,0,0-.15,1,1,0,0,1,0-.12C494.41,202.71,494.22,202.87,494,203.08Z" transform="translate(-492.65 -191.35)"/></svg>