<svg width="39" height="47" viewBox="0 0 39 47" fill="none" xmlns="http://www.w3.org/2000/svg">
<g clip-path="url(#clip0_238_44431)">
<g clip-path="url(#clip1_238_44431)" filter="url(#filter0_d_238_44431)">
<rect width="35" height="31" transform="translate(2 2.4502)" fill="white"/>
<g opacity="0.3" filter="url(#filter1_i_238_44431)">
<rect width="35" height="29" transform="translate(2 2.4502)" fill="white"/>
<path d="M6 8.00537V6.4502H6.76648V8.00537H6Z" fill="black"/>
<path d="M6.74564 8.00537V6.4502H8.89273V8.00537H6.74564Z" fill="black"/>
<path d="M8.67909 8.00537V6.4502H10.2127V8.00537H8.67909Z" fill="black"/>
<path d="M9.88448 8.00537V6.4502H10.4979V8.00537H9.88448Z" fill="black"/>
<path d="M10.3227 8.00537V6.4502H11.7027V8.00537H10.3227Z" fill="black"/>
<path d="M11.3946 8.00537V6.4502H12.9283V8.00537H11.3946Z" fill="black"/>
<path d="M12.6 8.00537V6.4502H14.5941V8.00537H12.6Z" fill="black"/>
<path d="M14.4957 8.00537V6.4502H16.0294V8.00537H14.4957Z" fill="black"/>
<path d="M15.778 8.00537V6.4502H16.8512V8.00537H15.778Z" fill="black"/>
<path d="M16.831 8.00537V6.4502H18.2109V8.00537H16.831Z" fill="black"/>
<path d="M18.0364 8.00537V6.4502H18.6498V8.00537H18.0364Z" fill="black"/>
<path d="M18.4746 8.00537V6.4502H19.8546V8.00537H18.4746Z" fill="black"/>
<path d="M19.7569 8.00537V6.4502H20.9831V8.00537H19.7569Z" fill="black"/>
<path d="M20.8086 8.00537V6.4502H22.8026V8.00537H20.8086Z" fill="black"/>
<path d="M22.7043 8.00537V6.4502H24.6983V8.00537H22.7043Z" fill="black"/>
<path d="M24.6 8.00537V6.4502H25.6732V8.00537H24.6Z" fill="black"/>
<path d="M25.4993 8.00537V6.4502H26.5725V8.00537H25.4993Z" fill="black"/>
<path d="M26.2449 8.00537V6.4502H27.3181V8.00537H26.2449Z" fill="black"/>
<path d="M26.9906 8.00537V6.4502H28.5242V8.00537H26.9906Z" fill="black"/>
<path d="M28.196 8.00537V6.4502H29.7296V8.00537H28.196Z" fill="black"/>
<path d="M29.4782 8.00537V6.4502H30.0917V8.00537H29.4782Z" fill="black"/>
<path d="M29.9164 8.00537V6.4502H30.9896V8.00537H29.9164Z" fill="black"/>
<path d="M30.8158 8.00537V6.4502H32.042V8.00537H30.8158Z" fill="black"/>
<path d="M31.8675 8.00537V6.4502H32.4809V8.00537H31.8675Z" fill="black"/>
<path d="M6 11.0054V9.4502H7.37994V11.0054H6Z" fill="black"/>
<path d="M7.16764 11.0054V9.4502H8.70128V11.0054H7.16764Z" fill="black"/>
<path d="M8.37303 11.0054V9.4502H9.90667V11.0054H8.37303Z" fill="black"/>
<path d="M9.57842 11.0054V9.4502H11.1121V11.0054H9.57842Z" fill="black"/>
<path d="M10.8998 11.0054V9.4502H11.973V11.0054H10.8998Z" fill="black"/>
<path d="M11.9528 11.0054V9.4502H13.3327V11.0054H11.9528Z" fill="black"/>
<path d="M13.1582 11.0054V9.4502H14.6918V11.0054H13.1582Z" fill="black"/>
<path d="M14.5173 11.0054V9.4502H15.1307V11.0054H14.5173Z" fill="black"/>
<path d="M14.9555 11.0054V9.4502H16.4892V11.0054H14.9555Z" fill="black"/>
<path d="M16.2378 11.0054V9.4502H17.311V11.0054H16.2378Z" fill="black"/>
<path d="M17.1371 11.0054V9.4502H18.6707V11.0054H17.1371Z" fill="black"/>
<path d="M18.4193 11.0054V9.4502H19.4926V11.0054H18.4193Z" fill="black"/>
<path d="M19.4724 11.0054V9.4502H20.6986V11.0054H19.4724Z" fill="black"/>
<path d="M20.5241 11.0054V9.4502H22.0577V11.0054H20.5241Z" fill="black"/>
<path d="M21.8832 11.0054V9.4502H23.4168V11.0054H21.8832Z" fill="black"/>
<path d="M23.2423 11.0054V9.4502H24.7759V11.0054H23.2423Z" fill="black"/>
<path d="M24.4477 11.0054V9.4502H25.0611V11.0054H24.4477Z" fill="black"/>
<path d="M24.8859 11.0054V9.4502H26.4195V11.0054H24.8859Z" fill="black"/>
<path d="M26.3218 11.0054V9.4502H27.7018V11.0054H26.3218Z" fill="black"/>
<path d="M27.5272 11.0054V9.4502H29.0609V11.0054H27.5272Z" fill="black"/>
<path d="M28.8095 11.0054V9.4502H29.4229V11.0054H28.8095Z" fill="black"/>
<path d="M6 14.0054V12.4502H7.53364V14.0054H6Z" fill="black"/>
<path d="M7.28224 14.0054V12.4502H8.35545V14.0054H7.28224Z" fill="black"/>
<path d="M8.33528 14.0054V12.4502H9.71522V14.0054H8.33528Z" fill="black"/>
<path d="M9.46382 14.0054V12.4502H10.537V14.0054H9.46382Z" fill="black"/>
<path d="M10.5169 14.0054V12.4502H11.7431V14.0054H10.5169Z" fill="black"/>
<path d="M11.5686 14.0054V12.4502H13.5626V14.0054H11.5686Z" fill="black"/>
<path d="M13.4643 14.0054V12.4502H14.9979V14.0054H13.4643Z" fill="black"/>
<path d="M14.7465 14.0054V12.4502H16.1264V14.0054H14.7465Z" fill="black"/>
<path d="M16.0287 14.0054V12.4502H17.4087V14.0054H16.0287Z" fill="black"/>
<path d="M17.1573 14.0054V12.4502H17.7707V14.0054H17.1573Z" fill="black"/>
<path d="M17.5955 14.0054V12.4502H19.7426V14.0054H17.5955Z" fill="black"/>
<path d="M19.4912 14.0054V12.4502H20.5644V14.0054H19.4912Z" fill="black"/>
<path d="M20.3905 14.0054V12.4502H21.4638V14.0054H20.3905Z" fill="black"/>
<path d="M21.1362 14.0054V12.4502H22.6698V14.0054H21.1362Z" fill="black"/>
<path d="M22.4953 14.0054V12.4502H23.1087V14.0054H22.4953Z" fill="black"/>
<path d="M22.9335 14.0054V12.4502H24.0067V14.0054H22.9335Z" fill="black"/>
<path d="M23.6792 14.0054V12.4502H25.2128V14.0054H23.6792Z" fill="black"/>
<path d="M25.0382 14.0054V12.4502H26.5719V14.0054H25.0382Z" fill="black"/>
<path d="M26.2436 14.0054V12.4502H26.8571V14.0054H26.2436Z" fill="black"/>
<path d="M26.6819 14.0054V12.4502H28.3692V14.0054H26.6819Z" fill="black"/>
<path d="M28.2135 14.0054V12.4502H29.7472V14.0054H28.2135Z" fill="black"/>
<path d="M29.4378 14.0054V12.4502H31.1251V14.0054H29.4378Z" fill="black"/>
<path d="M30.9506 14.0054V12.4502H32.6379V14.0054H30.9506Z" fill="black"/>
<path d="M32.3865 14.0054V12.4502H33V14.0054H32.3865Z" fill="black"/>
<path d="M6 17.0054V15.4502H7.53364V17.0054H6Z" fill="black"/>
<path d="M7.43594 17.0054V15.4502H8.81588V17.0054H7.43594Z" fill="black"/>
<path d="M8.64133 17.0054V15.4502H10.175V17.0054H8.64133Z" fill="black"/>
<path d="M9.92358 17.0054V15.4502H10.537V17.0054H9.92358Z" fill="black"/>
<path d="M10.3618 17.0054V15.4502H11.7417V17.0054H10.3618Z" fill="black"/>
<path d="M11.4904 17.0054V15.4502H13.024V17.0054H11.4904Z" fill="black"/>
<path d="M12.7726 17.0054V15.4502H13.8458V17.0054H12.7726Z" fill="black"/>
<path d="M13.6719 17.0054V15.4502H14.7451V17.0054H13.6719Z" fill="black"/>
<path d="M14.5713 17.0054V15.4502H15.1847V17.0054H14.5713Z" fill="black"/>
<path d="M15.1632 17.0054V15.4502H16.3894V17.0054H15.1632Z" fill="black"/>
<path d="M16.3686 17.0054V15.4502H17.7485V17.0054H16.3686Z" fill="black"/>
<path d="M17.574 17.0054V15.4502H18.1874V17.0054H17.574Z" fill="black"/>
<path d="M18.0122 17.0054V15.4502H19.0854V17.0054H18.0122Z" fill="black"/>
<path d="M18.7579 17.0054V15.4502H20.2915V17.0054H18.7579Z" fill="black"/>
<path d="M20.117 17.0054V15.4502H21.6506V17.0054H20.117Z" fill="black"/>
<path d="M21.3224 17.0054V15.4502H21.9358V17.0054H21.3224Z" fill="black"/>
<path d="M21.7606 17.0054V15.4502H23.4479V17.0054H21.7606Z" fill="black"/>
<path d="M23.2923 17.0054V15.4502H24.8259V17.0054H23.2923Z" fill="black"/>
<path d="M24.5165 17.0054V15.4502H26.2039V17.0054H24.5165Z" fill="black"/>
<path d="M26.0293 17.0054V15.4502H27.7167V17.0054H26.0293Z" fill="black"/>
<path d="M27.4653 17.0054V15.4502H28.0787V17.0054H27.4653Z" fill="black"/>
<path d="M27.9035 17.0054V15.4502H28.9767V17.0054H27.9035Z" fill="black"/>
<path d="M28.8028 17.0054V15.4502H30.0291V17.0054H28.8028Z" fill="black"/>
<path d="M29.8545 17.0054V15.4502H30.468V17.0054H29.8545Z" fill="black"/>
<path d="M6 20.0054V18.4502H7.53364V20.0054H6Z" fill="black"/>
<path d="M7.35909 20.0054V18.4502H8.73903V20.0054H7.35909Z" fill="black"/>
<path d="M8.56448 20.0054V18.4502H10.0981V20.0054H8.56448Z" fill="black"/>
<path d="M9.92358 20.0054V18.4502H11.4572V20.0054H9.92358Z" fill="black"/>
<path d="M11.2058 20.0054V18.4502H12.7395V20.0054H11.2058Z" fill="black"/>
<path d="M12.5649 20.0054V18.4502H14.0985V20.0054H12.5649Z" fill="black"/>
<path d="M13.7703 20.0054V18.4502H14.3838V20.0054H13.7703Z" fill="black"/>
<path d="M14.2085 20.0054V18.4502H15.2817V20.0054H14.2085Z" fill="black"/>
<path d="M15.2616 20.0054V18.4502H16.6415V20.0054H15.2616Z" fill="black"/>
<path d="M16.467 20.0054V18.4502H17.0804V20.0054H16.467Z" fill="black"/>
<path d="M17.0589 20.0054V18.4502H18.4388V20.0054H17.0589Z" fill="black"/>
<path d="M18.2643 20.0054V18.4502H19.7979V20.0054H18.2643Z" fill="black"/>
<path d="M19.4697 20.0054V18.4502H21.0033V20.0054H19.4697Z" fill="black"/>
<path d="M20.9825 20.0054V18.4502H22.2087V20.0054H20.9825Z" fill="black"/>
<path d="M22.0342 20.0054V18.4502H23.1074V20.0054H22.0342Z" fill="black"/>
<path d="M22.7798 20.0054V18.4502H23.853V20.0054H22.7798Z" fill="black"/>
<path d="M23.6792 20.0054V18.4502H25.2128V20.0054H23.6792Z" fill="black"/>
<path d="M24.9614 20.0054V18.4502H26.0346V20.0054H24.9614Z" fill="black"/>
<path d="M25.707 20.0054V18.4502H26.7802V20.0054H25.707Z" fill="black"/>
<path d="M26.7601 20.0054V18.4502H27.9863V20.0054H26.7601Z" fill="black"/>
<path d="M27.9655 20.0054V18.4502H29.3454V20.0054H27.9655Z" fill="black"/>
<path d="M29.1709 20.0054V18.4502H30.5508V20.0054H29.1709Z" fill="black"/>
<path d="M30.3385 20.0054V18.4502H31.105V20.0054H30.3385Z" fill="black"/>
<path d="M30.8536 20.0054V18.4502H31.6201V20.0054H30.8536Z" fill="black"/>
<path d="M6.30673 7.90078H32.1742V7.97051H6.30673V7.90078ZM6.30673 10.9008H29.1162V10.9705H6.30673V10.9008ZM6.30673 13.9008H32.6926V13.9705H6.30673V13.9008ZM6.30673 16.9008H30.1613V16.9705H6.30673V16.9008ZM6.30673 19.9008H31.8075V19.9705H6.30673V19.9008Z" fill="black"/>
</g>
<rect width="12" height="14" transform="translate(25 18.4502)" fill="white"/>
<path d="M31.4307 23.4688C31.141 23.4688 30.8838 23.5257 30.6592 23.6396C30.4378 23.7503 30.2507 23.9115 30.0977 24.123C29.9479 24.3346 29.834 24.5902 29.7559 24.8896C29.6777 25.1891 29.6387 25.526 29.6387 25.9004C29.6387 26.4049 29.7005 26.8363 29.8242 27.1943C29.9512 27.5492 30.1465 27.821 30.4102 28.0098C30.6738 28.1953 31.014 28.2881 31.4307 28.2881C31.7204 28.2881 32.0101 28.2555 32.2998 28.1904C32.5928 28.1253 32.9102 28.0326 33.252 27.9121V29.1816C32.9362 29.3118 32.6253 29.4046 32.3193 29.46C32.0133 29.5186 31.6699 29.5479 31.2891 29.5479C30.5534 29.5479 29.9479 29.3965 29.4727 29.0938C29.0007 28.7878 28.6507 28.3613 28.4229 27.8145C28.195 27.2643 28.0811 26.623 28.0811 25.8906C28.0811 25.3503 28.1543 24.8555 28.3008 24.4062C28.4473 23.957 28.6621 23.568 28.9453 23.2393C29.2285 22.9105 29.5785 22.6566 29.9951 22.4775C30.4118 22.2985 30.8903 22.209 31.4307 22.209C31.7855 22.209 32.1403 22.2546 32.4951 22.3457C32.8532 22.4336 33.195 22.5557 33.5205 22.7119L33.0322 23.9424C32.7653 23.8154 32.4967 23.7048 32.2266 23.6104C31.9564 23.516 31.6911 23.4688 31.4307 23.4688Z" fill="#585858"/>
</g>
<path d="M11.3333 38.4502H2V44.7983H11.3333V38.4502Z" fill="#E1C278"/>
</g>
<defs>
<filter id="filter0_d_238_44431" x="0" y="1.4502" width="39" height="35" filterUnits="userSpaceOnUse" color-interpolation-filters="sRGB">
<feFlood flood-opacity="0" result="BackgroundImageFix"/>
<feColorMatrix in="SourceAlpha" type="matrix" values="0 0 0 0 0 0 0 0 0 0 0 0 0 0 0 0 0 0 127 0" result="hardAlpha"/>
<feOffset dy="1"/>
<feGaussianBlur stdDeviation="1"/>
<feComposite in2="hardAlpha" operator="out"/>
<feColorMatrix type="matrix" values="0 0 0 0 0 0 0 0 0 0 0 0 0 0 0 0 0 0 0.1 0"/>
<feBlend mode="normal" in2="BackgroundImageFix" result="effect1_dropShadow_238_44431"/>
<feBlend mode="normal" in="SourceGraphic" in2="effect1_dropShadow_238_44431" result="shape"/>
</filter>
<filter id="filter1_i_238_44431" x="2" y="-2.5498" width="35" height="34" filterUnits="userSpaceOnUse" color-interpolation-filters="sRGB">
<feFlood flood-opacity="0" result="BackgroundImageFix"/>
<feBlend mode="normal" in="SourceGraphic" in2="BackgroundImageFix" result="shape"/>
<feColorMatrix in="SourceAlpha" type="matrix" values="0 0 0 0 0 0 0 0 0 0 0 0 0 0 0 0 0 0 127 0" result="hardAlpha"/>
<feOffset dy="-5"/>
<feGaussianBlur stdDeviation="3.5"/>
<feComposite in2="hardAlpha" operator="arithmetic" k2="-1" k3="1"/>
<feColorMatrix type="matrix" values="0 0 0 0 1 0 0 0 0 1 0 0 0 0 1 0 0 0 1 0"/>
<feBlend mode="normal" in2="shape" result="effect1_innerShadow_238_44431"/>
</filter>
<clipPath id="clip0_238_44431">
<rect width="39" height="46.3481" fill="white" transform="translate(0 0.450195)"/>
</clipPath>
<clipPath id="clip1_238_44431">
<rect width="35" height="31" fill="white" transform="translate(2 2.4502)"/>
</clipPath>
</defs>
</svg>
