<svg width="39" height="47" viewBox="0 0 39 47" fill="none" xmlns="http://www.w3.org/2000/svg">
<g clip-path="url(#clip0_238_44409)">
<g clip-path="url(#clip1_238_44409)" filter="url(#filter0_d_238_44409)">
<rect width="35" height="31" transform="translate(2 2.64355)" fill="white"/>
<g opacity="0.3" clip-path="url(#clip2_238_44409)" filter="url(#filter1_i_238_44409)">
<rect width="35" height="29" transform="translate(2 2.64355)" fill="white"/>
<path d="M6 8.19873V6.64355H6.76878V8.19873H6Z" fill="black"/>
<path d="M6.74788 8.19873V6.64355H8.90141V8.19873H6.74788Z" fill="black"/>
<path d="M8.68713 8.19873V6.64355H10.2254V8.19873H8.68713Z" fill="black"/>
<path d="M9.89614 8.19873V6.64355H10.5114V8.19873H9.89614Z" fill="black"/>
<path d="M10.3357 8.19873V6.64355H11.7198V8.19873H10.3357Z" fill="black"/>
<path d="M11.4108 8.19873V6.64355H12.9491V8.19873H11.4108Z" fill="black"/>
<path d="M12.6198 8.19873V6.64355H14.6199V8.19873H12.6198Z" fill="black"/>
<path d="M14.5212 8.19873V6.64355H16.0595V8.19873H14.5212Z" fill="black"/>
<path d="M15.8073 8.19873V6.64355H16.8837V8.19873H15.8073Z" fill="black"/>
<path d="M16.8635 8.19873V6.64355H18.2476V8.19873H16.8635Z" fill="black"/>
<path d="M18.0725 8.19873V6.64355H18.6878V8.19873H18.0725Z" fill="black"/>
<path d="M18.6662 8.19873V6.64355H19.8961V8.19873H18.6662Z" fill="black"/>
<path d="M19.8752 8.19873V6.64355H21.2593V8.19873H19.8752Z" fill="black"/>
<path d="M21.0072 8.19873V6.64355H22.5454V8.19873H21.0072Z" fill="black"/>
<path d="M22.3703 8.19873V6.64355H23.7544V8.19873H22.3703Z" fill="black"/>
<path d="M23.5793 8.19873V6.64355H24.1946V8.19873H23.5793Z" fill="black"/>
<path d="M24.0189 8.19873V6.64355H25.0953V8.19873H24.0189Z" fill="black"/>
<path d="M24.9209 8.19873V6.64355H26.1509V8.19873H24.9209Z" fill="black"/>
<path d="M25.9758 8.19873V6.64355H26.5911V8.19873H25.9758Z" fill="black"/>
<path d="M6 11.1987V9.64355H7.53824V11.1987H6Z" fill="black"/>
<path d="M7.36317 11.1987V9.64355H8.74725V11.1987H7.36317Z" fill="black"/>
<path d="M8.57218 11.1987V9.64355H10.1104V11.1987H8.57218Z" fill="black"/>
<path d="M9.93535 11.1987V9.64355H11.4736V11.1987H9.93535Z" fill="black"/>
<path d="M11.2214 11.1987V9.64355H12.7597V11.1987H11.2214Z" fill="black"/>
<path d="M12.5846 11.1987V9.64355H14.1229V11.1987H12.5846Z" fill="black"/>
<path d="M13.7936 11.1987V9.64355H15.7937V11.1987H13.7936Z" fill="black"/>
<path d="M15.695 11.1987V9.64355H17.2333V11.1987H15.695Z" fill="black"/>
<path d="M17.0582 11.1987V9.64355H18.4423V11.1987H17.0582Z" fill="black"/>
<path d="M18.2672 11.1987V9.64355H19.3436V11.1987H18.2672Z" fill="black"/>
<path d="M19.0151 11.1987V9.64355H19.6304V11.1987H19.0151Z" fill="black"/>
<path d="M19.4546 11.1987V9.64355H21.6082V11.1987H19.4546Z" fill="black"/>
<path d="M21.356 11.1987V9.64355H22.4324V11.1987H21.356Z" fill="black"/>
<path d="M22.258 11.1987V9.64355H23.3345V11.1987H22.258Z" fill="black"/>
<path d="M23.0059 11.1987V9.64355H24.5442V11.1987H23.0059Z" fill="black"/>
<path d="M24.3691 11.1987V9.64355H24.9844V11.1987H24.3691Z" fill="black"/>
<path d="M24.8086 11.1987V9.64355H25.8851V11.1987H24.8086Z" fill="black"/>
<path d="M25.5565 11.1987V9.64355H27.0948V11.1987H25.5565Z" fill="black"/>
<path d="M26.9197 11.1987V9.64355H28.4579V11.1987H26.9197Z" fill="black"/>
<path d="M28.1287 11.1987V9.64355H28.744V11.1987H28.1287Z" fill="black"/>
<path d="M6 14.1987V12.6436H7.6924V14.1987H6Z" fill="black"/>
<path d="M7.53627 14.1987V12.6436H9.07451V14.1987H7.53627Z" fill="black"/>
<path d="M8.76421 14.1987V12.6436H10.4566V14.1987H8.76421Z" fill="black"/>
<path d="M10.2815 14.1987V12.6436H11.9739V14.1987H10.2815Z" fill="black"/>
<path d="M11.7218 14.1987V12.6436H12.3371V14.1987H11.7218Z" fill="black"/>
<path d="M12.1613 14.1987V12.6436H13.2378V14.1987H12.1613Z" fill="black"/>
<path d="M13.0634 14.1987V12.6436H14.2933V14.1987H13.0634Z" fill="black"/>
<path d="M14.1182 14.1987V12.6436H14.7335V14.1987H14.1182Z" fill="black"/>
<path d="M14.5578 14.1987V12.6436H16.096V14.1987H14.5578Z" fill="black"/>
<path d="M15.8439 14.1987V12.6436H16.9203V14.1987H15.8439Z" fill="black"/>
<path d="M16.7459 14.1987V12.6436H18.13V14.1987H16.7459Z" fill="black"/>
<path d="M17.9171 14.1987V12.6436H19.3011V14.1987H17.9171Z" fill="black"/>
<path d="M19.049 14.1987V12.6436H20.5872V14.1987H19.049Z" fill="black"/>
<path d="M20.4122 14.1987V12.6436H21.7962V14.1987H20.4122Z" fill="black"/>
<path d="M21.5833 14.1987V12.6436H22.9674V14.1987H21.5833Z" fill="black"/>
<path d="M22.7544 14.1987V12.6436H23.3697V14.1987H22.7544Z" fill="black"/>
<path d="M23.194 14.1987V12.6436H24.2704V14.1987H23.194Z" fill="black"/>
<path d="M23.9419 14.1987V12.6436H25.4801V14.1987H23.9419Z" fill="black"/>
<path d="M25.305 14.1987V12.6436H26.8433V14.1987H25.305Z" fill="black"/>
<path d="M26.5141 14.1987V12.6436H27.1293V14.1987H26.5141Z" fill="black"/>
<path d="M26.9536 14.1987V12.6436H28.1842V14.1987H26.9536Z" fill="black"/>
<path d="M27.8556 14.1987V12.6436H29.3939V14.1987H27.8556Z" fill="black"/>
<path d="M29.2188 14.1987V12.6436H30.2952V14.1987H29.2188Z" fill="black"/>
<path d="M30.1208 14.1987V12.6436H31.1973V14.1987H30.1208Z" fill="black"/>
<path d="M31.0229 14.1987V12.6436H31.6382V14.1987H31.0229Z" fill="black"/>
<path d="M6 17.1987V15.6436H7.38408V17.1987H6Z" fill="black"/>
<path d="M7.03727 17.1987V15.6436H8.57551V17.1987H7.03727Z" fill="black"/>
<path d="M8.47752 17.1987V15.6436H9.8616V17.1987H8.47752Z" fill="black"/>
<path d="M9.68653 17.1987V15.6436H11.2248V17.1987H9.68653Z" fill="black"/>
<path d="M11.0497 17.1987V15.6436H12.5879V17.1987H11.0497Z" fill="black"/>
<path d="M12.2587 17.1987V15.6436H12.874V17.1987H12.2587Z" fill="black"/>
<path d="M12.8524 17.1987V15.6436H14.0823V17.1987H12.8524Z" fill="black"/>
<path d="M13.9073 17.1987V15.6436H15.1379V17.1987H13.9073Z" fill="black"/>
<path d="M14.8093 17.1987V15.6436H15.4246V17.1987H14.8093Z" fill="black"/>
<path d="M15.403 17.1987V15.6436H16.7871V17.1987H15.403Z" fill="black"/>
<path d="M16.4579 17.1987V15.6436H17.5343V17.1987H16.4579Z" fill="black"/>
<path d="M17.3599 17.1987V15.6436H18.4363V17.1987H17.3599Z" fill="black"/>
<path d="M18.2619 17.1987V15.6436H19.8002V17.1987H18.2619Z" fill="black"/>
<path d="M19.548 17.1987V15.6436H20.6245V17.1987H19.548Z" fill="black"/>
<path d="M20.2959 17.1987V15.6436H21.8341V17.1987H20.2959Z" fill="black"/>
<path d="M21.5049 17.1987V15.6436H22.889V17.1987H21.5049Z" fill="black"/>
<path d="M22.5422 17.1987V15.6436H24.0804V17.1987H22.5422Z" fill="black"/>
<path d="M23.8283 17.1987V15.6436H24.9047V17.1987H23.8283Z" fill="black"/>
<path d="M24.7303 17.1987V15.6436H25.3456V17.1987H24.7303Z" fill="black"/>
<path d="M25.1699 17.1987V15.6436H26.7081V17.1987H25.1699Z" fill="black"/>
<path d="M26.6101 17.1987V15.6436H27.9942V17.1987H26.6101Z" fill="black"/>
<path d="M27.8191 17.1987V15.6436H29.3574V17.1987H27.8191Z" fill="black"/>
<path d="M29.1052 17.1987V15.6436H29.7205V17.1987H29.1052Z" fill="black"/>
<path d="M6 20.1987V18.6436H7.38408V20.1987H6Z" fill="black"/>
<path d="M7.07513 20.1987V18.6436H8.61337V20.1987H7.07513Z" fill="black"/>
<path d="M8.28414 20.1987V18.6436H9.82238V20.1987H8.28414Z" fill="black"/>
<path d="M9.64731 20.1987V18.6436H10.7237V20.1987H9.64731Z" fill="black"/>
<path d="M10.7035 20.1987V18.6436H11.9334V20.1987H10.7035Z" fill="black"/>
<path d="M11.9125 20.1987V18.6436H13.2966V20.1987H11.9125Z" fill="black"/>
<path d="M13.1215 20.1987V18.6436H14.6598V20.1987H13.1215Z" fill="black"/>
<path d="M14.4076 20.1987V18.6436H15.4841V20.1987H14.4076Z" fill="black"/>
<path d="M15.3097 20.1987V18.6436H15.925V20.1987H15.3097Z" fill="black"/>
<path d="M15.7492 20.1987V18.6436H16.8256V20.1987H15.7492Z" fill="black"/>
<path d="M16.6512 20.1987V18.6436H18.0353V20.1987H16.6512Z" fill="black"/>
<path d="M17.8224 20.1987V18.6436H19.2065V20.1987H17.8224Z" fill="black"/>
<path d="M18.9935 20.1987V18.6436H20.5318V20.1987H18.9935Z" fill="black"/>
<path d="M20.3567 20.1987V18.6436H21.895V20.1987H20.3567Z" fill="black"/>
<path d="M21.5657 20.1987V18.6436H22.9498V20.1987H21.5657Z" fill="black"/>
<path d="M22.7369 20.1987V18.6436H23.5056V20.1987H22.7369Z" fill="black"/>
<path d="M23.2535 20.1987V18.6436H23.8688V20.1987H23.2535Z" fill="black"/>
<path d="M23.693 20.1987V18.6436H24.9236V20.1987H23.693Z" fill="black"/>
<path d="M24.7479 20.1987V18.6436H25.3632V20.1987H24.7479Z" fill="black"/>
<path d="M25.1874 20.1987V18.6436H27.341V20.1987H25.1874Z" fill="black"/>
<path d="M27.0118 20.1987V18.6436H28.55V20.1987H27.0118Z" fill="black"/>
<path d="M28.452 20.1987V18.6436H29.8361V20.1987H28.452Z" fill="black"/>
<path d="M29.661 20.1987V18.6436H30.7374V20.1987H29.661Z" fill="black"/>
<path d="M30.4089 20.1987V18.6436H31.0242V20.1987H30.4089Z" fill="black"/>
<path d="M6 23.1987V21.6436H7.07643V23.1987H6Z" fill="black"/>
<path d="M6.90204 23.1987V21.6436H8.13195V23.1987H6.90204Z" fill="black"/>
<path d="M7.95688 23.1987V21.6436H8.57218V23.1987H7.95688Z" fill="black"/>
<path d="M8.39644 23.1987V21.6436H10.3965V23.1987H8.39644Z" fill="black"/>
<path d="M10.2978 23.1987V21.6436H11.8361V23.1987H10.2978Z" fill="black"/>
<path d="M11.5839 23.1987V21.6436H13.1222V23.1987H11.5839Z" fill="black"/>
<path d="M12.9092 23.1987V21.6436H14.4475V23.1987H12.9092Z" fill="black"/>
<path d="M14.1182 23.1987V21.6436H14.7335V23.1987H14.1182Z" fill="black"/>
<path d="M14.5578 23.1987V21.6436H15.9419V23.1987H14.5578Z" fill="black"/>
<path d="M15.6897 23.1987V21.6436H16.7661V23.1987H15.6897Z" fill="black"/>
<path d="M16.5917 23.1987V21.6436H18.13V23.1987H16.5917Z" fill="black"/>
<path d="M17.8008 23.1987V21.6436H19.339V23.1987H17.8008Z" fill="black"/>
<path d="M19.0868 23.1987V21.6436H20.4709V23.1987H19.0868Z" fill="black"/>
<path d="M20.162 23.1987V21.6436H20.7773V23.1987H20.162Z" fill="black"/>
<path d="M20.6015 23.1987V21.6436H22.1398V23.1987H20.6015Z" fill="black"/>
<path d="M21.8876 23.1987V21.6436H23.4259V23.1987H21.8876Z" fill="black"/>
<path d="M23.2508 23.1987V21.6436H24.789V23.1987H23.2508Z" fill="black"/>
<path d="M24.5369 23.1987V21.6436H25.6133V23.1987H24.5369Z" fill="black"/>
<path d="M25.5931 23.1987V21.6436H26.9772V23.1987H25.5931Z" fill="black"/>
<path d="M26.8021 23.1987V21.6436H27.4174V23.1987H26.8021Z" fill="black"/>
<path d="M27.2416 23.1987V21.6436H28.3181V23.1987H27.2416Z" fill="black"/>
<path d="M27.9895 23.1987V21.6436H29.5278V23.1987H27.9895Z" fill="black"/>
<path d="M29.3527 23.1987V21.6436H30.8909V23.1987H29.3527Z" fill="black"/>
<path d="M30.6388 23.1987V21.6436H31.7152V23.1987H30.6388Z" fill="black"/>
<path d="M31.3867 23.1987V21.6436H32.0019V23.1987H31.3867Z" fill="black"/>
<path d="M6 26.1987V24.6436H7.07643V26.1987H6Z" fill="black"/>
<path d="M6.74788 26.1987V24.6436H8.28612V26.1987H6.74788Z" fill="black"/>
<path d="M8.11105 26.1987V24.6436H9.64929V26.1987H8.11105Z" fill="black"/>
<path d="M9.32006 26.1987V24.6436H9.93535V26.1987H9.32006Z" fill="black"/>
<path d="M9.75961 26.1987V24.6436H11.452V26.1987H9.75961Z" fill="black"/>
<path d="M11.3148 26.1987V24.6436H12.6989V26.1987H11.3148Z" fill="black"/>
<path d="M12.5238 26.1987V24.6436H13.6002V26.1987H12.5238Z" fill="black"/>
<path d="M13.4259 26.1987V24.6436H14.5023V26.1987H13.4259Z" fill="black"/>
<path d="M14.1737 26.1987V24.6436H15.712V26.1987H14.1737Z" fill="black"/>
<path d="M15.3827 26.1987V24.6436H16.921V26.1987H15.3827Z" fill="black"/>
<path d="M16.6688 26.1987V24.6436H17.2841V26.1987H16.6688Z" fill="black"/>
<path d="M17.1084 26.1987V24.6436H18.4925V26.1987H17.1084Z" fill="black"/>
<path d="M18.3945 26.1987V24.6436H19.4709V26.1987H18.3945Z" fill="black"/>
<path d="M19.1423 26.1987V24.6436H20.6806V26.1987H19.1423Z" fill="black"/>
<path d="M20.4284 26.1987V24.6436H21.5049V26.1987H20.4284Z" fill="black"/>
<path d="M21.1763 26.1987V24.6436H22.7145V26.1987H21.1763Z" fill="black"/>
<path d="M22.3853 26.1987V24.6436H23.7694V26.1987H22.3853Z" fill="black"/>
<path d="M23.5565 26.1987V24.6436H24.1718V26.1987H23.5565Z" fill="black"/>
<path d="M23.996 26.1987V24.6436H25.5343V26.1987H23.996Z" fill="black"/>
<path d="M25.3592 26.1987V24.6436H26.8974V26.1987H25.3592Z" fill="black"/>
<path d="M26.6453 26.1987V24.6436H28.0294V26.1987H26.6453Z" fill="black"/>
<path d="M27.8746 26.1987V24.6436H29.2587V26.1987H27.8746Z" fill="black"/>
<path d="M29.0836 26.1987V24.6436H30.3135V26.1987H29.0836Z" fill="black"/>
<path d="M30.1384 26.1987V24.6436H31.5225V26.1987H30.1384Z" fill="black"/>
<path d="M31.2136 26.1987V24.6436H32.5976V26.1987H31.2136Z" fill="black"/>
<path d="M32.3847 26.1987V24.6436H33V26.1987H32.3847Z" fill="black"/>
<path d="M6.15416 29.1987V27.6436H7.53824V29.1987H6.15416Z" fill="black"/>
<path d="M7.51733 29.1987V27.6436H8.74725V29.1987H7.51733Z" fill="black"/>
<path d="M8.57218 29.1987V27.6436H9.18748V29.1987H8.57218Z" fill="black"/>
<path d="M9.01173 29.1987V27.6436H10.55V29.1987H9.01173Z" fill="black"/>
<path d="M10.5291 29.1987V27.6436H11.759V29.1987H10.5291Z" fill="black"/>
<path d="M11.5839 29.1987V27.6436H12.968V29.1987H11.5839Z" fill="black"/>
<path d="M12.7551 29.1987V27.6436H13.8315V29.1987H12.7551Z" fill="black"/>
<path d="M13.5029 29.1987V27.6436H14.5794V29.1987H13.5029Z" fill="black"/>
<path d="M14.405 29.1987V27.6436H15.4814V29.1987H14.405Z" fill="black"/>
<path d="M15.307 29.1987V27.6436H16.8452V29.1987H15.307Z" fill="black"/>
<path d="M16.516 29.1987V27.6436H17.1313V29.1987H16.516Z" fill="black"/>
<path d="M16.9556 29.1987V27.6436H18.032V29.1987H16.9556Z" fill="black"/>
<path d="M18.0118 29.1987V27.6436H19.3958V29.1987H18.0118Z" fill="black"/>
<path d="M19.2208 29.1987V27.6436H20.2972V29.1987H19.2208Z" fill="black"/>
<path d="M19.9687 29.1987V27.6436H21.5069V29.1987H19.9687Z" fill="black"/>
<path d="M21.3318 29.1987V27.6436H22.7159V29.1987H21.3318Z" fill="black"/>
<path d="M22.5408 29.1987V27.6436H23.6173V29.1987H22.5408Z" fill="black"/>
<path d="M23.2887 29.1987V27.6436H23.904V29.1987H23.2887Z" fill="black"/>
<path d="M23.7283 29.1987V27.6436H24.8047V29.1987H23.7283Z" fill="black"/>
<path d="M24.6303 29.1987V27.6436H25.8602V29.1987H24.6303Z" fill="black"/>
<path d="M25.6851 29.1987V27.6436H27.8387V29.1987H25.6851Z" fill="black"/>
<path d="M27.5095 29.1987V27.6436H29.0477V29.1987H27.5095Z" fill="black"/>
<path d="M28.7955 29.1987V27.6436H30.1796V29.1987H28.7955Z" fill="black"/>
<path d="M29.8707 29.1987V27.6436H31.4089V29.1987H29.8707Z" fill="black"/>
<path d="M31.1568 29.1987V27.6436H31.7721V29.1987H31.1568Z" fill="black"/>
<path d="M6 32.1987V30.6436H7.07643V32.1987H6Z" fill="black"/>
<path d="M6.74788 32.1987V30.6436H8.28612V32.1987H6.74788Z" fill="black"/>
<path d="M8.11105 32.1987V30.6436H9.64929V32.1987H8.11105Z" fill="black"/>
<path d="M9.32006 32.1987V30.6436H9.93535V32.1987H9.32006Z" fill="black"/>
<path d="M9.75961 32.1987V30.6436H11.452V32.1987H9.75961Z" fill="black"/>
<path d="M11.2959 32.1987V30.6436H12.8341V32.1987H11.2959Z" fill="black"/>
<path d="M12.5238 32.1987V30.6436H14.2162V32.1987H12.5238Z" fill="black"/>
<path d="M14.0411 32.1987V30.6436H15.7336V32.1987H14.0411Z" fill="black"/>
<path d="M15.4814 32.1987V30.6436H16.2502V32.1987H15.4814Z" fill="black"/>
<path d="M15.998 32.1987V30.6436H16.7668V32.1987H15.998Z" fill="black"/>
<path d="M16.6688 32.1987V30.6436H18.8224V32.1987H16.6688Z" fill="black"/>
<path d="M18.6081 32.1987V30.6436H20.1463V32.1987H18.6081Z" fill="black"/>
<path d="M19.8171 32.1987V30.6436H20.4324V32.1987H19.8171Z" fill="black"/>
<path d="M20.2566 32.1987V30.6436H21.7949V32.1987H20.2566Z" fill="black"/>
<path d="M21.5427 32.1987V30.6436H22.9268V32.1987H21.5427Z" fill="black"/>
<path d="M22.6179 32.1987V30.6436H24.1561V32.1987H22.6179Z" fill="black"/>
<path d="M23.8269 32.1987V30.6436H24.4422V32.1987H23.8269Z" fill="black"/>
<path d="M24.2664 32.1987V30.6436H25.8047V32.1987H24.2664Z" fill="black"/>
<path d="M25.5525 32.1987V30.6436H26.6289V32.1987H25.5525Z" fill="black"/>
<path d="M26.4546 32.1987V30.6436H27.8386V32.1987H26.4546Z" fill="black"/>
<path d="M27.7799 32.1987V30.6436H29.0098V32.1987H27.7799Z" fill="black"/>
<path d="M28.8347 32.1987V30.6436H29.45V32.1987H28.8347Z" fill="black"/>
<path d="M6.15416 35.1987V33.6436H7.53824V35.1987H6.15416Z" fill="black"/>
<path d="M7.28609 35.1987V33.6436H8.67017V35.1987H7.28609Z" fill="black"/>
<path d="M8.36122 35.1987V33.6436H9.89946V35.1987H8.36122Z" fill="black"/>
<path d="M9.72439 35.1987V33.6436H11.1085V35.1987H9.72439Z" fill="black"/>
<path d="M10.8563 35.1987V33.6436H12.3946V35.1987H10.8563Z" fill="black"/>
<path d="M12.1424 35.1987V33.6436H13.5265V35.1987H12.1424Z" fill="black"/>
<path d="M13.2175 35.1987V33.6436H14.7558V35.1987H13.2175Z" fill="black"/>
<path d="M14.4266 35.1987V33.6436H15.9648V35.1987H14.4266Z" fill="black"/>
<path d="M15.7126 35.1987V33.6436H16.3279V35.1987H15.7126Z" fill="black"/>
<path d="M16.1522 35.1987V33.6436H17.2286V35.1987H16.1522Z" fill="black"/>
<path d="M17.0542 35.1987V33.6436H18.2841V35.1987H17.0542Z" fill="black"/>
<path d="M18.1091 35.1987V33.6436H18.7244V35.1987H18.1091Z" fill="black"/>
<path d="M18.5486 35.1987V33.6436H20.7022V35.1987H18.5486Z" fill="black"/>
<path d="M20.6042 35.1987V33.6436H21.8341V35.1987H20.6042Z" fill="black"/>
<path d="M21.659 35.1987V33.6436H23.0431V35.1987H21.659Z" fill="black"/>
<path d="M22.7342 35.1987V33.6436H24.2724V35.1987H22.7342Z" fill="black"/>
<path d="M24.0595 35.1987V33.6436H24.6748V35.1987H24.0595Z" fill="black"/>
<path d="M6 38.1987V36.6436H7.38408V38.1987H6Z" fill="black"/>
<path d="M7.28609 38.1987V36.6436H8.51601V38.1987H7.28609Z" fill="black"/>
<path d="M8.4951 38.1987V36.6436H9.72502V38.1987H8.4951Z" fill="black"/>
<path d="M9.70411 38.1987V36.6436H11.0882V38.1987H9.70411Z" fill="black"/>
<path d="M10.836 38.1987V36.6436H12.3743V38.1987H10.836Z" fill="black"/>
<path d="M12.045 38.1987V36.6436H13.4291V38.1987H12.045Z" fill="black"/>
<path d="M13.0823 38.1987V36.6436H14.6206V38.1987H13.0823Z" fill="black"/>
<path d="M14.3684 38.1987V36.6436H15.4448V38.1987H14.3684Z" fill="black"/>
<path d="M15.1163 38.1987V36.6436H16.1927V38.1987H15.1163Z" fill="black"/>
<path d="M15.9412 38.1987V36.6436H17.3253V38.1987H15.9412Z" fill="black"/>
<path d="M17.2273 38.1987V36.6436H18.7656V38.1987H17.2273Z" fill="black"/>
<path d="M18.4363 38.1987V36.6436H19.5128V38.1987H18.4363Z" fill="black"/>
<path d="M19.4155 38.1987V36.6436H20.7995V38.1987H19.4155Z" fill="black"/>
<path d="M20.5474 38.1987V36.6436H21.1627V38.1987H20.5474Z" fill="black"/>
<path d="M20.9869 38.1987V36.6436H23.1405V38.1987H20.9869Z" fill="black"/>
<path d="M22.8883 38.1987V36.6436H23.9648V38.1987H22.8883Z" fill="black"/>
<path d="M23.7904 38.1987V36.6436H24.8668V38.1987H23.7904Z" fill="black"/>
<path d="M24.5382 38.1987V36.6436H26.0765V38.1987H24.5382Z" fill="black"/>
<path d="M25.9014 38.1987V36.6436H26.5167V38.1987H25.9014Z" fill="black"/>
<path d="M26.341 38.1987V36.6436H27.4174V38.1987H26.341Z" fill="black"/>
<path d="M27.0888 38.1987V36.6436H28.6271V38.1987H27.0888Z" fill="black"/>
<path d="M28.452 38.1987V36.6436H29.9902V38.1987H28.452Z" fill="black"/>
<path d="M29.661 38.1987V36.6436H30.2763V38.1987H29.661Z" fill="black"/>
<path d="M6 41.1987V39.6436H7.6924V41.1987H6Z" fill="black"/>
<path d="M7.53627 41.1987V39.6436H9.07451V41.1987H7.53627Z" fill="black"/>
<path d="M8.76421 41.1987V39.6436H10.4566V41.1987H8.76421Z" fill="black"/>
<path d="M10.2815 41.1987V39.6436H11.9739V41.1987H10.2815Z" fill="black"/>
<path d="M11.7218 41.1987V39.6436H12.3371V41.1987H11.7218Z" fill="black"/>
<path d="M12.1613 41.1987V39.6436H13.2378V41.1987H12.1613Z" fill="black"/>
<path d="M13.0634 41.1987V39.6436H14.2933V41.1987H13.0634Z" fill="black"/>
<path d="M14.1182 41.1987V39.6436H14.7335V41.1987H14.1182Z" fill="black"/>
<path d="M14.5578 41.1987V39.6436H16.096V41.1987H14.5578Z" fill="black"/>
<path d="M15.8439 41.1987V39.6436H17.3821V41.1987H15.8439Z" fill="black"/>
<path d="M17.13 41.1987V39.6436H18.6682V41.1987H17.13Z" fill="black"/>
<path d="M18.4161 41.1987V39.6436H19.8001V41.1987H18.4161Z" fill="black"/>
<path d="M19.4912 41.1987V39.6436H21.0294V41.1987H19.4912Z" fill="black"/>
<path d="M20.7002 41.1987V39.6436H22.0843V41.1987H20.7002Z" fill="black"/>
<path d="M21.8713 41.1987V39.6436H23.2554V41.1987H21.8713Z" fill="black"/>
<path d="M23.0425 41.1987V39.6436H23.6578V41.1987H23.0425Z" fill="black"/>
<path d="M23.482 41.1987V39.6436H25.0203V41.1987H23.482Z" fill="black"/>
<path d="M24.7681 41.1987V39.6436H26.1522V41.1987H24.7681Z" fill="black"/>
<path d="M25.8433 41.1987V39.6436H27.3815V41.1987H25.8433Z" fill="black"/>
<path d="M27.0523 41.1987V39.6436H28.5905V41.1987H27.0523Z" fill="black"/>
<path d="M28.3384 41.1987V39.6436H29.7224V41.1987H28.3384Z" fill="black"/>
<path d="M29.5095 41.1987V39.6436H30.1248V41.1987H29.5095Z" fill="black"/>
<path d="M30.1032 41.1987V39.6436H31.3331V41.1987H30.1032Z" fill="black"/>
<path d="M31.1581 41.1987V39.6436H32.3887V41.1987H31.1581Z" fill="black"/>
<path d="M32.0601 41.1987V39.6436H32.6754V41.1987H32.0601Z" fill="black"/>
<path d="M6 44.1987V42.6436H7.38408V44.1987H6Z" fill="black"/>
<path d="M7.17114 44.1987V42.6436H8.70938V44.1987H7.17114Z" fill="black"/>
<path d="M8.53432 44.1987V42.6436H10.0726V44.1987H8.53432Z" fill="black"/>
<path d="M9.82041 44.1987V42.6436H11.2045V44.1987H9.82041Z" fill="black"/>
<path d="M10.8955 44.1987V42.6436H12.4338V44.1987H10.8955Z" fill="black"/>
<path d="M12.1045 44.1987V42.6436H13.6428V44.1987H12.1045Z" fill="black"/>
<path d="M13.3906 44.1987V42.6436H14.0059V44.1987H13.3906Z" fill="black"/>
<path d="M13.8302 44.1987V42.6436H15.3684V44.1987H13.8302Z" fill="black"/>
<path d="M15.1934 44.1987V42.6436H16.7316V44.1987H15.1934Z" fill="black"/>
<path d="M16.5565 44.1987V42.6436H18.5566V44.1987H16.5565Z" fill="black"/>
<path d="M18.4579 44.1987V42.6436H19.9962V44.1987H18.4579Z" fill="black"/>
<path d="M19.8982 44.1987V42.6436H21.2822V44.1987H19.8982Z" fill="black"/>
<path d="M21.1072 44.1987V42.6436H22.1836V44.1987H21.1072Z" fill="black"/>
<path d="M22.0092 44.1987V42.6436H23.0856V44.1987H22.0092Z" fill="black"/>
<path d="M22.7571 44.1987V42.6436H24.2953V44.1987H22.7571Z" fill="black"/>
<path d="M24.0432 44.1987V42.6436H25.4273V44.1987H24.0432Z" fill="black"/>
<path d="M25.1183 44.1987V42.6436H26.1947V44.1987H25.1183Z" fill="black"/>
<path d="M26.0204 44.1987V42.6436H27.5586V44.1987H26.0204Z" fill="black"/>
<path d="M27.4606 44.1987V42.6436H28.8447V44.1987H27.4606Z" fill="black"/>
<path d="M28.6696 44.1987V42.6436H29.2849V44.1987H28.6696Z" fill="black"/>
<path d="M6 47.1987V45.6436H7.38408V47.1987H6Z" fill="black"/>
<path d="M7.28609 47.1987V45.6436H8.51601V47.1987H7.28609Z" fill="black"/>
<path d="M8.4951 47.1987V45.6436H9.87918V47.1987H8.4951Z" fill="black"/>
<path d="M9.70411 47.1987V45.6436H11.0882V47.1987H9.70411Z" fill="black"/>
<path d="M10.836 47.1987V45.6436H12.3743V47.1987H10.836Z" fill="black"/>
<path d="M12.045 47.1987V45.6436H13.4291V47.1987H12.045Z" fill="black"/>
<path d="M13.2743 47.1987V45.6436H14.6584V47.1987H13.2743Z" fill="black"/>
<path d="M14.4833 47.1987V45.6436H15.2521V47.1987H14.4833Z" fill="black"/>
<path d="M15 47.1987V45.6436H15.7688V47.1987H15Z" fill="black"/>
<path d="M6.30765 8.09414H26.2834V8.16387H6.30765V8.09414ZM6.30765 11.0941H28.4363V11.1639H6.30765V11.0941ZM6.30765 14.0941H31.3299V14.1639H6.30765V14.0941ZM6.30765 17.0941H29.4129V17.1639H6.30765V17.0941ZM6.30765 20.0941H30.7159V20.1639H6.30765V20.0941ZM6.30765 23.0941H31.6936V23.1639H6.30765V23.0941ZM6.30765 26.0941H32.6917V26.1639H6.30765V26.0941ZM6.30765 29.0941H31.4644V29.1639H6.30765V29.0941ZM6.30765 32.0941H29.1424V32.1639H6.30765V32.0941ZM6.30765 35.0941H24.3664V35.1639H6.30765V35.0941ZM6.30765 38.0941H29.9687V38.1639H6.30765V38.0941ZM6.30765 41.0941H32.3671V41.1639H6.30765V41.0941ZM6.30765 44.0941H28.9773V44.1639H6.30765V44.0941ZM6.30765 47.0941H15.9567V47.1639H6.30765V47.0941Z" fill="black"/>
</g>
</g>
<path d="M11.3333 38.6436H2V44.9916H11.3333V38.6436Z" fill="#E1C278"/>
<path d="M21.6663 38.6436H12.333V44.9916H21.6663V38.6436Z" fill="#E5592D"/>
</g>
<defs>
<filter id="filter0_d_238_44409" x="0" y="1.64355" width="39" height="35" filterUnits="userSpaceOnUse" color-interpolation-filters="sRGB">
<feFlood flood-opacity="0" result="BackgroundImageFix"/>
<feColorMatrix in="SourceAlpha" type="matrix" values="0 0 0 0 0 0 0 0 0 0 0 0 0 0 0 0 0 0 127 0" result="hardAlpha"/>
<feOffset dy="1"/>
<feGaussianBlur stdDeviation="1"/>
<feComposite in2="hardAlpha" operator="out"/>
<feColorMatrix type="matrix" values="0 0 0 0 0 0 0 0 0 0 0 0 0 0 0 0 0 0 0.1 0"/>
<feBlend mode="normal" in2="BackgroundImageFix" result="effect1_dropShadow_238_44409"/>
<feBlend mode="normal" in="SourceGraphic" in2="effect1_dropShadow_238_44409" result="shape"/>
</filter>
<filter id="filter1_i_238_44409" x="2" y="-2.35645" width="35" height="34" filterUnits="userSpaceOnUse" color-interpolation-filters="sRGB">
<feFlood flood-opacity="0" result="BackgroundImageFix"/>
<feBlend mode="normal" in="SourceGraphic" in2="BackgroundImageFix" result="shape"/>
<feColorMatrix in="SourceAlpha" type="matrix" values="0 0 0 0 0 0 0 0 0 0 0 0 0 0 0 0 0 0 127 0" result="hardAlpha"/>
<feOffset dy="-5"/>
<feGaussianBlur stdDeviation="3.5"/>
<feComposite in2="hardAlpha" operator="arithmetic" k2="-1" k3="1"/>
<feColorMatrix type="matrix" values="0 0 0 0 1 0 0 0 0 1 0 0 0 0 1 0 0 0 1 0"/>
<feBlend mode="normal" in2="shape" result="effect1_innerShadow_238_44409"/>
</filter>
<clipPath id="clip0_238_44409">
<rect width="39" height="46.3481" fill="white" transform="translate(0 0.643555)"/>
</clipPath>
<clipPath id="clip1_238_44409">
<rect width="35" height="31" fill="white" transform="translate(2 2.64355)"/>
</clipPath>
<clipPath id="clip2_238_44409">
<rect width="35" height="29" fill="white" transform="translate(2 2.64355)"/>
</clipPath>
</defs>
</svg>
