<svg width="39" height="48" viewBox="0 0 39 48" fill="none" xmlns="http://www.w3.org/2000/svg">
<g clip-path="url(#clip0_238_44387)">
<g clip-path="url(#clip1_238_44387)" filter="url(#filter0_d_238_44387)">
<rect width="35" height="31" transform="translate(2 2.83691)" fill="white"/>
<g opacity="0.3" clip-path="url(#clip2_238_44387)" filter="url(#filter1_i_238_44387)">
<rect width="35" height="29" transform="translate(2 2.83691)" fill="white"/>
<path d="M6 8.39209V6.83691H6.80719V8.39209H6Z" fill="black"/>
<path d="M6.62338 8.39209V6.83691H7.26941V8.39209H6.62338Z" fill="black"/>
<path d="M7.08489 8.39209V6.83691H8.37696V8.39209H7.08489Z" fill="black"/>
<path d="M8.19244 8.39209V6.83691H8.99963V8.39209H8.19244Z" fill="black"/>
<path d="M8.81582 8.39209V6.83691H10.1079V8.39209H8.81582Z" fill="black"/>
<path d="M9.76292 8.39209V6.83691H10.409V8.39209H9.76292Z" fill="black"/>
<path d="M10.2244 8.39209V6.83691H11.8395V8.39209H10.2244Z" fill="black"/>
<path d="M11.6557 8.39209V6.83691H13.2708V8.39209H11.6557Z" fill="black"/>
<path d="M12.9251 8.39209V6.83691H13.5712V8.39209H12.9251Z" fill="black"/>
<path d="M13.3866 8.39209V6.83691H15.4866V8.39209H13.3866Z" fill="black"/>
<path d="M15.383 8.39209V6.83691H16.9981V8.39209H15.383Z" fill="black"/>
<path d="M16.7334 8.39209V6.83691H18.3485V8.39209H16.7334Z" fill="black"/>
<path d="M18.0837 8.39209V6.83691H19.6988V8.39209H18.0837Z" fill="black"/>
<path d="M19.3531 8.39209V6.83691H19.9992V8.39209H19.3531Z" fill="black"/>
<path d="M19.8146 8.39209V6.83691H21.4297V8.39209H19.8146Z" fill="black"/>
<path d="M21.3269 8.39209V6.83691H22.7801V8.39209H21.3269Z" fill="black"/>
<path d="M22.6772 8.39209V6.83691H24.1304V8.39209H22.6772Z" fill="black"/>
<path d="M23.8657 8.39209V6.83691H24.5117V8.39209H23.8657Z" fill="black"/>
<path d="M6 11.3921V9.83691H7.45323V11.3921H6Z" fill="black"/>
<path d="M7.35035 11.3921V9.83691H8.64171V11.3921H7.35035Z" fill="black"/>
<path d="M8.4579 11.3921V9.83691H10.5579V11.3921H8.4579Z" fill="black"/>
<path d="M10.4543 11.3921V9.83691H12.5543V11.3921H10.4543Z" fill="black"/>
<path d="M12.4507 11.3921V9.83691H13.5809V11.3921H12.4507Z" fill="black"/>
<path d="M13.3978 11.3921V9.83691H14.528V11.3921H13.3978Z" fill="black"/>
<path d="M14.183 11.3921V9.83691H16.283V11.3921H14.183Z" fill="black"/>
<path d="M16.1794 11.3921V9.83691H17.7945V11.3921H16.1794Z" fill="black"/>
<path d="M17.6107 11.3921V9.83691H19.0639V11.3921H17.6107Z" fill="black"/>
<path d="M18.8801 11.3921V9.83691H20.0103V11.3921H18.8801Z" fill="black"/>
<path d="M19.6653 11.3921V9.83691H20.4725V11.3921H19.6653Z" fill="black"/>
<path d="M20.2078 11.3921V9.83691H20.8538V11.3921H20.2078Z" fill="black"/>
<path d="M20.6693 11.3921V9.83691H21.7995V11.3921H20.6693Z" fill="black"/>
<path d="M21.4545 11.3921V9.83691H23.0696V11.3921H21.4545Z" fill="black"/>
<path d="M22.8858 11.3921V9.83691H24.5009V11.3921H22.8858Z" fill="black"/>
<path d="M24.3171 11.3921V9.83691H25.7703V11.3921H24.3171Z" fill="black"/>
<path d="M25.5865 11.3921V9.83691H26.2325V11.3921H25.5865Z" fill="black"/>
<path d="M26.048 11.3921V9.83691H27.3401V11.3921H26.048Z" fill="black"/>
<path d="M27.1556 11.3921V9.83691H27.8016V11.3921H27.1556Z" fill="black"/>
<path d="M6 14.3921V12.8369H8.26113V14.3921H6Z" fill="black"/>
<path d="M8.15825 14.3921V12.8369H9.44961V14.3921H8.15825Z" fill="black"/>
<path d="M9.2658 14.3921V12.8369H10.8809V14.3921H9.2658Z" fill="black"/>
<path d="M10.6971 14.3921V12.8369H11.8273V14.3921H10.6971Z" fill="black"/>
<path d="M11.6442 14.3921V12.8369H13.2593V14.3921H11.6442Z" fill="black"/>
<path d="M12.9945 14.3921V12.8369H13.6406V14.3921H12.9945Z" fill="black"/>
<path d="M13.456 14.3921V12.8369H15.556V14.3921H13.456Z" fill="black"/>
<path d="M15.4524 14.3921V12.8369H17.0675V14.3921H15.4524Z" fill="black"/>
<path d="M16.7218 14.3921V12.8369H18.3369V14.3921H16.7218Z" fill="black"/>
<path d="M17.9913 14.3921V12.8369H19.1215V14.3921H17.9913Z" fill="black"/>
<path d="M18.7765 14.3921V12.8369H19.4225V14.3921H18.7765Z" fill="black"/>
<path d="M19.238 14.3921V12.8369H21.4991V14.3921H19.238Z" fill="black"/>
<path d="M21.2344 14.3921V12.8369H22.3646V14.3921H21.2344Z" fill="black"/>
<path d="M22.1815 14.3921V12.8369H23.3117V14.3921H22.1815Z" fill="black"/>
<path d="M22.9667 14.3921V12.8369H24.5818V14.3921H22.9667Z" fill="black"/>
<path d="M24.398 14.3921V12.8369H25.0441V14.3921H24.398Z" fill="black"/>
<path d="M24.8595 14.3921V12.8369H26.4746V14.3921H24.8595Z" fill="black"/>
<path d="M26.2908 14.3921V12.8369H27.421V14.3921H26.2908Z" fill="black"/>
<path d="M27.2379 14.3921V12.8369H29.3379V14.3921H27.2379Z" fill="black"/>
<path d="M29.2343 14.3921V12.8369H30.0415V14.3921H29.2343Z" fill="black"/>
<path d="M29.7767 14.3921V12.8369H30.4228V14.3921H29.7767Z" fill="black"/>
<path d="M6 17.3921V15.8369H7.77696V17.3921H6Z" fill="black"/>
<path d="M7.67408 17.3921V15.8369H9.1273V17.3921H7.67408Z" fill="black"/>
<path d="M8.94349 17.3921V15.8369H10.5586V17.3921H8.94349Z" fill="black"/>
<path d="M10.2938 17.3921V15.8369H10.9399V17.3921H10.2938Z" fill="black"/>
<path d="M10.7553 17.3921V15.8369H11.8856V17.3921H10.7553Z" fill="black"/>
<path d="M11.7025 17.3921V15.8369H12.9945V17.3921H11.7025Z" fill="black"/>
<path d="M12.6496 17.3921V15.8369H13.2956V17.3921H12.6496Z" fill="black"/>
<path d="M13.1111 17.3921V15.8369H14.2413V17.3921H13.1111Z" fill="black"/>
<path d="M13.8963 17.3921V15.8369H15.5114V17.3921H13.8963Z" fill="black"/>
<path d="M15.3276 17.3921V15.8369H16.9427V17.3921H15.3276Z" fill="black"/>
<path d="M16.597 17.3921V15.8369H18.0502V17.3921H16.597Z" fill="black"/>
<path d="M17.7259 17.3921V15.8369H19.3409V17.3921H17.7259Z" fill="black"/>
<path d="M18.9953 17.3921V15.8369H19.6413V17.3921H18.9953Z" fill="black"/>
<path d="M19.4568 17.3921V15.8369H21.7179V17.3921H19.4568Z" fill="black"/>
<path d="M21.3722 17.3921V15.8369H22.9873V17.3921H21.3722Z" fill="black"/>
<path d="M22.7226 17.3921V15.8369H24.1758V17.3921H22.7226Z" fill="black"/>
<path d="M23.9522 17.3921V15.8369H24.5983V17.3921H23.9522Z" fill="black"/>
<path d="M24.4137 17.3921V15.8369H26.0288V17.3921H24.4137Z" fill="black"/>
<path d="M25.7641 17.3921V15.8369H26.4101V17.3921H25.7641Z" fill="black"/>
<path d="M6 20.3921V18.8369H7.45323V20.3921H6Z" fill="black"/>
<path d="M7.35035 20.3921V18.8369H8.64171V20.3921H7.35035Z" fill="black"/>
<path d="M8.4579 20.3921V18.8369H10.5579V20.3921H8.4579Z" fill="black"/>
<path d="M10.4543 20.3921V18.8369H12.5543V20.3921H10.4543Z" fill="black"/>
<path d="M12.4507 20.3921V18.8369H13.5809V20.3921H12.4507Z" fill="black"/>
<path d="M13.3978 20.3921V18.8369H14.528V20.3921H13.3978Z" fill="black"/>
<path d="M14.183 20.3921V18.8369H16.283V20.3921H14.183Z" fill="black"/>
<path d="M16.1794 20.3921V18.8369H17.7945V20.3921H16.1794Z" fill="black"/>
<path d="M17.6107 20.3921V18.8369H19.0639V20.3921H17.6107Z" fill="black"/>
<path d="M18.8801 20.3921V18.8369H20.0103V20.3921H18.8801Z" fill="black"/>
<path d="M19.6653 20.3921V18.8369H20.3114V20.3921H19.6653Z" fill="black"/>
<path d="M20.2887 20.3921V18.8369H21.5801V20.3921H20.2887Z" fill="black"/>
<path d="M21.5581 20.3921V18.8369H23.0113V20.3921H21.5581Z" fill="black"/>
<path d="M22.8275 20.3921V18.8369H23.4736V20.3921H22.8275Z" fill="black"/>
<path d="M23.289 20.3921V18.8369H25.5502V20.3921H23.289Z" fill="black"/>
<path d="M25.2854 20.3921V18.8369H26.9005V20.3921H25.2854Z" fill="black"/>
<path d="M26.7167 20.3921V18.8369H27.8469V20.3921H26.7167Z" fill="black"/>
<path d="M27.6638 20.3921V18.8369H29.117V20.3921H27.6638Z" fill="black"/>
<path d="M28.8523 20.3921V18.8369H30.4674V20.3921H28.8523Z" fill="black"/>
<path d="M30.2836 20.3921V18.8369H30.9296V20.3921H30.2836Z" fill="black"/>
<path d="M6 23.3921V21.8369H8.26113V23.3921H6Z" fill="black"/>
<path d="M7.99638 23.3921V21.8369H9.61148V23.3921H7.99638Z" fill="black"/>
<path d="M9.2658 23.3921V21.8369H9.91184V23.3921H9.2658Z" fill="black"/>
<path d="M9.72731 23.3921V21.8369H11.8273V23.3921H9.72731Z" fill="black"/>
<path d="M11.7237 23.3921V21.8369H13.3388V23.3921H11.7237Z" fill="black"/>
<path d="M12.9931 23.3921V21.8369H14.1233V23.3921H12.9931Z" fill="black"/>
<path d="M13.7783 23.3921V21.8369H14.4244V23.3921H13.7783Z" fill="black"/>
<path d="M14.621 23.0715V22.9623H15.9587V23.0715H14.621Z" fill="black"/>
<path d="M15.6356 23.3921V21.8369H16.2817V23.3921H15.6356Z" fill="black"/>
<path d="M16.0972 23.3921V21.8369H17.7122V23.3921H16.0972Z" fill="black"/>
<path d="M17.6094 23.3921V21.8369H19.0626V23.3921H17.6094Z" fill="black"/>
<path d="M18.8788 23.3921V21.8369H20.4939V23.3921H18.8788Z" fill="black"/>
<path d="M20.2291 23.3921V21.8369H20.8752V23.3921H20.2291Z" fill="black"/>
<path d="M20.6906 23.3921V21.8369H21.8209V23.3921H20.6906Z" fill="black"/>
<path d="M21.4759 23.3921V21.8369H23.091V23.3921H21.4759Z" fill="black"/>
<path d="M22.9072 23.3921V21.8369H24.5223V23.3921H22.9072Z" fill="black"/>
<path d="M24.1766 23.3921V21.8369H24.8226V23.3921H24.1766Z" fill="black"/>
<path d="M6 26.3921V24.8369H7.45323V26.3921H6Z" fill="black"/>
<path d="M7.35035 26.3921V24.8369H8.64171V26.3921H7.35035Z" fill="black"/>
<path d="M8.4579 26.3921V24.8369H10.5579V26.3921H8.4579Z" fill="black"/>
<path d="M10.4543 26.3921V24.8369H12.5543V26.3921H10.4543Z" fill="black"/>
<path d="M12.4507 26.3921V24.8369H13.5809V26.3921H12.4507Z" fill="black"/>
<path d="M13.3978 26.3921V24.8369H14.528V26.3921H13.3978Z" fill="black"/>
<path d="M14.183 26.3921V24.8369H16.283V26.3921H14.183Z" fill="black"/>
<path d="M16.1794 26.3921V24.8369H17.7945V26.3921H16.1794Z" fill="black"/>
<path d="M17.6107 26.3921V24.8369H19.0639V26.3921H17.6107Z" fill="black"/>
<path d="M18.8801 26.3921V24.8369H20.0103V26.3921H18.8801Z" fill="black"/>
<path d="M19.6653 26.3921V24.8369H20.3114V26.3921H19.6653Z" fill="black"/>
<path d="M20.1268 26.3921V24.8369H21.7419V26.3921H20.1268Z" fill="black"/>
<path d="M21.5581 26.3921V24.8369H23.1732V26.3921H21.5581Z" fill="black"/>
<path d="M22.9085 26.3921V24.8369H24.3617V26.3921H22.9085Z" fill="black"/>
<path d="M24.1381 26.3921V24.8369H24.7842V26.3921H24.1381Z" fill="black"/>
<path d="M24.5996 26.3921V24.8369H25.7298V26.3921H24.5996Z" fill="black"/>
<path d="M25.5467 26.3921V24.8369H26.8381V26.3921H25.5467Z" fill="black"/>
<path d="M26.6543 26.3921V24.8369H27.3003V26.3921H26.6543Z" fill="black"/>
<path d="M27.2777 26.3921V24.8369H28.7309V26.3921H27.2777Z" fill="black"/>
<path d="M28.3852 26.3921V24.8369H30.0003V26.3921H28.3852Z" fill="black"/>
<path d="M29.6546 26.3921V24.8369H30.3007V26.3921H29.6546Z" fill="black"/>
<path d="M6 29.3921V27.8369H7.13021V29.3921H6Z" fill="black"/>
<path d="M6.78524 29.3921V27.8369H8.40033V29.3921H6.78524Z" fill="black"/>
<path d="M8.21652 29.3921V27.8369H9.83161V29.3921H8.21652Z" fill="black"/>
<path d="M9.56687 29.3921V27.8369H10.6971V29.3921H9.56687Z" fill="black"/>
<path d="M10.3521 29.3921V27.8369H10.9981V29.3921H10.3521Z" fill="black"/>
<path d="M10.8136 29.3921V27.8369H11.9438V29.3921H10.8136Z" fill="black"/>
<path d="M11.5989 29.3921V27.8369H13.214V29.3921H11.5989Z" fill="black"/>
<path d="M13.0301 29.3921V27.8369H14.6452V29.3921H13.0301Z" fill="black"/>
<path d="M14.2996 29.3921V27.8369H15.7528V29.3921H14.2996Z" fill="black"/>
<path d="M15.4284 29.3921V27.8369H17.0435V29.3921H15.4284Z" fill="black"/>
<path d="M16.6978 29.3921V27.8369H17.505V29.3921H16.6978Z" fill="black"/>
<path d="M17.3212 29.3921V27.8369H18.7744V29.3921H17.3212Z" fill="black"/>
<path d="M18.5508 29.3921V27.8369H19.1969V29.3921H18.5508Z" fill="black"/>
<path d="M19.0124 29.3921V27.8369H20.6275V29.3921H19.0124Z" fill="black"/>
<path d="M20.3627 29.3921V27.8369H21.4929V29.3921H20.3627Z" fill="black"/>
<path d="M21.3098 29.3921V27.8369H22.763V29.3921H21.3098Z" fill="black"/>
<path d="M22.5395 29.3921V27.8369H23.9927V29.3921H22.5395Z" fill="black"/>
<path d="M23.728 29.3921V27.8369H25.343V29.3921H23.728Z" fill="black"/>
<path d="M25.1592 29.3921V27.8369H26.6125V29.3921H25.1592Z" fill="black"/>
<path d="M26.3889 29.3921V27.8369H27.8421V29.3921H26.3889Z" fill="black"/>
<path d="M27.6185 29.3921V27.8369H28.7488V29.3921H27.6185Z" fill="black"/>
<path d="M28.7275 29.3921V27.8369H30.0189V29.3921H28.7275Z" fill="black"/>
<path d="M29.9969 29.3921V27.8369H31.4502V29.3921H29.9969Z" fill="black"/>
<path d="M31.2663 29.3921V27.8369H31.9124V29.3921H31.2663Z" fill="black"/>
<path d="M6 32.3921V30.8369H7.61509V32.3921H6Z" fill="black"/>
<path d="M7.51221 32.3921V30.8369H8.96544V32.3921H7.51221Z" fill="black"/>
<path d="M8.78163 32.3921V30.8369H10.073V32.3921H8.78163Z" fill="black"/>
<path d="M9.88917 32.3921V30.8369H11.5043V32.3921H9.88917Z" fill="black"/>
<path d="M11.3205 32.3921V30.8369H12.4507V32.3921H11.3205Z" fill="black"/>
<path d="M12.1057 32.3921V30.8369H12.7517V32.3921H12.1057Z" fill="black"/>
<path d="M12.5672 32.3921V30.8369H14.1823V32.3921H12.5672Z" fill="black"/>
<path d="M13.9985 32.3921V30.8369H15.1287V32.3921H13.9985Z" fill="black"/>
<path d="M14.9456 32.3921V30.8369H16.3988V32.3921H14.9456Z" fill="black"/>
<path d="M16.1752 32.3921V30.8369H16.8213V32.3921H16.1752Z" fill="black"/>
<path d="M16.7986 32.3921V30.8369H18.2519V32.3921H16.7986Z" fill="black"/>
<path d="M18.068 32.3921V30.8369H19.6831V32.3921H18.068Z" fill="black"/>
<path d="M19.4993 32.3921V30.8369H20.9525V32.3921H19.4993Z" fill="black"/>
<path d="M20.6878 32.3921V30.8369H21.818V32.3921H20.6878Z" fill="black"/>
<path d="M21.6349 32.3921V30.8369H23.25V32.3921H21.6349Z" fill="black"/>
<path d="M22.9043 32.3921V30.8369H24.5194V32.3921H22.9043Z" fill="black"/>
<path d="M24.2547 32.3921V30.8369H25.7079V32.3921H24.2547Z" fill="black"/>
<path d="M25.3835 32.3921V30.8369H26.0296V32.3921H25.3835Z" fill="black"/>
<path d="M6 35.3921V33.8369H7.61509V35.3921H6Z" fill="black"/>
<path d="M7.35035 35.3921V33.8369H8.80358V35.3921H7.35035Z" fill="black"/>
<path d="M8.47919 35.3921V33.8369H9.93242V35.3921H8.47919Z" fill="black"/>
<path d="M9.70885 35.3921V33.8369H11.3239V35.3921H9.70885Z" fill="black"/>
<path d="M11.1401 35.3921V33.8369H12.5934V35.3921H11.1401Z" fill="black"/>
<path d="M12.4095 35.3921V33.8369H14.0246V35.3921H12.4095Z" fill="black"/>
<path d="M13.7599 35.3921V33.8369H14.8901V35.3921H13.7599Z" fill="black"/>
<path d="M14.707 35.3921V33.8369H15.5142V35.3921H14.707Z" fill="black"/>
<path d="M15.2494 35.3921V33.8369H15.8955V35.3921H15.2494Z" fill="black"/>
<path d="M15.711 35.3921V33.8369H17.326V35.3921H15.711Z" fill="black"/>
<path d="M17.2232 35.3921V33.8369H18.6764V35.3921H17.2232Z" fill="black"/>
<path d="M18.4926 35.3921V33.8369H20.1077V35.3921H18.4926Z" fill="black"/>
<path d="M19.8429 35.3921V33.8369H20.489V35.3921H19.8429Z" fill="black"/>
<path d="M20.3044 35.3921V33.8369H21.4346V35.3921H20.3044Z" fill="black"/>
<path d="M21.2515 35.3921V33.8369H22.5436V35.3921H21.2515Z" fill="black"/>
<path d="M22.1986 35.3921V33.8369H22.8447V35.3921H22.1986Z" fill="black"/>
<path d="M22.6602 35.3921V33.8369H23.7904V35.3921H22.6602Z" fill="black"/>
<path d="M23.6073 35.3921V33.8369H24.7375V35.3921H23.6073Z" fill="black"/>
<path d="M24.3925 35.3921V33.8369H25.1997V35.3921H24.3925Z" fill="black"/>
<path d="M25.0159 35.3921V33.8369H26.4691V35.3921H25.0159Z" fill="black"/>
<path d="M26.2455 35.3921V33.8369H26.8916V35.3921H26.2455Z" fill="black"/>
<path d="M6 38.3921V36.8369H8.09998V38.3921H6Z" fill="black"/>
<path d="M7.99638 38.3921V36.8369H9.61148V38.3921H7.99638Z" fill="black"/>
<path d="M9.2658 38.3921V36.8369H10.719V38.3921H9.2658Z" fill="black"/>
<path d="M10.3946 38.3921V36.8369H12.0097V38.3921H10.3946Z" fill="black"/>
<path d="M11.6641 38.3921V36.8369H12.7943V38.3921H11.6641Z" fill="black"/>
<path d="M12.6921 38.3921V36.8369H14.1453V38.3921H12.6921Z" fill="black"/>
<path d="M13.8806 38.3921V36.8369H14.5266V38.3921H13.8806Z" fill="black"/>
<path d="M14.3421 38.3921V36.8369H15.9572V38.3921H14.3421Z" fill="black"/>
<path d="M15.8543 38.3921V36.8369H17.3075V38.3921H15.8543Z" fill="black"/>
<path d="M17.1237 38.3921V36.8369H17.7698V38.3921H17.1237Z" fill="black"/>
<path d="M17.9664 38.0715V37.9623H19.304V38.0715H17.9664Z" fill="black"/>
<path d="M18.981 38.3921V36.8369H19.627V38.3921H18.981Z" fill="black"/>
<path d="M19.4425 38.3921V36.8369H21.0576V38.3921H19.4425Z" fill="black"/>
<path d="M20.7929 38.3921V36.8369H21.4389V38.3921H20.7929Z" fill="black"/>
<path d="M21.2544 38.3921V36.8369H23.3544V38.3921H21.2544Z" fill="black"/>
<path d="M23.2508 38.3921V36.8369H24.8659V38.3921H23.2508Z" fill="black"/>
<path d="M24.5202 38.3921V36.8369H26.1353V38.3921H24.5202Z" fill="black"/>
<path d="M26.0324 38.3921V36.8369H27.4856V38.3921H26.0324Z" fill="black"/>
<path d="M27.3018 38.3921V36.8369H28.755V38.3921H27.3018Z" fill="black"/>
<path d="M28.5315 38.3921V36.8369H29.1775V38.3921H28.5315Z" fill="black"/>
<path d="M29.1548 38.3921V36.8369H30.6081V38.3921H29.1548Z" fill="black"/>
<path d="M30.4243 38.3921V36.8369H31.8775V38.3921H30.4243Z" fill="black"/>
<path d="M31.6127 38.3921V36.8369H32.2588V38.3921H31.6127Z" fill="black"/>
<path d="M6 41.3921V39.8369H8.26113V41.3921H6Z" fill="black"/>
<path d="M7.99638 41.3921V39.8369H9.61148V41.3921H7.99638Z" fill="black"/>
<path d="M9.42766 41.3921V39.8369H10.5579V41.3921H9.42766Z" fill="black"/>
<path d="M10.3748 41.3921V39.8369H11.828V41.3921H10.3748Z" fill="black"/>
<path d="M11.5633 41.3921V39.8369H13.1783V41.3921H11.5633Z" fill="black"/>
<path d="M12.9945 41.3921V39.8369H13.6406V41.3921H12.9945Z" fill="black"/>
<path d="M13.456 41.3921V39.8369H15.0711V41.3921H13.456Z" fill="black"/>
<path d="M15.0492 41.3921V39.8369H16.3406V41.3921H15.0492Z" fill="black"/>
<path d="M16.1567 41.3921V39.8369H18.4179V41.3921H16.1567Z" fill="black"/>
<path d="M18.1531 41.3921V39.8369H18.7992V41.3921H18.1531Z" fill="black"/>
<path d="M18.6146 41.3921V39.8369H20.2297V41.3921H18.6146Z" fill="black"/>
<path d="M20.1268 41.3921V39.8369H21.4182V41.3921H20.1268Z" fill="black"/>
<path d="M21.2344 41.3921V39.8369H21.8804V41.3921H21.2344Z" fill="black"/>
<path d="M21.6959 41.3921V39.8369H23.957V41.3921H21.6959Z" fill="black"/>
<path d="M23.6923 41.3921V39.8369H25.3074V41.3921H23.6923Z" fill="black"/>
<path d="M24.9617 41.3921V39.8369H25.6077V41.3921H24.9617Z" fill="black"/>
<path d="M6 44.3921V42.8369H7.61509V44.3921H6Z" fill="black"/>
<path d="M7.35035 44.3921V42.8369H8.96544V44.3921H7.35035Z" fill="black"/>
<path d="M8.61976 44.3921V42.8369H10.2349V44.3921H8.61976Z" fill="black"/>
<path d="M9.88917 44.3921V42.8369H11.3424V44.3921H9.88917Z" fill="black"/>
<path d="M11.1188 44.3921V42.8369H12.5721V44.3921H11.1188Z" fill="black"/>
<path d="M12.3073 44.3921V42.8369H13.9224V44.3921H12.3073Z" fill="black"/>
<path d="M13.6577 44.3921V42.8369H14.7879V44.3921H13.6577Z" fill="black"/>
<path d="M14.6048 44.3921V42.8369H16.2199V44.3921H14.6048Z" fill="black"/>
<path d="M15.9551 44.3921V42.8369H17.0853V44.3921H15.9551Z" fill="black"/>
<path d="M16.7404 44.3921V42.8369H18.3554V44.3921H16.7404Z" fill="black"/>
<path d="M18.0098 44.3921V42.8369H18.6558V44.3921H18.0098Z" fill="black"/>
<path d="M18.4713 44.3921V42.8369H20.7324V44.3921H18.4713Z" fill="black"/>
<path d="M20.4677 44.3921V42.8369H22.0828V44.3921H20.4677Z" fill="black"/>
<path d="M21.8989 44.3921V42.8369H23.514V44.3921H21.8989Z" fill="black"/>
<path d="M23.2493 44.3921V42.8369H24.3795V44.3921H23.2493Z" fill="black"/>
<path d="M24.0345 44.3921V42.8369H24.6806V44.3921H24.0345Z" fill="black"/>
<path d="M24.496 44.3921V42.8369H25.6263V44.3921H24.496Z" fill="black"/>
<path d="M25.2813 44.3921V42.8369H26.8964V44.3921H25.2813Z" fill="black"/>
<path d="M26.7126 44.3921V42.8369H28.3277V44.3921H26.7126Z" fill="black"/>
<path d="M28.1438 44.3921V42.8369H29.5971V44.3921H28.1438Z" fill="black"/>
<path d="M29.3323 44.3921V42.8369H30.1395V44.3921H29.3323Z" fill="black"/>
<path d="M29.9557 44.3921V42.8369H31.4089V44.3921H29.9557Z" fill="black"/>
<path d="M31.0845 44.3921V42.8369H32.6996V44.3921H31.0845Z" fill="black"/>
<path d="M32.354 44.3921V42.8369H33V44.3921H32.354Z" fill="black"/>
<path d="M6 47.3921V45.8369H7.61509V47.3921H6Z" fill="black"/>
<path d="M7.51221 47.3921V45.8369H8.80358V47.3921H7.51221Z" fill="black"/>
<path d="M8.61976 47.3921V45.8369H9.74997V47.3921H8.61976Z" fill="black"/>
<path d="M9.72873 47.3921V45.8369H11.182V47.3921H9.72873Z" fill="black"/>
<path d="M10.9981 47.3921V45.8369H12.6132V47.3921H10.9981Z" fill="black"/>
<path d="M12.4294 47.3921V45.8369H13.2366V47.3921H12.4294Z" fill="black"/>
<path d="M12.9719 47.3921V45.8369H13.7791V47.3921H12.9719Z" fill="black"/>
<path d="M6.32302 8.2875H24.1887V8.35723H6.32302V8.2875ZM6.32302 11.2875H27.4786V11.3572H6.32302V11.2875ZM6.32302 14.2875H30.0998V14.3572H6.32302V14.2875ZM6.32302 17.2875H26.0871V17.3572H6.32302V17.2875ZM6.32302 20.2875H30.6066V20.3572H6.32302V20.2875ZM6.32302 23.2875H14.5629V23.3572H6.32302V23.2875ZM14.5629 23.5671H15.9587V23.6371H14.5629V23.5671ZM15.9587 23.2875H24.4996V23.3572H15.9587V23.2875ZM6.32302 26.2875H29.9777V26.3572H6.32302V26.2875ZM6.32302 29.2875H31.5894V29.3572H6.32302V29.2875ZM6.32302 32.2875H25.7058V32.3572H6.32302V32.2875ZM6.32302 35.2875H26.5678V35.3572H6.32302V35.2875ZM6.32302 38.2875H17.9082V38.3572H6.32302V38.2875ZM17.9082 38.5671H19.304V38.6371H17.9082V38.5671ZM19.304 38.2875H31.9358V38.3572H19.304V38.2875ZM6.32302 41.2875H25.2847V41.3572H6.32302V41.2875ZM6.32302 44.2875H32.677V44.3572H6.32302V44.2875ZM6.32302 47.2875H13.9764V47.3572H6.32302V47.2875Z" fill="black"/>
</g>
<rect width="12" height="14" transform="translate(25 18.8369)" fill="white"/>
<path d="M30.6787 22.6982C31.5999 22.6982 32.2721 22.8968 32.6953 23.2939C33.1185 23.6878 33.3301 24.2314 33.3301 24.9248C33.3301 25.2373 33.2829 25.5368 33.1885 25.8232C33.0941 26.1064 32.9395 26.3587 32.7246 26.5801C32.513 26.8014 32.2298 26.9772 31.875 27.1074C31.5202 27.2344 31.0824 27.2979 30.5615 27.2979H29.9121V29.8369H28.3984V22.6982H30.6787ZM30.6006 23.9385H29.9121V26.0576H30.4102C30.6934 26.0576 30.9391 26.0202 31.1475 25.9453C31.3558 25.8704 31.5169 25.7533 31.6309 25.5938C31.7448 25.4342 31.8018 25.2292 31.8018 24.9785C31.8018 24.627 31.7041 24.3665 31.5088 24.1973C31.3135 24.0247 31.0107 23.9385 30.6006 23.9385Z" fill="#585858"/>
</g>
<path d="M11.3333 38.8369H2V45.185H11.3333V38.8369Z" fill="#7FA4CA"/>
<path d="M21.6663 38.8369H12.333V45.185H21.6663V38.8369Z" fill="#E1C278"/>
</g>
<defs>
<filter id="filter0_d_238_44387" x="0" y="1.83691" width="39" height="35" filterUnits="userSpaceOnUse" color-interpolation-filters="sRGB">
<feFlood flood-opacity="0" result="BackgroundImageFix"/>
<feColorMatrix in="SourceAlpha" type="matrix" values="0 0 0 0 0 0 0 0 0 0 0 0 0 0 0 0 0 0 127 0" result="hardAlpha"/>
<feOffset dy="1"/>
<feGaussianBlur stdDeviation="1"/>
<feComposite in2="hardAlpha" operator="out"/>
<feColorMatrix type="matrix" values="0 0 0 0 0 0 0 0 0 0 0 0 0 0 0 0 0 0 0.1 0"/>
<feBlend mode="normal" in2="BackgroundImageFix" result="effect1_dropShadow_238_44387"/>
<feBlend mode="normal" in="SourceGraphic" in2="effect1_dropShadow_238_44387" result="shape"/>
</filter>
<filter id="filter1_i_238_44387" x="2" y="-2.16309" width="35" height="34" filterUnits="userSpaceOnUse" color-interpolation-filters="sRGB">
<feFlood flood-opacity="0" result="BackgroundImageFix"/>
<feBlend mode="normal" in="SourceGraphic" in2="BackgroundImageFix" result="shape"/>
<feColorMatrix in="SourceAlpha" type="matrix" values="0 0 0 0 0 0 0 0 0 0 0 0 0 0 0 0 0 0 127 0" result="hardAlpha"/>
<feOffset dy="-5"/>
<feGaussianBlur stdDeviation="3.5"/>
<feComposite in2="hardAlpha" operator="arithmetic" k2="-1" k3="1"/>
<feColorMatrix type="matrix" values="0 0 0 0 1 0 0 0 0 1 0 0 0 0 1 0 0 0 1 0"/>
<feBlend mode="normal" in2="shape" result="effect1_innerShadow_238_44387"/>
</filter>
<clipPath id="clip0_238_44387">
<rect width="39" height="46.3481" fill="white" transform="translate(0 0.836914)"/>
</clipPath>
<clipPath id="clip1_238_44387">
<rect width="35" height="31" fill="white" transform="translate(2 2.83691)"/>
</clipPath>
<clipPath id="clip2_238_44387">
<rect width="35" height="29" fill="white" transform="translate(2 2.83691)"/>
</clipPath>
</defs>
</svg>
