<svg width="39" height="47" viewBox="0 0 39 47" fill="none" xmlns="http://www.w3.org/2000/svg">
<g clip-path="url(#clip0_238_44420)">
<g clip-path="url(#clip1_238_44420)" filter="url(#filter0_d_238_44420)">
<rect width="35" height="31" transform="translate(2 2.54688)" fill="white"/>
<g opacity="0.3" clip-path="url(#clip2_238_44420)" filter="url(#filter1_i_238_44420)">
<rect width="35" height="29" transform="translate(2 2.54688)" fill="white"/>
<path d="M6 8.10205V6.54688H6.76606V8.10205H6Z" fill="black"/>
<path d="M6.74523 8.10205V6.54688H8.89114V8.10205H6.74523Z" fill="black"/>
<path d="M8.67761 8.10205V6.54688H10.2104V8.10205H8.67761Z" fill="black"/>
<path d="M9.88234 8.10205V6.54688H10.4955V8.10205H9.88234Z" fill="black"/>
<path d="M10.3203 8.10205V6.54688H11.6995V8.10205H10.3203Z" fill="black"/>
<path d="M11.3917 8.10205V6.54688H12.9244V8.10205H11.3917Z" fill="black"/>
<path d="M12.5964 8.10205V6.54688H14.5894V8.10205H12.5964Z" fill="black"/>
<path d="M14.491 8.10205V6.54688H16.0238V8.10205H14.491Z" fill="black"/>
<path d="M15.7726 8.10205V6.54688H16.8452V8.10205H15.7726Z" fill="black"/>
<path d="M16.825 8.10205V6.54688H18.2042V8.10205H16.825Z" fill="black"/>
<path d="M18.0298 8.10205V6.54688H18.6429V8.10205H18.0298Z" fill="black"/>
<path d="M18.4678 8.10205V6.54688H19.8469V8.10205H18.4678Z" fill="black"/>
<path d="M19.5391 8.10205V6.54688H21.0719V8.10205H19.5391Z" fill="black"/>
<path d="M20.7438 8.10205V6.54688H22.2766V8.10205H20.7438Z" fill="black"/>
<path d="M22.0253 8.10205V6.54688H23.5581V8.10205H22.0253Z" fill="black"/>
<path d="M23.3837 8.10205V6.54688H24.7629V8.10205H23.3837Z" fill="black"/>
<path d="M24.5116 8.10205V6.54688H25.1247V8.10205H24.5116Z" fill="black"/>
<path d="M24.9496 8.10205V6.54688H26.0222V8.10205H24.9496Z" fill="black"/>
<path d="M25.8484 8.10205V6.54688H27.074V8.10205H25.8484Z" fill="black"/>
<path d="M26.8996 8.10205V6.54688H27.5127V8.10205H26.8996Z" fill="black"/>
<path d="M27.3375 8.10205V6.54688H29.3305V8.10205H27.3375Z" fill="black"/>
<path d="M29.2322 8.10205V6.54688H30.765V8.10205H29.2322Z" fill="black"/>
<path d="M30.4369 8.10205V6.54688H31.9697V8.10205H30.4369Z" fill="black"/>
<path d="M31.6417 8.10205V6.54688H32.7143V8.10205H31.6417Z" fill="black"/>
<path d="M32.3869 8.10205V6.54688H33V8.10205H32.3869Z" fill="black"/>
<path d="M6 11.1021V9.54688H8.14591V11.1021H6Z" fill="black"/>
<path d="M7.89465 11.1021V9.54688H8.96727V11.1021H7.89465Z" fill="black"/>
<path d="M8.7935 11.1021V9.54688H9.86611V11.1021H8.7935Z" fill="black"/>
<path d="M9.53872 11.1021V9.54688H11.0715V11.1021H9.53872Z" fill="black"/>
<path d="M10.8971 11.1021V9.54688H11.5102V11.1021H10.8971Z" fill="black"/>
<path d="M11.3351 11.1021V9.54688H12.4077V11.1021H11.3351Z" fill="black"/>
<path d="M12.0803 11.1021V9.54688H13.6131V11.1021H12.0803Z" fill="black"/>
<path d="M13.4386 11.1021V9.54688H14.9714V11.1021H13.4386Z" fill="black"/>
<path d="M14.6434 11.1021V9.54688H15.2565V11.1021H14.6434Z" fill="black"/>
<path d="M15.0814 11.1021V9.54688H16.7678V11.1021H15.0814Z" fill="black"/>
<path d="M16.6122 11.1021V9.54688H18.145V11.1021H16.6122Z" fill="black"/>
<path d="M17.8358 11.1021V9.54688H19.5222V11.1021H17.8358Z" fill="black"/>
<path d="M19.3477 11.1021V9.54688H21.0341V11.1021H19.3477Z" fill="black"/>
<path d="M20.7829 11.1021V9.54688H21.396V11.1021H20.7829Z" fill="black"/>
<path d="M21.2209 11.1021V9.54688H23.3668V11.1021H21.2209Z" fill="black"/>
<path d="M23.1155 11.1021V9.54688H24.1881V11.1021H23.1155Z" fill="black"/>
<path d="M24.0144 11.1021V9.54688H25.087V11.1021H24.0144Z" fill="black"/>
<path d="M24.7596 11.1021V9.54688H26.2924V11.1021H24.7596Z" fill="black"/>
<path d="M26.2716 11.1021V9.54688H27.4971V11.1021H26.2716Z" fill="black"/>
<path d="M27.3227 11.1021V9.54688H28.8555V11.1021H27.3227Z" fill="black"/>
<path d="M28.681 11.1021V9.54688H29.7536V11.1021H28.681Z" fill="black"/>
<path d="M29.4262 11.1021V9.54688H30.0394V11.1021H29.4262Z" fill="black"/>
<path d="M6.15362 14.1021V12.5469H7.53279V14.1021H6.15362Z" fill="black"/>
<path d="M7.28154 14.1021V12.5469H8.66071V14.1021H7.28154Z" fill="black"/>
<path d="M8.35286 14.1021V12.5469H9.88565V14.1021H8.35286Z" fill="black"/>
<path d="M9.55759 14.1021V12.5469H10.9368V14.1021H9.55759Z" fill="black"/>
<path d="M10.8391 14.1021V12.5469H12.0647V14.1021H10.8391Z" fill="black"/>
<path d="M12.0439 14.1021V12.5469H13.423V14.1021H12.0439Z" fill="black"/>
<path d="M13.2486 14.1021V12.5469H14.7814V14.1021H13.2486Z" fill="black"/>
<path d="M14.5301 14.1021V12.5469H15.6027V14.1021H14.5301Z" fill="black"/>
<path d="M15.429 14.1021V12.5469H16.5016V14.1021H15.429Z" fill="black"/>
<path d="M16.1742 14.1021V12.5469H17.2468V14.1021H16.1742Z" fill="black"/>
<path d="M17.2266 14.1021V12.5469H18.4522V14.1021H17.2266Z" fill="black"/>
<path d="M18.4314 14.1021V12.5469H19.8105V14.1021H18.4314Z" fill="black"/>
<path d="M19.6361 14.1021V12.5469H21.0153V14.1021H19.6361Z" fill="black"/>
<path d="M20.8031 14.1021V12.5469H21.5692V14.1021H20.8031Z" fill="black"/>
<path d="M21.3179 14.1021V12.5469H21.931V14.1021H21.3179Z" fill="black"/>
<path d="M21.7559 14.1021V12.5469H23.2887V14.1021H21.7559Z" fill="black"/>
<path d="M23.191 14.1021V12.5469H24.5702V14.1021H23.191Z" fill="black"/>
<path d="M24.3958 14.1021V12.5469H25.9286V14.1021H24.3958Z" fill="black"/>
<path d="M25.6773 14.1021V12.5469H26.2904V14.1021H25.6773Z" fill="black"/>
<path d="M26.1153 14.1021V12.5469H28.2612V14.1021H26.1153Z" fill="black"/>
<path d="M28.01 14.1021V12.5469H29.5427V14.1021H28.01Z" fill="black"/>
<path d="M29.2147 14.1021V12.5469H29.8278V14.1021H29.2147Z" fill="black"/>
<path d="M6 17.1021V15.5469H7.53279V17.1021H6Z" fill="black"/>
<path d="M7.35834 17.1021V15.5469H8.89114V17.1021H7.35834Z" fill="black"/>
<path d="M8.56307 17.1021V15.5469H9.94225V17.1021H8.56307Z" fill="black"/>
<path d="M9.84461 17.1021V15.5469H11.3774V17.1021H9.84461Z" fill="black"/>
<path d="M11.0493 17.1021V15.5469H11.6625V17.1021H11.0493Z" fill="black"/>
<path d="M11.4873 17.1021V15.5469H13.4803V17.1021H11.4873Z" fill="black"/>
<path d="M13.382 17.1021V15.5469H14.9148V17.1021H13.382Z" fill="black"/>
<path d="M14.6635 17.1021V15.5469H16.1963V17.1021H14.6635Z" fill="black"/>
<path d="M15.9451 17.1021V15.5469H17.4778V17.1021H15.9451Z" fill="black"/>
<path d="M17.1498 17.1021V15.5469H17.7629V17.1021H17.1498Z" fill="black"/>
<path d="M17.5878 17.1021V15.5469H18.967V17.1021H17.5878Z" fill="black"/>
<path d="M18.7157 17.1021V15.5469H19.7883V17.1021H18.7157Z" fill="black"/>
<path d="M19.6145 17.1021V15.5469H21.1473V17.1021H19.6145Z" fill="black"/>
<path d="M20.8193 17.1021V15.5469H22.3521V17.1021H20.8193Z" fill="black"/>
<path d="M22.1008 17.1021V15.5469H23.48V17.1021H22.1008Z" fill="black"/>
<path d="M23.1721 17.1021V15.5469H23.7852V17.1021H23.1721Z" fill="black"/>
<path d="M23.6101 17.1021V15.5469H24.6827V17.1021H23.6101Z" fill="black"/>
<path d="M24.3553 17.1021V15.5469H25.8881V17.1021H24.3553Z" fill="black"/>
<path d="M25.7137 17.1021V15.5469H27.2465V17.1021H25.7137Z" fill="black"/>
<path d="M26.9952 17.1021V15.5469H28.0678V17.1021H26.9952Z" fill="black"/>
<path d="M27.7405 17.1021V15.5469H28.3536V17.1021H27.7405Z" fill="black"/>
<path d="M28.1784 17.1021V15.5469H29.2511V17.1021H28.1784Z" fill="black"/>
<path d="M28.9237 17.1021V15.5469H30.4565V17.1021H28.9237Z" fill="black"/>
<path d="M30.282 17.1021V15.5469H31.8148V17.1021H30.282Z" fill="black"/>
<path d="M31.4867 17.1021V15.5469H32.0999V17.1021H31.4867Z" fill="black"/>
<path d="M6 20.1021V18.5469H7.68641V20.1021H6Z" fill="black"/>
<path d="M7.54969 20.1021V18.5469H8.92887V20.1021H7.54969Z" fill="black"/>
<path d="M8.75442 20.1021V18.5469H9.82704V20.1021H8.75442Z" fill="black"/>
<path d="M9.65326 20.1021V18.5469H10.7259V20.1021H9.65326Z" fill="black"/>
<path d="M10.3985 20.1021V18.5469H11.9313V20.1021H10.3985Z" fill="black"/>
<path d="M11.6032 20.1021V18.5469H13.136V20.1021H11.6032Z" fill="black"/>
<path d="M12.8848 20.1021V18.5469H13.4979V20.1021H12.8848Z" fill="black"/>
<path d="M13.3227 20.1021V18.5469H14.7019V20.1021H13.3227Z" fill="black"/>
<path d="M14.6043 20.1021V18.5469H15.6769V20.1021H14.6043Z" fill="black"/>
<path d="M15.3495 20.1021V18.5469H16.8823V20.1021H15.3495Z" fill="black"/>
<path d="M16.631 20.1021V18.5469H17.7037V20.1021H16.631Z" fill="black"/>
<path d="M17.3763 20.1021V18.5469H18.9091V20.1021H17.3763Z" fill="black"/>
<path d="M18.581 20.1021V18.5469H19.9602V20.1021H18.581Z" fill="black"/>
<path d="M19.748 20.1021V18.5469H20.3611V20.1021H19.748Z" fill="black"/>
<path d="M20.186 20.1021V18.5469H21.7188V20.1021H20.186Z" fill="black"/>
<path d="M21.5443 20.1021V18.5469H23.0771V20.1021H21.5443Z" fill="black"/>
<path d="M22.8259 20.1021V18.5469H24.205V20.1021H22.8259Z" fill="black"/>
<path d="M24.0508 20.1021V18.5469H25.43V20.1021H24.0508Z" fill="black"/>
<path d="M25.2555 20.1021V18.5469H26.4811V20.1021H25.2555Z" fill="black"/>
<path d="M26.3066 20.1021V18.5469H27.6858V20.1021H26.3066Z" fill="black"/>
<path d="M27.378 20.1021V18.5469H28.7571V20.1021H27.378Z" fill="black"/>
<path d="M28.545 20.1021V18.5469H29.1581V20.1021H28.545Z" fill="black"/>
<path d="M29.1366 20.1021V18.5469H30.5158V20.1021H29.1366Z" fill="black"/>
<path d="M30.4949 20.1021V18.5469H31.7205V20.1021H30.4949Z" fill="black"/>
<path d="M31.546 20.1021V18.5469H32.1592V20.1021H31.546Z" fill="black"/>
<path d="M6 23.1021V21.5469H7.53279V23.1021H6Z" fill="black"/>
<path d="M7.51196 23.1021V21.5469H8.73752V23.1021H7.51196Z" fill="black"/>
<path d="M8.56307 23.1021V21.5469H9.94225V23.1021H8.56307Z" fill="black"/>
<path d="M9.73007 23.1021V21.5469H10.8027V23.1021H9.73007Z" fill="black"/>
<path d="M10.4753 23.1021V21.5469H11.5479V23.1021H10.4753Z" fill="black"/>
<path d="M11.3741 23.1021V21.5469H12.4468V23.1021H11.3741Z" fill="black"/>
<path d="M12.273 23.1021V21.5469H13.8058V23.1021H12.273Z" fill="black"/>
<path d="M13.4777 23.1021V21.5469H14.0908V23.1021H13.4777Z" fill="black"/>
<path d="M13.9157 23.1021V21.5469H14.9883V23.1021H13.9157Z" fill="black"/>
<path d="M14.9682 23.1021V21.5469H16.3473V23.1021H14.9682Z" fill="black"/>
<path d="M16.1729 23.1021V21.5469H17.2455V23.1021H16.1729Z" fill="black"/>
<path d="M16.9181 23.1021V21.5469H18.4509V23.1021H16.9181Z" fill="black"/>
<path d="M18.2765 23.1021V21.5469H19.6556V23.1021H18.2765Z" fill="black"/>
<path d="M19.4812 23.1021V21.5469H20.5538V23.1021H19.4812Z" fill="black"/>
<path d="M20.2264 23.1021V21.5469H20.8395V23.1021H20.2264Z" fill="black"/>
<path d="M20.6644 23.1021V21.5469H21.737V23.1021H20.6644Z" fill="black"/>
<path d="M21.5633 23.1021V21.5469H22.7888V23.1021H21.5633Z" fill="black"/>
<path d="M22.6144 23.1021V21.5469H24.7603V23.1021H22.6144Z" fill="black"/>
<path d="M24.4322 23.1021V21.5469H25.965V23.1021H24.4322Z" fill="black"/>
<path d="M25.7137 23.1021V21.5469H27.0929V23.1021H25.7137Z" fill="black"/>
<path d="M26.7851 23.1021V21.5469H28.3179V23.1021H26.7851Z" fill="black"/>
<path d="M28.0666 23.1021V21.5469H28.6797V23.1021H28.0666Z" fill="black"/>
<path d="M28.5046 23.1021V21.5469H29.5772V23.1021H28.5046Z" fill="black"/>
<path d="M29.2498 23.1021V21.5469H30.7826V23.1021H29.2498Z" fill="black"/>
<path d="M30.6082 23.1021V21.5469H32.141V23.1021H30.6082Z" fill="black"/>
<path d="M31.8129 23.1021V21.5469H32.426V23.1021H31.8129Z" fill="black"/>
<path d="M6 26.1021V24.5469H7.68641V26.1021H6Z" fill="black"/>
<path d="M7.53082 26.1021V24.5469H9.06362V26.1021H7.53082Z" fill="black"/>
<path d="M8.75442 26.1021V24.5469H10.4408V26.1021H8.75442Z" fill="black"/>
<path d="M10.2664 26.1021V24.5469H11.9528V26.1021H10.2664Z" fill="black"/>
<path d="M11.7015 26.1021V24.5469H12.4676V26.1021H11.7015Z" fill="black"/>
<path d="M12.2163 26.1021V24.5469H12.8294V26.1021H12.2163Z" fill="black"/>
<path d="M12.8079 26.1021V24.5469H14.9539V26.1021H12.8079Z" fill="black"/>
<path d="M14.7403 26.1021V24.5469H16.2731V26.1021H14.7403Z" fill="black"/>
<path d="M15.9451 26.1021V24.5469H16.5582V26.1021H15.9451Z" fill="black"/>
<path d="M16.383 26.1021V24.5469H17.9158V26.1021H16.383Z" fill="black"/>
<path d="M17.895 26.1021V24.5469H19.1206V26.1021H17.895Z" fill="black"/>
<path d="M19.0997 26.1021V24.5469H20.4789V26.1021H19.0997Z" fill="black"/>
<path d="M20.2277 26.1021V24.5469H21.7604V26.1021H20.2277Z" fill="black"/>
<path d="M21.4324 26.1021V24.5469H22.0455V26.1021H21.4324Z" fill="black"/>
<path d="M21.8704 26.1021V24.5469H22.943V26.1021H21.8704Z" fill="black"/>
<path d="M22.6156 26.1021V24.5469H24.1484V26.1021H22.6156Z" fill="black"/>
<path d="M23.9739 26.1021V24.5469H25.5067V26.1021H23.9739Z" fill="black"/>
<path d="M25.1787 26.1021V24.5469H25.7918V26.1021H25.1787Z" fill="black"/>
<path d="M25.6167 26.1021V24.5469H27.3031V26.1021H25.6167Z" fill="black"/>
<path d="M27.1475 26.1021V24.5469H28.6803V26.1021H27.1475Z" fill="black"/>
<path d="M28.3711 26.1021V24.5469H30.0575V26.1021H28.3711Z" fill="black"/>
<path d="M29.883 26.1021V24.5469H31.5695V26.1021H29.883Z" fill="black"/>
<path d="M31.3182 26.1021V24.5469H31.9313V26.1021H31.3182Z" fill="black"/>
<path d="M6 29.1021V27.5469H8.14591V29.1021H6Z" fill="black"/>
<path d="M7.89465 29.1021V27.5469H8.96727V29.1021H7.89465Z" fill="black"/>
<path d="M8.7935 29.1021V27.5469H9.86611V29.1021H8.7935Z" fill="black"/>
<path d="M9.69234 29.1021V27.5469H10.765V29.1021H9.69234Z" fill="black"/>
<path d="M10.5912 29.1021V27.5469H11.2043V29.1021H10.5912Z" fill="black"/>
<path d="M11.0292 29.1021V27.5469H12.4084V29.1021H11.0292Z" fill="black"/>
<path d="M12.1005 29.1021V27.5469H13.6333V29.1021H12.1005Z" fill="black"/>
<path d="M13.3052 29.1021V27.5469H14.6844V29.1021H13.3052Z" fill="black"/>
<path d="M14.6258 29.1021V27.5469H16.005V29.1021H14.6258Z" fill="black"/>
<path d="M15.9074 29.1021V27.5469H17.1329V29.1021H15.9074Z" fill="black"/>
<path d="M17.1121 29.1021V27.5469H18.4913V29.1021H17.1121Z" fill="black"/>
<path d="M18.3168 29.1021V27.5469H19.8496V29.1021H18.3168Z" fill="black"/>
<path d="M19.5984 29.1021V27.5469H20.2115V29.1021H19.5984Z" fill="black"/>
<path d="M20.19 29.1021V27.5469H21.5692V29.1021H20.19Z" fill="black"/>
<path d="M21.4715 29.1021V27.5469H22.6971V29.1021H21.4715Z" fill="black"/>
<path d="M22.5226 29.1021V27.5469H23.9018V29.1021H22.5226Z" fill="black"/>
<path d="M23.6896 29.1021V27.5469H24.7622V29.1021H23.6896Z" fill="black"/>
<path d="M24.5885 29.1021V27.5469H25.6611V29.1021H24.5885Z" fill="black"/>
<path d="M25.3337 29.1021V27.5469H26.4063V29.1021H25.3337Z" fill="black"/>
<path d="M26.1557 29.1021V27.5469H27.5349V29.1021H26.1557Z" fill="black"/>
<path d="M27.4373 29.1021V27.5469H28.9701V29.1021H27.4373Z" fill="black"/>
<path d="M28.642 29.1021V27.5469H29.7146V29.1021H28.642Z" fill="black"/>
<path d="M29.6176 29.1021V27.5469H30.9968V29.1021H29.6176Z" fill="black"/>
<path d="M30.7456 29.1021V27.5469H31.3587V29.1021H30.7456Z" fill="black"/>
<path d="M6 32.1021V30.5469H7.07262V32.1021H6Z" fill="black"/>
<path d="M6.89884 32.1021V30.5469H8.1244V32.1021H6.89884Z" fill="black"/>
<path d="M7.94995 32.1021V30.5469H8.56307V32.1021H7.94995Z" fill="black"/>
<path d="M8.54157 32.1021V30.5469H9.76713V32.1021H8.54157Z" fill="black"/>
<path d="M9.59268 32.1021V30.5469H11.1255V32.1021H9.59268Z" fill="black"/>
<path d="M10.951 32.1021V30.5469H12.3302V32.1021H10.951Z" fill="black"/>
<path d="M12.0223 32.1021V30.5469H12.6355V32.1021H12.0223Z" fill="black"/>
<path d="M12.614 32.1021V30.5469H13.8395V32.1021H12.614Z" fill="black"/>
<path d="M13.6651 32.1021V30.5469H15.1979V32.1021H13.6651Z" fill="black"/>
<path d="M15.0234 32.1021V30.5469H16.096V32.1021H15.0234Z" fill="black"/>
<path d="M15.7686 32.1021V30.5469H17.1478V32.1021H15.7686Z" fill="black"/>
<path d="M16.84 32.1021V30.5469H18.3728V32.1021H16.84Z" fill="black"/>
<path d="M18.0447 32.1021V30.5469H19.5775V32.1021H18.0447Z" fill="black"/>
<path d="M19.3262 32.1021V30.5469H20.7054V32.1021H19.3262Z" fill="black"/>
<path d="M20.4541 32.1021V30.5469H21.9869V32.1021H20.4541Z" fill="black"/>
<path d="M21.8125 32.1021V30.5469H22.5785V32.1021H21.8125Z" fill="black"/>
<path d="M22.3273 32.1021V30.5469H22.9404V32.1021H22.3273Z" fill="black"/>
<path d="M22.9189 32.1021V30.5469H25.0648V32.1021H22.9189Z" fill="black"/>
<path d="M24.8513 32.1021V30.5469H26.3841V32.1021H24.8513Z" fill="black"/>
<path d="M26.056 32.1021V30.5469H26.6691V32.1021H26.056Z" fill="black"/>
<path d="M26.494 32.1021V30.5469H28.0268V32.1021H26.494Z" fill="black"/>
<path d="M27.7755 32.1021V30.5469H29.1547V32.1021H27.7755Z" fill="black"/>
<path d="M28.8469 32.1021V30.5469H30.3797V32.1021H28.8469Z" fill="black"/>
<path d="M30.0516 32.1021V30.5469H30.6647V32.1021H30.0516Z" fill="black"/>
<path d="M6 35.1021V33.5469H7.53279V35.1021H6Z" fill="black"/>
<path d="M7.28154 35.1021V33.5469H8.35415V35.1021H7.28154Z" fill="black"/>
<path d="M8.18038 35.1021V33.5469H9.55955V35.1021H8.18038Z" fill="black"/>
<path d="M9.50099 35.1021V33.5469H10.7266V35.1021H9.50099Z" fill="black"/>
<path d="M10.5521 35.1021V33.5469H11.1652V35.1021H10.5521Z" fill="black"/>
<path d="M11.1437 35.1021V33.5469H12.5229V35.1021H11.1437Z" fill="black"/>
<path d="M12.2716 35.1021V33.5469H13.6508V35.1021H12.2716Z" fill="black"/>
<path d="M13.343 35.1021V33.5469H14.8757V35.1021H13.343Z" fill="black"/>
<path d="M14.7013 35.1021V33.5469H16.0805V35.1021H14.7013Z" fill="black"/>
<path d="M15.8292 35.1021V33.5469H17.362V35.1021H15.8292Z" fill="black"/>
<path d="M17.1108 35.1021V33.5469H18.4899V35.1021H17.1108Z" fill="black"/>
<path d="M18.1821 35.1021V33.5469H19.7149V35.1021H18.1821Z" fill="black"/>
<path d="M19.3868 35.1021V33.5469H20.9196V35.1021H19.3868Z" fill="black"/>
<path d="M20.6683 35.1021V33.5469H21.2815V35.1021H20.6683Z" fill="black"/>
<path d="M21.1063 35.1021V33.5469H22.179V35.1021H21.1063Z" fill="black"/>
<path d="M22.0052 35.1021V33.5469H23.2307V35.1021H22.0052Z" fill="black"/>
<path d="M23.0563 35.1021V33.5469H23.6694V35.1021H23.0563Z" fill="black"/>
<path d="M23.4943 35.1021V33.5469H25.6402V35.1021H23.4943Z" fill="black"/>
<path d="M25.5426 35.1021V33.5469H26.7681V35.1021H25.5426Z" fill="black"/>
<path d="M26.5937 35.1021V33.5469H27.9728V35.1021H26.5937Z" fill="black"/>
<path d="M27.665 35.1021V33.5469H29.1978V35.1021H27.665Z" fill="black"/>
<path d="M28.9856 35.1021V33.5469H29.5987V35.1021H28.9856Z" fill="black"/>
<path d="M6 38.1021V36.5469H7.37918V38.1021H6Z" fill="black"/>
<path d="M7.28154 38.1021V36.5469H8.5071V38.1021H7.28154Z" fill="black"/>
<path d="M8.48626 38.1021V36.5469H9.71182V38.1021H8.48626Z" fill="black"/>
<path d="M9.69099 38.1021V36.5469H11.0702V38.1021H9.69099Z" fill="black"/>
<path d="M10.8189 38.1021V36.5469H12.3517V38.1021H10.8189Z" fill="black"/>
<path d="M12.0236 38.1021V36.5469H13.4028V38.1021H12.0236Z" fill="black"/>
<path d="M13.0572 38.1021V36.5469H14.59V38.1021H13.0572Z" fill="black"/>
<path d="M14.3388 38.1021V36.5469H15.4114V38.1021H14.3388Z" fill="black"/>
<path d="M15.084 38.1021V36.5469H16.1566V38.1021H15.084Z" fill="black"/>
<path d="M15.906 38.1021V36.5469H17.2852V38.1021H15.906Z" fill="black"/>
<path d="M17.1876 38.1021V36.5469H18.7204V38.1021H17.1876Z" fill="black"/>
<path d="M18.3923 38.1021V36.5469H19.4649V38.1021H18.3923Z" fill="black"/>
<path d="M19.3679 38.1021V36.5469H20.7471V38.1021H19.3679Z" fill="black"/>
<path d="M20.4959 38.1021V36.5469H21.109V38.1021H20.4959Z" fill="black"/>
<path d="M20.9339 38.1021V36.5469H23.0798V38.1021H20.9339Z" fill="black"/>
<path d="M22.8285 38.1021V36.5469H23.9011V38.1021H22.8285Z" fill="black"/>
<path d="M23.7274 38.1021V36.5469H24.8V38.1021H23.7274Z" fill="black"/>
<path d="M24.4726 38.1021V36.5469H26.0054V38.1021H24.4726Z" fill="black"/>
<path d="M25.8309 38.1021V36.5469H26.444V38.1021H25.8309Z" fill="black"/>
<path d="M26.2689 38.1021V36.5469H27.3415V38.1021H26.2689Z" fill="black"/>
<path d="M27.0141 38.1021V36.5469H28.5469V38.1021H27.0141Z" fill="black"/>
<path d="M28.3725 38.1021V36.5469H29.9053V38.1021H28.3725Z" fill="black"/>
<path d="M29.5772 38.1021V36.5469H30.1903V38.1021H29.5772Z" fill="black"/>
<path d="M6 41.1021V39.5469H7.68641V41.1021H6Z" fill="black"/>
<path d="M7.53082 41.1021V39.5469H9.06362V41.1021H7.53082Z" fill="black"/>
<path d="M8.75442 41.1021V39.5469H10.4408V41.1021H8.75442Z" fill="black"/>
<path d="M10.2664 41.1021V39.5469H11.9528V41.1021H10.2664Z" fill="black"/>
<path d="M11.7015 41.1021V39.5469H12.3146V41.1021H11.7015Z" fill="black"/>
<path d="M12.1395 41.1021V39.5469H13.2121V41.1021H12.1395Z" fill="black"/>
<path d="M13.0384 41.1021V39.5469H14.2639V41.1021H13.0384Z" fill="black"/>
<path d="M14.0895 41.1021V39.5469H14.7026V41.1021H14.0895Z" fill="black"/>
<path d="M14.5275 41.1021V39.5469H16.0603V41.1021H14.5275Z" fill="black"/>
<path d="M15.809 41.1021V39.5469H17.3418V41.1021H15.809Z" fill="black"/>
<path d="M17.0905 41.1021V39.5469H18.6233V41.1021H17.0905Z" fill="black"/>
<path d="M18.3721 41.1021V39.5469H19.7513V41.1021H18.3721Z" fill="black"/>
<path d="M19.4434 41.1021V39.5469H20.9762V41.1021H19.4434Z" fill="black"/>
<path d="M20.6481 41.1021V39.5469H22.0273V41.1021H20.6481Z" fill="black"/>
<path d="M21.8151 41.1021V39.5469H23.1943V41.1021H21.8151Z" fill="black"/>
<path d="M22.9821 41.1021V39.5469H23.5952V41.1021H22.9821Z" fill="black"/>
<path d="M23.4201 41.1021V39.5469H24.9529V41.1021H23.4201Z" fill="black"/>
<path d="M24.7017 41.1021V39.5469H26.0808V41.1021H24.7017Z" fill="black"/>
<path d="M25.773 41.1021V39.5469H27.3058V41.1021H25.773Z" fill="black"/>
<path d="M26.9777 41.1021V39.5469H28.5105V41.1021H26.9777Z" fill="black"/>
<path d="M28.2592 41.1021V39.5469H29.6384V41.1021H28.2592Z" fill="black"/>
<path d="M29.4262 41.1021V39.5469H30.0394V41.1021H29.4262Z" fill="black"/>
<path d="M30.0179 41.1021V39.5469H31.2434V41.1021H30.0179Z" fill="black"/>
<path d="M31.069 41.1021V39.5469H32.2952V41.1021H31.069Z" fill="black"/>
<path d="M31.9678 41.1021V39.5469H32.5809V41.1021H31.9678Z" fill="black"/>
<path d="M6 44.1021V42.5469H7.53279V44.1021H6Z" fill="black"/>
<path d="M7.35834 44.1021V42.5469H8.89114V44.1021H7.35834Z" fill="black"/>
<path d="M8.71669 44.1021V42.5469H10.7097V44.1021H8.71669Z" fill="black"/>
<path d="M10.6113 44.1021V42.5469H12.1441V44.1021H10.6113Z" fill="black"/>
<path d="M12.0465 44.1021V42.5469H13.4257V44.1021H12.0465Z" fill="black"/>
<path d="M13.2512 44.1021V42.5469H14.3238V44.1021H13.2512Z" fill="black"/>
<path d="M14.1501 44.1021V42.5469H15.2227V44.1021H14.1501Z" fill="black"/>
<path d="M14.8953 44.1021V42.5469H16.4281V44.1021H14.8953Z" fill="black"/>
<path d="M16.1768 44.1021V42.5469H17.556V44.1021H16.1768Z" fill="black"/>
<path d="M17.2481 44.1021V42.5469H18.3208V44.1021H17.2481Z" fill="black"/>
<path d="M18.147 44.1021V42.5469H19.6798V44.1021H18.147Z" fill="black"/>
<path d="M19.5821 44.1021V42.5469H20.9613V44.1021H19.5821Z" fill="black"/>
<path d="M20.7869 44.1021V42.5469H21.4V44.1021H20.7869Z" fill="black"/>
<path d="M21.2249 44.1021V42.5469H22.604V44.1021H21.2249Z" fill="black"/>
<path d="M22.5064 44.1021V42.5469H23.732V44.1021H22.5064Z" fill="black"/>
<path d="M23.7111 44.1021V42.5469H25.0903V44.1021H23.7111Z" fill="black"/>
<path d="M24.9159 44.1021V42.5469H26.295V44.1021H24.9159Z" fill="black"/>
<path d="M26.0438 44.1021V42.5469H27.5766V44.1021H26.0438Z" fill="black"/>
<path d="M27.2485 44.1021V42.5469H28.6277V44.1021H27.2485Z" fill="black"/>
<path d="M28.4734 44.1021V42.5469H29.8526V44.1021H28.4734Z" fill="black"/>
<path d="M29.6782 44.1021V42.5469H30.4442V44.1021H29.6782Z" fill="black"/>
<path d="M30.193 44.1021V42.5469H30.8061V44.1021H30.193Z" fill="black"/>
<path d="M6 47.1021V45.5469H7.07262V47.1021H6Z" fill="black"/>
<path d="M6.89884 47.1021V45.5469H8.1244V47.1021H6.89884Z" fill="black"/>
<path d="M7.94995 47.1021V45.5469H8.56307V47.1021H7.94995Z" fill="black"/>
<path d="M8.38795 47.1021V45.5469H9.92074V47.1021H8.38795Z" fill="black"/>
<path d="M9.74629 47.1021V45.5469H11.2791V47.1021H9.74629Z" fill="black"/>
<path d="M10.951 47.1021V45.5469H12.0236V47.1021H10.951Z" fill="black"/>
<path d="M12.0035 47.1021V45.5469H13.3827V47.1021H12.0035Z" fill="black"/>
<path d="M13.1314 47.1021V45.5469H13.7445V47.1021H13.1314Z" fill="black"/>
<path d="M13.5694 47.1021V45.5469H14.642V47.1021H13.5694Z" fill="black"/>
<path d="M14.3146 47.1021V45.5469H15.8474V47.1021H14.3146Z" fill="black"/>
<path d="M15.673 47.1021V45.5469H17.2058V47.1021H15.673Z" fill="black"/>
<path d="M16.8777 47.1021V45.5469H17.4908V47.1021H16.8777Z" fill="black"/>
<path d="M17.3157 47.1021V45.5469H19.3087V47.1021H17.3157Z" fill="black"/>
<path d="M19.364 47.1021V45.5469H20.5895V47.1021H19.364Z" fill="black"/>
<path d="M20.4151 47.1021V45.5469H21.7942V47.1021H20.4151Z" fill="black"/>
<path d="M21.5821 47.1021V45.5469H22.6547V47.1021H21.5821Z" fill="black"/>
<path d="M22.3273 47.1021V45.5469H22.9404V47.1021H22.3273Z" fill="black"/>
<path d="M6 50.1021V48.5469H7.37918V50.1021H6Z" fill="black"/>
<path d="M7.28154 50.1021V48.5469H8.81433V50.1021H7.28154Z" fill="black"/>
<path d="M8.63988 50.1021V48.5469H9.7125V50.1021H8.63988Z" fill="black"/>
<path d="M9.69234 50.1021V48.5469H11.0715V50.1021H9.69234Z" fill="black"/>
<path d="M10.8971 50.1021V48.5469H12.4299V50.1021H10.8971Z" fill="black"/>
<path d="M12.1018 50.1021V48.5469H13.481V50.1021H12.1018Z" fill="black"/>
<path d="M13.1354 50.1021V48.5469H14.6682V50.1021H13.1354Z" fill="black"/>
<path d="M14.5705 50.1021V48.5469H15.9497V50.1021H14.5705Z" fill="black"/>
<path d="M15.6217 50.1021V48.5469H16.6943V50.1021H15.6217Z" fill="black"/>
<path d="M16.5205 50.1021V48.5469H18.0533V50.1021H16.5205Z" fill="black"/>
<path d="M17.7252 50.1021V48.5469H18.3383V50.1021H17.7252Z" fill="black"/>
<path d="M18.1632 50.1021V48.5469H19.8496V50.1021H18.1632Z" fill="black"/>
<path d="M19.694 50.1021V48.5469H20.9196V50.1021H19.694Z" fill="black"/>
<path d="M20.7452 50.1021V48.5469H22.1243V50.1021H20.7452Z" fill="black"/>
<path d="M21.8165 50.1021V48.5469H22.8891V50.1021H21.8165Z" fill="black"/>
<path d="M22.5617 50.1021V48.5469H24.0945V50.1021H22.5617Z" fill="black"/>
<path d="M23.92 50.1021V48.5469H24.5332V50.1021H23.92Z" fill="black"/>
<path d="M6 53.1021V51.5469H7.68641V53.1021H6Z" fill="black"/>
<path d="M7.58877 53.1021V51.5469H8.81433V53.1021H7.58877Z" fill="black"/>
<path d="M8.63988 53.1021V51.5469H10.0191V53.1021H8.63988Z" fill="black"/>
<path d="M9.7112 53.1021V51.5469H11.244V53.1021H9.7112Z" fill="black"/>
<path d="M10.9159 53.1021V51.5469H12.4487V53.1021H10.9159Z" fill="black"/>
<path d="M12.3511 53.1021V51.5469H13.7303V53.1021H12.3511Z" fill="black"/>
<path d="M13.5558 53.1021V51.5469H14.935V53.1021H13.5558Z" fill="black"/>
<path d="M14.7228 53.1021V51.5469H15.4889V53.1021H14.7228Z" fill="black"/>
<path d="M15.2376 53.1021V51.5469H16.0037V53.1021H15.2376Z" fill="black"/>
<path d="M6.30656 7.99746H32.6928V8.06719H6.30656V7.99746ZM6.30656 10.9975H29.7321V11.0672H6.30656V10.9975ZM6.30656 13.9975H29.5212V14.0672H6.30656V13.9975ZM6.30656 16.9975H31.7933V17.0672H6.30656V16.9975ZM6.30656 19.9975H31.8526V20.0672H6.30656V19.9975ZM6.30656 22.9975H32.1195V23.0672H6.30656V22.9975ZM6.30656 25.9975H31.6241V26.0672H6.30656V25.9975ZM6.30656 28.9975H31.0521V29.0672H6.30656V28.9975ZM6.30656 31.9975H30.3582V32.0672H6.30656V31.9975ZM6.30656 34.9975H29.2915V35.0672H6.30656V34.9975ZM6.30656 37.9975H29.8838V38.0672H6.30656V37.9975ZM6.30656 40.9975H32.2737V41.0672H6.30656V40.9975ZM6.30656 43.9975H30.4995V44.0672H6.30656V43.9975ZM6.30656 46.9975H22.6332V47.0672H6.30656V46.9975ZM6.30656 49.9975H24.2266V50.0672H6.30656V49.9975ZM6.30656 52.9975H16.191V53.0672H6.30656V52.9975Z" fill="black"/>
</g>
</g>
<path d="M11.3333 38.5469H2V44.895H11.3333V38.5469Z" fill="#E1C278"/>
<path d="M21.6663 38.5469H12.333V44.895H21.6663V38.5469Z" fill="#E5592D"/>
<path d="M32.0003 38.5469H22.667V44.895H32.0003V38.5469Z" fill="#BB90BB"/>
</g>
<defs>
<filter id="filter0_d_238_44420" x="0" y="1.54688" width="39" height="35" filterUnits="userSpaceOnUse" color-interpolation-filters="sRGB">
<feFlood flood-opacity="0" result="BackgroundImageFix"/>
<feColorMatrix in="SourceAlpha" type="matrix" values="0 0 0 0 0 0 0 0 0 0 0 0 0 0 0 0 0 0 127 0" result="hardAlpha"/>
<feOffset dy="1"/>
<feGaussianBlur stdDeviation="1"/>
<feComposite in2="hardAlpha" operator="out"/>
<feColorMatrix type="matrix" values="0 0 0 0 0 0 0 0 0 0 0 0 0 0 0 0 0 0 0.1 0"/>
<feBlend mode="normal" in2="BackgroundImageFix" result="effect1_dropShadow_238_44420"/>
<feBlend mode="normal" in="SourceGraphic" in2="effect1_dropShadow_238_44420" result="shape"/>
</filter>
<filter id="filter1_i_238_44420" x="2" y="-2.45312" width="35" height="34" filterUnits="userSpaceOnUse" color-interpolation-filters="sRGB">
<feFlood flood-opacity="0" result="BackgroundImageFix"/>
<feBlend mode="normal" in="SourceGraphic" in2="BackgroundImageFix" result="shape"/>
<feColorMatrix in="SourceAlpha" type="matrix" values="0 0 0 0 0 0 0 0 0 0 0 0 0 0 0 0 0 0 127 0" result="hardAlpha"/>
<feOffset dy="-5"/>
<feGaussianBlur stdDeviation="3.5"/>
<feComposite in2="hardAlpha" operator="arithmetic" k2="-1" k3="1"/>
<feColorMatrix type="matrix" values="0 0 0 0 1 0 0 0 0 1 0 0 0 0 1 0 0 0 1 0"/>
<feBlend mode="normal" in2="shape" result="effect1_innerShadow_238_44420"/>
</filter>
<clipPath id="clip0_238_44420">
<rect width="39" height="46.3481" fill="white" transform="translate(0 0.546875)"/>
</clipPath>
<clipPath id="clip1_238_44420">
<rect width="35" height="31" fill="white" transform="translate(2 2.54688)"/>
</clipPath>
<clipPath id="clip2_238_44420">
<rect width="35" height="29" fill="white" transform="translate(2 2.54688)"/>
</clipPath>
</defs>
</svg>
