<svg width="39" height="47" viewBox="0 0 39 47" fill="none" xmlns="http://www.w3.org/2000/svg">
<g clip-path="url(#clip0_238_43738)">
<g clip-path="url(#clip1_238_43738)" filter="url(#filter0_d_238_43738)">
<rect width="35" height="31" transform="translate(2 2.27734)" fill="white"/>
<g opacity="0.3" filter="url(#filter1_i_238_43738)">
<rect width="35" height="29" transform="translate(2 2.27734)" fill="white"/>
<path d="M6 7.83252V6.27734H6.80975V7.83252H6Z" fill="black"/>
<path d="M6.62535 7.83252V6.27734H7.27343V7.83252H6.62535Z" fill="black"/>
<path d="M7.08832 7.83252V6.27734H8.70852V7.83252H7.08832Z" fill="black"/>
<path d="M8.52413 7.83252V6.27734H10.1443V7.83252H8.52413Z" fill="black"/>
<path d="M9.95993 7.83252V6.27734H11.5801V7.83252H9.95993Z" fill="black"/>
<path d="M11.2334 7.83252V6.27734H12.0431V7.83252H11.2334Z" fill="black"/>
<path d="M11.8587 7.83252V6.27734H12.5068V7.83252H11.8587Z" fill="black"/>
<path d="M12.4841 7.83252V6.27734H13.9419V7.83252H12.4841Z" fill="black"/>
<path d="M13.6763 7.83252V6.27734H15.1341V7.83252H13.6763Z" fill="black"/>
<path d="M14.8087 7.83252V6.27734H16.4289V7.83252H14.8087Z" fill="black"/>
<path d="M16.0821 7.83252V6.27734H17.54V7.83252H16.0821Z" fill="black"/>
<path d="M17.3157 7.83252V6.27734H18.4495V7.83252H17.3157Z" fill="black"/>
<path d="M18.2658 7.83252V6.27734H19.886V7.83252H18.2658Z" fill="black"/>
<path d="M19.6204 7.83252V6.27734H21.2406V7.83252H19.6204Z" fill="black"/>
<path d="M21.0562 7.83252V6.27734H22.514V7.83252H21.0562Z" fill="black"/>
<path d="M22.3297 7.83252V6.27734H23.4634V7.83252H22.3297Z" fill="black"/>
<path d="M23.1174 7.83252V6.27734H23.7655V7.83252H23.1174Z" fill="black"/>
<path d="M23.5803 7.83252V6.27734H25.687V7.83252H23.5803Z" fill="black"/>
<path d="M25.583 7.83252V6.27734H27.2032V7.83252H25.583Z" fill="black"/>
<path d="M26.9377 7.83252V6.27734H28.5579V7.83252H26.9377Z" fill="black"/>
<path d="M28.2923 7.83252V6.27734H29.9125V7.83252H28.2923Z" fill="black"/>
<path d="M29.5657 7.83252V6.27734H30.2138V7.83252H29.5657Z" fill="black"/>
<path d="M30.0287 7.83252V6.27734H31.1625V7.83252H30.0287Z" fill="black"/>
<path d="M30.9788 7.83252V6.27734H32.1126V7.83252H30.9788Z" fill="black"/>
<path d="M31.7665 7.83252V6.27734H32.4146V7.83252H31.7665Z" fill="black"/>
<path d="M6 10.8325V9.27734H7.45783V10.8325H6Z" fill="black"/>
<path d="M7.19224 10.8325V9.27734H8.32603V10.8325H7.19224Z" fill="black"/>
<path d="M8.14234 10.8325V9.27734H9.76255V10.8325H8.14234Z" fill="black"/>
<path d="M9.41577 10.8325V9.27734H11.036V10.8325H9.41577Z" fill="black"/>
<path d="M10.7704 10.8325V9.27734H12.2282V10.8325H10.7704Z" fill="black"/>
<path d="M11.9028 10.8325V9.27734H12.5509V10.8325H11.9028Z" fill="black"/>
<path d="M12.3658 10.8325V9.27734H13.4996V10.8325H12.3658Z" fill="black"/>
<path d="M13.1535 10.8325V9.27734H14.7737V10.8325H13.1535Z" fill="black"/>
<path d="M14.5893 10.8325V9.27734H16.2095V10.8325H14.5893Z" fill="black"/>
<path d="M15.9439 10.8325V9.27734H17.0777V10.8325H15.9439Z" fill="black"/>
<path d="M16.7317 10.8325V9.27734H17.3797V10.8325H16.7317Z" fill="black"/>
<path d="M17.1946 10.8325V9.27734H19.4629V10.8325H17.1946Z" fill="black"/>
<path d="M19.1973 10.8325V9.27734H20.8175V10.8325H19.1973Z" fill="black"/>
<path d="M20.4708 10.8325V9.27734H21.1188V10.8325H20.4708Z" fill="black"/>
<path d="M20.9337 10.8325V9.27734H23.202V10.8325H20.9337Z" fill="black"/>
<path d="M22.9364 10.8325V9.27734H24.5566V10.8325H22.9364Z" fill="black"/>
<path d="M24.2099 10.8325V9.27734H25.6677V10.8325H24.2099Z" fill="black"/>
<path d="M25.3423 10.8325V9.27734H26.9625V10.8325H25.3423Z" fill="black"/>
<path d="M26.6157 10.8325V9.27734H27.2638V10.8325H26.6157Z" fill="black"/>
<path d="M6 13.8325V12.2773H8.26828V13.8325H6Z" fill="black"/>
<path d="M8.0027 13.8325V12.2773H9.13648V13.8325H8.0027Z" fill="black"/>
<path d="M8.9528 13.8325V12.2773H10.0866V13.8325H8.9528Z" fill="black"/>
<path d="M9.9029 13.8325V12.2773H11.0367V13.8325H9.9029Z" fill="black"/>
<path d="M10.853 13.8325V12.2773H11.9868V13.8325H10.853Z" fill="black"/>
<path d="M11.9655 13.8325V12.2773H13.4233V13.8325H11.9655Z" fill="black"/>
<path d="M13.2389 13.8325V12.2773H14.8591V13.8325H13.2389Z" fill="black"/>
<path d="M14.6747 13.8325V12.2773H15.3228V13.8325H14.6747Z" fill="black"/>
<path d="M15.1377 13.8325V12.2773H16.2715V13.8325H15.1377Z" fill="black"/>
<path d="M16.0878 13.8325V12.2773H17.3832V13.8325H16.0878Z" fill="black"/>
<path d="M17.1988 13.8325V12.2773H17.8469V13.8325H17.1988Z" fill="black"/>
<path d="M17.6618 13.8325V12.2773H18.7956V13.8325H17.6618Z" fill="black"/>
<path d="M18.4495 13.8325V12.2773H20.0697V13.8325H18.4495Z" fill="black"/>
<path d="M19.8042 13.8325V12.2773H20.9379V13.8325H19.8042Z" fill="black"/>
<path d="M20.7543 13.8325V12.2773H22.3745V13.8325H20.7543Z" fill="black"/>
<path d="M22.1502 13.8325V12.2773H22.7983V13.8325H22.1502Z" fill="black"/>
<path d="M22.6132 13.8325V12.2773H23.7469V13.8325H22.6132Z" fill="black"/>
<path d="M23.5633 13.8325V12.2773H24.8587V13.8325H23.5633Z" fill="black"/>
<path d="M24.6743 13.8325V12.2773H25.3224V13.8325H24.6743Z" fill="black"/>
<path d="M25.1373 13.8325V12.2773H26.2711V13.8325H25.1373Z" fill="black"/>
<path d="M25.925 13.8325V12.2773H27.5452V13.8325H25.925Z" fill="black"/>
<path d="M27.3608 13.8325V12.2773H28.981V13.8325H27.3608Z" fill="black"/>
<path d="M28.6342 13.8325V12.2773H30.7409V13.8325H28.6342Z" fill="black"/>
<path d="M30.6369 13.8325V12.2773H31.285V13.8325H30.6369Z" fill="black"/>
<path d="M6 16.8325V15.2773H7.6202V16.8325H6Z" fill="black"/>
<path d="M7.51699 16.8325V15.2773H8.97482V16.8325H7.51699Z" fill="black"/>
<path d="M8.87161 16.8325V15.2773H10.3294V16.8325H8.87161Z" fill="black"/>
<path d="M10.0639 16.8325V15.2773H10.7119V16.8325H10.0639Z" fill="black"/>
<path d="M10.5268 16.8325V15.2773H11.6606V16.8325H10.5268Z" fill="black"/>
<path d="M11.3146 16.8325V15.2773H12.4483V16.8325H11.3146Z" fill="black"/>
<path d="M12.2647 16.8325V15.2773H14.3713V16.8325H12.2647Z" fill="black"/>
<path d="M14.2674 16.8325V15.2773H15.8876V16.8325H14.2674Z" fill="black"/>
<path d="M15.5408 16.8325V15.2773H16.3505V16.8325H15.5408Z" fill="black"/>
<path d="M16.0849 16.8325V15.2773H16.733V16.8325H16.0849Z" fill="black"/>
<path d="M16.5479 16.8325V15.2773H18.1681V16.8325H16.5479Z" fill="black"/>
<path d="M18.0649 16.8325V15.2773H19.5227V16.8325H18.0649Z" fill="black"/>
<path d="M19.4195 16.8325V15.2773H20.8774V16.8325H19.4195Z" fill="black"/>
<path d="M20.6118 16.8325V15.2773H21.2598V16.8325H20.6118Z" fill="black"/>
<path d="M21.2371 16.8325V15.2773H22.6949V16.8325H21.2371Z" fill="black"/>
<path d="M22.4294 16.8325V15.2773H23.5631V16.8325H22.4294Z" fill="black"/>
<path d="M23.3795 16.8325V15.2773H24.9997V16.8325H23.3795Z" fill="black"/>
<path d="M24.7341 16.8325V15.2773H26.1919V16.8325H24.7341Z" fill="black"/>
<path d="M25.9263 16.8325V15.2773H27.5465V16.8325H25.9263Z" fill="black"/>
<path d="M27.1997 16.8325V15.2773H28.0095V16.8325H27.1997Z" fill="black"/>
<path d="M27.7439 16.8325V15.2773H28.392V16.8325H27.7439Z" fill="black"/>
<path d="M28.2069 16.8325V15.2773H29.8271V16.8325H28.2069Z" fill="black"/>
<path d="M29.7239 16.8325V15.2773H31.1817V16.8325H29.7239Z" fill="black"/>
<path d="M30.9973 16.8325V15.2773H32.6175V16.8325H30.9973Z" fill="black"/>
<path d="M32.3519 16.8325V15.2773H33V16.8325H32.3519Z" fill="black"/>
<path d="M6 19.8325V18.2773H8.26828V19.8325H6Z" fill="black"/>
<path d="M8.0027 19.8325V18.2773H9.13648V19.8325H8.0027Z" fill="black"/>
<path d="M8.9528 19.8325V18.2773H10.0866V19.8325H8.9528Z" fill="black"/>
<path d="M9.74052 19.8325V18.2773H11.3607V19.8325H9.74052Z" fill="black"/>
<path d="M11.3387 19.8325V18.2773H12.6342V19.8325H11.3387Z" fill="black"/>
<path d="M12.4498 19.8325V18.2773H14.07V19.8325H12.4498Z" fill="black"/>
<path d="M13.8856 19.8325V18.2773H15.0194V19.8325H13.8856Z" fill="black"/>
<path d="M14.6733 19.8325V18.2773H15.3214V19.8325H14.6733Z" fill="black"/>
<path d="M15.1363 19.8325V18.2773H16.7565V19.8325H15.1363Z" fill="black"/>
<path d="M16.6533 19.8325V18.2773H18.1111V19.8325H16.6533Z" fill="black"/>
<path d="M18.0079 19.8325V18.2773H19.4657V19.8325H18.0079Z" fill="black"/>
<path d="M19.2001 19.8325V18.2773H19.8482V19.8325H19.2001Z" fill="black"/>
<path d="M19.8255 19.8325V18.2773H21.2833V19.8325H19.8255Z" fill="black"/>
<path d="M21.0177 19.8325V18.2773H22.4755V19.8325H21.0177Z" fill="black"/>
<path d="M22.1501 19.8325V18.2773H23.7703V19.8325H22.1501Z" fill="black"/>
<path d="M23.4236 19.8325V18.2773H24.8814V19.8325H23.4236Z" fill="black"/>
<path d="M24.6571 19.8325V18.2773H26.2773V19.8325H24.6571Z" fill="black"/>
<path d="M25.9305 19.8325V18.2773H27.0643V19.8325H25.9305Z" fill="black"/>
<path d="M26.7183 19.8325V18.2773H27.3663V19.8325H26.7183Z" fill="black"/>
<path d="M6 22.8325V21.2773H7.6202V22.8325H6Z" fill="black"/>
<path d="M7.35462 22.8325V21.2773H8.97482V22.8325H7.35462Z" fill="black"/>
<path d="M8.79042 22.8325V21.2773H10.4106V22.8325H8.79042Z" fill="black"/>
<path d="M10.2262 22.8325V21.2773H11.6841V22.8325H10.2262Z" fill="black"/>
<path d="M11.4997 22.8325V21.2773H13.1199V22.8325H11.4997Z" fill="black"/>
<path d="M12.8543 22.8325V21.2773H14.4745V22.8325H12.8543Z" fill="black"/>
<path d="M14.2089 22.8325V21.2773H15.0186V22.8325H14.2089Z" fill="black"/>
<path d="M14.7531 22.8325V21.2773H15.5628V22.8325H14.7531Z" fill="black"/>
<path d="M15.3784 22.8325V21.2773H16.1881V22.8325H15.3784Z" fill="black"/>
<path d="M6.32404 7.72793H32.0898V7.79766H6.32404V7.72793ZM6.32404 10.7279H26.9397V10.7977H6.32404V10.7279ZM6.32404 13.7279H30.961V13.7977H6.32404V13.7279ZM6.32404 16.7279H32.676V16.7977H6.32404V16.7279ZM6.32404 19.7279H27.0416V19.7977H6.32404V19.7279ZM6.32404 22.7279H16.3861V22.7977H6.32404V22.7279Z" fill="black"/>
</g>
<rect width="12" height="14" transform="translate(25 18.2773)" fill="white"/>
<path d="M31.4307 23.2959C31.141 23.2959 30.8838 23.3529 30.6592 23.4668C30.4378 23.5775 30.2507 23.7386 30.0977 23.9502C29.9479 24.1618 29.834 24.4173 29.7559 24.7168C29.6777 25.0163 29.6387 25.3532 29.6387 25.7275C29.6387 26.2321 29.7005 26.6634 29.8242 27.0215C29.9512 27.3763 30.1465 27.6481 30.4102 27.8369C30.6738 28.0225 31.014 28.1152 31.4307 28.1152C31.7204 28.1152 32.0101 28.0827 32.2998 28.0176C32.5928 27.9525 32.9102 27.8597 33.252 27.7393V29.0088C32.9362 29.139 32.6253 29.2318 32.3193 29.2871C32.0133 29.3457 31.6699 29.375 31.2891 29.375C30.5534 29.375 29.9479 29.2236 29.4727 28.9209C29.0007 28.6149 28.6507 28.1885 28.4229 27.6416C28.195 27.0915 28.0811 26.4502 28.0811 25.7178C28.0811 25.1774 28.1543 24.6826 28.3008 24.2334C28.4473 23.7842 28.6621 23.3952 28.9453 23.0664C29.2285 22.7376 29.5785 22.4837 29.9951 22.3047C30.4118 22.1257 30.8903 22.0361 31.4307 22.0361C31.7855 22.0361 32.1403 22.0817 32.4951 22.1729C32.8532 22.2607 33.195 22.3828 33.5205 22.5391L33.0322 23.7695C32.7653 23.6426 32.4967 23.5319 32.2266 23.4375C31.9564 23.3431 31.6911 23.2959 31.4307 23.2959Z" fill="#585858"/>
</g>
<path d="M11.3333 38.2773H2V44.6254H11.3333V38.2773Z" fill="#E1C278"/>
</g>
<defs>
<filter id="filter0_d_238_43738" x="0" y="1.27734" width="39" height="35" filterUnits="userSpaceOnUse" color-interpolation-filters="sRGB">
<feFlood flood-opacity="0" result="BackgroundImageFix"/>
<feColorMatrix in="SourceAlpha" type="matrix" values="0 0 0 0 0 0 0 0 0 0 0 0 0 0 0 0 0 0 127 0" result="hardAlpha"/>
<feOffset dy="1"/>
<feGaussianBlur stdDeviation="1"/>
<feComposite in2="hardAlpha" operator="out"/>
<feColorMatrix type="matrix" values="0 0 0 0 0 0 0 0 0 0 0 0 0 0 0 0 0 0 0.1 0"/>
<feBlend mode="normal" in2="BackgroundImageFix" result="effect1_dropShadow_238_43738"/>
<feBlend mode="normal" in="SourceGraphic" in2="effect1_dropShadow_238_43738" result="shape"/>
</filter>
<filter id="filter1_i_238_43738" x="2" y="-2.72266" width="35" height="34" filterUnits="userSpaceOnUse" color-interpolation-filters="sRGB">
<feFlood flood-opacity="0" result="BackgroundImageFix"/>
<feBlend mode="normal" in="SourceGraphic" in2="BackgroundImageFix" result="shape"/>
<feColorMatrix in="SourceAlpha" type="matrix" values="0 0 0 0 0 0 0 0 0 0 0 0 0 0 0 0 0 0 127 0" result="hardAlpha"/>
<feOffset dy="-5"/>
<feGaussianBlur stdDeviation="3.5"/>
<feComposite in2="hardAlpha" operator="arithmetic" k2="-1" k3="1"/>
<feColorMatrix type="matrix" values="0 0 0 0 1 0 0 0 0 1 0 0 0 0 1 0 0 0 1 0"/>
<feBlend mode="normal" in2="shape" result="effect1_innerShadow_238_43738"/>
</filter>
<clipPath id="clip0_238_43738">
<rect width="39" height="46.3481" fill="white" transform="translate(0 0.277344)"/>
</clipPath>
<clipPath id="clip1_238_43738">
<rect width="35" height="31" fill="white" transform="translate(2 2.27734)"/>
</clipPath>
</defs>
</svg>
