<svg width="39" height="48" viewBox="0 0 39 48" fill="none" xmlns="http://www.w3.org/2000/svg">
<g clip-path="url(#clip0_238_43771)">
<g clip-path="url(#clip1_238_43771)" filter="url(#filter0_d_238_43771)">
<rect width="35" height="31" transform="translate(2 2.9873)" fill="white"/>
<g opacity="0.3" filter="url(#filter1_i_238_43771)">
<rect width="35" height="29" transform="translate(2 2.9873)" fill="white"/>
<path d="M6 8.54248V6.9873H6.76809V8.54248H6Z" fill="black"/>
<path d="M6.59318 8.54248V6.9873H7.20792V8.54248H6.59318Z" fill="black"/>
<path d="M7.18636 8.54248V6.9873H9.33796V8.54248H7.18636Z" fill="black"/>
<path d="M9.12387 8.54248V6.9873H10.6607V8.54248H9.12387Z" fill="black"/>
<path d="M10.3318 8.54248V6.9873H11.0999V8.54248H10.3318Z" fill="black"/>
<path d="M10.925 8.54248V6.9873H11.5397V8.54248H10.925Z" fill="black"/>
<path d="M11.3641 8.54248V6.9873H12.901V8.54248H11.3641Z" fill="black"/>
<path d="M12.7261 8.54248V6.9873H14.2629V8.54248H12.7261Z" fill="black"/>
<path d="M13.934 8.54248V6.9873H15.3168V8.54248H13.934Z" fill="black"/>
<path d="M15.2189 8.54248V6.9873H16.7558V8.54248H15.2189Z" fill="black"/>
<path d="M16.4269 8.54248V6.9873H17.0416V8.54248H16.4269Z" fill="black"/>
<path d="M17.02 8.54248V6.9873H18.4029V8.54248H17.02Z" fill="black"/>
<path d="M18.382 8.54248V6.9873H19.6108V8.54248H18.382Z" fill="black"/>
<path d="M19.4359 8.54248V6.9873H20.0506V8.54248H19.4359Z" fill="black"/>
<path d="M19.875 8.54248V6.9873H20.9505V8.54248H19.875Z" fill="black"/>
<path d="M20.9303 8.54248V6.9873H22.3131V8.54248H20.9303Z" fill="black"/>
<path d="M22.1382 8.54248V6.9873H23.2137V8.54248H22.1382Z" fill="black"/>
<path d="M22.8854 8.54248V6.9873H24.4223V8.54248H22.8854Z" fill="black"/>
<path d="M24.2474 8.54248V6.9873H25.6302V8.54248H24.2474Z" fill="black"/>
<path d="M25.4553 8.54248V6.9873H26.5307V8.54248H25.4553Z" fill="black"/>
<path d="M26.2025 8.54248V6.9873H27.2779V8.54248H26.2025Z" fill="black"/>
<path d="M27.2577 8.54248V6.9873H28.4865V8.54248H27.2577Z" fill="black"/>
<path d="M28.4657 8.54248V6.9873H29.8485V8.54248H28.4657Z" fill="black"/>
<path d="M29.6736 8.54248V6.9873H30.2883V8.54248H29.6736Z" fill="black"/>
<path d="M30.2668 8.54248V6.9873H31.4956V8.54248H30.2668Z" fill="black"/>
<path d="M31.3207 8.54248V6.9873H32.5501V8.54248H31.3207Z" fill="black"/>
<path d="M32.2219 8.54248V6.9873H32.8366V8.54248H32.2219Z" fill="black"/>
<path d="M6 11.5425V9.9873H7.53686V11.5425H6Z" fill="black"/>
<path d="M7.28493 11.5425V9.9873H8.3604V11.5425H7.28493Z" fill="black"/>
<path d="M8.03214 11.5425V9.9873H9.1076V11.5425H8.03214Z" fill="black"/>
<path d="M8.77934 11.5425V9.9873H10.3162V11.5425H8.77934Z" fill="black"/>
<path d="M10.0643 11.5425V9.9873H11.4471V11.5425H10.0643Z" fill="black"/>
<path d="M11.1952 11.5425V9.9873H12.732V11.5425H11.1952Z" fill="black"/>
<path d="M12.5193 11.5425V9.9873H13.5948V11.5425H12.5193Z" fill="black"/>
<path d="M13.5746 11.5425V9.9873H14.9574V11.5425H13.5746Z" fill="black"/>
<path d="M14.7825 11.5425V9.9873H16.3193V11.5425H14.7825Z" fill="black"/>
<path d="M16.1444 11.5425V9.9873H16.7592V11.5425H16.1444Z" fill="black"/>
<path d="M16.5836 11.5425V9.9873H18.2745V11.5425H16.5836Z" fill="black"/>
<path d="M18.1185 11.5425V9.9873H19.3473V11.5425H18.1185Z" fill="black"/>
<path d="M19.1724 11.5425V9.9873H20.5552V11.5425H19.1724Z" fill="black"/>
<path d="M20.2465 11.5425V9.9873H21.322V11.5425H20.2465Z" fill="black"/>
<path d="M20.9937 11.5425V9.9873H22.5306V11.5425H20.9937Z" fill="black"/>
<path d="M22.3557 11.5425V9.9873H22.9704V11.5425H22.3557Z" fill="black"/>
<path d="M22.7948 11.5425V9.9873H24.4857V11.5425H22.7948Z" fill="black"/>
<path d="M24.3878 11.5425V9.9873H25.6166V11.5425H24.3878Z" fill="black"/>
<path d="M25.4417 11.5425V9.9873H26.8245V11.5425H25.4417Z" fill="black"/>
<path d="M26.5159 11.5425V9.9873H28.0527V11.5425H26.5159Z" fill="black"/>
<path d="M27.7238 11.5425V9.9873H29.2607V11.5425H27.7238Z" fill="black"/>
<path d="M29.0087 11.5425V9.9873H29.6235V11.5425H29.0087Z" fill="black"/>
<path d="M29.4479 11.5425V9.9873H30.9848V11.5425H29.4479Z" fill="black"/>
<path d="M30.7328 11.5425V9.9873H32.1157V11.5425H30.7328Z" fill="black"/>
<path d="M31.9029 11.5425V9.9873H32.5177V11.5425H31.9029Z" fill="black"/>
<path d="M6 14.5425V12.9873H7.53686V14.5425H6Z" fill="black"/>
<path d="M7.28493 14.5425V12.9873H7.89968V14.5425H7.28493Z" fill="black"/>
<path d="M7.87811 14.5425V12.9873H9.26095V14.5425H7.87811Z" fill="black"/>
<path d="M9.08604 14.5425V12.9873H10.6229V14.5425H9.08604Z" fill="black"/>
<path d="M10.371 14.5425V12.9873H11.4464V14.5425H10.371Z" fill="black"/>
<path d="M11.1182 14.5425V12.9873H12.1936V14.5425H11.1182Z" fill="black"/>
<path d="M12.1734 14.5425V12.9873H13.4022V14.5425H12.1734Z" fill="black"/>
<path d="M13.3813 14.5425V12.9873H14.7642V14.5425H13.3813Z" fill="black"/>
<path d="M14.9963 14.4669C14.9963 14.4323 15.0046 14.4081 15.0212 14.3941C15.0378 14.3801 15.0576 14.3731 15.0806 14.3731C15.1046 14.3731 15.1249 14.3801 15.1415 14.3941C15.159 14.4081 15.1678 14.4323 15.1678 14.4669C15.1678 14.5005 15.159 14.5247 15.1415 14.5397C15.1249 14.5546 15.1046 14.5621 15.0806 14.5621C15.0576 14.5621 15.0378 14.5546 15.0212 14.5397C15.0046 14.5247 14.9963 14.5005 14.9963 14.4669ZM15.3587 14.4669C15.3587 14.4323 15.367 14.4081 15.3836 14.3941C15.4002 14.3801 15.4201 14.3731 15.4431 14.3731C15.4671 14.3731 15.4874 14.3801 15.504 14.3941C15.5215 14.4081 15.5303 14.4323 15.5303 14.4669C15.5303 14.5005 15.5215 14.5247 15.504 14.5397C15.4874 14.5546 15.4671 14.5621 15.4431 14.5621C15.4201 14.5621 15.4002 14.5546 15.3836 14.5397C15.367 14.5247 15.3587 14.5005 15.3587 14.4669ZM15.7198 14.4669C15.7198 14.4323 15.7281 14.4081 15.7447 14.3941C15.7613 14.3801 15.7812 14.3731 15.8042 14.3731C15.8282 14.3731 15.8485 14.3801 15.8651 14.3941C15.8826 14.4081 15.8914 14.4323 15.8914 14.4669C15.8914 14.5005 15.8826 14.5247 15.8651 14.5397C15.8485 14.5546 15.8282 14.5621 15.8042 14.5621C15.7812 14.5621 15.7613 14.5546 15.7447 14.5397C15.7281 14.5247 15.7198 14.5005 15.7198 14.4669Z" fill="black"/>
<path d="M15.6283 14.5425V12.9873H16.2431V14.5425H15.6283Z" fill="black"/>
<path d="M16.2215 14.5425V12.9873H18.3731V14.5425H16.2215Z" fill="black"/>
<path d="M18.159 14.5425V12.9873H19.6959V14.5425H18.159Z" fill="black"/>
<path d="M19.3669 14.5425V12.9873H20.135V14.5425H19.3669Z" fill="black"/>
<path d="M19.9601 14.5425V12.9873H21.3429V14.5425H19.9601Z" fill="black"/>
<path d="M21.0343 14.5425V12.9873H22.5711V14.5425H21.0343Z" fill="black"/>
<path d="M22.2422 14.5425V12.9873H22.8569V14.5425H22.2422Z" fill="black"/>
<path d="M22.8354 14.5425V12.9873H24.2182V14.5425H22.8354Z" fill="black"/>
<path d="M23.9663 14.5425V12.9873H25.3491V14.5425H23.9663Z" fill="black"/>
<path d="M25.0404 14.5425V12.9873H26.5773V14.5425H25.0404Z" fill="black"/>
<path d="M26.4024 14.5425V12.9873H27.7852V14.5425H26.4024Z" fill="black"/>
<path d="M27.5333 14.5425V12.9873H29.0702V14.5425H27.5333Z" fill="black"/>
<path d="M28.8182 14.5425V12.9873H30.2011V14.5425H28.8182Z" fill="black"/>
<path d="M29.8924 14.5425V12.9873H31.4293V14.5425H29.8924Z" fill="black"/>
<path d="M31.1003 14.5425V12.9873H32.6372V14.5425H31.1003Z" fill="black"/>
<path d="M32.3853 14.5425V12.9873H33V14.5425H32.3853Z" fill="black"/>
<path d="M6 17.5425V15.9873H7.07546V17.5425H6Z" fill="black"/>
<path d="M6.90123 17.5425V15.9873H8.13004V17.5425H6.90123Z" fill="black"/>
<path d="M7.95513 17.5425V15.9873H8.56987V17.5425H7.95513Z" fill="black"/>
<path d="M8.39428 17.5425V15.9873H9.46974V17.5425H8.39428Z" fill="black"/>
<path d="M9.14149 17.5425V15.9873H10.6783V17.5425H9.14149Z" fill="black"/>
<path d="M10.4264 17.5425V15.9873H11.5019V17.5425H10.4264Z" fill="black"/>
<path d="M11.3276 17.5425V15.9873H12.8645V17.5425H11.3276Z" fill="black"/>
<path d="M12.6518 17.5425V15.9873H13.2665V17.5425H12.6518Z" fill="black"/>
<path d="M13.0909 17.5425V15.9873H14.1664V17.5425H13.0909Z" fill="black"/>
<path d="M13.9921 17.5425V15.9873H15.221V17.5425H13.9921Z" fill="black"/>
<path d="M15.046 17.5425V15.9873H15.6608V17.5425H15.046Z" fill="black"/>
<path d="M15.4852 17.5425V15.9873H16.5607V17.5425H15.4852Z" fill="black"/>
<path d="M16.2324 17.5425V15.9873H17.7693V17.5425H16.2324Z" fill="black"/>
<path d="M17.5944 17.5425V15.9873H19.1312V17.5425H17.5944Z" fill="black"/>
<path d="M18.8023 17.5425V15.9873H20.8005V17.5425H18.8023Z" fill="black"/>
<path d="M20.702 17.5425V15.9873H21.47V17.5425H20.702Z" fill="black"/>
<path d="M21.2181 17.5425V15.9873H21.9862V17.5425H21.2181Z" fill="black"/>
<path d="M21.8113 17.5425V15.9873H22.5794V17.5425H21.8113Z" fill="black"/>
<path d="M6.30737 8.43789H32.5286V8.50762H6.30737V8.43789ZM6.30737 11.4379H32.2096V11.5076H6.30737V11.4379ZM6.30737 14.4379H14.8966V14.5076H6.30737V14.4379ZM14.8966 14.7175H15.9357V14.7875H14.8966V14.7175ZM15.9357 14.4379H32.6926V14.5076H15.9357V14.4379ZM6.30737 17.4379H22.7672V17.5076H6.30737V17.4379Z" fill="black"/>
</g>
<rect width="12" height="14" transform="translate(25 18.9873)" fill="white"/>
<path d="M31.4307 24.0059C31.141 24.0059 30.8838 24.0628 30.6592 24.1768C30.4378 24.2874 30.2507 24.4486 30.0977 24.6602C29.9479 24.8717 29.834 25.1273 29.7559 25.4268C29.6777 25.7262 29.6387 26.0632 29.6387 26.4375C29.6387 26.9421 29.7005 27.3734 29.8242 27.7314C29.9512 28.0863 30.1465 28.3581 30.4102 28.5469C30.6738 28.7324 31.014 28.8252 31.4307 28.8252C31.7204 28.8252 32.0101 28.7926 32.2998 28.7275C32.5928 28.6624 32.9102 28.5697 33.252 28.4492V29.7188C32.9362 29.849 32.6253 29.9417 32.3193 29.9971C32.0133 30.0557 31.6699 30.085 31.2891 30.085C30.5534 30.085 29.9479 29.9336 29.4727 29.6309C29.0007 29.3249 28.6507 28.8984 28.4229 28.3516C28.195 27.8014 28.0811 27.1602 28.0811 26.4277C28.0811 25.8874 28.1543 25.3926 28.3008 24.9434C28.4473 24.4941 28.6621 24.1051 28.9453 23.7764C29.2285 23.4476 29.5785 23.1937 29.9951 23.0146C30.4118 22.8356 30.8903 22.7461 31.4307 22.7461C31.7855 22.7461 32.1403 22.7917 32.4951 22.8828C32.8532 22.9707 33.195 23.0928 33.5205 23.249L33.0322 24.4795C32.7653 24.3525 32.4967 24.2419 32.2266 24.1475C31.9564 24.0531 31.6911 24.0059 31.4307 24.0059Z" fill="#585858"/>
</g>
<path d="M11.3333 38.9873H2V45.3354H11.3333V38.9873Z" fill="#E5592D"/>
</g>
<defs>
<filter id="filter0_d_238_43771" x="0" y="1.9873" width="39" height="35" filterUnits="userSpaceOnUse" color-interpolation-filters="sRGB">
<feFlood flood-opacity="0" result="BackgroundImageFix"/>
<feColorMatrix in="SourceAlpha" type="matrix" values="0 0 0 0 0 0 0 0 0 0 0 0 0 0 0 0 0 0 127 0" result="hardAlpha"/>
<feOffset dy="1"/>
<feGaussianBlur stdDeviation="1"/>
<feComposite in2="hardAlpha" operator="out"/>
<feColorMatrix type="matrix" values="0 0 0 0 0 0 0 0 0 0 0 0 0 0 0 0 0 0 0.1 0"/>
<feBlend mode="normal" in2="BackgroundImageFix" result="effect1_dropShadow_238_43771"/>
<feBlend mode="normal" in="SourceGraphic" in2="effect1_dropShadow_238_43771" result="shape"/>
</filter>
<filter id="filter1_i_238_43771" x="2" y="-2.0127" width="35" height="34" filterUnits="userSpaceOnUse" color-interpolation-filters="sRGB">
<feFlood flood-opacity="0" result="BackgroundImageFix"/>
<feBlend mode="normal" in="SourceGraphic" in2="BackgroundImageFix" result="shape"/>
<feColorMatrix in="SourceAlpha" type="matrix" values="0 0 0 0 0 0 0 0 0 0 0 0 0 0 0 0 0 0 127 0" result="hardAlpha"/>
<feOffset dy="-5"/>
<feGaussianBlur stdDeviation="3.5"/>
<feComposite in2="hardAlpha" operator="arithmetic" k2="-1" k3="1"/>
<feColorMatrix type="matrix" values="0 0 0 0 1 0 0 0 0 1 0 0 0 0 1 0 0 0 1 0"/>
<feBlend mode="normal" in2="shape" result="effect1_innerShadow_238_43771"/>
</filter>
<clipPath id="clip0_238_43771">
<rect width="39" height="46.3481" fill="white" transform="translate(0 0.987305)"/>
</clipPath>
<clipPath id="clip1_238_43771">
<rect width="35" height="31" fill="white" transform="translate(2 2.9873)"/>
</clipPath>
</defs>
</svg>
