<svg width="39" height="47" viewBox="0 0 39 47" fill="none" xmlns="http://www.w3.org/2000/svg">
<g clip-path="url(#clip0_238_43749)">
<g clip-path="url(#clip1_238_43749)" filter="url(#filter0_d_238_43749)">
<rect width="35" height="31" transform="translate(2 2.18066)" fill="white"/>
<g opacity="0.3" filter="url(#filter1_i_238_43749)">
<rect width="35" height="29" transform="translate(2 2.18066)" fill="white"/>
<path d="M6 7.73584V6.18066H6.80368V7.73584H6Z" fill="black"/>
<path d="M6.78183 7.73584V6.18066H9.03313V7.73584H6.78183Z" fill="black"/>
<path d="M8.80911 7.73584V6.18066H10.4172V7.73584H8.80911Z" fill="black"/>
<path d="M10.073 7.73584V6.18066H10.7162V7.73584H10.073Z" fill="black"/>
<path d="M10.5325 7.73584V6.18066H12.1406V7.73584H10.5325Z" fill="black"/>
<path d="M11.9576 7.73584V6.18066H13.5656V7.73584H11.9576Z" fill="black"/>
<path d="M13.2215 7.73584V6.18066H14.6684V7.73584H13.2215Z" fill="black"/>
<path d="M14.5659 7.73584V6.18066H16.174V7.73584H14.5659Z" fill="black"/>
<path d="M15.8298 7.73584V6.18066H16.4731V7.73584H15.8298Z" fill="black"/>
<path d="M16.4505 7.73584V6.18066H17.8974V7.73584H16.4505Z" fill="black"/>
<path d="M17.8756 7.73584V6.18066H19.1613V7.73584H17.8756Z" fill="black"/>
<path d="M18.9783 7.73584V6.18066H19.6215V7.73584H18.9783Z" fill="black"/>
<path d="M19.4378 7.73584V6.18066H20.5631V7.73584H19.4378Z" fill="black"/>
<path d="M20.5419 7.73584V6.18066H21.9889V7.73584H20.5419Z" fill="black"/>
<path d="M21.8058 7.73584V6.18066H22.9311V7.73584H21.8058Z" fill="black"/>
<path d="M22.5877 7.73584V6.18066H24.1957V7.73584H22.5877Z" fill="black"/>
<path d="M24.0127 7.73584V6.18066H25.4596V7.73584H24.0127Z" fill="black"/>
<path d="M25.2766 7.73584V6.18066H26.4019V7.73584H25.2766Z" fill="black"/>
<path d="M26.0584 7.73584V6.18066H27.1837V7.73584H26.0584Z" fill="black"/>
<path d="M27.1626 7.73584V6.18066H28.4483V7.73584H27.1626Z" fill="black"/>
<path d="M28.4265 7.73584V6.18066H29.8734V7.73584H28.4265Z" fill="black"/>
<path d="M29.6904 7.73584V6.18066H30.3336V7.73584H29.6904Z" fill="black"/>
<path d="M30.311 7.73584V6.18066H31.5968V7.73584H30.311Z" fill="black"/>
<path d="M31.4138 7.73584V6.18066H32.7002V7.73584H31.4138Z" fill="black"/>
<path d="M32.3568 7.73584V6.18066H33V7.73584H32.3568Z" fill="black"/>
<path d="M6 10.7358V9.18066H7.1253V10.7358H6Z" fill="black"/>
<path d="M7.10415 10.7358V9.18066H8.55106V10.7358H7.10415Z" fill="black"/>
<path d="M8.28746 10.7358V9.18066H9.73437V10.7358H8.28746Z" fill="black"/>
<path d="M9.55136 10.7358V9.18066H11.1594V10.7358H9.55136Z" fill="black"/>
<path d="M10.8958 10.7358V9.18066H12.5039V10.7358H10.8958Z" fill="black"/>
<path d="M12.2403 10.7358V9.18066H13.3656V10.7358H12.2403Z" fill="black"/>
<path d="M13.3445 10.7358V9.18066H14.7914V10.7358H13.3445Z" fill="black"/>
<path d="M14.6084 10.7358V9.18066H16.2164V10.7358H14.6084Z" fill="black"/>
<path d="M16.0334 10.7358V9.18066H16.6766V10.7358H16.0334Z" fill="black"/>
<path d="M16.4929 10.7358V9.18066H18.2621V10.7358H16.4929Z" fill="black"/>
<path d="M18.0989 10.7358V9.18066H19.3847V10.7358H18.0989Z" fill="black"/>
<path d="M19.2017 10.7358V9.18066H20.6486V10.7358H19.2017Z" fill="black"/>
<path d="M20.3256 10.7358V9.18066H21.4509V10.7358H20.3256Z" fill="black"/>
<path d="M21.1074 10.7358V9.18066H22.7155V10.7358H21.1074Z" fill="black"/>
<path d="M22.5325 10.7358V9.18066H23.1757V10.7358H22.5325Z" fill="black"/>
<path d="M22.992 10.7358V9.18066H24.7612V10.7358H22.992Z" fill="black"/>
<path d="M24.6588 10.7358V9.18066H25.9445V10.7358H24.6588Z" fill="black"/>
<path d="M25.7615 10.7358V9.18066H27.2084V10.7358H25.7615Z" fill="black"/>
<path d="M26.8855 10.7358V9.18066H28.4935V10.7358H26.8855Z" fill="black"/>
<path d="M28.1493 10.7358V9.18066H29.7574V10.7358H28.1493Z" fill="black"/>
<path d="M29.4938 10.7358V9.18066H30.1371V10.7358H29.4938Z" fill="black"/>
<path d="M30.1145 10.7358V9.18066H31.4002V10.7358H30.1145Z" fill="black"/>
<path d="M31.2172 10.7358V9.18066H32.6641V10.7358H31.2172Z" fill="black"/>
<path d="M32.3412 10.7358V9.18066H32.9844V10.7358H32.3412Z" fill="black"/>
<path d="M6 13.7358V12.1807H7.1253V13.7358H6Z" fill="black"/>
<path d="M6.78183 13.7358V12.1807H8.3899V13.7358H6.78183Z" fill="black"/>
<path d="M8.1263 13.7358V12.1807H9.73437V13.7358H8.1263Z" fill="black"/>
<path d="M9.51177 13.7358V12.1807H10.6371V13.7358H9.51177Z" fill="black"/>
<path d="M10.6159 13.7358V12.1807H12.0628V13.7358H10.6159Z" fill="black"/>
<path d="M11.8798 13.7358V12.1807H13.4879V13.7358H11.8798Z" fill="black"/>
<path d="M13.3049 13.7358V12.1807H13.9481V13.7358H13.3049Z" fill="black"/>
<path d="M13.7644 13.7358V12.1807H15.3724V13.7358H13.7644Z" fill="black"/>
<path d="M15.3506 13.7358V12.1807H16.6363V13.7358H15.3506Z" fill="black"/>
<path d="M16.4533 13.7358V12.1807H17.9002V13.7358H16.4533Z" fill="black"/>
<path d="M17.6776 13.7358V12.1807H18.8029V13.7358H17.6776Z" fill="black"/>
<path d="M18.4595 13.7358V12.1807H19.5848V13.7358H18.4595Z" fill="black"/>
<path d="M19.4025 13.7358V12.1807H20.5278V13.7358H19.4025Z" fill="black"/>
<path d="M20.3454 13.7358V12.1807H21.9535V13.7358H20.3454Z" fill="black"/>
<path d="M21.6093 13.7358V12.1807H22.2526V13.7358H21.6093Z" fill="black"/>
<path d="M22.0688 13.7358V12.1807H23.6769V13.7358H22.0688Z" fill="black"/>
<path d="M23.4133 13.7358V12.1807H24.8602V13.7358H23.4133Z" fill="black"/>
<path d="M24.5966 13.7358V12.1807H25.7219V13.7358H24.5966Z" fill="black"/>
<path d="M25.3785 13.7358V12.1807H26.5038V13.7358H25.3785Z" fill="black"/>
<path d="M26.4826 13.7358V12.1807H27.7684V13.7358H26.4826Z" fill="black"/>
<path d="M27.7465 13.7358V12.1807H29.1934V13.7358H27.7465Z" fill="black"/>
<path d="M29.0104 13.7358V12.1807H29.6536V13.7358H29.0104Z" fill="black"/>
<path d="M6 16.7358V15.1807H7.60807V16.7358H6Z" fill="black"/>
<path d="M7.34448 16.7358V15.1807H8.95255V16.7358H7.34448Z" fill="black"/>
<path d="M8.76953 16.7358V15.1807H10.3776V16.7358H8.76953Z" fill="black"/>
<path d="M10.114 16.7358V15.1807H11.2393V16.7358H10.114Z" fill="black"/>
<path d="M11.2182 16.7358V15.1807H12.6651V16.7358H11.2182Z" fill="black"/>
<path d="M12.482 16.7358V15.1807H13.929V16.7358H12.482Z" fill="black"/>
<path d="M13.7064 16.7358V15.1807H14.8317V16.7358H13.7064Z" fill="black"/>
<path d="M14.4882 16.7358V15.1807H15.1314V16.7358H14.4882Z" fill="black"/>
<path d="M14.9477 16.7358V15.1807H16.7169V16.7358H14.9477Z" fill="black"/>
<path d="M16.5537 16.7358V15.1807H17.8395V16.7358H16.5537Z" fill="black"/>
<path d="M17.6564 16.7358V15.1807H19.1033V16.7358H17.6564Z" fill="black"/>
<path d="M18.7804 16.7358V15.1807H19.9057V16.7358H18.7804Z" fill="black"/>
<path d="M19.5622 16.7358V15.1807H21.1703V16.7358H19.5622Z" fill="black"/>
<path d="M20.9873 16.7358V15.1807H21.6305V16.7358H20.9873Z" fill="black"/>
<path d="M21.4468 16.7358V15.1807H23.216V16.7358H21.4468Z" fill="black"/>
<path d="M23.1136 16.7358V15.1807H24.3993V16.7358H23.1136Z" fill="black"/>
<path d="M24.2163 16.7358V15.1807H25.6632V16.7358H24.2163Z" fill="black"/>
<path d="M25.3402 16.7358V15.1807H26.9483V16.7358H25.3402Z" fill="black"/>
<path d="M26.6041 16.7358V15.1807H28.2122V16.7358H26.6041Z" fill="black"/>
<path d="M27.9486 16.7358V15.1807H28.7523V16.7358H27.9486Z" fill="black"/>
<path d="M28.4887 16.7358V15.1807H29.2924V16.7358H28.4887Z" fill="black"/>
<path d="M6.32161 7.63125H32.6777V7.70098H6.32161V7.63125ZM6.32161 10.6312H32.6621V10.701H6.32161V10.6312ZM6.32161 13.6312H29.332V13.701H6.32161V13.6312ZM6.32161 16.6313H29.4889V16.701H6.32161V16.6313Z" fill="black"/>
</g>
<rect width="12" height="14" transform="translate(25 18.1807)" fill="white"/>
<path d="M31.4307 23.1992C31.141 23.1992 30.8838 23.2562 30.6592 23.3701C30.4378 23.4808 30.2507 23.6419 30.0977 23.8535C29.9479 24.0651 29.834 24.3206 29.7559 24.6201C29.6777 24.9196 29.6387 25.2565 29.6387 25.6309C29.6387 26.1354 29.7005 26.5667 29.8242 26.9248C29.9512 27.2796 30.1465 27.5514 30.4102 27.7402C30.6738 27.9258 31.014 28.0186 31.4307 28.0186C31.7204 28.0186 32.0101 27.986 32.2998 27.9209C32.5928 27.8558 32.9102 27.763 33.252 27.6426V28.9121C32.9362 29.0423 32.6253 29.1351 32.3193 29.1904C32.0133 29.249 31.6699 29.2783 31.2891 29.2783C30.5534 29.2783 29.9479 29.127 29.4727 28.8242C29.0007 28.5182 28.6507 28.0918 28.4229 27.5449C28.195 26.9948 28.0811 26.3535 28.0811 25.6211C28.0811 25.0807 28.1543 24.5859 28.3008 24.1367C28.4473 23.6875 28.6621 23.2985 28.9453 22.9697C29.2285 22.641 29.5785 22.387 29.9951 22.208C30.4118 22.029 30.8903 21.9395 31.4307 21.9395C31.7855 21.9395 32.1403 21.985 32.4951 22.0762C32.8532 22.1641 33.195 22.2861 33.5205 22.4424L33.0322 23.6729C32.7653 23.5459 32.4967 23.4352 32.2266 23.3408C31.9564 23.2464 31.6911 23.1992 31.4307 23.1992Z" fill="#585858"/>
</g>
<path d="M11.3333 38.1807H2V44.5287H11.3333V38.1807Z" fill="#E5592D"/>
</g>
<defs>
<filter id="filter0_d_238_43749" x="0" y="1.18066" width="39" height="35" filterUnits="userSpaceOnUse" color-interpolation-filters="sRGB">
<feFlood flood-opacity="0" result="BackgroundImageFix"/>
<feColorMatrix in="SourceAlpha" type="matrix" values="0 0 0 0 0 0 0 0 0 0 0 0 0 0 0 0 0 0 127 0" result="hardAlpha"/>
<feOffset dy="1"/>
<feGaussianBlur stdDeviation="1"/>
<feComposite in2="hardAlpha" operator="out"/>
<feColorMatrix type="matrix" values="0 0 0 0 0 0 0 0 0 0 0 0 0 0 0 0 0 0 0.1 0"/>
<feBlend mode="normal" in2="BackgroundImageFix" result="effect1_dropShadow_238_43749"/>
<feBlend mode="normal" in="SourceGraphic" in2="effect1_dropShadow_238_43749" result="shape"/>
</filter>
<filter id="filter1_i_238_43749" x="2" y="-2.81934" width="35" height="34" filterUnits="userSpaceOnUse" color-interpolation-filters="sRGB">
<feFlood flood-opacity="0" result="BackgroundImageFix"/>
<feBlend mode="normal" in="SourceGraphic" in2="BackgroundImageFix" result="shape"/>
<feColorMatrix in="SourceAlpha" type="matrix" values="0 0 0 0 0 0 0 0 0 0 0 0 0 0 0 0 0 0 127 0" result="hardAlpha"/>
<feOffset dy="-5"/>
<feGaussianBlur stdDeviation="3.5"/>
<feComposite in2="hardAlpha" operator="arithmetic" k2="-1" k3="1"/>
<feColorMatrix type="matrix" values="0 0 0 0 1 0 0 0 0 1 0 0 0 0 1 0 0 0 1 0"/>
<feBlend mode="normal" in2="shape" result="effect1_innerShadow_238_43749"/>
</filter>
<clipPath id="clip0_238_43749">
<rect width="39" height="46.3481" fill="white" transform="translate(0 0.180664)"/>
</clipPath>
<clipPath id="clip1_238_43749">
<rect width="35" height="31" fill="white" transform="translate(2 2.18066)"/>
</clipPath>
</defs>
</svg>
