<svg width="39" height="47" viewBox="0 0 39 47" fill="none" xmlns="http://www.w3.org/2000/svg">
<g clip-path="url(#clip0_238_43848)">
<g clip-path="url(#clip1_238_43848)" filter="url(#filter0_d_238_43848)">
<rect width="35" height="31" transform="translate(2 2.5752)" fill="white"/>
<g opacity="0.3" clip-path="url(#clip2_238_43848)" filter="url(#filter1_i_238_43848)">
<rect width="35" height="29" transform="translate(2 2.5752)" fill="white"/>
<path d="M6 8.13037V6.5752H6.76449V8.13037H6Z" fill="black"/>
<path d="M6.5904 8.13037V6.5752H8.12006V8.13037H6.5904Z" fill="black"/>
<path d="M7.94597 8.13037V6.5752H9.47563V8.13037H7.94597Z" fill="black"/>
<path d="M9.30154 8.13037V6.5752H10.8312V8.13037H9.30154Z" fill="black"/>
<path d="M10.5038 8.13037V6.5752H11.1157V8.13037H10.5038Z" fill="black"/>
<path d="M10.9409 8.13037V6.5752H12.6239V8.13037H10.9409Z" fill="black"/>
<path d="M12.4874 8.13037V6.5752H13.8638V8.13037H12.4874Z" fill="black"/>
<path d="M13.6897 8.13037V6.5752H14.7601V8.13037H13.6897Z" fill="black"/>
<path d="M14.5867 8.13037V6.5752H15.6571V8.13037H14.5867Z" fill="black"/>
<path d="M15.3304 8.13037V6.5752H16.8601V8.13037H15.3304Z" fill="black"/>
<path d="M16.5327 8.13037V6.5752H18.0623V8.13037H16.5327Z" fill="black"/>
<path d="M17.8116 8.13037V6.5752H18.4234V8.13037H17.8116Z" fill="black"/>
<path d="M18.2487 8.13037V6.5752H19.625V8.13037H18.2487Z" fill="black"/>
<path d="M19.5276 8.13037V6.5752H20.598V8.13037H19.5276Z" fill="black"/>
<path d="M20.2713 8.13037V6.5752H21.801V8.13037H20.2713Z" fill="black"/>
<path d="M21.5502 8.13037V6.5752H22.6206V8.13037H21.5502Z" fill="black"/>
<path d="M22.2939 8.13037V6.5752H23.8236V8.13037H22.2939Z" fill="black"/>
<path d="M23.4962 8.13037V6.5752H24.8725V8.13037H23.4962Z" fill="black"/>
<path d="M24.6608 8.13037V6.5752H25.2727V8.13037H24.6608Z" fill="black"/>
<path d="M6 11.1304V9.5752H7.52966V11.1304H6Z" fill="black"/>
<path d="M7.27892 11.1304V9.5752H8.50264V11.1304H7.27892Z" fill="black"/>
<path d="M8.17592 11.1304V9.5752H9.39965V11.1304H8.17592Z" fill="black"/>
<path d="M9.07293 11.1304V9.5752H10.1434V11.1304H9.07293Z" fill="black"/>
<path d="M9.96993 11.1304V9.5752H11.3463V11.1304H9.96993Z" fill="black"/>
<path d="M11.0391 11.1304V9.5752H13.028V11.1304H11.0391Z" fill="black"/>
<path d="M12.9298 11.1304V9.5752H14.4595V11.1304H12.9298Z" fill="black"/>
<path d="M14.1321 11.1304V9.5752H15.6618V11.1304H14.1321Z" fill="black"/>
<path d="M15.411 11.1304V9.5752H16.0229V11.1304H15.411Z" fill="black"/>
<path d="M15.8481 11.1304V9.5752H16.9186V11.1304H15.8481Z" fill="black"/>
<path d="M16.5918 11.1304V9.5752H18.1215V11.1304H16.5918Z" fill="black"/>
<path d="M17.9474 11.1304V9.5752H19.4771V11.1304H17.9474Z" fill="black"/>
<path d="M19.2263 11.1304V9.5752H20.2967V11.1304H19.2263Z" fill="black"/>
<path d="M19.97 11.1304V9.5752H20.5819V11.1304H19.97Z" fill="black"/>
<path d="M20.4071 11.1304V9.5752H22.5486V11.1304H20.4071Z" fill="black"/>
<path d="M22.2979 11.1304V9.5752H23.8276V11.1304H22.2979Z" fill="black"/>
<path d="M23.5002 11.1304V9.5752H24.112V11.1304H23.5002Z" fill="black"/>
<path d="M23.9373 11.1304V9.5752H25.4669V11.1304H23.9373Z" fill="black"/>
<path d="M25.2928 11.1304V9.5752H26.8225V11.1304H25.2928Z" fill="black"/>
<path d="M26.4951 11.1304V9.5752H27.8715V11.1304H26.4951Z" fill="black"/>
<path d="M27.774 11.1304V9.5752H29.3037V11.1304H27.774Z" fill="black"/>
<path d="M28.9763 11.1304V9.5752H29.5881V11.1304H28.9763Z" fill="black"/>
<path d="M29.5667 11.1304V9.5752H30.943V11.1304H29.5667Z" fill="black"/>
<path d="M30.9222 11.1304V9.5752H32.1453V11.1304H30.9222Z" fill="black"/>
<path d="M31.9712 11.1304V9.5752H32.5831V11.1304H31.9712Z" fill="black"/>
<path d="M6.1533 14.1304V12.5752H7.52966V14.1304H6.1533Z" fill="black"/>
<path d="M7.35557 14.1304V12.5752H8.88523V14.1304H7.35557Z" fill="black"/>
<path d="M8.71113 14.1304V12.5752H10.0875V14.1304H8.71113Z" fill="black"/>
<path d="M9.83675 14.1304V12.5752H10.9072V14.1304H9.83675Z" fill="black"/>
<path d="M10.7338 14.1304V12.5752H12.2634V14.1304H10.7338Z" fill="black"/>
<path d="M11.936 14.1304V12.5752H13.4657V14.1304H11.936Z" fill="black"/>
<path d="M13.2149 14.1304V12.5752H14.5913V14.1304H13.2149Z" fill="black"/>
<path d="M14.2841 14.1304V12.5752H14.8959V14.1304H14.2841Z" fill="black"/>
<path d="M14.7212 14.1304V12.5752H16.8627V14.1304H14.7212Z" fill="black"/>
<path d="M16.6119 14.1304V12.5752H18.1416V14.1304H16.6119Z" fill="black"/>
<path d="M17.8142 14.1304V12.5752H19.3439V14.1304H17.8142Z" fill="black"/>
<path d="M19.2464 14.1304V12.5752H20.6228V14.1304H19.2464Z" fill="black"/>
<path d="M20.5253 14.1304V12.5752H21.7484V14.1304H20.5253Z" fill="black"/>
<path d="M21.7276 14.1304V12.5752H23.104V14.1304H21.7276Z" fill="black"/>
<path d="M22.9299 14.1304V12.5752H24.3062V14.1304H22.9299Z" fill="black"/>
<path d="M24.0945 14.1304V12.5752H24.7064V14.1304H24.0945Z" fill="black"/>
<path d="M24.6849 14.1304V12.5752H25.9079V14.1304H24.6849Z" fill="black"/>
<path d="M25.8872 14.1304V12.5752H27.2635V14.1304H25.8872Z" fill="black"/>
<path d="M27.0894 14.1304V12.5752H27.7013V14.1304H27.0894Z" fill="black"/>
<path d="M27.5265 14.1304V12.5752H28.5969V14.1304H27.5265Z" fill="black"/>
<path d="M28.2702 14.1304V12.5752H29.7999V14.1304H28.2702Z" fill="black"/>
<path d="M29.6258 14.1304V12.5752H31.1555V14.1304H29.6258Z" fill="black"/>
<path d="M30.8281 14.1304V12.5752H31.4399V14.1304H30.8281Z" fill="black"/>
<path d="M6 17.1304V15.5752H7.68296V17.1304H6Z" fill="black"/>
<path d="M7.58552 17.1304V15.5752H8.80858V17.1304H7.58552Z" fill="black"/>
<path d="M8.63448 17.1304V15.5752H10.0108V17.1304H8.63448Z" fill="black"/>
<path d="M9.70362 17.1304V15.5752H11.2333V17.1304H9.70362Z" fill="black"/>
<path d="M10.9059 17.1304V15.5752H12.4355V17.1304H10.9059Z" fill="black"/>
<path d="M12.3381 17.1304V15.5752H13.7145V17.1304H12.3381Z" fill="black"/>
<path d="M13.5404 17.1304V15.5752H14.1522V17.1304H13.5404Z" fill="black"/>
<path d="M14.1308 17.1304V15.5752H15.6604V17.1304H14.1308Z" fill="black"/>
<path d="M15.3519 17.1304V15.5752H16.8815V17.1304H15.3519Z" fill="black"/>
<path d="M16.7074 17.1304V15.5752H18.0838V17.1304H16.7074Z" fill="black"/>
<path d="M17.9097 17.1304V15.5752H18.9801V17.1304H17.9097Z" fill="black"/>
<path d="M18.96 17.1304V15.5752H20.3364V17.1304H18.96Z" fill="black"/>
<path d="M20.1623 17.1304V15.5752H21.5386V17.1304H20.1623Z" fill="black"/>
<path d="M21.3269 17.1304V15.5752H22.8565V17.1304H21.3269Z" fill="black"/>
<path d="M22.6824 17.1304V15.5752H23.7529V17.1304H22.6824Z" fill="black"/>
<path d="M23.5795 17.1304V15.5752H25.1091V17.1304H23.5795Z" fill="black"/>
<path d="M24.8584 17.1304V15.5752H25.6229V17.1304H24.8584Z" fill="black"/>
<path d="M25.3721 17.1304V15.5752H25.984V17.1304H25.3721Z" fill="black"/>
<path d="M25.9625 17.1304V15.5752H28.104V17.1304H25.9625Z" fill="black"/>
<path d="M27.891 17.1304V15.5752H29.4206V17.1304H27.891Z" fill="black"/>
<path d="M29.0932 17.1304V15.5752H29.7051V17.1304H29.0932Z" fill="black"/>
<path d="M6 20.1304V18.5752H7.52966V20.1304H6Z" fill="black"/>
<path d="M7.27892 20.1304V18.5752H8.50264V20.1304H7.27892Z" fill="black"/>
<path d="M8.17592 20.1304V18.5752H9.39965V20.1304H8.17592Z" fill="black"/>
<path d="M9.07293 20.1304V18.5752H10.1434V20.1304H9.07293Z" fill="black"/>
<path d="M9.96993 20.1304V18.5752H11.3463V20.1304H9.96993Z" fill="black"/>
<path d="M11.0391 20.1304V18.5752H13.028V20.1304H11.0391Z" fill="black"/>
<path d="M12.9298 20.1304V18.5752H14.4595V20.1304H12.9298Z" fill="black"/>
<path d="M14.1321 20.1304V18.5752H15.6618V20.1304H14.1321Z" fill="black"/>
<path d="M15.411 20.1304V18.5752H16.0229V20.1304H15.411Z" fill="black"/>
<path d="M15.8481 20.1304V18.5752H16.9186V20.1304H15.8481Z" fill="black"/>
<path d="M16.5918 20.1304V18.5752H18.1215V20.1304H16.5918Z" fill="black"/>
<path d="M17.9474 20.1304V18.5752H19.4771V20.1304H17.9474Z" fill="black"/>
<path d="M19.2263 20.1304V18.5752H20.2967V20.1304H19.2263Z" fill="black"/>
<path d="M19.97 20.1304V18.5752H20.5819V20.1304H19.97Z" fill="black"/>
<path d="M20.4071 20.1304V18.5752H22.5486V20.1304H20.4071Z" fill="black"/>
<path d="M22.2979 20.1304V18.5752H23.8276V20.1304H22.2979Z" fill="black"/>
<path d="M23.5002 20.1304V18.5752H24.112V20.1304H23.5002Z" fill="black"/>
<path d="M23.9373 20.1304V18.5752H25.4669V20.1304H23.9373Z" fill="black"/>
<path d="M25.2928 20.1304V18.5752H26.8225V20.1304H25.2928Z" fill="black"/>
<path d="M26.4951 20.1304V18.5752H27.8715V20.1304H26.4951Z" fill="black"/>
<path d="M27.774 20.1304V18.5752H29.3037V20.1304H27.774Z" fill="black"/>
<path d="M28.9763 20.1304V18.5752H29.5881V20.1304H28.9763Z" fill="black"/>
<path d="M29.5667 20.1304V18.5752H30.943V20.1304H29.5667Z" fill="black"/>
<path d="M30.9222 20.1304V18.5752H32.1453V20.1304H30.9222Z" fill="black"/>
<path d="M31.9712 20.1304V18.5752H32.5831V20.1304H31.9712Z" fill="black"/>
<path d="M6 23.1304V21.5752H7.07043V23.1304H6Z" fill="black"/>
<path d="M7.05031 23.1304V21.5752H8.42666V23.1304H7.05031Z" fill="black"/>
<path d="M8.25257 23.1304V21.5752H9.323V23.1304H8.25257Z" fill="black"/>
<path d="M8.99628 23.1304V21.5752H10.5259V23.1304H8.99628Z" fill="black"/>
<path d="M10.3518 23.1304V21.5752H11.7282V23.1304H10.3518Z" fill="black"/>
<path d="M11.5541 23.1304V21.5752H12.6245V23.1304H11.5541Z" fill="black"/>
<path d="M12.2978 23.1304V21.5752H13.3682V23.1304H12.2978Z" fill="black"/>
<path d="M13.3481 23.1304V21.5752H14.5712V23.1304H13.3481Z" fill="black"/>
<path d="M14.5504 23.1304V21.5752H15.9267V23.1304H14.5504Z" fill="black"/>
<path d="M15.7527 23.1304V21.5752H16.3645V23.1304H15.7527Z" fill="black"/>
<path d="M16.3431 23.1304V21.5752H17.5661V23.1304H16.3431Z" fill="black"/>
<path d="M17.392 23.1304V21.5752H18.6157V23.1304H17.392Z" fill="black"/>
<path d="M18.289 23.1304V21.5752H18.9009V23.1304H18.289Z" fill="black"/>
<path d="M18.7261 23.1304V21.5752H20.2558V23.1304H18.7261Z" fill="black"/>
<path d="M20.005 23.1304V21.5752H21.0755V23.1304H20.005Z" fill="black"/>
<path d="M20.7487 23.1304V21.5752H21.8192V23.1304H20.7487Z" fill="black"/>
<path d="M21.4924 23.1304V21.5752H23.0221V23.1304H21.4924Z" fill="black"/>
<path d="M22.7714 23.1304V21.5752H24.1477V23.1304H22.7714Z" fill="black"/>
<path d="M23.897 23.1304V21.5752H25.4266V23.1304H23.897Z" fill="black"/>
<path d="M25.2149 23.1304V21.5752H26.2853V23.1304H25.2149Z" fill="black"/>
<path d="M26.2652 23.1304V21.5752H27.6416V23.1304H26.2652Z" fill="black"/>
<path d="M27.4675 23.1304V21.5752H28.9971V23.1304H27.4675Z" fill="black"/>
<path d="M28.823 23.1304V21.5752H29.4349V23.1304H28.823Z" fill="black"/>
<path d="M6 26.1304V24.5752H7.68296V26.1304H6Z" fill="black"/>
<path d="M7.5277 26.1304V24.5752H8.75075V26.1304H7.5277Z" fill="black"/>
<path d="M8.57666 26.1304V24.5752H9.95302V26.1304H8.57666Z" fill="black"/>
<path d="M9.64579 26.1304V24.5752H10.7162V26.1304H9.64579Z" fill="black"/>
<path d="M10.3895 26.1304V24.5752H11.9192V26.1304H10.3895Z" fill="black"/>
<path d="M11.7451 26.1304V24.5752H12.3569V26.1304H11.7451Z" fill="black"/>
<path d="M12.1822 26.1304V24.5752H13.8651V26.1304H12.1822Z" fill="black"/>
<path d="M13.7677 26.1304V24.5752H14.9907V26.1304H13.7677Z" fill="black"/>
<path d="M14.8166 26.1304V24.5752H16.193V26.1304H14.8166Z" fill="black"/>
<path d="M15.8858 26.1304V24.5752H17.4154V26.1304H15.8858Z" fill="black"/>
<path d="M17.088 26.1304V24.5752H18.6177V26.1304H17.088Z" fill="black"/>
<path d="M18.367 26.1304V24.5752H19.1315V26.1304H18.367Z" fill="black"/>
<path d="M18.8807 26.1304V24.5752H19.4926V26.1304H18.8807Z" fill="black"/>
<path d="M19.3178 26.1304V24.5752H20.8475V26.1304H19.3178Z" fill="black"/>
<path d="M20.6734 26.1304V24.5752H22.203V26.1304H20.6734Z" fill="black"/>
<path d="M22.0289 26.1304V24.5752H23.5586V26.1304H22.0289Z" fill="black"/>
<path d="M23.2312 26.1304V24.5752H23.8431V26.1304H23.2312Z" fill="black"/>
<path d="M23.6683 26.1304V24.5752H25.3513V26.1304H23.6683Z" fill="black"/>
<path d="M25.2148 26.1304V24.5752H26.5912V26.1304H25.2148Z" fill="black"/>
<path d="M26.4171 26.1304V24.5752H27.4875V26.1304H26.4171Z" fill="black"/>
<path d="M27.3141 26.1304V24.5752H28.3845V26.1304H27.3141Z" fill="black"/>
<path d="M28.0578 26.1304V24.5752H29.5875V26.1304H28.0578Z" fill="black"/>
<path d="M29.2601 26.1304V24.5752H30.7897V26.1304H29.2601Z" fill="black"/>
<path d="M30.539 26.1304V24.5752H31.1509V26.1304H30.539Z" fill="black"/>
<path d="M6 29.1304V27.5752H7.37636V29.1304H6Z" fill="black"/>
<path d="M7.27892 29.1304V27.5752H8.34934V29.1304H7.27892Z" fill="black"/>
<path d="M8.02262 29.1304V27.5752H9.55228V29.1304H8.02262Z" fill="black"/>
<path d="M9.30154 29.1304V27.5752H10.372V29.1304H9.30154Z" fill="black"/>
<path d="M10.0452 29.1304V27.5752H11.5749V29.1304H10.0452Z" fill="black"/>
<path d="M11.2475 29.1304V27.5752H12.6239V29.1304H11.2475Z" fill="black"/>
<path d="M12.4121 29.1304V27.5752H13.024V29.1304H12.4121Z" fill="black"/>
<path d="M12.8492 29.1304V27.5752H14.2256V29.1304H12.8492Z" fill="black"/>
<path d="M13.9183 29.1304V27.5752H15.448V29.1304H13.9183Z" fill="black"/>
<path d="M15.1206 29.1304V27.5752H17.1095V29.1304H15.1206Z" fill="black"/>
<path d="M17.0114 29.1304V27.5752H18.5411V29.1304H17.0114Z" fill="black"/>
<path d="M18.2903 29.1304V27.5752H19.3607V29.1304H18.2903Z" fill="black"/>
<path d="M19.3406 29.1304V27.5752H20.717V29.1304H19.3406Z" fill="black"/>
<path d="M20.5429 29.1304V27.5752H21.9192V29.1304H20.5429Z" fill="black"/>
<path d="M21.7075 29.1304V27.5752H22.3194V29.1304H21.7075Z" fill="black"/>
<path d="M6 32.1304V30.5752H7.37636V32.1304H6Z" fill="black"/>
<path d="M7.27892 32.1304V30.5752H8.50197V32.1304H7.27892Z" fill="black"/>
<path d="M8.32788 32.1304V30.5752H10.3168V32.1304H8.32788Z" fill="black"/>
<path d="M10.2187 32.1304V30.5752H12.2076V32.1304H10.2187Z" fill="black"/>
<path d="M12.1094 32.1304V30.5752H13.1799V32.1304H12.1094Z" fill="black"/>
<path d="M13.0064 32.1304V30.5752H14.0769V32.1304H13.0064Z" fill="black"/>
<path d="M13.7501 32.1304V30.5752H14.8206V32.1304H13.7501Z" fill="black"/>
<path d="M14.4939 32.1304V30.5752H16.0235V32.1304H14.4939Z" fill="black"/>
<path d="M15.6961 32.1304V30.5752H17.2258V32.1304H15.6961Z" fill="black"/>
<path d="M16.975 32.1304V30.5752H17.5869V32.1304H16.975Z" fill="black"/>
<path d="M17.4121 32.1304V30.5752H18.4826V32.1304H17.4121Z" fill="black"/>
<path d="M18.3091 32.1304V30.5752H19.5322V32.1304H18.3091Z" fill="black"/>
<path d="M19.3581 32.1304V30.5752H19.97V32.1304H19.3581Z" fill="black"/>
<path d="M19.7952 32.1304V30.5752H21.3249V32.1304H19.7952Z" fill="black"/>
<path d="M21.0741 32.1304V30.5752H22.1445V32.1304H21.0741Z" fill="black"/>
<path d="M22.1244 32.1304V30.5752H23.5008V32.1304H22.1244Z" fill="black"/>
<path d="M23.25 32.1304V30.5752H24.3205V32.1304H23.25Z" fill="black"/>
<path d="M24.3003 32.1304V30.5752H25.5234V32.1304H24.3003Z" fill="black"/>
<path d="M25.3493 32.1304V30.5752H27.3382V32.1304H25.3493Z" fill="black"/>
<path d="M27.2401 32.1304V30.5752H28.7697V32.1304H27.2401Z" fill="black"/>
<path d="M28.519 32.1304V30.5752H29.8954V32.1304H28.519Z" fill="black"/>
<path d="M29.7979 32.1304V30.5752H31.1743V32.1304H29.7979Z" fill="black"/>
<path d="M30.9235 32.1304V30.5752H31.688V32.1304H30.9235Z" fill="black"/>
<path d="M31.4373 32.1304V30.5752H32.0491V32.1304H31.4373Z" fill="black"/>
<path d="M31.8744 32.1304V30.5752H32.6389V32.1304H31.8744Z" fill="black"/>
<path d="M32.3881 32.1304V30.5752H33V32.1304H32.3881Z" fill="black"/>
<path d="M6 35.1304V33.5752H6.76449V35.1304H6Z" fill="black"/>
<path d="M6.51375 35.1304V33.5752H7.12561V35.1304H6.51375Z" fill="black"/>
<path d="M6.95085 35.1304V33.5752H7.71534V35.1304H6.95085Z" fill="black"/>
<path d="M7.4646 35.1304V33.5752H8.07646V35.1304H7.4646Z" fill="black"/>
<path d="M7.9017 35.1304V33.5752H9.43136V35.1304H7.9017Z" fill="black"/>
<path d="M9.27609 35.1304V33.5752H10.8058V35.1304H9.27609Z" fill="black"/>
<path d="M10.6317 35.1304V33.5752H11.7021V35.1304H10.6317Z" fill="black"/>
<path d="M11.3754 35.1304V33.5752H11.9872V35.1304H11.3754Z" fill="black"/>
<path d="M11.8125 35.1304V33.5752H12.8829V35.1304H11.8125Z" fill="black"/>
<path d="M12.5562 35.1304V33.5752H14.0858V35.1304H12.5562Z" fill="black"/>
<path d="M13.9117 35.1304V33.5752H15.4414V35.1304H13.9117Z" fill="black"/>
<path d="M15.114 35.1304V33.5752H15.7259V35.1304H15.114Z" fill="black"/>
<path d="M15.5511 35.1304V33.5752H17.2341V35.1304H15.5511Z" fill="black"/>
<path d="M17.0976 35.1304V33.5752H18.474V35.1304H17.0976Z" fill="black"/>
<path d="M18.2999 35.1304V33.5752H19.3703V35.1304H18.2999Z" fill="black"/>
<path d="M19.1969 35.1304V33.5752H20.2673V35.1304H19.1969Z" fill="black"/>
<path d="M19.9406 35.1304V33.5752H21.4703V35.1304H19.9406Z" fill="black"/>
<path d="M21.1429 35.1304V33.5752H22.6725V35.1304H21.1429Z" fill="black"/>
<path d="M22.4218 35.1304V33.5752H23.0336V35.1304H22.4218Z" fill="black"/>
<path d="M22.8589 35.1304V33.5752H24.2352V35.1304H22.8589Z" fill="black"/>
<path d="M24.1378 35.1304V33.5752H25.2082V35.1304H24.1378Z" fill="black"/>
<path d="M24.8815 35.1304V33.5752H26.4112V35.1304H24.8815Z" fill="black"/>
<path d="M26.1604 35.1304V33.5752H27.2308V35.1304H26.1604Z" fill="black"/>
<path d="M26.9041 35.1304V33.5752H28.4338V35.1304H26.9041Z" fill="black"/>
<path d="M28.1064 35.1304V33.5752H29.4827V35.1304H28.1064Z" fill="black"/>
<path d="M29.271 35.1304V33.5752H30.0355V35.1304H29.271Z" fill="black"/>
<path d="M29.8614 35.1304V33.5752H30.4733V35.1304H29.8614Z" fill="black"/>
<path d="M6 38.1304V36.5752H7.98889V38.1304H6Z" fill="black"/>
<path d="M7.89078 38.1304V36.5752H9.42044V38.1304H7.89078Z" fill="black"/>
<path d="M9.09304 38.1304V36.5752H10.4694V38.1304H9.09304Z" fill="black"/>
<path d="M10.2577 38.1304V36.5752H11.634V38.1304H10.2577Z" fill="black"/>
<path d="M11.4223 38.1304V36.5752H12.9519V38.1304H11.4223Z" fill="black"/>
<path d="M12.7012 38.1304V36.5752H14.2308V38.1304H12.7012Z" fill="black"/>
<path d="M14.0568 38.1304V36.5752H15.5864V38.1304H14.0568Z" fill="black"/>
<path d="M15.259 38.1304V36.5752H15.8709V38.1304H15.259Z" fill="black"/>
<path d="M15.6961 38.1304V36.5752H16.7665V38.1304H15.6961Z" fill="black"/>
<path d="M16.5931 38.1304V36.5752H17.8162V38.1304H16.5931Z" fill="black"/>
<path d="M17.6421 38.1304V36.5752H18.2539V38.1304H17.6421Z" fill="black"/>
<path d="M18.0792 38.1304V36.5752H19.7621V38.1304H18.0792Z" fill="black"/>
<path d="M19.6069 38.1304V36.5752H20.8299V38.1304H19.6069Z" fill="black"/>
<path d="M20.6558 38.1304V36.5752H22.0322V38.1304H20.6558Z" fill="black"/>
<path d="M21.725 38.1304V36.5752H22.7954V38.1304H21.725Z" fill="black"/>
<path d="M22.4687 38.1304V36.5752H23.9983V38.1304H22.4687Z" fill="black"/>
<path d="M23.8242 38.1304V36.5752H24.4361V38.1304H23.8242Z" fill="black"/>
<path d="M24.2613 38.1304V36.5752H25.9443V38.1304H24.2613Z" fill="black"/>
<path d="M25.8469 38.1304V36.5752H27.0699V38.1304H25.8469Z" fill="black"/>
<path d="M26.8958 38.1304V36.5752H28.2722V38.1304H26.8958Z" fill="black"/>
<path d="M27.965 38.1304V36.5752H29.4946V38.1304H27.965Z" fill="black"/>
<path d="M29.1672 38.1304V36.5752H30.6969V38.1304H29.1672Z" fill="black"/>
<path d="M30.4461 38.1304V36.5752H31.058V38.1304H30.4461Z" fill="black"/>
<path d="M6 41.1304V39.5752H7.52966V41.1304H6Z" fill="black"/>
<path d="M7.43222 41.1304V39.5752H8.80858V41.1304H7.43222Z" fill="black"/>
<path d="M8.63448 41.1304V39.5752H10.1641V41.1304H8.63448Z" fill="black"/>
<path d="M9.9134 41.1304V39.5752H10.5253V41.1304H9.9134Z" fill="black"/>
<path d="M10.3505 41.1304V39.5752H11.5742V41.1304H10.3505Z" fill="black"/>
<path d="M11.3995 41.1304V39.5752H12.7758V41.1304H11.3995Z" fill="black"/>
<path d="M12.4309 41.1304V39.5752H13.9606V41.1304H12.4309Z" fill="black"/>
<path d="M13.8632 41.1304V39.5752H15.2395V41.1304H13.8632Z" fill="black"/>
<path d="M15.0654 41.1304V39.5752H15.6773V41.1304H15.0654Z" fill="black"/>
<path d="M15.5025 41.1304V39.5752H17.0322V41.1304H15.5025Z" fill="black"/>
<path d="M16.9347 41.1304V39.5752H18.3111V41.1304H16.9347Z" fill="black"/>
<path d="M18.137 41.1304V39.5752H19.6667V41.1304H18.137Z" fill="black"/>
<path d="M19.4159 41.1304V39.5752H20.0278V41.1304H19.4159Z" fill="black"/>
<path d="M19.853 41.1304V39.5752H20.9235V41.1304H19.853Z" fill="black"/>
<path d="M20.5967 41.1304V39.5752H22.1264V41.1304H20.5967Z" fill="black"/>
<path d="M21.9523 41.1304V39.5752H23.482V41.1304H21.9523Z" fill="black"/>
<path d="M23.1546 41.1304V39.5752H23.7664V41.1304H23.1546Z" fill="black"/>
<path d="M23.745 41.1304V39.5752H25.1213V41.1304H23.745Z" fill="black"/>
<path d="M24.8706 41.1304V39.5752H26.4002V41.1304H24.8706Z" fill="black"/>
<path d="M26.2261 41.1304V39.5752H27.4492V41.1304H26.2261Z" fill="black"/>
<path d="M27.4284 41.1304V39.5752H28.8048V41.1304H27.4284Z" fill="black"/>
<path d="M28.554 41.1304V39.5752H29.6244V41.1304H28.554Z" fill="black"/>
<path d="M29.451 41.1304V39.5752H30.9807V41.1304H29.451Z" fill="black"/>
<path d="M30.6533 41.1304V39.5752H31.2652V41.1304H30.6533Z" fill="black"/>
<path d="M6 44.1304V42.5752H7.07043V44.1304H6Z" fill="black"/>
<path d="M7.05031 44.1304V42.5752H8.42666V44.1304H7.05031Z" fill="black"/>
<path d="M8.25257 44.1304V42.5752H8.86444V44.1304H8.25257Z" fill="black"/>
<path d="M8.84297 44.1304V42.5752H10.2193V44.1304H8.84297Z" fill="black"/>
<path d="M10.0452 44.1304V42.5752H11.2683V44.1304H10.0452Z" fill="black"/>
<path d="M11.0942 44.1304V42.5752H12.1646V44.1304H11.0942Z" fill="black"/>
<path d="M11.8379 44.1304V42.5752H13.3676V44.1304H11.8379Z" fill="black"/>
<path d="M13.1935 44.1304V42.5752H13.8053V44.1304H13.1935Z" fill="black"/>
<path d="M13.6306 44.1304V42.5752H15.0069V44.1304H13.6306Z" fill="black"/>
<path d="M14.9095 44.1304V42.5752H16.1325V44.1304H14.9095Z" fill="black"/>
<path d="M15.9585 44.1304V42.5752H17.4881V44.1304H15.9585Z" fill="black"/>
<path d="M17.4673 44.1304V42.5752H18.8437V44.1304H17.4673Z" fill="black"/>
<path d="M18.6696 44.1304V42.5752H19.74V44.1304H18.6696Z" fill="black"/>
<path d="M19.4133 44.1304V42.5752H20.7896V44.1304H19.4133Z" fill="black"/>
<path d="M20.4824 44.1304V42.5752H21.5529V44.1304H20.4824Z" fill="black"/>
<path d="M21.3794 44.1304V42.5752H22.9091V44.1304H21.3794Z" fill="black"/>
<path d="M22.5817 44.1304V42.5752H23.9581V44.1304H22.5817Z" fill="black"/>
<path d="M23.7463 44.1304V42.5752H24.3582V44.1304H23.7463Z" fill="black"/>
<path d="M24.1834 44.1304V42.5752H25.2538V44.1304H24.1834Z" fill="black"/>
<path d="M25.0804 44.1304V42.5752H26.4568V44.1304H25.0804Z" fill="black"/>
<path d="M26.245 44.1304V42.5752H26.8569V44.1304H26.245Z" fill="black"/>
<path d="M26.6821 44.1304V42.5752H27.7525V44.1304H26.6821Z" fill="black"/>
<path d="M27.4258 44.1304V42.5752H28.9555V44.1304H27.4258Z" fill="black"/>
<path d="M28.7814 44.1304V42.5752H30.3111V44.1304H28.7814Z" fill="black"/>
<path d="M30.0603 44.1304V42.5752H31.1307V44.1304H30.0603Z" fill="black"/>
<path d="M30.804 44.1304V42.5752H31.4159V44.1304H30.804Z" fill="black"/>
<path d="M6 47.1304V45.5752H8.14152V47.1304H6Z" fill="black"/>
<path d="M7.89078 47.1304V45.5752H9.42044V47.1304H7.89078Z" fill="black"/>
<path d="M9.09304 47.1304V45.5752H9.70491V47.1304H9.09304Z" fill="black"/>
<path d="M9.53014 47.1304V45.5752H11.0598V47.1304H9.53014Z" fill="black"/>
<path d="M10.8857 47.1304V45.5752H12.4154V47.1304H10.8857Z" fill="black"/>
<path d="M12.088 47.1304V45.5752H13.4643V47.1304H12.088Z" fill="black"/>
<path d="M13.3669 47.1304V45.5752H14.8966V47.1304H13.3669Z" fill="black"/>
<path d="M14.9302 46.8098V46.7006H16.197V46.8098H14.9302Z" fill="black"/>
<path d="M15.8911 47.1304V45.5752H18.0326V47.1304H15.8911Z" fill="black"/>
<path d="M17.7819 47.1304V45.5752H19.3115V47.1304H17.7819Z" fill="black"/>
<path d="M18.9842 47.1304V45.5752H19.596V47.1304H18.9842Z" fill="black"/>
<path d="M19.4213 47.1304V45.5752H21.5628V47.1304H19.4213Z" fill="black"/>
<path d="M21.2354 47.1304V45.5752H22.765V47.1304H21.2354Z" fill="black"/>
<path d="M22.6676 47.1304V45.5752H24.044V47.1304H22.6676Z" fill="black"/>
<path d="M23.8699 47.1304V45.5752H24.9403V47.1304H23.8699Z" fill="black"/>
<path d="M24.6136 47.1304V45.5752H25.2254V47.1304H24.6136Z" fill="black"/>
<path d="M25.0507 47.1304V45.5752H26.1211V47.1304H25.0507Z" fill="black"/>
<path d="M25.9477 47.1304V45.5752H27.1707V47.1304H25.9477Z" fill="black"/>
<path d="M26.9966 47.1304V45.5752H27.6085V47.1304H26.9966Z" fill="black"/>
<path d="M6 50.1304V48.5752H7.37636V50.1304H6Z" fill="black"/>
<path d="M7.31791 50.1304V48.5752H8.54097V50.1304H7.31791Z" fill="black"/>
<path d="M8.36688 50.1304V48.5752H9.4373V50.1304H8.36688Z" fill="black"/>
<path d="M9.18723 50.1304V48.5752H10.5636V50.1304H9.18723Z" fill="black"/>
<path d="M10.4661 50.1304V48.5752H11.9958V50.1304H10.4661Z" fill="black"/>
<path d="M11.6684 50.1304V48.5752H12.2803V50.1304H11.6684Z" fill="black"/>
<path d="M12.1055 50.1304V48.5752H13.1759V50.1304H12.1055Z" fill="black"/>
<path d="M12.8492 50.1304V48.5752H14.3789V50.1304H12.8492Z" fill="black"/>
<path d="M14.2048 50.1304V48.5752H15.7344V50.1304H14.2048Z" fill="black"/>
<path d="M15.407 50.1304V48.5752H16.0189V50.1304H15.407Z" fill="black"/>
<path d="M15.8441 50.1304V48.5752H16.9146V50.1304H15.8441Z" fill="black"/>
<path d="M16.7412 50.1304V48.5752H18.1175V50.1304H16.7412Z" fill="black"/>
<path d="M17.9058 50.1304V48.5752H19.2821V50.1304H17.9058Z" fill="black"/>
<path d="M19.0704 50.1304V48.5752H20.6V50.1304H19.0704Z" fill="black"/>
<path d="M20.4259 50.1304V48.5752H21.9556V50.1304H20.4259Z" fill="black"/>
<path d="M21.6282 50.1304V48.5752H23.0046V50.1304H21.6282Z" fill="black"/>
<path d="M22.7928 50.1304V48.5752H23.4047V50.1304H22.7928Z" fill="black"/>
<path d="M6.1533 53.1304V51.5752H7.52966V53.1304H6.1533Z" fill="black"/>
<path d="M7.27892 53.1304V51.5752H8.80858V53.1304H7.27892Z" fill="black"/>
<path d="M8.48118 53.1304V51.5752H10.0108V53.1304H8.48118Z" fill="black"/>
<path d="M9.7601 53.1304V51.5752H11.1365V53.1304H9.7601Z" fill="black"/>
<path d="M10.8857 53.1304V51.5752H12.4154V53.1304H10.8857Z" fill="black"/>
<path d="M12.088 53.1304V51.5752H13.3117V53.1304H12.088Z" fill="black"/>
<path d="M12.985 53.1304V51.5752H14.5146V53.1304H12.985Z" fill="black"/>
<path d="M14.3405 53.1304V51.5752H15.411V53.1304H14.3405Z" fill="black"/>
<path d="M15.2376 53.1304V51.5752H16.308V53.1304H15.2376Z" fill="black"/>
<path d="M16.2112 53.1304V51.5752H17.5876V53.1304H16.2112Z" fill="black"/>
<path d="M17.3368 53.1304V51.5752H18.1013V53.1304H17.3368Z" fill="black"/>
<path d="M17.8506 53.1304V51.5752H18.6151V53.1304H17.8506Z" fill="black"/>
<path d="M6.30593 8.02578H24.9661V8.09551H6.30593V8.02578ZM6.30593 11.0258H32.2771V11.0955H6.30593V11.0258ZM6.30593 14.0258H31.134V14.0955H6.30593V14.0258ZM6.30593 17.0258H29.3991V17.0955H6.30593V17.0258ZM6.30593 20.0258H32.2771V20.0955H6.30593V20.0258ZM6.30593 23.0258H29.129V23.0955H6.30593V23.0258ZM6.30593 26.0258H30.8449V26.0955H6.30593V26.0258ZM6.30593 29.0258H22.0128V29.0955H6.30593V29.0258ZM6.30593 32.0258H32.6941V32.0955H6.30593V32.0258ZM6.30593 35.0258H30.1673V35.0955H6.30593V35.0258ZM6.30593 38.0258H30.7521V38.0955H6.30593V38.0258ZM6.30593 41.0258H30.9592V41.0955H6.30593V41.0258ZM6.30593 44.0258H31.1093V44.0955H6.30593V44.0258ZM6.30593 47.0258H14.8751V47.0955H6.30593V47.0258ZM14.8751 47.3054H16.197V47.3754H14.8751V47.3054ZM16.197 47.0258H27.3026V47.0955H16.197V47.0258ZM6.30593 50.0258H23.0981V50.0955H6.30593V50.0258ZM6.30593 53.0258H18.802V53.0955H6.30593V53.0258Z" fill="black"/>
</g>
<rect width="12" height="14" transform="translate(25 18.5752)" fill="white"/>
<path d="M30.6787 22.4365C31.5999 22.4365 32.2721 22.6351 32.6953 23.0322C33.1185 23.4261 33.3301 23.9697 33.3301 24.6631C33.3301 24.9756 33.2829 25.2751 33.1885 25.5615C33.0941 25.8447 32.9395 26.097 32.7246 26.3184C32.513 26.5397 32.2298 26.7155 31.875 26.8457C31.5202 26.9727 31.0824 27.0361 30.5615 27.0361H29.9121V29.5752H28.3984V22.4365H30.6787ZM30.6006 23.6768H29.9121V25.7959H30.4102C30.6934 25.7959 30.9391 25.7585 31.1475 25.6836C31.3558 25.6087 31.5169 25.4915 31.6309 25.332C31.7448 25.1725 31.8018 24.9674 31.8018 24.7168C31.8018 24.3652 31.7041 24.1048 31.5088 23.9355C31.3135 23.763 31.0107 23.6768 30.6006 23.6768Z" fill="#585858"/>
</g>
<path d="M11.3333 38.5752H2V44.9233H11.3333V38.5752Z" fill="#E5592D"/>
<path d="M21.6663 38.5752H12.333V44.9233H21.6663V38.5752Z" fill="#BB90BB"/>
</g>
<defs>
<filter id="filter0_d_238_43848" x="0" y="1.5752" width="39" height="35" filterUnits="userSpaceOnUse" color-interpolation-filters="sRGB">
<feFlood flood-opacity="0" result="BackgroundImageFix"/>
<feColorMatrix in="SourceAlpha" type="matrix" values="0 0 0 0 0 0 0 0 0 0 0 0 0 0 0 0 0 0 127 0" result="hardAlpha"/>
<feOffset dy="1"/>
<feGaussianBlur stdDeviation="1"/>
<feComposite in2="hardAlpha" operator="out"/>
<feColorMatrix type="matrix" values="0 0 0 0 0 0 0 0 0 0 0 0 0 0 0 0 0 0 0.1 0"/>
<feBlend mode="normal" in2="BackgroundImageFix" result="effect1_dropShadow_238_43848"/>
<feBlend mode="normal" in="SourceGraphic" in2="effect1_dropShadow_238_43848" result="shape"/>
</filter>
<filter id="filter1_i_238_43848" x="2" y="-2.4248" width="35" height="34" filterUnits="userSpaceOnUse" color-interpolation-filters="sRGB">
<feFlood flood-opacity="0" result="BackgroundImageFix"/>
<feBlend mode="normal" in="SourceGraphic" in2="BackgroundImageFix" result="shape"/>
<feColorMatrix in="SourceAlpha" type="matrix" values="0 0 0 0 0 0 0 0 0 0 0 0 0 0 0 0 0 0 127 0" result="hardAlpha"/>
<feOffset dy="-5"/>
<feGaussianBlur stdDeviation="3.5"/>
<feComposite in2="hardAlpha" operator="arithmetic" k2="-1" k3="1"/>
<feColorMatrix type="matrix" values="0 0 0 0 1 0 0 0 0 1 0 0 0 0 1 0 0 0 1 0"/>
<feBlend mode="normal" in2="shape" result="effect1_innerShadow_238_43848"/>
</filter>
<clipPath id="clip0_238_43848">
<rect width="39" height="46.3481" fill="white" transform="translate(0 0.575195)"/>
</clipPath>
<clipPath id="clip1_238_43848">
<rect width="35" height="31" fill="white" transform="translate(2 2.5752)"/>
</clipPath>
<clipPath id="clip2_238_43848">
<rect width="35" height="29" fill="white" transform="translate(2 2.5752)"/>
</clipPath>
</defs>
</svg>
