<svg width="39" height="48" viewBox="0 0 39 48" fill="none" xmlns="http://www.w3.org/2000/svg">
<g clip-path="url(#clip0_238_43804)">
<g clip-path="url(#clip1_238_43804)" filter="url(#filter0_d_238_43804)">
<rect width="35" height="31" transform="translate(2 2.69727)" fill="white"/>
<g opacity="0.3" filter="url(#filter1_i_238_43804)">
<rect width="35" height="29" transform="translate(2 2.69727)" fill="white"/>
<path d="M6 8.25244V6.69727H6.76503V8.25244H6Z" fill="black"/>
<path d="M6.59081 8.25244V6.69727H8.12154V8.25244H6.59081Z" fill="black"/>
<path d="M7.94732 8.25244V6.69727H9.47805V8.25244H7.94732Z" fill="black"/>
<path d="M9.30383 8.25244V6.69727H10.8346V8.25244H9.30383Z" fill="black"/>
<path d="M10.5069 8.25244V6.69727H11.1192V8.25244H10.5069Z" fill="black"/>
<path d="M10.9443 8.25244V6.69727H12.6285V8.25244H10.9443Z" fill="black"/>
<path d="M12.4731 8.25244V6.69727H13.697V8.25244H12.4731Z" fill="black"/>
<path d="M13.5228 8.25244V6.69727H14.9001V8.25244H13.5228Z" fill="black"/>
<path d="M14.5927 8.25244V6.69727H15.6638V8.25244H14.5927Z" fill="black"/>
<path d="M15.3369 8.25244V6.69727H16.8676V8.25244H15.3369Z" fill="black"/>
<path d="M16.6934 8.25244V6.69727H17.3057V8.25244H16.6934Z" fill="black"/>
<path d="M17.1308 8.25244V6.69727H18.8149V8.25244H17.1308Z" fill="black"/>
<path d="M18.7174 8.25244V6.69727H19.9413V8.25244H18.7174Z" fill="black"/>
<path d="M19.7671 8.25244V6.69727H21.1444V8.25244H19.7671Z" fill="black"/>
<path d="M20.837 8.25244V6.69727H22.3677V8.25244H20.837Z" fill="black"/>
<path d="M22.0401 8.25244V6.69727H23.5708V8.25244H22.0401Z" fill="black"/>
<path d="M23.4733 8.25244V6.69727H24.8506V8.25244H23.4733Z" fill="black"/>
<path d="M24.6764 8.25244V6.69727H26.0537V8.25244H24.6764Z" fill="black"/>
<path d="M25.8418 8.25244V6.69727H26.4541V8.25244H25.8418Z" fill="black"/>
<path d="M26.2792 8.25244V6.69727H27.81V8.25244H26.2792Z" fill="black"/>
<path d="M27.6358 8.25244V6.69727H29.1665V8.25244H27.6358Z" fill="black"/>
<path d="M28.8389 8.25244V6.69727H30.2162V8.25244H28.8389Z" fill="black"/>
<path d="M30.1187 8.25244V6.69727H31.6494V8.25244H30.1187Z" fill="black"/>
<path d="M31.3218 8.25244V6.69727H31.9341V8.25244H31.3218Z" fill="black"/>
<path d="M6.15341 11.2524V9.69727H7.53072V11.2524H6.15341Z" fill="black"/>
<path d="M7.2031 11.2524V9.69727H8.73383V11.2524H7.2031Z" fill="black"/>
<path d="M8.4062 11.2524V9.69727H9.93693V11.2524H8.4062Z" fill="black"/>
<path d="M9.76271 11.2524V9.69727H11.14V11.2524H9.76271Z" fill="black"/>
<path d="M10.9658 11.2524V9.69727H11.5781V11.2524H10.9658Z" fill="black"/>
<path d="M11.4032 11.2524V9.69727H12.4744V11.2524H11.4032Z" fill="black"/>
<path d="M12.3008 11.2524V9.69727H13.5248V11.2524H12.3008Z" fill="black"/>
<path d="M13.3505 11.2524V9.69727H14.4217V11.2524H13.3505Z" fill="black"/>
<path d="M14.2482 11.2524V9.69727H15.7789V11.2524H14.2482Z" fill="black"/>
<path d="M15.528 11.2524V9.69727H16.1403V11.2524H15.528Z" fill="black"/>
<path d="M16.1188 11.2524V9.69727H17.4961V11.2524H16.1188Z" fill="black"/>
<path d="M17.3219 11.2524V9.69727H18.6992V11.2524H17.3219Z" fill="black"/>
<path d="M18.4483 11.2524V9.69727H19.0606V11.2524H18.4483Z" fill="black"/>
<path d="M18.8857 11.2524V9.69727H19.9569V11.2524H18.8857Z" fill="black"/>
<path d="M19.6299 11.2524V9.69727H21.1606V11.2524H19.6299Z" fill="black"/>
<path d="M20.9864 11.2524V9.69727H22.5171V11.2524H20.9864Z" fill="black"/>
<path d="M22.1895 11.2524V9.69727H22.8018V11.2524H22.1895Z" fill="black"/>
<path d="M6.15341 14.2524V12.6973H7.53072V14.2524H6.15341Z" fill="black"/>
<path d="M7.27981 14.2524V12.6973H8.65712V14.2524H7.27981Z" fill="black"/>
<path d="M8.34968 14.2524V12.6973H9.88041V14.2524H8.34968Z" fill="black"/>
<path d="M9.55279 14.2524V12.6973H10.9301V14.2524H9.55279Z" fill="black"/>
<path d="M10.7182 14.2524V12.6973H11.7894V14.2524H10.7182Z" fill="black"/>
<path d="M11.6158 14.2524V12.6973H13.1466V14.2524H11.6158Z" fill="black"/>
<path d="M12.8956 14.2524V12.6973H14.4264V14.2524H12.8956Z" fill="black"/>
<path d="M14.2522 14.2524V12.6973H15.6295V14.2524H14.2522Z" fill="black"/>
<path d="M15.4553 14.2524V12.6973H16.5264V14.2524H15.4553Z" fill="black"/>
<path d="M16.1995 14.2524V12.6973H16.8118V14.2524H16.1995Z" fill="black"/>
<path d="M16.7903 14.2524V12.6973H18.0142V14.2524H16.7903Z" fill="black"/>
<path d="M17.84 14.2524V12.6973H19.0646V14.2524H17.84Z" fill="black"/>
<path d="M18.7376 14.2524V12.6973H19.3499V14.2524H18.7376Z" fill="black"/>
<path d="M19.175 14.2524V12.6973H20.2462V14.2524H19.175Z" fill="black"/>
<path d="M19.9192 14.2524V12.6973H21.45V14.2524H19.9192Z" fill="black"/>
<path d="M21.2757 14.2524V12.6973H22.8065V14.2524H21.2757Z" fill="black"/>
<path d="M22.4788 14.2524V12.6973H23.0911V14.2524H22.4788Z" fill="black"/>
<path d="M22.9163 14.2524V12.6973H24.6004V14.2524H22.9163Z" fill="black"/>
<path d="M24.4639 14.2524V12.6973H25.8412V14.2524H24.4639Z" fill="black"/>
<path d="M25.667 14.2524V12.6973H26.7381V14.2524H25.667Z" fill="black"/>
<path d="M26.5646 14.2524V12.6973H27.6358V14.2524H26.5646Z" fill="black"/>
<path d="M27.3088 14.2524V12.6973H28.8395V14.2524H27.3088Z" fill="black"/>
<path d="M28.5119 14.2524V12.6973H30.0426V14.2524H28.5119Z" fill="black"/>
<path d="M29.7917 14.2524V12.6973H30.404V14.2524H29.7917Z" fill="black"/>
<path d="M6 17.2524V15.6973H7.37731V17.2524H6Z" fill="black"/>
<path d="M7.27981 17.2524V15.6973H8.35098V17.2524H7.27981Z" fill="black"/>
<path d="M8.02403 17.2524V15.6973H9.55475V17.2524H8.02403Z" fill="black"/>
<path d="M9.30383 17.2524V15.6973H10.375V17.2524H9.30383Z" fill="black"/>
<path d="M10.0481 17.2524V15.6973H11.5788V17.2524H10.0481Z" fill="black"/>
<path d="M11.2512 17.2524V15.6973H12.6285V17.2524H11.2512Z" fill="black"/>
<path d="M12.4166 17.2524V15.6973H13.0289V17.2524H12.4166Z" fill="black"/>
<path d="M12.854 17.2524V15.6973H13.9252V17.2524H12.854Z" fill="black"/>
<path d="M13.5982 17.2524V15.6973H15.1289V17.2524H13.5982Z" fill="black"/>
<path d="M14.9547 17.2524V15.6973H16.4854V17.2524H14.9547Z" fill="black"/>
<path d="M16.2345 17.2524V15.6973H17.3057V17.2524H16.2345Z" fill="black"/>
<path d="M16.9787 17.2524V15.6973H17.591V17.2524H16.9787Z" fill="black"/>
<path d="M17.4161 17.2524V15.6973H18.4873V17.2524H17.4161Z" fill="black"/>
<path d="M18.1604 17.2524V15.6973H19.6911V17.2524H18.1604Z" fill="black"/>
<path d="M19.5169 17.2524V15.6973H21.0476V17.2524H19.5169Z" fill="black"/>
<path d="M20.72 17.2524V15.6973H21.3323V17.2524H20.72Z" fill="black"/>
<path d="M21.1574 17.2524V15.6973H22.8415V17.2524H21.1574Z" fill="black"/>
<path d="M22.705 17.2524V15.6973H24.0823V17.2524H22.705Z" fill="black"/>
<path d="M23.9081 17.2524V15.6973H24.9792V17.2524H23.9081Z" fill="black"/>
<path d="M24.8057 17.2524V15.6973H25.8769V17.2524H24.8057Z" fill="black"/>
<path d="M25.5499 17.2524V15.6973H27.0807V17.2524H25.5499Z" fill="black"/>
<path d="M26.753 17.2524V15.6973H28.2838V17.2524H26.753Z" fill="black"/>
<path d="M28.0328 17.2524V15.6973H28.6451V17.2524H28.0328Z" fill="black"/>
<path d="M6 20.2524V18.6973H7.37731V20.2524H6Z" fill="black"/>
<path d="M7.27981 20.2524V18.6973H8.35098V20.2524H7.27981Z" fill="black"/>
<path d="M8.02403 20.2524V18.6973H9.55475V20.2524H8.02403Z" fill="black"/>
<path d="M9.30383 20.2524V18.6973H10.375V20.2524H9.30383Z" fill="black"/>
<path d="M10.0481 20.2524V18.6973H11.5788V20.2524H10.0481Z" fill="black"/>
<path d="M11.2512 20.2524V18.6973H12.6285V20.2524H11.2512Z" fill="black"/>
<path d="M12.4166 20.2524V18.6973H13.0289V20.2524H12.4166Z" fill="black"/>
<path d="M12.854 20.2524V18.6973H14.3847V20.2524H12.854Z" fill="black"/>
<path d="M14.2105 20.2524V18.6973H15.7412V20.2524H14.2105Z" fill="black"/>
<path d="M15.4903 20.2524V18.6973H16.8676V20.2524H15.4903Z" fill="black"/>
<path d="M16.6557 20.2524V18.6973H17.268V20.2524H16.6557Z" fill="black"/>
<path d="M17.2465 20.2524V18.6973H18.6238V20.2524H17.2465Z" fill="black"/>
<path d="M18.603 20.2524V18.6973H19.8269V20.2524H18.603Z" fill="black"/>
<path d="M19.6527 20.2524V18.6973H20.265V20.2524H19.6527Z" fill="black"/>
<path d="M20.0901 20.2524V18.6973H21.1613V20.2524H20.0901Z" fill="black"/>
<path d="M21.1412 20.2524V18.6973H22.5185V20.2524H21.1412Z" fill="black"/>
<path d="M22.3443 20.2524V18.6973H23.4154V20.2524H22.3443Z" fill="black"/>
<path d="M23.0885 20.2524V18.6973H24.6192V20.2524H23.0885Z" fill="black"/>
<path d="M24.445 20.2524V18.6973H25.8223V20.2524H24.445Z" fill="black"/>
<path d="M25.6481 20.2524V18.6973H26.7193V20.2524H25.6481Z" fill="black"/>
<path d="M26.3923 20.2524V18.6973H27.4635V20.2524H26.3923Z" fill="black"/>
<path d="M27.4434 20.2524V18.6973H28.6673V20.2524H27.4434Z" fill="black"/>
<path d="M28.6465 20.2524V18.6973H30.0238V20.2524H28.6465Z" fill="black"/>
<path d="M29.8496 20.2524V18.6973H30.4619V20.2524H29.8496Z" fill="black"/>
<path d="M30.4404 20.2524V18.6973H31.6643V20.2524H30.4404Z" fill="black"/>
<path d="M31.4901 20.2524V18.6973H32.7147V20.2524H31.4901Z" fill="black"/>
<path d="M32.3877 20.2524V18.6973H33V20.2524H32.3877Z" fill="black"/>
<path d="M6 23.2524V21.6973H7.53072V23.2524H6Z" fill="black"/>
<path d="M7.27981 23.2524V21.6973H8.35098V23.2524H7.27981Z" fill="black"/>
<path d="M8.02403 23.2524V21.6973H9.0952V23.2524H8.02403Z" fill="black"/>
<path d="M8.76825 23.2524V21.6973H10.299V23.2524H8.76825Z" fill="black"/>
<path d="M10.0481 23.2524V21.6973H11.4254V23.2524H10.0481Z" fill="black"/>
<path d="M11.1745 23.2524V21.6973H12.7052V23.2524H11.1745Z" fill="black"/>
<path d="M12.4933 23.2524V21.6973H13.5645V23.2524H12.4933Z" fill="black"/>
<path d="M13.5443 23.2524V21.6973H14.9216V23.2524H13.5443Z" fill="black"/>
<path d="M14.7474 23.2524V21.6973H16.2781V23.2524H14.7474Z" fill="black"/>
<path d="M16.1039 23.2524V21.6973H16.7162V23.2524H16.1039Z" fill="black"/>
<path d="M16.6947 23.2524V21.6973H17.9187V23.2524H16.6947Z" fill="black"/>
<path d="M17.7444 23.2524V21.6973H19.1218V23.2524H17.7444Z" fill="black"/>
<path d="M18.8143 23.2524V21.6973H19.4266V23.2524H18.8143Z" fill="black"/>
<path d="M19.2517 23.2524V21.6973H20.3229V23.2524H19.2517Z" fill="black"/>
<path d="M20.3028 23.2524V21.6973H21.6801V23.2524H20.3028Z" fill="black"/>
<path d="M21.4292 23.2524V21.6973H22.8065V23.2524H21.4292Z" fill="black"/>
<path d="M22.6323 23.2524V21.6973H24.163V23.2524H22.6323Z" fill="black"/>
<path d="M23.9121 23.2524V21.6973H25.4428V23.2524H23.9121Z" fill="black"/>
<path d="M25.1919 23.2524V21.6973H26.263V23.2524H25.1919Z" fill="black"/>
<path d="M26.2429 23.2524V21.6973H27.6202V23.2524H26.2429Z" fill="black"/>
<path d="M27.446 23.2524V21.6973H28.9767V23.2524H27.446Z" fill="black"/>
<path d="M28.8025 23.2524V21.6973H29.4148V23.2524H28.8025Z" fill="black"/>
<path d="M6 26.2524V24.6973H7.68413V26.2524H6Z" fill="black"/>
<path d="M7.52876 26.2524V24.6973H8.75266V26.2524H7.52876Z" fill="black"/>
<path d="M8.57845 26.2524V24.6973H9.95577V26.2524H8.57845Z" fill="black"/>
<path d="M9.64833 26.2524V24.6973H10.7195V26.2524H9.64833Z" fill="black"/>
<path d="M10.3926 26.2524V24.6973H11.9233V26.2524H10.3926Z" fill="black"/>
<path d="M11.7491 26.2524V24.6973H12.3614V26.2524H11.7491Z" fill="black"/>
<path d="M12.1865 26.2524V24.6973H13.8706V26.2524H12.1865Z" fill="black"/>
<path d="M13.7731 26.2524V24.6973H14.997V26.2524H13.7731Z" fill="black"/>
<path d="M14.8228 26.2524V24.6973H16.2001V26.2524H14.8228Z" fill="black"/>
<path d="M15.8927 26.2524V24.6973H17.4234V26.2524H15.8927Z" fill="black"/>
<path d="M17.0958 26.2524V24.6973H18.6265V26.2524H17.0958Z" fill="black"/>
<path d="M18.3756 26.2524V24.6973H19.1406V26.2524H18.3756Z" fill="black"/>
<path d="M18.8897 26.2524V24.6973H19.6547V26.2524H18.8897Z" fill="black"/>
<path d="M6.30614 8.14785H31.6279V8.21758H6.30614V8.14785ZM6.30614 11.1479H22.4957V11.2176H6.30614V11.1479ZM6.30614 14.1479H30.0979V14.2176H6.30614V14.1479ZM6.30614 17.1479H28.339V17.2176H6.30614V17.1479ZM6.30614 20.1479H32.6932V20.2176H6.30614V20.1479ZM6.30614 23.1479H29.1087V23.2176H6.30614V23.1479ZM6.30614 26.1479H19.8418V26.2176H6.30614V26.1479Z" fill="black"/>
</g>
<rect width="12" height="14" transform="translate(25 18.6973)" fill="white"/>
<path d="M31.4307 23.7158C31.141 23.7158 30.8838 23.7728 30.6592 23.8867C30.4378 23.9974 30.2507 24.1585 30.0977 24.3701C29.9479 24.5817 29.834 24.8372 29.7559 25.1367C29.6777 25.4362 29.6387 25.7731 29.6387 26.1475C29.6387 26.652 29.7005 27.0833 29.8242 27.4414C29.9512 27.7962 30.1465 28.068 30.4102 28.2568C30.6738 28.4424 31.014 28.5352 31.4307 28.5352C31.7204 28.5352 32.0101 28.5026 32.2998 28.4375C32.5928 28.3724 32.9102 28.2796 33.252 28.1592V29.4287C32.9362 29.5589 32.6253 29.6517 32.3193 29.707C32.0133 29.7656 31.6699 29.7949 31.2891 29.7949C30.5534 29.7949 29.9479 29.6436 29.4727 29.3408C29.0007 29.0348 28.6507 28.6084 28.4229 28.0615C28.195 27.5114 28.0811 26.8701 28.0811 26.1377C28.0811 25.5973 28.1543 25.1025 28.3008 24.6533C28.4473 24.2041 28.6621 23.8151 28.9453 23.4863C29.2285 23.1576 29.5785 22.9036 29.9951 22.7246C30.4118 22.5456 30.8903 22.4561 31.4307 22.4561C31.7855 22.4561 32.1403 22.5016 32.4951 22.5928C32.8532 22.6807 33.195 22.8027 33.5205 22.959L33.0322 24.1895C32.7653 24.0625 32.4967 23.9518 32.2266 23.8574C31.9564 23.763 31.6911 23.7158 31.4307 23.7158Z" fill="#585858"/>
</g>
<path d="M11.3333 38.6973H2V45.0453H11.3333V38.6973Z" fill="#E5592D"/>
</g>
<defs>
<filter id="filter0_d_238_43804" x="0" y="1.69727" width="39" height="35" filterUnits="userSpaceOnUse" color-interpolation-filters="sRGB">
<feFlood flood-opacity="0" result="BackgroundImageFix"/>
<feColorMatrix in="SourceAlpha" type="matrix" values="0 0 0 0 0 0 0 0 0 0 0 0 0 0 0 0 0 0 127 0" result="hardAlpha"/>
<feOffset dy="1"/>
<feGaussianBlur stdDeviation="1"/>
<feComposite in2="hardAlpha" operator="out"/>
<feColorMatrix type="matrix" values="0 0 0 0 0 0 0 0 0 0 0 0 0 0 0 0 0 0 0.1 0"/>
<feBlend mode="normal" in2="BackgroundImageFix" result="effect1_dropShadow_238_43804"/>
<feBlend mode="normal" in="SourceGraphic" in2="effect1_dropShadow_238_43804" result="shape"/>
</filter>
<filter id="filter1_i_238_43804" x="2" y="-2.30273" width="35" height="34" filterUnits="userSpaceOnUse" color-interpolation-filters="sRGB">
<feFlood flood-opacity="0" result="BackgroundImageFix"/>
<feBlend mode="normal" in="SourceGraphic" in2="BackgroundImageFix" result="shape"/>
<feColorMatrix in="SourceAlpha" type="matrix" values="0 0 0 0 0 0 0 0 0 0 0 0 0 0 0 0 0 0 127 0" result="hardAlpha"/>
<feOffset dy="-5"/>
<feGaussianBlur stdDeviation="3.5"/>
<feComposite in2="hardAlpha" operator="arithmetic" k2="-1" k3="1"/>
<feColorMatrix type="matrix" values="0 0 0 0 1 0 0 0 0 1 0 0 0 0 1 0 0 0 1 0"/>
<feBlend mode="normal" in2="shape" result="effect1_innerShadow_238_43804"/>
</filter>
<clipPath id="clip0_238_43804">
<rect width="39" height="46.3481" fill="white" transform="translate(0 0.697266)"/>
</clipPath>
<clipPath id="clip1_238_43804">
<rect width="35" height="31" fill="white" transform="translate(2 2.69727)"/>
</clipPath>
</defs>
</svg>
