<svg width="39" height="48" viewBox="0 0 39 48" fill="none" xmlns="http://www.w3.org/2000/svg">
<g clip-path="url(#clip0_238_43793)">
<g clip-path="url(#clip1_238_43793)" filter="url(#filter0_d_238_43793)">
<rect width="35" height="31" transform="translate(2 2.79395)" fill="white"/>
<g opacity="0.3" filter="url(#filter1_i_238_43793)">
<rect width="35" height="29" transform="translate(2 2.79395)" fill="white"/>
<path d="M6 8.34912V6.79395H6.7872V8.34912H6Z" fill="black"/>
<path d="M6.60793 8.34912V6.79395H8.18302V8.34912H6.60793Z" fill="black"/>
<path d="M8.00376 8.34912V6.79395H9.57884V8.34912H8.00376Z" fill="black"/>
<path d="M9.39958 8.34912V6.79395H10.9747V8.34912H9.39958Z" fill="black"/>
<path d="M10.6375 8.34912V6.79395H11.2676V8.34912H10.6375Z" fill="black"/>
<path d="M11.2455 8.34912V6.79395H12.6627V8.34912H11.2455Z" fill="black"/>
<path d="M12.4045 8.34912V6.79395H13.8217V8.34912H12.4045Z" fill="black"/>
<path d="M13.5054 8.34912V6.79395H15.0805V8.34912H13.5054Z" fill="black"/>
<path d="M14.7434 8.34912V6.79395H16.1606V8.34912H14.7434Z" fill="black"/>
<path d="M15.9426 8.34912V6.79395H17.0448V8.34912H15.9426Z" fill="black"/>
<path d="M16.8662 8.34912V6.79395H18.4413V8.34912H16.8662Z" fill="black"/>
<path d="M18.1831 8.34912V6.79395H19.7582V8.34912H18.1831Z" fill="black"/>
<path d="M19.5789 8.34912V6.79395H20.9962V8.34912H19.5789Z" fill="black"/>
<path d="M20.8169 8.34912V6.79395H21.9191V8.34912H20.8169Z" fill="black"/>
<path d="M21.5827 8.34912V6.79395H22.2127V8.34912H21.5827Z" fill="black"/>
<path d="M22.0328 8.34912V6.79395H23.6078V8.34912H22.0328Z" fill="black"/>
<path d="M23.4286 8.34912V6.79395H25.0037V8.34912H23.4286Z" fill="black"/>
<path d="M24.7455 8.34912V6.79395H26.1627V8.34912H24.7455Z" fill="black"/>
<path d="M25.9447 8.34912V6.79395H26.5747V8.34912H25.9447Z" fill="black"/>
<path d="M26.3948 8.34912V6.79395H28.4427V8.34912H26.3948Z" fill="black"/>
<path d="M28.3417 8.34912V6.79395H29.9168V8.34912H28.3417Z" fill="black"/>
<path d="M29.6586 8.34912V6.79395H31.2337V8.34912H29.6586Z" fill="black"/>
<path d="M30.9755 8.34912V6.79395H32.5506V8.34912H30.9755Z" fill="black"/>
<path d="M32.2134 8.34912V6.79395H32.8435V8.34912H32.2134Z" fill="black"/>
<path d="M6 11.3491V9.79395H7.10221V11.3491H6Z" fill="black"/>
<path d="M6.92364 11.3491V9.79395H8.02586V11.3491H6.92364Z" fill="black"/>
<path d="M7.68943 11.3491V9.79395H8.31947V11.3491H7.68943Z" fill="black"/>
<path d="M8.13951 11.3491V9.79395H9.55674V11.3491H8.13951Z" fill="black"/>
<path d="M9.29855 11.3491V9.79395H10.4008V11.3491H9.29855Z" fill="black"/>
<path d="M10.2222 11.3491V9.79395H11.7973V11.3491H10.2222Z" fill="black"/>
<path d="M11.4602 11.3491V9.79395H13.0352V11.3491H11.4602Z" fill="black"/>
<path d="M12.7771 11.3491V9.79395H14.1943V11.3491H12.7771Z" fill="black"/>
<path d="M13.8779 11.3491V9.79395H14.508V11.3491H13.8779Z" fill="black"/>
<path d="M14.328 11.3491V9.79395H15.4302V11.3491H14.328Z" fill="black"/>
<path d="M15.0938 11.3491V9.79395H16.6689V11.3491H15.0938Z" fill="black"/>
<path d="M16.4896 11.3491V9.79395H18.0647V11.3491H16.4896Z" fill="black"/>
<path d="M17.8065 11.3491V9.79395H18.9087V11.3491H17.8065Z" fill="black"/>
<path d="M18.5723 11.3491V9.79395H19.2023V11.3491H18.5723Z" fill="black"/>
<path d="M19.0224 11.3491V9.79395H20.5975V11.3491H19.0224Z" fill="black"/>
<path d="M20.4182 11.3491V9.79395H21.9933V11.3491H20.4182Z" fill="black"/>
<path d="M21.6562 11.3491V9.79395H22.2862V11.3491H21.6562Z" fill="black"/>
<path d="M22.1063 11.3491V9.79395H23.6813V11.3491H22.1063Z" fill="black"/>
<path d="M23.5021 11.3491V9.79395H25.0772V11.3491H23.5021Z" fill="black"/>
<path d="M24.819 11.3491V9.79395H26.2362V11.3491H24.819Z" fill="black"/>
<path d="M26.0182 11.3491V9.79395H26.6482V11.3491H26.0182Z" fill="black"/>
<path d="M26.6261 11.3491V9.79395H28.0433V11.3491H26.6261Z" fill="black"/>
<path d="M28.0219 11.3491V9.79395H29.2813V11.3491H28.0219Z" fill="black"/>
<path d="M29.102 11.3491V9.79395H29.7321V11.3491H29.102Z" fill="black"/>
<path d="M6 14.3491V12.7939H7.10221V14.3491H6Z" fill="black"/>
<path d="M7.0815 14.3491V12.7939H8.49873V14.3491H7.0815Z" fill="black"/>
<path d="M8.31947 14.3491V12.7939H9.42168V14.3491H8.31947Z" fill="black"/>
<path d="M9.08525 14.3491V12.7939H10.6603V14.3491H9.08525Z" fill="black"/>
<path d="M10.4811 14.3491V12.7939H11.8983V14.3491H10.4811Z" fill="black"/>
<path d="M11.719 14.3491V12.7939H12.8213V14.3491H11.719Z" fill="black"/>
<path d="M12.4848 14.3491V12.7939H13.587V14.3491H12.4848Z" fill="black"/>
<path d="M13.5663 14.3491V12.7939H14.8257V14.3491H13.5663Z" fill="black"/>
<path d="M14.8043 14.3491V12.7939H16.2215V14.3491H14.8043Z" fill="black"/>
<path d="M16.0423 14.3491V12.7939H16.6723V14.3491H16.0423Z" fill="black"/>
<path d="M16.6502 14.3491V12.7939H17.9096V14.3491H16.6502Z" fill="black"/>
<path d="M17.7303 14.3491V12.7939H18.9904V14.3491H17.7303Z" fill="black"/>
<path d="M18.654 14.3491V12.7939H19.284V14.3491H18.654Z" fill="black"/>
<path d="M19.104 14.3491V12.7939H20.2062V14.3491H19.104Z" fill="black"/>
<path d="M20.1855 14.3491V12.7939H21.6028V14.3491H20.1855Z" fill="black"/>
<path d="M21.3446 14.3491V12.7939H22.7618V14.3491H21.3446Z" fill="black"/>
<path d="M22.5825 14.3491V12.7939H24.1576V14.3491H22.5825Z" fill="black"/>
<path d="M23.8994 14.3491V12.7939H25.4745V14.3491H23.8994Z" fill="black"/>
<path d="M25.2163 14.3491V12.7939H26.3185V14.3491H25.2163Z" fill="black"/>
<path d="M26.2978 14.3491V12.7939H27.7151V14.3491H26.2978Z" fill="black"/>
<path d="M27.5358 14.3491V12.7939H29.1109V14.3491H27.5358Z" fill="black"/>
<path d="M28.9316 14.3491V12.7939H29.5617V14.3491H28.9316Z" fill="black"/>
<path d="M6 17.3491V15.7939H7.73294V17.3491H6Z" fill="black"/>
<path d="M7.57306 17.3491V15.7939H8.83244V17.3491H7.57306Z" fill="black"/>
<path d="M8.65318 17.3491V15.7939H10.0704V17.3491H8.65318Z" fill="black"/>
<path d="M9.75406 17.3491V15.7939H10.8563V17.3491H9.75406Z" fill="black"/>
<path d="M10.5198 17.3491V15.7939H12.0949V17.3491H10.5198Z" fill="black"/>
<path d="M11.9157 17.3491V15.7939H12.5457V17.3491H11.9157Z" fill="black"/>
<path d="M12.3657 17.3491V15.7939H14.0987V17.3491H12.3657Z" fill="black"/>
<path d="M13.9984 17.3491V15.7939H15.2577V17.3491H13.9984Z" fill="black"/>
<path d="M15.0785 17.3491V15.7939H16.4957V17.3491H15.0785Z" fill="black"/>
<path d="M16.1793 17.3491V15.7939H17.7544V17.3491H16.1793Z" fill="black"/>
<path d="M17.4173 17.3491V15.7939H18.9924V17.3491H17.4173Z" fill="black"/>
<path d="M18.7342 17.3491V15.7939H19.3642V17.3491H18.7342Z" fill="black"/>
<path d="M19.3421 17.3491V15.7939H20.6015V17.3491H19.3421Z" fill="black"/>
<path d="M20.4223 17.3491V15.7939H21.8395V17.3491H20.4223Z" fill="black"/>
<path d="M21.5231 17.3491V15.7939H22.1532V17.3491H21.5231Z" fill="black"/>
<path d="M21.9732 17.3491V15.7939H23.5483V17.3491H21.9732Z" fill="black"/>
<path d="M23.2901 17.3491V15.7939H24.3923V17.3491H23.2901Z" fill="black"/>
<path d="M24.0559 17.3491V15.7939H25.1581V17.3491H24.0559Z" fill="black"/>
<path d="M24.8217 17.3491V15.7939H26.3968V17.3491H24.8217Z" fill="black"/>
<path d="M26.1386 17.3491V15.7939H27.5558V17.3491H26.1386Z" fill="black"/>
<path d="M27.2976 17.3491V15.7939H28.8727V17.3491H27.2976Z" fill="black"/>
<path d="M28.6547 17.3491V15.7939H29.7569V17.3491H28.6547Z" fill="black"/>
<path d="M29.7362 17.3491V15.7939H31.1534V17.3491H29.7362Z" fill="black"/>
<path d="M30.9741 17.3491V15.7939H32.5492V17.3491H30.9741Z" fill="black"/>
<path d="M32.37 17.3491V15.7939H33V17.3491H32.37Z" fill="black"/>
<path d="M6 20.3491V18.7939H7.73294V20.3491H6Z" fill="black"/>
<path d="M7.57306 20.3491V18.7939H8.83244V20.3491H7.57306Z" fill="black"/>
<path d="M8.65318 20.3491V18.7939H10.0704V20.3491H8.65318Z" fill="black"/>
<path d="M9.75406 20.3491V18.7939H10.8563V20.3491H9.75406Z" fill="black"/>
<path d="M10.5198 20.3491V18.7939H12.0949V20.3491H10.5198Z" fill="black"/>
<path d="M11.9157 20.3491V18.7939H12.5457V20.3491H11.9157Z" fill="black"/>
<path d="M12.3657 20.3491V18.7939H14.0987V20.3491H12.3657Z" fill="black"/>
<path d="M13.9984 20.3491V18.7939H15.2577V20.3491H13.9984Z" fill="black"/>
<path d="M15.0785 20.3491V18.7939H16.4957V20.3491H15.0785Z" fill="black"/>
<path d="M16.1793 20.3491V18.7939H17.7544V20.3491H16.1793Z" fill="black"/>
<path d="M17.4173 20.3491V18.7939H18.9924V20.3491H17.4173Z" fill="black"/>
<path d="M18.7342 20.3491V18.7939H19.5214V20.3491H18.7342Z" fill="black"/>
<path d="M19.2632 20.3491V18.7939H20.0504V20.3491H19.2632Z" fill="black"/>
<path d="M6.31502 8.24453H32.5285V8.31426H6.31502V8.24453ZM6.31502 11.2445H29.4171V11.3143H6.31502V11.2445ZM6.31502 14.2445H29.2466V14.3143H6.31502V14.2445ZM6.31502 17.2445H32.685V17.3143H6.31502V17.2445ZM6.31502 20.2445H20.2429V20.3143H6.31502V20.2445Z" fill="black"/>
</g>
<rect width="12" height="14" transform="translate(25 18.7939)" fill="white"/>
<path d="M31.4307 23.8125C31.141 23.8125 30.8838 23.8695 30.6592 23.9834C30.4378 24.0941 30.2507 24.2552 30.0977 24.4668C29.9479 24.6784 29.834 24.9339 29.7559 25.2334C29.6777 25.5329 29.6387 25.8698 29.6387 26.2441C29.6387 26.7487 29.7005 27.18 29.8242 27.5381C29.9512 27.8929 30.1465 28.1647 30.4102 28.3535C30.6738 28.5391 31.014 28.6318 31.4307 28.6318C31.7204 28.6318 32.0101 28.5993 32.2998 28.5342C32.5928 28.4691 32.9102 28.3763 33.252 28.2559V29.5254C32.9362 29.6556 32.6253 29.7484 32.3193 29.8037C32.0133 29.8623 31.6699 29.8916 31.2891 29.8916C30.5534 29.8916 29.9479 29.7402 29.4727 29.4375C29.0007 29.1315 28.6507 28.7051 28.4229 28.1582C28.195 27.6081 28.0811 26.9668 28.0811 26.2344C28.0811 25.694 28.1543 25.1992 28.3008 24.75C28.4473 24.3008 28.6621 23.9118 28.9453 23.583C29.2285 23.2542 29.5785 23.0003 29.9951 22.8213C30.4118 22.6423 30.8903 22.5527 31.4307 22.5527C31.7855 22.5527 32.1403 22.5983 32.4951 22.6895C32.8532 22.7773 33.195 22.8994 33.5205 23.0557L33.0322 24.2861C32.7653 24.1592 32.4967 24.0485 32.2266 23.9541C31.9564 23.8597 31.6911 23.8125 31.4307 23.8125Z" fill="#585858"/>
</g>
<path d="M11.3333 38.7939H2V45.142H11.3333V38.7939Z" fill="#E5592D"/>
</g>
<defs>
<filter id="filter0_d_238_43793" x="0" y="1.79395" width="39" height="35" filterUnits="userSpaceOnUse" color-interpolation-filters="sRGB">
<feFlood flood-opacity="0" result="BackgroundImageFix"/>
<feColorMatrix in="SourceAlpha" type="matrix" values="0 0 0 0 0 0 0 0 0 0 0 0 0 0 0 0 0 0 127 0" result="hardAlpha"/>
<feOffset dy="1"/>
<feGaussianBlur stdDeviation="1"/>
<feComposite in2="hardAlpha" operator="out"/>
<feColorMatrix type="matrix" values="0 0 0 0 0 0 0 0 0 0 0 0 0 0 0 0 0 0 0.1 0"/>
<feBlend mode="normal" in2="BackgroundImageFix" result="effect1_dropShadow_238_43793"/>
<feBlend mode="normal" in="SourceGraphic" in2="effect1_dropShadow_238_43793" result="shape"/>
</filter>
<filter id="filter1_i_238_43793" x="2" y="-2.20605" width="35" height="34" filterUnits="userSpaceOnUse" color-interpolation-filters="sRGB">
<feFlood flood-opacity="0" result="BackgroundImageFix"/>
<feBlend mode="normal" in="SourceGraphic" in2="BackgroundImageFix" result="shape"/>
<feColorMatrix in="SourceAlpha" type="matrix" values="0 0 0 0 0 0 0 0 0 0 0 0 0 0 0 0 0 0 127 0" result="hardAlpha"/>
<feOffset dy="-5"/>
<feGaussianBlur stdDeviation="3.5"/>
<feComposite in2="hardAlpha" operator="arithmetic" k2="-1" k3="1"/>
<feColorMatrix type="matrix" values="0 0 0 0 1 0 0 0 0 1 0 0 0 0 1 0 0 0 1 0"/>
<feBlend mode="normal" in2="shape" result="effect1_innerShadow_238_43793"/>
</filter>
<clipPath id="clip0_238_43793">
<rect width="39" height="46.3481" fill="white" transform="translate(0 0.793945)"/>
</clipPath>
<clipPath id="clip1_238_43793">
<rect width="35" height="31" fill="white" transform="translate(2 2.79395)"/>
</clipPath>
</defs>
</svg>
