<svg width="39" height="47" viewBox="0 0 39 47" fill="none" xmlns="http://www.w3.org/2000/svg">
<g clip-path="url(#clip0_238_43587)">
<g filter="url(#filter0_d_238_43587)">
<rect width="35" height="31" transform="translate(2 2)" fill="white"/>
<g opacity="0.3" clip-path="url(#clip1_238_43587)" filter="url(#filter1_i_238_43587)">
<rect width="35" height="29" transform="translate(2 2)" fill="white"/>
<path d="M32.56 6H6V7.55H33V6H32.56Z" fill="black"/>
<path d="M7.71015 10.55H24.0302V9H6.16016V10.55H7.71015Z" fill="black"/>
<path d="M31.76 12H6V13.55H32.38V12H31.76Z" fill="black"/>
<path d="M7.55 16.55H30.09V15H6V16.55H7.55Z" fill="black"/>
<path d="M31.1504 18H6.15039V19.55H31.1504V18Z" fill="black"/>
<path d="M30.4902 21H6.16016V22.55H31.1602V21H30.4902Z" fill="black"/>
<path d="M31.11 24H6V25.55H31.73V24H31.11Z" fill="black"/>
<path d="M31.09 27H14.48V28.45H14.42V27H6V28.55H14.42H14.48H31.71V27H31.09Z" fill="black"/>
<path d="M30.09 30H6V31.55H30.09H30.28V31.48H30.09V30Z" fill="black"/>
</g>
<rect width="12" height="14" transform="translate(25 18)" fill="white"/>
<path d="M30.6787 21.8613C31.5999 21.8613 32.2721 22.0599 32.6953 22.457C33.1185 22.8509 33.3301 23.3945 33.3301 24.0879C33.3301 24.4004 33.2829 24.6999 33.1885 24.9863C33.0941 25.2695 32.9395 25.5218 32.7246 25.7432C32.513 25.9645 32.2298 26.1403 31.875 26.2705C31.5202 26.3975 31.0824 26.4609 30.5615 26.4609H29.9121V29H28.3984V21.8613H30.6787ZM30.6006 23.1016H29.9121V25.2207H30.4102C30.6934 25.2207 30.9391 25.1833 31.1475 25.1084C31.3558 25.0335 31.5169 24.9163 31.6309 24.7568C31.7448 24.5973 31.8018 24.3923 31.8018 24.1416C31.8018 23.79 31.7041 23.5296 31.5088 23.3604C31.3135 23.1878 31.0107 23.1016 30.6006 23.1016Z" fill="#585858"/>
</g>
<path d="M11.3333 38H2V44.3481H11.3333V38Z" fill="#E1C278"/>
</g>
<defs>
<filter id="filter0_d_238_43587" x="0" y="1" width="39" height="35" filterUnits="userSpaceOnUse" color-interpolation-filters="sRGB">
<feFlood flood-opacity="0" result="BackgroundImageFix"/>
<feColorMatrix in="SourceAlpha" type="matrix" values="0 0 0 0 0 0 0 0 0 0 0 0 0 0 0 0 0 0 127 0" result="hardAlpha"/>
<feOffset dy="1"/>
<feGaussianBlur stdDeviation="1"/>
<feComposite in2="hardAlpha" operator="out"/>
<feColorMatrix type="matrix" values="0 0 0 0 0 0 0 0 0 0 0 0 0 0 0 0 0 0 0.1 0"/>
<feBlend mode="normal" in2="BackgroundImageFix" result="effect1_dropShadow_238_43587"/>
<feBlend mode="normal" in="SourceGraphic" in2="effect1_dropShadow_238_43587" result="shape"/>
</filter>
<filter id="filter1_i_238_43587" x="2" y="-3" width="35" height="34" filterUnits="userSpaceOnUse" color-interpolation-filters="sRGB">
<feFlood flood-opacity="0" result="BackgroundImageFix"/>
<feBlend mode="normal" in="SourceGraphic" in2="BackgroundImageFix" result="shape"/>
<feColorMatrix in="SourceAlpha" type="matrix" values="0 0 0 0 0 0 0 0 0 0 0 0 0 0 0 0 0 0 127 0" result="hardAlpha"/>
<feOffset dy="-5"/>
<feGaussianBlur stdDeviation="3.5"/>
<feComposite in2="hardAlpha" operator="arithmetic" k2="-1" k3="1"/>
<feColorMatrix type="matrix" values="0 0 0 0 1 0 0 0 0 1 0 0 0 0 1 0 0 0 1 0"/>
<feBlend mode="normal" in2="shape" result="effect1_innerShadow_238_43587"/>
</filter>
<clipPath id="clip0_238_43587">
<rect width="39" height="46.3481" fill="white"/>
</clipPath>
<clipPath id="clip1_238_43587">
<rect width="35" height="29" fill="white" transform="translate(2 2)"/>
</clipPath>
</defs>
</svg>
