<svg width="41" height="48" viewBox="0 0 41 48" fill="none" xmlns="http://www.w3.org/2000/svg">
<g clip-path="url(#clip0_238_43859)">
<rect width="35" height="31" transform="translate(3 3.47852)" fill="white"/>
<g opacity="0.3" clip-path="url(#clip1_238_43859)" filter="url(#filter0_i_238_43859)">
<rect width="35" height="29" transform="translate(3 3.47852)" fill="white"/>
<path d="M7 9.03369V7.47852H7.76176V9.03369H7Z" fill="black"/>
<path d="M7.58829 9.03369V7.47852H9.11249V9.03369H7.58829Z" fill="black"/>
<path d="M8.93902 9.03369V7.47852H10.4632V9.03369H8.93902Z" fill="black"/>
<path d="M10.2897 9.03369V7.47852H11.6612V9.03369H10.2897Z" fill="black"/>
<path d="M11.3551 9.03369V7.47852H11.9647V9.03369H11.3551Z" fill="black"/>
<path d="M11.7906 9.03369V7.47852H13.3148V9.03369H11.7906Z" fill="black"/>
<path d="M13.0649 9.03369V7.47852H14.5891V9.03369H13.0649Z" fill="black"/>
<path d="M14.2629 9.03369V7.47852H15.6343V9.03369H14.2629Z" fill="black"/>
<path d="M15.4234 9.03369V7.47852H16.49V9.03369H15.4234Z" fill="black"/>
<path d="M16.3172 9.03369V7.47852H17.6886V9.03369H16.3172Z" fill="black"/>
<path d="M17.3825 9.03369V7.47852H18.9067V9.03369H17.3825Z" fill="black"/>
<path d="M18.5804 9.03369V7.47852H19.1901V9.03369H18.5804Z" fill="black"/>
<path d="M19.016 9.03369V7.47852H20.0826V9.03369H19.016Z" fill="black"/>
<path d="M19.9098 9.03369V7.47852H21.2812V9.03369H19.9098Z" fill="black"/>
<path d="M21.0702 9.03369V7.47852H21.6799V9.03369H21.0702Z" fill="black"/>
<path d="M21.5058 9.03369V7.47852H22.5724V9.03369H21.5058Z" fill="black"/>
<path d="M22.3996 9.03369V7.47852H23.6183V9.03369H22.3996Z" fill="black"/>
<path d="M23.4448 9.03369V7.47852H24.0545V9.03369H23.4448Z" fill="black"/>
<path d="M23.8803 9.03369V7.47852H25.2518V9.03369H23.8803Z" fill="black"/>
<path d="M25.1935 9.03369V7.47852H26.4122V9.03369H25.1935Z" fill="black"/>
<path d="M26.2387 9.03369V7.47852H27.3053V9.03369H26.2387Z" fill="black"/>
<path d="M27.0562 9.03369V7.47852H28.4276V9.03369H27.0562Z" fill="black"/>
<path d="M28.3305 9.03369V7.47852H29.8547V9.03369H28.3305Z" fill="black"/>
<path d="M29.5285 9.03369V7.47852H30.1382V9.03369H29.5285Z" fill="black"/>
<path d="M29.964 9.03369V7.47852H31.0306V9.03369H29.964Z" fill="black"/>
<path d="M30.7051 9.03369V7.47852H32.2293V9.03369H30.7051Z" fill="black"/>
<path d="M32.0558 9.03369V7.47852H33.58V9.03369H32.0558Z" fill="black"/>
<path d="M33.2538 9.03369V7.47852H33.8634V9.03369H33.2538Z" fill="black"/>
<path d="M7 12.0337V10.4785H8.67695V12.0337H7Z" fill="black"/>
<path d="M8.52224 12.0337V10.4785H9.74092V12.0337H8.52224Z" fill="black"/>
<path d="M9.56745 12.0337V10.4785H10.9389V12.0337H9.56745Z" fill="black"/>
<path d="M10.6328 12.0337V10.4785H11.6994V12.0337H10.6328Z" fill="black"/>
<path d="M11.3738 12.0337V10.4785H12.898V12.0337H11.3738Z" fill="black"/>
<path d="M12.7245 12.0337V10.4785H13.3342V12.0337H12.7245Z" fill="black"/>
<path d="M13.1601 12.0337V10.4785H14.837V12.0337H13.1601Z" fill="black"/>
<path d="M14.7399 12.0337V10.4785H15.9586V12.0337H14.7399Z" fill="black"/>
<path d="M15.7851 12.0337V10.4785H17.1566V12.0337H15.7851Z" fill="black"/>
<path d="M16.8505 12.0337V10.4785H18.3747V12.0337H16.8505Z" fill="black"/>
<path d="M18.0484 12.0337V10.4785H19.5726V12.0337H18.0484Z" fill="black"/>
<path d="M19.4755 12.0337V10.4785H20.847V12.0337H19.4755Z" fill="black"/>
<path d="M20.6735 12.0337V10.4785H21.2832V12.0337H20.6735Z" fill="black"/>
<path d="M21.109 12.0337V10.4785H22.1756V12.0337H21.109Z" fill="black"/>
<path d="M22.0028 12.0337V10.4785H23.3743V12.0337H22.0028Z" fill="black"/>
<path d="M23.1633 12.0337V10.4785H24.5347V12.0337H23.1633Z" fill="black"/>
<path d="M24.3237 12.0337V10.4785H25.8479V12.0337H24.3237Z" fill="black"/>
<path d="M25.6745 12.0337V10.4785H27.1987V12.0337H25.6745Z" fill="black"/>
<path d="M26.8724 12.0337V10.4785H27.4821V12.0337H26.8724Z" fill="black"/>
<path d="M7.15275 15.0337V13.4785H8.52419V15.0337H7.15275Z" fill="black"/>
<path d="M8.27435 15.0337V13.4785H9.79854V15.0337H8.27435Z" fill="black"/>
<path d="M9.47232 15.0337V13.4785H10.9965V15.0337H9.47232Z" fill="black"/>
<path d="M10.7467 15.0337V13.4785H12.1181V15.0337H10.7467Z" fill="black"/>
<path d="M11.8683 15.0337V13.4785H13.3924V15.0337H11.8683Z" fill="black"/>
<path d="M13.0662 15.0337V13.4785H14.2856V15.0337H13.0662Z" fill="black"/>
<path d="M13.96 15.0337V13.4785H15.4842V15.0337H13.96Z" fill="black"/>
<path d="M15.3107 15.0337V13.4785H16.3773V15.0337H15.3107Z" fill="black"/>
<path d="M16.2045 15.0337V13.4785H17.2711V15.0337H16.2045Z" fill="black"/>
<path d="M17.1747 15.0337V13.4785H18.5462V15.0337H17.1747Z" fill="black"/>
<path d="M18.2963 15.0337V13.4785H19.0581V15.0337H18.2963Z" fill="black"/>
<path d="M18.8082 15.0337V13.4785H19.4179V15.0337H18.8082Z" fill="black"/>
<path d="M19.2438 15.0337V13.4785H20.9207V15.0337H19.2438Z" fill="black"/>
<path d="M20.8236 15.0337V13.4785H22.1951V15.0337H20.8236Z" fill="black"/>
<path d="M22.0216 15.0337V13.4785H23.5458V15.0337H22.0216Z" fill="black"/>
<path d="M23.2959 15.0337V13.4785H23.9056V15.0337H23.2959Z" fill="black"/>
<path d="M23.7315 15.0337V13.4785H25.2557V15.0337H23.7315Z" fill="black"/>
<path d="M25.0058 15.0337V13.4785H26.3773V15.0337H25.0058Z" fill="black"/>
<path d="M26.1663 15.0337V13.4785H26.776V15.0337H26.1663Z" fill="black"/>
<path d="M26.6018 15.0337V13.4785H27.8212V15.0337H26.6018Z" fill="black"/>
<path d="M27.647 15.0337V13.4785H28.4088V15.0337H27.647Z" fill="black"/>
<path d="M28.2353 15.0337V13.4785H29.6068V15.0337H28.2353Z" fill="black"/>
<path d="M29.5097 15.0337V13.4785H31.0339V15.0337H29.5097Z" fill="black"/>
<path d="M30.7076 15.0337V13.4785H31.3173V15.0337H30.7076Z" fill="black"/>
<path d="M7 18.0337V16.4785H8.98179V18.0337H7Z" fill="black"/>
<path d="M8.88402 18.0337V16.4785H10.4082V18.0337H8.88402Z" fill="black"/>
<path d="M10.1584 18.0337V16.4785H11.6826V18.0337H10.1584Z" fill="black"/>
<path d="M11.4327 18.0337V16.4785H12.9569V18.0337H11.4327Z" fill="black"/>
<path d="M12.6307 18.0337V16.4785H13.2404V18.0337H12.6307Z" fill="black"/>
<path d="M13.0662 18.0337V16.4785H14.4377V18.0337H13.0662Z" fill="black"/>
<path d="M14.1878 18.0337V16.4785H15.2544V18.0337H14.1878Z" fill="black"/>
<path d="M15.0816 18.0337V16.4785H16.6058V18.0337H15.0816Z" fill="black"/>
<path d="M16.2796 18.0337V16.4785H17.8038V18.0337H16.2796Z" fill="black"/>
<path d="M17.5539 18.0337V16.4785H18.9254V18.0337H17.5539Z" fill="black"/>
<path d="M18.6192 18.0337V16.4785H19.2289V18.0337H18.6192Z" fill="black"/>
<path d="M19.0548 18.0337V16.4785H20.1214V18.0337H19.0548Z" fill="black"/>
<path d="M20.1013 18.0337V16.4785H21.4728V18.0337H20.1013Z" fill="black"/>
<path d="M21.2993 18.0337V16.4785H21.909V18.0337H21.2993Z" fill="black"/>
<path d="M21.7348 18.0337V16.4785H23.259V18.0337H21.7348Z" fill="black"/>
<path d="M23.0092 18.0337V16.4785H23.6189V18.0337H23.0092Z" fill="black"/>
<path d="M23.4447 18.0337V16.4785H24.8162V18.0337H23.4447Z" fill="black"/>
<path d="M24.7579 18.0337V16.4785H26.1294V18.0337H24.7579Z" fill="black"/>
<path d="M25.8795 18.0337V16.4785H27.4037V18.0337H25.8795Z" fill="black"/>
<path d="M27.0775 18.0337V16.4785H28.6017V18.0337H27.0775Z" fill="black"/>
<path d="M28.2755 18.0337V16.4785H29.6469V18.0337H28.2755Z" fill="black"/>
<path d="M29.3971 18.0337V16.4785H30.9212V18.0337H29.3971Z" fill="black"/>
<path d="M30.7478 18.0337V16.4785H31.3575V18.0337H30.7478Z" fill="black"/>
<path d="M7 21.0337V19.4785H8.52419V21.0337H7Z" fill="black"/>
<path d="M8.27435 21.0337V19.4785H9.64579V21.0337H8.27435Z" fill="black"/>
<path d="M9.4348 21.0337V19.4785H10.0445V21.0337H9.4348Z" fill="black"/>
<path d="M9.87033 21.0337V19.4785H11.2418V21.0337H9.87033Z" fill="black"/>
<path d="M10.9356 21.0337V19.4785H12.4598V21.0337H10.9356Z" fill="black"/>
<path d="M12.1336 21.0337V19.4785H13.5051V21.0337H12.1336Z" fill="black"/>
<path d="M13.2552 21.0337V19.4785H14.7794V21.0337H13.2552Z" fill="black"/>
<path d="M14.6059 21.0337V19.4785H15.9774V21.0337H14.6059Z" fill="black"/>
<path d="M15.8039 21.0337V19.4785H16.8705V21.0337H15.8039Z" fill="black"/>
<path d="M16.5449 21.0337V19.4785H17.6115V21.0337H16.5449Z" fill="black"/>
<path d="M17.5151 21.0337V19.4785H18.8866V21.0337H17.5151Z" fill="black"/>
<path d="M18.6367 21.0337V19.4785H19.2464V21.0337H18.6367Z" fill="black"/>
<path d="M19.0723 21.0337V19.4785H20.5964V21.0337H19.0723Z" fill="black"/>
<path d="M20.3466 21.0337V19.4785H21.718V21.0337H20.3466Z" fill="black"/>
<path d="M21.5071 21.0337V19.4785H22.1167V21.0337H21.5071Z" fill="black"/>
<path d="M21.9426 21.0337V19.4785H23.0092V21.0337H21.9426Z" fill="black"/>
<path d="M22.6836 21.0337V19.4785H24.8175V21.0337H22.6836Z" fill="black"/>
<path d="M24.7204 21.0337V19.4785H25.9391V21.0337H24.7204Z" fill="black"/>
<path d="M25.7656 21.0337V19.4785H26.3753V21.0337H25.7656Z" fill="black"/>
<path d="M26.2012 21.0337V19.4785H27.7254V21.0337H26.2012Z" fill="black"/>
<path d="M27.4755 21.0337V19.4785H28.9997V21.0337H27.4755Z" fill="black"/>
<path d="M28.8262 21.0337V19.4785H30.1977V21.0337H28.8262Z" fill="black"/>
<path d="M29.9478 21.0337V19.4785H31.3193V21.0337H29.9478Z" fill="black"/>
<path d="M31.1083 21.0337V19.4785H31.718V21.0337H31.1083Z" fill="black"/>
<path d="M7 24.0337V22.4785H8.52419V24.0337H7Z" fill="black"/>
<path d="M8.27435 24.0337V22.4785H9.79854V24.0337H8.27435Z" fill="black"/>
<path d="M9.77782 24.0337V22.4785H10.9965V24.0337H9.77782Z" fill="black"/>
<path d="M10.823 24.0337V22.4785H11.4327V24.0337H10.823Z" fill="black"/>
<path d="M11.2586 24.0337V22.4785H12.3252V24.0337H11.2586Z" fill="black"/>
<path d="M12.3051 24.0337V22.4785H13.6766V24.0337H12.3051Z" fill="black"/>
<path d="M13.5031 24.0337V22.4785H14.1128V24.0337H13.5031Z" fill="black"/>
<path d="M13.9386 24.0337V22.4785H15.3101V24.0337H13.9386Z" fill="black"/>
<path d="M15.213 24.0337V22.4785H16.2796V24.0337H15.213Z" fill="black"/>
<path d="M16.2595 24.0337V22.4785H17.631V24.0337H16.2595Z" fill="black"/>
<path d="M17.4575 24.0337V22.4785H18.9817V24.0337H17.4575Z" fill="black"/>
<path d="M18.8082 24.0337V22.4785H20.3324V24.0337H18.8082Z" fill="black"/>
<path d="M20.2353 24.0337V22.4785H21.6068V24.0337H20.2353Z" fill="black"/>
<path d="M21.5097 24.0337V22.4785H22.7284V24.0337H21.5097Z" fill="black"/>
<path d="M22.5549 24.0337V22.4785H23.9263V24.0337H22.5549Z" fill="black"/>
<path d="M23.6202 24.0337V22.4785H25.1444V24.0337H23.6202Z" fill="black"/>
<path d="M24.8182 24.0337V22.4785H25.5799V24.0337H24.8182Z" fill="black"/>
<path d="M25.3301 24.0337V22.4785H25.9398V24.0337H25.3301Z" fill="black"/>
<path d="M25.7656 24.0337V22.4785H26.8322V24.0337H25.7656Z" fill="black"/>
<path d="M26.5067 24.0337V22.4785H28.0309V24.0337H26.5067Z" fill="black"/>
<path d="M27.8574 24.0337V22.4785H29.3816V24.0337H27.8574Z" fill="black"/>
<path d="M29.1317 24.0337V22.4785H30.1983V24.0337H29.1317Z" fill="black"/>
<path d="M29.8728 24.0337V22.4785H30.4825V24.0337H29.8728Z" fill="black"/>
<path d="M30.3083 24.0337V22.4785H32.4422V24.0337H30.3083Z" fill="black"/>
<path d="M32.1924 24.0337V22.4785H33.7165V24.0337H32.1924Z" fill="black"/>
<path d="M33.3903 24.0337V22.4785H34V24.0337H33.3903Z" fill="black"/>
<path d="M7 27.0337V25.4785H9.13387V27.0337H7Z" fill="black"/>
<path d="M8.80765 27.0337V25.4785H10.3318V27.0337H8.80765Z" fill="black"/>
<path d="M10.2347 27.0337V25.4785H11.6062V27.0337H10.2347Z" fill="black"/>
<path d="M11.4327 27.0337V25.4785H12.4993V27.0337H11.4327Z" fill="black"/>
<path d="M12.1738 27.0337V25.4785H12.7834V27.0337H12.1738Z" fill="black"/>
<path d="M12.6093 27.0337V25.4785H13.6759V27.0337H12.6093Z" fill="black"/>
<path d="M13.3503 27.0337V25.4785H14.8745V27.0337H13.3503Z" fill="black"/>
<path d="M14.7011 27.0337V25.4785H16.2253V27.0337H14.7011Z" fill="black"/>
<path d="M15.899 27.0337V25.4785H16.5087V27.0337H15.899Z" fill="black"/>
<path d="M16.3346 27.0337V25.4785H18.0115V27.0337H16.3346Z" fill="black"/>
<path d="M17.8568 27.0337V25.4785H19.0755V27.0337H17.8568Z" fill="black"/>
<path d="M18.902 27.0337V25.4785H20.2735V27.0337H18.902Z" fill="black"/>
<path d="M19.9673 27.0337V25.4785H21.0339V27.0337H19.9673Z" fill="black"/>
<path d="M20.7084 27.0337V25.4785H22.2326V27.0337H20.7084Z" fill="black"/>
<path d="M22.0591 27.0337V25.4785H22.6688V27.0337H22.0591Z" fill="black"/>
<path d="M22.4947 27.0337V25.4785H24.1716V27.0337H22.4947Z" fill="black"/>
<path d="M24.0745 27.0337V25.4785H25.2932V27.0337H24.0745Z" fill="black"/>
<path d="M25.1197 27.0337V25.4785H26.4912V27.0337H25.1197Z" fill="black"/>
<path d="M26.185 27.0337V25.4785H27.7092V27.0337H26.185Z" fill="black"/>
<path d="M27.383 27.0337V25.4785H28.9072V27.0337H27.383Z" fill="black"/>
<path d="M28.8101 27.0337V25.4785H30.1815V27.0337H28.8101Z" fill="black"/>
<path d="M30.0081 27.0337V25.4785H30.6178V27.0337H30.0081Z" fill="black"/>
<path d="M7 30.0337V28.4785H8.0666V30.0337H7Z" fill="black"/>
<path d="M7.8938 30.0337V28.4785H9.41799V30.0337H7.8938Z" fill="black"/>
<path d="M9.09177 30.0337V28.4785H10.616V30.0337H9.09177Z" fill="black"/>
<path d="M10.3661 30.0337V28.4785H11.8903V30.0337H10.3661Z" fill="black"/>
<path d="M11.6405 30.0337V28.4785H13.1647V30.0337H11.6405Z" fill="black"/>
<path d="M12.8384 30.0337V28.4785H14.2099V30.0337H12.8384Z" fill="black"/>
<path d="M13.9037 30.0337V28.4785H15.2752V30.0337H13.9037Z" fill="black"/>
<path d="M15.0642 30.0337V28.4785H15.6739V30.0337H15.0642Z" fill="black"/>
<path d="M15.4997 30.0337V28.4785H16.5663V30.0337H15.4997Z" fill="black"/>
<path d="M16.3935 30.0337V28.4785H17.6122V30.0337H16.3935Z" fill="black"/>
<path d="M17.4387 30.0337V28.4785H18.0484V30.0337H17.4387Z" fill="black"/>
<path d="M17.8743 30.0337V28.4785H19.3985V30.0337H17.8743Z" fill="black"/>
<path d="M19.225 30.0337V28.4785H20.7492V30.0337H19.225Z" fill="black"/>
<path d="M20.423 30.0337V28.4785H21.9472V30.0337H20.423Z" fill="black"/>
<path d="M21.6973 30.0337V28.4785H23.0688V30.0337H21.6973Z" fill="black"/>
<path d="M22.7626 30.0337V28.4785H23.3723V30.0337H22.7626Z" fill="black"/>
<path d="M23.1982 30.0337V28.4785H24.2648V30.0337H23.1982Z" fill="black"/>
<path d="M23.9392 30.0337V28.4785H25.4634V30.0337H23.9392Z" fill="black"/>
<path d="M25.2899 30.0337V28.4785H26.8141V30.0337H25.2899Z" fill="black"/>
<path d="M26.5643 30.0337V28.4785H27.6309V30.0337H26.5643Z" fill="black"/>
<path d="M27.3053 30.0337V28.4785H27.915V30.0337H27.3053Z" fill="black"/>
<path d="M27.7409 30.0337V28.4785H28.8075V30.0337H27.7409Z" fill="black"/>
<path d="M28.6347 30.0337V28.4785H29.854V30.0337H28.6347Z" fill="black"/>
<path d="M29.5285 30.0337V28.4785H30.1382V30.0337H29.5285Z" fill="black"/>
<path d="M29.964 30.0337V28.4785H31.0306V30.0337H29.964Z" fill="black"/>
<path d="M30.8578 30.0337V28.4785H31.9244V30.0337H30.8578Z" fill="black"/>
<path d="M31.5989 30.0337V28.4785H32.2085V30.0337H31.5989Z" fill="black"/>
<path d="M7 33.0337V31.4785H8.52419V33.0337H7Z" fill="black"/>
<path d="M8.35072 33.0337V31.4785H9.41732V33.0337H8.35072Z" fill="black"/>
<path d="M9.16815 33.0337V31.4785H10.5396V33.0337H9.16815Z" fill="black"/>
<path d="M10.4425 33.0337V31.4785H11.9667V33.0337H10.4425Z" fill="black"/>
<path d="M11.6405 33.0337V31.4785H13.0119V33.0337H11.6405Z" fill="black"/>
<path d="M12.8009 33.0337V31.4785H13.4106V33.0337H12.8009Z" fill="black"/>
<path d="M13.2365 33.0337V31.4785H14.7606V33.0337H13.2365Z" fill="black"/>
<path d="M14.7399 33.0337V31.4785H16.1114V33.0337H14.7399Z" fill="black"/>
<path d="M15.8615 33.0337V31.4785H16.4712V33.0337H15.8615Z" fill="black"/>
<path d="M16.2971 33.0337V31.4785H17.3637V33.0337H16.2971Z" fill="black"/>
<path d="M17.1909 33.0337V31.4785H18.2575V33.0337H17.1909Z" fill="black"/>
<path d="M17.9319 33.0337V31.4785H19.3033V33.0337H17.9319Z" fill="black"/>
<path d="M19.0924 33.0337V31.4785H19.702V33.0337H19.0924Z" fill="black"/>
<path d="M19.5279 33.0337V31.4785H21.6618V33.0337H19.5279Z" fill="black"/>
<path d="M21.4119 33.0337V31.4785H22.9361V33.0337H21.4119Z" fill="black"/>
<path d="M22.6099 33.0337V31.4785H24.1341V33.0337H22.6099Z" fill="black"/>
<path d="M24.037 33.0337V31.4785H25.4084V33.0337H24.037Z" fill="black"/>
<path d="M25.3113 33.0337V31.4785H26.53V33.0337H25.3113Z" fill="black"/>
<path d="M26.5093 33.0337V31.4785H27.8807V33.0337H26.5093Z" fill="black"/>
<path d="M27.7073 33.0337V31.4785H29.0787V33.0337H27.7073Z" fill="black"/>
<path d="M29.2274 32.7131V32.6039H30.4898V32.7131H29.2274Z" fill="black"/>
<path d="M7.15275 36.0337V34.4785H8.52419V36.0337H7.15275Z" fill="black"/>
<path d="M8.35072 36.0337V34.4785H9.87492V36.0337H8.35072Z" fill="black"/>
<path d="M9.70145 36.0337V34.4785H11.0729V36.0337H9.70145Z" fill="black"/>
<path d="M10.823 36.0337V34.4785H11.8896V36.0337H10.823Z" fill="black"/>
<path d="M11.7168 36.0337V34.4785H13.241V36.0337H11.7168Z" fill="black"/>
<path d="M12.9148 36.0337V34.4785H14.439V36.0337H12.9148Z" fill="black"/>
<path d="M14.1892 36.0337V34.4785H15.5606V36.0337H14.1892Z" fill="black"/>
<path d="M15.2545 36.0337V34.4785H15.8641V36.0337H15.2545Z" fill="black"/>
<path d="M15.69 36.0337V34.4785H17.8239V36.0337H15.69Z" fill="black"/>
<path d="M17.574 36.0337V34.4785H19.0982V36.0337H17.574Z" fill="black"/>
<path d="M18.772 36.0337V34.4785H20.2962V36.0337H18.772Z" fill="black"/>
<path d="M20.1991 36.0337V34.4785H21.5705V36.0337H20.1991Z" fill="black"/>
<path d="M21.4734 36.0337V34.4785H22.6921V36.0337H21.4734Z" fill="black"/>
<path d="M22.6714 36.0337V34.4785H24.0429V36.0337H22.6714Z" fill="black"/>
<path d="M23.8694 36.0337V34.4785H25.2408V36.0337H23.8694Z" fill="black"/>
<path d="M25.0298 36.0337V34.4785H25.6395V36.0337H25.0298Z" fill="black"/>
<path d="M7 39.0337V37.4785H8.52419V39.0337H7Z" fill="black"/>
<path d="M8.27435 39.0337V37.4785H10.2561V39.0337H8.27435Z" fill="black"/>
<path d="M10.3111 39.0337V37.4785H11.6826V39.0337H10.3111Z" fill="black"/>
<path d="M11.3563 39.0337V37.4785H12.4229V39.0337H11.3563Z" fill="black"/>
<path d="M12.2501 39.0337V37.4785H13.3167V39.0337H12.2501Z" fill="black"/>
<path d="M12.9912 39.0337V37.4785H14.0578V39.0337H12.9912Z" fill="black"/>
<path d="M14.0377 39.0337V37.4785H15.2564V39.0337H14.0377Z" fill="black"/>
<path d="M15.2357 39.0337V37.4785H16.6071V39.0337H15.2357Z" fill="black"/>
<path d="M16.4337 39.0337V37.4785H17.8051V39.0337H16.4337Z" fill="black"/>
<path d="M17.5941 39.0337V37.4785H18.3559V39.0337H17.5941Z" fill="black"/>
<path d="M18.106 39.0337V37.4785H18.7157V39.0337H18.106Z" fill="black"/>
<path d="M18.5416 39.0337V37.4785H19.6082V39.0337H18.5416Z" fill="black"/>
<path d="M19.2826 39.0337V37.4785H20.8068V39.0337H19.2826Z" fill="black"/>
<path d="M20.6334 39.0337V37.4785H22.1575V39.0337H20.6334Z" fill="black"/>
<path d="M21.9077 39.0337V37.4785H22.9743V39.0337H21.9077Z" fill="black"/>
<path d="M22.6487 39.0337V37.4785H23.2584V39.0337H22.6487Z" fill="black"/>
<path d="M23.0843 39.0337V37.4785H25.2182V39.0337H23.0843Z" fill="black"/>
<path d="M24.9683 39.0337V37.4785H26.4925V39.0337H24.9683Z" fill="black"/>
<path d="M26.1663 39.0337V37.4785H26.776V39.0337H26.1663Z" fill="black"/>
<path d="M26.6018 39.0337V37.4785H28.7357V39.0337H26.6018Z" fill="black"/>
<path d="M28.6386 39.0337V37.4785H29.8573V39.0337H28.6386Z" fill="black"/>
<path d="M29.6838 39.0337V37.4785H31.208V39.0337H29.6838Z" fill="black"/>
<path d="M31.0345 39.0337V37.4785H32.1011V39.0337H31.0345Z" fill="black"/>
<path d="M31.9283 39.0337V37.4785H33.4525V39.0337H31.9283Z" fill="black"/>
<path d="M33.2027 39.0337V37.4785H33.8124V39.0337H33.2027Z" fill="black"/>
<path d="M7.15275 42.0337V40.4785H8.52419V42.0337H7.15275Z" fill="black"/>
<path d="M8.19797 42.0337V40.4785H9.72216V42.0337H8.19797Z" fill="black"/>
<path d="M9.39594 42.0337V40.4785H10.0056V42.0337H9.39594Z" fill="black"/>
<path d="M9.83148 42.0337V40.4785H11.9653V42.0337H9.83148Z" fill="black"/>
<path d="M11.7155 42.0337V40.4785H12.7821V42.0337H11.7155Z" fill="black"/>
<path d="M12.6093 42.0337V40.4785H13.6759V42.0337H12.6093Z" fill="black"/>
<path d="M13.5031 42.0337V40.4785H14.5697V42.0337H13.5031Z" fill="black"/>
<path d="M14.3969 42.0337V40.4785H15.4635V42.0337H14.3969Z" fill="black"/>
<path d="M15.4435 42.0337V40.4785H16.8149V42.0337H15.4435Z" fill="black"/>
<path d="M16.6414 42.0337V40.4785H18.1656V42.0337H16.6414Z" fill="black"/>
<path d="M17.9921 42.0337V40.4785H18.6018V42.0337H17.9921Z" fill="black"/>
<path d="M18.4277 42.0337V40.4785H19.4943V42.0337H18.4277Z" fill="black"/>
<path d="M19.3215 42.0337V40.4785H20.5402V42.0337H19.3215Z" fill="black"/>
<path d="M20.3667 42.0337V40.4785H20.9764V42.0337H20.3667Z" fill="black"/>
<path d="M20.8022 42.0337V40.4785H22.3264V42.0337H20.8022Z" fill="black"/>
<path d="M22.153 42.0337V40.4785H23.5244V42.0337H22.153Z" fill="black"/>
<path d="M23.3509 42.0337V40.4785H24.4175V42.0337H23.3509Z" fill="black"/>
<path d="M24.092 42.0337V40.4785H25.6162V42.0337H24.092Z" fill="black"/>
<path d="M25.2899 42.0337V40.4785H26.6614V42.0337H25.2899Z" fill="black"/>
<path d="M26.3553 42.0337V40.4785H26.9649V42.0337H26.3553Z" fill="black"/>
<path d="M26.7908 42.0337V40.4785H27.8574V42.0337H26.7908Z" fill="black"/>
<path d="M27.8374 42.0337V40.4785H29.2088V42.0337H27.8374Z" fill="black"/>
<path d="M29.0353 42.0337V40.4785H30.1019V42.0337H29.0353Z" fill="black"/>
<path d="M29.9291 42.0337V40.4785H31.1478V42.0337H29.9291Z" fill="black"/>
<path d="M30.9743 42.0337V40.4785H31.584V42.0337H30.9743Z" fill="black"/>
<path d="M7 45.0337V43.4785H8.37144V45.0337H7Z" fill="black"/>
<path d="M8.16045 45.0337V43.4785H9.68464V45.0337H8.16045Z" fill="black"/>
<path d="M9.35842 45.0337V43.4785H10.7299V45.0337H9.35842Z" fill="black"/>
<path d="M10.48 45.0337V43.4785H12.0042V45.0337H10.48Z" fill="black"/>
<path d="M11.8307 45.0337V43.4785H13.2022V45.0337H11.8307Z" fill="black"/>
<path d="M12.896 45.0337V43.4785H13.9626V45.0337H12.896Z" fill="black"/>
<path d="M13.7898 45.0337V43.4785H14.8564V45.0337H13.7898Z" fill="black"/>
<path d="M14.6837 45.0337V43.4785H16.0551V45.0337H14.6837Z" fill="black"/>
<path d="M15.8052 45.0337V43.4785H16.4149V45.0337H15.8052Z" fill="black"/>
<path d="M16.2408 45.0337V43.4785H17.765V45.0337H16.2408Z" fill="black"/>
<path d="M17.5151 45.0337V43.4785H18.8866V45.0337H17.5151Z" fill="black"/>
<path d="M18.5804 45.0337V43.4785H19.9519V45.0337H18.5804Z" fill="black"/>
<path d="M19.6082 45.0337V43.4785H21.1324V45.0337H19.6082Z" fill="black"/>
<path d="M21.0353 45.0337V43.4785H22.4068V45.0337H21.0353Z" fill="black"/>
<path d="M22.2333 45.0337V43.4785H23.7575V45.0337H22.2333Z" fill="black"/>
<path d="M23.584 45.0337V43.4785H25.1082V45.0337H23.584Z" fill="black"/>
<path d="M24.782 45.0337V43.4785H26.7638V45.0337H24.782Z" fill="black"/>
<path d="M26.666 45.0337V43.4785H28.1902V45.0337H26.666Z" fill="black"/>
<path d="M28.0167 45.0337V43.4785H29.3882V45.0337H28.0167Z" fill="black"/>
<path d="M29.2147 45.0337V43.4785H30.2813V45.0337H29.2147Z" fill="black"/>
<path d="M29.9558 45.0337V43.4785H31.3272V45.0337H29.9558Z" fill="black"/>
<path d="M31.1162 45.0337V43.4785H31.7259V45.0337H31.1162Z" fill="black"/>
<path d="M7 48.0337V46.4785H9.13387V48.0337H7Z" fill="black"/>
<path d="M8.88402 48.0337V46.4785H9.95062V48.0337H8.88402Z" fill="black"/>
<path d="M9.77782 48.0337V46.4785H10.8444V48.0337H9.77782Z" fill="black"/>
<path d="M10.5189 48.0337V46.4785H12.0431V48.0337H10.5189Z" fill="black"/>
<path d="M11.8696 48.0337V46.4785H12.4793V48.0337H11.8696Z" fill="black"/>
<path d="M12.3051 48.0337V46.4785H13.3717V48.0337H12.3051Z" fill="black"/>
<path d="M13.0462 48.0337V46.4785H14.5704V48.0337H13.0462Z" fill="black"/>
<path d="M14.3969 48.0337V46.4785H15.9211V48.0337H14.3969Z" fill="black"/>
<path d="M15.5949 48.0337V46.4785H16.2045V48.0337H15.5949Z" fill="black"/>
<path d="M16.0304 48.0337V46.4785H17.7074V48.0337H16.0304Z" fill="black"/>
<path d="M17.5526 48.0337V46.4785H18.7713V48.0337H17.5526Z" fill="black"/>
<path d="M18.5979 48.0337V46.4785H19.9693V48.0337H18.5979Z" fill="black"/>
<path d="M19.6632 48.0337V46.4785H20.7298V48.0337H19.6632Z" fill="black"/>
<path d="M20.4042 48.0337V46.4785H21.9284V48.0337H20.4042Z" fill="black"/>
<path d="M21.7549 48.0337V46.4785H22.3646V48.0337H21.7549Z" fill="black"/>
<path d="M22.1905 48.0337V46.4785H23.8674V48.0337H22.1905Z" fill="black"/>
<path d="M23.7703 48.0337V46.4785H24.989V48.0337H23.7703Z" fill="black"/>
<path d="M24.8156 48.0337V46.4785H26.187V48.0337H24.8156Z" fill="black"/>
<path d="M25.8809 48.0337V46.4785H27.4051V48.0337H25.8809Z" fill="black"/>
<path d="M27.0788 48.0337V46.4785H28.603V48.0337H27.0788Z" fill="black"/>
<path d="M28.5059 48.0337V46.4785H29.8774V48.0337H28.5059Z" fill="black"/>
<path d="M29.7039 48.0337V46.4785H31.0753V48.0337H29.7039Z" fill="black"/>
<path d="M30.8644 48.0337V46.4785H31.6261V48.0337H30.8644Z" fill="black"/>
<path d="M31.3763 48.0337V46.4785H31.9859V48.0337H31.3763Z" fill="black"/>
<path d="M7 51.0337V49.4785H8.52419V51.0337H7Z" fill="black"/>
<path d="M8.27435 51.0337V49.4785H9.64579V51.0337H8.27435Z" fill="black"/>
<path d="M9.4348 51.0337V49.4785H10.0445V51.0337H9.4348Z" fill="black"/>
<path d="M9.87033 51.0337V49.4785H12.0042V51.0337H9.87033Z" fill="black"/>
<path d="M11.7544 51.0337V49.4785H13.2786V51.0337H11.7544Z" fill="black"/>
<path d="M12.9523 51.0337V49.4785H14.0189V51.0337H12.9523Z" fill="black"/>
<path d="M13.8461 51.0337V49.4785H14.9127V51.0337H13.8461Z" fill="black"/>
<path d="M14.7399 51.0337V49.4785H15.3496V51.0337H14.7399Z" fill="black"/>
<path d="M15.1755 51.0337V49.4785H16.6997V51.0337H15.1755Z" fill="black"/>
<path d="M16.4498 51.0337V49.4785H17.8213V51.0337H16.4498Z" fill="black"/>
<path d="M17.6103 51.0337V49.4785H18.2199V51.0337H17.6103Z" fill="black"/>
<path d="M18.0458 51.0337V49.4785H20.0276V51.0337H18.0458Z" fill="black"/>
<path d="M20.0826 51.0337V49.4785H21.3013V51.0337H20.0826Z" fill="black"/>
<path d="M21.1278 51.0337V49.4785H22.4992V51.0337H21.1278Z" fill="black"/>
<path d="M22.4021 51.0337V49.4785H23.9263V51.0337H22.4021Z" fill="black"/>
<path d="M23.6001 51.0337V49.4785H24.2098V51.0337H23.6001Z" fill="black"/>
<path d="M24.0356 51.0337V49.4785H25.255V51.0337H24.0356Z" fill="black"/>
<path d="M25.0822 51.0337V49.4785H26.3009V51.0337H25.0822Z" fill="black"/>
<path d="M26.1274 51.0337V49.4785H27.4989V51.0337H26.1274Z" fill="black"/>
<path d="M27.1927 51.0337V49.4785H29.3266V51.0337H27.1927Z" fill="black"/>
<path d="M29.0004 51.0337V49.4785H30.5246V51.0337H29.0004Z" fill="black"/>
<path d="M30.2747 51.0337V49.4785H31.6462V51.0337H30.2747Z" fill="black"/>
<path d="M31.34 51.0337V49.4785H32.8642V51.0337H31.34Z" fill="black"/>
<path d="M32.6144 51.0337V49.4785H33.2241V51.0337H32.6144Z" fill="black"/>
<path d="M7.15275 54.0337V52.4785H8.52419V54.0337H7.15275Z" fill="black"/>
<path d="M8.35072 54.0337V52.4785H9.87492V54.0337H8.35072Z" fill="black"/>
<path d="M9.54869 54.0337V52.4785H11.6826V54.0337H9.54869Z" fill="black"/>
<path d="M11.4327 54.0337V52.4785H12.0424V54.0337H11.4327Z" fill="black"/>
<path d="M11.8683 54.0337V52.4785H13.3924V54.0337H11.8683Z" fill="black"/>
<path d="M13.0662 54.0337V52.4785H14.4377V54.0337H13.0662Z" fill="black"/>
<path d="M14.3406 54.0337V52.4785H15.5593V54.0337H14.3406Z" fill="black"/>
<path d="M15.5385 54.0337V52.4785H16.91V54.0337H15.5385Z" fill="black"/>
<path d="M16.8893 54.0337V52.4785H18.1079V54.0337H16.8893Z" fill="black"/>
<path d="M17.9345 54.0337V52.4785H19.9163V54.0337H17.9345Z" fill="black"/>
<path d="M19.8185 54.0337V52.4785H20.8851V54.0337H19.8185Z" fill="black"/>
<path d="M20.7123 54.0337V52.4785H22.0837V54.0337H20.7123Z" fill="black"/>
<path d="M21.8339 54.0337V52.4785H22.4436V54.0337H21.8339Z" fill="black"/>
<path d="M22.2694 54.0337V52.4785H23.336V54.0337H22.2694Z" fill="black"/>
<path d="M23.316 54.0337V52.4785H24.6874V54.0337H23.316Z" fill="black"/>
<path d="M24.514 54.0337V52.4785H25.8854V54.0337H24.514Z" fill="black"/>
<path d="M25.6355 54.0337V52.4785H27.1597V54.0337H25.6355Z" fill="black"/>
<path d="M26.9863 54.0337V52.4785H28.3577V54.0337H26.9863Z" fill="black"/>
<path d="M28.1842 54.0337V52.4785H29.2508V54.0337H28.1842Z" fill="black"/>
<path d="M28.9253 54.0337V52.4785H29.9919V54.0337H28.9253Z" fill="black"/>
<path d="M29.7427 54.0337V52.4785H31.1141V54.0337H29.7427Z" fill="black"/>
<path d="M31.0171 54.0337V52.4785H32.5412V54.0337H31.0171Z" fill="black"/>
<path d="M32.215 54.0337V52.4785H33.5865V54.0337H32.215Z" fill="black"/>
<path d="M33.3755 54.0337V52.4785H33.9852V54.0337H33.3755Z" fill="black"/>
<path d="M7 57.0337V55.4785H8.21935V57.0337H7Z" fill="black"/>
<path d="M8.04655 57.0337V55.4785H9.26524V57.0337H8.04655Z" fill="black"/>
<path d="M9.09177 57.0337V55.4785H10.4632V57.0337H9.09177Z" fill="black"/>
<path d="M10.1571 57.0337V55.4785H10.7668V57.0337H10.1571Z" fill="black"/>
<path d="M10.5926 57.0337V55.4785H11.6592V57.0337H10.5926Z" fill="black"/>
<path d="M11.3337 57.0337V55.4785H12.8579V57.0337H11.3337Z" fill="black"/>
<path d="M12.6844 57.0337V55.4785H14.2086V57.0337H12.6844Z" fill="black"/>
<path d="M13.8824 57.0337V55.4785H14.492V57.0337H13.8824Z" fill="black"/>
<path d="M14.3179 57.0337V55.4785H15.9948V57.0337H14.3179Z" fill="black"/>
<path d="M15.8401 57.0337V55.4785H17.0588V57.0337H15.8401Z" fill="black"/>
<path d="M16.8854 57.0337V55.4785H18.2568V57.0337H16.8854Z" fill="black"/>
<path d="M17.9507 57.0337V55.4785H19.0173V57.0337H17.9507Z" fill="black"/>
<path d="M18.6917 57.0337V55.4785H20.2159V57.0337H18.6917Z" fill="black"/>
<path d="M20.0424 57.0337V55.4785H20.6521V57.0337H20.0424Z" fill="black"/>
<path d="M20.478 57.0337V55.4785H22.1549V57.0337H20.478Z" fill="black"/>
<path d="M22.0578 57.0337V55.4785H23.2765V57.0337H22.0578Z" fill="black"/>
<path d="M23.103 57.0337V55.4785H24.4745V57.0337H23.103Z" fill="black"/>
<path d="M24.1684 57.0337V55.4785H25.6925V57.0337H24.1684Z" fill="black"/>
<path d="M25.3663 57.0337V55.4785H26.8905V57.0337H25.3663Z" fill="black"/>
<path d="M26.7934 57.0337V55.4785H28.1649V57.0337H26.7934Z" fill="black"/>
<path d="M27.9914 57.0337V55.4785H28.6011V57.0337H27.9914Z" fill="black"/>
<path d="M7.15275 60.0337V58.4785H8.52419V60.0337H7.15275Z" fill="black"/>
<path d="M8.27435 60.0337V58.4785H9.79854V60.0337H8.27435Z" fill="black"/>
<path d="M9.62507 60.0337V58.4785H10.8438V60.0337H9.62507Z" fill="black"/>
<path d="M10.823 60.0337V58.4785H12.1945V60.0337H10.823Z" fill="black"/>
<path d="M11.9446 60.0337V58.4785H13.0112V60.0337H11.9446Z" fill="black"/>
<path d="M12.8384 60.0337V58.4785H14.3626V60.0337H12.8384Z" fill="black"/>
<path d="M14.0364 60.0337V58.4785H14.7982V60.0337H14.0364Z" fill="black"/>
<path d="M14.5483 60.0337V58.4785H15.3101V60.0337H14.5483Z" fill="black"/>
</g>
<rect width="12" height="14" transform="translate(26 19.4785)" fill="white"/>
<path d="M31.6787 23.3398C32.5999 23.3398 33.2721 23.5384 33.6953 23.9355C34.1185 24.3294 34.3301 24.873 34.3301 25.5664C34.3301 25.8789 34.2829 26.1784 34.1885 26.4648C34.0941 26.748 33.9395 27.0003 33.7246 27.2217C33.513 27.443 33.2298 27.6188 32.875 27.749C32.5202 27.876 32.0824 27.9395 31.5615 27.9395H30.9121V30.4785H29.3984V23.3398H31.6787ZM31.6006 24.5801H30.9121V26.6992H31.4102C31.6934 26.6992 31.9391 26.6618 32.1475 26.5869C32.3558 26.512 32.5169 26.3949 32.6309 26.2354C32.7448 26.0758 32.8018 25.8708 32.8018 25.6201C32.8018 25.2686 32.7041 25.0081 32.5088 24.8389C32.3135 24.6663 32.0107 24.5801 31.6006 24.5801Z" fill="#585858"/>
</g>
<rect x="1" y="1.47852" width="39" height="35" stroke="#364B60"/>
<path d="M12.3333 39.4785H3V45.8266H12.3333V39.4785Z" fill="#7FA4CA"/>
<path d="M22.6663 39.4785H13.333V45.8266H22.6663V39.4785Z" fill="#E1C278"/>
<path d="M33.0003 39.4785H23.667V45.8266H33.0003V39.4785Z" fill="#BB90BB"/>
<defs>
<filter id="filter0_i_238_43859" x="3" y="-1.52148" width="35" height="34" filterUnits="userSpaceOnUse" color-interpolation-filters="sRGB">
<feFlood flood-opacity="0" result="BackgroundImageFix"/>
<feBlend mode="normal" in="SourceGraphic" in2="BackgroundImageFix" result="shape"/>
<feColorMatrix in="SourceAlpha" type="matrix" values="0 0 0 0 0 0 0 0 0 0 0 0 0 0 0 0 0 0 127 0" result="hardAlpha"/>
<feOffset dy="-5"/>
<feGaussianBlur stdDeviation="3.5"/>
<feComposite in2="hardAlpha" operator="arithmetic" k2="-1" k3="1"/>
<feColorMatrix type="matrix" values="0 0 0 0 1 0 0 0 0 1 0 0 0 0 1 0 0 0 1 0"/>
<feBlend mode="normal" in2="shape" result="effect1_innerShadow_238_43859"/>
</filter>
<clipPath id="clip0_238_43859">
<rect width="35" height="31" fill="white" transform="translate(3 3.47852)"/>
</clipPath>
<clipPath id="clip1_238_43859">
<rect width="35" height="29" fill="white" transform="translate(3 3.47852)"/>
</clipPath>
</defs>
</svg>
