<svg width="39" height="48" viewBox="0 0 39 48" fill="none" xmlns="http://www.w3.org/2000/svg">
<g clip-path="url(#clip0_238_43837)">
<g clip-path="url(#clip1_238_43837)" filter="url(#filter0_d_238_43837)">
<rect width="35" height="31" transform="translate(2 2.67188)" fill="white"/>
<g opacity="0.3" clip-path="url(#clip2_238_43837)" filter="url(#filter1_i_238_43837)">
<rect width="35" height="29" transform="translate(2 2.67188)" fill="white"/>
<path d="M6 8.22705V6.67188H6.80486V8.22705H6Z" fill="black"/>
<path d="M6.62158 8.22705V6.67188H8.23201V8.22705H6.62158Z" fill="black"/>
<path d="M8.04873 8.22705V6.67188H9.65916V8.22705H8.04873Z" fill="black"/>
<path d="M9.47587 8.22705V6.67188H11.0863V8.22705H9.47587Z" fill="black"/>
<path d="M10.7416 8.22705V6.67188H11.3858V8.22705H10.7416Z" fill="black"/>
<path d="M11.2018 8.22705V6.67188H12.9736V8.22705H11.2018Z" fill="black"/>
<path d="M12.83 8.22705V6.67188H14.279V8.22705H12.83Z" fill="black"/>
<path d="M14.0957 8.22705V6.67188H15.2227V8.22705H14.0957Z" fill="black"/>
<path d="M15.0401 8.22705V6.67188H16.1671V8.22705H15.0401Z" fill="black"/>
<path d="M15.8231 8.22705V6.67188H17.4335V8.22705H15.8231Z" fill="black"/>
<path d="M17.0888 8.22705V6.67188H18.6993V8.22705H17.0888Z" fill="black"/>
<path d="M18.4353 8.22705V6.67188H19.0795V8.22705H18.4353Z" fill="black"/>
<path d="M18.8955 8.22705V6.67188H20.3445V8.22705H18.8955Z" fill="black"/>
<path d="M20.2419 8.22705V6.67188H21.3689V8.22705H20.2419Z" fill="black"/>
<path d="M21.0249 8.22705V6.67188H22.6353V8.22705H21.0249Z" fill="black"/>
<path d="M22.3713 8.22705V6.67188H23.4983V8.22705H22.3713Z" fill="black"/>
<path d="M23.1543 8.22705V6.67188H24.7647V8.22705H23.1543Z" fill="black"/>
<path d="M24.4201 8.22705V6.67188H25.8691V8.22705H24.4201Z" fill="black"/>
<path d="M25.6462 8.22705V6.67188H26.2903V8.22705H25.6462Z" fill="black"/>
<path d="M26.2678 8.22705V6.67188H27.5554V8.22705H26.2678Z" fill="black"/>
<path d="M27.3721 8.22705V6.67188H28.6605V8.22705H27.3721Z" fill="black"/>
<path d="M28.3165 8.22705V6.67188H28.9607V8.22705H28.3165Z" fill="black"/>
<path d="M6 11.2271V9.67188H7.77183V11.2271H6Z" fill="black"/>
<path d="M7.50785 11.2271V9.67188H9.60176V11.2271H7.50785Z" fill="black"/>
<path d="M9.49847 11.2271V9.67188H11.1089V11.2271H9.49847Z" fill="black"/>
<path d="M10.7642 11.2271V9.67188H12.2133V11.2271H10.7642Z" fill="black"/>
<path d="M11.8898 11.2271V9.67188H13.0168V11.2271H11.8898Z" fill="black"/>
<path d="M12.8342 11.2271V9.67188H14.2832V11.2271H12.8342Z" fill="black"/>
<path d="M14.0192 11.2271V9.67188H15.6297V11.2271H14.0192Z" fill="black"/>
<path d="M15.3657 11.2271V9.67188H16.0099V11.2271H15.3657Z" fill="black"/>
<path d="M15.8259 11.2271V9.67188H17.4363V11.2271H15.8259Z" fill="black"/>
<path d="M17.3337 11.2271V9.67188H18.6213V11.2271H17.3337Z" fill="black"/>
<path d="M18.4381 11.2271V9.67188H20.0485V11.2271H18.4381Z" fill="black"/>
<path d="M19.7038 11.2271V9.67188H21.1528V11.2271H19.7038Z" fill="black"/>
<path d="M21.0913 11.2271V9.67188H22.5404V11.2271H21.0913Z" fill="black"/>
<path d="M22.3571 11.2271V9.67188H23.1619V11.2271H22.3571Z" fill="black"/>
<path d="M22.9786 11.2271V9.67188H24.1056V11.2271H22.9786Z" fill="black"/>
<path d="M23.7616 11.2271V9.67188H24.4058V11.2271H23.7616Z" fill="black"/>
<path d="M24.2218 11.2271V9.67188H25.8322V11.2271H24.2218Z" fill="black"/>
<path d="M25.649 11.2271V9.67188H27.2594V11.2271H25.649Z" fill="black"/>
<path d="M26.9147 11.2271V9.67188H28.3637V11.2271H26.9147Z" fill="black"/>
<path d="M28.2612 11.2271V9.67188H29.8716V11.2271H28.2612Z" fill="black"/>
<path d="M29.5269 11.2271V9.67188H30.1711V11.2271H29.5269Z" fill="black"/>
<path d="M6 14.2271V12.6719H7.61043V14.2271H6Z" fill="black"/>
<path d="M7.50785 14.2271V12.6719H8.95688V14.2271H7.50785Z" fill="black"/>
<path d="M8.8543 14.2271V12.6719H10.3033V14.2271H8.8543Z" fill="black"/>
<path d="M10.0393 14.2271V12.6719H10.6835V14.2271H10.0393Z" fill="black"/>
<path d="M10.4995 14.2271V12.6719H11.6265V14.2271H10.4995Z" fill="black"/>
<path d="M11.6053 14.2271V12.6719H13.0543V14.2271H11.6053Z" fill="black"/>
<path d="M12.871 14.2271V12.6719H13.998V14.2271H12.871Z" fill="black"/>
<path d="M13.654 14.2271V12.6719H15.2645V14.2271H13.654Z" fill="black"/>
<path d="M15.0812 14.2271V12.6719H16.5302V14.2271H15.0812Z" fill="black"/>
<path d="M16.3469 14.2271V12.6719H17.4739V14.2271H16.3469Z" fill="black"/>
<path d="M17.1299 14.2271V12.6719H18.2568V14.2271H17.1299Z" fill="black"/>
<path d="M18.2357 14.2271V12.6719H19.5233V14.2271H18.2357Z" fill="black"/>
<path d="M19.5014 14.2271V12.6719H20.9505V14.2271H19.5014Z" fill="black"/>
<path d="M20.7672 14.2271V12.6719H21.4113V14.2271H20.7672Z" fill="black"/>
<path d="M21.2273 14.2271V12.6719H22.3543V14.2271H21.2273Z" fill="black"/>
<path d="M22.1717 14.2271V12.6719H23.4594V14.2271H22.1717Z" fill="black"/>
<path d="M23.2761 14.2271V12.6719H23.9202V14.2271H23.2761Z" fill="black"/>
<path d="M23.7363 14.2271V12.6719H25.3467V14.2271H23.7363Z" fill="black"/>
<path d="M25.0827 14.2271V12.6719H26.2096V14.2271H25.0827Z" fill="black"/>
<path d="M25.8657 14.2271V12.6719H26.9926V14.2271H25.8657Z" fill="black"/>
<path d="M26.6486 14.2271V12.6719H28.2591V14.2271H26.6486Z" fill="black"/>
<path d="M27.9951 14.2271V12.6719H29.4441V14.2271H27.9951Z" fill="black"/>
<path d="M29.1802 14.2271V12.6719H30.7906V14.2271H29.1802Z" fill="black"/>
<path d="M30.5677 14.2271V12.6719H31.2118V14.2271H30.5677Z" fill="black"/>
<path d="M6 17.2271V15.6719H7.77183V17.2271H6Z" fill="black"/>
<path d="M7.60837 17.2271V15.6719H8.896V17.2271H7.60837Z" fill="black"/>
<path d="M8.71272 17.2271V15.6719H10.1618V17.2271H8.71272Z" fill="black"/>
<path d="M9.83831 17.2271V15.6719H10.9653V17.2271H9.83831Z" fill="black"/>
<path d="M10.6213 17.2271V15.6719H12.2317V17.2271H10.6213Z" fill="black"/>
<path d="M12.0484 17.2271V15.6719H12.6926V17.2271H12.0484Z" fill="black"/>
<path d="M12.5086 17.2271V15.6719H14.2804V17.2271H12.5086Z" fill="black"/>
<path d="M14.1779 17.2271V15.6719H15.4655V17.2271H14.1779Z" fill="black"/>
<path d="M15.2822 17.2271V15.6719H16.7312V17.2271H15.2822Z" fill="black"/>
<path d="M16.4078 17.2271V15.6719H18.0182V17.2271H16.4078Z" fill="black"/>
<path d="M17.6735 17.2271V15.6719H19.284V17.2271H17.6735Z" fill="black"/>
<path d="M19.02 17.2271V15.6719H19.6642V17.2271H19.02Z" fill="black"/>
<path d="M19.6416 17.2271V15.6719H20.9292V17.2271H19.6416Z" fill="black"/>
<path d="M20.7459 17.2271V15.6719H22.195V17.2271H20.7459Z" fill="black"/>
<path d="M21.8715 17.2271V15.6719H22.5157V17.2271H21.8715Z" fill="black"/>
<path d="M22.3317 17.2271V15.6719H23.4586V17.2271H22.3317Z" fill="black"/>
<path d="M23.2761 17.2271V15.6719H24.5637V17.2271H23.2761Z" fill="black"/>
<path d="M24.3804 17.2271V15.6719H25.0246V17.2271H24.3804Z" fill="black"/>
<path d="M24.8406 17.2271V15.6719H25.9676V17.2271H24.8406Z" fill="black"/>
<path d="M25.9464 17.2271V15.6719H27.3954V17.2271H25.9464Z" fill="black"/>
<path d="M27.1314 17.2271V15.6719H28.5805V17.2271H27.1314Z" fill="black"/>
<path d="M28.3972 17.2271V15.6719H30.0076V17.2271H28.3972Z" fill="black"/>
<path d="M29.7436 17.2271V15.6719H31.3541V17.2271H29.7436Z" fill="black"/>
<path d="M31.0901 17.2271V15.6719H32.7005V17.2271H31.0901Z" fill="black"/>
<path d="M32.3558 17.2271V15.6719H33V17.2271H32.3558Z" fill="black"/>
<path d="M6 20.2271V18.6719H7.77183V20.2271H6Z" fill="black"/>
<path d="M7.60837 20.2271V18.6719H8.896V20.2271H7.60837Z" fill="black"/>
<path d="M8.71272 20.2271V18.6719H10.1618V20.2271H8.71272Z" fill="black"/>
<path d="M9.83831 20.2271V18.6719H10.9653V20.2271H9.83831Z" fill="black"/>
<path d="M10.6213 20.2271V18.6719H12.2317V20.2271H10.6213Z" fill="black"/>
<path d="M12.0484 20.2271V18.6719H12.6926V20.2271H12.0484Z" fill="black"/>
<path d="M12.5086 20.2271V18.6719H14.2804V20.2271H12.5086Z" fill="black"/>
<path d="M14.1779 20.2271V18.6719H15.4655V20.2271H14.1779Z" fill="black"/>
<path d="M15.2822 20.2271V18.6719H16.7312V20.2271H15.2822Z" fill="black"/>
<path d="M16.4078 20.2271V18.6719H18.0182V20.2271H16.4078Z" fill="black"/>
<path d="M17.6735 20.2271V18.6719H19.284V20.2271H17.6735Z" fill="black"/>
<path d="M19.4465 20.1515C19.4465 20.1169 19.4552 20.0927 19.4726 20.0787C19.49 20.0647 19.5107 20.0577 19.5349 20.0577C19.56 20.0577 19.5813 20.0647 19.5987 20.0787C19.6171 20.0927 19.6262 20.1169 19.6262 20.1515C19.6262 20.1851 19.6171 20.2093 19.5987 20.2243C19.5813 20.2392 19.56 20.2467 19.5349 20.2467C19.5107 20.2467 19.49 20.2392 19.4726 20.2243C19.4552 20.2093 19.4465 20.1851 19.4465 20.1515ZM19.8263 20.1515C19.8263 20.1169 19.835 20.0927 19.8524 20.0787C19.8698 20.0647 19.8906 20.0577 19.9147 20.0577C19.9399 20.0577 19.9611 20.0647 19.9785 20.0787C19.9969 20.0927 20.0061 20.1169 20.0061 20.1515C20.0061 20.1851 19.9969 20.2093 19.9785 20.2243C19.9611 20.2392 19.9399 20.2467 19.9147 20.2467C19.8906 20.2467 19.8698 20.2392 19.8524 20.2243C19.835 20.2093 19.8263 20.1851 19.8263 20.1515ZM20.2047 20.1515C20.2047 20.1169 20.2134 20.0927 20.2308 20.0787C20.2482 20.0647 20.269 20.0577 20.2931 20.0577C20.3182 20.0577 20.3395 20.0647 20.3569 20.0787C20.3753 20.0927 20.3845 20.1169 20.3845 20.1515C20.3845 20.1851 20.3753 20.2093 20.3569 20.2243C20.3395 20.2392 20.3182 20.2467 20.2931 20.2467C20.269 20.2467 20.2482 20.2392 20.2308 20.2243C20.2134 20.2093 20.2047 20.1851 20.2047 20.1515Z" fill="black"/>
<path d="M20.1088 20.2271V18.6719H20.753V20.2271H20.1088Z" fill="black"/>
<path d="M20.569 20.2271V18.6719H22.1794V20.2271H20.569Z" fill="black"/>
<path d="M22.0159 20.2271V18.6719H23.6264V20.2271H22.0159Z" fill="black"/>
<path d="M23.4431 20.2271V18.6719H24.57V20.2271H23.4431Z" fill="black"/>
<path d="M24.226 20.2271V18.6719H24.8702V20.2271H24.226Z" fill="black"/>
<path d="M24.6862 20.2271V18.6719H25.8132V20.2271H24.6862Z" fill="black"/>
<path d="M25.4692 20.2271V18.6719H27.0796V20.2271H25.4692Z" fill="black"/>
<path d="M26.8964 20.2271V18.6719H28.5068V20.2271H26.8964Z" fill="black"/>
<path d="M28.1621 20.2271V18.6719H28.8063V20.2271H28.1621Z" fill="black"/>
<path d="M6 23.2271V21.6719H7.77183V23.2271H6Z" fill="black"/>
<path d="M7.62819 23.2271V21.6719H9.07722V23.2271H7.62819Z" fill="black"/>
<path d="M8.89394 23.2271V21.6719H10.0209V23.2271H8.89394Z" fill="black"/>
<path d="M9.83831 23.2271V21.6719H10.9653V23.2271H9.83831Z" fill="black"/>
<path d="M10.6213 23.2271V21.6719H12.2317V23.2271H10.6213Z" fill="black"/>
<path d="M11.887 23.2271V21.6719H13.4975V23.2271H11.887Z" fill="black"/>
<path d="M13.2335 23.2271V21.6719H13.8777V23.2271H13.2335Z" fill="black"/>
<path d="M13.6937 23.2271V21.6719H15.1427V23.2271H13.6937Z" fill="black"/>
<path d="M15.0401 23.2271V21.6719H16.1671V23.2271H15.0401Z" fill="black"/>
<path d="M15.8231 23.2271V21.6719H17.4335V23.2271H15.8231Z" fill="black"/>
<path d="M17.1695 23.2271V21.6719H18.2965V23.2271H17.1695Z" fill="black"/>
<path d="M17.9525 23.2271V21.6719H19.5629V23.2271H17.9525Z" fill="black"/>
<path d="M19.2183 23.2271V21.6719H20.6673V23.2271H19.2183Z" fill="black"/>
<path d="M20.4444 23.2271V21.6719H21.0885V23.2271H20.4444Z" fill="black"/>
<path d="M20.9046 23.2271V21.6719H22.3536V23.2271H20.9046Z" fill="black"/>
<path d="M22.2921 23.2271V21.6719H23.5797V23.2271H22.2921Z" fill="black"/>
<path d="M23.3964 23.2271V21.6719H25.4903V23.2271H23.3964Z" fill="black"/>
<path d="M25.387 23.2271V21.6719H26.9975V23.2271H25.387Z" fill="black"/>
<path d="M26.6528 23.2271V21.6719H28.2632V23.2271H26.6528Z" fill="black"/>
<path d="M28.2413 23.2271V21.6719H29.529V23.2271H28.2413Z" fill="black"/>
<path d="M29.3457 23.2271V21.6719H31.6003V23.2271H29.3457Z" fill="black"/>
<path d="M31.3363 23.2271V21.6719H32.1412V23.2271H31.3363Z" fill="black"/>
<path d="M31.8772 23.2271V21.6719H32.5214V23.2271H31.8772Z" fill="black"/>
<path d="M6 26.2271V24.6719H7.12695V26.2271H6Z" fill="black"/>
<path d="M7.10577 26.2271V24.6719H8.5548V26.2271H7.10577Z" fill="black"/>
<path d="M8.37152 26.2271V24.6719H9.01569V26.2271H8.37152Z" fill="black"/>
<path d="M8.8317 26.2271V24.6719H10.4421V26.2271H8.8317Z" fill="black"/>
<path d="M10.1781 26.2271V24.6719H10.8223V26.2271H10.1781Z" fill="black"/>
<path d="M10.7997 26.2271V24.6719H12.2488V26.2271H10.7997Z" fill="black"/>
<path d="M11.9848 26.2271V24.6719H13.4338V26.2271H11.9848Z" fill="black"/>
<path d="M13.2718 26.2271V24.6719H14.5594V26.2271H13.2718Z" fill="black"/>
<path d="M14.3761 26.2271V24.6719H15.8252V26.2271H14.3761Z" fill="black"/>
<path d="M15.884 26.2271V24.6719H17.1716V26.2271H15.884Z" fill="black"/>
<path d="M16.9883 26.2271V24.6719H18.4374V26.2271H16.9883Z" fill="black"/>
<path d="M18.1734 26.2271V24.6719H19.7838V26.2271H18.1734Z" fill="black"/>
<path d="M19.5198 26.2271V24.6719H20.6468V26.2271H19.5198Z" fill="black"/>
<path d="M20.3028 26.2271V24.6719H21.4297V26.2271H20.3028Z" fill="black"/>
<path d="M21.1665 26.2271V24.6719H22.6155V26.2271H21.1665Z" fill="black"/>
<path d="M22.5129 26.2271V24.6719H24.1233V26.2271H22.5129Z" fill="black"/>
<path d="M23.7787 26.2271V24.6719H24.4228V26.2271H23.7787Z" fill="black"/>
<path d="M24.2388 26.2271V24.6719H26.4935V26.2271H24.2388Z" fill="black"/>
<path d="M26.1488 26.2271V24.6719H27.7592V26.2271H26.1488Z" fill="black"/>
<path d="M27.5759 26.2271V24.6719H29.025V26.2271H27.5759Z" fill="black"/>
<path d="M28.761 26.2271V24.6719H29.5658V26.2271H28.761Z" fill="black"/>
<path d="M29.3019 26.2271V24.6719H29.946V26.2271H29.3019Z" fill="black"/>
<path d="M6 29.2271V27.6719H7.12695V29.2271H6Z" fill="black"/>
<path d="M6.78297 29.2271V27.6719H8.23201V29.2271H6.78297Z" fill="black"/>
<path d="M8.06996 29.2271V27.6719H9.519V29.2271H8.06996Z" fill="black"/>
<path d="M9.25501 29.2271V27.6719H10.382V29.2271H9.25501Z" fill="black"/>
<path d="M10.3608 29.2271V27.6719H11.8098V29.2271H10.3608Z" fill="black"/>
<path d="M11.6265 29.2271V27.6719H13.237V29.2271H11.6265Z" fill="black"/>
<path d="M13.0537 29.2271V27.6719H13.6979V29.2271H13.0537Z" fill="black"/>
<path d="M13.5139 29.2271V27.6719H14.6408V29.2271H13.5139Z" fill="black"/>
<path d="M14.4582 29.2271V27.6719H15.7459V29.2271H14.4582Z" fill="black"/>
<path d="M15.5626 29.2271V27.6719H16.2068V29.2271H15.5626Z" fill="black"/>
<path d="M16.0228 29.2271V27.6719H17.1497V29.2271H16.0228Z" fill="black"/>
<path d="M17.1285 29.2271V27.6719H18.5776V29.2271H17.1285Z" fill="black"/>
<path d="M18.3136 29.2271V27.6719H19.7626V29.2271H18.3136Z" fill="black"/>
<path d="M19.5793 29.2271V27.6719H21.1898V29.2271H19.5793Z" fill="black"/>
<path d="M20.9258 29.2271V27.6719H22.5362V29.2271H20.9258Z" fill="black"/>
<path d="M22.2722 29.2271V27.6719H23.8827V29.2271H22.2722Z" fill="black"/>
<path d="M23.538 29.2271V27.6719H24.1822V29.2271H23.538Z" fill="black"/>
<path d="M23.9982 29.2271V27.6719H25.77V29.2271H23.9982Z" fill="black"/>
<path d="M25.6065 29.2271V27.6719H26.8942V29.2271H25.6065Z" fill="black"/>
<path d="M26.7109 29.2271V27.6719H28.1599V29.2271H26.7109Z" fill="black"/>
<path d="M27.8365 29.2271V27.6719H28.9634V29.2271H27.8365Z" fill="black"/>
<path d="M28.6195 29.2271V27.6719H30.2299V29.2271H28.6195Z" fill="black"/>
<path d="M30.0466 29.2271V27.6719H30.6908V29.2271H30.0466Z" fill="black"/>
<path d="M6 32.2271V30.6719H7.77183V32.2271H6Z" fill="black"/>
<path d="M7.66924 32.2271V30.6719H8.95688V32.2271H7.66924Z" fill="black"/>
<path d="M8.7736 32.2271V30.6719H10.2226V32.2271H8.7736Z" fill="black"/>
<path d="M9.89919 32.2271V30.6719H11.5096V32.2271H9.89919Z" fill="black"/>
<path d="M11.1649 32.2271V30.6719H12.7754V32.2271H11.1649Z" fill="black"/>
<path d="M12.8915 31.9065V31.7973H14.2252V31.9065H12.8915Z" fill="black"/>
<path d="M13.9031 32.2271V30.6719H15.0301V32.2271H13.9031Z" fill="black"/>
<path d="M14.8475 32.2271V30.6719H15.9745V32.2271H14.8475Z" fill="black"/>
<path d="M15.6305 32.2271V30.6719H16.4354V32.2271H15.6305Z" fill="black"/>
<path d="M16.2521 32.2271V30.6719H17.7011V32.2271H16.2521Z" fill="black"/>
<path d="M17.4782 32.2271V30.6719H18.1223V32.2271H17.4782Z" fill="black"/>
<path d="M17.9384 32.2271V30.6719H18.9046V32.2271H17.9384Z" fill="black"/>
<path d="M18.6406 32.2271V30.6719H20.2511V32.2271H18.6406Z" fill="black"/>
<path d="M20.0678 32.2271V30.6719H21.5168V32.2271H20.0678Z" fill="black"/>
<path d="M21.2939 32.2271V30.6719H22.4208V32.2271H21.2939Z" fill="black"/>
<path d="M22.0769 32.2271V30.6719H22.721V32.2271H22.0769Z" fill="black"/>
<path d="M22.6984 32.2271V30.6719H24.1475V32.2271H22.6984Z" fill="black"/>
<path d="M24.1256 32.2271V30.6719H25.4132V32.2271H24.1256Z" fill="black"/>
<path d="M25.2299 32.2271V30.6719H26.3569V32.2271H25.2299Z" fill="black"/>
<path d="M26.0129 32.2271V30.6719H26.6571V32.2271H26.0129Z" fill="black"/>
<path d="M26.4731 32.2271V30.6719H27.6V32.2271H26.4731Z" fill="black"/>
<path d="M27.2561 32.2271V30.6719H28.8665V32.2271H27.2561Z" fill="black"/>
<path d="M28.6832 32.2271V30.6719H30.2937V32.2271H28.6832Z" fill="black"/>
<path d="M29.949 32.2271V30.6719H30.5931V32.2271H29.949Z" fill="black"/>
<path d="M6 35.2271V33.6719H7.44904V35.2271H6Z" fill="black"/>
<path d="M7.18505 35.2271V33.6719H8.79548V35.2271H7.18505Z" fill="black"/>
<path d="M8.5315 35.2271V33.6719H9.98054V35.2271H8.5315Z" fill="black"/>
<path d="M9.75761 35.2271V33.6719H11.368V35.2271H9.75761Z" fill="black"/>
<path d="M11.0234 35.2271V33.6719H11.8282V35.2271H11.0234Z" fill="black"/>
<path d="M11.5642 35.2271V33.6719H12.3691V35.2271H11.5642Z" fill="black"/>
<path d="M6.32209 8.12246H28.6379V8.19219H6.32209V8.12246ZM6.32209 11.1225H29.849V11.1922H6.32209V11.1225ZM6.32209 14.1225H30.889V14.1922H6.32209V14.1225ZM6.32209 17.1225H32.6779V17.1922H6.32209V17.1225ZM6.32209 20.1225H19.3421V20.1922H6.32209V20.1225ZM19.3421 20.4021H20.4308V20.4721H19.3421V20.4021ZM20.4309 20.1225H28.4842V20.1922H20.4309V20.1225ZM6.32209 23.1225H32.1993V23.1922H6.32209V23.1225ZM6.32209 26.1225H29.6239V26.1922H6.32209V26.1225ZM6.32209 29.1225H30.3687V29.1922H6.32209V29.1225ZM6.32209 32.1225H12.8335V32.1922H6.32209V32.1225ZM12.8335 32.4021H14.2252V32.4721H12.8335V32.4021ZM14.2252 32.1225H30.2711V32.1922H14.2252V32.1225ZM6.32209 35.1225H12.5659V35.1922H6.32209V35.1225Z" fill="black"/>
</g>
<rect width="12" height="14" transform="translate(25 18.6719)" fill="white"/>
<path d="M31.4307 23.6904C31.141 23.6904 30.8838 23.7474 30.6592 23.8613C30.4378 23.972 30.2507 24.1331 30.0977 24.3447C29.9479 24.5563 29.834 24.8118 29.7559 25.1113C29.6777 25.4108 29.6387 25.7477 29.6387 26.1221C29.6387 26.6266 29.7005 27.0579 29.8242 27.416C29.9512 27.7708 30.1465 28.0426 30.4102 28.2314C30.6738 28.417 31.014 28.5098 31.4307 28.5098C31.7204 28.5098 32.0101 28.4772 32.2998 28.4121C32.5928 28.347 32.9102 28.2542 33.252 28.1338V29.4033C32.9362 29.5335 32.6253 29.6263 32.3193 29.6816C32.0133 29.7402 31.6699 29.7695 31.2891 29.7695C30.5534 29.7695 29.9479 29.6182 29.4727 29.3154C29.0007 29.0094 28.6507 28.583 28.4229 28.0361C28.195 27.486 28.0811 26.8447 28.0811 26.1123C28.0811 25.5719 28.1543 25.0771 28.3008 24.6279C28.4473 24.1787 28.6621 23.7897 28.9453 23.4609C29.2285 23.1322 29.5785 22.8783 29.9951 22.6992C30.4118 22.5202 30.8903 22.4307 31.4307 22.4307C31.7855 22.4307 32.1403 22.4762 32.4951 22.5674C32.8532 22.6553 33.195 22.7773 33.5205 22.9336L33.0322 24.1641C32.7653 24.0371 32.4967 23.9264 32.2266 23.832C31.9564 23.7376 31.6911 23.6904 31.4307 23.6904Z" fill="#585858"/>
</g>
<path d="M11.3333 38.6719H2V45.02H11.3333V38.6719Z" fill="#E5592D"/>
</g>
<defs>
<filter id="filter0_d_238_43837" x="0" y="1.67188" width="39" height="35" filterUnits="userSpaceOnUse" color-interpolation-filters="sRGB">
<feFlood flood-opacity="0" result="BackgroundImageFix"/>
<feColorMatrix in="SourceAlpha" type="matrix" values="0 0 0 0 0 0 0 0 0 0 0 0 0 0 0 0 0 0 127 0" result="hardAlpha"/>
<feOffset dy="1"/>
<feGaussianBlur stdDeviation="1"/>
<feComposite in2="hardAlpha" operator="out"/>
<feColorMatrix type="matrix" values="0 0 0 0 0 0 0 0 0 0 0 0 0 0 0 0 0 0 0.1 0"/>
<feBlend mode="normal" in2="BackgroundImageFix" result="effect1_dropShadow_238_43837"/>
<feBlend mode="normal" in="SourceGraphic" in2="effect1_dropShadow_238_43837" result="shape"/>
</filter>
<filter id="filter1_i_238_43837" x="2" y="-2.32812" width="35" height="34" filterUnits="userSpaceOnUse" color-interpolation-filters="sRGB">
<feFlood flood-opacity="0" result="BackgroundImageFix"/>
<feBlend mode="normal" in="SourceGraphic" in2="BackgroundImageFix" result="shape"/>
<feColorMatrix in="SourceAlpha" type="matrix" values="0 0 0 0 0 0 0 0 0 0 0 0 0 0 0 0 0 0 127 0" result="hardAlpha"/>
<feOffset dy="-5"/>
<feGaussianBlur stdDeviation="3.5"/>
<feComposite in2="hardAlpha" operator="arithmetic" k2="-1" k3="1"/>
<feColorMatrix type="matrix" values="0 0 0 0 1 0 0 0 0 1 0 0 0 0 1 0 0 0 1 0"/>
<feBlend mode="normal" in2="shape" result="effect1_innerShadow_238_43837"/>
</filter>
<clipPath id="clip0_238_43837">
<rect width="39" height="46.3481" fill="white" transform="translate(0 0.671875)"/>
</clipPath>
<clipPath id="clip1_238_43837">
<rect width="35" height="31" fill="white" transform="translate(2 2.67188)"/>
</clipPath>
<clipPath id="clip2_238_43837">
<rect width="35" height="29" fill="white" transform="translate(2 2.67188)"/>
</clipPath>
</defs>
</svg>
