<svg width="39" height="47" viewBox="0 0 39 47" fill="none" xmlns="http://www.w3.org/2000/svg">
<rect width="35" height="31" transform="translate(2 2)" fill="white"/>
<g opacity="0.3" clip-path="url(#clip0_238_43628)" filter="url(#filter0_i_238_43628)">
<rect width="35" height="29" transform="translate(2 2)" fill="white"/>
<path d="M6 7.55518V6H6.76169V7.55518H6Z" fill="black"/>
<path d="M6.58823 7.55518V6H8.11228V7.55518H6.58823Z" fill="black"/>
<path d="M7.93882 7.55518V6H9.46287V7.55518H7.93882Z" fill="black"/>
<path d="M9.28941 7.55518V6H10.8135V7.55518H9.28941Z" fill="black"/>
<path d="M10.4873 7.55518V6H11.0969V7.55518H10.4873Z" fill="black"/>
<path d="M10.9228 7.55518V6H12.5995V7.55518H10.9228Z" fill="black"/>
<path d="M12.2921 7.55518V6H13.8161V7.55518H12.2921Z" fill="black"/>
<path d="M13.49 7.55518V6H15.4715V7.55518H13.49Z" fill="black"/>
<path d="M15.5265 7.55518V6H16.7451V7.55518H15.5265Z" fill="black"/>
<path d="M16.5716 7.55518V6H17.9429V7.55518H16.5716Z" fill="black"/>
<path d="M17.6931 7.55518V6H19.0644V7.55518H17.6931Z" fill="black"/>
<path d="M18.7208 7.55518V6H20.2449V7.55518H18.7208Z" fill="black"/>
<path d="M19.995 7.55518V6H21.0615V7.55518H19.995Z" fill="black"/>
<path d="M20.736 7.55518V6H21.8025V7.55518H20.736Z" fill="black"/>
<path d="M21.6297 7.55518V6H23.001V7.55518H21.6297Z" fill="black"/>
<path d="M22.7512 7.55518V6H23.3608V7.55518H22.7512Z" fill="black"/>
<path d="M23.3394 7.55518V6H24.8635V7.55518H23.3394Z" fill="black"/>
<path d="M24.556 7.55518V6H26.0801V7.55518H24.556Z" fill="black"/>
<path d="M25.9066 7.55518V6H27.1252V7.55518H25.9066Z" fill="black"/>
<path d="M27.1045 7.55518V6H28.4758V7.55518H27.1045Z" fill="black"/>
<path d="M28.226 7.55518V6H29.2925V7.55518H28.226Z" fill="black"/>
<path d="M29.1197 7.55518V6H30.6437V7.55518H29.1197Z" fill="black"/>
<path d="M30.3175 7.55518V6H31.0792V7.55518H30.3175Z" fill="black"/>
<path d="M30.9058 7.55518V6H32.2771V7.55518H30.9058Z" fill="black"/>
<path d="M32.0661 7.55518V6H32.6757V7.55518H32.0661Z" fill="black"/>
<path d="M6 10.5552V9H7.67678V10.5552H6Z" fill="black"/>
<path d="M7.50333 10.5552V9H9.02737V10.5552H7.50333Z" fill="black"/>
<path d="M8.85392 10.5552V9H10.2252V10.5552H8.85392Z" fill="black"/>
<path d="M9.9754 10.5552V9H11.4994V10.5552H9.9754Z" fill="black"/>
<path d="M11.4787 10.5552V9H12.85V10.5552H11.4787Z" fill="black"/>
<path d="M12.5238 10.5552V9H13.5903V10.5552H12.5238Z" fill="black"/>
<path d="M13.4176 10.5552V9H14.484V10.5552H13.4176Z" fill="black"/>
<path d="M14.3113 10.5552V9H15.6826V10.5552H14.3113Z" fill="black"/>
<path d="M15.4327 10.5552V9H16.0424V10.5552H15.4327Z" fill="black"/>
<path d="M16.021 10.5552V9H17.2395V10.5552H16.021Z" fill="black"/>
<path d="M17.0661 10.5552V9H18.2853V10.5552H17.0661Z" fill="black"/>
<path d="M17.9598 10.5552V9H18.5694V10.5552H17.9598Z" fill="black"/>
<path d="M18.3953 10.5552V9H20.0721V10.5552H18.3953Z" fill="black"/>
<path d="M19.975 10.5552V9H21.1936V10.5552H19.975Z" fill="black"/>
<path d="M21.0201 10.5552V9H22.3914V10.5552H21.0201Z" fill="black"/>
<path d="M22.0853 10.5552V9H23.6094V10.5552H22.0853Z" fill="black"/>
<path d="M23.2832 10.5552V9H24.8072V10.5552H23.2832Z" fill="black"/>
<path d="M24.5574 10.5552V9H25.167V10.5552H24.5574Z" fill="black"/>
<path d="M24.9929 10.5552V9H26.5169V10.5552H24.9929Z" fill="black"/>
<path d="M26.4198 10.5552V9H27.7911V10.5552H26.4198Z" fill="black"/>
<path d="M27.6177 10.5552V9H29.1417V10.5552H27.6177Z" fill="black"/>
<path d="M28.8919 10.5552V9H29.5015V10.5552H28.8919Z" fill="black"/>
<path d="M6 13.5552V12H7.06649V13.5552H6Z" fill="black"/>
<path d="M6.74097 13.5552V12H8.26501V13.5552H6.74097Z" fill="black"/>
<path d="M8.09156 13.5552V12H9.6156V13.5552H8.09156Z" fill="black"/>
<path d="M9.28941 13.5552V12H9.89903V13.5552H9.28941Z" fill="black"/>
<path d="M9.72491 13.5552V12H11.4017V13.5552H9.72491Z" fill="black"/>
<path d="M11.2658 13.5552V12H12.6371V13.5552H11.2658Z" fill="black"/>
<path d="M12.4636 13.5552V12H13.5301V13.5552H12.4636Z" fill="black"/>
<path d="M13.3573 13.5552V12H14.4238V13.5552H13.3573Z" fill="black"/>
<path d="M14.0983 13.5552V12H15.6223V13.5552H14.0983Z" fill="black"/>
<path d="M15.2961 13.5552V12H16.8202V13.5552H15.2961Z" fill="black"/>
<path d="M16.5704 13.5552V12H17.18V13.5552H16.5704Z" fill="black"/>
<path d="M17.0058 13.5552V12H18.3772V13.5552H17.0058Z" fill="black"/>
<path d="M18.2801 13.5552V12H19.3466V13.5552H18.2801Z" fill="black"/>
<path d="M19.021 13.5552V12H20.5451V13.5552H19.021Z" fill="black"/>
<path d="M20.2953 13.5552V12H21.3618V13.5552H20.2953Z" fill="black"/>
<path d="M21.0362 13.5552V12H22.5603V13.5552H21.0362Z" fill="black"/>
<path d="M22.2341 13.5552V12H23.6054V13.5552H22.2341Z" fill="black"/>
<path d="M23.3944 13.5552V12H24.004V13.5552H23.3944Z" fill="black"/>
<path d="M23.8299 13.5552V12H25.354V13.5552H23.8299Z" fill="black"/>
<path d="M25.1805 13.5552V12H26.7045V13.5552H25.1805Z" fill="black"/>
<path d="M26.3784 13.5552V12H27.7497V13.5552H26.3784Z" fill="black"/>
<path d="M27.6526 13.5552V12H29.1766V13.5552H27.6526Z" fill="black"/>
<path d="M28.8504 13.5552V12H29.46V13.5552H28.8504Z" fill="black"/>
<path d="M6 16.5552V15H7.52404V16.5552H6Z" fill="black"/>
<path d="M7.27422 16.5552V15H8.79826V16.5552H7.27422Z" fill="black"/>
<path d="M8.62481 16.5552V15H9.99611V16.5552H8.62481Z" fill="black"/>
<path d="M9.69002 16.5552V15H11.2141V16.5552H9.69002Z" fill="black"/>
<path d="M10.8879 16.5552V15H12.4119V16.5552H10.8879Z" fill="black"/>
<path d="M12.0857 16.5552V15H13.6098V16.5552H12.0857Z" fill="black"/>
<path d="M13.3599 16.5552V15H13.9696V16.5552H13.3599Z" fill="black"/>
<path d="M13.7954 16.5552V15H14.8619V16.5552H13.7954Z" fill="black"/>
<path d="M14.6891 16.5552V15H15.9077V16.5552H14.6891Z" fill="black"/>
<path d="M15.7343 16.5552V15H16.3439V16.5552H15.7343Z" fill="black"/>
<path d="M16.3225 16.5552V15H17.6938V16.5552H16.3225Z" fill="black"/>
<path d="M17.444 16.5552V15H18.8153V16.5552H17.444Z" fill="black"/>
<path d="M18.5092 16.5552V15H19.5757V16.5552H18.5092Z" fill="black"/>
<path d="M19.5556 16.5552V15H20.9269V16.5552H19.5556Z" fill="black"/>
<path d="M20.7535 16.5552V15H22.1248V16.5552H20.7535Z" fill="black"/>
<path d="M21.875 16.5552V15H22.9415V16.5552H21.875Z" fill="black"/>
<path d="M22.9214 16.5552V15H24.2927V16.5552H22.9214Z" fill="black"/>
<path d="M24.0429 16.5552V15H25.1094V16.5552H24.0429Z" fill="black"/>
<path d="M24.9366 16.5552V15H26.4606V16.5552H24.9366Z" fill="black"/>
<path d="M26.1345 16.5552V15H27.5058V16.5552H26.1345Z" fill="black"/>
<path d="M27.2948 16.5552V15H27.9044V16.5552H27.2948Z" fill="black"/>
<path d="M27.883 16.5552V15H29.1016V16.5552H27.883Z" fill="black"/>
<path d="M28.9281 16.5552V15H30.1474V16.5552H28.9281Z" fill="black"/>
<path d="M29.8218 16.5552V15H30.5835V16.5552H29.8218Z" fill="black"/>
<path d="M30.3337 16.5552V15H30.9433V16.5552H30.3337Z" fill="black"/>
<path d="M30.7692 16.5552V15H31.5309V16.5552H30.7692Z" fill="black"/>
<path d="M31.3574 16.5552V15H31.9671V16.5552H31.3574Z" fill="black"/>
<path d="M6 19.5552V18H7.67678V19.5552H6Z" fill="black"/>
<path d="M7.42696 19.5552V18H8.79826V19.5552H7.42696Z" fill="black"/>
<path d="M8.58729 19.5552V18H9.9586V19.5552H8.58729Z" fill="black"/>
<path d="M9.74763 19.5552V18H11.2717V19.5552H9.74763Z" fill="black"/>
<path d="M11.0982 19.5552V18H12.4695V19.5552H11.0982Z" fill="black"/>
<path d="M12.1259 19.5552V18H13.65V19.5552H12.1259Z" fill="black"/>
<path d="M13.5529 19.5552V18H14.9242V19.5552H13.5529Z" fill="black"/>
<path d="M14.7507 19.5552V18H16.122V19.5552H14.7507Z" fill="black"/>
<path d="M15.8722 19.5552V18H17.3962V19.5552H15.8722Z" fill="black"/>
<path d="M17.0701 19.5552V18H18.4414V19.5552H17.0701Z" fill="black"/>
<path d="M18.2304 19.5552V18H18.84V19.5552H18.2304Z" fill="black"/>
<path d="M18.6659 19.5552V18H20.1899V19.5552H18.6659Z" fill="black"/>
<path d="M19.9401 19.5552V18H21.4641V19.5552H19.9401Z" fill="black"/>
<path d="M21.2907 19.5552V18H22.8147V19.5552H21.2907Z" fill="black"/>
<path d="M22.5649 19.5552V18H23.6314V19.5552H22.5649Z" fill="black"/>
<path d="M23.6114 19.5552V18H24.9827V19.5552H23.6114Z" fill="black"/>
<path d="M24.8092 19.5552V18H26.1805V19.5552H24.8092Z" fill="black"/>
<path d="M25.9695 19.5552V18H27.036V19.5552H25.9695Z" fill="black"/>
<path d="M26.7105 19.5552V18H27.3201V19.5552H26.7105Z" fill="black"/>
<path d="M27.146 19.5552V18H28.2125V19.5552H27.146Z" fill="black"/>
<path d="M27.887 19.5552V18H29.411V19.5552H27.887Z" fill="black"/>
<path d="M29.2376 19.5552V18H30.7616V19.5552H29.2376Z" fill="black"/>
<path d="M30.4354 19.5552V18H31.045V19.5552H30.4354Z" fill="black"/>
<path d="M6 22.5552V21H7.06649V22.5552H6Z" fill="black"/>
<path d="M6.74097 22.5552V21H8.26501V22.5552H6.74097Z" fill="black"/>
<path d="M8.09156 22.5552V21H9.46287V22.5552H8.09156Z" fill="black"/>
<path d="M9.15677 22.5552V21H10.6808V22.5552H9.15677Z" fill="black"/>
<path d="M10.3546 22.5552V21H11.8787V22.5552H10.3546Z" fill="black"/>
<path d="M11.6288 22.5552V21H12.6953V22.5552H11.6288Z" fill="black"/>
<path d="M12.3698 22.5552V21H12.9794V22.5552H12.3698Z" fill="black"/>
<path d="M12.8053 22.5552V21H14.3293V22.5552H12.8053Z" fill="black"/>
<path d="M14.2323 22.5552V21H15.6036V22.5552H14.2323Z" fill="black"/>
<path d="M15.4301 22.5552V21H16.9542V22.5552H15.4301Z" fill="black"/>
<path d="M16.7043 22.5552V21H17.314V22.5552H16.7043Z" fill="black"/>
<path d="M17.1398 22.5552V21H18.6639V22.5552H17.1398Z" fill="black"/>
<path d="M18.4904 22.5552V21H19.8617V22.5552H18.4904Z" fill="black"/>
<path d="M19.6508 22.5552V21H21.1748V22.5552H19.6508Z" fill="black"/>
<path d="M20.8486 22.5552V21H21.4582V22.5552H20.8486Z" fill="black"/>
<path d="M21.4368 22.5552V21H22.6554V22.5552H21.4368Z" fill="black"/>
<path d="M22.482 22.5552V21H23.7012V22.5552H22.482Z" fill="black"/>
<path d="M23.3757 22.5552V21H23.9853V22.5552H23.3757Z" fill="black"/>
<path d="M23.8112 22.5552V21H25.0304V22.5552H23.8112Z" fill="black"/>
<path d="M24.8576 22.5552V21H26.0762V22.5552H24.8576Z" fill="black"/>
<path d="M25.9027 22.5552V21H27.274V22.5552H25.9027Z" fill="black"/>
<path d="M26.9679 22.5552V21H28.3392V22.5552H26.9679Z" fill="black"/>
<path d="M28.0894 22.5552V21H29.6135V22.5552H28.0894Z" fill="black"/>
<path d="M29.2873 22.5552V21H30.0489V22.5552H29.2873Z" fill="black"/>
<path d="M29.7991 22.5552V21H30.4087V22.5552H29.7991Z" fill="black"/>
<path d="M6 25.5552V24H7.06649V25.5552H6Z" fill="black"/>
<path d="M7.04645 25.5552V24H8.41775V25.5552H7.04645Z" fill="black"/>
<path d="M8.2443 25.5552V24H9.6156V25.5552H8.2443Z" fill="black"/>
<path d="M9.36578 25.5552V24H10.4323V25.5552H9.36578Z" fill="black"/>
<path d="M10.2595 25.5552V24H11.7835V25.5552H10.2595Z" fill="black"/>
<path d="M11.6101 25.5552V24H13.1341V25.5552H11.6101Z" fill="black"/>
<path d="M12.8843 25.5552V24H13.9508V25.5552H12.8843Z" fill="black"/>
<path d="M13.9308 25.5552V24H15.3021V25.5552H13.9308Z" fill="black"/>
<path d="M15.1286 25.5552V24H16.6526V25.5552H15.1286Z" fill="black"/>
<path d="M16.4792 25.5552V24H17.0888V25.5552H16.4792Z" fill="black"/>
<path d="M17.0674 25.5552V24H18.4387V25.5552H17.0674Z" fill="black"/>
<path d="M18.2653 25.5552V24H19.7893V25.5552H18.2653Z" fill="black"/>
<path d="M19.6159 25.5552V24H20.9872V25.5552H19.6159Z" fill="black"/>
<path d="M20.7373 25.5552V24H21.8038V25.5552H20.7373Z" fill="black"/>
<path d="M21.6311 25.5552V24H23.1551V25.5552H21.6311Z" fill="black"/>
<path d="M22.8289 25.5552V24H24.353V25.5552H22.8289Z" fill="black"/>
<path d="M24.1031 25.5552V24H25.4744V25.5552H24.1031Z" fill="black"/>
<path d="M25.1683 25.5552V24H25.778V25.5552H25.1683Z" fill="black"/>
<path d="M6 28.5552V27H8.13366V28.5552H6Z" fill="black"/>
<path d="M7.88384 28.5552V27H9.40788V28.5552H7.88384Z" fill="black"/>
<path d="M9.08169 28.5552V27H10.6057V28.5552H9.08169Z" fill="black"/>
<path d="M10.5086 28.5552V27H11.8799V28.5552H10.5086Z" fill="black"/>
<path d="M11.7829 28.5552V27H13.0014V28.5552H11.7829Z" fill="black"/>
<path d="M12.9807 28.5552V27H14.352V28.5552H12.9807Z" fill="black"/>
<path d="M14.1786 28.5552V27H15.5499V28.5552H14.1786Z" fill="black"/>
<path d="M15.3389 28.5552V27H16.2533V28.5552H15.3389Z" fill="black"/>
<path d="M15.8508 28.5552V27H16.4604V28.5552H15.8508Z" fill="black"/>
<path d="M16.2863 28.5552V27H17.0479V28.5552H16.2863Z" fill="black"/>
<path d="M16.8745 28.5552V27H17.4841V28.5552H16.8745Z" fill="black"/>
<path d="M17.4627 28.5552V27H18.9868V28.5552H17.4627Z" fill="black"/>
<path d="M18.6793 28.5552V27H20.2034V28.5552H18.6793Z" fill="black"/>
<path d="M19.8772 28.5552V27H21.4012V28.5552H19.8772Z" fill="black"/>
<path d="M21.1514 28.5552V27H22.5227V28.5552H21.1514Z" fill="black"/>
<path d="M22.2729 28.5552V27H23.7969V28.5552H22.2729Z" fill="black"/>
<path d="M23.4707 28.5552V27H24.0804V28.5552H23.4707Z" fill="black"/>
<path d="M23.9062 28.5552V27H25.4303V28.5552H23.9062Z" fill="black"/>
<path d="M25.3332 28.5552V27H26.7045V28.5552H25.3332Z" fill="black"/>
<path d="M26.531 28.5552V27H28.0551V28.5552H26.531Z" fill="black"/>
<path d="M27.8053 28.5552V27H28.4149V28.5552H27.8053Z" fill="black"/>
<path d="M6 31.5552V30H7.3713V31.5552H6Z" fill="black"/>
<path d="M7.16034 31.5552V30H8.68438V31.5552H7.16034Z" fill="black"/>
<path d="M8.35819 31.5552V30H9.72949V31.5552H8.35819Z" fill="black"/>
<path d="M9.47967 31.5552V30H11.0037V31.5552H9.47967Z" fill="black"/>
<path d="M10.8303 31.5552V30H12.2016V31.5552H10.8303Z" fill="black"/>
<path d="M11.8955 31.5552V30H12.962V31.5552H11.8955Z" fill="black"/>
<path d="M12.7892 31.5552V30H13.8557V31.5552H12.7892Z" fill="black"/>
<path d="M13.6829 31.5552V30H15.0542V31.5552H13.6829Z" fill="black"/>
<path d="M14.8044 31.5552V30H15.414V31.5552H14.8044Z" fill="black"/>
<path d="M15.2399 31.5552V30H16.3064V31.5552H15.2399Z" fill="black"/>
<path d="M16.2863 31.5552V30H17.6576V31.5552H16.2863Z" fill="black"/>
<path d="M17.4842 31.5552V30H18.0938V31.5552H17.4842Z" fill="black"/>
<path d="M17.9197 31.5552V30H19.4437V31.5552H17.9197Z" fill="black"/>
<path d="M19.1939 31.5552V30H19.8035V31.5552H19.1939Z" fill="black"/>
<path d="M19.7821 31.5552V30H21.1534V31.5552H19.7821Z" fill="black"/>
<path d="M20.98 31.5552V30H22.504V31.5552H20.98Z" fill="black"/>
<path d="M22.3306 31.5552V30H23.7019V31.5552H22.3306Z" fill="black"/>
<path d="M23.452 31.5552V30H24.5185V31.5552H23.452Z" fill="black"/>
<path d="M24.3457 31.5552V30H25.8698V31.5552H24.3457Z" fill="black"/>
<path d="M25.5436 31.5552V30H27.0676V31.5552H25.5436Z" fill="black"/>
<path d="M26.8178 31.5552V30H28.1891V31.5552H26.8178Z" fill="black"/>
<path d="M27.883 31.5552V30H28.6447V31.5552H27.883Z" fill="black"/>
<path d="M6 34.5552V33H7.21923V34.5552H6Z" fill="black"/>
<path d="M6.89371 34.5552V33H8.26502V34.5552H6.89371Z" fill="black"/>
<path d="M7.95892 34.5552V33H9.48296V34.5552H7.95892Z" fill="black"/>
<path d="M9.15677 34.5552V33H10.6808V34.5552H9.15677Z" fill="black"/>
<path d="M10.3546 34.5552V33H10.9642V34.5552H10.3546Z" fill="black"/>
<path d="M10.7901 34.5552V33H12.4669V34.5552H10.7901Z" fill="black"/>
<path d="M12.3698 34.5552V33H13.5884V34.5552H12.3698Z" fill="black"/>
<path d="M13.4149 34.5552V33H14.7862V34.5552H13.4149Z" fill="black"/>
<path d="M14.4801 34.5552V33H16.0042V34.5552H14.4801Z" fill="black"/>
<path d="M15.678 34.5552V33H17.202V34.5552H15.678Z" fill="black"/>
<path d="M17.1049 34.5552V33H18.4762V34.5552H17.1049Z" fill="black"/>
<path d="M18.3028 34.5552V33H18.9124V34.5552H18.3028Z" fill="black"/>
<path d="M18.891 34.5552V33H20.4151V34.5552H18.891Z" fill="black"/>
<path d="M20.1076 34.5552V33H21.6317V34.5552H20.1076Z" fill="black"/>
<path d="M21.4582 34.5552V33H22.8295V34.5552H21.4582Z" fill="black"/>
<path d="M22.6561 34.5552V33H23.7226V34.5552H22.6561Z" fill="black"/>
<path d="M23.7025 34.5552V33H25.0738V34.5552H23.7025Z" fill="black"/>
<path d="M24.9004 34.5552V33H26.2717V34.5552H24.9004Z" fill="black"/>
<path d="M26.0607 34.5552V33H27.5848V34.5552H26.0607Z" fill="black"/>
<path d="M27.4113 34.5552V33H28.4778V34.5552H27.4113Z" fill="black"/>
<path d="M28.305 34.5552V33H29.8291V34.5552H28.305Z" fill="black"/>
<path d="M29.5792 34.5552V33H30.3409V34.5552H29.5792Z" fill="black"/>
<path d="M30.0911 34.5552V33H30.7007V34.5552H30.0911Z" fill="black"/>
<path d="M6 37.5552V36H7.06649V37.5552H6Z" fill="black"/>
<path d="M7.04645 37.5552V36H8.41775V37.5552H7.04645Z" fill="black"/>
<path d="M8.2443 37.5552V36H9.6156V37.5552H8.2443Z" fill="black"/>
<path d="M9.36578 37.5552V36H10.4323V37.5552H9.36578Z" fill="black"/>
<path d="M10.2595 37.5552V36H11.7835V37.5552H10.2595Z" fill="black"/>
<path d="M11.6101 37.5552V36H13.1341V37.5552H11.6101Z" fill="black"/>
<path d="M12.8843 37.5552V36H13.9508V37.5552H12.8843Z" fill="black"/>
<path d="M13.9308 37.5552V36H15.3021V37.5552H13.9308Z" fill="black"/>
<path d="M15.1286 37.5552V36H16.6526V37.5552H15.1286Z" fill="black"/>
<path d="M16.4792 37.5552V36H17.0888V37.5552H16.4792Z" fill="black"/>
<path d="M16.9147 37.5552V36H17.9812V37.5552H16.9147Z" fill="black"/>
<path d="M17.8084 37.5552V36H19.79V37.5552H17.8084Z" fill="black"/>
<path d="M19.845 37.5552V36H21.2163V37.5552H19.845Z" fill="black"/>
<path d="M20.9665 37.5552V36H22.4905V37.5552H20.9665Z" fill="black"/>
<path d="M22.2407 37.5552V36H23.612V37.5552H22.2407Z" fill="black"/>
<path d="M23.3059 37.5552V36H24.3724V37.5552H23.3059Z" fill="black"/>
<path d="M24.0469 37.5552V36H25.1134V37.5552H24.0469Z" fill="black"/>
<path d="M24.9406 37.5552V36H26.4646V37.5552H24.9406Z" fill="black"/>
<path d="M26.2148 37.5552V36H27.2813V37.5552H26.2148Z" fill="black"/>
<path d="M27.1085 37.5552V36H27.7181V37.5552H27.1085Z" fill="black"/>
<path d="M6 40.5552V39H7.52404V40.5552H6Z" fill="black"/>
<path d="M7.42696 40.5552V39H8.79826V40.5552H7.42696Z" fill="black"/>
<path d="M8.70118 40.5552V39H10.0725V40.5552H8.70118Z" fill="black"/>
<path d="M9.82266 40.5552V39H10.8892V40.5552H9.82266Z" fill="black"/>
<path d="M10.7164 40.5552V39H11.7829V40.5552H10.7164Z" fill="black"/>
<path d="M11.6101 40.5552V39H12.9814V40.5552H11.6101Z" fill="black"/>
<path d="M12.7316 40.5552V39H14.2556V40.5552H12.7316Z" fill="black"/>
<path d="M14.0058 40.5552V39H15.0723V40.5552H14.0058Z" fill="black"/>
<path d="M14.7468 40.5552V39H15.8133V40.5552H14.7468Z" fill="black"/>
<path d="M15.7932 40.5552V39H17.0118V40.5552H15.7932Z" fill="black"/>
<path d="M16.9911 40.5552V39H18.3624V40.5552H16.9911Z" fill="black"/>
<path d="M18.1889 40.5552V39H18.7985V40.5552H18.1889Z" fill="black"/>
<path d="M18.7771 40.5552V39H19.9957V40.5552H18.7771Z" fill="black"/>
<path d="M19.8223 40.5552V39H21.0415V40.5552H19.8223Z" fill="black"/>
<path d="M20.716 40.5552V39H21.3256V40.5552H20.716Z" fill="black"/>
<path d="M21.1515 40.5552V39H22.3707V40.5552H21.1515Z" fill="black"/>
<path d="M22.0452 40.5552V39H23.5692V40.5552H22.0452Z" fill="black"/>
<path d="M23.3958 40.5552V39H24.4623V40.5552H23.3958Z" fill="black"/>
<path d="M24.2895 40.5552V39H25.356V40.5552H24.2895Z" fill="black"/>
<path d="M25.1832 40.5552V39H26.5545V40.5552H25.1832Z" fill="black"/>
<path d="M26.3435 40.5552V39H27.7148V40.5552H26.3435Z" fill="black"/>
<path d="M27.6177 40.5552V39H28.8363V40.5552H27.6177Z" fill="black"/>
<path d="M28.8156 40.5552V39H30.1869V40.5552H28.8156Z" fill="black"/>
<path d="M29.9371 40.5552V39H31.4611V40.5552H29.9371Z" fill="black"/>
<path d="M31.1349 40.5552V39H31.7445V40.5552H31.1349Z" fill="black"/>
<path d="M6 43.5552V42H7.3713V43.5552H6Z" fill="black"/>
<path d="M7.16034 43.5552V42H8.68438V43.5552H7.16034Z" fill="black"/>
<path d="M8.43456 43.5552V42H9.65379V43.5552H8.43456Z" fill="black"/>
<path d="M9.32827 43.5552V42H10.8523V43.5552H9.32827Z" fill="black"/>
<path d="M10.5261 43.5552V42H12.0502V43.5552H10.5261Z" fill="black"/>
<path d="M11.8767 43.5552V42H13.4007V43.5552H11.8767Z" fill="black"/>
<path d="M13.2273 43.5552V42H14.7513V43.5552H13.2273Z" fill="black"/>
<path d="M14.5015 43.5552V42H15.8728V43.5552H14.5015Z" fill="black"/>
<path d="M15.5667 43.5552V42H17.0908V43.5552H15.5667Z" fill="black"/>
<path d="M16.8409 43.5552V42H18.2122V43.5552H16.8409Z" fill="black"/>
<path d="M18.0013 43.5552V42H18.763V43.5552H18.0013Z" fill="black"/>
<path d="M18.5131 43.5552V42H19.1228V43.5552H18.5131Z" fill="black"/>
<path d="M18.9486 43.5552V42H20.9302V43.5552H18.9486Z" fill="black"/>
<path d="M20.8325 43.5552V42H22.3565V43.5552H20.8325Z" fill="black"/>
<path d="M22.1831 43.5552V42H23.2496V43.5552H22.1831Z" fill="black"/>
<path d="M22.924 43.5552V42H24.4481V43.5552H22.924Z" fill="black"/>
<path d="M24.2746 43.5552V42H25.7987V43.5552H24.2746Z" fill="black"/>
<path d="M25.5488 43.5552V42H26.6153V43.5552H25.5488Z" fill="black"/>
<path d="M26.4426 43.5552V42H27.0522V43.5552H26.4426Z" fill="black"/>
<path d="M6 46.5552V45H7.3713V46.5552H6Z" fill="black"/>
<path d="M7.06521 46.5552V45H8.58925V46.5552H7.06521Z" fill="black"/>
<path d="M8.26306 46.5552V45H9.63436V46.5552H8.26306Z" fill="black"/>
<path d="M9.57613 46.5552V45H10.9474V46.5552H9.57613Z" fill="black"/>
<path d="M10.6976 46.5552V45H12.2217V46.5552H10.6976Z" fill="black"/>
<path d="M11.8955 46.5552V45H13.2668V46.5552H11.8955Z" fill="black"/>
<path d="M13.0169 46.5552V45H14.0834V46.5552H13.0169Z" fill="black"/>
<path d="M13.7579 46.5552V45H14.3675V46.5552H13.7579Z" fill="black"/>
<path d="M14.1934 46.5552V45H15.4126V46.5552H14.1934Z" fill="black"/>
<path d="M15.2399 46.5552V45H16.4584V46.5552H15.2399Z" fill="black"/>
<path d="M16.285 46.5552V45H17.6563V46.5552H16.285Z" fill="black"/>
<path d="M17.3502 46.5552V45H17.9598V46.5552H17.3502Z" fill="black"/>
<path d="M17.7857 46.5552V45H19.3097V46.5552H17.7857Z" fill="black"/>
<path d="M18.9835 46.5552V45H20.5076V46.5552H18.9835Z" fill="black"/>
<path d="M20.2577 46.5552V45H21.6291V46.5552H20.2577Z" fill="black"/>
<path d="M21.3792 46.5552V45H22.9033V46.5552H21.3792Z" fill="black"/>
<path d="M22.7298 46.5552V45H23.3394V46.5552H22.7298Z" fill="black"/>
<path d="M23.3181 46.5552V45H24.5366V46.5552H23.3181Z" fill="black"/>
<path d="M24.3632 46.5552V45H25.4297V46.5552H24.3632Z" fill="black"/>
<path d="M25.1041 46.5552V45H26.6282V46.5552H25.1041Z" fill="black"/>
<path d="M26.4547 46.5552V45H27.9788V46.5552H26.4547Z" fill="black"/>
<path d="M27.6526 46.5552V45H29.0239V46.5552H27.6526Z" fill="black"/>
<path d="M28.7178 46.5552V45H29.4795V46.5552H28.7178Z" fill="black"/>
<path d="M29.306 46.5552V45H30.6773V46.5552H29.306Z" fill="black"/>
<path d="M30.4664 46.5552V45H31.076V46.5552H30.4664Z" fill="black"/>
<path d="M6 49.5552V48H7.3713V49.5552H6Z" fill="black"/>
<path d="M7.31307 49.5552V48H8.53164V49.5552H7.31307Z" fill="black"/>
<path d="M8.35819 49.5552V48H9.72949V49.5552H8.35819Z" fill="black"/>
<path d="M9.63241 49.5552V48H11.1564V49.5552H9.63241Z" fill="black"/>
<path d="M10.8303 49.5552V48H12.2016V49.5552H10.8303Z" fill="black"/>
<path d="M11.8955 49.5552V48H13.4195V49.5552H11.8955Z" fill="black"/>
<path d="M13.0933 49.5552V48H14.1598V49.5552H13.0933Z" fill="black"/>
<path d="M13.987 49.5552V48H15.5111V49.5552H13.987Z" fill="black"/>
<path d="M15.4904 49.5552V48H16.8617V49.5552H15.4904Z" fill="black"/>
<path d="M16.6882 49.5552V48H17.7547V49.5552H16.6882Z" fill="black"/>
<path d="M17.5819 49.5552V48H18.9532V49.5552H17.5819Z" fill="black"/>
<path d="M18.7034 49.5552V48H19.4651V49.5552H18.7034Z" fill="black"/>
<path d="M19.2153 49.5552V48H19.8249V49.5552H19.2153Z" fill="black"/>
<path d="M19.6508 49.5552V48H21.1748V49.5552H19.6508Z" fill="black"/>
<path d="M21.0777 49.5552V48H22.449V49.5552H21.0777Z" fill="black"/>
<path d="M22.2756 49.5552V48H23.7996V49.5552H22.2756Z" fill="black"/>
<path d="M23.5498 49.5552V48H24.1594V49.5552H23.5498Z" fill="black"/>
<path d="M24.138 49.5552V48H25.5093V49.5552H24.138Z" fill="black"/>
<path d="M25.4886 49.5552V48H26.7072V49.5552H25.4886Z" fill="black"/>
<path d="M26.6865 49.5552V48H28.0578V49.5552H26.6865Z" fill="black"/>
<path d="M27.8843 49.5552V48H28.646V49.5552H27.8843Z" fill="black"/>
<path d="M6 52.5552V51H7.06649V52.5552H6Z" fill="black"/>
<path d="M7.04645 52.5552V51H8.41775V52.5552H7.04645Z" fill="black"/>
<path d="M8.2443 52.5552V51H9.3108V52.5552H8.2443Z" fill="black"/>
<path d="M8.98527 52.5552V51H10.5093V52.5552H8.98527Z" fill="black"/>
<path d="M10.1831 52.5552V51H11.5544V52.5552H10.1831Z" fill="black"/>
<path d="M11.2483 52.5552V51H12.4676V52.5552H11.2483Z" fill="black"/>
<path d="M12.142 52.5552V51H13.6661V52.5552H12.142Z" fill="black"/>
<path d="M13.3399 52.5552V51H14.7112V52.5552H13.3399Z" fill="black"/>
<path d="M14.4051 52.5552V51H15.9291V52.5552H14.4051Z" fill="black"/>
<path d="M15.7557 52.5552V51H17.127V52.5552H15.7557Z" fill="black"/>
<path d="M16.9535 52.5552V51H18.3248V52.5552H16.9535Z" fill="black"/>
<path d="M18.075 52.5552V51H19.5991V52.5552H18.075Z" fill="black"/>
<path d="M19.2729 52.5552V51H19.8825V52.5552H19.2729Z" fill="black"/>
<path d="M19.7084 52.5552V51H20.7749V52.5552H19.7084Z" fill="black"/>
<path d="M20.7548 52.5552V51H22.1261V52.5552H20.7548Z" fill="black"/>
<path d="M21.9527 52.5552V51H22.5623V52.5552H21.9527Z" fill="black"/>
<path d="M22.3882 52.5552V51H23.9122V52.5552H22.3882Z" fill="black"/>
<path d="M23.586 52.5552V51H25.1101V52.5552H23.586Z" fill="black"/>
<path d="M24.8602 52.5552V51H26.2315V52.5552H24.8602Z" fill="black"/>
<path d="M25.9817 52.5552V51H27.5058V52.5552H25.9817Z" fill="black"/>
<path d="M27.3323 52.5552V51H27.9419V52.5552H27.3323Z" fill="black"/>
<path d="M6.15274 55.5552V54H7.3713V55.5552H6.15274Z" fill="black"/>
<path d="M7.19785 55.5552V54H8.26435V55.5552H7.19785Z" fill="black"/>
<path d="M7.93882 55.5552V54H9.46287V55.5552H7.93882Z" fill="black"/>
<path d="M9.28941 55.5552V54H10.8135V55.5552H9.28941Z" fill="black"/>
<path d="M10.4873 55.5552V54H11.8586V55.5552H10.4873Z" fill="black"/>
<path d="M11.5525 55.5552V54H12.3142V55.5552H11.5525Z" fill="black"/>
<path d="M12.1407 55.5552V54H13.512V55.5552H12.1407Z" fill="black"/>
<path d="M13.301 55.5552V54H13.9107V55.5552H13.301Z" fill="black"/>
<path d="M13.7365 55.5552V54H14.803V55.5552H13.7365Z" fill="black"/>
<path d="M14.783 55.5552V54H16.1543V55.5552H14.783Z" fill="black"/>
<path d="M15.9808 55.5552V54H17.0473V55.5552H15.9808Z" fill="black"/>
<path d="M16.7218 55.5552V54H18.2459V55.5552H16.7218Z" fill="black"/>
<path d="M17.9197 55.5552V54H19.291V55.5552H17.9197Z" fill="black"/>
<path d="M19.1376 55.5552V54H20.5089V55.5552H19.1376Z" fill="black"/>
<path d="M20.3355 55.5552V54H21.8595V55.5552H20.3355Z" fill="black"/>
<path d="M21.6097 55.5552V54H22.6762V55.5552H21.6097Z" fill="black"/>
<path d="M22.5034 55.5552V54H23.113V55.5552H22.5034Z" fill="black"/>
<path d="M22.9389 55.5552V54H24.4629V55.5552H22.9389Z" fill="black"/>
<path d="M24.2131 55.5552V54H25.4323V55.5552H24.2131Z" fill="black"/>
<path d="M25.1068 55.5552V54H26.326V55.5552H25.1068Z" fill="black"/>
<path d="M26.0005 55.5552V54H27.5246V55.5552H26.0005Z" fill="black"/>
<path d="M27.2747 55.5552V54H28.3412V55.5552H27.2747Z" fill="black"/>
<path d="M28.1685 55.5552V54H29.5398V55.5552H28.1685Z" fill="black"/>
<path d="M29.2337 55.5552V54H30.605V55.5552H29.2337Z" fill="black"/>
<path d="M30.394 55.5552V54H31.3084V55.5552H30.394Z" fill="black"/>
<path d="M30.9059 55.5552V54H31.5155V55.5552H30.9059Z" fill="black"/>
<path d="M6 58.5552V57H7.52404V58.5552H6Z" fill="black"/>
<path d="M7.42696 58.5552V57H8.79826V58.5552H7.42696Z" fill="black"/>
<path d="M8.62481 58.5552V57H10.1489V58.5552H8.62481Z" fill="black"/>
<path d="M9.89903 58.5552V57H10.5086V58.5552H9.89903Z" fill="black"/>
<path d="M10.3345 58.5552V57H11.0962V58.5552H10.3345Z" fill="black"/>
<path d="M10.9228 58.5552V57H11.5324V58.5552H10.9228Z" fill="black"/>
<path d="M11.3583 58.5552V57H12.7296V58.5552H11.3583Z" fill="black"/>
<path d="M12.6325 58.5552V57H14.1565V58.5552H12.6325Z" fill="black"/>
<path d="M14.1358 58.5552V57H15.5071V58.5552H14.1358Z" fill="black"/>
<path d="M15.41 58.5552V57H16.7813V58.5552H15.41Z" fill="black"/>
<path d="M16.6842 58.5552V57H17.9028V58.5552H16.6842Z" fill="black"/>
<path d="M17.7294 58.5552V57H19.1007V58.5552H17.7294Z" fill="black"/>
<path d="M18.7946 58.5552V57H19.8611V58.5552H18.7946Z" fill="black"/>
<path d="M19.5355 58.5552V57H20.1451V58.5552H19.5355Z" fill="black"/>
<path d="M19.971 58.5552V57H21.1903V58.5552H19.971Z" fill="black"/>
<path d="M21.0175 58.5552V57H22.236V58.5552H21.0175Z" fill="black"/>
<path d="M22.0626 58.5552V57H23.4339V58.5552H22.0626Z" fill="black"/>
<path d="M23.1278 58.5552V57H23.7374V58.5552H23.1278Z" fill="black"/>
<path d="M23.5633 58.5552V57H24.6298V58.5552H23.5633Z" fill="black"/>
<path d="M24.3043 58.5552V57H25.8283V58.5552H24.3043Z" fill="black"/>
<path d="M25.6549 58.5552V57H27.1789V58.5552H25.6549Z" fill="black"/>
<path d="M26.8527 58.5552V57H27.4623V58.5552H26.8527Z" fill="black"/>
<path d="M6.15274 61.5552V60H7.52404V61.5552H6.15274Z" fill="black"/>
<path d="M7.27422 61.5552V60H8.79826V61.5552H7.27422Z" fill="black"/>
<path d="M8.47207 61.5552V60H9.99611V61.5552H8.47207Z" fill="black"/>
<path d="M9.74629 61.5552V60H11.1176V61.5552H9.74629Z" fill="black"/>
<path d="M10.8678 61.5552V60H12.3918V61.5552H10.8678Z" fill="black"/>
<path d="M12.0656 61.5552V60H13.2849V61.5552H12.0656Z" fill="black"/>
<path d="M12.9593 61.5552V60H14.4834V61.5552H12.9593Z" fill="black"/>
<path d="M14.3099 61.5552V60H15.3764V61.5552H14.3099Z" fill="black"/>
<path d="M15.2036 61.5552V60H15.8133V61.5552H15.2036Z" fill="black"/>
<path d="M15.6391 61.5552V60H17.0104V61.5552H15.6391Z" fill="black"/>
<path d="M16.7043 61.5552V60H18.2284V61.5552H16.7043Z" fill="black"/>
<path d="M17.9022 61.5552V60H19.4262V61.5552H17.9022Z" fill="black"/>
<path d="M19.4055 61.5552V60H20.7768V61.5552H19.4055Z" fill="black"/>
<path d="M20.6034 61.5552V60H21.6699V61.5552H20.6034Z" fill="black"/>
<path d="M21.4971 61.5552V60H22.7163V61.5552H21.4971Z" fill="black"/>
<path d="M22.3908 61.5552V60H23.4573V61.5552H22.3908Z" fill="black"/>
<path d="M23.2845 61.5552V60H24.6558V61.5552H23.2845Z" fill="black"/>
<path d="M24.406 61.5552V60H25.93V61.5552H24.406Z" fill="black"/>
<path d="M25.6802 61.5552V60H26.7467V61.5552H25.6802Z" fill="black"/>
<path d="M26.4212 61.5552V60H27.4877V61.5552H26.4212Z" fill="black"/>
<path d="M27.4676 61.5552V60H28.6862V61.5552H27.4676Z" fill="black"/>
<path d="M28.6655 61.5552V60H30.0368V61.5552H28.6655Z" fill="black"/>
<path d="M29.8633 61.5552V60H30.4729V61.5552H29.8633Z" fill="black"/>
<path d="M30.4516 61.5552V60H31.6701V61.5552H30.4516Z" fill="black"/>
<path d="M31.4967 61.5552V60H32.7159V61.5552H31.4967Z" fill="black"/>
<path d="M32.3904 61.5552V60H33V61.5552H32.3904Z" fill="black"/>
<path d="M6 64.5552V63H7.67678V64.5552H6Z" fill="black"/>
<path d="M7.5797 64.5552V63H8.79826V64.5552H7.5797Z" fill="black"/>
<path d="M8.62481 64.5552V63H9.99611V64.5552H8.62481Z" fill="black"/>
<path d="M9.69002 64.5552V63H11.2141V64.5552H9.69002Z" fill="black"/>
<path d="M10.8879 64.5552V63H12.4119V64.5552H10.8879Z" fill="black"/>
<path d="M12.1621 64.5552V63H12.9238V64.5552H12.1621Z" fill="black"/>
<path d="M12.674 64.5552V63H13.2836V64.5552H12.674Z" fill="black"/>
<path d="M13.1094 64.5552V63H14.3287V64.5552H13.1094Z" fill="black"/>
<path d="M14.3073 64.5552V63H15.6786V64.5552H14.3073Z" fill="black"/>
<path d="M15.5051 64.5552V63H16.1148V64.5552H15.5051Z" fill="black"/>
<path d="M15.9406 64.5552V63H17.0071V64.5552H15.9406Z" fill="black"/>
<path d="M16.6816 64.5552V63H18.2057V64.5552H16.6816Z" fill="black"/>
<path d="M18.0322 64.5552V63H19.0987V64.5552H18.0322Z" fill="black"/>
<path d="M18.9259 64.5552V63H20.2972V64.5552H18.9259Z" fill="black"/>
<path d="M20.0863 64.5552V63H20.6959V64.5552H20.0863Z" fill="black"/>
<path d="M20.5217 64.5552V63H21.893V64.5552H20.5217Z" fill="black"/>
<path d="M21.796 64.5552V63H23.0145V64.5552H21.796Z" fill="black"/>
<path d="M22.9938 64.5552V63H24.3651V64.5552H22.9938Z" fill="black"/>
<path d="M24.1917 64.5552V63H25.2582V64.5552H24.1917Z" fill="black"/>
<path d="M24.9326 64.5552V63H26.4567V64.5552H24.9326Z" fill="black"/>
<path d="M26.1305 64.5552V63H27.6545V64.5552H26.1305Z" fill="black"/>
<path d="M27.4047 64.5552V63H28.4712V64.5552H27.4047Z" fill="black"/>
<path d="M28.1457 64.5552V63H28.9074V64.5552H28.1457Z" fill="black"/>
<path d="M28.6575 64.5552V63H29.2672V64.5552H28.6575Z" fill="black"/>
<path d="M29.093 64.5552V63H30.1595V64.5552H29.093Z" fill="black"/>
<path d="M29.834 64.5552V63H31.3581V64.5552H29.834Z" fill="black"/>
<path d="M31.1846 64.5552V63H32.7086V64.5552H31.1846Z" fill="black"/>
<path d="M32.3825 64.5552V63H32.9921V64.5552H32.3825Z" fill="black"/>
<path d="M6 67.5552V66H7.06649V67.5552H6Z" fill="black"/>
<path d="M6.74097 67.5552V66H8.87463V67.5552H6.74097Z" fill="black"/>
<path d="M8.77755 67.5552V66H9.99611V67.5552H8.77755Z" fill="black"/>
<path d="M9.82266 67.5552V66H10.4323V67.5552H9.82266Z" fill="black"/>
<path d="M10.2582 67.5552V66H11.7822V67.5552H10.2582Z" fill="black"/>
<path d="M11.7615 67.5552V66H12.98V67.5552H11.7615Z" fill="black"/>
<path d="M12.8066 67.5552V66H14.1779V67.5552H12.8066Z" fill="black"/>
<path d="M14.0808 67.5552V66H15.6049V67.5552H14.0808Z" fill="black"/>
<path d="M15.2787 67.5552V66H16.65V67.5552H15.2787Z" fill="black"/>
<path d="M16.4966 67.5552V66H17.8679V67.5552H16.4966Z" fill="black"/>
<path d="M17.6945 67.5552V66H19.6761V67.5552H17.6945Z" fill="black"/>
<path d="M19.5783 67.5552V66H21.1023V67.5552H19.5783Z" fill="black"/>
<path d="M20.9289 67.5552V66H22.3002V67.5552H20.9289Z" fill="black"/>
<path d="M22.1267 67.5552V66H23.1932V67.5552H22.1267Z" fill="black"/>
<path d="M22.8677 67.5552V66H24.239V67.5552H22.8677Z" fill="black"/>
<path d="M24.028 67.5552V66H24.6377V67.5552H24.028Z" fill="black"/>
<path d="M24.4635 67.5552V66H25.9876V67.5552H24.4635Z" fill="black"/>
<path d="M25.8141 67.5552V66H27.3382V67.5552H25.8141Z" fill="black"/>
<path d="M27.012 67.5552V66H28.3833V67.5552H27.012Z" fill="black"/>
<path d="M28.2862 67.5552V66H29.8102V67.5552H28.2862Z" fill="black"/>
<path d="M29.4841 67.5552V66H30.0937V67.5552H29.4841Z" fill="black"/>
<path d="M6 70.5552V69H7.52404V70.5552H6Z" fill="black"/>
<path d="M7.27422 70.5552V69H8.79826V70.5552H7.27422Z" fill="black"/>
<path d="M8.62481 70.5552V69H9.99611V70.5552H8.62481Z" fill="black"/>
<path d="M9.69002 70.5552V69H11.2141V70.5552H9.69002Z" fill="black"/>
<path d="M10.8879 70.5552V69H12.4119V70.5552H10.8879Z" fill="black"/>
<path d="M12.0857 70.5552V69H13.6098V70.5552H12.0857Z" fill="black"/>
<path d="M13.3599 70.5552V69H13.9696V70.5552H13.3599Z" fill="black"/>
<path d="M13.7954 70.5552V69H14.8619V70.5552H13.7954Z" fill="black"/>
<path d="M14.6891 70.5552V69H15.9077V70.5552H14.6891Z" fill="black"/>
<path d="M15.7343 70.5552V69H16.3439V70.5552H15.7343Z" fill="black"/>
<path d="M16.1697 70.5552V69H17.5411V70.5552H16.1697Z" fill="black"/>
<path d="M17.444 70.5552V69H18.6625V70.5552H17.444Z" fill="black"/>
<path d="M18.6418 70.5552V69H20.0131V70.5552H18.6418Z" fill="black"/>
<path d="M19.8397 70.5552V69H20.9062V70.5552H19.8397Z" fill="black"/>
<path d="M20.5806 70.5552V69H21.6471V70.5552H20.5806Z" fill="black"/>
<path d="M21.6271 70.5552V69H22.9984V70.5552H21.6271Z" fill="black"/>
<path d="M22.8249 70.5552V69H24.349V70.5552H22.8249Z" fill="black"/>
<path d="M24.1755 70.5552V69H25.6996V70.5552H24.1755Z" fill="black"/>
<path d="M25.3734 70.5552V69H25.983V70.5552H25.3734Z" fill="black"/>
<path d="M6 73.5552V72H7.52404V73.5552H6Z" fill="black"/>
<path d="M7.27422 73.5552V72H8.34071V73.5552H7.27422Z" fill="black"/>
<path d="M8.16793 73.5552V72H9.69197V73.5552H8.16793Z" fill="black"/>
<path d="M9.44215 73.5552V72H10.5086V73.5552H9.44215Z" fill="black"/>
<path d="M10.4886 73.5552V72H11.7072V73.5552H10.4886Z" fill="black"/>
<path d="M11.5337 73.5552V72H13.0578V73.5552H11.5337Z" fill="black"/>
<path d="M12.8843 73.5552V72H14.4083V73.5552H12.8843Z" fill="black"/>
<path d="M14.2349 73.5552V72H15.7589V73.5552H14.2349Z" fill="black"/>
<path d="M15.4327 73.5552V72H16.0424V73.5552H15.4327Z" fill="black"/>
<path d="M16.021 73.5552V72H17.2395V73.5552H16.021Z" fill="black"/>
<path d="M17.2188 73.5552V72H18.5901V73.5552H17.2188Z" fill="black"/>
<path d="M18.4167 73.5552V72H19.0263V73.5552H18.4167Z" fill="black"/>
<path d="M18.8522 73.5552V72H20.3762V73.5552H18.8522Z" fill="black"/>
<path d="M20.2791 73.5552V72H21.6504V73.5552H20.2791Z" fill="black"/>
<path d="M21.477 73.5552V72H22.0866V73.5552H21.477Z" fill="black"/>
<path d="M21.9125 73.5552V72H23.4365V73.5552H21.9125Z" fill="black"/>
<path d="M23.1103 73.5552V72H24.6344V73.5552H23.1103Z" fill="black"/>
<path d="M24.4609 73.5552V72H25.985V73.5552H24.4609Z" fill="black"/>
<path d="M25.8115 73.5552V72H27.3355V73.5552H25.8115Z" fill="black"/>
<path d="M27.0857 73.5552V72H28.1522V73.5552H27.0857Z" fill="black"/>
<path d="M27.9794 73.5552V72H28.5891V73.5552H27.9794Z" fill="black"/>
<path d="M28.4149 73.5552V72H29.939V73.5552H28.4149Z" fill="black"/>
<path d="M29.8419 73.5552V72H31.2132V73.5552H29.8419Z" fill="black"/>
<path d="M31.0397 73.5552V72H32.5638V73.5552H31.0397Z" fill="black"/>
<path d="M32.314 73.5552V72H32.9236V73.5552H32.314Z" fill="black"/>
<path d="M6 76.5552V75H7.52404V76.5552H6Z" fill="black"/>
<path d="M7.50333 76.5552V75H8.87463V76.5552H7.50333Z" fill="black"/>
<path d="M8.85392 76.5552V75H10.2252V76.5552H8.85392Z" fill="black"/>
<path d="M9.9754 76.5552V75H11.3467V76.5552H9.9754Z" fill="black"/>
<path d="M11.0406 76.5552V75H12.5646V76.5552H11.0406Z" fill="black"/>
<path d="M12.2385 76.5552V75H13.1529V76.5552H12.2385Z" fill="black"/>
<path d="M12.9031 76.5552V75H14.4271V76.5552H12.9031Z" fill="black"/>
<path d="M14.2537 76.5552V75H15.7777V76.5552H14.2537Z" fill="black"/>
<path d="M15.5279 76.5552V75H16.5944V76.5552H15.5279Z" fill="black"/>
<path d="M16.4216 76.5552V75H17.7929V76.5552H16.4216Z" fill="black"/>
<path d="M17.5431 76.5552V75H19.0671V76.5552H17.5431Z" fill="black"/>
<path d="M18.7409 76.5552V75H20.265V76.5552H18.7409Z" fill="black"/>
<path d="M20.0151 76.5552V75H20.6248V76.5552H20.0151Z" fill="black"/>
<path d="M20.6034 76.5552V75H21.9747V76.5552H20.6034Z" fill="black"/>
<path d="M21.6485 76.5552V75H23.1725V76.5552H21.6485Z" fill="black"/>
<path d="M22.9227 76.5552V75H24.294V76.5552H22.9227Z" fill="black"/>
<path d="M24.083 76.5552V75H25.1495V76.5552H24.083Z" fill="black"/>
<path d="M24.9767 76.5552V75H26.348V76.5552H24.9767Z" fill="black"/>
<path d="M26.1371 76.5552V75H26.8988V76.5552H26.1371Z" fill="black"/>
<path d="M26.6489 76.5552V75H27.4106V76.5552H26.6489Z" fill="black"/>
</g>
<rect x="0.5" y="0.5" width="38" height="34" stroke="#E5592D"/>
<path d="M11.3333 38H2V44.3481H11.3333V38Z" fill="#E5592D"/>
<path d="M21.6663 38H12.333V44.3481H21.6663V38Z" fill="#7FA4CA"/>
<defs>
<filter id="filter0_i_238_43628" x="2" y="-3" width="35" height="34" filterUnits="userSpaceOnUse" color-interpolation-filters="sRGB">
<feFlood flood-opacity="0" result="BackgroundImageFix"/>
<feBlend mode="normal" in="SourceGraphic" in2="BackgroundImageFix" result="shape"/>
<feColorMatrix in="SourceAlpha" type="matrix" values="0 0 0 0 0 0 0 0 0 0 0 0 0 0 0 0 0 0 127 0" result="hardAlpha"/>
<feOffset dy="-5"/>
<feGaussianBlur stdDeviation="3.5"/>
<feComposite in2="hardAlpha" operator="arithmetic" k2="-1" k3="1"/>
<feColorMatrix type="matrix" values="0 0 0 0 1 0 0 0 0 1 0 0 0 0 1 0 0 0 1 0"/>
<feBlend mode="normal" in2="shape" result="effect1_innerShadow_238_43628"/>
</filter>
<clipPath id="clip0_238_43628">
<rect width="35" height="29" fill="white" transform="translate(2 2)"/>
</clipPath>
</defs>
</svg>
