<svg width="39" height="48" viewBox="0 0 39 48" fill="none" xmlns="http://www.w3.org/2000/svg">
<g clip-path="url(#clip0_238_43661)">
<g clip-path="url(#clip1_238_43661)" filter="url(#filter0_d_238_43661)">
<rect width="35" height="31" transform="translate(2 2.70996)" fill="white"/>
<g opacity="0.3" clip-path="url(#clip2_238_43661)" filter="url(#filter1_i_238_43661)">
<rect width="35" height="29" transform="translate(2 2.70996)" fill="white"/>
<path d="M6 8.26514V6.70996H6.76286V8.26514H6Z" fill="black"/>
<path d="M6.74211 8.26514V6.70996H8.87906V8.26514H6.74211Z" fill="black"/>
<path d="M8.66643 8.26514V6.70996H10.1928V8.26514H8.66643Z" fill="black"/>
<path d="M9.86612 8.26514V6.70996H10.4767V8.26514H9.86612Z" fill="black"/>
<path d="M10.3023 8.26514V6.70996H11.8287V8.26514H10.3023Z" fill="black"/>
<path d="M11.5785 8.26514V6.70996H12.6466V8.26514H11.5785Z" fill="black"/>
<path d="M12.4736 8.26514V6.70996H13.847V8.26514H12.4736Z" fill="black"/>
<path d="M13.7887 8.26514V6.70996H15.0091V8.26514H13.7887Z" fill="black"/>
<path d="M14.8354 8.26514V6.70996H15.4459V8.26514H14.8354Z" fill="black"/>
<path d="M15.2715 8.26514V6.70996H16.7979V8.26514H15.2715Z" fill="black"/>
<path d="M16.5477 8.26514V6.70996H17.6159V8.26514H16.5477Z" fill="black"/>
<path d="M17.3663 8.26514V6.70996H19.5033V8.26514H17.3663Z" fill="black"/>
<path d="M19.1766 8.26514V6.70996H20.703V8.26514H19.1766Z" fill="black"/>
<path d="M20.5292 8.26514V6.70996H21.9027V8.26514H20.5292Z" fill="black"/>
<path d="M21.6525 8.26514V6.70996H23.0259V8.26514H21.6525Z" fill="black"/>
<path d="M22.8146 8.26514V6.70996H23.4251V8.26514H22.8146Z" fill="black"/>
<path d="M23.2507 8.26514V6.70996H24.7771V8.26514H23.2507Z" fill="black"/>
<path d="M24.5658 8.26514V6.70996H26.0922V8.26514H24.5658Z" fill="black"/>
<path d="M25.9185 8.26514V6.70996H27.2919V8.26514H25.9185Z" fill="black"/>
<path d="M27.0417 8.26514V6.70996H28.1099V8.26514H27.0417Z" fill="black"/>
<path d="M27.7838 8.26514V6.70996H28.3944V8.26514H27.7838Z" fill="black"/>
<path d="M28.22 8.26514V6.70996H29.2881V8.26514H28.22Z" fill="black"/>
<path d="M28.9621 8.26514V6.70996H30.4885V8.26514H28.9621Z" fill="black"/>
<path d="M30.3148 8.26514V6.70996H31.8412V8.26514H30.3148Z" fill="black"/>
<path d="M31.5145 8.26514V6.70996H32.125V8.26514H31.5145Z" fill="black"/>
<path d="M6 11.2651V9.70996H7.52639V11.2651H6Z" fill="black"/>
<path d="M7.42916 11.2651V9.70996H8.6496V11.2651H7.42916Z" fill="black"/>
<path d="M8.62885 11.2651V9.70996H9.84929V11.2651H8.62885Z" fill="black"/>
<path d="M9.67557 11.2651V9.70996H11.049V11.2651H9.67557Z" fill="black"/>
<path d="M10.7424 11.2651V9.70996H11.353V11.2651H10.7424Z" fill="black"/>
<path d="M11.3316 11.2651V9.70996H12.552V11.2651H11.3316Z" fill="black"/>
<path d="M12.5313 11.2651V9.70996H13.9047V11.2651H12.5313Z" fill="black"/>
<path d="M13.6545 11.2651V9.70996H15.1809V11.2651H13.6545Z" fill="black"/>
<path d="M15.0071 11.2651V9.70996H16.3806V11.2651H15.0071Z" fill="black"/>
<path d="M16.2068 11.2651V9.70996H16.9697V11.2651H16.2068Z" fill="black"/>
<path d="M16.7195 11.2651V9.70996H17.33V11.2651H16.7195Z" fill="black"/>
<path d="M17.3086 11.2651V9.70996H19.4456V11.2651H17.3086Z" fill="black"/>
<path d="M19.2329 11.2651V9.70996H20.7593V11.2651H19.2329Z" fill="black"/>
<path d="M20.4326 11.2651V9.70996H21.0432V11.2651H20.4326Z" fill="black"/>
<path d="M20.8688 11.2651V9.70996H22.3952V11.2651H20.8688Z" fill="black"/>
<path d="M22.145 11.2651V9.70996H23.2131V11.2651H22.145Z" fill="black"/>
<path d="M22.9636 11.2651V9.70996H25.1005V11.2651H22.9636Z" fill="black"/>
<path d="M24.7738 11.2651V9.70996H26.3002V11.2651H24.7738Z" fill="black"/>
<path d="M26.1265 11.2651V9.70996H27.4999V11.2651H26.1265Z" fill="black"/>
<path d="M27.2497 11.2651V9.70996H28.6231V11.2651H27.2497Z" fill="black"/>
<path d="M28.4118 11.2651V9.70996H29.0224V11.2651H28.4118Z" fill="black"/>
<path d="M6 14.2651V12.71H7.37342V14.2651H6Z" fill="black"/>
<path d="M7.16212 14.2651V12.71H8.68851V14.2651H7.16212Z" fill="black"/>
<path d="M8.43831 14.2651V12.71H9.50644V14.2651H8.43831Z" fill="black"/>
<path d="M9.33339 14.2651V12.71H10.8598V14.2651H9.33339Z" fill="black"/>
<path d="M10.9698 13.9445V13.8353H12.234V13.9445H10.9698Z" fill="black"/>
<path d="M11.9287 14.2651V12.71H13.1498V14.2651H11.9287Z" fill="black"/>
<path d="M12.9754 14.2651V12.71H13.586V14.2651H12.9754Z" fill="black"/>
<path d="M13.4116 14.2651V12.71H14.938V14.2651H13.4116Z" fill="black"/>
<path d="M14.6878 14.2651V12.71H15.7559V14.2651H14.6878Z" fill="black"/>
<path d="M15.5064 14.2651V12.71H17.6433V14.2651H15.5064Z" fill="black"/>
<path d="M17.3166 14.2651V12.71H18.843V14.2651H17.3166Z" fill="black"/>
<path d="M18.6693 14.2651V12.71H20.0427V14.2651H18.6693Z" fill="black"/>
<path d="M19.7925 14.2651V12.71H21.1659V14.2651H19.7925Z" fill="black"/>
<path d="M20.9546 14.2651V12.71H21.5652V14.2651H20.9546Z" fill="black"/>
<path d="M21.3908 14.2651V12.71H22.7642V14.2651H21.3908Z" fill="black"/>
<path d="M22.5529 14.2651V12.71H24.0793V14.2651H22.5529Z" fill="black"/>
<path d="M23.8291 14.2651V12.71H24.8972V14.2651H23.8291Z" fill="black"/>
<path d="M24.7242 14.2651V12.71H26.2506V14.2651H24.7242Z" fill="black"/>
<path d="M26.0004 14.2651V12.71H26.6109V14.2651H26.0004Z" fill="black"/>
<path d="M26.4365 14.2651V12.71H27.6576V14.2651H26.4365Z" fill="black"/>
<path d="M27.4833 14.2651V12.71H28.0938V14.2651H27.4833Z" fill="black"/>
<path d="M27.9194 14.2651V12.71H29.4458V14.2651H27.9194Z" fill="black"/>
<path d="M29.1956 14.2651V12.71H30.2637V14.2651H29.1956Z" fill="black"/>
<path d="M30.0907 14.2651V12.71H31.6171V14.2651H30.0907Z" fill="black"/>
<path d="M31.3669 14.2651V12.71H31.9774V14.2651H31.3669Z" fill="black"/>
<path d="M6.15297 17.2651V15.71H7.52639V17.2651H6.15297Z" fill="black"/>
<path d="M7.50564 17.2651V15.71H8.72609V17.2651H7.50564Z" fill="black"/>
<path d="M8.55237 17.2651V15.71H9.6205V17.2651H8.55237Z" fill="black"/>
<path d="M9.29448 17.2651V15.71H9.90504V17.2651H9.29448Z" fill="black"/>
<path d="M9.73065 17.2651V15.71H11.1041V17.2651H9.73065Z" fill="black"/>
<path d="M10.8928 17.2651V15.71H12.4192V17.2651H10.8928Z" fill="black"/>
<path d="M12.0925 17.2651V15.71H13.6189V17.2651H12.0925Z" fill="black"/>
<path d="M13.2922 17.2651V15.71H14.8186V17.2651H13.2922Z" fill="black"/>
<path d="M14.6073 17.2651V15.71H15.2178V17.2651H14.6073Z" fill="black"/>
<path d="M15.0434 17.2651V15.71H16.5698V17.2651H15.0434Z" fill="black"/>
<path d="M16.3196 17.2651V15.71H16.9302V17.2651H16.3196Z" fill="black"/>
<path d="M16.7558 17.2651V15.71H18.1292V17.2651H16.7558Z" fill="black"/>
<path d="M18.032 17.2651V15.71H19.2524V17.2651H18.032Z" fill="black"/>
<path d="M19.2317 17.2651V15.71H20.6051V17.2651H19.2317Z" fill="black"/>
<path d="M20.4313 17.2651V15.71H21.6525V17.2651H20.4313Z" fill="black"/>
<path d="M21.3264 17.2651V15.71H22.6998V17.2651H21.3264Z" fill="black"/>
<path d="M22.5463 17.2651V15.71H23.7667V17.2651H22.5463Z" fill="black"/>
<path d="M23.746 17.2651V15.71H25.1194V17.2651H23.746Z" fill="black"/>
<path d="M24.9456 17.2651V15.71H26.0138V17.2651H24.9456Z" fill="black"/>
<path d="M25.6878 17.2651V15.71H27.2142V17.2651H25.6878Z" fill="black"/>
<path d="M26.9639 17.2651V15.71H28.0321V17.2651H26.9639Z" fill="black"/>
<path d="M27.7061 17.2651V15.71H28.7742V17.2651H27.7061Z" fill="black"/>
<path d="M28.7541 17.2651V15.71H29.9746V17.2651H28.7541Z" fill="black"/>
<path d="M29.9538 17.2651V15.71H31.3272V17.2651H29.9538Z" fill="black"/>
<path d="M31.1535 17.2651V15.71H32.0694V17.2651H31.1535Z" fill="black"/>
<path d="M31.6662 17.2651V15.71H32.2767V17.2651H31.6662Z" fill="black"/>
<path d="M6 20.2651V18.71H7.22111V20.2651H6Z" fill="black"/>
<path d="M7.04672 20.2651V18.71H7.65728V20.2651H7.04672Z" fill="black"/>
<path d="M7.48289 20.2651V18.71H8.8563V20.2651H7.48289Z" fill="black"/>
<path d="M8.79798 20.2651V18.71H10.0184V20.2651H8.79798Z" fill="black"/>
<path d="M9.84471 20.2651V18.71H11.3711V20.2651H9.84471Z" fill="black"/>
<path d="M11.1974 20.2651V18.71H12.7238V20.2651H11.1974Z" fill="black"/>
<path d="M12.55 20.2651V18.71H14.0764V20.2651H12.55Z" fill="black"/>
<path d="M13.9027 20.2651V18.71H14.9709V20.2651H13.9027Z" fill="black"/>
<path d="M14.6448 20.2651V18.71H15.2554V20.2651H14.6448Z" fill="black"/>
<path d="M15.081 20.2651V18.71H16.1491V20.2651H15.081Z" fill="black"/>
<path d="M15.9761 20.2651V18.71H17.1965V20.2651H15.9761Z" fill="black"/>
<path d="M17.0228 20.2651V18.71H17.6334V20.2651H17.0228Z" fill="black"/>
<path d="M17.459 20.2651V18.71H18.9854V20.2651H17.459Z" fill="black"/>
<path d="M18.8116 20.2651V18.71H19.8798V20.2651H18.8116Z" fill="black"/>
<path d="M19.6302 20.2651V18.71H21.0037V20.2651H19.6302Z" fill="black"/>
<path d="M20.9064 20.2651V18.71H22.4328V20.2651H20.9064Z" fill="black"/>
<path d="M22.1061 20.2651V18.71H22.7167V20.2651H22.1061Z" fill="black"/>
<path d="M22.5423 20.2651V18.71H24.2217V20.2651H22.5423Z" fill="black"/>
<path d="M24.0667 20.2651V18.71H25.2872V20.2651H24.0667Z" fill="black"/>
<path d="M25.1134 20.2651V18.71H26.4869V20.2651H25.1134Z" fill="black"/>
<path d="M26.1803 20.2651V18.71H27.2484V20.2651H26.1803Z" fill="black"/>
<path d="M26.9224 20.2651V18.71H28.4488V20.2651H26.9224Z" fill="black"/>
<path d="M28.2751 20.2651V18.71H28.8856V20.2651H28.2751Z" fill="black"/>
<path d="M6 23.2651V21.71H7.67936V23.2651H6Z" fill="black"/>
<path d="M7.58213 23.2651V21.71H8.80257V23.2651H7.58213Z" fill="black"/>
<path d="M8.62885 23.2651V21.71H10.0023V23.2651H8.62885Z" fill="black"/>
<path d="M9.6957 23.2651V21.71H11.2221V23.2651H9.6957Z" fill="black"/>
<path d="M10.8954 23.2651V21.71H12.4218V23.2651H10.8954Z" fill="black"/>
<path d="M12.1716 23.2651V21.71H12.7821V23.2651H12.1716Z" fill="black"/>
<path d="M12.6077 23.2651V21.71H14.1341V23.2651H12.6077Z" fill="black"/>
<path d="M13.8839 23.2651V21.71H14.4945V23.2651H13.8839Z" fill="black"/>
<path d="M14.3201 23.2651V21.71H16.457V23.2651H14.3201Z" fill="black"/>
<path d="M16.1303 23.2651V21.71H17.6567V23.2651H16.1303Z" fill="black"/>
<path d="M17.483 23.2651V21.71H18.8564V23.2651H17.483Z" fill="black"/>
<path d="M18.6062 23.2651V21.71H19.2168V23.2651H18.6062Z" fill="black"/>
<path d="M19.0424 23.2651V21.71H20.1105V23.2651H19.0424Z" fill="black"/>
<path d="M19.9375 23.2651V21.71H21.1579V23.2651H19.9375Z" fill="black"/>
<path d="M20.9842 23.2651V21.71H21.5948V23.2651H20.9842Z" fill="black"/>
<path d="M21.5733 23.2651V21.71H22.9468V23.2651H21.5733Z" fill="black"/>
<path d="M22.6201 23.2651V21.71H24.1465V23.2651H22.6201Z" fill="black"/>
<path d="M23.8198 23.2651V21.71H25.1932V23.2651H23.8198Z" fill="black"/>
<path d="M25.0959 23.2651V21.71H26.3164V23.2651H25.0959Z" fill="black"/>
<path d="M26.1427 23.2651V21.71H28.1273V23.2651H26.1427Z" fill="black"/>
<path d="M28.0294 23.2651V21.71H29.5558V23.2651H28.0294Z" fill="black"/>
<path d="M29.2291 23.2651V21.71H29.8397V23.2651H29.2291Z" fill="black"/>
<path d="M29.6653 23.2651V21.71H31.1917V23.2651H29.6653Z" fill="black"/>
<path d="M30.9414 23.2651V21.71H31.552V23.2651H30.9414Z" fill="black"/>
<path d="M6.15297 26.2651V24.71H7.52639V26.2651H6.15297Z" fill="black"/>
<path d="M7.27618 26.2651V24.71H8.80257V26.2651H7.27618Z" fill="black"/>
<path d="M8.55237 26.2651V24.71H9.92578V26.2651H8.55237Z" fill="black"/>
<path d="M9.61922 26.2651V24.71H10.6874V26.2651H9.61922Z" fill="black"/>
<path d="M10.3613 26.2651V24.71H10.9719V26.2651H10.3613Z" fill="black"/>
<path d="M10.9505 26.2651V24.71H12.1709V26.2651H10.9505Z" fill="black"/>
<path d="M11.9972 26.2651V24.71H13.2183V26.2651H11.9972Z" fill="black"/>
<path d="M12.8923 26.2651V24.71H13.5028V26.2651H12.8923Z" fill="black"/>
<path d="M13.3284 26.2651V24.71H14.3966V26.2651H13.3284Z" fill="black"/>
<path d="M14.0706 26.2651V24.71H15.5969V26.2651H14.0706Z" fill="black"/>
<path d="M15.4232 26.2651V24.71H16.9496V26.2651H15.4232Z" fill="black"/>
<path d="M16.6229 26.2651V24.71H17.2335V26.2651H16.6229Z" fill="black"/>
<path d="M17.0591 26.2651V24.71H18.1272V26.2651H17.0591Z" fill="black"/>
<path d="M18.1072 26.2651V24.71H19.4806V26.2651H18.1072Z" fill="black"/>
<path d="M19.3068 26.2651V24.71H20.375V26.2651H19.3068Z" fill="black"/>
<path d="M20.049 26.2651V24.71H21.5754V26.2651H20.049Z" fill="black"/>
<path d="M21.2487 26.2651V24.71H22.6221V26.2651H21.2487Z" fill="black"/>
<path d="M22.4685 26.2651V24.71H23.8419V26.2651H22.4685Z" fill="black"/>
<path d="M23.6682 26.2651V24.71H25.1946V26.2651H23.6682Z" fill="black"/>
<path d="M24.9444 26.2651V24.71H26.0125V26.2651H24.9444Z" fill="black"/>
<path d="M25.6865 26.2651V24.71H26.7546V26.2651H25.6865Z" fill="black"/>
<path d="M26.7345 26.2651V24.71H27.955V26.2651H26.7345Z" fill="black"/>
<path d="M27.9342 26.2651V24.71H29.3077V26.2651H27.9342Z" fill="black"/>
<path d="M29.1339 26.2651V24.71H30.6603V26.2651H29.1339Z" fill="black"/>
<path d="M30.4101 26.2651V24.71H31.4783V26.2651H30.4101Z" fill="black"/>
<path d="M31.3052 26.2651V24.71H31.9158V26.2651H31.3052Z" fill="black"/>
<path d="M6 29.2651V27.71H7.37342V29.2651H6Z" fill="black"/>
<path d="M7.27618 29.2651V27.71H8.49662V29.2651H7.27618Z" fill="black"/>
<path d="M8.3229 29.2651V27.71H10.3075V29.2651H8.3229Z" fill="black"/>
<path d="M10.2096 29.2651V27.71H12.1943V29.2651H10.2096Z" fill="black"/>
<path d="M12.0964 29.2651V27.71H13.6228V29.2651H12.0964Z" fill="black"/>
<path d="M13.602 29.2651V27.71H14.9754V29.2651H13.602Z" fill="black"/>
<path d="M14.8017 29.2651V27.71H15.8699V29.2651H14.8017Z" fill="black"/>
<path d="M15.6968 29.2651V27.71H16.765V29.2651H15.6968Z" fill="black"/>
<path d="M16.5919 29.2651V27.71H17.9653V29.2651H16.5919Z" fill="black"/>
<path d="M17.7151 29.2651V27.71H18.478V29.2651H17.7151Z" fill="black"/>
<path d="M18.2278 29.2651V27.71H18.8383V29.2651H18.2278Z" fill="black"/>
<path d="M18.6639 29.2651V27.71H19.885V29.2651H18.6639Z" fill="black"/>
<path d="M19.7106 29.2651V27.71H20.3212V29.2651H19.7106Z" fill="black"/>
<path d="M20.1468 29.2651V27.71H21.6732V29.2651H20.1468Z" fill="black"/>
<path d="M21.4995 29.2651V27.71H23.0259V29.2651H21.4995Z" fill="black"/>
<path d="M22.6992 29.2651V27.71H24.0726V29.2651H22.6992Z" fill="black"/>
<path d="M23.9754 29.2651V27.71H25.5018V29.2651H23.9754Z" fill="black"/>
<path d="M25.1751 29.2651V27.71H25.7856V29.2651H25.1751Z" fill="black"/>
<path d="M6 32.2651V30.71H7.37342V32.2651H6Z" fill="black"/>
<path d="M7.3151 32.2651V30.71H8.53554V32.2651H7.3151Z" fill="black"/>
<path d="M8.36182 32.2651V30.71H9.88821V32.2651H8.36182Z" fill="black"/>
<path d="M9.71449 32.2651V30.71H11.2409V32.2651H9.71449Z" fill="black"/>
<path d="M11.0672 32.2651V30.71H12.5936V32.2651H11.0672Z" fill="black"/>
<path d="M12.4198 32.2651V30.71H13.488V32.2651H12.4198Z" fill="black"/>
<path d="M13.1619 32.2651V30.71H13.7725V32.2651H13.1619Z" fill="black"/>
<path d="M13.7511 32.2651V30.71H14.9715V32.2651H13.7511Z" fill="black"/>
<path d="M14.7978 32.2651V30.71H15.8659V32.2651H14.7978Z" fill="black"/>
<path d="M15.5399 32.2651V30.71H17.0663V32.2651H15.5399Z" fill="black"/>
<path d="M16.8926 32.2651V30.71H18.419V32.2651H16.8926Z" fill="black"/>
<path d="M18.0923 32.2651V30.71H19.4657V32.2651H18.0923Z" fill="black"/>
<path d="M19.1591 32.2651V30.71H19.7697V32.2651H19.1591Z" fill="black"/>
<path d="M19.5953 32.2651V30.71H21.5799V32.2651H19.5953Z" fill="black"/>
<path d="M21.482 32.2651V30.71H23.0084V32.2651H21.482Z" fill="black"/>
<path d="M22.6817 32.2651V30.71H24.2081V32.2651H22.6817Z" fill="black"/>
<path d="M24.1109 32.2651V30.71H25.4843V32.2651H24.1109Z" fill="black"/>
<path d="M25.3106 32.2651V30.71H26.684V32.2651H25.3106Z" fill="black"/>
<path d="M26.4727 32.2651V30.71H27.0833V32.2651H26.4727Z" fill="black"/>
<path d="M27.0619 32.2651V30.71H28.2823V32.2651H27.0619Z" fill="black"/>
<path d="M28.1086 32.2651V30.71H29.3297V32.2651H28.1086Z" fill="black"/>
<path d="M29.0037 32.2651V30.71H29.6142V32.2651H29.0037Z" fill="black"/>
<path d="M6.15297 35.2651V33.71H7.52639V35.2651H6.15297Z" fill="black"/>
<path d="M7.27618 35.2651V33.71H8.80257V35.2651H7.27618Z" fill="black"/>
<path d="M8.47588 35.2651V33.71H9.84929V35.2651H8.47588Z" fill="black"/>
<path d="M9.54273 35.2651V33.71H10.9161V35.2651H9.54273Z" fill="black"/>
<path d="M10.8578 35.2651V33.71H12.0783V35.2651H10.8578Z" fill="black"/>
<path d="M12.0575 35.2651V33.71H13.4309V35.2651H12.0575Z" fill="black"/>
<path d="M13.2572 35.2651V33.71H14.7836V35.2651H13.2572Z" fill="black"/>
<path d="M14.5334 35.2651V33.71H15.6015V35.2651H14.5334Z" fill="black"/>
<path d="M15.4285 35.2651V33.71H16.4966V35.2651H15.4285Z" fill="black"/>
<path d="M16.4001 35.2651V33.71H17.7735V35.2651H16.4001Z" fill="black"/>
<path d="M17.5233 35.2651V33.71H18.1338V35.2651H17.5233Z" fill="black"/>
<path d="M6 38.2651V36.71H7.37342V38.2651H6Z" fill="black"/>
<path d="M7.27618 38.2651V36.71H8.49662V38.2651H7.27618Z" fill="black"/>
<path d="M8.3229 38.2651V36.71H10.3075V38.2651H8.3229Z" fill="black"/>
<path d="M10.2096 38.2651V36.71H12.1943V38.2651H10.2096Z" fill="black"/>
<path d="M12.0964 38.2651V36.71H13.6228V38.2651H12.0964Z" fill="black"/>
<path d="M13.602 38.2651V36.71H14.9754V38.2651H13.602Z" fill="black"/>
<path d="M14.8017 38.2651V36.71H15.8699V38.2651H14.8017Z" fill="black"/>
<path d="M15.6968 38.2651V36.71H17.0702V38.2651H15.6968Z" fill="black"/>
<path d="M16.82 38.2651V36.71H18.3464V38.2651H16.82Z" fill="black"/>
<path d="M18.0962 38.2651V36.71H19.1643V38.2651H18.0962Z" fill="black"/>
<path d="M18.8383 38.2651V36.71H19.9065V38.2651H18.8383Z" fill="black"/>
<path d="M19.8864 38.2651V36.71H21.2598V38.2651H19.8864Z" fill="black"/>
<path d="M21.0861 38.2651V36.71H22.6125V38.2651H21.0861Z" fill="black"/>
<path d="M22.4387 38.2651V36.71H23.0493V38.2651H22.4387Z" fill="black"/>
<path d="M22.8749 38.2651V36.71H23.9431V38.2651H22.8749Z" fill="black"/>
<path d="M23.77 38.2651V36.71H24.9904V38.2651H23.77Z" fill="black"/>
<path d="M24.8167 38.2651V36.71H25.4273V38.2651H24.8167Z" fill="black"/>
<path d="M25.2529 38.2651V36.71H26.9323V38.2651H25.2529Z" fill="black"/>
<path d="M26.682 38.2651V36.71H27.7502V38.2651H26.682Z" fill="black"/>
<path d="M27.5771 38.2651V36.71H29.5618V38.2651H27.5771Z" fill="black"/>
<path d="M29.4639 38.2651V36.71H30.0744V38.2651H29.4639Z" fill="black"/>
<path d="M29.9 38.2651V36.71H31.1212V38.2651H29.9Z" fill="black"/>
<path d="M30.9468 38.2651V36.71H32.0149V38.2651H30.9468Z" fill="black"/>
<path d="M31.8418 38.2651V36.71H32.4524V38.2651H31.8418Z" fill="black"/>
<path d="M6 41.2651V39.71H7.37342V41.2651H6Z" fill="black"/>
<path d="M7.27618 41.2651V39.71H8.80257V41.2651H7.27618Z" fill="black"/>
<path d="M8.78183 41.2651V39.71H10.1552V41.2651H8.78183Z" fill="black"/>
<path d="M9.98152 41.2651V39.71H11.5079V41.2651H9.98152Z" fill="black"/>
<path d="M11.3342 41.2651V39.71H11.9447V41.2651H11.3342Z" fill="black"/>
<path d="M11.7704 41.2651V39.71H12.8385V41.2651H11.7704Z" fill="black"/>
<path d="M12.5125 41.2651V39.71H14.0389V41.2651H12.5125Z" fill="black"/>
<path d="M13.8651 41.2651V39.71H15.3915V41.2651H13.8651Z" fill="black"/>
<path d="M15.1413 41.2651V39.71H16.2095V41.2651H15.1413Z" fill="black"/>
<path d="M15.8834 41.2651V39.71H16.494V41.2651H15.8834Z" fill="black"/>
<path d="M16.3196 41.2651V39.71H17.3877V41.2651H16.3196Z" fill="black"/>
<path d="M17.0617 41.2651V39.71H18.5881V41.2651H17.0617Z" fill="black"/>
<path d="M18.4144 41.2651V39.71H19.9408V41.2651H18.4144Z" fill="black"/>
<path d="M19.6141 41.2651V39.71H20.2246V41.2651H19.6141Z" fill="black"/>
<path d="M20.0503 41.2651V39.71H21.5766V41.2651H20.0503Z" fill="black"/>
<path d="M21.3264 41.2651V39.71H22.8528V41.2651H21.3264Z" fill="black"/>
<path d="M22.5261 41.2651V39.71H23.8995V41.2651H22.5261Z" fill="black"/>
<path d="M23.6883 41.2651V39.71H24.7564V41.2651H23.6883Z" fill="black"/>
<path d="M24.5833 41.2651V39.71H25.9568V41.2651H24.5833Z" fill="black"/>
<path d="M25.6502 41.2651V39.71H27.1766V41.2651H25.6502Z" fill="black"/>
<path d="M26.8499 41.2651V39.71H28.2233V41.2651H26.8499Z" fill="black"/>
<path d="M28.012 41.2651V39.71H28.6226V41.2651H28.012Z" fill="black"/>
<path d="M28.6012 41.2651V39.71H29.8216V41.2651H28.6012Z" fill="black"/>
<path d="M29.6479 41.2651V39.71H30.869V41.2651H29.6479Z" fill="black"/>
<path d="M30.543 41.2651V39.71H31.1535V41.2651H30.543Z" fill="black"/>
<path d="M6 44.2651V42.71H7.06814V44.2651H6Z" fill="black"/>
<path d="M6.74211 44.2651V42.71H8.2685V44.2651H6.74211Z" fill="black"/>
<path d="M8.09478 44.2651V42.71H9.62117V44.2651H8.09478Z" fill="black"/>
<path d="M9.29448 44.2651V42.71H9.90504V44.2651H9.29448Z" fill="black"/>
<path d="M9.73065 44.2651V42.71H11.41V44.2651H9.73065Z" fill="black"/>
<path d="M11.2739 44.2651V42.71H12.6473V44.2651H11.2739Z" fill="black"/>
<path d="M12.4736 44.2651V42.71H13.5417V44.2651H12.4736Z" fill="black"/>
<path d="M13.3686 44.2651V42.71H14.4368V44.2651H13.3686Z" fill="black"/>
<path d="M14.1108 44.2651V42.71H15.6372V44.2651H14.1108Z" fill="black"/>
<path d="M15.3105 44.2651V42.71H16.8368V44.2651H15.3105Z" fill="black"/>
<path d="M16.5866 44.2651V42.71H17.1972V44.2651H16.5866Z" fill="black"/>
<path d="M17.0228 44.2651V42.71H18.3962V44.2651H17.0228Z" fill="black"/>
<path d="M18.299 44.2651V42.71H19.3671V44.2651H18.299Z" fill="black"/>
<path d="M19.0411 44.2651V42.71H20.5675V44.2651H19.0411Z" fill="black"/>
<path d="M20.3173 44.2651V42.71H21.3854V44.2651H20.3173Z" fill="black"/>
<path d="M21.0594 44.2651V42.71H22.5858V44.2651H21.0594Z" fill="black"/>
<path d="M22.2591 44.2651V42.71H23.6325V44.2651H22.2591Z" fill="black"/>
<path d="M23.4212 44.2651V42.71H24.0318V44.2651H23.4212Z" fill="black"/>
<path d="M23.8574 44.2651V42.71H25.3838V44.2651H23.8574Z" fill="black"/>
<path d="M25.2865 44.2651V42.71H26.66V44.2651H25.2865Z" fill="black"/>
<path d="M26.4862 44.2651V42.71H28.0126V44.2651H26.4862Z" fill="black"/>
<path d="M27.7624 44.2651V42.71H28.373V44.2651H27.7624Z" fill="black"/>
<path d="M28.1986 44.2651V42.71H29.2667V44.2651H28.1986Z" fill="black"/>
<path d="M28.9407 44.2651V42.71H30.4671V44.2651H28.9407Z" fill="black"/>
<path d="M30.2934 44.2651V42.71H31.8198V44.2651H30.2934Z" fill="black"/>
<path d="M31.4931 44.2651V42.71H32.1036V44.2651H31.4931Z" fill="black"/>
<path d="M6 47.2651V45.71H7.06814V47.2651H6Z" fill="black"/>
<path d="M7.04806 47.2651V45.71H8.42148V47.2651H7.04806Z" fill="black"/>
<path d="M8.24776 47.2651V45.71H9.3159V47.2651H8.24776Z" fill="black"/>
<path d="M8.98987 47.2651V45.71H10.5163V47.2651H8.98987Z" fill="black"/>
<path d="M10.1896 47.2651V45.71H11.563V47.2651H10.1896Z" fill="black"/>
<path d="M11.2564 47.2651V45.71H12.7828V47.2651H11.2564Z" fill="black"/>
<path d="M12.4561 47.2651V45.71H13.8295V47.2651H12.4561Z" fill="black"/>
<path d="M13.6182 47.2651V45.71H14.6864V47.2651H13.6182Z" fill="black"/>
<path d="M14.3604 47.2651V45.71H15.7338V47.2651H14.3604Z" fill="black"/>
<path d="M15.5225 47.2651V45.71H16.133V47.2651H15.5225Z" fill="black"/>
<path d="M16.1116 47.2651V45.71H17.3321V47.2651H16.1116Z" fill="black"/>
<path d="M17.1583 47.2651V45.71H18.3794V47.2651H17.1583Z" fill="black"/>
<path d="M18.0534 47.2651V45.71H18.664V47.2651H18.0534Z" fill="black"/>
<path d="M18.4896 47.2651V45.71H19.5577V47.2651H18.4896Z" fill="black"/>
<path d="M19.2317 47.2651V45.71H20.7581V47.2651H19.2317Z" fill="black"/>
<path d="M20.5844 47.2651V45.71H22.1108V47.2651H20.5844Z" fill="black"/>
<path d="M21.7841 47.2651V45.71H22.3946V47.2651H21.7841Z" fill="black"/>
<path d="M22.2202 47.2651V45.71H23.8996V47.2651H22.2202Z" fill="black"/>
<path d="M23.7635 47.2651V45.71H25.1369V47.2651H23.7635Z" fill="black"/>
<path d="M24.9631 47.2651V45.71H26.0313V47.2651H24.9631Z" fill="black"/>
<path d="M25.8582 47.2651V45.71H26.9264V47.2651H25.8582Z" fill="black"/>
<path d="M26.6004 47.2651V45.71H28.1267V47.2651H26.6004Z" fill="black"/>
<path d="M27.8 47.2651V45.71H29.3264V47.2651H27.8Z" fill="black"/>
<path d="M29.0762 47.2651V45.71H29.6868V47.2651H29.0762Z" fill="black"/>
<path d="M6 50.2651V48.71H7.37342V50.2651H6Z" fill="black"/>
<path d="M7.27618 50.2651V48.71H8.34432V50.2651H7.27618Z" fill="black"/>
<path d="M8.0183 50.2651V48.71H9.54469V50.2651H8.0183Z" fill="black"/>
<path d="M9.29448 50.2651V48.71H10.3626V50.2651H9.29448Z" fill="black"/>
<path d="M10.0366 50.2651V48.71H11.563V50.2651H10.0366Z" fill="black"/>
<path d="M11.2363 50.2651V48.71H12.6097V50.2651H11.2363Z" fill="black"/>
<path d="M12.3984 50.2651V48.71H13.009V50.2651H12.3984Z" fill="black"/>
<path d="M12.8346 50.2651V48.71H14.361V50.2651H12.8346Z" fill="black"/>
<path d="M14.2637 50.2651V48.71H15.6372V50.2651H14.2637Z" fill="black"/>
<path d="M15.4634 50.2651V48.71H16.9898V50.2651H15.4634Z" fill="black"/>
<path d="M16.7396 50.2651V48.71H17.3502V50.2651H16.7396Z" fill="black"/>
<path d="M17.1758 50.2651V48.71H18.2439V50.2651H17.1758Z" fill="black"/>
<path d="M17.9179 50.2651V48.71H19.4443V50.2651H17.9179Z" fill="black"/>
<path d="M19.2706 50.2651V48.71H20.797V50.2651H19.2706Z" fill="black"/>
<path d="M20.4703 50.2651V48.71H21.0808V50.2651H20.4703Z" fill="black"/>
<path d="M21.0594 50.2651V48.71H22.4328V50.2651H21.0594Z" fill="black"/>
<path d="M22.3356 50.2651V48.71H23.556V50.2651H22.3356Z" fill="black"/>
<path d="M23.3823 50.2651V48.71H24.4504V50.2651H23.3823Z" fill="black"/>
<path d="M24.2774 50.2651V48.71H25.3455V50.2651H24.2774Z" fill="black"/>
<path d="M25.1725 50.2651V48.71H26.5459V50.2651H25.1725Z" fill="black"/>
<path d="M26.4487 50.2651V48.71H27.8221V50.2651H26.4487Z" fill="black"/>
<path d="M27.5719 50.2651V48.71H28.1824V50.2651H27.5719Z" fill="black"/>
<path d="M28.161 50.2651V48.71H29.3815V50.2651H28.161Z" fill="black"/>
<path d="M29.2077 50.2651V48.71H30.4288V50.2651H29.2077Z" fill="black"/>
<path d="M30.1028 50.2651V48.71H30.7134V50.2651H30.1028Z" fill="black"/>
<path d="M6 53.2651V51.71H7.06814V53.2651H6Z" fill="black"/>
<path d="M6.74211 53.2651V51.71H8.2685V53.2651H6.74211Z" fill="black"/>
<path d="M8.09478 53.2651V51.71H9.62117V53.2651H8.09478Z" fill="black"/>
<path d="M9.29448 53.2651V51.71H9.90504V53.2651H9.29448Z" fill="black"/>
<path d="M9.73065 53.2651V51.71H11.41V53.2651H9.73065Z" fill="black"/>
<path d="M11.2739 53.2651V51.71H12.6473V53.2651H11.2739Z" fill="black"/>
<path d="M12.4736 53.2651V51.71H13.5417V53.2651H12.4736Z" fill="black"/>
<path d="M13.3686 53.2651V51.71H14.4368V53.2651H13.3686Z" fill="black"/>
<path d="M14.1108 53.2651V51.71H15.6372V53.2651H14.1108Z" fill="black"/>
<path d="M15.3105 53.2651V51.71H16.8368V53.2651H15.3105Z" fill="black"/>
<path d="M16.5866 53.2651V51.71H17.1972V53.2651H16.5866Z" fill="black"/>
<path d="M17.0228 53.2651V51.71H18.3962V53.2651H17.0228Z" fill="black"/>
<path d="M18.299 53.2651V51.71H19.3671V53.2651H18.299Z" fill="black"/>
<path d="M19.0411 53.2651V51.71H20.5675V53.2651H19.0411Z" fill="black"/>
<path d="M20.3173 53.2651V51.71H21.3854V53.2651H20.3173Z" fill="black"/>
<path d="M21.0594 53.2651V51.71H22.5858V53.2651H21.0594Z" fill="black"/>
<path d="M22.2591 53.2651V51.71H23.6325V53.2651H22.2591Z" fill="black"/>
<path d="M23.4212 53.2651V51.71H24.0318V53.2651H23.4212Z" fill="black"/>
<path d="M23.8574 53.2651V51.71H25.9943V53.2651H23.8574Z" fill="black"/>
<path d="M25.6676 53.2651V51.71H27.194V53.2651H25.6676Z" fill="black"/>
<path d="M26.9438 53.2651V51.71H28.3172V53.2651H26.9438Z" fill="black"/>
<path d="M28.1059 53.2651V51.71H28.7165V53.2651H28.1059Z" fill="black"/>
<path d="M28.5421 53.2651V51.71H29.6102V53.2651H28.5421Z" fill="black"/>
<path d="M29.4372 53.2651V51.71H30.6576V53.2651H29.4372Z" fill="black"/>
<path d="M30.4839 53.2651V51.71H31.0945V53.2651H30.4839Z" fill="black"/>
<path d="M6.15297 56.2651V54.71H7.52639V56.2651H6.15297Z" fill="black"/>
<path d="M7.27618 56.2651V54.71H8.80257V56.2651H7.27618Z" fill="black"/>
<path d="M8.62885 56.2651V54.71H10.0023V56.2651H8.62885Z" fill="black"/>
<path d="M9.6957 56.2651V54.71H11.0691V56.2651H9.6957Z" fill="black"/>
<path d="M10.8578 56.2651V54.71H12.3842V56.2651H10.8578Z" fill="black"/>
<path d="M12.2105 56.2651V54.71H13.7369V56.2651H12.2105Z" fill="black"/>
<path d="M13.4102 56.2651V54.71H14.0207V56.2651H13.4102Z" fill="black"/>
<path d="M13.8464 56.2651V54.71H15.3727V56.2651H13.8464Z" fill="black"/>
<path d="M15.1225 56.2651V54.71H15.7331V56.2651H15.1225Z" fill="black"/>
<path d="M15.7117 56.2651V54.71H17.0851V56.2651H15.7117Z" fill="black"/>
<path d="M17.0644 56.2651V54.71H18.2848V56.2651H17.0644Z" fill="black"/>
<path d="M18.264 56.2651V54.71H19.6375V56.2651H18.264Z" fill="black"/>
<path d="M19.6167 56.2651V54.71H20.9901V56.2651H19.6167Z" fill="black"/>
<path d="M20.8164 56.2651V54.71H22.3428V56.2651H20.8164Z" fill="black"/>
<path d="M22.1691 56.2651V54.71H23.5425V56.2651H22.1691Z" fill="black"/>
<path d="M23.2923 56.2651V54.71H24.3604V56.2651H23.2923Z" fill="black"/>
<path d="M24.1874 56.2651V54.71H25.7138V56.2651H24.1874Z" fill="black"/>
<path d="M25.3871 56.2651V54.71H26.9135V56.2651H25.3871Z" fill="black"/>
<path d="M26.6633 56.2651V54.71H28.0367V56.2651H26.6633Z" fill="black"/>
<path d="M27.7301 56.2651V54.71H28.3407V56.2651H27.7301Z" fill="black"/>
<path d="M6 59.2651V57.71H7.67936V59.2651H6Z" fill="black"/>
<path d="M7.58213 59.2651V57.71H8.80257V59.2651H7.58213Z" fill="black"/>
<path d="M8.62885 59.2651V57.71H10.0023V59.2651H8.62885Z" fill="black"/>
<path d="M9.6957 59.2651V57.71H11.2221V59.2651H9.6957Z" fill="black"/>
<path d="M10.8954 59.2651V57.71H12.4218V59.2651H10.8954Z" fill="black"/>
<path d="M12.3246 59.2651V57.71H13.698V59.2651H12.3246Z" fill="black"/>
<path d="M13.5243 59.2651V57.71H14.1348V59.2651H13.5243Z" fill="black"/>
<path d="M14.1134 59.2651V57.71H15.6398V59.2651H14.1134Z" fill="black"/>
<path d="M15.3319 59.2651V57.71H16.8583V59.2651H15.3319Z" fill="black"/>
<path d="M16.6845 59.2651V57.71H18.058V59.2651H16.6845Z" fill="black"/>
<path d="M17.8842 59.2651V57.71H18.9524V59.2651H17.8842Z" fill="black"/>
<path d="M18.9323 59.2651V57.71H20.3057V59.2651H18.9323Z" fill="black"/>
<path d="M20.132 59.2651V57.71H21.5054V59.2651H20.132Z" fill="black"/>
<path d="M21.2941 59.2651V57.71H22.8205V59.2651H21.2941Z" fill="black"/>
<path d="M22.6468 59.2651V57.71H23.7149V59.2651H22.6468Z" fill="black"/>
<path d="M23.5419 59.2651V57.71H25.0683V59.2651H23.5419Z" fill="black"/>
<path d="M24.8181 59.2651V57.71H25.4286V59.2651H24.8181Z" fill="black"/>
<path d="M25.2542 59.2651V57.71H26.7806V59.2651H25.2542Z" fill="black"/>
<path d="M26.6834 59.2651V57.71H28.0568V59.2651H26.6834Z" fill="black"/>
<path d="M27.8831 59.2651V57.71H29.4095V59.2651H27.8831Z" fill="black"/>
<path d="M29.1593 59.2651V57.71H29.7698V59.2651H29.1593Z" fill="black"/>
<path d="M29.5954 59.2651V57.71H30.6636V59.2651H29.5954Z" fill="black"/>
<path d="M30.4905 59.2651V57.71H31.711V59.2651H30.4905Z" fill="black"/>
<path d="M31.5372 59.2651V57.71H32.1478V59.2651H31.5372Z" fill="black"/>
<path d="M6 62.2651V60.71H7.52639V62.2651H6Z" fill="black"/>
<path d="M7.35267 62.2651V60.71H8.42081V62.2651H7.35267Z" fill="black"/>
<path d="M8.17127 62.2651V60.71H9.54469V62.2651H8.17127Z" fill="black"/>
<path d="M9.44745 62.2651V60.71H10.9738V62.2651H9.44745Z" fill="black"/>
<path d="M10.6472 62.2651V60.71H11.2577V62.2651H10.6472Z" fill="black"/>
<path d="M11.0833 62.2651V60.71H12.7627V62.2651H11.0833Z" fill="black"/>
<path d="M12.6077 62.2651V60.71H13.8282V62.2651H12.6077Z" fill="black"/>
<path d="M13.6545 62.2651V60.71H15.0279V62.2651H13.6545Z" fill="black"/>
<path d="M14.7213 62.2651V60.71H15.7895V62.2651H14.7213Z" fill="black"/>
<path d="M15.4634 62.2651V60.71H16.9898V62.2651H15.4634Z" fill="black"/>
<path d="M16.8161 62.2651V60.71H17.4267V62.2651H16.8161Z" fill="black"/>
<path d="M17.2523 62.2651V60.71H18.9316V62.2651H17.2523Z" fill="black"/>
<path d="M18.8344 62.2651V60.71H20.0548V62.2651H18.8344Z" fill="black"/>
<path d="M19.8811 62.2651V60.71H21.2545V62.2651H19.8811Z" fill="black"/>
<path d="M20.948 62.2651V60.71H22.4744V62.2651H20.948Z" fill="black"/>
<path d="M22.1477 62.2651V60.71H23.6741V62.2651H22.1477Z" fill="black"/>
<path d="M23.4238 62.2651V60.71H24.0344V62.2651H23.4238Z" fill="black"/>
<path d="M23.86 62.2651V60.71H25.3864V62.2651H23.86Z" fill="black"/>
<path d="M25.1362 62.2651V60.71H25.7468V62.2651H25.1362Z" fill="black"/>
<path d="M25.5724 62.2651V60.71H27.7093V62.2651H25.5724Z" fill="black"/>
<path d="M27.3826 62.2651V60.71H28.909V62.2651H27.3826Z" fill="black"/>
<path d="M28.7353 62.2651V60.71H30.1087V62.2651H28.7353Z" fill="black"/>
<path d="M29.8585 62.2651V60.71H30.4691V62.2651H29.8585Z" fill="black"/>
<path d="M30.4476 62.2651V60.71H31.6681V62.2651H30.4476Z" fill="black"/>
<path d="M31.4944 62.2651V60.71H32.7155V62.2651H31.4944Z" fill="black"/>
<path d="M32.3894 62.2651V60.71H33V62.2651H32.3894Z" fill="black"/>
<path d="M6 65.2651V63.71H7.98464V65.2651H6Z" fill="black"/>
<path d="M8.03971 65.2651V63.71H9.26016V65.2651H8.03971Z" fill="black"/>
<path d="M9.08643 65.2651V63.71H10.4599V65.2651H9.08643Z" fill="black"/>
<path d="M10.3626 65.2651V63.71H11.4308V65.2651H10.3626Z" fill="black"/>
<path d="M11.4107 65.2651V63.71H12.7841V65.2651H11.4107Z" fill="black"/>
<path d="M12.6104 65.2651V63.71H14.1368V65.2651H12.6104Z" fill="black"/>
<path d="M13.963 65.2651V63.71H14.5736V65.2651H13.963Z" fill="black"/>
<path d="M14.3992 65.2651V63.71H16.5362V65.2651H14.3992Z" fill="black"/>
<path d="M16.286 65.2651V63.71H17.3541V65.2651H16.286Z" fill="black"/>
<path d="M17.181 65.2651V63.71H18.2492V65.2651H17.181Z" fill="black"/>
<path d="M17.9232 65.2651V63.71H19.4495V65.2651H17.9232Z" fill="black"/>
<path d="M19.2758 65.2651V63.71H19.8864V65.2651H19.2758Z" fill="black"/>
<path d="M19.712 65.2651V63.71H21.2384V65.2651H19.712Z" fill="black"/>
<path d="M20.9882 65.2651V63.71H22.0563V65.2651H20.9882Z" fill="black"/>
<path d="M21.8833 65.2651V63.71H23.4097V65.2651H21.8833Z" fill="black"/>
<path d="M23.3889 65.2651V63.71H24.7623V65.2651H23.3889Z" fill="black"/>
<path d="M24.5886 65.2651V63.71H25.6567V65.2651H24.5886Z" fill="black"/>
<path d="M25.4837 65.2651V63.71H26.5518V65.2651H25.4837Z" fill="black"/>
<path d="M26.3788 65.2651V63.71H27.7522V65.2651H26.3788Z" fill="black"/>
<path d="M27.502 65.2651V63.71H28.1125V65.2651H27.502Z" fill="black"/>
<path d="M27.9382 65.2651V63.71H29.0063V65.2651H27.9382Z" fill="black"/>
<path d="M28.9862 65.2651V63.71H30.3596V65.2651H28.9862Z" fill="black"/>
<path d="M30.1859 65.2651V63.71H31.2541V65.2651H30.1859Z" fill="black"/>
<path d="M31.081 65.2651V63.71H32.3014V65.2651H31.081Z" fill="black"/>
<path d="M32.1277 65.2651V63.71H32.7383V65.2651H32.1277Z" fill="black"/>
<path d="M6 68.2651V66.71H7.06814V68.2651H6Z" fill="black"/>
<path d="M6.74211 68.2651V66.71H8.2685V68.2651H6.74211Z" fill="black"/>
<path d="M8.09478 68.2651V66.71H9.62117V68.2651H8.09478Z" fill="black"/>
<path d="M9.29448 68.2651V66.71H9.90504V68.2651H9.29448Z" fill="black"/>
<path d="M9.73065 68.2651V66.71H10.7988V68.2651H9.73065Z" fill="black"/>
<path d="M10.7787 68.2651V66.71H12.1521V68.2651H10.7787Z" fill="black"/>
<path d="M11.9784 68.2651V66.71H13.0465V68.2651H11.9784Z" fill="black"/>
<path d="M12.7205 68.2651V66.71H14.2469V68.2651H12.7205Z" fill="black"/>
<path d="M13.9202 68.2651V66.71H15.2936V68.2651H13.9202Z" fill="black"/>
<path d="M15.14 68.2651V66.71H16.5135V68.2651H15.14Z" fill="black"/>
<path d="M16.3397 68.2651V66.71H17.8661V68.2651H16.3397Z" fill="black"/>
<path d="M17.6159 68.2651V66.71H18.6841V68.2651H17.6159Z" fill="black"/>
<path d="M18.358 68.2651V66.71H19.4262V68.2651H18.358Z" fill="black"/>
<path d="M19.4061 68.2651V66.71H20.6265V68.2651H19.4061Z" fill="black"/>
<path d="M20.6058 68.2651V66.71H21.9792V68.2651H20.6058Z" fill="black"/>
<path d="M21.8055 68.2651V66.71H23.3319V68.2651H21.8055Z" fill="black"/>
<path d="M23.0817 68.2651V66.71H24.1498V68.2651H23.0817Z" fill="black"/>
<path d="M23.9768 68.2651V66.71H24.5873V68.2651H23.9768Z" fill="black"/>
<path d="M6 71.2651V69.71H7.37342V71.2651H6Z" fill="black"/>
<path d="M7.27618 71.2651V69.71H8.49662V71.2651H7.27618Z" fill="black"/>
<path d="M8.3229 71.2651V69.71H10.3075V71.2651H8.3229Z" fill="black"/>
<path d="M10.2096 71.2651V69.71H12.1943V71.2651H10.2096Z" fill="black"/>
<path d="M12.0964 71.2651V69.71H13.6228V71.2651H12.0964Z" fill="black"/>
<path d="M13.602 71.2651V69.71H14.9754V71.2651H13.602Z" fill="black"/>
<path d="M14.8017 71.2651V69.71H15.8699V71.2651H14.8017Z" fill="black"/>
<path d="M15.6968 71.2651V69.71H16.765V71.2651H15.6968Z" fill="black"/>
<path d="M16.5919 71.2651V69.71H17.9653V71.2651H16.5919Z" fill="black"/>
<path d="M17.7151 71.2651V69.71H18.3257V71.2651H17.7151Z" fill="black"/>
<path d="M18.1513 71.2651V69.71H19.6777V71.2651H18.1513Z" fill="black"/>
<path d="M19.5804 71.2651V69.71H20.9538V71.2651H19.5804Z" fill="black"/>
<path d="M20.7801 71.2651V69.71H22.3065V71.2651H20.7801Z" fill="black"/>
<path d="M22.0563 71.2651V69.71H22.6669V71.2651H22.0563Z" fill="black"/>
<path d="M22.4925 71.2651V69.71H24.0189V71.2651H22.4925Z" fill="black"/>
<path d="M23.6922 71.2651V69.71H25.8291V71.2651H23.6922Z" fill="black"/>
<path d="M25.5024 71.2651V69.71H27.0288V71.2651H25.5024Z" fill="black"/>
<path d="M26.8551 71.2651V69.71H28.2285V71.2651H26.8551Z" fill="black"/>
<path d="M27.9783 71.2651V69.71H28.5889V71.2651H27.9783Z" fill="black"/>
<path d="M6 74.2651V72.71H7.22111V74.2651H6Z" fill="black"/>
<path d="M6.89509 74.2651V72.71H8.2685V74.2651H6.89509Z" fill="black"/>
<path d="M8.11491 74.2651V72.71H9.33535V74.2651H8.11491Z" fill="black"/>
<path d="M9.16163 74.2651V72.71H11.1463V74.2651H9.16163Z" fill="black"/>
<path d="M11.0484 74.2651V72.71H11.6589V74.2651H11.0484Z" fill="black"/>
<path d="M11.4845 74.2651V72.71H13.0109V74.2651H11.4845Z" fill="black"/>
<path d="M12.9137 74.2651V72.71H14.2871V74.2651H12.9137Z" fill="black"/>
<path d="M14.1134 74.2651V72.71H14.7239V74.2651H14.1134Z" fill="black"/>
<path d="M14.5496 74.2651V72.71H15.6177V74.2651H14.5496Z" fill="black"/>
<path d="M15.4446 74.2651V72.71H16.8181V74.2651H15.4446Z" fill="black"/>
<path d="M16.7597 74.2651V72.71H17.9802V74.2651H16.7597Z" fill="black"/>
<path d="M17.8065 74.2651V72.71H18.8746V74.2651H17.8065Z" fill="black"/>
<path d="M18.7016 74.2651V72.71H20.2279V74.2651H18.7016Z" fill="black"/>
<path d="M19.9777 74.2651V72.71H21.0459V74.2651H19.9777Z" fill="black"/>
<path d="M20.7199 74.2651V72.71H22.2462V74.2651H20.7199Z" fill="black"/>
<path d="M21.9195 74.2651V72.71H23.4459V74.2651H21.9195Z" fill="black"/>
<path d="M23.1957 74.2651V72.71H23.8063V74.2651H23.1957Z" fill="black"/>
<path d="M23.7849 74.2651V72.71H25.1583V74.2651H23.7849Z" fill="black"/>
<path d="M24.9081 74.2651V72.71H26.4345V74.2651H24.9081Z" fill="black"/>
<path d="M26.1843 74.2651V72.71H27.2524V74.2651H26.1843Z" fill="black"/>
<path d="M26.9264 74.2651V72.71H28.4528V74.2651H26.9264Z" fill="black"/>
<path d="M28.6833 74.1895C28.6833 74.155 28.6915 74.1307 28.708 74.1167C28.7245 74.1027 28.7442 74.0957 28.7671 74.0957C28.7909 74.0957 28.811 74.1027 28.8275 74.1167C28.8449 74.1307 28.8536 74.155 28.8536 74.1895C28.8536 74.2231 28.8449 74.2474 28.8275 74.2623C28.811 74.2773 28.7909 74.2847 28.7671 74.2847C28.7442 74.2847 28.7245 74.2773 28.708 74.2623C28.6915 74.2474 28.6833 74.2231 28.6833 74.1895ZM29.0433 74.1895C29.0433 74.155 29.0515 74.1307 29.068 74.1167C29.0845 74.1027 29.1042 74.0957 29.1271 74.0957C29.1509 74.0957 29.1711 74.1027 29.1875 74.1167C29.205 74.1307 29.2137 74.155 29.2137 74.1895C29.2137 74.2231 29.205 74.2474 29.1875 74.2623C29.1711 74.2773 29.1509 74.2847 29.1271 74.2847C29.1042 74.2847 29.0845 74.2773 29.068 74.2623C29.0515 74.2474 29.0433 74.2231 29.0433 74.1895ZM29.4019 74.1895C29.4019 74.155 29.4101 74.1307 29.4266 74.1167C29.4431 74.1027 29.4628 74.0957 29.4857 74.0957C29.5095 74.0957 29.5297 74.1027 29.5462 74.1167C29.5636 74.1307 29.5723 74.155 29.5723 74.1895C29.5723 74.2231 29.5636 74.2474 29.5462 74.2623C29.5297 74.2773 29.5095 74.2847 29.4857 74.2847C29.4628 74.2847 29.4431 74.2773 29.4266 74.2623C29.4101 74.2474 29.4019 74.2231 29.4019 74.1895Z" fill="black"/>
<path d="M29.311 74.2651V72.71H30.0739V74.2651H29.311Z" fill="black"/>
<path d="M6.30528 8.16055H31.8198V8.23027H6.30528V8.16055ZM6.30528 11.1605H28.7164V11.2303H6.30528V11.1605ZM6.30528 14.1605H10.9149V14.2303H6.30528V14.1605ZM10.9149 14.4401H12.234V14.5101H10.9149V14.4401ZM12.234 14.1605H31.6722V14.2303H12.234V14.1605ZM6.30528 17.1605H31.9714V17.2303H6.30528V17.1605ZM6.30528 20.1605H28.5804V20.2303H6.30528V20.1605ZM6.30528 23.1605H31.2467V23.2303H6.30528V23.1605ZM6.30528 26.1605H31.6098V26.2303H6.30528V26.1605ZM6.30528 29.1605H25.4803V29.2303H6.30528V29.1605ZM6.30528 32.1605H29.3083V32.2303H6.30528V32.1605ZM6.30528 35.1605H17.8286V35.2303H6.30528V35.1605ZM6.30528 38.1605H32.1465V38.2303H6.30528V38.1605ZM6.30528 41.1605H30.8476V41.2303H6.30528V41.1605ZM6.30528 44.1605H31.7983V44.2303H6.30528V44.1605ZM6.30528 47.1605H29.3815V47.2303H6.30528V47.1605ZM6.30528 50.1605H30.4074V50.2303H6.30528V50.1605ZM6.30528 53.1605H30.7892V53.2303H6.30528V53.1605ZM6.30528 56.1605H28.0347V56.2303H6.30528V56.1605ZM6.30528 59.1605H31.8425V59.2303H6.30528V59.1605ZM6.30528 62.1605H32.6941V62.2303H6.30528V62.1605ZM6.30528 65.1605H32.433V65.2303H6.30528V65.1605ZM6.30528 68.1605H24.2814V68.2303H6.30528V68.1605ZM6.30528 71.1605H28.2836V71.2303H6.30528V71.1605ZM6.30528 74.1605H28.5843V74.2303H6.30528V74.1605ZM28.5843 74.4401H29.6163V74.5101H28.5843V74.4401ZM29.6163 74.1605H30.2604V74.2303H29.6163V74.1605Z" fill="black"/>
</g>
<rect width="12" height="14" transform="translate(25 18.71)" fill="white"/>
<path d="M30.6787 22.5713C31.5999 22.5713 32.2721 22.7699 32.6953 23.167C33.1185 23.5609 33.3301 24.1045 33.3301 24.7979C33.3301 25.1104 33.2829 25.4098 33.1885 25.6963C33.0941 25.9795 32.9395 26.2318 32.7246 26.4531C32.513 26.6745 32.2298 26.8503 31.875 26.9805C31.5202 27.1074 31.0824 27.1709 30.5615 27.1709H29.9121V29.71H28.3984V22.5713H30.6787ZM30.6006 23.8115H29.9121V25.9307H30.4102C30.6934 25.9307 30.9391 25.8932 31.1475 25.8184C31.3558 25.7435 31.5169 25.6263 31.6309 25.4668C31.7448 25.3073 31.8018 25.1022 31.8018 24.8516C31.8018 24.5 31.7041 24.2396 31.5088 24.0703C31.3135 23.8978 31.0107 23.8115 30.6006 23.8115Z" fill="#585858"/>
</g>
<path d="M11.3333 38.71H2V45.058H11.3333V38.71Z" fill="#7FA4CA"/>
<path d="M21.6663 38.71H12.333V45.058H21.6663V38.71Z" fill="#E1C278"/>
<path d="M32.0003 38.71H22.667V45.058H32.0003V38.71Z" fill="#E19E55"/>
</g>
<defs>
<filter id="filter0_d_238_43661" x="0" y="1.70996" width="39" height="35" filterUnits="userSpaceOnUse" color-interpolation-filters="sRGB">
<feFlood flood-opacity="0" result="BackgroundImageFix"/>
<feColorMatrix in="SourceAlpha" type="matrix" values="0 0 0 0 0 0 0 0 0 0 0 0 0 0 0 0 0 0 127 0" result="hardAlpha"/>
<feOffset dy="1"/>
<feGaussianBlur stdDeviation="1"/>
<feComposite in2="hardAlpha" operator="out"/>
<feColorMatrix type="matrix" values="0 0 0 0 0 0 0 0 0 0 0 0 0 0 0 0 0 0 0.1 0"/>
<feBlend mode="normal" in2="BackgroundImageFix" result="effect1_dropShadow_238_43661"/>
<feBlend mode="normal" in="SourceGraphic" in2="effect1_dropShadow_238_43661" result="shape"/>
</filter>
<filter id="filter1_i_238_43661" x="2" y="-2.29004" width="35" height="34" filterUnits="userSpaceOnUse" color-interpolation-filters="sRGB">
<feFlood flood-opacity="0" result="BackgroundImageFix"/>
<feBlend mode="normal" in="SourceGraphic" in2="BackgroundImageFix" result="shape"/>
<feColorMatrix in="SourceAlpha" type="matrix" values="0 0 0 0 0 0 0 0 0 0 0 0 0 0 0 0 0 0 127 0" result="hardAlpha"/>
<feOffset dy="-5"/>
<feGaussianBlur stdDeviation="3.5"/>
<feComposite in2="hardAlpha" operator="arithmetic" k2="-1" k3="1"/>
<feColorMatrix type="matrix" values="0 0 0 0 1 0 0 0 0 1 0 0 0 0 1 0 0 0 1 0"/>
<feBlend mode="normal" in2="shape" result="effect1_innerShadow_238_43661"/>
</filter>
<clipPath id="clip0_238_43661">
<rect width="39" height="46.3481" fill="white" transform="translate(0 0.709961)"/>
</clipPath>
<clipPath id="clip1_238_43661">
<rect width="35" height="31" fill="white" transform="translate(2 2.70996)"/>
</clipPath>
<clipPath id="clip2_238_43661">
<rect width="35" height="29" fill="white" transform="translate(2 2.70996)"/>
</clipPath>
</defs>
</svg>
