<svg width="41" height="48" viewBox="0 0 41 48" fill="none" xmlns="http://www.w3.org/2000/svg">
<g clip-path="url(#clip0_238_43683)">
<rect width="35" height="31" transform="translate(3 2.76123)" fill="white"/>
<g opacity="0.3" clip-path="url(#clip1_238_43683)" filter="url(#filter0_i_238_43683)">
<rect width="35" height="29" transform="translate(3 2.76123)" fill="white"/>
<path d="M7 8.31641V6.76123H7.7629V8.31641H7Z" fill="black"/>
<path d="M7.58917 8.31641V6.76123H9.11563V8.31641H7.58917Z" fill="black"/>
<path d="M8.9419 8.31641V6.76123H10.4684V8.31641H8.9419Z" fill="black"/>
<path d="M10.2946 8.31641V6.76123H11.8211V8.31641H10.2946Z" fill="black"/>
<path d="M11.4944 8.31641V6.76123H12.105V8.31641H11.4944Z" fill="black"/>
<path d="M11.9306 8.31641V6.76123H13.1517V8.31641H11.9306Z" fill="black"/>
<path d="M12.9787 8.31641V6.76123H14.1992V8.31641H12.9787Z" fill="black"/>
<path d="M14.0255 8.31641V6.76123H15.5519V8.31641H14.0255Z" fill="black"/>
<path d="M15.3782 8.31641V6.76123H16.7517V8.31641H15.3782Z" fill="black"/>
<path d="M16.4451 8.31641V6.76123H17.208V8.31641H16.4451Z" fill="black"/>
<path d="M17.1872 8.31641V6.76123H18.5607V8.31641H17.1872Z" fill="black"/>
<path d="M18.3105 8.31641V6.76123H19.837V8.31641H18.3105Z" fill="black"/>
<path d="M19.5868 8.31641V6.76123H20.9602V8.31641H19.5868Z" fill="black"/>
<path d="M20.6537 8.31641V6.76123H21.7218V8.31641H20.6537Z" fill="black"/>
<path d="M21.5488 8.31641V6.76123H22.9223V8.31641H21.5488Z" fill="black"/>
<path d="M22.672 8.31641V6.76123H23.2826V8.31641H22.672Z" fill="black"/>
<path d="M23.1082 8.31641V6.76123H24.1764V8.31641H23.1082Z" fill="black"/>
<path d="M23.8504 8.31641V6.76123H25.3768V8.31641H23.8504Z" fill="black"/>
<path d="M25.1266 8.31641V6.76123H26.1948V8.31641H25.1266Z" fill="black"/>
<path d="M26.0218 8.31641V6.76123H27.5482V8.31641H26.0218Z" fill="black"/>
<path d="M27.3369 8.31641V6.76123H28.7104V8.31641H27.3369Z" fill="black"/>
<path d="M28.4991 8.31641V6.76123H29.1097V8.31641H28.4991Z" fill="black"/>
<path d="M28.9353 8.31641V6.76123H30.4617V8.31641H28.9353Z" fill="black"/>
<path d="M30.2115 8.31641V6.76123H31.585V8.31641H30.2115Z" fill="black"/>
<path d="M31.2784 8.31641V6.76123H32.8049V8.31641H31.2784Z" fill="black"/>
<path d="M32.4782 8.31641V6.76123H33.0888V8.31641H32.4782Z" fill="black"/>
<path d="M7 11.3164V9.76123H8.37348V11.3164H7Z" fill="black"/>
<path d="M8.16218 11.3164V9.76123H9.23037V11.3164H8.16218Z" fill="black"/>
<path d="M9.05731 11.3164V9.76123H11.042V11.3164H9.05731Z" fill="black"/>
<path d="M11.0971 11.3164V9.76123H12.4706V11.3164H11.0971Z" fill="black"/>
<path d="M12.2204 11.3164V9.76123H13.2886V11.3164H12.2204Z" fill="black"/>
<path d="M13.192 11.3164V9.76123H14.5655V11.3164H13.192Z" fill="black"/>
<path d="M14.3153 11.3164V9.76123H14.9259V11.3164H14.3153Z" fill="black"/>
<path d="M14.7515 11.3164V9.76123H16.2779V11.3164H14.7515Z" fill="black"/>
<path d="M16.0277 11.3164V9.76123H16.6383V11.3164H16.0277Z" fill="black"/>
<path d="M16.4639 11.3164V9.76123H18.6009V11.3164H16.4639Z" fill="black"/>
<path d="M18.2742 11.3164V9.76123H19.8007V11.3164H18.2742Z" fill="black"/>
<path d="M19.627 11.3164V9.76123H21.0004V11.3164H19.627Z" fill="black"/>
<path d="M20.7502 11.3164V9.76123H21.3608V11.3164H20.7502Z" fill="black"/>
<path d="M21.3394 11.3164V9.76123H22.5599V11.3164H21.3394Z" fill="black"/>
<path d="M22.3862 11.3164V9.76123H23.6073V11.3164H22.3862Z" fill="black"/>
<path d="M23.2813 11.3164V9.76123H23.8919V11.3164H23.2813Z" fill="black"/>
<path d="M7.15298 14.3164V12.7612H8.52646V14.3164H7.15298Z" fill="black"/>
<path d="M8.27624 14.3164V12.7612H9.64973V14.3164H8.27624Z" fill="black"/>
<path d="M9.49613 14.3164V12.7612H10.7166V14.3164H9.49613Z" fill="black"/>
<path d="M10.5429 14.3164V12.7612H11.9164V14.3164H10.5429Z" fill="black"/>
<path d="M11.8191 14.3164V12.7612H12.8873V14.3164H11.8191Z" fill="black"/>
<path d="M12.7143 14.3164V12.7612H14.2407V14.3164H12.7143Z" fill="black"/>
<path d="M13.9905 14.3164V12.7612H15.0587V14.3164H13.9905Z" fill="black"/>
<path d="M15.0386 14.3164V12.7612H16.4121V14.3164H15.0386Z" fill="black"/>
<path d="M16.2384 14.3164V12.7612H17.7648V14.3164H16.2384Z" fill="black"/>
<path d="M17.5911 14.3164V12.7612H18.2017V14.3164H17.5911Z" fill="black"/>
<path d="M18.0273 14.3164V12.7612H19.5538V14.3164H18.0273Z" fill="black"/>
<path d="M19.3035 14.3164V12.7612H19.9141V14.3164H19.3035Z" fill="black"/>
<path d="M19.7397 14.3164V12.7612H20.9609V14.3164H19.7397Z" fill="black"/>
<path d="M20.6349 14.3164V12.7612H22.0083V14.3164H20.6349Z" fill="black"/>
<path d="M21.6642 14.3164V12.7612H23.1907V14.3164H21.6642Z" fill="black"/>
<path d="M22.9404 14.3164V12.7612H24.9252V14.3164H22.9404Z" fill="black"/>
<path d="M24.8273 14.3164V12.7612H26.3537V14.3164H24.8273Z" fill="black"/>
<path d="M26.027 14.3164V12.7612H28.1641V14.3164H26.027Z" fill="black"/>
<path d="M28.0668 14.3164V12.7612H29.2873V14.3164H28.0668Z" fill="black"/>
<path d="M29.1136 14.3164V12.7612H30.4871V14.3164H29.1136Z" fill="black"/>
<path d="M30.1805 14.3164V12.7612H31.707V14.3164H30.1805Z" fill="black"/>
<path d="M31.4957 14.3164V12.7612H32.1062V14.3164H31.4957Z" fill="black"/>
<path d="M7 17.3164V15.7612H9.13705V17.3164H7Z" fill="black"/>
<path d="M8.88683 17.3164V15.7612H9.95502V17.3164H8.88683Z" fill="black"/>
<path d="M9.78196 17.3164V15.7612H10.8501V17.3164H9.78196Z" fill="black"/>
<path d="M10.5241 17.3164V15.7612H12.0506V17.3164H10.5241Z" fill="black"/>
<path d="M11.8768 17.3164V15.7612H12.945V17.3164H11.8768Z" fill="black"/>
<path d="M12.925 17.3164V15.7612H14.2984V17.3164H12.925Z" fill="black"/>
<path d="M14.1247 17.3164V15.7612H14.7353V17.3164H14.1247Z" fill="black"/>
<path d="M14.5609 17.3164V15.7612H16.6979V17.3164H14.5609Z" fill="black"/>
<path d="M16.4477 17.3164V15.7612H17.9742V17.3164H16.4477Z" fill="black"/>
<path d="M17.8005 17.3164V15.7612H18.8687V17.3164H17.8005Z" fill="black"/>
<path d="M18.6956 17.3164V15.7612H20.0691V17.3164H18.6956Z" fill="black"/>
<path d="M19.8189 17.3164V15.7612H21.3453V17.3164H19.8189Z" fill="black"/>
<path d="M21.1716 17.3164V15.7612H21.7822V17.3164H21.1716Z" fill="black"/>
<path d="M21.6078 17.3164V15.7612H22.676V17.3164H21.6078Z" fill="black"/>
<path d="M22.3499 17.3164V15.7612H23.8764V17.3164H22.3499Z" fill="black"/>
<path d="M23.7027 17.3164V15.7612H25.2291V17.3164H23.7027Z" fill="black"/>
<path d="M24.9024 17.3164V15.7612H25.513V17.3164H24.9024Z" fill="black"/>
<path d="M25.3386 17.3164V15.7612H26.7121V17.3164H25.3386Z" fill="black"/>
<path d="M26.7678 17.3164V15.7612H27.9883V17.3164H26.7678Z" fill="black"/>
<path d="M27.8146 17.3164V15.7612H29.3411V17.3164H27.8146Z" fill="black"/>
<path d="M29.1673 17.3164V15.7612H30.2355V17.3164H29.1673Z" fill="black"/>
<path d="M29.9095 17.3164V15.7612H31.4359V17.3164H29.9095Z" fill="black"/>
<path d="M31.2622 17.3164V15.7612H31.8728V17.3164H31.2622Z" fill="black"/>
<path d="M7 20.3164V18.7612H8.52646V20.3164H7Z" fill="black"/>
<path d="M8.42923 20.3164V18.7612H9.80271V20.3164H8.42923Z" fill="black"/>
<path d="M9.62898 20.3164V18.7612H11.1554V20.3164H9.62898Z" fill="black"/>
<path d="M10.9052 20.3164V18.7612H11.5158V20.3164H10.9052Z" fill="black"/>
<path d="M11.3414 20.3164V18.7612H12.4096V20.3164H11.3414Z" fill="black"/>
<path d="M12.0836 20.3164V18.7612H13.61V20.3164H12.0836Z" fill="black"/>
<path d="M13.4363 20.3164V18.7612H14.9628V20.3164H13.4363Z" fill="black"/>
<path d="M14.636 20.3164V18.7612H15.2466V20.3164H14.636Z" fill="black"/>
<path d="M15.0722 20.3164V18.7612H16.7517V20.3164H15.0722Z" fill="black"/>
<path d="M16.5967 20.3164V18.7612H17.8172V20.3164H16.5967Z" fill="black"/>
<path d="M17.6435 20.3164V18.7612H19.017V20.3164H17.6435Z" fill="black"/>
<path d="M18.7104 20.3164V18.7612H19.7786V20.3164H18.7104Z" fill="black"/>
<path d="M19.4526 20.3164V18.7612H20.979V20.3164H19.4526Z" fill="black"/>
<path d="M20.8053 20.3164V18.7612H21.4159V20.3164H20.8053Z" fill="black"/>
<path d="M21.2415 20.3164V18.7612H22.615V20.3164H21.2415Z" fill="black"/>
<path d="M22.3647 20.3164V18.7612H23.8912V20.3164H22.3647Z" fill="black"/>
<path d="M23.794 20.3164V18.7612H25.1674V20.3164H23.794Z" fill="black"/>
<path d="M24.9937 20.3164V18.7612H25.6043V20.3164H24.9937Z" fill="black"/>
<path d="M7 23.3164V21.7612H8.52646V23.3164H7Z" fill="black"/>
<path d="M8.35273 23.3164V21.7612H9.42092V23.3164H8.35273Z" fill="black"/>
<path d="M9.24787 23.3164V21.7612H10.3161V23.3164H9.24787Z" fill="black"/>
<path d="M9.99002 23.3164V21.7612H11.0582V23.3164H9.99002Z" fill="black"/>
<path d="M10.8851 23.3164V21.7612H12.8699V23.3164H10.8851Z" fill="black"/>
<path d="M12.772 23.3164V21.7612H14.2984V23.3164H12.772Z" fill="black"/>
<path d="M14.0482 23.3164V21.7612H15.1164V23.3164H14.0482Z" fill="black"/>
<path d="M14.7904 23.3164V21.7612H16.3168V23.3164H14.7904Z" fill="black"/>
<path d="M15.9901 23.3164V21.7612H17.0583V23.3164H15.9901Z" fill="black"/>
<path d="M16.9617 23.3164V21.7612H18.3352V23.3164H16.9617Z" fill="black"/>
<path d="M18.085 23.3164V21.7612H18.6956V23.3164H18.085Z" fill="black"/>
<path d="M18.5212 23.3164V21.7612H20.0477V23.3164H18.5212Z" fill="black"/>
<path d="M19.7974 23.3164V21.7612H21.3239V23.3164H19.7974Z" fill="black"/>
<path d="M21.1502 23.3164V21.7612H22.5237V23.3164H21.1502Z" fill="black"/>
<path d="M22.2171 23.3164V21.7612H23.7435V23.3164H22.2171Z" fill="black"/>
<path d="M23.4168 23.3164V21.7612H24.9433V23.3164H23.4168Z" fill="black"/>
<path d="M24.6166 23.3164V21.7612H25.2272V23.3164H24.6166Z" fill="black"/>
<path d="M25.2057 23.3164V21.7612H26.4262V23.3164H25.2057Z" fill="black"/>
<path d="M26.4055 23.3164V21.7612H27.779V23.3164H26.4055Z" fill="black"/>
<path d="M27.6053 23.3164V21.7612H28.2158V23.3164H27.6053Z" fill="black"/>
<path d="M28.0414 23.3164V21.7612H29.1096V23.3164H28.0414Z" fill="black"/>
<path d="M28.7836 23.3164V21.7612H30.3101V23.3164H28.7836Z" fill="black"/>
<path d="M30.1363 23.3164V21.7612H31.6628V23.3164H30.1363Z" fill="black"/>
<path d="M31.3361 23.3164V21.7612H31.9467V23.3164H31.3361Z" fill="black"/>
<path d="M7 26.3164V24.7612H8.06819V26.3164H7Z" fill="black"/>
<path d="M7.74215 26.3164V24.7612H9.26861V26.3164H7.74215Z" fill="black"/>
<path d="M8.9419 26.3164V24.7612H10.3154V26.3164H8.9419Z" fill="black"/>
<path d="M10.0088 26.3164V24.7612H11.9935V26.3164H10.0088Z" fill="black"/>
<path d="M11.8956 26.3164V24.7612H13.2691V26.3164H11.8956Z" fill="black"/>
<path d="M13.0578 26.3164V24.7612H13.6684V26.3164H13.0578Z" fill="black"/>
<path d="M13.647 26.3164V24.7612H14.8675V26.3164H13.647Z" fill="black"/>
<path d="M14.6937 26.3164V24.7612H15.9149V26.3164H14.6937Z" fill="black"/>
<path d="M15.5889 26.3164V24.7612H16.1995V26.3164H15.5889Z" fill="black"/>
<path d="M16.178 26.3164V24.7612H17.5515V26.3164H16.178Z" fill="black"/>
<path d="M17.3013 26.3164V24.7612H18.8278V26.3164H17.3013Z" fill="black"/>
<path d="M18.5011 26.3164V24.7612H20.0275V26.3164H18.5011Z" fill="black"/>
<path d="M19.7773 26.3164V24.7612H21.1508V26.3164H19.7773Z" fill="black"/>
<path d="M20.9006 26.3164V24.7612H22.427V26.3164H20.9006Z" fill="black"/>
<path d="M22.1003 26.3164V24.7612H22.7109V26.3164H22.1003Z" fill="black"/>
<path d="M22.5365 26.3164V24.7612H23.6047V26.3164H22.5365Z" fill="black"/>
<path d="M23.5846 26.3164V24.7612H24.9581V26.3164H23.5846Z" fill="black"/>
<path d="M24.7844 26.3164V24.7612H25.395V26.3164H24.7844Z" fill="black"/>
<path d="M25.2206 26.3164V24.7612H26.2887V26.3164H25.2206Z" fill="black"/>
<path d="M25.9627 26.3164V24.7612H27.4892V26.3164H25.9627Z" fill="black"/>
<path d="M27.3154 26.3164V24.7612H28.8419V26.3164H27.3154Z" fill="black"/>
<path d="M28.5152 26.3164V24.7612H29.1258V26.3164H28.5152Z" fill="black"/>
<path d="M7 29.3164V27.7612H8.37348V29.3164H7Z" fill="black"/>
<path d="M8.16218 29.3164V27.7612H9.68864V29.3164H8.16218Z" fill="black"/>
<path d="M9.43842 29.3164V27.7612H11.4232V29.3164H9.43842Z" fill="black"/>
<path d="M11.3253 29.3164V27.7612H12.8517V29.3164H11.3253Z" fill="black"/>
<path d="M12.525 29.3164V27.7612H13.1356V29.3164H12.525Z" fill="black"/>
<path d="M12.9612 29.3164V27.7612H15.0982V29.3164H12.9612Z" fill="black"/>
<path d="M14.7715 29.3164V27.7612H16.298V29.3164H14.7715Z" fill="black"/>
<path d="M16.1243 29.3164V27.7612H17.4977V29.3164H16.1243Z" fill="black"/>
<path d="M17.2475 29.3164V27.7612H17.8581V29.3164H17.2475Z" fill="black"/>
<path d="M17.6837 29.3164V27.7612H18.7519V29.3164H17.6837Z" fill="black"/>
<path d="M18.4259 29.3164V27.7612H19.9523V29.3164H18.4259Z" fill="black"/>
<path d="M19.7786 29.3164V27.7612H21.3051V29.3164H19.7786Z" fill="black"/>
<path d="M21.0548 29.3164V27.7612H22.123V29.3164H21.0548Z" fill="black"/>
<path d="M21.797 29.3164V27.7612H22.4076V29.3164H21.797Z" fill="black"/>
<path d="M22.2332 29.3164V27.7612H23.3014V29.3164H22.2332Z" fill="black"/>
<path d="M22.9753 29.3164V27.7612H24.5018V29.3164H22.9753Z" fill="black"/>
<path d="M24.3281 29.3164V27.7612H25.8545V29.3164H24.3281Z" fill="black"/>
<path d="M25.5278 29.3164V27.7612H26.1384V29.3164H25.5278Z" fill="black"/>
<path d="M7 32.3164V30.7612H8.52646V32.3164H7Z" fill="black"/>
<path d="M8.27624 32.3164V30.7612H9.64973V32.3164H8.27624Z" fill="black"/>
<path d="M9.34314 32.3164V30.7612H11.3279V32.3164H9.34314Z" fill="black"/>
<path d="M11.23 32.3164V30.7612H12.2982V32.3164H11.23Z" fill="black"/>
<path d="M12.1251 32.3164V30.7612H13.4986V32.3164H12.1251Z" fill="black"/>
<path d="M13.2873 32.3164V30.7612H14.3555V32.3164H13.2873Z" fill="black"/>
<path d="M14.0294 32.3164V30.7612H15.0976V32.3164H14.0294Z" fill="black"/>
<path d="M14.9246 32.3164V30.7612H16.298V32.3164H14.9246Z" fill="black"/>
<path d="M16.0478 32.3164V30.7612H17.5743V32.3164H16.0478Z" fill="black"/>
<path d="M17.2476 32.3164V30.7612H17.8582V32.3164H17.2476Z" fill="black"/>
<path d="M17.6838 32.3164V30.7612H18.752V32.3164H17.6838Z" fill="black"/>
<path d="M18.4259 32.3164V30.7612H19.9524V32.3164H18.4259Z" fill="black"/>
<path d="M19.7022 32.3164V30.7612H20.7703V32.3164H19.7022Z" fill="black"/>
<path d="M20.5973 32.3164V30.7612H22.1238V32.3164H20.5973Z" fill="black"/>
<path d="M21.9125 32.3164V30.7612H23.2859V32.3164H21.9125Z" fill="black"/>
<path d="M23.0746 32.3164V30.7612H23.6852V32.3164H23.0746Z" fill="black"/>
<path d="M23.6638 32.3164V30.7612H25.0373V32.3164H23.6638Z" fill="black"/>
<path d="M24.7871 32.3164V30.7612H26.1605V32.3164H24.7871Z" fill="black"/>
<path d="M26.0069 32.3164V30.7612H27.2274V32.3164H26.0069Z" fill="black"/>
<path d="M27.0537 32.3164V30.7612H28.4272V32.3164H27.0537Z" fill="black"/>
<path d="M28.33 32.3164V30.7612H29.3981V32.3164H28.33Z" fill="black"/>
<path d="M29.2251 32.3164V30.7612H30.7516V32.3164H29.2251Z" fill="black"/>
<path d="M30.5013 32.3164V30.7612H32.0278V32.3164H30.5013Z" fill="black"/>
<path d="M31.7011 32.3164V30.7612H33.2275V32.3164H31.7011Z" fill="black"/>
<path d="M32.9773 32.3164V30.7612H33.5879V32.3164H32.9773Z" fill="black"/>
<path d="M7 35.3164V33.7612H8.06819V35.3164H7Z" fill="black"/>
<path d="M7.74215 35.3164V33.7612H9.26861V35.3164H7.74215Z" fill="black"/>
<path d="M9.09488 35.3164V33.7612H10.6213V35.3164H9.09488Z" fill="black"/>
<path d="M10.3711 35.3164V33.7612H11.4393V35.3164H10.3711Z" fill="black"/>
<path d="M11.1133 35.3164V33.7612H11.7239V35.3164H11.1133Z" fill="black"/>
<path d="M11.5495 35.3164V33.7612H12.7706V35.3164H11.5495Z" fill="black"/>
<path d="M12.4446 35.3164V33.7612H13.8181V35.3164H12.4446Z" fill="black"/>
<path d="M13.4739 35.3164V33.7612H15.0004V35.3164H13.4739Z" fill="black"/>
<path d="M14.7502 35.3164V33.7612H16.7349V35.3164H14.7502Z" fill="black"/>
<path d="M16.637 35.3164V33.7612H18.1635V35.3164H16.637Z" fill="black"/>
<path d="M17.8367 35.3164V33.7612H19.9738V35.3164H17.8367Z" fill="black"/>
<path d="M19.8766 35.3164V33.7612H21.0971V35.3164H19.8766Z" fill="black"/>
<path d="M20.9233 35.3164V33.7612H22.2968V35.3164H20.9233Z" fill="black"/>
<path d="M21.9902 35.3164V33.7612H23.5167V35.3164H21.9902Z" fill="black"/>
<path d="M23.3054 35.3164V33.7612H23.916V35.3164H23.3054Z" fill="black"/>
<path d="M23.7416 35.3164V33.7612H24.9627V35.3164H23.7416Z" fill="black"/>
<path d="M24.7883 35.3164V33.7612H26.4678V35.3164H24.7883Z" fill="black"/>
<path d="M26.2941 35.3164V33.7612H26.9046V35.3164H26.2941Z" fill="black"/>
<path d="M26.8832 35.3164V33.7612H28.2567V35.3164H26.8832Z" fill="black"/>
<path d="M28.0065 35.3164V33.7612H29.533V35.3164H28.0065Z" fill="black"/>
<path d="M29.2062 35.3164V33.7612H30.7327V35.3164H29.2062Z" fill="black"/>
<path d="M30.4825 35.3164V33.7612H31.856V35.3164H30.4825Z" fill="black"/>
<path d="M31.5494 35.3164V33.7612H32.9229V35.3164H31.5494Z" fill="black"/>
<path d="M32.7116 35.3164V33.7612H33.3222V35.3164H32.7116Z" fill="black"/>
<path d="M7 38.3164V36.7612H8.52646V38.3164H7Z" fill="black"/>
<path d="M8.27624 38.3164V36.7612H9.80271V38.3164H8.27624Z" fill="black"/>
<path d="M9.78196 38.3164V36.7612H11.0025V38.3164H9.78196Z" fill="black"/>
<path d="M10.8287 38.3164V36.7612H11.5916V38.3164H10.8287Z" fill="black"/>
<path d="M11.3414 38.3164V36.7612H11.952V38.3164H11.3414Z" fill="black"/>
<path d="M11.7776 38.3164V36.7612H13.457V38.3164H11.7776Z" fill="black"/>
<path d="M13.3598 38.3164V36.7612H14.7333V38.3164H13.3598Z" fill="black"/>
<path d="M14.5596 38.3164V36.7612H16.086V38.3164H14.5596Z" fill="black"/>
<path d="M15.8358 38.3164V36.7612H16.4464V38.3164H15.8358Z" fill="black"/>
<path d="M16.272 38.3164V36.7612H17.3402V38.3164H16.272Z" fill="black"/>
<path d="M17.1671 38.3164V36.7612H18.3883V38.3164H17.1671Z" fill="black"/>
<path d="M18.0622 38.3164V36.7612H18.6728V38.3164H18.0622Z" fill="black"/>
<path d="M18.4984 38.3164V36.7612H19.5666V38.3164H18.4984Z" fill="black"/>
<path d="M19.2406 38.3164V36.7612H20.767V38.3164H19.2406Z" fill="black"/>
<path d="M20.5933 38.3164V36.7612H22.1198V38.3164H20.5933Z" fill="black"/>
<path d="M21.7931 38.3164V36.7612H22.4037V38.3164H21.7931Z" fill="black"/>
<path d="M22.2293 38.3164V36.7612H23.9087V38.3164H22.2293Z" fill="black"/>
<path d="M23.7725 38.3164V36.7612H25.146V38.3164H23.7725Z" fill="black"/>
<path d="M24.9723 38.3164V36.7612H26.0405V38.3164H24.9723Z" fill="black"/>
<path d="M25.8674 38.3164V36.7612H26.9356V38.3164H25.8674Z" fill="black"/>
<path d="M26.6096 38.3164V36.7612H28.136V38.3164H26.6096Z" fill="black"/>
<path d="M27.8093 38.3164V36.7612H29.3358V38.3164H27.8093Z" fill="black"/>
<path d="M29.0856 38.3164V36.7612H29.6962V38.3164H29.0856Z" fill="black"/>
<path d="M7 41.3164V39.7612H8.37348V41.3164H7Z" fill="black"/>
<path d="M8.27624 41.3164V39.7612H9.34443V41.3164H8.27624Z" fill="black"/>
<path d="M9.01839 41.3164V39.7612H10.5449V41.3164H9.01839Z" fill="black"/>
<path d="M10.2946 41.3164V39.7612H11.3628V41.3164H10.2946Z" fill="black"/>
<path d="M11.0368 41.3164V39.7612H12.5633V41.3164H11.0368Z" fill="black"/>
<path d="M12.2365 41.3164V39.7612H13.61V41.3164H12.2365Z" fill="black"/>
<path d="M13.3987 41.3164V39.7612H14.0093V41.3164H13.3987Z" fill="black"/>
<path d="M13.8349 41.3164V39.7612H15.2084V41.3164H13.8349Z" fill="black"/>
<path d="M14.9582 41.3164V39.7612H16.4846V41.3164H14.9582Z" fill="black"/>
<path d="M16.3874 41.3164V39.7612H17.7609V41.3164H16.3874Z" fill="black"/>
<path d="M17.5871 41.3164V39.7612H18.1977V41.3164H17.5871Z" fill="black"/>
<path d="M18.1763 41.3164V39.7612H19.5498V41.3164H18.1763Z" fill="black"/>
<path d="M19.2996 41.3164V39.7612H20.3678V41.3164H19.2996Z" fill="black"/>
<path d="M20.1947 41.3164V39.7612H21.7212V41.3164H20.1947Z" fill="black"/>
<path d="M21.5474 41.3164V39.7612H22.9209V41.3164H21.5474Z" fill="black"/>
<path d="M22.6707 41.3164V39.7612H23.2813V41.3164H22.6707Z" fill="black"/>
<path d="M23.1069 41.3164V39.7612H24.6334V41.3164H23.1069Z" fill="black"/>
<path d="M24.3831 41.3164V39.7612H24.9937V41.3164H24.3831Z" fill="black"/>
<path d="M24.9723 41.3164V39.7612H26.3458V41.3164H24.9723Z" fill="black"/>
<path d="M26.2485 41.3164V39.7612H27.469V41.3164H26.2485Z" fill="black"/>
<path d="M27.2953 41.3164V39.7612H28.6688V41.3164H27.2953Z" fill="black"/>
<path d="M28.4575 41.3164V39.7612H29.5257V41.3164H28.4575Z" fill="black"/>
<path d="M29.3526 41.3164V39.7612H30.4208V41.3164H29.3526Z" fill="black"/>
<path d="M30.0948 41.3164V39.7612H31.163V41.3164H30.0948Z" fill="black"/>
<path d="M30.9134 41.3164V39.7612H32.2869V41.3164H30.9134Z" fill="black"/>
<path d="M32.1897 41.3164V39.7612H33.7161V41.3164H32.1897Z" fill="black"/>
<path d="M33.3894 41.3164V39.7612H34V41.3164H33.3894Z" fill="black"/>
<path d="M7 44.3164V42.7612H8.37348V44.3164H7Z" fill="black"/>
<path d="M8.21988 44.3164V42.7612H9.44038V44.3164H8.21988Z" fill="black"/>
<path d="M9.26665 44.3164V42.7612H10.3348V44.3164H9.26665Z" fill="black"/>
<path d="M10.1618 44.3164V42.7612H11.6882V44.3164H10.1618Z" fill="black"/>
<path d="M11.3615 44.3164V42.7612H11.9721V44.3164H11.3615Z" fill="black"/>
<path d="M11.7977 44.3164V42.7612H12.8659V44.3164H11.7977Z" fill="black"/>
<path d="M12.8458 44.3164V42.7612H14.2193V44.3164H12.8458Z" fill="black"/>
<path d="M14.0456 44.3164V42.7612H14.6562V44.3164H14.0456Z" fill="black"/>
<path d="M14.4818 44.3164V42.7612H15.55V44.3164H14.4818Z" fill="black"/>
<path d="M15.2239 44.3164V42.7612H16.7504V44.3164H15.2239Z" fill="black"/>
<path d="M16.5767 44.3164V42.7612H18.1031V44.3164H16.5767Z" fill="black"/>
<path d="M17.8529 44.3164V42.7612H18.9211V44.3164H17.8529Z" fill="black"/>
<path d="M18.5951 44.3164V42.7612H19.358V44.3164H18.5951Z" fill="black"/>
<path d="M19.1077 44.3164V42.7612H19.7183V44.3164H19.1077Z" fill="black"/>
<path d="M19.5439 44.3164V42.7612H21.681V44.3164H19.5439Z" fill="black"/>
<path d="M21.4307 44.3164V42.7612H22.9572V44.3164H21.4307Z" fill="black"/>
<path d="M22.6305 44.3164V42.7612H23.2411V44.3164H22.6305Z" fill="black"/>
<path d="M23.0667 44.3164V42.7612H25.2037V44.3164H23.0667Z" fill="black"/>
<path d="M24.877 44.3164V42.7612H26.4035V44.3164H24.877Z" fill="black"/>
<path d="M26.3062 44.3164V42.7612H27.6797V44.3164H26.3062Z" fill="black"/>
<path d="M27.506 44.3164V42.7612H28.5742V44.3164H27.506Z" fill="black"/>
<path d="M28.2482 44.3164V42.7612H28.8587V44.3164H28.2482Z" fill="black"/>
<path d="M28.6843 44.3164V42.7612H29.7525V44.3164H28.6843Z" fill="black"/>
<path d="M29.5795 44.3164V42.7612H30.8V44.3164H29.5795Z" fill="black"/>
<path d="M30.6262 44.3164V42.7612H31.3891V44.3164H30.6262Z" fill="black"/>
<path d="M31.1389 44.3164V42.7612H31.9018V44.3164H31.1389Z" fill="black"/>
</g>
<rect width="12" height="14" transform="translate(26 18.7612)" fill="white"/>
<path d="M31.6787 22.6226C32.5999 22.6226 33.2721 22.8211 33.6953 23.2183C34.1185 23.6121 34.3301 24.1558 34.3301 24.8491C34.3301 25.1616 34.2829 25.4611 34.1885 25.7476C34.0941 26.0308 33.9395 26.283 33.7246 26.5044C33.513 26.7257 33.2298 26.9015 32.875 27.0317C32.5202 27.1587 32.0824 27.2222 31.5615 27.2222H30.9121V29.7612H29.3984V22.6226H31.6787ZM31.6006 23.8628H30.9121V25.9819H31.4102C31.6934 25.9819 31.9391 25.9445 32.1475 25.8696C32.3558 25.7948 32.5169 25.6776 32.6309 25.5181C32.7448 25.3586 32.8018 25.1535 32.8018 24.9028C32.8018 24.5513 32.7041 24.2909 32.5088 24.1216C32.3135 23.9491 32.0107 23.8628 31.6006 23.8628Z" fill="#585858"/>
</g>
<rect x="1" y="0.76123" width="39" height="35" stroke="#364B60"/>
<path d="M12.3333 38.7612H3V45.1093H12.3333V38.7612Z" fill="#E1C278"/>
<defs>
<filter id="filter0_i_238_43683" x="3" y="-2.23877" width="35" height="34" filterUnits="userSpaceOnUse" color-interpolation-filters="sRGB">
<feFlood flood-opacity="0" result="BackgroundImageFix"/>
<feBlend mode="normal" in="SourceGraphic" in2="BackgroundImageFix" result="shape"/>
<feColorMatrix in="SourceAlpha" type="matrix" values="0 0 0 0 0 0 0 0 0 0 0 0 0 0 0 0 0 0 127 0" result="hardAlpha"/>
<feOffset dy="-5"/>
<feGaussianBlur stdDeviation="3.5"/>
<feComposite in2="hardAlpha" operator="arithmetic" k2="-1" k3="1"/>
<feColorMatrix type="matrix" values="0 0 0 0 1 0 0 0 0 1 0 0 0 0 1 0 0 0 1 0"/>
<feBlend mode="normal" in2="shape" result="effect1_innerShadow_238_43683"/>
</filter>
<clipPath id="clip0_238_43683">
<rect width="35" height="31" fill="white" transform="translate(3 2.76123)"/>
</clipPath>
<clipPath id="clip1_238_43683">
<rect width="35" height="29" fill="white" transform="translate(3 2.76123)"/>
</clipPath>
</defs>
</svg>
