<svg width="39" height="47" viewBox="0 0 39 47" fill="none" xmlns="http://www.w3.org/2000/svg">
<g clip-path="url(#clip0_238_43705)">
<g clip-path="url(#clip1_238_43705)">
<rect width="35" height="31" transform="translate(2 2.56787)" fill="#364B60"/>
<g opacity="0.5" clip-path="url(#clip2_238_43705)" filter="url(#filter0_i_238_43705)">
<rect width="35" height="29" transform="translate(2 2.56787)" fill="#364B60"/>
<path d="M6 8.12305V6.56787H6.76187V8.12305H6Z" fill="white"/>
<path d="M6.58838 8.12305V6.56787H8.26557V8.12305H6.58838Z" fill="white"/>
<path d="M8.20598 8.12305V6.56787H9.42485V8.12305H8.20598Z" fill="white"/>
<path d="M9.25135 8.12305V6.56787H10.623V8.12305H9.25135Z" fill="white"/>
<path d="M10.412 8.12305V6.56787H11.4787V8.12305H10.412Z" fill="white"/>
<path d="M11.1531 8.12305V6.56787H12.2199V8.12305H11.1531Z" fill="white"/>
<path d="M12.0471 8.12305V6.56787H13.1138V8.12305H12.0471Z" fill="white"/>
<path d="M12.941 8.12305V6.56787H14.0077V8.12305H12.941Z" fill="white"/>
<path d="M13.8349 8.12305V6.56787H14.9017V8.12305H13.8349Z" fill="white"/>
<path d="M14.7288 8.12305V6.56787H16.1005V8.12305H14.7288Z" fill="white"/>
<path d="M15.8506 8.12305V6.56787H16.4604V8.12305H15.8506Z" fill="white"/>
<path d="M16.439 8.12305V6.56787H17.8106V8.12305H16.439Z" fill="white"/>
<path d="M17.4843 8.12305V6.56787H19.0088V8.12305H17.4843Z" fill="white"/>
<path d="M18.6825 8.12305V6.56787H19.7492V8.12305H18.6825Z" fill="white"/>
<path d="M19.4236 8.12305V6.56787H21.5578V8.12305H19.4236Z" fill="white"/>
<path d="M21.3079 8.12305V6.56787H22.8323V8.12305H21.3079Z" fill="white"/>
<path d="M22.5061 8.12305V6.56787H24.0305V8.12305H22.5061Z" fill="white"/>
<path d="M23.857 8.12305V6.56787H25.2286V8.12305H23.857Z" fill="white"/>
<path d="M25.0551 8.12305V6.56787H25.6649V8.12305H25.0551Z" fill="white"/>
<path d="M25.6435 8.12305V6.56787H26.8624V8.12305H25.6435Z" fill="white"/>
<path d="M26.6889 8.12305V6.56787H28.2133V8.12305H26.6889Z" fill="white"/>
<path d="M28.0398 8.12305V6.56787H29.4114V8.12305H28.0398Z" fill="white"/>
<path d="M29.1053 8.12305V6.56787H29.715V8.12305H29.1053Z" fill="white"/>
<path d="M6 11.123V9.56787H7.06675V11.123H6Z" fill="white"/>
<path d="M6.74115 11.123V9.56787H8.87533V11.123H6.74115Z" fill="white"/>
<path d="M8.77823 11.123V9.56787H9.99709V11.123H8.77823Z" fill="white"/>
<path d="M9.82359 11.123V9.56787H10.4334V11.123H9.82359Z" fill="white"/>
<path d="M10.412 11.123V9.56787H11.7836V11.123H10.412Z" fill="white"/>
<path d="M11.6101 11.123V9.56787H13.1345V11.123H11.6101Z" fill="white"/>
<path d="M12.8846 11.123V9.56787H13.9514V11.123H12.8846Z" fill="white"/>
<path d="M13.6258 11.123V9.56787H14.6926V11.123H13.6258Z" fill="white"/>
<path d="M14.6725 11.123V9.56787H15.8914V11.123H14.6725Z" fill="white"/>
<path d="M15.8706 11.123V9.56787H17.2423V11.123H15.8706Z" fill="white"/>
<path d="M17.0688 11.123V9.56787H18.4404V11.123H17.0688Z" fill="white"/>
<path d="M18.2294 11.123V9.56787H18.8392V11.123H18.2294Z" fill="white"/>
<path d="M18.665 11.123V9.56787H19.7318V11.123H18.665Z" fill="white"/>
<path d="M19.5589 11.123V9.56787H20.9306V11.123H19.5589Z" fill="white"/>
<path d="M20.7196 11.123V9.56787H21.3293V11.123H20.7196Z" fill="white"/>
<path d="M21.3079 11.123V9.56787H22.6796V11.123H21.3079Z" fill="white"/>
<path d="M22.6589 11.123V9.56787H23.8777V11.123H22.6589Z" fill="white"/>
<path d="M23.7042 11.123V9.56787H24.771V11.123H23.7042Z" fill="white"/>
<path d="M24.4454 11.123V9.56787H25.0551V11.123H24.4454Z" fill="white"/>
<path d="M6 14.123V12.5679H7.06675V14.123H6Z" fill="white"/>
<path d="M7.04671 14.123V12.5679H8.41834V14.123H7.04671Z" fill="white"/>
<path d="M8.24485 14.123V12.5679H9.76926V14.123H8.24485Z" fill="white"/>
<path d="M9.44299 14.123V12.5679H10.8146V14.123H9.44299Z" fill="white"/>
<path d="M10.7175 14.123V12.5679H11.7843V14.123H10.7175Z" fill="white"/>
<path d="M11.6115 14.123V12.5679H12.6782V14.123H11.6115Z" fill="white"/>
<path d="M12.3526 14.123V12.5679H13.877V14.123H12.3526Z" fill="white"/>
<path d="M13.7799 14.123V12.5679H15.1516V14.123H13.7799Z" fill="white"/>
<path d="M14.8253 14.123V12.5679H15.892V14.123H14.8253Z" fill="white"/>
<path d="M15.7192 14.123V12.5679H17.2436V14.123H15.7192Z" fill="white"/>
<path d="M16.9174 14.123V12.5679H17.6792V14.123H16.9174Z" fill="white"/>
<path d="M17.4293 14.123V12.5679H18.0391V14.123H17.4293Z" fill="white"/>
<path d="M18.0177 14.123V12.5679H19.3894V14.123H18.0177Z" fill="white"/>
<path d="M19.3686 14.123V12.5679H20.5875V14.123H19.3686Z" fill="white"/>
<path d="M20.414 14.123V12.5679H21.7856V14.123H20.414Z" fill="white"/>
<path d="M21.4795 14.123V12.5679H22.0892V14.123H21.4795Z" fill="white"/>
<path d="M21.9151 14.123V12.5679H23.4395V14.123H21.9151Z" fill="white"/>
<path d="M23.1896 14.123V12.5679H24.714V14.123H23.1896Z" fill="white"/>
<path d="M24.3877 14.123V12.5679H25.7594V14.123H24.3877Z" fill="white"/>
<path d="M25.5484 14.123V12.5679H26.6151V14.123H25.5484Z" fill="white"/>
<path d="M26.4423 14.123V12.5679H27.8139V14.123H26.4423Z" fill="white"/>
<path d="M27.5078 14.123V12.5679H29.0322V14.123H27.5078Z" fill="white"/>
<path d="M28.7059 14.123V12.5679H30.2303V14.123H28.7059Z" fill="white"/>
<path d="M29.9804 14.123V12.5679H30.5902V14.123H29.9804Z" fill="white"/>
<path d="M6.15278 17.123V15.5679H7.52441V17.123H6.15278Z" fill="white"/>
<path d="M7.35092 17.123V15.5679H8.72256V17.123H7.35092Z" fill="white"/>
<path d="M8.47267 17.123V15.5679H9.08244V17.123H8.47267Z" fill="white"/>
<path d="M9.06105 17.123V15.5679H10.2799V17.123H9.06105Z" fill="white"/>
<path d="M10.1064 17.123V15.5679H11.6308V17.123H10.1064Z" fill="white"/>
<path d="M11.4573 17.123V15.5679H12.829V17.123H11.4573Z" fill="white"/>
<path d="M12.5228 17.123V15.5679H13.1326V17.123H12.5228Z" fill="white"/>
<path d="M12.9584 17.123V15.5679H14.33V17.123H12.9584Z" fill="white"/>
<path d="M14.0802 17.123V15.5679H15.1469V17.123H14.0802Z" fill="white"/>
<path d="M14.9741 17.123V15.5679H16.0408V17.123H14.9741Z" fill="white"/>
<path d="M15.7152 17.123V15.5679H16.782V17.123H15.7152Z" fill="white"/>
<path d="M16.7619 17.123V15.5679H17.9808V17.123H16.7619Z" fill="white"/>
<path d="M17.7122 17.123V15.5679H19.2366V17.123H17.7122Z" fill="white"/>
<path d="M19.0631 17.123V15.5679H20.4347V17.123H19.0631Z" fill="white"/>
<path d="M20.2612 17.123V15.5679H21.6329V17.123H20.2612Z" fill="white"/>
<path d="M21.4218 17.123V15.5679H22.1837V17.123H21.4218Z" fill="white"/>
<path d="M21.9338 17.123V15.5679H22.5436V17.123H21.9338Z" fill="white"/>
<path d="M22.5222 17.123V15.5679H23.8939V17.123H22.5222Z" fill="white"/>
<path d="M23.8731 17.123V15.5679H25.092V17.123H23.8731Z" fill="white"/>
<path d="M24.9185 17.123V15.5679H26.2901V17.123H24.9185Z" fill="white"/>
<path d="M25.984 17.123V15.5679H26.5937V17.123H25.984Z" fill="white"/>
<path d="M26.4196 17.123V15.5679H27.4863V17.123H26.4196Z" fill="white"/>
<path d="M27.4663 17.123V15.5679H28.8379V17.123H27.4663Z" fill="white"/>
<path d="M28.6644 17.123V15.5679H29.2742V17.123H28.6644Z" fill="white"/>
<path d="M29.1 17.123V15.5679H30.1668V17.123H29.1Z" fill="white"/>
<path d="M29.8412 17.123V15.5679H31.3656V17.123H29.8412Z" fill="white"/>
<path d="M31.1921 17.123V15.5679H32.7165V17.123H31.1921Z" fill="white"/>
<path d="M32.3902 17.123V15.5679H33V17.123H32.3902Z" fill="white"/>
<path d="M6 20.123V18.5679H7.06675V20.123H6Z" fill="white"/>
<path d="M7.04671 20.123V18.5679H8.41834V20.123H7.04671Z" fill="white"/>
<path d="M8.24485 20.123V18.5679H9.3116V20.123H8.24485Z" fill="white"/>
<path d="M8.986 20.123V18.5679H10.5104V20.123H8.986Z" fill="white"/>
<path d="M10.1841 20.123V18.5679H11.5558V20.123H10.1841Z" fill="white"/>
<path d="M11.2496 20.123V18.5679H12.774V20.123H11.2496Z" fill="white"/>
<path d="M12.4478 20.123V18.5679H13.8194V20.123H12.4478Z" fill="white"/>
<path d="M13.6084 20.123V18.5679H14.6751V20.123H13.6084Z" fill="white"/>
<path d="M14.3495 20.123V18.5679H15.7212V20.123H14.3495Z" fill="white"/>
<path d="M15.5101 20.123V18.5679H16.1199V20.123H15.5101Z" fill="white"/>
<path d="M16.0985 20.123V18.5679H17.3174V20.123H16.0985Z" fill="white"/>
<path d="M17.1439 20.123V18.5679H18.3634V20.123H17.1439Z" fill="white"/>
<path d="M18.0378 20.123V18.5679H18.6476V20.123H18.0378Z" fill="white"/>
<path d="M18.6262 20.123V18.5679H19.8451V20.123H18.6262Z" fill="white"/>
<path d="M19.6716 20.123V18.5679H21.196V20.123H19.6716Z" fill="white"/>
<path d="M21.0225 20.123V18.5679H22.3941V20.123H21.0225Z" fill="white"/>
<path d="M22.088 20.123V18.5679H22.6977V20.123H22.088Z" fill="white"/>
<path d="M6 23.123V21.5679H7.37164V23.123H6Z" fill="white"/>
<path d="M7.27453 23.123V21.5679H8.49339V23.123H7.27453Z" fill="white"/>
<path d="M8.3199 23.123V21.5679H9.84431V23.123H8.3199Z" fill="white"/>
<path d="M9.82359 23.123V21.5679H11.1952V23.123H9.82359Z" fill="white"/>
<path d="M11.0217 23.123V21.5679H12.0885V23.123H11.0217Z" fill="white"/>
<path d="M11.7629 23.123V21.5679H13.1345V23.123H11.7629Z" fill="white"/>
<path d="M12.8284 23.123V21.5679H13.8951V23.123H12.8284Z" fill="white"/>
<path d="M13.7223 23.123V21.5679H15.2467V23.123H13.7223Z" fill="white"/>
<path d="M14.9204 23.123V21.5679H16.2921V23.123H14.9204Z" fill="white"/>
<path d="M16.4847 23.0474C16.4847 23.0129 16.493 22.9886 16.5094 22.9746C16.5259 22.9606 16.5456 22.9536 16.5684 22.9536C16.5922 22.9536 16.6124 22.9606 16.6288 22.9746C16.6462 22.9886 16.6549 23.0129 16.6549 23.0474C16.6549 23.081 16.6462 23.1053 16.6288 23.1202C16.6124 23.1352 16.5922 23.1426 16.5684 23.1426C16.5456 23.1426 16.5259 23.1352 16.5094 23.1202C16.493 23.1053 16.4847 23.081 16.4847 23.0474ZM16.8443 23.0474C16.8443 23.0129 16.8525 22.9886 16.869 22.9746C16.8855 22.9606 16.9051 22.9536 16.928 22.9536C16.9518 22.9536 16.9719 22.9606 16.9884 22.9746C17.0058 22.9886 17.0144 23.0129 17.0144 23.0474C17.0144 23.081 17.0058 23.1053 16.9884 23.1202C16.9719 23.1352 16.9518 23.1426 16.928 23.1426C16.9051 23.1426 16.8855 23.1352 16.869 23.1202C16.8525 23.1053 16.8443 23.081 16.8443 23.0474ZM17.2025 23.0474C17.2025 23.0129 17.2107 22.9886 17.2272 22.9746C17.2436 22.9606 17.2633 22.9536 17.2862 22.9536C17.31 22.9536 17.3301 22.9606 17.3465 22.9746C17.3639 22.9886 17.3726 23.0129 17.3726 23.0474C17.3726 23.081 17.3639 23.1053 17.3465 23.1202C17.3301 23.1352 17.31 23.1426 17.2862 23.1426C17.2633 23.1426 17.2436 23.1352 17.2272 23.1202C17.2107 23.1053 17.2025 23.081 17.2025 23.0474Z" fill="white"/>
<path d="M17.1117 23.123V21.5679H17.7214V23.123H17.1117Z" fill="white"/>
<path d="M17.5473 23.123V21.5679H19.0717V23.123H17.5473Z" fill="white"/>
<path d="M18.8982 23.123V21.5679H20.4226V23.123H18.8982Z" fill="white"/>
<path d="M20.2491 23.123V21.5679H21.3159V23.123H20.2491Z" fill="white"/>
<path d="M21.143 23.123V21.5679H22.5147V23.123H21.143Z" fill="white"/>
<path d="M22.3037 23.123V21.5679H22.9134V23.123H22.3037Z" fill="white"/>
<path d="M22.7393 23.123V21.5679H23.806V23.123H22.7393Z" fill="white"/>
<path d="M23.6332 23.123V21.5679H25.0048V23.123H23.6332Z" fill="white"/>
<path d="M24.7938 23.123V21.5679H25.4036V23.123H24.7938Z" fill="white"/>
<path d="M25.2294 23.123V21.5679H27.3636V23.123H25.2294Z" fill="white"/>
<path d="M27.1137 23.123V21.5679H28.6381V23.123H27.1137Z" fill="white"/>
<path d="M28.541 23.123V21.5679H29.9127V23.123H28.541Z" fill="white"/>
<path d="M29.6628 23.123V21.5679H30.2725V23.123H29.6628Z" fill="white"/>
<path d="M6 26.123V24.5679H8.13418V26.123H6Z" fill="white"/>
<path d="M7.8843 26.123V24.5679H9.40871V26.123H7.8843Z" fill="white"/>
<path d="M9.08244 26.123V24.5679H9.69221V26.123H9.08244Z" fill="white"/>
<path d="M9.51804 26.123V24.5679H11.5001V26.123H9.51804Z" fill="white"/>
<path d="M11.4023 26.123V24.5679H12.9268V26.123H11.4023Z" fill="white"/>
<path d="M12.7533 26.123V24.5679H14.1249V26.123H12.7533Z" fill="white"/>
<path d="M13.9139 26.123V24.5679H14.9806V26.123H13.9139Z" fill="white"/>
<path d="M14.655 26.123V24.5679H15.2648V26.123H14.655Z" fill="white"/>
<path d="M15.0906 26.123V24.5679H16.4623V26.123H15.0906Z" fill="white"/>
<path d="M16.2512 26.123V24.5679H17.7757V26.123H16.2512Z" fill="white"/>
<path d="M17.4494 26.123V24.5679H18.5161V26.123H17.4494Z" fill="white"/>
<path d="M18.4961 26.123V24.5679H19.715V26.123H18.4961Z" fill="white"/>
<path d="M19.4463 26.123V24.5679H20.9707V26.123H19.4463Z" fill="white"/>
<path d="M20.6445 26.123V24.5679H21.2542V26.123H20.6445Z" fill="white"/>
<path d="M21.0801 26.123V24.5679H22.1468V26.123H21.0801Z" fill="white"/>
<path d="M21.8212 26.123V24.5679H23.3456V26.123H21.8212Z" fill="white"/>
<path d="M23.1721 26.123V24.5679H24.6965V26.123H23.1721Z" fill="white"/>
<path d="M24.3703 26.123V24.5679H24.98V26.123H24.3703Z" fill="white"/>
<path d="M6.15278 29.123V27.5679H7.37164V29.123H6.15278Z" fill="white"/>
<path d="M7.35092 29.123V27.5679H8.72256V29.123H7.35092Z" fill="white"/>
<path d="M8.62545 29.123V27.5679H9.99709V29.123H8.62545Z" fill="white"/>
<path d="M9.89998 29.123V27.5679H11.1188V29.123H9.89998Z" fill="white"/>
<path d="M10.9453 29.123V27.5679H12.317V29.123H10.9453Z" fill="white"/>
<path d="M12.0108 29.123V27.5679H13.0776V29.123H12.0108Z" fill="white"/>
<path d="M12.752 29.123V27.5679H14.2764V29.123H12.752Z" fill="white"/>
<path d="M14.2557 29.123V27.5679H15.6273V29.123H14.2557Z" fill="white"/>
<path d="M15.4538 29.123V27.5679H16.5206V29.123H15.4538Z" fill="white"/>
<path d="M16.3477 29.123V27.5679H17.4145V29.123H16.3477Z" fill="white"/>
<path d="M17.2417 29.123V27.5679H18.6133V29.123H17.2417Z" fill="white"/>
<path d="M18.3634 29.123V27.5679H18.9732V29.123H18.3634Z" fill="white"/>
<path d="M18.799 29.123V27.5679H19.8658V29.123H18.799Z" fill="white"/>
<path d="M19.693 29.123V27.5679H20.9118V29.123H19.693Z" fill="white"/>
<path d="M20.7383 29.123V27.5679H21.3481V29.123H20.7383Z" fill="white"/>
<path d="M21.1739 29.123V27.5679H22.2407V29.123H21.1739Z" fill="white"/>
<path d="M21.9151 29.123V27.5679H23.4395V29.123H21.9151Z" fill="white"/>
<path d="M23.1896 29.123V27.5679H24.714V29.123H23.1896Z" fill="white"/>
<path d="M24.503 29.123V27.5679H26.0274V29.123H24.503Z" fill="white"/>
<path d="M25.7011 29.123V27.5679H26.3109V29.123H25.7011Z" fill="white"/>
<path d="M26.1367 29.123V27.5679H27.2035V29.123H26.1367Z" fill="white"/>
<path d="M26.8779 29.123V27.5679H28.4023V29.123H26.8779Z" fill="white"/>
<path d="M28.2288 29.123V27.5679H29.7532V29.123H28.2288Z" fill="white"/>
<path d="M29.427 29.123V27.5679H30.0367V29.123H29.427Z" fill="white"/>
<path d="M6 32.123V30.5679H7.37164V32.123H6Z" fill="white"/>
<path d="M7.27453 32.123V30.5679H8.49339V32.123H7.27453Z" fill="white"/>
<path d="M8.47267 32.123V30.5679H9.84431V32.123H8.47267Z" fill="white"/>
<path d="M9.67082 32.123V30.5679H11.0425V32.123H9.67082Z" fill="white"/>
<path d="M10.7926 32.123V30.5679H12.1642V32.123H10.7926Z" fill="white"/>
<path d="M11.858 32.123V30.5679H13.3825V32.123H11.858Z" fill="white"/>
<path d="M13.0562 32.123V30.5679H14.1229V32.123H13.0562Z" fill="white"/>
<path d="M13.7973 32.123V30.5679H15.3218V32.123H13.7973Z" fill="white"/>
<path d="M14.9955 32.123V30.5679H15.6052V32.123H14.9955Z" fill="white"/>
<path d="M15.4311 32.123V30.5679H16.8027V32.123H15.4311Z" fill="white"/>
<path d="M16.5917 32.123V30.5679H17.6585V32.123H16.5917Z" fill="white"/>
<path d="M17.3329 32.123V30.5679H18.8573V32.123H17.3329Z" fill="white"/>
<path d="M18.6838 32.123V30.5679H20.0554V32.123H18.6838Z" fill="white"/>
<path d="M19.8055 32.123V30.5679H21.1772V32.123H19.8055Z" fill="white"/>
<path d="M20.9661 32.123V30.5679H21.5759V32.123H20.9661Z" fill="white"/>
<path d="M21.4017 32.123V30.5679H22.7734V32.123H21.4017Z" fill="white"/>
<path d="M22.4672 32.123V30.5679H23.9916V32.123H22.4672Z" fill="white"/>
<path d="M23.6654 32.123V30.5679H25.1898V32.123H23.6654Z" fill="white"/>
<path d="M25.0163 32.123V30.5679H26.5407V32.123H25.0163Z" fill="white"/>
<path d="M26.3672 32.123V30.5679H27.434V32.123H26.3672Z" fill="white"/>
<path d="M27.2611 32.123V30.5679H28.6328V32.123H27.2611Z" fill="white"/>
<path d="M28.3266 32.123V30.5679H29.851V32.123H28.3266Z" fill="white"/>
<path d="M29.5247 32.123V30.5679H31.0492V32.123H29.5247Z" fill="white"/>
<path d="M30.7993 32.123V30.5679H31.409V32.123H30.7993Z" fill="white"/>
<path d="M6 35.123V33.5679H7.06675V35.123H6Z" fill="white"/>
<path d="M6.89393 35.123V33.5679H8.11279V35.123H6.89393Z" fill="white"/>
<path d="M7.9393 35.123V33.5679H8.54906V35.123H7.9393Z" fill="white"/>
<path d="M8.52767 35.123V33.5679H9.74653V35.123H8.52767Z" fill="white"/>
<path d="M9.72582 35.123V33.5679H11.0975V35.123H9.72582Z" fill="white"/>
<path d="M10.8476 35.123V33.5679H12.372V35.123H10.8476Z" fill="white"/>
<path d="M12.1985 35.123V33.5679H13.5701V35.123H12.1985Z" fill="white"/>
<path d="M13.3966 35.123V33.5679H14.0064V35.123H13.3966Z" fill="white"/>
<path d="M13.8322 35.123V33.5679H15.3566V35.123H13.8322Z" fill="white"/>
<path d="M15.1068 35.123V33.5679H15.7165V35.123H15.1068Z" fill="white"/>
<path d="M15.6951 35.123V33.5679H17.0668V35.123H15.6951Z" fill="white"/>
<path d="M16.8933 35.123V33.5679H18.4177V35.123H16.8933Z" fill="white"/>
<path d="M18.0914 35.123V33.5679H20.2256V35.123H18.0914Z" fill="white"/>
<path d="M19.9757 35.123V33.5679H20.5855V35.123H19.9757Z" fill="white"/>
<path d="M20.4113 35.123V33.5679H21.9357V35.123H20.4113Z" fill="white"/>
<path d="M21.8386 35.123V33.5679H23.2103V35.123H21.8386Z" fill="white"/>
<path d="M23.0368 35.123V33.5679H24.5612V35.123H23.0368Z" fill="white"/>
<path d="M24.3113 35.123V33.5679H24.9211V35.123H24.3113Z" fill="white"/>
<path d="M24.7469 35.123V33.5679H26.729V35.123H24.7469Z" fill="white"/>
<path d="M26.784 35.123V33.5679H28.0028V35.123H26.784Z" fill="white"/>
<path d="M27.8293 35.123V33.5679H29.201V35.123H27.8293Z" fill="white"/>
<path d="M28.8948 35.123V33.5679H30.4192V35.123H28.8948Z" fill="white"/>
<path d="M30.093 35.123V33.5679H30.7027V35.123H30.093Z" fill="white"/>
<path d="M6 38.123V36.5679H7.52441V38.123H6Z" fill="white"/>
<path d="M7.5037 38.123V36.5679H8.72256V38.123H7.5037Z" fill="white"/>
<path d="M8.70184 38.123V36.5679H10.0735V38.123H8.70184Z" fill="white"/>
<path d="M9.82359 38.123V36.5679H11.348V38.123H9.82359Z" fill="white"/>
<path d="M11.0217 38.123V36.5679H12.2413V38.123H11.0217Z" fill="white"/>
<path d="M11.9157 38.123V36.5679H13.4401V38.123H11.9157Z" fill="white"/>
<path d="M13.2666 38.123V36.5679H14.3333V38.123H13.2666Z" fill="white"/>
<path d="M14.1605 38.123V36.5679H14.7703V38.123H14.1605Z" fill="white"/>
<path d="M14.5961 38.123V36.5679H15.9678V38.123H14.5961Z" fill="white"/>
<path d="M15.7179 38.123V36.5679H17.2423V38.123H15.7179Z" fill="white"/>
<path d="M17.0688 38.123V36.5679H18.5932V38.123H17.0688Z" fill="white"/>
<path d="M18.4961 38.123V36.5679H19.8677V38.123H18.4961Z" fill="white"/>
<path d="M19.6179 38.123V36.5679H20.6846V38.123H19.6179Z" fill="white"/>
<path d="M20.359 38.123V36.5679H21.8834V38.123H20.359Z" fill="white"/>
<path d="M21.5571 38.123V36.5679H22.9288V38.123H21.5571Z" fill="white"/>
<path d="M22.6226 38.123V36.5679H23.2324V38.123H22.6226Z" fill="white"/>
<path d="M23.0582 38.123V36.5679H24.125V38.123H23.0582Z" fill="white"/>
<path d="M24.1049 38.123V36.5679H25.4766V38.123H24.1049Z" fill="white"/>
<path d="M25.3031 38.123V36.5679H25.9128V38.123H25.3031Z" fill="white"/>
<path d="M25.8914 38.123V36.5679H27.1103V38.123H25.8914Z" fill="white"/>
<path d="M26.9368 38.123V36.5679H28.4612V38.123H26.9368Z" fill="white"/>
<path d="M28.2877 38.123V36.5679H29.6594V38.123H28.2877Z" fill="white"/>
<path d="M29.3532 38.123V36.5679H29.963V38.123H29.3532Z" fill="white"/>
<path d="M6 41.123V39.5679H7.37164V41.123H6Z" fill="white"/>
<path d="M7.06547 41.123V39.5679H8.58988V41.123H7.06547Z" fill="white"/>
<path d="M8.26361 41.123V39.5679H9.33037V41.123H8.26361Z" fill="white"/>
<path d="M9.15754 41.123V39.5679H10.682V41.123H9.15754Z" fill="white"/>
<path d="M10.4321 41.123V39.5679H11.4988V41.123H10.4321Z" fill="white"/>
<path d="M11.1732 41.123V39.5679H12.24V41.123H11.1732Z" fill="white"/>
<path d="M12.2199 41.123V39.5679H13.4388V41.123H12.2199Z" fill="white"/>
<path d="M13.4181 41.123V39.5679H14.7897V41.123H13.4181Z" fill="white"/>
<path d="M14.6162 41.123V39.5679H15.9879V41.123H14.6162Z" fill="white"/>
<path d="M15.7768 41.123V39.5679H16.5387V41.123H15.7768Z" fill="white"/>
<path d="M16.2888 41.123V39.5679H17.0507V41.123H16.2888Z" fill="white"/>
<path d="M16.8772 41.123V39.5679H17.6391V41.123H16.8772Z" fill="white"/>
</g>
<rect width="12" height="14" transform="translate(25 18.5679)" fill="#364B60"/>
<path d="M31.4307 23.5864C31.141 23.5864 30.8838 23.6434 30.6592 23.7573C30.4378 23.868 30.2507 24.0291 30.0977 24.2407C29.9479 24.4523 29.834 24.7078 29.7559 25.0073C29.6777 25.3068 29.6387 25.6437 29.6387 26.0181C29.6387 26.5226 29.7005 26.9539 29.8242 27.312C29.9512 27.6668 30.1465 27.9386 30.4102 28.1274C30.6738 28.313 31.014 28.4058 31.4307 28.4058C31.7204 28.4058 32.0101 28.3732 32.2998 28.3081C32.5928 28.243 32.9102 28.1502 33.252 28.0298V29.2993C32.9362 29.4295 32.6253 29.5223 32.3193 29.5776C32.0133 29.6362 31.6699 29.6655 31.2891 29.6655C30.5534 29.6655 29.9479 29.5142 29.4727 29.2114C29.0007 28.9054 28.6507 28.479 28.4229 27.9321C28.195 27.382 28.0811 26.7407 28.0811 26.0083C28.0811 25.4679 28.1543 24.9731 28.3008 24.5239C28.4473 24.0747 28.6621 23.6857 28.9453 23.3569C29.2285 23.0282 29.5785 22.7743 29.9951 22.5952C30.4118 22.4162 30.8903 22.3267 31.4307 22.3267C31.7855 22.3267 32.1403 22.3722 32.4951 22.4634C32.8532 22.5513 33.195 22.6733 33.5205 22.8296L33.0322 24.0601C32.7653 23.9331 32.4967 23.8224 32.2266 23.728C31.9564 23.6336 31.6911 23.5864 31.4307 23.5864Z" fill="white"/>
</g>
<path d="M11.3333 38.5679H2V44.916H11.3333V38.5679Z" fill="#E19E55"/>
</g>
<defs>
<filter id="filter0_i_238_43705" x="2" y="-2.43213" width="35" height="34" filterUnits="userSpaceOnUse" color-interpolation-filters="sRGB">
<feFlood flood-opacity="0" result="BackgroundImageFix"/>
<feBlend mode="normal" in="SourceGraphic" in2="BackgroundImageFix" result="shape"/>
<feColorMatrix in="SourceAlpha" type="matrix" values="0 0 0 0 0 0 0 0 0 0 0 0 0 0 0 0 0 0 127 0" result="hardAlpha"/>
<feOffset dy="-5"/>
<feGaussianBlur stdDeviation="3.5"/>
<feComposite in2="hardAlpha" operator="arithmetic" k2="-1" k3="1"/>
<feColorMatrix type="matrix" values="0 0 0 0 0.211765 0 0 0 0 0.294118 0 0 0 0 0.376471 0 0 0 1 0"/>
<feBlend mode="normal" in2="shape" result="effect1_innerShadow_238_43705"/>
</filter>
<clipPath id="clip0_238_43705">
<rect width="39" height="46.3481" fill="white" transform="translate(0 0.567871)"/>
</clipPath>
<clipPath id="clip1_238_43705">
<rect width="35" height="31" fill="white" transform="translate(2 2.56787)"/>
</clipPath>
<clipPath id="clip2_238_43705">
<rect width="35" height="29" fill="white" transform="translate(2 2.56787)"/>
</clipPath>
</defs>
</svg>
