<svg width="39" height="48" viewBox="0 0 39 48" fill="none" xmlns="http://www.w3.org/2000/svg">
<g clip-path="url(#clip0_238_43694)">
<g clip-path="url(#clip1_238_43694)" filter="url(#filter0_d_238_43694)">
<rect width="35" height="31" transform="translate(2 2.66455)" fill="white"/>
<g opacity="0.3" clip-path="url(#clip2_238_43694)" filter="url(#filter1_i_238_43694)">
<rect width="35" height="29" transform="translate(2 2.66455)" fill="white"/>
<path d="M6 8.21973V6.66455H6.76172V8.21973H6Z" fill="black"/>
<path d="M6.58826 8.21973V6.66455H8.11238V8.21973H6.58826Z" fill="black"/>
<path d="M7.93892 8.21973V6.66455H9.46304V8.21973H7.93892Z" fill="black"/>
<path d="M9.28958 8.21973V6.66455H10.6609V8.21973H9.28958Z" fill="black"/>
<path d="M10.3548 8.21973V6.66455H10.9645V8.21973H10.3548Z" fill="black"/>
<path d="M10.9431 8.21973V6.66455H12.3145V8.21973H10.9431Z" fill="black"/>
<path d="M12.2174 8.21973V6.66455H13.436V8.21973H12.2174Z" fill="black"/>
<path d="M13.2625 8.21973V6.66455H14.3291V8.21973H13.2625Z" fill="black"/>
<path d="M14.1563 8.21973V6.66455H15.2229V8.21973H14.1563Z" fill="black"/>
<path d="M15.0501 8.21973V6.66455H16.4214V8.21973H15.0501Z" fill="black"/>
<path d="M16.3243 8.21973V6.66455H17.6957V8.21973H16.3243Z" fill="black"/>
<path d="M17.4459 8.21973V6.66455H18.0555V8.21973H17.4459Z" fill="black"/>
<path d="M18.0341 8.21973V6.66455H19.2528V8.21973H18.0341Z" fill="black"/>
<path d="M19.0793 8.21973V6.66455H20.2986V8.21973H19.0793Z" fill="black"/>
<path d="M19.9731 8.21973V6.66455H20.5827V8.21973H19.9731Z" fill="black"/>
<path d="M20.4086 8.21973V6.66455H21.7799V8.21973H20.4086Z" fill="black"/>
<path d="M21.569 8.21973V6.66455H23.0931V8.21973H21.569Z" fill="black"/>
<path d="M22.7669 8.21973V6.66455H24.291V8.21973H22.7669Z" fill="black"/>
<path d="M23.9648 8.21973V6.66455H25.4889V8.21973H23.9648Z" fill="black"/>
<path d="M25.2779 8.21973V6.66455H26.3445V8.21973H25.2779Z" fill="black"/>
<path d="M26.3244 8.21973V6.66455H27.6958V8.21973H26.3244Z" fill="black"/>
<path d="M27.5223 8.21973V6.66455H29.0465V8.21973H27.5223Z" fill="black"/>
<path d="M28.873 8.21973V6.66455H29.4826V8.21973H28.873Z" fill="black"/>
<path d="M29.3085 8.21973V6.66455H30.3751V8.21973H29.3085Z" fill="black"/>
<path d="M30.2023 8.21973V6.66455H31.4209V8.21973H30.2023Z" fill="black"/>
<path d="M31.2474 8.21973V6.66455H31.8571V8.21973H31.2474Z" fill="black"/>
<path d="M6 11.2197V9.66455H7.52412V11.2197H6Z" fill="black"/>
<path d="M7.19791 11.2197V9.66455H8.72203V11.2197H7.19791Z" fill="black"/>
<path d="M8.47219 11.2197V9.66455H9.84356V11.2197H8.47219Z" fill="black"/>
<path d="M9.63259 11.2197V9.66455H11.1567V11.2197H9.63259Z" fill="black"/>
<path d="M10.8305 11.2197V9.66455H11.4401V11.2197H10.8305Z" fill="black"/>
<path d="M11.266 11.2197V9.66455H12.3326V11.2197H11.266Z" fill="black"/>
<path d="M12.007 11.2197V9.66455H13.5311V11.2197H12.007Z" fill="black"/>
<path d="M13.3577 11.2197V9.66455H14.729V11.2197H13.3577Z" fill="black"/>
<path d="M14.5556 11.2197V9.66455H15.927V11.2197H14.5556Z" fill="black"/>
<path d="M15.716 11.2197V9.66455H16.7825V11.2197H15.716Z" fill="black"/>
<path d="M16.7625 11.2197V9.66455H17.9811V11.2197H16.7625Z" fill="black"/>
<path d="M17.9604 11.2197V9.66455H19.3318V11.2197H17.9604Z" fill="black"/>
<path d="M19.1583 11.2197V9.66455H20.5297V11.2197H19.1583Z" fill="black"/>
<path d="M20.3187 11.2197V9.66455H21.0804V11.2197H20.3187Z" fill="black"/>
<path d="M20.8306 11.2197V9.66455H21.4402V11.2197H20.8306Z" fill="black"/>
<path d="M21.4188 11.2197V9.66455H22.7902V11.2197H21.4188Z" fill="black"/>
<path d="M22.5404 11.2197V9.66455H23.9118V11.2197H22.5404Z" fill="black"/>
<path d="M23.6056 11.2197V9.66455H25.1298V11.2197H23.6056Z" fill="black"/>
<path d="M24.8036 11.2197V9.66455H26.1749V11.2197H24.8036Z" fill="black"/>
<path d="M26.0778 11.2197V9.66455H27.602V11.2197H26.0778Z" fill="black"/>
<path d="M27.4285 11.2197V9.66455H28.7999V11.2197H27.4285Z" fill="black"/>
<path d="M28.6264 11.2197V9.66455H29.693V11.2197H28.6264Z" fill="black"/>
<path d="M29.3674 11.2197V9.66455H29.9771V11.2197H29.3674Z" fill="black"/>
<path d="M6 14.2197V12.6646H7.52412V14.2197H6Z" fill="black"/>
<path d="M7.27428 14.2197V12.6646H8.7984V14.2197H7.27428Z" fill="black"/>
<path d="M8.47219 14.2197V12.6646H9.84356V14.2197H8.47219Z" fill="black"/>
<path d="M9.63259 14.2197V12.6646H10.6991V14.2197H9.63259Z" fill="black"/>
<path d="M10.3736 14.2197V12.6646H11.8977V14.2197H10.3736Z" fill="black"/>
<path d="M11.8006 14.2197V12.6646H13.172V14.2197H11.8006Z" fill="black"/>
<path d="M12.8458 14.2197V12.6646H13.9123V14.2197H12.8458Z" fill="black"/>
<path d="M13.7395 14.2197V12.6646H14.8061V14.2197H13.7395Z" fill="black"/>
<path d="M14.6333 14.2197V12.6646H15.6998V14.2197H14.6333Z" fill="black"/>
<path d="M15.6798 14.2197V12.6646H16.8984V14.2197H15.6798Z" fill="black"/>
<path d="M16.6298 14.2197V12.6646H17.6964V14.2197H16.6298Z" fill="black"/>
<path d="M17.6763 14.2197V12.6646H19.0477V14.2197H17.6763Z" fill="black"/>
<path d="M18.8742 14.2197V12.6646H20.3984V14.2197H18.8742Z" fill="black"/>
<path d="M20.2249 14.2197V12.6646H20.8346V14.2197H20.2249Z" fill="black"/>
<path d="M6 17.2197V15.6646H7.52412V17.2197H6Z" fill="black"/>
<path d="M7.27428 17.2197V15.6646H8.7984V17.2197H7.27428Z" fill="black"/>
<path d="M8.47219 17.2197V15.6646H9.84356V17.2197H8.47219Z" fill="black"/>
<path d="M9.74648 17.2197V15.6646H11.2706V17.2197H9.74648Z" fill="black"/>
<path d="M10.9444 17.2197V15.6646H12.0109V17.2197H10.9444Z" fill="black"/>
<path d="M11.9909 17.2197V15.6646H13.2095V17.2197H11.9909Z" fill="black"/>
<path d="M13.1888 17.2197V15.6646H14.5602V17.2197H13.1888Z" fill="black"/>
<path d="M14.3103 17.2197V15.6646H16.292V17.2197H14.3103Z" fill="black"/>
<path d="M16.1943 17.2197V15.6646H17.7184V17.2197H16.1943Z" fill="black"/>
<path d="M17.5449 17.2197V15.6646H18.9163V17.2197H17.5449Z" fill="black"/>
<path d="M18.7428 17.2197V15.6646H19.8094V17.2197H18.7428Z" fill="black"/>
<path d="M19.4838 17.2197V15.6646H20.8552V17.2197H19.4838Z" fill="black"/>
<path d="M20.6442 17.2197V15.6646H21.406V17.2197H20.6442Z" fill="black"/>
<path d="M21.1561 17.2197V15.6646H21.7658V17.2197H21.1561Z" fill="black"/>
<path d="M21.5916 17.2197V15.6646H23.1158V17.2197H21.5916Z" fill="black"/>
<path d="M23.0187 17.2197V15.6646H24.39V17.2197H23.0187Z" fill="black"/>
<path d="M24.2166 17.2197V15.6646H25.7407V17.2197H24.2166Z" fill="black"/>
<path d="M25.4909 17.2197V15.6646H26.1005V17.2197H25.4909Z" fill="black"/>
<path d="M6 20.2197V18.6646H7.52412V20.2197H6Z" fill="black"/>
<path d="M7.19791 20.2197V18.6646H8.72203V20.2197H7.19791Z" fill="black"/>
<path d="M8.62494 20.2197V18.6646H9.99631V20.2197H8.62494Z" fill="black"/>
<path d="M9.74648 20.2197V18.6646H10.813V20.2197H9.74648Z" fill="black"/>
<path d="M10.793 20.2197V18.6646H12.0116V20.2197H10.793Z" fill="black"/>
<path d="M11.8381 20.2197V18.6646H13.2095V20.2197H11.8381Z" fill="black"/>
<path d="M12.9034 20.2197V18.6646H14.4275V20.2197H12.9034Z" fill="black"/>
<path d="M14.1013 20.2197V18.6646H14.711V20.2197H14.1013Z" fill="black"/>
<path d="M14.5368 20.2197V18.6646H15.6034V20.2197H14.5368Z" fill="black"/>
<path d="M15.2778 20.2197V18.6646H16.802V20.2197H15.2778Z" fill="black"/>
<path d="M16.6285 20.2197V18.6646H18.1526V20.2197H16.6285Z" fill="black"/>
<path d="M17.8264 20.2197V18.6646H18.4361V20.2197H17.8264Z" fill="black"/>
<path d="M18.4147 20.2197V18.6646H19.786V20.2197H18.4147Z" fill="black"/>
<path d="M19.689 20.2197V18.6646H20.9076V20.2197H19.689Z" fill="black"/>
<path d="M20.7341 20.2197V18.6646H22.1055V20.2197H20.7341Z" fill="black"/>
<path d="M21.8945 20.2197V18.6646H23.2659V20.2197H21.8945Z" fill="black"/>
<path d="M23.0549 20.2197V18.6646H24.1214V20.2197H23.0549Z" fill="black"/>
<path d="M24.1014 20.2197V18.6646H25.4728V20.2197H24.1014Z" fill="black"/>
<path d="M25.1466 20.2197V18.6646H26.2131V20.2197H25.1466Z" fill="black"/>
<path d="M26.0403 20.2197V18.6646H27.1069V20.2197H26.0403Z" fill="black"/>
<path d="M26.9341 20.2197V18.6646H28.0006V20.2197H26.9341Z" fill="black"/>
<path d="M27.8278 20.2197V18.6646H28.8944V20.2197H27.8278Z" fill="black"/>
<path d="M28.5688 20.2197V18.6646H29.6354V20.2197H28.5688Z" fill="black"/>
<path d="M29.4626 20.2197V18.6646H30.9867V20.2197H29.4626Z" fill="black"/>
<path d="M30.6605 20.2197V18.6646H32.0319V20.2197H30.6605Z" fill="black"/>
<path d="M31.8209 20.2197V18.6646H32.4306V20.2197H31.8209Z" fill="black"/>
<path d="M6.15275 23.2197V21.6646H7.37137V23.2197H6.15275Z" fill="black"/>
<path d="M7.19791 23.2197V21.6646H8.4172V23.2197H7.19791Z" fill="black"/>
<path d="M8.09167 23.2197V21.6646H8.70131V23.2197H8.09167Z" fill="black"/>
<path d="M8.52718 23.2197V21.6646H10.0513V23.2197H8.52718Z" fill="black"/>
<path d="M9.80147 23.2197V21.6646H10.4111V23.2197H9.80147Z" fill="black"/>
<path d="M10.237 23.2197V21.6646H11.7611V23.2197H10.237Z" fill="black"/>
<path d="M11.5113 23.2197V21.6646H12.5778V23.2197H11.5113Z" fill="black"/>
<path d="M12.405 23.2197V21.6646H13.6243V23.2197H12.405Z" fill="black"/>
<path d="M13.2988 23.2197V21.6646H14.5181V23.2197H13.2988Z" fill="black"/>
<path d="M14.1925 23.2197V21.6646H15.7167V23.2197H14.1925Z" fill="black"/>
<path d="M15.3904 23.2197V21.6646H16.7618V23.2197H15.3904Z" fill="black"/>
<path d="M16.4557 23.2197V21.6646H17.9798V23.2197H16.4557Z" fill="black"/>
<path d="M17.8064 23.2197V21.6646H19.1777V23.2197H17.8064Z" fill="black"/>
<path d="M19.0043 23.2197V21.6646H20.0708V23.2197H19.0043Z" fill="black"/>
<path d="M19.7453 23.2197V21.6646H20.3549V23.2197H19.7453Z" fill="black"/>
<path d="M20.1808 23.2197V21.6646H21.7049V23.2197H20.1808Z" fill="black"/>
<path d="M21.6078 23.2197V21.6646H22.9792V23.2197H21.6078Z" fill="black"/>
<path d="M22.8057 23.2197V21.6646H24.3299V23.2197H22.8057Z" fill="black"/>
<path d="M24.08 23.2197V21.6646H24.6897V23.2197H24.08Z" fill="black"/>
<path d="M24.6683 23.2197V21.6646H26.0397V23.2197H24.6683Z" fill="black"/>
<path d="M25.7134 23.2197V21.6646H27.2376V23.2197H25.7134Z" fill="black"/>
<path d="M26.9114 23.2197V21.6646H27.9779V23.2197H26.9114Z" fill="black"/>
<path d="M27.6524 23.2197V21.6646H28.7189V23.2197H27.6524Z" fill="black"/>
<path d="M28.3934 23.2197V21.6646H29.9175V23.2197H28.3934Z" fill="black"/>
<path d="M29.5913 23.2197V21.6646H30.9627V23.2197H29.5913Z" fill="black"/>
<path d="M30.6565 23.2197V21.6646H31.2662V23.2197H30.6565Z" fill="black"/>
<path d="M6 26.2197V24.6646H7.37137V26.2197H6Z" fill="black"/>
<path d="M7.06526 26.2197V24.6646H8.58938V26.2197H7.06526Z" fill="black"/>
<path d="M8.26317 26.2197V24.6646H9.32972V26.2197H8.26317Z" fill="black"/>
<path d="M9.15693 26.2197V24.6646H10.681V26.2197H9.15693Z" fill="black"/>
<path d="M10.4312 26.2197V24.6646H11.4978V26.2197H10.4312Z" fill="black"/>
<path d="M11.1722 26.2197V24.6646H12.2388V26.2197H11.1722Z" fill="black"/>
<path d="M12.2187 26.2197V24.6646H13.4373V26.2197H12.2187Z" fill="black"/>
<path d="M13.4166 26.2197V24.6646H14.788V26.2197H13.4166Z" fill="black"/>
<path d="M14.6145 26.2197V24.6646H15.9859V26.2197H14.6145Z" fill="black"/>
<path d="M15.7749 26.2197V24.6646H17.2991V26.2197H15.7749Z" fill="black"/>
<path d="M17.1256 26.2197V24.6646H18.1921V26.2197H17.1256Z" fill="black"/>
<path d="M18.1721 26.2197V24.6646H19.5435V26.2197H18.1721Z" fill="black"/>
<path d="M19.2936 26.2197V24.6646H19.9033V26.2197H19.2936Z" fill="black"/>
<path d="M19.7291 26.2197V24.6646H21.8629V26.2197H19.7291Z" fill="black"/>
<path d="M21.6131 26.2197V24.6646H22.6796V26.2197H21.6131Z" fill="black"/>
<path d="M22.5068 26.2197V24.6646H23.5734V26.2197H22.5068Z" fill="black"/>
<path d="M23.2478 26.2197V24.6646H24.772V26.2197H23.2478Z" fill="black"/>
<path d="M24.5985 26.2197V24.6646H25.2081V26.2197H24.5985Z" fill="black"/>
<path d="M25.034 26.2197V24.6646H26.7109V26.2197H25.034Z" fill="black"/>
<path d="M26.5562 26.2197V24.6646H27.7748V26.2197H26.5562Z" fill="black"/>
<path d="M27.6013 26.2197V24.6646H28.9727V26.2197H27.6013Z" fill="black"/>
<path d="M28.6666 26.2197V24.6646H29.7332V26.2197H28.6666Z" fill="black"/>
<path d="M29.4076 26.2197V24.6646H30.9317V26.2197H29.4076Z" fill="black"/>
<path d="M30.7583 26.2197V24.6646H31.3679V26.2197H30.7583Z" fill="black"/>
<path d="M6 29.2197V27.6646H7.67686V29.2197H6Z" fill="black"/>
<path d="M7.57978 29.2197V27.6646H8.7984V29.2197H7.57978Z" fill="black"/>
<path d="M8.62494 29.2197V27.6646H9.99631V29.2197H8.62494Z" fill="black"/>
<path d="M9.6902 29.2197V27.6646H11.2143V29.2197H9.6902Z" fill="black"/>
<path d="M10.8881 29.2197V27.6646H12.4122V29.2197H10.8881Z" fill="black"/>
<path d="M12.1624 29.2197V27.6646H12.9241V29.2197H12.1624Z" fill="black"/>
<path d="M12.6743 29.2197V27.6646H13.2839V29.2197H12.6743Z" fill="black"/>
<path d="M13.1098 29.2197V27.6646H14.6339V29.2197H13.1098Z" fill="black"/>
<path d="M14.3841 29.2197V27.6646H15.7555V29.2197H14.3841Z" fill="black"/>
<path d="M15.4493 29.2197V27.6646H16.9735V29.2197H15.4493Z" fill="black"/>
<path d="M16.6473 29.2197V27.6646H17.2569V29.2197H16.6473Z" fill="black"/>
<path d="M17.0828 29.2197V27.6646H18.3021V29.2197H17.0828Z" fill="black"/>
<path d="M17.9765 29.2197V27.6646H19.5006V29.2197H17.9765Z" fill="black"/>
<path d="M19.3272 29.2197V27.6646H20.3937V29.2197H19.3272Z" fill="black"/>
<path d="M20.2209 29.2197V27.6646H21.2875V29.2197H20.2209Z" fill="black"/>
<path d="M21.1911 29.2197V27.6646H22.5624V29.2197H21.1911Z" fill="black"/>
<path d="M22.3126 29.2197V27.6646H22.9223V29.2197H22.3126Z" fill="black"/>
<path d="M22.7481 29.2197V27.6646H23.8147V29.2197H22.7481Z" fill="black"/>
<path d="M23.7946 29.2197V27.6646H25.166V29.2197H23.7946Z" fill="black"/>
<path d="M24.9925 29.2197V27.6646H25.6022V29.2197H24.9925Z" fill="black"/>
<path d="M6 32.2197V30.6646H7.52412V32.2197H6Z" fill="black"/>
<path d="M7.27428 32.2197V30.6646H8.64565V32.2197H7.27428Z" fill="black"/>
<path d="M8.39582 32.2197V30.6646H9.76719V32.2197H8.39582Z" fill="black"/>
<path d="M9.6701 32.2197V30.6646H10.8887V32.2197H9.6701Z" fill="black"/>
<path d="M10.7153 32.2197V30.6646H12.0866V32.2197H10.7153Z" fill="black"/>
<path d="M11.7805 32.2197V30.6646H13.3046V32.2197H11.7805Z" fill="black"/>
<path d="M13.0548 32.2197V30.6646H13.6645V32.2197H13.0548Z" fill="black"/>
<path d="M13.4903 32.2197V30.6646H15.6241V32.2197H13.4903Z" fill="black"/>
<path d="M15.3743 32.2197V30.6646H16.4408V32.2197H15.3743Z" fill="black"/>
<path d="M16.268 32.2197V30.6646H17.3346V32.2197H16.268Z" fill="black"/>
<path d="M17.009 32.2197V30.6646H18.5331V32.2197H17.009Z" fill="black"/>
<path d="M18.3597 32.2197V30.6646H18.9693V32.2197H18.3597Z" fill="black"/>
<path d="M18.7952 32.2197V30.6646H19.8617V32.2197H18.7952Z" fill="black"/>
<path d="M19.5362 32.2197V30.6646H21.0603V32.2197H19.5362Z" fill="black"/>
<path d="M20.8869 32.2197V30.6646H22.411V32.2197H20.8869Z" fill="black"/>
<path d="M22.0848 32.2197V30.6646H22.6944V32.2197H22.0848Z" fill="black"/>
<path d="M22.673 32.2197V30.6646H24.0444V32.2197H22.673Z" fill="black"/>
<path d="M23.9473 32.2197V30.6646H25.1659V32.2197H23.9473Z" fill="black"/>
<path d="M24.9925 32.2197V30.6646H26.3639V32.2197H24.9925Z" fill="black"/>
<path d="M26.1529 32.2197V30.6646H27.2194V32.2197H26.1529Z" fill="black"/>
<path d="M27.0466 32.2197V30.6646H28.1132V32.2197H27.0466Z" fill="black"/>
<path d="M27.7876 32.2197V30.6646H28.8542V32.2197H27.7876Z" fill="black"/>
<path d="M28.8341 32.2197V30.6646H30.0528V32.2197H28.8341Z" fill="black"/>
<path d="M30.0321 32.2197V30.6646H31.4034V32.2197H30.0321Z" fill="black"/>
<path d="M31.23 32.2197V30.6646H32.6013V32.2197H31.23Z" fill="black"/>
<path d="M32.3904 32.2197V30.6646H33V32.2197H32.3904Z" fill="black"/>
<path d="M6.15275 35.2197V33.6646H7.37137V35.2197H6.15275Z" fill="black"/>
<path d="M7.19791 35.2197V33.6646H8.4172V35.2197H7.19791Z" fill="black"/>
<path d="M8.09167 35.2197V33.6646H8.70131V35.2197H8.09167Z" fill="black"/>
<path d="M8.67993 35.2197V33.6646H9.89855V35.2197H8.67993Z" fill="black"/>
<path d="M9.72509 35.2197V33.6646H11.2492V35.2197H9.72509Z" fill="black"/>
<path d="M11.0757 35.2197V33.6646H12.4471V35.2197H11.0757Z" fill="black"/>
<path d="M12.141 35.2197V33.6646H12.7507V35.2197H12.141Z" fill="black"/>
<path d="M12.5765 35.2197V33.6646H14.1006V35.2197H12.5765Z" fill="black"/>
<path d="M13.8508 35.2197V33.6646H14.9174V35.2197H13.8508Z" fill="black"/>
<path d="M14.7446 35.2197V33.6646H15.8111V35.2197H14.7446Z" fill="black"/>
<path d="M15.6383 35.2197V33.6646H16.7049V35.2197H15.6383Z" fill="black"/>
<path d="M16.5321 35.2197V33.6646H18.0562V35.2197H16.5321Z" fill="black"/>
<path d="M17.73 35.2197V33.6646H19.1014V35.2197H17.73Z" fill="black"/>
<path d="M18.8904 35.2197V33.6646H19.6521V35.2197H18.8904Z" fill="black"/>
<path d="M19.4023 35.2197V33.6646H20.0119V35.2197H19.4023Z" fill="black"/>
<path d="M19.8378 35.2197V33.6646H21.2092V35.2197H19.8378Z" fill="black"/>
<path d="M21.2648 35.2197V33.6646H22.4834V35.2197H21.2648Z" fill="black"/>
<path d="M22.31 35.2197V33.6646H22.9196V35.2197H22.31Z" fill="black"/>
<path d="M22.7455 35.2197V33.6646H23.812V35.2197H22.7455Z" fill="black"/>
<path d="M23.6393 35.2197V33.6646H25.0106V35.2197H23.6393Z" fill="black"/>
<path d="M24.7996 35.2197V33.6646H25.4093V35.2197H24.7996Z" fill="black"/>
<path d="M25.3879 35.2197V33.6646H26.6065V35.2197H25.3879Z" fill="black"/>
<path d="M26.4331 35.2197V33.6646H27.9572V35.2197H26.4331Z" fill="black"/>
<path d="M27.7837 35.2197V33.6646H29.1551V35.2197H27.7837Z" fill="black"/>
<path d="M28.849 35.2197V33.6646H29.4586V35.2197H28.849Z" fill="black"/>
<path d="M6 38.2197V36.6646H7.37137V38.2197H6Z" fill="black"/>
<path d="M7.16039 38.2197V36.6646H8.22694V38.2197H7.16039Z" fill="black"/>
<path d="M7.9014 38.2197V36.6646H9.42552V38.2197H7.9014Z" fill="black"/>
<path d="M9.17569 38.2197V36.6646H10.6998V38.2197H9.17569Z" fill="black"/>
<path d="M10.6791 38.2197V36.6646H12.0505V38.2197H10.6791Z" fill="black"/>
<path d="M11.877 38.2197V36.6646H13.2484V38.2197H11.877Z" fill="black"/>
<path d="M12.9985 38.2197V36.6646H14.5227V38.2197H12.9985Z" fill="black"/>
<path d="M14.3492 38.2197V36.6646H14.9588V38.2197H14.3492Z" fill="black"/>
<path d="M14.7847 38.2197V36.6646H16.1561V38.2197H14.7847Z" fill="black"/>
<path d="M15.9451 38.2197V36.6646H17.4692V38.2197H15.9451Z" fill="black"/>
<path d="M17.4485 38.2197V36.6646H18.8199V38.2197H17.4485Z" fill="black"/>
<path d="M18.7228 38.2197V36.6646H20.0942V38.2197H18.7228Z" fill="black"/>
<path d="M19.9971 38.2197V36.6646H21.2157V38.2197H19.9971Z" fill="black"/>
<path d="M21.0422 38.2197V36.6646H22.4136V38.2197H21.0422Z" fill="black"/>
<path d="M22.1075 38.2197V36.6646H23.174V38.2197H22.1075Z" fill="black"/>
<path d="M22.8485 38.2197V36.6646H23.4582V38.2197H22.8485Z" fill="black"/>
<path d="M23.284 38.2197V36.6646H24.5033V38.2197H23.284Z" fill="black"/>
<path d="M24.3305 38.2197V36.6646H25.5491V38.2197H24.3305Z" fill="black"/>
<path d="M25.3757 38.2197V36.6646H26.7471V38.2197H25.3757Z" fill="black"/>
<path d="M26.4409 38.2197V36.6646H27.0506V38.2197H26.4409Z" fill="black"/>
<path d="M26.8765 38.2197V36.6646H27.943V38.2197H26.8765Z" fill="black"/>
<path d="M27.6175 38.2197V36.6646H29.1416V38.2197H27.6175Z" fill="black"/>
<path d="M28.9681 38.2197V36.6646H30.4922V38.2197H28.9681Z" fill="black"/>
<path d="M30.166 38.2197V36.6646H30.7757V38.2197H30.166Z" fill="black"/>
<path d="M6 41.2197V39.6646H7.67686V41.2197H6Z" fill="black"/>
<path d="M7.42703 41.2197V39.6646H8.95115V41.2197H7.42703Z" fill="black"/>
<path d="M8.77769 41.2197V39.6646H10.1491V41.2197H8.77769Z" fill="black"/>
<path d="M9.84295 41.2197V39.6646H11.3671V41.2197H9.84295Z" fill="black"/>
<path d="M11.0409 41.2197V39.6646H12.565V41.2197H11.0409Z" fill="black"/>
<path d="M12.2388 41.2197V39.6646H13.7629V41.2197H12.2388Z" fill="black"/>
<path d="M13.5131 41.2197V39.6646H14.1227V41.2197H13.5131Z" fill="black"/>
<path d="M13.9486 41.2197V39.6646H15.6254V41.2197H13.9486Z" fill="black"/>
<path d="M15.1652 41.2197V39.6646H16.5366V41.2197H15.1652Z" fill="black"/>
<path d="M16.193 41.2197V39.6646H17.7171V41.2197H16.193Z" fill="black"/>
<path d="M17.4673 41.2197V39.6646H19.449V41.2197H17.4673Z" fill="black"/>
<path d="M19.3512 41.2197V39.6646H20.8753V41.2197H19.3512Z" fill="black"/>
<path d="M20.5491 41.2197V39.6646H22.6829V41.2197H20.5491Z" fill="black"/>
<path d="M22.5858 41.2197V39.6646H23.8044V41.2197H22.5858Z" fill="black"/>
<path d="M23.6309 41.2197V39.6646H25.0023V41.2197H23.6309Z" fill="black"/>
<path d="M24.6962 41.2197V39.6646H26.2203V41.2197H24.6962Z" fill="black"/>
<path d="M26.0093 41.2197V39.6646H26.7711V41.2197H26.0093Z" fill="black"/>
<path d="M26.5212 41.2197V39.6646H27.1309V41.2197H26.5212Z" fill="black"/>
<path d="M6 44.2197V42.6646H8.13377V44.2197H6Z" fill="black"/>
<path d="M7.88393 44.2197V42.6646H9.40805V44.2197H7.88393Z" fill="black"/>
<path d="M9.23459 44.2197V42.6646H10.3011V44.2197H9.23459Z" fill="black"/>
<path d="M10.1283 44.2197V42.6646H11.4997V44.2197H10.1283Z" fill="black"/>
<path d="M11.2499 44.2197V42.6646H12.774V44.2197H11.2499Z" fill="black"/>
<path d="M12.6005 44.2197V42.6646H13.2102V44.2197H12.6005Z" fill="black"/>
<path d="M13.0361 44.2197V42.6646H14.1026V44.2197H13.0361Z" fill="black"/>
<path d="M13.9298 44.2197V42.6646H15.3012V44.2197H13.9298Z" fill="black"/>
<path d="M15.0902 44.2197V42.6646H15.6998V44.2197H15.0902Z" fill="black"/>
<path d="M15.5257 44.2197V42.6646H16.5923V44.2197H15.5257Z" fill="black"/>
<path d="M16.2667 44.2197V42.6646H17.7908V44.2197H16.2667Z" fill="black"/>
<path d="M17.6174 44.2197V42.6646H19.1415V44.2197H17.6174Z" fill="black"/>
<path d="M18.8153 44.2197V42.6646H19.4249V44.2197H18.8153Z" fill="black"/>
<path d="M19.2508 44.2197V42.6646H20.3174V44.2197H19.2508Z" fill="black"/>
<path d="M20.1446 44.2197V42.6646H21.2111V44.2197H20.1446Z" fill="black"/>
<path d="M21.1911 44.2197V42.6646H22.5624V44.2197H21.1911Z" fill="black"/>
<path d="M22.389 44.2197V42.6646H23.7603V44.2197H22.389Z" fill="black"/>
<path d="M23.5105 44.2197V42.6646H25.0346V44.2197H23.5105Z" fill="black"/>
<path d="M25.0139 44.2197V42.6646H26.3853V44.2197H25.0139Z" fill="black"/>
<path d="M26.1355 44.2197V42.6646H27.202V44.2197H26.1355Z" fill="black"/>
<path d="M27.182 44.2197V42.6646H28.5533V44.2197H27.182Z" fill="black"/>
<path d="M28.3799 44.2197V42.6646H28.9895V44.2197H28.3799Z" fill="black"/>
<path d="M28.9681 44.2197V42.6646H30.1868V44.2197H28.9681Z" fill="black"/>
<path d="M30.0133 44.2197V42.6646H31.2326V44.2197H30.0133Z" fill="black"/>
<path d="M30.907 44.2197V42.6646H31.5167V44.2197H30.907Z" fill="black"/>
<path d="M6.15275 47.2197V45.6646H7.37137V47.2197H6.15275Z" fill="black"/>
<path d="M7.19791 47.2197V45.6646H8.72203V47.2197H7.19791Z" fill="black"/>
<path d="M8.54857 47.2197V45.6646H9.91994V47.2197H8.54857Z" fill="black"/>
<path d="M9.61383 47.2197V45.6646H10.2235V47.2197H9.61383Z" fill="black"/>
<path d="M10.0493 47.2197V45.6646H11.5735V47.2197H10.0493Z" fill="black"/>
<path d="M11.2473 47.2197V45.6646H12.4665V47.2197H11.2473Z" fill="black"/>
<path d="M12.141 47.2197V45.6646H13.3603V47.2197H12.141Z" fill="black"/>
<path d="M13.1875 47.2197V45.6646H14.4061V47.2197H13.1875Z" fill="black"/>
<path d="M14.2327 47.2197V45.6646H15.604V47.2197H14.2327Z" fill="black"/>
<path d="M15.2979 47.2197V45.6646H16.3645V47.2197H15.2979Z" fill="black"/>
<path d="M16.0389 47.2197V45.6646H16.6486V47.2197H16.0389Z" fill="black"/>
<path d="M16.4745 47.2197V45.6646H17.541V47.2197H16.4745Z" fill="black"/>
<path d="M17.3682 47.2197V45.6646H18.5868V47.2197H17.3682Z" fill="black"/>
<path d="M18.4134 47.2197V45.6646H19.023V47.2197H18.4134Z" fill="black"/>
<path d="M18.8489 47.2197V45.6646H20.373V47.2197H18.8489Z" fill="black"/>
<path d="M20.1996 47.2197V45.6646H21.5709V47.2197H20.1996Z" fill="black"/>
<path d="M21.3975 47.2197V45.6646H22.9216V47.2197H21.3975Z" fill="black"/>
<path d="M22.6717 47.2197V45.6646H23.2814V47.2197H22.6717Z" fill="black"/>
<path d="M23.1073 47.2197V45.6646H24.7841V47.2197H23.1073Z" fill="black"/>
<path d="M24.6294 47.2197V45.6646H25.848V47.2197H24.6294Z" fill="black"/>
<path d="M25.6746 47.2197V45.6646H27.046V47.2197H25.6746Z" fill="black"/>
<path d="M26.7398 47.2197V45.6646H27.8064V47.2197H26.7398Z" fill="black"/>
<path d="M27.4809 47.2197V45.6646H29.005V47.2197H27.4809Z" fill="black"/>
<path d="M28.8315 47.2197V45.6646H29.4412V47.2197H28.8315Z" fill="black"/>
<path d="M6 50.2197V48.6646H7.67686V50.2197H6Z" fill="black"/>
<path d="M7.57978 50.2197V48.6646H8.7984V50.2197H7.57978Z" fill="black"/>
<path d="M8.62494 50.2197V48.6646H9.99631V50.2197H8.62494Z" fill="black"/>
<path d="M9.6902 50.2197V48.6646H11.2143V50.2197H9.6902Z" fill="black"/>
<path d="M10.8881 50.2197V48.6646H12.4122V50.2197H10.8881Z" fill="black"/>
<path d="M12.1624 50.2197V48.6646H12.9241V50.2197H12.1624Z" fill="black"/>
<path d="M12.7507 50.2197V48.6646H14.122V50.2197H12.7507Z" fill="black"/>
<path d="M13.9111 50.2197V48.6646H14.5207V50.2197H13.9111Z" fill="black"/>
<path d="M14.4993 50.2197V48.6646H15.8707V50.2197H14.4993Z" fill="black"/>
<path d="M15.6972 50.2197V48.6646H17.2213V50.2197H15.6972Z" fill="black"/>
<path d="M17.0479 50.2197V48.6646H18.4193V50.2197H17.0479Z" fill="black"/>
<path d="M18.1694 50.2197V48.6646H19.236V50.2197H18.1694Z" fill="black"/>
<path d="M19.0632 50.2197V48.6646H20.5873V50.2197H19.0632Z" fill="black"/>
<path d="M20.2611 50.2197V48.6646H21.7852V50.2197H20.2611Z" fill="black"/>
<path d="M21.5354 50.2197V48.6646H22.9067V50.2197H21.5354Z" fill="black"/>
<path d="M22.6006 50.2197V48.6646H23.2103V50.2197H22.6006Z" fill="black"/>
<path d="M23.0361 50.2197V48.6646H25.1699V50.2197H23.0361Z" fill="black"/>
<path d="M24.9201 50.2197V48.6646H26.4442V50.2197H24.9201Z" fill="black"/>
<path d="M26.118 50.2197V48.6646H27.6421V50.2197H26.118Z" fill="black"/>
<path d="M27.545 50.2197V48.6646H28.9164V50.2197H27.545Z" fill="black"/>
<path d="M28.8193 50.2197V48.6646H30.0379V50.2197H28.8193Z" fill="black"/>
<path d="M30.0172 50.2197V48.6646H31.3886V50.2197H30.0172Z" fill="black"/>
<path d="M31.2151 50.2197V48.6646H32.5865V50.2197H31.2151Z" fill="black"/>
<path d="M32.3755 50.2197V48.6646H32.9852V50.2197H32.3755Z" fill="black"/>
<path d="M6.15275 53.2197V51.6646H7.52412V53.2197H6.15275Z" fill="black"/>
<path d="M7.27428 53.2197V51.6646H8.64565V53.2197H7.27428Z" fill="black"/>
<path d="M8.49229 53.2197V51.6646H9.71092V53.2197H8.49229Z" fill="black"/>
<path d="M9.53745 53.2197V51.6646H11.0616V53.2197H9.53745Z" fill="black"/>
<path d="M10.8881 53.2197V51.6646H12.2595V53.2197H10.8881Z" fill="black"/>
<path d="M11.9159 53.2197V51.6646H13.44V53.2197H11.9159Z" fill="black"/>
<path d="M13.1901 53.2197V51.6646H15.1718V53.2197H13.1901Z" fill="black"/>
<path d="M15.0741 53.2197V51.6646H15.8358V53.2197H15.0741Z" fill="black"/>
<path d="M15.586 53.2197V51.6646H16.3477V53.2197H15.586Z" fill="black"/>
<path d="M6.30482 8.11514H31.5523V8.18486H6.30482V8.11514ZM6.30482 11.1151H29.6716V11.1849H6.30482V11.1151ZM6.30482 14.1151H20.5297V14.1849H6.30482V14.1151ZM6.30482 17.1151H25.7957V17.1849H6.30482V17.1151ZM6.30482 20.1151H32.1251V20.1849H6.30482V20.1151ZM6.30482 23.1151H30.9607V23.1849H6.30482V23.1151ZM6.30482 26.1151H31.0631V26.1849H6.30482V26.1151ZM6.30482 29.1151H25.2974V29.1849H6.30482V29.1151ZM6.30482 32.1151H32.6945V32.1849H6.30482V32.1151ZM6.30482 35.1151H29.1531V35.1849H6.30482V35.1151ZM6.30482 38.1151H30.4709V38.1849H6.30482V38.1151ZM6.30482 41.1151H26.8261V41.1849H6.30482V41.1151ZM6.30482 44.1151H31.2112V44.1849H6.30482V44.1151ZM6.30482 47.1151H29.1363V47.1849H6.30482V47.1151ZM6.30482 50.1151H32.6797V50.1849H6.30482V50.1151ZM6.30482 53.1151H16.5339V53.1849H6.30482V53.1151Z" fill="black"/>
</g>
<rect width="12" height="14" transform="translate(25 18.6646)" fill="white"/>
<path d="M31.4307 23.6831C31.141 23.6831 30.8838 23.7401 30.6592 23.854C30.4378 23.9647 30.2507 24.1258 30.0977 24.3374C29.9479 24.549 29.834 24.8045 29.7559 25.104C29.6777 25.4035 29.6387 25.7404 29.6387 26.1147C29.6387 26.6193 29.7005 27.0506 29.8242 27.4087C29.9512 27.7635 30.1465 28.0353 30.4102 28.2241C30.6738 28.4097 31.014 28.5024 31.4307 28.5024C31.7204 28.5024 32.0101 28.4699 32.2998 28.4048C32.5928 28.3397 32.9102 28.2469 33.252 28.1265V29.396C32.9362 29.5262 32.6253 29.619 32.3193 29.6743C32.0133 29.7329 31.6699 29.7622 31.2891 29.7622C30.5534 29.7622 29.9479 29.6108 29.4727 29.3081C29.0007 29.0021 28.6507 28.5757 28.4229 28.0288C28.195 27.4787 28.0811 26.8374 28.0811 26.105C28.0811 25.5646 28.1543 25.0698 28.3008 24.6206C28.4473 24.1714 28.6621 23.7824 28.9453 23.4536C29.2285 23.1248 29.5785 22.8709 29.9951 22.6919C30.4118 22.5129 30.8903 22.4233 31.4307 22.4233C31.7855 22.4233 32.1403 22.4689 32.4951 22.5601C32.8532 22.6479 33.195 22.77 33.5205 22.9263L33.0322 24.1567C32.7653 24.0298 32.4967 23.9191 32.2266 23.8247C31.9564 23.7303 31.6911 23.6831 31.4307 23.6831Z" fill="#585858"/>
</g>
<path d="M11.3333 38.6646H2V45.0126H11.3333V38.6646Z" fill="#E19E55"/>
<path d="M21.6663 38.6646H12.333V45.0126H21.6663V38.6646Z" fill="#7FA4CA"/>
</g>
<defs>
<filter id="filter0_d_238_43694" x="0" y="1.66455" width="39" height="35" filterUnits="userSpaceOnUse" color-interpolation-filters="sRGB">
<feFlood flood-opacity="0" result="BackgroundImageFix"/>
<feColorMatrix in="SourceAlpha" type="matrix" values="0 0 0 0 0 0 0 0 0 0 0 0 0 0 0 0 0 0 127 0" result="hardAlpha"/>
<feOffset dy="1"/>
<feGaussianBlur stdDeviation="1"/>
<feComposite in2="hardAlpha" operator="out"/>
<feColorMatrix type="matrix" values="0 0 0 0 0 0 0 0 0 0 0 0 0 0 0 0 0 0 0.1 0"/>
<feBlend mode="normal" in2="BackgroundImageFix" result="effect1_dropShadow_238_43694"/>
<feBlend mode="normal" in="SourceGraphic" in2="effect1_dropShadow_238_43694" result="shape"/>
</filter>
<filter id="filter1_i_238_43694" x="2" y="-2.33545" width="35" height="34" filterUnits="userSpaceOnUse" color-interpolation-filters="sRGB">
<feFlood flood-opacity="0" result="BackgroundImageFix"/>
<feBlend mode="normal" in="SourceGraphic" in2="BackgroundImageFix" result="shape"/>
<feColorMatrix in="SourceAlpha" type="matrix" values="0 0 0 0 0 0 0 0 0 0 0 0 0 0 0 0 0 0 127 0" result="hardAlpha"/>
<feOffset dy="-5"/>
<feGaussianBlur stdDeviation="3.5"/>
<feComposite in2="hardAlpha" operator="arithmetic" k2="-1" k3="1"/>
<feColorMatrix type="matrix" values="0 0 0 0 1 0 0 0 0 1 0 0 0 0 1 0 0 0 1 0"/>
<feBlend mode="normal" in2="shape" result="effect1_innerShadow_238_43694"/>
</filter>
<clipPath id="clip0_238_43694">
<rect width="39" height="46.3481" fill="white" transform="translate(0 0.664551)"/>
</clipPath>
<clipPath id="clip1_238_43694">
<rect width="35" height="31" fill="white" transform="translate(2 2.66455)"/>
</clipPath>
<clipPath id="clip2_238_43694">
<rect width="35" height="29" fill="white" transform="translate(2 2.66455)"/>
</clipPath>
</defs>
</svg>
