<svg width="39" height="48" viewBox="0 0 39 48" fill="none" xmlns="http://www.w3.org/2000/svg">
<g clip-path="url(#clip0_238_43650)">
<g clip-path="url(#clip1_238_43650)" filter="url(#filter0_d_238_43650)">
<rect width="35" height="31" transform="translate(2 2.80664)" fill="white"/>
<g opacity="0.3" clip-path="url(#clip2_238_43650)" filter="url(#filter1_i_238_43650)">
<rect width="35" height="29" transform="translate(2 2.80664)" fill="white"/>
<path d="M6 8.36182V6.80664H6.7618V8.36182H6Z" fill="black"/>
<path d="M6.58832 8.36182V6.80664H7.80774V8.36182H6.58832Z" fill="black"/>
<path d="M7.63359 8.36182V6.80664H8.2433V8.36182H7.63359Z" fill="black"/>
<path d="M8.06915 8.36182V6.80664H9.59342V8.36182H8.06915Z" fill="black"/>
<path d="M9.49632 8.36182V6.80664H10.8678V8.36182H9.49632Z" fill="black"/>
<path d="M10.7707 8.36182V6.80664H12.1422V8.36182H10.7707Z" fill="black"/>
<path d="M11.8924 8.36182V6.80664H13.2639V8.36182H11.8924Z" fill="black"/>
<path d="M13.1105 8.36182V6.80664H14.3292V8.36182H13.1105Z" fill="black"/>
<path d="M14.1558 8.36182V6.80664H15.68V8.36182H14.1558Z" fill="black"/>
<path d="M15.4302 8.36182V6.80664H16.8017V8.36182H15.4302Z" fill="black"/>
<path d="M16.5518 8.36182V6.80664H18.0761V8.36182H16.5518Z" fill="black"/>
<path d="M17.9026 8.36182V6.80664H19.4269V8.36182H17.9026Z" fill="black"/>
<path d="M19.1006 8.36182V6.80664H20.6249V8.36182H19.1006Z" fill="black"/>
<path d="M20.3751 8.36182V6.80664H20.9848V8.36182H20.3751Z" fill="black"/>
<path d="M20.8106 8.36182V6.80664H21.8773V8.36182H20.8106Z" fill="black"/>
<path d="M21.5517 8.36182V6.80664H23.076V8.36182H21.5517Z" fill="black"/>
<path d="M22.9025 8.36182V6.80664H24.4268V8.36182H22.9025Z" fill="black"/>
<path d="M24.1005 8.36182V6.80664H26.0824V8.36182H24.1005Z" fill="black"/>
<path d="M25.9846 8.36182V6.80664H26.5943V8.36182H25.9846Z" fill="black"/>
<path d="M26.4202 8.36182V6.80664H27.4868V8.36182H26.4202Z" fill="black"/>
<path d="M27.4668 8.36182V6.80664H28.8383V8.36182H27.4668Z" fill="black"/>
<path d="M28.6648 8.36182V6.80664H29.2745V8.36182H28.6648Z" fill="black"/>
<path d="M29.1004 8.36182V6.80664H30.167V8.36182H29.1004Z" fill="black"/>
<path d="M29.8415 8.36182V6.80664H31.3657V8.36182H29.8415Z" fill="black"/>
<path d="M31.1923 8.36182V6.80664H32.7165V8.36182H31.1923Z" fill="black"/>
<path d="M32.3903 8.36182V6.80664H33V8.36182H32.3903Z" fill="black"/>
<path d="M6 11.3618V9.80664H7.37151V11.3618H6Z" fill="black"/>
<path d="M7.31327 11.3618V9.80664H8.68478V11.3618H7.31327Z" fill="black"/>
<path d="M8.43492 11.3618V9.80664H9.50157V11.3618H8.43492Z" fill="black"/>
<path d="M9.32876 11.3618V9.80664H10.7003V11.3618H9.32876Z" fill="black"/>
<path d="M10.3941 11.3618V9.80664H11.4608V11.3618H10.3941Z" fill="black"/>
<path d="M11.288 11.3618V9.80664H12.3546V11.3618H11.288Z" fill="black"/>
<path d="M12.0291 11.3618V9.80664H12.6388V11.3618H12.0291Z" fill="black"/>
<path d="M12.6174 11.3618V9.80664H13.8361V11.3618H12.6174Z" fill="black"/>
<path d="M13.6626 11.3618V9.80664H14.8821V11.3618H13.6626Z" fill="black"/>
<path d="M14.5565 11.3618V9.80664H15.1662V11.3618H14.5565Z" fill="black"/>
<path d="M15.1448 11.3618V9.80664H16.5163V11.3618H15.1448Z" fill="black"/>
<path d="M16.2665 11.3618V9.80664H17.7907V11.3618H16.2665Z" fill="black"/>
<path d="M17.4645 11.3618V9.80664H18.9888V11.3618H17.4645Z" fill="black"/>
<path d="M18.7389 11.3618V9.80664H20.1104V11.3618H18.7389Z" fill="black"/>
<path d="M19.8605 11.3618V9.80664H21.3848V11.3618H19.8605Z" fill="black"/>
<path d="M21.4622 11.2862C21.4622 11.2517 21.4705 11.2274 21.4869 11.2134C21.5034 11.1994 21.5231 11.1924 21.5459 11.1924C21.5697 11.1924 21.5898 11.1994 21.6063 11.2134C21.6237 11.2274 21.6324 11.2517 21.6324 11.2862C21.6324 11.3198 21.6237 11.3441 21.6063 11.359C21.5898 11.3739 21.5697 11.3814 21.5459 11.3814C21.5231 11.3814 21.5034 11.3739 21.4869 11.359C21.4705 11.3441 21.4622 11.3198 21.4622 11.2862ZM21.8217 11.2862C21.8217 11.2517 21.83 11.2274 21.8464 11.2134C21.8629 11.1994 21.8826 11.1924 21.9054 11.1924C21.9292 11.1924 21.9493 11.1994 21.9658 11.2134C21.9832 11.2274 21.9919 11.2517 21.9919 11.2862C21.9919 11.3198 21.9832 11.3441 21.9658 11.359C21.9493 11.3739 21.9292 11.3814 21.9054 11.3814C21.8826 11.3814 21.8629 11.3739 21.8464 11.359C21.83 11.3441 21.8217 11.3198 21.8217 11.2862ZM22.1799 11.2862C22.1799 11.2517 22.1881 11.2274 22.2046 11.2134C22.221 11.1994 22.2407 11.1924 22.2636 11.1924C22.2874 11.1924 22.3075 11.1994 22.324 11.2134C22.3413 11.2274 22.35 11.2517 22.35 11.2862C22.35 11.3198 22.3413 11.3441 22.324 11.359C22.3075 11.3739 22.2874 11.3814 22.2636 11.3814C22.2407 11.3814 22.221 11.3739 22.2046 11.359C22.1881 11.3441 22.1799 11.3198 22.1799 11.2862Z" fill="black"/>
<path d="M22.0891 11.3618V9.80664H22.6988V11.3618H22.0891Z" fill="black"/>
<path d="M22.5247 11.3618V9.80664H23.7441V11.3618H22.5247Z" fill="black"/>
<path d="M23.5699 11.3618V9.80664H24.1796V11.3618H23.5699Z" fill="black"/>
<path d="M24.0055 11.3618V9.80664H26.1395V11.3618H24.0055Z" fill="black"/>
<path d="M26.0424 11.3618V9.80664H27.2611V11.3618H26.0424Z" fill="black"/>
<path d="M27.0876 11.3618V9.80664H28.6119V11.3618H27.0876Z" fill="black"/>
<path d="M28.4384 11.3618V9.80664H29.5051V11.3618H28.4384Z" fill="black"/>
<path d="M29.3323 11.3618V9.80664H30.8565V11.3618H29.3323Z" fill="black"/>
<path d="M30.6067 11.3618V9.80664H31.2164V11.3618H30.6067Z" fill="black"/>
<path d="M6 14.3618V12.8066H7.06665V14.3618H6Z" fill="black"/>
<path d="M6.89384 14.3618V12.8066H7.9605V14.3618H6.89384Z" fill="black"/>
<path d="M7.78769 14.3618V12.8066H9.31196V14.3618H7.78769Z" fill="black"/>
<path d="M9.10096 14.3618V12.8066H10.6252V14.3618H9.10096Z" fill="black"/>
<path d="M10.299 14.3618V12.8066H10.9087V14.3618H10.299Z" fill="black"/>
<path d="M10.7345 14.3618V12.8066H11.8012V14.3618H10.7345Z" fill="black"/>
<path d="M11.6284 14.3618V12.8066H12.8471V14.3618H11.6284Z" fill="black"/>
<path d="M12.6737 14.3618V12.8066H13.2834V14.3618H12.6737Z" fill="black"/>
<path d="M13.1092 14.3618V12.8066H14.6335V14.3618H13.1092Z" fill="black"/>
<path d="M14.46 14.3618V12.8066H15.9843V14.3618H14.46Z" fill="black"/>
<path d="M15.658 14.3618V12.8066H17.0295V14.3618H15.658Z" fill="black"/>
<path d="M16.9324 14.3618V12.8066H18.4567V14.3618H16.9324Z" fill="black"/>
<path d="M18.1305 14.3618V12.8066H18.7402V14.3618H18.1305Z" fill="black"/>
<path d="M18.566 14.3618V12.8066H20.0903V14.3618H18.566Z" fill="black"/>
<path d="M19.8404 14.3618V12.8066H20.4502V14.3618H19.8404Z" fill="black"/>
<path d="M6 17.3618V15.8066H7.37151V17.3618H6Z" fill="black"/>
<path d="M7.06537 17.3618V15.8066H8.58964V17.3618H7.06537Z" fill="black"/>
<path d="M8.2634 17.3618V15.8066H9.33005V17.3618H8.2634Z" fill="black"/>
<path d="M9.15724 17.3618V15.8066H10.6815V17.3618H9.15724Z" fill="black"/>
<path d="M10.4317 17.3618V15.8066H11.4983V17.3618H10.4317Z" fill="black"/>
<path d="M11.1727 17.3618V15.8066H12.2394V17.3618H11.1727Z" fill="black"/>
<path d="M12.2193 17.3618V15.8066H13.4381V17.3618H12.2193Z" fill="black"/>
<path d="M13.4174 17.3618V15.8066H14.7889V17.3618H13.4174Z" fill="black"/>
<path d="M14.6154 17.3618V15.8066H15.9869V17.3618H14.6154Z" fill="black"/>
<path d="M15.7759 17.3618V15.8066H17.3002V17.3618H15.7759Z" fill="black"/>
<path d="M17.1267 17.3618V15.8066H18.1933V17.3618H17.1267Z" fill="black"/>
<path d="M18.1733 17.3618V15.8066H19.5448V17.3618H18.1733Z" fill="black"/>
<path d="M19.295 17.3618V15.8066H19.9047V17.3618H19.295Z" fill="black"/>
<path d="M19.7305 17.3618V15.8066H21.8645V17.3618H19.7305Z" fill="black"/>
<path d="M21.6146 17.3618V15.8066H22.6813V17.3618H21.6146Z" fill="black"/>
<path d="M22.5085 17.3618V15.8066H23.5751V17.3618H22.5085Z" fill="black"/>
<path d="M23.2496 17.3618V15.8066H24.7738V17.3618H23.2496Z" fill="black"/>
<path d="M24.6003 17.3618V15.8066H25.2101V17.3618H24.6003Z" fill="black"/>
<path d="M25.0359 17.3618V15.8066H26.7129V17.3618H25.0359Z" fill="black"/>
<path d="M26.5582 17.3618V15.8066H27.777V17.3618H26.5582Z" fill="black"/>
<path d="M27.6035 17.3618V15.8066H28.975V17.3618H27.6035Z" fill="black"/>
<path d="M28.6689 17.3618V15.8066H29.7355V17.3618H28.6689Z" fill="black"/>
<path d="M29.4099 17.3618V15.8066H30.9342V17.3618H29.4099Z" fill="black"/>
<path d="M30.7607 17.3618V15.8066H31.3704V17.3618H30.7607Z" fill="black"/>
<path d="M6 20.3618V18.8066H7.67703V20.3618H6Z" fill="black"/>
<path d="M7.57993 20.3618V18.8066H8.79868V20.3618H7.57993Z" fill="black"/>
<path d="M8.6252 20.3618V18.8066H9.99671V20.3618H8.6252Z" fill="black"/>
<path d="M9.69057 20.3618V18.8066H11.2148V20.3618H9.69057Z" fill="black"/>
<path d="M10.8886 20.3618V18.8066H12.4129V20.3618H10.8886Z" fill="black"/>
<path d="M12.5667 20.2862C12.5667 20.2517 12.5749 20.2274 12.5914 20.2134C12.6078 20.1994 12.6275 20.1924 12.6504 20.1924C12.6741 20.1924 12.6943 20.1994 12.7107 20.2134C12.7281 20.2274 12.7368 20.2517 12.7368 20.2862C12.7368 20.3198 12.7281 20.3441 12.7107 20.359C12.6943 20.3739 12.6741 20.3814 12.6504 20.3814C12.6275 20.3814 12.6078 20.3739 12.5914 20.359C12.5749 20.3441 12.5667 20.3198 12.5667 20.2862ZM12.9262 20.2862C12.9262 20.2517 12.9344 20.2274 12.9509 20.2134C12.9673 20.1994 12.987 20.1924 13.0099 20.1924C13.0337 20.1924 13.0538 20.1994 13.0702 20.2134C13.0876 20.2274 13.0963 20.2517 13.0963 20.2862C13.0963 20.3198 13.0876 20.3441 13.0702 20.359C13.0538 20.3739 13.0337 20.3814 13.0099 20.3814C12.987 20.3814 12.9673 20.3739 12.9509 20.359C12.9344 20.3441 12.9262 20.3198 12.9262 20.2862ZM13.2843 20.2862C13.2843 20.2517 13.2925 20.2274 13.309 20.2134C13.3255 20.1994 13.3451 20.1924 13.368 20.1924C13.3918 20.1924 13.4119 20.1994 13.4284 20.2134C13.4458 20.2274 13.4545 20.2517 13.4545 20.2862C13.4545 20.3198 13.4458 20.3441 13.4284 20.359C13.4119 20.3739 13.3918 20.3814 13.368 20.3814C13.3451 20.3814 13.3255 20.3739 13.309 20.359C13.2925 20.3441 13.2843 20.3198 13.2843 20.2862Z" fill="black"/>
<path d="M13.1935 20.3618V18.8066H13.8032V20.3618H13.1935Z" fill="black"/>
<path d="M13.6291 20.3618V18.8066H15.1534V20.3618H13.6291Z" fill="black"/>
<path d="M14.9986 20.3618V18.8066H16.5229V20.3618H14.9986Z" fill="black"/>
<path d="M16.3494 20.3618V18.8066H17.4161V20.3618H16.3494Z" fill="black"/>
<path d="M17.0905 20.3618V18.8066H17.7002V20.3618H17.0905Z" fill="black"/>
<path d="M17.5261 20.3618V18.8066H19.6601V20.3618H17.5261Z" fill="black"/>
<path d="M19.4102 20.3618V18.8066H20.9345V20.3618H19.4102Z" fill="black"/>
<path d="M20.6082 20.3618V18.8066H21.2179V20.3618H20.6082Z" fill="black"/>
<path d="M21.0438 20.3618V18.8066H22.568V20.3618H21.0438Z" fill="black"/>
<path d="M22.3182 20.3618V18.8066H23.6897V20.3618H22.3182Z" fill="black"/>
<path d="M23.3836 20.3618V18.8066H24.9078V20.3618H23.3836Z" fill="black"/>
<path d="M24.5816 20.3618V18.8066H25.1913V20.3618H24.5816Z" fill="black"/>
<path d="M25.1699 20.3618V18.8066H26.5414V20.3618H25.1699Z" fill="black"/>
<path d="M26.5207 20.3618V18.8066H27.7394V20.3618H26.5207Z" fill="black"/>
<path d="M27.566 20.3618V18.8066H28.6326V20.3618H27.566Z" fill="black"/>
<path d="M28.307 20.3618V18.8066H28.9168V20.3618H28.307Z" fill="black"/>
<path d="M6 23.3618V21.8066H7.06665V23.3618H6Z" fill="black"/>
<path d="M6.74108 23.3618V21.8066H8.11259V23.3618H6.74108Z" fill="black"/>
<path d="M7.95921 23.3618V21.8066H9.33072V23.3618H7.95921Z" fill="black"/>
<path d="M9.08086 23.3618V21.8066H10.1475V23.3618H9.08086Z" fill="black"/>
<path d="M10.1275 23.3618V21.8066H11.499V23.3618H10.1275Z" fill="black"/>
<path d="M11.3255 23.3618V21.8066H12.8498V23.3618H11.3255Z" fill="black"/>
<path d="M12.6763 23.3618V21.8066H13.286V23.3618H12.6763Z" fill="black"/>
<path d="M13.1118 23.3618V21.8066H14.1785V23.3618H13.1118Z" fill="black"/>
<path d="M14.0057 23.3618V21.8066H15.2244V23.3618H14.0057Z" fill="black"/>
<path d="M15.051 23.3618V21.8066H15.6607V23.3618H15.051Z" fill="black"/>
<path d="M15.6393 23.3618V21.8066H17.0108V23.3618H15.6393Z" fill="black"/>
<path d="M16.7609 23.3618V21.8066H18.1324V23.3618H16.7609Z" fill="black"/>
<path d="M17.9791 23.3618V21.8066H19.1978V23.3618H17.9791Z" fill="black"/>
<path d="M19.0243 23.3618V21.8066H20.3958V23.3618H19.0243Z" fill="black"/>
<path d="M20.4515 23.3618V21.8066H21.6702V23.3618H20.4515Z" fill="black"/>
<path d="M21.4968 23.3618V21.8066H23.021V23.3618H21.4968Z" fill="black"/>
<path d="M22.81 23.3618V21.8066H24.3343V23.3618H22.81Z" fill="black"/>
<path d="M24.0081 23.3618V21.8066H24.6178V23.3618H24.0081Z" fill="black"/>
<path d="M24.4436 23.3618V21.8066H26.1206V23.3618H24.4436Z" fill="black"/>
<path d="M25.9659 23.3618V21.8066H27.1847V23.3618H25.9659Z" fill="black"/>
<path d="M27.0112 23.3618V21.8066H28.3827V23.3618H27.0112Z" fill="black"/>
<path d="M28.0766 23.3618V21.8066H29.1432V23.3618H28.0766Z" fill="black"/>
<path d="M28.8176 23.3618V21.8066H30.3419V23.3618H28.8176Z" fill="black"/>
<path d="M30.1684 23.3618V21.8066H30.7781V23.3618H30.1684Z" fill="black"/>
<path d="M6 26.3618V24.8066H7.67703V26.3618H6Z" fill="black"/>
<path d="M7.57993 26.3618V24.8066H8.79868V26.3618H7.57993Z" fill="black"/>
<path d="M8.6252 26.3618V24.8066H9.99671V26.3618H8.6252Z" fill="black"/>
<path d="M9.69057 26.3618V24.8066H11.2148V26.3618H9.69057Z" fill="black"/>
<path d="M10.8886 26.3618V24.8066H12.4129V26.3618H10.8886Z" fill="black"/>
<path d="M12.163 26.3618V24.8066H12.9248V26.3618H12.163Z" fill="black"/>
<path d="M12.6749 26.3618V24.8066H13.2847V26.3618H12.6749Z" fill="black"/>
<path d="M13.2633 26.3618V24.8066H15.3972V26.3618H13.2633Z" fill="black"/>
<path d="M15.1849 26.3618V24.8066H16.7092V26.3618H15.1849Z" fill="black"/>
<path d="M16.3829 26.3618V24.8066H16.9926V26.3618H16.3829Z" fill="black"/>
<path d="M16.8185 26.3618V24.8066H18.3428V26.3618H16.8185Z" fill="black"/>
<path d="M18.0929 26.3618V24.8066H19.4644V26.3618H18.0929Z" fill="black"/>
<path d="M19.1583 26.3618V24.8066H20.6825V26.3618H19.1583Z" fill="black"/>
<path d="M20.3563 26.3618V24.8066H20.966V26.3618H20.3563Z" fill="black"/>
<path d="M20.9446 26.3618V24.8066H22.1634V26.3618H20.9446Z" fill="black"/>
<path d="M22.1426 26.3618V24.8066H23.5142V26.3618H22.1426Z" fill="black"/>
<path d="M23.3407 26.3618V24.8066H24.4073V26.3618H23.3407Z" fill="black"/>
<path d="M24.3109 26.3618V24.8066H25.6824V26.3618H24.3109Z" fill="black"/>
<path d="M25.4325 26.3618V24.8066H26.0423V26.3618H25.4325Z" fill="black"/>
<path d="M6 29.3618V27.8066H7.52427V29.3618H6Z" fill="black"/>
<path d="M7.27441 29.3618V27.8066H8.64592V29.3618H7.27441Z" fill="black"/>
<path d="M8.43492 29.3618V27.8066H9.95919V29.3618H8.43492Z" fill="black"/>
<path d="M9.74819 29.3618V27.8066H10.8148V29.3618H9.74819Z" fill="black"/>
<path d="M10.7948 29.3618V27.8066H12.1663V29.3618H10.7948Z" fill="black"/>
<path d="M11.9928 29.3618V27.8066H13.5171V29.3618H11.9928Z" fill="black"/>
<path d="M13.3436 29.3618V27.8066H13.9533V29.3618H13.3436Z" fill="black"/>
<path d="M13.7792 29.3618V27.8066H14.8458V29.3618H13.7792Z" fill="black"/>
<path d="M14.5203 29.3618V27.8066H16.0445V29.3618H14.5203Z" fill="black"/>
<path d="M15.871 29.3618V27.8066H17.3953V29.3618H15.871Z" fill="black"/>
<path d="M17.0691 29.3618V27.8066H19.051V29.3618H17.0691Z" fill="black"/>
<path d="M18.9532 29.3618V27.8066H19.5629V29.3618H18.9532Z" fill="black"/>
<path d="M19.3888 29.3618V27.8066H20.4554V29.3618H19.3888Z" fill="black"/>
<path d="M20.2826 29.3618V27.8066H21.5013V29.3618H20.2826Z" fill="black"/>
<path d="M21.3279 29.3618V27.8066H21.9376V29.3618H21.3279Z" fill="black"/>
<path d="M21.7634 29.3618V27.8066H23.2877V29.3618H21.7634Z" fill="black"/>
<path d="M23.1906 29.3618V27.8066H24.4093V29.3618H23.1906Z" fill="black"/>
<path d="M24.2359 29.3618V27.8066H24.8456V29.3618H24.2359Z" fill="black"/>
<path d="M24.6714 29.3618V27.8066H26.8054V29.3618H24.6714Z" fill="black"/>
<path d="M26.5555 29.3618V27.8066H28.0798V29.3618H26.5555Z" fill="black"/>
<path d="M27.9063 29.3618V27.8066H29.4306V29.3618H27.9063Z" fill="black"/>
<path d="M29.1807 29.3618V27.8066H30.2474V29.3618H29.1807Z" fill="black"/>
<path d="M29.9218 29.3618V27.8066H30.5315V29.3618H29.9218Z" fill="black"/>
<path d="M6 32.3618V30.8066H7.06665V32.3618H6Z" fill="black"/>
<path d="M6.74108 32.3618V30.8066H8.26535V32.3618H6.74108Z" fill="black"/>
<path d="M8.09187 32.3618V30.8066H9.61614V32.3618H8.09187Z" fill="black"/>
<path d="M9.44266 32.3618V30.8066H10.8142V32.3618H9.44266Z" fill="black"/>
<path d="M10.5643 32.3618V30.8066H11.174V32.3618H10.5643Z" fill="black"/>
<path d="M10.9999 32.3618V30.8066H12.5241V32.3618H10.9999Z" fill="black"/>
<path d="M12.3507 32.3618V30.8066H13.8749V32.3618H12.3507Z" fill="black"/>
<path d="M13.5487 32.3618V30.8066H14.9202V32.3618H13.5487Z" fill="black"/>
<path d="M14.8231 32.3618V30.8066H16.3474V32.3618H14.8231Z" fill="black"/>
<path d="M16.0211 32.3618V30.8066H16.6308V32.3618H16.0211Z" fill="black"/>
<path d="M16.4567 32.3618V30.8066H17.981V32.3618H16.4567Z" fill="black"/>
<path d="M17.7311 32.3618V30.8066H18.7978V32.3618H17.7311Z" fill="black"/>
<path d="M18.6249 32.3618V30.8066H19.9964V32.3618H18.6249Z" fill="black"/>
<path d="M19.6903 32.3618V30.8066H21.2146V32.3618H19.6903Z" fill="black"/>
<path d="M20.8883 32.3618V30.8066H22.4126V32.3618H20.8883Z" fill="black"/>
<path d="M22.1627 32.3618V30.8066H23.687V32.3618H22.1627Z" fill="black"/>
<path d="M23.5135 32.3618V30.8066H24.885V32.3618H23.5135Z" fill="black"/>
<path d="M24.6352 32.3618V30.8066H25.2449V32.3618H24.6352Z" fill="black"/>
<path d="M6.15276 35.3618V33.8066H7.52427V35.3618H6.15276Z" fill="black"/>
<path d="M7.27441 35.3618V33.8066H8.64592V35.3618H7.27441Z" fill="black"/>
<path d="M8.49254 35.3618V33.8066H9.71128V35.3618H8.49254Z" fill="black"/>
<path d="M9.53781 35.3618V33.8066H11.5197V35.3618H9.53781Z" fill="black"/>
<path d="M11.4219 35.3618V33.8066H12.4886V35.3618H11.4219Z" fill="black"/>
<path d="M12.3158 35.3618V33.8066H13.6873V35.3618H12.3158Z" fill="black"/>
<path d="M13.4763 35.3618V33.8066H15.0005V35.3618H13.4763Z" fill="black"/>
<path d="M14.6743 35.3618V33.8066H16.1986V35.3618H14.6743Z" fill="black"/>
<path d="M15.9487 35.3618V33.8066H16.5584V35.3618H15.9487Z" fill="black"/>
<path d="M16.3843 35.3618V33.8066H17.4509V35.3618H16.3843Z" fill="black"/>
<path d="M17.2781 35.3618V33.8066H18.4969V35.3618H17.2781Z" fill="black"/>
<path d="M18.3234 35.3618V33.8066H18.9331V35.3618H18.3234Z" fill="black"/>
<path d="M18.7589 35.3618V33.8066H20.2832V35.3618H18.7589Z" fill="black"/>
<path d="M20.1861 35.3618V33.8066H21.4049V35.3618H20.1861Z" fill="black"/>
<path d="M21.2314 35.3618V33.8066H21.9932V35.3618H21.2314Z" fill="black"/>
<path d="M21.7433 35.3618V33.8066H22.5051V35.3618H21.7433Z" fill="black"/>
<path d="M6.30485 8.25723H32.6951V8.32695H6.30485V8.25723ZM6.30485 11.2572H21.3634V11.327H6.30485V11.2572ZM21.3634 11.5368H22.3939V11.6068H21.3634V11.5368ZM22.394 11.2572H30.9115V11.327H22.394V11.2572ZM6.30485 14.2572H20.1453V14.327H6.30485V14.2572ZM6.30485 17.2572H31.0656V17.327H6.30485V17.2572ZM6.30485 20.2572H12.4679V20.327H6.30485V20.2572ZM12.4679 20.5368H13.4984V20.6068H12.4679V20.5368ZM13.4984 20.2572H28.6112V20.327H13.4984V20.2572ZM6.30485 23.2572H30.4733V23.327H6.30485V23.2572ZM6.30485 26.2572H25.7374V26.327H6.30485V26.2572ZM6.30485 29.2572H30.226V29.327H6.30485V29.2572ZM6.30485 32.2572H24.94V32.327H6.30485V32.2572ZM6.30485 35.2572H22.6914V35.327H6.30485V35.2572Z" fill="black"/>
</g>
<rect width="12" height="14" transform="translate(25 18.8066)" fill="white"/>
<path d="M30.6787 22.668C31.5999 22.668 32.2721 22.8665 32.6953 23.2637C33.1185 23.6576 33.3301 24.2012 33.3301 24.8945C33.3301 25.207 33.2829 25.5065 33.1885 25.793C33.0941 26.0762 32.9395 26.3285 32.7246 26.5498C32.513 26.7712 32.2298 26.9469 31.875 27.0771C31.5202 27.2041 31.0824 27.2676 30.5615 27.2676H29.9121V29.8066H28.3984V22.668H30.6787ZM30.6006 23.9082H29.9121V26.0273H30.4102C30.6934 26.0273 30.9391 25.9899 31.1475 25.915C31.3558 25.8402 31.5169 25.723 31.6309 25.5635C31.7448 25.404 31.8018 25.1989 31.8018 24.9482C31.8018 24.5967 31.7041 24.3363 31.5088 24.167C31.3135 23.9945 31.0107 23.9082 30.6006 23.9082Z" fill="#585858"/>
</g>
<path d="M11.3333 38.8066H2V45.1547H11.3333V38.8066Z" fill="#E19E55"/>
</g>
<defs>
<filter id="filter0_d_238_43650" x="0" y="1.80664" width="39" height="35" filterUnits="userSpaceOnUse" color-interpolation-filters="sRGB">
<feFlood flood-opacity="0" result="BackgroundImageFix"/>
<feColorMatrix in="SourceAlpha" type="matrix" values="0 0 0 0 0 0 0 0 0 0 0 0 0 0 0 0 0 0 127 0" result="hardAlpha"/>
<feOffset dy="1"/>
<feGaussianBlur stdDeviation="1"/>
<feComposite in2="hardAlpha" operator="out"/>
<feColorMatrix type="matrix" values="0 0 0 0 0 0 0 0 0 0 0 0 0 0 0 0 0 0 0.1 0"/>
<feBlend mode="normal" in2="BackgroundImageFix" result="effect1_dropShadow_238_43650"/>
<feBlend mode="normal" in="SourceGraphic" in2="effect1_dropShadow_238_43650" result="shape"/>
</filter>
<filter id="filter1_i_238_43650" x="2" y="-2.19336" width="35" height="34" filterUnits="userSpaceOnUse" color-interpolation-filters="sRGB">
<feFlood flood-opacity="0" result="BackgroundImageFix"/>
<feBlend mode="normal" in="SourceGraphic" in2="BackgroundImageFix" result="shape"/>
<feColorMatrix in="SourceAlpha" type="matrix" values="0 0 0 0 0 0 0 0 0 0 0 0 0 0 0 0 0 0 127 0" result="hardAlpha"/>
<feOffset dy="-5"/>
<feGaussianBlur stdDeviation="3.5"/>
<feComposite in2="hardAlpha" operator="arithmetic" k2="-1" k3="1"/>
<feColorMatrix type="matrix" values="0 0 0 0 1 0 0 0 0 1 0 0 0 0 1 0 0 0 1 0"/>
<feBlend mode="normal" in2="shape" result="effect1_innerShadow_238_43650"/>
</filter>
<clipPath id="clip0_238_43650">
<rect width="39" height="46.3481" fill="white" transform="translate(0 0.806641)"/>
</clipPath>
<clipPath id="clip1_238_43650">
<rect width="35" height="31" fill="white" transform="translate(2 2.80664)"/>
</clipPath>
<clipPath id="clip2_238_43650">
<rect width="35" height="29" fill="white" transform="translate(2 2.80664)"/>
</clipPath>
</defs>
</svg>
