<svg width="39" height="47" viewBox="0 0 39 47" fill="none" xmlns="http://www.w3.org/2000/svg">
<g clip-path="url(#clip0_238_44090)">
<g clip-path="url(#clip1_238_44090)" filter="url(#filter0_d_238_44090)">
<rect width="35" height="31" transform="translate(2 2.44824)" fill="white"/>
<g opacity="0.3" clip-path="url(#clip2_238_44090)" filter="url(#filter1_i_238_44090)">
<rect width="35" height="29" transform="translate(2 2.44824)" fill="white"/>
<path d="M6 8.00342V6.44824H6.76503V8.00342H6Z" fill="black"/>
<path d="M6.74422 8.00342V6.44824H8.88724V8.00342H6.74422Z" fill="black"/>
<path d="M8.674 8.00342V6.44824H10.2047V8.00342H8.674Z" fill="black"/>
<path d="M9.87711 8.00342V6.44824H10.4894V8.00342H9.87711Z" fill="black"/>
<path d="M10.3145 8.00342V6.44824H11.6918V8.00342H10.3145Z" fill="black"/>
<path d="M11.4799 8.00342V6.44824H13.0107V8.00342H11.4799Z" fill="black"/>
<path d="M12.683 8.00342V6.44824H14.2138V8.00342H12.683Z" fill="black"/>
<path d="M13.8861 8.00342V6.44824H15.4169V8.00342H13.8861Z" fill="black"/>
<path d="M15.205 8.00342V6.44824H15.8173V8.00342H15.205Z" fill="black"/>
<path d="M15.6424 8.00342V6.44824H17.1731V8.00342H15.6424Z" fill="black"/>
<path d="M16.9222 8.00342V6.44824H17.5345V8.00342H16.9222Z" fill="black"/>
<path d="M17.3596 8.00342V6.44824H18.7369V8.00342H17.3596Z" fill="black"/>
<path d="M18.6784 8.00342V6.44824H19.9023V8.00342H18.6784Z" fill="black"/>
<path d="M19.7281 8.00342V6.44824H20.7993V8.00342H19.7281Z" fill="black"/>
<path d="M20.6258 8.00342V6.44824H22.1565V8.00342H20.6258Z" fill="black"/>
<path d="M21.9823 8.00342V6.44824H23.0534V8.00342H21.9823Z" fill="black"/>
<path d="M22.7265 8.00342V6.44824H23.7977V8.00342H22.7265Z" fill="black"/>
<path d="M23.7775 8.00342V6.44824H25.0014V8.00342H23.7775Z" fill="black"/>
<path d="M24.9806 8.00342V6.44824H26.358V8.00342H24.9806Z" fill="black"/>
<path d="M26.1837 8.00342V6.44824H26.796V8.00342H26.1837Z" fill="black"/>
<path d="M26.6211 8.00342V6.44824H27.6923V8.00342H26.6211Z" fill="black"/>
<path d="M27.5188 8.00342V6.44824H28.7427V8.00342H27.5188Z" fill="black"/>
<path d="M28.5685 8.00342V6.44824H29.1808V8.00342H28.5685Z" fill="black"/>
<path d="M29.0059 8.00342V6.44824H30.077V8.00342H29.0059Z" fill="black"/>
<path d="M29.7501 8.00342V6.44824H31.2808V8.00342H29.7501Z" fill="black"/>
<path d="M31.1066 8.00342V6.44824H32.6373V8.00342H31.1066Z" fill="black"/>
<path d="M32.3097 8.00342V6.44824H32.922V8.00342H32.3097Z" fill="black"/>
<path d="M6 11.0034V9.44824H7.68414V11.0034H6Z" fill="black"/>
<path d="M7.52876 11.0034V9.44824H8.75267V11.0034H7.52876Z" fill="black"/>
<path d="M8.57846 11.0034V9.44824H9.95577V11.0034H8.57846Z" fill="black"/>
<path d="M9.64834 11.0034V9.44824H10.7195V11.0034H9.64834Z" fill="black"/>
<path d="M10.3926 11.0034V9.44824H11.9233V11.0034H10.3926Z" fill="black"/>
<path d="M11.7491 11.0034V9.44824H12.3614V11.0034H11.7491Z" fill="black"/>
<path d="M12.1865 11.0034V9.44824H13.8706V11.0034H12.1865Z" fill="black"/>
<path d="M13.7731 11.0034V9.44824H14.997V11.0034H13.7731Z" fill="black"/>
<path d="M14.8228 11.0034V9.44824H16.2001V11.0034H14.8228Z" fill="black"/>
<path d="M15.8927 11.0034V9.44824H17.4234V11.0034H15.8927Z" fill="black"/>
<path d="M17.0958 11.0034V9.44824H18.6265V11.0034H17.0958Z" fill="black"/>
<path d="M18.3756 11.0034V9.44824H18.9879V11.0034H18.3756Z" fill="black"/>
<path d="M18.9664 11.0034V9.44824H20.3437V11.0034H18.9664Z" fill="black"/>
<path d="M20.1695 11.0034V9.44824H21.7002V11.0034H20.1695Z" fill="black"/>
<path d="M21.526 11.0034V9.44824H22.9033V11.0034H21.526Z" fill="black"/>
<path d="M22.6524 11.0034V9.44824H23.7236V11.0034H22.6524Z" fill="black"/>
<path d="M23.5501 11.0034V9.44824H25.0808V11.0034H23.5501Z" fill="black"/>
<path d="M24.7532 11.0034V9.44824H26.2839V11.0034H24.7532Z" fill="black"/>
<path d="M26.033 11.0034V9.44824H27.4103V11.0034H26.033Z" fill="black"/>
<path d="M27.1028 11.0034V9.44824H27.7151V11.0034H27.1028Z" fill="black"/>
<path d="M6 14.0034V12.4482H7.37732V14.0034H6Z" fill="black"/>
<path d="M7.1264 14.0034V12.4482H8.65713V14.0034H7.1264Z" fill="black"/>
<path d="M8.48291 14.0034V12.4482H10.0136V14.0034H8.48291Z" fill="black"/>
<path d="M9.76272 14.0034V12.4482H10.8339V14.0034H9.76272Z" fill="black"/>
<path d="M10.6604 14.0034V12.4482H11.7315V14.0034H10.6604Z" fill="black"/>
<path d="M11.558 14.0034V12.4482H13.0887V14.0034H11.558Z" fill="black"/>
<path d="M12.9145 14.0034V12.4482H14.2918V14.0034H12.9145Z" fill="black"/>
<path d="M14.1176 14.0034V12.4482H15.6483V14.0034H14.1176Z" fill="black"/>
<path d="M15.4741 14.0034V12.4482H17.0048V14.0034H15.4741Z" fill="black"/>
<path d="M16.6772 14.0034V12.4482H17.2895V14.0034H16.6772Z" fill="black"/>
<path d="M17.1146 14.0034V12.4482H18.1858V14.0034H17.1146Z" fill="black"/>
<path d="M17.8588 14.0034V12.4482H19.3896V14.0034H17.8588Z" fill="black"/>
<path d="M19.2154 14.0034V12.4482H20.5927V14.0034H19.2154Z" fill="black"/>
<path d="M20.4386 14.0034V12.4482H21.6626V14.0034H20.4386Z" fill="black"/>
<path d="M21.4883 14.0034V12.4482H23.0191V14.0034H21.4883Z" fill="black"/>
<path d="M22.8449 14.0034V12.4482H24.3756V14.0034H22.8449Z" fill="black"/>
<path d="M24.2014 14.0034V12.4482H25.7321V14.0034H24.2014Z" fill="black"/>
<path d="M25.5579 14.0034V12.4482H26.1702V14.0034H25.5579Z" fill="black"/>
<path d="M6.15341 17.0034V15.4482H7.53073V17.0034H6.15341Z" fill="black"/>
<path d="M7.27981 17.0034V15.4482H8.81054V17.0034H7.27981Z" fill="black"/>
<path d="M8.48291 17.0034V15.4482H10.0136V17.0034H8.48291Z" fill="black"/>
<path d="M9.76272 17.0034V15.4482H11.14V17.0034H9.76272Z" fill="black"/>
<path d="M10.8891 17.0034V15.4482H12.4198V17.0034H10.8891Z" fill="black"/>
<path d="M12.0922 17.0034V15.4482H13.3168V17.0034H12.0922Z" fill="black"/>
<path d="M12.9899 17.0034V15.4482H14.5206V17.0034H12.9899Z" fill="black"/>
<path d="M14.3464 17.0034V15.4482H15.4175V17.0034H14.3464Z" fill="black"/>
<path d="M15.244 17.0034V15.4482H16.009V17.0034H15.244Z" fill="black"/>
<path d="M15.7581 17.0034V15.4482H16.3704V17.0034H15.7581Z" fill="black"/>
<path d="M16.3489 17.0034V15.4482H17.7262V17.0034H16.3489Z" fill="black"/>
<path d="M17.4753 17.0034V15.4482H19.0061V17.0034H17.4753Z" fill="black"/>
<path d="M18.6784 17.0034V15.4482H20.0557V17.0034H18.6784Z" fill="black"/>
<path d="M19.7483 17.0034V15.4482H21.1256V17.0034H19.7483Z" fill="black"/>
<path d="M20.9137 17.0034V15.4482H21.9849V17.0034H20.9137Z" fill="black"/>
<path d="M21.8114 17.0034V15.4482H23.1887V17.0034H21.8114Z" fill="black"/>
<path d="M22.9768 17.0034V15.4482H24.048V17.0034H22.9768Z" fill="black"/>
<path d="M23.721 17.0034V15.4482H25.2517V17.0034H23.721Z" fill="black"/>
<path d="M25.0775 17.0034V15.4482H26.4548V17.0034H25.0775Z" fill="black"/>
<path d="M26.2806 17.0034V15.4482H27.3518V17.0034H26.2806Z" fill="black"/>
<path d="M27.0249 17.0034V15.4482H27.7899V17.0034H27.0249Z" fill="black"/>
<path d="M27.539 17.0034V15.4482H28.1513V17.0034H27.539Z" fill="black"/>
<path d="M6 20.0034V18.4482H7.99028V20.0034H6Z" fill="black"/>
<path d="M7.8921 20.0034V18.4482H9.42283V20.0034H7.8921Z" fill="black"/>
<path d="M9.24861 20.0034V18.4482H10.3198V20.0034H9.24861Z" fill="black"/>
<path d="M10.1462 20.0034V18.4482H11.2174V20.0034H10.1462Z" fill="black"/>
<path d="M10.8905 20.0034V18.4482H11.9616V20.0034H10.8905Z" fill="black"/>
<path d="M11.7881 20.0034V18.4482H12.8593V20.0034H11.7881Z" fill="black"/>
<path d="M12.6857 20.0034V18.4482H14.2165V20.0034H12.6857Z" fill="black"/>
<path d="M13.9655 20.0034V18.4482H15.0367V20.0034H13.9655Z" fill="black"/>
<path d="M14.7098 20.0034V18.4482H16.2405V20.0034H14.7098Z" fill="black"/>
<path d="M15.9129 20.0034V18.4482H17.2902V20.0034H15.9129Z" fill="black"/>
<path d="M16.9451 20.0034V18.4482H18.4758V20.0034H16.9451Z" fill="black"/>
<path d="M18.2249 20.0034V18.4482H19.296V20.0034H18.2249Z" fill="black"/>
<path d="M19.1225 20.0034V18.4482H19.7348V20.0034H19.1225Z" fill="black"/>
<path d="M19.5599 20.0034V18.4482H21.0906V20.0034H19.5599Z" fill="black"/>
<path d="M20.8397 20.0034V18.4482H21.9109V20.0034H20.8397Z" fill="black"/>
<path d="M21.8908 20.0034V18.4482H23.2681V20.0034H21.8908Z" fill="black"/>
<path d="M23.0172 20.0034V18.4482H24.0883V20.0034H23.0172Z" fill="black"/>
<path d="M24.0682 20.0034V18.4482H25.2921V20.0034H24.0682Z" fill="black"/>
<path d="M25.1179 20.0034V18.4482H27.1082V20.0034H25.1179Z" fill="black"/>
<path d="M27.01 20.0034V18.4482H28.5407V20.0034H27.01Z" fill="black"/>
<path d="M28.2898 20.0034V18.4482H29.6671V20.0034H28.2898Z" fill="black"/>
<path d="M29.5696 20.0034V18.4482H30.9469V20.0034H29.5696Z" fill="black"/>
<path d="M30.696 20.0034V18.4482H31.461V20.0034H30.696Z" fill="black"/>
<path d="M31.2101 20.0034V18.4482H31.8224V20.0034H31.2101Z" fill="black"/>
<path d="M6 23.0034V21.4482H7.53073V23.0034H6Z" fill="black"/>
<path d="M7.35651 23.0034V21.4482H8.88724V23.0034H7.35651Z" fill="black"/>
<path d="M8.71303 23.0034V21.4482H10.2438V23.0034H8.71303Z" fill="black"/>
<path d="M9.91613 23.0034V21.4482H10.5284V23.0034H9.91613Z" fill="black"/>
<path d="M10.3535 23.0034V21.4482H12.0377V23.0034H10.3535Z" fill="black"/>
<path d="M11.9011 23.0034V21.4482H13.2785V23.0034H11.9011Z" fill="black"/>
<path d="M13.1042 23.0034V21.4482H14.1754V23.0034H13.1042Z" fill="black"/>
<path d="M14.0019 23.0034V21.4482H15.073V23.0034H14.0019Z" fill="black"/>
<path d="M14.7461 23.0034V21.4482H16.2768V23.0034H14.7461Z" fill="black"/>
<path d="M15.9492 23.0034V21.4482H17.4799V23.0034H15.9492Z" fill="black"/>
<path d="M17.229 23.0034V21.4482H17.8413V23.0034H17.229Z" fill="black"/>
<path d="M17.6664 23.0034V21.4482H19.0437V23.0034H17.6664Z" fill="black"/>
<path d="M18.9462 23.0034V21.4482H20.0174V23.0034H18.9462Z" fill="black"/>
<path d="M19.6904 23.0034V21.4482H21.2212V23.0034H19.6904Z" fill="black"/>
<path d="M20.9703 23.0034V21.4482H22.0414V23.0034H20.9703Z" fill="black"/>
<path d="M21.7145 23.0034V21.4482H23.2452V23.0034H21.7145Z" fill="black"/>
<path d="M22.9176 23.0034V21.4482H24.2949V23.0034H22.9176Z" fill="black"/>
<path d="M24.083 23.0034V21.4482H24.6953V23.0034H24.083Z" fill="black"/>
<path d="M24.5204 23.0034V21.4482H26.0511V23.0034H24.5204Z" fill="black"/>
<path d="M25.8769 23.0034V21.4482H27.4076V23.0034H25.8769Z" fill="black"/>
<path d="M27.1567 23.0034V21.4482H28.534V23.0034H27.1567Z" fill="black"/>
<path d="M28.3222 23.0034V21.4482H28.9344V23.0034H28.3222Z" fill="black"/>
<path d="M6.15341 26.0034V24.4482H7.37732V26.0034H6.15341Z" fill="black"/>
<path d="M7.2031 26.0034V24.4482H8.42769V26.0034H7.2031Z" fill="black"/>
<path d="M8.10074 26.0034V24.4482H9.32532V26.0034H8.10074Z" fill="black"/>
<path d="M8.99837 26.0034V24.4482H10.5291V26.0034H8.99837Z" fill="black"/>
<path d="M10.2015 26.0034V24.4482H11.5788V26.0034H10.2015Z" fill="black"/>
<path d="M11.2714 26.0034V24.4482H12.8021V26.0034H11.2714Z" fill="black"/>
<path d="M12.4745 26.0034V24.4482H14.0052V26.0034H12.4745Z" fill="black"/>
<path d="M13.7543 26.0034V24.4482H14.3666V26.0034H13.7543Z" fill="black"/>
<path d="M14.5529 25.6828V25.5736H15.8207V25.6828H14.5529Z" fill="black"/>
<path d="M15.5145 26.0034V24.4482H16.1268V26.0034H15.5145Z" fill="black"/>
<path d="M15.9519 26.0034V24.4482H17.4827V26.0034H15.9519Z" fill="black"/>
<path d="M17.3852 26.0034V24.4482H18.7625V26.0034H17.3852Z" fill="black"/>
<path d="M18.5883 26.0034V24.4482H20.119V26.0034H18.5883Z" fill="black"/>
<path d="M19.8681 26.0034V24.4482H20.4804V26.0034H19.8681Z" fill="black"/>
<path d="M20.3055 26.0034V24.4482H21.6828V26.0034H20.3055Z" fill="black"/>
<path d="M21.5853 26.0034V24.4482H22.8092V26.0034H21.5853Z" fill="black"/>
<path d="M22.7884 26.0034V24.4482H24.1657V26.0034H22.7884Z" fill="black"/>
<path d="M23.9915 26.0034V24.4482H25.0627V26.0034H23.9915Z" fill="black"/>
<path d="M24.7357 26.0034V24.4482H25.8069V26.0034H24.7357Z" fill="black"/>
<path d="M25.7868 26.0034V24.4482H27.1641V26.0034H25.7868Z" fill="black"/>
<path d="M26.9899 26.0034V24.4482H28.5206V26.0034H26.9899Z" fill="black"/>
<path d="M28.3464 26.0034V24.4482H29.8771V26.0034H28.3464Z" fill="black"/>
<path d="M29.5495 26.0034V24.4482H30.9268V26.0034H29.5495Z" fill="black"/>
<path d="M30.7149 26.0034V24.4482H31.3272V26.0034H30.7149Z" fill="black"/>
<path d="M6 29.0034V27.4482H7.07117V29.0034H6Z" fill="black"/>
<path d="M6.89763 29.0034V27.4482H8.12154V29.0034H6.89763Z" fill="black"/>
<path d="M7.94733 29.0034V27.4482H8.55962V29.0034H7.94733Z" fill="black"/>
<path d="M8.53814 29.0034V27.4482H9.76205V29.0034H8.53814Z" fill="black"/>
<path d="M9.58784 29.0034V27.4482H10.8124V29.0034H9.58784Z" fill="black"/>
<path d="M10.4855 29.0034V27.4482H11.71V29.0034H10.4855Z" fill="black"/>
<path d="M11.3831 29.0034V27.4482H12.9138V29.0034H11.3831Z" fill="black"/>
<path d="M12.5862 29.0034V27.4482H13.9635V29.0034H12.5862Z" fill="black"/>
<path d="M13.6561 29.0034V27.4482H14.2684V29.0034H13.6561Z" fill="black"/>
<path d="M14.4548 28.6828V28.5736H15.7225V28.6828H14.4548Z" fill="black"/>
<path d="M15.4164 29.0034V27.4482H16.0286V29.0034H15.4164Z" fill="black"/>
<path d="M16.0072 29.0034V27.4482H17.5379V29.0034H16.0072Z" fill="black"/>
<path d="M17.3825 29.0034V27.4482H18.7598V29.0034H17.3825Z" fill="black"/>
<path d="M18.6623 29.0034V27.4482H19.8862V29.0034H18.6623Z" fill="black"/>
<path d="M19.8654 29.0034V27.4482H21.2428V29.0034H19.8654Z" fill="black"/>
<path d="M21.0685 29.0034V27.4482H22.5993V29.0034H21.0685Z" fill="black"/>
<path d="M22.5785 29.0034V27.4482H23.9558V29.0034H22.5785Z" fill="black"/>
<path d="M23.6282 29.0034V27.4482H25.1589V29.0034H23.6282Z" fill="black"/>
<path d="M25.0614 29.0034V27.4482H26.4387V29.0034H25.0614Z" fill="black"/>
<path d="M26.2645 29.0034V27.4482H27.7952V29.0034H26.2645Z" fill="black"/>
<path d="M27.621 29.0034V27.4482H28.2333V29.0034H27.621Z" fill="black"/>
<path d="M28.0584 29.0034V27.4482H29.5891V29.0034H28.0584Z" fill="black"/>
<path d="M29.4916 29.0034V27.4482H30.8689V29.0034H29.4916Z" fill="black"/>
<path d="M30.6947 29.0034V27.4482H31.307V29.0034H30.6947Z" fill="black"/>
<path d="M6 32.0034V30.4482H7.07117V32.0034H6Z" fill="black"/>
<path d="M6.89763 32.0034V30.4482H8.88791V32.0034H6.89763Z" fill="black"/>
<path d="M8.94314 32.0034V30.4482H10.3205V32.0034H8.94314Z" fill="black"/>
<path d="M10.0695 32.0034V30.4482H11.4469V32.0034H10.0695Z" fill="black"/>
<path d="M11.2928 32.0034V30.4482H12.5167V32.0034H11.2928Z" fill="black"/>
<path d="M12.3425 32.0034V30.4482H13.7198V32.0034H12.3425Z" fill="black"/>
<path d="M13.6223 32.0034V30.4482H15.1531V32.0034H13.6223Z" fill="black"/>
<path d="M14.8254 32.0034V30.4482H16.3562V32.0034H14.8254Z" fill="black"/>
<path d="M16.1052 32.0034V30.4482H16.7175V32.0034H16.1052Z" fill="black"/>
<path d="M16.6961 32.0034V30.4482H18.0734V32.0034H16.6961Z" fill="black"/>
<path d="M17.7458 32.0034V30.4482H18.8169V32.0034H17.7458Z" fill="black"/>
<path d="M18.6434 32.0034V30.4482H19.7146V32.0034H18.6434Z" fill="black"/>
<path d="M19.541 32.0034V30.4482H21.0717V32.0034H19.541Z" fill="black"/>
<path d="M20.8208 32.0034V30.4482H21.892V32.0034H20.8208Z" fill="black"/>
<path d="M21.565 32.0034V30.4482H23.0958V32.0034H21.565Z" fill="black"/>
<path d="M22.7682 32.0034V30.4482H24.1455V32.0034H22.7682Z" fill="black"/>
<path d="M23.8004 32.0034V30.4482H25.3311V32.0034H23.8004Z" fill="black"/>
<path d="M25.0802 32.0034V30.4482H26.1513V32.0034H25.0802Z" fill="black"/>
<path d="M25.9778 32.0034V30.4482H26.5901V32.0034H25.9778Z" fill="black"/>
<path d="M6 35.0034V33.4482H7.37732V35.0034H6Z" fill="black"/>
<path d="M7.06988 35.0034V33.4482H8.60061V35.0034H7.06988Z" fill="black"/>
<path d="M8.27298 35.0034V33.4482H9.34416V35.0034H8.27298Z" fill="black"/>
<path d="M9.17062 35.0034V33.4482H10.7013V35.0034H9.17062Z" fill="black"/>
<path d="M10.4504 35.0034V33.4482H11.5216V35.0034H10.4504Z" fill="black"/>
<path d="M11.1946 35.0034V33.4482H12.2658V35.0034H11.1946Z" fill="black"/>
<path d="M12.2457 35.0034V33.4482H13.4696V35.0034H12.2457Z" fill="black"/>
<path d="M13.4488 35.0034V33.4482H14.8261V35.0034H13.4488Z" fill="black"/>
<path d="M14.6519 35.0034V33.4482H16.0292V35.0034H14.6519Z" fill="black"/>
<path d="M15.8173 35.0034V33.4482H17.348V35.0034H15.8173Z" fill="black"/>
<path d="M17.1738 35.0034V33.4482H18.245V35.0034H17.1738Z" fill="black"/>
<path d="M18.2249 35.0034V33.4482H19.6022V35.0034H18.2249Z" fill="black"/>
<path d="M19.3513 35.0034V33.4482H19.9636V35.0034H19.3513Z" fill="black"/>
<path d="M19.9421 35.0034V33.4482H21.3194V35.0034H19.9421Z" fill="black"/>
<path d="M21.0685 35.0034V33.4482H22.4458V35.0034H21.0685Z" fill="black"/>
<path d="M22.2918 35.0034V33.4482H23.5157V35.0034H22.2918Z" fill="black"/>
<path d="M23.3415 35.0034V33.4482H24.7188V35.0034H23.3415Z" fill="black"/>
<path d="M24.6213 35.0034V33.4482H25.6925V35.0034H24.6213Z" fill="black"/>
<path d="M25.5189 35.0034V33.4482H27.0496V35.0034H25.5189Z" fill="black"/>
<path d="M26.7987 35.0034V33.4482H28.3294V35.0034H26.7987Z" fill="black"/>
<path d="M28.0018 35.0034V33.4482H29.5326V35.0034H28.0018Z" fill="black"/>
<path d="M29.2816 35.0034V33.4482H29.8939V35.0034H29.2816Z" fill="black"/>
<path d="M29.719 35.0034V33.4482H30.7902V35.0034H29.719Z" fill="black"/>
<path d="M30.6167 35.0034V33.4482H31.6878V35.0034H30.6167Z" fill="black"/>
<path d="M31.3609 35.0034V33.4482H31.9732V35.0034H31.3609Z" fill="black"/>
<path d="M6 38.0034V36.4482H7.07117V38.0034H6Z" fill="black"/>
<path d="M6.74422 38.0034V36.4482H8.27495V38.0034H6.74422Z" fill="black"/>
<path d="M8.02403 38.0034V36.4482H9.55476V38.0034H8.02403Z" fill="black"/>
<path d="M9.34286 38.0034V36.4482H10.8736V38.0034H9.34286Z" fill="black"/>
<path d="M10.546 38.0034V36.4482H11.9233V38.0034H10.546Z" fill="black"/>
<path d="M11.7114 38.0034V36.4482H12.3237V38.0034H11.7114Z" fill="black"/>
<path d="M12.1488 38.0034V36.4482H13.6795V38.0034H12.1488Z" fill="black"/>
<path d="M13.4286 38.0034V36.4482H14.8059V38.0034H13.4286Z" fill="black"/>
<path d="M14.555 38.0034V36.4482H15.6262V38.0034H14.555Z" fill="black"/>
<path d="M15.2992 38.0034V36.4482H16.3704V38.0034H15.2992Z" fill="black"/>
<path d="M16.3503 38.0034V36.4482H17.5742V38.0034H16.3503Z" fill="black"/>
<path d="M17.5534 38.0034V36.4482H18.9307V38.0034H17.5534Z" fill="black"/>
<path d="M18.7565 38.0034V36.4482H19.3688V38.0034H18.7565Z" fill="black"/>
<path d="M19.1939 38.0034V36.4482H20.2651V38.0034H19.1939Z" fill="black"/>
<path d="M20.0915 38.0034V36.4482H21.3154V38.0034H20.0915Z" fill="black"/>
<path d="M21.1412 38.0034V36.4482H21.7535V38.0034H21.1412Z" fill="black"/>
<path d="M6 41.0034V39.4482H7.53073V41.0034H6Z" fill="black"/>
<path d="M7.27981 41.0034V39.4482H8.81054V41.0034H7.27981Z" fill="black"/>
<path d="M8.48291 41.0034V39.4482H10.4732V41.0034H8.48291Z" fill="black"/>
<path d="M10.5284 41.0034V39.4482H11.7523V41.0034H10.5284Z" fill="black"/>
<path d="M11.7315 41.0034V39.4482H13.1088V41.0034H11.7315Z" fill="black"/>
<path d="M12.9346 41.0034V39.4482H14.3119V41.0034H12.9346Z" fill="black"/>
<path d="M14.1001 41.0034V39.4482H15.1712V41.0034H14.1001Z" fill="black"/>
<path d="M14.8443 41.0034V39.4482H16.2216V41.0034H14.8443Z" fill="black"/>
<path d="M15.8765 41.0034V39.4482H17.4072V41.0034H15.8765Z" fill="black"/>
<path d="M17.1563 41.0034V39.4482H18.2275V41.0034H17.1563Z" fill="black"/>
<path d="M17.9005 41.0034V39.4482H19.4312V41.0034H17.9005Z" fill="black"/>
<path d="M19.1036 41.0034V39.4482H19.7159V41.0034H19.1036Z" fill="black"/>
<path d="M19.541 41.0034V39.4482H21.0717V41.0034H19.541Z" fill="black"/>
<path d="M20.8208 41.0034V39.4482H21.4331V41.0034H20.8208Z" fill="black"/>
<path d="M6 44.0034V42.4482H8.14302V44.0034H6Z" fill="black"/>
<path d="M7.8921 44.0034V42.4482H8.96327V44.0034H7.8921Z" fill="black"/>
<path d="M8.78973 44.0034V42.4482H9.8609V44.0034H8.78973Z" fill="black"/>
<path d="M9.68736 44.0034V42.4482H10.7585V44.0034H9.68736Z" fill="black"/>
<path d="M10.585 44.0034V42.4482H11.6562V44.0034H10.585Z" fill="black"/>
<path d="M11.636 44.0034V42.4482H13.0134V44.0034H11.636Z" fill="black"/>
<path d="M12.8391 44.0034V42.4482H14.3699V44.0034H12.8391Z" fill="black"/>
<path d="M14.3491 44.0034V42.4482H15.7264V44.0034H14.3491Z" fill="black"/>
<path d="M15.5522 44.0034V42.4482H17.0829V44.0034H15.5522Z" fill="black"/>
<path d="M16.7553 44.0034V42.4482H18.1326V44.0034H16.7553Z" fill="black"/>
<path d="M17.9207 44.0034V42.4482H19.298V44.0034H17.9207Z" fill="black"/>
<path d="M19.0861 44.0034V42.4482H19.6984V44.0034H19.0861Z" fill="black"/>
<path d="M19.5235 44.0034V42.4482H20.5947V44.0034H19.5235Z" fill="black"/>
<path d="M20.4212 44.0034V42.4482H21.6451V44.0034H20.4212Z" fill="black"/>
<path d="M21.4708 44.0034V42.4482H22.0831V44.0034H21.4708Z" fill="black"/>
<path d="M21.9083 44.0034V42.4482H23.1328V44.0034H21.9083Z" fill="black"/>
<path d="M22.8059 44.0034V42.4482H24.3366V44.0034H22.8059Z" fill="black"/>
<path d="M24.1624 44.0034V42.4482H25.2336V44.0034H24.1624Z" fill="black"/>
<path d="M25.06 44.0034V42.4482H26.2846V44.0034H25.06Z" fill="black"/>
<path d="M25.9577 44.0034V42.4482H27.0288V44.0034H25.9577Z" fill="black"/>
<path d="M26.8553 44.0034V42.4482H27.9265V44.0034H26.8553Z" fill="black"/>
<path d="M27.7529 44.0034V42.4482H28.8241V44.0034H27.7529Z" fill="black"/>
<path d="M28.6506 44.0034V42.4482H29.2628V44.0034H28.6506Z" fill="black"/>
<path d="M29.088 44.0034V42.4482H30.1591V44.0034H29.088Z" fill="black"/>
<path d="M29.9856 44.0034V42.4482H31.0568V44.0034H29.9856Z" fill="black"/>
<path d="M30.7298 44.0034V42.4482H32.1071V44.0034H30.7298Z" fill="black"/>
<path d="M31.8952 44.0034V42.4482H32.5075V44.0034H31.8952Z" fill="black"/>
<path d="M6 47.0034V45.4482H7.53073V47.0034H6Z" fill="black"/>
<path d="M7.27981 47.0034V45.4482H8.81054V47.0034H7.27981Z" fill="black"/>
<path d="M8.63632 47.0034V45.4482H10.0136V47.0034H8.63632Z" fill="black"/>
<path d="M9.83943 47.0034V45.4482H11.3702V47.0034H9.83943Z" fill="black"/>
<path d="M11.1959 47.0034V45.4482H12.5733V47.0034H11.1959Z" fill="black"/>
<path d="M12.3223 47.0034V45.4482H13.3935V47.0034H12.3223Z" fill="black"/>
<path d="M13.22 47.0034V45.4482H14.7507V47.0034H13.22Z" fill="black"/>
<path d="M14.4231 47.0034V45.4482H15.9538V47.0034H14.4231Z" fill="black"/>
<path d="M15.7029 47.0034V45.4482H17.0802V47.0034H15.7029Z" fill="black"/>
<path d="M16.7728 47.0034V45.4482H17.8439V47.0034H16.7728Z" fill="black"/>
<path d="M17.8238 47.0034V45.4482H19.0477V47.0034H17.8238Z" fill="black"/>
<path d="M18.778 47.0034V45.4482H20.3087V47.0034H18.778Z" fill="black"/>
<path d="M20.0578 47.0034V45.4482H21.1289V47.0034H20.0578Z" fill="black"/>
<path d="M20.802 47.0034V45.4482H21.8732V47.0034H20.802Z" fill="black"/>
<path d="M21.853 47.0034V45.4482H23.0769V47.0034H21.853Z" fill="black"/>
<path d="M23.0561 47.0034V45.4482H24.4334V47.0034H23.0561Z" fill="black"/>
<path d="M24.2592 47.0034V45.4482H24.8715V47.0034H24.2592Z" fill="black"/>
<path d="M6 50.0034V48.4482H7.37732V50.0034H6Z" fill="black"/>
<path d="M7.27981 50.0034V48.4482H8.50372V50.0034H7.27981Z" fill="black"/>
<path d="M8.3295 50.0034V48.4482H10.3198V50.0034H8.3295Z" fill="black"/>
<path d="M10.2216 50.0034V48.4482H12.2119V50.0034H10.2216Z" fill="black"/>
<path d="M12.1137 50.0034V48.4482H13.1849V50.0034H12.1137Z" fill="black"/>
<path d="M13.0113 50.0034V48.4482H14.0825V50.0034H13.0113Z" fill="black"/>
<path d="M13.7556 50.0034V48.4482H15.7458V50.0034H13.7556Z" fill="black"/>
<path d="M15.6477 50.0034V48.4482H17.1784V50.0034H15.6477Z" fill="black"/>
<path d="M17.0042 50.0034V48.4482H18.3815V50.0034H17.0042Z" fill="black"/>
<path d="M18.2073 50.0034V48.4482H19.2784V50.0034H18.2073Z" fill="black"/>
<path d="M18.9515 50.0034V48.4482H20.3288V50.0034H18.9515Z" fill="black"/>
<path d="M20.1169 50.0034V48.4482H20.7292V50.0034H20.1169Z" fill="black"/>
<path d="M20.5543 50.0034V48.4482H22.0851V50.0034H20.5543Z" fill="black"/>
<path d="M21.9875 50.0034V48.4482H23.3649V50.0034H21.9875Z" fill="black"/>
<path d="M23.1906 50.0034V48.4482H24.7214V50.0034H23.1906Z" fill="black"/>
<path d="M24.4705 50.0034V48.4482H25.0827V50.0034H24.4705Z" fill="black"/>
<path d="M6 53.0034V51.4482H7.53073V53.0034H6Z" fill="black"/>
<path d="M7.27981 53.0034V51.4482H8.81054V53.0034H7.27981Z" fill="black"/>
<path d="M8.55962 53.0034V51.4482H10.0903V53.0034H8.55962Z" fill="black"/>
<path d="M9.83943 53.0034V51.4482H11.2167V53.0034H9.83943Z" fill="black"/>
<path d="M10.9093 53.0034V51.4482H12.44V53.0034H10.9093Z" fill="black"/>
<path d="M12.1124 53.0034V51.4482H13.4897V53.0034H12.1124Z" fill="black"/>
<path d="M13.2778 53.0034V51.4482H14.6552V53.0034H13.2778Z" fill="black"/>
<path d="M14.4433 53.0034V51.4482H15.0555V53.0034H14.4433Z" fill="black"/>
<path d="M15.0341 53.0034V51.4482H16.258V53.0034H15.0341Z" fill="black"/>
<path d="M16.0838 53.0034V51.4482H17.1549V53.0034H16.0838Z" fill="black"/>
<path d="M16.828 53.0034V51.4482H18.3587V53.0034H16.828Z" fill="black"/>
<path d="M18.1845 53.0034V51.4482H19.7152V53.0034H18.1845Z" fill="black"/>
<path d="M19.3876 53.0034V51.4482H20.7649V53.0034H19.3876Z" fill="black"/>
<path d="M20.4575 53.0034V51.4482H21.0698V53.0034H20.4575Z" fill="black"/>
<path d="M20.8949 53.0034V51.4482H21.9661V53.0034H20.8949Z" fill="black"/>
<path d="M21.7925 53.0034V51.4482H23.7828V53.0034H21.7925Z" fill="black"/>
<path d="M23.838 53.0034V51.4482H25.2153V53.0034H23.838Z" fill="black"/>
<path d="M25.1178 53.0034V51.4482H26.3418V53.0034H25.1178Z" fill="black"/>
<path d="M26.1675 53.0034V51.4482H27.5449V53.0034H26.1675Z" fill="black"/>
<path d="M27.2374 53.0034V51.4482H28.3086V53.0034H27.2374Z" fill="black"/>
<path d="M27.9816 53.0034V51.4482H29.5124V53.0034H27.9816Z" fill="black"/>
<path d="M29.4149 53.0034V51.4482H30.7922V53.0034H29.4149Z" fill="black"/>
<path d="M30.618 53.0034V51.4482H31.6891V53.0034H30.618Z" fill="black"/>
<path d="M31.3622 53.0034V51.4482H31.9745V53.0034H31.3622Z" fill="black"/>
<path d="M6 56.0034V54.4482H7.37732V56.0034H6Z" fill="black"/>
<path d="M7.27981 56.0034V54.4482H8.50372V56.0034H7.27981Z" fill="black"/>
<path d="M8.48291 56.0034V54.4482H9.86023V56.0034H8.48291Z" fill="black"/>
<path d="M9.68602 56.0034V54.4482H11.0633V56.0034H9.68602Z" fill="black"/>
<path d="M10.8124 56.0034V54.4482H12.3431V56.0034H10.8124Z" fill="black"/>
<path d="M12.0155 56.0034V54.4482H13.3928V56.0034H12.0155Z" fill="black"/>
<path d="M13.2388 56.0034V54.4482H14.6161V56.0034H13.2388Z" fill="black"/>
<path d="M14.4419 56.0034V54.4482H15.8192V56.0034H14.4419Z" fill="black"/>
<path d="M15.6073 56.0034V54.4482H16.2196V56.0034H15.6073Z" fill="black"/>
<path d="M16.0447 56.0034V54.4482H18.1878V56.0034H16.0447Z" fill="black"/>
<path d="M17.9368 56.0034V54.4482H19.4676V56.0034H17.9368Z" fill="black"/>
<path d="M19.2934 56.0034V54.4482H20.3645V56.0034H19.2934Z" fill="black"/>
<path d="M20.191 56.0034V54.4482H21.5683V56.0034H20.191Z" fill="black"/>
<path d="M21.3174 56.0034V54.4482H22.8481V56.0034H21.3174Z" fill="black"/>
<path d="M22.6739 56.0034V54.4482H23.2862V56.0034H22.6739Z" fill="black"/>
<path d="M23.1113 56.0034V54.4482H24.642V56.0034H23.1113Z" fill="black"/>
<path d="M24.3911 56.0034V54.4482H25.7684V56.0034H24.3911Z" fill="black"/>
<path d="M25.461 56.0034V54.4482H26.9917V56.0034H25.461Z" fill="black"/>
<path d="M26.6641 56.0034V54.4482H27.2764V56.0034H26.6641Z" fill="black"/>
<path d="M27.1015 56.0034V54.4482H28.6322V56.0034H27.1015Z" fill="black"/>
<path d="M28.3813 56.0034V54.4482H29.4525V56.0034H28.3813Z" fill="black"/>
<path d="M29.2789 56.0034V54.4482H30.6563V56.0034H29.2789Z" fill="black"/>
<path d="M30.5978 56.0034V54.4482H31.8217V56.0034H30.5978Z" fill="black"/>
<path d="M31.6475 56.0034V54.4482H32.4125V56.0034H31.6475Z" fill="black"/>
<path d="M32.1616 56.0034V54.4482H32.7739V56.0034H32.1616Z" fill="black"/>
<path d="M6 59.0034V57.4482H8.14302V59.0034H6Z" fill="black"/>
<path d="M7.8921 59.0034V57.4482H9.42283V59.0034H7.8921Z" fill="black"/>
<path d="M9.0952 59.0034V57.4482H9.70749V59.0034H9.0952Z" fill="black"/>
<path d="M9.68602 59.0034V57.4482H11.0633V59.0034H9.68602Z" fill="black"/>
<path d="M10.7357 59.0034V57.4482H12.2664V59.0034H10.7357Z" fill="black"/>
<path d="M11.9388 59.0034V57.4482H13.01V59.0034H11.9388Z" fill="black"/>
<path d="M12.8364 59.0034V57.4482H13.9076V59.0034H12.8364Z" fill="black"/>
<path d="M13.7341 59.0034V57.4482H15.2648V59.0034H13.7341Z" fill="black"/>
<path d="M14.9372 59.0034V57.4482H16.3145V59.0034H14.9372Z" fill="black"/>
<path d="M16.217 59.0034V57.4482H17.7477V59.0034H16.217Z" fill="black"/>
<path d="M17.4201 59.0034V57.4482H18.1851V59.0034H17.4201Z" fill="black"/>
<path d="M17.9342 59.0034V57.4482H18.5465V59.0034H17.9342Z" fill="black"/>
<path d="M18.3716 59.0034V57.4482H19.7489V59.0034H18.3716Z" fill="black"/>
<path d="M19.537 59.0034V57.4482H21.0678V59.0034H19.537Z" fill="black"/>
<path d="M20.8935 59.0034V57.4482H22.4243V59.0034H20.8935Z" fill="black"/>
<path d="M22.1734 59.0034V57.4482H23.5507V59.0034H22.1734Z" fill="black"/>
<path d="M23.2432 59.0034V57.4482H24.774V59.0034H23.2432Z" fill="black"/>
<path d="M24.4463 59.0034V57.4482H25.9771V59.0034H24.4463Z" fill="black"/>
<path d="M25.7261 59.0034V57.4482H26.3384V59.0034H25.7261Z" fill="black"/>
<path d="M26.317 59.0034V57.4482H27.6943V59.0034H26.317Z" fill="black"/>
<path d="M27.5201 59.0034V57.4482H28.8974V59.0034H27.5201Z" fill="black"/>
<path d="M28.6465 59.0034V57.4482H29.2588V59.0034H28.6465Z" fill="black"/>
<path d="M29.0839 59.0034V57.4482H30.155V59.0034H29.0839Z" fill="black"/>
<path d="M29.8281 59.0034V57.4482H31.3588V59.0034H29.8281Z" fill="black"/>
<path d="M31.1846 59.0034V57.4482H32.7153V59.0034H31.1846Z" fill="black"/>
<path d="M32.3877 59.0034V57.4482H33V59.0034H32.3877Z" fill="black"/>
<path d="M6 62.0034V60.4482H7.07117V62.0034H6Z" fill="black"/>
<path d="M7.05104 62.0034V60.4482H8.42836V62.0034H7.05104Z" fill="black"/>
<path d="M8.25414 62.0034V60.4482H9.32532V62.0034H8.25414Z" fill="black"/>
<path d="M8.99837 62.0034V60.4482H10.5291V62.0034H8.99837Z" fill="black"/>
<path d="M10.2015 62.0034V60.4482H11.5788V62.0034H10.2015Z" fill="black"/>
<path d="M11.4248 62.0034V60.4482H12.8021V62.0034H11.4248Z" fill="black"/>
<path d="M12.6279 62.0034V60.4482H14.1586V62.0034H12.6279Z" fill="black"/>
<path d="M13.9077 62.0034V60.4482H14.9788V62.0034H13.9077Z" fill="black"/>
<path d="M14.6519 62.0034V60.4482H15.7231V62.0034H14.6519Z" fill="black"/>
<path d="M15.7029 62.0034V60.4482H16.9268V62.0034H15.7029Z" fill="black"/>
<path d="M16.906 62.0034V60.4482H18.2834V62.0034H16.906Z" fill="black"/>
<path d="M18.1091 62.0034V60.4482H19.6399V62.0034H18.1091Z" fill="black"/>
<path d="M19.389 62.0034V60.4482H20.4601V62.0034H19.389Z" fill="black"/>
<path d="M20.2866 62.0034V60.4482H20.8989V62.0034H20.2866Z" fill="black"/>
<path d="M6 65.0034V63.4482H7.37732V65.0034H6Z" fill="black"/>
<path d="M7.27981 65.0034V63.4482H8.50372V65.0034H7.27981Z" fill="black"/>
<path d="M8.3295 65.0034V63.4482H10.3198V65.0034H8.3295Z" fill="black"/>
<path d="M10.2216 65.0034V63.4482H12.2119V65.0034H10.2216Z" fill="black"/>
<path d="M12.1137 65.0034V63.4482H13.6444V65.0034H12.1137Z" fill="black"/>
<path d="M13.6236 65.0034V63.4482H15.0009V65.0034H13.6236Z" fill="black"/>
<path d="M14.8267 65.0034V63.4482H15.8979V65.0034H14.8267Z" fill="black"/>
<path d="M15.7244 65.0034V63.4482H16.7955V65.0034H15.7244Z" fill="black"/>
<path d="M16.622 65.0034V63.4482H17.9993V65.0034H16.622Z" fill="black"/>
<path d="M17.7484 65.0034V63.4482H18.5134V65.0034H17.7484Z" fill="black"/>
<path d="M18.2625 65.0034V63.4482H19.0275V65.0034H18.2625Z" fill="black"/>
<path d="M6.30615 7.89883H32.6159V7.96855H6.30615V7.89883ZM6.30615 10.8988H27.4083V10.9686H6.30615V10.8988ZM6.30615 13.8988H25.864V13.9686H6.30615V13.8988ZM6.30615 16.8988H27.8451V16.9686H6.30615V16.8988ZM6.30615 19.8988H31.5163V19.9686H6.30615V19.8988ZM6.30615 22.8988H28.6276V22.9686H6.30615V22.8988ZM6.30615 25.8988H14.4978V25.9686H6.30615V25.8988ZM14.4978 26.1784H15.8207V26.2484H14.4978V26.1784ZM15.8207 25.8988H31.0204V25.9686H15.8207V25.8988ZM6.30615 28.8988H14.3996V28.9686H6.30615V28.8988ZM14.3996 29.1784H15.7225V29.2484H14.3996V29.1784ZM15.7225 28.8988H31.0009V28.9686H15.7225V28.8988ZM6.30615 31.8988H26.2833V31.9686H6.30615V31.8988ZM6.30615 34.8988H31.6664V34.9686H6.30615V34.8988ZM6.30615 37.8988H21.4474V37.9686H6.30615V37.8988ZM6.30615 40.8988H21.127V40.9686H6.30615V40.8988ZM6.30615 43.8988H32.2007V43.9686H6.30615V43.8988ZM6.30615 46.8988H24.5654V46.9686H6.30615V46.8988ZM6.30615 49.8988H24.7766V49.9686H6.30615V49.8988ZM6.30615 52.8988H31.6677V52.9686H6.30615V52.8988ZM6.30615 55.8988H32.4677V55.9686H6.30615V55.8988ZM6.30615 58.8988H32.6939V58.9686H6.30615V58.8988ZM6.30615 61.8988H20.5921V61.9686H6.30615V61.8988ZM6.30615 64.8988H19.2146V64.9686H6.30615V64.8988Z" fill="black"/>
</g>
</g>
<path d="M11.3333 38.4482H2V44.7963H11.3333V38.4482Z" fill="#7FA4CA"/>
<path d="M21.6663 38.4482H12.333V44.7963H21.6663V38.4482Z" fill="#E1C278"/>
</g>
<defs>
<filter id="filter0_d_238_44090" x="0" y="1.44824" width="39" height="35" filterUnits="userSpaceOnUse" color-interpolation-filters="sRGB">
<feFlood flood-opacity="0" result="BackgroundImageFix"/>
<feColorMatrix in="SourceAlpha" type="matrix" values="0 0 0 0 0 0 0 0 0 0 0 0 0 0 0 0 0 0 127 0" result="hardAlpha"/>
<feOffset dy="1"/>
<feGaussianBlur stdDeviation="1"/>
<feComposite in2="hardAlpha" operator="out"/>
<feColorMatrix type="matrix" values="0 0 0 0 0 0 0 0 0 0 0 0 0 0 0 0 0 0 0.1 0"/>
<feBlend mode="normal" in2="BackgroundImageFix" result="effect1_dropShadow_238_44090"/>
<feBlend mode="normal" in="SourceGraphic" in2="effect1_dropShadow_238_44090" result="shape"/>
</filter>
<filter id="filter1_i_238_44090" x="2" y="-2.55176" width="35" height="34" filterUnits="userSpaceOnUse" color-interpolation-filters="sRGB">
<feFlood flood-opacity="0" result="BackgroundImageFix"/>
<feBlend mode="normal" in="SourceGraphic" in2="BackgroundImageFix" result="shape"/>
<feColorMatrix in="SourceAlpha" type="matrix" values="0 0 0 0 0 0 0 0 0 0 0 0 0 0 0 0 0 0 127 0" result="hardAlpha"/>
<feOffset dy="-5"/>
<feGaussianBlur stdDeviation="3.5"/>
<feComposite in2="hardAlpha" operator="arithmetic" k2="-1" k3="1"/>
<feColorMatrix type="matrix" values="0 0 0 0 1 0 0 0 0 1 0 0 0 0 1 0 0 0 1 0"/>
<feBlend mode="normal" in2="shape" result="effect1_innerShadow_238_44090"/>
</filter>
<clipPath id="clip0_238_44090">
<rect width="39" height="46.3481" fill="white" transform="translate(0 0.448242)"/>
</clipPath>
<clipPath id="clip1_238_44090">
<rect width="35" height="31" fill="white" transform="translate(2 2.44824)"/>
</clipPath>
<clipPath id="clip2_238_44090">
<rect width="35" height="29" fill="white" transform="translate(2 2.44824)"/>
</clipPath>
</defs>
</svg>
