<svg width="39" height="47" viewBox="0 0 39 47" fill="none" xmlns="http://www.w3.org/2000/svg">
<g clip-path="url(#clip0_238_44002)">
<g clip-path="url(#clip1_238_44002)" filter="url(#filter0_d_238_44002)">
<rect width="35" height="31" transform="translate(2 2.22168)" fill="white"/>
<g opacity="0.3" filter="url(#filter1_i_238_44002)">
<rect width="35" height="29" transform="translate(2 2.22168)" fill="white"/>
<path d="M6 7.77686V6.22168H6.81197V7.77686H6Z" fill="black"/>
<path d="M6.62707 7.77686V6.22168H8.25173V7.77686H6.62707Z" fill="black"/>
<path d="M8.06683 7.77686V6.22168H9.69149V7.77686H8.06683Z" fill="black"/>
<path d="M9.50659 7.77686V6.22168H11.1313V7.77686H9.50659Z" fill="black"/>
<path d="M10.7835 7.77686V6.22168H11.4334V7.77686H10.7835Z" fill="black"/>
<path d="M11.2478 7.77686V6.22168H12.7096V7.77686H11.2478Z" fill="black"/>
<path d="M12.3833 7.77686V6.22168H14.008V7.77686H12.3833Z" fill="black"/>
<path d="M13.6602 7.77686V6.22168H15.2849V7.77686H13.6602Z" fill="black"/>
<path d="M15.1 7.77686V6.22168H16.2369V7.77686H15.1Z" fill="black"/>
<path d="M16.0527 7.77686V6.22168H18.1651V7.77686H16.0527Z" fill="black"/>
<path d="M18.0609 7.77686V6.22168H19.6856V7.77686H18.0609Z" fill="black"/>
<path d="M19.3379 7.77686V6.22168H19.9877V7.77686H19.3379Z" fill="black"/>
<path d="M19.8021 7.77686V6.22168H20.939V7.77686H19.8021Z" fill="black"/>
<path d="M20.9176 7.77686V6.22168H22.3795V7.77686H20.9176Z" fill="black"/>
<path d="M22.1946 7.77686V6.22168H22.8444V7.77686H22.1946Z" fill="black"/>
<path d="M22.6588 7.77686V6.22168H24.4463V7.77686H22.6588Z" fill="black"/>
<path d="M24.2814 7.77686V6.22168H25.5804V7.77686H24.2814Z" fill="black"/>
<path d="M25.3955 7.77686V6.22168H26.8574V7.77686H25.3955Z" fill="black"/>
<path d="M26.5311 7.77686V6.22168H27.668V7.77686H26.5311Z" fill="black"/>
<path d="M27.3209 7.77686V6.22168H28.9456V7.77686H27.3209Z" fill="black"/>
<path d="M28.7607 7.77686V6.22168H29.4106V7.77686H28.7607Z" fill="black"/>
<path d="M6 10.7769V9.22168H7.78749V10.7769H6Z" fill="black"/>
<path d="M7.68399 10.7769V9.22168H8.98301V10.7769H7.68399Z" fill="black"/>
<path d="M8.79811 10.7769V9.22168H10.2599V10.7769H8.79811Z" fill="black"/>
<path d="M9.93364 10.7769V9.22168H11.5583V10.7769H9.93364Z" fill="black"/>
<path d="M11.2106 10.7769V9.22168H12.8352V10.7769H11.2106Z" fill="black"/>
<path d="M12.5689 10.7769V9.22168H13.2188V10.7769H12.5689Z" fill="black"/>
<path d="M13.0332 10.7769V9.22168H15.1456V10.7769H13.0332Z" fill="black"/>
<path d="M15.0414 10.7769V9.22168H16.666V10.7769H15.0414Z" fill="black"/>
<path d="M16.4811 10.7769V9.22168H17.943V10.7769H16.4811Z" fill="black"/>
<path d="M17.7181 10.7769V9.22168H18.855V10.7769H17.7181Z" fill="black"/>
<path d="M18.508 10.7769V9.22168H19.1578V10.7769H18.508Z" fill="black"/>
<path d="M18.9722 10.7769V9.22168H20.5969V10.7769H18.9722Z" fill="black"/>
<path d="M20.5348 10.7769V9.22168H21.9967V10.7769H20.5348Z" fill="black"/>
<path d="M21.9746 10.7769V9.22168H23.2736V10.7769H21.9746Z" fill="black"/>
<path d="M23.0887 10.7769V9.22168H25.3632V10.7769H23.0887Z" fill="black"/>
<path d="M25.0969 10.7769V9.22168H25.7468V10.7769H25.0969Z" fill="black"/>
<path d="M25.5611 10.7769V9.22168H26.6981V10.7769H25.5611Z" fill="black"/>
<path d="M26.351 10.7769V9.22168H27.9757V10.7769H26.351Z" fill="black"/>
<path d="M27.7908 10.7769V9.22168H29.4155V10.7769H27.7908Z" fill="black"/>
<path d="M29.2306 10.7769V9.22168H30.6924V10.7769H29.2306Z" fill="black"/>
<path d="M30.4261 10.7769V9.22168H31.0759V10.7769H30.4261Z" fill="black"/>
<path d="M6 13.7769V12.2217H8.27453V13.7769H6Z" fill="black"/>
<path d="M8.00821 13.7769V12.2217H9.14512V13.7769H8.00821Z" fill="black"/>
<path d="M8.96093 13.7769V12.2217H10.0978V13.7769H8.96093Z" fill="black"/>
<path d="M9.91365 13.7769V12.2217H11.0506V13.7769H9.91365Z" fill="black"/>
<path d="M10.8664 13.7769V12.2217H11.5162V13.7769H10.8664Z" fill="black"/>
<path d="M11.4934 13.7769V12.2217H12.7924V13.7769H11.4934Z" fill="black"/>
<path d="M12.7704 13.7769V12.2217H14.2322V13.7769H12.7704Z" fill="black"/>
<path d="M14.0473 13.7769V12.2217H15.1842V13.7769H14.0473Z" fill="black"/>
<path d="M15.0814 13.7769V12.2217H16.5433V13.7769H15.0814Z" fill="black"/>
<path d="M16.277 13.7769V12.2217H16.9268V13.7769H16.277Z" fill="black"/>
<path d="M16.7412 13.7769V12.2217H18.3659V13.7769H16.7412Z" fill="black"/>
<path d="M18.0995 13.7769V12.2217H19.5614V13.7769H18.0995Z" fill="black"/>
<path d="M19.2951 13.7769V12.2217H20.9197V13.7769H19.2951Z" fill="black"/>
<path d="M20.7348 13.7769V12.2217H21.8717V13.7769H20.7348Z" fill="black"/>
<path d="M21.6875 13.7769V12.2217H23.3122V13.7769H21.6875Z" fill="black"/>
<path d="M22.9645 13.7769V12.2217H24.4263V13.7769H22.9645Z" fill="black"/>
<path d="M24.3228 13.7769V12.2217H25.9475V13.7769H24.3228Z" fill="black"/>
<path d="M25.5998 13.7769V12.2217H26.2496V13.7769H25.5998Z" fill="black"/>
<path d="M6 16.7769V15.2217H7.46184V16.7769H6Z" fill="black"/>
<path d="M7.23694 16.7769V15.2217H8.86161V16.7769H7.23694Z" fill="black"/>
<path d="M8.51388 16.7769V15.2217H9.97572V16.7769H8.51388Z" fill="black"/>
<path d="M9.7094 16.7769V15.2217H11.3341V16.7769H9.7094Z" fill="black"/>
<path d="M11.1492 16.7769V15.2217H12.611V16.7769H11.1492Z" fill="black"/>
<path d="M12.2847 16.7769V15.2217H13.4216V16.7769H12.2847Z" fill="black"/>
<path d="M13.2374 16.7769V15.2217H14.3743V16.7769H13.2374Z" fill="black"/>
<path d="M14.1901 16.7769V15.2217H15.652V16.7769H14.1901Z" fill="black"/>
<path d="M15.3857 16.7769V15.2217H16.0355V16.7769H15.3857Z" fill="black"/>
<path d="M15.8499 16.7769V15.2217H17.4746V16.7769H15.8499Z" fill="black"/>
<path d="M17.3711 16.7769V15.2217H18.8329V16.7769H17.3711Z" fill="black"/>
<path d="M18.648 16.7769V15.2217H20.2727V16.7769H18.648Z" fill="black"/>
<path d="M20.0064 16.7769V15.2217H20.6562V16.7769H20.0064Z" fill="black"/>
<path d="M20.6334 16.7769V15.2217H22.0953V16.7769H20.6334Z" fill="black"/>
<path d="M21.8289 16.7769V15.2217H23.2908V16.7769H21.8289Z" fill="black"/>
<path d="M23.1273 16.7769V15.2217H24.4263V16.7769H23.1273Z" fill="black"/>
<path d="M24.2414 16.7769V15.2217H25.7033V16.7769H24.2414Z" fill="black"/>
<path d="M25.6412 16.7769V15.2217H27.103V16.7769H25.6412Z" fill="black"/>
<path d="M26.8367 16.7769V15.2217H28.4614V16.7769H26.8367Z" fill="black"/>
<path d="M28.1136 16.7769V15.2217H29.5755V16.7769H28.1136Z" fill="black"/>
<path d="M29.2492 16.7769V15.2217H30.3861V16.7769H29.2492Z" fill="black"/>
<path d="M30.2019 16.7769V15.2217H31.3388V16.7769H30.2019Z" fill="black"/>
<path d="M31.1546 16.7769V15.2217H32.6165V16.7769H31.1546Z" fill="black"/>
<path d="M32.3501 16.7769V15.2217H33V16.7769H32.3501Z" fill="black"/>
<path d="M6.16282 19.7769V18.2217H7.62466V19.7769H6.16282Z" fill="black"/>
<path d="M7.43976 19.7769V18.2217H8.9016V19.7769H7.43976Z" fill="black"/>
<path d="M8.63528 19.7769V18.2217H9.28515V19.7769H8.63528Z" fill="black"/>
<path d="M9.09953 19.7769V18.2217H11.2119V19.7769H9.09953Z" fill="black"/>
<path d="M11.1077 19.7769V18.2217H12.7324V19.7769H11.1077Z" fill="black"/>
<path d="M12.3847 19.7769V18.2217H14.0093V19.7769H12.3847Z" fill="black"/>
<path d="M13.6616 19.7769V18.2217H14.7985V19.7769H13.6616Z" fill="black"/>
<path d="M14.4515 19.7769V18.2217H15.5884V19.7769H14.4515Z" fill="black"/>
<path d="M15.567 19.7769V18.2217H17.0289V19.7769H15.567Z" fill="black"/>
<path d="M16.844 19.7769V18.2217H18.4686V19.7769H16.844Z" fill="black"/>
<path d="M18.2837 19.7769V18.2217H18.9336V19.7769H18.2837Z" fill="black"/>
<path d="M18.748 19.7769V18.2217H19.8849V19.7769H18.748Z" fill="black"/>
<path d="M19.5379 19.7769V18.2217H21.1625V19.7769H19.5379Z" fill="black"/>
<path d="M20.9776 19.7769V18.2217H22.6023V19.7769H20.9776Z" fill="black"/>
<path d="M22.2546 19.7769V18.2217H23.3915V19.7769H22.2546Z" fill="black"/>
<path d="M23.2073 19.7769V18.2217H24.6691V19.7769H23.2073Z" fill="black"/>
<path d="M24.3428 19.7769V18.2217H24.9927V19.7769H24.3428Z" fill="black"/>
<path d="M6 22.7769V21.2217H7.13691V22.7769H6Z" fill="black"/>
<path d="M7.11554 22.7769V21.2217H8.57738V22.7769H7.11554Z" fill="black"/>
<path d="M8.39248 22.7769V21.2217H9.52938V22.7769H8.39248Z" fill="black"/>
<path d="M9.18237 22.7769V21.2217H10.807V22.7769H9.18237Z" fill="black"/>
<path d="M10.4593 22.7769V21.2217H11.9211V22.7769H10.4593Z" fill="black"/>
<path d="M11.7577 22.7769V21.2217H13.2195V22.7769H11.7577Z" fill="black"/>
<path d="M13.0346 22.7769V21.2217H14.6593V22.7769H13.0346Z" fill="black"/>
<path d="M14.3929 22.7769V21.2217H15.5299V22.7769H14.3929Z" fill="black"/>
<path d="M15.1828 22.7769V21.2217H16.3197V22.7769H15.1828Z" fill="black"/>
<path d="M16.2984 22.7769V21.2217H17.5974V22.7769H16.2984Z" fill="black"/>
<path d="M17.5753 22.7769V21.2217H19.0372V22.7769H17.5753Z" fill="black"/>
<path d="M18.8522 22.7769V21.2217H20.4769V22.7769H18.8522Z" fill="black"/>
<path d="M20.2106 22.7769V21.2217H21.3475V22.7769H20.2106Z" fill="black"/>
<path d="M21.1633 22.7769V21.2217H21.8132V22.7769H21.1633Z" fill="black"/>
<path d="M6.16282 25.7769V24.2217H7.46184V25.7769H6.16282Z" fill="black"/>
<path d="M7.43976 25.7769V24.2217H8.9016V25.7769H7.43976Z" fill="black"/>
<path d="M8.55387 25.7769V24.2217H9.69078V25.7769H8.55387Z" fill="black"/>
<path d="M9.50659 25.7769V24.2217H10.6435V25.7769H9.50659Z" fill="black"/>
<path d="M10.4593 25.7769V24.2217H12.084V25.7769H10.4593Z" fill="black"/>
<path d="M11.8991 25.7769V24.2217H13.5237V25.7769H11.8991Z" fill="black"/>
<path d="M13.2574 25.7769V24.2217H14.3943V25.7769H13.2574Z" fill="black"/>
<path d="M14.0473 25.7769V24.2217H15.1842V25.7769H14.0473Z" fill="black"/>
<path d="M15.1628 25.7769V24.2217H16.4619V25.7769H15.1628Z" fill="black"/>
<path d="M16.4398 25.7769V24.2217H17.9016V25.7769H16.4398Z" fill="black"/>
<path d="M17.7167 25.7769V24.2217H19.1786V25.7769H17.7167Z" fill="black"/>
<path d="M18.9537 25.7769V24.2217H19.7656V25.7769H18.9537Z" fill="black"/>
<path d="M19.4993 25.7769V24.2217H20.3113V25.7769H19.4993Z" fill="black"/>
<path d="M6.32493 7.67227H29.0856V7.74199H6.32493V7.67227ZM6.32493 10.6723H30.751V10.742H6.32493V10.6723ZM6.32493 13.6723H25.9247V13.742H6.32493V13.6723ZM6.32493 16.6723H32.6751V16.742H6.32493V16.6723ZM6.32493 19.6723H24.667V19.742H6.32493V19.6723ZM6.32493 22.6723H21.4875V22.742H6.32493V22.6723ZM6.32493 25.6723H20.5098V25.742H6.32493V25.6723Z" fill="black"/>
</g>
<rect width="12" height="14" transform="translate(25 18.2217)" fill="white"/>
<path d="M30.6787 22.083C31.5999 22.083 32.2721 22.2816 32.6953 22.6787C33.1185 23.0726 33.3301 23.6162 33.3301 24.3096C33.3301 24.6221 33.2829 24.9215 33.1885 25.208C33.0941 25.4912 32.9395 25.7435 32.7246 25.9648C32.513 26.1862 32.2298 26.362 31.875 26.4922C31.5202 26.6191 31.0824 26.6826 30.5615 26.6826H29.9121V29.2217H28.3984V22.083H30.6787ZM30.6006 23.3232H29.9121V25.4424H30.4102C30.6934 25.4424 30.9391 25.4049 31.1475 25.3301C31.3558 25.2552 31.5169 25.138 31.6309 24.9785C31.7448 24.819 31.8018 24.6139 31.8018 24.3633C31.8018 24.0117 31.7041 23.7513 31.5088 23.582C31.3135 23.4095 31.0107 23.3232 30.6006 23.3232Z" fill="#585858"/>
</g>
<path d="M11.3333 38.2217H2V44.5698H11.3333V38.2217Z" fill="#BB90BB"/>
</g>
<defs>
<filter id="filter0_d_238_44002" x="0" y="1.22168" width="39" height="35" filterUnits="userSpaceOnUse" color-interpolation-filters="sRGB">
<feFlood flood-opacity="0" result="BackgroundImageFix"/>
<feColorMatrix in="SourceAlpha" type="matrix" values="0 0 0 0 0 0 0 0 0 0 0 0 0 0 0 0 0 0 127 0" result="hardAlpha"/>
<feOffset dy="1"/>
<feGaussianBlur stdDeviation="1"/>
<feComposite in2="hardAlpha" operator="out"/>
<feColorMatrix type="matrix" values="0 0 0 0 0 0 0 0 0 0 0 0 0 0 0 0 0 0 0.1 0"/>
<feBlend mode="normal" in2="BackgroundImageFix" result="effect1_dropShadow_238_44002"/>
<feBlend mode="normal" in="SourceGraphic" in2="effect1_dropShadow_238_44002" result="shape"/>
</filter>
<filter id="filter1_i_238_44002" x="2" y="-2.77832" width="35" height="34" filterUnits="userSpaceOnUse" color-interpolation-filters="sRGB">
<feFlood flood-opacity="0" result="BackgroundImageFix"/>
<feBlend mode="normal" in="SourceGraphic" in2="BackgroundImageFix" result="shape"/>
<feColorMatrix in="SourceAlpha" type="matrix" values="0 0 0 0 0 0 0 0 0 0 0 0 0 0 0 0 0 0 127 0" result="hardAlpha"/>
<feOffset dy="-5"/>
<feGaussianBlur stdDeviation="3.5"/>
<feComposite in2="hardAlpha" operator="arithmetic" k2="-1" k3="1"/>
<feColorMatrix type="matrix" values="0 0 0 0 1 0 0 0 0 1 0 0 0 0 1 0 0 0 1 0"/>
<feBlend mode="normal" in2="shape" result="effect1_innerShadow_238_44002"/>
</filter>
<clipPath id="clip0_238_44002">
<rect width="39" height="46.3481" fill="white" transform="translate(0 0.22168)"/>
</clipPath>
<clipPath id="clip1_238_44002">
<rect width="35" height="31" fill="white" transform="translate(2 2.22168)"/>
</clipPath>
</defs>
</svg>
