<svg width="39" height="48" viewBox="0 0 39 48" fill="none" xmlns="http://www.w3.org/2000/svg">
<g clip-path="url(#clip0_238_44178)">
<g clip-path="url(#clip1_238_44178)" filter="url(#filter0_d_238_44178)">
<rect width="35" height="31" transform="translate(2 2.6748)" fill="white"/>
<g opacity="0.3" clip-path="url(#clip2_238_44178)" filter="url(#filter1_i_238_44178)">
<rect width="35" height="29" transform="translate(2 2.6748)" fill="white"/>
<path d="M6 8.22998V6.6748H6.76169V8.22998H6Z" fill="black"/>
<path d="M6.58823 8.22998V6.6748H7.19785V8.22998H6.58823Z" fill="black"/>
<path d="M7.17647 8.22998V6.6748H9.31013V8.22998H7.17647Z" fill="black"/>
<path d="M9.09782 8.22998V6.6748H9.8595V8.22998H9.09782Z" fill="black"/>
<path d="M9.68605 8.22998V6.6748H11.2101V8.22998H9.68605Z" fill="black"/>
<path d="M10.8839 8.22998V6.6748H11.4935V8.22998H10.8839Z" fill="black"/>
<path d="M11.3194 8.22998V6.6748H12.6907V8.22998H11.3194Z" fill="black"/>
<path d="M12.4797 8.22998V6.6748H14.0038V8.22998H12.4797Z" fill="black"/>
<path d="M13.9831 8.22998V6.6748H15.3544V8.22998H13.9831Z" fill="black"/>
<path d="M15.2573 8.22998V6.6748H16.6286V8.22998H15.2573Z" fill="black"/>
<path d="M16.5315 8.22998V6.6748H17.7501V8.22998H16.5315Z" fill="black"/>
<path d="M17.5766 8.22998V6.6748H18.9479V8.22998H17.5766Z" fill="black"/>
<path d="M18.6418 8.22998V6.6748H19.7083V8.22998H18.6418Z" fill="black"/>
<path d="M19.3828 8.22998V6.6748H19.9924V8.22998H19.3828Z" fill="black"/>
<path d="M19.8183 8.22998V6.6748H20.8848V8.22998H19.8183Z" fill="black"/>
<path d="M20.5593 8.22998V6.6748H22.0833V8.22998H20.5593Z" fill="black"/>
<path d="M21.9099 8.22998V6.6748H23.4339V8.22998H21.9099Z" fill="black"/>
<path d="M23.1077 8.22998V6.6748H23.7173V8.22998H23.1077Z" fill="black"/>
<path d="M6.15274 11.23V9.6748H7.52404V11.23H6.15274Z" fill="black"/>
<path d="M7.27422 11.23V9.6748H8.79826V11.23H7.27422Z" fill="black"/>
<path d="M8.47207 11.23V9.6748H9.99611V11.23H8.47207Z" fill="black"/>
<path d="M9.74629 11.23V9.6748H11.1176V11.23H9.74629Z" fill="black"/>
<path d="M10.8678 11.23V9.6748H12.3918V11.23H10.8678Z" fill="black"/>
<path d="M12.0656 11.23V9.6748H13.2849V11.23H12.0656Z" fill="black"/>
<path d="M12.9593 11.23V9.6748H14.4834V11.23H12.9593Z" fill="black"/>
<path d="M14.3099 11.23V9.6748H15.3764V11.23H14.3099Z" fill="black"/>
<path d="M15.2036 11.23V9.6748H15.8133V11.23H15.2036Z" fill="black"/>
<path d="M15.6391 11.23V9.6748H17.0104V11.23H15.6391Z" fill="black"/>
<path d="M16.7043 11.23V9.6748H18.2284V11.23H16.7043Z" fill="black"/>
<path d="M17.9022 11.23V9.6748H19.4262V11.23H17.9022Z" fill="black"/>
<path d="M19.4055 11.23V9.6748H20.7768V11.23H19.4055Z" fill="black"/>
<path d="M20.6034 11.23V9.6748H21.6699V11.23H20.6034Z" fill="black"/>
<path d="M21.4971 11.23V9.6748H22.7163V11.23H21.4971Z" fill="black"/>
<path d="M22.3908 11.23V9.6748H23.4573V11.23H22.3908Z" fill="black"/>
<path d="M23.2845 11.23V9.6748H24.6558V11.23H23.2845Z" fill="black"/>
<path d="M24.406 11.23V9.6748H25.93V11.23H24.406Z" fill="black"/>
<path d="M25.6802 11.23V9.6748H26.7467V11.23H25.6802Z" fill="black"/>
<path d="M26.4212 11.23V9.6748H27.4877V11.23H26.4212Z" fill="black"/>
<path d="M27.4676 11.23V9.6748H28.6862V11.23H27.4676Z" fill="black"/>
<path d="M28.6655 11.23V9.6748H30.0368V11.23H28.6655Z" fill="black"/>
<path d="M29.8633 11.23V9.6748H30.4729V11.23H29.8633Z" fill="black"/>
<path d="M30.4516 11.23V9.6748H31.6701V11.23H30.4516Z" fill="black"/>
<path d="M31.4967 11.23V9.6748H32.7159V11.23H31.4967Z" fill="black"/>
<path d="M32.3904 11.23V9.6748H33V11.23H32.3904Z" fill="black"/>
<path d="M6 14.23V12.6748H7.06649V14.23H6Z" fill="black"/>
<path d="M6.74097 14.23V12.6748H8.26501V14.23H6.74097Z" fill="black"/>
<path d="M8.09156 14.23V12.6748H9.6156V14.23H8.09156Z" fill="black"/>
<path d="M9.28941 14.23V12.6748H9.89903V14.23H9.28941Z" fill="black"/>
<path d="M9.72491 14.23V12.6748H11.4017V14.23H9.72491Z" fill="black"/>
<path d="M11.3046 14.23V12.6748H12.5232V14.23H11.3046Z" fill="black"/>
<path d="M12.3497 14.23V12.6748H13.721V14.23H12.3497Z" fill="black"/>
<path d="M13.4149 14.23V12.6748H14.939V14.23H13.4149Z" fill="black"/>
<path d="M14.6128 14.23V12.6748H16.1368V14.23H14.6128Z" fill="black"/>
<path d="M16.0397 14.23V12.6748H17.411V14.23H16.0397Z" fill="black"/>
<path d="M17.2376 14.23V12.6748H17.8472V14.23H17.2376Z" fill="black"/>
<path d="M17.8258 14.23V12.6748H19.3499V14.23H17.8258Z" fill="black"/>
<path d="M19.0424 14.23V12.6748H20.5665V14.23H19.0424Z" fill="black"/>
<path d="M20.393 14.23V12.6748H21.7643V14.23H20.393Z" fill="black"/>
<path d="M21.5909 14.23V12.6748H22.6574V14.23H21.5909Z" fill="black"/>
<path d="M22.6373 14.23V12.6748H24.0086V14.23H22.6373Z" fill="black"/>
<path d="M23.8352 14.23V12.6748H25.2065V14.23H23.8352Z" fill="black"/>
<path d="M24.9955 14.23V12.6748H26.5195V14.23H24.9955Z" fill="black"/>
<path d="M26.3461 14.23V12.6748H27.4126V14.23H26.3461Z" fill="black"/>
<path d="M27.2398 14.23V12.6748H28.7638V14.23H27.2398Z" fill="black"/>
<path d="M28.514 14.23V12.6748H29.1236V14.23H28.514Z" fill="black"/>
<path d="M6 17.23V15.6748H7.52404V17.23H6Z" fill="black"/>
<path d="M7.42696 17.23V15.6748H8.79826V17.23H7.42696Z" fill="black"/>
<path d="M8.62481 17.23V15.6748H10.1489V17.23H8.62481Z" fill="black"/>
<path d="M9.89903 17.23V15.6748H10.6607V17.23H9.89903Z" fill="black"/>
<path d="M10.4109 17.23V15.6748H11.0205V17.23H10.4109Z" fill="black"/>
<path d="M10.8464 17.23V15.6748H11.9129V17.23H10.8464Z" fill="black"/>
<path d="M11.8928 17.23V15.6748H13.2641V17.23H11.8928Z" fill="black"/>
<path d="M13.0907 17.23V15.6748H13.7003V17.23H13.0907Z" fill="black"/>
<path d="M13.5262 17.23V15.6748H14.5927V17.23H13.5262Z" fill="black"/>
<path d="M14.2672 17.23V15.6748H15.7912V17.23H14.2672Z" fill="black"/>
<path d="M15.6177 17.23V15.6748H17.1418V17.23H15.6177Z" fill="black"/>
<path d="M16.8156 17.23V15.6748H17.4252V17.23H16.8156Z" fill="black"/>
<path d="M17.2511 17.23V15.6748H19.2327V17.23H17.2511Z" fill="black"/>
<path d="M19.1349 17.23V15.6748H20.659V17.23H19.1349Z" fill="black"/>
<path d="M20.3328 17.23V15.6748H21.8568V17.23H20.3328Z" fill="black"/>
<path d="M21.7597 17.23V15.6748H23.131V17.23H21.7597Z" fill="black"/>
<path d="M22.9576 17.23V15.6748H24.0241V17.23H22.9576Z" fill="black"/>
<path d="M23.6986 17.23V15.6748H24.7651V17.23H23.6986Z" fill="black"/>
<path d="M24.5923 17.23V15.6748H26.5739V17.23H24.5923Z" fill="black"/>
<path d="M26.4761 17.23V15.6748H28.0002V17.23H26.4761Z" fill="black"/>
<path d="M27.674 17.23V15.6748H28.4356V17.23H27.674Z" fill="black"/>
<path d="M28.1858 17.23V15.6748H28.7954V17.23H28.1858Z" fill="black"/>
<path d="M6 20.23V18.6748H7.3713V20.23H6Z" fill="black"/>
<path d="M7.16034 20.23V18.6748H8.68438V20.23H7.16034Z" fill="black"/>
<path d="M8.35819 20.23V18.6748H9.88223V20.23H8.35819Z" fill="black"/>
<path d="M9.55604 20.23V18.6748H11.0801V20.23H9.55604Z" fill="black"/>
<path d="M10.8691 20.23V18.6748H11.4787V20.23H10.8691Z" fill="black"/>
<path d="M11.3046 20.23V18.6748H12.8286V20.23H11.3046Z" fill="black"/>
<path d="M12.5788 20.23V18.6748H13.1884V20.23H12.5788Z" fill="black"/>
<path d="M13.1671 20.23V18.6748H14.5384V20.23H13.1671Z" fill="black"/>
<path d="M14.2122 20.23V18.6748H15.7362V20.23H14.2122Z" fill="black"/>
<path d="M15.41 20.23V18.6748H16.4765V20.23H15.41Z" fill="black"/>
<path d="M16.151 20.23V18.6748H17.2175V20.23H16.151Z" fill="black"/>
<path d="M16.892 20.23V18.6748H18.416V20.23H16.892Z" fill="black"/>
<path d="M18.0898 20.23V18.6748H19.4611V20.23H18.0898Z" fill="black"/>
<path d="M19.155 20.23V18.6748H19.7646V20.23H19.155Z" fill="black"/>
<path d="M19.5905 20.23V18.6748H20.657V20.23H19.5905Z" fill="black"/>
<path d="M20.4842 20.23V18.6748H21.5507V20.23H20.4842Z" fill="black"/>
<path d="M21.3779 20.23V18.6748H22.5972V20.23H21.3779Z" fill="black"/>
<path d="M22.2717 20.23V18.6748H23.7957V20.23H22.2717Z" fill="black"/>
<path d="M23.4695 20.23V18.6748H24.0791V20.23H23.4695Z" fill="black"/>
<path d="M23.905 20.23V18.6748H25.1242V20.23H23.905Z" fill="black"/>
<path d="M24.9514 20.23V18.6748H26.17V20.23H24.9514Z" fill="black"/>
<path d="M25.9966 20.23V18.6748H27.3679V20.23H25.9966Z" fill="black"/>
<path d="M27.0618 20.23V18.6748H27.6714V20.23H27.0618Z" fill="black"/>
<path d="M27.4973 20.23V18.6748H29.0213V20.23H27.4973Z" fill="black"/>
<path d="M28.7715 20.23V18.6748H29.838V20.23H28.7715Z" fill="black"/>
<path d="M29.6652 20.23V18.6748H30.7317V20.23H29.6652Z" fill="black"/>
<path d="M30.5589 20.23V18.6748H31.1685V20.23H30.5589Z" fill="black"/>
<path d="M6 23.23V21.6748H7.06649V23.23H6Z" fill="black"/>
<path d="M6.74097 23.23V21.6748H8.26501V23.23H6.74097Z" fill="black"/>
<path d="M8.09156 23.23V21.6748H9.6156V23.23H8.09156Z" fill="black"/>
<path d="M9.28941 23.23V21.6748H9.89903V23.23H9.28941Z" fill="black"/>
<path d="M9.72491 23.23V21.6748H11.4017V23.23H9.72491Z" fill="black"/>
<path d="M11.3046 23.23V21.6748H12.5232V23.23H11.3046Z" fill="black"/>
<path d="M12.3497 23.23V21.6748H13.721V23.23H12.3497Z" fill="black"/>
<path d="M13.4149 23.23V21.6748H14.939V23.23H13.4149Z" fill="black"/>
<path d="M14.6128 23.23V21.6748H16.1368V23.23H14.6128Z" fill="black"/>
<path d="M16.0397 23.23V21.6748H17.411V23.23H16.0397Z" fill="black"/>
<path d="M17.2376 23.23V21.6748H17.8472V23.23H17.2376Z" fill="black"/>
<path d="M17.8258 23.23V21.6748H19.1971V23.23H17.8258Z" fill="black"/>
<path d="M18.9473 23.23V21.6748H20.4713V23.23H18.9473Z" fill="black"/>
<path d="M20.2979 23.23V21.6748H21.5165V23.23H20.2979Z" fill="black"/>
<path d="M21.4957 23.23V21.6748H22.867V23.23H21.4957Z" fill="black"/>
<path d="M22.6172 23.23V21.6748H23.6837V23.23H22.6172Z" fill="black"/>
<path d="M23.5109 23.23V21.6748H25.035V23.23H23.5109Z" fill="black"/>
<path d="M24.7088 23.23V21.6748H25.4705V23.23H24.7088Z" fill="black"/>
<path d="M25.2206 23.23V21.6748H25.8303V23.23H25.2206Z" fill="black"/>
<path d="M25.6561 23.23V21.6748H27.1802V23.23H25.6561Z" fill="black"/>
<path d="M27.0067 23.23V21.6748H28.5308V23.23H27.0067Z" fill="black"/>
<path d="M28.3573 23.23V21.6748H29.8814V23.23H28.3573Z" fill="black"/>
<path d="M29.6315 23.23V21.6748H30.698V23.23H29.6315Z" fill="black"/>
<path d="M30.3725 23.23V21.6748H31.1342V23.23H30.3725Z" fill="black"/>
<path d="M30.9607 23.23V21.6748H32.332V23.23H30.9607Z" fill="black"/>
<path d="M32.1211 23.23V21.6748H32.7307V23.23H32.1211Z" fill="black"/>
<path d="M6 26.23V24.6748H8.13366V26.23H6Z" fill="black"/>
<path d="M7.88384 26.23V24.6748H9.40788V26.23H7.88384Z" fill="black"/>
<path d="M9.3108 26.23V24.6748H10.6821V26.23H9.3108Z" fill="black"/>
<path d="M10.4323 26.23V24.6748H11.0419V26.23H10.4323Z" fill="black"/>
<path d="M10.8678 26.23V24.6748H13.0014V26.23H10.8678Z" fill="black"/>
<path d="M12.7516 26.23V24.6748H14.2757V26.23H12.7516Z" fill="black"/>
<path d="M13.9495 26.23V24.6748H14.5591V26.23H13.9495Z" fill="black"/>
<path d="M14.385 26.23V24.6748H15.909V26.23H14.385Z" fill="black"/>
<path d="M15.7355 26.23V24.6748H17.2596V26.23H15.7355Z" fill="black"/>
<path d="M16.9334 26.23V24.6748H18.3047V26.23H16.9334Z" fill="black"/>
<path d="M18.2076 26.23V24.6748H19.7317V26.23H18.2076Z" fill="black"/>
<path d="M19.4055 26.23V24.6748H20.0151V26.23H19.4055Z" fill="black"/>
<path d="M19.841 26.23V24.6748H20.9075V26.23H19.841Z" fill="black"/>
<path d="M20.5819 26.23V24.6748H21.9532V26.23H20.5819Z" fill="black"/>
<path d="M21.6471 26.23V24.6748H22.7136V26.23H21.6471Z" fill="black"/>
<path d="M22.5409 26.23V24.6748H24.0649V26.23H22.5409Z" fill="black"/>
<path d="M23.7387 26.23V24.6748H25.2627V26.23H23.7387Z" fill="black"/>
<path d="M25.0129 26.23V24.6748H25.6225V26.23H25.0129Z" fill="black"/>
<path d="M25.4484 26.23V24.6748H26.5149V26.23H25.4484Z" fill="black"/>
<path d="M26.3421 26.23V24.6748H27.5607V26.23H26.3421Z" fill="black"/>
<path d="M27.3872 26.23V24.6748H27.9969V26.23H27.3872Z" fill="black"/>
<path d="M6 29.23V27.6748H7.3713V29.23H6Z" fill="black"/>
<path d="M7.06521 29.23V27.6748H8.58925V29.23H7.06521Z" fill="black"/>
<path d="M8.26306 29.23V27.6748H9.7871V29.23H8.26306Z" fill="black"/>
<path d="M9.53728 29.23V27.6748H11.0613V29.23H9.53728Z" fill="black"/>
<path d="M10.8879 29.23V27.6748H12.2592V29.23H10.8879Z" fill="black"/>
<path d="M12.0093 29.23V27.6748H13.5334V29.23H12.0093Z" fill="black"/>
<path d="M13.2072 29.23V27.6748H13.8168V29.23H13.2072Z" fill="black"/>
<path d="M13.6427 29.23V27.6748H14.7092V29.23H13.6427Z" fill="black"/>
<path d="M14.3837 29.23V27.6748H15.9077V29.23H14.3837Z" fill="black"/>
<path d="M15.7343 29.23V27.6748H17.2583V29.23H15.7343Z" fill="black"/>
<path d="M16.9321 29.23V27.6748H17.5417V29.23H16.9321Z" fill="black"/>
<path d="M17.3676 29.23V27.6748H18.7389V29.23H17.3676Z" fill="black"/>
<path d="M18.5279 29.23V27.6748H20.052V29.23H18.5279Z" fill="black"/>
<path d="M19.8785 29.23V27.6748H21.0978V29.23H19.8785Z" fill="black"/>
<path d="M20.7722 29.23V27.6748H21.9915V29.23H20.7722Z" fill="black"/>
<path d="M21.6659 29.23V27.6748H23.19V29.23H21.6659Z" fill="black"/>
<path d="M22.8638 29.23V27.6748H24.2351V29.23H22.8638Z" fill="black"/>
<path d="M23.929 29.23V27.6748H24.9955V29.23H23.929Z" fill="black"/>
<path d="M24.9755 29.23V27.6748H26.3468V29.23H24.9755Z" fill="black"/>
<path d="M26.1733 29.23V27.6748H27.6974V29.23H26.1733Z" fill="black"/>
<path d="M27.5239 29.23V27.6748H28.1335V29.23H27.5239Z" fill="black"/>
<path d="M28.1121 29.23V27.6748H29.3307V29.23H28.1121Z" fill="black"/>
<path d="M29.1572 29.23V27.6748H30.3765V29.23H29.1572Z" fill="black"/>
<path d="M30.051 29.23V27.6748H30.6606V29.23H30.051Z" fill="black"/>
<path d="M6 32.23V30.6748H7.06649V32.23H6Z" fill="black"/>
<path d="M6.74097 32.23V30.6748H8.26501V32.23H6.74097Z" fill="black"/>
<path d="M8.09156 32.23V30.6748H9.6156V32.23H8.09156Z" fill="black"/>
<path d="M9.28941 32.23V30.6748H9.89903V32.23H9.28941Z" fill="black"/>
<path d="M9.72491 32.23V30.6748H11.4017V32.23H9.72491Z" fill="black"/>
<path d="M11.247 32.23V30.6748H12.4656V32.23H11.247Z" fill="black"/>
<path d="M12.2921 32.23V30.6748H13.6634V32.23H12.2921Z" fill="black"/>
<path d="M13.3573 32.23V30.6748H14.4238V32.23H13.3573Z" fill="black"/>
<path d="M14.0983 32.23V30.6748H15.6223V32.23H14.0983Z" fill="black"/>
<path d="M15.4489 32.23V30.6748H16.0585V32.23H15.4489Z" fill="black"/>
<path d="M15.8844 32.23V30.6748H17.5611V32.23H15.8844Z" fill="black"/>
<path d="M17.4641 32.23V30.6748H18.6826V32.23H17.4641Z" fill="black"/>
<path d="M18.5092 32.23V30.6748H19.8805V32.23H18.5092Z" fill="black"/>
<path d="M19.5744 32.23V30.6748H21.0984V32.23H19.5744Z" fill="black"/>
<path d="M20.7722 32.23V30.6748H22.2963V32.23H20.7722Z" fill="black"/>
<path d="M22.1992 32.23V30.6748H23.5705V32.23H22.1992Z" fill="black"/>
<path d="M23.397 32.23V30.6748H24.0067V32.23H23.397Z" fill="black"/>
<path d="M23.9853 32.23V30.6748H25.3566V32.23H23.9853Z" fill="black"/>
<path d="M25.1068 32.23V30.6748H26.6308V32.23H25.1068Z" fill="black"/>
<path d="M26.4574 32.23V30.6748H27.6759V32.23H26.4574Z" fill="black"/>
<path d="M27.6552 32.23V30.6748H29.0265V32.23H27.6552Z" fill="black"/>
<path d="M28.7767 32.23V30.6748H29.8432V32.23H28.7767Z" fill="black"/>
<path d="M29.6704 32.23V30.6748H31.1944V32.23H29.6704Z" fill="black"/>
<path d="M30.8682 32.23V30.6748H31.4779V32.23H30.8682Z" fill="black"/>
<path d="M6 35.23V33.6748H8.13366V35.23H6Z" fill="black"/>
<path d="M7.88384 35.23V33.6748H9.40788V35.23H7.88384Z" fill="black"/>
<path d="M9.23443 35.23V33.6748H10.7585V35.23H9.23443Z" fill="black"/>
<path d="M10.4323 35.23V33.6748H11.8036V35.23H10.4323Z" fill="black"/>
<path d="M11.4975 35.23V33.6748H13.0215V35.23H11.4975Z" fill="black"/>
<path d="M12.6953 35.23V33.6748H13.305V35.23H12.6953Z" fill="black"/>
<path d="M13.1308 35.23V33.6748H15.2645V35.23H13.1308Z" fill="black"/>
<path d="M15.0147 35.23V33.6748H16.5387V35.23H15.0147Z" fill="black"/>
<path d="M16.2125 35.23V33.6748H16.8221V35.23H16.2125Z" fill="black"/>
<path d="M16.648 35.23V33.6748H18.0193V35.23H16.648Z" fill="black"/>
<path d="M17.7695 35.23V33.6748H19.2935V35.23H17.7695Z" fill="black"/>
<path d="M19.1965 35.23V33.6748H20.5678V35.23H19.1965Z" fill="black"/>
<path d="M20.3943 35.23V33.6748H21.156V35.23H20.3943Z" fill="black"/>
<path d="M20.9062 35.23V33.6748H21.6679V35.23H20.9062Z" fill="black"/>
<path d="M6.30481 8.12539H23.4125V8.19512H6.30481V8.12539ZM6.30481 11.1254H32.6945V11.1951H6.30481V11.1254ZM6.30481 14.1254H28.8188V14.1951H6.30481V14.1254ZM6.30481 17.1254H28.4906V17.1951H6.30481V17.1254ZM6.30481 20.1254H30.863V20.1951H6.30481V20.1254ZM6.30481 23.1254H32.4252V23.1951H6.30481V23.1254ZM6.30481 26.1254H27.692V26.1951H6.30481V26.1254ZM6.30481 29.1254H30.3551V29.1951H6.30481V29.1254ZM6.30481 32.1254H31.1731V32.1951H6.30481V32.1254ZM6.30481 35.1254H21.8541V35.1951H6.30481V35.1254Z" fill="black"/>
</g>
</g>
<path d="M11.3333 38.6748H2V45.0229H11.3333V38.6748Z" fill="#BB90BB"/>
<path d="M21.6663 38.6748H12.333V45.0229H21.6663V38.6748Z" fill="#805162"/>
</g>
<defs>
<filter id="filter0_d_238_44178" x="0" y="1.6748" width="39" height="35" filterUnits="userSpaceOnUse" color-interpolation-filters="sRGB">
<feFlood flood-opacity="0" result="BackgroundImageFix"/>
<feColorMatrix in="SourceAlpha" type="matrix" values="0 0 0 0 0 0 0 0 0 0 0 0 0 0 0 0 0 0 127 0" result="hardAlpha"/>
<feOffset dy="1"/>
<feGaussianBlur stdDeviation="1"/>
<feComposite in2="hardAlpha" operator="out"/>
<feColorMatrix type="matrix" values="0 0 0 0 0 0 0 0 0 0 0 0 0 0 0 0 0 0 0.1 0"/>
<feBlend mode="normal" in2="BackgroundImageFix" result="effect1_dropShadow_238_44178"/>
<feBlend mode="normal" in="SourceGraphic" in2="effect1_dropShadow_238_44178" result="shape"/>
</filter>
<filter id="filter1_i_238_44178" x="2" y="-2.3252" width="35" height="34" filterUnits="userSpaceOnUse" color-interpolation-filters="sRGB">
<feFlood flood-opacity="0" result="BackgroundImageFix"/>
<feBlend mode="normal" in="SourceGraphic" in2="BackgroundImageFix" result="shape"/>
<feColorMatrix in="SourceAlpha" type="matrix" values="0 0 0 0 0 0 0 0 0 0 0 0 0 0 0 0 0 0 127 0" result="hardAlpha"/>
<feOffset dy="-5"/>
<feGaussianBlur stdDeviation="3.5"/>
<feComposite in2="hardAlpha" operator="arithmetic" k2="-1" k3="1"/>
<feColorMatrix type="matrix" values="0 0 0 0 1 0 0 0 0 1 0 0 0 0 1 0 0 0 1 0"/>
<feBlend mode="normal" in2="shape" result="effect1_innerShadow_238_44178"/>
</filter>
<clipPath id="clip0_238_44178">
<rect width="39" height="46.3481" fill="white" transform="translate(0 0.674805)"/>
</clipPath>
<clipPath id="clip1_238_44178">
<rect width="35" height="31" fill="white" transform="translate(2 2.6748)"/>
</clipPath>
<clipPath id="clip2_238_44178">
<rect width="35" height="29" fill="white" transform="translate(2 2.6748)"/>
</clipPath>
</defs>
</svg>
