<svg width="39" height="48" viewBox="0 0 39 48" fill="none" xmlns="http://www.w3.org/2000/svg">
<g clip-path="url(#clip0_238_44046)">
<g clip-path="url(#clip1_238_44046)" filter="url(#filter0_d_238_44046)">
<rect width="35" height="31" transform="translate(2 2.83496)" fill="white"/>
<g opacity="0.3" clip-path="url(#clip2_238_44046)" filter="url(#filter1_i_238_44046)">
<rect width="35" height="29" transform="translate(2 2.83496)" fill="white"/>
<path d="M6 8.39014V6.83496H6.77546V8.39014H6Z" fill="black"/>
<path d="M6.59887 8.39014V6.83496H8.30598V8.39014H6.59887Z" fill="black"/>
<path d="M8.14849 8.39014V6.83496H9.38909V8.39014H8.14849Z" fill="black"/>
<path d="M9.2125 8.39014V6.83496H10.6086V8.39014H9.2125Z" fill="black"/>
<path d="M10.297 8.39014V6.83496H11.3828V8.39014H10.297Z" fill="black"/>
<path d="M11.0513 8.39014V6.83496H12.603V8.39014H11.0513Z" fill="black"/>
<path d="M12.4264 8.39014V6.83496H13.047V8.39014H12.4264Z" fill="black"/>
<path d="M12.8697 8.39014V6.83496H14.5768V8.39014H12.8697Z" fill="black"/>
<path d="M14.478 8.39014V6.83496H15.7186V8.39014H14.478Z" fill="black"/>
<path d="M15.542 8.39014V6.83496H16.9381V8.39014H15.542Z" fill="black"/>
<path d="M16.6265 8.39014V6.83496H18.1781V8.39014H16.6265Z" fill="black"/>
<path d="M17.846 8.39014V6.83496H19.3976V8.39014H17.846Z" fill="black"/>
<path d="M19.1433 8.39014V6.83496H19.7639V8.39014H19.1433Z" fill="black"/>
<path d="M19.5866 8.39014V6.83496H20.9827V8.39014H19.5866Z" fill="black"/>
<path d="M20.7284 8.39014V6.83496H22.28V8.39014H20.7284Z" fill="black"/>
<path d="M22.1812 8.39014V6.83496H23.5773V8.39014H22.1812Z" fill="black"/>
<path d="M23.4007 8.39014V6.83496H24.0213V8.39014H23.4007Z" fill="black"/>
<path d="M23.8441 8.39014V6.83496H25.3957V8.39014H23.8441Z" fill="black"/>
<path d="M25.2191 8.39014V6.83496H26.7707V8.39014H25.2191Z" fill="black"/>
<path d="M26.4386 8.39014V6.83496H27.8347V8.39014H26.4386Z" fill="black"/>
<path d="M27.7359 8.39014V6.83496H29.2875V8.39014H27.7359Z" fill="black"/>
<path d="M28.9554 8.39014V6.83496H29.576V8.39014H28.9554Z" fill="black"/>
<path d="M6.1555 11.3901V9.83496H7.55161V11.3901H6.1555Z" fill="black"/>
<path d="M7.29727 11.3901V9.83496H8.84887V11.3901H7.29727Z" fill="black"/>
<path d="M8.51678 11.3901V9.83496H10.0684V11.3901H8.51678Z" fill="black"/>
<path d="M9.81405 11.3901V9.83496H11.2102V11.3901H9.81405Z" fill="black"/>
<path d="M10.9558 11.3901V9.83496H12.5074V11.3901H10.9558Z" fill="black"/>
<path d="M12.1753 11.3901V9.83496H12.796V11.3901H12.1753Z" fill="black"/>
<path d="M12.6187 11.3901V9.83496H14.1703V11.3901H12.6187Z" fill="black"/>
<path d="M14.0715 11.3901V9.83496H15.4676V11.3901H14.0715Z" fill="black"/>
<path d="M15.291 11.3901V9.83496H16.8426V11.3901H15.291Z" fill="black"/>
<path d="M16.5882 11.3901V9.83496H17.2089V11.3901H16.5882Z" fill="black"/>
<path d="M17.1871 11.3901V9.83496H18.5832V11.3901H17.1871Z" fill="black"/>
<path d="M18.3289 11.3901V9.83496H19.725V11.3901H18.3289Z" fill="black"/>
<path d="M19.5689 11.3901V9.83496H20.8095V11.3901H19.5689Z" fill="black"/>
<path d="M20.6329 11.3901V9.83496H22.029V11.3901H20.6329Z" fill="black"/>
<path d="M21.9697 11.3901V9.83496H23.3658V11.3901H21.9697Z" fill="black"/>
<path d="M23.1115 11.3901V9.83496H24.6631V11.3901H23.1115Z" fill="black"/>
<path d="M24.331 11.3901V9.83496H25.7271V11.3901H24.331Z" fill="black"/>
<path d="M25.4154 11.3901V9.83496H26.5012V11.3901H25.4154Z" fill="black"/>
<path d="M26.3253 11.3901V9.83496H27.4111V11.3901H26.3253Z" fill="black"/>
<path d="M27.2352 11.3901V9.83496H28.6313V11.3901H27.2352Z" fill="black"/>
<path d="M28.377 11.3901V9.83496H28.9976V11.3901H28.377Z" fill="black"/>
<path d="M6 14.3901V12.835H7.08578V14.3901H6Z" fill="black"/>
<path d="M6.90988 14.3901V12.835H7.99566V14.3901H6.90988Z" fill="black"/>
<path d="M7.81975 14.3901V12.835H9.37136V14.3901H7.81975Z" fill="black"/>
<path d="M9.15657 14.3901V12.835H10.7082V14.3901H9.15657Z" fill="black"/>
<path d="M10.3761 14.3901V12.835H10.9967V14.3901H10.3761Z" fill="black"/>
<path d="M10.8195 14.3901V12.835H11.9052V14.3901H10.8195Z" fill="black"/>
<path d="M11.5738 14.3901V12.835H13.1254V14.3901H11.5738Z" fill="black"/>
<path d="M12.9489 14.3901V12.835H14.5005V14.3901H12.9489Z" fill="black"/>
<path d="M14.1684 14.3901V12.835H14.789V14.3901H14.1684Z" fill="black"/>
<path d="M14.6117 14.3901V12.835H16.0078V14.3901H14.6117Z" fill="black"/>
<path d="M15.6962 14.3901V12.835H17.2478V14.3901H15.6962Z" fill="black"/>
<path d="M16.9157 14.3901V12.835H18.3118V14.3901H16.9157Z" fill="black"/>
<path d="M18.097 14.3901V12.835H19.1828V14.3901H18.097Z" fill="black"/>
<path d="M18.8514 14.3901V12.835H19.4721V14.3901H18.8514Z" fill="black"/>
<path d="M19.4503 14.3901V12.835H20.6909V14.3901H19.4503Z" fill="black"/>
<path d="M20.5143 14.3901V12.835H21.7556V14.3901H20.5143Z" fill="black"/>
<path d="M21.4242 14.3901V12.835H22.0448V14.3901H21.4242Z" fill="black"/>
<path d="M21.8676 14.3901V12.835H22.9533V14.3901H21.8676Z" fill="black"/>
<path d="M22.6219 14.3901V12.835H24.1735V14.3901H22.6219Z" fill="black"/>
<path d="M23.9969 14.3901V12.835H25.5486V14.3901H23.9969Z" fill="black"/>
<path d="M25.2165 14.3901V12.835H25.8371V14.3901H25.2165Z" fill="black"/>
<path d="M6 17.3901V15.835H7.3961V17.3901H6Z" fill="black"/>
<path d="M7.08447 17.3901V15.835H8.63608V17.3901H7.08447Z" fill="black"/>
<path d="M8.30399 17.3901V15.835H9.8556V17.3901H8.30399Z" fill="black"/>
<path d="M9.67901 17.3901V15.835H10.7648V17.3901H9.67901Z" fill="black"/>
<path d="M10.7444 17.3901V15.835H11.985V17.3901H10.7444Z" fill="black"/>
<path d="M11.9639 17.3901V15.835H13.36V17.3901H11.9639Z" fill="black"/>
<path d="M13.1834 17.3901V15.835H13.9589V17.3901H13.1834Z" fill="black"/>
<path d="M13.7045 17.3901V15.835H14.3252V17.3901H13.7045Z" fill="black"/>
<path d="M14.3034 17.3901V15.835H15.6995V17.3901H14.3034Z" fill="black"/>
<path d="M15.3674 17.3901V15.835H16.919V17.3901H15.3674Z" fill="black"/>
<path d="M16.7424 17.3901V15.835H17.8282V17.3901H16.7424Z" fill="black"/>
<path d="M17.4968 17.3901V15.835H18.1175V17.3901H17.4968Z" fill="black"/>
<path d="M18.0957 17.3901V15.835H19.3363V17.3901H18.0957Z" fill="black"/>
<path d="M19.3152 17.3901V15.835H20.7113V17.3901H19.3152Z" fill="black"/>
<path d="M20.5347 17.3901V15.835H21.6205V17.3901H20.5347Z" fill="black"/>
<path d="M21.5223 17.3901V15.835H22.9184V17.3901H21.5223Z" fill="black"/>
<path d="M22.6641 17.3901V15.835H23.2847V17.3901H22.6641Z" fill="black"/>
<path d="M23.1075 17.3901V15.835H25.2797V17.3901H23.1075Z" fill="black"/>
<path d="M25.0254 17.3901V15.835H26.1112V17.3901H25.0254Z" fill="black"/>
<path d="M25.9353 17.3901V15.835H27.021V17.3901H25.9353Z" fill="black"/>
<path d="M26.6896 17.3901V15.835H28.2412V17.3901H26.6896Z" fill="black"/>
<path d="M28.2202 17.3901V15.835H29.4608V17.3901H28.2202Z" fill="black"/>
<path d="M29.2842 17.3901V15.835H30.8358V17.3901H29.2842Z" fill="black"/>
<path d="M30.6592 17.3901V15.835H31.745V17.3901H30.6592Z" fill="black"/>
<path d="M31.4136 17.3901V15.835H32.0342V17.3901H31.4136Z" fill="black"/>
<path d="M6.1555 20.3901V18.835H7.55161V20.3901H6.1555Z" fill="black"/>
<path d="M7.37502 20.3901V18.835H8.92662V20.3901H7.37502Z" fill="black"/>
<path d="M8.75003 20.3901V18.835H10.1461V20.3901H8.75003Z" fill="black"/>
<path d="M9.8918 20.3901V18.835H10.9776V20.3901H9.8918Z" fill="black"/>
<path d="M10.8017 20.3901V18.835H12.3533V20.3901H10.8017Z" fill="black"/>
<path d="M12.0212 20.3901V18.835H13.5728V20.3901H12.0212Z" fill="black"/>
<path d="M13.3185 20.3901V18.835H14.7146V20.3901H13.3185Z" fill="black"/>
<path d="M14.4029 20.3901V18.835H15.0236V20.3901H14.4029Z" fill="black"/>
<path d="M14.8463 20.3901V18.835H17.0185V20.3901H14.8463Z" fill="black"/>
<path d="M16.7642 20.3901V18.835H18.3158V20.3901H16.7642Z" fill="black"/>
<path d="M17.9837 20.3901V18.835H19.5353V20.3901H17.9837Z" fill="black"/>
<path d="M19.4365 20.3901V18.835H20.8326V20.3901H19.4365Z" fill="black"/>
<path d="M20.7338 20.3901V18.835H21.9744V20.3901H20.7338Z" fill="black"/>
<path d="M21.9533 20.3901V18.835H23.3494V20.3901H21.9533Z" fill="black"/>
<path d="M23.1728 20.3901V18.835H24.5689V20.3901H23.1728Z" fill="black"/>
<path d="M24.3541 20.3901V18.835H25.1296V20.3901H24.3541Z" fill="black"/>
<path d="M24.8752 20.3901V18.835H25.4959V20.3901H24.8752Z" fill="black"/>
<path d="M25.3186 20.3901V18.835H27.0257V20.3901H25.3186Z" fill="black"/>
<path d="M26.8682 20.3901V18.835H28.1088V20.3901H26.8682Z" fill="black"/>
<path d="M27.9322 20.3901V18.835H29.3283V20.3901H27.9322Z" fill="black"/>
<path d="M29.0167 20.3901V18.835H30.1025V20.3901H29.0167Z" fill="black"/>
<path d="M29.7711 20.3901V18.835H31.3227V20.3901H29.7711Z" fill="black"/>
<path d="M31.1461 20.3901V18.835H31.7667V20.3901H31.1461Z" fill="black"/>
<path d="M6 23.3901V21.835H7.70711V23.3901H6Z" fill="black"/>
<path d="M7.60827 23.3901V21.835H8.84887V23.3901H7.60827Z" fill="black"/>
<path d="M8.67228 23.3901V21.835H10.0684V23.3901H8.67228Z" fill="black"/>
<path d="M9.75676 23.3901V21.835H11.3084V23.3901H9.75676Z" fill="black"/>
<path d="M10.9763 23.3901V21.835H12.5279V23.3901H10.9763Z" fill="black"/>
<path d="M12.2735 23.3901V21.835H12.8942V23.3901H12.2735Z" fill="black"/>
<path d="M12.7169 23.3901V21.835H14.2685V23.3901H12.7169Z" fill="black"/>
<path d="M14.0919 23.3901V21.835H15.6435V23.3901H14.0919Z" fill="black"/>
<path d="M15.3892 23.3901V21.835H16.7853V23.3901H15.3892Z" fill="black"/>
<path d="M16.5705 23.3901V21.835H17.1912V23.3901H16.5705Z" fill="black"/>
<path d="M17.0139 23.3901V21.835H18.5655V23.3901H17.0139Z" fill="black"/>
<path d="M18.3111 23.3901V21.835H18.9318V23.3901H18.3111Z" fill="black"/>
<path d="M18.7545 23.3901V21.835H20.1506V23.3901H18.7545Z" fill="black"/>
<path d="M19.8963 23.3901V21.835H20.9821V23.3901H19.8963Z" fill="black"/>
<path d="M20.8062 23.3901V21.835H22.3578V23.3901H20.8062Z" fill="black"/>
<path d="M22.0257 23.3901V21.835H23.5773V23.3901H22.0257Z" fill="black"/>
<path d="M23.3229 23.3901V21.835H24.719V23.3901H23.3229Z" fill="black"/>
<path d="M24.4074 23.3901V21.835H25.0281V23.3901H24.4074Z" fill="black"/>
<path d="M24.8508 23.3901V21.835H26.2469V23.3901H24.8508Z" fill="black"/>
<path d="M25.9925 23.3901V21.835H27.5442V23.3901H25.9925Z" fill="black"/>
<path d="M27.5231 23.3901V21.835H28.7637V23.3901H27.5231Z" fill="black"/>
<path d="M28.5871 23.3901V21.835H29.6729V23.3901H28.5871Z" fill="black"/>
<path d="M29.497 23.3901V21.835H30.8931V23.3901H29.497Z" fill="black"/>
<path d="M30.6387 23.3901V21.835H32.1903V23.3901H30.6387Z" fill="black"/>
<path d="M31.8582 23.3901V21.835H32.6337V23.3901H31.8582Z" fill="black"/>
<path d="M32.3794 23.3901V21.835H33V23.3901H32.3794Z" fill="black"/>
<path d="M6 26.3901V24.835H7.24129V26.3901H6Z" fill="black"/>
<path d="M7.06401 26.3901V24.835H8.1498V26.3901H7.06401Z" fill="black"/>
<path d="M7.81839 26.3901V24.835H8.43903V26.3901H7.81839Z" fill="black"/>
<path d="M8.26176 26.3901V24.835H9.65786V26.3901H8.26176Z" fill="black"/>
<path d="M9.40352 26.3901V24.835H10.9551V26.3901H9.40352Z" fill="black"/>
<path d="M10.8563 26.3901V24.835H12.2524V26.3901H10.8563Z" fill="black"/>
<path d="M12.0758 26.3901V24.835H12.6964V26.3901H12.0758Z" fill="black"/>
<path d="M12.5192 26.3901V24.835H13.9153V26.3901H12.5192Z" fill="black"/>
<path d="M13.6609 26.3901V24.835H15.2125V26.3901H13.6609Z" fill="black"/>
<path d="M15.1915 26.3901V24.835H16.4321V26.3901H15.1915Z" fill="black"/>
<path d="M16.411 26.3901V24.835H17.6516V26.3901H16.411Z" fill="black"/>
<path d="M17.475 26.3901V24.835H18.8711V26.3901H17.475Z" fill="black"/>
<path d="M18.6563 26.3901V24.835H20.2079V26.3901H18.6563Z" fill="black"/>
<path d="M19.8758 26.3901V24.835H20.4965V26.3901H19.8758Z" fill="black"/>
<path d="M20.3192 26.3901V24.835H21.8708V26.3901H20.3192Z" fill="black"/>
<path d="M21.6165 26.3901V24.835H22.2371V26.3901H21.6165Z" fill="black"/>
<path d="M22.2153 26.3901V24.835H23.6114V26.3901H22.2153Z" fill="black"/>
<path d="M23.2793 26.3901V24.835H24.831V26.3901H23.2793Z" fill="black"/>
<path d="M24.4989 26.3901V24.835H25.5846V26.3901H24.4989Z" fill="black"/>
<path d="M25.2532 26.3901V24.835H26.339V26.3901H25.2532Z" fill="black"/>
<path d="M26.0076 26.3901V24.835H27.5592V26.3901H26.0076Z" fill="black"/>
<path d="M27.2271 26.3901V24.835H28.6232V26.3901H27.2271Z" fill="black"/>
<path d="M28.3116 26.3901V24.835H28.9322V26.3901H28.3116Z" fill="black"/>
<path d="M6.1555 29.3901V27.835H7.55161V29.3901H6.1555Z" fill="black"/>
<path d="M7.29727 29.3901V27.835H8.84887V29.3901H7.29727Z" fill="black"/>
<path d="M8.59453 29.3901V27.835H9.68031V29.3901H8.59453Z" fill="black"/>
<path d="M9.34891 29.3901V27.835H10.9005V29.3901H9.34891Z" fill="black"/>
<path d="M10.7239 29.3901V27.835H11.3446V29.3901H10.7239Z" fill="black"/>
<path d="M11.1673 29.3901V27.835H12.4086V29.3901H11.1673Z" fill="black"/>
<path d="M12.2327 29.3901V27.835H13.4733V29.3901H12.2327Z" fill="black"/>
<path d="M13.2967 29.3901V27.835H14.6928V29.3901H13.2967Z" fill="black"/>
<path d="M14.3812 29.3901V27.835H15.0018V29.3901H14.3812Z" fill="black"/>
<path d="M14.8245 29.3901V27.835H15.9103V29.3901H14.8245Z" fill="black"/>
<path d="M15.7344 29.3901V27.835H16.8202V29.3901H15.7344Z" fill="black"/>
<path d="M16.4888 29.3901V27.835H17.8849V29.3901H16.4888Z" fill="black"/>
<path d="M17.6701 29.3901V27.835H18.2907V29.3901H17.6701Z" fill="black"/>
<path d="M18.269 29.3901V27.835H19.6651V29.3901H18.269Z" fill="black"/>
<path d="M19.4107 29.3901V27.835H20.9623V29.3901H19.4107Z" fill="black"/>
<path d="M20.7858 29.3901V27.835H22.0264V29.3901H20.7858Z" fill="black"/>
<path d="M22.0053 29.3901V27.835H23.4014V29.3901H22.0053Z" fill="black"/>
<path d="M23.147 29.3901V27.835H24.2328V29.3901H23.147Z" fill="black"/>
<path d="M24.0569 29.3901V27.835H25.6085V29.3901H24.0569Z" fill="black"/>
<path d="M25.2764 29.3901V27.835H26.0519V29.3901H25.2764Z" fill="black"/>
<path d="M25.7975 29.3901V27.835H26.4182V29.3901H25.7975Z" fill="black"/>
<path d="M26.3964 29.3901V27.835H27.637V29.3901H26.3964Z" fill="black"/>
<path d="M27.4604 29.3901V27.835H28.8565V29.3901H27.4604Z" fill="black"/>
<path d="M28.5449 29.3901V27.835H29.1655V29.3901H28.5449Z" fill="black"/>
<path d="M6 32.3901V30.835H7.3961V32.3901H6Z" fill="black"/>
<path d="M7.29727 32.3901V30.835H8.53787V32.3901H7.29727Z" fill="black"/>
<path d="M8.51678 32.3901V30.835H9.91289V32.3901H8.51678Z" fill="black"/>
<path d="M9.7363 32.3901V30.835H10.8221V32.3901H9.7363Z" fill="black"/>
<path d="M10.4907 32.3901V30.835H11.5765V32.3901H10.4907Z" fill="black"/>
<path d="M11.556 32.3901V30.835H12.9522V32.3901H11.556Z" fill="black"/>
<path d="M12.7756 32.3901V30.835H14.3272V32.3901H12.7756Z" fill="black"/>
<path d="M14.1506 32.3901V30.835H15.7022V32.3901H14.1506Z" fill="black"/>
<path d="M15.3701 32.3901V30.835H15.9907V32.3901H15.3701Z" fill="black"/>
<path d="M15.8135 32.3901V30.835H17.3651V32.3901H15.8135Z" fill="black"/>
<path d="M17.2662 32.3901V30.835H18.5068V32.3901H17.2662Z" fill="black"/>
<path d="M18.3302 32.3901V30.835H20.5025V32.3901H18.3302Z" fill="black"/>
<path d="M20.4037 32.3901V30.835H21.7998V32.3901H20.4037Z" fill="black"/>
<path d="M21.6232 32.3901V30.835H22.2438V32.3901H21.6232Z" fill="black"/>
<path d="M22.0665 32.3901V30.835H23.1523V32.3901H22.0665Z" fill="black"/>
<path d="M22.8209 32.3901V30.835H24.3725V32.3901H22.8209Z" fill="black"/>
<path d="M24.1959 32.3901V30.835H25.7475V32.3901H24.1959Z" fill="black"/>
<path d="M25.4154 32.3901V30.835H26.0361V32.3901H25.4154Z" fill="black"/>
<path d="M25.8588 32.3901V30.835H27.2549V32.3901H25.8588Z" fill="black"/>
<path d="M27.0988 32.3901V30.835H28.3394V32.3901H27.0988Z" fill="black"/>
<path d="M28.1628 32.3901V30.835H29.7144V32.3901H28.1628Z" fill="black"/>
<path d="M29.4601 32.3901V30.835H31.0117V32.3901H29.4601Z" fill="black"/>
<path d="M30.7573 32.3901V30.835H31.378V32.3901H30.7573Z" fill="black"/>
<path d="M6 35.3901V33.835H7.08578V35.3901H6Z" fill="black"/>
<path d="M6.75437 35.3901V33.835H8.30598V35.3901H6.75437Z" fill="black"/>
<path d="M8.12939 35.3901V33.835H9.681V35.3901H8.12939Z" fill="black"/>
<path d="M9.50441 35.3901V33.835H10.9005V35.3901H9.50441Z" fill="black"/>
<path d="M10.6462 35.3901V33.835H11.4216V35.3901H10.6462Z" fill="black"/>
<path d="M11.245 35.3901V33.835H12.6411V35.3901H11.245Z" fill="black"/>
<path d="M12.3295 35.3901V33.835H13.8811V35.3901H12.3295Z" fill="black"/>
<path d="M13.549 35.3901V33.835H14.1697V35.3901H13.549Z" fill="black"/>
<path d="M14.1479 35.3901V33.835H15.3885V35.3901H14.1479Z" fill="black"/>
<path d="M15.3674 35.3901V33.835H16.7635V35.3901H15.3674Z" fill="black"/>
<path d="M16.5869 35.3901V33.835H17.3624V35.3901H16.5869Z" fill="black"/>
<path d="M17.1081 35.3901V33.835H17.7287V35.3901H17.1081Z" fill="black"/>
<path d="M17.5514 35.3901V33.835H19.5689V35.3901H17.5514Z" fill="black"/>
<path d="M19.3725 35.3901V33.835H20.9241V35.3901H19.3725Z" fill="black"/>
<path d="M20.6698 35.3901V33.835H22.2214V35.3901H20.6698Z" fill="black"/>
<path d="M22.0066 35.3901V33.835H23.5582V35.3901H22.0066Z" fill="black"/>
<path d="M23.2261 35.3901V33.835H23.8467V35.3901H23.2261Z" fill="black"/>
<path d="M23.825 35.3901V33.835H25.2211V35.3901H23.825Z" fill="black"/>
<path d="M25.2 35.3901V33.835H26.4406V35.3901H25.2Z" fill="black"/>
<path d="M26.264 35.3901V33.835H26.8846V35.3901H26.264Z" fill="black"/>
<path d="M6 38.3901V36.835H8.01743V38.3901H6Z" fill="black"/>
<path d="M7.91791 38.3901V36.835H9.00369V38.3901H7.91791Z" fill="black"/>
<path d="M8.82778 38.3901V36.835H10.2239V38.3901H8.82778Z" fill="black"/>
<path d="M10.0091 38.3901V36.835H11.0949V38.3901H10.0091Z" fill="black"/>
<path d="M10.7635 38.3901V36.835H12.3151V38.3901H10.7635Z" fill="black"/>
<path d="M12.0607 38.3901V36.835H13.6124V38.3901H12.0607Z" fill="black"/>
<path d="M13.3976 38.3901V36.835H14.9492V38.3901H13.3976Z" fill="black"/>
<path d="M14.6171 38.3901V36.835H15.2377V38.3901H14.6171Z" fill="black"/>
<path d="M15.0605 38.3901V36.835H16.6121V38.3901H15.0605Z" fill="black"/>
<path d="M16.5132 38.3901V36.835H17.9093V38.3901H16.5132Z" fill="black"/>
<path d="M17.7327 38.3901V36.835H18.9733V38.3901H17.7327Z" fill="black"/>
<path d="M18.7968 38.3901V36.835H20.3484V38.3901H18.7968Z" fill="black"/>
<path d="M20.1718 38.3901V36.835H21.2576V38.3901H20.1718Z" fill="black"/>
<path d="M20.9261 38.3901V36.835H21.5468V38.3901H20.9261Z" fill="black"/>
<path d="M21.3695 38.3901V36.835H22.4553V38.3901H21.3695Z" fill="black"/>
<path d="M22.2794 38.3901V36.835H23.3652V38.3901H22.2794Z" fill="black"/>
<path d="M23.0338 38.3901V36.835H23.8092V38.3901H23.0338Z" fill="black"/>
<path d="M23.5549 38.3901V36.835H24.1755V38.3901H23.5549Z" fill="black"/>
<path d="M23.9983 38.3901V36.835H25.084V38.3901H23.9983Z" fill="black"/>
<path d="M24.7526 38.3901V36.835H26.3042V38.3901H24.7526Z" fill="black"/>
<path d="M26.2831 38.3901V36.835H27.5237V38.3901H26.2831Z" fill="black"/>
<path d="M27.3472 38.3901V36.835H28.8988V38.3901H27.3472Z" fill="black"/>
<path d="M28.7222 38.3901V36.835H30.2738V38.3901H28.7222Z" fill="black"/>
<path d="M30.0972 38.3901V36.835H31.6488V38.3901H30.0972Z" fill="black"/>
<path d="M31.4722 38.3901V36.835H32.2477V38.3901H31.4722Z" fill="black"/>
<path d="M31.9933 38.3901V36.835H32.614V38.3901H31.9933Z" fill="black"/>
<path d="M6.1555 41.3901V39.835H8.32775V41.3901H6.1555Z" fill="black"/>
<path d="M8.1116 41.3901V39.835H9.66321V41.3901H8.1116Z" fill="black"/>
<path d="M9.33112 41.3901V39.835H9.95176V41.3901H9.33112Z" fill="black"/>
<path d="M9.77449 41.3901V39.835H11.3261V41.3901H9.77449Z" fill="black"/>
<path d="M11.0718 41.3901V39.835H12.4679V41.3901H11.0718Z" fill="black"/>
<path d="M12.1562 41.3901V39.835H13.7078V41.3901H12.1562Z" fill="black"/>
<path d="M13.3757 41.3901V39.835H13.9964V41.3901H13.3757Z" fill="black"/>
<path d="M13.9746 41.3901V39.835H15.2152V41.3901H13.9746Z" fill="black"/>
<path d="M15.1941 41.3901V39.835H16.5902V41.3901H15.1941Z" fill="black"/>
<path d="M16.3359 41.3901V39.835H17.8875V41.3901H16.3359Z" fill="black"/>
<path d="M17.7109 41.3901V39.835H19.107V41.3901H17.7109Z" fill="black"/>
<path d="M18.9304 41.3901V39.835H19.5511V41.3901H18.9304Z" fill="black"/>
<path d="M19.3738 41.3901V39.835H20.4596V41.3901H19.3738Z" fill="black"/>
<path d="M20.2837 41.3901V39.835H21.5243V41.3901H20.2837Z" fill="black"/>
<path d="M21.3477 41.3901V39.835H21.9683V41.3901H21.3477Z" fill="black"/>
<path d="M21.7911 41.3901V39.835H23.3427V41.3901H21.7911Z" fill="black"/>
<path d="M23.1661 41.3901V39.835H24.5622V41.3901H23.1661Z" fill="black"/>
<path d="M24.3856 41.3901V39.835H25.9372V41.3901H24.3856Z" fill="black"/>
<path d="M25.7606 41.3901V39.835H27.3122V41.3901H25.7606Z" fill="black"/>
<path d="M27.0579 41.3901V39.835H28.6095V41.3901H27.0579Z" fill="black"/>
<path d="M28.4329 41.3901V39.835H29.5187V41.3901H28.4329Z" fill="black"/>
<path d="M29.4983 41.3901V39.835H30.8944V41.3901H29.4983Z" fill="black"/>
<path d="M30.7178 41.3901V39.835H32.2694V41.3901H30.7178Z" fill="black"/>
<path d="M32.0928 41.3901V39.835H32.7134V41.3901H32.0928Z" fill="black"/>
<path d="M6 44.3901V42.835H8.17225V44.3901H6Z" fill="black"/>
<path d="M7.91791 44.3901V42.835H9.00369V44.3901H7.91791Z" fill="black"/>
<path d="M8.82778 44.3901V42.835H9.91357V44.3901H8.82778Z" fill="black"/>
<path d="M9.58216 44.3901V42.835H11.1338V44.3901H9.58216Z" fill="black"/>
<path d="M10.9572 44.3901V42.835H11.5778V44.3901H10.9572Z" fill="black"/>
<path d="M11.4005 44.3901V42.835H12.9522V44.3901H11.4005Z" fill="black"/>
<path d="M12.8533 44.3901V42.835H14.2494V44.3901H12.8533Z" fill="black"/>
<path d="M14.1506 44.3901V42.835H15.5467V44.3901H14.1506Z" fill="black"/>
<path d="M15.2923 44.3901V42.835H15.913V44.3901H15.2923Z" fill="black"/>
<path d="M15.8912 44.3901V42.835H17.2873V44.3901H15.8912Z" fill="black"/>
<path d="M17.1107 44.3901V42.835H18.6623V44.3901H17.1107Z" fill="black"/>
<path d="M18.408 44.3901V42.835H19.4938V44.3901H18.408Z" fill="black"/>
<path d="M19.1624 44.3901V42.835H20.2482V44.3901H19.1624Z" fill="black"/>
<path d="M20.2277 44.3901V42.835H21.4684V44.3901H20.2277Z" fill="black"/>
<path d="M21.4473 44.3901V42.835H22.8434V44.3901H21.4473Z" fill="black"/>
<path d="M22.6668 44.3901V42.835H23.2874V44.3901H22.6668Z" fill="black"/>
<path d="M23.1101 44.3901V42.835H24.1959V44.3901H23.1101Z" fill="black"/>
<path d="M23.8645 44.3901V42.835H25.4161V44.3901H23.8645Z" fill="black"/>
<path d="M25.2395 44.3901V42.835H26.7911V44.3901H25.2395Z" fill="black"/>
<path d="M26.5368 44.3901V42.835H27.6226V44.3901H26.5368Z" fill="black"/>
<path d="M27.2912 44.3901V42.835H28.0666V44.3901H27.2912Z" fill="black"/>
<path d="M27.89 44.3901V42.835H29.2862V44.3901H27.89Z" fill="black"/>
<path d="M29.0714 44.3901V42.835H29.692V44.3901H29.0714Z" fill="black"/>
<path d="M6.1555 47.3901V45.835H7.55161V47.3901H6.1555Z" fill="black"/>
<path d="M7.29727 47.3901V45.835H8.69337V47.3901H7.29727Z" fill="black"/>
<path d="M8.38174 47.3901V45.835H9.93335V47.3901H8.38174Z" fill="black"/>
<path d="M9.75676 47.3901V45.835H11.1529V47.3901H9.75676Z" fill="black"/>
<path d="M10.8985 47.3901V45.835H12.4501V47.3901H10.8985Z" fill="black"/>
<path d="M12.1958 47.3901V45.835H13.5919V47.3901H12.1958Z" fill="black"/>
<path d="M13.2803 47.3901V45.835H14.8319V47.3901H13.2803Z" fill="black"/>
<path d="M14.4998 47.3901V45.835H16.0514V47.3901H14.4998Z" fill="black"/>
<path d="M15.797 47.3901V45.835H16.4177V47.3901H15.797Z" fill="black"/>
<path d="M16.2404 47.3901V45.835H17.3262V47.3901H16.2404Z" fill="black"/>
<path d="M17.1503 47.3901V45.835H18.3909V47.3901H17.1503Z" fill="black"/>
<path d="M18.2143 47.3901V45.835H18.8349V47.3901H18.2143Z" fill="black"/>
<path d="M18.6577 47.3901V45.835H19.7435V47.3901H18.6577Z" fill="black"/>
<path d="M19.5675 47.3901V45.835H20.6533V47.3901H19.5675Z" fill="black"/>
<path d="M20.3997 47.3901V45.835H21.7958V47.3901H20.3997Z" fill="black"/>
<path d="M21.6969 47.3901V45.835H23.2485V47.3901H21.6969Z" fill="black"/>
<path d="M22.9165 47.3901V45.835H23.5371V47.3901H22.9165Z" fill="black"/>
<path d="M23.3598 47.3901V45.835H24.9114V47.3901H23.3598Z" fill="black"/>
<path d="M24.8903 47.3901V45.835H26.2864V47.3901H24.8903Z" fill="black"/>
<path d="M26.0321 47.3901V45.835H26.6527V47.3901H26.0321Z" fill="black"/>
<path d="M26.4755 47.3901V45.835H27.5613V47.3901H26.4755Z" fill="black"/>
<path d="M27.3854 47.3901V45.835H28.626V47.3901H27.3854Z" fill="black"/>
<path d="M28.4494 47.3901V45.835H29.07V47.3901H28.4494Z" fill="black"/>
<path d="M28.8927 47.3901V45.835H29.9785V47.3901H28.8927Z" fill="black"/>
<path d="M29.8026 47.3901V45.835H30.8884V47.3901H29.8026Z" fill="black"/>
<path d="M30.557 47.3901V45.835H31.9531V47.3901H30.557Z" fill="black"/>
<path d="M31.7383 47.3901V45.835H32.359V47.3901H31.7383Z" fill="black"/>
<path d="M6 50.3901V48.835H7.08578V50.3901H6Z" fill="black"/>
<path d="M7.06538 50.3901V48.835H8.46148V50.3901H7.06538Z" fill="black"/>
<path d="M8.28489 50.3901V48.835H9.37068V50.3901H8.28489Z" fill="black"/>
<path d="M9.03927 50.3901V48.835H10.5909V50.3901H9.03927Z" fill="black"/>
<path d="M10.2588 50.3901V48.835H11.6549V50.3901H10.2588Z" fill="black"/>
<path d="M11.4988 50.3901V48.835H12.8949V50.3901H11.4988Z" fill="black"/>
<path d="M12.7183 50.3901V48.835H14.2699V50.3901H12.7183Z" fill="black"/>
<path d="M14.0155 50.3901V48.835H15.1013V50.3901H14.0155Z" fill="black"/>
<path d="M14.7699 50.3901V48.835H15.8557V50.3901H14.7699Z" fill="black"/>
<path d="M15.8353 50.3901V48.835H17.0759V50.3901H15.8353Z" fill="black"/>
<path d="M17.0548 50.3901V48.835H18.4509V50.3901H17.0548Z" fill="black"/>
<path d="M18.2743 50.3901V48.835H19.8259V50.3901H18.2743Z" fill="black"/>
<path d="M19.5716 50.3901V48.835H20.6574V50.3901H19.5716Z" fill="black"/>
<path d="M20.4815 50.3901V48.835H21.1021V50.3901H20.4815Z" fill="black"/>
<path d="M6.1555 53.3901V51.835H7.3961V53.3901H6.1555Z" fill="black"/>
<path d="M7.37502 53.3901V51.835H8.77112V53.3901H7.37502Z" fill="black"/>
<path d="M8.43903 53.3901V51.835H9.52481V53.3901H8.43903Z" fill="black"/>
<path d="M9.34891 53.3901V51.835H10.4347V53.3901H9.34891Z" fill="black"/>
<path d="M10.2588 53.3901V51.835H11.8104V53.3901H10.2588Z" fill="black"/>
<path d="M11.6338 53.3901V51.835H13.1854V53.3901H11.6338Z" fill="black"/>
<path d="M12.9311 53.3901V51.835H14.0168V53.3901H12.9311Z" fill="black"/>
<path d="M13.6854 53.3901V51.835H14.7712V53.3901H13.6854Z" fill="black"/>
<path d="M14.7508 53.3901V51.835H15.9914V53.3901H14.7508Z" fill="black"/>
<path d="M15.9703 53.3901V51.835H17.3664V53.3901H15.9703Z" fill="black"/>
<path d="M17.1898 53.3901V51.835H18.586V53.3901H17.1898Z" fill="black"/>
<path d="M18.3712 53.3901V51.835H19.1466V53.3901H18.3712Z" fill="black"/>
<path d="M18.8923 53.3901V51.835H19.6678V53.3901H18.8923Z" fill="black"/>
<path d="M6.31032 8.28555H29.2657V8.35527H6.31032V8.28555ZM6.31032 11.2855H28.6873V11.3553H6.31032V11.2855ZM6.31032 14.2855H25.5268V14.3553H6.31032V14.2855ZM6.31032 17.2855H31.7232V17.3553H6.31032V17.2855ZM6.31032 20.2855H31.4564V20.3553H6.31032V20.2855ZM6.31032 23.2855H32.6897V23.3553H6.31032V23.2855ZM6.31032 26.2855H28.6212V26.3553H6.31032V26.2855ZM6.31032 29.2855H28.8545V29.3553H6.31032V29.2855ZM6.31032 32.2855H31.0677V32.3553H6.31032V32.2855ZM6.31032 35.2855H26.5743V35.3553H6.31032V35.2855ZM6.31032 38.2855H32.3037V38.3553H6.31032V38.2855ZM6.31032 41.2855H32.4031V41.3553H6.31032V41.2855ZM6.31032 44.2855H29.381V44.3553H6.31032V44.2855ZM6.31032 47.2855H32.0479V47.3553H6.31032V47.2855ZM6.31032 50.2855H20.7911V50.3553H6.31032V50.2855ZM6.31032 53.2855H19.8574V53.3553H6.31032V53.2855Z" fill="black"/>
</g>
<rect width="12" height="14" transform="translate(25 18.835)" fill="white"/>
<path d="M31.4307 23.8535C31.141 23.8535 30.8838 23.9105 30.6592 24.0244C30.4378 24.1351 30.2507 24.2962 30.0977 24.5078C29.9479 24.7194 29.834 24.9749 29.7559 25.2744C29.6777 25.5739 29.6387 25.9108 29.6387 26.2852C29.6387 26.7897 29.7005 27.221 29.8242 27.5791C29.9512 27.9339 30.1465 28.2057 30.4102 28.3945C30.6738 28.5801 31.014 28.6729 31.4307 28.6729C31.7204 28.6729 32.0101 28.6403 32.2998 28.5752C32.5928 28.5101 32.9102 28.4173 33.252 28.2969V29.5664C32.9362 29.6966 32.6253 29.7894 32.3193 29.8447C32.0133 29.9033 31.6699 29.9326 31.2891 29.9326C30.5534 29.9326 29.9479 29.7812 29.4727 29.4785C29.0007 29.1725 28.6507 28.7461 28.4229 28.1992C28.195 27.6491 28.0811 27.0078 28.0811 26.2754C28.0811 25.735 28.1543 25.2402 28.3008 24.791C28.4473 24.3418 28.6621 23.9528 28.9453 23.624C29.2285 23.2952 29.5785 23.0413 29.9951 22.8623C30.4118 22.6833 30.8903 22.5938 31.4307 22.5938C31.7855 22.5938 32.1403 22.6393 32.4951 22.7305C32.8532 22.8184 33.195 22.9404 33.5205 23.0967L33.0322 24.3271C32.7653 24.2002 32.4967 24.0895 32.2266 23.9951C31.9564 23.9007 31.6911 23.8535 31.4307 23.8535Z" fill="#585858"/>
</g>
<path d="M11.3333 38.835H2V45.183H11.3333V38.835Z" fill="#E1C278"/>
</g>
<defs>
<filter id="filter0_d_238_44046" x="0" y="1.83496" width="39" height="35" filterUnits="userSpaceOnUse" color-interpolation-filters="sRGB">
<feFlood flood-opacity="0" result="BackgroundImageFix"/>
<feColorMatrix in="SourceAlpha" type="matrix" values="0 0 0 0 0 0 0 0 0 0 0 0 0 0 0 0 0 0 127 0" result="hardAlpha"/>
<feOffset dy="1"/>
<feGaussianBlur stdDeviation="1"/>
<feComposite in2="hardAlpha" operator="out"/>
<feColorMatrix type="matrix" values="0 0 0 0 0 0 0 0 0 0 0 0 0 0 0 0 0 0 0.1 0"/>
<feBlend mode="normal" in2="BackgroundImageFix" result="effect1_dropShadow_238_44046"/>
<feBlend mode="normal" in="SourceGraphic" in2="effect1_dropShadow_238_44046" result="shape"/>
</filter>
<filter id="filter1_i_238_44046" x="2" y="-2.16504" width="35" height="34" filterUnits="userSpaceOnUse" color-interpolation-filters="sRGB">
<feFlood flood-opacity="0" result="BackgroundImageFix"/>
<feBlend mode="normal" in="SourceGraphic" in2="BackgroundImageFix" result="shape"/>
<feColorMatrix in="SourceAlpha" type="matrix" values="0 0 0 0 0 0 0 0 0 0 0 0 0 0 0 0 0 0 127 0" result="hardAlpha"/>
<feOffset dy="-5"/>
<feGaussianBlur stdDeviation="3.5"/>
<feComposite in2="hardAlpha" operator="arithmetic" k2="-1" k3="1"/>
<feColorMatrix type="matrix" values="0 0 0 0 1 0 0 0 0 1 0 0 0 0 1 0 0 0 1 0"/>
<feBlend mode="normal" in2="shape" result="effect1_innerShadow_238_44046"/>
</filter>
<clipPath id="clip0_238_44046">
<rect width="39" height="46.3481" fill="white" transform="translate(0 0.834961)"/>
</clipPath>
<clipPath id="clip1_238_44046">
<rect width="35" height="31" fill="white" transform="translate(2 2.83496)"/>
</clipPath>
<clipPath id="clip2_238_44046">
<rect width="35" height="29" fill="white" transform="translate(2 2.83496)"/>
</clipPath>
</defs>
</svg>
