<svg width="39" height="47" viewBox="0 0 39 47" fill="none" xmlns="http://www.w3.org/2000/svg">
<g clip-path="url(#clip0_238_43903)">
<rect width="35" height="31" transform="translate(2 2.0918)" fill="white"/>
<g opacity="0.3" clip-path="url(#clip1_238_43903)" filter="url(#filter0_i_238_43903)">
<rect width="35" height="29" transform="translate(2 2.0918)" fill="white"/>
<path d="M6 7.64697V6.0918H6.79478V7.64697H6Z" fill="black"/>
<path d="M6.61379 7.64697V6.0918H8.20404V7.64697H6.61379Z" fill="black"/>
<path d="M8.02305 7.64697V6.0918H9.61331V7.64697H8.02305Z" fill="black"/>
<path d="M9.43232 7.64697V6.0918H11.0226V7.64697H9.43232Z" fill="black"/>
<path d="M10.6822 7.64697V6.0918H11.3183V7.64697H10.6822Z" fill="black"/>
<path d="M11.1366 7.64697V6.0918H12.8863V7.64697H11.1366Z" fill="black"/>
<path d="M12.7444 7.64697V6.0918H14.1753V7.64697H12.7444Z" fill="black"/>
<path d="M13.9943 7.64697V6.0918H15.1071V7.64697H13.9943Z" fill="black"/>
<path d="M14.9268 7.64697V6.0918H16.0397V7.64697H14.9268Z" fill="black"/>
<path d="M15.7 7.64697V6.0918H17.2903V7.64697H15.7Z" fill="black"/>
<path d="M16.9499 7.64697V6.0918H18.5401V7.64697H16.9499Z" fill="black"/>
<path d="M18.2795 7.64697V6.0918H18.9156V7.64697H18.2795Z" fill="black"/>
<path d="M18.7339 7.64697V6.0918H20.1648V7.64697H18.7339Z" fill="black"/>
<path d="M20.0635 7.64697V6.0918H21.1763V7.64697H20.0635Z" fill="black"/>
<path d="M20.8366 7.64697V6.0918H22.4269V7.64697H20.8366Z" fill="black"/>
<path d="M22.1662 7.64697V6.0918H23.279V7.64697H22.1662Z" fill="black"/>
<path d="M22.9394 7.64697V6.0918H24.5296V7.64697H22.9394Z" fill="black"/>
<path d="M24.1893 7.64697V6.0918H25.6201V7.64697H24.1893Z" fill="black"/>
<path d="M25.4 7.64697V6.0918H26.0361V7.64697H25.4Z" fill="black"/>
<path d="M25.8544 7.64697V6.0918H26.9672V7.64697H25.8544Z" fill="black"/>
<path d="M26.787 7.64697V6.0918H28.2178V7.64697H26.787Z" fill="black"/>
<path d="M27.9977 7.64697V6.0918H28.6338V7.64697H27.9977Z" fill="black"/>
<path d="M6 10.647V9.0918H7.2722V10.647H6Z" fill="black"/>
<path d="M6.93254 10.647V9.0918H8.52279V10.647H6.93254Z" fill="black"/>
<path d="M8.3418 10.647V9.0918H9.45463V10.647H8.3418Z" fill="black"/>
<path d="M9.27434 10.647V9.0918H10.3872V10.647H9.27434Z" fill="black"/>
<path d="M10.2866 10.647V9.0918H11.7174V10.647H10.2866Z" fill="black"/>
<path d="M11.4568 10.647V9.0918H12.0929V10.647H11.4568Z" fill="black"/>
<path d="M11.9112 10.647V9.0918H13.3421V10.647H11.9112Z" fill="black"/>
<path d="M13.2408 10.647V9.0918H14.5123V10.647H13.2408Z" fill="black"/>
<path d="M14.3313 10.647V9.0918H16.399V10.647H14.3313Z" fill="black"/>
<path d="M16.297 10.647V9.0918H18.3646V10.647H16.297Z" fill="black"/>
<path d="M18.2626 10.647V9.0918H19.3755V10.647H18.2626Z" fill="black"/>
<path d="M19.1952 10.647V9.0918H20.308V10.647H19.1952Z" fill="black"/>
<path d="M19.9683 10.647V9.0918H21.0812V10.647H19.9683Z" fill="black"/>
<path d="M20.7415 10.647V9.0918H22.3318V10.647H20.7415Z" fill="black"/>
<path d="M21.9914 10.647V9.0918H23.5816V10.647H21.9914Z" fill="black"/>
<path d="M23.321 10.647V9.0918H23.9571V10.647H23.321Z" fill="black"/>
<path d="M23.7754 10.647V9.0918H24.8882V10.647H23.7754Z" fill="black"/>
<path d="M24.7079 10.647V9.0918H25.9794V10.647H24.7079Z" fill="black"/>
<path d="M25.7984 10.647V9.0918H26.4345V10.647H25.7984Z" fill="black"/>
<path d="M6 13.647V12.0918H8.06768V13.647H6Z" fill="black"/>
<path d="M7.96568 13.647V12.0918H9.55593V13.647H7.96568Z" fill="black"/>
<path d="M9.29526 13.647V12.0918H10.4081V13.647H9.29526Z" fill="black"/>
<path d="M10.3872 13.647V12.0918H11.818V13.647H10.3872Z" fill="black"/>
<path d="M11.6371 13.647V12.0918H12.7499V13.647H11.6371Z" fill="black"/>
<path d="M12.4102 13.647V12.0918H14.0005V13.647H12.4102Z" fill="black"/>
<path d="M13.7398 13.647V12.0918H14.8526V13.647H13.7398Z" fill="black"/>
<path d="M14.8317 13.647V12.0918H16.2626V13.647H14.8317Z" fill="black"/>
<path d="M16.0816 13.647V12.0918H17.1944V13.647H16.0816Z" fill="black"/>
<path d="M17.1735 13.647V12.0918H18.6044V13.647H17.1735Z" fill="black"/>
<path d="M18.4234 13.647V12.0918H20.0137V13.647H18.4234Z" fill="black"/>
<path d="M19.8327 13.647V12.0918H20.4688V13.647H19.8327Z" fill="black"/>
<path d="M20.2871 13.647V12.0918H21.718V13.647H20.2871Z" fill="black"/>
<path d="M21.4978 13.647V12.0918H23.0881V13.647H21.4978Z" fill="black"/>
<path d="M22.7477 13.647V12.0918H24.1786V13.647H22.7477Z" fill="black"/>
<path d="M23.9179 13.647V12.0918H25.5082V13.647H23.9179Z" fill="black"/>
<path d="M25.3272 13.647V12.0918H26.7581V13.647H25.3272Z" fill="black"/>
<path d="M26.4387 13.647V12.0918H27.5515V13.647H26.4387Z" fill="black"/>
<path d="M27.3712 13.647V12.0918H28.484V13.647H27.3712Z" fill="black"/>
<path d="M28.3038 13.647V12.0918H29.7346V13.647H28.3038Z" fill="black"/>
<path d="M29.474 13.647V12.0918H30.1101V13.647H29.474Z" fill="black"/>
<path d="M6 16.647V15.0918H7.59025V16.647H6Z" fill="black"/>
<path d="M7.48895 16.647V15.0918H8.91983V16.647H7.48895Z" fill="black"/>
<path d="M8.73884 16.647V15.0918H10.3291V16.647H8.73884Z" fill="black"/>
<path d="M10.0684 16.647V15.0918H10.7045V16.647H10.0684Z" fill="black"/>
<path d="M10.5228 16.647V15.0918H11.9537V16.647H10.5228Z" fill="black"/>
<path d="M11.7336 16.647V15.0918H12.8464V16.647H11.7336Z" fill="black"/>
<path d="M12.5067 16.647V15.0918H14.097V16.647H12.5067Z" fill="black"/>
<path d="M13.9957 16.647V15.0918H15.4266V16.647H13.9957Z" fill="black"/>
<path d="M15.0862 16.647V15.0918H16.199V16.647H15.0862Z" fill="black"/>
<path d="M16.0187 16.647V15.0918H17.1316V16.647H16.0187Z" fill="black"/>
<path d="M16.9513 16.647V15.0918H18.0641V16.647H16.9513Z" fill="black"/>
<path d="M17.8838 16.647V15.0918H18.9967V16.647H17.8838Z" fill="black"/>
<path d="M18.8164 16.647V15.0918H20.2472V16.647H18.8164Z" fill="black"/>
<path d="M19.9866 16.647V15.0918H20.6227V16.647H19.9866Z" fill="black"/>
<path d="M20.441 16.647V15.0918H21.5538V16.647H20.441Z" fill="black"/>
<path d="M21.5329 16.647V15.0918H22.9638V16.647H21.5329Z" fill="black"/>
<path d="M22.7828 16.647V15.0918H23.4189V16.647H22.7828Z" fill="black"/>
<path d="M6.15937 19.647V18.0918H7.59025V19.647H6.15937Z" fill="black"/>
<path d="M7.56864 19.647V18.0918H8.84014V19.647H7.56864Z" fill="black"/>
<path d="M8.65916 19.647V18.0918H10.09V19.647H8.65916Z" fill="black"/>
<path d="M9.77064 19.647V18.0918H10.8835V19.647H9.77064Z" fill="black"/>
<path d="M10.5438 19.647V18.0918H12.1341V19.647H10.5438Z" fill="black"/>
<path d="M11.9531 19.647V18.0918H13.5433V19.647H11.9531Z" fill="black"/>
<path d="M13.203 19.647V18.0918H14.7932V19.647H13.203Z" fill="black"/>
<path d="M14.5325 19.647V18.0918H15.9634V19.647H14.5325Z" fill="black"/>
<path d="M15.7433 19.647V18.0918H16.8561V19.647H15.7433Z" fill="black"/>
<path d="M16.5164 19.647V18.0918H17.1525V19.647H16.5164Z" fill="black"/>
<path d="M16.9709 19.647V18.0918H18.7205V19.647H16.9709Z" fill="black"/>
<path d="M18.4598 19.647V18.0918H19.8907V19.647H18.4598Z" fill="black"/>
<path d="M19.6706 19.647V18.0918H20.7834V19.647H19.6706Z" fill="black"/>
<path d="M20.6031 19.647V18.0918H22.1933V19.647H20.6031Z" fill="black"/>
<path d="M21.9327 19.647V18.0918H22.5688V19.647H21.9327Z" fill="black"/>
<path d="M22.3871 19.647V18.0918H23.9773V19.647H22.3871Z" fill="black"/>
<path d="M23.876 19.647V18.0918H25.3069V19.647H23.876Z" fill="black"/>
<path d="M25.1259 19.647V18.0918H26.7162V19.647H25.1259Z" fill="black"/>
<path d="M26.4555 19.647V18.0918H27.0916V19.647H26.4555Z" fill="black"/>
<path d="M26.9099 19.647V18.0918H29.1363V19.647H26.9099Z" fill="black"/>
<path d="M28.8756 19.647V18.0918H30.4659V19.647H28.8756Z" fill="black"/>
<path d="M30.1255 19.647V18.0918H30.7616V19.647H30.1255Z" fill="black"/>
<path d="M6 22.647V21.0918H8.22635V22.647H6Z" fill="black"/>
<path d="M7.96568 22.647V21.0918H9.07851V22.647H7.96568Z" fill="black"/>
<path d="M8.89822 22.647V21.0918H10.011V22.647H8.89822Z" fill="black"/>
<path d="M9.83076 22.647V21.0918H10.9436V22.647H9.83076Z" fill="black"/>
<path d="M10.7633 22.647V21.0918H11.3994V22.647H10.7633Z" fill="black"/>
<path d="M11.2177 22.647V21.0918H12.6486V22.647H11.2177Z" fill="black"/>
<path d="M12.5473 22.647V21.0918H13.8188V22.647H12.5473Z" fill="black"/>
<path d="M13.7972 22.647V21.0918H15.2281V22.647H13.7972Z" fill="black"/>
<path d="M15.0471 22.647V21.0918H16.1599V22.647H15.0471Z" fill="black"/>
<path d="M15.8202 22.647V21.0918H16.9331V22.647H15.8202Z" fill="black"/>
<path d="M16.9121 22.647V21.0918H18.343V22.647H16.9121Z" fill="black"/>
<path d="M18.162 22.647V21.0918H19.7523V22.647H18.162Z" fill="black"/>
<path d="M19.5713 22.647V21.0918H21.1616V22.647H19.5713Z" fill="black"/>
<path d="M20.8212 22.647V21.0918H21.4573V22.647H20.8212Z" fill="black"/>
<path d="M21.2756 22.647V21.0918H23.502V22.647H21.2756Z" fill="black"/>
<path d="M23.4007 22.647V21.0918H24.6722V22.647H23.4007Z" fill="black"/>
<path d="M24.4912 22.647V21.0918H25.922V22.647H24.4912Z" fill="black"/>
<path d="M25.6027 22.647V21.0918H27.1929V22.647H25.6027Z" fill="black"/>
<path d="M26.9728 22.647V21.0918H28.0856V22.647H26.9728Z" fill="black"/>
<path d="M28.0647 22.647V21.0918H29.4956V22.647H28.0647Z" fill="black"/>
<path d="M29.3146 22.647V21.0918H30.9048V22.647H29.3146Z" fill="black"/>
<path d="M30.7238 22.647V21.0918H31.3599V22.647H30.7238Z" fill="black"/>
<path d="M6 25.647V24.0918H7.2722V25.647H6Z" fill="black"/>
<path d="M7.09191 25.647V24.0918H8.36342V25.647H7.09191Z" fill="black"/>
<path d="M8.18243 25.647V24.0918H9.61331V25.647H8.18243Z" fill="black"/>
<path d="M9.29391 25.647V24.0918H9.93002V25.647H9.29391Z" fill="black"/>
<path d="M9.74833 25.647V24.0918H10.8612V25.647H9.74833Z" fill="black"/>
<path d="M10.5215 25.647V24.0918H12.1117V25.647H10.5215Z" fill="black"/>
<path d="M11.9308 25.647V24.0918H13.521V25.647H11.9308Z" fill="black"/>
<path d="M13.1806 25.647V24.0918H13.8167V25.647H13.1806Z" fill="black"/>
<path d="M13.6351 25.647V24.0918H15.0659V25.647H13.6351Z" fill="black"/>
<path d="M14.9646 25.647V24.0918H16.5549V25.647H14.9646Z" fill="black"/>
<path d="M16.2145 25.647V24.0918H17.6454V25.647H16.2145Z" fill="black"/>
<path d="M17.326 25.647V24.0918H18.4388V25.647H17.326Z" fill="black"/>
<path d="M18.2586 25.647V24.0918H19.5308V25.647H18.2586Z" fill="black"/>
<path d="M19.1911 25.647V24.0918H20.3039V25.647H19.1911Z" fill="black"/>
<path d="M20.1236 25.647V24.0918H21.7139V25.647H20.1236Z" fill="black"/>
<path d="M21.6126 25.647V24.0918H23.0435V25.647H21.6126Z" fill="black"/>
<path d="M22.7031 25.647V24.0918H23.8159V25.647H22.7031Z" fill="black"/>
<path d="M23.6356 25.647V24.0918H25.2259V25.647H23.6356Z" fill="black"/>
<path d="M24.8855 25.647V24.0918H25.5216V25.647H24.8855Z" fill="black"/>
<path d="M6 28.647V27.0918H7.59025V28.647H6Z" fill="black"/>
<path d="M7.32958 28.647V27.0918H8.91983V28.647H7.32958Z" fill="black"/>
<path d="M8.73884 28.647V27.0918H10.1697V28.647H8.73884Z" fill="black"/>
<path d="M9.98873 28.647V27.0918H11.579V28.647H9.98873Z" fill="black"/>
<path d="M11.398 28.647V27.0918H12.8289V28.647H11.398Z" fill="black"/>
<path d="M12.5682 28.647V27.0918H13.681V28.647H12.5682Z" fill="black"/>
<path d="M13.5007 28.647V27.0918H15.091V28.647H13.5007Z" fill="black"/>
<path d="M14.7506 28.647V27.0918H16.3409V28.647H14.7506Z" fill="black"/>
<path d="M16.0802 28.647V27.0918H17.5111V28.647H16.0802Z" fill="black"/>
<path d="M17.1917 28.647V27.0918H18.3045V28.647H17.1917Z" fill="black"/>
<path d="M18.2836 28.647V27.0918H19.5551V28.647H18.2836Z" fill="black"/>
<path d="M19.2749 28.647V27.0918H20.8651V28.647H19.2749Z" fill="black"/>
<path d="M20.6044 28.647V27.0918H21.7173V28.647H20.6044Z" fill="black"/>
<path d="M21.3776 28.647V27.0918H22.4904V28.647H21.3776Z" fill="black"/>
<path d="M22.4695 28.647V27.0918H23.741V28.647H22.4695Z" fill="black"/>
<path d="M23.7194 28.647V27.0918H25.1503V28.647H23.7194Z" fill="black"/>
<path d="M24.9693 28.647V27.0918H25.6054V28.647H24.9693Z" fill="black"/>
<path d="M25.5831 28.647V27.0918H26.8546V28.647H25.5831Z" fill="black"/>
<path d="M26.6736 28.647V27.0918H27.9458V28.647H26.6736Z" fill="black"/>
<path d="M27.6061 28.647V27.0918H28.2422V28.647H27.6061Z" fill="black"/>
<path d="M28.0606 28.647V27.0918H29.1734V28.647H28.0606Z" fill="black"/>
<path d="M28.8337 28.647V27.0918H30.424V28.647H28.8337Z" fill="black"/>
<path d="M30.243 28.647V27.0918H31.8332V28.647H30.243Z" fill="black"/>
<path d="M31.4929 28.647V27.0918H32.129V28.647H31.4929Z" fill="black"/>
<path d="M6 31.647V30.0918H7.74963V31.647H6Z" fill="black"/>
<path d="M7.64833 31.647V30.0918H8.91983V31.647H7.64833Z" fill="black"/>
<path d="M8.73884 31.647V30.0918H10.1697V31.647H8.73884Z" fill="black"/>
<path d="M9.85033 31.647V30.0918H11.4406V31.647H9.85033Z" fill="black"/>
<path d="M11.1002 31.647V30.0918H12.6905V31.647H11.1002Z" fill="black"/>
<path d="M12.5892 31.647V30.0918H14.02V31.647H12.5892Z" fill="black"/>
<path d="M13.8391 31.647V30.0918H14.4752V31.647H13.8391Z" fill="black"/>
<path d="M14.4529 31.647V30.0918H16.0431V31.647H14.4529Z" fill="black"/>
<path d="M15.7223 31.647V30.0918H17.3126V31.647H15.7223Z" fill="black"/>
<path d="M17.1316 31.647V30.0918H18.5625V31.647H17.1316Z" fill="black"/>
<path d="M18.3815 31.647V30.0918H19.4943V31.647H18.3815Z" fill="black"/>
<path d="M19.4734 31.647V30.0918H20.9043V31.647H19.4734Z" fill="black"/>
<path d="M20.7233 31.647V30.0918H22.1542V31.647H20.7233Z" fill="black"/>
<path d="M21.934 31.647V30.0918H23.5243V31.647H21.934Z" fill="black"/>
<path d="M23.3433 31.647V30.0918H24.4561V31.647H23.3433Z" fill="black"/>
<path d="M24.2758 31.647V30.0918H25.8661V31.647H24.2758Z" fill="black"/>
<path d="M25.6054 31.647V30.0918H26.2415V31.647H25.6054Z" fill="black"/>
<path d="M6 34.647V33.0918H7.11283V34.647H6Z" fill="black"/>
<path d="M6.77316 34.647V33.0918H8.36342V34.647H6.77316Z" fill="black"/>
<path d="M8.18243 34.647V33.0918H9.61331V34.647H8.18243Z" fill="black"/>
<path d="M9.45329 34.647V33.0918H10.7248V34.647H9.45329Z" fill="black"/>
<path d="M10.5438 34.647V33.0918H12.1341V34.647H10.5438Z" fill="black"/>
<path d="M11.9531 34.647V33.0918H13.5433V34.647H11.9531Z" fill="black"/>
<path d="M13.3623 34.647V33.0918H14.9526V34.647H13.3623Z" fill="black"/>
<path d="M14.7716 34.647V33.0918H15.4077V34.647H14.7716Z" fill="black"/>
<path d="M15.226 34.647V33.0918H16.3388V34.647H15.226Z" fill="black"/>
<path d="M15.9992 34.647V33.0918H17.5894V34.647H15.9992Z" fill="black"/>
<path d="M17.4084 34.647V33.0918H18.9987V34.647H17.4084Z" fill="black"/>
<path d="M18.6583 34.647V33.0918H19.2944V34.647H18.6583Z" fill="black"/>
<path d="M19.1127 34.647V33.0918H20.5436V34.647H19.1127Z" fill="black"/>
<path d="M20.4423 34.647V33.0918H21.5552V34.647H20.4423Z" fill="black"/>
<path d="M21.3749 34.647V33.0918H22.9651V34.647H21.3749Z" fill="black"/>
<path d="M22.8638 34.647V33.0918H24.4541V34.647H22.8638Z" fill="black"/>
<path d="M23.9739 34.647V33.0918H25.5642V34.647H23.9739Z" fill="black"/>
<path d="M25.3035 34.647V33.0918H26.7344V34.647H25.3035Z" fill="black"/>
<path d="M26.415 34.647V33.0918H27.5278V34.647H26.415Z" fill="black"/>
<path d="M27.3475 34.647V33.0918H28.7784V34.647H27.3475Z" fill="black"/>
<path d="M28.5177 34.647V33.0918H29.1538V34.647H28.5177Z" fill="black"/>
<path d="M6 37.647V36.0918H7.59025V37.647H6Z" fill="black"/>
<path d="M7.40926 37.647V36.0918H8.99952V37.647H7.40926Z" fill="black"/>
<path d="M8.73884 37.647V36.0918H9.85167V37.647H8.73884Z" fill="black"/>
<path d="M9.67138 37.647V36.0918H11.2616V37.647H9.67138Z" fill="black"/>
<path d="M11.0415 37.647V36.0918H12.4724V37.647H11.0415Z" fill="black"/>
<path d="M12.2522 37.647V36.0918H13.047V37.647H12.2522Z" fill="black"/>
<path d="M12.7863 37.647V36.0918H13.4224V37.647H12.7863Z" fill="black"/>
<path d="M13.2408 37.647V36.0918H14.831V37.647H13.2408Z" fill="black"/>
<path d="M14.65 37.647V36.0918H16.2403V37.647H14.65Z" fill="black"/>
<path d="M16.0593 37.647V36.0918H17.6495V37.647H16.0593Z" fill="black"/>
<path d="M17.3092 37.647V36.0918H17.9453V37.647H17.3092Z" fill="black"/>
<path d="M17.7636 37.647V36.0918H19.1945V37.647H17.7636Z" fill="black"/>
<path d="M19.0932 37.647V36.0918H20.206V37.647H19.0932Z" fill="black"/>
<path d="M20.0257 37.647V36.0918H21.616V37.647H20.0257Z" fill="black"/>
<path d="M21.3553 37.647V36.0918H22.1501V37.647H21.3553Z" fill="black"/>
<path d="M22.1285 37.647V36.0918H23.7187V37.647H22.1285Z" fill="black"/>
<path d="M23.2385 37.647V36.0918H24.8288V37.647H23.2385Z" fill="black"/>
<path d="M24.5681 37.647V36.0918H25.999V37.647H24.5681Z" fill="black"/>
<path d="M25.6796 37.647V36.0918H26.7924V37.647H25.6796Z" fill="black"/>
<path d="M26.6121 37.647V36.0918H28.043V37.647H26.6121Z" fill="black"/>
<path d="M27.7823 37.647V36.0918H28.4184V37.647H27.7823Z" fill="black"/>
<path d="M6 40.647V39.0918H7.59025V40.647H6Z" fill="black"/>
<path d="M7.40926 40.647V39.0918H8.99952V40.647H7.40926Z" fill="black"/>
<path d="M8.73884 40.647V39.0918H9.85167V40.647H8.73884Z" fill="black"/>
<path d="M9.67138 40.647V39.0918H11.2616V40.647H9.67138Z" fill="black"/>
<path d="M11.0415 40.647V39.0918H12.4724V40.647H11.0415Z" fill="black"/>
<path d="M12.2522 40.647V39.0918H12.8883V40.647H12.2522Z" fill="black"/>
<path d="M12.866 40.647V39.0918H14.2969V40.647H12.866Z" fill="black"/>
<path d="M14.0362 40.647V39.0918H15.4671V40.647H14.0362Z" fill="black"/>
<path d="M15.3071 40.647V39.0918H16.5786V40.647H15.3071Z" fill="black"/>
<path d="M16.3976 40.647V39.0918H17.8285V40.647H16.3976Z" fill="black"/>
<path d="M17.7272 40.647V39.0918H18.84V40.647H17.7272Z" fill="black"/>
<path d="M18.6597 40.647V39.0918H20.25V40.647H18.6597Z" fill="black"/>
<path d="M19.9893 40.647V39.0918H21.5796V40.647H19.9893Z" fill="black"/>
<path d="M21.2392 40.647V39.0918H21.8753V40.647H21.2392Z" fill="black"/>
<path d="M21.6936 40.647V39.0918H22.8064V40.647H21.6936Z" fill="black"/>
<path d="M22.4668 40.647V39.0918H24.057V40.647H22.4668Z" fill="black"/>
<path d="M23.876 40.647V39.0918H25.4663V40.647H23.876Z" fill="black"/>
<path d="M25.1259 40.647V39.0918H25.762V40.647H25.1259Z" fill="black"/>
<path d="M25.5803 40.647V39.0918H26.8525V40.647H25.5803Z" fill="black"/>
<path d="M26.6723 40.647V39.0918H27.9438V40.647H26.6723Z" fill="black"/>
<path d="M27.7628 40.647V39.0918H29.1937V40.647H27.7628Z" fill="black"/>
<path d="M28.8743 40.647V39.0918H30.4645V40.647H28.8743Z" fill="black"/>
<path d="M30.2835 40.647V39.0918H32.3512V40.647H30.2835Z" fill="black"/>
<path d="M32.2492 40.647V39.0918H32.8853V40.647H32.2492Z" fill="black"/>
<path d="M6 43.647V42.0918H7.2722V43.647H6Z" fill="black"/>
<path d="M7.09191 43.647V42.0918H8.36342V43.647H7.09191Z" fill="black"/>
<path d="M8.18243 43.647V42.0918H9.61331V43.647H8.18243Z" fill="black"/>
<path d="M9.29391 43.647V42.0918H9.93002V43.647H9.29391Z" fill="black"/>
<path d="M9.74833 43.647V42.0918H11.3386V43.647H9.74833Z" fill="black"/>
<path d="M11.0779 43.647V42.0918H12.5088V43.647H11.0779Z" fill="black"/>
<path d="M12.2481 43.647V42.0918H13.8384V43.647H12.2481Z" fill="black"/>
<path d="M13.6574 43.647V42.0918H14.7702V43.647H13.6574Z" fill="black"/>
<path d="M14.5899 43.647V42.0918H16.1802V43.647H14.5899Z" fill="black"/>
<path d="M15.8398 43.647V42.0918H17.2707V43.647H15.8398Z" fill="black"/>
<path d="M17.1694 43.647V42.0918H18.2822V43.647H17.1694Z" fill="black"/>
<path d="M18.2613 43.647V42.0918H19.6922V43.647H18.2613Z" fill="black"/>
<path d="M19.5112 43.647V42.0918H21.1014V43.647H19.5112Z" fill="black"/>
<path d="M20.9204 43.647V42.0918H21.5565V43.647H20.9204Z" fill="black"/>
<path d="M6 46.647V45.0918H7.59025V46.647H6Z" fill="black"/>
<path d="M7.32958 46.647V45.0918H8.91983V46.647H7.32958Z" fill="black"/>
<path d="M8.73884 46.647V45.0918H10.1697V46.647H8.73884Z" fill="black"/>
<path d="M9.98873 46.647V45.0918H11.579V46.647H9.98873Z" fill="black"/>
<path d="M11.398 46.647V45.0918H12.8289V46.647H11.398Z" fill="black"/>
<path d="M12.5682 46.647V45.0918H13.681V46.647H12.5682Z" fill="black"/>
<path d="M13.5007 46.647V45.0918H15.091V46.647H13.5007Z" fill="black"/>
<path d="M14.7506 46.647V45.0918H16.3409V46.647H14.7506Z" fill="black"/>
<path d="M16.0802 46.647V45.0918H17.5111V46.647H16.0802Z" fill="black"/>
<path d="M17.1917 46.647V45.0918H18.3045V46.647H17.1917Z" fill="black"/>
<path d="M18.2836 46.647V45.0918H19.5551V46.647H18.2836Z" fill="black"/>
<path d="M19.2749 46.647V45.0918H20.8651V46.647H19.2749Z" fill="black"/>
<path d="M20.6044 46.647V45.0918H21.7173V46.647H20.6044Z" fill="black"/>
<path d="M21.3776 46.647V45.0918H22.4904V46.647H21.3776Z" fill="black"/>
<path d="M22.4695 46.647V45.0918H23.741V46.647H22.4695Z" fill="black"/>
<path d="M23.7194 46.647V45.0918H25.1503V46.647H23.7194Z" fill="black"/>
<path d="M24.9693 46.647V45.0918H25.7641V46.647H24.9693Z" fill="black"/>
<path d="M25.5034 46.647V45.0918H26.1395V46.647H25.5034Z" fill="black"/>
<path d="M6 49.647V48.0918H7.43088V49.647H6Z" fill="black"/>
<path d="M7.11149 49.647V48.0918H8.70174V49.647H7.11149Z" fill="black"/>
<path d="M8.36138 49.647V48.0918H9.95163V49.647H8.36138Z" fill="black"/>
<path d="M9.69095 49.647V48.0918H11.2812V49.647H9.69095Z" fill="black"/>
<path d="M11.1002 49.647V48.0918H12.5311V49.647H11.1002Z" fill="black"/>
<path d="M12.2704 49.647V48.0918H13.3832V49.647H12.2704Z" fill="black"/>
<path d="M13.3623 49.647V48.0918H14.7932V49.647H13.3623Z" fill="black"/>
<path d="M14.6122 49.647V48.0918H16.2025V49.647H14.6122Z" fill="black"/>
<path d="M16.0215 49.647V48.0918H16.6576V49.647H16.0215Z" fill="black"/>
<path d="M16.4759 49.647V48.0918H17.5887V49.647H16.4759Z" fill="black"/>
<path d="M17.2491 49.647V48.0918H18.8393V49.647H17.2491Z" fill="black"/>
<path d="M18.6583 49.647V48.0918H20.0892V49.647H18.6583Z" fill="black"/>
<path d="M19.9082 49.647V48.0918H21.3391V49.647H19.9082Z" fill="black"/>
<path d="M21.119 49.647V48.0918H22.2318V49.647H21.119Z" fill="black"/>
<path d="M22.2109 49.647V48.0918H23.4824V49.647H22.2109Z" fill="black"/>
<path d="M23.4608 49.647V48.0918H24.8917V49.647H23.4608Z" fill="black"/>
<path d="M24.7107 49.647V48.0918H26.1415V49.647H24.7107Z" fill="black"/>
<path d="M25.9214 49.647V48.0918H26.7162V49.647H25.9214Z" fill="black"/>
<path d="M26.4555 49.647V48.0918H27.0916V49.647H26.4555Z" fill="black"/>
<path d="M26.9099 49.647V48.0918H28.5002V49.647H26.9099Z" fill="black"/>
<path d="M28.3989 49.647V48.0918H29.8298V49.647H28.3989Z" fill="black"/>
<path d="M29.6488 49.647V48.0918H31.239V49.647H29.6488Z" fill="black"/>
<path d="M30.9783 49.647V48.0918H31.6144V49.647H30.9783Z" fill="black"/>
<path d="M6 52.647V51.0918H7.2722V52.647H6Z" fill="black"/>
<path d="M7.09191 52.647V51.0918H8.36342V52.647H7.09191Z" fill="black"/>
<path d="M8.18243 52.647V51.0918H9.61331V52.647H8.18243Z" fill="black"/>
<path d="M9.29391 52.647V51.0918H9.93002V52.647H9.29391Z" fill="black"/>
<path d="M9.74833 52.647V51.0918H11.1792V52.647H9.74833Z" fill="black"/>
<path d="M10.8598 52.647V51.0918H12.4501V52.647H10.8598Z" fill="black"/>
<path d="M12.1097 52.647V51.0918H13.5406V52.647H12.1097Z" fill="black"/>
<path d="M13.4798 52.647V51.0918H14.7513V52.647H13.4798Z" fill="black"/>
<path d="M14.5703 52.647V51.0918H15.6832V52.647H14.5703Z" fill="black"/>
<path d="M15.4232 52.647V51.0918H16.8541V52.647H15.4232Z" fill="black"/>
<path d="M16.7528 52.647V51.0918H17.8656V52.647H16.7528Z" fill="black"/>
<path d="M17.8447 52.647V51.0918H19.2756V52.647H17.8447Z" fill="black"/>
<path d="M19.0946 52.647V51.0918H20.6848V52.647H19.0946Z" fill="black"/>
<path d="M20.5038 52.647V51.0918H21.1399V52.647H20.5038Z" fill="black"/>
<path d="M21.1176 52.647V51.0918H22.3891V52.647H21.1176Z" fill="black"/>
<path d="M22.2081 52.647V51.0918H23.321V52.647H22.2081Z" fill="black"/>
<path d="M22.9813 52.647V51.0918H24.5716V52.647H22.9813Z" fill="black"/>
<path d="M24.3906 52.647V51.0918H25.9808V52.647H24.3906Z" fill="black"/>
<path d="M25.6405 52.647V51.0918H27.0713V52.647H25.6405Z" fill="black"/>
<path d="M26.7519 52.647V51.0918H27.388V52.647H26.7519Z" fill="black"/>
<path d="M6 55.647V54.0918H7.11283V55.647H6Z" fill="black"/>
<path d="M6.93254 55.647V54.0918H8.36342V55.647H6.93254Z" fill="black"/>
<path d="M8.14328 55.647V54.0918H9.57416V55.647H8.14328Z" fill="black"/>
<path d="M9.35403 55.647V54.0918H10.9443V55.647H9.35403Z" fill="black"/>
<path d="M10.7633 55.647V54.0918H12.3535V55.647H10.7633Z" fill="black"/>
<path d="M12.0132 55.647V54.0918H13.4441V55.647H12.0132Z" fill="black"/>
<path d="M13.2239 55.647V54.0918H13.86V55.647H13.2239Z" fill="black"/>
<path d="M13.8377 55.647V54.0918H15.1092V55.647H13.8377Z" fill="black"/>
<path d="M14.9282 55.647V54.0918H16.2004V55.647H14.9282Z" fill="black"/>
<path d="M15.8608 55.647V54.0918H16.4969V55.647H15.8608Z" fill="black"/>
<path d="M16.3152 55.647V54.0918H17.7461V55.647H16.3152Z" fill="black"/>
<path d="M17.6448 55.647V54.0918H18.9163V55.647H17.6448Z" fill="black"/>
<path d="M18.8947 55.647V54.0918H20.3255V55.647H18.8947Z" fill="black"/>
<path d="M20.1445 55.647V54.0918H21.5754V55.647H20.1445Z" fill="black"/>
<path d="M21.3147 55.647V54.0918H22.905V55.647H21.3147Z" fill="black"/>
<path d="M22.5646 55.647V54.0918H23.9955V55.647H22.5646Z" fill="black"/>
<path d="M23.8355 55.647V54.0918H25.2664V55.647H23.8355Z" fill="black"/>
<path d="M25.0854 55.647V54.0918H25.7215V55.647H25.0854Z" fill="black"/>
<path d="M6.15937 58.647V57.0918H7.59025V58.647H6.15937Z" fill="black"/>
<path d="M7.24989 58.647V57.0918H8.84014V58.647H7.24989Z" fill="black"/>
<path d="M8.49978 58.647V57.0918H9.61261V58.647H8.49978Z" fill="black"/>
<path d="M9.27294 58.647V57.0918H11.4993V58.647H9.27294Z" fill="black"/>
<path d="M11.2386 58.647V57.0918H12.8289V58.647H11.2386Z" fill="black"/>
<path d="M12.4885 58.647V57.0918H14.0788V58.647H12.4885Z" fill="black"/>
<path d="M13.8978 58.647V57.0918H15.3287V58.647H13.8978Z" fill="black"/>
<path d="M15.1477 58.647V57.0918H15.7838V58.647H15.1477Z" fill="black"/>
<path d="M15.6021 58.647V57.0918H17.3517V58.647H15.6021Z" fill="black"/>
<path d="M17.1903 58.647V57.0918H18.4618V58.647H17.1903Z" fill="black"/>
<path d="M18.2808 58.647V57.0918H19.7117V58.647H18.2808Z" fill="black"/>
<path d="M19.3923 58.647V57.0918H20.5051V58.647H19.3923Z" fill="black"/>
<path d="M20.1655 58.647V57.0918H21.7557V58.647H20.1655Z" fill="black"/>
<path d="M21.5747 58.647V57.0918H22.2108V58.647H21.5747Z" fill="black"/>
<path d="M22.0291 58.647V57.0918H23.7788V58.647H22.0291Z" fill="black"/>
<path d="M23.6775 58.647V57.0918H24.949V58.647H23.6775Z" fill="black"/>
<path d="M24.768 58.647V57.0918H26.1989V58.647H24.768Z" fill="black"/>
<path d="M25.8795 58.647V57.0918H27.4697V58.647H25.8795Z" fill="black"/>
<path d="M27.1294 58.647V57.0918H28.7196V58.647H27.1294Z" fill="black"/>
<path d="M28.4589 58.647V57.0918H29.2537V58.647H28.4589Z" fill="black"/>
<path d="M28.993 58.647V57.0918H29.6291V58.647H28.993Z" fill="black"/>
<path d="M29.4475 58.647V57.0918H30.5603V58.647H29.4475Z" fill="black"/>
<path d="M30.38 58.647V57.0918H31.4928V58.647H30.38Z" fill="black"/>
<path d="M31.1532 58.647V57.0918H32.584V58.647H31.1532Z" fill="black"/>
<path d="M32.3639 58.647V57.0918H33V58.647H32.3639Z" fill="black"/>
<path d="M6 61.647V60.0918H7.2722V61.647H6Z" fill="black"/>
<path d="M7.09191 61.647V60.0918H8.36342V61.647H7.09191Z" fill="black"/>
<path d="M8.18243 61.647V60.0918H9.77268V61.647H8.18243Z" fill="black"/>
<path d="M9.59169 61.647V60.0918H11.0226V61.647H9.59169Z" fill="black"/>
<path d="M10.7032 61.647V60.0918H11.3393V61.647H10.7032Z" fill="black"/>
<path d="M11.317 61.647V60.0918H12.7478V61.647H11.317Z" fill="black"/>
<path d="M12.5669 61.647V60.0918H14.1571V61.647H12.5669Z" fill="black"/>
<path d="M13.8167 61.647V60.0918H14.9296V61.647H13.8167Z" fill="black"/>
<path d="M14.7493 61.647V60.0918H16.3395V61.647H14.7493Z" fill="black"/>
<path d="M16.1586 61.647V60.0918H17.7488V61.647H16.1586Z" fill="black"/>
<path d="M17.7272 61.647V60.0918H19.1581V61.647H17.7272Z" fill="black"/>
<path d="M18.9771 61.647V60.0918H20.2486V61.647H18.9771Z" fill="black"/>
<path d="M20.0676 61.647V60.0918H21.4985V61.647H20.0676Z" fill="black"/>
<path d="M21.1791 61.647V60.0918H22.61V61.647H21.1791Z" fill="black"/>
<path d="M22.3898 61.647V60.0918H23.1846V61.647H22.3898Z" fill="black"/>
<path d="M22.9239 61.647V60.0918H23.56V61.647H22.9239Z" fill="black"/>
<path d="M23.3783 61.647V60.0918H24.9686V61.647H23.3783Z" fill="black"/>
<path d="M24.8673 61.647V60.0918H26.2982V61.647H24.8673Z" fill="black"/>
<path d="M26.1172 61.647V60.0918H27.7074V61.647H26.1172Z" fill="black"/>
<path d="M27.4468 61.647V60.0918H28.0829V61.647H27.4468Z" fill="black"/>
<path d="M27.9012 61.647V60.0918H29.014V61.647H27.9012Z" fill="black"/>
<path d="M28.6743 61.647V60.0918H30.2646V61.647H28.6743Z" fill="black"/>
<path d="M30.0836 61.647V60.0918H31.6739V61.647H30.0836Z" fill="black"/>
<path d="M31.3335 61.647V60.0918H31.9696V61.647H31.3335Z" fill="black"/>
<path d="M6 64.647V63.0918H7.74963V64.647H6Z" fill="black"/>
<path d="M7.60778 64.647V63.0918H9.03866V64.647H7.60778Z" fill="black"/>
<path d="M8.85767 64.647V63.0918H9.9705V64.647H8.85767Z" fill="black"/>
<path d="M9.79021 64.647V63.0918H10.903V64.647H9.79021Z" fill="black"/>
<path d="M10.5634 64.647V63.0918H12.1536V64.647H10.5634Z" fill="black"/>
<path d="M11.8133 64.647V63.0918H13.4035V64.647H11.8133Z" fill="black"/>
<path d="M13.1428 64.647V63.0918H13.7789V64.647H13.1428Z" fill="black"/>
<path d="M13.5973 64.647V63.0918H15.0281V64.647H13.5973Z" fill="black"/>
<path d="M14.9268 64.647V63.0918H16.0397V64.647H14.9268Z" fill="black"/>
<path d="M15.7 64.647V63.0918H17.2903V64.647H15.7Z" fill="black"/>
<path d="M17.0296 64.647V63.0918H18.1424V64.647H17.0296Z" fill="black"/>
<path d="M17.8027 64.647V63.0918H19.393V64.647H17.8027Z" fill="black"/>
<path d="M19.0526 64.647V63.0918H20.4835V64.647H19.0526Z" fill="black"/>
<path d="M20.2634 64.647V63.0918H21.0582V64.647H20.2634Z" fill="black"/>
<path d="M20.7975 64.647V63.0918H21.5923V64.647H20.7975Z" fill="black"/>
</g>
<rect width="12" height="14" transform="translate(25 18.0918)" fill="white"/>
<path d="M30.6787 21.9531C31.5999 21.9531 32.2721 22.1517 32.6953 22.5488C33.1185 22.9427 33.3301 23.4863 33.3301 24.1797C33.3301 24.4922 33.2829 24.7917 33.1885 25.0781C33.0941 25.3613 32.9395 25.6136 32.7246 25.835C32.513 26.0563 32.2298 26.2321 31.875 26.3623C31.5202 26.4893 31.0824 26.5527 30.5615 26.5527H29.9121V29.0918H28.3984V21.9531H30.6787ZM30.6006 23.1934H29.9121V25.3125H30.4102C30.6934 25.3125 30.9391 25.2751 31.1475 25.2002C31.3558 25.1253 31.5169 25.0081 31.6309 24.8486C31.7448 24.6891 31.8018 24.484 31.8018 24.2334C31.8018 23.8818 31.7041 23.6214 31.5088 23.4521C31.3135 23.2796 31.0107 23.1934 30.6006 23.1934Z" fill="#585858"/>
</g>
<rect x="0.5" y="0.591797" width="38" height="34" stroke="#E5592D"/>
<path d="M11.3333 38.0918H2V44.4399H11.3333V38.0918Z" fill="#E1C278"/>
<path d="M21.6663 38.0918H12.333V44.4399H21.6663V38.0918Z" fill="#7FA4CA"/>
<path d="M32.0003 38.0918H22.667V44.4399H32.0003V38.0918Z" fill="#BB90BB"/>
<defs>
<filter id="filter0_i_238_43903" x="2" y="-2.9082" width="35" height="34" filterUnits="userSpaceOnUse" color-interpolation-filters="sRGB">
<feFlood flood-opacity="0" result="BackgroundImageFix"/>
<feBlend mode="normal" in="SourceGraphic" in2="BackgroundImageFix" result="shape"/>
<feColorMatrix in="SourceAlpha" type="matrix" values="0 0 0 0 0 0 0 0 0 0 0 0 0 0 0 0 0 0 127 0" result="hardAlpha"/>
<feOffset dy="-5"/>
<feGaussianBlur stdDeviation="3.5"/>
<feComposite in2="hardAlpha" operator="arithmetic" k2="-1" k3="1"/>
<feColorMatrix type="matrix" values="0 0 0 0 1 0 0 0 0 1 0 0 0 0 1 0 0 0 1 0"/>
<feBlend mode="normal" in2="shape" result="effect1_innerShadow_238_43903"/>
</filter>
<clipPath id="clip0_238_43903">
<rect width="35" height="31" fill="white" transform="translate(2 2.0918)"/>
</clipPath>
<clipPath id="clip1_238_43903">
<rect width="35" height="29" fill="white" transform="translate(2 2.0918)"/>
</clipPath>
</defs>
</svg>
