<svg width="41" height="48" viewBox="0 0 41 48" fill="none" xmlns="http://www.w3.org/2000/svg">
<g clip-path="url(#clip0_238_43980)">
<rect width="35" height="31" transform="translate(3 3.41504)" fill="white"/>
<g opacity="0.3" clip-path="url(#clip1_238_43980)" filter="url(#filter0_i_238_43980)">
<rect width="35" height="29" transform="translate(3 3.41504)" fill="white"/>
<path d="M7 8.97021V7.41504H7.79655V8.97021H7Z" fill="black"/>
<path d="M7.61516 8.97021V7.41504H9.36869V8.97021H7.61516Z" fill="black"/>
<path d="M9.14667 8.97021V7.41504H10.7405V8.97021H9.14667Z" fill="black"/>
<path d="M10.3993 8.97021V7.41504H11.8334V8.97021H10.3993Z" fill="black"/>
<path d="M11.5133 8.97021V7.41504H13.1071V8.97021H11.5133Z" fill="black"/>
<path d="M12.766 8.97021V7.41504H13.4035V8.97021H12.766Z" fill="black"/>
<path d="M13.2214 8.97021V7.41504H14.3367V8.97021H13.2214Z" fill="black"/>
<path d="M14.3158 8.97021V7.41504H15.7498V8.97021H14.3158Z" fill="black"/>
<path d="M15.5684 8.97021V7.41504H16.206V8.97021H15.5684Z" fill="black"/>
<path d="M16.0239 8.97021V7.41504H17.7774V8.97021H16.0239Z" fill="black"/>
<path d="M17.6759 8.97021V7.41504H18.9502V8.97021H17.6759Z" fill="black"/>
<path d="M18.7688 8.97021V7.41504H20.2029V8.97021H18.7688Z" fill="black"/>
<path d="M19.8828 8.97021V7.41504H21.4766V8.97021H19.8828Z" fill="black"/>
<path d="M21.1355 8.97021V7.41504H22.7293V8.97021H21.1355Z" fill="black"/>
<path d="M22.468 8.97021V7.41504H23.2646V8.97021H22.468Z" fill="black"/>
<path d="M23.0033 8.97021V7.41504H23.6408V8.97021H23.0033Z" fill="black"/>
<path d="M23.4587 8.97021V7.41504H24.7338V8.97021H23.4587Z" fill="black"/>
<path d="M24.5517 8.97021V7.41504H25.1892V8.97021H24.5517Z" fill="black"/>
<path d="M25.0071 8.97021V7.41504H27.2384V8.97021H25.0071Z" fill="black"/>
<path d="M26.8973 8.97021V7.41504H28.4911V8.97021H26.8973Z" fill="black"/>
<path d="M28.3896 8.97021V7.41504H29.8237V8.97021H28.3896Z" fill="black"/>
<path d="M29.6423 8.97021V7.41504H30.7576V8.97021H29.6423Z" fill="black"/>
<path d="M30.4172 8.97021V7.41504H31.0547V8.97021H30.4172Z" fill="black"/>
<path d="M30.8726 8.97021V7.41504H31.9879V8.97021H30.8726Z" fill="black"/>
<path d="M31.8072 8.97021V7.41504H33.0816V8.97021H31.8072Z" fill="black"/>
<path d="M32.9002 8.97021V7.41504H33.5377V8.97021H32.9002Z" fill="black"/>
<path d="M7 11.9702V10.415H8.43407V11.9702H7Z" fill="black"/>
<path d="M8.37318 11.9702V10.415H9.80725V11.9702H8.37318Z" fill="black"/>
<path d="M9.54599 11.9702V10.415H11.1398V11.9702H9.54599Z" fill="black"/>
<path d="M10.7987 11.9702V10.415H12.3925V11.9702H10.7987Z" fill="black"/>
<path d="M12.1312 11.9702V10.415H13.725V11.9702H12.1312Z" fill="black"/>
<path d="M13.5044 11.9702V10.415H14.1419V11.9702H13.5044Z" fill="black"/>
<path d="M13.9598 11.9702V10.415H15.5536V11.9702H13.9598Z" fill="black"/>
<path d="M15.2924 11.9702V10.415H16.4077V11.9702H15.2924Z" fill="black"/>
<path d="M16.227 11.9702V10.415H17.6611V11.9702H16.227Z" fill="black"/>
<path d="M17.341 11.9702V10.415H18.9348V11.9702H17.341Z" fill="black"/>
<path d="M18.5936 11.9702V10.415H20.0277V11.9702H18.5936Z" fill="black"/>
<path d="M19.7664 11.9702V10.415H20.8818V11.9702H19.7664Z" fill="black"/>
<path d="M20.5413 11.9702V10.415H21.6566V11.9702H20.5413Z" fill="black"/>
<path d="M21.5558 11.9702V10.415H22.9899V11.9702H21.5558Z" fill="black"/>
<path d="M22.7286 11.9702V10.415H23.3662V11.9702H22.7286Z" fill="black"/>
<path d="M23.1841 11.9702V10.415H24.2994V11.9702H23.1841Z" fill="black"/>
<path d="M24.1187 11.9702V10.415H25.393V11.9702H24.1187Z" fill="black"/>
<path d="M25.2116 11.9702V10.415H25.8492V11.9702H25.2116Z" fill="black"/>
<path d="M25.6671 11.9702V10.415H26.7824V11.9702H25.6671Z" fill="black"/>
<path d="M26.4419 11.9702V10.415H28.0357V11.9702H26.4419Z" fill="black"/>
<path d="M27.8544 11.9702V10.415H29.4482V11.9702H27.8544Z" fill="black"/>
<path d="M29.107 11.9702V10.415H29.7446V11.9702H29.107Z" fill="black"/>
<path d="M7 14.9702V13.415H8.11531V14.9702H7Z" fill="black"/>
<path d="M7.93462 14.9702V13.415H9.52842V14.9702H7.93462Z" fill="black"/>
<path d="M9.1873 14.9702V13.415H10.7811V14.9702H9.1873Z" fill="black"/>
<path d="M10.5198 14.9702V13.415H12.1136V14.9702H10.5198Z" fill="black"/>
<path d="M11.8524 14.9702V13.415H13.4462V14.9702H11.8524Z" fill="black"/>
<path d="M13.1051 14.9702V13.415H14.5391V14.9702H13.1051Z" fill="black"/>
<path d="M14.219 14.9702V13.415H15.6531V14.9702H14.219Z" fill="black"/>
<path d="M15.4325 14.9702V13.415H16.07V14.9702H15.4325Z" fill="black"/>
<path d="M15.8879 14.9702V13.415H17.0032V14.9702H15.8879Z" fill="black"/>
<path d="M16.9823 14.9702V13.415H18.4163V14.9702H16.9823Z" fill="black"/>
<path d="M18.2349 14.9702V13.415H18.8725V14.9702H18.2349Z" fill="black"/>
<path d="M18.8501 14.9702V13.415H20.4439V14.9702H18.8501Z" fill="black"/>
<path d="M20.2821 14.9702V13.415H21.7162V14.9702H20.2821Z" fill="black"/>
<path d="M21.6147 14.9702V13.415H22.889V14.9702H21.6147Z" fill="black"/>
<path d="M22.8673 14.9702V13.415H24.3014V14.9702H22.8673Z" fill="black"/>
<path d="M24.12 14.9702V13.415H25.7138V14.9702H24.12Z" fill="black"/>
<path d="M25.6922 14.9702V13.415H27.1262V14.9702H25.6922Z" fill="black"/>
<path d="M26.7851 14.9702V13.415H28.3789V14.9702H26.7851Z" fill="black"/>
<path d="M28.2774 14.9702V13.415H29.7115V14.9702H28.2774Z" fill="black"/>
<path d="M29.5301 14.9702V13.415H31.1239V14.9702H29.5301Z" fill="black"/>
<path d="M30.9425 14.9702V13.415H31.739V14.9702H30.9425Z" fill="black"/>
<path d="M31.4778 14.9702V13.415H32.1153V14.9702H31.4778Z" fill="black"/>
<path d="M7 17.9702V16.415H8.5938V17.9702H7Z" fill="black"/>
<path d="M8.41241 17.9702V16.415H10.0062V17.9702H8.41241Z" fill="black"/>
<path d="M9.82482 17.9702V16.415H11.4186V17.9702H9.82482Z" fill="black"/>
<path d="M11.0775 17.9702V16.415H11.715V17.9702H11.0775Z" fill="black"/>
<path d="M11.5329 17.9702V16.415H13.2865V17.9702H11.5329Z" fill="black"/>
<path d="M13.1443 17.9702V16.415H14.5784V17.9702H13.1443Z" fill="black"/>
<path d="M14.397 17.9702V16.415H15.5123V17.9702H14.397Z" fill="black"/>
<path d="M15.3316 17.9702V16.415H16.4469V17.9702H15.3316Z" fill="black"/>
<path d="M16.1065 17.9702V16.415H17.7003V17.9702H16.1065Z" fill="black"/>
<path d="M17.3592 17.9702V16.415H18.953V17.9702H17.3592Z" fill="black"/>
<path d="M18.6917 17.9702V16.415H19.3292V17.9702H18.6917Z" fill="black"/>
<path d="M19.1471 17.9702V16.415H20.5812V17.9702H19.1471Z" fill="black"/>
<path d="M20.4797 17.9702V16.415H21.595V17.9702H20.4797Z" fill="black"/>
<path d="M21.2546 17.9702V16.415H22.8484V17.9702H21.2546Z" fill="black"/>
<path d="M22.5871 17.9702V16.415H23.7024V17.9702H22.5871Z" fill="black"/>
<path d="M23.362 17.9702V16.415H24.9558V17.9702H23.362Z" fill="black"/>
<path d="M24.6147 17.9702V16.415H26.0488V17.9702H24.6147Z" fill="black"/>
<path d="M25.8281 17.9702V16.415H26.4657V17.9702H25.8281Z" fill="black"/>
<path d="M26.2836 17.9702V16.415H27.8774V17.9702H26.2836Z" fill="black"/>
<path d="M27.696 17.9702V16.415H29.2898V17.9702H27.696Z" fill="black"/>
<path d="M29.0285 17.9702V16.415H30.4626V17.9702H29.0285Z" fill="black"/>
<path d="M30.242 17.9702V16.415H30.8795V17.9702H30.242Z" fill="black"/>
<path d="M30.8571 17.9702V16.415H32.2912V17.9702H30.8571Z" fill="black"/>
<path d="M32.2695 17.9702V16.415H33.5439V17.9702H32.2695Z" fill="black"/>
<path d="M33.3625 17.9702V16.415H34V17.9702H33.3625Z" fill="black"/>
<path d="M7 20.9702V19.415H8.5938V20.9702H7Z" fill="black"/>
<path d="M8.57214 20.9702V19.415H9.84648V20.9702H8.57214Z" fill="black"/>
<path d="M9.66509 20.9702V19.415H11.0992V20.9702H9.66509Z" fill="black"/>
<path d="M10.8785 20.9702V19.415H11.9938V20.9702H10.8785Z" fill="black"/>
<path d="M11.6534 20.9702V19.415H12.7687V20.9702H11.6534Z" fill="black"/>
<path d="M12.588 20.9702V19.415H13.7034V20.9702H12.588Z" fill="black"/>
<path d="M13.5227 20.9702V19.415H15.1165V20.9702H13.5227Z" fill="black"/>
<path d="M14.7753 20.9702V19.415H15.4129V20.9702H14.7753Z" fill="black"/>
<path d="M15.2308 20.9702V19.415H16.3461V20.9702H15.2308Z" fill="black"/>
<path d="M16.3251 20.9702V19.415H17.7592V20.9702H16.3251Z" fill="black"/>
<path d="M17.5778 20.9702V19.415H18.6931V20.9702H17.5778Z" fill="black"/>
<path d="M18.3527 20.9702V19.415H19.9465V20.9702H18.3527Z" fill="black"/>
<path d="M19.7651 20.9702V19.415H21.1992V20.9702H19.7651Z" fill="black"/>
<path d="M21.0178 20.9702V19.415H22.1331V20.9702H21.0178Z" fill="black"/>
<path d="M21.7927 20.9702V19.415H22.4302V20.9702H21.7927Z" fill="black"/>
<path d="M22.2481 20.9702V19.415H23.3634V20.9702H22.2481Z" fill="black"/>
<path d="M23.1827 20.9702V19.415H24.4571V20.9702H23.1827Z" fill="black"/>
<path d="M24.2757 20.9702V19.415H26.507V20.9702H24.2757Z" fill="black"/>
<path d="M26.1659 20.9702V19.415H27.7597V20.9702H26.1659Z" fill="black"/>
<path d="M27.4984 20.9702V19.415H28.9325V20.9702H27.4984Z" fill="black"/>
<path d="M28.6124 20.9702V19.415H30.2062V20.9702H28.6124Z" fill="black"/>
<path d="M29.9449 20.9702V19.415H30.5824V20.9702H29.9449Z" fill="black"/>
<path d="M7.15973 23.9702V22.415H8.5938V23.9702H7.15973Z" fill="black"/>
<path d="M8.49228 23.9702V22.415H9.76662V23.9702H8.49228Z" fill="black"/>
<path d="M9.58522 23.9702V22.415H11.179V23.9702H9.58522Z" fill="black"/>
<path d="M10.9976 23.9702V22.415H12.4317V23.9702H10.9976Z" fill="black"/>
<path d="M12.1116 23.9702V22.415H12.7491V23.9702H12.1116Z" fill="black"/>
<path d="M12.567 23.9702V22.415H14.0011V23.9702H12.567Z" fill="black"/>
<path d="M13.8996 23.9702V22.415H15.1739V23.9702H13.8996Z" fill="black"/>
<path d="M14.9925 23.9702V22.415H16.5863V23.9702H14.9925Z" fill="black"/>
<path d="M16.5647 23.9702V22.415H17.9987V23.9702H16.5647Z" fill="black"/>
<path d="M17.8173 23.9702V22.415H18.9327V23.9702H17.8173Z" fill="black"/>
<path d="M18.5922 23.9702V22.415H20.0263V23.9702H18.5922Z" fill="black"/>
<path d="M19.8659 23.9702V22.415H21.3V23.9702H19.8659Z" fill="black"/>
<path d="M21.0387 23.9702V22.415H21.8353V23.9702H21.0387Z" fill="black"/>
<path d="M21.574 23.9702V22.415H22.2116V23.9702H21.574Z" fill="black"/>
<path d="M22.1892 23.9702V22.415H24.4205V23.9702H22.1892Z" fill="black"/>
<path d="M24.1985 23.9702V22.415H25.7923V23.9702H24.1985Z" fill="black"/>
<path d="M25.4512 23.9702V22.415H26.0887V23.9702H25.4512Z" fill="black"/>
<path d="M25.9066 23.9702V22.415H27.5004V23.9702H25.9066Z" fill="black"/>
<path d="M27.2391 23.9702V22.415H28.6732V23.9702H27.2391Z" fill="black"/>
<path d="M28.3531 23.9702V22.415H29.9469V23.9702H28.3531Z" fill="black"/>
<path d="M29.6058 23.9702V22.415H30.2433V23.9702H29.6058Z" fill="black"/>
<path d="M7 26.9702V25.415H8.43407V26.9702H7Z" fill="black"/>
<path d="M8.33254 26.9702V25.415H9.60689V26.9702H8.33254Z" fill="black"/>
<path d="M9.42549 26.9702V25.415H11.4978V26.9702H9.42549Z" fill="black"/>
<path d="M11.3956 26.9702V25.415H13.4679V26.9702H11.3956Z" fill="black"/>
<path d="M13.3656 26.9702V25.415H14.4809V26.9702H13.3656Z" fill="black"/>
<path d="M14.3002 26.9702V25.415H15.4156V26.9702H14.3002Z" fill="black"/>
<path d="M15.0751 26.9702V25.415H16.1904V26.9702H15.0751Z" fill="black"/>
<path d="M15.85 26.9702V25.415H17.4438V26.9702H15.85Z" fill="black"/>
<path d="M17.1027 26.9702V25.415H18.6965V26.9702H17.1027Z" fill="black"/>
<path d="M18.4352 26.9702V25.415H19.0728V26.9702H18.4352Z" fill="black"/>
<path d="M18.8907 26.9702V25.415H20.006V26.9702H18.8907Z" fill="black"/>
<path d="M19.8253 26.9702V25.415H21.0996V26.9702H19.8253Z" fill="black"/>
<path d="M20.9182 26.9702V25.415H21.5558V26.9702H20.9182Z" fill="black"/>
<path d="M21.5334 26.9702V25.415H22.9675V26.9702H21.5334Z" fill="black"/>
<path d="M22.7062 26.9702V25.415H24.3V26.9702H22.7062Z" fill="black"/>
<path d="M23.9589 26.9702V25.415H25.5527V26.9702H23.9589Z" fill="black"/>
<path d="M25.2914 26.9702V25.415H26.7255V26.9702H25.2914Z" fill="black"/>
<path d="M26.4643 26.9702V25.415H28.0581V26.9702H26.4643Z" fill="black"/>
<path d="M27.7169 26.9702V25.415H28.5135V26.9702H27.7169Z" fill="black"/>
<path d="M28.2522 26.9702V25.415H28.8897V26.9702H28.2522Z" fill="black"/>
<path d="M28.7077 26.9702V25.415H30.4612V26.9702H28.7077Z" fill="black"/>
<path d="M30.3597 26.9702V25.415H31.7937V26.9702H30.3597Z" fill="black"/>
<path d="M31.6123 26.9702V25.415H33.2061V26.9702H31.6123Z" fill="black"/>
<path d="M32.9449 26.9702V25.415H33.5824V26.9702H32.9449Z" fill="black"/>
<path d="M7 29.9702V28.415H9.23132V29.9702H7Z" fill="black"/>
<path d="M8.97007 29.9702V28.415H10.5639V29.9702H8.97007Z" fill="black"/>
<path d="M10.2227 29.9702V28.415H10.8603V29.9702H10.2227Z" fill="black"/>
<path d="M10.6782 29.9702V28.415H12.272V29.9702H10.6782Z" fill="black"/>
<path d="M12.0107 29.9702V28.415H13.4448V29.9702H12.0107Z" fill="black"/>
<path d="M13.1247 29.9702V28.415H14.7185V29.9702H13.1247Z" fill="black"/>
<path d="M14.3774 29.9702V28.415H15.0149V29.9702H14.3774Z" fill="black"/>
<path d="M14.9925 29.9702V28.415H16.4266V29.9702H14.9925Z" fill="black"/>
<path d="M16.1653 29.9702V28.415H17.5994V29.9702H16.1653Z" fill="black"/>
<path d="M17.2793 29.9702V28.415H18.8731V29.9702H17.2793Z" fill="black"/>
<path d="M18.6917 29.9702V28.415H20.1258V29.9702H18.6917Z" fill="black"/>
<path d="M19.8645 29.9702V28.415H21.4583V29.9702H19.8645Z" fill="black"/>
<path d="M21.1971 29.9702V28.415H22.6311V29.9702H21.1971Z" fill="black"/>
<path d="M22.311 29.9702V28.415H23.9048V29.9702H22.311Z" fill="black"/>
<path d="M23.5637 29.9702V28.415H25.1575V29.9702H23.5637Z" fill="black"/>
<path d="M24.8963 29.9702V28.415H25.5338V29.9702H24.8963Z" fill="black"/>
<path d="M25.3517 29.9702V28.415H26.467V29.9702H25.3517Z" fill="black"/>
<path d="M26.2863 29.9702V28.415H27.5606V29.9702H26.2863Z" fill="black"/>
<path d="M27.3793 29.9702V28.415H28.0168V29.9702H27.3793Z" fill="black"/>
<path d="M27.8347 29.9702V28.415H28.95V29.9702H27.8347Z" fill="black"/>
<path d="M28.6096 29.9702V28.415H30.2034V29.9702H28.6096Z" fill="black"/>
<path d="M29.9421 29.9702V28.415H31.5359V29.9702H29.9421Z" fill="black"/>
<path d="M31.3153 29.9702V28.415H32.9091V29.9702H31.3153Z" fill="black"/>
<path d="M32.568 29.9702V28.415H33.2055V29.9702H32.568Z" fill="black"/>
<path d="M7 32.9702V31.415H8.43407V32.9702H7Z" fill="black"/>
<path d="M8.21345 32.9702V31.415H9.32876V32.9702H8.21345Z" fill="black"/>
<path d="M8.98834 32.9702V31.415H10.5821V32.9702H8.98834Z" fill="black"/>
<path d="M10.4007 32.9702V31.415H11.8348V32.9702H10.4007Z" fill="black"/>
<path d="M11.5736 32.9702V31.415H13.0076V32.9702H11.5736Z" fill="black"/>
<path d="M12.787 32.9702V31.415H13.4245V32.9702H12.787Z" fill="black"/>
<path d="M13.2424 32.9702V31.415H14.3577V32.9702H13.2424Z" fill="black"/>
<path d="M14.1771 32.9702V31.415H15.4514V32.9702H14.1771Z" fill="black"/>
<path d="M15.27 32.9702V31.415H15.9075V32.9702H15.27Z" fill="black"/>
<path d="M15.7254 32.9702V31.415H16.8407V32.9702H15.7254Z" fill="black"/>
<path d="M16.6601 32.9702V31.415H18.7323V32.9702H16.6601Z" fill="black"/>
<path d="M18.7898 32.9702V31.415H20.2239V32.9702H18.7898Z" fill="black"/>
<path d="M19.9627 32.9702V31.415H21.3967V32.9702H19.9627Z" fill="black"/>
<path d="M21.2364 32.9702V31.415H22.5107V32.9702H21.2364Z" fill="black"/>
<path d="M22.3293 32.9702V31.415H23.7634V32.9702H22.3293Z" fill="black"/>
<path d="M23.6619 32.9702V31.415H25.2557V32.9702H23.6619Z" fill="black"/>
<path d="M24.9145 32.9702V31.415H25.5521V32.9702H24.9145Z" fill="black"/>
<path d="M7 35.9702V34.415H8.43407V35.9702H7Z" fill="black"/>
<path d="M8.11397 35.9702V34.415H9.70777V35.9702H8.11397Z" fill="black"/>
<path d="M9.36665 35.9702V34.415H10.482V35.9702H9.36665Z" fill="black"/>
<path d="M10.3013 35.9702V34.415H11.8951V35.9702H10.3013Z" fill="black"/>
<path d="M11.6338 35.9702V34.415H12.7491V35.9702H11.6338Z" fill="black"/>
<path d="M12.4087 35.9702V34.415H13.524V35.9702H12.4087Z" fill="black"/>
<path d="M13.503 35.9702V34.415H14.7774V35.9702H13.503Z" fill="black"/>
<path d="M14.7557 35.9702V34.415H16.1898V35.9702H14.7557Z" fill="black"/>
<path d="M16.0084 35.9702V34.415H17.4425V35.9702H16.0084Z" fill="black"/>
<path d="M17.2219 35.9702V34.415H18.0184V35.9702H17.2219Z" fill="black"/>
<path d="M17.7571 35.9702V34.415H18.3947V35.9702H17.7571Z" fill="black"/>
<path d="M18.2126 35.9702V34.415H20.4439V35.9702H18.2126Z" fill="black"/>
<path d="M20.1826 35.9702V34.415H21.7764V35.9702H20.1826Z" fill="black"/>
<path d="M21.5951 35.9702V34.415H22.7104V35.9702H21.5951Z" fill="black"/>
<path d="M22.5297 35.9702V34.415H23.9637V35.9702H22.5297Z" fill="black"/>
<path d="M23.7025 35.9702V34.415H25.2963V35.9702H23.7025Z" fill="black"/>
<path d="M25.1149 35.9702V34.415H25.7524V35.9702H25.1149Z" fill="black"/>
<path d="M25.5703 35.9702V34.415H26.6856V35.9702H25.5703Z" fill="black"/>
<path d="M26.5049 35.9702V34.415H27.939V35.9702H26.5049Z" fill="black"/>
<path d="M27.7184 35.9702V34.415H28.3559V35.9702H27.7184Z" fill="black"/>
<path d="M28.1738 35.9702V34.415H30.4051V35.9702H28.1738Z" fill="black"/>
<path d="M30.1439 35.9702V34.415H31.7377V35.9702H30.1439Z" fill="black"/>
<path d="M31.6362 35.9702V34.415H33.0702V35.9702H31.6362Z" fill="black"/>
<path d="M32.809 35.9702V34.415H33.4465V35.9702H32.809Z" fill="black"/>
<path d="M7 38.9702V37.415H9.23132V38.9702H7Z" fill="black"/>
<path d="M8.97007 38.9702V37.415H10.5639V38.9702H8.97007Z" fill="black"/>
<path d="M10.2227 38.9702V37.415H10.8603V38.9702H10.2227Z" fill="black"/>
<path d="M10.6782 38.9702V37.415H12.272V38.9702H10.6782Z" fill="black"/>
<path d="M12.0906 38.9702V37.415H13.6844V38.9702H12.0906Z" fill="black"/>
<path d="M13.3433 38.9702V37.415H14.7773V38.9702H13.3433Z" fill="black"/>
<path d="M14.6758 38.9702V37.415H16.2696V38.9702H14.6758Z" fill="black"/>
<path d="M15.9285 38.9702V37.415H16.566V38.9702H15.9285Z" fill="black"/>
<path d="M16.5436 38.9702V37.415H17.818V38.9702H16.5436Z" fill="black"/>
<path d="M17.6366 38.9702V37.415H18.9116V38.9702H17.6366Z" fill="black"/>
<path d="M18.5712 38.9702V37.415H19.8463V38.9702H18.5712Z" fill="black"/>
<path d="M19.5058 38.9702V37.415H21.0996V38.9702H19.5058Z" fill="black"/>
<path d="M20.7585 38.9702V37.415H22.1926V38.9702H20.7585Z" fill="black"/>
<path d="M21.8725 38.9702V37.415H23.4663V38.9702H21.8725Z" fill="black"/>
<path d="M23.1252 38.9702V37.415H24.719V38.9702H23.1252Z" fill="black"/>
<path d="M24.4577 38.9702V37.415H25.0952V38.9702H24.4577Z" fill="black"/>
<path d="M7.15973 41.9702V40.415H8.5938V41.9702H7.15973Z" fill="black"/>
<path d="M8.41241 41.9702V40.415H10.0062V41.9702H8.41241Z" fill="black"/>
<path d="M9.82482 41.9702V40.415H10.9401V41.9702H9.82482Z" fill="black"/>
<path d="M10.5997 41.9702V40.415H12.0338V41.9702H10.5997Z" fill="black"/>
<path d="M11.7137 41.9702V40.415H12.829V41.9702H11.7137Z" fill="black"/>
<path d="M12.6483 41.9702V40.415H13.7636V41.9702H12.6483Z" fill="black"/>
<path d="M13.4232 41.9702V40.415H14.5385V41.9702H13.4232Z" fill="black"/>
<path d="M14.5175 41.9702V40.415H15.7919V41.9702H14.5175Z" fill="black"/>
<path d="M15.7702 41.9702V40.415H17.2043V41.9702H15.7702Z" fill="black"/>
<path d="M17.0229 41.9702V40.415H18.6167V41.9702H17.0229Z" fill="black"/>
<path d="M18.3554 41.9702V40.415H19.4707V41.9702H18.3554Z" fill="black"/>
<path d="M19.2901 41.9702V40.415H19.9276V41.9702H19.2901Z" fill="black"/>
<path d="M19.7455 41.9702V40.415H21.3393V41.9702H19.7455Z" fill="black"/>
<path d="M21.078 41.9702V40.415H22.1933V41.9702H21.078Z" fill="black"/>
<path d="M22.0126 41.9702V40.415H23.6064V41.9702H22.0126Z" fill="black"/>
<path d="M23.3452 41.9702V40.415H23.9827V41.9702H23.3452Z" fill="black"/>
<path d="M23.8006 41.9702V40.415H24.9159V41.9702H23.8006Z" fill="black"/>
<path d="M24.7352 41.9702V40.415H26.0096V41.9702H24.7352Z" fill="black"/>
<path d="M25.8282 41.9702V40.415H26.4657V41.9702H25.8282Z" fill="black"/>
<path d="M26.2836 41.9702V40.415H28.0371V41.9702H26.2836Z" fill="black"/>
<path d="M27.8754 41.9702V40.415H29.1497V41.9702H27.8754Z" fill="black"/>
<path d="M28.9683 41.9702V40.415H30.4024V41.9702H28.9683Z" fill="black"/>
<path d="M30.0823 41.9702V40.415H31.1976V41.9702H30.0823Z" fill="black"/>
<path d="M30.8572 41.9702V40.415H32.451V41.9702H30.8572Z" fill="black"/>
<path d="M32.2696 41.9702V40.415H32.9071V41.9702H32.2696Z" fill="black"/>
<path d="M7 44.9702V43.415H8.75353V44.9702H7Z" fill="black"/>
<path d="M8.65201 44.9702V43.415H9.92635V44.9702H8.65201Z" fill="black"/>
<path d="M9.74495 44.9702V43.415H11.179V44.9702H9.74495Z" fill="black"/>
<path d="M10.8589 44.9702V43.415H12.4527V44.9702H10.8589Z" fill="black"/>
<path d="M12.1116 44.9702V43.415H13.7054V44.9702H12.1116Z" fill="black"/>
<path d="M13.6039 44.9702V43.415H15.0379V44.9702H13.6039Z" fill="black"/>
<path d="M14.8566 44.9702V43.415H15.4941V44.9702H14.8566Z" fill="black"/>
<path d="M15.312 44.9702V43.415H17.3843V44.9702H15.312Z" fill="black"/>
<path d="M17.4418 44.9702V43.415H18.7161V44.9702H17.4418Z" fill="black"/>
<path d="M18.5347 44.9702V43.415H19.65V44.9702H18.5347Z" fill="black"/>
<path d="M19.3096 44.9702V43.415H20.9034V44.9702H19.3096Z" fill="black"/>
<path d="M20.722 44.9702V43.415H22.3158V44.9702H20.722Z" fill="black"/>
<path d="M21.9747 44.9702V43.415H23.4088V44.9702H21.9747Z" fill="black"/>
<path d="M23.0887 44.9702V43.415H24.5227V44.9702H23.0887Z" fill="black"/>
<path d="M24.3021 44.9702V43.415H24.9396V44.9702H24.3021Z" fill="black"/>
<path d="M24.7575 44.9702V43.415H26.3513V44.9702H24.7575Z" fill="black"/>
<path d="M26.2498 44.9702V43.415H27.6839V44.9702H26.2498Z" fill="black"/>
<path d="M27.5025 44.9702V43.415H29.0963V44.9702H27.5025Z" fill="black"/>
<path d="M28.835 44.9702V43.415H29.4726V44.9702H28.835Z" fill="black"/>
<path d="M7 47.9702V46.415H8.43407V47.9702H7Z" fill="black"/>
<path d="M8.17281 47.9702V46.415H9.76662V47.9702H8.17281Z" fill="black"/>
<path d="M9.58522 47.9702V46.415H10.7005V47.9702H9.58522Z" fill="black"/>
<path d="M10.5198 47.9702V46.415H11.6352V47.9702H10.5198Z" fill="black"/>
<path d="M11.4545 47.9702V46.415H13.0483V47.9702H11.4545Z" fill="black"/>
<path d="M12.787 47.9702V46.415H14.2211V47.9702H12.787Z" fill="black"/>
<path d="M13.901 47.9702V46.415H15.4948V47.9702H13.901Z" fill="black"/>
<path d="M15.3134 47.9702V46.415H16.7475V47.9702H15.3134Z" fill="black"/>
<path d="M16.5661 47.9702V46.415H17.3626V47.9702H16.5661Z" fill="black"/>
<path d="M17.1014 47.9702V46.415H17.8979V47.9702H17.1014Z" fill="black"/>
</g>
<rect width="12" height="14" transform="translate(26 19.415)" fill="white"/>
<path d="M31.6787 23.2764C32.5999 23.2764 33.2721 23.4749 33.6953 23.8721C34.1185 24.266 34.3301 24.8096 34.3301 25.5029C34.3301 25.8154 34.2829 26.1149 34.1885 26.4014C34.0941 26.6846 33.9395 26.9368 33.7246 27.1582C33.513 27.3796 33.2298 27.5553 32.875 27.6855C32.5202 27.8125 32.0824 27.876 31.5615 27.876H30.9121V30.415H29.3984V23.2764H31.6787ZM31.6006 24.5166H30.9121V26.6357H31.4102C31.6934 26.6357 31.9391 26.5983 32.1475 26.5234C32.3558 26.4486 32.5169 26.3314 32.6309 26.1719C32.7448 26.0124 32.8018 25.8073 32.8018 25.5566C32.8018 25.2051 32.7041 24.9447 32.5088 24.7754C32.3135 24.6029 32.0107 24.5166 31.6006 24.5166Z" fill="#585858"/>
</g>
<rect x="1" y="1.41504" width="39" height="35" stroke="#364B60"/>
<path d="M12.3333 39.415H3V45.7631H12.3333V39.415Z" fill="#E5592D"/>
<path d="M22.6663 39.415H13.333V45.7631H22.6663V39.415Z" fill="#BB90BB"/>
<defs>
<filter id="filter0_i_238_43980" x="3" y="-1.58496" width="35" height="34" filterUnits="userSpaceOnUse" color-interpolation-filters="sRGB">
<feFlood flood-opacity="0" result="BackgroundImageFix"/>
<feBlend mode="normal" in="SourceGraphic" in2="BackgroundImageFix" result="shape"/>
<feColorMatrix in="SourceAlpha" type="matrix" values="0 0 0 0 0 0 0 0 0 0 0 0 0 0 0 0 0 0 127 0" result="hardAlpha"/>
<feOffset dy="-5"/>
<feGaussianBlur stdDeviation="3.5"/>
<feComposite in2="hardAlpha" operator="arithmetic" k2="-1" k3="1"/>
<feColorMatrix type="matrix" values="0 0 0 0 1 0 0 0 0 1 0 0 0 0 1 0 0 0 1 0"/>
<feBlend mode="normal" in2="shape" result="effect1_innerShadow_238_43980"/>
</filter>
<clipPath id="clip0_238_43980">
<rect width="35" height="31" fill="white" transform="translate(3 3.41504)"/>
</clipPath>
<clipPath id="clip1_238_43980">
<rect width="35" height="29" fill="white" transform="translate(3 3.41504)"/>
</clipPath>
</defs>
</svg>
