<svg width="39" height="47" viewBox="0 0 39 47" fill="none" xmlns="http://www.w3.org/2000/svg">
<g clip-path="url(#clip0_238_44200)">
<g clip-path="url(#clip1_238_44200)" filter="url(#filter0_d_238_44200)">
<rect width="35" height="31" transform="translate(2 2.48145)" fill="white"/>
<g opacity="0.3" clip-path="url(#clip2_238_44200)" filter="url(#filter1_i_238_44200)">
<rect width="35" height="29" transform="translate(2 2.48145)" fill="white"/>
<path d="M6 8.03662V6.48145H6.77156V8.03662H6Z" fill="black"/>
<path d="M6.59586 8.03662V6.48145H8.29439V8.03662H6.59586Z" fill="black"/>
<path d="M8.04133 8.03662V6.48145H9.12165V8.03662H8.04133Z" fill="black"/>
<path d="M8.79191 8.03662V6.48145H9.40943V8.03662H8.79191Z" fill="black"/>
<path d="M9.23305 8.03662V6.48145H10.3134V8.03662H9.23305Z" fill="black"/>
<path d="M9.98363 8.03662V6.48145H11.5274V8.03662H9.98363Z" fill="black"/>
<path d="M11.3517 8.03662V6.48145H12.8955V8.03662H11.3517Z" fill="black"/>
<path d="M12.5651 8.03662V6.48145H13.1826V8.03662H12.5651Z" fill="black"/>
<path d="M13.0063 8.03662V6.48145H14.3954V8.03662H13.0063Z" fill="black"/>
<path d="M14.1816 8.03662V6.48145H15.7255V8.03662H14.1816Z" fill="black"/>
<path d="M15.4724 8.03662V6.48145H17.4797V8.03662H15.4724Z" fill="black"/>
<path d="M17.3807 8.03662V6.48145H18.9245V8.03662H17.3807Z" fill="black"/>
<path d="M18.594 8.03662V6.48145H19.2116V8.03662H18.594Z" fill="black"/>
<path d="M19.0352 8.03662V6.48145H20.1155V8.03662H19.0352Z" fill="black"/>
<path d="M19.7858 8.03662V6.48145H20.8661V8.03662H19.7858Z" fill="black"/>
<path d="M20.6911 8.03662V6.48145H22.6984V8.03662H20.6911Z" fill="black"/>
<path d="M22.5993 8.03662V6.48145H24.1431V8.03662H22.5993Z" fill="black"/>
<path d="M23.8127 8.03662V6.48145H24.5843V8.03662H23.8127Z" fill="black"/>
<path d="M24.3312 8.03662V6.48145H24.9488V8.03662H24.3312Z" fill="black"/>
<path d="M24.7724 8.03662V6.48145H26.9337V8.03662H24.7724Z" fill="black"/>
<path d="M26.6806 8.03662V6.48145H28.2244V8.03662H26.6806Z" fill="black"/>
<path d="M27.894 8.03662V6.48145H28.5115V8.03662H27.894Z" fill="black"/>
<path d="M6 11.0366V9.48145H7.38909V11.0366H6Z" fill="black"/>
<path d="M7.29074 11.0366V9.48145H8.52511V11.0366H7.29074Z" fill="black"/>
<path d="M8.50413 11.0366V9.48145H9.89322V11.0366H8.50413Z" fill="black"/>
<path d="M9.71751 11.0366V9.48145H10.7978V11.0366H9.71751Z" fill="black"/>
<path d="M10.4681 11.0366V9.48145H11.5484V11.0366H10.4681Z" fill="black"/>
<path d="M11.5281 11.0366V9.48145H12.9172V11.0366H11.5281Z" fill="black"/>
<path d="M12.7415 11.0366V9.48145H14.2853V11.0366H12.7415Z" fill="black"/>
<path d="M14.1096 11.0366V9.48145H15.6534V11.0366H14.1096Z" fill="black"/>
<path d="M15.323 11.0366V9.48145H15.9405V11.0366H15.323Z" fill="black"/>
<path d="M15.7641 11.0366V9.48145H16.8445V11.0366H15.7641Z" fill="black"/>
<path d="M16.6694 11.0366V9.48145H17.9038V11.0366H16.6694Z" fill="black"/>
<path d="M17.7281 11.0366V9.48145H18.3456V11.0366H17.7281Z" fill="black"/>
<path d="M18.1692 11.0366V9.48145H20.1765V11.0366H18.1692Z" fill="black"/>
<path d="M20.0775 11.0366V9.48145H21.6213V11.0366H20.0775Z" fill="black"/>
<path d="M21.3683 11.0366V9.48145H22.9121V11.0366H21.3683Z" fill="black"/>
<path d="M22.6984 11.0366V9.48145H24.2422V11.0366H22.6984Z" fill="black"/>
<path d="M23.9117 11.0366V9.48145H24.5293V11.0366H23.9117Z" fill="black"/>
<path d="M24.3529 11.0366V9.48145H25.742V11.0366H24.3529Z" fill="black"/>
<path d="M25.4889 11.0366V9.48145H26.5692V11.0366H25.4889Z" fill="black"/>
<path d="M26.3942 11.0366V9.48145H27.938V11.0366H26.3942Z" fill="black"/>
<path d="M27.6076 11.0366V9.48145H29.1514V11.0366H27.6076Z" fill="black"/>
<path d="M28.8983 11.0366V9.48145H30.2874V11.0366H28.8983Z" fill="black"/>
<path d="M29.9774 11.0366V9.48145H30.5949V11.0366H29.9774Z" fill="black"/>
<path d="M30.4185 11.0366V9.48145H31.4988V11.0366H30.4185Z" fill="black"/>
<path d="M31.3238 11.0366V9.48145H32.5582V11.0366H31.3238Z" fill="black"/>
<path d="M32.3825 11.0366V9.48145H33V11.0366H32.3825Z" fill="black"/>
<path d="M6 14.0366V12.4814H7.08033V14.0366H6Z" fill="black"/>
<path d="M6.75058 14.0366V12.4814H8.29439V14.0366H6.75058Z" fill="black"/>
<path d="M8.11869 14.0366V12.4814H9.66249V14.0366H8.11869Z" fill="black"/>
<path d="M9.33207 14.0366V12.4814H9.94959V14.0366H9.33207Z" fill="black"/>
<path d="M9.77321 14.0366V12.4814H11.4717V14.0366H9.77321Z" fill="black"/>
<path d="M11.315 14.0366V12.4814H12.5494V14.0366H11.315Z" fill="black"/>
<path d="M12.3737 14.0366V12.4814H13.7628V14.0366H12.3737Z" fill="black"/>
<path d="M13.4527 14.0366V12.4814H14.5331V14.0366H13.4527Z" fill="black"/>
<path d="M14.2033 14.0366V12.4814H15.7471V14.0366H14.2033Z" fill="black"/>
<path d="M15.5714 14.0366V12.4814H16.1889V14.0366H15.5714Z" fill="black"/>
<path d="M16.0126 14.0366V12.4814H17.0929V14.0366H16.0126Z" fill="black"/>
<path d="M16.7631 14.0366V12.4814H18.3069V14.0366H16.7631Z" fill="black"/>
<path d="M18.1312 14.0366V12.4814H19.6751V14.0366H18.1312Z" fill="black"/>
<path d="M19.422 14.0366V12.4814H20.5023V14.0366H19.422Z" fill="black"/>
<path d="M20.1726 14.0366V12.4814H20.7901V14.0366H20.1726Z" fill="black"/>
<path d="M20.6137 14.0366V12.4814H22.775V14.0366H20.6137Z" fill="black"/>
<path d="M22.522 14.0366V12.4814H24.0658V14.0366H22.522Z" fill="black"/>
<path d="M23.7354 14.0366V12.4814H24.3529V14.0366H23.7354Z" fill="black"/>
<path d="M24.1765 14.0366V12.4814H25.7203V14.0366H24.1765Z" fill="black"/>
<path d="M25.4673 14.0366V12.4814H26.8563V14.0366H25.4673Z" fill="black"/>
<path d="M26.5463 14.0366V12.4814H28.0901V14.0366H26.5463Z" fill="black"/>
<path d="M27.7597 14.0366V12.4814H28.3772V14.0366H27.7597Z" fill="black"/>
<path d="M6 17.0366V15.4814H7.38909V17.0366H6Z" fill="black"/>
<path d="M7.07902 17.0366V15.4814H8.62283V17.0366H7.07902Z" fill="black"/>
<path d="M8.29241 17.0366V15.4814H9.83621V17.0366H8.29241Z" fill="black"/>
<path d="M9.58315 17.0366V15.4814H11.127V17.0366H9.58315Z" fill="black"/>
<path d="M10.9513 17.0366V15.4814H12.3403V17.0366H10.9513Z" fill="black"/>
<path d="M12.0873 17.0366V15.4814H12.7048V17.0366H12.0873Z" fill="black"/>
<path d="M12.5284 17.0366V15.4814H14.0722V17.0366H12.5284Z" fill="black"/>
<path d="M13.8192 17.0366V15.4814H14.8995V17.0366H13.8192Z" fill="black"/>
<path d="M14.5698 17.0366V15.4814H15.1873V17.0366H14.5698Z" fill="black"/>
<path d="M15.0109 17.0366V15.4814H16.5547V17.0366H15.0109Z" fill="black"/>
<path d="M16.4564 17.0366V15.4814H17.8454V17.0366H16.4564Z" fill="black"/>
<path d="M17.7471 17.0366V15.4814H19.1362V17.0366H17.7471Z" fill="black"/>
<path d="M18.8831 17.0366V15.4814H19.5007V17.0366H18.8831Z" fill="black"/>
<path d="M19.3243 17.0366V15.4814H20.4046V17.0366H19.3243Z" fill="black"/>
<path d="M20.0749 17.0366V15.4814H21.1552V17.0366H20.0749Z" fill="black"/>
<path d="M20.9802 17.0366V15.4814H22.9874V17.0366H20.9802Z" fill="black"/>
<path d="M22.8884 17.0366V15.4814H24.4322V17.0366H22.8884Z" fill="black"/>
<path d="M24.1018 17.0366V15.4814H24.7193V17.0366H24.1018Z" fill="black"/>
<path d="M24.5429 17.0366V15.4814H25.6233V17.0366H24.5429Z" fill="black"/>
<path d="M25.4483 17.0366V15.4814H26.6826V17.0366H25.4483Z" fill="black"/>
<path d="M26.5069 17.0366V15.4814H27.1244V17.0366H26.5069Z" fill="black"/>
<path d="M6 20.0366V18.4814H7.54381V20.0366H6Z" fill="black"/>
<path d="M7.3681 20.0366V18.4814H8.75719V20.0366H7.3681Z" fill="black"/>
<path d="M8.58149 20.0366V18.4814H10.1253V20.0366H8.58149Z" fill="black"/>
<path d="M9.94959 20.0366V18.4814H11.4934V20.0366H9.94959Z" fill="black"/>
<path d="M11.2403 20.0366V18.4814H12.7841V20.0366H11.2403Z" fill="black"/>
<path d="M12.6084 20.0366V18.4814H14.1523V20.0366H12.6084Z" fill="black"/>
<path d="M13.8218 20.0366V18.4814H14.4394V20.0366H13.8218Z" fill="black"/>
<path d="M14.263 20.0366V18.4814H15.3433V20.0366H14.263Z" fill="black"/>
<path d="M15.323 20.0366V18.4814H16.7121V20.0366H15.323Z" fill="black"/>
<path d="M16.5364 20.0366V18.4814H17.1539V20.0366H16.5364Z" fill="black"/>
<path d="M16.9775 20.0366V18.4814H18.3666V20.0366H16.9775Z" fill="black"/>
<path d="M18.1135 20.0366V18.4814H19.5026V20.0366H18.1135Z" fill="black"/>
<path d="M19.1926 20.0366V18.4814H20.7364V20.0366H19.1926Z" fill="black"/>
<path d="M20.406 20.0366V18.4814H21.9498V20.0366H20.406Z" fill="black"/>
<path d="M21.6967 20.0366V18.4814H22.777V20.0366H21.6967Z" fill="black"/>
<path d="M22.7567 20.0366V18.4814H24.1458V20.0366H22.7567Z" fill="black"/>
<path d="M23.8154 20.0366V18.4814H24.8957V20.0366H23.8154Z" fill="black"/>
<path d="M24.7207 20.0366V18.4814H26.2645V20.0366H24.7207Z" fill="black"/>
<path d="M25.9341 20.0366V18.4814H26.5516V20.0366H25.9341Z" fill="black"/>
<path d="M6.15472 23.0366V21.4814H7.54381V23.0366H6.15472Z" fill="black"/>
<path d="M7.3681 23.0366V21.4814H8.91191V23.0366H7.3681Z" fill="black"/>
<path d="M8.58149 23.0366V21.4814H10.1253V23.0366H8.58149Z" fill="black"/>
<path d="M10.1043 23.0366V21.4814H11.3387V23.0366H10.1043Z" fill="black"/>
<path d="M11.163 23.0366V21.4814H12.2433V23.0366H11.163Z" fill="black"/>
<path d="M11.9136 23.0366V21.4814H12.9939V23.0366H11.9136Z" fill="black"/>
<path d="M12.8189 23.0366V21.4814H14.3627V23.0366H12.8189Z" fill="black"/>
<path d="M14.1096 23.0366V21.4814H15.1899V23.0366H14.1096Z" fill="black"/>
<path d="M14.8602 23.0366V21.4814H15.9405V23.0366H14.8602Z" fill="black"/>
<path d="M15.9202 23.0366V21.4814H17.1546V23.0366H15.9202Z" fill="black"/>
<path d="M17.1336 23.0366V21.4814H18.5227V23.0366H17.1336Z" fill="black"/>
<path d="M18.347 23.0366V21.4814H19.7361V23.0366H18.347Z" fill="black"/>
<path d="M19.5224 23.0366V21.4814H20.1399V23.0366H19.5224Z" fill="black"/>
<path d="M20.1182 23.0366V21.4814H21.3526V23.0366H20.1182Z" fill="black"/>
<path d="M21.3316 23.0366V21.4814H22.7207V23.0366H21.3316Z" fill="black"/>
<path d="M22.545 23.0366V21.4814H23.1625V23.0366H22.545Z" fill="black"/>
<path d="M6 26.0366V24.4814H7.54381V26.0366H6Z" fill="black"/>
<path d="M7.29074 26.0366V24.4814H8.83455V26.0366H7.29074Z" fill="black"/>
<path d="M8.65885 26.0366V24.4814H10.0479V26.0366H8.65885Z" fill="black"/>
<path d="M9.87223 26.0366V24.4814H11.416V26.0366H9.87223Z" fill="black"/>
<path d="M11.2403 26.0366V24.4814H12.6294V26.0366H11.2403Z" fill="black"/>
<path d="M12.3764 26.0366V24.4814H13.4567V26.0366H12.3764Z" fill="black"/>
<path d="M13.2817 26.0366V24.4814H14.8255V26.0366H13.2817Z" fill="black"/>
<path d="M14.4951 26.0366V24.4814H16.0389V26.0366H14.4951Z" fill="black"/>
<path d="M15.7858 26.0366V24.4814H17.1749V26.0366H15.7858Z" fill="black"/>
<path d="M16.8648 26.0366V24.4814H17.9451V26.0366H16.8648Z" fill="black"/>
<path d="M17.9248 26.0366V24.4814H19.1592V26.0366H17.9248Z" fill="black"/>
<path d="M18.8871 26.0366V24.4814H20.431V26.0366H18.8871Z" fill="black"/>
<path d="M20.1779 26.0366V24.4814H21.2582V26.0366H20.1779Z" fill="black"/>
<path d="M20.9285 26.0366V24.4814H22.0088V26.0366H20.9285Z" fill="black"/>
<path d="M21.9885 26.0366V24.4814H23.2229V26.0366H21.9885Z" fill="black"/>
<path d="M23.2019 26.0366V24.4814H24.591V26.0366H23.2019Z" fill="black"/>
<path d="M24.4153 26.0366V24.4814H25.0328V26.0366H24.4153Z" fill="black"/>
<path d="M24.8564 26.0366V24.4814H26.4002V26.0366H24.8564Z" fill="black"/>
<path d="M26.3019 26.0366V24.4814H27.691V26.0366H26.3019Z" fill="black"/>
<path d="M27.5153 26.0366V24.4814H29.0591V26.0366H27.5153Z" fill="black"/>
<path d="M28.806 26.0366V24.4814H29.4235V26.0366H28.806Z" fill="black"/>
<path d="M29.2471 26.0366V24.4814H30.3275V26.0366H29.2471Z" fill="black"/>
<path d="M30.1524 26.0366V24.4814H31.3868V26.0366H30.1524Z" fill="black"/>
<path d="M31.2111 26.0366V24.4814H31.8286V26.0366H31.2111Z" fill="black"/>
<path d="M6.15472 29.0366V27.4814H7.38909V29.0366H6.15472Z" fill="black"/>
<path d="M7.21338 29.0366V27.4814H8.44843V29.0366H7.21338Z" fill="black"/>
<path d="M8.11869 29.0366V27.4814H9.35373V29.0366H8.11869Z" fill="black"/>
<path d="M9.02399 29.0366V27.4814H10.5678V29.0366H9.02399Z" fill="black"/>
<path d="M10.2374 29.0366V27.4814H11.6265V29.0366H10.2374Z" fill="black"/>
<path d="M11.3164 29.0366V27.4814H11.9339V29.0366H11.3164Z" fill="black"/>
<path d="M11.7575 29.0366V27.4814H13.3013V29.0366H11.7575Z" fill="black"/>
<path d="M13.0483 29.0366V27.4814H13.6658V29.0366H13.0483Z" fill="black"/>
<path d="M13.6441 29.0366V27.4814H15.0332V29.0366H13.6441Z" fill="black"/>
<path d="M14.7802 29.0366V27.4814H16.324V29.0366H14.7802Z" fill="black"/>
<path d="M16.0709 29.0366V27.4814H17.1512V29.0366H16.0709Z" fill="black"/>
<path d="M16.8215 29.0366V27.4814H18.3653V29.0366H16.8215Z" fill="black"/>
<path d="M18.1896 29.0366V27.4814H18.8071V29.0366H18.1896Z" fill="black"/>
<path d="M18.6307 29.0366V27.4814H19.7111V29.0366H18.6307Z" fill="black"/>
<path d="M19.536 29.0366V27.4814H20.7704V29.0366H19.536Z" fill="black"/>
<path d="M20.5947 29.0366V27.4814H21.2122V29.0366H20.5947Z" fill="black"/>
<path d="M21.0359 29.0366V27.4814H22.4249V29.0366H21.0359Z" fill="black"/>
<path d="M22.2112 29.0366V27.4814H23.755V29.0366H22.2112Z" fill="black"/>
<path d="M23.4246 29.0366V27.4814H24.8137V29.0366H23.4246Z" fill="black"/>
<path d="M24.5606 29.0366V27.4814H26.1045V29.0366H24.5606Z" fill="black"/>
<path d="M25.9288 29.0366V27.4814H27.3178V29.0366H25.9288Z" fill="black"/>
<path d="M27.0078 29.0366V27.4814H28.0881V29.0366H27.0078Z" fill="black"/>
<path d="M27.9131 29.0366V27.4814H28.9934V29.0366H27.9131Z" fill="black"/>
<path d="M28.8184 29.0366V27.4814H30.2075V29.0366H28.8184Z" fill="black"/>
<path d="M29.9544 29.0366V27.4814H30.726V29.0366H29.9544Z" fill="black"/>
<path d="M30.4729 29.0366V27.4814H31.0904V29.0366H30.4729Z" fill="black"/>
<path d="M6.15472 32.0366V30.4814H7.54381V32.0366H6.15472Z" fill="black"/>
<path d="M7.29074 32.0366V30.4814H8.67983V32.0366H7.29074Z" fill="black"/>
<path d="M8.52449 32.0366V30.4814H9.75885V32.0366H8.52449Z" fill="black"/>
<path d="M9.58315 32.0366V30.4814H10.9722V32.0366H9.58315Z" fill="black"/>
<path d="M10.9133 32.0366V30.4814H12.3023V32.0366H10.9133Z" fill="black"/>
<path d="M12.0493 32.0366V30.4814H13.5931V32.0366H12.0493Z" fill="black"/>
<path d="M13.2627 32.0366V30.4814H14.6518V32.0366H13.2627Z" fill="black"/>
<path d="M14.3417 32.0366V30.4814H15.422V32.0366H14.3417Z" fill="black"/>
<path d="M15.247 32.0366V30.4814H16.3273V32.0366H15.247Z" fill="black"/>
<path d="M16.1523 32.0366V30.4814H17.5414V32.0366H16.1523Z" fill="black"/>
<path d="M17.2883 32.0366V30.4814H18.0599V32.0366H17.2883Z" fill="black"/>
<path d="M17.8068 32.0366V30.4814H18.4243V32.0366H17.8068Z" fill="black"/>
<path d="M18.248 32.0366V30.4814H19.7918V32.0366H18.248Z" fill="black"/>
<path d="M19.6934 32.0366V30.4814H21.0825V32.0366H19.6934Z" fill="black"/>
<path d="M20.9068 32.0366V30.4814H22.4506V32.0366H20.9068Z" fill="black"/>
<path d="M22.1976 32.0366V30.4814H22.8151V32.0366H22.1976Z" fill="black"/>
<path d="M22.6387 32.0366V30.4814H24.0278V32.0366H22.6387Z" fill="black"/>
<path d="M23.7177 32.0366V30.4814H25.2615V32.0366H23.7177Z" fill="black"/>
<path d="M24.9311 32.0366V30.4814H26.3202V32.0366H24.9311Z" fill="black"/>
<path d="M26.2612 32.0366V30.4814H27.6503V32.0366H26.2612Z" fill="black"/>
<path d="M27.3972 32.0366V30.4814H28.941V32.0366H27.3972Z" fill="black"/>
<path d="M28.6106 32.0366V30.4814H29.9997V32.0366H28.6106Z" fill="black"/>
<path d="M29.7466 32.0366V30.4814H30.827V32.0366H29.7466Z" fill="black"/>
<path d="M30.4972 32.0366V30.4814H31.2688V32.0366H30.4972Z" fill="black"/>
<path d="M31.0157 32.0366V30.4814H31.7873V32.0366H31.0157Z" fill="black"/>
<path d="M6.30876 7.93203H28.2028V8.00176H6.30876V7.93203ZM6.30876 10.932H32.6912V11.0018H6.30876V10.932ZM6.30876 13.932H28.0684V14.0018H6.30876V13.932ZM6.30876 16.932H26.8157V17.0018H6.30876V16.932ZM6.30876 19.932H26.2428V20.0018H6.30876V19.932ZM6.30876 22.932H22.8538V23.0018H6.30876V22.932ZM6.30876 25.932H31.5199V26.0018H6.30876V25.932ZM6.30876 28.932H30.7817V29.0018H6.30876V28.932ZM6.30876 31.932H31.9759V32.0018H6.30876V31.932Z" fill="black"/>
</g>
</g>
<path d="M11.3333 38.4814H2V44.8295H11.3333V38.4814Z" fill="#7FA4CA"/>
<path d="M21.6663 38.4814H12.333V44.8295H21.6663V38.4814Z" fill="#E1C278"/>
<path d="M32.0003 38.4814H22.667V44.8295H32.0003V38.4814Z" fill="#BB90BB"/>
</g>
<defs>
<filter id="filter0_d_238_44200" x="0" y="1.48145" width="39" height="35" filterUnits="userSpaceOnUse" color-interpolation-filters="sRGB">
<feFlood flood-opacity="0" result="BackgroundImageFix"/>
<feColorMatrix in="SourceAlpha" type="matrix" values="0 0 0 0 0 0 0 0 0 0 0 0 0 0 0 0 0 0 127 0" result="hardAlpha"/>
<feOffset dy="1"/>
<feGaussianBlur stdDeviation="1"/>
<feComposite in2="hardAlpha" operator="out"/>
<feColorMatrix type="matrix" values="0 0 0 0 0 0 0 0 0 0 0 0 0 0 0 0 0 0 0.1 0"/>
<feBlend mode="normal" in2="BackgroundImageFix" result="effect1_dropShadow_238_44200"/>
<feBlend mode="normal" in="SourceGraphic" in2="effect1_dropShadow_238_44200" result="shape"/>
</filter>
<filter id="filter1_i_238_44200" x="2" y="-2.51855" width="35" height="34" filterUnits="userSpaceOnUse" color-interpolation-filters="sRGB">
<feFlood flood-opacity="0" result="BackgroundImageFix"/>
<feBlend mode="normal" in="SourceGraphic" in2="BackgroundImageFix" result="shape"/>
<feColorMatrix in="SourceAlpha" type="matrix" values="0 0 0 0 0 0 0 0 0 0 0 0 0 0 0 0 0 0 127 0" result="hardAlpha"/>
<feOffset dy="-5"/>
<feGaussianBlur stdDeviation="3.5"/>
<feComposite in2="hardAlpha" operator="arithmetic" k2="-1" k3="1"/>
<feColorMatrix type="matrix" values="0 0 0 0 1 0 0 0 0 1 0 0 0 0 1 0 0 0 1 0"/>
<feBlend mode="normal" in2="shape" result="effect1_innerShadow_238_44200"/>
</filter>
<clipPath id="clip0_238_44200">
<rect width="39" height="46.3481" fill="white" transform="translate(0 0.481445)"/>
</clipPath>
<clipPath id="clip1_238_44200">
<rect width="35" height="31" fill="white" transform="translate(2 2.48145)"/>
</clipPath>
<clipPath id="clip2_238_44200">
<rect width="35" height="29" fill="white" transform="translate(2 2.48145)"/>
</clipPath>
</defs>
</svg>
