<svg width="39" height="47" viewBox="0 0 39 47" fill="none" xmlns="http://www.w3.org/2000/svg">
<g clip-path="url(#clip0_238_44112)">
<g clip-path="url(#clip1_238_44112)" filter="url(#filter0_d_238_44112)">
<rect width="35" height="31" transform="translate(2 2.25488)" fill="white"/>
<g opacity="0.3" clip-path="url(#clip2_238_44112)" filter="url(#filter1_i_238_44112)">
<rect width="35" height="29" transform="translate(2 2.25488)" fill="white"/>
<path d="M6 7.81006V6.25488H6.76438V7.81006H6Z" fill="black"/>
<path d="M6.59031 7.81006V6.25488H8.11974V7.81006H6.59031Z" fill="black"/>
<path d="M7.94567 7.81006V6.25488H9.4751V7.81006H7.94567Z" fill="black"/>
<path d="M9.30104 7.81006V6.25488H10.8305V7.81006H9.30104Z" fill="black"/>
<path d="M10.5031 7.81006V6.25488H11.1149V7.81006H10.5031Z" fill="black"/>
<path d="M10.9402 7.81006V6.25488H12.6229V7.81006H10.9402Z" fill="black"/>
<path d="M12.4864 7.81006V6.25488H13.8626V7.81006H12.4864Z" fill="black"/>
<path d="M13.6885 7.81006V6.25488H14.7588V7.81006H13.6885Z" fill="black"/>
<path d="M14.5854 7.81006V6.25488H15.6557V7.81006H14.5854Z" fill="black"/>
<path d="M15.329 7.81006V6.25488H16.8584V7.81006H15.329Z" fill="black"/>
<path d="M16.5311 7.81006V6.25488H18.0605V7.81006H16.5311Z" fill="black"/>
<path d="M17.8098 7.81006V6.25488H18.4216V7.81006H17.8098Z" fill="black"/>
<path d="M18.2468 7.81006V6.25488H19.623V7.81006H18.2468Z" fill="black"/>
<path d="M19.5255 7.81006V6.25488H20.5958V7.81006H19.5255Z" fill="black"/>
<path d="M20.2691 7.81006V6.25488H21.7986V7.81006H20.2691Z" fill="black"/>
<path d="M21.5479 7.81006V6.25488H22.6181V7.81006H21.5479Z" fill="black"/>
<path d="M22.2915 7.81006V6.25488H23.8209V7.81006H22.2915Z" fill="black"/>
<path d="M23.4935 7.81006V6.25488H24.8697V7.81006H23.4935Z" fill="black"/>
<path d="M24.658 7.81006V6.25488H25.2697V7.81006H24.658Z" fill="black"/>
<path d="M25.095 7.81006V6.25488H26.6244V7.81006H25.095Z" fill="black"/>
<path d="M26.4504 7.81006V6.25488H27.9798V7.81006H26.4504Z" fill="black"/>
<path d="M27.7291 7.81006V6.25488H29.1052V7.81006H27.7291Z" fill="black"/>
<path d="M28.8935 7.81006V6.25488H29.5053V7.81006H28.8935Z" fill="black"/>
<path d="M6.15328 10.8101V9.25488H7.37615V10.8101H6.15328Z" fill="black"/>
<path d="M7.20208 10.8101V9.25488H8.42563V10.8101H7.20208Z" fill="black"/>
<path d="M8.09895 10.8101V9.25488H9.3225V10.8101H8.09895Z" fill="black"/>
<path d="M8.99582 10.8101V9.25488H10.5253V10.8101H8.99582Z" fill="black"/>
<path d="M10.1979 10.8101V9.25488H11.5741V10.8101H10.1979Z" fill="black"/>
<path d="M11.2669 10.8101V9.25488H12.7963V10.8101H11.2669Z" fill="black"/>
<path d="M12.469 10.8101V9.25488H13.9984V10.8101H12.469Z" fill="black"/>
<path d="M13.7477 10.8101V9.25488H14.3595V10.8101H13.7477Z" fill="black"/>
<path d="M14.5457 10.4895V10.3803H15.1239V10.4895H14.5457Z" fill="black"/>
<path d="M14.8181 10.8101V9.25488H15.4298V10.8101H14.8181Z" fill="black"/>
<path d="M15.2551 10.8101V9.25488H16.7845V10.8101H15.2551Z" fill="black"/>
<path d="M16.6871 10.8101V9.25488H18.0632V10.8101H16.6871Z" fill="black"/>
<path d="M17.8892 10.8101V9.25488H19.4186V10.8101H17.8892Z" fill="black"/>
<path d="M19.1679 10.8101V9.25488H19.7797V10.8101H19.1679Z" fill="black"/>
<path d="M19.6049 10.8101V9.25488H20.9811V10.8101H19.6049Z" fill="black"/>
<path d="M20.8837 10.8101V9.25488H22.1065V10.8101H20.8837Z" fill="black"/>
<path d="M22.0857 10.8101V9.25488H23.4619V10.8101H22.0857Z" fill="black"/>
<path d="M23.2878 10.8101V9.25488H24.3581V10.8101H23.2878Z" fill="black"/>
<path d="M24.0314 10.8101V9.25488H25.1017V10.8101H24.0314Z" fill="black"/>
<path d="M25.0816 10.8101V9.25488H26.4577V10.8101H25.0816Z" fill="black"/>
<path d="M26.2836 10.8101V9.25488H27.8131V10.8101H26.2836Z" fill="black"/>
<path d="M27.639 10.8101V9.25488H29.1684V10.8101H27.639Z" fill="black"/>
<path d="M28.8411 10.8101V9.25488H30.2172V10.8101H28.8411Z" fill="black"/>
<path d="M30.0055 10.8101V9.25488H30.6173V10.8101H30.0055Z" fill="black"/>
<path d="M30.4426 10.8101V9.25488H31.5128V10.8101H30.4426Z" fill="black"/>
<path d="M31.3394 10.8101V9.25488H32.5623V10.8101H31.3394Z" fill="black"/>
<path d="M32.3882 10.8101V9.25488H33V10.8101H32.3882Z" fill="black"/>
<path d="M6.15328 13.8101V12.2549H7.37615V13.8101H6.15328Z" fill="black"/>
<path d="M7.20208 13.8101V12.2549H8.42563V13.8101H7.20208Z" fill="black"/>
<path d="M8.09895 13.8101V12.2549H9.3225V13.8101H8.09895Z" fill="black"/>
<path d="M8.99582 13.8101V12.2549H10.5253V13.8101H8.99582Z" fill="black"/>
<path d="M10.1979 13.8101V12.2549H11.5741V13.8101H10.1979Z" fill="black"/>
<path d="M11.2669 13.8101V12.2549H11.8786V13.8101H11.2669Z" fill="black"/>
<path d="M12.0649 13.4895V13.3803H12.6431V13.4895H12.0649Z" fill="black"/>
<path d="M12.3372 13.8101V12.2549H12.949V13.8101H12.3372Z" fill="black"/>
<path d="M12.9276 13.8101V12.2549H14.457V13.8101H12.9276Z" fill="black"/>
<path d="M14.3017 13.8101V12.2549H15.6779V13.8101H14.3017Z" fill="black"/>
<path d="M15.5805 13.8101V12.2549H16.8033V13.8101H15.5805Z" fill="black"/>
<path d="M16.7826 13.8101V12.2549H18.1587V13.8101H16.7826Z" fill="black"/>
<path d="M17.9846 13.8101V12.2549H19.5141V13.8101H17.9846Z" fill="black"/>
<path d="M19.4933 13.8101V12.2549H20.8694V13.8101H19.4933Z" fill="black"/>
<path d="M20.5421 13.8101V12.2549H22.0715V13.8101H20.5421Z" fill="black"/>
<path d="M21.9741 13.8101V12.2549H23.3502V13.8101H21.9741Z" fill="black"/>
<path d="M23.1762 13.8101V12.2549H24.7056V13.8101H23.1762Z" fill="black"/>
<path d="M24.5315 13.8101V12.2549H25.1433V13.8101H24.5315Z" fill="black"/>
<path d="M24.9686 13.8101V12.2549H26.498V13.8101H24.9686Z" fill="black"/>
<path d="M26.4006 13.8101V12.2549H27.7767V13.8101H26.4006Z" fill="black"/>
<path d="M27.6026 13.8101V12.2549H28.2144V13.8101H27.6026Z" fill="black"/>
<path d="M6 16.8101V15.2549H7.07026V16.8101H6Z" fill="black"/>
<path d="M6.89687 16.8101V15.2549H8.88546V16.8101H6.89687Z" fill="black"/>
<path d="M8.94064 16.8101V15.2549H10.3168V16.8101H8.94064Z" fill="black"/>
<path d="M10.0661 16.8101V15.2549H11.4422V16.8101H10.0661Z" fill="black"/>
<path d="M11.2883 16.8101V15.2549H12.5112V16.8101H11.2883Z" fill="black"/>
<path d="M12.3371 16.8101V15.2549H13.7133V16.8101H12.3371Z" fill="black"/>
<path d="M13.6159 16.8101V15.2549H15.1453V16.8101H13.6159Z" fill="black"/>
<path d="M14.8179 16.8101V15.2549H16.3474V16.8101H14.8179Z" fill="black"/>
<path d="M16.0967 16.8101V15.2549H16.7084V16.8101H16.0967Z" fill="black"/>
<path d="M16.687 16.8101V15.2549H18.0631V16.8101H16.687Z" fill="black"/>
<path d="M17.7358 16.8101V15.2549H18.8061V16.8101H17.7358Z" fill="black"/>
<path d="M18.6327 16.8101V15.2549H19.7029V16.8101H18.6327Z" fill="black"/>
<path d="M19.5295 16.8101V15.2549H21.059V16.8101H19.5295Z" fill="black"/>
<path d="M20.8082 16.8101V15.2549H21.8785V16.8101H20.8082Z" fill="black"/>
<path d="M21.5518 16.8101V15.2549H23.0813V16.8101H21.5518Z" fill="black"/>
<path d="M22.7539 16.8101V15.2549H24.1301V16.8101H22.7539Z" fill="black"/>
<path d="M23.7852 16.8101V15.2549H25.3147V16.8101H23.7852Z" fill="black"/>
<path d="M25.064 16.8101V15.2549H26.1342V16.8101H25.064Z" fill="black"/>
<path d="M25.9608 16.8101V15.2549H26.5726V16.8101H25.9608Z" fill="black"/>
<path d="M6 19.8101V18.2549H7.37615V19.8101H6Z" fill="black"/>
<path d="M7.06897 19.8101V18.2549H8.5984V19.8101H7.06897Z" fill="black"/>
<path d="M8.27106 19.8101V18.2549H9.34132V19.8101H8.27106Z" fill="black"/>
<path d="M9.16793 19.8101V18.2549H10.6974V19.8101H9.16793Z" fill="black"/>
<path d="M10.4466 19.8101V18.2549H11.5169V19.8101H10.4466Z" fill="black"/>
<path d="M11.1902 19.8101V18.2549H12.2605V19.8101H11.1902Z" fill="black"/>
<path d="M12.2404 19.8101V18.2549H13.4633V19.8101H12.2404Z" fill="black"/>
<path d="M13.4425 19.8101V18.2549H14.8186V19.8101H13.4425Z" fill="black"/>
<path d="M14.6446 19.8101V18.2549H16.0207V19.8101H14.6446Z" fill="black"/>
<path d="M15.809 19.8101V18.2549H17.3384V19.8101H15.809Z" fill="black"/>
<path d="M17.1644 19.8101V18.2549H18.2346V19.8101H17.1644Z" fill="black"/>
<path d="M18.2145 19.8101V18.2549H19.5907V19.8101H18.2145Z" fill="black"/>
<path d="M19.3399 19.8101V18.2549H19.9517V19.8101H19.3399Z" fill="black"/>
<path d="M19.9303 19.8101V18.2549H21.3064V19.8101H19.9303Z" fill="black"/>
<path d="M21.0557 19.8101V18.2549H22.4318V19.8101H21.0557Z" fill="black"/>
<path d="M22.278 19.8101V18.2549H23.5008V19.8101H22.278Z" fill="black"/>
<path d="M23.3268 19.8101V18.2549H24.7029V19.8101H23.3268Z" fill="black"/>
<path d="M24.6055 19.8101V18.2549H25.6757V19.8101H24.6055Z" fill="black"/>
<path d="M25.5023 19.8101V18.2549H27.0318V19.8101H25.5023Z" fill="black"/>
<path d="M26.7811 19.8101V18.2549H28.3105V19.8101H26.7811Z" fill="black"/>
<path d="M27.9832 19.8101V18.2549H29.5126V19.8101H27.9832Z" fill="black"/>
<path d="M29.2619 19.8101V18.2549H29.8736V19.8101H29.2619Z" fill="black"/>
<path d="M29.6989 19.8101V18.2549H30.7692V19.8101H29.6989Z" fill="black"/>
<path d="M30.5958 19.8101V18.2549H31.666V19.8101H30.5958Z" fill="black"/>
<path d="M31.3394 19.8101V18.2549H31.9511V19.8101H31.3394Z" fill="black"/>
<path d="M6 22.8101V21.2549H7.07026V22.8101H6Z" fill="black"/>
<path d="M6.74359 22.8101V21.2549H8.27302V22.8101H6.74359Z" fill="black"/>
<path d="M8.02231 22.8101V21.2549H9.55174V22.8101H8.02231Z" fill="black"/>
<path d="M9.34003 22.8101V21.2549H10.8695V22.8101H9.34003Z" fill="black"/>
<path d="M10.5421 22.8101V21.2549H11.9183V22.8101H10.5421Z" fill="black"/>
<path d="M11.7065 22.8101V21.2549H12.3183V22.8101H11.7065Z" fill="black"/>
<path d="M12.1436 22.8101V21.2549H13.673V22.8101H12.1436Z" fill="black"/>
<path d="M13.4223 22.8101V21.2549H14.7985V22.8101H13.4223Z" fill="black"/>
<path d="M14.5477 22.8101V21.2549H15.618V22.8101H14.5477Z" fill="black"/>
<path d="M15.2913 22.8101V21.2549H16.3616V22.8101H15.2913Z" fill="black"/>
<path d="M16.3415 22.8101V21.2549H17.5644V22.8101H16.3415Z" fill="black"/>
<path d="M17.5436 22.8101V21.2549H18.9197V22.8101H17.5436Z" fill="black"/>
<path d="M18.7457 22.8101V21.2549H19.3574V22.8101H18.7457Z" fill="black"/>
<path d="M19.1827 22.8101V21.2549H20.2529V22.8101H19.1827Z" fill="black"/>
<path d="M20.0796 22.8101V21.2549H21.3024V22.8101H20.0796Z" fill="black"/>
<path d="M21.1284 22.8101V21.2549H21.7401V22.8101H21.1284Z" fill="black"/>
<path d="M6 25.8101V24.2549H7.52943V25.8101H6Z" fill="black"/>
<path d="M7.27872 25.8101V24.2549H8.80815V25.8101H7.27872Z" fill="black"/>
<path d="M8.48081 25.8101V24.2549H10.4694V25.8101H8.48081Z" fill="black"/>
<path d="M10.5246 25.8101V24.2549H11.7474V25.8101H10.5246Z" fill="black"/>
<path d="M11.7267 25.8101V24.2549H13.1028V25.8101H11.7267Z" fill="black"/>
<path d="M12.9287 25.8101V24.2549H14.3049V25.8101H12.9287Z" fill="black"/>
<path d="M14.0932 25.8101V24.2549H15.1634V25.8101H14.0932Z" fill="black"/>
<path d="M14.8368 25.8101V24.2549H16.2129V25.8101H14.8368Z" fill="black"/>
<path d="M15.8681 25.8101V24.2549H17.3975V25.8101H15.8681Z" fill="black"/>
<path d="M17.1468 25.8101V24.2549H18.2171V25.8101H17.1468Z" fill="black"/>
<path d="M17.8904 25.8101V24.2549H19.4198V25.8101H17.8904Z" fill="black"/>
<path d="M19.0925 25.8101V24.2549H19.7043V25.8101H19.0925Z" fill="black"/>
<path d="M19.5295 25.8101V24.2549H21.059V25.8101H19.5295Z" fill="black"/>
<path d="M20.8082 25.8101V24.2549H21.42V25.8101H20.8082Z" fill="black"/>
<path d="M6 28.8101V27.2549H8.1412V28.8101H6Z" fill="black"/>
<path d="M7.89049 28.8101V27.2549H8.96076V28.8101H7.89049Z" fill="black"/>
<path d="M8.78736 28.8101V27.2549H9.85763V28.8101H8.78736Z" fill="black"/>
<path d="M9.68423 28.8101V27.2549H10.7545V28.8101H9.68423Z" fill="black"/>
<path d="M10.5811 28.8101V27.2549H11.6514V28.8101H10.5811Z" fill="black"/>
<path d="M11.6313 28.8101V27.2549H13.0074V28.8101H11.6313Z" fill="black"/>
<path d="M12.8333 28.8101V27.2549H14.3628V28.8101H12.8333Z" fill="black"/>
<path d="M14.342 28.8101V27.2549H15.7181V28.8101H14.342Z" fill="black"/>
<path d="M15.5441 28.8101V27.2549H17.0735V28.8101H15.5441Z" fill="black"/>
<path d="M16.7461 28.8101V27.2549H18.1223V28.8101H16.7461Z" fill="black"/>
<path d="M17.9106 28.8101V27.2549H19.2867V28.8101H17.9106Z" fill="black"/>
<path d="M19.075 28.8101V27.2549H19.6868V28.8101H19.075Z" fill="black"/>
<path d="M19.512 28.8101V27.2549H20.5823V28.8101H19.512Z" fill="black"/>
<path d="M20.4089 28.8101V27.2549H21.6318V28.8101H20.4089Z" fill="black"/>
<path d="M21.4577 28.8101V27.2549H22.0695V28.8101H21.4577Z" fill="black"/>
<path d="M21.8948 28.8101V27.2549H23.1183V28.8101H21.8948Z" fill="black"/>
<path d="M22.7916 28.8101V27.2549H24.3211V28.8101H22.7916Z" fill="black"/>
<path d="M24.147 28.8101V27.2549H25.2173V28.8101H24.147Z" fill="black"/>
<path d="M25.0439 28.8101V27.2549H26.2674V28.8101H25.0439Z" fill="black"/>
<path d="M25.9407 28.8101V27.2549H27.011V28.8101H25.9407Z" fill="black"/>
<path d="M26.8376 28.8101V27.2549H27.9079V28.8101H26.8376Z" fill="black"/>
<path d="M27.7345 28.8101V27.2549H28.8047V28.8101H27.7345Z" fill="black"/>
<path d="M28.6313 28.8101V27.2549H29.2431V28.8101H28.6313Z" fill="black"/>
<path d="M29.0684 28.8101V27.2549H30.1386V28.8101H29.0684Z" fill="black"/>
<path d="M29.9652 28.8101V27.2549H31.0355V28.8101H29.9652Z" fill="black"/>
<path d="M30.7088 28.8101V27.2549H32.085V28.8101H30.7088Z" fill="black"/>
<path d="M31.8733 28.8101V27.2549H32.485V28.8101H31.8733Z" fill="black"/>
<path d="M6 31.8101V30.2549H7.52943V31.8101H6Z" fill="black"/>
<path d="M7.27872 31.8101V30.2549H8.80815V31.8101H7.27872Z" fill="black"/>
<path d="M8.63408 31.8101V30.2549H10.0102V31.8101H8.63408Z" fill="black"/>
<path d="M9.83617 31.8101V30.2549H11.3656V31.8101H9.83617Z" fill="black"/>
<path d="M11.1915 31.8101V30.2549H12.5677V31.8101H11.1915Z" fill="black"/>
<path d="M12.317 31.8101V30.2549H13.3872V31.8101H12.317Z" fill="black"/>
<path d="M13.2138 31.8101V30.2549H14.7433V31.8101H13.2138Z" fill="black"/>
<path d="M14.4159 31.8101V30.2549H15.9454V31.8101H14.4159Z" fill="black"/>
<path d="M15.6946 31.8101V30.2549H17.0708V31.8101H15.6946Z" fill="black"/>
<path d="M16.7636 31.8101V30.2549H17.8339V31.8101H16.7636Z" fill="black"/>
<path d="M17.8138 31.8101V30.2549H19.0366V31.8101H17.8138Z" fill="black"/>
<path d="M18.7671 31.8101V30.2549H20.2965V31.8101H18.7671Z" fill="black"/>
<path d="M20.0458 31.8101V30.2549H21.1161V31.8101H20.0458Z" fill="black"/>
<path d="M20.7894 31.8101V30.2549H21.8597V31.8101H20.7894Z" fill="black"/>
<path d="M21.8396 31.8101V30.2549H23.0624V31.8101H21.8396Z" fill="black"/>
<path d="M23.0417 31.8101V30.2549H24.4178V31.8101H23.0417Z" fill="black"/>
<path d="M24.2437 31.8101V30.2549H24.8555V31.8101H24.2437Z" fill="black"/>
<path d="M6 34.8101V33.2549H7.37615V34.8101H6Z" fill="black"/>
<path d="M7.27872 34.8101V33.2549H8.50159V34.8101H7.27872Z" fill="black"/>
<path d="M8.32753 34.8101V33.2549H10.3161V34.8101H8.32753Z" fill="black"/>
<path d="M10.218 34.8101V33.2549H12.2066V34.8101H10.218Z" fill="black"/>
<path d="M12.1085 34.8101V33.2549H13.1788V34.8101H12.1085Z" fill="black"/>
<path d="M13.0054 34.8101V33.2549H14.0756V34.8101H13.0054Z" fill="black"/>
<path d="M13.749 34.8101V33.2549H15.7376V34.8101H13.749Z" fill="black"/>
<path d="M15.6395 34.8101V33.2549H17.1689V34.8101H15.6395Z" fill="black"/>
<path d="M16.9948 34.8101V33.2549H18.371V34.8101H16.9948Z" fill="black"/>
<path d="M18.1969 34.8101V33.2549H19.2672V34.8101H18.1969Z" fill="black"/>
<path d="M18.9405 34.8101V33.2549H20.3167V34.8101H18.9405Z" fill="black"/>
<path d="M20.1049 34.8101V33.2549H20.7167V34.8101H20.1049Z" fill="black"/>
<path d="M20.542 34.8101V33.2549H22.0714V34.8101H20.542Z" fill="black"/>
<path d="M21.974 34.8101V33.2549H23.3501V34.8101H21.974Z" fill="black"/>
<path d="M23.1761 34.8101V33.2549H24.7055V34.8101H23.1761Z" fill="black"/>
<path d="M24.4548 34.8101V33.2549H25.0666V34.8101H24.4548Z" fill="black"/>
<path d="M6 37.8101V36.2549H7.52943V37.8101H6Z" fill="black"/>
<path d="M7.27872 37.8101V36.2549H8.80815V37.8101H7.27872Z" fill="black"/>
<path d="M8.55745 37.8101V36.2549H10.0869V37.8101H8.55745Z" fill="black"/>
<path d="M9.83617 37.8101V36.2549H11.2123V37.8101H9.83617Z" fill="black"/>
<path d="M10.9051 37.8101V36.2549H12.4346V37.8101H10.9051Z" fill="black"/>
<path d="M12.1072 37.8101V36.2549H13.4834V37.8101H12.1072Z" fill="black"/>
<path d="M13.2717 37.8101V36.2549H14.6478V37.8101H13.2717Z" fill="black"/>
<path d="M14.4361 37.8101V36.2549H15.0479V37.8101H14.4361Z" fill="black"/>
<path d="M15.0264 37.8101V36.2549H16.2493V37.8101H15.0264Z" fill="black"/>
<path d="M16.0752 37.8101V36.2549H17.1455V37.8101H16.0752Z" fill="black"/>
<path d="M16.8188 37.8101V36.2549H18.3482V37.8101H16.8188Z" fill="black"/>
<path d="M18.1742 37.8101V36.2549H19.7036V37.8101H18.1742Z" fill="black"/>
<path d="M19.3762 37.8101V36.2549H20.7524V37.8101H19.3762Z" fill="black"/>
<path d="M20.4452 37.8101V36.2549H21.057V37.8101H20.4452Z" fill="black"/>
<path d="M20.8823 37.8101V36.2549H21.9525V37.8101H20.8823Z" fill="black"/>
<path d="M21.7791 37.8101V36.2549H23.7677V37.8101H21.7791Z" fill="black"/>
<path d="M23.8229 37.8101V36.2549H25.199V37.8101H23.8229Z" fill="black"/>
<path d="M25.1016 37.8101V36.2549H26.3245V37.8101H25.1016Z" fill="black"/>
<path d="M26.1504 37.8101V36.2549H27.5266V37.8101H26.1504Z" fill="black"/>
<path d="M27.2194 37.8101V36.2549H28.2897V37.8101H27.2194Z" fill="black"/>
<path d="M27.963 37.8101V36.2549H29.4924V37.8101H27.963Z" fill="black"/>
<path d="M29.395 37.8101V36.2549H30.7711V37.8101H29.395Z" fill="black"/>
<path d="M30.5971 37.8101V36.2549H31.6673V37.8101H30.5971Z" fill="black"/>
<path d="M31.3407 37.8101V36.2549H31.9524V37.8101H31.3407Z" fill="black"/>
<path d="M6 40.8101V39.2549H7.37615V40.8101H6Z" fill="black"/>
<path d="M7.27872 40.8101V39.2549H8.50159V40.8101H7.27872Z" fill="black"/>
<path d="M8.48081 40.8101V39.2549H9.85695V40.8101H8.48081Z" fill="black"/>
<path d="M9.68289 40.8101V39.2549H11.059V40.8101H9.68289Z" fill="black"/>
<path d="M10.8083 40.8101V39.2549H12.3378V40.8101H10.8083Z" fill="black"/>
<path d="M12.0104 40.8101V39.2549H13.3866V40.8101H12.0104Z" fill="black"/>
<path d="M13.2327 40.8101V39.2549H14.6088V40.8101H13.2327Z" fill="black"/>
<path d="M14.4348 40.8101V39.2549H15.8109V40.8101H14.4348Z" fill="black"/>
<path d="M15.5992 40.8101V39.2549H16.211V40.8101H15.5992Z" fill="black"/>
<path d="M16.0362 40.8101V39.2549H18.1774V40.8101H16.0362Z" fill="black"/>
<path d="M17.9267 40.8101V39.2549H19.4561V40.8101H17.9267Z" fill="black"/>
<path d="M19.2821 40.8101V39.2549H20.3523V40.8101H19.2821Z" fill="black"/>
<path d="M20.1789 40.8101V39.2549H21.5551V40.8101H20.1789Z" fill="black"/>
<path d="M21.3044 40.8101V39.2549H22.8338V40.8101H21.3044Z" fill="black"/>
<path d="M22.6598 40.8101V39.2549H23.2715V40.8101H22.6598Z" fill="black"/>
<path d="M23.0968 40.8101V39.2549H24.6262V40.8101H23.0968Z" fill="black"/>
<path d="M24.3755 40.8101V39.2549H25.7517V40.8101H24.3755Z" fill="black"/>
<path d="M25.4445 40.8101V39.2549H26.9739V40.8101H25.4445Z" fill="black"/>
<path d="M26.6466 40.8101V39.2549H27.2583V40.8101H26.6466Z" fill="black"/>
<path d="M27.0836 40.8101V39.2549H28.613V40.8101H27.0836Z" fill="black"/>
<path d="M28.3623 40.8101V39.2549H29.4326V40.8101H28.3623Z" fill="black"/>
<path d="M29.2592 40.8101V39.2549H30.6353V40.8101H29.2592Z" fill="black"/>
<path d="M30.5769 40.8101V39.2549H31.7998V40.8101H30.5769Z" fill="black"/>
<path d="M31.6257 40.8101V39.2549H32.2375V40.8101H31.6257Z" fill="black"/>
<path d="M6 43.8101V42.2549H7.37615V43.8101H6Z" fill="black"/>
<path d="M7.16444 43.8101V42.2549H8.69386V43.8101H7.16444Z" fill="black"/>
<path d="M8.5198 43.8101V42.2549H10.0492V43.8101H8.5198Z" fill="black"/>
<path d="M9.79852 43.8101V42.2549H11.1747V43.8101H9.79852Z" fill="black"/>
<path d="M10.8675 43.8101V42.2549H12.3969V43.8101H10.8675Z" fill="black"/>
<path d="M12.0696 43.8101V42.2549H13.599V43.8101H12.0696Z" fill="black"/>
<path d="M13.3483 43.8101V42.2549H13.9601V43.8101H13.3483Z" fill="black"/>
<path d="M13.9386 43.8101V42.2549H15.3148V43.8101H13.9386Z" fill="black"/>
<path d="M15.1407 43.8101V42.2549H16.5168V43.8101H15.1407Z" fill="black"/>
<path d="M16.2661 43.8101V42.2549H16.8779V43.8101H16.2661Z" fill="black"/>
<path d="M16.7032 43.8101V42.2549H17.7734V43.8101H16.7032Z" fill="black"/>
<path d="M17.4468 43.8101V42.2549H18.9762V43.8101H17.4468Z" fill="black"/>
<path d="M18.8021 43.8101V42.2549H20.3316V43.8101H18.8021Z" fill="black"/>
<path d="M20.0042 43.8101V42.2549H20.616V43.8101H20.0042Z" fill="black"/>
<path d="M6 46.8101V45.2549H7.07026V46.8101H6Z" fill="black"/>
<path d="M7.05015 46.8101V45.2549H8.4263V46.8101H7.05015Z" fill="black"/>
<path d="M8.25223 46.8101V45.2549H9.3225V46.8101H8.25223Z" fill="black"/>
<path d="M8.99582 46.8101V45.2549H10.5253V46.8101H8.99582Z" fill="black"/>
<path d="M10.1979 46.8101V45.2549H11.5741V46.8101H10.1979Z" fill="black"/>
<path d="M11.4202 46.8101V45.2549H12.7963V46.8101H11.4202Z" fill="black"/>
<path d="M12.6222 46.8101V45.2549H14.1517V46.8101H12.6222Z" fill="black"/>
<path d="M13.901 46.8101V45.2549H14.9712V46.8101H13.901Z" fill="black"/>
<path d="M14.6446 46.8101V45.2549H15.7148V46.8101H14.6446Z" fill="black"/>
<path d="M15.6947 46.8101V45.2549H16.9176V46.8101H15.6947Z" fill="black"/>
<path d="M16.8968 46.8101V45.2549H18.2729V46.8101H16.8968Z" fill="black"/>
<path d="M18.0989 46.8101V45.2549H19.6283V46.8101H18.0989Z" fill="black"/>
<path d="M19.3776 46.8101V45.2549H20.4479V46.8101H19.3776Z" fill="black"/>
<path d="M20.2745 46.8101V45.2549H20.8862V46.8101H20.2745Z" fill="black"/>
<path d="M6 49.8101V48.2549H7.37615V49.8101H6Z" fill="black"/>
<path d="M7.27872 49.8101V48.2549H8.50159V49.8101H7.27872Z" fill="black"/>
<path d="M8.32753 49.8101V48.2549H10.3161V49.8101H8.32753Z" fill="black"/>
<path d="M10.218 49.8101V48.2549H12.2066V49.8101H10.218Z" fill="black"/>
<path d="M12.1085 49.8101V48.2549H13.6379V49.8101H12.1085Z" fill="black"/>
<path d="M13.6172 49.8101V48.2549H14.9933V49.8101H13.6172Z" fill="black"/>
<path d="M14.8192 49.8101V48.2549H15.8895V49.8101H14.8192Z" fill="black"/>
<path d="M15.7161 49.8101V48.2549H16.7864V49.8101H15.7161Z" fill="black"/>
<path d="M16.613 49.8101V48.2549H17.9891V49.8101H16.613Z" fill="black"/>
<path d="M17.7384 49.8101V48.2549H18.5028V49.8101H17.7384Z" fill="black"/>
<path d="M18.2521 49.8101V48.2549H18.8639V49.8101H18.2521Z" fill="black"/>
<path d="M18.8424 49.8101V48.2549H20.9836V49.8101H18.8424Z" fill="black"/>
<path d="M20.7705 49.8101V48.2549H22.3V49.8101H20.7705Z" fill="black"/>
<path d="M21.9726 49.8101V48.2549H22.5844V49.8101H21.9726Z" fill="black"/>
<path d="M22.4097 49.8101V48.2549H23.7858V49.8101H22.4097Z" fill="black"/>
<path d="M23.5741 49.8101V48.2549H25.1035V49.8101H23.5741Z" fill="black"/>
<path d="M24.7762 49.8101V48.2549H26.3056V49.8101H24.7762Z" fill="black"/>
<path d="M25.9783 49.8101V48.2549H27.5077V49.8101H25.9783Z" fill="black"/>
<path d="M27.296 49.8101V48.2549H27.9078V49.8101H27.296Z" fill="black"/>
<path d="M6 52.8101V51.2549H7.37615V52.8101H6Z" fill="black"/>
<path d="M7.12544 52.8101V51.2549H8.50159V52.8101H7.12544Z" fill="black"/>
<path d="M8.19442 52.8101V51.2549H9.72384V52.8101H8.19442Z" fill="black"/>
<path d="M9.3965 52.8101V51.2549H10.9259V52.8101H9.3965Z" fill="black"/>
<path d="M10.6752 52.8101V51.2549H11.7455V52.8101H10.6752Z" fill="black"/>
<path d="M11.7254 52.8101V51.2549H13.1015V52.8101H11.7254Z" fill="black"/>
<path d="M12.7742 52.8101V51.2549H13.8444V52.8101H12.7742Z" fill="black"/>
<path d="M13.671 52.8101V51.2549H15.2005V52.8101H13.671Z" fill="black"/>
<path d="M14.8731 52.8101V51.2549H15.4849V52.8101H14.8731Z" fill="black"/>
<path d="M15.3102 52.8101V51.2549H16.8396V52.8101H15.3102Z" fill="black"/>
<path d="M16.7422 52.8101V51.2549H18.1183V52.8101H16.7422Z" fill="black"/>
<path d="M17.9442 52.8101V51.2549H19.4737V52.8101H17.9442Z" fill="black"/>
<path d="M19.223 52.8101V51.2549H19.8347V52.8101H19.223Z" fill="black"/>
<path d="M19.66 52.8101V51.2549H21.1894V52.8101H19.66Z" fill="black"/>
<path d="M20.9387 52.8101V51.2549H22.4682V52.8101H20.9387Z" fill="black"/>
<path d="M22.2941 52.8101V51.2549H23.3643V52.8101H22.2941Z" fill="black"/>
<path d="M23.0377 52.8101V51.2549H24.5671V52.8101H23.0377Z" fill="black"/>
<path d="M24.393 52.8101V51.2549H25.9225V52.8101H24.393Z" fill="black"/>
<path d="M25.7484 52.8101V51.2549H27.1245V52.8101H25.7484Z" fill="black"/>
<path d="M26.9505 52.8101V51.2549H28.0207V52.8101H26.9505Z" fill="black"/>
<path d="M27.6941 52.8101V51.2549H28.7643V52.8101H27.6941Z" fill="black"/>
<path d="M28.5909 52.8101V51.2549H29.9671V52.8101H28.5909Z" fill="black"/>
<path d="M29.7164 52.8101V51.2549H30.3282V52.8101H29.7164Z" fill="black"/>
<path d="M6.15328 55.8101V54.2549H7.52943V55.8101H6.15328Z" fill="black"/>
<path d="M7.35536 55.8101V54.2549H8.88479V55.8101H7.35536Z" fill="black"/>
<path d="M8.55745 55.8101V54.2549H10.0869V55.8101H8.55745Z" fill="black"/>
<path d="M10.0661 55.8101V54.2549H11.289V55.8101H10.0661Z" fill="black"/>
<path d="M11.1149 55.8101V54.2549H12.1852V55.8101H11.1149Z" fill="black"/>
<path d="M11.8585 55.8101V54.2549H12.9287V55.8101H11.8585Z" fill="black"/>
<path d="M12.7554 55.8101V54.2549H14.2848V55.8101H12.7554Z" fill="black"/>
<path d="M14.0341 55.8101V54.2549H15.1043V55.8101H14.0341Z" fill="black"/>
<path d="M14.7777 55.8101V54.2549H15.8479V55.8101H14.7777Z" fill="black"/>
<path d="M15.8278 55.8101V54.2549H17.0507V55.8101H15.8278Z" fill="black"/>
<path d="M17.0299 55.8101V54.2549H18.406V55.8101H17.0299Z" fill="black"/>
<path d="M18.232 55.8101V54.2549H19.6081V55.8101H18.232Z" fill="black"/>
<path d="M19.3964 55.8101V54.2549H20.0082V55.8101H19.3964Z" fill="black"/>
<path d="M19.8334 55.8101V54.2549H20.9037V55.8101H19.8334Z" fill="black"/>
<path d="M20.7303 55.8101V54.2549H21.9532V55.8101H20.7303Z" fill="black"/>
<path d="M21.7791 55.8101V54.2549H22.3909V55.8101H21.7791Z" fill="black"/>
<path d="M22.3694 55.8101V54.2549H23.7456V55.8101H22.3694Z" fill="black"/>
<path d="M23.4182 55.8101V54.2549H24.7944V55.8101H23.4182Z" fill="black"/>
<path d="M24.4872 55.8101V54.2549H25.5575V55.8101H24.4872Z" fill="black"/>
<path d="M25.5374 55.8101V54.2549H26.9135V55.8101H25.5374Z" fill="black"/>
<path d="M26.7394 55.8101V54.2549H28.2689V55.8101H26.7394Z" fill="black"/>
<path d="M28.0948 55.8101V54.2549H28.7066V55.8101H28.0948Z" fill="black"/>
<path d="M28.5318 55.8101V54.2549H29.6021V55.8101H28.5318Z" fill="black"/>
<path d="M29.2754 55.8101V54.2549H30.8049V55.8101H29.2754Z" fill="black"/>
<path d="M30.6308 55.8101V54.2549H32.1602V55.8101H30.6308Z" fill="black"/>
<path d="M31.8329 55.8101V54.2549H32.4446V55.8101H31.8329Z" fill="black"/>
<path d="M6 58.8101V57.2549H7.68271V58.8101H6Z" fill="black"/>
<path d="M7.52746 58.8101V57.2549H9.05689V58.8101H7.52746Z" fill="black"/>
<path d="M8.74837 58.8101V57.2549H10.4311V58.8101H8.74837Z" fill="black"/>
<path d="M10.257 58.8101V57.2549H11.9397V58.8101H10.257Z" fill="black"/>
<path d="M11.689 58.8101V57.2549H12.3008V58.8101H11.689Z" fill="black"/>
<path d="M12.126 58.8101V57.2549H13.1963V58.8101H12.126Z" fill="black"/>
<path d="M13.1762 58.8101V57.2549H14.5523V58.8101H13.1762Z" fill="black"/>
<path d="M14.3783 58.8101V57.2549H15.4485V58.8101H14.3783Z" fill="black"/>
<path d="M15.2751 58.8101V57.2549H16.498V58.8101H15.2751Z" fill="black"/>
<path d="M16.324 58.8101V57.2549H16.9357V58.8101H16.324Z" fill="black"/>
<path d="M16.761 58.8101V57.2549H18.1371V58.8101H16.761Z" fill="black"/>
<path d="M18.0397 58.8101V57.2549H19.2626V58.8101H18.0397Z" fill="black"/>
<path d="M19.0885 58.8101V57.2549H21.0771V58.8101H19.0885Z" fill="black"/>
<path d="M21.1323 58.8101V57.2549H22.5084V58.8101H21.1323Z" fill="black"/>
<path d="M22.2577 58.8101V57.2549H23.328V58.8101H22.2577Z" fill="black"/>
<path d="M23.1546 58.8101V57.2549H24.2249V58.8101H23.1546Z" fill="black"/>
<path d="M24.0515 58.8101V57.2549H25.5809V58.8101H24.0515Z" fill="black"/>
<path d="M25.4835 58.8101V57.2549H26.8596V58.8101H25.4835Z" fill="black"/>
<path d="M26.6856 58.8101V57.2549H28.0617V58.8101H26.6856Z" fill="black"/>
<path d="M27.811 58.8101V57.2549H29.3404V58.8101H27.811Z" fill="black"/>
<path d="M29.0131 58.8101V57.2549H29.6249V58.8101H29.0131Z" fill="black"/>
<path d="M6 61.8101V60.2549H8.1412V61.8101H6Z" fill="black"/>
<path d="M7.89049 61.8101V60.2549H8.96076V61.8101H7.89049Z" fill="black"/>
<path d="M8.78736 61.8101V60.2549H9.85763V61.8101H8.78736Z" fill="black"/>
<path d="M9.53095 61.8101V60.2549H11.0604V61.8101H9.53095Z" fill="black"/>
<path d="M10.8863 61.8101V60.2549H11.4981V61.8101H10.8863Z" fill="black"/>
<path d="M11.3233 61.8101V60.2549H12.3936V61.8101H11.3233Z" fill="black"/>
<path d="M12.2202 61.8101V60.2549H13.2905V61.8101H12.2202Z" fill="black"/>
<path d="M12.9638 61.8101V60.2549H14.34V61.8101H12.9638Z" fill="black"/>
<path d="M14.1282 61.8101V60.2549H14.74V61.8101H14.1282Z" fill="black"/>
<path d="M6 64.8101V63.2549H7.52943V64.8101H6Z" fill="black"/>
<path d="M7.27872 64.8101V63.2549H8.80815V64.8101H7.27872Z" fill="black"/>
<path d="M8.63408 64.8101V63.2549H10.0102V64.8101H8.63408Z" fill="black"/>
<path d="M9.83617 64.8101V63.2549H11.3656V64.8101H9.83617Z" fill="black"/>
<path d="M11.1915 64.8101V63.2549H12.5677V64.8101H11.1915Z" fill="black"/>
<path d="M12.317 64.8101V63.2549H13.3872V64.8101H12.317Z" fill="black"/>
<path d="M13.2138 64.8101V63.2549H14.7433V64.8101H13.2138Z" fill="black"/>
<path d="M14.4159 64.8101V63.2549H15.9454V64.8101H14.4159Z" fill="black"/>
<path d="M15.6946 64.8101V63.2549H17.0708V64.8101H15.6946Z" fill="black"/>
<path d="M16.7636 64.8101V63.2549H17.8339V64.8101H16.7636Z" fill="black"/>
<path d="M17.8138 64.8101V63.2549H19.0366V64.8101H17.8138Z" fill="black"/>
<path d="M18.7671 64.8101V63.2549H20.2965V64.8101H18.7671Z" fill="black"/>
<path d="M20.0458 64.8101V63.2549H21.1161V64.8101H20.0458Z" fill="black"/>
<path d="M20.7894 64.8101V63.2549H21.8597V64.8101H20.7894Z" fill="black"/>
<path d="M21.8396 64.8101V63.2549H23.0624V64.8101H21.8396Z" fill="black"/>
<path d="M23.0417 64.8101V63.2549H24.4178V64.8101H23.0417Z" fill="black"/>
<path d="M24.2437 64.8101V63.2549H24.8555V64.8101H24.2437Z" fill="black"/>
<path d="M6.15328 67.8101V66.2549H7.37615V67.8101H6.15328Z" fill="black"/>
<path d="M7.35536 67.8101V66.2549H8.73151V67.8101H7.35536Z" fill="black"/>
<path d="M8.40417 67.8101V66.2549H9.47443V67.8101H8.40417Z" fill="black"/>
<path d="M9.30104 67.8101V66.2549H10.3713V67.8101H9.30104Z" fill="black"/>
<path d="M10.1979 67.8101V66.2549H11.7273V67.8101H10.1979Z" fill="black"/>
<path d="M11.5533 67.8101V66.2549H13.0827V67.8101H11.5533Z" fill="black"/>
<path d="M12.832 67.8101V66.2549H13.9023V67.8101H12.832Z" fill="black"/>
<path d="M13.5756 67.8101V66.2549H14.6458V67.8101H13.5756Z" fill="black"/>
<path d="M14.6257 67.8101V66.2549H15.8486V67.8101H14.6257Z" fill="black"/>
<path d="M15.8278 67.8101V66.2549H17.204V67.8101H15.8278Z" fill="black"/>
<path d="M17.0299 67.8101V66.2549H18.406V67.8101H17.0299Z" fill="black"/>
<path d="M18.1943 67.8101V66.2549H18.9587V67.8101H18.1943Z" fill="black"/>
<path d="M18.708 67.8101V66.2549H19.3198V67.8101H18.708Z" fill="black"/>
<path d="M19.2983 67.8101V66.2549H21.4395V67.8101H19.2983Z" fill="black"/>
<path d="M21.2265 67.8101V66.2549H22.7559V67.8101H21.2265Z" fill="black"/>
<path d="M22.4285 67.8101V66.2549H23.0403V67.8101H22.4285Z" fill="black"/>
<path d="M22.8656 67.8101V66.2549H24.395V67.8101H22.8656Z" fill="black"/>
<path d="M24.2209 67.8101V66.2549H25.7504V67.8101H24.2209Z" fill="black"/>
<path d="M25.423 67.8101V66.2549H26.7992V67.8101H25.423Z" fill="black"/>
<path d="M26.7017 67.8101V66.2549H28.2312V67.8101H26.7017Z" fill="black"/>
<path d="M27.9038 67.8101V66.2549H28.5156V67.8101H27.9038Z" fill="black"/>
<path d="M6 70.8101V69.2549H7.98859V70.8101H6Z" fill="black"/>
<path d="M7.89049 70.8101V69.2549H9.41992V70.8101H7.89049Z" fill="black"/>
<path d="M9.16922 70.8101V69.2549H10.6986V70.8101H9.16922Z" fill="black"/>
<path d="M10.4479 70.8101V69.2549H11.9774V70.8101H10.4479Z" fill="black"/>
<path d="M11.65 70.8101V69.2549H12.2618V70.8101H11.65Z" fill="black"/>
<path d="M12.0871 70.8101V69.2549H13.4632V70.8101H12.0871Z" fill="black"/>
<path d="M13.2125 70.8101V69.2549H14.2828V70.8101H13.2125Z" fill="black"/>
<path d="M14.1094 70.8101V69.2549H15.6388V70.8101H14.1094Z" fill="black"/>
<path d="M15.3115 70.8101V69.2549H16.8409V70.8101H15.3115Z" fill="black"/>
<path d="M16.5902 70.8101V69.2549H17.9663V70.8101H16.5902Z" fill="black"/>
<path d="M17.6591 70.8101V69.2549H18.2709V70.8101H17.6591Z" fill="black"/>
<path d="M18.0962 70.8101V69.2549H19.1664V70.8101H18.0962Z" fill="black"/>
<path d="M18.993 70.8101V69.2549H20.2159V70.8101H18.993Z" fill="black"/>
<path d="M20.0419 70.8101V69.2549H20.6536V70.8101H20.0419Z" fill="black"/>
<path d="M20.4789 70.8101V69.2549H21.5492V70.8101H20.4789Z" fill="black"/>
<path d="M21.2225 70.8101V69.2549H22.7519V70.8101H21.2225Z" fill="black"/>
<path d="M22.5778 70.8101V69.2549H24.1073V70.8101H22.5778Z" fill="black"/>
<path d="M23.7799 70.8101V69.2549H24.3917V70.8101H23.7799Z" fill="black"/>
<path d="M24.217 70.8101V69.2549H25.8997V70.8101H24.217Z" fill="black"/>
<path d="M25.7444 70.8101V69.2549H27.2738V70.8101H25.7444Z" fill="black"/>
<path d="M26.9653 70.8101V69.2549H28.648V70.8101H26.9653Z" fill="black"/>
<path d="M28.474 70.8101V69.2549H30.1567V70.8101H28.474Z" fill="black"/>
<path d="M29.906 70.8101V69.2549H30.5177V70.8101H29.906Z" fill="black"/>
<path d="M6 73.8101V72.2549H7.07026V73.8101H6Z" fill="black"/>
<path d="M6.74359 73.8101V72.2549H8.27302V73.8101H6.74359Z" fill="black"/>
<path d="M8.09895 73.8101V72.2549H9.62838V73.8101H8.09895Z" fill="black"/>
<path d="M9.37768 73.8101V72.2549H10.4479V73.8101H9.37768Z" fill="black"/>
<path d="M10.1213 73.8101V72.2549H10.733V73.8101H10.1213Z" fill="black"/>
<path d="M10.5583 73.8101V72.2549H11.6286V73.8101H10.5583Z" fill="black"/>
<path d="M11.3019 73.8101V72.2549H12.8313V73.8101H11.3019Z" fill="black"/>
<path d="M12.6573 73.8101V72.2549H14.1867V73.8101H12.6573Z" fill="black"/>
<path d="M13.8593 73.8101V72.2549H14.4711V73.8101H13.8593Z" fill="black"/>
<path d="M14.2964 73.8101V72.2549H15.8258V73.8101H14.2964Z" fill="black"/>
<path d="M15.7284 73.8101V72.2549H16.9512V73.8101H15.7284Z" fill="black"/>
<path d="M16.9305 73.8101V72.2549H18.1533V73.8101H16.9305Z" fill="black"/>
<path d="M17.9793 73.8101V72.2549H19.3554V73.8101H17.9793Z" fill="black"/>
<path d="M19.0482 73.8101V72.2549H19.66V73.8101H19.0482Z" fill="black"/>
<path d="M19.4853 73.8101V72.2549H20.5555V73.8101H19.4853Z" fill="black"/>
<path d="M20.3821 73.8101V72.2549H21.7583V73.8101H20.3821Z" fill="black"/>
<path d="M21.5466 73.8101V72.2549H22.1583V73.8101H21.5466Z" fill="black"/>
<path d="M22.1369 73.8101V72.2549H23.3598V73.8101H22.1369Z" fill="black"/>
<path d="M23.339 73.8101V72.2549H24.7151V73.8101H23.339Z" fill="black"/>
<path d="M24.4644 73.8101V72.2549H25.9938V73.8101H24.4644Z" fill="black"/>
<path d="M25.8198 73.8101V72.2549H27.1959V73.8101H25.8198Z" fill="black"/>
<path d="M27.0219 73.8101V72.2549H27.6336V73.8101H27.0219Z" fill="black"/>
<path d="M27.4589 73.8101V72.2549H28.5292V73.8101H27.4589Z" fill="black"/>
<path d="M28.3558 73.8101V72.2549H29.5786V73.8101H28.3558Z" fill="black"/>
<path d="M29.4046 73.8101V72.2549H30.0163V73.8101H29.4046Z" fill="black"/>
<path d="M6 76.8101V75.2549H7.98859V76.8101H6Z" fill="black"/>
<path d="M7.89049 76.8101V75.2549H9.41992V76.8101H7.89049Z" fill="black"/>
<path d="M9.09258 76.8101V75.2549H10.622V76.8101H9.09258Z" fill="black"/>
<path d="M10.5246 76.8101V75.2549H11.9007V76.8101H10.5246Z" fill="black"/>
<path d="M11.7267 76.8101V75.2549H12.7969V76.8101H11.7267Z" fill="black"/>
<path d="M12.7768 76.8101V75.2549H14.153V76.8101H12.7768Z" fill="black"/>
<path d="M13.9789 76.8101V75.2549H15.5083V76.8101H13.9789Z" fill="black"/>
<path d="M15.3343 76.8101V75.2549H16.5578V76.8101H15.3343Z" fill="black"/>
<path d="M16.2311 76.8101V75.2549H17.7606V76.8101H16.2311Z" fill="black"/>
<path d="M17.5865 76.8101V75.2549H18.6568V76.8101H17.5865Z" fill="black"/>
<path d="M18.4834 76.8101V75.2549H19.0951V76.8101H18.4834Z" fill="black"/>
<path d="M6 79.8101V78.2549H7.52943V79.8101H6Z" fill="black"/>
<path d="M7.35536 79.8101V78.2549H8.73151V79.8101H7.35536Z" fill="black"/>
<path d="M8.55745 79.8101V78.2549H10.0869V79.8101H8.55745Z" fill="black"/>
<path d="M9.91281 79.8101V78.2549H11.4422V79.8101H9.91281Z" fill="black"/>
<path d="M11.1915 79.8101V78.2549H12.721V79.8101H11.1915Z" fill="black"/>
<path d="M12.5469 79.8101V78.2549H14.0763V79.8101H12.5469Z" fill="black"/>
<path d="M13.749 79.8101V78.2549H15.7376V79.8101H13.749Z" fill="black"/>
<path d="M15.6395 79.8101V78.2549H17.1689V79.8101H15.6395Z" fill="black"/>
<path d="M16.9948 79.8101V78.2549H18.371V79.8101H16.9948Z" fill="black"/>
<path d="M18.1969 79.8101V78.2549H19.2672V79.8101H18.1969Z" fill="black"/>
<path d="M18.9405 79.8101V78.2549H19.7049V79.8101H18.9405Z" fill="black"/>
<path d="M19.4542 79.8101V78.2549H20.2186V79.8101H19.4542Z" fill="black"/>
<path d="M6.30589 7.70547H29.1987V7.7752H6.30589V7.70547ZM6.30589 10.7055H14.4906V10.7752H6.30589V10.7055ZM14.4906 10.9851H15.1239V11.0551H14.4906V10.9851ZM15.1239 10.7055H32.6941V10.7752H15.1239V10.7055ZM6.30589 13.7055H12.0098V13.7752H6.30589V13.7055ZM12.0098 13.9851H12.6431V14.0551H12.0098V13.9851ZM12.6431 13.7055H27.9085V13.7752H12.6431V13.7055ZM6.30589 16.7055H26.2661V16.7752H6.30589V16.7055ZM6.30589 19.7055H31.6446V19.7752H6.30589V19.7055ZM6.30589 22.7055H21.4342V22.7752H6.30589V22.7055ZM6.30589 25.7055H21.1141V25.7752H6.30589V25.7055ZM6.30589 28.7055H32.1785V28.7752H6.30589V28.7055ZM6.30589 31.7055H24.5496V31.7752H6.30589V31.7055ZM6.30589 34.7055H24.7607V34.7752H6.30589V34.7055ZM6.30589 37.7055H31.6459V37.7752H6.30589V37.7055ZM6.30589 40.7055H31.9316V40.7752H6.30589V40.7055ZM6.30589 43.7055H20.3101V43.7752H6.30589V43.7055ZM6.30589 46.7055H20.5797V46.7752H6.30589V46.7055ZM6.30589 49.7055H27.6012V49.7752H6.30589V49.7055ZM6.30589 52.7055H30.0223V52.7752H6.30589V52.7055ZM6.30589 55.7055H32.1388V55.7752H6.30589V55.7055ZM6.30589 58.7055H29.319V58.7752H6.30589V58.7055ZM6.30589 61.7055H14.4335V61.7752H6.30589V61.7055ZM6.30589 64.7055H24.5496V64.7752H6.30589V64.7055ZM6.30589 67.7055H28.2097V67.7752H6.30589V67.7055ZM6.30589 70.7055H30.2112V70.7752H6.30589V70.7055ZM6.30589 73.7055H29.7104V73.7752H6.30589V73.7055ZM6.30589 76.7055H18.7886V76.7752H6.30589V76.7055ZM6.30589 79.7055H20.4054V79.7752H6.30589V79.7055Z" fill="black"/>
</g>
</g>
<path d="M11.3333 38.2549H2V44.603H11.3333V38.2549Z" fill="#7FA4CA"/>
</g>
<defs>
<filter id="filter0_d_238_44112" x="0" y="1.25488" width="39" height="35" filterUnits="userSpaceOnUse" color-interpolation-filters="sRGB">
<feFlood flood-opacity="0" result="BackgroundImageFix"/>
<feColorMatrix in="SourceAlpha" type="matrix" values="0 0 0 0 0 0 0 0 0 0 0 0 0 0 0 0 0 0 127 0" result="hardAlpha"/>
<feOffset dy="1"/>
<feGaussianBlur stdDeviation="1"/>
<feComposite in2="hardAlpha" operator="out"/>
<feColorMatrix type="matrix" values="0 0 0 0 0 0 0 0 0 0 0 0 0 0 0 0 0 0 0.1 0"/>
<feBlend mode="normal" in2="BackgroundImageFix" result="effect1_dropShadow_238_44112"/>
<feBlend mode="normal" in="SourceGraphic" in2="effect1_dropShadow_238_44112" result="shape"/>
</filter>
<filter id="filter1_i_238_44112" x="2" y="-2.74512" width="35" height="34" filterUnits="userSpaceOnUse" color-interpolation-filters="sRGB">
<feFlood flood-opacity="0" result="BackgroundImageFix"/>
<feBlend mode="normal" in="SourceGraphic" in2="BackgroundImageFix" result="shape"/>
<feColorMatrix in="SourceAlpha" type="matrix" values="0 0 0 0 0 0 0 0 0 0 0 0 0 0 0 0 0 0 127 0" result="hardAlpha"/>
<feOffset dy="-5"/>
<feGaussianBlur stdDeviation="3.5"/>
<feComposite in2="hardAlpha" operator="arithmetic" k2="-1" k3="1"/>
<feColorMatrix type="matrix" values="0 0 0 0 1 0 0 0 0 1 0 0 0 0 1 0 0 0 1 0"/>
<feBlend mode="normal" in2="shape" result="effect1_innerShadow_238_44112"/>
</filter>
<clipPath id="clip0_238_44112">
<rect width="39" height="46.3481" fill="white" transform="translate(0 0.254883)"/>
</clipPath>
<clipPath id="clip1_238_44112">
<rect width="35" height="31" fill="white" transform="translate(2 2.25488)"/>
</clipPath>
<clipPath id="clip2_238_44112">
<rect width="35" height="29" fill="white" transform="translate(2 2.25488)"/>
</clipPath>
</defs>
</svg>
