<svg width="41" height="48" viewBox="0 0 41 48" fill="none" xmlns="http://www.w3.org/2000/svg">
<g clip-path="url(#clip0_238_44145)">
<rect width="35" height="31" transform="translate(3 2.96484)" fill="white"/>
<g opacity="0.3" clip-path="url(#clip1_238_44145)" filter="url(#filter0_i_238_44145)">
<rect width="35" height="29" transform="translate(3 2.96484)" fill="white"/>
<path d="M7 8.52002V6.96484H7.76457V8.52002H7Z" fill="black"/>
<path d="M7.59046 8.52002V6.96484H8.20238V8.52002H7.59046Z" fill="black"/>
<path d="M8.18092 8.52002V6.96484H10.3226V8.52002H8.18092Z" fill="black"/>
<path d="M10.1095 8.52002V6.96484H10.8741V8.52002H10.1095Z" fill="black"/>
<path d="M10.7 8.52002V6.96484H12.2298V8.52002H10.7Z" fill="black"/>
<path d="M11.9024 8.52002V6.96484H12.6669V8.52002H11.9024Z" fill="black"/>
<path d="M12.4928 8.52002V6.96484H13.8693V8.52002H12.4928Z" fill="black"/>
<path d="M13.5621 8.52002V6.96484H15.0919V8.52002H13.5621Z" fill="black"/>
<path d="M14.7644 8.52002V6.96484H15.3764V8.52002H14.7644Z" fill="black"/>
<path d="M15.2016 8.52002V6.96484H16.2721V8.52002H15.2016Z" fill="black"/>
<path d="M16.252 8.52002V6.96484H17.6285V8.52002H16.252Z" fill="black"/>
<path d="M17.4544 8.52002V6.96484H18.5249V8.52002H17.4544Z" fill="black"/>
<path d="M18.1982 8.52002V6.96484H19.728V8.52002H18.1982Z" fill="black"/>
<path d="M19.4005 8.52002V6.96484H20.777V8.52002H19.4005Z" fill="black"/>
<path d="M20.4698 8.52002V6.96484H21.9996V8.52002H20.4698Z" fill="black"/>
<path d="M21.6721 8.52002V6.96484H23.0486V8.52002H21.6721Z" fill="black"/>
<path d="M22.8369 8.52002V6.96484H23.9074V8.52002H22.8369Z" fill="black"/>
<path d="M23.5806 8.52002V6.96484H25.1105V8.52002H23.5806Z" fill="black"/>
<path d="M24.783 8.52002V6.96484H26.3128V8.52002H24.783Z" fill="black"/>
<path d="M26.0621 8.52002V6.96484H26.674V8.52002H26.0621Z" fill="black"/>
<path d="M26.4992 8.52002V6.96484H27.5697V8.52002H26.4992Z" fill="black"/>
<path d="M27.5496 8.52002V6.96484H28.9261V8.52002H27.5496Z" fill="black"/>
<path d="M28.752 8.52002V6.96484H29.3639V8.52002H28.752Z" fill="black"/>
<path d="M7 11.52V9.96484H8.37649V11.52H7Z" fill="black"/>
<path d="M8.16472 11.52V9.96484H9.69453V11.52H8.16472Z" fill="black"/>
<path d="M9.3671 11.52V9.96484H10.8969V11.52H9.3671Z" fill="black"/>
<path d="M10.5695 11.52V9.96484H11.64V11.52H10.5695Z" fill="black"/>
<path d="M11.6199 11.52V9.96484H12.9964V11.52H11.6199Z" fill="black"/>
<path d="M12.8223 11.52V9.96484H14.3521V11.52H12.8223Z" fill="black"/>
<path d="M14.178 11.52V9.96484H14.7899V11.52H14.178Z" fill="black"/>
<path d="M14.6151 11.52V9.96484H15.9916V11.52H14.6151Z" fill="black"/>
<path d="M15.6843 11.52V9.96484H17.2142V11.52H15.6843Z" fill="black"/>
<path d="M16.8867 11.52V9.96484H17.9573V11.52H16.8867Z" fill="black"/>
<path d="M17.7838 11.52V9.96484H18.8543V11.52H17.7838Z" fill="black"/>
<path d="M18.6809 11.52V9.96484H20.2107V11.52H18.6809Z" fill="black"/>
<path d="M19.8833 11.52V9.96484H21.1071V11.52H19.8833Z" fill="black"/>
<path d="M20.7804 11.52V9.96484H21.3923V11.52H20.7804Z" fill="black"/>
<path d="M21.2175 11.52V9.96484H22.4414V11.52H21.2175Z" fill="black"/>
<path d="M22.1146 11.52V9.96484H23.4911V11.52H22.1146Z" fill="black"/>
<path d="M23.3372 11.52V9.96484H24.5603V11.52H23.3372Z" fill="black"/>
<path d="M24.3862 11.52V9.96484H26.3753V11.52H24.3862Z" fill="black"/>
<path d="M26.2772 11.52V9.96484H26.8891V11.52H26.2772Z" fill="black"/>
<path d="M7 14.52V12.9648H8.37649V14.52H7Z" fill="black"/>
<path d="M8.16472 14.52V12.9648H9.69453V14.52H8.16472Z" fill="black"/>
<path d="M9.59708 14.52V12.9648H10.9736V14.52H9.59708Z" fill="black"/>
<path d="M10.7995 14.52V12.9648H12.1759V14.52H10.7995Z" fill="black"/>
<path d="M11.9252 14.52V12.9648H12.9957V14.52H11.9252Z" fill="black"/>
<path d="M12.669 14.52V12.9648H13.7395V14.52H12.669Z" fill="black"/>
<path d="M13.7194 14.52V12.9648H14.9425V14.52H13.7194Z" fill="black"/>
<path d="M14.9217 14.52V12.9648H16.2982V14.52H14.9217Z" fill="black"/>
<path d="M16.1241 14.52V12.9648H17.5006V14.52H16.1241Z" fill="black"/>
<path d="M17.2888 14.52V12.9648H17.9008V14.52H17.2888Z" fill="black"/>
<path d="M17.726 14.52V12.9648H19.2558V14.52H17.726Z" fill="black"/>
<path d="M19.1583 14.52V12.9648H20.5348V14.52H19.1583Z" fill="black"/>
<path d="M20.3607 14.52V12.9648H21.8905V14.52H20.3607Z" fill="black"/>
<path d="M21.6398 14.52V12.9648H22.2517V14.52H21.6398Z" fill="black"/>
<path d="M22.0769 14.52V12.9648H23.1474V14.52H22.0769Z" fill="black"/>
<path d="M22.974 14.52V12.9648H24.9631V14.52H22.974Z" fill="black"/>
<path d="M25.0183 14.52V12.9648H26.3948V14.52H25.0183Z" fill="black"/>
<path d="M26.144 14.52V12.9648H27.5205V14.52H26.144Z" fill="black"/>
<path d="M27.3665 14.52V12.9648H28.5897V14.52H27.3665Z" fill="black"/>
<path d="M28.4156 14.52V12.9648H29.7921V14.52H28.4156Z" fill="black"/>
<path d="M29.6946 14.52V12.9648H31.2245V14.52H29.6946Z" fill="black"/>
<path d="M30.897 14.52V12.9648H32.4268V14.52H30.897Z" fill="black"/>
<path d="M32.1761 14.52V12.9648H32.788V14.52H32.1761Z" fill="black"/>
<path d="M7 17.52V15.9648H8.37649V17.52H7Z" fill="black"/>
<path d="M8.06924 17.52V15.9648H9.59904V17.52H8.06924Z" fill="black"/>
<path d="M9.27162 17.52V15.9648H10.3421V17.52H9.27162Z" fill="black"/>
<path d="M10.1687 17.52V15.9648H11.6985V17.52H10.1687Z" fill="black"/>
<path d="M11.4477 17.52V15.9648H12.5183V17.52H11.4477Z" fill="black"/>
<path d="M12.1915 17.52V15.9648H13.262V17.52H12.1915Z" fill="black"/>
<path d="M13.2419 17.52V15.9648H14.4651V17.52H13.2419Z" fill="black"/>
<path d="M14.4443 17.52V15.9648H15.8208V17.52H14.4443Z" fill="black"/>
<path d="M15.6467 17.52V15.9648H17.0232V17.52H15.6467Z" fill="black"/>
<path d="M16.8114 17.52V15.9648H17.576V17.52H16.8114Z" fill="black"/>
<path d="M17.3252 17.52V15.9648H17.9371V17.52H17.3252Z" fill="black"/>
<path d="M17.7624 17.52V15.9648H19.2922V17.52H17.7624Z" fill="black"/>
<path d="M19.1947 17.52V15.9648H20.5712V17.52H19.1947Z" fill="black"/>
<path d="M20.3971 17.52V15.9648H21.9269V17.52H20.3971Z" fill="black"/>
<path d="M21.6761 17.52V15.9648H22.2881V17.52H21.6761Z" fill="black"/>
<path d="M22.1133 17.52V15.9648H24.255V17.52H22.1133Z" fill="black"/>
<path d="M24.0042 17.52V15.9648H25.534V17.52H24.0042Z" fill="black"/>
<path d="M25.2066 17.52V15.9648H25.8185V17.52H25.2066Z" fill="black"/>
<path d="M25.6437 17.52V15.9648H27.1736V17.52H25.6437Z" fill="black"/>
<path d="M26.9228 17.52V15.9648H28.2993V17.52H26.9228Z" fill="black"/>
<path d="M27.992 17.52V15.9648H29.5218V17.52H27.992Z" fill="black"/>
<path d="M29.1944 17.52V15.9648H29.8063V17.52H29.1944Z" fill="black"/>
<path d="M7.15332 20.52V18.9648H8.52981V20.52H7.15332Z" fill="black"/>
<path d="M8.27904 20.52V18.9648H9.65553V20.52H8.27904Z" fill="black"/>
<path d="M9.34828 20.52V18.9648H10.8781V20.52H9.34828Z" fill="black"/>
<path d="M10.704 20.52V18.9648H12.0805V20.52H10.704Z" fill="black"/>
<path d="M11.8297 20.52V18.9648H13.3595V20.52H11.8297Z" fill="black"/>
<path d="M13.1087 20.52V18.9648H14.4852V20.52H13.1087Z" fill="black"/>
<path d="M14.178 20.52V18.9648H15.7078V20.52H14.178Z" fill="black"/>
<path d="M15.3803 20.52V18.9648H16.9102V20.52H15.3803Z" fill="black"/>
<path d="M16.6594 20.52V18.9648H17.2713V20.52H16.6594Z" fill="black"/>
<path d="M17.0965 20.52V18.9648H18.1671V20.52H17.0965Z" fill="black"/>
<path d="M17.9936 20.52V18.9648H19.2168V20.52H17.9936Z" fill="black"/>
<path d="M19.0427 20.52V18.9648H19.6546V20.52H19.0427Z" fill="black"/>
<path d="M19.4798 20.52V18.9648H21.0096V20.52H19.4798Z" fill="black"/>
<path d="M20.8355 20.52V18.9648H22.3653V20.52H20.8355Z" fill="black"/>
<path d="M22.0379 20.52V18.9648H23.4144V20.52H22.0379Z" fill="black"/>
<path d="M23.3169 20.52V18.9648H24.8467V20.52H23.3169Z" fill="black"/>
<path d="M24.5193 20.52V18.9648H25.1312V20.52H24.5193Z" fill="black"/>
<path d="M24.9565 20.52V18.9648H26.4863V20.52H24.9565Z" fill="black"/>
<path d="M26.2355 20.52V18.9648H26.8474V20.52H26.2355Z" fill="black"/>
<path d="M7 23.52V21.9648H8.37649V23.52H7Z" fill="black"/>
<path d="M8.16472 23.52V21.9648H9.69453V23.52H8.16472Z" fill="black"/>
<path d="M9.3671 23.52V21.9648H10.7436V23.52H9.3671Z" fill="black"/>
<path d="M10.4363 23.52V21.9648H11.5069V23.52H10.4363Z" fill="black"/>
<path d="M11.4867 23.52V21.9648H12.7099V23.52H11.4867Z" fill="black"/>
<path d="M12.5358 23.52V21.9648H14.0656V23.52H12.5358Z" fill="black"/>
<path d="M13.8915 23.52V21.9648H15.268V23.52H13.8915Z" fill="black"/>
<path d="M15.0562 23.52V21.9648H15.6682V23.52H15.0562Z" fill="black"/>
<path d="M15.4934 23.52V21.9648H16.8699V23.52H15.4934Z" fill="black"/>
<path d="M16.7724 23.52V21.9648H17.9956V23.52H16.7724Z" fill="black"/>
<path d="M17.9748 23.52V21.9648H19.3513V23.52H17.9748Z" fill="black"/>
<path d="M19.1005 23.52V21.9648H20.477V23.52H19.1005Z" fill="black"/>
<path d="M20.3796 23.52V21.9648H21.9094V23.52H20.3796Z" fill="black"/>
<path d="M21.5819 23.52V21.9648H22.9584V23.52H21.5819Z" fill="black"/>
<path d="M22.6512 23.52V21.9648H24.0277V23.52H22.6512Z" fill="black"/>
<path d="M23.8159 23.52V21.9648H25.3457V23.52H23.8159Z" fill="black"/>
<path d="M25.0949 23.52V21.9648H26.1655V23.52H25.0949Z" fill="black"/>
<path d="M25.8387 23.52V21.9648H26.9092V23.52H25.8387Z" fill="black"/>
<path d="M26.8891 23.52V21.9648H28.1123V23.52H26.8891Z" fill="black"/>
<path d="M28.0915 23.52V21.9648H29.468V23.52H28.0915Z" fill="black"/>
<path d="M29.2939 23.52V21.9648H29.9058V23.52H29.2939Z" fill="black"/>
<path d="M7 26.52V24.9648H8.52981V26.52H7Z" fill="black"/>
<path d="M8.43236 26.52V24.9648H9.80884V26.52H8.43236Z" fill="black"/>
<path d="M9.63474 26.52V24.9648H10.8579V26.52H9.63474Z" fill="black"/>
<path d="M10.6838 26.52V24.9648H12.2136V26.52H10.6838Z" fill="black"/>
<path d="M12.0395 26.52V24.9648H13.11V26.52H12.0395Z" fill="black"/>
<path d="M12.7833 26.52V24.9648H13.3952V26.52H12.7833Z" fill="black"/>
<path d="M13.2204 26.52V24.9648H14.7502V26.52H13.2204Z" fill="black"/>
<path d="M14.4995 26.52V24.9648H16.0293V26.52H14.4995Z" fill="black"/>
<path d="M15.8551 26.52V24.9648H17.2316V26.52H15.8551Z" fill="black"/>
<path d="M17.0575 26.52V24.9648H18.5873V26.52H17.0575Z" fill="black"/>
<path d="M18.4132 26.52V24.9648H19.7897V26.52H18.4132Z" fill="black"/>
<path d="M19.5389 26.52V24.9648H20.6095V26.52H19.5389Z" fill="black"/>
<path d="M20.436 26.52V24.9648H21.9658V26.52H20.436Z" fill="black"/>
<path d="M21.6384 26.52V24.9648H23.1682V26.52H21.6384Z" fill="black"/>
<path d="M22.9175 26.52V24.9648H24.2939V26.52H22.9175Z" fill="black"/>
<path d="M23.9867 26.52V24.9648H25.0572V26.52H23.9867Z" fill="black"/>
<path d="M25.0371 26.52V24.9648H26.2603V26.52H25.0371Z" fill="black"/>
<path d="M25.9907 26.52V24.9648H27.5205V26.52H25.9907Z" fill="black"/>
<path d="M27.2697 26.52V24.9648H28.3402V26.52H27.2697Z" fill="black"/>
<path d="M28.0135 26.52V24.9648H29.084V26.52H28.0135Z" fill="black"/>
<path d="M29.0639 26.52V24.9648H30.2871V26.52H29.0639Z" fill="black"/>
<path d="M30.2663 26.52V24.9648H31.6428V26.52H30.2663Z" fill="black"/>
<path d="M31.4687 26.52V24.9648H32.0806V26.52H31.4687Z" fill="black"/>
<path d="M31.9058 26.52V24.9648H32.6704V26.52H31.9058Z" fill="black"/>
<path d="M32.4963 26.52V24.9648H33.2608V26.52H32.4963Z" fill="black"/>
<path d="M33.0867 26.52V24.9648H33.6986V26.52H33.0867Z" fill="black"/>
<path d="M7 29.52V27.9648H8.22384V29.52H7Z" fill="black"/>
<path d="M8.04906 29.52V27.9648H8.66099V29.52H8.04906Z" fill="black"/>
<path d="M8.4862 29.52V27.9648H9.55673V29.52H8.4862Z" fill="black"/>
<path d="M9.22998 29.52V27.9648H10.7598V29.52H9.22998Z" fill="black"/>
<path d="M10.5857 29.52V27.9648H11.6562V29.52H10.5857Z" fill="black"/>
<path d="M11.6361 29.52V27.9648H13.0126V29.52H11.6361Z" fill="black"/>
<path d="M12.8385 29.52V27.9648H14.3683V29.52H12.8385Z" fill="black"/>
<path d="M14.1565 29.52V27.9648H14.7684V29.52H14.1565Z" fill="black"/>
<path d="M14.5936 29.52V27.9648H15.6642V29.52H14.5936Z" fill="black"/>
<path d="M15.4907 29.52V27.9648H16.5613V29.52H15.4907Z" fill="black"/>
<path d="M16.2345 29.52V27.9648H16.9991V29.52H16.2345Z" fill="black"/>
<path d="M16.825 29.52V27.9648H18.2015V29.52H16.825Z" fill="black"/>
<path d="M17.9897 29.52V27.9648H18.6016V29.52H17.9897Z" fill="black"/>
<path d="M18.4268 29.52V27.9648H19.6507V29.52H18.4268Z" fill="black"/>
<path d="M19.3239 29.52V27.9648H20.8537V29.52H19.3239Z" fill="black"/>
<path d="M20.603 29.52V27.9648H21.6735V29.52H20.603Z" fill="black"/>
<path d="M21.5001 29.52V27.9648H22.8765V29.52H21.5001Z" fill="black"/>
<path d="M22.5693 29.52V27.9648H23.1812V29.52H22.5693Z" fill="black"/>
<path d="M23.0064 29.52V27.9648H24.077V29.52H23.0064Z" fill="black"/>
<path d="M23.9035 29.52V27.9648H25.1267V29.52H23.9035Z" fill="black"/>
<path d="M24.9526 29.52V27.9648H25.5645V29.52H24.9526Z" fill="black"/>
<path d="M25.3897 29.52V27.9648H26.7662V29.52H25.3897Z" fill="black"/>
<path d="M26.5545 29.52V27.9648H28.0843V29.52H26.5545Z" fill="black"/>
<path d="M27.9101 29.52V27.9648H29.2866V29.52H27.9101Z" fill="black"/>
<path d="M29.0359 29.52V27.9648H29.6478V29.52H29.0359Z" fill="black"/>
<path d="M7 32.52V30.9648H9.14173V32.52H7Z" fill="black"/>
<path d="M8.89096 32.52V30.9648H10.4208V32.52H8.89096Z" fill="black"/>
<path d="M10.0933 32.52V30.9648H10.8579V32.52H10.0933Z" fill="black"/>
<path d="M10.6838 32.52V30.9648H11.7543V32.52H10.6838Z" fill="black"/>
<path d="M11.5809 32.52V30.9648H12.6514V32.52H11.5809Z" fill="black"/>
<path d="M12.478 32.52V30.9648H13.0899V32.52H12.478Z" fill="black"/>
<path d="M13.0684 32.52V30.9648H14.4449V32.52H13.0684Z" fill="black"/>
<path d="M14.1175 32.52V30.9648H15.6473V32.52H14.1175Z" fill="black"/>
<path d="M15.3199 32.52V30.9648H15.9318V32.52H15.3199Z" fill="black"/>
<path d="M15.757 32.52V30.9648H17.1335V32.52H15.757Z" fill="black"/>
<path d="M16.8263 32.52V30.9648H17.8968V32.52H16.8263Z" fill="black"/>
<path d="M17.7234 32.52V30.9648H19.2532V32.52H17.7234Z" fill="black"/>
<path d="M19.079 32.52V30.9648H20.6089V32.52H19.079Z" fill="black"/>
<path d="M20.4347 32.52V30.9648H21.5053V32.52H20.4347Z" fill="black"/>
<path d="M21.1785 32.52V30.9648H21.7904V32.52H21.1785Z" fill="black"/>
<path d="M21.6157 32.52V30.9648H22.6862V32.52H21.6157Z" fill="black"/>
<path d="M22.3594 32.52V30.9648H23.8892V32.52H22.3594Z" fill="black"/>
<path d="M23.7151 32.52V30.9648H25.2449V32.52H23.7151Z" fill="black"/>
<path d="M24.9175 32.52V30.9648H26.294V32.52H24.9175Z" fill="black"/>
<path d="M25.9867 32.52V30.9648H27.5166V32.52H25.9867Z" fill="black"/>
<path d="M27.1891 32.52V30.9648H27.8011V32.52H27.1891Z" fill="black"/>
<path d="M27.6263 32.52V30.9648H29.1561V32.52H27.6263Z" fill="black"/>
<path d="M28.9053 32.52V30.9648H29.9758V32.52H28.9053Z" fill="black"/>
<path d="M29.6491 32.52V30.9648H30.261V32.52H29.6491Z" fill="black"/>
<path d="M30.0862 32.52V30.9648H31.1568V32.52H30.0862Z" fill="black"/>
<path d="M30.83 32.52V30.9648H32.3598V32.52H30.83Z" fill="black"/>
<path d="M32.1857 32.52V30.9648H33.7155V32.52H32.1857Z" fill="black"/>
<path d="M33.3881 32.52V30.9648H34V32.52H33.3881Z" fill="black"/>
<path d="M7 35.52V33.9648H8.07053V35.52H7Z" fill="black"/>
<path d="M7.74377 35.52V33.9648H9.27358V35.52H7.74377Z" fill="black"/>
<path d="M9.17613 35.52V33.9648H10.5526V35.52H9.17613Z" fill="black"/>
<path d="M10.2252 35.52V33.9648H11.2957V35.52H10.2252Z" fill="black"/>
<path d="M11.1223 35.52V33.9648H12.6521V35.52H11.1223Z" fill="black"/>
<path d="M12.3247 35.52V33.9648H13.0892V35.52H12.3247Z" fill="black"/>
<path d="M12.8385 35.52V33.9648H13.603V35.52H12.8385Z" fill="black"/>
</g>
<rect width="12" height="14" transform="translate(26 18.9648)" fill="white"/>
<path d="M31.6787 22.8262C32.5999 22.8262 33.2721 23.0247 33.6953 23.4219C34.1185 23.8158 34.3301 24.3594 34.3301 25.0527C34.3301 25.3652 34.2829 25.6647 34.1885 25.9512C34.0941 26.2344 33.9395 26.4867 33.7246 26.708C33.513 26.9294 33.2298 27.1051 32.875 27.2354C32.5202 27.3623 32.0824 27.4258 31.5615 27.4258H30.9121V29.9648H29.3984V22.8262H31.6787ZM31.6006 24.0664H30.9121V26.1855H31.4102C31.6934 26.1855 31.9391 26.1481 32.1475 26.0732C32.3558 25.9984 32.5169 25.8812 32.6309 25.7217C32.7448 25.5622 32.8018 25.3571 32.8018 25.1064C32.8018 24.7549 32.7041 24.4945 32.5088 24.3252C32.3135 24.1527 32.0107 24.0664 31.6006 24.0664Z" fill="#585858"/>
</g>
<rect x="1" y="0.964844" width="39" height="35" stroke="#364B60"/>
<path d="M12.3333 38.9648H3V45.3129H12.3333V38.9648Z" fill="#7FA4CA"/>
<path d="M22.6663 38.9648H13.333V45.3129H22.6663V38.9648Z" fill="#E19E55"/>
<defs>
<filter id="filter0_i_238_44145" x="3" y="-2.03516" width="35" height="34" filterUnits="userSpaceOnUse" color-interpolation-filters="sRGB">
<feFlood flood-opacity="0" result="BackgroundImageFix"/>
<feBlend mode="normal" in="SourceGraphic" in2="BackgroundImageFix" result="shape"/>
<feColorMatrix in="SourceAlpha" type="matrix" values="0 0 0 0 0 0 0 0 0 0 0 0 0 0 0 0 0 0 127 0" result="hardAlpha"/>
<feOffset dy="-5"/>
<feGaussianBlur stdDeviation="3.5"/>
<feComposite in2="hardAlpha" operator="arithmetic" k2="-1" k3="1"/>
<feColorMatrix type="matrix" values="0 0 0 0 1 0 0 0 0 1 0 0 0 0 1 0 0 0 1 0"/>
<feBlend mode="normal" in2="shape" result="effect1_innerShadow_238_44145"/>
</filter>
<clipPath id="clip0_238_44145">
<rect width="35" height="31" fill="white" transform="translate(3 2.96484)"/>
</clipPath>
<clipPath id="clip1_238_44145">
<rect width="35" height="29" fill="white" transform="translate(3 2.96484)"/>
</clipPath>
</defs>
</svg>
