<svg width="39" height="47" viewBox="0 0 39 47" fill="none" xmlns="http://www.w3.org/2000/svg">
<rect width="35" height="31" transform="translate(2 2)" fill="white"/>
<g opacity="0.3" clip-path="url(#clip0_238_43914)" filter="url(#filter0_i_238_43914)">
<rect width="35" height="29" transform="translate(2 2)" fill="white"/>
<path d="M6 7.55518V6H6.76652V7.55518H6Z" fill="black"/>
<path d="M6.59197 7.55518V6H8.12568V7.55518H6.59197Z" fill="black"/>
<path d="M7.95112 7.55518V6H9.48483V7.55518H7.95112Z" fill="black"/>
<path d="M9.31028 7.55518V6H10.844V7.55518H9.31028Z" fill="black"/>
<path d="M10.5157 7.55518V6H11.1292V7.55518H10.5157Z" fill="black"/>
<path d="M10.954 7.55518V6H12.6414V7.55518H10.954Z" fill="black"/>
<path d="M12.5046 7.55518V6H13.8846V7.55518H12.5046Z" fill="black"/>
<path d="M13.7101 7.55518V6H14.7833V7.55518H13.7101Z" fill="black"/>
<path d="M14.6094 7.55518V6H15.6827V7.55518H14.6094Z" fill="black"/>
<path d="M15.3551 7.55518V6H16.8888V7.55518H15.3551Z" fill="black"/>
<path d="M16.5606 7.55518V6H18.0943V7.55518H16.5606Z" fill="black"/>
<path d="M17.8429 7.55518V6H18.4563V7.55518H17.8429Z" fill="black"/>
<path d="M18.2811 7.55518V6H19.6611V7.55518H18.2811Z" fill="black"/>
<path d="M19.5634 7.55518V6H20.6367V7.55518H19.5634Z" fill="black"/>
<path d="M20.3091 7.55518V6H21.8428V7.55518H20.3091Z" fill="black"/>
<path d="M21.5914 7.55518V6H22.6647V7.55518H21.5914Z" fill="black"/>
<path d="M22.3371 7.55518V6H23.8708V7.55518H22.3371Z" fill="black"/>
<path d="M23.5425 7.55518V6H24.9225V7.55518H23.5425Z" fill="black"/>
<path d="M24.7102 7.55518V6H25.3237V7.55518H24.7102Z" fill="black"/>
<path d="M25.1485 7.55518V6H26.6822V7.55518H25.1485Z" fill="black"/>
<path d="M26.5845 7.55518V6H27.9645V7.55518H26.5845Z" fill="black"/>
<path d="M27.7899 7.55518V6H29.3237V7.55518H27.7899Z" fill="black"/>
<path d="M29.0722 7.55518V6H29.6857V7.55518H29.0722Z" fill="black"/>
<path d="M6 10.5552V9H7.07326V10.5552H6Z" fill="black"/>
<path d="M6.74567 10.5552V9H8.27938V10.5552H6.74567Z" fill="black"/>
<path d="M8.10483 10.5552V9H9.63854V10.5552H8.10483Z" fill="black"/>
<path d="M9.31028 10.5552V9H9.92377V10.5552H9.31028Z" fill="black"/>
<path d="M9.74854 10.5552V9H11.436V10.5552H9.74854Z" fill="black"/>
<path d="M11.0699 10.5552V9H12.6037V10.5552H11.0699Z" fill="black"/>
<path d="M12.4291 10.5552V9H13.8091V10.5552H12.4291Z" fill="black"/>
<path d="M13.6548 10.5552V9H14.8811V10.5552H13.6548Z" fill="black"/>
<path d="M14.8602 10.5552V9H16.2402V10.5552H14.8602Z" fill="black"/>
<path d="M15.9888 10.5552V9H17.5225V10.5552H15.9888Z" fill="black"/>
<path d="M17.1943 10.5552V9H18.728V10.5552H17.1943Z" fill="black"/>
<path d="M18.6303 10.5552V9H20.0103V10.5552H18.6303Z" fill="black"/>
<path d="M19.8357 10.5552V9H20.4492V10.5552H19.8357Z" fill="black"/>
<path d="M20.274 10.5552V9H21.9614V10.5552H20.274Z" fill="black"/>
<path d="M21.8246 10.5552V9H23.2046V10.5552H21.8246Z" fill="black"/>
<path d="M23.0301 10.5552V9H24.1033V10.5552H23.0301Z" fill="black"/>
<path d="M24.0831 10.5552V9H25.3094V10.5552H24.0831Z" fill="black"/>
<path d="M25.2886 10.5552V9H26.6686V10.5552H25.2886Z" fill="black"/>
<path d="M26.494 10.5552V9H27.1075V10.5552H26.494Z" fill="black"/>
<path d="M6 13.5552V12H7.38V13.5552H6Z" fill="black"/>
<path d="M7.1677 13.5552V12H8.24096V13.5552H7.1677Z" fill="black"/>
<path d="M7.91337 13.5552V12H9.44708V13.5552H7.91337Z" fill="black"/>
<path d="M9.34938 13.5552V12H10.7294V13.5552H9.34938Z" fill="black"/>
<path d="M10.5548 13.5552V12H12.0885V13.5552H10.5548Z" fill="black"/>
<path d="M11.8371 13.5552V12H12.4506V13.5552H11.8371Z" fill="black"/>
<path d="M12.2754 13.5552V12H13.6554V13.5552H12.2754Z" fill="black"/>
<path d="M13.3474 13.5552V12H14.8811V13.5552H13.3474Z" fill="black"/>
<path d="M14.5528 13.5552V12H16.0865V13.5552H14.5528Z" fill="black"/>
<path d="M15.8351 13.5552V12H17.3688V13.5552H15.8351Z" fill="black"/>
<path d="M17.1943 13.5552V12H18.5743V13.5552H17.1943Z" fill="black"/>
<path d="M18.3229 13.5552V12H18.9363V13.5552H18.3229Z" fill="black"/>
<path d="M18.7611 13.5552V12H19.8344V13.5552H18.7611Z" fill="black"/>
<path d="M19.6605 13.5552V12H20.8868V13.5552H19.6605Z" fill="black"/>
<path d="M20.7122 13.5552V12H21.3257V13.5552H20.7122Z" fill="black"/>
<path d="M21.1505 13.5552V12H23.2977V13.5552H21.1505Z" fill="black"/>
<path d="M23.2 13.5552V12H24.4263V13.5552H23.2Z" fill="black"/>
<path d="M24.2517 13.5552V12H25.6317V13.5552H24.2517Z" fill="black"/>
<path d="M25.3237 13.5552V12H26.8574V13.5552H25.3237Z" fill="black"/>
<path d="M26.6451 13.5552V12H27.2586V13.5552H26.6451Z" fill="black"/>
<path d="M27.0834 13.5552V12H29.2306V13.5552H27.0834Z" fill="black"/>
<path d="M28.9792 13.5552V12H30.0524V13.5552H28.9792Z" fill="black"/>
<path d="M29.8785 13.5552V12H30.9518V13.5552H29.8785Z" fill="black"/>
<path d="M30.6242 13.5552V12H32.1579V13.5552H30.6242Z" fill="black"/>
<path d="M31.9834 13.5552V12H32.5969V13.5552H31.9834Z" fill="black"/>
<path d="M6.15371 16.5552V15H7.38V16.5552H6.15371Z" fill="black"/>
<path d="M7.20545 16.5552V15H8.27871V16.5552H7.20545Z" fill="black"/>
<path d="M7.95112 16.5552V15H9.48483V16.5552H7.95112Z" fill="black"/>
<path d="M9.31028 16.5552V15H10.844V16.5552H9.31028Z" fill="black"/>
<path d="M10.5157 16.5552V15H11.8957V16.5552H10.5157Z" fill="black"/>
<path d="M11.5877 16.5552V15H12.9677V16.5552H11.5877Z" fill="black"/>
<path d="M12.7554 16.5552V15H13.3689V16.5552H12.7554Z" fill="black"/>
<path d="M13.1937 16.5552V15H14.2669V16.5552H13.1937Z" fill="black"/>
<path d="M14.2467 16.5552V15H15.6267V16.5552H14.2467Z" fill="black"/>
<path d="M15.4522 16.5552V15H16.0657V16.5552H15.4522Z" fill="black"/>
<path d="M15.8904 16.5552V15H18.0376V16.5552H15.8904Z" fill="black"/>
<path d="M17.7862 16.5552V15H19.3199V16.5552H17.7862Z" fill="black"/>
<path d="M18.9917 16.5552V15H20.0649V16.5552H18.9917Z" fill="black"/>
<path d="M19.8911 16.5552V15H21.2711V16.5552H19.8911Z" fill="black"/>
<path d="M21.1734 16.5552V15H22.3997V16.5552H21.1734Z" fill="black"/>
<path d="M22.2251 16.5552V15H24.2193V16.5552H22.2251Z" fill="black"/>
<path d="M24.1209 16.5552V15H25.1942V16.5552H24.1209Z" fill="black"/>
<path d="M25.174 16.5552V15H26.554V16.5552H25.174Z" fill="black"/>
<path d="M26.3794 16.5552V15H27.9131V16.5552H26.3794Z" fill="black"/>
<path d="M27.7386 16.5552V15H28.3521V16.5552H27.7386Z" fill="black"/>
<path d="M28.1769 16.5552V15H29.2501V16.5552H28.1769Z" fill="black"/>
<path d="M29.2299 16.5552V15H30.6099V16.5552H29.2299Z" fill="black"/>
<path d="M30.4354 16.5552V15H31.5087V16.5552H30.4354Z" fill="black"/>
<path d="M31.3348 16.5552V15H32.5611V16.5552H31.3348Z" fill="black"/>
<path d="M32.3865 16.5552V15H33V16.5552H32.3865Z" fill="black"/>
<path d="M6 19.5552V18H7.07326V19.5552H6Z" fill="black"/>
<path d="M6.74567 19.5552V18H8.27938V19.5552H6.74567Z" fill="black"/>
<path d="M8.10483 19.5552V18H9.63854V19.5552H8.10483Z" fill="black"/>
<path d="M9.31028 19.5552V18H9.92377V19.5552H9.31028Z" fill="black"/>
<path d="M9.74854 19.5552V18H10.8218V19.5552H9.74854Z" fill="black"/>
<path d="M10.8016 19.5552V18H12.1816V19.5552H10.8016Z" fill="black"/>
<path d="M12.0071 19.5552V18H13.0803V19.5552H12.0071Z" fill="black"/>
<path d="M12.7528 19.5552V18H14.2865V19.5552H12.7528Z" fill="black"/>
<path d="M13.9582 19.5552V18H15.3382V19.5552H13.9582Z" fill="black"/>
<path d="M15.1839 19.5552V18H16.5639V19.5552H15.1839Z" fill="black"/>
<path d="M16.3893 19.5552V18H17.923V19.5552H16.3893Z" fill="black"/>
<path d="M17.6716 19.5552V18H18.7449V19.5552H17.6716Z" fill="black"/>
<path d="M18.4173 19.5552V18H19.4906V19.5552H18.4173Z" fill="black"/>
<path d="M19.4704 19.5552V18H20.6967V19.5552H19.4704Z" fill="black"/>
<path d="M20.6758 19.5552V18H22.0558V19.5552H20.6758Z" fill="black"/>
<path d="M21.8813 19.5552V18H23.415V19.5552H21.8813Z" fill="black"/>
<path d="M23.1636 19.5552V18H24.2369V19.5552H23.1636Z" fill="black"/>
<path d="M24.063 19.5552V18H24.6765V19.5552H24.063Z" fill="black"/>
<path d="M6 22.5552V21H7.38V22.5552H6Z" fill="black"/>
<path d="M7.2823 22.5552V21H8.5086V22.5552H7.2823Z" fill="black"/>
<path d="M8.33405 22.5552V21H10.3282V22.5552H8.33405Z" fill="black"/>
<path d="M10.2298 22.5552V21H12.224V22.5552H10.2298Z" fill="black"/>
<path d="M12.1256 22.5552V21H13.6593V22.5552H12.1256Z" fill="black"/>
<path d="M13.6385 22.5552V21H15.0185V22.5552H13.6385Z" fill="black"/>
<path d="M14.8439 22.5552V21H15.9172V22.5552H14.8439Z" fill="black"/>
<path d="M15.7433 22.5552V21H16.8166V22.5552H15.7433Z" fill="black"/>
<path d="M16.6427 22.5552V21H18.0227V22.5552H16.6427Z" fill="black"/>
<path d="M17.7713 22.5552V21H18.3848V22.5552H17.7713Z" fill="black"/>
<path d="M18.2096 22.5552V21H19.7433V22.5552H18.2096Z" fill="black"/>
<path d="M19.4919 22.5552V21H20.1053V22.5552H19.4919Z" fill="black"/>
<path d="M19.9301 22.5552V21H21.6175V22.5552H19.9301Z" fill="black"/>
<path d="M21.4619 22.5552V21H22.6882V22.5552H21.4619Z" fill="black"/>
<path d="M22.5136 22.5552V21H23.8936V22.5552H22.5136Z" fill="black"/>
<path d="M23.5856 22.5552V21H24.6588V22.5552H23.5856Z" fill="black"/>
<path d="M24.3312 22.5552V21H25.8649V22.5552H24.3312Z" fill="black"/>
<path d="M25.6904 22.5552V21H26.3039V22.5552H25.6904Z" fill="black"/>
<path d="M26.1287 22.5552V21H27.8161V22.5552H26.1287Z" fill="black"/>
<path d="M27.7184 22.5552V21H28.9447V22.5552H27.7184Z" fill="black"/>
<path d="M28.7701 22.5552V21H30.1501V22.5552H28.7701Z" fill="black"/>
<path d="M29.8421 22.5552V21H31.3758V22.5552H29.8421Z" fill="black"/>
<path d="M31.0475 22.5552V21H32.5812V22.5552H31.0475Z" fill="black"/>
<path d="M32.3298 22.5552V21H32.9433V22.5552H32.3298Z" fill="black"/>
<path d="M6 25.5552V24H7.07326V25.5552H6Z" fill="black"/>
<path d="M6.74567 25.5552V24H8.27938V25.5552H6.74567Z" fill="black"/>
<path d="M8.10483 25.5552V24H9.63854V25.5552H8.10483Z" fill="black"/>
<path d="M9.38713 25.5552V24H10.4604V25.5552H9.38713Z" fill="black"/>
<path d="M10.1328 25.5552V24H10.7463V25.5552H10.1328Z" fill="black"/>
<path d="M10.5711 25.5552V24H12.1048V25.5552H10.5711Z" fill="black"/>
<path d="M12.0071 25.5552V24H13.3871V25.5552H12.0071Z" fill="black"/>
<path d="M13.0588 25.5552V24H14.5925V25.5552H13.0588Z" fill="black"/>
<path d="M14.4948 25.5552V24H15.8748V25.5552H14.4948Z" fill="black"/>
<path d="M15.7003 25.5552V24H17.234V25.5552H15.7003Z" fill="black"/>
<path d="M17.1363 25.5552V24H18.3626V25.5552H17.1363Z" fill="black"/>
<path d="M18.3417 25.5552V24H19.7217V25.5552H18.3417Z" fill="black"/>
<path d="M19.5472 25.5552V24H20.9272V25.5552H19.5472Z" fill="black"/>
<path d="M20.7149 25.5552V24H21.3284V25.5552H20.7149Z" fill="black"/>
<path d="M21.1531 25.5552V24H22.2264V25.5552H21.1531Z" fill="black"/>
<path d="M22.0525 25.5552V24H23.1258V25.5552H22.0525Z" fill="black"/>
<path d="M22.7982 25.5552V24H24.1782V25.5552H22.7982Z" fill="black"/>
<path d="M23.9659 25.5552V24H24.5794V25.5552H23.9659Z" fill="black"/>
<path d="M24.5579 25.5552V24H25.9379V25.5552H24.5579Z" fill="black"/>
<path d="M25.6865 25.5552V24H27.2202V25.5552H25.6865Z" fill="black"/>
<path d="M27.0456 25.5552V24H28.4256V25.5552H27.0456Z" fill="black"/>
<path d="M28.1176 25.5552V24H29.4976V25.5552H28.1176Z" fill="black"/>
<path d="M29.2853 25.5552V24H30.819V25.5552H29.2853Z" fill="black"/>
<path d="M30.6444 25.5552V24H31.7177V25.5552H30.6444Z" fill="black"/>
<path d="M31.5438 25.5552V24H32.6171V25.5552H31.5438Z" fill="black"/>
<path d="M32.2895 25.5552V24H32.903V25.5552H32.2895Z" fill="black"/>
<path d="M6.15371 28.5552V27H7.38V28.5552H6.15371Z" fill="black"/>
<path d="M7.20545 28.5552V27H8.43242V28.5552H7.20545Z" fill="black"/>
<path d="M8.10483 28.5552V27H8.71832V28.5552H8.10483Z" fill="black"/>
<path d="M8.54309 28.5552V27H10.6903V28.5552H8.54309Z" fill="black"/>
<path d="M10.4389 28.5552V27H11.9726V28.5552H10.4389Z" fill="black"/>
<path d="M11.6443 28.5552V27H13.178V28.5552H11.6443Z" fill="black"/>
<path d="M13.0803 28.5552V27H14.4603V28.5552H13.0803Z" fill="black"/>
<path d="M14.3626 28.5552V27H15.5889V28.5552H14.3626Z" fill="black"/>
<path d="M15.5681 28.5552V27H16.9481V28.5552H15.5681Z" fill="black"/>
<path d="M16.7735 28.5552V27H18.1535V28.5552H16.7735Z" fill="black"/>
<path d="M17.9412 28.5552V27H18.5547V28.5552H17.9412Z" fill="black"/>
<path d="M18.5332 28.5552V27H19.7595V28.5552H18.5332Z" fill="black"/>
<path d="M19.5849 28.5552V27H20.8119V28.5552H19.5849Z" fill="black"/>
<path d="M20.4843 28.5552V27H21.0978V28.5552H20.4843Z" fill="black"/>
<path d="M20.9226 28.5552V27H22.9167V28.5552H20.9226Z" fill="black"/>
<path d="M22.8184 28.5552V27H24.3521V28.5552H22.8184Z" fill="black"/>
<path d="M24.1007 28.5552V27H25.4807V28.5552H24.1007Z" fill="black"/>
<path d="M25.2684 28.5552V27H26.6484V28.5552H25.2684Z" fill="black"/>
<path d="M26.4361 28.5552V27H27.0496V28.5552H26.4361Z" fill="black"/>
<path d="M6 31.5552V30H7.53371V31.5552H6Z" fill="black"/>
<path d="M7.2823 31.5552V30H8.81601V31.5552H7.2823Z" fill="black"/>
<path d="M8.48775 31.5552V30H9.86776V31.5552H8.48775Z" fill="black"/>
<path d="M9.65545 31.5552V30H10.7287V31.5552H9.65545Z" fill="black"/>
<path d="M10.4011 31.5552V30H11.7811V31.5552H10.4011Z" fill="black"/>
<path d="M11.4731 31.5552V30H13.0068V31.5552H11.4731Z" fill="black"/>
<path d="M12.8322 31.5552V30H14.2123V31.5552H12.8322Z" fill="black"/>
<path d="M13.9608 31.5552V30H15.0341V31.5552H13.9608Z" fill="black"/>
<path d="M14.7065 31.5552V30H15.7798V31.5552H14.7065Z" fill="black"/>
<path d="M15.7596 31.5552V30H16.9859V31.5552H15.7596Z" fill="black"/>
<path d="M16.9651 31.5552V30H18.3451V31.5552H16.9651Z" fill="black"/>
<path d="M18.1705 31.5552V30H18.784V31.5552H18.1705Z" fill="black"/>
<path d="M18.6088 31.5552V30H20.1425V31.5552H18.6088Z" fill="black"/>
<path d="M20.0448 31.5552V30H21.4248V31.5552H20.0448Z" fill="black"/>
<path d="M21.2502 31.5552V30H22.7839V31.5552H21.2502Z" fill="black"/>
<path d="M22.5325 31.5552V30H23.146V31.5552H22.5325Z" fill="black"/>
<path d="M23.1245 31.5552V30H24.5045V31.5552H23.1245Z" fill="black"/>
<path d="M24.4068 31.5552V30H25.6331V31.5552H24.4068Z" fill="black"/>
<path d="M25.4585 31.5552V30H26.5318V31.5552H25.4585Z" fill="black"/>
<path d="M26.3579 31.5552V30H27.4312V31.5552H26.3579Z" fill="black"/>
<path d="M27.2573 31.5552V30H28.6373V31.5552H27.2573Z" fill="black"/>
<path d="M28.5396 31.5552V30H29.9196V31.5552H28.5396Z" fill="black"/>
<path d="M29.6682 31.5552V30H30.2817V31.5552H29.6682Z" fill="black"/>
<path d="M30.2602 31.5552V30H31.4865V31.5552H30.2602Z" fill="black"/>
<path d="M31.3119 31.5552V30H32.5389V31.5552H31.3119Z" fill="black"/>
<path d="M32.2113 31.5552V30H32.8248V31.5552H32.2113Z" fill="black"/>
<path d="M6 34.5552V33H7.07326V34.5552H6Z" fill="black"/>
<path d="M6.74567 34.5552V33H8.27938V34.5552H6.74567Z" fill="black"/>
<path d="M8.10483 34.5552V33H9.48483V34.5552H8.10483Z" fill="black"/>
<path d="M9.1768 34.5552V33H10.7105V34.5552H9.1768Z" fill="black"/>
<path d="M10.3822 34.5552V33H11.916V34.5552H10.3822Z" fill="black"/>
<path d="M11.6646 34.5552V33H12.7378V34.5552H11.6646Z" fill="black"/>
<path d="M12.4102 34.5552V33H13.7902V34.5552H12.4102Z" fill="black"/>
<path d="M13.5779 34.5552V33H14.1914V34.5552H13.5779Z" fill="black"/>
<path d="M14.0162 34.5552V33H15.5499V34.5552H14.0162Z" fill="black"/>
<path d="M15.2985 34.5552V33H16.3717V34.5552H15.2985Z" fill="black"/>
<path d="M16.1979 34.5552V33H18.192V34.5552H16.1979Z" fill="black"/>
<path d="M18.0937 34.5552V33H19.6274V34.5552H18.0937Z" fill="black"/>
<path d="M19.2991 34.5552V33H20.8328V34.5552H19.2991Z" fill="black"/>
<path d="M20.5814 34.5552V33H21.1949V34.5552H20.5814Z" fill="black"/>
<path d="M21.0197 34.5552V33H22.5534V34.5552H21.0197Z" fill="black"/>
<path d="M22.302 34.5552V33H23.3752V34.5552H22.302Z" fill="black"/>
<path d="M23.0476 34.5552V33H23.6611V34.5552H23.0476Z" fill="black"/>
<path d="M23.4859 34.5552V33H24.5592V34.5552H23.4859Z" fill="black"/>
<path d="M24.3853 34.5552V33H25.4585V34.5552H24.3853Z" fill="black"/>
<path d="M25.131 34.5552V33H26.511V34.5552H25.131Z" fill="black"/>
<path d="M26.2986 34.5552V33H26.9121V34.5552H26.2986Z" fill="black"/>
<path d="M6.15371 37.5552V36H7.53371V37.5552H6.15371Z" fill="black"/>
<path d="M7.35916 37.5552V36H8.89287V37.5552H7.35916Z" fill="black"/>
<path d="M8.56461 37.5552V36H9.63787V37.5552H8.56461Z" fill="black"/>
<path d="M9.46399 37.5552V36H10.9977V37.5552H9.46399Z" fill="black"/>
<path d="M10.8231 37.5552V36H12.3569V37.5552H10.8231Z" fill="black"/>
<path d="M12.336 37.5552V36H13.716V37.5552H12.336Z" fill="black"/>
<path d="M13.5415 37.5552V36H14.7678V37.5552H13.5415Z" fill="black"/>
<path d="M14.5932 37.5552V36H15.9732V37.5552H14.5932Z" fill="black"/>
<path d="M15.6652 37.5552V36H17.0452V37.5552H15.6652Z" fill="black"/>
<path d="M16.8329 37.5552V36H17.4464V37.5552H16.8329Z" fill="black"/>
<path d="M17.2711 37.5552V36H18.8048V37.5552H17.2711Z" fill="black"/>
<path d="M18.7071 37.5552V36H20.0871V37.5552H18.7071Z" fill="black"/>
<path d="M19.9126 37.5552V36H21.4463V37.5552H19.9126Z" fill="black"/>
<path d="M21.1949 37.5552V36H21.8084V37.5552H21.1949Z" fill="black"/>
<path d="M21.6331 37.5552V36H22.7064V37.5552H21.6331Z" fill="black"/>
<path d="M22.3788 37.5552V36H23.9125V37.5552H22.3788Z" fill="black"/>
<path d="M23.738 37.5552V36H25.2717V37.5552H23.738Z" fill="black"/>
<path d="M25.0203 37.5552V36H26.0935V37.5552H25.0203Z" fill="black"/>
<path d="M25.766 37.5552V36H26.3794V37.5552H25.766Z" fill="black"/>
<path d="M6.15371 40.5552V39H7.53371V40.5552H6.15371Z" fill="black"/>
<path d="M7.2823 40.5552V39H8.66231V40.5552H7.2823Z" fill="black"/>
<path d="M8.50798 40.5552V39H9.73427V40.5552H8.50798Z" fill="black"/>
<path d="M9.55972 40.5552V39H10.633V40.5552H9.55972Z" fill="black"/>
<path d="M10.3054 40.5552V39H11.8391V40.5552H10.3054Z" fill="black"/>
<path d="M11.5108 40.5552V39H12.8908V40.5552H11.5108Z" fill="black"/>
<path d="M12.6394 40.5552V39H13.7127V40.5552H12.6394Z" fill="black"/>
<path d="M13.3851 40.5552V39H14.7651V40.5552H13.3851Z" fill="black"/>
<path d="M14.5528 40.5552V39H15.1663V40.5552H14.5528Z" fill="black"/>
<path d="M14.9911 40.5552V39H16.0643V40.5552H14.9911Z" fill="black"/>
<path d="M15.7367 40.5552V39H17.2704V40.5552H15.7367Z" fill="black"/>
<path d="M17.0959 40.5552V39H18.6296V40.5552H17.0959Z" fill="black"/>
<path d="M18.3013 40.5552V39H18.9148V40.5552H18.3013Z" fill="black"/>
<path d="M18.7396 40.5552V39H20.1196V40.5552H18.7396Z" fill="black"/>
<path d="M19.8116 40.5552V39H20.8848V40.5552H19.8116Z" fill="black"/>
<path d="M20.711 40.5552V39H22.2447V40.5552H20.711Z" fill="black"/>
<path d="M22.0701 40.5552V39H23.6038V40.5552H22.0701Z" fill="black"/>
<path d="M23.4293 40.5552V39H24.5025V40.5552H23.4293Z" fill="black"/>
<path d="M24.1749 40.5552V39H25.5549V40.5552H24.1749Z" fill="black"/>
<path d="M25.3426 40.5552V39H25.9561V40.5552H25.3426Z" fill="black"/>
<path d="M25.9346 40.5552V39H27.1609V40.5552H25.9346Z" fill="black"/>
<path d="M26.9863 40.5552V39H28.2133V40.5552H26.9863Z" fill="black"/>
<path d="M27.8857 40.5552V39H28.4992V40.5552H27.8857Z" fill="black"/>
<path d="M28.324 40.5552V39H29.3972V40.5552H28.324Z" fill="black"/>
<path d="M29.2234 40.5552V39H30.2966V40.5552H29.2234Z" fill="black"/>
<path d="M29.969 40.5552V39H31.349V40.5552H29.969Z" fill="black"/>
<path d="M31.1367 40.5552V39H31.7502V40.5552H31.1367Z" fill="black"/>
<path d="M6.15371 43.5552V42H7.53371V43.5552H6.15371Z" fill="black"/>
<path d="M7.2823 43.5552V42H8.81601V43.5552H7.2823Z" fill="black"/>
<path d="M8.64146 43.5552V42H9.86776V43.5552H8.64146Z" fill="black"/>
<path d="M9.84691 43.5552V42H11.2269V43.5552H9.84691Z" fill="black"/>
<path d="M10.9755 43.5552V42H12.0488V43.5552H10.9755Z" fill="black"/>
<path d="M11.8749 43.5552V42H13.4086V43.5552H11.8749Z" fill="black"/>
<path d="M13.0803 43.5552V42H13.8469V43.5552H13.0803Z" fill="black"/>
<path d="M13.5954 43.5552V42H14.2089V43.5552H13.5954Z" fill="black"/>
<path d="M14.0337 43.5552V42H15.4137V43.5552H14.0337Z" fill="black"/>
<path d="M15.316 43.5552V42H16.8497V43.5552H15.316Z" fill="black"/>
<path d="M16.6752 43.5552V42H18.0552V43.5552H16.6752Z" fill="black"/>
<path d="M17.8038 43.5552V42H19.3375V43.5552H17.8038Z" fill="black"/>
<path d="M19.1629 43.5552V42H19.7764V43.5552H19.1629Z" fill="black"/>
<path d="M19.6012 43.5552V42H21.1349V43.5552H19.6012Z" fill="black"/>
<path d="M20.8835 43.5552V42H21.497V43.5552H20.8835Z" fill="black"/>
<path d="M21.3217 43.5552V42H23.0092V43.5552H21.3217Z" fill="black"/>
<path d="M22.8535 43.5552V42H24.0798V43.5552H22.8535Z" fill="black"/>
<path d="M23.9052 43.5552V42H25.2852V43.5552H23.9052Z" fill="black"/>
<path d="M24.9772 43.5552V42H26.0504V43.5552H24.9772Z" fill="black"/>
<path d="M25.7229 43.5552V42H27.2566V43.5552H25.7229Z" fill="black"/>
<path d="M27.082 43.5552V42H27.6955V43.5552H27.082Z" fill="black"/>
<path d="M6 46.5552V45H7.68742V46.5552H6Z" fill="black"/>
<path d="M7.58972 46.5552V45H8.81601V46.5552H7.58972Z" fill="black"/>
<path d="M8.64146 46.5552V45H10.0215V46.5552H8.64146Z" fill="black"/>
<path d="M9.71343 46.5552V45H11.2471V46.5552H9.71343Z" fill="black"/>
<path d="M10.9189 46.5552V45H12.4526V46.5552H10.9189Z" fill="black"/>
<path d="M12.2012 46.5552V45H12.8147V46.5552H12.2012Z" fill="black"/>
<path d="M12.6394 46.5552V45H14.0194V46.5552H12.6394Z" fill="black"/>
<path d="M13.9217 46.5552V45H15.148V46.5552H13.9217Z" fill="black"/>
<path d="M14.9735 46.5552V45H16.5072V46.5552H14.9735Z" fill="black"/>
<path d="M16.3326 46.5552V45H17.4059V46.5552H16.3326Z" fill="black"/>
<path d="M17.232 46.5552V45H18.7657V46.5552H17.232Z" fill="black"/>
<path d="M18.5143 46.5552V45H19.1278V46.5552H18.5143Z" fill="black"/>
<path d="M18.9526 46.5552V45H20.3326V46.5552H18.9526Z" fill="black"/>
<path d="M20.1203 46.5552V45H21.654V46.5552H20.1203Z" fill="black"/>
<path d="M21.4794 46.5552V45H23.0131V46.5552H21.4794Z" fill="black"/>
<path d="M22.7617 46.5552V45H24.1417V46.5552H22.7617Z" fill="black"/>
<path d="M23.8337 46.5552V45H25.3674V46.5552H23.8337Z" fill="black"/>
<path d="M25.0392 46.5552V45H25.6526V46.5552H25.0392Z" fill="black"/>
<path d="M25.4774 46.5552V45H26.5507V46.5552H25.4774Z" fill="black"/>
<path d="M26.5305 46.5552V45H27.9105V46.5552H26.5305Z" fill="black"/>
<path d="M27.736 46.5552V45H28.3494V46.5552H27.736Z" fill="black"/>
<path d="M28.1742 46.5552V45H29.2475V46.5552H28.1742Z" fill="black"/>
<path d="M28.9199 46.5552V45H30.4536V46.5552H28.9199Z" fill="black"/>
<path d="M30.279 46.5552V45H31.8128V46.5552H30.279Z" fill="black"/>
<path d="M31.4845 46.5552V45H32.098V46.5552H31.4845Z" fill="black"/>
<path d="M6.15371 49.5552V48H7.53371V49.5552H6.15371Z" fill="black"/>
<path d="M7.2823 49.5552V48H8.66231V49.5552H7.2823Z" fill="black"/>
<path d="M8.50798 49.5552V48H9.73427V49.5552H8.50798Z" fill="black"/>
<path d="M9.55972 49.5552V48H10.9397V49.5552H9.55972Z" fill="black"/>
<path d="M10.8811 49.5552V48H12.2611V49.5552H10.8811Z" fill="black"/>
<path d="M12.0097 49.5552V48H13.5434V49.5552H12.0097Z" fill="black"/>
<path d="M13.2152 49.5552V48H14.5952V49.5552H13.2152Z" fill="black"/>
<path d="M14.2871 49.5552V48H15.3604V49.5552H14.2871Z" fill="black"/>
<path d="M15.1865 49.5552V48H16.2598V49.5552H15.1865Z" fill="black"/>
<path d="M16.0859 49.5552V48H17.4659V49.5552H16.0859Z" fill="black"/>
<path d="M17.2145 49.5552V48H17.828V49.5552H17.2145Z" fill="black"/>
<path d="M17.6528 49.5552V48H19.1865V49.5552H17.6528Z" fill="black"/>
<path d="M19.0888 49.5552V48H20.4688V49.5552H19.0888Z" fill="black"/>
<path d="M20.2942 49.5552V48H21.8279V49.5552H20.2942Z" fill="black"/>
<path d="M21.5765 49.5552V48H22.19V49.5552H21.5765Z" fill="black"/>
<path d="M6 52.5552V51H7.53371V52.5552H6Z" fill="black"/>
<path d="M7.2823 52.5552V51H8.81601V52.5552H7.2823Z" fill="black"/>
<path d="M8.48775 52.5552V51H9.86776V52.5552H8.48775Z" fill="black"/>
<path d="M9.77006 52.5552V51H11.3038V52.5552H9.77006Z" fill="black"/>
<path d="M10.9755 52.5552V51H12.0488V52.5552H10.9755Z" fill="black"/>
<path d="M12.0286 52.5552V51H13.2549V52.5552H12.0286Z" fill="black"/>
<path d="M13.234 52.5552V51H14.614V52.5552H13.234Z" fill="black"/>
<path d="M14.3626 52.5552V51H16.3568V52.5552H14.3626Z" fill="black"/>
<path d="M16.2584 52.5552V51H17.7921V52.5552H16.2584Z" fill="black"/>
<path d="M17.6176 52.5552V51H18.9976V52.5552H17.6176Z" fill="black"/>
<path d="M18.823 52.5552V51H19.8963V52.5552H18.823Z" fill="black"/>
<path d="M19.5687 52.5552V51H20.1822V52.5552H19.5687Z" fill="black"/>
<path d="M20.007 52.5552V51H21.0802V52.5552H20.007Z" fill="black"/>
<path d="M20.7526 52.5552V51H22.2864V52.5552H20.7526Z" fill="black"/>
<path d="M22.1118 52.5552V51H23.6455V52.5552H22.1118Z" fill="black"/>
<path d="M23.3941 52.5552V51H24.4674V52.5552H23.3941Z" fill="black"/>
<path d="M24.1398 52.5552V51H24.7533V52.5552H24.1398Z" fill="black"/>
<path d="M24.578 52.5552V51H25.6513V52.5552H24.578Z" fill="black"/>
<path d="M25.3237 52.5552V51H26.8574V52.5552H25.3237Z" fill="black"/>
<path d="M26.6829 52.5552V51H28.2166V52.5552H26.6829Z" fill="black"/>
<path d="M27.8883 52.5552V51H28.5018V52.5552H27.8883Z" fill="black"/>
<path d="M6 55.5552V54H7.38V55.5552H6Z" fill="black"/>
<path d="M7.07197 55.5552V54H8.60568V55.5552H7.07197Z" fill="black"/>
<path d="M8.27742 55.5552V54H10.2716V55.5552H8.27742Z" fill="black"/>
<path d="M10.1732 55.5552V54H11.7069V55.5552H10.1732Z" fill="black"/>
<path d="M11.4555 55.5552V54H12.5288V55.5552H11.4555Z" fill="black"/>
<path d="M12.5086 55.5552V54H13.8886V55.5552H12.5086Z" fill="black"/>
<path d="M13.714 55.5552V54H15.2478V55.5552H13.714Z" fill="black"/>
<path d="M14.9964 55.5552V54H16.5301V55.5552H14.9964Z" fill="black"/>
<path d="M16.2018 55.5552V54H17.5818V55.5552H16.2018Z" fill="black"/>
<path d="M17.2738 55.5552V54H17.8873V55.5552H17.2738Z" fill="black"/>
<path d="M17.8657 55.5552V54H19.092V55.5552H17.8657Z" fill="black"/>
<path d="M18.9175 55.5552V54H20.1444V55.5552H18.9175Z" fill="black"/>
<path d="M19.8169 55.5552V54H20.4303V55.5552H19.8169Z" fill="black"/>
<path d="M20.4088 55.5552V54H21.7888V55.5552H20.4088Z" fill="black"/>
<path d="M21.768 55.5552V54H22.9943V55.5552H21.768Z" fill="black"/>
<path d="M22.8197 55.5552V54H24.1997V55.5552H22.8197Z" fill="black"/>
<path d="M23.8917 55.5552V54H24.9649V55.5552H23.8917Z" fill="black"/>
<path d="M24.6374 55.5552V54H26.1711V55.5552H24.6374Z" fill="black"/>
<path d="M25.9965 55.5552V54H27.5302V55.5552H25.9965Z" fill="black"/>
<path d="M27.202 55.5552V54H28.7357V55.5552H27.202Z" fill="black"/>
<path d="M28.4843 55.5552V54H29.8643V55.5552H28.4843Z" fill="black"/>
<path d="M29.652 55.5552V54H30.7252V55.5552H29.652Z" fill="black"/>
<path d="M30.3976 55.5552V54H31.0111V55.5552H30.3976Z" fill="black"/>
<path d="M6 58.5552V57H7.68742V58.5552H6Z" fill="black"/>
<path d="M7.43601 58.5552V57H8.81601V58.5552H7.43601Z" fill="black"/>
<path d="M8.60371 58.5552V57H9.67697V58.5552H8.60371Z" fill="black"/>
<path d="M9.50309 58.5552V57H11.0368V58.5552H9.50309Z" fill="black"/>
<path d="M10.7854 58.5552V57H11.3989V58.5552H10.7854Z" fill="black"/>
<path d="M11.2237 58.5552V57H12.7574V58.5552H11.2237Z" fill="black"/>
<path d="M12.5828 58.5552V57H14.1165V58.5552H12.5828Z" fill="black"/>
<path d="M13.8651 58.5552V57H15.2451V58.5552H13.8651Z" fill="black"/>
<path d="M15.0328 58.5552V57H15.6463V58.5552H15.0328Z" fill="black"/>
<path d="M15.4711 58.5552V57H17.0048V58.5552H15.4711Z" fill="black"/>
<path d="M16.7534 58.5552V57H18.1334V58.5552H16.7534Z" fill="black"/>
<path d="M17.882 58.5552V57H19.4157V58.5552H17.882Z" fill="black"/>
<path d="M19.2411 58.5552V57H20.3144V58.5552H19.2411Z" fill="black"/>
<path d="M20.1405 58.5552V57H21.6742V58.5552H20.1405Z" fill="black"/>
<path d="M21.346 58.5552V57H22.726V58.5552H21.346Z" fill="black"/>
<path d="M22.6283 58.5552V57H24.162V58.5552H22.6283Z" fill="black"/>
<path d="M23.8337 58.5552V57H25.3674V58.5552H23.8337Z" fill="black"/>
<path d="M25.116 58.5552V57H25.7295V58.5552H25.116Z" fill="black"/>
<path d="M25.5543 58.5552V57H26.6275V58.5552H25.5543Z" fill="black"/>
<path d="M26.6074 58.5552V57H27.9874V58.5552H26.6074Z" fill="black"/>
<path d="M27.8128 58.5552V57H28.4263V58.5552H27.8128Z" fill="black"/>
<path d="M6 61.5552V60H7.38V61.5552H6Z" fill="black"/>
<path d="M7.07197 61.5552V60H8.60568V61.5552H7.07197Z" fill="black"/>
<path d="M8.27742 61.5552V60H9.65742V61.5552H8.27742Z" fill="black"/>
<path d="M9.40601 61.5552V60H10.9397V61.5552H9.40601Z" fill="black"/>
<path d="M10.7652 61.5552V60H12.1452V61.5552H10.7652Z" fill="black"/>
<path d="M11.9706 61.5552V60H13.0439V61.5552H11.9706Z" fill="black"/>
<path d="M12.7163 61.5552V60H13.3298V61.5552H12.7163Z" fill="black"/>
<path d="M13.3083 61.5552V60H14.6883V61.5552H13.3083Z" fill="black"/>
<path d="M14.4369 61.5552V60H15.9706V61.5552H14.4369Z" fill="black"/>
<path d="M15.6423 61.5552V60H17.176V61.5552H15.6423Z" fill="black"/>
<path d="M16.9246 61.5552V60H18.3046V61.5552H16.9246Z" fill="black"/>
<path d="M17.9966 61.5552V60H19.3766V61.5552H17.9966Z" fill="black"/>
<path d="M19.1643 61.5552V60H19.9308V61.5552H19.1643Z" fill="black"/>
<path d="M19.6794 61.5552V60H20.4459V61.5552H19.6794Z" fill="black"/>
</g>
<rect x="0.5" y="0.5" width="38" height="34" stroke="#E5592D"/>
<path d="M11.3333 38H2V44.3481H11.3333V38Z" fill="#7FA4CA"/>
<defs>
<filter id="filter0_i_238_43914" x="2" y="-3" width="35" height="34" filterUnits="userSpaceOnUse" color-interpolation-filters="sRGB">
<feFlood flood-opacity="0" result="BackgroundImageFix"/>
<feBlend mode="normal" in="SourceGraphic" in2="BackgroundImageFix" result="shape"/>
<feColorMatrix in="SourceAlpha" type="matrix" values="0 0 0 0 0 0 0 0 0 0 0 0 0 0 0 0 0 0 127 0" result="hardAlpha"/>
<feOffset dy="-5"/>
<feGaussianBlur stdDeviation="3.5"/>
<feComposite in2="hardAlpha" operator="arithmetic" k2="-1" k3="1"/>
<feColorMatrix type="matrix" values="0 0 0 0 1 0 0 0 0 1 0 0 0 0 1 0 0 0 1 0"/>
<feBlend mode="normal" in2="shape" result="effect1_innerShadow_238_43914"/>
</filter>
<clipPath id="clip0_238_43914">
<rect width="35" height="29" fill="white" transform="translate(2 2)"/>
</clipPath>
</defs>
</svg>
