<svg width="39" height="47" viewBox="0 0 39 47" fill="none" xmlns="http://www.w3.org/2000/svg">
<g clip-path="url(#clip0_238_43892)">
<g clip-path="url(#clip1_238_43892)" filter="url(#filter0_d_238_43892)">
<rect width="35" height="31" transform="translate(2 2.18848)" fill="white"/>
<g opacity="0.3" clip-path="url(#clip2_238_43892)" filter="url(#filter1_i_238_43892)">
<rect width="35" height="29" transform="translate(2 2.18848)" fill="white"/>
<path d="M6 7.74365V6.18848H6.78784V7.74365H6Z" fill="black"/>
<path d="M6.60843 7.74365V6.18848H8.18481V7.74365H6.60843Z" fill="black"/>
<path d="M8.0054 7.74365V6.18848H9.58178V7.74365H8.0054Z" fill="black"/>
<path d="M9.40237 7.74365V6.18848H10.8208V7.74365H9.40237Z" fill="black"/>
<path d="M10.5042 7.74365V6.18848H11.1347V7.74365H10.5042Z" fill="black"/>
<path d="M11.1126 7.74365V6.18848H12.531V7.74365H11.1126Z" fill="black"/>
<path d="M12.4306 7.74365V6.18848H13.691V7.74365H12.4306Z" fill="black"/>
<path d="M13.5116 7.74365V6.18848H14.93V7.74365H13.5116Z" fill="black"/>
<path d="M14.7117 7.74365V6.18848H15.8149V7.74365H14.7117Z" fill="black"/>
<path d="M15.6361 7.74365V6.18848H16.7393V7.74365H15.6361Z" fill="black"/>
<path d="M16.4026 7.74365V6.18848H17.5057V7.74365H16.4026Z" fill="black"/>
<path d="M17.485 7.74365V6.18848H18.7454V7.74365H17.485Z" fill="black"/>
<path d="M18.7239 7.74365V6.18848H20.1423V7.74365H18.7239Z" fill="black"/>
<path d="M19.9629 7.74365V6.18848H20.5935V7.74365H19.9629Z" fill="black"/>
<path d="M20.4134 7.74365V6.18848H21.5165V7.74365H20.4134Z" fill="black"/>
<path d="M21.3378 7.74365V6.18848H22.7562V7.74365H21.3378Z" fill="black"/>
<path d="M22.538 7.74365V6.18848H23.1685V7.74365H22.538Z" fill="black"/>
<path d="M22.9884 7.74365V6.18848H25.1953V7.74365H22.9884Z" fill="black"/>
<path d="M24.9369 7.74365V6.18848H26.5133V7.74365H24.9369Z" fill="black"/>
<path d="M26.3339 7.74365V6.18848H27.9103V7.74365H26.3339Z" fill="black"/>
<path d="M27.7309 7.74365V6.18848H29.1493V7.74365H27.7309Z" fill="black"/>
<path d="M28.9698 7.74365V6.18848H29.6004V7.74365H28.9698Z" fill="black"/>
<path d="M6 10.7437V9.18848H7.10312V10.7437H6Z" fill="black"/>
<path d="M6.76642 10.7437V9.18848H8.34279V10.7437H6.76642Z" fill="black"/>
<path d="M8.16339 10.7437V9.18848H9.73976V10.7437H8.16339Z" fill="black"/>
<path d="M9.56035 10.7437V9.18848H10.9787V10.7437H9.56035Z" fill="black"/>
<path d="M10.7203 10.7437V9.18848H11.3509V10.7437H10.7203Z" fill="black"/>
<path d="M11.1708 10.7437V9.18848H13.2204V10.7437H11.1708Z" fill="black"/>
<path d="M13.2773 10.7437V9.18848H14.5377V10.7437H13.2773Z" fill="black"/>
<path d="M14.3583 10.7437V9.18848H15.7767V10.7437H14.3583Z" fill="black"/>
<path d="M15.6763 10.7437V9.18848H17.2527V10.7437H15.6763Z" fill="black"/>
<path d="M16.9153 10.7437V9.18848H17.5458V10.7437H16.9153Z" fill="black"/>
<path d="M17.3657 10.7437V9.18848H18.6268V10.7437H17.3657Z" fill="black"/>
<path d="M18.4481 10.7437V9.18848H19.7085V10.7437H18.4481Z" fill="black"/>
<path d="M19.5291 10.7437V9.18848H20.9475V10.7437H19.5291Z" fill="black"/>
<path d="M20.6309 10.7437V9.18848H22.8378V10.7437H20.6309Z" fill="black"/>
<path d="M22.5004 10.7437V9.18848H24.0768V10.7437H22.5004Z" fill="black"/>
<path d="M23.8184 10.7437V9.18848H25.2368V10.7437H23.8184Z" fill="black"/>
<path d="M24.9202 10.7437V9.18848H26.4966V10.7437H24.9202Z" fill="black"/>
<path d="M26.2382 10.7437V9.18848H26.8687V10.7437H26.2382Z" fill="black"/>
<path d="M26.6886 10.7437V9.18848H27.7917V10.7437H26.6886Z" fill="black"/>
<path d="M27.771 10.7437V9.18848H29.1894V10.7437H27.771Z" fill="black"/>
<path d="M29.01 10.7437V9.18848H29.6405V10.7437H29.01Z" fill="black"/>
<path d="M6.15798 13.7437V12.1885H7.57638V13.7437H6.15798Z" fill="black"/>
<path d="M7.31798 13.7437V12.1885H8.73637V13.7437H7.31798Z" fill="black"/>
<path d="M8.41976 13.7437V12.1885H9.99614V13.7437H8.41976Z" fill="black"/>
<path d="M9.65875 13.7437V12.1885H11.0771V13.7437H9.65875Z" fill="black"/>
<path d="M10.8589 13.7437V12.1885H12.4353V13.7437H10.8589Z" fill="black"/>
<path d="M12.2559 13.7437V12.1885H13.6743V13.7437H12.2559Z" fill="black"/>
<path d="M13.4949 13.7437V12.1885H14.598V13.7437H13.4949Z" fill="black"/>
<path d="M14.2613 13.7437V12.1885H15.3644V13.7437H14.2613Z" fill="black"/>
<path d="M15.3437 13.7437V12.1885H16.7621V13.7437H15.3437Z" fill="black"/>
<path d="M16.5827 13.7437V12.1885H18.159V13.7437H16.5827Z" fill="black"/>
<path d="M17.9796 13.7437V12.1885H18.6102V13.7437H17.9796Z" fill="black"/>
<path d="M18.4301 13.7437V12.1885H20.0065V13.7437H18.4301Z" fill="black"/>
<path d="M19.7481 13.7437V12.1885H20.3786V13.7437H19.7481Z" fill="black"/>
<path d="M20.1985 13.7437V12.1885H21.6169V13.7437H20.1985Z" fill="black"/>
<path d="M21.5165 13.7437V12.1885H23.0929V13.7437H21.5165Z" fill="black"/>
<path d="M22.7555 13.7437V12.1885H24.1739V13.7437H22.7555Z" fill="black"/>
<path d="M23.8573 13.7437V12.1885H24.9604V13.7437H23.8573Z" fill="black"/>
<path d="M24.7817 13.7437V12.1885H26.0428V13.7437H24.7817Z" fill="black"/>
<path d="M25.7061 13.7437V12.1885H26.8092V13.7437H25.7061Z" fill="black"/>
<path d="M26.6305 13.7437V12.1885H28.2068V13.7437H26.6305Z" fill="black"/>
<path d="M28.1064 13.7437V12.1885H29.5248V13.7437H28.1064Z" fill="black"/>
<path d="M29.1874 13.7437V12.1885H30.2905V13.7437H29.1874Z" fill="black"/>
<path d="M30.1118 13.7437V12.1885H31.6882V13.7437H30.1118Z" fill="black"/>
<path d="M31.3508 13.7437V12.1885H31.9814V13.7437H31.3508Z" fill="black"/>
<path d="M6 16.7437V15.1885H7.57638V16.7437H6Z" fill="black"/>
<path d="M7.47596 16.7437V15.1885H8.89435V16.7437H7.47596Z" fill="black"/>
<path d="M8.71494 16.7437V15.1885H10.2913V16.7437H8.71494Z" fill="black"/>
<path d="M10.0329 16.7437V15.1885H10.6635V16.7437H10.0329Z" fill="black"/>
<path d="M10.4834 16.7437V15.1885H11.9018V16.7437H10.4834Z" fill="black"/>
<path d="M11.8013 16.7437V15.1885H13.0618V16.7437H11.8013Z" fill="black"/>
<path d="M12.8823 16.7437V15.1885H14.932V16.7437H12.8823Z" fill="black"/>
<path d="M14.9889 16.7437V15.1885H16.4073V16.7437H14.9889Z" fill="black"/>
<path d="M16.1488 16.7437V15.1885H17.252V16.7437H16.1488Z" fill="black"/>
<path d="M17.0733 16.7437V15.1885H18.6496V16.7437H17.0733Z" fill="black"/>
<path d="M18.3122 16.7437V15.1885H19.4154V16.7437H18.3122Z" fill="black"/>
<path d="M19.0787 16.7437V15.1885H20.655V16.7437H19.0787Z" fill="black"/>
<path d="M20.3176 16.7437V15.1885H20.9482V16.7437H20.3176Z" fill="black"/>
<path d="M6 19.7437V18.1885H7.57638V19.7437H6Z" fill="black"/>
<path d="M7.31798 19.7437V18.1885H8.42109V19.7437H7.31798Z" fill="black"/>
<path d="M8.24238 19.7437V18.1885H9.66077V19.7437H8.24238Z" fill="black"/>
<path d="M9.44256 19.7437V18.1885H11.4922V19.7437H9.44256Z" fill="black"/>
<path d="M11.3911 19.7437V18.1885H12.9675V19.7437H11.3911Z" fill="black"/>
<path d="M12.867 19.7437V18.1885H14.2854V19.7437H12.867Z" fill="black"/>
<path d="M14.106 19.7437V18.1885H15.2091V19.7437H14.106Z" fill="black"/>
<path d="M14.8724 19.7437V18.1885H15.9756V19.7437H14.8724Z" fill="black"/>
<path d="M15.7969 19.7437V18.1885H16.9V19.7437H15.7969Z" fill="black"/>
<path d="M16.8792 19.7437V18.1885H18.2976V19.7437H16.8792Z" fill="black"/>
<path d="M18.1182 19.7437V18.1885H19.6946V19.7437H18.1182Z" fill="black"/>
<path d="M19.5152 19.7437V18.1885H20.1457V19.7437H19.5152Z" fill="black"/>
<path d="M19.9656 19.7437V18.1885H21.542V19.7437H19.9656Z" fill="black"/>
<path d="M21.4416 19.7437V18.1885H22.86V19.7437H21.4416Z" fill="black"/>
<path d="M22.6806 19.7437V18.1885H24.257V19.7437H22.6806Z" fill="black"/>
<path d="M23.9986 19.7437V18.1885H24.6291V19.7437H23.9986Z" fill="black"/>
<path d="M6 22.7437V21.1885H7.57638V22.7437H6Z" fill="black"/>
<path d="M7.31798 22.7437V21.1885H8.89435V22.7437H7.31798Z" fill="black"/>
<path d="M8.71494 22.7437V21.1885H10.1333V22.7437H8.71494Z" fill="black"/>
<path d="M9.95393 22.7437V21.1885H11.5303V22.7437H9.95393Z" fill="black"/>
<path d="M11.3509 22.7437V21.1885H12.7693V22.7437H11.3509Z" fill="black"/>
<path d="M12.5109 22.7437V21.1885H13.614V22.7437H12.5109Z" fill="black"/>
<path d="M13.4353 22.7437V21.1885H15.0117V22.7437H13.4353Z" fill="black"/>
<path d="M14.6743 22.7437V21.1885H16.2507V22.7437H14.6743Z" fill="black"/>
<path d="M15.9923 22.7437V21.1885H17.4106V22.7437H15.9923Z" fill="black"/>
<path d="M17.094 22.7437V21.1885H18.1972V22.7437H17.094Z" fill="black"/>
<path d="M18.1764 22.7437V21.1885H19.4368V22.7437H18.1764Z" fill="black"/>
<path d="M19.159 22.7437V21.1885H20.7354V22.7437H19.159Z" fill="black"/>
<path d="M20.477 22.7437V21.1885H21.5801V22.7437H20.477Z" fill="black"/>
<path d="M21.2434 22.7437V21.1885H22.3465V22.7437H21.2434Z" fill="black"/>
<path d="M22.3258 22.7437V21.1885H23.5862V22.7437H22.3258Z" fill="black"/>
<path d="M23.5648 22.7437V21.1885H24.9832V22.7437H23.5648Z" fill="black"/>
<path d="M24.8038 22.7437V21.1885H25.5916V22.7437H24.8038Z" fill="black"/>
<path d="M25.3332 22.7437V21.1885H25.9638V22.7437H25.3332Z" fill="black"/>
<path d="M25.7837 22.7437V21.1885H27.9906V22.7437H25.7837Z" fill="black"/>
<path d="M27.7322 22.7437V21.1885H29.3086V22.7437H27.7322Z" fill="black"/>
<path d="M28.9712 22.7437V21.1885H29.6017V22.7437H28.9712Z" fill="black"/>
<path d="M6 25.7437V24.1885H7.57638V25.7437H6Z" fill="black"/>
<path d="M7.39697 25.7437V24.1885H8.97335V25.7437H7.39697Z" fill="black"/>
<path d="M8.63595 25.7437V24.1885H10.0543V25.7437H8.63595Z" fill="black"/>
<path d="M9.95393 25.7437V24.1885H11.5303V25.7437H9.95393Z" fill="black"/>
<path d="M11.1929 25.7437V24.1885H11.8235V25.7437H11.1929Z" fill="black"/>
<path d="M11.6434 25.7437V24.1885H13.2197V25.7437H11.6434Z" fill="black"/>
<path d="M12.9613 25.7437V24.1885H13.5919V25.7437H12.9613Z" fill="black"/>
<path d="M13.4118 25.7437V24.1885H14.9882V25.7437H13.4118Z" fill="black"/>
<path d="M14.8088 25.7437V24.1885H16.2271V25.7437H14.8088Z" fill="black"/>
<path d="M15.9105 25.7437V24.1885H17.4869V25.7437H15.9105Z" fill="black"/>
<path d="M17.1495 25.7437V24.1885H18.7259V25.7437H17.1495Z" fill="black"/>
<path d="M18.4675 25.7437V24.1885H19.5706V25.7437H18.4675Z" fill="black"/>
<path d="M19.2339 25.7437V24.1885H19.8645V25.7437H19.2339Z" fill="black"/>
<path d="M19.8424 25.7437V24.1885H21.1028V25.7437H19.8424Z" fill="black"/>
<path d="M21.0813 25.7437V24.1885H22.4997V25.7437H21.0813Z" fill="black"/>
<path d="M22.2413 25.7437V24.1885H23.8177V25.7437H22.2413Z" fill="black"/>
<path d="M23.6383 25.7437V24.1885H25.0567V25.7437H23.6383Z" fill="black"/>
<path d="M25.0353 25.7437V24.1885H26.4537V25.7437H25.0353Z" fill="black"/>
<path d="M26.2743 25.7437V24.1885H27.8506V25.7437H26.2743Z" fill="black"/>
<path d="M27.5132 25.7437V24.1885H28.9316V25.7437H27.5132Z" fill="black"/>
<path d="M28.7134 25.7437V24.1885H30.1318V25.7437H28.7134Z" fill="black"/>
<path d="M29.9136 25.7437V24.1885H30.5441V25.7437H29.9136Z" fill="black"/>
<path d="M30.364 25.7437V24.1885H31.4672V25.7437H30.364Z" fill="black"/>
<path d="M31.2884 25.7437V24.1885H32.5489V25.7437H31.2884Z" fill="black"/>
<path d="M32.3694 25.7437V24.1885H33V25.7437H32.3694Z" fill="black"/>
<path d="M6 28.7437V27.1885H8.20693V28.7437H6Z" fill="black"/>
<path d="M8.10651 28.7437V27.1885H9.36692V28.7437H8.10651Z" fill="black"/>
<path d="M9.18751 28.7437V27.1885H10.6059V28.7437H9.18751Z" fill="black"/>
<path d="M10.2893 28.7437V27.1885H11.8657V28.7437H10.2893Z" fill="black"/>
<path d="M11.6475 28.7437V27.1885H12.7506V28.7437H11.6475Z" fill="black"/>
<path d="M12.7299 28.7437V27.1885H14.1482V28.7437H12.7299Z" fill="black"/>
<path d="M13.9688 28.7437V27.1885H15.5452V28.7437H13.9688Z" fill="black"/>
<path d="M15.3658 28.7437V27.1885H15.9964V28.7437H15.3658Z" fill="black"/>
<path d="M15.8163 28.7437V27.1885H18.0232V28.7437H15.8163Z" fill="black"/>
<path d="M17.7648 28.7437V27.1885H18.8679V28.7437H17.7648Z" fill="black"/>
<path d="M18.6892 28.7437V27.1885H19.7923V28.7437H18.6892Z" fill="black"/>
<path d="M19.4556 28.7437V27.1885H21.032V28.7437H19.4556Z" fill="black"/>
<path d="M20.8526 28.7437V27.1885H21.4831V28.7437H20.8526Z" fill="black"/>
<path d="M21.303 28.7437V27.1885H22.4061V28.7437H21.303Z" fill="black"/>
<path d="M22.0694 28.7437V27.1885H23.6458V28.7437H22.0694Z" fill="black"/>
<path d="M23.4664 28.7437V27.1885H25.0428V28.7437H23.4664Z" fill="black"/>
<path d="M24.7054 28.7437V27.1885H26.755V28.7437H24.7054Z" fill="black"/>
<path d="M27.0714 28.6681C27.0714 28.6335 27.0799 28.6093 27.0969 28.5953C27.1139 28.5813 27.1343 28.5743 27.1579 28.5743C27.1825 28.5743 27.2033 28.5813 27.2204 28.5953C27.2383 28.6093 27.2473 28.6335 27.2473 28.6681C27.2473 28.7017 27.2383 28.7259 27.2204 28.7409C27.2033 28.7558 27.1825 28.7633 27.1579 28.7633C27.1343 28.7633 27.1139 28.7558 27.0969 28.7409C27.0799 28.7259 27.0714 28.7017 27.0714 28.6681ZM27.4432 28.6681C27.4432 28.6335 27.4517 28.6093 27.4687 28.5953C27.4857 28.5813 27.5061 28.5743 27.5297 28.5743C27.5543 28.5743 27.5751 28.5813 27.5922 28.5953C27.6101 28.6093 27.6191 28.6335 27.6191 28.6681C27.6191 28.7017 27.6101 28.7259 27.5922 28.7409C27.5751 28.7558 27.5543 28.7633 27.5297 28.7633C27.5061 28.7633 27.4857 28.7558 27.4687 28.7409C27.4517 28.7259 27.4432 28.7017 27.4432 28.6681ZM27.8135 28.6681C27.8135 28.6335 27.8221 28.6093 27.8391 28.5953C27.8561 28.5813 27.8765 28.5743 27.9001 28.5743C27.9247 28.5743 27.9455 28.5813 27.9625 28.5953C27.9805 28.6093 27.9895 28.6335 27.9895 28.6681C27.9895 28.7017 27.9805 28.7259 27.9625 28.7409C27.9455 28.7558 27.9247 28.7633 27.9001 28.7633C27.8765 28.7633 27.8561 28.7558 27.8391 28.7409C27.8221 28.7259 27.8135 28.7017 27.8135 28.6681Z" fill="black"/>
<path d="M27.7197 28.7437V27.1885H28.3502V28.7437H27.7197Z" fill="black"/>
<path d="M28.1701 28.7437V27.1885H29.4312V28.7437H28.1701Z" fill="black"/>
<path d="M29.2511 28.7437V27.1885H30.3542V28.7437H29.2511Z" fill="black"/>
<path d="M30.0175 28.7437V27.1885H30.8054V28.7437H30.0175Z" fill="black"/>
<path d="M30.626 28.7437V27.1885H32.0444V28.7437H30.626Z" fill="black"/>
<path d="M31.8261 28.7437V27.1885H32.4567V28.7437H31.8261Z" fill="black"/>
<path d="M6.15798 31.7437V30.1885H7.57638V31.7437H6.15798Z" fill="black"/>
<path d="M7.55495 31.7437V30.1885H8.81536V31.7437H7.55495Z" fill="black"/>
<path d="M8.63595 31.7437V30.1885H9.73907V31.7437H8.63595Z" fill="black"/>
<path d="M9.40237 31.7437V30.1885H10.0329V31.7437H9.40237Z" fill="black"/>
<path d="M10.0108 31.7437V30.1885H11.2712V31.7437H10.0108Z" fill="black"/>
<path d="M11.2498 31.7437V30.1885H12.6682V31.7437H11.2498Z" fill="black"/>
<path d="M12.4888 31.7437V30.1885H13.5919V31.7437H12.4888Z" fill="black"/>
<path d="M13.4922 31.7437V30.1885H14.9106V31.7437H13.4922Z" fill="black"/>
<path d="M14.6522 31.7437V30.1885H15.2827V31.7437H14.6522Z" fill="black"/>
<path d="M15.2606 31.7437V30.1885H16.521V31.7437H15.2606Z" fill="black"/>
<path d="M16.4996 31.7437V30.1885H17.918V31.7437H16.4996Z" fill="black"/>
<path d="M17.7386 31.7437V30.1885H18.3691V31.7437H17.7386Z" fill="black"/>
<path d="M18.189 31.7437V30.1885H19.2921V31.7437H18.189Z" fill="black"/>
<path d="M18.9554 31.7437V30.1885H20.5318V31.7437H18.9554Z" fill="black"/>
<path d="M20.3524 31.7437V30.1885H21.9288V31.7437H20.3524Z" fill="black"/>
<path d="M21.5914 31.7437V30.1885H22.2219V31.7437H21.5914Z" fill="black"/>
<path d="M6 34.7437V33.1885H7.57638V34.7437H6Z" fill="black"/>
<path d="M7.31798 34.7437V33.1885H8.42109V34.7437H7.31798Z" fill="black"/>
<path d="M8.40036 34.7437V33.1885H9.81876V34.7437H8.40036Z" fill="black"/>
<path d="M9.56035 34.7437V33.1885H10.6635V34.7437H9.56035Z" fill="black"/>
<path d="M10.6427 34.7437V33.1885H11.9031V34.7437H10.6427Z" fill="black"/>
<path d="M11.7237 34.7437V33.1885H13.7734V34.7437H11.7237Z" fill="black"/>
<path d="M13.6723 34.7437V33.1885H15.2486V34.7437H13.6723Z" fill="black"/>
<path d="M14.9902 34.7437V33.1885H16.0934V34.7437H14.9902Z" fill="black"/>
<path d="M15.7567 34.7437V33.1885H16.8598V34.7437H15.7567Z" fill="black"/>
<path d="M16.6811 34.7437V33.1885H18.0995V34.7437H16.6811Z" fill="black"/>
<path d="M17.8411 34.7437V33.1885H18.4716V34.7437H17.8411Z" fill="black"/>
<path d="M18.2915 34.7437V33.1885H19.5526V34.7437H18.2915Z" fill="black"/>
<path d="M19.2159 34.7437V33.1885H20.6343V34.7437H19.2159Z" fill="black"/>
<path d="M20.4757 34.7437V33.1885H21.7361V34.7437H20.4757Z" fill="black"/>
<path d="M21.7147 34.7437V33.1885H23.1331V34.7437H21.7147Z" fill="black"/>
<path d="M22.9536 34.7437V33.1885H24.0568V34.7437H22.9536Z" fill="black"/>
<path d="M24.1375 34.6681C24.1375 34.6335 24.146 34.6093 24.1631 34.5953C24.1801 34.5813 24.2004 34.5743 24.2241 34.5743C24.2487 34.5743 24.2695 34.5813 24.2865 34.5953C24.3045 34.6093 24.3135 34.6335 24.3135 34.6681C24.3135 34.7017 24.3045 34.7259 24.2865 34.7409C24.2695 34.7558 24.2487 34.7633 24.2241 34.7633C24.2004 34.7633 24.1801 34.7558 24.1631 34.7409C24.146 34.7259 24.1375 34.7017 24.1375 34.6681ZM24.5093 34.6681C24.5093 34.6335 24.5178 34.6093 24.5349 34.5953C24.5519 34.5813 24.5722 34.5743 24.5959 34.5743C24.6205 34.5743 24.6413 34.5813 24.6583 34.5953C24.6763 34.6093 24.6853 34.6335 24.6853 34.6681C24.6853 34.7017 24.6763 34.7259 24.6583 34.7409C24.6413 34.7558 24.6205 34.7633 24.5959 34.7633C24.5722 34.7633 24.5519 34.7558 24.5349 34.7409C24.5178 34.7259 24.5093 34.7017 24.5093 34.6681ZM24.8797 34.6681C24.8797 34.6335 24.8882 34.6093 24.9052 34.5953C24.9223 34.5813 24.9426 34.5743 24.9663 34.5743C24.9909 34.5743 25.0117 34.5813 25.0287 34.5953C25.0467 34.6093 25.0557 34.6335 25.0557 34.6681C25.0557 34.7017 25.0467 34.7259 25.0287 34.7409C25.0117 34.7558 24.9909 34.7633 24.9663 34.7633C24.9426 34.7633 24.9223 34.7558 24.9052 34.7409C24.8882 34.7259 24.8797 34.7017 24.8797 34.6681Z" fill="black"/>
<path d="M24.7858 34.7437V33.1885H25.4164V34.7437H24.7858Z" fill="black"/>
<path d="M25.2363 34.7437V33.1885H26.3394V34.7437H25.2363Z" fill="black"/>
<path d="M26.0027 34.7437V33.1885H27.5791V34.7437H26.0027Z" fill="black"/>
<path d="M27.3997 34.7437V33.1885H28.976V34.7437H27.3997Z" fill="black"/>
<path d="M28.6386 34.7437V33.1885H29.2692V34.7437H28.6386Z" fill="black"/>
<path d="M6 37.7437V36.1885H7.73436V37.7437H6Z" fill="black"/>
<path d="M7.59376 37.7437V36.1885H9.01215V37.7437H7.59376Z" fill="black"/>
<path d="M8.83274 37.7437V36.1885H9.93586V37.7437H8.83274Z" fill="black"/>
<path d="M9.75714 37.7437V36.1885H10.8603V37.7437H9.75714Z" fill="black"/>
<path d="M10.5236 37.7437V36.1885H12.0999V37.7437H10.5236Z" fill="black"/>
<path d="M11.7625 37.7437V36.1885H13.3389V37.7437H11.7625Z" fill="black"/>
<path d="M13.0805 37.7437V36.1885H13.7111V37.7437H13.0805Z" fill="black"/>
<path d="M13.531 37.7437V36.1885H14.9494V37.7437H13.531Z" fill="black"/>
<path d="M14.8489 37.7437V36.1885H15.9521V37.7437H14.8489Z" fill="black"/>
<path d="M15.6154 37.7437V36.1885H17.1917V37.7437H15.6154Z" fill="black"/>
<path d="M16.9333 37.7437V36.1885H18.0365V37.7437H16.9333Z" fill="black"/>
<path d="M17.6998 37.7437V36.1885H19.2761V37.7437H17.6998Z" fill="black"/>
<path d="M18.9387 37.7437V36.1885H20.3571V37.7437H18.9387Z" fill="black"/>
<path d="M20.1389 37.7437V36.1885H20.7695V37.7437H20.1389Z" fill="black"/>
<path d="M20.5894 37.7437V36.1885H21.2199V37.7437H20.5894Z" fill="black"/>
<path d="M21.0398 37.7437V36.1885H22.6162V37.7437H21.0398Z" fill="black"/>
<path d="M22.4368 37.7437V36.1885H24.0132V37.7437H22.4368Z" fill="black"/>
<path d="M23.7548 37.7437V36.1885H25.1732V37.7437H23.7548Z" fill="black"/>
<path d="M24.9549 37.7437V36.1885H25.7428V37.7437H24.9549Z" fill="black"/>
<path d="M25.5634 37.7437V36.1885H26.1939V37.7437H25.5634Z" fill="black"/>
<path d="M26.0138 37.7437V36.1885H27.5902V37.7437H26.0138Z" fill="black"/>
<path d="M27.3318 37.7437V36.1885H27.9624V37.7437H27.3318Z" fill="black"/>
<path d="M6 40.7437V39.1885H8.20693V40.7437H6Z" fill="black"/>
<path d="M7.94853 40.7437V39.1885H9.05165V40.7437H7.94853Z" fill="black"/>
<path d="M8.87293 40.7437V39.1885H9.97605V40.7437H8.87293Z" fill="black"/>
<path d="M9.79733 40.7437V39.1885H10.9004V40.7437H9.79733Z" fill="black"/>
<path d="M10.7217 40.7437V39.1885H11.8248V40.7437H10.7217Z" fill="black"/>
<path d="M11.8041 40.7437V39.1885H13.2225V40.7437H11.8041Z" fill="black"/>
<path d="M13.0431 40.7437V39.1885H14.6195V40.7437H13.0431Z" fill="black"/>
<path d="M14.5981 40.7437V39.1885H16.0164V40.7437H14.5981Z" fill="black"/>
<path d="M15.837 40.7437V39.1885H17.4134V40.7437H15.837Z" fill="black"/>
<path d="M17.076 40.7437V39.1885H18.4944V40.7437H17.076Z" fill="black"/>
<path d="M18.2762 40.7437V39.1885H19.6946V40.7437H18.2762Z" fill="black"/>
<path d="M19.4764 40.7437V39.1885H20.1069V40.7437H19.4764Z" fill="black"/>
<path d="M19.9268 40.7437V39.1885H21.03V40.7437H19.9268Z" fill="black"/>
<path d="M20.8512 40.7437V39.1885H22.1116V40.7437H20.8512Z" fill="black"/>
<path d="M21.9322 40.7437V39.1885H22.5628V40.7437H21.9322Z" fill="black"/>
<path d="M22.3827 40.7437V39.1885H23.9591V40.7437H22.3827Z" fill="black"/>
<path d="M23.7797 40.7437V39.1885H25.356V40.7437H23.7797Z" fill="black"/>
<path d="M25.0186 40.7437V39.1885H26.1218V40.7437H25.0186Z" fill="black"/>
<path d="M26.101 40.7437V39.1885H27.5194V40.7437H26.101Z" fill="black"/>
<path d="M27.261 40.7437V39.1885H27.8916V40.7437H27.261Z" fill="black"/>
<path d="M27.7115 40.7437V39.1885H28.8146V40.7437H27.7115Z" fill="black"/>
<path d="M28.4779 40.7437V39.1885H30.0543V40.7437H28.4779Z" fill="black"/>
<path d="M29.8748 40.7437V39.1885H31.4512V40.7437H29.8748Z" fill="black"/>
<path d="M31.1138 40.7437V39.1885H31.7444V40.7437H31.1138Z" fill="black"/>
<path d="M6.15798 43.7437V42.1885H7.57638V43.7437H6.15798Z" fill="black"/>
<path d="M7.31798 43.7437V42.1885H8.89435V43.7437H7.31798Z" fill="black"/>
<path d="M8.71494 43.7437V42.1885H9.97535V43.7437H8.71494Z" fill="black"/>
<path d="M9.95393 43.7437V42.1885H11.3723V43.7437H9.95393Z" fill="black"/>
<path d="M11.1139 43.7437V42.1885H12.217V43.7437H11.1139Z" fill="black"/>
<path d="M12.0383 43.7437V42.1885H13.6147V43.7437H12.0383Z" fill="black"/>
<path d="M13.2773 43.7437V42.1885H13.9079V43.7437H13.2773Z" fill="black"/>
<path d="M13.8857 43.7437V42.1885H15.1461V43.7437H13.8857Z" fill="black"/>
<path d="M14.9667 43.7437V42.1885H16.2278V43.7437H14.9667Z" fill="black"/>
<path d="M15.8911 43.7437V42.1885H16.5217V43.7437H15.8911Z" fill="black"/>
<path d="M16.3416 43.7437V42.1885H18.076V43.7437H16.3416Z" fill="black"/>
<path d="M17.9159 43.7437V42.1885H19.1764V43.7437H17.9159Z" fill="black"/>
<path d="M18.9969 43.7437V42.1885H20.4153V43.7437H18.9969Z" fill="black"/>
<path d="M20.0987 43.7437V42.1885H21.2019V43.7437H20.0987Z" fill="black"/>
<path d="M20.8651 43.7437V42.1885H22.4415V43.7437H20.8651Z" fill="black"/>
<path d="M22.2621 43.7437V42.1885H22.8927V43.7437H22.2621Z" fill="black"/>
<path d="M22.7126 43.7437V42.1885H24.4469V43.7437H22.7126Z" fill="black"/>
<path d="M24.3465 43.7437V42.1885H25.6069V43.7437H24.3465Z" fill="black"/>
<path d="M25.4275 43.7437V42.1885H26.8459V43.7437H25.4275Z" fill="black"/>
<path d="M26.5293 43.7437V42.1885H28.1057V43.7437H26.5293Z" fill="black"/>
<path d="M27.7683 43.7437V42.1885H29.3447V43.7437H27.7683Z" fill="black"/>
<path d="M29.0863 43.7437V42.1885H29.8741V43.7437H29.0863Z" fill="black"/>
<path d="M29.6157 43.7437V42.1885H30.2463V43.7437H29.6157Z" fill="black"/>
<path d="M6.15798 46.7437V45.1885H7.57638V46.7437H6.15798Z" fill="black"/>
<path d="M7.55495 46.7437V45.1885H8.81536V46.7437H7.55495Z" fill="black"/>
<path d="M8.63595 46.7437V45.1885H9.73907V46.7437H8.63595Z" fill="black"/>
<path d="M9.40237 46.7437V45.1885H10.0329V46.7437H9.40237Z" fill="black"/>
<path d="M9.85282 46.7437V45.1885H10.7986V46.7437H9.85282Z" fill="black"/>
<path d="M10.5402 46.7437V45.1885H12.1166V46.7437H10.5402Z" fill="black"/>
<path d="M11.9372 46.7437V45.1885H13.3556V46.7437H11.9372Z" fill="black"/>
<path d="M13.1374 46.7437V45.1885H14.2405V46.7437H13.1374Z" fill="black"/>
<path d="M13.9038 46.7437V45.1885H14.5344V46.7437H13.9038Z" fill="black"/>
<path d="M14.3543 46.7437V45.1885H15.4574V46.7437H14.3543Z" fill="black"/>
<path d="M15.4366 46.7437V45.1885H16.855V46.7437H15.4366Z" fill="black"/>
<path d="M16.6756 46.7437V45.1885H17.3062V46.7437H16.6756Z" fill="black"/>
<path d="M17.2841 46.7437V45.1885H18.7025V46.7437H17.2841Z" fill="black"/>
<path d="M18.523 46.7437V45.1885H20.0994V46.7437H18.523Z" fill="black"/>
<path d="M19.841 46.7437V45.1885H21.2594V46.7437H19.841Z" fill="black"/>
<path d="M20.9428 46.7437V45.1885H22.3612V46.7437H20.9428Z" fill="black"/>
<path d="M22.2026 46.7437V45.1885H23.463V46.7437H22.2026Z" fill="black"/>
<path d="M23.2836 46.7437V45.1885H25.4905V46.7437H23.2836Z" fill="black"/>
<path d="M25.2321 46.7437V45.1885H25.8627V46.7437H25.2321Z" fill="black"/>
<path d="M25.6826 46.7437V45.1885H27.8895V46.7437H25.6826Z" fill="black"/>
<path d="M27.5521 46.7437V45.1885H29.1285V46.7437H27.5521Z" fill="black"/>
<path d="M28.9491 46.7437V45.1885H30.3675V46.7437H28.9491Z" fill="black"/>
<path d="M30.1091 46.7437V45.1885H31.5274V46.7437H30.1091Z" fill="black"/>
<path d="M31.3092 46.7437V45.1885H31.9398V46.7437H31.3092Z" fill="black"/>
<path d="M6 49.7437V48.1885H8.20693V49.7437H6Z" fill="black"/>
<path d="M7.94853 49.7437V48.1885H9.05165V49.7437H7.94853Z" fill="black"/>
<path d="M8.87293 49.7437V48.1885H9.97605V49.7437H8.87293Z" fill="black"/>
<path d="M9.63935 49.7437V48.1885H11.2157V49.7437H9.63935Z" fill="black"/>
<path d="M11.0363 49.7437V48.1885H11.6669V49.7437H11.0363Z" fill="black"/>
<path d="M11.4868 49.7437V48.1885H12.7479V49.7437H11.4868Z" fill="black"/>
<path d="M12.5691 49.7437V48.1885H13.8296V49.7437H12.5691Z" fill="black"/>
<path d="M13.8081 49.7437V48.1885H15.0685V49.7437H13.8081Z" fill="black"/>
<path d="M14.8891 49.7437V48.1885H16.4655V49.7437H14.8891Z" fill="black"/>
<path d="M16.2071 49.7437V48.1885H16.8377V49.7437H16.2071Z" fill="black"/>
<path d="M16.6576 49.7437V48.1885H18.2339V49.7437H16.6576Z" fill="black"/>
<path d="M18.1335 49.7437V48.1885H19.5519V49.7437H18.1335Z" fill="black"/>
<path d="M19.3725 49.7437V48.1885H20.9489V49.7437H19.3725Z" fill="black"/>
<path d="M20.6905 49.7437V48.1885H21.321V49.7437H20.6905Z" fill="black"/>
<path d="M21.1409 49.7437V48.1885H22.402V49.7437H21.1409Z" fill="black"/>
<path d="M22.0653 49.7437V48.1885H23.6417V49.7437H22.0653Z" fill="black"/>
<path d="M23.4623 49.7437V48.1885H25.0387V49.7437H23.4623Z" fill="black"/>
<path d="M24.7013 49.7437V48.1885H25.8044V49.7437H24.7013Z" fill="black"/>
<path d="M25.6257 49.7437V48.1885H26.2562V49.7437H25.6257Z" fill="black"/>
<path d="M26.2341 49.7437V48.1885H27.6525V49.7437H26.2341Z" fill="black"/>
<path d="M27.3151 49.7437V48.1885H28.8915V49.7437H27.3151Z" fill="black"/>
<path d="M28.7121 49.7437V48.1885H29.8152V49.7437H28.7121Z" fill="black"/>
<path d="M29.4785 49.7437V48.1885H30.1091V49.7437H29.4785Z" fill="black"/>
<path d="M6 52.7437V51.1885H8.20693V52.7437H6Z" fill="black"/>
<path d="M7.94853 52.7437V51.1885H9.05165V52.7437H7.94853Z" fill="black"/>
<path d="M8.87293 52.7437V51.1885H9.97605V52.7437H8.87293Z" fill="black"/>
<path d="M9.63935 52.7437V51.1885H11.2157V52.7437H9.63935Z" fill="black"/>
<path d="M11.0363 52.7437V51.1885H11.6669V52.7437H11.0363Z" fill="black"/>
<path d="M11.4868 52.7437V51.1885H13.0631V52.7437H11.4868Z" fill="black"/>
<path d="M12.8837 52.7437V51.1885H14.3021V52.7437H12.8837Z" fill="black"/>
<path d="M14.1227 52.7437V51.1885H15.6991V52.7437H14.1227Z" fill="black"/>
<path d="M15.3617 52.7437V51.1885H16.7801V52.7437H15.3617Z" fill="black"/>
<path d="M16.4635 52.7437V51.1885H18.0399V52.7437H16.4635Z" fill="black"/>
<path d="M18.0184 52.7437V51.1885H19.4368V52.7437H18.0184Z" fill="black"/>
<path d="M19.1784 52.7437V51.1885H19.809V52.7437H19.1784Z" fill="black"/>
<path d="M19.6289 52.7437V51.1885H21.2053V52.7437H19.6289Z" fill="black"/>
<path d="M20.9469 52.7437V51.1885H22.3653V52.7437H20.9469Z" fill="black"/>
<path d="M22.147 52.7437V51.1885H23.5654V52.7437H22.147Z" fill="black"/>
<path d="M23.3472 52.7437V51.1885H24.4503V52.7437H23.3472Z" fill="black"/>
<path d="M24.2716 52.7437V51.1885H25.69V52.7437H24.2716Z" fill="black"/>
<path d="M25.4718 52.7437V51.1885H26.5749V52.7437H25.4718Z" fill="black"/>
<path d="M26.2382 52.7437V51.1885H27.8146V52.7437H26.2382Z" fill="black"/>
<path d="M27.7142 52.7437V51.1885H29.1326V52.7437H27.7142Z" fill="black"/>
<path d="M28.9532 52.7437V51.1885H30.3716V52.7437H28.9532Z" fill="black"/>
<path d="M30.1132 52.7437V51.1885H31.6895V52.7437H30.1132Z" fill="black"/>
<path d="M31.3521 52.7437V51.1885H32.14V52.7437H31.3521Z" fill="black"/>
<path d="M31.8816 52.7437V51.1885H32.6694V52.7437H31.8816Z" fill="black"/>
<path d="M6.31528 7.63906H29.2851V7.70879H6.31528V7.63906ZM6.31528 10.6391H29.3253V10.7088H6.31528V10.6391ZM6.31528 13.6391H31.6661V13.7088H6.31528V13.6391ZM6.31528 16.6391H20.6329V16.7088H6.31528V16.6391ZM6.31528 19.6391H24.3138V19.7088H6.31528V19.6391ZM6.31528 22.6391H29.2865V22.7088H6.31528V22.6391ZM6.31528 25.6391H32.6847V25.7088H6.31528V25.6391ZM6.31528 28.6391H26.9692V28.7088H6.31528V28.6391ZM26.9692 28.9187H28.0349V28.9887H26.9692V28.9187ZM28.0349 28.6391H32.1407V28.7088H28.0349V28.6391ZM6.31528 31.6391H21.9067V31.7088H6.31528V31.6391ZM6.31528 34.6391H24.0346V34.7088H6.31528V34.6391ZM24.0353 34.9187H25.1011V34.9887H24.0353V34.9187ZM25.1011 34.6391H28.9539V34.7088H25.1011V34.6391ZM6.31528 37.6391H27.6471V37.7088H6.31528V37.6391ZM6.31528 40.6391H31.4291V40.7088H6.31528V40.6391ZM6.31528 43.6391H29.931V43.7088H6.31528V43.6391ZM6.31528 46.6391H31.6238V46.7088H6.31528V46.6391ZM6.31528 49.6391H29.7931V49.7088H6.31528V49.6391ZM6.31528 52.6391H32.8621V52.7088H6.31528V52.6391Z" fill="black"/>
</g>
<rect width="12" height="14" transform="translate(25 18.1885)" fill="white"/>
<path d="M31.4307 23.207C31.141 23.207 30.8838 23.264 30.6592 23.3779C30.4378 23.4886 30.2507 23.6497 30.0977 23.8613C29.9479 24.0729 29.834 24.3285 29.7559 24.6279C29.6777 24.9274 29.6387 25.2643 29.6387 25.6387C29.6387 26.1432 29.7005 26.5745 29.8242 26.9326C29.9512 27.2874 30.1465 27.5592 30.4102 27.748C30.6738 27.9336 31.014 28.0264 31.4307 28.0264C31.7204 28.0264 32.0101 27.9938 32.2998 27.9287C32.5928 27.8636 32.9102 27.7708 33.252 27.6504V28.9199C32.9362 29.0501 32.6253 29.1429 32.3193 29.1982C32.0133 29.2568 31.6699 29.2861 31.2891 29.2861C30.5534 29.2861 29.9479 29.1348 29.4727 28.832C29.0007 28.526 28.6507 28.0996 28.4229 27.5527C28.195 27.0026 28.0811 26.3613 28.0811 25.6289C28.0811 25.0885 28.1543 24.5938 28.3008 24.1445C28.4473 23.6953 28.6621 23.3063 28.9453 22.9775C29.2285 22.6488 29.5785 22.3949 29.9951 22.2158C30.4118 22.0368 30.8903 21.9473 31.4307 21.9473C31.7855 21.9473 32.1403 21.9928 32.4951 22.084C32.8532 22.1719 33.195 22.2939 33.5205 22.4502L33.0322 23.6807C32.7653 23.5537 32.4967 23.443 32.2266 23.3486C31.9564 23.2542 31.6911 23.207 31.4307 23.207Z" fill="#585858"/>
</g>
<path d="M11.3333 38.1885H2V44.5366H11.3333V38.1885Z" fill="#7FA4CA"/>
<path d="M21.6663 38.1885H12.333V44.5366H21.6663V38.1885Z" fill="#BB90BB"/>
</g>
<defs>
<filter id="filter0_d_238_43892" x="0" y="1.18848" width="39" height="35" filterUnits="userSpaceOnUse" color-interpolation-filters="sRGB">
<feFlood flood-opacity="0" result="BackgroundImageFix"/>
<feColorMatrix in="SourceAlpha" type="matrix" values="0 0 0 0 0 0 0 0 0 0 0 0 0 0 0 0 0 0 127 0" result="hardAlpha"/>
<feOffset dy="1"/>
<feGaussianBlur stdDeviation="1"/>
<feComposite in2="hardAlpha" operator="out"/>
<feColorMatrix type="matrix" values="0 0 0 0 0 0 0 0 0 0 0 0 0 0 0 0 0 0 0.1 0"/>
<feBlend mode="normal" in2="BackgroundImageFix" result="effect1_dropShadow_238_43892"/>
<feBlend mode="normal" in="SourceGraphic" in2="effect1_dropShadow_238_43892" result="shape"/>
</filter>
<filter id="filter1_i_238_43892" x="2" y="-2.81152" width="35" height="34" filterUnits="userSpaceOnUse" color-interpolation-filters="sRGB">
<feFlood flood-opacity="0" result="BackgroundImageFix"/>
<feBlend mode="normal" in="SourceGraphic" in2="BackgroundImageFix" result="shape"/>
<feColorMatrix in="SourceAlpha" type="matrix" values="0 0 0 0 0 0 0 0 0 0 0 0 0 0 0 0 0 0 127 0" result="hardAlpha"/>
<feOffset dy="-5"/>
<feGaussianBlur stdDeviation="3.5"/>
<feComposite in2="hardAlpha" operator="arithmetic" k2="-1" k3="1"/>
<feColorMatrix type="matrix" values="0 0 0 0 1 0 0 0 0 1 0 0 0 0 1 0 0 0 1 0"/>
<feBlend mode="normal" in2="shape" result="effect1_innerShadow_238_43892"/>
</filter>
<clipPath id="clip0_238_43892">
<rect width="39" height="46.3481" fill="white" transform="translate(0 0.188477)"/>
</clipPath>
<clipPath id="clip1_238_43892">
<rect width="35" height="31" fill="white" transform="translate(2 2.18848)"/>
</clipPath>
<clipPath id="clip2_238_43892">
<rect width="35" height="29" fill="white" transform="translate(2 2.18848)"/>
</clipPath>
</defs>
</svg>
