<svg width="39" height="48" viewBox="0 0 39 48" fill="none" xmlns="http://www.w3.org/2000/svg">
<g clip-path="url(#clip0_238_44277)">
<g clip-path="url(#clip1_238_44277)" filter="url(#filter0_d_238_44277)">
<rect width="35" height="31" transform="translate(2 2.80469)" fill="white"/>
<g opacity="0.3" clip-path="url(#clip2_238_44277)" filter="url(#filter1_i_238_44277)">
<rect width="35" height="29" transform="translate(2 2.80469)" fill="white"/>
<path d="M6 8.35986V6.80469H6.76158V8.35986H6Z" fill="black"/>
<path d="M6.58815 8.35986V6.80469H8.11197V8.35986H6.58815Z" fill="black"/>
<path d="M7.93854 8.35986V6.80469H9.46236V8.35986H7.93854Z" fill="black"/>
<path d="M9.28894 8.35986V6.80469H10.8128V8.35986H9.28894Z" fill="black"/>
<path d="M10.4866 8.35986V6.80469H11.8577V8.35986H10.4866Z" fill="black"/>
<path d="M11.5517 8.35986V6.80469H13.0755V8.35986H11.5517Z" fill="black"/>
<path d="M12.7493 8.35986V6.80469H13.3589V8.35986H12.7493Z" fill="black"/>
<path d="M13.1848 8.35986V6.80469H14.2511V8.35986H13.1848Z" fill="black"/>
<path d="M14.0784 8.35986V6.80469H15.4495V8.35986H14.0784Z" fill="black"/>
<path d="M15.2385 8.35986V6.80469H15.8481V8.35986H15.2385Z" fill="black"/>
<path d="M15.8267 8.35986V6.80469H17.1978V8.35986H15.8267Z" fill="black"/>
<path d="M17.1771 8.35986V6.80469H18.3955V8.35986H17.1771Z" fill="black"/>
<path d="M18.222 8.35986V6.80469H18.8316V8.35986H18.222Z" fill="black"/>
<path d="M18.6575 8.35986V6.80469H19.7238V8.35986H18.6575Z" fill="black"/>
<path d="M19.551 8.35986V6.80469H20.6174V8.35986H19.551Z" fill="black"/>
<path d="M20.4446 8.35986V6.80469H22.4259V8.35986H20.4446Z" fill="black"/>
<path d="M22.3282 8.35986V6.80469H23.3945V8.35986H22.3282Z" fill="black"/>
<path d="M23.2218 8.35986V6.80469H24.2881V8.35986H23.2218Z" fill="black"/>
<path d="M23.9626 8.35986V6.80469H24.5722V8.35986H23.9626Z" fill="black"/>
<path d="M24.3981 8.35986V6.80469H25.4644V8.35986H24.3981Z" fill="black"/>
<path d="M25.2916 8.35986V6.80469H26.51V8.35986H25.2916Z" fill="black"/>
<path d="M26.3366 8.35986V6.80469H26.9461V8.35986H26.3366Z" fill="black"/>
<path d="M26.772 8.35986V6.80469H28.9054V8.35986H26.772Z" fill="black"/>
<path d="M28.6556 8.35986V6.80469H30.1794V8.35986H28.6556Z" fill="black"/>
<path d="M30.006 8.35986V6.80469H31.5298V8.35986H30.006Z" fill="black"/>
<path d="M31.28 8.35986V6.80469H32.3464V8.35986H31.28Z" fill="black"/>
<path d="M32.0209 8.35986V6.80469H32.6304V8.35986H32.0209Z" fill="black"/>
<path d="M6 11.3599V9.80469H7.67654V11.3599H6Z" fill="black"/>
<path d="M7.52187 11.3599V9.80469H8.74025V11.3599H7.52187Z" fill="black"/>
<path d="M8.56683 11.3599V9.80469H9.93793V11.3599H8.56683Z" fill="black"/>
<path d="M9.63188 11.3599V9.80469H10.6982V11.3599H9.63188Z" fill="black"/>
<path d="M10.3727 11.3599V9.80469H11.8966V11.3599H10.3727Z" fill="black"/>
<path d="M11.7231 11.3599V9.80469H12.3327V11.3599H11.7231Z" fill="black"/>
<path d="M12.1586 11.3599V9.80469H13.8351V11.3599H12.1586Z" fill="black"/>
<path d="M13.738 11.3599V9.80469H14.9564V11.3599H13.738Z" fill="black"/>
<path d="M14.783 11.3599V9.80469H16.1541V11.3599H14.783Z" fill="black"/>
<path d="M15.8481 11.3599V9.80469H17.3719V11.3599H15.8481Z" fill="black"/>
<path d="M17.0457 11.3599V9.80469H18.5696V11.3599H17.0457Z" fill="black"/>
<path d="M18.3198 11.3599V9.80469H18.9293V11.3599H18.3198Z" fill="black"/>
<path d="M18.7552 11.3599V9.80469H20.1263V11.3599H18.7552Z" fill="black"/>
<path d="M19.8765 11.3599V9.80469H21.4003V11.3599H19.8765Z" fill="black"/>
<path d="M21.3033 11.3599V9.80469H22.6744V11.3599H21.3033Z" fill="black"/>
<path d="M22.5009 11.3599V9.80469H23.1105V11.3599H22.5009Z" fill="black"/>
<path d="M22.9364 11.3599V9.80469H24.4602V11.3599H22.9364Z" fill="black"/>
<path d="M24.2104 11.3599V9.80469H25.5815V11.3599H24.2104Z" fill="black"/>
<path d="M25.3317 11.3599V9.80469H26.8556V11.3599H25.3317Z" fill="black"/>
<path d="M26.6821 11.3599V9.80469H27.7485V11.3599H26.6821Z" fill="black"/>
<path d="M27.5757 11.3599V9.80469H29.0995V11.3599H27.5757Z" fill="black"/>
<path d="M28.7734 11.3599V9.80469H30.1445V11.3599H28.7734Z" fill="black"/>
<path d="M30.0474 11.3599V9.80469H31.5712V11.3599H30.0474Z" fill="black"/>
<path d="M31.2451 11.3599V9.80469H31.8546V11.3599H31.2451Z" fill="black"/>
<path d="M6 14.3599V12.8047H8.13335V14.3599H6Z" fill="black"/>
<path d="M7.88356 14.3599V12.8047H9.40739V14.3599H7.88356Z" fill="black"/>
<path d="M9.23396 14.3599V12.8047H10.7578V14.3599H9.23396Z" fill="black"/>
<path d="M10.5844 14.3599V12.8047H11.9555V14.3599H10.5844Z" fill="black"/>
<path d="M11.782 14.3599V12.8047H12.3916V14.3599H11.782Z" fill="black"/>
<path d="M12.2175 14.3599V12.8047H13.2838V14.3599H12.2175Z" fill="black"/>
<path d="M13.111 14.3599V12.8047H14.1774V14.3599H13.111Z" fill="black"/>
<path d="M13.8519 14.3599V12.8047H14.4614V14.3599H13.8519Z" fill="black"/>
<path d="M14.2873 14.3599V12.8047H15.8112V14.3599H14.2873Z" fill="black"/>
<path d="M15.6377 14.3599V12.8047H16.7041V14.3599H15.6377Z" fill="black"/>
<path d="M16.455 14.3599V12.8047H17.8261V14.3599H16.455Z" fill="black"/>
<path d="M17.729 14.3599V12.8047H19.2528V14.3599H17.729Z" fill="black"/>
<path d="M18.9267 14.3599V12.8047H20.2978V14.3599H18.9267Z" fill="black"/>
<path d="M20.0868 14.3599V12.8047H20.6964V14.3599H20.0868Z" fill="black"/>
<path d="M20.5223 14.3599V12.8047H22.0461V14.3599H20.5223Z" fill="black"/>
<path d="M22.0254 14.3599V12.8047H23.3965V14.3599H22.0254Z" fill="black"/>
<path d="M23.1467 14.3599V12.8047H23.7562V14.3599H23.1467Z" fill="black"/>
<path d="M23.5821 14.3599V12.8047H24.6485V14.3599H23.5821Z" fill="black"/>
<path d="M24.4757 14.3599V12.8047H25.5421V14.3599H24.4757Z" fill="black"/>
<path d="M25.2166 14.3599V12.8047H26.5877V14.3599H25.2166Z" fill="black"/>
<path d="M26.3767 14.3599V12.8047H26.9863V14.3599H26.3767Z" fill="black"/>
<path d="M6.15272 17.3599V15.8047H7.52382V17.3599H6.15272Z" fill="black"/>
<path d="M7.35039 17.3599V15.8047H8.87422V17.3599H7.35039Z" fill="black"/>
<path d="M8.70079 17.3599V15.8047H10.0719V17.3599H8.70079Z" fill="black"/>
<path d="M9.82211 17.3599V15.8047H10.8884V17.3599H9.82211Z" fill="black"/>
<path d="M10.7157 17.3599V15.8047H12.2395V17.3599H10.7157Z" fill="black"/>
<path d="M11.9134 17.3599V15.8047H13.4372V17.3599H11.9134Z" fill="black"/>
<path d="M13.1874 17.3599V15.8047H14.5585V17.3599H13.1874Z" fill="black"/>
<path d="M14.2525 17.3599V15.8047H14.862V17.3599H14.2525Z" fill="black"/>
<path d="M14.6879 17.3599V15.8047H16.8212V17.3599H14.6879Z" fill="black"/>
<path d="M16.5714 17.3599V15.8047H18.0953V17.3599H16.5714Z" fill="black"/>
<path d="M17.7691 17.3599V15.8047H19.2929V17.3599H17.7691Z" fill="black"/>
<path d="M19.1959 17.3599V15.8047H20.567V17.3599H19.1959Z" fill="black"/>
<path d="M20.4699 17.3599V15.8047H21.6883V17.3599H20.4699Z" fill="black"/>
<path d="M21.6676 17.3599V15.8047H23.0387V17.3599H21.6676Z" fill="black"/>
<path d="M22.8653 17.3599V15.8047H24.2364V17.3599H22.8653Z" fill="black"/>
<path d="M24.0254 17.3599V15.8047H24.635V17.3599H24.0254Z" fill="black"/>
<path d="M24.4609 17.3599V15.8047H25.9847V17.3599H24.4609Z" fill="black"/>
<path d="M25.8876 17.3599V15.8047H27.2587V17.3599H25.8876Z" fill="black"/>
<path d="M27.0853 17.3599V15.8047H28.6091V17.3599H27.0853Z" fill="black"/>
<path d="M28.3593 17.3599V15.8047H28.9689V17.3599H28.3593Z" fill="black"/>
<path d="M6 20.3599V18.8047H7.52382V20.3599H6Z" fill="black"/>
<path d="M7.19768 20.3599V18.8047H9.17898V20.3599H7.19768Z" fill="black"/>
<path d="M9.23396 20.3599V18.8047H10.6051V20.3599H9.23396Z" fill="black"/>
<path d="M10.2789 20.3599V18.8047H11.65V20.3599H10.2789Z" fill="black"/>
<path d="M11.3065 20.3599V18.8047H12.8303V20.3599H11.3065Z" fill="black"/>
<path d="M12.5805 20.3599V18.8047H13.9516V20.3599H12.5805Z" fill="black"/>
<path d="M13.7018 20.3599V18.8047H15.2256V20.3599H13.7018Z" fill="black"/>
<path d="M14.8995 20.3599V18.8047H16.2706V20.3599H14.8995Z" fill="black"/>
<path d="M16.0597 20.3599V18.8047H16.6692V20.3599H16.0597Z" fill="black"/>
<path d="M16.4951 20.3599V18.8047H17.8662V20.3599H16.4951Z" fill="black"/>
<path d="M17.7691 20.3599V18.8047H18.9875V20.3599H17.7691Z" fill="black"/>
<path d="M18.8141 20.3599V18.8047H20.7954V20.3599H18.8141Z" fill="black"/>
<path d="M20.6977 20.3599V18.8047H22.679V20.3599H20.6977Z" fill="black"/>
<path d="M22.5812 20.3599V18.8047H24.105V20.3599H22.5812Z" fill="black"/>
<path d="M23.7789 20.3599V18.8047H25.15V20.3599H23.7789Z" fill="black"/>
<path d="M24.8439 20.3599V18.8047H26.2151V20.3599H24.8439Z" fill="black"/>
<path d="M25.9653 20.3599V18.8047H27.4891V20.3599H25.9653Z" fill="black"/>
<path d="M27.1629 20.3599V18.8047H27.7725V20.3599H27.1629Z" fill="black"/>
<path d="M27.5984 20.3599V18.8047H29.1222V20.3599H27.5984Z" fill="black"/>
<path d="M29.0251 20.3599V18.8047H30.3962V20.3599H29.0251Z" fill="black"/>
<path d="M30.2228 20.3599V18.8047H31.7466V20.3599H30.2228Z" fill="black"/>
<path d="M31.4968 20.3599V18.8047H32.1064V20.3599H31.4968Z" fill="black"/>
<path d="M6 23.3599V21.8047H7.52382V23.3599H6Z" fill="black"/>
<path d="M7.35039 23.3599V21.8047H8.7215V23.3599H7.35039Z" fill="black"/>
<path d="M8.54807 23.3599V21.8047H10.0719V23.3599H8.54807Z" fill="black"/>
<path d="M9.89846 23.3599V21.8047H11.4223V23.3599H9.89846Z" fill="black"/>
<path d="M11.1725 23.3599V21.8047H12.6963V23.3599H11.1725Z" fill="black"/>
<path d="M12.5229 23.3599V21.8047H14.0467V23.3599H12.5229Z" fill="black"/>
<path d="M13.7206 23.3599V21.8047H15.7019V23.3599H13.7206Z" fill="black"/>
<path d="M15.6041 23.3599V21.8047H17.128V23.3599H15.6041Z" fill="black"/>
<path d="M16.9545 23.3599V21.8047H18.3256V23.3599H16.9545Z" fill="black"/>
<path d="M18.1522 23.3599V21.8047H19.2185V23.3599H18.1522Z" fill="black"/>
<path d="M18.8931 23.3599V21.8047H19.5026V23.3599H18.8931Z" fill="black"/>
<path d="M19.3285 23.3599V21.8047H21.4619V23.3599H19.3285Z" fill="black"/>
<path d="M21.2121 23.3599V21.8047H22.2784V23.3599H21.2121Z" fill="black"/>
<path d="M22.1056 23.3599V21.8047H23.172V23.3599H22.1056Z" fill="black"/>
<path d="M22.8465 23.3599V21.8047H24.3703V23.3599H22.8465Z" fill="black"/>
<path d="M24.1969 23.3599V21.8047H24.8064V23.3599H24.1969Z" fill="black"/>
<path d="M24.6323 23.3599V21.8047H25.6987V23.3599H24.6323Z" fill="black"/>
<path d="M25.3732 23.3599V21.8047H26.897V23.3599H25.3732Z" fill="black"/>
<path d="M26.7236 23.3599V21.8047H28.2474V23.3599H26.7236Z" fill="black"/>
<path d="M27.9213 23.3599V21.8047H28.5308V23.3599H27.9213Z" fill="black"/>
<path d="M6 26.3599V24.8047H7.3711V26.3599H6Z" fill="black"/>
<path d="M7.06505 26.3599V24.8047H8.58888V26.3599H7.06505Z" fill="black"/>
<path d="M8.26273 26.3599V24.8047H9.63384V26.3599H8.26273Z" fill="black"/>
<path d="M9.4229 26.3599V24.8047H10.4892V26.3599H9.4229Z" fill="black"/>
<path d="M10.1638 26.3599V24.8047H10.7733V26.3599H10.1638Z" fill="black"/>
<path d="M10.7519 26.3599V24.8047H11.9703V26.3599H10.7519Z" fill="black"/>
<path d="M11.7969 26.3599V24.8047H13.0159V26.3599H11.7969Z" fill="black"/>
<path d="M12.6905 26.3599V24.8047H13.3V26.3599H12.6905Z" fill="black"/>
<path d="M13.1259 26.3599V24.8047H14.1922V26.3599H13.1259Z" fill="black"/>
<path d="M13.8668 26.3599V24.8047H15.3906V26.3599H13.8668Z" fill="black"/>
<path d="M15.2171 26.3599V24.8047H16.741V26.3599H15.2171Z" fill="black"/>
<path d="M16.4148 26.3599V24.8047H17.0243V26.3599H16.4148Z" fill="black"/>
<path d="M16.8503 26.3599V24.8047H18.9836V26.3599H16.8503Z" fill="black"/>
<path d="M18.8865 26.3599V24.8047H20.1049V26.3599H18.8865Z" fill="black"/>
<path d="M19.9315 26.3599V24.8047H21.3026V26.3599H19.9315Z" fill="black"/>
<path d="M20.9965 26.3599V24.8047H22.0629V26.3599H20.9965Z" fill="black"/>
<path d="M21.8901 26.3599V24.8047H23.414V26.3599H21.8901Z" fill="black"/>
<path d="M23.1642 26.3599V24.8047H23.7737V26.3599H23.1642Z" fill="black"/>
<path d="M23.9592 26.0393V25.9301H25.2213V26.0393H23.9592Z" fill="black"/>
<path d="M24.9165 26.3599V24.8047H25.526V26.3599H24.9165Z" fill="black"/>
<path d="M25.3519 26.3599V24.8047H26.4183V26.3599H25.3519Z" fill="black"/>
<path d="M26.0928 26.3599V24.8047H27.6166V26.3599H26.0928Z" fill="black"/>
<path d="M27.4432 26.3599V24.8047H28.967V26.3599H27.4432Z" fill="black"/>
<path d="M28.7172 26.3599V24.8047H29.7836V26.3599H28.7172Z" fill="black"/>
<path d="M29.4581 26.3599V24.8047H30.0676V26.3599H29.4581Z" fill="black"/>
<path d="M6 29.3599V27.8047H7.3711V29.3599H6Z" fill="black"/>
<path d="M7.06505 29.3599V27.8047H8.58888V29.3599H7.06505Z" fill="black"/>
<path d="M8.26273 29.3599V27.8047H9.78655V29.3599H8.26273Z" fill="black"/>
<path d="M9.53677 29.3599V27.8047H10.6031V29.3599H9.53677Z" fill="black"/>
<path d="M10.4303 29.3599V27.8047H11.4967V29.3599H10.4303Z" fill="black"/>
<path d="M11.4003 29.3599V27.8047H12.7714V29.3599H11.4003Z" fill="black"/>
<path d="M12.5216 29.3599V27.8047H13.1311V29.3599H12.5216Z" fill="black"/>
<path d="M12.957 29.3599V27.8047H15.0904V29.3599H12.957Z" fill="black"/>
<path d="M14.7642 29.3599V27.8047H16.2881V29.3599H14.7642Z" fill="black"/>
<path d="M16.191 29.3599V27.8047H17.5621V29.3599H16.191Z" fill="black"/>
<path d="M17.3887 29.3599V27.8047H18.455V29.3599H17.3887Z" fill="black"/>
<path d="M18.1295 29.3599V27.8047H19.5006V29.3599H18.1295Z" fill="black"/>
<path d="M19.2897 29.3599V27.8047H19.8992V29.3599H19.2897Z" fill="black"/>
<path d="M19.7251 29.3599V27.8047H20.7915V29.3599H19.7251Z" fill="black"/>
<path d="M20.6187 29.3599V27.8047H21.8371V29.3599H20.6187Z" fill="black"/>
<path d="M21.6637 29.3599V27.8047H22.2732V29.3599H21.6637Z" fill="black"/>
<path d="M22.0991 29.3599V27.8047H23.6229V29.3599H22.0991Z" fill="black"/>
<path d="M23.4495 29.3599V27.8047H24.8206V29.3599H23.4495Z" fill="black"/>
<path d="M24.6472 29.3599V27.8047H26.171V29.3599H24.6472Z" fill="black"/>
<path d="M25.9976 29.3599V27.8047H27.5214V29.3599H25.9976Z" fill="black"/>
<path d="M27.2716 29.3599V27.8047H28.7954V29.3599H27.2716Z" fill="black"/>
<path d="M28.622 29.3599V27.8047H30.1458V29.3599H28.622Z" fill="black"/>
<path d="M29.8197 29.3599V27.8047H30.5813V29.3599H29.8197Z" fill="black"/>
<path d="M30.3315 29.3599V27.8047H30.941V29.3599H30.3315Z" fill="black"/>
<path d="M6 32.3599V30.8047H7.52382V32.3599H6Z" fill="black"/>
<path d="M7.25528 32.3599V30.8047H8.7791V32.3599H7.25528Z" fill="black"/>
<path d="M8.60567 32.3599V30.8047H10.1295V32.3599H8.60567Z" fill="black"/>
<path d="M9.87971 32.3599V30.8047H10.946V32.3599H9.87971Z" fill="black"/>
<path d="M10.7733 32.3599V30.8047H12.1444V32.3599H10.7733Z" fill="black"/>
<path d="M11.8383 32.3599V30.8047H13.8196V32.3599H11.8383Z" fill="black"/>
<path d="M13.7219 32.3599V30.8047H15.2457V32.3599H13.7219Z" fill="black"/>
<path d="M15.1487 32.3599V30.8047H16.5198V32.3599H15.1487Z" fill="black"/>
<path d="M16.3463 32.3599V30.8047H16.9559V32.3599H16.3463Z" fill="black"/>
<path d="M16.7818 32.3599V30.8047H18.4583V32.3599H16.7818Z" fill="black"/>
<path d="M18.2085 32.3599V30.8047H19.2749V32.3599H18.2085Z" fill="black"/>
<path d="M19.1021 32.3599V30.8047H21.0834V32.3599H19.1021Z" fill="black"/>
<path d="M20.9857 32.3599V30.8047H21.5952V32.3599H20.9857Z" fill="black"/>
<path d="M21.4211 32.3599V30.8047H22.9449V32.3599H21.4211Z" fill="black"/>
<path d="M22.7715 32.3599V30.8047H24.2953V32.3599H22.7715Z" fill="black"/>
<path d="M24.0455 32.3599V30.8047H25.4166V32.3599H24.0455Z" fill="black"/>
<path d="M25.2057 32.3599V30.8047H25.8152V32.3599H25.2057Z" fill="black"/>
<path d="M25.7938 32.3599V30.8047H27.1649V32.3599H25.7938Z" fill="black"/>
<path d="M26.8388 32.3599V30.8047H28.3626V32.3599H26.8388Z" fill="black"/>
<path d="M28.0365 32.3599V30.8047H29.2555V32.3599H28.0365Z" fill="black"/>
<path d="M29.0828 32.3599V30.8047H30.3012V32.3599H29.0828Z" fill="black"/>
<path d="M30.1277 32.3599V30.8047H31.4988V32.3599H30.1277Z" fill="black"/>
<path d="M31.1928 32.3599V30.8047H32.7166V32.3599H31.1928Z" fill="black"/>
<path d="M32.3905 32.3599V30.8047H33V32.3599H32.3905Z" fill="black"/>
<path d="M6 35.3599V33.8047H7.52382V35.3599H6Z" fill="black"/>
<path d="M7.35039 35.3599V33.8047H8.41673V35.3599H7.35039Z" fill="black"/>
<path d="M8.24398 35.3599V33.8047H10.2253V35.3599H8.24398Z" fill="black"/>
<path d="M10.1275 35.3599V33.8047H10.7371V35.3599H10.1275Z" fill="black"/>
<path d="M10.563 35.3599V33.8047H12.0868V35.3599H10.563Z" fill="black"/>
<path d="M11.9897 35.3599V33.8047H13.3608V35.3599H11.9897Z" fill="black"/>
<path d="M13.1874 35.3599V33.8047H13.7969V35.3599H13.1874Z" fill="black"/>
<path d="M13.7755 35.3599V33.8047H14.9939V35.3599H13.7755Z" fill="black"/>
<path d="M14.9732 35.3599V33.8047H16.3443V35.3599H14.9732Z" fill="black"/>
<path d="M16.2473 35.3599V33.8047H17.6184V35.3599H16.2473Z" fill="black"/>
<path d="M17.5213 35.3599V33.8047H18.7397V35.3599H17.5213Z" fill="black"/>
<path d="M18.5663 35.3599V33.8047H19.9374V35.3599H18.5663Z" fill="black"/>
<path d="M19.6313 35.3599V33.8047H20.6977V35.3599H19.6313Z" fill="black"/>
<path d="M20.3722 35.3599V33.8047H21.896V35.3599H20.3722Z" fill="black"/>
<path d="M21.8753 35.3599V33.8047H23.2464V35.3599H21.8753Z" fill="black"/>
<path d="M23.073 35.3599V33.8047H24.1393V35.3599H23.073Z" fill="black"/>
<path d="M23.9665 35.3599V33.8047H25.0329V35.3599H23.9665Z" fill="black"/>
<path d="M24.8601 35.3599V33.8047H26.2312V35.3599H24.8601Z" fill="black"/>
<path d="M25.9814 35.3599V33.8047H26.591V35.3599H25.9814Z" fill="black"/>
<path d="M26.4169 35.3599V33.8047H27.4832V35.3599H26.4169Z" fill="black"/>
<path d="M27.3105 35.3599V33.8047H28.3768V35.3599H27.3105Z" fill="black"/>
<path d="M28.204 35.3599V33.8047H29.7279V35.3599H28.204Z" fill="black"/>
<path d="M29.5169 35.3599V33.8047H31.0407V35.3599H29.5169Z" fill="black"/>
<path d="M30.7146 35.3599V33.8047H31.3241V35.3599H30.7146Z" fill="black"/>
<path d="M6.15272 38.3599V36.8047H7.52382V38.3599H6.15272Z" fill="black"/>
<path d="M7.50311 38.3599V36.8047H8.7215V38.3599H7.50311Z" fill="black"/>
<path d="M8.54807 38.3599V36.8047H9.1576V38.3599H8.54807Z" fill="black"/>
<path d="M9.13622 38.3599V36.8047H10.3546V38.3599H9.13622Z" fill="black"/>
<path d="M10.1812 38.3599V36.8047H11.2475V38.3599H10.1812Z" fill="black"/>
<path d="M10.922 38.3599V36.8047H12.4459V38.3599H10.922Z" fill="black"/>
<path d="M12.2724 38.3599V36.8047H13.7963V38.3599H12.2724Z" fill="black"/>
<path d="M13.4701 38.3599V36.8047H14.8412V38.3599H13.4701Z" fill="black"/>
<path d="M14.5352 38.3599V36.8047H15.2967V38.3599H14.5352Z" fill="black"/>
<path d="M15.047 38.3599V36.8047H15.6565V38.3599H15.047Z" fill="black"/>
<path d="M15.4824 38.3599V36.8047H16.5487V38.3599H15.4824Z" fill="black"/>
<path d="M16.376 38.3599V36.8047H17.5944V38.3599H16.376Z" fill="black"/>
<path d="M17.4209 38.3599V36.8047H18.0305V38.3599H17.4209Z" fill="black"/>
<path d="M18.0091 38.3599V36.8047H19.3802V38.3599H18.0091Z" fill="black"/>
<path d="M19.054 38.3599V36.8047H20.5779V38.3599H19.054Z" fill="black"/>
<path d="M20.2517 38.3599V36.8047H20.8612V38.3599H20.2517Z" fill="black"/>
<path d="M6 41.3599V39.8047H7.3711V41.3599H6Z" fill="black"/>
<path d="M7.06505 41.3599V39.8047H8.58888V41.3599H7.06505Z" fill="black"/>
<path d="M8.26273 41.3599V39.8047H10.244V41.3599H8.26273Z" fill="black"/>
<path d="M10.1463 41.3599V39.8047H11.6701V41.3599H10.1463Z" fill="black"/>
<path d="M11.344 41.3599V39.8047H13.3253V41.3599H11.344Z" fill="black"/>
<path d="M13.3803 41.3599V39.8047H14.7514V41.3599H13.3803Z" fill="black"/>
<path d="M14.4252 41.3599V39.8047H15.949V41.3599H14.4252Z" fill="black"/>
<path d="M15.6229 41.3599V39.8047H16.994V41.3599H15.6229Z" fill="black"/>
<path d="M16.6879 41.3599V39.8047H18.2118V41.3599H16.6879Z" fill="black"/>
<path d="M17.8856 41.3599V39.8047H19.4094V41.3599H17.8856Z" fill="black"/>
<path d="M19.1597 41.3599V39.8047H19.7692V41.3599H19.1597Z" fill="black"/>
<path d="M19.5951 41.3599V39.8047H21.1189V41.3599H19.5951Z" fill="black"/>
<path d="M20.8691 41.3599V39.8047H22.2402V41.3599H20.8691Z" fill="black"/>
<path d="M22.0293 41.3599V39.8047H22.6388V41.3599H22.0293Z" fill="black"/>
<path d="M22.4647 41.3599V39.8047H23.5311V41.3599H22.4647Z" fill="black"/>
<path d="M23.2056 41.3599V39.8047H24.7294V41.3599H23.2056Z" fill="black"/>
<path d="M24.556 41.3599V39.8047H26.0798V41.3599H24.556Z" fill="black"/>
<path d="M25.7537 41.3599V39.8047H26.3632V41.3599H25.7537Z" fill="black"/>
<path d="M6 44.3599V42.8047H7.06634V44.3599H6Z" fill="black"/>
<path d="M6.89358 44.3599V42.8047H8.4174V44.3599H6.89358Z" fill="black"/>
<path d="M8.09126 44.3599V42.8047H9.61508V44.3599H8.09126Z" fill="black"/>
<path d="M9.36529 44.3599V42.8047H10.8891V44.3599H9.36529Z" fill="black"/>
<path d="M10.6393 44.3599V42.8047H12.1632V44.3599H10.6393Z" fill="black"/>
<path d="M11.837 44.3599V42.8047H13.2081V44.3599H11.837Z" fill="black"/>
<path d="M12.9021 44.3599V42.8047H13.5116V44.3599H12.9021Z" fill="black"/>
<path d="M13.3375 44.3599V42.8047H15.4708V44.3599H13.3375Z" fill="black"/>
<path d="M15.2211 44.3599V42.8047H16.7449V44.3599H15.2211Z" fill="black"/>
<path d="M16.7242 44.3599V42.8047H17.9426V44.3599H16.7242Z" fill="black"/>
<path d="M17.7691 44.3599V42.8047H18.3787V44.3599H17.7691Z" fill="black"/>
<path d="M18.2046 44.3599V42.8047H19.7284V44.3599H18.2046Z" fill="black"/>
<path d="M19.555 44.3599V42.8047H20.9261V44.3599H19.555Z" fill="black"/>
<path d="M20.7151 44.3599V42.8047H22.2389V44.3599H20.7151Z" fill="black"/>
<path d="M22.0655 44.3599V42.8047H23.5893V44.3599H22.0655Z" fill="black"/>
<path d="M23.2632 44.3599V42.8047H24.6343V44.3599H23.2632Z" fill="black"/>
<path d="M24.3282 44.3599V42.8047H25.8521V44.3599H24.3282Z" fill="black"/>
<path d="M25.5259 44.3599V42.8047H27.0497V44.3599H25.5259Z" fill="black"/>
<path d="M26.8 44.3599V42.8047H27.4095V44.3599H26.8Z" fill="black"/>
<path d="M27.2354 44.3599V42.8047H28.3017V44.3599H27.2354Z" fill="black"/>
<path d="M28.2817 44.3599V42.8047H29.6528V44.3599H28.2817Z" fill="black"/>
<path d="M29.4794 44.3599V42.8047H30.0889V44.3599H29.4794Z" fill="black"/>
<path d="M29.9148 44.3599V42.8047H31.4386V44.3599H29.9148Z" fill="black"/>
<path d="M31.1888 44.3599V42.8047H31.7984V44.3599H31.1888Z" fill="black"/>
<path d="M6 47.3599V45.8047H7.52382V47.3599H6Z" fill="black"/>
<path d="M7.35039 47.3599V45.8047H8.41673V47.3599H7.35039Z" fill="black"/>
<path d="M8.39669 47.3599V45.8047H9.61508V47.3599H8.39669Z" fill="black"/>
<path d="M9.44165 47.3599V45.8047H10.8128V47.3599H9.44165Z" fill="black"/>
<path d="M10.5067 47.3599V45.8047H11.573V47.3599H10.5067Z" fill="black"/>
<path d="M11.553 47.3599V45.8047H12.7714V47.3599H11.553Z" fill="black"/>
<path d="M12.598 47.3599V45.8047H14.1218V47.3599H12.598Z" fill="black"/>
<path d="M13.9484 47.3599V45.8047H15.3195V47.3599H13.9484Z" fill="black"/>
<path d="M15.1085 47.3599V45.8047H15.7181V47.3599H15.1085Z" fill="black"/>
<path d="M15.6967 47.3599V45.8047H17.0678V47.3599H15.6967Z" fill="black"/>
<path d="M16.8944 47.3599V45.8047H18.4182V47.3599H16.8944Z" fill="black"/>
<path d="M18.092 47.3599V45.8047H20.2254V47.3599H18.092Z" fill="black"/>
<path d="M19.9756 47.3599V45.8047H20.5851V47.3599H19.9756Z" fill="black"/>
<path d="M20.411 47.3599V45.8047H21.9348V47.3599H20.411Z" fill="black"/>
<path d="M21.6087 47.3599V45.8047H22.9798V47.3599H21.6087Z" fill="black"/>
<path d="M22.6362 47.3599V45.8047H24.1601V47.3599H22.6362Z" fill="black"/>
<path d="M23.9103 47.3599V45.8047H24.5198V47.3599H23.9103Z" fill="black"/>
<path d="M24.4984 47.3599V45.8047H25.7168V47.3599H24.4984Z" fill="black"/>
<path d="M25.5434 47.3599V45.8047H26.7624V47.3599H25.5434Z" fill="black"/>
<path d="M26.437 47.3599V45.8047H27.0465V47.3599H26.437Z" fill="black"/>
<path d="M6 50.3599V48.8047H7.3711V50.3599H6Z" fill="black"/>
<path d="M7.16017 50.3599V48.8047H8.68399V50.3599H7.16017Z" fill="black"/>
<path d="M8.35784 50.3599V48.8047H9.72895V50.3599H8.35784Z" fill="black"/>
<path d="M9.47916 50.3599V48.8047H11.003V50.3599H9.47916Z" fill="black"/>
<path d="M10.8296 50.3599V48.8047H12.2007V50.3599H10.8296Z" fill="black"/>
<path d="M11.8946 50.3599V48.8047H12.961V50.3599H11.8946Z" fill="black"/>
<path d="M12.7882 50.3599V48.8047H13.8545V50.3599H12.7882Z" fill="black"/>
<path d="M13.6818 50.3599V48.8047H15.0529V50.3599H13.6818Z" fill="black"/>
<path d="M14.8031 50.3599V48.8047H15.4126V50.3599H14.8031Z" fill="black"/>
<path d="M15.2385 50.3599V48.8047H16.7623V50.3599H15.2385Z" fill="black"/>
<path d="M16.6653 50.3599V48.8047H18.0364V50.3599H16.6653Z" fill="black"/>
<path d="M17.863 50.3599V48.8047H19.3868V50.3599H17.863Z" fill="black"/>
<path d="M19.137 50.3599V48.8047H19.7465V50.3599H19.137Z" fill="black"/>
<path d="M19.7251 50.3599V48.8047H21.0962V50.3599H19.7251Z" fill="black"/>
<path d="M20.8465 50.3599V48.8047H22.2176V50.3599H20.8465Z" fill="black"/>
<path d="M22.0642 50.3599V48.8047H23.2826V50.3599H22.0642Z" fill="black"/>
<path d="M23.1092 50.3599V48.8047H24.4803V50.3599H23.1092Z" fill="black"/>
<path d="M24.4221 50.3599V48.8047H25.7932V50.3599H24.4221Z" fill="black"/>
<path d="M25.5434 50.3599V48.8047H27.0672V50.3599H25.5434Z" fill="black"/>
<path d="M26.7411 50.3599V48.8047H28.1122V50.3599H26.7411Z" fill="black"/>
<path d="M27.8061 50.3599V48.8047H28.8725V50.3599H27.8061Z" fill="black"/>
<path d="M28.6997 50.3599V48.8047H29.766V50.3599H28.6997Z" fill="black"/>
<path d="M29.5933 50.3599V48.8047H30.9644V50.3599H29.5933Z" fill="black"/>
<path d="M30.7146 50.3599V48.8047H31.3241V50.3599H30.7146Z" fill="black"/>
<path d="M6 53.3599V51.8047H7.21906V53.3599H6Z" fill="black"/>
<path d="M7.0463 53.3599V51.8047H8.26469V53.3599H7.0463Z" fill="black"/>
<path d="M8.09126 53.3599V51.8047H9.46236V53.3599H8.09126Z" fill="black"/>
<path d="M9.15631 53.3599V51.8047H9.76584V53.3599H9.15631Z" fill="black"/>
<path d="M9.59174 53.3599V51.8047H11.1156V53.3599H9.59174Z" fill="black"/>
<path d="M10.9421 53.3599V51.8047H12.0085V53.3599H10.9421Z" fill="black"/>
<path d="M11.8357 53.3599V51.8047H13.2068V53.3599H11.8357Z" fill="black"/>
<path d="M12.9959 53.3599V51.8047H13.6054V53.3599H12.9959Z" fill="black"/>
<path d="M13.584 53.3599V51.8047H14.9551V53.3599H13.584Z" fill="black"/>
<path d="M14.7054 53.3599V51.8047H16.2292V53.3599H14.7054Z" fill="black"/>
<path d="M16.0557 53.3599V51.8047H17.2741V53.3599H16.0557Z" fill="black"/>
<path d="M17.2534 53.3599V51.8047H18.6245V53.3599H17.2534Z" fill="black"/>
<path d="M18.3747 53.3599V51.8047H19.4411V53.3599H18.3747Z" fill="black"/>
<path d="M19.2683 53.3599V51.8047H20.7921V53.3599H19.2683Z" fill="black"/>
<path d="M20.466 53.3599V51.8047H21.2276V53.3599H20.466Z" fill="black"/>
<path d="M20.9778 53.3599V51.8047H21.7394V53.3599H20.9778Z" fill="black"/>
<path d="M6.30476 8.25527H32.325V8.325H6.30476V8.25527ZM6.30476 11.2553H31.5499V11.325H6.30476V11.2553ZM6.30476 14.2553H26.6808V14.325H6.30476V14.2553ZM6.30476 17.2553H28.6641V17.325H6.30476V17.2553ZM6.30476 20.2553H31.8016V20.325H6.30476V20.2553ZM6.30476 23.2553H28.226V23.325H6.30476V23.2553ZM6.30476 26.2553H23.9044V26.325H6.30476V26.2553ZM23.9044 26.5349H25.2213V26.6049H23.9044V26.5349ZM25.2213 26.2553H29.7622V26.325H25.2213V26.2553ZM6.30476 29.2553H30.6362V29.325H6.30476V29.2553ZM6.30476 32.2553H32.6952V32.325H6.30476V32.2553ZM6.30476 35.2553H31.0194V35.325H6.30476V35.2553ZM6.30476 38.2553H20.5565V38.325H6.30476V38.2553ZM6.30476 41.2553H26.0584V41.325H6.30476V41.2553ZM6.30476 44.2553H31.4936V44.325H6.30476V44.2553ZM6.30476 47.2553H26.7411V47.325H6.30476V47.2553ZM6.30476 50.2553H31.0194V50.325H6.30476V50.2553ZM6.30476 53.2553H21.9256V53.325H6.30476V53.2553Z" fill="black"/>
</g>
<rect width="12" height="14" transform="translate(25 18.8047)" fill="white"/>
<path d="M30.6787 22.666C31.5999 22.666 32.2721 22.8646 32.6953 23.2617C33.1185 23.6556 33.3301 24.1992 33.3301 24.8926C33.3301 25.2051 33.2829 25.5046 33.1885 25.791C33.0941 26.0742 32.9395 26.3265 32.7246 26.5479C32.513 26.7692 32.2298 26.945 31.875 27.0752C31.5202 27.2021 31.0824 27.2656 30.5615 27.2656H29.9121V29.8047H28.3984V22.666H30.6787ZM30.6006 23.9062H29.9121V26.0254H30.4102C30.6934 26.0254 30.9391 25.988 31.1475 25.9131C31.3558 25.8382 31.5169 25.721 31.6309 25.5615C31.7448 25.402 31.8018 25.1969 31.8018 24.9463C31.8018 24.5947 31.7041 24.3343 31.5088 24.165C31.3135 23.9925 31.0107 23.9062 30.6006 23.9062Z" fill="#585858"/>
</g>
<path d="M11.3333 38.8047H2V45.1528H11.3333V38.8047Z" fill="#7FA4CA"/>
<path d="M21.6663 38.8047H12.333V45.1528H21.6663V38.8047Z" fill="#BB90BB"/>
</g>
<defs>
<filter id="filter0_d_238_44277" x="0" y="1.80469" width="39" height="35" filterUnits="userSpaceOnUse" color-interpolation-filters="sRGB">
<feFlood flood-opacity="0" result="BackgroundImageFix"/>
<feColorMatrix in="SourceAlpha" type="matrix" values="0 0 0 0 0 0 0 0 0 0 0 0 0 0 0 0 0 0 127 0" result="hardAlpha"/>
<feOffset dy="1"/>
<feGaussianBlur stdDeviation="1"/>
<feComposite in2="hardAlpha" operator="out"/>
<feColorMatrix type="matrix" values="0 0 0 0 0 0 0 0 0 0 0 0 0 0 0 0 0 0 0.1 0"/>
<feBlend mode="normal" in2="BackgroundImageFix" result="effect1_dropShadow_238_44277"/>
<feBlend mode="normal" in="SourceGraphic" in2="effect1_dropShadow_238_44277" result="shape"/>
</filter>
<filter id="filter1_i_238_44277" x="2" y="-2.19531" width="35" height="34" filterUnits="userSpaceOnUse" color-interpolation-filters="sRGB">
<feFlood flood-opacity="0" result="BackgroundImageFix"/>
<feBlend mode="normal" in="SourceGraphic" in2="BackgroundImageFix" result="shape"/>
<feColorMatrix in="SourceAlpha" type="matrix" values="0 0 0 0 0 0 0 0 0 0 0 0 0 0 0 0 0 0 127 0" result="hardAlpha"/>
<feOffset dy="-5"/>
<feGaussianBlur stdDeviation="3.5"/>
<feComposite in2="hardAlpha" operator="arithmetic" k2="-1" k3="1"/>
<feColorMatrix type="matrix" values="0 0 0 0 1 0 0 0 0 1 0 0 0 0 1 0 0 0 1 0"/>
<feBlend mode="normal" in2="shape" result="effect1_innerShadow_238_44277"/>
</filter>
<clipPath id="clip0_238_44277">
<rect width="39" height="46.3481" fill="white" transform="translate(0 0.804688)"/>
</clipPath>
<clipPath id="clip1_238_44277">
<rect width="35" height="31" fill="white" transform="translate(2 2.80469)"/>
</clipPath>
<clipPath id="clip2_238_44277">
<rect width="35" height="29" fill="white" transform="translate(2 2.80469)"/>
</clipPath>
</defs>
</svg>
