<svg width="39" height="47" viewBox="0 0 39 47" fill="none" xmlns="http://www.w3.org/2000/svg">
<g clip-path="url(#clip0_238_44332)">
<g clip-path="url(#clip1_238_44332)" filter="url(#filter0_d_238_44332)">
<rect width="35" height="31" transform="translate(2 2.32031)" fill="white"/>
<g opacity="0.3" clip-path="url(#clip2_238_44332)" filter="url(#filter1_i_238_44332)">
<rect width="35" height="29" transform="translate(2 2.32031)" fill="white"/>
<path d="M6 7.87549V6.32031H6.81082V7.87549H6Z" fill="black"/>
<path d="M6.62618 7.87549V6.32031H8.41111V7.87549H6.62618Z" fill="black"/>
<path d="M8.30777 7.87549V6.32031H9.76752V7.87549H8.30777Z" fill="black"/>
<path d="M9.58288 7.87549V6.32031H11.2052V7.87549H9.58288Z" fill="black"/>
<path d="M10.9393 7.87549V6.32031H11.5882V7.87549H10.9393Z" fill="black"/>
<path d="M11.4029 7.87549V6.32031H12.7008V7.87549H11.4029Z" fill="black"/>
<path d="M12.3542 7.87549V6.32031H13.814V7.87549H12.3542Z" fill="black"/>
<path d="M13.4482 7.87549V6.32031H15.0706V7.87549H13.4482Z" fill="black"/>
<path d="M14.9672 7.87549V6.32031H16.427V7.87549H14.9672Z" fill="black"/>
<path d="M16.2423 7.87549V6.32031H17.8647V7.87549H16.2423Z" fill="black"/>
<path d="M17.6401 7.87549V6.32031H18.7754V7.87549H17.6401Z" fill="black"/>
<path d="M18.6728 7.87549V6.32031H20.1325V7.87549H18.6728Z" fill="black"/>
<path d="M19.8666 7.87549V6.32031H20.6774V7.87549H19.8666Z" fill="black"/>
<path d="M20.4115 7.87549V6.32031H21.0604V7.87549H20.4115Z" fill="black"/>
<path d="M20.875 7.87549V6.32031H22.1729V7.87549H20.875Z" fill="black"/>
<path d="M21.9876 7.87549V6.32031H22.6365V7.87549H21.9876Z" fill="black"/>
<path d="M22.4511 7.87549V6.32031H23.5864V7.87549H22.4511Z" fill="black"/>
<path d="M23.2399 7.87549V6.32031H24.8623V7.87549H23.2399Z" fill="black"/>
<path d="M24.6776 7.87549V6.32031H25.8129V7.87549H24.6776Z" fill="black"/>
<path d="M25.7916 7.87549V6.32031H27.2513V7.87549H25.7916Z" fill="black"/>
<path d="M27.0667 7.87549V6.32031H28.689V7.87549H27.0667Z" fill="black"/>
<path d="M28.4644 7.87549V6.32031H29.1134V7.87549H28.4644Z" fill="black"/>
<path d="M6 10.8755V9.32031H8.27128V10.8755H6Z" fill="black"/>
<path d="M8.00535 10.8755V9.32031H9.62769V10.8755H8.00535Z" fill="black"/>
<path d="M9.28046 10.8755V9.32031H10.0913V10.8755H9.28046Z" fill="black"/>
<path d="M9.90664 10.8755V9.32031H11.0419V10.8755H9.90664Z" fill="black"/>
<path d="M10.858 10.8755V9.32031H11.9933V10.8755H10.858Z" fill="black"/>
<path d="M11.8094 10.8755V9.32031H12.4583V10.8755H11.8094Z" fill="black"/>
<path d="M12.2729 10.8755V9.32031H13.8953V10.8755H12.2729Z" fill="black"/>
<path d="M13.7106 10.8755V9.32031H15.1704V10.8755H13.7106Z" fill="black"/>
<path d="M14.9858 10.8755V9.32031H16.6081V10.8755H14.9858Z" fill="black"/>
<path d="M16.3422 10.8755V9.32031H16.9911V10.8755H16.3422Z" fill="black"/>
<path d="M16.8058 10.8755V9.32031H18.4281V10.8755H16.8058Z" fill="black"/>
<path d="M18.406 10.8755V9.32031H19.8658V10.8755H18.406Z" fill="black"/>
<path d="M19.5999 10.8755V9.32031H20.2488V10.8755H19.5999Z" fill="black"/>
<path d="M20.226 10.8755V9.32031H21.6858V10.8755H20.226Z" fill="black"/>
<path d="M21.3386 10.8755V9.32031H22.9609V10.8755H21.3386Z" fill="black"/>
<path d="M22.6137 10.8755V9.32031H23.749V10.8755H22.6137Z" fill="black"/>
<path d="M23.7276 10.8755V9.32031H25.1874V10.8755H23.7276Z" fill="black"/>
<path d="M25.0027 10.8755V9.32031H26.6251V10.8755H25.0027Z" fill="black"/>
<path d="M26.4404 10.8755V9.32031H27.0894V10.8755H26.4404Z" fill="black"/>
<path d="M26.904 10.8755V9.32031H28.3638V10.8755H26.904Z" fill="black"/>
<path d="M28.2604 10.8755V9.32031H29.8828V10.8755H28.2604Z" fill="black"/>
<path d="M29.5356 10.8755V9.32031H30.9953V10.8755H29.5356Z" fill="black"/>
<path d="M30.8321 10.8755V9.32031H32.2918V10.8755H30.8321Z" fill="black"/>
<path d="M32.0259 10.8755V9.32031H32.6748V10.8755H32.0259Z" fill="black"/>
<path d="M6 13.8755V12.3203H7.62235V13.8755H6Z" fill="black"/>
<path d="M7.6003 13.8755V12.3203H8.89746V13.8755H7.6003Z" fill="black"/>
<path d="M8.87541 13.8755V12.3203H10.1726V13.8755H8.87541Z" fill="black"/>
<path d="M9.98793 13.8755V12.3203H11.6103V13.8755H9.98793Z" fill="black"/>
<path d="M11.3443 13.8755V12.3203H11.9933V13.8755H11.3443Z" fill="black"/>
<path d="M11.8079 13.8755V12.3203H13.1058V13.8755H11.8079Z" fill="black"/>
<path d="M12.7593 13.8755V12.3203H14.219V13.8755H12.7593Z" fill="black"/>
<path d="M13.8932 13.8755V12.3203H15.0285V13.8755H13.8932Z" fill="black"/>
<path d="M14.8446 13.8755V12.3203H16.4669V13.8755H14.8446Z" fill="black"/>
<path d="M16.2823 13.8755V12.3203H17.742V13.8755H16.2823Z" fill="black"/>
<path d="M17.5574 13.8755V12.3203H19.1797V13.8755H17.5574Z" fill="black"/>
<path d="M18.9138 13.8755V12.3203H20.3735V13.8755H18.9138Z" fill="black"/>
<path d="M20.149 13.8755V12.3203H20.7979V13.8755H20.149Z" fill="black"/>
<path d="M20.6126 13.8755V12.3203H22.8838V13.8755H20.6126Z" fill="black"/>
<path d="M22.6179 13.8755V12.3203H23.7532V13.8755H22.6179Z" fill="black"/>
<path d="M23.5693 13.8755V12.3203H24.7045V13.8755H23.5693Z" fill="black"/>
<path d="M24.358 13.8755V12.3203H25.9804V13.8755H24.358Z" fill="black"/>
<path d="M25.7957 13.8755V12.3203H26.4447V13.8755H25.7957Z" fill="black"/>
<path d="M6 16.8755V15.3203H7.62235V16.8755H6Z" fill="black"/>
<path d="M7.33644 16.8755V15.3203H8.95879V16.8755H7.33644Z" fill="black"/>
<path d="M8.77415 16.8755V15.3203H10.3965V16.8755H8.77415Z" fill="black"/>
<path d="M10.1306 16.8755V15.3203H11.2658V16.8755H10.1306Z" fill="black"/>
<path d="M11.0819 16.8755V15.3203H12.5417V16.8755H11.0819Z" fill="black"/>
<path d="M12.2158 16.8755V15.3203H14.3252V16.8755H12.2158Z" fill="black"/>
<path d="M14.2212 16.8755V15.3203H15.8435V16.8755H14.2212Z" fill="black"/>
<path d="M15.7402 16.8755V15.3203H17.1999V16.8755H15.7402Z" fill="black"/>
<path d="M17.0153 16.8755V15.3203H17.6642V16.8755H17.0153Z" fill="black"/>
<path d="M17.4789 16.8755V15.3203H19.2638V16.8755H17.4789Z" fill="black"/>
<path d="M18.9979 16.8755V15.3203H20.1332V16.8755H18.9979Z" fill="black"/>
<path d="M19.9492 16.8755V15.3203H22.0586V16.8755H19.9492Z" fill="black"/>
<path d="M21.9546 16.8755V15.3203H22.6035V16.8755H21.9546Z" fill="black"/>
<path d="M22.4182 16.8755V15.3203H24.0405V16.8755H22.4182Z" fill="black"/>
<path d="M23.9372 16.8755V15.3203H25.3969V16.8755H23.9372Z" fill="black"/>
<path d="M25.2123 16.8755V15.3203H26.8346V16.8755H25.2123Z" fill="black"/>
<path d="M26.5687 16.8755V15.3203H27.2176V16.8755H26.5687Z" fill="black"/>
<path d="M27.0323 16.8755V15.3203H29.3036V16.8755H27.0323Z" fill="black"/>
<path d="M29.0376 16.8755V15.3203H30.1729V16.8755H29.0376Z" fill="black"/>
<path d="M29.989 16.8755V15.3203H31.1243V16.8755H29.989Z" fill="black"/>
<path d="M30.7777 16.8755V15.3203H32.4001V16.8755H30.7777Z" fill="black"/>
<path d="M32.2155 16.8755V15.3203H32.8644V16.8755H32.2155Z" fill="black"/>
<path d="M6 19.8755V18.3203H7.78494V19.8755H6Z" fill="black"/>
<path d="M7.62026 19.8755V18.3203H8.91743V19.8755H7.62026Z" fill="black"/>
<path d="M8.73279 19.8755V18.3203H10.1925V19.8755H8.73279Z" fill="black"/>
<path d="M9.8667 19.8755V18.3203H11.002V19.8755H9.8667Z" fill="black"/>
<path d="M10.6555 19.8755V18.3203H12.2778V19.8755H10.6555Z" fill="black"/>
<path d="M12.0932 19.8755V18.3203H12.7421V19.8755H12.0932Z" fill="black"/>
<path d="M12.5568 19.8755V18.3203H14.3417V19.8755H12.5568Z" fill="black"/>
<path d="M14.2384 19.8755V18.3203H15.5355V19.8755H14.2384Z" fill="black"/>
<path d="M15.3509 19.8755V18.3203H16.8106V19.8755H15.3509Z" fill="black"/>
<path d="M16.4848 19.8755V18.3203H18.1071V19.8755H16.4848Z" fill="black"/>
<path d="M17.7599 19.8755V18.3203H19.3822V19.8755H17.7599Z" fill="black"/>
<path d="M19.1163 19.8755V18.3203H19.9271V19.8755H19.1163Z" fill="black"/>
<path d="M19.6612 19.8755V18.3203H20.3101V19.8755H19.6612Z" fill="black"/>
<path d="M20.1248 19.8755V18.3203H21.7471V19.8755H20.1248Z" fill="black"/>
<path d="M21.6438 19.8755V18.3203H23.1035V19.8755H21.6438Z" fill="black"/>
<path d="M22.9189 19.8755V18.3203H24.5412V19.8755H22.9189Z" fill="black"/>
<path d="M24.2753 19.8755V18.3203H24.9242V19.8755H24.2753Z" fill="black"/>
<path d="M24.7389 19.8755V18.3203H26.0368V19.8755H24.7389Z" fill="black"/>
<path d="M25.8514 19.8755V18.3203H26.5003V19.8755H25.8514Z" fill="black"/>
<path d="M26.315 19.8755V18.3203H27.4503V19.8755H26.315Z" fill="black"/>
<path d="M27.1038 19.8755V18.3203H28.7261V19.8755H27.1038Z" fill="black"/>
<path d="M28.5415 19.8755V18.3203H29.6768V19.8755H28.5415Z" fill="black"/>
<path d="M29.6554 19.8755V18.3203H31.1152V19.8755H29.6554Z" fill="black"/>
<path d="M30.9305 19.8755V18.3203H32.5529V19.8755H30.9305Z" fill="black"/>
<path d="M32.3283 19.8755V18.3203H32.9772V19.8755H32.3283Z" fill="black"/>
<path d="M6 22.8755V21.3203H7.13529V22.8755H6Z" fill="black"/>
<path d="M6.78877 22.8755V21.3203H8.41111V22.8755H6.78877Z" fill="black"/>
<path d="M8.22647 22.8755V21.3203H9.84882V22.8755H8.22647Z" fill="black"/>
<path d="M9.66418 22.8755V21.3203H11.1239V22.8755H9.66418Z" fill="black"/>
<path d="M10.858 22.8755V21.3203H11.5069V22.8755H10.858Z" fill="black"/>
<path d="M11.3216 22.8755V21.3203H12.9439V22.8755H11.3216Z" fill="black"/>
<path d="M12.7593 22.8755V21.3203H14.3816V22.8755H12.7593Z" fill="black"/>
<path d="M14.0344 22.8755V21.3203H15.4942V22.8755H14.0344Z" fill="black"/>
<path d="M15.3908 22.8755V21.3203H17.0132V22.8755H15.3908Z" fill="black"/>
<path d="M16.6659 22.8755V21.3203H17.3149V22.8755H16.6659Z" fill="black"/>
<path d="M17.1295 22.8755V21.3203H18.2648V22.8755H17.1295Z" fill="black"/>
<path d="M17.9183 22.8755V21.3203H19.378V22.8755H17.9183Z" fill="black"/>
<path d="M19.0522 22.8755V21.3203H20.6745V22.8755H19.0522Z" fill="black"/>
<path d="M20.3273 22.8755V21.3203H22.4367V22.8755H20.3273Z" fill="black"/>
<path d="M22.3327 22.8755V21.3203H23.955V22.8755H22.3327Z" fill="black"/>
<path d="M23.7704 22.8755V21.3203H25.2301V22.8755H23.7704Z" fill="black"/>
<path d="M25.0455 22.8755V21.3203H26.6678V22.8755H25.0455Z" fill="black"/>
<path d="M26.5645 22.8755V21.3203H27.8616V22.8755H26.5645Z" fill="black"/>
<path d="M27.677 22.8755V21.3203H29.2993V22.8755H27.677Z" fill="black"/>
<path d="M29.1147 22.8755V21.3203H30.5745V22.8755H29.1147Z" fill="black"/>
<path d="M30.3499 22.8755V21.3203H30.9988V22.8755H30.3499Z" fill="black"/>
<path d="M6.16259 25.8755V24.3203H7.62235V25.8755H6.16259Z" fill="black"/>
<path d="M7.519 25.8755V24.3203H8.81616V25.8755H7.519Z" fill="black"/>
<path d="M8.63152 25.8755V24.3203H9.76681V25.8755H8.63152Z" fill="black"/>
<path d="M9.42029 25.8755V24.3203H11.0426V25.8755H9.42029Z" fill="black"/>
<path d="M10.858 25.8755V24.3203H12.3177V25.8755H10.858Z" fill="black"/>
<path d="M12.1331 25.8755V24.3203H13.2684V25.8755H12.1331Z" fill="black"/>
<path d="M12.9219 25.8755V24.3203H14.0572V25.8755H12.9219Z" fill="black"/>
<path d="M13.8732 25.8755V24.3203H15.4956V25.8755H13.8732Z" fill="black"/>
<path d="M15.2296 25.8755V24.3203H16.3649V25.8755H15.2296Z" fill="black"/>
<path d="M16.181 25.8755V24.3203H16.9918V25.8755H16.181Z" fill="black"/>
<path d="M16.7259 25.8755V24.3203H17.3748V25.8755H16.7259Z" fill="black"/>
<path d="M17.1895 25.8755V24.3203H18.4873V25.8755H17.1895Z" fill="black"/>
<path d="M18.302 25.8755V24.3203H19.1128V25.8755H18.302Z" fill="black"/>
<path d="M18.9282 25.8755V24.3203H20.3879V25.8755H18.9282Z" fill="black"/>
<path d="M20.2846 25.8755V24.3203H21.9069V25.8755H20.2846Z" fill="black"/>
<path d="M21.5597 25.8755V24.3203H22.2086V25.8755H21.5597Z" fill="black"/>
<path d="M22.1859 25.8755V24.3203H23.6456V25.8755H22.1859Z" fill="black"/>
<path d="M23.2984 25.8755V24.3203H24.9207V25.8755H23.2984Z" fill="black"/>
<path d="M24.5735 25.8755V24.3203H26.1958V25.8755H24.5735Z" fill="black"/>
<path d="M26.0112 25.8755V24.3203H27.471V25.8755H26.0112Z" fill="black"/>
<path d="M27.2863 25.8755V24.3203H27.9353V25.8755H27.2863Z" fill="black"/>
<path d="M6 28.8755V27.3203H7.13529V28.8755H6Z" fill="black"/>
<path d="M6.78877 28.8755V27.3203H8.41111V28.8755H6.78877Z" fill="black"/>
<path d="M8.06388 28.8755V27.3203H9.19917V28.8755H8.06388Z" fill="black"/>
<path d="M9.01524 28.8755V27.3203H10.1505V28.8755H9.01524Z" fill="black"/>
<path d="M9.9666 28.8755V27.3203H11.1019V28.8755H9.9666Z" fill="black"/>
<path d="M11.0805 28.8755V27.3203H12.5403V28.8755H11.0805Z" fill="black"/>
<path d="M12.3557 28.8755V27.3203H13.978V28.8755H12.3557Z" fill="black"/>
<path d="M13.7934 28.8755V27.3203H14.4423V28.8755H13.7934Z" fill="black"/>
<path d="M14.2569 28.8755V27.3203H15.8793V28.8755H14.2569Z" fill="black"/>
<path d="M15.5321 28.8755V27.3203H16.9918V28.8755H15.5321Z" fill="black"/>
<path d="M16.8885 28.8755V27.3203H18.5108V28.8755H16.8885Z" fill="black"/>
<path d="M18.1636 28.8755V27.3203H19.6233V28.8755H18.1636Z" fill="black"/>
<path d="M19.4601 28.8755V27.3203H20.9198V28.8755H19.4601Z" fill="black"/>
<path d="M20.8165 28.8755V27.3203H22.2763V28.8755H20.8165Z" fill="black"/>
<path d="M22.0916 28.8755V27.3203H23.3888V28.8755H22.0916Z" fill="black"/>
<path d="M23.2041 28.8755V27.3203H24.8265V28.8755H23.2041Z" fill="black"/>
<path d="M24.6418 28.8755V27.3203H26.1016V28.8755H24.6418Z" fill="black"/>
<path d="M25.8357 28.8755V27.3203H26.6465V28.8755H25.8357Z" fill="black"/>
<path d="M26.3805 28.8755V27.3203H27.0295V28.8755H26.3805Z" fill="black"/>
<path d="M26.8441 28.8755V27.3203H28.4665V28.8755H26.8441Z" fill="black"/>
<path d="M28.2818 28.8755V27.3203H29.9042V28.8755H28.2818Z" fill="black"/>
<path d="M29.7195 28.8755V27.3203H31.3419V28.8755H29.7195Z" fill="black"/>
<path d="M31.1572 28.8755V27.3203H32.617V28.8755H31.1572Z" fill="black"/>
<path d="M32.3511 28.8755V27.3203H33V28.8755H32.3511Z" fill="black"/>
<path d="M6 31.8755V30.3203H7.62235V31.8755H6Z" fill="black"/>
<path d="M7.43771 31.8755V30.3203H9.06005V31.8755H7.43771Z" fill="black"/>
<path d="M8.71282 31.8755V30.3203H10.1726V31.8755H8.71282Z" fill="black"/>
<path d="M10.0692 31.8755V30.3203H11.6916V31.8755H10.0692Z" fill="black"/>
<path d="M11.3443 31.8755V30.3203H11.9933V31.8755H11.3443Z" fill="black"/>
<path d="M11.8079 31.8755V30.3203H12.9432V31.8755H11.8079Z" fill="black"/>
<path d="M12.5967 31.8755V30.3203H14.0564V31.8755H12.5967Z" fill="black"/>
<path d="M13.7306 31.8755V30.3203H15.353V31.8755H13.7306Z" fill="black"/>
<path d="M15.0057 31.8755V30.3203H17.1151V31.8755H15.0057Z" fill="black"/>
<path d="M17.0111 31.8755V30.3203H18.6334V31.8755H17.0111Z" fill="black"/>
<path d="M18.4488 31.8755V30.3203H19.9085V31.8755H18.4488Z" fill="black"/>
<path d="M19.7239 31.8755V30.3203H21.3462V31.8755H19.7239Z" fill="black"/>
<path d="M21.2429 31.8755V30.3203H22.5401V31.8755H21.2429Z" fill="black"/>
<path d="M22.3554 31.8755V30.3203H23.9778V31.8755H22.3554Z" fill="black"/>
<path d="M23.7931 31.8755V30.3203H25.2529V31.8755H23.7931Z" fill="black"/>
<path d="M25.0283 31.8755V30.3203H25.6772V31.8755H25.0283Z" fill="black"/>
<path d="M6.16259 34.8755V33.3203H7.62235V34.8755H6.16259Z" fill="black"/>
<path d="M7.519 34.8755V33.3203H8.81616V34.8755H7.519Z" fill="black"/>
<path d="M8.63152 34.8755V33.3203H9.76681V34.8755H8.63152Z" fill="black"/>
<path d="M9.42029 34.8755V33.3203H11.0426V34.8755H9.42029Z" fill="black"/>
<path d="M10.858 34.8755V33.3203H12.3177V34.8755H10.858Z" fill="black"/>
<path d="M12.1331 34.8755V33.3203H13.2684V34.8755H12.1331Z" fill="black"/>
<path d="M12.9219 34.8755V33.3203H14.0572V34.8755H12.9219Z" fill="black"/>
<path d="M13.8732 34.8755V33.3203H15.4956V34.8755H13.8732Z" fill="black"/>
<path d="M15.2296 34.8755V33.3203H16.3649V34.8755H15.2296Z" fill="black"/>
<path d="M16.181 34.8755V33.3203H16.9918V34.8755H16.181Z" fill="black"/>
<path d="M16.7259 34.8755V33.3203H17.3748V34.8755H16.7259Z" fill="black"/>
<path d="M17.1895 34.8755V33.3203H18.9744V34.8755H17.1895Z" fill="black"/>
<path d="M18.8297 34.8755V33.3203H20.2895V34.8755H18.8297Z" fill="black"/>
<path d="M20.2674 34.8755V33.3203H21.7272V34.8755H20.2674Z" fill="black"/>
<path d="M21.3799 34.8755V33.3203H23.0023V34.8755H21.3799Z" fill="black"/>
<path d="M22.655 34.8755V33.3203H23.7903V34.8755H22.655Z" fill="black"/>
<path d="M23.6064 34.8755V33.3203H24.7417V34.8755H23.6064Z" fill="black"/>
<path d="M24.5578 34.8755V33.3203H26.1801V34.8755H24.5578Z" fill="black"/>
<path d="M25.8329 34.8755V33.3203H27.2926V34.8755H25.8329Z" fill="black"/>
<path d="M27.108 34.8755V33.3203H28.7303V34.8755H27.108Z" fill="black"/>
<path d="M28.627 34.8755V33.3203H30.0867V34.8755H28.627Z" fill="black"/>
<path d="M29.7395 34.8755V33.3203H30.8748V34.8755H29.7395Z" fill="black"/>
<path d="M30.6909 34.8755V33.3203H32.3132V34.8755H30.6909Z" fill="black"/>
<path d="M31.966 34.8755V33.3203H32.6149V34.8755H31.966Z" fill="black"/>
<path d="M6.16259 37.8755V36.3203H7.62235V37.8755H6.16259Z" fill="black"/>
<path d="M7.519 37.8755V36.3203H8.81616V37.8755H7.519Z" fill="black"/>
<path d="M8.63152 37.8755V36.3203H9.76681V37.8755H8.63152Z" fill="black"/>
<path d="M9.42029 37.8755V36.3203H11.0426V37.8755H9.42029Z" fill="black"/>
<path d="M10.858 37.8755V36.3203H12.3177V37.8755H10.858Z" fill="black"/>
<path d="M12.1331 37.8755V36.3203H13.2684V37.8755H12.1331Z" fill="black"/>
<path d="M12.9219 37.8755V36.3203H14.0572V37.8755H12.9219Z" fill="black"/>
<path d="M13.8732 37.8755V36.3203H15.4956V37.8755H13.8732Z" fill="black"/>
<path d="M15.2296 37.8755V36.3203H16.3649V37.8755H15.2296Z" fill="black"/>
<path d="M16.181 37.8755V36.3203H16.9918V37.8755H16.181Z" fill="black"/>
<path d="M16.7259 37.8755V36.3203H17.3748V37.8755H16.7259Z" fill="black"/>
<path d="M17.1895 37.8755V36.3203H18.8118V37.8755H17.1895Z" fill="black"/>
<path d="M18.6471 37.8755V36.3203H20.2695V37.8755H18.6471Z" fill="black"/>
<path d="M20.0848 37.8755V36.3203H21.2201V37.8755H20.0848Z" fill="black"/>
<path d="M20.8736 37.8755V36.3203H21.5225V37.8755H20.8736Z" fill="black"/>
<path d="M21.3372 37.8755V36.3203H23.6085V37.8755H21.3372Z" fill="black"/>
<path d="M23.3425 37.8755V36.3203H24.9649V37.8755H23.3425Z" fill="black"/>
<path d="M24.6177 37.8755V36.3203H25.4285V37.8755H24.6177Z" fill="black"/>
<path d="M25.2438 37.8755V36.3203H26.7036V37.8755H25.2438Z" fill="black"/>
<path d="M26.3777 37.8755V36.3203H28.0001V37.8755H26.3777Z" fill="black"/>
<path d="M27.6529 37.8755V36.3203H28.3018V37.8755H27.6529Z" fill="black"/>
<path d="M6 40.8755V39.3203H7.62235V40.8755H6Z" fill="black"/>
<path d="M7.6003 40.8755V39.3203H8.89746V40.8755H7.6003Z" fill="black"/>
<path d="M8.71282 40.8755V39.3203H9.8481V40.8755H8.71282Z" fill="black"/>
<path d="M9.82677 40.8755V39.3203H11.2865V40.8755H9.82677Z" fill="black"/>
<path d="M11.1019 40.8755V39.3203H12.7242V40.8755H11.1019Z" fill="black"/>
<path d="M12.5396 40.8755V39.3203H13.1885V40.8755H12.5396Z" fill="black"/>
<path d="M13.0032 40.8755V39.3203H14.1385V40.8755H13.0032Z" fill="black"/>
<path d="M13.9545 40.8755V39.3203H15.2517V40.8755H13.9545Z" fill="black"/>
<path d="M15.0671 40.8755V39.3203H15.716V40.8755H15.0671Z" fill="black"/>
<path d="M15.5306 40.8755V39.3203H16.9904V40.8755H15.5306Z" fill="black"/>
<path d="M16.7658 40.8755V39.3203H18.3882V40.8755H16.7658Z" fill="black"/>
<path d="M18.0409 40.8755V39.3203H19.6633V40.8755H18.0409Z" fill="black"/>
<path d="M19.316 40.8755V39.3203H20.1269V40.8755H19.316Z" fill="black"/>
<path d="M19.8609 40.8755V39.3203H20.6717V40.8755H19.8609Z" fill="black"/>
<path d="M6.32447 7.7709H28.7882V7.84063H6.32447V7.7709ZM6.32447 10.7709H32.3503V10.8406H6.32447V10.7709ZM6.32447 13.7709H26.1202V13.8406H6.32447V13.7709ZM6.32447 16.7709H32.5399V16.8406H6.32447V16.7709ZM6.32447 19.7709H32.6521V19.8406H6.32447V19.7709ZM6.32447 22.7709H30.6736V22.8406H6.32447V22.7709ZM6.32447 25.7709H27.6108V25.8406H6.32447V25.7709ZM6.32447 28.7709H32.6755V28.8406H6.32447V28.7709ZM6.32447 31.7709H25.3521V31.8406H6.32447V31.7709ZM6.32447 34.7709H32.2904V34.8406H6.32447V34.7709ZM6.32447 37.7709H27.9773V37.8406H6.32447V37.7709ZM6.32447 40.7709H20.87V40.8406H6.32447V40.7709Z" fill="black"/>
</g>
<rect width="12" height="14" transform="translate(25 18.3203)" fill="white"/>
<path d="M30.6787 22.1816C31.5999 22.1816 32.2721 22.3802 32.6953 22.7773C33.1185 23.1712 33.3301 23.7148 33.3301 24.4082C33.3301 24.7207 33.2829 25.0202 33.1885 25.3066C33.0941 25.5898 32.9395 25.8421 32.7246 26.0635C32.513 26.2848 32.2298 26.4606 31.875 26.5908C31.5202 26.7178 31.0824 26.7812 30.5615 26.7812H29.9121V29.3203H28.3984V22.1816H30.6787ZM30.6006 23.4219H29.9121V25.541H30.4102C30.6934 25.541 30.9391 25.5036 31.1475 25.4287C31.3558 25.3538 31.5169 25.2367 31.6309 25.0771C31.7448 24.9176 31.8018 24.7126 31.8018 24.4619C31.8018 24.1104 31.7041 23.8499 31.5088 23.6807C31.3135 23.5081 31.0107 23.4219 30.6006 23.4219Z" fill="#585858"/>
</g>
<path d="M11.3333 38.3203H2V44.6684H11.3333V38.3203Z" fill="#E19E55"/>
</g>
<defs>
<filter id="filter0_d_238_44332" x="0" y="1.32031" width="39" height="35" filterUnits="userSpaceOnUse" color-interpolation-filters="sRGB">
<feFlood flood-opacity="0" result="BackgroundImageFix"/>
<feColorMatrix in="SourceAlpha" type="matrix" values="0 0 0 0 0 0 0 0 0 0 0 0 0 0 0 0 0 0 127 0" result="hardAlpha"/>
<feOffset dy="1"/>
<feGaussianBlur stdDeviation="1"/>
<feComposite in2="hardAlpha" operator="out"/>
<feColorMatrix type="matrix" values="0 0 0 0 0 0 0 0 0 0 0 0 0 0 0 0 0 0 0.1 0"/>
<feBlend mode="normal" in2="BackgroundImageFix" result="effect1_dropShadow_238_44332"/>
<feBlend mode="normal" in="SourceGraphic" in2="effect1_dropShadow_238_44332" result="shape"/>
</filter>
<filter id="filter1_i_238_44332" x="2" y="-2.67969" width="35" height="34" filterUnits="userSpaceOnUse" color-interpolation-filters="sRGB">
<feFlood flood-opacity="0" result="BackgroundImageFix"/>
<feBlend mode="normal" in="SourceGraphic" in2="BackgroundImageFix" result="shape"/>
<feColorMatrix in="SourceAlpha" type="matrix" values="0 0 0 0 0 0 0 0 0 0 0 0 0 0 0 0 0 0 127 0" result="hardAlpha"/>
<feOffset dy="-5"/>
<feGaussianBlur stdDeviation="3.5"/>
<feComposite in2="hardAlpha" operator="arithmetic" k2="-1" k3="1"/>
<feColorMatrix type="matrix" values="0 0 0 0 1 0 0 0 0 1 0 0 0 0 1 0 0 0 1 0"/>
<feBlend mode="normal" in2="shape" result="effect1_innerShadow_238_44332"/>
</filter>
<clipPath id="clip0_238_44332">
<rect width="39" height="46.3481" fill="white" transform="translate(0 0.320312)"/>
</clipPath>
<clipPath id="clip1_238_44332">
<rect width="35" height="31" fill="white" transform="translate(2 2.32031)"/>
</clipPath>
<clipPath id="clip2_238_44332">
<rect width="35" height="29" fill="white" transform="translate(2 2.32031)"/>
</clipPath>
</defs>
</svg>
