<svg width="39" height="47" viewBox="0 0 39 47" fill="none" xmlns="http://www.w3.org/2000/svg">
<g clip-path="url(#clip0_238_44365)">
<g clip-path="url(#clip1_238_44365)" filter="url(#filter0_d_238_44365)">
<rect width="35" height="31" transform="translate(2 2.03027)" fill="white"/>
<g opacity="0.3" clip-path="url(#clip2_238_44365)" filter="url(#filter1_i_238_44365)">
<rect width="35" height="29" transform="translate(2 2.03027)" fill="white"/>
<path d="M6 7.58545V6.03027H6.76771V7.58545H6Z" fill="black"/>
<path d="M6.74683 7.58545V6.03027H8.89735V7.58545H6.74683Z" fill="black"/>
<path d="M8.68336 7.58545V6.03027H10.2194V7.58545H8.68336Z" fill="black"/>
<path d="M9.89068 7.58545V6.03027H10.5051V7.58545H9.89068Z" fill="black"/>
<path d="M10.3296 7.58545V6.03027H11.8657V7.58545H10.3296Z" fill="black"/>
<path d="M11.6909 7.58545V6.03027H13.227V7.58545H11.6909Z" fill="black"/>
<path d="M12.8982 7.58545V6.03027H14.2803V7.58545H12.8982Z" fill="black"/>
<path d="M14.1825 7.58545V6.03027H15.7186V7.58545H14.1825Z" fill="black"/>
<path d="M15.3898 7.58545V6.03027H16.0042V7.58545H15.3898Z" fill="black"/>
<path d="M15.8287 7.58545V6.03027H17.826V7.58545H15.8287Z" fill="black"/>
<path d="M17.7275 7.58545V6.03027H19.2635V7.58545H17.7275Z" fill="black"/>
<path d="M19.0117 7.58545V6.03027H20.5478V7.58545H19.0117Z" fill="black"/>
<path d="M20.296 7.58545V6.03027H21.8321V7.58545H20.296Z" fill="black"/>
<path d="M21.5034 7.58545V6.03027H22.1178V7.58545H21.5034Z" fill="black"/>
<path d="M21.9423 7.58545V6.03027H23.3244V7.58545H21.9423Z" fill="black"/>
<path d="M23.0726 7.58545V6.03027H24.1476V7.58545H23.0726Z" fill="black"/>
<path d="M23.9734 7.58545V6.03027H25.5095V7.58545H23.9734Z" fill="black"/>
<path d="M25.1807 7.58545V6.03027H26.7168V7.58545H25.1807Z" fill="black"/>
<path d="M26.465 7.58545V6.03027H27.8472V7.58545H26.465Z" fill="black"/>
<path d="M27.5386 7.58545V6.03027H28.1531V7.58545H27.5386Z" fill="black"/>
<path d="M6 10.5854V9.03027H7.22887V10.5854H6Z" fill="black"/>
<path d="M6.90077 10.5854V9.03027H8.28291V10.5854H6.90077Z" fill="black"/>
<path d="M8.12835 10.5854V9.03027H9.35654V10.5854H8.12835Z" fill="black"/>
<path d="M9.18172 10.5854V9.03027H11.179V10.5854H9.18172Z" fill="black"/>
<path d="M11.0804 10.5854V9.03027H11.6949V10.5854H11.0804Z" fill="black"/>
<path d="M11.5194 10.5854V9.03027H12.5943V10.5854H11.5194Z" fill="black"/>
<path d="M12.2662 10.5854V9.03027H13.8023V10.5854H12.2662Z" fill="black"/>
<path d="M13.6275 10.5854V9.03027H15.1636V10.5854H13.6275Z" fill="black"/>
<path d="M14.8348 10.5854V9.03027H15.4492V10.5854H14.8348Z" fill="black"/>
<path d="M15.2737 10.5854V9.03027H16.6559V10.5854H15.2737Z" fill="black"/>
<path d="M16.558 10.5854V9.03027H18.0941V10.5854H16.558Z" fill="black"/>
<path d="M17.7653 10.5854V9.03027H19.1475V10.5854H17.7653Z" fill="black"/>
<path d="M18.9929 10.5854V9.03027H20.375V10.5854H18.9929Z" fill="black"/>
<path d="M20.1232 10.5854V9.03027H20.7377V10.5854H20.1232Z" fill="black"/>
<path d="M20.7161 10.5854V9.03027H22.0983V10.5854H20.7161Z" fill="black"/>
<path d="M21.7695 10.5854V9.03027H23.3056V10.5854H21.7695Z" fill="black"/>
<path d="M22.9768 10.5854V9.03027H24.5129V10.5854H22.9768Z" fill="black"/>
<path d="M24.3381 10.5854V9.03027H25.413V10.5854H24.3381Z" fill="black"/>
<path d="M25.3928 10.5854V9.03027H26.7749V10.5854H25.3928Z" fill="black"/>
<path d="M26.7541 10.5854V9.03027H28.1362V10.5854H26.7541Z" fill="black"/>
<path d="M27.9614 10.5854V9.03027H29.0363V10.5854H27.9614Z" fill="black"/>
<path d="M29.0161 10.5854V9.03027H30.3982V10.5854H29.0161Z" fill="black"/>
<path d="M30.2234 10.5854V9.03027H31.7595V10.5854H30.2234Z" fill="black"/>
<path d="M31.5847 10.5854V9.03027H32.1991V10.5854H31.5847Z" fill="black"/>
<path d="M6 13.5854V12.0303H7.07492V13.5854H6Z" fill="black"/>
<path d="M6.74683 13.5854V12.0303H8.28291V13.5854H6.74683Z" fill="black"/>
<path d="M8.10809 13.5854V12.0303H9.64418V13.5854H8.10809Z" fill="black"/>
<path d="M9.39238 13.5854V12.0303H10.4673V13.5854H9.39238Z" fill="black"/>
<path d="M10.1392 13.5854V12.0303H10.7536V13.5854H10.1392Z" fill="black"/>
<path d="M10.5781 13.5854V12.0303H11.9603V13.5854H10.5781Z" fill="black"/>
<path d="M11.7476 13.5854V12.0303H13.2837V13.5854H11.7476Z" fill="black"/>
<path d="M12.955 13.5854V12.0303H14.3371V13.5854H12.955Z" fill="black"/>
<path d="M14.0853 13.5854V12.0303H15.6214V13.5854H14.0853Z" fill="black"/>
<path d="M15.4466 13.5854V12.0303H16.8287V13.5854H15.4466Z" fill="black"/>
<path d="M16.5202 13.5854V12.0303H17.5951V13.5854H16.5202Z" fill="black"/>
<path d="M17.421 13.5854V12.0303H18.4959V13.5854H17.421Z" fill="black"/>
<path d="M18.3217 13.5854V12.0303H19.7039V13.5854H18.3217Z" fill="black"/>
<path d="M19.4521 13.5854V12.0303H20.0665V13.5854H19.4521Z" fill="black"/>
<path d="M19.891 13.5854V12.0303H21.4271V13.5854H19.891Z" fill="black"/>
<path d="M21.2523 13.5854V12.0303H22.7884V13.5854H21.2523Z" fill="black"/>
<path d="M22.6135 13.5854V12.0303H24.1496V13.5854H22.6135Z" fill="black"/>
<path d="M23.8978 13.5854V12.0303H25.28V13.5854H23.8978Z" fill="black"/>
<path d="M24.9337 13.5854V12.0303H26.4697V13.5854H24.9337Z" fill="black"/>
<path d="M26.3719 13.5854V12.0303H27.754V13.5854H26.3719Z" fill="black"/>
<path d="M27.5792 13.5854V12.0303H28.6541V13.5854H27.5792Z" fill="black"/>
<path d="M28.326 13.5854V12.0303H29.8621V13.5854H28.326Z" fill="black"/>
<path d="M29.5333 13.5854V12.0303H31.0694V13.5854H29.5333Z" fill="black"/>
<path d="M30.7407 13.5854V12.0303H32.1228V13.5854H30.7407Z" fill="black"/>
<path d="M31.9102 13.5854V12.0303H32.5246V13.5854H31.9102Z" fill="black"/>
<path d="M6 16.5854V15.0303H7.53609V16.5854H6Z" fill="black"/>
<path d="M7.43824 16.5854V15.0303H8.82037V16.5854H7.43824Z" fill="black"/>
<path d="M8.64555 16.5854V15.0303H10.1816V16.5854H8.64555Z" fill="black"/>
<path d="M9.92984 16.5854V15.0303H10.5443V16.5854H9.92984Z" fill="black"/>
<path d="M10.3688 16.5854V15.0303H11.7509V16.5854H10.3688Z" fill="black"/>
<path d="M11.5383 16.5854V15.0303H13.0744V16.5854H11.5383Z" fill="black"/>
<path d="M12.9765 16.5854V15.0303H14.3587V16.5854H12.9765Z" fill="black"/>
<path d="M14.1838 16.5854V15.0303H15.566V16.5854H14.1838Z" fill="black"/>
<path d="M15.3142 16.5854V15.0303H16.3891V16.5854H15.3142Z" fill="black"/>
<path d="M16.061 16.5854V15.0303H17.1359V16.5854H16.061Z" fill="black"/>
<path d="M17.1157 16.5854V15.0303H18.3439V16.5854H17.1157Z" fill="black"/>
<path d="M18.323 16.5854V15.0303H19.7052V16.5854H18.323Z" fill="black"/>
<path d="M19.5304 16.5854V15.0303H20.9125V16.5854H19.5304Z" fill="black"/>
<path d="M20.6999 16.5854V15.0303H21.3143V16.5854H20.6999Z" fill="black"/>
<path d="M21.1388 16.5854V15.0303H22.5209V16.5854H21.1388Z" fill="black"/>
<path d="M22.2124 16.5854V15.0303H23.7485V16.5854H22.2124Z" fill="black"/>
<path d="M23.4197 16.5854V15.0303H24.4947V16.5854H23.4197Z" fill="black"/>
<path d="M24.3205 16.5854V15.0303H25.3954V16.5854H24.3205Z" fill="black"/>
<path d="M25.2213 16.5854V15.0303H26.7574V16.5854H25.2213Z" fill="black"/>
<path d="M26.4286 16.5854V15.0303H27.6575V16.5854H26.4286Z" fill="black"/>
<path d="M27.3294 16.5854V15.0303H27.9438V16.5854H27.3294Z" fill="black"/>
<path d="M6 19.5854V18.0303H8.15052V19.5854H6Z" fill="black"/>
<path d="M7.89872 19.5854V18.0303H9.43481V19.5854H7.89872Z" fill="black"/>
<path d="M9.10604 19.5854V18.0303H10.4882V19.5854H9.10604Z" fill="black"/>
<path d="M10.1797 19.5854V18.0303H11.7158V19.5854H10.1797Z" fill="black"/>
<path d="M11.387 19.5854V18.0303H12.0014V19.5854H11.387Z" fill="black"/>
<path d="M11.8259 19.5854V18.0303H13.362V19.5854H11.8259Z" fill="black"/>
<path d="M13.2642 19.5854V18.0303H14.6463V19.5854H13.2642Z" fill="black"/>
<path d="M14.4715 19.5854V18.0303H16.0076V19.5854H14.4715Z" fill="black"/>
<path d="M15.7558 19.5854V18.0303H16.3702V19.5854H15.7558Z" fill="black"/>
<path d="M16.1947 19.5854V18.0303H17.7308V19.5854H16.1947Z" fill="black"/>
<path d="M17.479 19.5854V18.0303H18.8611V19.5854H17.479Z" fill="black"/>
<path d="M18.5526 19.5854V18.0303H20.0887V19.5854H18.5526Z" fill="black"/>
<path d="M19.7599 19.5854V18.0303H20.3744V19.5854H19.7599Z" fill="black"/>
<path d="M20.1989 19.5854V18.0303H21.2738V19.5854H20.1989Z" fill="black"/>
<path d="M21.0996 19.5854V18.0303H22.3278V19.5854H21.0996Z" fill="black"/>
<path d="M22.307 19.5854V18.0303H23.6891V19.5854H22.307Z" fill="black"/>
<path d="M23.4373 19.5854V18.0303H24.5122V19.5854H23.4373Z" fill="black"/>
<path d="M24.3381 19.5854V18.0303H25.7202V19.5854H24.3381Z" fill="black"/>
<path d="M25.4684 19.5854V18.0303H26.8506V19.5854H25.4684Z" fill="black"/>
<path d="M26.6379 19.5854V18.0303H27.2524V19.5854H26.6379Z" fill="black"/>
<path d="M6 22.5854V21.0303H8.15052V22.5854H6Z" fill="black"/>
<path d="M7.89872 22.5854V21.0303H9.43481V22.5854H7.89872Z" fill="black"/>
<path d="M9.25999 22.5854V21.0303H10.3349V22.5854H9.25999Z" fill="black"/>
<path d="M10.1608 22.5854V21.0303H11.5429V22.5854H10.1608Z" fill="black"/>
<path d="M11.2911 22.5854V21.0303H12.8272V22.5854H11.2911Z" fill="black"/>
<path d="M12.6524 22.5854V21.0303H13.2668V22.5854H12.6524Z" fill="black"/>
<path d="M13.0913 22.5854V21.0303H14.4734V22.5854H13.0913Z" fill="black"/>
<path d="M14.3756 22.5854V21.0303H15.6038V22.5854H14.3756Z" fill="black"/>
<path d="M15.429 22.5854V21.0303H16.965V22.5854H15.429Z" fill="black"/>
<path d="M16.7902 22.5854V21.0303H17.8651V22.5854H16.7902Z" fill="black"/>
<path d="M17.691 22.5854V21.0303H19.2271V22.5854H17.691Z" fill="black"/>
<path d="M18.9753 22.5854V21.0303H19.5897V22.5854H18.9753Z" fill="black"/>
<path d="M19.5682 22.5854V21.0303H20.9503V22.5854H19.5682Z" fill="black"/>
<path d="M20.6215 22.5854V21.0303H22.1576V22.5854H20.6215Z" fill="black"/>
<path d="M21.8289 22.5854V21.0303H22.4433V22.5854H21.8289Z" fill="black"/>
<path d="M22.2678 22.5854V21.0303H23.8039V22.5854H22.2678Z" fill="black"/>
<path d="M23.5521 22.5854V21.0303H25.0882V22.5854H23.5521Z" fill="black"/>
<path d="M24.7594 22.5854V21.0303H26.1415V22.5854H24.7594Z" fill="black"/>
<path d="M25.9667 22.5854V21.0303H27.5028V22.5854H25.9667Z" fill="black"/>
<path d="M27.4049 22.5854V21.0303H28.7871V22.5854H27.4049Z" fill="black"/>
<path d="M28.6123 22.5854V21.0303H29.9944V22.5854H28.6123Z" fill="black"/>
<path d="M29.7426 22.5854V21.0303H31.2787V22.5854H29.7426Z" fill="black"/>
<path d="M30.9499 22.5854V21.0303H32.486V22.5854H30.9499Z" fill="black"/>
<path d="M32.2342 22.5854V21.0303H32.8486V22.5854H32.2342Z" fill="black"/>
<path d="M6 25.5854V24.0303H7.07492V25.5854H6Z" fill="black"/>
<path d="M6.90077 25.5854V24.0303H8.12964V25.5854H6.90077Z" fill="black"/>
<path d="M7.80155 25.5854V24.0303H8.41598V25.5854H7.80155Z" fill="black"/>
<path d="M8.24048 25.5854V24.0303H9.93052V25.5854H8.24048Z" fill="black"/>
<path d="M9.7746 25.5854V24.0303H11.0028V25.5854H9.7746Z" fill="black"/>
<path d="M10.828 25.5854V24.0303H12.2101V25.5854H10.828Z" fill="black"/>
<path d="M11.9016 25.5854V24.0303H12.9765V25.5854H11.9016Z" fill="black"/>
<path d="M12.6484 25.5854V24.0303H14.1845V25.5854H12.6484Z" fill="black"/>
<path d="M14.0097 25.5854V24.0303H14.6241V25.5854H14.0097Z" fill="black"/>
<path d="M14.4486 25.5854V24.0303H16.1387V25.5854H14.4486Z" fill="black"/>
<path d="M16.0408 25.5854V24.0303H17.269V25.5854H16.0408Z" fill="black"/>
<path d="M17.0942 25.5854V24.0303H18.4763V25.5854H17.0942Z" fill="black"/>
<path d="M18.1678 25.5854V24.0303H19.7039V25.5854H18.1678Z" fill="black"/>
<path d="M19.3751 25.5854V24.0303H20.9112V25.5854H19.3751Z" fill="black"/>
<path d="M20.6594 25.5854V24.0303H21.2738V25.5854H20.6594Z" fill="black"/>
<path d="M21.0983 25.5854V24.0303H22.1733V25.5854H21.0983Z" fill="black"/>
<path d="M21.9991 25.5854V24.0303H23.3813V25.5854H21.9991Z" fill="black"/>
<path d="M23.1686 25.5854V24.0303H23.7831V25.5854H23.1686Z" fill="black"/>
<path d="M23.6076 25.5854V24.0303H24.6825V25.5854H23.6076Z" fill="black"/>
<path d="M24.6623 25.5854V24.0303H26.0444V25.5854H24.6623Z" fill="black"/>
<path d="M25.8696 25.5854V24.0303H26.484V25.5854H25.8696Z" fill="black"/>
<path d="M26.3085 25.5854V24.0303H27.3834V25.5854H26.3085Z" fill="black"/>
<path d="M27.0554 25.5854V24.0303H28.5914V25.5854H27.0554Z" fill="black"/>
<path d="M28.4166 25.5854V24.0303H29.7988V25.5854H28.4166Z" fill="black"/>
<path d="M29.6442 25.5854V24.0303H31.0263V25.5854H29.6442Z" fill="black"/>
<path d="M30.8515 25.5854V24.0303H31.4659V25.5854H30.8515Z" fill="black"/>
<path d="M6 28.5854V27.0303H7.38214V28.5854H6Z" fill="black"/>
<path d="M7.07363 28.5854V27.0303H8.60971V28.5854H7.07363Z" fill="black"/>
<path d="M8.28094 28.5854V27.0303H9.81703V28.5854H8.28094Z" fill="black"/>
<path d="M9.56523 28.5854V27.0303H11.1013V28.5854H9.56523Z" fill="black"/>
<path d="M10.9265 28.5854V27.0303H12.3086V28.5854H10.9265Z" fill="black"/>
<path d="M12.0568 28.5854V27.0303H12.6713V28.5854H12.0568Z" fill="black"/>
<path d="M12.4958 28.5854V27.0303H13.5707V28.5854H12.4958Z" fill="black"/>
<path d="M13.3965 28.5854V27.0303H14.6247V28.5854H13.3965Z" fill="black"/>
<path d="M14.4499 28.5854V27.0303H15.0644V28.5854H14.4499Z" fill="black"/>
<path d="M14.8889 28.5854V27.0303H16.8861V28.5854H14.8889Z" fill="black"/>
<path d="M16.7876 28.5854V27.0303H18.3237V28.5854H16.7876Z" fill="black"/>
<path d="M18.0719 28.5854V27.0303H19.608V28.5854H18.0719Z" fill="black"/>
<path d="M19.3953 28.5854V27.0303H20.9314V28.5854H19.3953Z" fill="black"/>
<path d="M20.6026 28.5854V27.0303H21.2171V28.5854H20.6026Z" fill="black"/>
<path d="M21.1955 28.5854V27.0303H22.5777V28.5854H21.1955Z" fill="black"/>
<path d="M22.3259 28.5854V27.0303H23.708V28.5854H22.3259Z" fill="black"/>
<path d="M23.5534 28.5854V27.0303H24.7816V28.5854H23.5534Z" fill="black"/>
<path d="M24.6068 28.5854V27.0303H26.1429V28.5854H24.6068Z" fill="black"/>
<path d="M25.9681 28.5854V27.0303H27.3502V28.5854H25.9681Z" fill="black"/>
<path d="M27.0417 28.5854V27.0303H28.5778V28.5854H27.0417Z" fill="black"/>
<path d="M28.249 28.5854V27.0303H29.6311V28.5854H28.249Z" fill="black"/>
<path d="M29.4185 28.5854V27.0303H30.8007V28.5854H29.4185Z" fill="black"/>
<path d="M30.588 28.5854V27.0303H31.2024V28.5854H30.588Z" fill="black"/>
<path d="M6.15395 31.5854V30.0303H7.38214V31.5854H6.15395Z" fill="black"/>
<path d="M7.36126 31.5854V30.0303H8.7434V31.5854H7.36126Z" fill="black"/>
<path d="M8.56858 31.5854V30.0303H9.18301V31.5854H8.56858Z" fill="black"/>
<path d="M9.00751 31.5854V30.0303H10.5436V31.5854H9.00751Z" fill="black"/>
<path d="M10.2918 31.5854V30.0303H11.8279V31.5854H10.2918Z" fill="black"/>
<path d="M11.6531 31.5854V30.0303H13.0352V31.5854H11.6531Z" fill="black"/>
<path d="M12.8604 31.5854V30.0303H14.3965V31.5854H12.8604Z" fill="black"/>
<path d="M14.2216 31.5854V30.0303H15.6038V31.5854H14.2216Z" fill="black"/>
<path d="M15.352 31.5854V30.0303H16.4269V31.5854H15.352Z" fill="black"/>
<path d="M16.2528 31.5854V30.0303H17.7888V31.5854H16.2528Z" fill="black"/>
<path d="M17.4601 31.5854V30.0303H18.9962V31.5854H17.4601Z" fill="black"/>
<path d="M18.7444 31.5854V30.0303H20.1265V31.5854H18.7444Z" fill="black"/>
<path d="M19.818 31.5854V30.0303H20.8929V31.5854H19.818Z" fill="black"/>
<path d="M20.8727 31.5854V30.0303H22.1009V31.5854H20.8727Z" fill="black"/>
<path d="M21.8302 31.5854V30.0303H23.3663V31.5854H21.8302Z" fill="black"/>
<path d="M23.1145 31.5854V30.0303H24.1894V31.5854H23.1145Z" fill="black"/>
<path d="M23.8613 31.5854V30.0303H24.9362V31.5854H23.8613Z" fill="black"/>
<path d="M24.916 31.5854V30.0303H26.1442V31.5854H24.916Z" fill="black"/>
<path d="M26.1234 31.5854V30.0303H27.5055V31.5854H26.1234Z" fill="black"/>
<path d="M27.3307 31.5854V30.0303H28.0984V31.5854H27.3307Z" fill="black"/>
<path d="M27.8466 31.5854V30.0303H28.461V31.5854H27.8466Z" fill="black"/>
<path d="M28.2855 31.5854V30.0303H29.9756V31.5854H28.2855Z" fill="black"/>
<path d="M29.7238 31.5854V30.0303H31.1059V31.5854H29.7238Z" fill="black"/>
<path d="M30.8933 31.5854V30.0303H31.5077V31.5854H30.8933Z" fill="black"/>
<path d="M31.3322 31.5854V30.0303H32.5611V31.5854H31.3322Z" fill="black"/>
<path d="M32.3856 31.5854V30.0303H33V31.5854H32.3856Z" fill="black"/>
<path d="M6 34.5854V33.0303H7.53609V34.5854H6Z" fill="black"/>
<path d="M7.36126 34.5854V33.0303H8.89735V34.5854H7.36126Z" fill="black"/>
<path d="M8.56858 34.5854V33.0303H9.95072V34.5854H8.56858Z" fill="black"/>
<path d="M9.85287 34.5854V33.0303H11.389V34.5854H9.85287Z" fill="black"/>
<path d="M11.0602 34.5854V33.0303H11.6746V34.5854H11.0602Z" fill="black"/>
<path d="M11.4991 34.5854V33.0303H12.8813V34.5854H11.4991Z" fill="black"/>
<path d="M12.6686 34.5854V33.0303H14.2047V34.5854H12.6686Z" fill="black"/>
<path d="M13.9529 34.5854V33.0303H15.0278V34.5854H13.9529Z" fill="black"/>
<path d="M14.8537 34.5854V33.0303H16.3898V34.5854H14.8537Z" fill="black"/>
<path d="M16.138 34.5854V33.0303H16.7524V34.5854H16.138Z" fill="black"/>
<path d="M16.5769 34.5854V33.0303H17.8058V34.5854H16.5769Z" fill="black"/>
<path d="M17.4777 34.5854V33.0303H18.8598V34.5854H17.4777Z" fill="black"/>
<path d="M18.7053 34.5854V33.0303H19.9335V34.5854H18.7053Z" fill="black"/>
<path d="M19.7586 34.5854V33.0303H21.7559V34.5854H19.7586Z" fill="black"/>
<path d="M21.6574 34.5854V33.0303H22.2718V34.5854H21.6574Z" fill="black"/>
<path d="M22.0963 34.5854V33.0303H23.1712V34.5854H22.0963Z" fill="black"/>
<path d="M22.8431 34.5854V33.0303H24.3792V34.5854H22.8431Z" fill="black"/>
<path d="M24.2044 34.5854V33.0303H25.7405V34.5854H24.2044Z" fill="black"/>
<path d="M25.4117 34.5854V33.0303H26.0261V34.5854H25.4117Z" fill="black"/>
<path d="M6.15395 37.5854V36.0303H7.53609V37.5854H6.15395Z" fill="black"/>
<path d="M7.20732 37.5854V36.0303H8.7434V37.5854H7.20732Z" fill="black"/>
<path d="M8.41463 37.5854V36.0303H9.95072V37.5854H8.41463Z" fill="black"/>
<path d="M9.77589 37.5854V36.0303H10.8508V37.5854H9.77589Z" fill="black"/>
<path d="M10.8306 37.5854V36.0303H12.2128V37.5854H10.8306Z" fill="black"/>
<path d="M12.1919 37.5854V36.0303H13.574V37.5854H12.1919Z" fill="black"/>
<path d="M13.3992 37.5854V36.0303H14.4741V37.5854H13.3992Z" fill="black"/>
<path d="M14.4539 37.5854V36.0303H15.8361V37.5854H14.4539Z" fill="black"/>
<path d="M15.6612 37.5854V36.0303H17.1973V37.5854H15.6612Z" fill="black"/>
<path d="M17.0225 37.5854V36.0303H17.7902V37.5854H17.0225Z" fill="black"/>
<path d="M17.5384 37.5854V36.0303H18.1528V37.5854H17.5384Z" fill="black"/>
<path d="M17.9773 37.5854V36.0303H20.1279V37.5854H17.9773Z" fill="black"/>
<path d="M19.8761 37.5854V36.0303H21.4121V37.5854H19.8761Z" fill="black"/>
<path d="M21.0834 37.5854V36.0303H21.6978V37.5854H21.0834Z" fill="black"/>
<path d="M21.5223 37.5854V36.0303H23.0584V37.5854H21.5223Z" fill="black"/>
<path d="M22.9605 37.5854V36.0303H24.1887V37.5854H22.9605Z" fill="black"/>
<path d="M24.0139 37.5854V36.0303H24.6284V37.5854H24.0139Z" fill="black"/>
<path d="M24.6068 37.5854V36.0303H25.9889V37.5854H24.6068Z" fill="black"/>
<path d="M25.9681 37.5854V36.0303H27.1963V37.5854H25.9681Z" fill="black"/>
<path d="M27.0214 37.5854V36.0303H28.0964V37.5854H27.0214Z" fill="black"/>
<path d="M27.7683 37.5854V36.0303H28.3827V37.5854H27.7683Z" fill="black"/>
<path d="M6 40.5854V39.0303H7.53609V40.5854H6Z" fill="black"/>
<path d="M7.20732 40.5854V39.0303H8.7434V40.5854H7.20732Z" fill="black"/>
<path d="M8.64555 40.5854V39.0303H10.0277V40.5854H8.64555Z" fill="black"/>
<path d="M9.77589 40.5854V39.0303H11.312V40.5854H9.77589Z" fill="black"/>
<path d="M10.9832 40.5854V39.0303H12.3654V40.5854H10.9832Z" fill="black"/>
<path d="M12.1136 40.5854V39.0303H13.1885V40.5854H12.1136Z" fill="black"/>
<path d="M12.8604 40.5854V39.0303H13.4748V40.5854H12.8604Z" fill="black"/>
<path d="M13.2993 40.5854V39.0303H14.9893V40.5854H13.2993Z" fill="black"/>
<path d="M14.8334 40.5854V39.0303H16.0616V40.5854H14.8334Z" fill="black"/>
<path d="M15.8868 40.5854V39.0303H17.2689V40.5854H15.8868Z" fill="black"/>
<path d="M16.9604 40.5854V39.0303H18.0354V40.5854H16.9604Z" fill="black"/>
<path d="M17.7073 40.5854V39.0303H19.2433V40.5854H17.7073Z" fill="black"/>
<path d="M19.0685 40.5854V39.0303H19.683V40.5854H19.0685Z" fill="black"/>
<path d="M19.5075 40.5854V39.0303H21.1975V40.5854H19.5075Z" fill="black"/>
<path d="M21.0996 40.5854V39.0303H22.3278V40.5854H21.0996Z" fill="black"/>
<path d="M22.153 40.5854V39.0303H23.5351V40.5854H22.153Z" fill="black"/>
<path d="M23.2266 40.5854V39.0303H24.7627V40.5854H23.2266Z" fill="black"/>
<path d="M24.4339 40.5854V39.0303H25.97V40.5854H24.4339Z" fill="black"/>
<path d="M25.7182 40.5854V39.0303H26.3327V40.5854H25.7182Z" fill="black"/>
<path d="M26.1572 40.5854V39.0303H27.2321V40.5854H26.1572Z" fill="black"/>
<path d="M27.0579 40.5854V39.0303H28.2861V40.5854H27.0579Z" fill="black"/>
<path d="M28.1113 40.5854V39.0303H28.7258V40.5854H28.1113Z" fill="black"/>
<path d="M28.5503 40.5854V39.0303H30.0863V40.5854H28.5503Z" fill="black"/>
<path d="M29.9885 40.5854V39.0303H31.2167V40.5854H29.9885Z" fill="black"/>
<path d="M31.0419 40.5854V39.0303H31.6563V40.5854H31.0419Z" fill="black"/>
<path d="M6 43.5854V42.0303H7.53609V43.5854H6Z" fill="black"/>
<path d="M7.20732 43.5854V42.0303H8.58946V43.5854H7.20732Z" fill="black"/>
<path d="M8.49161 43.5854V42.0303H10.0277V43.5854H8.49161Z" fill="black"/>
<path d="M9.69892 43.5854V42.0303H11.0811V43.5854H9.69892Z" fill="black"/>
<path d="M10.9265 43.5854V42.0303H12.3086V43.5854H10.9265Z" fill="black"/>
<path d="M12.0568 43.5854V42.0303H13.1318V43.5854H12.0568Z" fill="black"/>
<path d="M12.8037 43.5854V42.0303H14.3398V43.5854H12.8037Z" fill="black"/>
<path d="M14.1649 43.5854V42.0303H15.2399V43.5854H14.1649Z" fill="black"/>
<path d="M15.2196 43.5854V42.0303H16.6018V43.5854H15.2196Z" fill="black"/>
<path d="M16.427 43.5854V42.0303H17.9631V43.5854H16.427Z" fill="black"/>
<path d="M17.7882 43.5854V42.0303H18.4027V43.5854H17.7882Z" fill="black"/>
<path d="M18.3811 43.5854V42.0303H19.7632V43.5854H18.3811Z" fill="black"/>
<path d="M19.4345 43.5854V42.0303H20.9706V43.5854H19.4345Z" fill="black"/>
<path d="M20.6418 43.5854V42.0303H21.8707V43.5854H20.6418Z" fill="black"/>
<path d="M21.6965 43.5854V42.0303H22.9247V43.5854H21.6965Z" fill="black"/>
<path d="M22.7499 43.5854V42.0303H24.132V43.5854H22.7499Z" fill="black"/>
<path d="M23.8235 43.5854V42.0303H25.3596V43.5854H23.8235Z" fill="black"/>
<path d="M25.0308 43.5854V42.0303H25.6453V43.5854H25.0308Z" fill="black"/>
<path d="M25.4698 43.5854V42.0303H27.6203V43.5854H25.4698Z" fill="black"/>
<path d="M27.3685 43.5854V42.0303H28.9046V43.5854H27.3685Z" fill="black"/>
<path d="M28.5758 43.5854V42.0303H29.1902V43.5854H28.5758Z" fill="black"/>
<path d="M29.0147 43.5854V42.0303H30.5508V43.5854H29.0147Z" fill="black"/>
<path d="M30.453 43.5854V42.0303H31.6812V43.5854H30.453Z" fill="black"/>
<path d="M31.5063 43.5854V42.0303H32.1208V43.5854H31.5063Z" fill="black"/>
<path d="M6 46.5854V45.0303H7.53609V46.5854H6Z" fill="black"/>
<path d="M7.43824 46.5854V45.0303H8.82037V46.5854H7.43824Z" fill="black"/>
<path d="M8.72252 46.5854V45.0303H10.1047V46.5854H8.72252Z" fill="black"/>
<path d="M9.85287 46.5854V45.0303H10.9278V46.5854H9.85287Z" fill="black"/>
<path d="M10.5997 46.5854V45.0303H12.1358V46.5854H10.5997Z" fill="black"/>
<path d="M11.961 46.5854V45.0303H13.0359V46.5854H11.961Z" fill="black"/>
<path d="M13.0157 46.5854V45.0303H14.3978V46.5854H13.0157Z" fill="black"/>
<path d="M14.223 46.5854V45.0303H15.7591V46.5854H14.223Z" fill="black"/>
<path d="M15.5843 46.5854V45.0303H16.352V46.5854H15.5843Z" fill="black"/>
<path d="M16.1002 46.5854V45.0303H16.7146V46.5854H16.1002Z" fill="black"/>
<path d="M16.693 46.5854V45.0303H18.0752V46.5854H16.693Z" fill="black"/>
<path d="M18.0543 46.5854V45.0303H19.2825V46.5854H18.0543Z" fill="black"/>
<path d="M19.1077 46.5854V45.0303H20.4898V46.5854H19.1077Z" fill="black"/>
<path d="M20.1813 46.5854V45.0303H20.7957V46.5854H20.1813Z" fill="black"/>
<path d="M20.6202 46.5854V45.0303H22.0024V46.5854H20.6202Z" fill="black"/>
<path d="M21.7897 46.5854V45.0303H23.3258V46.5854H21.7897Z" fill="black"/>
<path d="M23.305 46.5854V45.0303H24.5332V46.5854H23.305Z" fill="black"/>
<path d="M24.3583 46.5854V45.0303H25.8944V46.5854H24.3583Z" fill="black"/>
<path d="M25.7196 46.5854V45.0303H26.7945V46.5854H25.7196Z" fill="black"/>
<path d="M26.6204 46.5854V45.0303H28.1564V46.5854H26.6204Z" fill="black"/>
<path d="M27.9047 46.5854V45.0303H28.5191V46.5854H27.9047Z" fill="black"/>
<path d="M6 49.5854V48.0303H7.69003V49.5854H6Z" fill="black"/>
<path d="M7.53411 49.5854V48.0303H8.76231V49.5854H7.53411Z" fill="black"/>
<path d="M8.58748 49.5854V48.0303H9.96962V49.5854H8.58748Z" fill="black"/>
<path d="M9.66111 49.5854V48.0303H10.736V49.5854H9.66111Z" fill="black"/>
<path d="M10.4079 49.5854V48.0303H11.944V49.5854H10.4079Z" fill="black"/>
<path d="M11.7692 49.5854V48.0303H12.3836V49.5854H11.7692Z" fill="black"/>
<path d="M12.2081 49.5854V48.0303H13.8982V49.5854H12.2081Z" fill="black"/>
<path d="M13.8003 49.5854V48.0303H15.0285V49.5854H13.8003Z" fill="black"/>
<path d="M14.8537 49.5854V48.0303H16.2358V49.5854H14.8537Z" fill="black"/>
<path d="M15.9273 49.5854V48.0303H17.4634V49.5854H15.9273Z" fill="black"/>
<path d="M17.1346 49.5854V48.0303H18.6707V49.5854H17.1346Z" fill="black"/>
<path d="M18.4189 49.5854V48.0303H19.0334V49.5854H18.4189Z" fill="black"/>
<path d="M18.8579 49.5854V48.0303H20.3939V49.5854H18.8579Z" fill="black"/>
<path d="M20.0652 49.5854V48.0303H21.6013V49.5854H20.0652Z" fill="black"/>
<path d="M21.5034 49.5854V48.0303H22.8855V49.5854H21.5034Z" fill="black"/>
<path d="M22.6338 49.5854V48.0303H24.1698V49.5854H22.6338Z" fill="black"/>
<path d="M23.8411 49.5854V48.0303H25.2232V49.5854H23.8411Z" fill="black"/>
<path d="M24.9714 49.5854V48.0303H26.0463V49.5854H24.9714Z" fill="black"/>
<path d="M25.7182 49.5854V48.0303H26.3327V49.5854H25.7182Z" fill="black"/>
<path d="M26.1572 49.5854V48.0303H27.5393V49.5854H26.1572Z" fill="black"/>
<path d="M27.3267 49.5854V48.0303H28.8628V49.5854H27.3267Z" fill="black"/>
<path d="M28.6879 49.5854V48.0303H30.0701V49.5854H28.6879Z" fill="black"/>
<path d="M29.8183 49.5854V48.0303H31.3544V49.5854H29.8183Z" fill="black"/>
<path d="M31.1795 49.5854V48.0303H31.794V49.5854H31.1795Z" fill="black"/>
<path d="M6 52.5854V51.0303H7.53609V52.5854H6Z" fill="black"/>
<path d="M7.43824 52.5854V51.0303H8.82037V52.5854H7.43824Z" fill="black"/>
<path d="M8.64555 52.5854V51.0303H9.25999V52.5854H8.64555Z" fill="black"/>
<path d="M9.23843 52.5854V51.0303H10.4666V52.5854H9.23843Z" fill="black"/>
<path d="M10.2918 52.5854V51.0303H11.8279V52.5854H10.2918Z" fill="black"/>
<path d="M11.6531 52.5854V51.0303H12.728V52.5854H11.6531Z" fill="black"/>
<path d="M12.3999 52.5854V51.0303H13.782V52.5854H12.3999Z" fill="black"/>
<path d="M13.6842 52.5854V51.0303H14.9124V52.5854H13.6842Z" fill="black"/>
<path d="M14.7376 52.5854V51.0303H16.7348V52.5854H14.7376Z" fill="black"/>
<path d="M16.6363 52.5854V51.0303H18.1724V52.5854H16.6363Z" fill="black"/>
<path d="M17.8436 52.5854V51.0303H18.458V52.5854H17.8436Z" fill="black"/>
<path d="M18.2825 52.5854V51.0303H19.5114V52.5854H18.2825Z" fill="black"/>
<path d="M19.1833 52.5854V51.0303H20.5654V52.5854H19.1833Z" fill="black"/>
<path d="M20.4109 52.5854V51.0303H21.6391V52.5854H20.4109Z" fill="black"/>
<path d="M21.4642 52.5854V51.0303H23.4615V52.5854H21.4642Z" fill="black"/>
<path d="M23.363 52.5854V51.0303H23.9774V52.5854H23.363Z" fill="black"/>
<path d="M23.8019 52.5854V51.0303H25.338V52.5854H23.8019Z" fill="black"/>
<path d="M25.1632 52.5854V51.0303H26.5453V52.5854H25.1632Z" fill="black"/>
<path d="M26.3327 52.5854V51.0303H27.1004V52.5854H26.3327Z" fill="black"/>
<path d="M26.8486 52.5854V51.0303H27.463V52.5854H26.8486Z" fill="black"/>
<path d="M27.2875 52.5854V51.0303H28.8236V52.5854H27.2875Z" fill="black"/>
<path d="M28.6677 52.5854V51.0303H30.2038V52.5854H28.6677Z" fill="black"/>
<path d="M30.0289 52.5854V51.0303H31.1039V52.5854H30.0289Z" fill="black"/>
<path d="M30.7758 52.5854V51.0303H31.5435V52.5854H30.7758Z" fill="black"/>
<path d="M31.2917 52.5854V51.0303H31.9061V52.5854H31.2917Z" fill="black"/>
<path d="M6 55.5854V54.0303H8.15052V55.5854H6Z" fill="black"/>
<path d="M7.89872 55.5854V54.0303H9.43481V55.5854H7.89872Z" fill="black"/>
<path d="M9.10604 55.5854V54.0303H9.72047V55.5854H9.10604Z" fill="black"/>
<path d="M9.54498 55.5854V54.0303H11.5422V55.5854H9.54498Z" fill="black"/>
<path d="M11.4437 55.5854V54.0303H12.9798V55.5854H11.4437Z" fill="black"/>
<path d="M12.805 55.5854V54.0303H14.1871V55.5854H12.805Z" fill="black"/>
<path d="M13.9745 55.5854V54.0303H15.0494V55.5854H13.9745Z" fill="black"/>
<path d="M14.7213 55.5854V54.0303H15.3357V55.5854H14.7213Z" fill="black"/>
<path d="M15.1602 55.5854V54.0303H16.6963V55.5854H15.1602Z" fill="black"/>
<path d="M16.4445 55.5854V54.0303H17.9806V55.5854H16.4445Z" fill="black"/>
<path d="M17.8058 55.5854V54.0303H19.1879V55.5854H17.8058Z" fill="black"/>
<path d="M18.8794 55.5854V54.0303H20.4155V55.5854H18.8794Z" fill="black"/>
<path d="M20.0867 55.5854V54.0303H21.6228V55.5854H20.0867Z" fill="black"/>
<path d="M21.294 55.5854V54.0303H21.9085V55.5854H21.294Z" fill="black"/>
<path d="M21.733 55.5854V54.0303H22.8079V55.5854H21.733Z" fill="black"/>
<path d="M22.6337 55.5854V54.0303H23.8619V55.5854H22.6337Z" fill="black"/>
<path d="M23.6871 55.5854V54.0303H24.3016V55.5854H23.6871Z" fill="black"/>
<path d="M24.1261 55.5854V54.0303H25.201V55.5854H24.1261Z" fill="black"/>
<path d="M25.0268 55.5854V54.0303H26.5629V55.5854H25.0268Z" fill="black"/>
<path d="M26.3881 55.5854V54.0303H27.7702V55.5854H26.3881Z" fill="black"/>
<path d="M27.5184 55.5854V54.0303H28.1329V55.5854H27.5184Z" fill="black"/>
<path d="M28.1113 55.5854V54.0303H29.3395V55.5854H28.1113Z" fill="black"/>
<path d="M29.1647 55.5854V54.0303H30.7008V55.5854H29.1647Z" fill="black"/>
<path d="M30.5259 55.5854V54.0303H31.6009V55.5854H30.5259Z" fill="black"/>
<path d="M31.2728 55.5854V54.0303H31.8872V55.5854H31.2728Z" fill="black"/>
<path d="M6 58.5854V57.0303H7.53609V58.5854H6Z" fill="black"/>
<path d="M7.28429 58.5854V57.0303H7.89872V58.5854H7.28429Z" fill="black"/>
<path d="M7.72322 58.5854V57.0303H9.10536V58.5854H7.72322Z" fill="black"/>
<path d="M8.9508 58.5854V57.0303H10.179V58.5854H8.9508Z" fill="black"/>
<path d="M10.0042 58.5854V57.0303H11.5403V58.5854H10.0042Z" fill="black"/>
<path d="M11.2885 58.5854V57.0303H12.8245V58.5854H11.2885Z" fill="black"/>
<path d="M12.5727 58.5854V57.0303H14.57V58.5854H12.5727Z" fill="black"/>
<path d="M14.4715 58.5854V57.0303H16.0076V58.5854H14.4715Z" fill="black"/>
<path d="M15.9097 58.5854V57.0303H17.2918V58.5854H15.9097Z" fill="black"/>
<path d="M17.04 58.5854V57.0303H17.6545V58.5854H17.04Z" fill="black"/>
<path d="M17.479 58.5854V57.0303H18.7079V58.5854H17.479Z" fill="black"/>
<path d="M18.5337 58.5854V57.0303H19.7619V58.5854H18.5337Z" fill="black"/>
<path d="M19.5871 58.5854V57.0303H20.9692V58.5854H19.5871Z" fill="black"/>
<path d="M20.6607 58.5854V57.0303H21.2751V58.5854H20.6607Z" fill="black"/>
<path d="M21.0996 58.5854V57.0303H22.6357V58.5854H21.0996Z" fill="black"/>
<path d="M22.3839 58.5854V57.0303H23.7661V58.5854H22.3839Z" fill="black"/>
<path d="M23.5143 58.5854V57.0303H24.5892V58.5854H23.5143Z" fill="black"/>
<path d="M24.2611 58.5854V57.0303H25.336V58.5854H24.2611Z" fill="black"/>
<path d="M25.3158 58.5854V57.0303H26.544V58.5854H25.3158Z" fill="black"/>
<path d="M26.5231 58.5854V57.0303H27.9053V58.5854H26.5231Z" fill="black"/>
<path d="M27.7304 58.5854V57.0303H28.4982V58.5854H27.7304Z" fill="black"/>
<path d="M28.2464 58.5854V57.0303H28.8608V58.5854H28.2464Z" fill="black"/>
<path d="M6 61.5854V60.0303H7.53609V61.5854H6Z" fill="black"/>
<path d="M7.43824 61.5854V60.0303H8.82037V61.5854H7.43824Z" fill="black"/>
<path d="M8.64555 61.5854V60.0303H10.1816V61.5854H8.64555Z" fill="black"/>
<path d="M9.92984 61.5854V60.0303H10.5443V61.5854H9.92984Z" fill="black"/>
<path d="M10.3688 61.5854V60.0303H12.5193V61.5854H10.3688Z" fill="black"/>
<path d="M12.2675 61.5854V60.0303H13.8036V61.5854H12.2675Z" fill="black"/>
<path d="M13.4748 61.5854V60.0303H14.0893V61.5854H13.4748Z" fill="black"/>
<path d="M13.9138 61.5854V60.0303H15.911V61.5854H13.9138Z" fill="black"/>
<path d="M15.8125 61.5854V60.0303H17.3486V61.5854H15.8125Z" fill="black"/>
<path d="M17.1737 61.5854V60.0303H18.5559V61.5854H17.1737Z" fill="black"/>
<path d="M18.3432 61.5854V60.0303H19.4182V61.5854H18.3432Z" fill="black"/>
<path d="M19.0901 61.5854V60.0303H19.7045V61.5854H19.0901Z" fill="black"/>
<path d="M19.529 61.5854V60.0303H21.0651V61.5854H19.529Z" fill="black"/>
<path d="M20.8133 61.5854V60.0303H22.3494V61.5854H20.8133Z" fill="black"/>
<path d="M22.1746 61.5854V60.0303H23.5567V61.5854H22.1746Z" fill="black"/>
<path d="M23.2482 61.5854V60.0303H24.7843V61.5854H23.2482Z" fill="black"/>
<path d="M24.4555 61.5854V60.0303H25.9916V61.5854H24.4555Z" fill="black"/>
<path d="M25.6628 61.5854V60.0303H26.2773V61.5854H25.6628Z" fill="black"/>
<path d="M26.2557 61.5854V60.0303H27.4839V61.5854H26.2557Z" fill="black"/>
<path d="M27.463 61.5854V60.0303H28.8452V61.5854H27.463Z" fill="black"/>
<path d="M28.6703 61.5854V60.0303H29.2848V61.5854H28.6703Z" fill="black"/>
<path d="M6 64.5854V63.0303H8.15052V64.5854H6Z" fill="black"/>
<path d="M7.89872 64.5854V63.0303H9.43481V64.5854H7.89872Z" fill="black"/>
<path d="M9.25999 64.5854V63.0303H10.7961V64.5854H9.25999Z" fill="black"/>
<path d="M10.4673 64.5854V63.0303H11.8494V64.5854H10.4673Z" fill="black"/>
<path d="M11.5409 64.5854V63.0303H13.077V64.5854H11.5409Z" fill="black"/>
<path d="M12.7482 64.5854V63.0303H13.3627V64.5854H12.7482Z" fill="black"/>
<path d="M13.1872 64.5854V63.0303H14.2621V64.5854H13.1872Z" fill="black"/>
<path d="M13.934 64.5854V63.0303H15.4701V64.5854H13.934Z" fill="black"/>
<path d="M15.2953 64.5854V63.0303H16.8314V64.5854H15.2953Z" fill="black"/>
<path d="M16.5796 64.5854V63.0303H17.6545V64.5854H16.5796Z" fill="black"/>
<path d="M17.3264 64.5854V63.0303H17.9408V64.5854H17.3264Z" fill="black"/>
<path d="M17.7653 64.5854V63.0303H19.1475V64.5854H17.7653Z" fill="black"/>
<path d="M18.9929 64.5854V63.0303H20.2211V64.5854H18.9929Z" fill="black"/>
<path d="M20.0463 64.5854V63.0303H21.5824V64.5854H20.0463Z" fill="black"/>
<path d="M21.3306 64.5854V63.0303H22.8666V64.5854H21.3306Z" fill="black"/>
<path d="M22.6148 64.5854V63.0303H24.6121V64.5854H22.6148Z" fill="black"/>
<path d="M24.5136 64.5854V63.0303H26.0497V64.5854H24.5136Z" fill="black"/>
<path d="M25.9518 64.5854V63.0303H27.3339V64.5854H25.9518Z" fill="black"/>
<path d="M27.0821 64.5854V63.0303H27.6966V64.5854H27.0821Z" fill="black"/>
<path d="M6 67.5854V66.0303H7.53609V67.5854H6Z" fill="black"/>
<path d="M7.36126 67.5854V66.0303H8.43618V67.5854H7.36126Z" fill="black"/>
<path d="M8.26204 67.5854V66.0303H9.33696V67.5854H8.26204Z" fill="black"/>
<path d="M9.00886 67.5854V66.0303H10.0838V67.5854H9.00886Z" fill="black"/>
<path d="M9.90964 67.5854V66.0303H11.9069V67.5854H9.90964Z" fill="black"/>
<path d="M11.8084 67.5854V66.0303H13.3444V67.5854H11.8084Z" fill="black"/>
<path d="M13.0927 67.5854V66.0303H14.1676V67.5854H13.0927Z" fill="black"/>
<path d="M13.8395 67.5854V66.0303H15.3756V67.5854H13.8395Z" fill="black"/>
<path d="M15.0468 67.5854V66.0303H16.1217V67.5854H15.0468Z" fill="black"/>
<path d="M16.0245 67.5854V66.0303H17.4067V67.5854H16.0245Z" fill="black"/>
<path d="M17.1549 67.5854V66.0303H17.7693V67.5854H17.1549Z" fill="black"/>
<path d="M17.5938 67.5854V66.0303H18.6687V67.5854H17.5938Z" fill="black"/>
<path d="M18.4946 67.5854V66.0303H20.0307V67.5854H18.4946Z" fill="black"/>
<path d="M19.7019 67.5854V66.0303H21.238V67.5854H19.7019Z" fill="black"/>
<path d="M20.9862 67.5854V66.0303H22.5223V67.5854H20.9862Z" fill="black"/>
<path d="M22.2705 67.5854V66.0303H23.6526V67.5854H22.2705Z" fill="black"/>
<path d="M23.44 67.5854V66.0303H24.2077V67.5854H23.44Z" fill="black"/>
<path d="M23.9559 67.5854V66.0303H24.7236V67.5854H23.9559Z" fill="black"/>
<path d="M6.30722 7.48086H27.8452V7.55059H6.30722V7.48086ZM6.30722 10.4809H31.8919V10.5506H6.30722V10.4809ZM6.30722 13.4809H32.2167V13.5506H6.30722V13.4809ZM6.30722 16.4809H27.6359V16.5506H6.30722V16.4809ZM6.30722 19.4809H26.9445V19.5506H6.30722V19.4809ZM6.30722 22.4809H32.5414V22.5506H6.30722V22.4809ZM6.30722 25.4809H31.1587V25.5506H6.30722V25.4809ZM6.30722 28.4809H30.8946V28.5506H6.30722V28.4809ZM6.30722 31.4809H32.6928V31.5506H6.30722V31.4809ZM6.30722 34.4809H25.7189V34.5506H6.30722V34.4809ZM6.30722 37.4809H28.0748V37.5506H6.30722V37.4809ZM6.30722 40.4809H31.3491V40.5506H6.30722V40.4809ZM6.30722 43.4809H31.8136V43.5506H6.30722V43.4809ZM6.30722 46.4809H28.2119V46.5506H6.30722V46.4809ZM6.30722 49.4809H31.4868V49.5506H6.30722V49.4809ZM6.30722 52.4809H31.5989V52.5506H6.30722V52.4809ZM6.30722 55.4809H31.5793V55.5506H6.30722V55.4809ZM6.30722 58.4809H28.5536V58.5506H6.30722V58.4809ZM6.30722 61.4809H28.9775V61.5506H6.30722V61.4809ZM6.30722 64.4809H27.3894V64.5506H6.30722V64.4809ZM6.30722 67.4809H24.9113V67.5506H6.30722V67.4809Z" fill="black"/>
</g>
</g>
<path d="M11.3333 38.0303H2V44.3784H11.3333V38.0303Z" fill="#7FA4CA"/>
<path d="M21.6663 38.0303H12.333V44.3784H21.6663V38.0303Z" fill="#E5592D"/>
</g>
<defs>
<filter id="filter0_d_238_44365" x="0" y="1.03027" width="39" height="35" filterUnits="userSpaceOnUse" color-interpolation-filters="sRGB">
<feFlood flood-opacity="0" result="BackgroundImageFix"/>
<feColorMatrix in="SourceAlpha" type="matrix" values="0 0 0 0 0 0 0 0 0 0 0 0 0 0 0 0 0 0 127 0" result="hardAlpha"/>
<feOffset dy="1"/>
<feGaussianBlur stdDeviation="1"/>
<feComposite in2="hardAlpha" operator="out"/>
<feColorMatrix type="matrix" values="0 0 0 0 0 0 0 0 0 0 0 0 0 0 0 0 0 0 0.1 0"/>
<feBlend mode="normal" in2="BackgroundImageFix" result="effect1_dropShadow_238_44365"/>
<feBlend mode="normal" in="SourceGraphic" in2="effect1_dropShadow_238_44365" result="shape"/>
</filter>
<filter id="filter1_i_238_44365" x="2" y="-2.96973" width="35" height="34" filterUnits="userSpaceOnUse" color-interpolation-filters="sRGB">
<feFlood flood-opacity="0" result="BackgroundImageFix"/>
<feBlend mode="normal" in="SourceGraphic" in2="BackgroundImageFix" result="shape"/>
<feColorMatrix in="SourceAlpha" type="matrix" values="0 0 0 0 0 0 0 0 0 0 0 0 0 0 0 0 0 0 127 0" result="hardAlpha"/>
<feOffset dy="-5"/>
<feGaussianBlur stdDeviation="3.5"/>
<feComposite in2="hardAlpha" operator="arithmetic" k2="-1" k3="1"/>
<feColorMatrix type="matrix" values="0 0 0 0 1 0 0 0 0 1 0 0 0 0 1 0 0 0 1 0"/>
<feBlend mode="normal" in2="shape" result="effect1_innerShadow_238_44365"/>
</filter>
<clipPath id="clip0_238_44365">
<rect width="39" height="46.3481" fill="white" transform="translate(0 0.0302734)"/>
</clipPath>
<clipPath id="clip1_238_44365">
<rect width="35" height="31" fill="white" transform="translate(2 2.03027)"/>
</clipPath>
<clipPath id="clip2_238_44365">
<rect width="35" height="29" fill="white" transform="translate(2 2.03027)"/>
</clipPath>
</defs>
</svg>
