<svg width="39" height="47" viewBox="0 0 39 47" fill="none" xmlns="http://www.w3.org/2000/svg">
<g clip-path="url(#clip0_238_44299)">
<g clip-path="url(#clip1_238_44299)" filter="url(#filter0_d_238_44299)">
<rect width="35" height="31" transform="translate(2 2.61035)" fill="white"/>
<g opacity="0.3" clip-path="url(#clip2_238_44299)" filter="url(#filter1_i_238_44299)">
<rect width="35" height="29" transform="translate(2 2.61035)" fill="white"/>
<path d="M6 8.16553V6.61035H6.76709V8.16553H6Z" fill="black"/>
<path d="M6.59241 8.16553V6.61035H8.12727V8.16553H6.59241Z" fill="black"/>
<path d="M7.95259 8.16553V6.61035H9.48745V8.16553H7.95259Z" fill="black"/>
<path d="M9.31276 8.16553V6.61035H10.8476V8.16553H9.31276Z" fill="black"/>
<path d="M10.5191 8.16553V6.61035H11.1331V8.16553H10.5191Z" fill="black"/>
<path d="M10.9577 8.16553V6.61035H12.6464V8.16553H10.9577Z" fill="black"/>
<path d="M12.5095 8.16553V6.61035H13.8905V8.16553H12.5095Z" fill="black"/>
<path d="M13.7158 8.16553V6.61035H14.7899V8.16553H13.7158Z" fill="black"/>
<path d="M14.6159 8.16553V6.61035H15.69V8.16553H14.6159Z" fill="black"/>
<path d="M15.3621 8.16553V6.61035H16.897V8.16553H15.3621Z" fill="black"/>
<path d="M16.5685 8.16553V6.61035H18.1033V8.16553H16.5685Z" fill="black"/>
<path d="M17.8517 8.16553V6.61035H18.4657V8.16553H17.8517Z" fill="black"/>
<path d="M18.2903 8.16553V6.61035H19.6714V8.16553H18.2903Z" fill="black"/>
<path d="M19.5736 8.16553V6.61035H20.6477V8.16553H19.5736Z" fill="black"/>
<path d="M20.3198 8.16553V6.61035H21.8547V8.16553H20.3198Z" fill="black"/>
<path d="M21.6031 8.16553V6.61035H22.6772V8.16553H21.6031Z" fill="black"/>
<path d="M22.3493 8.16553V6.61035H23.8842V8.16553H22.3493Z" fill="black"/>
<path d="M23.5557 8.16553V6.61035H24.9367V8.16553H23.5557Z" fill="black"/>
<path d="M24.7242 8.16553V6.61035H25.3382V8.16553H24.7242Z" fill="black"/>
<path d="M6 11.1655V9.61035H7.38104V11.1655H6Z" fill="black"/>
<path d="M7.28326 11.1655V9.61035H8.51048V11.1655H7.28326Z" fill="black"/>
<path d="M8.48962 11.1655V9.61035H9.87066V11.1655H8.48962Z" fill="black"/>
<path d="M9.69597 11.1655V9.61035H10.77V11.1655H9.69597Z" fill="black"/>
<path d="M10.4422 11.1655V9.61035H11.5163V11.1655H10.4422Z" fill="black"/>
<path d="M11.4961 11.1655V9.61035H12.8771V11.1655H11.4961Z" fill="black"/>
<path d="M12.7024 11.1655V9.61035H14.2373V11.1655H12.7024Z" fill="black"/>
<path d="M14.0626 11.1655V9.61035H15.5975V11.1655H14.0626Z" fill="black"/>
<path d="M15.269 11.1655V9.61035H16.65V11.1655H15.269Z" fill="black"/>
<path d="M16.4375 11.1655V9.61035H17.0515V11.1655H16.4375Z" fill="black"/>
<path d="M16.8761 11.1655V9.61035H17.9502V11.1655H16.8761Z" fill="black"/>
<path d="M17.7762 11.1655V9.61035H19.0034V11.1655H17.7762Z" fill="black"/>
<path d="M18.8287 11.1655V9.61035H19.4427V11.1655H18.8287Z" fill="black"/>
<path d="M19.2673 11.1655V9.61035H20.8022V11.1655H19.2673Z" fill="black"/>
<path d="M20.6275 11.1655V9.61035H22.0085V11.1655H20.6275Z" fill="black"/>
<path d="M21.8338 11.1655V9.61035H23.3687V11.1655H21.8338Z" fill="black"/>
<path d="M23.194 11.1655V9.61035H24.7289V11.1655H23.194Z" fill="black"/>
<path d="M24.4773 11.1655V9.61035H26.0121V11.1655H24.4773Z" fill="black"/>
<path d="M25.8374 11.1655V9.61035H27.3723V11.1655H25.8374Z" fill="black"/>
<path d="M27.0438 11.1655V9.61035H27.6577V11.1655H27.0438Z" fill="black"/>
<path d="M27.4824 11.1655V9.61035H29.6312V11.1655H27.4824Z" fill="black"/>
<path d="M29.3796 11.1655V9.61035H30.4537V11.1655H29.3796Z" fill="black"/>
<path d="M30.2796 11.1655V9.61035H31.3537V11.1655H30.2796Z" fill="black"/>
<path d="M31.0259 11.1655V9.61035H32.5607V11.1655H31.0259Z" fill="black"/>
<path d="M32.3861 11.1655V9.61035H33V11.1655H32.3861Z" fill="black"/>
<path d="M6 14.1655V12.6104H7.68868V14.1655H6Z" fill="black"/>
<path d="M7.53289 14.1655V12.6104H8.7601V14.1655H7.53289Z" fill="black"/>
<path d="M8.58542 14.1655V12.6104H9.96646V14.1655H8.58542Z" fill="black"/>
<path d="M9.65819 14.1655V12.6104H10.7323V14.1655H9.65819Z" fill="black"/>
<path d="M10.4044 14.1655V12.6104H11.9393V14.1655H10.4044Z" fill="black"/>
<path d="M11.7646 14.1655V12.6104H12.3785V14.1655H11.7646Z" fill="black"/>
<path d="M12.2032 14.1655V12.6104H13.8919V14.1655H12.2032Z" fill="black"/>
<path d="M13.7941 14.1655V12.6104H15.0213V14.1655H13.7941Z" fill="black"/>
<path d="M14.8466 14.1655V12.6104H16.2277V14.1655H14.8466Z" fill="black"/>
<path d="M15.9194 14.1655V12.6104H17.4543V14.1655H15.9194Z" fill="black"/>
<path d="M17.1257 14.1655V12.6104H18.6606V14.1655H17.1257Z" fill="black"/>
<path d="M18.409 14.1655V12.6104H19.023V14.1655H18.409Z" fill="black"/>
<path d="M18.8476 14.1655V12.6104H19.9217V14.1655H18.8476Z" fill="black"/>
<path d="M19.7477 14.1655V12.6104H20.9749V14.1655H19.7477Z" fill="black"/>
<path d="M20.8002 14.1655V12.6104H21.4141V14.1655H20.8002Z" fill="black"/>
<path d="M6 17.1655V15.6104H7.07407V17.1655H6Z" fill="black"/>
<path d="M6.90006 17.1655V15.6104H8.89571V17.1655H6.90006Z" fill="black"/>
<path d="M8.95109 17.1655V15.6104H10.3321V17.1655H8.95109Z" fill="black"/>
<path d="M10.0805 17.1655V15.6104H11.1546V17.1655H10.0805Z" fill="black"/>
<path d="M10.9806 17.1655V15.6104H12.5154V17.1655H10.9806Z" fill="black"/>
<path d="M12.1869 17.1655V15.6104H14.1826V17.1655H12.1869Z" fill="black"/>
<path d="M14.0841 17.1655V15.6104H15.619V17.1655H14.0841Z" fill="black"/>
<path d="M15.4443 17.1655V15.6104H16.8254V17.1655H15.4443Z" fill="black"/>
<path d="M16.6507 17.1655V15.6104H17.7247V17.1655H16.6507Z" fill="black"/>
<path d="M17.3969 17.1655V15.6104H18.0109V17.1655H17.3969Z" fill="black"/>
<path d="M17.8355 17.1655V15.6104H18.9096V17.1655H17.8355Z" fill="black"/>
<path d="M18.5817 17.1655V15.6104H20.1166V17.1655H18.5817Z" fill="black"/>
<path d="M19.9419 17.1655V15.6104H21.4768V17.1655H19.9419Z" fill="black"/>
<path d="M21.1483 17.1655V15.6104H21.7622V17.1655H21.1483Z" fill="black"/>
<path d="M6 20.1655V18.6104H7.38104V20.1655H6Z" fill="black"/>
<path d="M7.28326 20.1655V18.6104H8.51048V20.1655H7.28326Z" fill="black"/>
<path d="M8.33579 20.1655V18.6104H10.3315V20.1655H8.33579Z" fill="black"/>
<path d="M10.233 20.1655V18.6104H12.2287V20.1655H10.233Z" fill="black"/>
<path d="M12.1302 20.1655V18.6104H13.2043V20.1655H12.1302Z" fill="black"/>
<path d="M13.0303 20.1655V18.6104H14.1043V20.1655H13.0303Z" fill="black"/>
<path d="M13.7765 20.1655V18.6104H15.7722V20.1655H13.7765Z" fill="black"/>
<path d="M15.6737 20.1655V18.6104H17.2086V20.1655H15.6737Z" fill="black"/>
<path d="M17.0339 20.1655V18.6104H18.4149V20.1655H17.0339Z" fill="black"/>
<path d="M18.2402 20.1655V18.6104H19.3143V20.1655H18.2402Z" fill="black"/>
<path d="M18.9865 20.1655V18.6104H20.3675V20.1655H18.9865Z" fill="black"/>
<path d="M20.155 20.1655V18.6104H20.769V20.1655H20.155Z" fill="black"/>
<path d="M20.5936 20.1655V18.6104H22.5893V20.1655H20.5936Z" fill="black"/>
<path d="M22.4908 20.1655V18.6104H24.0257V20.1655H22.4908Z" fill="black"/>
<path d="M23.7741 20.1655V18.6104H25.309V20.1655H23.7741Z" fill="black"/>
<path d="M25.0574 20.1655V18.6104H26.5922V20.1655H25.0574Z" fill="black"/>
<path d="M26.2637 20.1655V18.6104H26.8777V20.1655H26.2637Z" fill="black"/>
<path d="M26.7023 20.1655V18.6104H27.7764V20.1655H26.7023Z" fill="black"/>
<path d="M27.7562 20.1655V18.6104H29.1372V20.1655H27.7562Z" fill="black"/>
<path d="M28.9625 20.1655V18.6104H29.5765V20.1655H28.9625Z" fill="black"/>
<path d="M6 23.1655V21.6104H7.38104V23.1655H6Z" fill="black"/>
<path d="M7.28326 23.1655V21.6104H8.35733V23.1655H7.28326Z" fill="black"/>
<path d="M8.33714 23.1655V21.6104H9.71818V23.1655H8.33714Z" fill="black"/>
<path d="M9.5435 23.1655V21.6104H11.0784V23.1655H9.5435Z" fill="black"/>
<path d="M10.9037 23.1655V21.6104H12.4385V23.1655H10.9037Z" fill="black"/>
<path d="M12.3408 23.1655V21.6104H13.7218V23.1655H12.3408Z" fill="black"/>
<path d="M13.624 23.1655V21.6104H14.8512V23.1655H13.624Z" fill="black"/>
<path d="M14.6766 23.1655V21.6104H16.0576V23.1655H14.6766Z" fill="black"/>
<path d="M15.7493 23.1655V21.6104H17.2842V23.1655H15.7493Z" fill="black"/>
<path d="M16.9557 23.1655V21.6104H17.7228V23.1655H16.9557Z" fill="black"/>
<path d="M17.4712 23.1655V21.6104H18.2383V23.1655H17.4712Z" fill="black"/>
<path d="M17.9867 23.1655V21.6104H18.7538V23.1655H17.9867Z" fill="black"/>
<path d="M18.656 23.1655V21.6104H20.1909V23.1655H18.656Z" fill="black"/>
<path d="M19.8812 23.1655V21.6104H21.2623V23.1655H19.8812Z" fill="black"/>
<path d="M20.954 23.1655V21.6104H22.4889V23.1655H20.954Z" fill="black"/>
<path d="M22.1604 23.1655V21.6104H23.5414V23.1655H22.1604Z" fill="black"/>
<path d="M23.3289 23.1655V21.6104H24.403V23.1655H23.3289Z" fill="black"/>
<path d="M24.229 23.1655V21.6104H25.7639V23.1655H24.229Z" fill="black"/>
<path d="M25.5123 23.1655V21.6104H27.0471V23.1655H25.5123Z" fill="black"/>
<path d="M26.8724 23.1655V21.6104H28.2535V23.1655H26.8724Z" fill="black"/>
<path d="M28.0788 23.1655V21.6104H29.1529V23.1655H28.0788Z" fill="black"/>
<path d="M28.825 23.1655V21.6104H29.439V23.1655H28.825Z" fill="black"/>
<path d="M6 26.1655V24.6104H7.53486V26.1655H6Z" fill="black"/>
<path d="M7.36018 26.1655V24.6104H8.74121V26.1655H7.36018Z" fill="black"/>
<path d="M8.43295 26.1655V24.6104H9.96781V26.1655H8.43295Z" fill="black"/>
<path d="M9.79312 26.1655V24.6104H11.7888V26.1655H9.79312Z" fill="black"/>
<path d="M11.8442 26.1655V24.6104H13.2252V26.1655H11.8442Z" fill="black"/>
<path d="M12.9736 26.1655V24.6104H13.5875V26.1655H12.9736Z" fill="black"/>
<path d="M13.4122 26.1655V24.6104H14.947V26.1655H13.4122Z" fill="black"/>
<path d="M14.7724 26.1655V24.6104H16.3072V26.1655H14.7724Z" fill="black"/>
<path d="M16.0556 26.1655V24.6104H17.4367V26.1655H16.0556Z" fill="black"/>
<path d="M17.2242 26.1655V24.6104H17.8381V26.1655H17.2242Z" fill="black"/>
<path d="M17.6628 26.1655V24.6104H19.6584V26.1655H17.6628Z" fill="black"/>
<path d="M19.56 26.1655V24.6104H21.0949V26.1655H19.56Z" fill="black"/>
<path d="M20.8433 26.1655V24.6104H22.3781V26.1655H20.8433Z" fill="black"/>
<path d="M22.1265 26.1655V24.6104H23.6614V26.1655H22.1265Z" fill="black"/>
<path d="M23.3329 26.1655V24.6104H23.9468V26.1655H23.3329Z" fill="black"/>
<path d="M6 29.1655V27.6104H7.53486V29.1655H6Z" fill="black"/>
<path d="M7.43709 29.1655V27.6104H8.81813V29.1655H7.43709Z" fill="black"/>
<path d="M8.48962 29.1655V27.6104H10.0245V29.1655H8.48962Z" fill="black"/>
<path d="M10.0036 29.1655V27.6104H11.3847V29.1655H10.0036Z" fill="black"/>
<path d="M11.21 29.1655V27.6104H12.7448V29.1655H11.21Z" fill="black"/>
<path d="M12.4932 29.1655V27.6104H14.0281V29.1655H12.4932Z" fill="black"/>
<path d="M13.9303 29.1655V27.6104H15.3114V29.1655H13.9303Z" fill="black"/>
<path d="M15.1367 29.1655V27.6104H16.2107V29.1655H15.1367Z" fill="black"/>
<path d="M15.8829 29.1655V27.6104H16.957V29.1655H15.8829Z" fill="black"/>
<path d="M16.8599 29.1655V27.6104H18.2409V29.1655H16.8599Z" fill="black"/>
<path d="M17.9893 29.1655V27.6104H18.6033V29.1655H17.9893Z" fill="black"/>
<path d="M18.4279 29.1655V27.6104H19.8089V29.1655H18.4279Z" fill="black"/>
<path d="M19.5573 29.1655V27.6104H20.6314V29.1655H19.5573Z" fill="black"/>
<path d="M20.4574 29.1655V27.6104H21.9923V29.1655H20.4574Z" fill="black"/>
<path d="M21.6638 29.1655V27.6104H23.1986V29.1655H21.6638Z" fill="black"/>
<path d="M22.947 29.1655V27.6104H24.3281V29.1655H22.947Z" fill="black"/>
<path d="M24.0198 29.1655V27.6104H24.6337V29.1655H24.0198Z" fill="black"/>
<path d="M24.4584 29.1655V27.6104H25.5324V29.1655H24.4584Z" fill="black"/>
<path d="M25.2046 29.1655V27.6104H26.7395V29.1655H25.2046Z" fill="black"/>
<path d="M26.5648 29.1655V27.6104H28.0996V29.1655H26.5648Z" fill="black"/>
<path d="M27.848 29.1655V27.6104H28.9221V29.1655H27.848Z" fill="black"/>
<path d="M28.5943 29.1655V27.6104H29.2082V29.1655H28.5943Z" fill="black"/>
<path d="M29.0329 29.1655V27.6104H30.1069V29.1655H29.0329Z" fill="black"/>
<path d="M29.9329 29.1655V27.6104H31.1608V29.1655H29.9329Z" fill="black"/>
<path d="M30.833 29.1655V27.6104H31.4469V29.1655H30.833Z" fill="black"/>
<path d="M6 32.1655V30.6104H7.53486V32.1655H6Z" fill="black"/>
<path d="M7.26437 32.1655V30.6104H8.79924V32.1655H7.26437Z" fill="black"/>
<path d="M8.62455 32.1655V30.6104H10.1594V32.1655H8.62455Z" fill="black"/>
<path d="M9.90782 32.1655V30.6104H10.9819V32.1655H9.90782Z" fill="black"/>
<path d="M10.8079 32.1655V30.6104H12.1889V32.1655H10.8079Z" fill="black"/>
<path d="M11.8806 32.1655V30.6104H13.8763V32.1655H11.8806Z" fill="black"/>
<path d="M13.7779 32.1655V30.6104H15.3127V32.1655H13.7779Z" fill="black"/>
<path d="M15.2149 32.1655V30.6104H16.596V32.1655H15.2149Z" fill="black"/>
<path d="M16.4213 32.1655V30.6104H17.0352V32.1655H16.4213Z" fill="black"/>
<path d="M16.8599 32.1655V30.6104H18.5486V32.1655H16.8599Z" fill="black"/>
<path d="M18.297 32.1655V30.6104H19.371V32.1655H18.297Z" fill="black"/>
<path d="M19.197 32.1655V30.6104H21.1927V32.1655H19.197Z" fill="black"/>
<path d="M21.0942 32.1655V30.6104H21.7082V32.1655H21.0942Z" fill="black"/>
<path d="M21.5328 32.1655V30.6104H22.7607V32.1655H21.5328Z" fill="black"/>
<path d="M22.5867 32.1655V30.6104H23.8139V32.1655H22.5867Z" fill="black"/>
<path d="M23.6392 32.1655V30.6104H24.7133V32.1655H23.6392Z" fill="black"/>
<path d="M24.5393 32.1655V30.6104H25.6133V32.1655H24.5393Z" fill="black"/>
<path d="M25.5932 32.1655V30.6104H26.8204V32.1655H25.5932Z" fill="black"/>
<path d="M26.6457 32.1655V30.6104H28.7945V32.1655H26.6457Z" fill="black"/>
<path d="M28.5429 32.1655V30.6104H29.9239V32.1655H28.5429Z" fill="black"/>
<path d="M29.7115 32.1655V30.6104H30.3254V32.1655H29.7115Z" fill="black"/>
<path d="M6 35.1655V33.6104H7.07407V35.1655H6Z" fill="black"/>
<path d="M6.74623 35.1655V33.6104H8.28109V35.1655H6.74623Z" fill="black"/>
<path d="M8.10641 35.1655V33.6104H9.48745V35.1655H8.10641Z" fill="black"/>
<path d="M9.333 35.1655V33.6104H10.5602V35.1655H9.333Z" fill="black"/>
<path d="M10.3855 35.1655V33.6104H11.9204V35.1655H10.3855Z" fill="black"/>
<path d="M11.7457 35.1655V33.6104H13.2806V35.1655H11.7457Z" fill="black"/>
<path d="M13.1059 35.1655V33.6104H14.6407V35.1655H13.1059Z" fill="black"/>
<path d="M14.4661 35.1655V33.6104H15.08V35.1655H14.4661Z" fill="black"/>
<path d="M15.0585 35.1655V33.6104H16.2857V35.1655H15.0585Z" fill="black"/>
<path d="M16.2648 35.1655V33.6104H17.6459V35.1655H16.2648Z" fill="black"/>
<path d="M17.4712 35.1655V33.6104H18.0851V35.1655H17.4712Z" fill="black"/>
<path d="M17.9098 35.1655V33.6104H19.4446V35.1655H17.9098Z" fill="black"/>
<path d="M19.2699 35.1655V33.6104H20.344V35.1655H19.2699Z" fill="black"/>
<path d="M20.17 35.1655V33.6104H21.551V35.1655H20.17Z" fill="black"/>
<path d="M21.3386 35.1655V33.6104H21.9525V35.1655H21.3386Z" fill="black"/>
<path d="M6 38.1655V36.6104H7.38104V38.1655H6Z" fill="black"/>
<path d="M7.28326 38.1655V36.6104H8.51048V38.1655H7.28326Z" fill="black"/>
<path d="M8.33579 38.1655V36.6104H10.3315V38.1655H8.33579Z" fill="black"/>
<path d="M10.233 38.1655V36.6104H12.2287V38.1655H10.233Z" fill="black"/>
<path d="M12.1302 38.1655V36.6104H13.2043V38.1655H12.1302Z" fill="black"/>
<path d="M13.0303 38.1655V36.6104H14.1043V38.1655H13.0303Z" fill="black"/>
<path d="M13.7765 38.1655V36.6104H15.7722V38.1655H13.7765Z" fill="black"/>
<path d="M15.6737 38.1655V36.6104H17.2086V38.1655H15.6737Z" fill="black"/>
<path d="M17.0339 38.1655V36.6104H18.4149V38.1655H17.0339Z" fill="black"/>
<path d="M18.2402 38.1655V36.6104H19.3143V38.1655H18.2402Z" fill="black"/>
<path d="M18.9865 38.1655V36.6104H20.3675V38.1655H18.9865Z" fill="black"/>
<path d="M20.155 38.1655V36.6104H20.9221V38.1655H20.155Z" fill="black"/>
<path d="M20.6705 38.1655V36.6104H21.2845V38.1655H20.6705Z" fill="black"/>
<path d="M21.1091 38.1655V36.6104H22.644V38.1655H21.1091Z" fill="black"/>
<path d="M22.3924 38.1655V36.6104H23.0063V38.1655H22.3924Z" fill="black"/>
<path d="M22.831 38.1655V36.6104H24.8266V38.1655H22.831Z" fill="black"/>
<path d="M24.7282 38.1655V36.6104H26.263V38.1655H24.7282Z" fill="black"/>
<path d="M26.0884 38.1655V36.6104H27.4694V38.1655H26.0884Z" fill="black"/>
<path d="M27.2178 38.1655V36.6104H28.7527V38.1655H27.2178Z" fill="black"/>
<path d="M28.578 38.1655V36.6104H29.1919V38.1655H28.578Z" fill="black"/>
<path d="M6.15382 41.1655V39.6104H7.53486V41.1655H6.15382Z" fill="black"/>
<path d="M7.20635 41.1655V39.6104H8.58739V41.1655H7.20635Z" fill="black"/>
<path d="M8.27912 41.1655V39.6104H9.35319V41.1655H8.27912Z" fill="black"/>
<path d="M9.17918 41.1655V39.6104H10.714V41.1655H9.17918Z" fill="black"/>
<path d="M10.5394 41.1655V39.6104H12.0742V41.1655H10.5394Z" fill="black"/>
<path d="M11.8995 41.1655V39.6104H12.9736V41.1655H11.8995Z" fill="black"/>
<path d="M12.6458 41.1655V39.6104H14.1806V41.1655H12.6458Z" fill="black"/>
<path d="M13.8521 41.1655V39.6104H15.2332V41.1655H13.8521Z" fill="black"/>
<path d="M14.9249 41.1655V39.6104H15.5388V41.1655H14.9249Z" fill="black"/>
<path d="M15.3635 41.1655V39.6104H16.5914V41.1655H15.3635Z" fill="black"/>
<path d="M16.2635 41.1655V39.6104H17.7984V41.1655H16.2635Z" fill="black"/>
<path d="M17.6237 41.1655V39.6104H18.6978V41.1655H17.6237Z" fill="black"/>
<path d="M18.3699 41.1655V39.6104H19.9048V41.1655H18.3699Z" fill="black"/>
<path d="M19.7301 41.1655V39.6104H21.1112V41.1655H19.7301Z" fill="black"/>
<path d="M20.8029 41.1655V39.6104H22.3377V41.1655H20.8029Z" fill="black"/>
<path d="M22.0092 41.1655V39.6104H22.6232V41.1655H22.0092Z" fill="black"/>
<path d="M22.4478 41.1655V39.6104H23.5219V41.1655H22.4478Z" fill="black"/>
<path d="M23.3479 41.1655V39.6104H24.4219V41.1655H23.3479Z" fill="black"/>
<path d="M24.2479 41.1655V39.6104H25.7828V41.1655H24.2479Z" fill="black"/>
<path d="M25.4543 41.1655V39.6104H26.8353V41.1655H25.4543Z" fill="black"/>
<path d="M26.6229 41.1655V39.6104H27.2368V41.1655H26.6229Z" fill="black"/>
<path d="M6 44.1655V42.6104H7.53486V44.1655H6Z" fill="black"/>
<path d="M7.28326 44.1655V42.6104H8.81813V44.1655H7.28326Z" fill="black"/>
<path d="M8.64344 44.1655V42.6104H10.1783V44.1655H8.64344Z" fill="black"/>
<path d="M9.84979 44.1655V42.6104H11.3847V44.1655H9.84979Z" fill="black"/>
<path d="M11.1331 44.1655V42.6104H12.6679V44.1655H11.1331Z" fill="black"/>
<path d="M12.4163 44.1655V42.6104H13.0303V44.1655H12.4163Z" fill="black"/>
<path d="M12.8549 44.1655V42.6104H14.0828V44.1655H12.8549Z" fill="black"/>
<path d="M13.9088 44.1655V42.6104H15.136V44.1655H13.9088Z" fill="black"/>
<path d="M14.9613 44.1655V42.6104H16.3424V44.1655H14.9613Z" fill="black"/>
<path d="M16.0341 44.1655V42.6104H16.648V44.1655H16.0341Z" fill="black"/>
<path d="M16.4727 44.1655V42.6104H18.1614V44.1655H16.4727Z" fill="black"/>
<path d="M18.0056 44.1655V42.6104H19.2328V44.1655H18.0056Z" fill="black"/>
<path d="M19.0581 44.1655V42.6104H20.4391V44.1655H19.0581Z" fill="black"/>
<path d="M20.1309 44.1655V42.6104H21.2049V44.1655H20.1309Z" fill="black"/>
<path d="M20.8771 44.1655V42.6104H22.412V44.1655H20.8771Z" fill="black"/>
<path d="M22.2373 44.1655V42.6104H22.8512V44.1655H22.2373Z" fill="black"/>
<path d="M22.6759 44.1655V42.6104H24.3645V44.1655H22.6759Z" fill="black"/>
<path d="M24.2668 44.1655V42.6104H25.494V44.1655H24.2668Z" fill="black"/>
<path d="M25.3193 44.1655V42.6104H26.7003V44.1655H25.3193Z" fill="black"/>
<path d="M26.3921 44.1655V42.6104H27.9269V44.1655H26.3921Z" fill="black"/>
<path d="M27.5984 44.1655V42.6104H29.1333V44.1655H27.5984Z" fill="black"/>
<path d="M28.8817 44.1655V42.6104H29.4956V44.1655H28.8817Z" fill="black"/>
<path d="M6 47.1655V45.6104H7.53486V47.1655H6Z" fill="black"/>
<path d="M7.43709 47.1655V45.6104H8.81813V47.1655H7.43709Z" fill="black"/>
<path d="M8.64344 47.1655V45.6104H10.1783V47.1655H8.64344Z" fill="black"/>
<path d="M9.92671 47.1655V45.6104H10.5407V47.1655H9.92671Z" fill="black"/>
<path d="M10.3653 47.1655V45.6104H11.4394V47.1655H10.3653Z" fill="black"/>
<path d="M11.2653 47.1655V45.6104H12.3394V47.1655H11.2653Z" fill="black"/>
<path d="M12.0116 47.1655V45.6104H13.3926V47.1655H12.0116Z" fill="black"/>
<path d="M13.1802 47.1655V45.6104H13.7941V47.1655H13.1802Z" fill="black"/>
<path d="M13.7726 47.1655V45.6104H15.1536V47.1655H13.7726Z" fill="black"/>
<path d="M14.902 47.1655V45.6104H16.4369V47.1655H14.902Z" fill="black"/>
<path d="M16.2622 47.1655V45.6104H17.4894V47.1655H16.2622Z" fill="black"/>
<path d="M17.4685 47.1655V45.6104H18.8496V47.1655H17.4685Z" fill="black"/>
<path d="M18.598 47.1655V45.6104H19.672V47.1655H18.598Z" fill="black"/>
<path d="M19.498 47.1655V45.6104H21.0329V47.1655H19.498Z" fill="black"/>
<path d="M20.7044 47.1655V45.6104H21.4715V47.1655H20.7044Z" fill="black"/>
<path d="M21.2199 47.1655V45.6104H21.8338V47.1655H21.2199Z" fill="black"/>
<path d="M21.6585 47.1655V45.6104H23.1933V47.1655H21.6585Z" fill="black"/>
<path d="M23.0956 47.1655V45.6104H24.4766V47.1655H23.0956Z" fill="black"/>
<path d="M24.3019 47.1655V45.6104H25.8368V47.1655H24.3019Z" fill="black"/>
<path d="M25.5852 47.1655V45.6104H26.1991V47.1655H25.5852Z" fill="black"/>
<path d="M26.0238 47.1655V45.6104H27.0978V47.1655H26.0238Z" fill="black"/>
<path d="M26.77 47.1655V45.6104H28.3049V47.1655H26.77Z" fill="black"/>
<path d="M28.1302 47.1655V45.6104H29.665V47.1655H28.1302Z" fill="black"/>
<path d="M29.3365 47.1655V45.6104H29.9505V47.1655H29.3365Z" fill="black"/>
<path d="M6 50.1655V48.6104H7.68868V50.1655H6Z" fill="black"/>
<path d="M7.55178 50.1655V48.6104H8.93282V50.1655H7.55178Z" fill="black"/>
<path d="M8.75813 50.1655V48.6104H9.8322V50.1655H8.75813Z" fill="black"/>
<path d="M9.65819 50.1655V48.6104H10.7323V50.1655H9.65819Z" fill="black"/>
<path d="M10.4044 50.1655V48.6104H11.9393V50.1655H10.4044Z" fill="black"/>
<path d="M11.6108 50.1655V48.6104H13.1456V50.1655H11.6108Z" fill="black"/>
<path d="M12.894 50.1655V48.6104H13.508V50.1655H12.894Z" fill="black"/>
<path d="M13.3326 50.1655V48.6104H14.7137V50.1655H13.3326Z" fill="black"/>
<path d="M14.6159 50.1655V48.6104H15.69V50.1655H14.6159Z" fill="black"/>
<path d="M15.3621 50.1655V48.6104H16.897V50.1655H15.3621Z" fill="black"/>
<path d="M16.6454 50.1655V48.6104H17.7195V50.1655H16.6454Z" fill="black"/>
<path d="M17.3916 50.1655V48.6104H18.9265V50.1655H17.3916Z" fill="black"/>
<path d="M18.598 50.1655V48.6104H19.979V50.1655H18.598Z" fill="black"/>
<path d="M19.7665 50.1655V48.6104H20.3805V50.1655H19.7665Z" fill="black"/>
<path d="M20.2051 50.1655V48.6104H22.3539V50.1655H20.2051Z" fill="black"/>
<path d="M22.1023 50.1655V48.6104H23.1764V50.1655H22.1023Z" fill="black"/>
<path d="M23.0024 50.1655V48.6104H24.0765V50.1655H23.0024Z" fill="black"/>
<path d="M23.9025 50.1655V48.6104H24.9765V50.1655H23.9025Z" fill="black"/>
<path d="M24.8025 50.1655V48.6104H25.4165V50.1655H24.8025Z" fill="black"/>
<path d="M25.3949 50.1655V48.6104H26.776V50.1655H25.3949Z" fill="black"/>
<path d="M26.4474 50.1655V48.6104H27.9823V50.1655H26.4474Z" fill="black"/>
<path d="M27.6538 50.1655V48.6104H28.2677V50.1655H27.6538Z" fill="black"/>
<path d="M28.0924 50.1655V48.6104H29.6272V50.1655H28.0924Z" fill="black"/>
<path d="M29.3757 50.1655V48.6104H30.4497V50.1655H29.3757Z" fill="black"/>
<path d="M30.1219 50.1655V48.6104H30.7358V50.1655H30.1219Z" fill="black"/>
<path d="M6 53.1655V51.6104H7.07407V53.1655H6Z" fill="black"/>
<path d="M6.74623 53.1655V51.6104H8.28109V53.1655H6.74623Z" fill="black"/>
<path d="M8.10641 53.1655V51.6104H9.64127V53.1655H8.10641Z" fill="black"/>
<path d="M9.31276 53.1655V51.6104H9.92671V53.1655H9.31276Z" fill="black"/>
<path d="M9.75135 53.1655V51.6104H10.9792V53.1655H9.75135Z" fill="black"/>
<path d="M10.8052 53.1655V51.6104H12.0324V53.1655H10.8052Z" fill="black"/>
<path d="M11.8578 53.1655V51.6104H13.2388V53.1655H11.8578Z" fill="black"/>
<path d="M12.9305 53.1655V51.6104H14.4654V53.1655H12.9305Z" fill="black"/>
<path d="M14.1369 53.1655V51.6104H15.3648V53.1655H14.1369Z" fill="black"/>
<path d="M15.0369 53.1655V51.6104H16.418V53.1655H15.0369Z" fill="black"/>
<path d="M16.2635 53.1655V51.6104H17.4907V53.1655H16.2635Z" fill="black"/>
<path d="M17.4699 53.1655V51.6104H18.8509V53.1655H17.4699Z" fill="black"/>
<path d="M18.6762 53.1655V51.6104H19.7503V53.1655H18.6762Z" fill="black"/>
<path d="M19.4225 53.1655V51.6104H20.0364V53.1655H19.4225Z" fill="black"/>
<path d="M20.0149 53.1655V51.6104H21.2421V53.1655H20.0149Z" fill="black"/>
<path d="M21.0674 53.1655V51.6104H22.2953V53.1655H21.0674Z" fill="black"/>
<path d="M21.9675 53.1655V51.6104H22.5814V53.1655H21.9675Z" fill="black"/>
<path d="M6 56.1655V54.6104H7.22789V56.1655H6Z" fill="black"/>
<path d="M6.90006 56.1655V54.6104H8.43492V56.1655H6.90006Z" fill="black"/>
<path d="M8.18332 56.1655V54.6104H9.56436V56.1655H8.18332Z" fill="black"/>
<path d="M9.31276 56.1655V54.6104H10.3868V56.1655H9.31276Z" fill="black"/>
<path d="M10.2128 56.1655V54.6104H11.2869V56.1655H10.2128Z" fill="black"/>
<path d="M11.1129 56.1655V54.6104H12.1869V56.1655H11.1129Z" fill="black"/>
<path d="M12.0129 56.1655V54.6104H13.087V56.1655H12.0129Z" fill="black"/>
<path d="M12.7592 56.1655V54.6104H14.294V56.1655H12.7592Z" fill="black"/>
<path d="M14.0424 56.1655V54.6104H15.1165V56.1655H14.0424Z" fill="black"/>
<path d="M14.7887 56.1655V54.6104H15.8627V56.1655H14.7887Z" fill="black"/>
<path d="M15.8425 56.1655V54.6104H17.2236V56.1655H15.8425Z" fill="black"/>
<path d="M17.0489 56.1655V54.6104H18.5838V56.1655H17.0489Z" fill="black"/>
<path d="M18.4091 56.1655V54.6104H19.023V56.1655H18.4091Z" fill="black"/>
<path d="M18.8477 56.1655V54.6104H19.9217V56.1655H18.8477Z" fill="black"/>
<path d="M19.5939 56.1655V54.6104H21.1287V56.1655H19.5939Z" fill="black"/>
<path d="M20.9541 56.1655V54.6104H22.4889V56.1655H20.9541Z" fill="black"/>
<path d="M22.2373 56.1655V54.6104H23.3114V56.1655H22.2373Z" fill="black"/>
<path d="M22.9836 56.1655V54.6104H23.5975V56.1655H22.9836Z" fill="black"/>
<path d="M23.576 56.1655V54.6104H24.957V56.1655H23.576Z" fill="black"/>
<path d="M24.6285 56.1655V54.6104H26.0095V56.1655H24.6285Z" fill="black"/>
<path d="M25.7013 56.1655V54.6104H26.7753V56.1655H25.7013Z" fill="black"/>
<path d="M26.6013 56.1655V54.6104H28.1362V56.1655H26.6013Z" fill="black"/>
<path d="M27.9615 56.1655V54.6104H29.4964V56.1655H27.9615Z" fill="black"/>
<path d="M29.3217 56.1655V54.6104H30.3957V56.1655H29.3217Z" fill="black"/>
<path d="M30.0679 56.1655V54.6104H30.6819V56.1655H30.0679Z" fill="black"/>
<path d="M6 59.1655V57.6104H7.22789V59.1655H6Z" fill="black"/>
<path d="M6.90006 59.1655V57.6104H8.43492V59.1655H6.90006Z" fill="black"/>
<path d="M8.26023 59.1655V57.6104H9.3343V59.1655H8.26023Z" fill="black"/>
<path d="M9.00646 59.1655V57.6104H10.5413V59.1655H9.00646Z" fill="black"/>
<path d="M10.3666 59.1655V57.6104H11.7477V59.1655H10.3666Z" fill="black"/>
<path d="M11.4394 59.1655V57.6104H12.9743V59.1655H11.4394Z" fill="black"/>
<path d="M12.6458 59.1655V57.6104H13.4129V59.1655H12.6458Z" fill="black"/>
<path d="M13.1613 59.1655V57.6104H13.7752V59.1655H13.1613Z" fill="black"/>
<path d="M13.7537 59.1655V57.6104H15.9025V59.1655H13.7537Z" fill="black"/>
<path d="M15.6887 59.1655V57.6104H17.2235V59.1655H15.6887Z" fill="black"/>
<path d="M16.895 59.1655V57.6104H17.509V59.1655H16.895Z" fill="black"/>
<path d="M17.3336 59.1655V57.6104H19.4824V59.1655H17.3336Z" fill="black"/>
<path d="M19.1539 59.1655V57.6104H20.6888V59.1655H19.1539Z" fill="black"/>
<path d="M20.591 59.1655V57.6104H21.972V59.1655H20.591Z" fill="black"/>
<path d="M21.7973 59.1655V57.6104H22.8714V59.1655H21.7973Z" fill="black"/>
<path d="M22.5436 59.1655V57.6104H23.1575V59.1655H22.5436Z" fill="black"/>
<path d="M22.9822 59.1655V57.6104H24.0562V59.1655H22.9822Z" fill="black"/>
<path d="M23.8822 59.1655V57.6104H25.1094V59.1655H23.8822Z" fill="black"/>
<path d="M24.9347 59.1655V57.6104H25.5487V59.1655H24.9347Z" fill="black"/>
<path d="M25.3733 59.1655V57.6104H26.7544V59.1655H25.3733Z" fill="black"/>
<path d="M26.5419 59.1655V57.6104H28.0768V59.1655H26.5419Z" fill="black"/>
<path d="M27.7483 59.1655V57.6104H29.2831V59.1655H27.7483Z" fill="black"/>
<path d="M28.9546 59.1655V57.6104H29.5686V59.1655H28.9546Z" fill="black"/>
<path d="M6 62.1655V60.6104H7.07407V62.1655H6Z" fill="black"/>
<path d="M6.74623 62.1655V60.6104H8.28109V62.1655H6.74623Z" fill="black"/>
<path d="M8.10641 62.1655V60.6104H9.64127V62.1655H8.10641Z" fill="black"/>
<path d="M9.38967 62.1655V60.6104H10.4637V62.1655H9.38967Z" fill="black"/>
<path d="M10.1359 62.1655V60.6104H10.7499V62.1655H10.1359Z" fill="black"/>
<path d="M10.5745 62.1655V60.6104H11.6486V62.1655H10.5745Z" fill="black"/>
<path d="M11.3207 62.1655V60.6104H12.3948V62.1655H11.3207Z" fill="black"/>
<path d="M12.2208 62.1655V60.6104H14.2164V62.1655H12.2208Z" fill="black"/>
<path d="M14.118 62.1655V60.6104H15.6528V62.1655H14.118Z" fill="black"/>
<path d="M15.3243 62.1655V60.6104H15.9383V62.1655H15.3243Z" fill="black"/>
<path d="M15.7629 62.1655V60.6104H17.144V62.1655H15.7629Z" fill="black"/>
<path d="M17.0462 62.1655V60.6104H18.2734V62.1655H17.0462Z" fill="black"/>
<path d="M18.0987 62.1655V60.6104H20.0944V62.1655H18.0987Z" fill="black"/>
<path d="M19.9959 62.1655V60.6104H21.5308V62.1655H19.9959Z" fill="black"/>
<path d="M21.2023 62.1655V60.6104H21.8162V62.1655H21.2023Z" fill="black"/>
<path d="M21.6409 62.1655V60.6104H23.1757V62.1655H21.6409Z" fill="black"/>
<path d="M22.9241 62.1655V60.6104H24.3052V62.1655H22.9241Z" fill="black"/>
<path d="M24.0927 62.1655V60.6104H24.7067V62.1655H24.0927Z" fill="black"/>
<path d="M6 65.1655V63.6104H7.53486V65.1655H6Z" fill="black"/>
<path d="M7.36018 65.1655V63.6104H8.89504V65.1655H7.36018Z" fill="black"/>
<path d="M8.72035 65.1655V63.6104H9.79442V65.1655H8.72035Z" fill="black"/>
<path d="M9.62041 65.1655V63.6104H11.0014V65.1655H9.62041Z" fill="black"/>
<path d="M10.7499 65.1655V63.6104H12.2847V65.1655H10.7499Z" fill="black"/>
<path d="M12.0722 65.1655V63.6104H13.1463V65.1655H12.0722Z" fill="black"/>
<path d="M13.0492 65.1655V63.6104H14.4303V65.1655H13.0492Z" fill="black"/>
<path d="M14.1787 65.1655V63.6104H14.7926V65.1655H14.1787Z" fill="black"/>
<path d="M14.6172 65.1655V63.6104H16.1521V65.1655H14.6172Z" fill="black"/>
<path d="M15.9005 65.1655V63.6104H17.2815V65.1655H15.9005Z" fill="black"/>
<path d="M17.0691 65.1655V63.6104H17.683V65.1655H17.0691Z" fill="black"/>
<path d="M17.6615 65.1655V63.6104H19.0425V65.1655H17.6615Z" fill="black"/>
<path d="M18.9448 65.1655V63.6104H20.172V65.1655H18.9448Z" fill="black"/>
<path d="M19.9973 65.1655V63.6104H21.3783V65.1655H19.9973Z" fill="black"/>
<path d="M21.1659 65.1655V63.6104H22.5469V65.1655H21.1659Z" fill="black"/>
<path d="M22.3344 65.1655V63.6104H23.4085V65.1655H22.3344Z" fill="black"/>
<path d="M23.3883 65.1655V63.6104H24.7693V65.1655H23.3883Z" fill="black"/>
<path d="M24.4408 65.1655V63.6104H25.5149V65.1655H24.4408Z" fill="black"/>
<path d="M25.3409 65.1655V63.6104H26.8758V65.1655H25.3409Z" fill="black"/>
<path d="M26.5472 65.1655V63.6104H27.3143V65.1655H26.5472Z" fill="black"/>
<path d="M27.0627 65.1655V63.6104H27.6767V65.1655H27.0627Z" fill="black"/>
<path d="M27.5013 65.1655V63.6104H29.0362V65.1655H27.5013Z" fill="black"/>
<path d="M28.8804 65.1655V63.6104H30.4153V65.1655H28.8804Z" fill="black"/>
<path d="M30.2406 65.1655V63.6104H31.3146V65.1655H30.2406Z" fill="black"/>
<path d="M30.9868 65.1655V63.6104H31.6007V65.1655H30.9868Z" fill="black"/>
<path d="M6 68.1655V66.6104H7.07407V68.1655H6Z" fill="black"/>
<path d="M6.74623 68.1655V66.6104H8.28109V68.1655H6.74623Z" fill="black"/>
<path d="M8.10641 68.1655V66.6104H9.64127V68.1655H8.10641Z" fill="black"/>
<path d="M9.31276 68.1655V66.6104H9.92671V68.1655H9.31276Z" fill="black"/>
<path d="M9.90517 68.1655V66.6104H11.2862V68.1655H9.90517Z" fill="black"/>
<path d="M11.0346 68.1655V66.6104H12.5695V68.1655H11.0346Z" fill="black"/>
<path d="M12.3179 68.1655V66.6104H13.3919V68.1655H12.3179Z" fill="black"/>
<path d="M13.0641 68.1655V66.6104H14.599V68.1655H13.0641Z" fill="black"/>
<path d="M14.4243 68.1655V66.6104H15.0382V68.1655H14.4243Z" fill="black"/>
<path d="M14.8629 68.1655V66.6104H15.9369V68.1655H14.8629Z" fill="black"/>
<path d="M15.7629 68.1655V66.6104H16.9901V68.1655H15.7629Z" fill="black"/>
<path d="M16.8155 68.1655V66.6104H17.4294V68.1655H16.8155Z" fill="black"/>
<path d="M17.4079 68.1655V66.6104H18.7889V68.1655H17.4079Z" fill="black"/>
<path d="M18.5373 68.1655V66.6104H20.0722V68.1655H18.5373Z" fill="black"/>
<path d="M19.7437 68.1655V66.6104H21.2785V68.1655H19.7437Z" fill="black"/>
<path d="M21.0269 68.1655V66.6104H22.408V68.1655H21.0269Z" fill="black"/>
<path d="M22.1564 68.1655V66.6104H23.6912V68.1655H22.1564Z" fill="black"/>
<path d="M23.3627 68.1655V66.6104H23.9767V68.1655H23.3627Z" fill="black"/>
<path d="M23.8013 68.1655V66.6104H25.3362V68.1655H23.8013Z" fill="black"/>
<path d="M25.2384 68.1655V66.6104H26.6194V68.1655H25.2384Z" fill="black"/>
<path d="M26.4447 68.1655V66.6104H27.9796V68.1655H26.4447Z" fill="black"/>
<path d="M27.728 68.1655V66.6104H28.342V68.1655H27.728Z" fill="black"/>
<path d="M28.1666 68.1655V66.6104H29.7015V68.1655H28.1666Z" fill="black"/>
<path d="M29.4499 68.1655V66.6104H30.0638V68.1655H29.4499Z" fill="black"/>
<path d="M6.15382 71.1655V69.6104H7.53486V71.1655H6.15382Z" fill="black"/>
<path d="M7.20635 71.1655V69.6104H8.58739V71.1655H7.20635Z" fill="black"/>
<path d="M8.27912 71.1655V69.6104H9.35319V71.1655H8.27912Z" fill="black"/>
<path d="M9.17918 71.1655V69.6104H10.714V71.1655H9.17918Z" fill="black"/>
<path d="M10.5394 71.1655V69.6104H12.0742V71.1655H10.5394Z" fill="black"/>
<path d="M11.8995 71.1655V69.6104H12.9736V71.1655H11.8995Z" fill="black"/>
<path d="M12.6458 71.1655V69.6104H14.1806V71.1655H12.6458Z" fill="black"/>
<path d="M13.8521 71.1655V69.6104H15.2332V71.1655H13.8521Z" fill="black"/>
<path d="M14.9249 71.1655V69.6104H15.5388V71.1655H14.9249Z" fill="black"/>
<path d="M15.3635 71.1655V69.6104H16.5914V71.1655H15.3635Z" fill="black"/>
<path d="M16.2635 71.1655V69.6104H17.7984V71.1655H16.2635Z" fill="black"/>
<path d="M17.6237 71.1655V69.6104H18.6978V71.1655H17.6237Z" fill="black"/>
<path d="M18.3699 71.1655V69.6104H19.9048V71.1655H18.3699Z" fill="black"/>
<path d="M19.7301 71.1655V69.6104H21.1112V71.1655H19.7301Z" fill="black"/>
<path d="M20.8029 71.1655V69.6104H22.3377V71.1655H20.8029Z" fill="black"/>
<path d="M22.0092 71.1655V69.6104H22.6232V71.1655H22.0092Z" fill="black"/>
<path d="M22.4478 71.1655V69.6104H23.5219V71.1655H22.4478Z" fill="black"/>
<path d="M23.3479 71.1655V69.6104H24.7289V71.1655H23.3479Z" fill="black"/>
<path d="M24.5165 71.1655V69.6104H25.1304V71.1655H24.5165Z" fill="black"/>
<path d="M25.1089 71.1655V69.6104H26.3361V71.1655H25.1089Z" fill="black"/>
<path d="M26.3152 71.1655V69.6104H27.6963V71.1655H26.3152Z" fill="black"/>
<path d="M27.5216 71.1655V69.6104H28.5956V71.1655H27.5216Z" fill="black"/>
<path d="M28.4985 71.1655V69.6104H29.8796V71.1655H28.4985Z" fill="black"/>
<path d="M29.628 71.1655V69.6104H30.2419V71.1655H29.628Z" fill="black"/>
<path d="M6 74.1655V72.6104H7.07407V74.1655H6Z" fill="black"/>
<path d="M6.74623 74.1655V72.6104H8.28109V74.1655H6.74623Z" fill="black"/>
<path d="M8.10641 74.1655V72.6104H9.48745V74.1655H8.10641Z" fill="black"/>
<path d="M9.333 74.1655V72.6104H10.5602V74.1655H9.333Z" fill="black"/>
<path d="M10.3855 74.1655V72.6104H11.9204V74.1655H10.3855Z" fill="black"/>
<path d="M11.7457 74.1655V72.6104H13.2806V74.1655H11.7457Z" fill="black"/>
<path d="M13.1059 74.1655V72.6104H14.6407V74.1655H13.1059Z" fill="black"/>
<path d="M14.4661 74.1655V72.6104H15.08V74.1655H14.4661Z" fill="black"/>
<path d="M14.9046 74.1655V72.6104H16.4395V74.1655H14.9046Z" fill="black"/>
<path d="M16.1879 74.1655V72.6104H17.262V74.1655H16.1879Z" fill="black"/>
<path d="M17.2418 74.1655V72.6104H18.6228V74.1655H17.2418Z" fill="black"/>
<path d="M18.3712 74.1655V72.6104H19.4453V74.1655H18.3712Z" fill="black"/>
<path d="M19.4251 74.1655V72.6104H20.6523V74.1655H19.4251Z" fill="black"/>
<path d="M20.4776 74.1655V72.6104H22.4733V74.1655H20.4776Z" fill="black"/>
<path d="M22.3749 74.1655V72.6104H23.9097V74.1655H22.3749Z" fill="black"/>
<path d="M23.6581 74.1655V72.6104H25.0392V74.1655H23.6581Z" fill="black"/>
<path d="M24.9414 74.1655V72.6104H26.3224V74.1655H24.9414Z" fill="black"/>
<path d="M26.0708 74.1655V72.6104H26.6848V74.1655H26.0708Z" fill="black"/>
<path d="M26.5094 74.1655V72.6104H28.0443V74.1655H26.5094Z" fill="black"/>
<path d="M27.9465 74.1655V72.6104H29.3275V74.1655H27.9465Z" fill="black"/>
<path d="M29.1529 74.1655V72.6104H30.6877V74.1655H29.1529Z" fill="black"/>
<path d="M30.4361 74.1655V72.6104H31.0501V74.1655H30.4361Z" fill="black"/>
<path d="M6.15382 77.1655V75.6104H7.38104V77.1655H6.15382Z" fill="black"/>
<path d="M7.36018 77.1655V75.6104H8.74121V77.1655H7.36018Z" fill="black"/>
<path d="M8.56653 77.1655V75.6104H9.64059V77.1655H8.56653Z" fill="black"/>
<path d="M9.5435 77.1655V75.6104H10.9245V77.1655H9.5435Z" fill="black"/>
<path d="M10.6729 77.1655V75.6104H11.2869V77.1655H10.6729Z" fill="black"/>
<path d="M11.1115 77.1655V75.6104H12.6464V77.1655H11.1115Z" fill="black"/>
<path d="M12.3948 77.1655V75.6104H13.9296V77.1655H12.3948Z" fill="black"/>
<path d="M13.755 77.1655V75.6104H15.136V77.1655H13.755Z" fill="black"/>
<path d="M14.9613 77.1655V75.6104H16.4962V77.1655H14.9613Z" fill="black"/>
<path d="M16.3215 77.1655V75.6104H17.7025V77.1655H16.3215Z" fill="black"/>
<path d="M17.4509 77.1655V75.6104H18.525V77.1655H17.4509Z" fill="black"/>
<path d="M18.351 77.1655V75.6104H19.8859V77.1655H18.351Z" fill="black"/>
<path d="M19.5573 77.1655V75.6104H21.0922V77.1655H19.5573Z" fill="black"/>
<path d="M20.8406 77.1655V75.6104H22.2216V77.1655H20.8406Z" fill="black"/>
<path d="M21.9134 77.1655V75.6104H22.9874V77.1655H21.9134Z" fill="black"/>
<path d="M22.9673 77.1655V75.6104H24.1945V77.1655H22.9673Z" fill="black"/>
<path d="M23.924 77.1655V75.6104H25.4588V77.1655H23.924Z" fill="black"/>
<path d="M25.2073 77.1655V75.6104H26.2813V77.1655H25.2073Z" fill="black"/>
<path d="M25.9535 77.1655V75.6104H27.0275V77.1655H25.9535Z" fill="black"/>
<path d="M27.0074 77.1655V75.6104H28.2346V77.1655H27.0074Z" fill="black"/>
<path d="M28.2137 77.1655V75.6104H29.5948V77.1655H28.2137Z" fill="black"/>
<path d="M29.4201 77.1655V75.6104H30.1872V77.1655H29.4201Z" fill="black"/>
<path d="M29.9356 77.1655V75.6104H30.7027V77.1655H29.9356Z" fill="black"/>
<path d="M6.30697 8.06094H25.0305V8.13066H6.30697V8.06094ZM6.30697 11.0609H32.693V11.1307H6.30697V11.0609ZM6.30697 14.0609H21.1072V14.1307H6.30697V14.0609ZM6.30697 17.0609H21.4552V17.1307H6.30697V17.0609ZM6.30697 20.0609H29.2695V20.1307H6.30697V20.0609ZM6.30697 23.0609H29.1313V23.1307H6.30697V23.0609ZM6.30697 26.0609H23.6398V26.1307H6.30697V26.0609ZM6.30697 29.0609H31.1393V29.1307H6.30697V29.0609ZM6.30697 32.0609H30.0178V32.1307H6.30697V32.0609ZM6.30697 35.0609H21.6449V35.1307H6.30697V35.0609ZM6.30697 38.0609H28.885V38.1307H6.30697V38.0609ZM6.30697 41.0609H26.9292V41.1307H6.30697V41.0609ZM6.30697 44.0609H29.1887V44.1307H6.30697V44.0609ZM6.30697 47.0609H29.6435V47.1307H6.30697V47.0609ZM6.30697 50.0609H30.4282V50.1307H6.30697V50.0609ZM6.30697 53.0609H22.2738V53.1307H6.30697V53.0609ZM6.30697 56.0609H30.3742V56.1307H6.30697V56.0609ZM6.30697 59.0609H29.2616V59.1307H6.30697V59.0609ZM6.30697 62.0609H24.399V62.1307H6.30697V62.0609ZM6.30697 65.0609H31.2931V65.1307H6.30697V65.0609ZM6.30697 68.0609H29.7568V68.1307H6.30697V68.0609ZM6.30697 71.0609H29.9349V71.1307H6.30697V71.0609ZM6.30697 74.0609H30.7431V74.1307H6.30697V74.0609ZM6.30697 77.0609H30.8902V77.1307H6.30697V77.0609Z" fill="black"/>
</g>
<rect width="12" height="14" transform="translate(25 18.6104)" fill="white"/>
<path d="M31.4307 23.6289C31.141 23.6289 30.8838 23.6859 30.6592 23.7998C30.4378 23.9105 30.2507 24.0716 30.0977 24.2832C29.9479 24.4948 29.834 24.7503 29.7559 25.0498C29.6777 25.3493 29.6387 25.6862 29.6387 26.0605C29.6387 26.5651 29.7005 26.9964 29.8242 27.3545C29.9512 27.7093 30.1465 27.9811 30.4102 28.1699C30.6738 28.3555 31.014 28.4482 31.4307 28.4482C31.7204 28.4482 32.0101 28.4157 32.2998 28.3506C32.5928 28.2855 32.9102 28.1927 33.252 28.0723V29.3418C32.9362 29.472 32.6253 29.5648 32.3193 29.6201C32.0133 29.6787 31.6699 29.708 31.2891 29.708C30.5534 29.708 29.9479 29.5566 29.4727 29.2539C29.0007 28.9479 28.6507 28.5215 28.4229 27.9746C28.195 27.4245 28.0811 26.7832 28.0811 26.0508C28.0811 25.5104 28.1543 25.0156 28.3008 24.5664C28.4473 24.1172 28.6621 23.7282 28.9453 23.3994C29.2285 23.0706 29.5785 22.8167 29.9951 22.6377C30.4118 22.4587 30.8903 22.3691 31.4307 22.3691C31.7855 22.3691 32.1403 22.4147 32.4951 22.5059C32.8532 22.5938 33.195 22.7158 33.5205 22.8721L33.0322 24.1025C32.7653 23.9756 32.4967 23.8649 32.2266 23.7705C31.9564 23.6761 31.6911 23.6289 31.4307 23.6289Z" fill="#585858"/>
</g>
<path d="M11.3333 38.6104H2V44.9584H11.3333V38.6104Z" fill="#E19E55"/>
<path d="M21.6663 38.6104H12.333V44.9584H21.6663V38.6104Z" fill="#7FA4CA"/>
</g>
<defs>
<filter id="filter0_d_238_44299" x="0" y="1.61035" width="39" height="35" filterUnits="userSpaceOnUse" color-interpolation-filters="sRGB">
<feFlood flood-opacity="0" result="BackgroundImageFix"/>
<feColorMatrix in="SourceAlpha" type="matrix" values="0 0 0 0 0 0 0 0 0 0 0 0 0 0 0 0 0 0 127 0" result="hardAlpha"/>
<feOffset dy="1"/>
<feGaussianBlur stdDeviation="1"/>
<feComposite in2="hardAlpha" operator="out"/>
<feColorMatrix type="matrix" values="0 0 0 0 0 0 0 0 0 0 0 0 0 0 0 0 0 0 0.1 0"/>
<feBlend mode="normal" in2="BackgroundImageFix" result="effect1_dropShadow_238_44299"/>
<feBlend mode="normal" in="SourceGraphic" in2="effect1_dropShadow_238_44299" result="shape"/>
</filter>
<filter id="filter1_i_238_44299" x="2" y="-2.38965" width="35" height="34" filterUnits="userSpaceOnUse" color-interpolation-filters="sRGB">
<feFlood flood-opacity="0" result="BackgroundImageFix"/>
<feBlend mode="normal" in="SourceGraphic" in2="BackgroundImageFix" result="shape"/>
<feColorMatrix in="SourceAlpha" type="matrix" values="0 0 0 0 0 0 0 0 0 0 0 0 0 0 0 0 0 0 127 0" result="hardAlpha"/>
<feOffset dy="-5"/>
<feGaussianBlur stdDeviation="3.5"/>
<feComposite in2="hardAlpha" operator="arithmetic" k2="-1" k3="1"/>
<feColorMatrix type="matrix" values="0 0 0 0 1 0 0 0 0 1 0 0 0 0 1 0 0 0 1 0"/>
<feBlend mode="normal" in2="shape" result="effect1_innerShadow_238_44299"/>
</filter>
<clipPath id="clip0_238_44299">
<rect width="39" height="46.3481" fill="white" transform="translate(0 0.610352)"/>
</clipPath>
<clipPath id="clip1_238_44299">
<rect width="35" height="31" fill="white" transform="translate(2 2.61035)"/>
</clipPath>
<clipPath id="clip2_238_44299">
<rect width="35" height="29" fill="white" transform="translate(2 2.61035)"/>
</clipPath>
</defs>
</svg>
