<svg width="39" height="47" viewBox="0 0 39 47" fill="none" xmlns="http://www.w3.org/2000/svg">
<g clip-path="url(#clip0_238_44354)">
<g clip-path="url(#clip1_238_44354)" filter="url(#filter0_d_238_44354)">
<rect width="35" height="31" transform="translate(2 2.12695)" fill="white"/>
<g opacity="0.3" clip-path="url(#clip2_238_44354)" filter="url(#filter1_i_238_44354)">
<rect width="35" height="29" transform="translate(2 2.12695)" fill="white"/>
<path d="M6 7.68213V6.12695H6.77273V7.68213H6Z" fill="black"/>
<path d="M6.59676 7.68213V6.12695H7.83367V7.68213H6.59676Z" fill="black"/>
<path d="M7.81198 7.68213V6.12695H9.20316V7.68213H7.81198Z" fill="black"/>
<path d="M9.02719 7.68213V6.12695H9.64565V7.68213H9.02719Z" fill="black"/>
<path d="M9.469 7.68213V6.12695H10.8602V7.68213H9.469Z" fill="black"/>
<path d="M10.6271 7.68213V6.12695H12.1733V7.68213H10.6271Z" fill="black"/>
<path d="M12.1522 7.68213V6.12695H13.5434V7.68213H12.1522Z" fill="black"/>
<path d="M13.3675 7.68213V6.12695H14.9136V7.68213H13.3675Z" fill="black"/>
<path d="M14.5827 7.68213V6.12695H15.2011V7.68213H14.5827Z" fill="black"/>
<path d="M15.1794 7.68213V6.12695H16.4157V7.68213H15.1794Z" fill="black"/>
<path d="M16.2397 7.68213V6.12695H17.4766V7.68213H16.2397Z" fill="black"/>
<path d="M17.1464 7.68213V6.12695H17.7648V7.68213H17.1464Z" fill="black"/>
<path d="M17.5882 7.68213V6.12695H18.9794V7.68213H17.5882Z" fill="black"/>
<path d="M18.8034 7.68213V6.12695H20.1946V7.68213H18.8034Z" fill="black"/>
<path d="M20.0186 7.68213V6.12695H21.2555V7.68213H20.0186Z" fill="black"/>
<path d="M21.0789 7.68213V6.12695H22.47V7.68213H21.0789Z" fill="black"/>
<path d="M22.2941 7.68213V6.12695H23.0668V7.68213H22.2941Z" fill="black"/>
<path d="M22.8134 7.68213V6.12695H23.4318V7.68213H22.8134Z" fill="black"/>
<path d="M23.2552 7.68213V6.12695H24.3371V7.68213H23.2552Z" fill="black"/>
<path d="M24.3168 7.68213V6.12695H25.708V7.68213H24.3168Z" fill="black"/>
<path d="M25.532 7.68213V6.12695H26.1505V7.68213H25.532Z" fill="black"/>
<path d="M6 10.6821V9.12695H7.39118V10.6821H6Z" fill="black"/>
<path d="M7.29269 10.6821V9.12695H8.37465V10.6821H7.29269Z" fill="black"/>
<path d="M8.35431 10.6821V9.12695H9.7455V10.6821H8.35431Z" fill="black"/>
<path d="M9.56953 10.6821V9.12695H11.1157V10.6821H9.56953Z" fill="black"/>
<path d="M10.9397 10.6821V9.12695H12.4858V10.6821H10.9397Z" fill="black"/>
<path d="M12.3873 10.6821V9.12695H13.7785V10.6821H12.3873Z" fill="black"/>
<path d="M13.68 10.6821V9.12695H14.9163V10.6821H13.68Z" fill="black"/>
<path d="M14.7403 10.6821V9.12695H16.1315V10.6821H14.7403Z" fill="black"/>
<path d="M15.8209 10.6821V9.12695H17.3671V10.6821H15.8209Z" fill="black"/>
<path d="M17.0362 10.6821V9.12695H17.8089V10.6821H17.0362Z" fill="black"/>
<path d="M17.5554 10.6821V9.12695H18.1739V10.6821H17.5554Z" fill="black"/>
<path d="M17.9973 10.6821V9.12695H19.5434V10.6821H17.9973Z" fill="black"/>
<path d="M19.2709 10.6821V9.12695H20.8171V10.6821H19.2709Z" fill="black"/>
<path d="M20.6411 10.6821V9.12695H22.1872V10.6821H20.6411Z" fill="black"/>
<path d="M21.9338 10.6821V9.12695H23.0157V10.6821H21.9338Z" fill="black"/>
<path d="M22.8404 10.6821V9.12695H24.2316V10.6821H22.8404Z" fill="black"/>
<path d="M23.9211 10.6821V9.12695H25.9314V10.6821H23.9211Z" fill="black"/>
<path d="M25.8322 10.6821V9.12695H27.3784V10.6821H25.8322Z" fill="black"/>
<path d="M27.2799 10.6821V9.12695H28.6711V10.6821H27.2799Z" fill="black"/>
<path d="M28.4951 10.6821V9.12695H29.1136V10.6821H28.4951Z" fill="black"/>
<path d="M6 13.6821V12.127H7.70109V13.6821H6Z" fill="black"/>
<path d="M7.44765 13.6821V12.127H8.5296V13.6821H7.44765Z" fill="black"/>
<path d="M8.35431 13.6821V12.127H10.3646V13.6821H8.35431Z" fill="black"/>
<path d="M10.2655 13.6821V12.127H10.8839V13.6821H10.2655Z" fill="black"/>
<path d="M10.7073 13.6821V12.127H12.2534V13.6821H10.7073Z" fill="black"/>
<path d="M12.1549 13.6821V12.127H13.5461V13.6821H12.1549Z" fill="black"/>
<path d="M13.3701 13.6821V12.127H14.9163V13.6821H13.3701Z" fill="black"/>
<path d="M14.6628 13.6821V12.127H15.2813V13.6821H14.6628Z" fill="black"/>
<path d="M15.2596 13.6821V12.127H16.8057V13.6821H15.2596Z" fill="black"/>
<path d="M16.4938 13.6821V12.127H17.885V13.6821H16.4938Z" fill="black"/>
<path d="M17.5745 13.6821V12.127H19.1206V13.6821H17.5745Z" fill="black"/>
<path d="M18.7897 13.6821V12.127H20.1809V13.6821H18.7897Z" fill="black"/>
<path d="M19.9668 13.6821V12.127H21.0488V13.6821H19.9668Z" fill="black"/>
<path d="M20.8735 13.6821V12.127H22.4196V13.6821H20.8735Z" fill="black"/>
<path d="M22.1662 13.6821V12.127H23.7123V13.6821H22.1662Z" fill="black"/>
<path d="M23.5364 13.6821V12.127H24.9276V13.6821H23.5364Z" fill="black"/>
<path d="M24.7516 13.6821V12.127H25.8335V13.6821H24.7516Z" fill="black"/>
<path d="M25.5033 13.6821V12.127H26.1218V13.6821H25.5033Z" fill="black"/>
<path d="M6 16.6821V15.127H7.54614V16.6821H6Z" fill="black"/>
<path d="M7.37017 16.6821V15.127H8.76135V16.6821H7.37017Z" fill="black"/>
<path d="M8.45082 16.6821V15.127H9.99695V16.6821H8.45082Z" fill="black"/>
<path d="M9.82099 16.6821V15.127H11.8313V16.6821H9.82099Z" fill="black"/>
<path d="M11.8871 16.6821V15.127H13.2783V16.6821H11.8871Z" fill="black"/>
<path d="M13.0248 16.6821V15.127H13.6433V16.6821H13.0248Z" fill="black"/>
<path d="M13.4666 16.6821V15.127H15.4769V16.6821H13.4666Z" fill="black"/>
<path d="M15.3778 16.6821V15.127H16.9239V16.6821H15.3778Z" fill="black"/>
<path d="M16.593 16.6821V15.127H17.6749V16.6821H16.593Z" fill="black"/>
<path d="M17.3447 16.6821V15.127H17.9632V16.6821H17.3447Z" fill="black"/>
<path d="M17.7865 16.6821V15.127H19.3327V16.6821H17.7865Z" fill="black"/>
<path d="M19.2342 16.6821V15.127H20.6253V16.6821H19.2342Z" fill="black"/>
<path d="M20.4494 16.6821V15.127H21.9955V16.6821H20.4494Z" fill="black"/>
<path d="M21.7421 16.6821V15.127H22.3605V16.6821H21.7421Z" fill="black"/>
<path d="M22.1839 16.6821V15.127H23.2658V16.6821H22.1839Z" fill="black"/>
<path d="M22.9356 16.6821V15.127H24.4817V16.6821H22.9356Z" fill="black"/>
<path d="M24.3058 16.6821V15.127H25.8519V16.6821H24.3058Z" fill="black"/>
<path d="M25.6759 16.6821V15.127H27.0671V16.6821H25.6759Z" fill="black"/>
<path d="M26.8137 16.6821V15.127H27.4321V16.6821H26.8137Z" fill="black"/>
<path d="M27.2555 16.6821V15.127H28.3374V16.6821H27.2555Z" fill="black"/>
<path d="M28.1621 16.6821V15.127H29.7083V16.6821H28.1621Z" fill="black"/>
<path d="M29.4548 16.6821V15.127H30.5368V16.6821H29.4548Z" fill="black"/>
<path d="M30.3615 16.6821V15.127H31.9076V16.6821H30.3615Z" fill="black"/>
<path d="M31.6542 16.6821V15.127H32.2726V16.6821H31.6542Z" fill="black"/>
<path d="M6 19.6821V18.127H7.54614V19.6821H6Z" fill="black"/>
<path d="M7.44765 19.6821V18.127H8.68387V19.6821H7.44765Z" fill="black"/>
<path d="M8.50791 19.6821V18.127H10.6725V19.6821H8.50791Z" fill="black"/>
<path d="M10.574 19.6821V18.127H11.9652V19.6821H10.574Z" fill="black"/>
<path d="M11.7892 19.6821V18.127H12.4077V19.6821H11.7892Z" fill="black"/>
<path d="M12.231 19.6821V18.127H13.7772V19.6821H12.231Z" fill="black"/>
<path d="M13.5237 19.6821V18.127H14.1422V19.6821H13.5237Z" fill="black"/>
<path d="M14.1205 19.6821V18.127H15.5117V19.6821H14.1205Z" fill="black"/>
<path d="M15.1807 19.6821V18.127H16.5719V19.6821H15.1807Z" fill="black"/>
<path d="M16.4163 19.6821V18.127H17.6526V19.6821H16.4163Z" fill="black"/>
<path d="M17.4766 19.6821V18.127H19.0227V19.6821H17.4766Z" fill="black"/>
<path d="M18.7693 19.6821V18.127H20.3154V19.6821H18.7693Z" fill="black"/>
<path d="M20.062 19.6821V18.127H20.6804V19.6821H20.062Z" fill="black"/>
<path d="M20.5038 19.6821V18.127H21.895V19.6821H20.5038Z" fill="black"/>
<path d="M21.681 19.6821V18.127H23.2271V19.6821H21.681Z" fill="black"/>
<path d="M22.8962 19.6821V18.127H23.9781V19.6821H22.8962Z" fill="black"/>
<path d="M23.6479 19.6821V18.127H24.2663V19.6821H23.6479Z" fill="black"/>
<path d="M24.2446 19.6821V18.127H25.4809V19.6821H24.2446Z" fill="black"/>
<path d="M25.3049 19.6821V18.127H26.5418V19.6821H25.3049Z" fill="black"/>
<path d="M26.2116 19.6821V18.127H26.83V19.6821H26.2116Z" fill="black"/>
<path d="M6.15495 22.6821V21.127H7.39118V22.6821H6.15495Z" fill="black"/>
<path d="M7.37017 22.6821V21.127H8.76135V22.6821H7.37017Z" fill="black"/>
<path d="M8.43043 22.6821V21.127H9.35811V22.6821H8.43043Z" fill="black"/>
<path d="M9.10467 22.6821V21.127H10.6508V22.6821H9.10467Z" fill="black"/>
<path d="M10.3199 22.6821V21.127H11.7111V22.6821H10.3199Z" fill="black"/>
<path d="M11.4576 22.6821V21.127H12.5396V22.6821H11.4576Z" fill="black"/>
<path d="M12.2093 22.6821V21.127H13.2913V22.6821H12.2093Z" fill="black"/>
<path d="M13.0385 22.6821V21.127H14.4297V22.6821H13.0385Z" fill="black"/>
<path d="M14.3312 22.6821V21.127H15.8774V22.6821H14.3312Z" fill="black"/>
<path d="M15.5464 22.6821V21.127H16.9376V22.6821H15.5464Z" fill="black"/>
<path d="M16.7236 22.6821V21.127H17.342V22.6821H16.7236Z" fill="black"/>
<path d="M17.1654 22.6821V21.127H18.2474V22.6821H17.1654Z" fill="black"/>
<path d="M17.9171 22.6821V21.127H19.4632V22.6821H17.9171Z" fill="black"/>
<path d="M19.2873 22.6821V21.127H20.8334V22.6821H19.2873Z" fill="black"/>
<path d="M20.58 22.6821V21.127H21.6619V22.6821H20.58Z" fill="black"/>
<path d="M21.3317 22.6821V21.127H21.9501V22.6821H21.3317Z" fill="black"/>
<path d="M21.7735 22.6821V21.127H23.9381V22.6821H21.7735Z" fill="black"/>
<path d="M23.6846 22.6821V21.127H25.2308V22.6821H23.6846Z" fill="black"/>
<path d="M24.8999 22.6821V21.127H26.291V22.6821H24.8999Z" fill="black"/>
<path d="M25.9805 22.6821V21.127H27.5266V22.6821H25.9805Z" fill="black"/>
<path d="M27.1957 22.6821V21.127H27.8142V22.6821H27.1957Z" fill="black"/>
<path d="M6 25.6821V24.127H7.54614V25.6821H6Z" fill="black"/>
<path d="M7.29269 25.6821V24.127H8.83883V25.6821H7.29269Z" fill="black"/>
<path d="M8.66286 25.6821V24.127H10.054V25.6821H8.66286Z" fill="black"/>
<path d="M9.74351 25.6821V24.127H11.2896V25.6821H9.74351Z" fill="black"/>
<path d="M10.9587 25.6821V24.127H12.5049V25.6821H10.9587Z" fill="black"/>
<path d="M12.1739 25.6821V24.127H13.7201V25.6821H12.1739Z" fill="black"/>
<path d="M13.4666 25.6821V24.127H14.0851V25.6821H13.4666Z" fill="black"/>
<path d="M13.9084 25.6821V24.127H14.9904V25.6821H13.9084Z" fill="black"/>
<path d="M14.8151 25.6821V24.127H16.0513V25.6821H14.8151Z" fill="black"/>
<path d="M15.8754 25.6821V24.127H16.4938V25.6821H15.8754Z" fill="black"/>
<path d="M16.6821 25.3615V25.2523H17.2667V25.3615H16.6821Z" fill="black"/>
<path d="M16.9574 25.6821V24.127H17.5759V25.6821H16.9574Z" fill="black"/>
<path d="M17.5542 25.6821V24.127H18.9454V25.6821H17.5542Z" fill="black"/>
<path d="M18.9244 25.6821V24.127H20.1606V25.6821H18.9244Z" fill="black"/>
<path d="M19.9846 25.6821V24.127H21.0666V25.6821H19.9846Z" fill="black"/>
<path d="M20.7363 25.6821V24.127H21.3548V25.6821H20.7363Z" fill="black"/>
<path d="M21.3331 25.6821V24.127H22.5693V25.6821H21.3331Z" fill="black"/>
<path d="M22.5483 25.6821V24.127H23.9395V25.6821H22.5483Z" fill="black"/>
<path d="M23.7635 25.6821V24.127H24.8455V25.6821H23.7635Z" fill="black"/>
<path d="M24.7477 25.6821V24.127H26.1389V25.6821H24.7477Z" fill="black"/>
<path d="M25.8854 25.6821V24.127H26.5039V25.6821H25.8854Z" fill="black"/>
<path d="M6 28.6821V27.127H7.54614V28.6821H6Z" fill="black"/>
<path d="M7.29269 28.6821V27.127H8.83883V28.6821H7.29269Z" fill="black"/>
<path d="M8.66286 28.6821V27.127H10.054V28.6821H8.66286Z" fill="black"/>
<path d="M9.87808 28.6821V27.127H11.4242V28.6821H9.87808Z" fill="black"/>
<path d="M11.2482 28.6821V27.127H12.6394V28.6821H11.2482Z" fill="black"/>
<path d="M12.386 28.6821V27.127H13.4679V28.6821H12.386Z" fill="black"/>
<path d="M13.2926 28.6821V27.127H14.8388V28.6821H13.2926Z" fill="black"/>
<path d="M14.5079 28.6821V27.127H16.054V28.6821H14.5079Z" fill="black"/>
<path d="M15.8006 28.6821V27.127H17.1917V28.6821H15.8006Z" fill="black"/>
<path d="M16.8812 28.6821V27.127H17.9632V28.6821H16.8812Z" fill="black"/>
<path d="M17.9428 28.6821V27.127H19.1791V28.6821H17.9428Z" fill="black"/>
<path d="M18.9066 28.6821V27.127H20.4527V28.6821H18.9066Z" fill="black"/>
<path d="M20.1993 28.6821V27.127H21.2812V28.6821H20.1993Z" fill="black"/>
<path d="M20.951 28.6821V27.127H22.0329V28.6821H20.951Z" fill="black"/>
<path d="M22.0126 28.6821V27.127H23.2488V28.6821H22.0126Z" fill="black"/>
<path d="M23.2278 28.6821V27.127H24.619V28.6821H23.2278Z" fill="black"/>
<path d="M24.443 28.6821V27.127H25.0615V28.6821H24.443Z" fill="black"/>
<path d="M25.0398 28.6821V27.127H26.276V28.6821H25.0398Z" fill="black"/>
<path d="M26.1001 28.6821V27.127H27.337V28.6821H26.1001Z" fill="black"/>
<path d="M27.0067 28.6821V27.127H27.6252V28.6821H27.0067Z" fill="black"/>
<path d="M27.4485 28.6821V27.127H28.5305V28.6821H27.4485Z" fill="black"/>
<path d="M28.2003 28.6821V27.127H29.7464V28.6821H28.2003Z" fill="black"/>
<path d="M29.5704 28.6821V27.127H31.1166V28.6821H29.5704Z" fill="black"/>
<path d="M30.7856 28.6821V27.127H31.4041V28.6821H30.7856Z" fill="black"/>
<path d="M6 31.6821V30.127H7.70109V31.6821H6Z" fill="black"/>
<path d="M7.6026 31.6821V30.127H8.83883V31.6821H7.6026Z" fill="black"/>
<path d="M8.66286 31.6821V30.127H10.054V31.6821H8.66286Z" fill="black"/>
<path d="M9.74351 31.6821V30.127H11.2896V31.6821H9.74351Z" fill="black"/>
<path d="M10.9587 31.6821V30.127H12.5049V31.6821H10.9587Z" fill="black"/>
<path d="M12.4064 31.6821V30.127H13.7976V31.6821H12.4064Z" fill="black"/>
<path d="M13.6216 31.6821V30.127H14.24V31.6821H13.6216Z" fill="black"/>
<path d="M14.2183 31.6821V30.127H15.7645V31.6821H14.2183Z" fill="black"/>
<path d="M15.4526 31.6821V30.127H16.9987V31.6821H15.4526Z" fill="black"/>
<path d="M16.8228 31.6821V30.127H18.2139V31.6821H16.8228Z" fill="black"/>
<path d="M18.038 31.6821V30.127H19.1199V31.6821H18.038Z" fill="black"/>
<path d="M19.0996 31.6821V30.127H20.4908V31.6821H19.0996Z" fill="black"/>
<path d="M20.3148 31.6821V30.127H21.706V31.6821H20.3148Z" fill="black"/>
<path d="M21.492 31.6821V30.127H23.0381V31.6821H21.492Z" fill="black"/>
<path d="M22.8621 31.6821V30.127H23.9441V31.6821H22.8621Z" fill="black"/>
<path d="M23.7688 31.6821V30.127H25.3149V31.6821H23.7688Z" fill="black"/>
<path d="M25.0615 31.6821V30.127H25.6799V31.6821H25.0615Z" fill="black"/>
<path d="M25.5033 31.6821V30.127H27.6679V31.6821H25.5033Z" fill="black"/>
<path d="M27.4144 31.6821V30.127H28.4964V31.6821H27.4144Z" fill="black"/>
<path d="M28.3211 31.6821V30.127H29.4031V31.6821H28.3211Z" fill="black"/>
<path d="M29.0728 31.6821V30.127H30.619V31.6821H29.0728Z" fill="black"/>
<path d="M30.443 31.6821V30.127H31.0615V31.6821H30.443Z" fill="black"/>
<path d="M30.8848 31.6821V30.127H32.4309V31.6821H30.8848Z" fill="black"/>
<path d="M32.1775 31.6821V30.127H32.796V31.6821H32.1775Z" fill="black"/>
<path d="M6 34.6821V33.127H7.23691V34.6821H6Z" fill="black"/>
<path d="M6.90667 34.6821V33.127H8.4528V34.6821H6.90667Z" fill="black"/>
<path d="M8.27684 34.6821V33.127H9.35879V34.6821H8.27684Z" fill="black"/>
<path d="M9.1835 34.6821V33.127H10.2655V34.6821H9.1835Z" fill="black"/>
<path d="M10.1676 34.6821V33.127H11.5588V34.6821H10.1676Z" fill="black"/>
<path d="M11.3054 34.6821V33.127H11.9238V34.6821H11.3054Z" fill="black"/>
<path d="M11.7472 34.6821V33.127H13.1384V34.6821H11.7472Z" fill="black"/>
<path d="M13.0399 34.6821V33.127H14.586V34.6821H13.0399Z" fill="black"/>
<path d="M14.2551 34.6821V33.127H15.6463V34.6821H14.2551Z" fill="black"/>
<path d="M15.3358 34.6821V33.127H16.4177V34.6821H15.3358Z" fill="black"/>
<path d="M16.2424 34.6821V33.127H17.4793V34.6821H16.2424Z" fill="black"/>
<path d="M17.1491 34.6821V33.127H18.231V34.6821H17.1491Z" fill="black"/>
<path d="M18.0558 34.6821V33.127H19.6019V34.6821H18.0558Z" fill="black"/>
<path d="M19.271 34.6821V33.127H20.8171V34.6821H19.271Z" fill="black"/>
<path d="M20.5637 34.6821V33.127H21.1821V34.6821H20.5637Z" fill="black"/>
<path d="M6 37.6821V36.127H8.01032V37.6821H6Z" fill="black"/>
<path d="M7.91115 37.6821V36.127H9.45728V37.6821H7.91115Z" fill="black"/>
<path d="M9.12636 37.6821V36.127H10.5175V37.6821H9.12636Z" fill="black"/>
<path d="M10.2641 37.6821V36.127H11.8102V37.6821H10.2641Z" fill="black"/>
<path d="M11.6343 37.6821V36.127H13.1804V37.6821H11.6343Z" fill="black"/>
<path d="M13.0819 37.6821V36.127H14.4731V37.6821H13.0819Z" fill="black"/>
<path d="M14.2971 37.6821V36.127H15.3791V37.6821H14.2971Z" fill="black"/>
<path d="M15.2038 37.6821V36.127H16.595V37.6821H15.2038Z" fill="black"/>
<path d="M16.381 37.6821V36.127H18.3913V37.6821H16.381Z" fill="black"/>
<path d="M18.2921 37.6821V36.127H18.9106V37.6821H18.2921Z" fill="black"/>
<path d="M18.7339 37.6821V36.127H19.8159V37.6821H18.7339Z" fill="black"/>
<path d="M19.6406 37.6821V36.127H20.8768V37.6821H19.6406Z" fill="black"/>
<path d="M20.7008 37.6821V36.127H21.3193V37.6821H20.7008Z" fill="black"/>
<path d="M21.1426 37.6821V36.127H22.6888V37.6821H21.1426Z" fill="black"/>
<path d="M22.5128 37.6821V36.127H23.904V37.6821H22.5128Z" fill="black"/>
<path d="M23.728 37.6821V36.127H25.1192V37.6821H23.728Z" fill="black"/>
<path d="M24.9052 37.6821V36.127H26.4513V37.6821H24.9052Z" fill="black"/>
<path d="M26.2754 37.6821V36.127H27.6665V37.6821H26.2754Z" fill="black"/>
<path d="M27.356 37.6821V36.127H28.9021V37.6821H27.356Z" fill="black"/>
<path d="M28.5712 37.6821V36.127H29.1897V37.6821H28.5712Z" fill="black"/>
<path d="M6 40.6821V39.127H7.08196V40.6821H6Z" fill="black"/>
<path d="M6.75171 40.6821V39.127H8.29785V40.6821H6.75171Z" fill="black"/>
<path d="M8.12188 40.6821V39.127H9.66802V40.6821H8.12188Z" fill="black"/>
<path d="M9.41457 40.6821V39.127H10.4965V40.6821H9.41457Z" fill="black"/>
<path d="M10.1663 40.6821V39.127H10.7847V40.6821H10.1663Z" fill="black"/>
<path d="M10.6081 40.6821V39.127H11.6901V40.6821H10.6081Z" fill="black"/>
<path d="M11.3598 40.6821V39.127H12.9059V40.6821H11.3598Z" fill="black"/>
<path d="M12.73 40.6821V39.127H14.2761V40.6821H12.73Z" fill="black"/>
<path d="M14.0227 40.6821V39.127H15.1046V40.6821H14.0227Z" fill="black"/>
<path d="M14.7744 40.6821V39.127H15.3928V40.6821H14.7744Z" fill="black"/>
<path d="M15.2162 40.6821V39.127H16.7623V40.6821H15.2162Z" fill="black"/>
<path d="M16.5864 40.6821V39.127H18.1325V40.6821H16.5864Z" fill="black"/>
<path d="M17.8791 40.6821V39.127H19.4252V40.6821H17.8791Z" fill="black"/>
<path d="M19.1717 40.6821V39.127H19.7902V40.6821H19.1717Z" fill="black"/>
<path d="M19.6136 40.6821V39.127H20.6955V40.6821H19.6136Z" fill="black"/>
<path d="M20.3653 40.6821V39.127H21.9114V40.6821H20.3653Z" fill="black"/>
<path d="M21.658 40.6821V39.127H23.2041V40.6821H21.658Z" fill="black"/>
<path d="M22.9901 40.6821V39.127H24.5362V40.6821H22.9901Z" fill="black"/>
<path d="M24.3602 40.6821V39.127H25.7514V40.6821H24.3602Z" fill="black"/>
<path d="M25.5755 40.6821V39.127H26.1939V40.6821H25.5755Z" fill="black"/>
<path d="M26.1722 40.6821V39.127H27.5634V40.6821H26.1722Z" fill="black"/>
<path d="M27.3099 40.6821V39.127H28.3919V40.6821H27.3099Z" fill="black"/>
<path d="M28.2166 40.6821V39.127H29.7628V40.6821H28.2166Z" fill="black"/>
<path d="M29.5093 40.6821V39.127H30.9005V40.6821H29.5093Z" fill="black"/>
<path d="M30.647 40.6821V39.127H32.1932V40.6821H30.647Z" fill="black"/>
<path d="M31.8623 40.6821V39.127H32.635V40.6821H31.8623Z" fill="black"/>
<path d="M32.3815 40.6821V39.127H33V40.6821H32.3815Z" fill="black"/>
<path d="M6.15495 43.6821V42.127H7.54614V43.6821H6.15495Z" fill="black"/>
<path d="M7.21522 43.6821V42.127H8.76135V43.6821H7.21522Z" fill="black"/>
<path d="M8.58538 43.6821V42.127H9.66734V43.6821H8.58538Z" fill="black"/>
<path d="M9.3371 43.6821V42.127H9.95555V43.6821H9.3371Z" fill="black"/>
<path d="M9.77891 43.6821V42.127H11.325V43.6821H9.77891Z" fill="black"/>
<path d="M11.0716 43.6821V42.127H12.1536V43.6821H11.0716Z" fill="black"/>
<path d="M11.9783 43.6821V42.127H13.3694V43.6821H11.9783Z" fill="black"/>
<path d="M13.3104 43.6821V42.127H14.5466V43.6821H13.3104Z" fill="black"/>
<path d="M14.3706 43.6821V42.127H14.9891V43.6821H14.3706Z" fill="black"/>
<path d="M14.9674 43.6821V42.127H16.3586V43.6821H14.9674Z" fill="black"/>
<path d="M16.1051 43.6821V42.127H17.4963V43.6821H16.1051Z" fill="black"/>
<path d="M17.3407 43.6821V42.127H18.577V43.6821H17.3407Z" fill="black"/>
<path d="M18.401 43.6821V42.127H19.7922V43.6821H18.401Z" fill="black"/>
<path d="M19.7331 43.6821V42.127H21.1243V43.6821H19.7331Z" fill="black"/>
<path d="M20.8708 43.6821V42.127H22.417V43.6821H20.8708Z" fill="black"/>
<path d="M22.0861 43.6821V42.127H23.4772V43.6821H22.0861Z" fill="black"/>
<path d="M23.1667 43.6821V42.127H24.2487V43.6821H23.1667Z" fill="black"/>
<path d="M24.0734 43.6821V42.127H25.1553V43.6821H24.0734Z" fill="black"/>
<path d="M24.98 43.6821V42.127H26.3712V43.6821H24.98Z" fill="black"/>
<path d="M26.1178 43.6821V42.127H26.7362V43.6821H26.1178Z" fill="black"/>
<path d="M26.5596 43.6821V42.127H27.7965V43.6821H26.5596Z" fill="black"/>
<path d="M27.6212 43.6821V42.127H28.8574V43.6821H27.6212Z" fill="black"/>
<path d="M28.6815 43.6821V42.127H30.0727V43.6821H28.6815Z" fill="black"/>
<path d="M29.7621 43.6821V42.127H30.3806V43.6821H29.7621Z" fill="black"/>
<path d="M6 46.6821V45.127H7.08196V46.6821H6Z" fill="black"/>
<path d="M6.75171 46.6821V45.127H8.29785V46.6821H6.75171Z" fill="black"/>
<path d="M8.12188 46.6821V45.127H9.66802V46.6821H8.12188Z" fill="black"/>
<path d="M9.3371 46.6821V45.127H9.95555V46.6821H9.3371Z" fill="black"/>
<path d="M9.77891 46.6821V45.127H11.48V46.6821H9.77891Z" fill="black"/>
<path d="M11.3231 46.6821V45.127H12.5593V46.6821H11.3231Z" fill="black"/>
<path d="M12.3833 46.6821V45.127H13.7745V46.6821H12.3833Z" fill="black"/>
<path d="M13.464 46.6821V45.127H14.5459V46.6821H13.464Z" fill="black"/>
<path d="M14.2157 46.6821V45.127H15.7618V46.6821H14.2157Z" fill="black"/>
<path d="M15.5859 46.6821V45.127H16.2043V46.6821H15.5859Z" fill="black"/>
<path d="M16.0277 46.6821V45.127H17.7287V46.6821H16.0277Z" fill="black"/>
<path d="M17.6303 46.6821V45.127H18.8665V46.6821H17.6303Z" fill="black"/>
<path d="M18.6905 46.6821V45.127H20.0817V46.6821H18.6905Z" fill="black"/>
<path d="M19.7712 46.6821V45.127H21.3173V46.6821H19.7712Z" fill="black"/>
<path d="M20.9864 46.6821V45.127H22.5325V46.6821H20.9864Z" fill="black"/>
<path d="M22.434 46.6821V45.127H23.8252V46.6821H22.434Z" fill="black"/>
<path d="M23.6492 46.6821V45.127H24.2677V46.6821H23.6492Z" fill="black"/>
<path d="M24.246 46.6821V45.127H25.6372V46.6821H24.246Z" fill="black"/>
<path d="M25.3837 46.6821V45.127H26.9299V46.6821H25.3837Z" fill="black"/>
<path d="M26.7539 46.6821V45.127H27.9901V46.6821H26.7539Z" fill="black"/>
<path d="M27.9691 46.6821V45.127H29.3603V46.6821H27.9691Z" fill="black"/>
<path d="M29.1069 46.6821V45.127H30.1888V46.6821H29.1069Z" fill="black"/>
<path d="M30.0135 46.6821V45.127H31.5597V46.6821H30.0135Z" fill="black"/>
<path d="M31.2287 46.6821V45.127H32.0015V46.6821H31.2287Z" fill="black"/>
<path d="M31.748 46.6821V45.127H32.3665V46.6821H31.748Z" fill="black"/>
<path d="M6 49.6821V48.127H7.54614V49.6821H6Z" fill="black"/>
<path d="M7.29269 49.6821V48.127H7.91115V49.6821H7.29269Z" fill="black"/>
<path d="M7.7345 49.6821V48.127H9.12568V49.6821H7.7345Z" fill="black"/>
<path d="M8.91166 49.6821V48.127H10.4578V49.6821H8.91166Z" fill="black"/>
<path d="M10.1269 49.6821V48.127H11.5181V49.6821H10.1269Z" fill="black"/>
<path d="M11.2646 49.6821V48.127H12.8107V49.6821H11.2646Z" fill="black"/>
<path d="M12.6348 49.6821V48.127H14.026V49.6821H12.6348Z" fill="black"/>
<path d="M13.7154 49.6821V48.127H14.7974V49.6821H13.7154Z" fill="black"/>
<path d="M14.6221 49.6821V48.127H15.7041V49.6821H14.6221Z" fill="black"/>
<path d="M15.5288 49.6821V48.127H16.9199V49.6821H15.5288Z" fill="black"/>
<path d="M16.6665 49.6821V48.127H17.285V49.6821H16.6665Z" fill="black"/>
<path d="M17.1083 49.6821V48.127H18.4995V49.6821H17.1083Z" fill="black"/>
<path d="M18.2855 49.6821V48.127H19.3674V49.6821H18.2855Z" fill="black"/>
<path d="M19.1921 49.6821V48.127H20.2741V49.6821H19.1921Z" fill="black"/>
<path d="M19.9438 49.6821V48.127H21.49V49.6821H19.9438Z" fill="black"/>
<path d="M21.314 49.6821V48.127H22.8601V49.6821H21.314Z" fill="black"/>
<path d="M22.6067 49.6821V48.127H23.6887V49.6821H22.6067Z" fill="black"/>
<path d="M23.3584 49.6821V48.127H24.4404V49.6821H23.3584Z" fill="black"/>
<path d="M24.42 49.6821V48.127H25.6563V49.6821H24.42Z" fill="black"/>
<path d="M25.6353 49.6821V48.127H27.0264V49.6821H25.6353Z" fill="black"/>
<path d="M26.8505 49.6821V48.127H27.4689V49.6821H26.8505Z" fill="black"/>
<path d="M27.2923 49.6821V48.127H28.5292V49.6821H27.2923Z" fill="black"/>
<path d="M28.3539 49.6821V48.127H29.5901V49.6821H28.3539Z" fill="black"/>
<path d="M29.4142 49.6821V48.127H30.8053V49.6821H29.4142Z" fill="black"/>
<path d="M30.4948 49.6821V48.127H31.1133V49.6821H30.4948Z" fill="black"/>
<path d="M6.15495 52.6821V51.127H7.54614V52.6821H6.15495Z" fill="black"/>
<path d="M7.37017 52.6821V51.127H8.6064V52.6821H7.37017Z" fill="black"/>
<path d="M8.43043 52.6821V51.127H9.51239V52.6821H8.43043Z" fill="black"/>
<path d="M9.18214 52.6821V51.127H10.7283V52.6821H9.18214Z" fill="black"/>
<path d="M10.5523 52.6821V51.127H11.1708V52.6821H10.5523Z" fill="black"/>
<path d="M10.9941 52.6821V51.127H12.6952V52.6821H10.9941Z" fill="black"/>
<path d="M12.5383 52.6821V51.127H13.7745V52.6821H12.5383Z" fill="black"/>
<path d="M13.5985 52.6821V51.127H14.9897V52.6821H13.5985Z" fill="black"/>
<path d="M14.6792 52.6821V51.127H15.7611V52.6821H14.6792Z" fill="black"/>
<path d="M15.4309 52.6821V51.127H16.977V52.6821H15.4309Z" fill="black"/>
<path d="M16.8011 52.6821V51.127H17.4195V52.6821H16.8011Z" fill="black"/>
<path d="M17.2429 52.6821V51.127H18.789V52.6821H17.2429Z" fill="black"/>
<path d="M18.6905 52.6821V51.127H20.0817V52.6821H18.6905Z" fill="black"/>
<path d="M19.9057 52.6821V51.127H21.4519V52.6821H19.9057Z" fill="black"/>
<path d="M21.1984 52.6821V51.127H21.8169V52.6821H21.1984Z" fill="black"/>
<path d="M21.6402 52.6821V51.127H23.0314V52.6821H21.6402Z" fill="black"/>
<path d="M23.0879 52.6821V51.127H24.3241V52.6821H23.0879Z" fill="black"/>
<path d="M24.1481 52.6821V51.127H25.6943V52.6821H24.1481Z" fill="black"/>
<path d="M25.5183 52.6821V51.127H26.6003V52.6821H25.5183Z" fill="black"/>
<path d="M26.27 52.6821V51.127H27.8162V52.6821H26.27Z" fill="black"/>
<path d="M27.6402 52.6821V51.127H28.2586V52.6821H27.6402Z" fill="black"/>
<path d="M6 55.6821V54.127H7.70109V55.6821H6Z" fill="black"/>
<path d="M7.6026 55.6821V54.127H8.83883V55.6821H7.6026Z" fill="black"/>
<path d="M8.66286 55.6821V54.127H10.054V55.6821H8.66286Z" fill="black"/>
<path d="M9.74351 55.6821V54.127H11.2896V55.6821H9.74351Z" fill="black"/>
<path d="M10.9587 55.6821V54.127H12.5049V55.6821H10.9587Z" fill="black"/>
<path d="M12.2514 55.6821V54.127H12.8699V55.6821H12.2514Z" fill="black"/>
<path d="M12.6932 55.6821V54.127H13.7752V55.6821H12.6932Z" fill="black"/>
<path d="M13.4449 55.6821V54.127H14.9911V55.6821H13.4449Z" fill="black"/>
<path d="M14.8151 55.6821V54.127H16.3612V55.6821H14.8151Z" fill="black"/>
<path d="M16.1078 55.6821V54.127H17.1898V55.6821H16.1078Z" fill="black"/>
<path d="M16.8595 55.6821V54.127H17.478V55.6821H16.8595Z" fill="black"/>
<path d="M17.3013 55.6821V54.127H19.4659V55.6821H17.3013Z" fill="black"/>
<path d="M19.135 55.6821V54.127H20.6811V55.6821H19.135Z" fill="black"/>
<path d="M20.4277 55.6821V54.127H21.8189V55.6821H20.4277Z" fill="black"/>
<path d="M21.6048 55.6821V54.127H22.2233V55.6821H21.6048Z" fill="black"/>
<path d="M6 58.6821V57.127H7.39118V58.6821H6Z" fill="black"/>
<path d="M7.17716 58.6821V57.127H8.72329V58.6821H7.17716Z" fill="black"/>
<path d="M8.46985 58.6821V57.127H9.5518V58.6821H8.46985Z" fill="black"/>
<path d="M9.22156 58.6821V57.127H10.3035V58.6821H9.22156Z" fill="black"/>
<path d="M10.1282 58.6821V57.127H11.5194V58.6821H10.1282Z" fill="black"/>
<path d="M11.3054 58.6821V57.127H12.5423V58.6821H11.3054Z" fill="black"/>
<path d="M12.2121 58.6821V57.127H13.7582V58.6821H12.2121Z" fill="black"/>
<path d="M13.5047 58.6821V57.127H14.8959V58.6821H13.5047Z" fill="black"/>
<path d="M14.6425 58.6821V57.127H15.7244V58.6821H14.6425Z" fill="black"/>
<path d="M15.5492 58.6821V57.127H16.7854V58.6821H15.5492Z" fill="black"/>
<path d="M16.6094 58.6821V57.127H18.0006V58.6821H16.6094Z" fill="black"/>
<path d="M17.845 58.6821V57.127H19.2362V58.6821H17.845Z" fill="black"/>
<path d="M18.9828 58.6821V57.127H19.6012V58.6821H18.9828Z" fill="black"/>
<path d="M19.4246 58.6821V57.127H20.5065V58.6821H19.4246Z" fill="black"/>
<path d="M20.3312 58.6821V57.127H21.5675V58.6821H20.3312Z" fill="black"/>
<path d="M21.3915 58.6821V57.127H22.0099V58.6821H21.3915Z" fill="black"/>
<path d="M21.8333 58.6821V57.127H23.3794V58.6821H21.8333Z" fill="black"/>
<path d="M23.0485 58.6821V57.127H24.5947V58.6821H23.0485Z" fill="black"/>
<path d="M24.3412 58.6821V57.127H25.7324V58.6821H24.3412Z" fill="black"/>
<path d="M25.4789 58.6821V57.127H27.0251V58.6821H25.4789Z" fill="black"/>
<path d="M26.8491 58.6821V57.127H27.4676V58.6821H26.8491Z" fill="black"/>
<path d="M27.4459 58.6821V57.127H28.6821V58.6821H27.4459Z" fill="black"/>
<path d="M28.5061 58.6821V57.127H29.743V58.6821H28.5061Z" fill="black"/>
<path d="M29.4128 58.6821V57.127H30.0313V58.6821H29.4128Z" fill="black"/>
<path d="M6 61.6821V60.127H7.08196V61.6821H6Z" fill="black"/>
<path d="M6.75171 61.6821V60.127H8.29785V61.6821H6.75171Z" fill="black"/>
<path d="M8.12188 61.6821V60.127H9.66802V61.6821H8.12188Z" fill="black"/>
<path d="M9.3371 61.6821V60.127H11.3474V61.6821H9.3371Z" fill="black"/>
<path d="M11.2482 61.6821V60.127H11.8667V61.6821H11.2482Z" fill="black"/>
<path d="M11.6901 61.6821V60.127H13.2362V61.6821H11.6901Z" fill="black"/>
<path d="M12.9827 61.6821V60.127H14.3739V61.6821H12.9827Z" fill="black"/>
<path d="M14.1599 61.6821V60.127H14.7784V61.6821H14.1599Z" fill="black"/>
<path d="M14.6017 61.6821V60.127H16.7663V61.6821H14.6017Z" fill="black"/>
<path d="M16.5129 61.6821V60.127H18.059V61.6821H16.5129Z" fill="black"/>
<path d="M17.7281 61.6821V60.127H18.81V61.6821H17.7281Z" fill="black"/>
<path d="M18.6347 61.6821V60.127H19.7167V61.6821H18.6347Z" fill="black"/>
<path d="M19.5414 61.6821V60.127H20.3141V61.6821H19.5414Z" fill="black"/>
<path d="M20.0607 61.6821V60.127H20.8334V61.6821H20.0607Z" fill="black"/>
<path d="M6.30923 7.57754H25.8412V7.64727H6.30923V7.57754ZM6.30923 10.5775H28.8043V10.6473H6.30923V10.5775ZM6.30923 13.5775H25.8119V13.6473H6.30923V13.5775ZM6.30923 16.5775H31.9634V16.6473H6.30923V16.5775ZM6.30923 19.5775H26.5201V19.6473H6.30923V19.5775ZM6.30923 22.5775H27.5049V22.6473H6.30923V22.5775ZM6.30923 25.5775H16.6264V25.6473H6.30923V25.5775ZM16.6264 25.8571H17.2667V25.9271H16.6264V25.8571ZM17.2667 25.5775H26.1946V25.6473H17.2667V25.5775ZM6.30923 28.5775H31.0949V28.6473H6.30923V28.5775ZM6.30923 31.5775H32.4867V31.6473H6.30923V31.5775ZM6.30923 34.5775H20.8729V34.6473H6.30923V34.5775ZM6.30923 37.5775H28.8804V37.6473H6.30923V37.5775ZM6.30923 40.5775H32.6908V40.6473H6.30923V40.5775ZM6.30923 43.5775H30.0707V43.6473H6.30923V43.5775ZM6.30923 46.5775H32.0573V46.6473H6.30923V46.5775ZM6.30923 49.5775H30.8034V49.6473H6.30923V49.5775ZM6.30923 52.5775H27.9494V52.6473H6.30923V52.5775ZM6.30923 55.5775H21.9134V55.6473H6.30923V55.5775ZM6.30923 58.5775H29.7214V58.6473H6.30923V58.5775ZM6.30923 61.5775H21.0223V61.6473H6.30923V61.5775Z" fill="black"/>
</g>
<rect width="12" height="14" transform="translate(25 18.127)" fill="white"/>
<path d="M31.4307 23.1455C31.141 23.1455 30.8838 23.2025 30.6592 23.3164C30.4378 23.4271 30.2507 23.5882 30.0977 23.7998C29.9479 24.0114 29.834 24.2669 29.7559 24.5664C29.6777 24.8659 29.6387 25.2028 29.6387 25.5771C29.6387 26.0817 29.7005 26.513 29.8242 26.8711C29.9512 27.2259 30.1465 27.4977 30.4102 27.6865C30.6738 27.8721 31.014 27.9648 31.4307 27.9648C31.7204 27.9648 32.0101 27.9323 32.2998 27.8672C32.5928 27.8021 32.9102 27.7093 33.252 27.5889V28.8584C32.9362 28.9886 32.6253 29.0814 32.3193 29.1367C32.0133 29.1953 31.6699 29.2246 31.2891 29.2246C30.5534 29.2246 29.9479 29.0732 29.4727 28.7705C29.0007 28.4645 28.6507 28.0381 28.4229 27.4912C28.195 26.9411 28.0811 26.2998 28.0811 25.5674C28.0811 25.027 28.1543 24.5322 28.3008 24.083C28.4473 23.6338 28.6621 23.2448 28.9453 22.916C29.2285 22.5872 29.5785 22.3333 29.9951 22.1543C30.4118 21.9753 30.8903 21.8857 31.4307 21.8857C31.7855 21.8857 32.1403 21.9313 32.4951 22.0225C32.8532 22.1104 33.195 22.2324 33.5205 22.3887L33.0322 23.6191C32.7653 23.4922 32.4967 23.3815 32.2266 23.2871C31.9564 23.1927 31.6911 23.1455 31.4307 23.1455Z" fill="#585858"/>
</g>
<path d="M11.3333 38.127H2V44.475H11.3333V38.127Z" fill="#7FA4CA"/>
<path d="M21.6663 38.127H12.333V44.475H21.6663V38.127Z" fill="#BB90BB"/>
</g>
<defs>
<filter id="filter0_d_238_44354" x="0" y="1.12695" width="39" height="35" filterUnits="userSpaceOnUse" color-interpolation-filters="sRGB">
<feFlood flood-opacity="0" result="BackgroundImageFix"/>
<feColorMatrix in="SourceAlpha" type="matrix" values="0 0 0 0 0 0 0 0 0 0 0 0 0 0 0 0 0 0 127 0" result="hardAlpha"/>
<feOffset dy="1"/>
<feGaussianBlur stdDeviation="1"/>
<feComposite in2="hardAlpha" operator="out"/>
<feColorMatrix type="matrix" values="0 0 0 0 0 0 0 0 0 0 0 0 0 0 0 0 0 0 0.1 0"/>
<feBlend mode="normal" in2="BackgroundImageFix" result="effect1_dropShadow_238_44354"/>
<feBlend mode="normal" in="SourceGraphic" in2="effect1_dropShadow_238_44354" result="shape"/>
</filter>
<filter id="filter1_i_238_44354" x="2" y="-2.87305" width="35" height="34" filterUnits="userSpaceOnUse" color-interpolation-filters="sRGB">
<feFlood flood-opacity="0" result="BackgroundImageFix"/>
<feBlend mode="normal" in="SourceGraphic" in2="BackgroundImageFix" result="shape"/>
<feColorMatrix in="SourceAlpha" type="matrix" values="0 0 0 0 0 0 0 0 0 0 0 0 0 0 0 0 0 0 127 0" result="hardAlpha"/>
<feOffset dy="-5"/>
<feGaussianBlur stdDeviation="3.5"/>
<feComposite in2="hardAlpha" operator="arithmetic" k2="-1" k3="1"/>
<feColorMatrix type="matrix" values="0 0 0 0 1 0 0 0 0 1 0 0 0 0 1 0 0 0 1 0"/>
<feBlend mode="normal" in2="shape" result="effect1_innerShadow_238_44354"/>
</filter>
<clipPath id="clip0_238_44354">
<rect width="39" height="46.3481" fill="white" transform="translate(0 0.126953)"/>
</clipPath>
<clipPath id="clip1_238_44354">
<rect width="35" height="31" fill="white" transform="translate(2 2.12695)"/>
</clipPath>
<clipPath id="clip2_238_44354">
<rect width="35" height="29" fill="white" transform="translate(2 2.12695)"/>
</clipPath>
</defs>
</svg>
