<svg width="39" height="48" viewBox="0 0 39 48" fill="none" xmlns="http://www.w3.org/2000/svg">
<g clip-path="url(#clip0_238_44266)">
<rect width="35" height="31" transform="translate(2 2.90137)" fill="#364B60"/>
<g opacity="0.5" clip-path="url(#clip1_238_44266)" filter="url(#filter0_i_238_44266)">
<rect width="35" height="29" transform="translate(2 2.90137)" fill="#364B60"/>
<path d="M6 8.45654V6.90137H6.76971V8.45654H6Z" fill="white"/>
<path d="M6.74878 8.45654V6.90137H8.28888V8.45654H6.74878Z" fill="white"/>
<path d="M7.9782 8.45654V6.90137H9.36395V8.45654H7.9782Z" fill="white"/>
<path d="M9.05463 8.45654V6.90137H10.5947V8.45654H9.05463Z" fill="white"/>
<path d="M10.2651 8.45654V6.90137H11.6509V8.45654H10.2651Z" fill="white"/>
<path d="M11.4377 8.45654V6.90137H12.5154V8.45654H11.4377Z" fill="white"/>
<path d="M12.3408 8.45654V6.90137H13.8809V8.45654H12.3408Z" fill="white"/>
<path d="M13.6284 8.45654V6.90137H15.1685V8.45654H13.6284Z" fill="white"/>
<path d="M14.9932 8.45654V6.90137H16.379V8.45654H14.9932Z" fill="white"/>
<path d="M16.2037 8.45654V6.90137H17.2814V8.45654H16.2037Z" fill="white"/>
<path d="M16.9525 8.45654V6.90137H17.5685V8.45654H16.9525Z" fill="white"/>
<path d="M17.3926 8.45654V6.90137H18.9327V8.45654H17.3926Z" fill="white"/>
<path d="M18.7574 8.45654V6.90137H20.1431V8.45654H18.7574Z" fill="white"/>
<path d="M19.8338 8.45654V6.90137H21.3739V8.45654H19.8338Z" fill="white"/>
<path d="M21.1986 8.45654V6.90137H23.2011V8.45654H21.1986Z" fill="white"/>
<path d="M23.2567 8.45654V6.90137H24.6424V8.45654H23.2567Z" fill="white"/>
<path d="M24.39 8.45654V6.90137H25.006V8.45654H24.39Z" fill="white"/>
<path d="M6 11.4565V9.90137H7.38575V11.4565H6Z" fill="white"/>
<path d="M7.28764 11.4565V9.90137H8.51904V11.4565H7.28764Z" fill="white"/>
<path d="M8.34376 11.4565V9.90137H10.3462V11.4565H8.34376Z" fill="white"/>
<path d="M10.2474 11.4565V9.90137H12.2499V11.4565H10.2474Z" fill="white"/>
<path d="M12.1511 11.4565V9.90137H13.2289V11.4565H12.1511Z" fill="white"/>
<path d="M13.0543 11.4565V9.90137H14.132V11.4565H13.0543Z" fill="white"/>
<path d="M13.803 11.4565V9.90137H14.8808V11.4565H13.803Z" fill="white"/>
<path d="M14.5518 11.4565V9.90137H16.0919V11.4565H14.5518Z" fill="white"/>
<path d="M15.7623 11.4565V9.90137H17.3024V11.4565H15.7623Z" fill="white"/>
<path d="M17.0499 11.4565V9.90137H17.666V11.4565H17.0499Z" fill="white"/>
<path d="M17.49 11.4565V9.90137H18.5677V11.4565H17.49Z" fill="white"/>
<path d="M18.3931 11.4565V9.90137H19.6245V11.4565H18.3931Z" fill="white"/>
<path d="M19.4493 11.4565V9.90137H20.0653V11.4565H19.4493Z" fill="white"/>
<path d="M20.0437 11.4565V9.90137H21.4294V11.4565H20.0437Z" fill="white"/>
<path d="M21.177 11.4565V9.90137H22.5627V11.4565H21.177Z" fill="white"/>
<path d="M22.4078 11.4565V9.90137H23.6392V11.4565H22.4078Z" fill="white"/>
<path d="M23.4639 11.4565V9.90137H24.8496V11.4565H23.4639Z" fill="white"/>
<path d="M24.7515 11.4565V9.90137H25.8293V11.4565H24.7515Z" fill="white"/>
<path d="M25.6546 11.4565V9.90137H27.1947V11.4565H25.6546Z" fill="white"/>
<path d="M26.9423 11.4565V9.90137H28.4824V11.4565H26.9423Z" fill="white"/>
<path d="M28.1528 11.4565V9.90137H28.7688V11.4565H28.1528Z" fill="white"/>
<path d="M6 14.4565V12.9014H7.38575V14.4565H6Z" fill="white"/>
<path d="M7.17256 14.4565V12.9014H8.71266V14.4565H7.17256Z" fill="white"/>
<path d="M8.38303 14.4565V12.9014H9.76878V14.4565H8.38303Z" fill="white"/>
<path d="M9.51632 14.4565V12.9014H11.0564V14.4565H9.51632Z" fill="white"/>
<path d="M10.8811 14.4565V12.9014H12.2669V14.4565H10.8811Z" fill="white"/>
<path d="M11.9576 14.4565V12.9014H13.0353V14.4565H11.9576Z" fill="white"/>
<path d="M12.8607 14.4565V12.9014H13.9384V14.4565H12.8607Z" fill="white"/>
<path d="M13.7638 14.4565V12.9014H15.1496V14.4565H13.7638Z" fill="white"/>
<path d="M14.8971 14.4565V12.9014H15.5132V14.4565H14.8971Z" fill="white"/>
<path d="M15.3372 14.4565V12.9014H16.8773V14.4565H15.3372Z" fill="white"/>
<path d="M16.702 14.4565V12.9014H18.2421V14.4565H16.702Z" fill="white"/>
<path d="M18.0668 14.4565V12.9014H19.6069V14.4565H18.0668Z" fill="white"/>
<path d="M19.3545 14.4565V12.9014H20.7402V14.4565H19.3545Z" fill="white"/>
<path d="M20.393 14.4565V12.9014H21.9331V14.4565H20.393Z" fill="white"/>
<path d="M21.835 14.4565V12.9014H23.2207V14.4565H21.835Z" fill="white"/>
<path d="M23.0455 14.4565V12.9014H24.1232V14.4565H23.0455Z" fill="white"/>
<path d="M23.7942 14.4565V12.9014H25.3343V14.4565H23.7942Z" fill="white"/>
<path d="M25.0047 14.4565V12.9014H26.5448V14.4565H25.0047Z" fill="white"/>
<path d="M26.2152 14.4565V12.9014H27.6009V14.4565H26.2152Z" fill="white"/>
<path d="M27.3877 14.4565V12.9014H28.0038V14.4565H27.3877Z" fill="white"/>
<path d="M27.8278 14.4565V12.9014H28.9055V14.4565H27.8278Z" fill="white"/>
<path d="M28.7309 14.4565V12.9014H29.9623V14.4565H28.7309Z" fill="white"/>
<path d="M29.7871 14.4565V12.9014H30.4031V14.4565H29.7871Z" fill="white"/>
<path d="M6 17.4565V15.9014H7.07773V17.4565H6Z" fill="white"/>
<path d="M6.74878 17.4565V15.9014H8.28888V17.4565H6.74878Z" fill="white"/>
<path d="M8.1136 17.4565V15.9014H9.65369V17.4565H8.1136Z" fill="white"/>
<path d="M9.32407 17.4565V15.9014H9.9401V17.4565H9.32407Z" fill="white"/>
<path d="M9.76415 17.4565V15.9014H11.4586V17.4565H9.76415Z" fill="white"/>
<path d="M11.3023 17.4565V15.9014H12.8424V17.4565H11.3023Z" fill="white"/>
<path d="M12.5317 17.4565V15.9014H14.2261V17.4565H12.5317Z" fill="white"/>
<path d="M14.0509 17.4565V15.9014H15.7453V17.4565H14.0509Z" fill="white"/>
<path d="M15.4928 17.4565V15.9014H16.2626V17.4565H15.4928Z" fill="white"/>
<path d="M16.0101 17.4565V15.9014H16.6261V17.4565H16.0101Z" fill="white"/>
<path d="M16.4502 17.4565V15.9014H17.9903V17.4565H16.4502Z" fill="white"/>
<path d="M17.8922 17.4565V15.9014H19.2779V17.4565H17.8922Z" fill="white"/>
<path d="M19.1026 17.4565V15.9014H20.6427V17.4565H19.1026Z" fill="white"/>
<path d="M20.3903 17.4565V15.9014H21.0063V17.4565H20.3903Z" fill="white"/>
<path d="M20.8304 17.4565V15.9014H22.3705V17.4565H20.8304Z" fill="white"/>
<path d="M22.0991 17.4565V15.9014H23.6392V17.4565H22.0991Z" fill="white"/>
<path d="M23.4639 17.4565V15.9014H25.004V17.4565H23.4639Z" fill="white"/>
<path d="M24.7515 17.4565V15.9014H25.8293V17.4565H24.7515Z" fill="white"/>
<path d="M25.6546 17.4565V15.9014H27.0404V17.4565H25.6546Z" fill="white"/>
<path d="M26.7311 17.4565V15.9014H28.7335V17.4565H26.7311Z" fill="white"/>
<path d="M28.6348 17.4565V15.9014H30.1749V17.4565H28.6348Z" fill="white"/>
<path d="M30.0768 17.4565V15.9014H31.4625V17.4565H30.0768Z" fill="white"/>
<path d="M31.2872 17.4565V15.9014H31.9033V17.4565H31.2872Z" fill="white"/>
<path d="M6 20.4565V18.9014H7.69445V20.4565H6Z" fill="white"/>
<path d="M7.44199 20.4565V18.9014H8.51972V20.4565H7.44199Z" fill="white"/>
<path d="M8.34512 20.4565V18.9014H10.3476V20.4565H8.34512Z" fill="white"/>
<path d="M10.2488 20.4565V18.9014H10.8648V20.4565H10.2488Z" fill="white"/>
<path d="M10.6889 20.4565V18.9014H12.0746V20.4565H10.6889Z" fill="white"/>
<path d="M11.9968 20.4565V18.9014H13.2282V20.4565H11.9968Z" fill="white"/>
<path d="M13.2073 20.4565V18.9014H14.5931V20.4565H13.2073Z" fill="white"/>
<path d="M14.4178 20.4565V18.9014H15.9579V20.4565H14.4178Z" fill="white"/>
<path d="M15.7826 20.4565V18.9014H16.3986V20.4565H15.7826Z" fill="white"/>
<path d="M16.2227 20.4565V18.9014H17.9171V20.4565H16.2227Z" fill="white"/>
<path d="M17.7797 20.4565V18.9014H19.1655V20.4565H17.7797Z" fill="white"/>
<path d="M18.9902 20.4565V18.9014H19.6063V20.4565H18.9902Z" fill="white"/>
<path d="M19.4303 20.4565V18.9014H20.816V20.4565H19.4303Z" fill="white"/>
<path d="M20.5067 20.4565V18.9014H22.0468V20.4565H20.5067Z" fill="white"/>
<path d="M21.7172 20.4565V18.9014H23.2573V20.4565H21.7172Z" fill="white"/>
<path d="M23.0048 20.4565V18.9014H24.2369V20.4565H23.0048Z" fill="white"/>
<path d="M23.908 20.4565V18.9014H25.14V20.4565H23.908Z" fill="white"/>
<path d="M24.8111 20.4565V18.9014H25.8888V20.4565H24.8111Z" fill="white"/>
<path d="M25.7142 20.4565V18.9014H27.1V20.4565H25.7142Z" fill="white"/>
<path d="M26.7907 20.4565V18.9014H28.7931V20.4565H26.7907Z" fill="white"/>
<path d="M28.6943 20.4565V18.9014H30.2344V20.4565H28.6943Z" fill="white"/>
<path d="M29.9048 20.4565V18.9014H31.4449V20.4565H29.9048Z" fill="white"/>
<path d="M31.1924 20.4565V18.9014H31.8085V20.4565H31.1924Z" fill="white"/>
<path d="M6 23.4565V21.9014H7.5401V23.4565H6Z" fill="white"/>
<path d="M7.36482 23.4565V21.9014H8.44255V23.4565H7.36482Z" fill="white"/>
<path d="M8.26794 23.4565V21.9014H9.65369V23.4565H8.26794Z" fill="white"/>
<path d="M9.4405 23.4565V21.9014H10.0565V23.4565H9.4405Z" fill="white"/>
<path d="M9.88058 23.4565V21.9014H11.1127V23.4565H9.88058Z" fill="white"/>
<path d="M10.7837 23.4565V21.9014H11.8614V23.4565H10.7837Z" fill="white"/>
<path d="M11.6868 23.4565V21.9014H13.0726V23.4565H11.6868Z" fill="white"/>
<path d="M12.7633 23.4565V21.9014H14.7657V23.4565H12.7633Z" fill="white"/>
<path d="M14.667 23.4565V21.9014H15.283V23.4565H14.667Z" fill="white"/>
<path d="M15.107 23.4565V21.9014H16.6471V23.4565H15.107Z" fill="white"/>
<path d="M16.549 23.4565V21.9014H17.9348V23.4565H16.549Z" fill="white"/>
<path d="M17.7595 23.4565V21.9014H19.2996V23.4565H17.7595Z" fill="white"/>
<path d="M19.0471 23.4565V21.9014H19.6632V23.4565H19.0471Z" fill="white"/>
<path d="M19.4872 23.4565V21.9014H21.0273V23.4565H19.4872Z" fill="white"/>
<path d="M21.0064 23.4565V21.9014H22.3921V23.4565H21.0064Z" fill="white"/>
<path d="M22.1397 23.4565V21.9014H24.2958V23.4565H22.1397Z" fill="white"/>
<path d="M23.9662 23.4565V21.9014H25.5063V23.4565H23.9662Z" fill="white"/>
<path d="M25.1767 23.4565V21.9014H26.5624V23.4565H25.1767Z" fill="white"/>
<path d="M26.4643 23.4565V21.9014H28.0044V23.4565H26.4643Z" fill="white"/>
<path d="M27.6748 23.4565V21.9014H29.0605V23.4565H27.6748Z" fill="white"/>
<path d="M28.7512 23.4565V21.9014H29.8289V23.4565H28.7512Z" fill="white"/>
<path d="M29.8087 23.4565V21.9014H31.1944V23.4565H29.8087Z" fill="white"/>
<path d="M31.0191 23.4565V21.9014H32.5592V23.4565H31.0191Z" fill="white"/>
<path d="M32.384 23.4565V21.9014H33V23.4565H32.384Z" fill="white"/>
<path d="M6 26.4565V24.9014H7.38575V26.4565H6Z" fill="white"/>
<path d="M7.28764 26.4565V24.9014H8.51904V26.4565H7.28764Z" fill="white"/>
<path d="M8.34376 26.4565V24.9014H10.3462V26.4565H8.34376Z" fill="white"/>
<path d="M10.2474 26.4565V24.9014H12.2499V26.4565H10.2474Z" fill="white"/>
<path d="M12.1511 26.4565V24.9014H13.2289V26.4565H12.1511Z" fill="white"/>
<path d="M13.0543 26.4565V24.9014H14.132V26.4565H13.0543Z" fill="white"/>
<path d="M13.803 26.4565V24.9014H15.8055V26.4565H13.803Z" fill="white"/>
<path d="M15.7067 26.4565V24.9014H17.2468V26.4565H15.7067Z" fill="white"/>
<path d="M17.0715 26.4565V24.9014H18.4573V26.4565H17.0715Z" fill="white"/>
<path d="M18.282 26.4565V24.9014H19.3597V26.4565H18.282Z" fill="white"/>
<path d="M19.0308 26.4565V24.9014H19.6468V26.4565H19.0308Z" fill="white"/>
<path d="M19.4709 26.4565V24.9014H20.5486V26.4565H19.4709Z" fill="white"/>
<path d="M20.374 26.4565V24.9014H21.6054V26.4565H20.374Z" fill="white"/>
<path d="M21.4301 26.4565V24.9014H22.0462V26.4565H21.4301Z" fill="white"/>
<path d="M21.8702 26.4565V24.9014H23.2559V26.4565H21.8702Z" fill="white"/>
<path d="M23.1578 26.4565V24.9014H24.3892V26.4565H23.1578Z" fill="white"/>
<path d="M24.214 26.4565V24.9014H26.2164V26.4565H24.214Z" fill="white"/>
<path d="M26.272 26.4565V24.9014H27.6577V26.4565H26.272Z" fill="white"/>
<path d="M27.4053 26.4565V24.9014H28.483V26.4565H27.4053Z" fill="white"/>
<path d="M28.3084 26.4565V24.9014H29.8485V26.4565H28.3084Z" fill="white"/>
<path d="M29.5189 26.4565V24.9014H30.5966V26.4565H29.5189Z" fill="white"/>
<path d="M30.2677 26.4565V24.9014H31.8078V26.4565H30.2677Z" fill="white"/>
<path d="M31.4781 26.4565V24.9014H32.0942V26.4565H31.4781Z" fill="white"/>
<path d="M6 29.4565V27.9014H7.5401V29.4565H6Z" fill="white"/>
<path d="M7.28764 29.4565V27.9014H8.82774V29.4565H7.28764Z" fill="white"/>
<path d="M8.65246 29.4565V27.9014H10.0382V29.4565H8.65246Z" fill="white"/>
<path d="M9.86293 29.4565V27.9014H11.403V29.4565H9.86293Z" fill="white"/>
<path d="M11.2277 29.4565V27.9014H12.6135V29.4565H11.2277Z" fill="white"/>
<path d="M12.361 29.4565V27.9014H13.4388V29.4565H12.361Z" fill="white"/>
<path d="M13.2642 29.4565V27.9014H14.8043V29.4565H13.2642Z" fill="white"/>
<path d="M14.4746 29.4565V27.9014H16.0147V29.4565H14.4746Z" fill="white"/>
<path d="M15.7623 29.4565V27.9014H17.148V29.4565H15.7623Z" fill="white"/>
<path d="M16.8387 29.4565V27.9014H17.9164V29.4565H16.8387Z" fill="white"/>
<path d="M17.8962 29.4565V27.9014H19.1276V29.4565H17.8962Z" fill="white"/>
<path d="M18.8562 29.4565V27.9014H20.3963V29.4565H18.8562Z" fill="white"/>
<path d="M20.1438 29.4565V27.9014H21.2216V29.4565H20.1438Z" fill="white"/>
<path d="M20.8926 29.4565V27.9014H21.9703V29.4565H20.8926Z" fill="white"/>
<path d="M21.9501 29.4565V27.9014H23.1815V29.4565H21.9501Z" fill="white"/>
<path d="M23.1605 29.4565V27.9014H24.5463V29.4565H23.1605Z" fill="white"/>
<path d="M24.371 29.4565V27.9014H24.9871V29.4565H24.371Z" fill="white"/>
<path d="M24.9654 29.4565V27.9014H26.1968V29.4565H24.9654Z" fill="white"/>
<path d="M26.0216 29.4565V27.9014H27.2536V29.4565H26.0216Z" fill="white"/>
<path d="M26.9247 29.4565V27.9014H27.5407V29.4565H26.9247Z" fill="white"/>
<path d="M27.3648 29.4565V27.9014H28.4425V29.4565H27.3648Z" fill="white"/>
<path d="M28.1136 29.4565V27.9014H29.6536V29.4565H28.1136Z" fill="white"/>
<path d="M29.4784 29.4565V27.9014H31.0185V29.4565H29.4784Z" fill="white"/>
<path d="M30.6888 29.4565V27.9014H31.3049V29.4565H30.6888Z" fill="white"/>
<path d="M6 32.4565V30.9014H7.69445V32.4565H6Z" fill="white"/>
<path d="M7.59634 32.4565V30.9014H8.82774V32.4565H7.59634Z" fill="white"/>
<path d="M8.65246 32.4565V30.9014H10.0382V32.4565H8.65246Z" fill="white"/>
<path d="M9.72889 32.4565V30.9014H11.269V32.4565H9.72889Z" fill="white"/>
<path d="M10.9394 32.4565V30.9014H12.4795V32.4565H10.9394Z" fill="white"/>
<path d="M12.3814 32.4565V30.9014H13.7671V32.4565H12.3814Z" fill="white"/>
<path d="M13.5918 32.4565V30.9014H14.2079V32.4565H13.5918Z" fill="white"/>
<path d="M14.1863 32.4565V30.9014H15.7263V32.4565H14.1863Z" fill="white"/>
<path d="M15.4157 32.4565V30.9014H16.9558V32.4565H15.4157Z" fill="white"/>
<path d="M16.7805 32.4565V30.9014H18.1662V32.4565H16.7805Z" fill="white"/>
<path d="M17.991 32.4565V30.9014H19.0687V32.4565H17.991Z" fill="white"/>
<path d="M19.0484 32.4565V30.9014H20.4342V32.4565H19.0484Z" fill="white"/>
<path d="M20.2589 32.4565V30.9014H21.6447V32.4565H20.2589Z" fill="white"/>
<path d="M21.4315 32.4565V30.9014H22.9716V32.4565H21.4315Z" fill="white"/>
<path d="M22.7963 32.4565V30.9014H23.874V32.4565H22.7963Z" fill="white"/>
<path d="M23.6994 32.4565V30.9014H25.2395V32.4565H23.6994Z" fill="white"/>
<path d="M24.9871 32.4565V30.9014H25.7568V32.4565H24.9871Z" fill="white"/>
<path d="M25.5043 32.4565V30.9014H26.274V32.4565H25.5043Z" fill="white"/>
</g>
</g>
<path d="M11.3333 38.9014H2V45.2494H11.3333V38.9014Z" fill="#7FA4CA"/>
<defs>
<filter id="filter0_i_238_44266" x="2" y="-2.09863" width="35" height="34" filterUnits="userSpaceOnUse" color-interpolation-filters="sRGB">
<feFlood flood-opacity="0" result="BackgroundImageFix"/>
<feBlend mode="normal" in="SourceGraphic" in2="BackgroundImageFix" result="shape"/>
<feColorMatrix in="SourceAlpha" type="matrix" values="0 0 0 0 0 0 0 0 0 0 0 0 0 0 0 0 0 0 127 0" result="hardAlpha"/>
<feOffset dy="-5"/>
<feGaussianBlur stdDeviation="3.5"/>
<feComposite in2="hardAlpha" operator="arithmetic" k2="-1" k3="1"/>
<feColorMatrix type="matrix" values="0 0 0 0 0.211765 0 0 0 0 0.294118 0 0 0 0 0.376471 0 0 0 1 0"/>
<feBlend mode="normal" in2="shape" result="effect1_innerShadow_238_44266"/>
</filter>
<clipPath id="clip0_238_44266">
<rect width="35" height="31" fill="white" transform="translate(2 2.90137)"/>
</clipPath>
<clipPath id="clip1_238_44266">
<rect width="35" height="29" fill="white" transform="translate(2 2.90137)"/>
</clipPath>
</defs>
</svg>
