<svg width="39" height="47" viewBox="0 0 39 47" fill="none" xmlns="http://www.w3.org/2000/svg">
<g clip-path="url(#clip0_238_44310)">
<g clip-path="url(#clip1_238_44310)" filter="url(#filter0_d_238_44310)">
<rect width="35" height="31" transform="translate(2 2.51367)" fill="white"/>
<g opacity="0.3" clip-path="url(#clip2_238_44310)" filter="url(#filter1_i_238_44310)">
<rect width="35" height="29" transform="translate(2 2.51367)" fill="white"/>
<path d="M6 8.06885V6.51367H6.76809V8.06885H6Z" fill="black"/>
<path d="M6.7472 8.06885V6.51367H8.28407V8.06885H6.7472Z" fill="black"/>
<path d="M7.97405 8.06885V6.51367H9.35688V8.06885H7.97405Z" fill="black"/>
<path d="M9.04821 8.06885V6.51367H10.5851V8.06885H9.04821Z" fill="black"/>
<path d="M10.2561 8.06885V6.51367H11.639V8.06885H10.2561Z" fill="black"/>
<path d="M11.4262 8.06885V6.51367H12.5017V8.06885H11.4262Z" fill="black"/>
<path d="M12.3275 8.06885V6.51367H13.8643V8.06885H12.3275Z" fill="black"/>
<path d="M13.6124 8.06885V6.51367H15.1493V8.06885H13.6124Z" fill="black"/>
<path d="M14.9743 8.06885V6.51367H16.3572V8.06885H14.9743Z" fill="black"/>
<path d="M16.1823 8.06885V6.51367H17.2577V8.06885H16.1823Z" fill="black"/>
<path d="M16.9295 8.06885V6.51367H17.5442V8.06885H16.9295Z" fill="black"/>
<path d="M17.3686 8.06885V6.51367H18.9055V8.06885H17.3686Z" fill="black"/>
<path d="M18.7306 8.06885V6.51367H20.1134V8.06885H18.7306Z" fill="black"/>
<path d="M19.8048 8.06885V6.51367H21.3416V8.06885H19.8048Z" fill="black"/>
<path d="M21.1667 8.06885V6.51367H23.165V8.06885H21.1667Z" fill="black"/>
<path d="M23.2204 8.06885V6.51367H24.6032V8.06885H23.2204Z" fill="black"/>
<path d="M24.3513 8.06885V6.51367H24.9661V8.06885H24.3513Z" fill="black"/>
<path d="M24.7905 8.06885V6.51367H25.8659V8.06885H24.7905Z" fill="black"/>
<path d="M25.6917 8.06885V6.51367H27.0745V8.06885H25.6917Z" fill="black"/>
<path d="M26.8618 8.06885V6.51367H27.4765V8.06885H26.8618Z" fill="black"/>
<path d="M6 11.0688V9.51367H7.38284V11.0688H6Z" fill="black"/>
<path d="M7.07417 11.0688V9.51367H8.61103V11.0688H7.07417Z" fill="black"/>
<path d="M8.28209 11.0688V9.51367H9.81895V11.0688H8.28209Z" fill="black"/>
<path d="M9.56703 11.0688V9.51367H11.1039V11.0688H9.56703Z" fill="black"/>
<path d="M10.929 11.0688V9.51367H12.3118V11.0688H10.929Z" fill="black"/>
<path d="M12.0599 11.0688V9.51367H12.6746V11.0688H12.0599Z" fill="black"/>
<path d="M12.499 11.0688V9.51367H13.5745V11.0688H12.499Z" fill="black"/>
<path d="M13.4003 11.0688V9.51367H14.6291V11.0688H13.4003Z" fill="black"/>
<path d="M14.4542 11.0688V9.51367H15.0689V11.0688H14.4542Z" fill="black"/>
<path d="M14.8933 11.0688V9.51367H16.4302V11.0688H14.8933Z" fill="black"/>
<path d="M16.2553 11.0688V9.51367H17.6381V11.0688H16.2553Z" fill="black"/>
<path d="M17.4632 11.0688V9.51367H19.0001V11.0688H17.4632Z" fill="black"/>
<path d="M18.7481 11.0688V9.51367H19.3629V11.0688H18.7481Z" fill="black"/>
<path d="M19.1873 11.0688V9.51367H20.2628V11.0688H19.1873Z" fill="black"/>
<path d="M19.9345 11.0688V9.51367H21.4714V11.0688H19.9345Z" fill="black"/>
<path d="M21.2965 11.0688V9.51367H22.3719V11.0688H21.2965Z" fill="black"/>
<path d="M22.1977 11.0688V9.51367H23.5805V11.0688H22.1977Z" fill="black"/>
<path d="M23.3678 11.0688V9.51367H23.9825V11.0688H23.3678Z" fill="black"/>
<path d="M23.8069 11.0688V9.51367H25.9585V11.0688H23.8069Z" fill="black"/>
<path d="M25.6296 11.0688V9.51367H27.1665V11.0688H25.6296Z" fill="black"/>
<path d="M26.9145 11.0688V9.51367H28.2974V11.0688H26.9145Z" fill="black"/>
<path d="M27.9887 11.0688V9.51367H28.7568V11.0688H27.9887Z" fill="black"/>
<path d="M28.5049 11.0688V9.51367H29.1196V11.0688H28.5049Z" fill="black"/>
<path d="M28.944 11.0688V9.51367H30.1735V11.0688H28.944Z" fill="black"/>
<path d="M29.9979 11.0688V9.51367H31.0734V11.0688H29.9979Z" fill="black"/>
<path d="M30.7451 11.0688V9.51367H31.3599V11.0688H30.7451Z" fill="black"/>
<path d="M6 14.0688V12.5137H7.07546V14.0688H6Z" fill="black"/>
<path d="M6.90123 14.0688V12.5137H8.28407V14.0688H6.90123Z" fill="black"/>
<path d="M8.07132 14.0688V12.5137H8.68607V14.0688H8.07132Z" fill="black"/>
<path d="M8.6645 14.0688V12.5137H9.89332V14.0688H8.6645Z" fill="black"/>
<path d="M9.71841 14.0688V12.5137H11.1012V14.0688H9.71841Z" fill="black"/>
<path d="M11.0033 14.0688V12.5137H12.5402V14.0688H11.0033Z" fill="black"/>
<path d="M12.2113 14.0688V12.5137H13.5941V14.0688H12.2113Z" fill="black"/>
<path d="M13.2854 14.0688V12.5137H14.0535V14.0688H13.2854Z" fill="black"/>
<path d="M13.8016 14.0688V12.5137H14.4163V14.0688H13.8016Z" fill="black"/>
<path d="M14.2408 14.0688V12.5137H15.4702V14.0688H14.2408Z" fill="black"/>
<path d="M15.2947 14.0688V12.5137H16.3701V14.0688H15.2947Z" fill="black"/>
<path d="M16.0419 14.0688V12.5137H16.6566V14.0688H16.0419Z" fill="black"/>
<path d="M16.481 14.0688V12.5137H17.5565V14.0688H16.481Z" fill="black"/>
<path d="M17.3823 14.0688V12.5137H18.7651V14.0688H17.3823Z" fill="black"/>
<path d="M18.5523 14.0688V12.5137H19.1671V14.0688H18.5523Z" fill="black"/>
<path d="M18.9915 14.0688V12.5137H20.5284V14.0688H18.9915Z" fill="black"/>
<path d="M20.4305 14.0688V12.5137H21.6593V14.0688H20.4305Z" fill="black"/>
<path d="M21.6384 14.0688V12.5137H23.0212V14.0688H21.6384Z" fill="black"/>
<path d="M22.8463 14.0688V12.5137H24.3832V14.0688H22.8463Z" fill="black"/>
<path d="M24.0542 14.0688V12.5137H24.8223V14.0688H24.0542Z" fill="black"/>
<path d="M24.5704 14.0688V12.5137H25.1852V14.0688H24.5704Z" fill="black"/>
<path d="M25.1636 14.0688V12.5137H27.3152V14.0688H25.1636Z" fill="black"/>
<path d="M27.1011 14.0688V12.5137H28.638V14.0688H27.1011Z" fill="black"/>
<path d="M28.309 14.0688V12.5137H28.9238V14.0688H28.309Z" fill="black"/>
<path d="M28.7482 14.0688V12.5137H30.285V14.0688H28.7482Z" fill="black"/>
<path d="M30.0331 14.0688V12.5137H31.416V14.0688H30.0331Z" fill="black"/>
<path d="M31.1073 14.0688V12.5137H32.6442V14.0688H31.1073Z" fill="black"/>
<path d="M32.3152 14.0688V12.5137H32.93V14.0688H32.3152Z" fill="black"/>
<path d="M6.15402 17.0688V15.5137H7.53686V17.0688H6.15402Z" fill="black"/>
<path d="M7.51597 17.0688V15.5137H8.74479V17.0688H7.51597Z" fill="black"/>
<path d="M8.56987 17.0688V15.5137H9.64534V17.0688H8.56987Z" fill="black"/>
<path d="M9.31708 17.0688V15.5137H9.93182V17.0688H9.31708Z" fill="black"/>
<path d="M9.75624 17.0688V15.5137H11.2931V17.0688H9.75624Z" fill="black"/>
<path d="M11.2722 17.0688V15.5137H12.501V17.0688H11.2722Z" fill="black"/>
<path d="M12.3261 17.0688V15.5137H13.4016V17.0688H12.3261Z" fill="black"/>
<path d="M13.3814 17.0688V15.5137H14.7642V17.0688H13.3814Z" fill="black"/>
<path d="M14.5893 17.0688V15.5137H16.1261V17.0688H14.5893Z" fill="black"/>
<path d="M15.9512 17.0688V15.5137H16.566V17.0688H15.9512Z" fill="black"/>
<path d="M16.3904 17.0688V15.5137H17.4659V17.0688H16.3904Z" fill="black"/>
<path d="M17.2916 17.0688V15.5137H18.5204V17.0688H17.2916Z" fill="black"/>
<path d="M18.3455 17.0688V15.5137H18.9603V17.0688H18.3455Z" fill="black"/>
<path d="M18.7847 17.0688V15.5137H19.8601V17.0688H18.7847Z" fill="black"/>
<path d="M19.8399 17.0688V15.5137H21.2228V17.0688H19.8399Z" fill="black"/>
<path d="M20.9708 17.0688V15.5137H22.3537V17.0688H20.9708Z" fill="black"/>
<path d="M22.1788 17.0688V15.5137H23.7156V17.0688H22.1788Z" fill="black"/>
<path d="M23.4637 17.0688V15.5137H25.0006V17.0688H23.4637Z" fill="black"/>
<path d="M24.7486 17.0688V15.5137H26.2855V17.0688H24.7486Z" fill="black"/>
<path d="M25.9566 17.0688V15.5137H26.5713V17.0688H25.9566Z" fill="black"/>
<path d="M26.3957 17.0688V15.5137H28.0866V17.0688H26.3957Z" fill="black"/>
<path d="M27.9306 17.0688V15.5137H29.1594V17.0688H27.9306Z" fill="black"/>
<path d="M28.9845 17.0688V15.5137H30.3674V17.0688H28.9845Z" fill="black"/>
<path d="M30.0587 17.0688V15.5137H31.1341V17.0688H30.0587Z" fill="black"/>
<path d="M30.8059 17.0688V15.5137H32.3427V17.0688H30.8059Z" fill="black"/>
<path d="M32.1678 17.0688V15.5137H32.7826V17.0688H32.1678Z" fill="black"/>
<path d="M6 20.0688V18.5137H7.69088V20.0688H6Z" fill="black"/>
<path d="M7.59298 20.0688V18.5137H8.8218V20.0688H7.59298Z" fill="black"/>
<path d="M8.64689 20.0688V18.5137H10.0297V20.0688H8.64689Z" fill="black"/>
<path d="M9.72105 20.0688V18.5137H11.2579V20.0688H9.72105Z" fill="black"/>
<path d="M10.929 20.0688V18.5137H12.4658V20.0688H10.929Z" fill="black"/>
<path d="M12.2139 20.0688V18.5137H12.982V20.0688H12.2139Z" fill="black"/>
<path d="M12.7301 20.0688V18.5137H13.3448V20.0688H12.7301Z" fill="black"/>
<path d="M13.3233 20.0688V18.5137H15.4749V20.0688H13.3233Z" fill="black"/>
<path d="M15.2608 20.0688V18.5137H16.7976V20.0688H15.2608Z" fill="black"/>
<path d="M16.4687 20.0688V18.5137H17.0834V20.0688H16.4687Z" fill="black"/>
<path d="M16.9079 20.0688V18.5137H18.4447V20.0688H16.9079Z" fill="black"/>
<path d="M18.1928 20.0688V18.5137H19.5756V20.0688H18.1928Z" fill="black"/>
<path d="M19.267 20.0688V18.5137H20.8038V20.0688H19.267Z" fill="black"/>
<path d="M20.4749 20.0688V18.5137H21.0896V20.0688H20.4749Z" fill="black"/>
<path d="M21.0681 20.0688V18.5137H22.4509V20.0688H21.0681Z" fill="black"/>
<path d="M22.43 20.0688V18.5137H23.6588V20.0688H22.43Z" fill="black"/>
<path d="M23.4839 20.0688V18.5137H24.5594V20.0688H23.4839Z" fill="black"/>
<path d="M24.2311 20.0688V18.5137H24.8459V20.0688H24.2311Z" fill="black"/>
<path d="M6 23.0688V21.5137H7.38284V23.0688H6Z" fill="black"/>
<path d="M7.17009 23.0688V21.5137H8.70696V23.0688H7.17009Z" fill="black"/>
<path d="M8.37802 23.0688V21.5137H9.91488V23.0688H8.37802Z" fill="black"/>
<path d="M9.58594 23.0688V21.5137H11.1228V23.0688H9.58594Z" fill="black"/>
<path d="M10.9101 23.0688V21.5137H11.9855V23.0688H10.9101Z" fill="black"/>
<path d="M11.9653 23.0688V21.5137H13.3482V23.0688H11.9653Z" fill="black"/>
<path d="M13.1732 23.0688V21.5137H14.7101V23.0688H13.1732Z" fill="black"/>
<path d="M14.5352 23.0688V21.5137H15.1499V23.0688H14.5352Z" fill="black"/>
<path d="M14.9743 23.0688V21.5137H16.0498V23.0688H14.9743Z" fill="black"/>
<path d="M15.8756 23.0688V21.5137H17.1044V23.0688H15.8756Z" fill="black"/>
<path d="M16.9295 23.0688V21.5137H17.5442V23.0688H16.9295Z" fill="black"/>
<path d="M17.3686 23.0688V21.5137H18.4441V23.0688H17.3686Z" fill="black"/>
<path d="M18.2699 23.0688V21.5137H19.4987V23.0688H18.2699Z" fill="black"/>
<path d="M19.4778 23.0688V21.5137H20.8606V23.0688H19.4778Z" fill="black"/>
<path d="M20.7627 23.0688V21.5137H22.1456V23.0688H20.7627Z" fill="black"/>
<path d="M21.8936 23.0688V21.5137H22.9691V23.0688H21.8936Z" fill="black"/>
<path d="M22.7949 23.0688V21.5137H24.3317V23.0688H22.7949Z" fill="black"/>
<path d="M24.0028 23.0688V21.5137H24.6175V23.0688H24.0028Z" fill="black"/>
<path d="M24.4419 23.0688V21.5137H25.5174V23.0688H24.4419Z" fill="black"/>
<path d="M25.1892 23.0688V21.5137H26.726V23.0688H25.1892Z" fill="black"/>
<path d="M26.5511 23.0688V21.5137H28.088V23.0688H26.5511Z" fill="black"/>
<path d="M27.759 23.0688V21.5137H28.3738V23.0688H27.759Z" fill="black"/>
<path d="M6 26.0688V24.5137H7.69088V26.0688H6Z" fill="black"/>
<path d="M7.53489 26.0688V24.5137H8.7637V26.0688H7.53489Z" fill="black"/>
<path d="M8.58879 26.0688V24.5137H9.97163V26.0688H8.58879Z" fill="black"/>
<path d="M9.66296 26.0688V24.5137H10.7384V26.0688H9.66296Z" fill="black"/>
<path d="M10.4102 26.0688V24.5137H11.947V26.0688H10.4102Z" fill="black"/>
<path d="M11.7721 26.0688V24.5137H12.3869V26.0688H11.7721Z" fill="black"/>
<path d="M12.2113 26.0688V24.5137H13.9022V26.0688H12.2113Z" fill="black"/>
<path d="M13.8043 26.0688V24.5137H15.0331V26.0688H13.8043Z" fill="black"/>
<path d="M14.8582 26.0688V24.5137H16.241V26.0688H14.8582Z" fill="black"/>
<path d="M15.9323 26.0688V24.5137H17.4692V26.0688H15.9323Z" fill="black"/>
<path d="M17.1402 26.0688V24.5137H18.6771V26.0688H17.1402Z" fill="black"/>
<path d="M18.5792 26.0688V24.5137H19.962V26.0688H18.5792Z" fill="black"/>
<path d="M19.7871 26.0688V24.5137H20.4019V26.0688H19.7871Z" fill="black"/>
<path d="M20.2263 26.0688V24.5137H21.6091V26.0688H20.2263Z" fill="black"/>
<path d="M21.3005 26.0688V24.5137H22.8373V26.0688H21.3005Z" fill="black"/>
<path d="M22.5084 26.0688V24.5137H24.0452V26.0688H22.5084Z" fill="black"/>
<path d="M23.8703 26.0688V24.5137H24.9458V26.0688H23.8703Z" fill="black"/>
<path d="M24.7716 26.0688V24.5137H26.7698V26.0688H24.7716Z" fill="black"/>
<path d="M26.6712 26.0688V24.5137H28.2081V26.0688H26.6712Z" fill="black"/>
<path d="M27.8792 26.0688V24.5137H28.6473V26.0688H27.8792Z" fill="black"/>
<path d="M28.3953 26.0688V24.5137H29.0101V26.0688H28.3953Z" fill="black"/>
<path d="M28.9885 26.0688V24.5137H31.1401V26.0688H28.9885Z" fill="black"/>
<path d="M30.926 26.0688V24.5137H32.4629V26.0688H30.926Z" fill="black"/>
<path d="M32.134 26.0688V24.5137H32.7487V26.0688H32.134Z" fill="black"/>
<path d="M6.15402 29.0688V27.5137H7.53686V29.0688H6.15402Z" fill="black"/>
<path d="M7.36195 29.0688V27.5137H8.89881V29.0688H7.36195Z" fill="black"/>
<path d="M8.56987 29.0688V27.5137H10.1067V29.0688H8.56987Z" fill="black"/>
<path d="M9.7778 29.0688V27.5137H11.3147V29.0688H9.7778Z" fill="black"/>
<path d="M11.0627 29.0688V27.5137H11.6775V29.0688H11.0627Z" fill="black"/>
<path d="M11.5019 29.0688V27.5137H12.5774V29.0688H11.5019Z" fill="black"/>
<path d="M12.4031 29.0688V27.5137H13.6319V29.0688H12.4031Z" fill="black"/>
<path d="M13.457 29.0688V27.5137H14.0718V29.0688H13.457Z" fill="black"/>
<path d="M13.8962 29.0688V27.5137H15.433V29.0688H13.8962Z" fill="black"/>
<path d="M15.1811 29.0688V27.5137H16.718V29.0688H15.1811Z" fill="black"/>
<path d="M16.389 29.0688V27.5137H17.7719V29.0688H16.389Z" fill="black"/>
<path d="M17.597 29.0688V27.5137H19.1338V29.0688H17.597Z" fill="black"/>
<path d="M19.0359 29.0688V27.5137H20.4188V29.0688H19.0359Z" fill="black"/>
<path d="M20.2439 29.0688V27.5137H21.6267V29.0688H20.2439Z" fill="black"/>
<path d="M21.3748 29.0688V27.5137H22.9116V29.0688H21.3748Z" fill="black"/>
<path d="M22.5827 29.0688V27.5137H23.1974V29.0688H22.5827Z" fill="black"/>
<path d="M23.1759 29.0688V27.5137H24.4047V29.0688H23.1759Z" fill="black"/>
<path d="M24.2298 29.0688V27.5137H25.7666V29.0688H24.2298Z" fill="black"/>
<path d="M25.5917 29.0688V27.5137H26.9746V29.0688H25.5917Z" fill="black"/>
<path d="M26.6659 29.0688V27.5137H27.2806V29.0688H26.6659Z" fill="black"/>
<path d="M6 32.0688V30.5137H7.53686V32.0688H6Z" fill="black"/>
<path d="M7.28494 32.0688V30.5137H8.3604V32.0688H7.28494Z" fill="black"/>
<path d="M8.34019 32.0688V30.5137H9.72303V32.0688H8.34019Z" fill="black"/>
<path d="M9.4711 32.0688V30.5137H10.5466V32.0688H9.4711Z" fill="black"/>
<path d="M10.5264 32.0688V30.5137H11.7552V32.0688H10.5264Z" fill="black"/>
<path d="M11.5803 32.0688V30.5137H13.5785V32.0688H11.5803Z" fill="black"/>
<path d="M13.4799 32.0688V30.5137H15.0168V32.0688H13.4799Z" fill="black"/>
<path d="M14.7649 32.0688V30.5137H16.1477V32.0688H14.7649Z" fill="black"/>
<path d="M16.0498 32.0688V30.5137H17.4326V32.0688H16.0498Z" fill="black"/>
<path d="M17.1807 32.0688V30.5137H17.7955V32.0688H17.1807Z" fill="black"/>
<path d="M17.6199 32.0688V30.5137H19.1567V32.0688H17.6199Z" fill="black"/>
<path d="M18.9048 32.0688V30.5137H19.9803V32.0688H18.9048Z" fill="black"/>
<path d="M19.9601 32.0688V30.5137H21.1889V32.0688H19.9601Z" fill="black"/>
<path d="M21.168 32.0688V30.5137H22.5508V32.0688H21.168Z" fill="black"/>
<path d="M22.3759 32.0688V30.5137H23.9128V32.0688H22.3759Z" fill="black"/>
<path d="M23.7379 32.0688V30.5137H25.1207V32.0688H23.7379Z" fill="black"/>
<path d="M24.908 32.0688V30.5137H25.9834V32.0688H24.908Z" fill="black"/>
<path d="M25.8092 32.0688V30.5137H27.3461V32.0688H25.8092Z" fill="black"/>
<path d="M27.0941 32.0688V30.5137H28.631V32.0688H27.0941Z" fill="black"/>
<path d="M28.3021 32.0688V30.5137H28.9168V32.0688H28.3021Z" fill="black"/>
<path d="M28.8952 32.0688V30.5137H30.1241V32.0688H28.8952Z" fill="black"/>
<path d="M29.9491 32.0688V30.5137H31.486V32.0688H29.9491Z" fill="black"/>
<path d="M31.3111 32.0688V30.5137H32.6939V32.0688H31.3111Z" fill="black"/>
<path d="M32.3853 32.0688V30.5137H33V32.0688H32.3853Z" fill="black"/>
<path d="M6.15402 35.0688V33.5137H7.53686V35.0688H6.15402Z" fill="black"/>
<path d="M7.28494 35.0688V33.5137H8.3604V35.0688H7.28494Z" fill="black"/>
<path d="M8.18617 35.0688V33.5137H9.72303V35.0688H8.18617Z" fill="black"/>
<path d="M9.62513 35.0688V33.5137H11.008V35.0688H9.62513Z" fill="black"/>
<path d="M10.8331 35.0688V33.5137H12.2159V35.0688H10.8331Z" fill="black"/>
<path d="M12.0031 35.0688V33.5137H12.6179V35.0688H12.0031Z" fill="black"/>
<path d="M12.4423 35.0688V33.5137H13.6718V35.0688H12.4423Z" fill="black"/>
<path d="M13.4976 35.0688V33.5137H14.7264V35.0688H13.4976Z" fill="black"/>
<path d="M14.5515 35.0688V33.5137H15.9343V35.0688H14.5515Z" fill="black"/>
<path d="M15.6256 35.0688V33.5137H16.2404V35.0688H15.6256Z" fill="black"/>
<path d="M6 38.0688V36.5137H7.53686V38.0688H6Z" fill="black"/>
<path d="M7.28494 38.0688V36.5137H8.8218V38.0688H7.28494Z" fill="black"/>
<path d="M8.64689 38.0688V36.5137H10.0297V38.0688H8.64689Z" fill="black"/>
<path d="M9.85481 38.0688V36.5137H11.3917V38.0688H9.85481Z" fill="black"/>
<path d="M11.2168 38.0688V36.5137H12.5996V38.0688H11.2168Z" fill="black"/>
<path d="M12.3477 38.0688V36.5137H13.4231V38.0688H12.3477Z" fill="black"/>
<path d="M13.2489 38.0688V36.5137H14.7858V38.0688H13.2489Z" fill="black"/>
<path d="M14.4568 38.0688V36.5137H15.9937V38.0688H14.4568Z" fill="black"/>
<path d="M15.7418 38.0688V36.5137H17.1246V38.0688H15.7418Z" fill="black"/>
<path d="M16.8159 38.0688V36.5137H17.8914V38.0688H16.8159Z" fill="black"/>
<path d="M17.8712 38.0688V36.5137H19.1V38.0688H17.8712Z" fill="black"/>
<path d="M18.8292 38.0688V36.5137H20.366V38.0688H18.8292Z" fill="black"/>
<path d="M20.1141 38.0688V36.5137H21.1896V38.0688H20.1141Z" fill="black"/>
<path d="M20.8613 38.0688V36.5137H21.9368V38.0688H20.8613Z" fill="black"/>
<path d="M21.9166 38.0688V36.5137H23.1454V38.0688H21.9166Z" fill="black"/>
<path d="M23.1245 38.0688V36.5137H24.5073V38.0688H23.1245Z" fill="black"/>
<path d="M24.3324 38.0688V36.5137H24.9471V38.0688H24.3324Z" fill="black"/>
<path d="M24.7716 38.0688V36.5137H25.847V38.0688H24.7716Z" fill="black"/>
<path d="M25.8268 38.0688V36.5137H27.2096V38.0688H25.8268Z" fill="black"/>
<path d="M27.0347 38.0688V36.5137H27.6495V38.0688H27.0347Z" fill="black"/>
<path d="M27.4739 38.0688V36.5137H29.0108V38.0688H27.4739Z" fill="black"/>
<path d="M28.7588 38.0688V36.5137H29.3736V38.0688H28.7588Z" fill="black"/>
<path d="M6 41.0688V39.5137H7.99826V41.0688H6Z" fill="black"/>
<path d="M7.89968 41.0688V39.5137H9.43654V41.0688H7.89968Z" fill="black"/>
<path d="M9.33864 41.0688V39.5137H10.7215V41.0688H9.33864Z" fill="black"/>
<path d="M10.7006 41.0688V39.5137H12.0834V41.0688H10.7006Z" fill="black"/>
<path d="M11.9085 41.0688V39.5137H13.4454V41.0688H11.9085Z" fill="black"/>
<path d="M13.1164 41.0688V39.5137H14.4993V41.0688H13.1164Z" fill="black"/>
<path d="M14.1906 41.0688V39.5137H14.8054V41.0688H14.1906Z" fill="black"/>
<path d="M14.6298 41.0688V39.5137H15.7052V41.0688H14.6298Z" fill="black"/>
<path d="M15.377 41.0688V39.5137H16.9138V41.0688H15.377Z" fill="black"/>
<path d="M16.7389 41.0688V39.5137H18.2758V41.0688H16.7389Z" fill="black"/>
<path d="M18.0239 41.0688V39.5137H19.0993V41.0688H18.0239Z" fill="black"/>
<path d="M18.7711 41.0688V39.5137H19.3858V41.0688H18.7711Z" fill="black"/>
<path d="M19.2102 41.0688V39.5137H20.5931V41.0688H19.2102Z" fill="black"/>
<path d="M20.3803 41.0688V39.5137H21.9172V41.0688H20.3803Z" fill="black"/>
<path d="M21.7423 41.0688V39.5137H23.1251V41.0688H21.7423Z" fill="black"/>
<path d="M22.9502 41.0688V39.5137H24.487V41.0688H22.9502Z" fill="black"/>
<path d="M24.2351 41.0688V39.5137H25.618V41.0688H24.2351Z" fill="black"/>
<path d="M25.4052 41.0688V39.5137H26.02V41.0688H25.4052Z" fill="black"/>
<path d="M25.8444 41.0688V39.5137H26.9198V41.0688H25.8444Z" fill="black"/>
<path d="M26.5916 41.0688V39.5137H28.1284V41.0688H26.5916Z" fill="black"/>
<path d="M27.9535 41.0688V39.5137H29.4904V41.0688H27.9535Z" fill="black"/>
<path d="M29.2385 41.0688V39.5137H30.3139V41.0688H29.2385Z" fill="black"/>
<path d="M29.9857 41.0688V39.5137H30.6004V41.0688H29.9857Z" fill="black"/>
<path d="M6 44.0688V42.5137H7.99826V44.0688H6Z" fill="black"/>
<path d="M7.89968 44.0688V42.5137H9.43654V44.0688H7.89968Z" fill="black"/>
<path d="M9.10761 44.0688V42.5137H10.4904V44.0688H9.10761Z" fill="black"/>
<path d="M10.2777 44.0688V42.5137H11.6605V44.0688H10.2777Z" fill="black"/>
<path d="M11.4478 44.0688V42.5137H12.9847V44.0688H11.4478Z" fill="black"/>
<path d="M12.7327 44.0688V42.5137H14.2696V44.0688H12.7327Z" fill="black"/>
<path d="M14.0947 44.0688V42.5137H15.6315V44.0688H14.0947Z" fill="black"/>
<path d="M15.3026 44.0688V42.5137H15.9174V44.0688H15.3026Z" fill="black"/>
<path d="M15.7418 44.0688V42.5137H17.1246V44.0688H15.7418Z" fill="black"/>
<path d="M16.8727 44.0688V42.5137H17.9481V44.0688H16.8727Z" fill="black"/>
<path d="M17.7739 44.0688V42.5137H19.3108V44.0688H17.7739Z" fill="black"/>
<path d="M18.9818 44.0688V42.5137H20.5187V44.0688H18.9818Z" fill="black"/>
<path d="M20.2668 44.0688V42.5137H21.6496V44.0688H20.2668Z" fill="black"/>
<path d="M21.3409 44.0688V42.5137H22.4164V44.0688H21.3409Z" fill="black"/>
<path d="M22.3192 44.0688V42.5137H23.702V44.0688H22.3192Z" fill="black"/>
<path d="M23.4501 44.0688V42.5137H24.0648V44.0688H23.4501Z" fill="black"/>
<path d="M23.8892 44.0688V42.5137H24.9647V44.0688H23.8892Z" fill="black"/>
<path d="M24.7905 44.0688V42.5137H26.0193V44.0688H24.7905Z" fill="black"/>
<path d="M25.8444 44.0688V42.5137H26.4591V44.0688H25.8444Z" fill="black"/>
<path d="M26.2835 44.0688V42.5137H27.9744V44.0688H26.2835Z" fill="black"/>
<path d="M27.8184 44.0688V42.5137H29.0472V44.0688H27.8184Z" fill="black"/>
<path d="M28.8723 44.0688V42.5137H30.2552V44.0688H28.8723Z" fill="black"/>
<path d="M29.9465 44.0688V42.5137H31.022V44.0688H29.9465Z" fill="black"/>
<path d="M30.6937 44.0688V42.5137H32.2306V44.0688H30.6937Z" fill="black"/>
<path d="M32.0556 44.0688V42.5137H32.6704V44.0688H32.0556Z" fill="black"/>
<path d="M6 47.0688V45.5137H7.69088V47.0688H6Z" fill="black"/>
<path d="M7.59298 47.0688V45.5137H8.8218V47.0688H7.59298Z" fill="black"/>
<path d="M8.64689 47.0688V45.5137H10.0297V47.0688H8.64689Z" fill="black"/>
<path d="M9.72105 47.0688V45.5137H11.2579V47.0688H9.72105Z" fill="black"/>
<path d="M10.929 47.0688V45.5137H12.4658V47.0688H10.929Z" fill="black"/>
<path d="M12.2139 47.0688V45.5137H12.8287V47.0688H12.2139Z" fill="black"/>
<path d="M12.6531 47.0688V45.5137H14.1899V47.0688H12.6531Z" fill="black"/>
<path d="M13.938 47.0688V45.5137H15.3208V47.0688H13.938Z" fill="black"/>
<path d="M15.1081 47.0688V45.5137H15.7228V47.0688H15.1081Z" fill="black"/>
<path d="M15.5473 47.0688V45.5137H17.6989V47.0688H15.5473Z" fill="black"/>
<path d="M17.4469 47.0688V45.5137H18.9838V47.0688H17.4469Z" fill="black"/>
<path d="M18.6549 47.0688V45.5137H19.7303V47.0688H18.6549Z" fill="black"/>
<path d="M19.5561 47.0688V45.5137H20.6316V47.0688H19.5561Z" fill="black"/>
<path d="M20.4573 47.0688V45.5137H21.2254V47.0688H20.4573Z" fill="black"/>
<path d="M20.9735 47.0688V45.5137H21.5882V47.0688H20.9735Z" fill="black"/>
<path d="M21.5667 47.0688V45.5137H23.7183V47.0688H21.5667Z" fill="black"/>
<path d="M23.5042 47.0688V45.5137H25.041V47.0688H23.5042Z" fill="black"/>
<path d="M24.7121 47.0688V45.5137H25.3269V47.0688H24.7121Z" fill="black"/>
<path d="M25.1513 47.0688V45.5137H26.6881V47.0688H25.1513Z" fill="black"/>
<path d="M26.4362 47.0688V45.5137H27.819V47.0688H26.4362Z" fill="black"/>
<path d="M27.5104 47.0688V45.5137H29.0472V47.0688H27.5104Z" fill="black"/>
<path d="M28.7183 47.0688V45.5137H29.333V47.0688H28.7183Z" fill="black"/>
<path d="M6 50.0688V48.5137H7.38284V50.0688H6Z" fill="black"/>
<path d="M7.07417 50.0688V48.5137H8.61103V50.0688H7.07417Z" fill="black"/>
<path d="M8.28209 50.0688V48.5137H9.81895V50.0688H8.28209Z" fill="black"/>
<path d="M9.56703 50.0688V48.5137H11.1039V50.0688H9.56703Z" fill="black"/>
<path d="M10.929 50.0688V48.5137H12.3118V50.0688H10.929Z" fill="black"/>
<path d="M12.0599 50.0688V48.5137H12.6746V50.0688H12.0599Z" fill="black"/>
<path d="M12.499 50.0688V48.5137H13.7285V50.0688H12.499Z" fill="black"/>
<path d="M13.5543 50.0688V48.5137H14.7831V50.0688H13.5543Z" fill="black"/>
<path d="M14.6082 50.0688V48.5137H15.991V50.0688H14.6082Z" fill="black"/>
<path d="M15.6824 50.0688V48.5137H16.2971V50.0688H15.6824Z" fill="black"/>
<path d="M16.1215 50.0688V48.5137H17.6584V50.0688H16.1215Z" fill="black"/>
<path d="M17.4065 50.0688V48.5137H18.0212V50.0688H17.4065Z" fill="black"/>
<path d="M17.8456 50.0688V48.5137H19.3825V50.0688H17.8456Z" fill="black"/>
<path d="M19.1306 50.0688V48.5137H20.206V50.0688H19.1306Z" fill="black"/>
<path d="M20.0318 50.0688V48.5137H21.2613V50.0688H20.0318Z" fill="black"/>
<path d="M20.933 50.0688V48.5137H22.1625V50.0688H20.933Z" fill="black"/>
<path d="M21.8342 50.0688V48.5137H23.3711V50.0688H21.8342Z" fill="black"/>
<path d="M23.0422 50.0688V48.5137H24.425V50.0688H23.0422Z" fill="black"/>
<path d="M24.1163 50.0688V48.5137H25.6532V50.0688H24.1163Z" fill="black"/>
<path d="M25.4783 50.0688V48.5137H26.8611V50.0688H25.4783Z" fill="black"/>
<path d="M26.6862 50.0688V48.5137H27.7617V50.0688H26.6862Z" fill="black"/>
<path d="M27.4334 50.0688V48.5137H28.0482V50.0688H27.4334Z" fill="black"/>
<path d="M6 53.0688V51.5137H7.22949V53.0688H6Z" fill="black"/>
<path d="M6.90123 53.0688V51.5137H8.43809V53.0688H6.90123Z" fill="black"/>
<path d="M8.26318 53.0688V51.5137H9.33864V53.0688H8.26318Z" fill="black"/>
<path d="M9.01038 53.0688V51.5137H10.5472V53.0688H9.01038Z" fill="black"/>
<path d="M10.3723 53.0688V51.5137H11.7552V53.0688H10.3723Z" fill="black"/>
<path d="M11.4465 53.0688V51.5137H12.9834V53.0688H11.4465Z" fill="black"/>
<path d="M12.6544 53.0688V51.5137H13.4225V53.0688H12.6544Z" fill="black"/>
<path d="M13.1706 53.0688V51.5137H13.7853V53.0688H13.1706Z" fill="black"/>
<path d="M13.6098 53.0688V51.5137H14.8392V53.0688H13.6098Z" fill="black"/>
<path d="M14.6637 53.0688V51.5137H15.7391V53.0688H14.6637Z" fill="black"/>
<path d="M15.4109 53.0688V51.5137H16.1789V53.0688H15.4109Z" fill="black"/>
<path d="M16.004 53.0688V51.5137H17.3869V53.0688H16.004Z" fill="black"/>
<path d="M17.1741 53.0688V51.5137H17.7889V53.0688H17.1741Z" fill="black"/>
<path d="M17.7673 53.0688V51.5137H19.1501V53.0688H17.7673Z" fill="black"/>
<path d="M18.8212 53.0688V51.5137H19.8967V53.0688H18.8212Z" fill="black"/>
<path d="M19.7224 53.0688V51.5137H21.2593V53.0688H19.7224Z" fill="black"/>
<path d="M21.0844 53.0688V51.5137H22.6213V53.0688H21.0844Z" fill="black"/>
<path d="M22.4463 53.0688V51.5137H23.9832V53.0688H22.4463Z" fill="black"/>
<path d="M23.6543 53.0688V51.5137H25.0371V53.0688H23.6543Z" fill="black"/>
<path d="M24.7284 53.0688V51.5137H25.3432V53.0688H24.7284Z" fill="black"/>
<path d="M25.1676 53.0688V51.5137H26.2431V53.0688H25.1676Z" fill="black"/>
<path d="M25.9148 53.0688V51.5137H27.4517V53.0688H25.9148Z" fill="black"/>
<path d="M27.2767 53.0688V51.5137H28.8136V53.0688H27.2767Z" fill="black"/>
<path d="M28.7157 53.0688V51.5137H30.0985V53.0688H28.7157Z" fill="black"/>
<path d="M29.9236 53.0688V51.5137H30.5384V53.0688H29.9236Z" fill="black"/>
<path d="M6 56.0688V54.5137H7.53686V56.0688H6Z" fill="black"/>
<path d="M7.28494 56.0688V54.5137H8.8218V56.0688H7.28494Z" fill="black"/>
<path d="M8.64689 56.0688V54.5137H10.0297V56.0688H8.64689Z" fill="black"/>
<path d="M9.85481 56.0688V54.5137H11.3917V56.0688H9.85481Z" fill="black"/>
<path d="M11.2168 56.0688V54.5137H12.5996V56.0688H11.2168Z" fill="black"/>
<path d="M12.3477 56.0688V54.5137H13.4231V56.0688H12.3477Z" fill="black"/>
<path d="M13.2489 56.0688V54.5137H14.7858V56.0688H13.2489Z" fill="black"/>
<path d="M14.4568 56.0688V54.5137H15.9937V56.0688H14.4568Z" fill="black"/>
<path d="M15.7418 56.0688V54.5137H17.1246V56.0688H15.7418Z" fill="black"/>
<path d="M16.8159 56.0688V54.5137H17.8914V56.0688H16.8159Z" fill="black"/>
<path d="M17.8712 56.0688V54.5137H19.1V56.0688H17.8712Z" fill="black"/>
<path d="M18.8292 56.0688V54.5137H20.366V56.0688H18.8292Z" fill="black"/>
<path d="M20.1141 56.0688V54.5137H21.1896V56.0688H20.1141Z" fill="black"/>
<path d="M20.8613 56.0688V54.5137H21.9368V56.0688H20.8613Z" fill="black"/>
<path d="M21.9166 56.0688V54.5137H23.1454V56.0688H21.9166Z" fill="black"/>
<path d="M23.1245 56.0688V54.5137H24.5073V56.0688H23.1245Z" fill="black"/>
<path d="M24.3324 56.0688V54.5137H25.1005V56.0688H24.3324Z" fill="black"/>
<path d="M24.8486 56.0688V54.5137H25.4633V56.0688H24.8486Z" fill="black"/>
<path d="M25.2877 56.0688V54.5137H27.4393V56.0688H25.2877Z" fill="black"/>
<path d="M27.1874 56.0688V54.5137H28.7243V56.0688H27.1874Z" fill="black"/>
<path d="M28.5494 56.0688V54.5137H29.6248V56.0688H28.5494Z" fill="black"/>
<path d="M29.4506 56.0688V54.5137H30.5261V56.0688H29.4506Z" fill="black"/>
<path d="M30.3518 56.0688V54.5137H31.8887V56.0688H30.3518Z" fill="black"/>
<path d="M31.5597 56.0688V54.5137H32.1745V56.0688H31.5597Z" fill="black"/>
<path d="M6 59.0688V57.5137H7.07546V59.0688H6Z" fill="black"/>
<path d="M6.90123 59.0688V57.5137H7.97669V59.0688H6.90123Z" fill="black"/>
<path d="M7.64843 59.0688V57.5137H8.26318V59.0688H7.64843Z" fill="black"/>
<path d="M8.08759 59.0688V57.5137H9.47043V59.0688H8.08759Z" fill="black"/>
<path d="M9.25768 59.0688V57.5137H10.3331V59.0688H9.25768Z" fill="black"/>
<path d="M10.0049 59.0688V57.5137H11.5418V59.0688H10.0049Z" fill="black"/>
<path d="M11.4439 59.0688V57.5137H12.8267V59.0688H11.4439Z" fill="black"/>
<path d="M12.6518 59.0688V57.5137H14.1886V59.0688H12.6518Z" fill="black"/>
<path d="M13.9367 59.0688V57.5137H15.3195V59.0688H13.9367Z" fill="black"/>
<path d="M15.1068 59.0688V57.5137H15.7216V59.0688H15.1068Z" fill="black"/>
<path d="M15.7 59.0688V57.5137H16.9288V59.0688H15.7Z" fill="black"/>
<path d="M16.9079 59.0688V57.5137H18.2908V59.0688H16.9079Z" fill="black"/>
<path d="M18.1158 59.0688V57.5137H18.7306V59.0688H18.1158Z" fill="black"/>
<path d="M18.555 59.0688V57.5137H19.6305V59.0688H18.555Z" fill="black"/>
<path d="M19.3022 59.0688V57.5137H20.8391V59.0688H19.3022Z" fill="black"/>
<path d="M20.6641 59.0688V57.5137H22.201V59.0688H20.6641Z" fill="black"/>
<path d="M21.8721 59.0688V57.5137H22.4868V59.0688H21.8721Z" fill="black"/>
<path d="M6 62.0688V60.5137H7.22949V62.0688H6Z" fill="black"/>
<path d="M7.05525 62.0688V60.5137H8.28407V62.0688H7.05525Z" fill="black"/>
<path d="M8.10915 62.0688V60.5137H9.64601V62.0688H8.10915Z" fill="black"/>
<path d="M9.62513 62.0688V60.5137H11.008V62.0688H9.62513Z" fill="black"/>
<path d="M10.8331 62.0688V60.5137H12.3699V62.0688H10.8331Z" fill="black"/>
<path d="M12.118 62.0688V60.5137H13.6548V62.0688H12.118Z" fill="black"/>
<path d="M13.4029 62.0688V60.5137H14.4784V62.0688H13.4029Z" fill="black"/>
<path d="M14.1501 62.0688V60.5137H15.2256V62.0688H14.1501Z" fill="black"/>
<path d="M15.2054 62.0688V60.5137H16.4342V62.0688H15.2054Z" fill="black"/>
<path d="M16.4133 62.0688V60.5137H17.7961V62.0688H16.4133Z" fill="black"/>
<path d="M17.6212 62.0688V60.5137H18.236V62.0688H17.6212Z" fill="black"/>
<path d="M18.2144 62.0688V60.5137H19.4432V62.0688H18.2144Z" fill="black"/>
<path d="M19.2683 62.0688V60.5137H20.4978V62.0688H19.2683Z" fill="black"/>
<path d="M20.1695 62.0688V60.5137H20.7843V62.0688H20.1695Z" fill="black"/>
<path d="M6 65.0688V63.5137H7.53686V65.0688H6Z" fill="black"/>
<path d="M7.28494 65.0688V63.5137H8.8218V65.0688H7.28494Z" fill="black"/>
<path d="M8.64689 65.0688V63.5137H10.0297V65.0688H8.64689Z" fill="black"/>
<path d="M9.85481 65.0688V63.5137H11.3917V65.0688H9.85481Z" fill="black"/>
<path d="M11.2168 65.0688V63.5137H12.5996V65.0688H11.2168Z" fill="black"/>
<path d="M12.3477 65.0688V63.5137H13.4231V65.0688H12.3477Z" fill="black"/>
<path d="M13.2489 65.0688V63.5137H14.7858V65.0688H13.2489Z" fill="black"/>
<path d="M14.4568 65.0688V63.5137H15.9937V65.0688H14.4568Z" fill="black"/>
<path d="M15.7418 65.0688V63.5137H17.1246V65.0688H15.7418Z" fill="black"/>
<path d="M16.8159 65.0688V63.5137H17.8914V65.0688H16.8159Z" fill="black"/>
<path d="M17.8712 65.0688V63.5137H19.1V65.0688H17.8712Z" fill="black"/>
<path d="M18.8292 65.0688V63.5137H20.366V65.0688H18.8292Z" fill="black"/>
<path d="M20.1141 65.0688V63.5137H21.1896V65.0688H20.1141Z" fill="black"/>
<path d="M20.8613 65.0688V63.5137H21.9368V65.0688H20.8613Z" fill="black"/>
<path d="M21.9166 65.0688V63.5137H23.1454V65.0688H21.9166Z" fill="black"/>
<path d="M23.1245 65.0688V63.5137H24.5073V65.0688H23.1245Z" fill="black"/>
<path d="M24.3324 65.0688V63.5137H25.1005V65.0688H24.3324Z" fill="black"/>
<path d="M24.8486 65.0688V63.5137H25.4633V65.0688H24.8486Z" fill="black"/>
<path d="M25.4418 65.0688V63.5137H26.8246V65.0688H25.4418Z" fill="black"/>
<path d="M26.4957 65.0688V63.5137H28.0325V65.0688H26.4957Z" fill="black"/>
<path d="M27.8576 65.0688V63.5137H28.9331V65.0688H27.8576Z" fill="black"/>
<path d="M28.6048 65.0688V63.5137H29.2196V65.0688H28.6048Z" fill="black"/>
<path d="M6 68.0688V66.5137H7.07546V68.0688H6Z" fill="black"/>
<path d="M6.7472 68.0688V66.5137H8.28407V68.0688H6.7472Z" fill="black"/>
<path d="M8.10915 68.0688V66.5137H9.64601V68.0688H8.10915Z" fill="black"/>
<path d="M9.39409 68.0688V66.5137H10.4696V68.0688H9.39409Z" fill="black"/>
<path d="M10.1413 68.0688V66.5137H10.9094V68.0688H10.1413Z" fill="black"/>
<path d="M10.7345 68.0688V66.5137H12.1173V68.0688H10.7345Z" fill="black"/>
<path d="M11.9046 68.0688V66.5137H12.5193V68.0688H11.9046Z" fill="black"/>
<path d="M12.3437 68.0688V66.5137H13.4192V68.0688H12.3437Z" fill="black"/>
<path d="M13.0909 68.0688V66.5137H14.6278V68.0688H13.0909Z" fill="black"/>
<path d="M14.4529 68.0688V66.5137H15.9897V68.0688H14.4529Z" fill="black"/>
<path d="M15.6608 68.0688V66.5137H16.2756V68.0688H15.6608Z" fill="black"/>
<path d="M16.254 68.0688V66.5137H17.4828V68.0688H16.254Z" fill="black"/>
<path d="M17.4619 68.0688V66.5137H18.8447V68.0688H17.4619Z" fill="black"/>
<path d="M18.7468 68.0688V66.5137H20.1297V68.0688H18.7468Z" fill="black"/>
<path d="M20.0318 68.0688V66.5137H21.2606V68.0688H20.0318Z" fill="black"/>
<path d="M21.0857 68.0688V66.5137H22.4685V68.0688H21.0857Z" fill="black"/>
<path d="M22.1599 68.0688V66.5137H23.2353V68.0688H22.1599Z" fill="black"/>
<path d="M22.9071 68.0688V66.5137H24.4439V68.0688H22.9071Z" fill="black"/>
<path d="M24.423 68.0688V66.5137H25.8059V68.0688H24.423Z" fill="black"/>
<path d="M25.631 68.0688V66.5137H26.7064V68.0688H25.631Z" fill="black"/>
<path d="M26.5322 68.0688V66.5137H27.6077V68.0688H26.5322Z" fill="black"/>
<path d="M27.4334 68.0688V66.5137H28.8163V68.0688H27.4334Z" fill="black"/>
<path d="M28.5643 68.0688V66.5137H29.1791V68.0688H28.5643Z" fill="black"/>
<path d="M29.0035 68.0688V66.5137H31.1551V68.0688H29.0035Z" fill="black"/>
<path d="M30.9032 68.0688V66.5137H32.44V68.0688H30.9032Z" fill="black"/>
<path d="M32.1111 68.0688V66.5137H32.7258V68.0688H32.1111Z" fill="black"/>
<path d="M6 71.0688V69.5137H7.53686V71.0688H6Z" fill="black"/>
<path d="M7.36195 71.0688V69.5137H8.89881V71.0688H7.36195Z" fill="black"/>
<path d="M8.56987 71.0688V69.5137H9.95271V71.0688H8.56987Z" fill="black"/>
<path d="M9.85481 71.0688V69.5137H11.3917V71.0688H9.85481Z" fill="black"/>
<path d="M11.0627 71.0688V69.5137H11.6775V71.0688H11.0627Z" fill="black"/>
<path d="M11.5019 71.0688V69.5137H13.0388V71.0688H11.5019Z" fill="black"/>
<path d="M12.9409 71.0688V69.5137H14.3237V71.0688H12.9409Z" fill="black"/>
<path d="M14.1488 71.0688V69.5137H15.6856V71.0688H14.1488Z" fill="black"/>
<path d="M15.4337 71.0688V69.5137H16.0485V71.0688H15.4337Z" fill="black"/>
<path d="M15.8729 71.0688V69.5137H16.9483V71.0688H15.8729Z" fill="black"/>
<path d="M16.6201 71.0688V69.5137H18.1569V71.0688H16.6201Z" fill="black"/>
<path d="M18.1361 71.0688V69.5137H19.3649V71.0688H18.1361Z" fill="black"/>
<path d="M19.19 71.0688V69.5137H20.5728V71.0688H19.19Z" fill="black"/>
<path d="M20.36 71.0688V69.5137H21.8969V71.0688H20.36Z" fill="black"/>
<path d="M21.568 71.0688V69.5137H22.1827V71.0688H21.568Z" fill="black"/>
<path d="M22.0071 71.0688V69.5137H23.544V71.0688H22.0071Z" fill="black"/>
<path d="M23.2921 71.0688V69.5137H24.6749V71.0688H23.2921Z" fill="black"/>
<path d="M24.3662 71.0688V69.5137H25.9031V71.0688H24.3662Z" fill="black"/>
<path d="M25.5742 71.0688V69.5137H26.1889V71.0688H25.5742Z" fill="black"/>
<path d="M26.0133 71.0688V69.5137H27.0888V71.0688H26.0133Z" fill="black"/>
<path d="M26.7605 71.0688V69.5137H28.2974V71.0688H26.7605Z" fill="black"/>
<path d="M28.1225 71.0688V69.5137H29.6593V71.0688H28.1225Z" fill="black"/>
<path d="M29.3304 71.0688V69.5137H29.9451V71.0688H29.3304Z" fill="black"/>
<path d="M6 74.0688V72.5137H7.53686V74.0688H6Z" fill="black"/>
<path d="M7.28494 74.0688V72.5137H8.3604V74.0688H7.28494Z" fill="black"/>
<path d="M8.18617 74.0688V72.5137H9.569V74.0688H8.18617Z" fill="black"/>
<path d="M9.35626 74.0688V72.5137H10.7391V74.0688H9.35626Z" fill="black"/>
<path d="M10.4872 74.0688V72.5137H12.024V74.0688H10.4872Z" fill="black"/>
<path d="M11.8491 74.0688V72.5137H13.232V74.0688H11.8491Z" fill="black"/>
<path d="M13.0192 74.0688V72.5137H14.4021V74.0688H13.0192Z" fill="black"/>
<path d="M14.1893 74.0688V72.5137H15.2648V74.0688H14.1893Z" fill="black"/>
<path d="M15.2446 74.0688V72.5137H16.4734V74.0688H15.2446Z" fill="black"/>
<path d="M16.4525 74.0688V72.5137H17.8353V74.0688H16.4525Z" fill="black"/>
<path d="M17.6604 74.0688V72.5137H19.0433V74.0688H17.6604Z" fill="black"/>
<path d="M18.8305 74.0688V72.5137H19.4453V74.0688H18.8305Z" fill="black"/>
<path d="M19.2697 74.0688V72.5137H21.4213V74.0688H19.2697Z" fill="black"/>
<path d="M21.1693 74.0688V72.5137H22.7062V74.0688H21.1693Z" fill="black"/>
<path d="M22.3773 74.0688V72.5137H22.992V74.0688H22.3773Z" fill="black"/>
<path d="M22.8164 74.0688V72.5137H24.968V74.0688H22.8164Z" fill="black"/>
<path d="M24.7161 74.0688V72.5137H25.7916V74.0688H24.7161Z" fill="black"/>
<path d="M25.6173 74.0688V72.5137H26.6928V74.0688H25.6173Z" fill="black"/>
<path d="M26.5186 74.0688V72.5137H27.594V74.0688H26.5186Z" fill="black"/>
<path d="M27.4198 74.0688V72.5137H28.0345V74.0688H27.4198Z" fill="black"/>
<path d="M28.013 74.0688V72.5137H29.3958V74.0688H28.013Z" fill="black"/>
<path d="M29.0669 74.0688V72.5137H30.6037V74.0688H29.0669Z" fill="black"/>
<path d="M30.2748 74.0688V72.5137H30.8895V74.0688H30.2748Z" fill="black"/>
<path d="M6 77.0688V75.5137H7.53686V77.0688H6Z" fill="black"/>
<path d="M7.36195 77.0688V75.5137H8.89881V77.0688H7.36195Z" fill="black"/>
<path d="M8.56987 77.0688V75.5137H9.95271V77.0688H8.56987Z" fill="black"/>
<path d="M9.85481 77.0688V75.5137H10.9303V77.0688H9.85481Z" fill="black"/>
<path d="M10.9101 77.0688V75.5137H12.2929V77.0688H10.9101Z" fill="black"/>
<path d="M12.118 77.0688V75.5137H13.6548V77.0688H12.118Z" fill="black"/>
<path d="M13.4799 77.0688V75.5137H14.0947V77.0688H13.4799Z" fill="black"/>
<path d="M13.9191 77.0688V75.5137H16.0707V77.0688H13.9191Z" fill="black"/>
<path d="M15.8188 77.0688V75.5137H16.8942V77.0688H15.8188Z" fill="black"/>
<path d="M16.72 77.0688V75.5137H17.7955V77.0688H16.72Z" fill="black"/>
<path d="M17.4672 77.0688V75.5137H19.0041V77.0688H17.4672Z" fill="black"/>
<path d="M18.8292 77.0688V75.5137H19.4439V77.0688H18.8292Z" fill="black"/>
<path d="M19.2683 77.0688V75.5137H20.3438V77.0688H19.2683Z" fill="black"/>
<path d="M20.0155 77.0688V75.5137H21.5524V77.0688H20.0155Z" fill="black"/>
<path d="M21.3775 77.0688V75.5137H22.9143V77.0688H21.3775Z" fill="black"/>
<path d="M22.5854 77.0688V75.5137H23.2001V77.0688H22.5854Z" fill="black"/>
<path d="M23.0246 77.0688V75.5137H24.7154V77.0688H23.0246Z" fill="black"/>
<path d="M24.5594 77.0688V75.5137H25.7883V77.0688H24.5594Z" fill="black"/>
<path d="M25.6133 77.0688V75.5137H26.9962V77.0688H25.6133Z" fill="black"/>
<path d="M26.6875 77.0688V75.5137H27.763V77.0688H26.6875Z" fill="black"/>
<path d="M27.4347 77.0688V75.5137H28.9716V77.0688H27.4347Z" fill="black"/>
<path d="M28.7967 77.0688V75.5137H29.4114V77.0688H28.7967Z" fill="black"/>
<path d="M6 80.0688V78.5137H7.69088V80.0688H6Z" fill="black"/>
<path d="M7.59298 80.0688V78.5137H8.8218V80.0688H7.59298Z" fill="black"/>
<path d="M8.64689 80.0688V78.5137H10.0297V80.0688H8.64689Z" fill="black"/>
<path d="M9.72105 80.0688V78.5137H11.2579V80.0688H9.72105Z" fill="black"/>
<path d="M10.929 80.0688V78.5137H12.4658V80.0688H10.929Z" fill="black"/>
<path d="M12.3679 80.0688V78.5137H13.7508V80.0688H12.3679Z" fill="black"/>
<path d="M13.5759 80.0688V78.5137H14.9587V80.0688H13.5759Z" fill="black"/>
<path d="M14.746 80.0688V78.5137H15.5141V80.0688H14.746Z" fill="black"/>
<path d="M15.2621 80.0688V78.5137H16.0302V80.0688H15.2621Z" fill="black"/>
<path d="M6.30737 7.96426H27.1685V8.03398H6.30737V7.96426ZM6.30737 10.9643H31.0518V11.034H6.30737V10.9643ZM6.30737 13.9643H32.6226V14.034H6.30737V13.9643ZM6.30737 16.9643H32.4752V17.034H6.30737V16.9643ZM6.30737 19.9643H24.5378V20.034H6.30737V19.9643ZM6.30737 22.9643H28.0664V23.034H6.30737V22.9643ZM6.30737 25.9643H32.4413V26.034H6.30737V25.9643ZM6.30737 28.9643H26.9726V29.034H6.30737V28.9643ZM6.30737 31.9643H32.692V32.034H6.30737V31.9643ZM6.30737 34.9643H15.9323V35.034H6.30737V34.9643ZM6.30737 37.9643H29.0662V38.034H6.30737V37.9643ZM6.30737 40.9643H30.2924V41.034H6.30737V40.9643ZM6.30737 43.9643H32.363V44.034H6.30737V43.9643ZM6.30737 46.9643H29.0257V47.034H6.30737V46.9643ZM6.30737 49.9643H27.7401V50.034H6.30737V49.9643ZM6.30737 52.9643H30.231V53.034H6.30737V52.9643ZM6.30737 55.9643H31.8671V56.034H6.30737V55.9643ZM6.30737 58.9643H22.1794V59.034H6.30737V58.9643ZM6.30737 61.9643H20.4762V62.034H6.30737V61.9643ZM6.30737 64.9643H28.9115V65.034H6.30737V64.9643ZM6.30737 67.9643H32.4185V68.034H6.30737V67.9643ZM6.30737 70.9643H29.6378V71.034H6.30737V70.9643ZM6.30737 73.9643H30.5822V74.034H6.30737V73.9643ZM6.30737 76.9643H29.104V77.034H6.30737V76.9643ZM6.30737 79.9643H16.218V80.034H6.30737V79.9643Z" fill="black"/>
</g>
</g>
<path d="M11.3333 38.5137H2V44.8618H11.3333V38.5137Z" fill="#7FA4CA"/>
<path d="M21.6663 38.5137H12.333V44.8618H21.6663V38.5137Z" fill="#E19E55"/>
</g>
<defs>
<filter id="filter0_d_238_44310" x="0" y="1.51367" width="39" height="35" filterUnits="userSpaceOnUse" color-interpolation-filters="sRGB">
<feFlood flood-opacity="0" result="BackgroundImageFix"/>
<feColorMatrix in="SourceAlpha" type="matrix" values="0 0 0 0 0 0 0 0 0 0 0 0 0 0 0 0 0 0 127 0" result="hardAlpha"/>
<feOffset dy="1"/>
<feGaussianBlur stdDeviation="1"/>
<feComposite in2="hardAlpha" operator="out"/>
<feColorMatrix type="matrix" values="0 0 0 0 0 0 0 0 0 0 0 0 0 0 0 0 0 0 0.1 0"/>
<feBlend mode="normal" in2="BackgroundImageFix" result="effect1_dropShadow_238_44310"/>
<feBlend mode="normal" in="SourceGraphic" in2="effect1_dropShadow_238_44310" result="shape"/>
</filter>
<filter id="filter1_i_238_44310" x="2" y="-2.48633" width="35" height="34" filterUnits="userSpaceOnUse" color-interpolation-filters="sRGB">
<feFlood flood-opacity="0" result="BackgroundImageFix"/>
<feBlend mode="normal" in="SourceGraphic" in2="BackgroundImageFix" result="shape"/>
<feColorMatrix in="SourceAlpha" type="matrix" values="0 0 0 0 0 0 0 0 0 0 0 0 0 0 0 0 0 0 127 0" result="hardAlpha"/>
<feOffset dy="-5"/>
<feGaussianBlur stdDeviation="3.5"/>
<feComposite in2="hardAlpha" operator="arithmetic" k2="-1" k3="1"/>
<feColorMatrix type="matrix" values="0 0 0 0 1 0 0 0 0 1 0 0 0 0 1 0 0 0 1 0"/>
<feBlend mode="normal" in2="shape" result="effect1_innerShadow_238_44310"/>
</filter>
<clipPath id="clip0_238_44310">
<rect width="39" height="46.3481" fill="white" transform="translate(0 0.513672)"/>
</clipPath>
<clipPath id="clip1_238_44310">
<rect width="35" height="31" fill="white" transform="translate(2 2.51367)"/>
</clipPath>
<clipPath id="clip2_238_44310">
<rect width="35" height="29" fill="white" transform="translate(2 2.51367)"/>
</clipPath>
</defs>
</svg>
