<svg width="41" height="48" viewBox="0 0 41 48" fill="none" xmlns="http://www.w3.org/2000/svg">
<g clip-path="url(#clip0_238_44288)">
<rect width="35" height="31" transform="translate(3 2.70801)" fill="white"/>
<g opacity="0.3" clip-path="url(#clip1_238_44288)" filter="url(#filter0_i_238_44288)">
<rect width="35" height="29" transform="translate(3 2.70801)" fill="white"/>
<path d="M7 8.26318V6.70801H7.76878V8.26318H7Z" fill="black"/>
<path d="M7.59371 8.26318V6.70801H8.20901V8.26318H7.59371Z" fill="black"/>
<path d="M8.18743 8.26318V6.70801H10.341V8.26318H8.18743Z" fill="black"/>
<path d="M10.1267 8.26318V6.70801H10.8955V8.26318H10.1267Z" fill="black"/>
<path d="M10.7204 8.26318V6.70801H12.2586V8.26318H10.7204Z" fill="black"/>
<path d="M11.9294 8.26318V6.70801H12.5447V8.26318H11.9294Z" fill="black"/>
<path d="M12.369 8.26318V6.70801H13.9072V8.26318H12.369Z" fill="black"/>
<path d="M13.7321 8.26318V6.70801H15.2704V8.26318H13.7321Z" fill="black"/>
<path d="M14.9411 8.26318V6.70801H16.3252V8.26318H14.9411Z" fill="black"/>
<path d="M16.2272 8.26318V6.70801H17.7655V8.26318H16.2272Z" fill="black"/>
<path d="M17.4362 8.26318V6.70801H18.0515V8.26318H17.4362Z" fill="black"/>
<path d="M18.0299 8.26318V6.70801H19.414V8.26318H18.0299Z" fill="black"/>
<path d="M19.0848 8.26318V6.70801H20.623V8.26318H19.0848Z" fill="black"/>
<path d="M20.2938 8.26318V6.70801H21.832V8.26318H20.2938Z" fill="black"/>
<path d="M21.657 8.26318V6.70801H23.041V8.26318H21.657Z" fill="black"/>
<path d="M22.866 8.26318V6.70801H23.4813V8.26318H22.866Z" fill="black"/>
<path d="M23.3055 8.26318V6.70801H24.6896V8.26318H23.3055Z" fill="black"/>
<path d="M24.5916 8.26318V6.70801H26.1299V8.26318H24.5916Z" fill="black"/>
<path d="M25.8006 8.26318V6.70801H27.1847V8.26318H25.8006Z" fill="black"/>
<path d="M27.0299 8.26318V6.70801H28.414V8.26318H27.0299Z" fill="black"/>
<path d="M28.1619 8.26318V6.70801H28.7772V8.26318H28.1619Z" fill="black"/>
<path d="M7 11.2632V9.70801H8.38408V11.2632H7Z" fill="black"/>
<path d="M8.13193 11.2632V9.70801H9.20836V11.2632H8.13193Z" fill="black"/>
<path d="M9.03397 11.2632V9.70801H10.5722V11.2632H9.03397Z" fill="black"/>
<path d="M10.243 11.2632V9.70801H11.7812V11.2632H10.243Z" fill="black"/>
<path d="M11.5291 11.2632V9.70801H12.9131V11.2632H11.5291Z" fill="black"/>
<path d="M12.6042 11.2632V9.70801H13.2195V11.2632H12.6042Z" fill="black"/>
<path d="M13.0437 11.2632V9.70801H14.1202V11.2632H13.0437Z" fill="black"/>
<path d="M13.7916 11.2632V9.70801H15.3299V11.2632H13.7916Z" fill="black"/>
<path d="M15.1548 11.2632V9.70801H16.693V11.2632H15.1548Z" fill="black"/>
<path d="M16.3638 11.2632V9.70801H17.7479V11.2632H16.3638Z" fill="black"/>
<path d="M17.4389 11.2632V9.70801H18.9772V11.2632H17.4389Z" fill="black"/>
<path d="M18.6479 11.2632V9.70801H19.2632V11.2632H18.6479Z" fill="black"/>
<path d="M19.0875 11.2632V9.70801H21.241V11.2632H19.0875Z" fill="black"/>
<path d="M20.9889 11.2632V9.70801H22.5271V11.2632H20.9889Z" fill="black"/>
<path d="M22.1979 11.2632V9.70801H23.582V11.2632H22.1979Z" fill="black"/>
<path d="M23.273 11.2632V9.70801H24.8113V11.2632H23.273Z" fill="black"/>
<path d="M24.482 11.2632V9.70801H25.0973V11.2632H24.482Z" fill="black"/>
<path d="M24.9216 11.2632V9.70801H25.998V11.2632H24.9216Z" fill="black"/>
<path d="M25.6695 11.2632V9.70801H27.2077V11.2632H25.6695Z" fill="black"/>
<path d="M27.0326 11.2632V9.70801H28.4167V11.2632H27.0326Z" fill="black"/>
<path d="M28.1078 11.2632V9.70801H29.646V11.2632H28.1078Z" fill="black"/>
<path d="M29.3168 11.2632V9.70801H30.855V11.2632H29.3168Z" fill="black"/>
<path d="M30.5258 11.2632V9.70801H31.1411V11.2632H30.5258Z" fill="black"/>
<path d="M7.15416 14.2632V12.708H8.53824V14.2632H7.15416Z" fill="black"/>
<path d="M8.28609 14.2632V12.708H9.82433V14.2632H8.28609Z" fill="black"/>
<path d="M9.57218 14.2632V12.708H10.9563V14.2632H9.57218Z" fill="black"/>
<path d="M10.6473 14.2632V12.708H11.7237V14.2632H10.6473Z" fill="black"/>
<path d="M11.3952 14.2632V12.708H12.7793V14.2632H11.3952Z" fill="black"/>
<path d="M12.5663 14.2632V12.708H13.1816V14.2632H12.5663Z" fill="black"/>
<path d="M13.16 14.2632V12.708H14.39V14.2632H13.16Z" fill="black"/>
<path d="M14.2149 14.2632V12.708H15.4455V14.2632H14.2149Z" fill="black"/>
<path d="M15.1169 14.2632V12.708H15.7322V14.2632H15.1169Z" fill="black"/>
<path d="M15.5565 14.2632V12.708H16.6329V14.2632H15.5565Z" fill="black"/>
<path d="M16.3044 14.2632V12.708H17.8426V14.2632H16.3044Z" fill="black"/>
<path d="M17.6675 14.2632V12.708H19.2058V14.2632H17.6675Z" fill="black"/>
<path d="M18.8765 14.2632V12.708H19.4918V14.2632H18.8765Z" fill="black"/>
<path d="M19.3161 14.2632V12.708H20.8543V14.2632H19.3161Z" fill="black"/>
<path d="M20.6022 14.2632V12.708H22.1404V14.2632H20.6022Z" fill="black"/>
<path d="M21.9654 14.2632V12.708H23.3494V14.2632H21.9654Z" fill="black"/>
<path d="M23.0405 14.2632V12.708H24.5787V14.2632H23.0405Z" fill="black"/>
<path d="M24.2495 14.2632V12.708H25.7877V14.2632H24.2495Z" fill="black"/>
<path d="M25.4585 14.2632V12.708H27.4586V14.2632H25.4585Z" fill="black"/>
<path d="M27.3599 14.2632V12.708H28.8981V14.2632H27.3599Z" fill="black"/>
<path d="M28.7231 14.2632V12.708H30.1071V14.2632H28.7231Z" fill="black"/>
<path d="M29.9321 14.2632V12.708H31.0085V14.2632H29.9321Z" fill="black"/>
<path d="M30.6799 14.2632V12.708H31.2952V14.2632H30.6799Z" fill="black"/>
<path d="M31.1195 14.2632V12.708H32.1959V14.2632H31.1195Z" fill="black"/>
<path d="M32.1757 14.2632V12.708H33.5598V14.2632H32.1757Z" fill="black"/>
<path d="M33.3847 14.2632V12.708H34V14.2632H33.3847Z" fill="black"/>
<path d="M7 17.2632V15.708H8.07643V17.2632H7Z" fill="black"/>
<path d="M7.74788 17.2632V15.708H9.28612V17.2632H7.74788Z" fill="black"/>
<path d="M9.11105 17.2632V15.708H10.6493V17.2632H9.11105Z" fill="black"/>
<path d="M10.3201 17.2632V15.708H10.9354V17.2632H10.3201Z" fill="black"/>
<path d="M10.7596 17.2632V15.708H12.1437V17.2632H10.7596Z" fill="black"/>
<path d="M12.0457 17.2632V15.708H13.1221V17.2632H12.0457Z" fill="black"/>
<path d="M13.1019 17.2632V15.708H14.486V17.2632H13.1019Z" fill="black"/>
<path d="M14.3109 17.2632V15.708H15.8491V17.2632H14.3109Z" fill="black"/>
<path d="M15.6741 17.2632V15.708H17.2123V17.2632H15.6741Z" fill="black"/>
<path d="M17.1143 17.2632V15.708H18.4984V17.2632H17.1143Z" fill="black"/>
<path d="M18.4004 17.2632V15.708H19.6303V17.2632H18.4004Z" fill="black"/>
<path d="M19.4553 17.2632V15.708H20.8393V17.2632H19.4553Z" fill="black"/>
<path d="M20.5304 17.2632V15.708H22.0686V17.2632H20.5304Z" fill="black"/>
<path d="M21.7394 17.2632V15.708H22.3547V17.2632H21.7394Z" fill="black"/>
<path d="M22.179 17.2632V15.708H23.563V17.2632H22.179Z" fill="black"/>
<path d="M23.3501 17.2632V15.708H24.8883V17.2632H23.3501Z" fill="black"/>
<path d="M24.7133 17.2632V15.708H26.7133V17.2632H24.7133Z" fill="black"/>
<path d="M26.6147 17.2632V15.708H28.6147V17.2632H26.6147Z" fill="black"/>
<path d="M28.516 17.2632V15.708H29.5925V17.2632H28.516Z" fill="black"/>
<path d="M29.4181 17.2632V15.708H30.4945V17.2632H29.4181Z" fill="black"/>
<path d="M30.166 17.2632V15.708H30.9347V17.2632H30.166Z" fill="black"/>
<path d="M30.6826 17.2632V15.708H31.2979V17.2632H30.6826Z" fill="black"/>
<path d="M7 20.2632V18.708H8.53824V20.2632H7Z" fill="black"/>
<path d="M8.36317 20.2632V18.708H9.90141V20.2632H8.36317Z" fill="black"/>
<path d="M9.72634 20.2632V18.708H11.2646V20.2632H9.72634Z" fill="black"/>
<path d="M10.9354 20.2632V18.708H12.3194V20.2632H10.9354Z" fill="black"/>
<path d="M12.0105 20.2632V18.708H13.5487V20.2632H12.0105Z" fill="black"/>
<path d="M13.2195 20.2632V18.708H13.8348V20.2632H13.2195Z" fill="black"/>
<path d="M13.659 20.2632V18.708H15.8126V20.2632H13.659Z" fill="black"/>
<path d="M15.5604 20.2632V18.708H17.0987V20.2632H15.5604Z" fill="black"/>
<path d="M16.7694 20.2632V18.708H18.1535V20.2632H16.7694Z" fill="black"/>
<path d="M17.8446 20.2632V18.708H19.3828V20.2632H17.8446Z" fill="black"/>
<path d="M19.0536 20.2632V18.708H19.6689V20.2632H19.0536Z" fill="black"/>
<path d="M19.4931 20.2632V18.708H20.5696V20.2632H19.4931Z" fill="black"/>
<path d="M20.241 20.2632V18.708H21.7792V20.2632H20.241Z" fill="black"/>
<path d="M21.6042 20.2632V18.708H23.1424V20.2632H21.6042Z" fill="black"/>
<path d="M22.8132 20.2632V18.708H23.4285V20.2632H22.8132Z" fill="black"/>
<path d="M7 23.2632V21.708H8.53824V23.2632H7Z" fill="black"/>
<path d="M8.20901 23.2632V21.708H9.59309V23.2632H8.20901Z" fill="black"/>
<path d="M9.38015 23.2632V21.708H10.4566V23.2632H9.38015Z" fill="black"/>
<path d="M10.128 23.2632V21.708H11.6663V23.2632H10.128Z" fill="black"/>
<path d="M11.5683 23.2632V21.708H12.9524V23.2632H11.5683Z" fill="black"/>
<path d="M12.6231 23.2632V21.708H13.6996V23.2632H12.6231Z" fill="black"/>
<path d="M13.5252 23.2632V21.708H14.6016V23.2632H13.5252Z" fill="black"/>
<path d="M14.4272 23.2632V21.708H15.8113V23.2632H14.4272Z" fill="black"/>
<path d="M15.5983 23.2632V21.708H17.1366V23.2632H15.5983Z" fill="black"/>
<path d="M16.9615 23.2632V21.708H18.9616V23.2632H16.9615Z" fill="black"/>
<path d="M18.8629 23.2632V21.708H20.4011V23.2632H18.8629Z" fill="black"/>
<path d="M20.2261 23.2632V21.708H21.6102V23.2632H20.2261Z" fill="black"/>
<path d="M21.4351 23.2632V21.708H22.5115V23.2632H21.4351Z" fill="black"/>
<path d="M22.183 23.2632V21.708H22.7983V23.2632H22.183Z" fill="black"/>
<path d="M22.7767 23.2632V21.708H24.0066V23.2632H22.7767Z" fill="black"/>
<path d="M23.8315 23.2632V21.708H25.0621V23.2632H23.8315Z" fill="black"/>
<path d="M24.7336 23.2632V21.708H25.3489V23.2632H24.7336Z" fill="black"/>
<path d="M7.15416 26.2632V24.708H8.53824V26.2632H7.15416Z" fill="black"/>
<path d="M8.28609 26.2632V24.708H9.82433V26.2632H8.28609Z" fill="black"/>
<path d="M9.4951 26.2632V24.708H11.0333V26.2632H9.4951Z" fill="black"/>
<path d="M10.7812 26.2632V24.708H12.1653V26.2632H10.7812Z" fill="black"/>
<path d="M11.9131 26.2632V24.708H13.4514V26.2632H11.9131Z" fill="black"/>
<path d="M13.1221 26.2632V24.708H14.3527V26.2632H13.1221Z" fill="black"/>
<path d="M14.0242 26.2632V24.708H15.5624V26.2632H14.0242Z" fill="black"/>
<path d="M15.3873 26.2632V24.708H16.4638V26.2632H15.3873Z" fill="black"/>
<path d="M16.2894 26.2632V24.708H16.9047V26.2632H16.2894Z" fill="black"/>
<path d="M16.7289 26.2632V24.708H18.113V26.2632H16.7289Z" fill="black"/>
<path d="M17.8041 26.2632V24.708H19.3423V26.2632H17.8041Z" fill="black"/>
<path d="M19.0131 26.2632V24.708H20.0895V26.2632H19.0131Z" fill="black"/>
<path d="M19.9151 26.2632V24.708H21.4533V26.2632H19.9151Z" fill="black"/>
<path d="M21.2012 26.2632V24.708H22.2776V26.2632H21.2012Z" fill="black"/>
<path d="M21.9491 26.2632V24.708H23.0255V26.2632H21.9491Z" fill="black"/>
<path d="M23.0053 26.2632V24.708H24.2352V26.2632H23.0053Z" fill="black"/>
<path d="M24.2143 26.2632V24.708H25.5984V26.2632H24.2143Z" fill="black"/>
<path d="M25.4233 26.2632V24.708H26.8074V26.2632H25.4233Z" fill="black"/>
<path d="M26.5944 26.2632V24.708H27.2097V26.2632H26.5944Z" fill="black"/>
<path d="M7.15416 29.2632V27.708H8.53824V29.2632H7.15416Z" fill="black"/>
<path d="M8.20901 29.2632V27.708H9.74725V29.2632H8.20901Z" fill="black"/>
<path d="M9.41802 29.2632V27.708H10.4944V29.2632H9.41802Z" fill="black"/>
<path d="M10.1659 29.2632V27.708H12.3194V29.2632H10.1659Z" fill="black"/>
<path d="M12.0673 29.2632V27.708H13.6055V29.2632H12.0673Z" fill="black"/>
<path d="M13.2763 29.2632V27.708H14.8145V29.2632H13.2763Z" fill="black"/>
<path d="M14.6395 29.2632V27.708H16.0235V29.2632H14.6395Z" fill="black"/>
<path d="M15.8485 29.2632V27.708H16.4638V29.2632H15.8485Z" fill="black"/>
<path d="M16.288 29.2632V27.708H17.3645V29.2632H16.288Z" fill="black"/>
<path d="M17.0359 29.2632V27.708H18.5741V29.2632H17.0359Z" fill="black"/>
<path d="M18.3991 29.2632V27.708H19.9373V29.2632H18.3991Z" fill="black"/>
<path d="M19.6081 29.2632V27.708H20.2234V29.2632H19.6081Z" fill="black"/>
<path d="M20.0476 29.2632V27.708H21.4317V29.2632H20.0476Z" fill="black"/>
<path d="M21.3337 29.2632V27.708H22.5636V29.2632H21.3337Z" fill="black"/>
<path d="M22.3886 29.2632V27.708H23.9268V29.2632H22.3886Z" fill="black"/>
<path d="M23.9059 29.2632V27.708H25.29V29.2632H23.9059Z" fill="black"/>
<path d="M25.1149 29.2632V27.708H26.1913V29.2632H25.1149Z" fill="black"/>
<path d="M25.8628 29.2632V27.708H27.2469V29.2632H25.8628Z" fill="black"/>
<path d="M26.9379 29.2632V27.708H28.0143V29.2632H26.9379Z" fill="black"/>
<path d="M27.84 29.2632V27.708H29.3782V29.2632H27.84Z" fill="black"/>
<path d="M29.049 29.2632V27.708H30.433V29.2632H29.049Z" fill="black"/>
<path d="M30.2201 29.2632V27.708H30.9889V29.2632H30.2201Z" fill="black"/>
<path d="M30.7367 29.2632V27.708H31.352V29.2632H30.7367Z" fill="black"/>
<path d="M7 32.2632V30.708H8.07643V32.2632H7Z" fill="black"/>
<path d="M8.0562 32.2632V30.708H9.44028V32.2632H8.0562Z" fill="black"/>
<path d="M9.26521 32.2632V30.708H10.6493V32.2632H9.26521Z" fill="black"/>
<path d="M10.3971 32.2632V30.708H11.7812V32.2632H10.3971Z" fill="black"/>
<path d="M11.4723 32.2632V30.708H13.0105V32.2632H11.4723Z" fill="black"/>
<path d="M12.6813 32.2632V30.708H14.2195V32.2632H12.6813Z" fill="black"/>
<path d="M13.9674 32.2632V30.708H15.3514V32.2632H13.9674Z" fill="black"/>
<path d="M15.1385 32.2632V30.708H16.6768V32.2632H15.1385Z" fill="black"/>
<path d="M16.3475 32.2632V30.708H17.8858V32.2632H16.3475Z" fill="black"/>
<path d="M17.6336 32.2632V30.708H18.2489V32.2632H17.6336Z" fill="black"/>
<path d="M18.0732 32.2632V30.708H19.4572V32.2632H18.0732Z" fill="black"/>
<path d="M19.2443 32.2632V30.708H20.7825V32.2632H19.2443Z" fill="black"/>
<path d="M20.4533 32.2632V30.708H21.8374V32.2632H20.4533Z" fill="black"/>
<path d="M21.5852 32.2632V30.708H23.1235V32.2632H21.5852Z" fill="black"/>
<path d="M22.9484 32.2632V30.708H24.3325V32.2632H22.9484Z" fill="black"/>
<path d="M24.0235 32.2632V30.708H25.1V32.2632H24.0235Z" fill="black"/>
<path d="M24.9256 32.2632V30.708H26.002V32.2632H24.9256Z" fill="black"/>
<path d="M25.8276 32.2632V30.708H27.2117V32.2632H25.8276Z" fill="black"/>
<path d="M26.9596 32.2632V30.708H27.5748V32.2632H26.9596Z" fill="black"/>
<path d="M7 35.2632V33.708H8.53824V35.2632H7Z" fill="black"/>
<path d="M8.28609 35.2632V33.708H9.67017V35.2632H8.28609Z" fill="black"/>
<path d="M9.45724 35.2632V33.708H10.8413V35.2632H9.45724Z" fill="black"/>
<path d="M10.6284 35.2632V33.708H12.1666V35.2632H10.6284Z" fill="black"/>
<path d="M11.9916 35.2632V33.708H13.3756V35.2632H11.9916Z" fill="black"/>
<path d="M13.0288 35.2632V33.708H14.5671V35.2632H13.0288Z" fill="black"/>
<path d="M14.4691 35.2632V33.708H15.8531V35.2632H14.4691Z" fill="black"/>
<path d="M15.6781 35.2632V33.708H17.0622V35.2632H15.6781Z" fill="black"/>
<path d="M16.81 35.2632V33.708H18.3482V35.2632H16.81Z" fill="black"/>
<path d="M18.019 35.2632V33.708H19.4031V35.2632H18.019Z" fill="black"/>
<path d="M19.1902 35.2632V33.708H19.8055V35.2632H19.1902Z" fill="black"/>
<path d="M19.6297 35.2632V33.708H20.7061V35.2632H19.6297Z" fill="black"/>
<path d="M20.5318 35.2632V33.708H21.7617V35.2632H20.5318Z" fill="black"/>
<path d="M21.5866 35.2632V33.708H22.2019V35.2632H21.5866Z" fill="black"/>
<path d="M22.0261 35.2632V33.708H23.7186V35.2632H22.0261Z" fill="black"/>
<path d="M23.5624 35.2632V33.708H24.7923V35.2632H23.5624Z" fill="black"/>
<path d="M24.6173 35.2632V33.708H26.0013V35.2632H24.6173Z" fill="black"/>
<path d="M25.6924 35.2632V33.708H26.7688V35.2632H25.6924Z" fill="black"/>
<path d="M26.4403 35.2632V33.708H27.9785V35.2632H26.4403Z" fill="black"/>
<path d="M27.8034 35.2632V33.708H28.4187V35.2632H27.8034Z" fill="black"/>
<path d="M7 38.2632V36.708H8.6924V38.2632H7Z" fill="black"/>
<path d="M8.59441 38.2632V36.708H9.82433V38.2632H8.59441Z" fill="black"/>
<path d="M9.64926 38.2632V36.708H11.0333V38.2632H9.64926Z" fill="black"/>
<path d="M10.7244 38.2632V36.708H12.2626V38.2632H10.7244Z" fill="black"/>
<path d="M11.9334 38.2632V36.708H13.4716V38.2632H11.9334Z" fill="black"/>
<path d="M13.2195 38.2632V36.708H13.8348V38.2632H13.2195Z" fill="black"/>
<path d="M13.659 38.2632V36.708H15.1973V38.2632H13.659Z" fill="black"/>
<path d="M15.0993 38.2632V36.708H16.4834V38.2632H15.0993Z" fill="black"/>
<path d="M16.3083 38.2632V36.708H17.8465V38.2632H16.3083Z" fill="black"/>
<path d="M17.5944 38.2632V36.708H18.2097V38.2632H17.5944Z" fill="black"/>
<path d="M18.0339 38.2632V36.708H19.1104V38.2632H18.0339Z" fill="black"/>
<path d="M18.936 38.2632V36.708H20.0124V38.2632H18.936Z" fill="black"/>
<path d="M19.6839 38.2632V36.708H21.0679V38.2632H19.6839Z" fill="black"/>
<path d="M20.855 38.2632V36.708H21.4703V38.2632H20.855Z" fill="black"/>
<path d="M21.4487 38.2632V36.708H22.8328V38.2632H21.4487Z" fill="black"/>
<path d="M22.5806 38.2632V36.708H24.1189V38.2632H22.5806Z" fill="black"/>
<path d="M23.9438 38.2632V36.708H25.1737V38.2632H23.9438Z" fill="black"/>
<path d="M25.1528 38.2632V36.708H26.5369V38.2632H25.1528Z" fill="black"/>
<path d="M26.2848 38.2632V36.708H27.3612V38.2632H26.2848Z" fill="black"/>
<path d="M27.1868 38.2632V36.708H28.725V38.2632H27.1868Z" fill="black"/>
<path d="M28.3958 38.2632V36.708H29.1646V38.2632H28.3958Z" fill="black"/>
<path d="M28.9124 38.2632V36.708H29.5277V38.2632H28.9124Z" fill="black"/>
<path d="M29.352 38.2632V36.708H30.8902V38.2632H29.352Z" fill="black"/>
<path d="M30.7922 38.2632V36.708H32.1763V38.2632H30.7922Z" fill="black"/>
<path d="M32.0012 38.2632V36.708H33.5395V38.2632H32.0012Z" fill="black"/>
<path d="M33.2873 38.2632V36.708H33.9026V38.2632H33.2873Z" fill="black"/>
<path d="M7 41.2632V39.708H8.23059V41.2632H7Z" fill="black"/>
<path d="M7.90204 41.2632V39.708H8.97847V41.2632H7.90204Z" fill="black"/>
<path d="M8.95824 41.2632V39.708H10.3423V41.2632H8.95824Z" fill="black"/>
<path d="M10.1672 41.2632V39.708H11.7055V41.2632H10.1672Z" fill="black"/>
<path d="M11.4533 41.2632V39.708H12.5298V41.2632H11.4533Z" fill="black"/>
<path d="M12.3554 41.2632V39.708H13.4318V41.2632H12.3554Z" fill="black"/>
<path d="M13.3345 41.2632V39.708H14.7186V41.2632H13.3345Z" fill="black"/>
<path d="M14.4664 41.2632V39.708H15.2352V41.2632H14.4664Z" fill="black"/>
<path d="M14.9831 41.2632V39.708H15.5983V41.2632H14.9831Z" fill="black"/>
<path d="M7 44.2632V42.708H8.53824V44.2632H7Z" fill="black"/>
<path d="M8.28609 44.2632V42.708H9.82433V44.2632H8.28609Z" fill="black"/>
<path d="M9.64926 44.2632V42.708H11.0333V44.2632H9.64926Z" fill="black"/>
<path d="M10.8583 44.2632V42.708H12.3965V44.2632H10.8583Z" fill="black"/>
<path d="M12.2214 44.2632V42.708H13.6055V44.2632H12.2214Z" fill="black"/>
<path d="M13.3534 44.2632V42.708H14.4298V44.2632H13.3534Z" fill="black"/>
<path d="M14.2554 44.2632V42.708H15.7936V44.2632H14.2554Z" fill="black"/>
<path d="M15.4644 44.2632V42.708H17.0027V44.2632H15.4644Z" fill="black"/>
<path d="M16.7505 44.2632V42.708H18.1346V44.2632H16.7505Z" fill="black"/>
<path d="M17.8256 44.2632V42.708H18.9021V44.2632H17.8256Z" fill="black"/>
<path d="M18.8818 44.2632V42.708H20.1118V44.2632H18.8818Z" fill="black"/>
<path d="M19.8407 44.2632V42.708H21.3789V44.2632H19.8407Z" fill="black"/>
<path d="M21.1268 44.2632V42.708H22.2032V44.2632H21.1268Z" fill="black"/>
<path d="M21.8746 44.2632V42.708H22.9511V44.2632H21.8746Z" fill="black"/>
<path d="M22.9308 44.2632V42.708H24.1608V44.2632H22.9308Z" fill="black"/>
<path d="M24.1398 44.2632V42.708H25.5239V44.2632H24.1398Z" fill="black"/>
<path d="M25.3489 44.2632V42.708H26.1176V44.2632H25.3489Z" fill="black"/>
<path d="M25.8655 44.2632V42.708H26.4808V44.2632H25.8655Z" fill="black"/>
<path d="M26.305 44.2632V42.708H27.9974V44.2632H26.305Z" fill="black"/>
<path d="M27.6303 44.2632V42.708H29.1686V44.2632H27.6303Z" fill="black"/>
<path d="M28.9164 44.2632V42.708H30.3005V44.2632H28.9164Z" fill="black"/>
<path d="M30.0484 44.2632V42.708H31.5866V44.2632H30.0484Z" fill="black"/>
<path d="M31.4115 44.2632V42.708H32.0268V44.2632H31.4115Z" fill="black"/>
<path d="M7.15416 47.2632V45.708H8.38408V47.2632H7.15416Z" fill="black"/>
<path d="M8.20901 47.2632V45.708H9.4396V47.2632H8.20901Z" fill="black"/>
<path d="M9.11105 47.2632V45.708H9.72634V47.2632H9.11105Z" fill="black"/>
<path d="M9.5506 47.2632V45.708H10.627V47.2632H9.5506Z" fill="black"/>
<path d="M10.2985 47.2632V45.708H11.8367V47.2632H10.2985Z" fill="black"/>
<path d="M11.8158 47.2632V45.708H13.0457V47.2632H11.8158Z" fill="black"/>
<path d="M12.8707 47.2632V45.708H14.2547V47.2632H12.8707Z" fill="black"/>
<path d="M14.0418 47.2632V45.708H15.58V47.2632H14.0418Z" fill="black"/>
<path d="M15.2508 47.2632V45.708H15.8661V47.2632H15.2508Z" fill="black"/>
<path d="M15.8445 47.2632V45.708H17.2286V47.2632H15.8445Z" fill="black"/>
<path d="M17.0535 47.2632V45.708H18.5918V47.2632H17.0535Z" fill="black"/>
<path d="M18.2625 47.2632V45.708H19.8008V47.2632H18.2625Z" fill="black"/>
<path d="M19.4715 47.2632V45.708H21.0098V47.2632H19.4715Z" fill="black"/>
<path d="M20.7576 47.2632V45.708H22.1417V47.2632H20.7576Z" fill="black"/>
<path d="M21.9288 47.2632V45.708H22.5441V47.2632H21.9288Z" fill="black"/>
<path d="M22.3683 47.2632V45.708H23.4448V47.2632H22.3683Z" fill="black"/>
<path d="M23.2704 47.2632V45.708H24.5003V47.2632H23.2704Z" fill="black"/>
<path d="M24.3252 47.2632V45.708H24.9405V47.2632H24.3252Z" fill="black"/>
<path d="M24.9189 47.2632V45.708H26.303V47.2632H24.9189Z" fill="black"/>
<path d="M25.9738 47.2632V45.708H27.512V47.2632H25.9738Z" fill="black"/>
<path d="M27.1828 47.2632V45.708H27.7981V47.2632H27.1828Z" fill="black"/>
<path d="M7 50.2632V48.708H8.38408V50.2632H7Z" fill="black"/>
<path d="M8.28609 50.2632V48.708H9.51601V50.2632H8.28609Z" fill="black"/>
<path d="M9.4951 50.2632V48.708H10.8792V50.2632H9.4951Z" fill="black"/>
<path d="M10.7041 50.2632V48.708H12.2423V50.2632H10.7041Z" fill="black"/>
<path d="M11.9902 50.2632V48.708H13.5284V50.2632H11.9902Z" fill="black"/>
<path d="M13.3534 50.2632V48.708H14.7374V50.2632H13.3534Z" fill="black"/>
<path d="M14.4853 50.2632V48.708H15.5617V50.2632H14.4853Z" fill="black"/>
<path d="M15.2332 50.2632V48.708H16.7714V50.2632H15.2332Z" fill="black"/>
<path d="M16.4422 50.2632V48.708H17.9804V50.2632H16.4422Z" fill="black"/>
<path d="M17.7283 50.2632V48.708H18.3436V50.2632H17.7283Z" fill="black"/>
<path d="M18.1678 50.2632V48.708H19.2443V50.2632H18.1678Z" fill="black"/>
<path d="M19.224 50.2632V48.708H20.6081V50.2632H19.224Z" fill="black"/>
<path d="M20.433 50.2632V48.708H21.0483V50.2632H20.433Z" fill="black"/>
<path d="M21.0267 50.2632V48.708H22.4108V50.2632H21.0267Z" fill="black"/>
<path d="M22.1587 50.2632V48.708H23.6969V50.2632H22.1587Z" fill="black"/>
<path d="M23.4448 50.2632V48.708H24.8288V50.2632H23.4448Z" fill="black"/>
<path d="M24.482 50.2632V48.708H26.0203V50.2632H24.482Z" fill="black"/>
<path d="M25.7681 50.2632V48.708H26.8446V50.2632H25.7681Z" fill="black"/>
<path d="M26.6702 50.2632V48.708H27.7466V50.2632H26.6702Z" fill="black"/>
<path d="M27.5722 50.2632V48.708H29.1104V50.2632H27.5722Z" fill="black"/>
<path d="M28.7812 50.2632V48.708H29.8576V50.2632H28.7812Z" fill="black"/>
<path d="M29.6832 50.2632V48.708H30.452V50.2632H29.6832Z" fill="black"/>
<path d="M30.1999 50.2632V48.708H30.8152V50.2632H30.1999Z" fill="black"/>
<path d="M7.15416 53.2632V51.708H9.3077V53.2632H7.15416Z" fill="black"/>
<path d="M9.09341 53.2632V51.708H10.6317V53.2632H9.09341Z" fill="black"/>
<path d="M10.3024 53.2632V51.708H10.9177V53.2632H10.3024Z" fill="black"/>
<path d="M10.8961 53.2632V51.708H12.2802V53.2632H10.8961Z" fill="black"/>
<path d="M12.1051 53.2632V51.708H13.6434V53.2632H12.1051Z" fill="black"/>
<path d="M13.3142 53.2632V51.708H14.8524V53.2632H13.3142Z" fill="black"/>
<path d="M14.5232 53.2632V51.708H16.0614V53.2632H14.5232Z" fill="black"/>
<path d="M15.8093 53.2632V51.708H16.4245V53.2632H15.8093Z" fill="black"/>
<path d="M16.2488 53.2632V51.708H17.3252V53.2632H16.2488Z" fill="black"/>
<path d="M17.1508 53.2632V51.708H18.3808V53.2632H17.1508Z" fill="black"/>
<path d="M18.2057 53.2632V51.708H18.821V53.2632H18.2057Z" fill="black"/>
<path d="M18.6452 53.2632V51.708H20.7988V53.2632H18.6452Z" fill="black"/>
<path d="M20.7008 53.2632V51.708H21.9307V53.2632H20.7008Z" fill="black"/>
<path d="M21.7556 53.2632V51.708H23.1397V53.2632H21.7556Z" fill="black"/>
<path d="M22.8308 53.2632V51.708H24.369V53.2632H22.8308Z" fill="black"/>
<path d="M24.1561 53.2632V51.708H24.7714V53.2632H24.1561Z" fill="black"/>
<path d="M24.7498 53.2632V51.708H25.9797V53.2632H24.7498Z" fill="black"/>
<path d="M25.9588 53.2632V51.708H27.3429V53.2632H25.9588Z" fill="black"/>
<path d="M27.1678 53.2632V51.708H27.7831V53.2632H27.1678Z" fill="black"/>
<path d="M27.6074 53.2632V51.708H28.6838V53.2632H27.6074Z" fill="black"/>
<path d="M28.3552 53.2632V51.708H29.8935V53.2632H28.3552Z" fill="black"/>
<path d="M29.8726 53.2632V51.708H31.1025V53.2632H29.8726Z" fill="black"/>
<path d="M30.9274 53.2632V51.708H32.3115V53.2632H30.9274Z" fill="black"/>
<path d="M32.0986 53.2632V51.708H33.6368V53.2632H32.0986Z" fill="black"/>
<path d="M33.3076 53.2632V51.708H33.9229V53.2632H33.3076Z" fill="black"/>
<path d="M7 56.2632V54.708H8.53824V56.2632H7Z" fill="black"/>
<path d="M8.20901 56.2632V54.708H9.4396V56.2632H8.20901Z" fill="black"/>
<path d="M9.11105 56.2632V54.708H10.3416V56.2632H9.11105Z" fill="black"/>
<path d="M10.1672 56.2632V54.708H11.3972V56.2632H10.1672Z" fill="black"/>
<path d="M11.2221 56.2632V54.708H12.6062V56.2632H11.2221Z" fill="black"/>
<path d="M12.2972 56.2632V54.708H13.3737V56.2632H12.2972Z" fill="black"/>
<path d="M13.0451 56.2632V54.708H14.4292V56.2632H13.0451Z" fill="black"/>
<path d="M14.2162 56.2632V54.708H14.8315V56.2632H14.2162Z" fill="black"/>
<path d="M14.6558 56.2632V54.708H16.0399V56.2632H14.6558Z" fill="black"/>
<path d="M15.8269 56.2632V54.708H16.9034V56.2632H15.8269Z" fill="black"/>
<path d="M16.729 56.2632V54.708H18.729V56.2632H16.729Z" fill="black"/>
<path d="M18.6304 56.2632V54.708H20.1686V56.2632H18.6304Z" fill="black"/>
<path d="M19.9935 56.2632V54.708H21.07V56.2632H19.9935Z" fill="black"/>
<path d="M20.8956 56.2632V54.708H21.972V56.2632H20.8956Z" fill="black"/>
<path d="M21.6434 56.2632V54.708H23.1817V56.2632H21.6434Z" fill="black"/>
<path d="M23.0837 56.2632V54.708H24.4678V56.2632H23.0837Z" fill="black"/>
<path d="M24.2927 56.2632V54.708H25.831V56.2632H24.2927Z" fill="black"/>
<path d="M25.6559 56.2632V54.708H26.8858V56.2632H25.6559Z" fill="black"/>
<path d="M26.7107 56.2632V54.708H28.249V56.2632H26.7107Z" fill="black"/>
<path d="M28.0739 56.2632V54.708H29.458V56.2632H28.0739Z" fill="black"/>
<path d="M29.245 56.2632V54.708H30.3215V56.2632H29.245Z" fill="black"/>
<path d="M30.2242 56.2632V54.708H31.6082V56.2632H30.2242Z" fill="black"/>
<path d="M31.3561 56.2632V54.708H32.1249V56.2632H31.3561Z" fill="black"/>
<path d="M31.8727 56.2632V54.708H32.488V56.2632H31.8727Z" fill="black"/>
<path d="M7 59.2632V57.708H8.6924V59.2632H7Z" fill="black"/>
<path d="M8.59441 59.2632V57.708H9.97849V59.2632H8.59441Z" fill="black"/>
<path d="M9.80342 59.2632V57.708H11.3417V59.2632H9.80342Z" fill="black"/>
<path d="M11.0895 59.2632V57.708H11.7048V59.2632H11.0895Z" fill="black"/>
<path d="M11.5291 59.2632V57.708H12.9131V59.2632H11.5291Z" fill="black"/>
<path d="M12.8544 59.2632V57.708H14.0843V59.2632H12.8544Z" fill="black"/>
<path d="M13.9092 59.2632V57.708H14.5245V59.2632H13.9092Z" fill="black"/>
<path d="M14.3488 59.2632V57.708H15.4252V59.2632H14.3488Z" fill="black"/>
<path d="M15.2508 59.2632V57.708H16.3272V59.2632H15.2508Z" fill="black"/>
<path d="M15.9987 59.2632V57.708H16.614V59.2632H15.9987Z" fill="black"/>
<path d="M16.4382 59.2632V57.708H17.5147V59.2632H16.4382Z" fill="black"/>
<path d="M17.3403 59.2632V57.708H18.7244V59.2632H17.3403Z" fill="black"/>
<path d="M18.5114 59.2632V57.708H19.1267V59.2632H18.5114Z" fill="black"/>
<path d="M18.951 59.2632V57.708H20.4892V59.2632H18.951Z" fill="black"/>
<path d="M20.3912 59.2632V57.708H21.7753V59.2632H20.3912Z" fill="black"/>
<path d="M21.4461 59.2632V57.708H22.8301V59.2632H21.4461Z" fill="black"/>
<path d="M22.7714 59.2632V57.708H24.0013V59.2632H22.7714Z" fill="black"/>
<path d="M23.8262 59.2632V57.708H24.9027V59.2632H23.8262Z" fill="black"/>
<path d="M24.7283 59.2632V57.708H26.2665V59.2632H24.7283Z" fill="black"/>
<path d="M26.0914 59.2632V57.708H27.1679V59.2632H26.0914Z" fill="black"/>
<path d="M26.8393 59.2632V57.708H28.3775V59.2632H26.8393Z" fill="black"/>
<path d="M28.0483 59.2632V57.708H29.1247V59.2632H28.0483Z" fill="black"/>
<path d="M29.0274 59.2632V57.708H30.4115V59.2632H29.0274Z" fill="black"/>
<path d="M30.1594 59.2632V57.708H30.7747V59.2632H30.1594Z" fill="black"/>
<path d="M7 62.2632V60.708H8.07643V62.2632H7Z" fill="black"/>
<path d="M7.74788 62.2632V60.708H9.28612V62.2632H7.74788Z" fill="black"/>
<path d="M9.11105 62.2632V60.708H10.6493V62.2632H9.11105Z" fill="black"/>
<path d="M10.3201 62.2632V60.708H10.9354V62.2632H10.3201Z" fill="black"/>
<path d="M10.7596 62.2632V60.708H12.1437V62.2632H10.7596Z" fill="black"/>
<path d="M11.8915 62.2632V60.708H13.4298V62.2632H11.8915Z" fill="black"/>
<path d="M13.1776 62.2632V60.708H14.5617V62.2632H13.1776Z" fill="black"/>
<path d="M14.3488 62.2632V60.708H15.887V62.2632H14.3488Z" fill="black"/>
<path d="M15.5578 62.2632V60.708H16.1731V62.2632H15.5578Z" fill="black"/>
<path d="M15.9973 62.2632V60.708H17.0738V62.2632H15.9973Z" fill="black"/>
<path d="M16.7452 62.2632V60.708H18.2834V62.2632H16.7452Z" fill="black"/>
<path d="M18.1084 62.2632V60.708H19.6466V62.2632H18.1084Z" fill="black"/>
<path d="M19.3945 62.2632V60.708H20.4709V62.2632H19.3945Z" fill="black"/>
<path d="M20.1423 62.2632V60.708H20.7576V62.2632H20.1423Z" fill="black"/>
<path d="M20.5819 62.2632V60.708H21.6583V62.2632H20.5819Z" fill="black"/>
<path d="M21.3298 62.2632V60.708H22.868V62.2632H21.3298Z" fill="black"/>
<path d="M22.6929 62.2632V60.708H24.2312V62.2632H22.6929Z" fill="black"/>
<path d="M23.902 62.2632V60.708H25.286V62.2632H23.902Z" fill="black"/>
<path d="M24.9771 62.2632V60.708H26.5153V62.2632H24.9771Z" fill="black"/>
<path d="M26.1861 62.2632V60.708H26.8014V62.2632H26.1861Z" fill="black"/>
<path d="M26.6256 62.2632V60.708H28.1639V62.2632H26.6256Z" fill="black"/>
<path d="M27.9117 62.2632V60.708H29.2958V62.2632H27.9117Z" fill="black"/>
<path d="M28.9869 62.2632V60.708H30.5251V62.2632H28.9869Z" fill="black"/>
<path d="M30.1959 62.2632V60.708H30.8112V62.2632H30.1959Z" fill="black"/>
<path d="M7.15416 65.2632V63.708H8.53824V65.2632H7.15416Z" fill="black"/>
<path d="M8.28609 65.2632V63.708H9.36252V65.2632H8.28609Z" fill="black"/>
<path d="M9.18813 65.2632V63.708H10.7264V65.2632H9.18813Z" fill="black"/>
<path d="M10.4742 65.2632V63.708H11.8583V65.2632H10.4742Z" fill="black"/>
<path d="M11.6061 65.2632V63.708H13.1444V65.2632H11.6061Z" fill="black"/>
<path d="M12.8152 65.2632V63.708H14.1992V65.2632H12.8152Z" fill="black"/>
<path d="M13.9863 65.2632V63.708H14.6016V65.2632H13.9863Z" fill="black"/>
<path d="M14.4259 65.2632V63.708H16.5794V65.2632H14.4259Z" fill="black"/>
<path d="M16.3272 65.2632V63.708H17.8655V65.2632H16.3272Z" fill="black"/>
<path d="M17.6904 65.2632V63.708H19.2286V65.2632H17.6904Z" fill="black"/>
<path d="M18.8994 65.2632V63.708H20.2835V65.2632H18.8994Z" fill="black"/>
<path d="M19.9746 65.2632V63.708H21.5128V65.2632H19.9746Z" fill="black"/>
<path d="M21.1836 65.2632V63.708H21.7989V65.2632H21.1836Z" fill="black"/>
<path d="M21.6231 65.2632V63.708H22.6995V65.2632H21.6231Z" fill="black"/>
<path d="M22.371 65.2632V63.708H23.9092V65.2632H22.371Z" fill="black"/>
<path d="M23.7342 65.2632V63.708H25.2724V65.2632H23.7342Z" fill="black"/>
<path d="M24.9432 65.2632V63.708H26.3272V65.2632H24.9432Z" fill="black"/>
<path d="M26.0183 65.2632V63.708H27.5565V65.2632H26.0183Z" fill="black"/>
<path d="M27.2273 65.2632V63.708H27.8426V65.2632H27.2273Z" fill="black"/>
<path d="M27.6669 65.2632V63.708H29.8204V65.2632H27.6669Z" fill="black"/>
<path d="M29.5682 65.2632V63.708H30.6447V65.2632H29.5682Z" fill="black"/>
<path d="M30.4703 65.2632V63.708H31.5467V65.2632H30.4703Z" fill="black"/>
<path d="M31.3723 65.2632V63.708H32.4488V65.2632H31.3723Z" fill="black"/>
<path d="M32.2744 65.2632V63.708H32.8897V65.2632H32.2744Z" fill="black"/>
<path d="M7.15416 68.2632V66.708H8.53824V68.2632H7.15416Z" fill="black"/>
<path d="M8.20901 68.2632V66.708H9.74725V68.2632H8.20901Z" fill="black"/>
<path d="M9.41802 68.2632V66.708H10.0333V68.2632H9.41802Z" fill="black"/>
<path d="M9.85757 68.2632V66.708H10.934V68.2632H9.85757Z" fill="black"/>
<path d="M10.6054 68.2632V66.708H12.1437V68.2632H10.6054Z" fill="black"/>
<path d="M11.9686 68.2632V66.708H13.045V68.2632H11.9686Z" fill="black"/>
<path d="M13.0248 68.2632V66.708H14.4089V68.2632H13.0248Z" fill="black"/>
<path d="M14.2338 68.2632V66.708H15.7721V68.2632H14.2338Z" fill="black"/>
<path d="M15.597 68.2632V66.708H16.9811V68.2632H15.597Z" fill="black"/>
<path d="M16.7681 68.2632V66.708H17.3834V68.2632H16.7681Z" fill="black"/>
<path d="M17.2077 68.2632V66.708H18.2841V68.2632H17.2077Z" fill="black"/>
<path d="M17.9556 68.2632V66.708H19.4938V68.2632H17.9556Z" fill="black"/>
<path d="M19.3187 68.2632V66.708H20.857V68.2632H19.3187Z" fill="black"/>
<path d="M20.6048 68.2632V66.708H21.6813V68.2632H20.6048Z" fill="black"/>
<path d="M21.3527 68.2632V66.708H21.968V68.2632H21.3527Z" fill="black"/>
<path d="M21.7923 68.2632V66.708H22.8687V68.2632H21.7923Z" fill="black"/>
<path d="M22.5401 68.2632V66.708H24.0784V68.2632H22.5401Z" fill="black"/>
<path d="M23.8262 68.2632V66.708H25.3645V68.2632H23.8262Z" fill="black"/>
<path d="M25.1515 68.2632V66.708H26.6898V68.2632H25.1515Z" fill="black"/>
<path d="M26.3605 68.2632V66.708H26.9758V68.2632H26.3605Z" fill="black"/>
<path d="M26.9543 68.2632V66.708H28.3383V68.2632H26.9543Z" fill="black"/>
<path d="M28.0862 68.2632V66.708H29.1626V68.2632H28.0862Z" fill="black"/>
<path d="M28.9882 68.2632V66.708H30.5265V68.2632H28.9882Z" fill="black"/>
<path d="M30.2743 68.2632V66.708H31.6584V68.2632H30.2743Z" fill="black"/>
<path d="M31.4062 68.2632V66.708H32.9445V68.2632H31.4062Z" fill="black"/>
<path d="M32.6152 68.2632V66.708H33.2305V68.2632H32.6152Z" fill="black"/>
<path d="M7 71.2632V69.708H8.53824V71.2632H7Z" fill="black"/>
<path d="M8.28609 71.2632V69.708H9.36252V71.2632H8.28609Z" fill="black"/>
<path d="M9.34229 71.2632V69.708H10.5722V71.2632H9.34229Z" fill="black"/>
<path d="M10.5513 71.2632V69.708H11.9354V71.2632H10.5513Z" fill="black"/>
<path d="M11.7603 71.2632V69.708H13.2985V71.2632H11.7603Z" fill="black"/>
<path d="M13.1235 71.2632V69.708H13.7388V71.2632H13.1235Z" fill="black"/>
<path d="M13.563 71.2632V69.708H14.6395V71.2632H13.563Z" fill="black"/>
<path d="M14.3109 71.2632V69.708H15.8491V71.2632H14.3109Z" fill="black"/>
<path d="M15.6741 71.2632V69.708H17.2123V71.2632H15.6741Z" fill="black"/>
<path d="M16.8831 71.2632V69.708H17.4984V71.2632H16.8831Z" fill="black"/>
<path d="M17.3226 71.2632V69.708H19.4762V71.2632H17.3226Z" fill="black"/>
<path d="M19.1469 71.2632V69.708H20.6852V71.2632H19.1469Z" fill="black"/>
<path d="M20.5101 71.2632V69.708H21.8942V71.2632H20.5101Z" fill="black"/>
<path d="M21.642 71.2632V69.708H22.2573V71.2632H21.642Z" fill="black"/>
<path d="M22.0816 71.2632V69.708H23.158V71.2632H22.0816Z" fill="black"/>
<path d="M22.8295 71.2632V69.708H24.3677V71.2632H22.8295Z" fill="black"/>
<path d="M24.1926 71.2632V69.708H25.7309V71.2632H24.1926Z" fill="black"/>
<path d="M25.4787 71.2632V69.708H26.5552V71.2632H25.4787Z" fill="black"/>
<path d="M26.2266 71.2632V69.708H26.8419V71.2632H26.2266Z" fill="black"/>
<path d="M26.6662 71.2632V69.708H28.2044V71.2632H26.6662Z" fill="black"/>
<path d="M28.0293 71.2632V69.708H29.5676V71.2632H28.0293Z" fill="black"/>
<path d="M29.2383 71.2632V69.708H30.3148V71.2632H29.2383Z" fill="black"/>
<path d="M30.2945 71.2632V69.708H31.6786V71.2632H30.2945Z" fill="black"/>
<path d="M31.4265 71.2632V69.708H32.0418V71.2632H31.4265Z" fill="black"/>
<path d="M7 74.2632V72.708H8.53824V74.2632H7Z" fill="black"/>
<path d="M8.28609 74.2632V72.708H9.67017V74.2632H8.28609Z" fill="black"/>
<path d="M9.41802 74.2632V72.708H10.9563V74.2632H9.41802Z" fill="black"/>
<path d="M10.7812 74.2632V72.708H11.8576V74.2632H10.7812Z" fill="black"/>
<path d="M11.6832 74.2632V72.708H13.2215V74.2632H11.6832Z" fill="black"/>
<path d="M12.8922 74.2632V72.708H14.2763V74.2632H12.8922Z" fill="black"/>
<path d="M14.1783 74.2632V72.708H15.7166V74.2632H14.1783Z" fill="black"/>
<path d="M15.3873 74.2632V72.708H16.0026V74.2632H15.3873Z" fill="black"/>
<path d="M15.8269 74.2632V72.708H16.9033V74.2632H15.8269Z" fill="black"/>
<path d="M16.5748 74.2632V72.708H18.113V74.2632H16.5748Z" fill="black"/>
<path d="M17.9379 74.2632V72.708H19.4762V74.2632H17.9379Z" fill="black"/>
<path d="M19.1469 74.2632V72.708H19.7622V74.2632H19.1469Z" fill="black"/>
<path d="M19.5865 74.2632V72.708H20.9706V74.2632H19.5865Z" fill="black"/>
<path d="M20.7576 74.2632V72.708H22.2959V74.2632H20.7576Z" fill="black"/>
<path d="M21.9666 74.2632V72.708H23.3507V74.2632H21.9666Z" fill="black"/>
<path d="M23.0986 74.2632V72.708H24.6368V74.2632H23.0986Z" fill="black"/>
<path d="M24.4617 74.2632V72.708H25.8458V74.2632H24.4617Z" fill="black"/>
<path d="M25.5369 74.2632V72.708H26.6133V74.2632H25.5369Z" fill="black"/>
<path d="M26.4389 74.2632V72.708H27.5153V74.2632H26.4389Z" fill="black"/>
<path d="M27.341 74.2632V72.708H28.725V74.2632H27.341Z" fill="black"/>
<path d="M28.4729 74.2632V72.708H29.0882V74.2632H28.4729Z" fill="black"/>
<path d="M7 77.2632V75.708H8.53824V77.2632H7Z" fill="black"/>
<path d="M8.28609 77.2632V75.708H9.67017V77.2632H8.28609Z" fill="black"/>
<path d="M9.45724 77.2632V75.708H10.8413V77.2632H9.45724Z" fill="black"/>
<path d="M10.6284 77.2632V75.708H12.1666V77.2632H10.6284Z" fill="black"/>
<path d="M11.9916 77.2632V75.708H13.3756V77.2632H11.9916Z" fill="black"/>
<path d="M13.0288 77.2632V75.708H14.5671V77.2632H13.0288Z" fill="black"/>
<path d="M14.4691 77.2632V75.708H15.8531V77.2632H14.4691Z" fill="black"/>
<path d="M15.6781 77.2632V75.708H17.0622V77.2632H15.6781Z" fill="black"/>
<path d="M16.81 77.2632V75.708H18.3482V77.2632H16.81Z" fill="black"/>
<path d="M18.019 77.2632V75.708H19.4031V77.2632H18.019Z" fill="black"/>
<path d="M19.1902 77.2632V75.708H19.8055V77.2632H19.1902Z" fill="black"/>
<path d="M19.6297 77.2632V75.708H20.7061V77.2632H19.6297Z" fill="black"/>
<path d="M20.3776 77.2632V75.708H21.9158V77.2632H20.3776Z" fill="black"/>
<path d="M21.7408 77.2632V75.708H23.279V77.2632H21.7408Z" fill="black"/>
<path d="M23.0269 77.2632V75.708H24.1033V77.2632H23.0269Z" fill="black"/>
<path d="M23.7747 77.2632V75.708H24.39V77.2632H23.7747Z" fill="black"/>
<path d="M24.2143 77.2632V75.708H25.2907V77.2632H24.2143Z" fill="black"/>
<path d="M24.9622 77.2632V75.708H26.5004V77.2632H24.9622Z" fill="black"/>
<path d="M26.3253 77.2632V75.708H27.8636V77.2632H26.3253Z" fill="black"/>
<path d="M27.5343 77.2632V75.708H28.1496V77.2632H27.5343Z" fill="black"/>
<path d="M7 80.2632V78.708H8.6924V80.2632H7Z" fill="black"/>
<path d="M8.53627 80.2632V78.708H9.76618V80.2632H8.53627Z" fill="black"/>
<path d="M9.59111 80.2632V78.708H10.9752V80.2632H9.59111Z" fill="black"/>
<path d="M10.6662 80.2632V78.708H11.7427V80.2632H10.6662Z" fill="black"/>
<path d="M11.4141 80.2632V78.708H12.9524V80.2632H11.4141Z" fill="black"/>
<path d="M12.7773 80.2632V78.708H13.3926V80.2632H12.7773Z" fill="black"/>
<path d="M13.2168 80.2632V78.708H14.9092V80.2632H13.2168Z" fill="black"/>
<path d="M14.8113 80.2632V78.708H16.0412V80.2632H14.8113Z" fill="black"/>
<path d="M15.8661 80.2632V78.708H17.2502V80.2632H15.8661Z" fill="black"/>
<path d="M16.9412 80.2632V78.708H18.4795V80.2632H16.9412Z" fill="black"/>
<path d="M18.1502 80.2632V78.708H19.6885V80.2632H18.1502Z" fill="black"/>
<path d="M19.5905 80.2632V78.708H20.9746V80.2632H19.5905Z" fill="black"/>
<path d="M20.7995 80.2632V78.708H22.1836V80.2632H20.7995Z" fill="black"/>
<path d="M21.9707 80.2632V78.708H22.5859V80.2632H21.9707Z" fill="black"/>
<path d="M22.5644 80.2632V78.708H23.9484V80.2632H22.5644Z" fill="black"/>
<path d="M23.7734 80.2632V78.708H25.3116V80.2632H23.7734Z" fill="black"/>
<path d="M24.9824 80.2632V78.708H26.5206V80.2632H24.9824Z" fill="black"/>
<path d="M26.1914 80.2632V78.708H27.7296V80.2632H26.1914Z" fill="black"/>
<path d="M27.4775 80.2632V78.708H28.0928V80.2632H27.4775Z" fill="black"/>
<path d="M27.917 80.2632V78.708H29.4553V80.2632H27.917Z" fill="black"/>
<path d="M29.3573 80.2632V78.708H30.7414V80.2632H29.3573Z" fill="black"/>
<path d="M30.5663 80.2632V78.708H32.1045V80.2632H30.5663Z" fill="black"/>
<path d="M31.8524 80.2632V78.708H32.4677V80.2632H31.8524Z" fill="black"/>
<path d="M7 83.2632V81.708H8.07643V83.2632H7Z" fill="black"/>
<path d="M7.90204 83.2632V81.708H9.90209V83.2632H7.90204Z" fill="black"/>
<path d="M9.95759 83.2632V81.708H11.3417V83.2632H9.95759Z" fill="black"/>
<path d="M11.0895 83.2632V81.708H12.4736V83.2632H11.0895Z" fill="black"/>
<path d="M12.3188 83.2632V81.708H13.5487V83.2632H12.3188Z" fill="black"/>
<path d="M13.3737 83.2632V81.708H14.7577V83.2632H13.3737Z" fill="black"/>
<path d="M14.6597 83.2632V81.708H16.198V83.2632H14.6597Z" fill="black"/>
<path d="M15.8688 83.2632V81.708H17.8688V83.2632H15.8688Z" fill="black"/>
<path d="M17.7701 83.2632V81.708H19.3084V83.2632H17.7701Z" fill="black"/>
<path d="M19.1333 83.2632V81.708H20.5174V83.2632H19.1333Z" fill="black"/>
<path d="M20.3423 83.2632V81.708H21.4188V83.2632H20.3423Z" fill="black"/>
<path d="M21.0902 83.2632V81.708H21.7055V83.2632H21.0902Z" fill="black"/>
<path d="M21.5297 83.2632V81.708H22.6062V83.2632H21.5297Z" fill="black"/>
<path d="M22.5859 83.2632V81.708H23.97V83.2632H22.5859Z" fill="black"/>
<path d="M23.795 83.2632V81.708H24.4103V83.2632H23.795Z" fill="black"/>
<path d="M24.2345 83.2632V81.708H25.3109V83.2632H24.2345Z" fill="black"/>
<path d="M24.9824 83.2632V81.708H26.5206V83.2632H24.9824Z" fill="black"/>
<path d="M26.3456 83.2632V81.708H27.8838V83.2632H26.3456Z" fill="black"/>
<path d="M27.5546 83.2632V81.708H28.1699V83.2632H27.5546Z" fill="black"/>
<path d="M7.15416 86.2632V84.708H8.53824V86.2632H7.15416Z" fill="black"/>
<path d="M8.28609 86.2632V84.708H9.82433V86.2632H8.28609Z" fill="black"/>
<path d="M9.4951 86.2632V84.708H11.0333V86.2632H9.4951Z" fill="black"/>
<path d="M10.7812 86.2632V84.708H12.1653V86.2632H10.7812Z" fill="black"/>
<path d="M11.9131 86.2632V84.708H13.4514V86.2632H11.9131Z" fill="black"/>
<path d="M13.1221 86.2632V84.708H14.3527V86.2632H13.1221Z" fill="black"/>
<path d="M14.0242 86.2632V84.708H15.5624V86.2632H14.0242Z" fill="black"/>
<path d="M15.3873 86.2632V84.708H16.4638V86.2632H15.3873Z" fill="black"/>
<path d="M16.2894 86.2632V84.708H16.9047V86.2632H16.2894Z" fill="black"/>
<path d="M16.7289 86.2632V84.708H18.113V86.2632H16.7289Z" fill="black"/>
<path d="M17.8041 86.2632V84.708H19.3423V86.2632H17.8041Z" fill="black"/>
<path d="M19.0131 86.2632V84.708H20.0895V86.2632H19.0131Z" fill="black"/>
<path d="M19.9151 86.2632V84.708H21.4533V86.2632H19.9151Z" fill="black"/>
<path d="M21.2012 86.2632V84.708H22.2776V86.2632H21.2012Z" fill="black"/>
<path d="M21.9491 86.2632V84.708H23.0255V86.2632H21.9491Z" fill="black"/>
<path d="M23.0053 86.2632V84.708H24.2352V86.2632H23.0053Z" fill="black"/>
<path d="M24.2143 86.2632V84.708H25.5984V86.2632H24.2143Z" fill="black"/>
<path d="M25.4233 86.2632V84.708H26.8074V86.2632H25.4233Z" fill="black"/>
<path d="M26.5944 86.2632V84.708H27.2097V86.2632H26.5944Z" fill="black"/>
<path d="M7.15416 89.2632V87.708H8.53824V89.2632H7.15416Z" fill="black"/>
<path d="M8.20901 89.2632V87.708H9.74725V89.2632H8.20901Z" fill="black"/>
<path d="M9.41802 89.2632V87.708H10.4944V89.2632H9.41802Z" fill="black"/>
<path d="M10.1659 89.2632V87.708H12.3194V89.2632H10.1659Z" fill="black"/>
<path d="M12.0673 89.2632V87.708H13.6055V89.2632H12.0673Z" fill="black"/>
<path d="M13.2763 89.2632V87.708H14.8145V89.2632H13.2763Z" fill="black"/>
<path d="M14.6395 89.2632V87.708H16.0235V89.2632H14.6395Z" fill="black"/>
<path d="M15.8485 89.2632V87.708H16.4638V89.2632H15.8485Z" fill="black"/>
<path d="M16.4422 89.2632V87.708H17.6721V89.2632H16.4422Z" fill="black"/>
<path d="M17.497 89.2632V87.708H19.0353V89.2632H17.497Z" fill="black"/>
<path d="M18.8602 89.2632V87.708H20.2443V89.2632H18.8602Z" fill="black"/>
<path d="M19.9353 89.2632V87.708H20.5506V89.2632H19.9353Z" fill="black"/>
<path d="M20.3749 89.2632V87.708H21.4513V89.2632H20.3749Z" fill="black"/>
<path d="M21.1228 89.2632V87.708H23.2763V89.2632H21.1228Z" fill="black"/>
<path d="M23.1783 89.2632V87.708H24.4082V89.2632H23.1783Z" fill="black"/>
<path d="M24.2332 89.2632V87.708H24.8485V89.2632H24.2332Z" fill="black"/>
<path d="M7 92.2632V90.708H8.38408V92.2632H7Z" fill="black"/>
<path d="M8.28609 92.2632V90.708H9.51601V92.2632H8.28609Z" fill="black"/>
<path d="M9.34094 92.2632V90.708H10.8792V92.2632H9.34094Z" fill="black"/>
<path d="M10.8583 92.2632V90.708H12.2423V92.2632H10.8583Z" fill="black"/>
<path d="M12.0673 92.2632V90.708H13.1437V92.2632H12.0673Z" fill="black"/>
<path d="M12.8152 92.2632V90.708H14.1992V92.2632H12.8152Z" fill="black"/>
<path d="M13.8903 92.2632V90.708H14.9667V92.2632H13.8903Z" fill="black"/>
<path d="M14.7923 92.2632V90.708H16.3306V92.2632H14.7923Z" fill="black"/>
<path d="M16.0013 92.2632V90.708H17.3854V92.2632H16.0013Z" fill="black"/>
<path d="M17.1725 92.2632V90.708H17.7878V92.2632H17.1725Z" fill="black"/>
<path d="M17.612 92.2632V90.708H19.1503V92.2632H17.612Z" fill="black"/>
<path d="M18.8981 92.2632V90.708H20.4364V92.2632H18.8981Z" fill="black"/>
<path d="M20.2613 92.2632V90.708H21.6454V92.2632H20.2613Z" fill="black"/>
<path d="M21.3364 92.2632V90.708H22.4129V92.2632H21.3364Z" fill="black"/>
<path d="M22.3926 92.2632V90.708H23.7767V92.2632H22.3926Z" fill="black"/>
<path d="M23.6016 92.2632V90.708H25.1399V92.2632H23.6016Z" fill="black"/>
<path d="M24.9648 92.2632V90.708H25.5801V92.2632H24.9648Z" fill="black"/>
<path d="M25.4044 92.2632V90.708H26.4808V92.2632H25.4044Z" fill="black"/>
<path d="M26.1522 92.2632V90.708H27.6905V92.2632H26.1522Z" fill="black"/>
<path d="M27.5154 92.2632V90.708H29.0536V92.2632H27.5154Z" fill="black"/>
<path d="M28.7244 92.2632V90.708H29.3397V92.2632H28.7244Z" fill="black"/>
<path d="M7 95.2632V93.708H8.07643V95.2632H7Z" fill="black"/>
<path d="M7.74788 95.2632V93.708H8.82431V95.2632H7.74788Z" fill="black"/>
<path d="M8.64991 95.2632V93.708H10.65V95.2632H8.64991Z" fill="black"/>
<path d="M10.5513 95.2632V93.708H12.0895V95.2632H10.5513Z" fill="black"/>
<path d="M11.7603 95.2632V93.708H12.3756V95.2632H11.7603Z" fill="black"/>
<path d="M12.1999 95.2632V93.708H13.2763V95.2632H12.1999Z" fill="black"/>
<path d="M12.9477 95.2632V93.708H14.486V95.2632H12.9477Z" fill="black"/>
<path d="M14.3109 95.2632V93.708H15.8491V95.2632H14.3109Z" fill="black"/>
<path d="M15.597 95.2632V93.708H16.6734V95.2632H15.597Z" fill="black"/>
<path d="M16.3449 95.2632V93.708H16.9602V95.2632H16.3449Z" fill="black"/>
<path d="M7 98.2632V96.708H8.53824V98.2632H7Z" fill="black"/>
<path d="M8.28609 98.2632V96.708H9.82433V98.2632H8.28609Z" fill="black"/>
<path d="M9.64926 98.2632V96.708H11.0333V98.2632H9.64926Z" fill="black"/>
<path d="M10.8583 98.2632V96.708H12.3965V98.2632H10.8583Z" fill="black"/>
<path d="M12.2214 98.2632V96.708H13.6055V98.2632H12.2214Z" fill="black"/>
<path d="M13.3534 98.2632V96.708H14.4298V98.2632H13.3534Z" fill="black"/>
<path d="M14.2554 98.2632V96.708H15.7936V98.2632H14.2554Z" fill="black"/>
<path d="M15.4644 98.2632V96.708H17.0027V98.2632H15.4644Z" fill="black"/>
<path d="M16.7505 98.2632V96.708H18.1346V98.2632H16.7505Z" fill="black"/>
<path d="M17.8256 98.2632V96.708H18.9021V98.2632H17.8256Z" fill="black"/>
<path d="M18.8818 98.2632V96.708H20.1118V98.2632H18.8818Z" fill="black"/>
<path d="M19.8407 98.2632V96.708H21.3789V98.2632H19.8407Z" fill="black"/>
<path d="M21.1268 98.2632V96.708H22.2032V98.2632H21.1268Z" fill="black"/>
<path d="M21.8746 98.2632V96.708H22.9511V98.2632H21.8746Z" fill="black"/>
<path d="M22.9308 98.2632V96.708H24.1608V98.2632H22.9308Z" fill="black"/>
<path d="M24.1398 98.2632V96.708H25.5239V98.2632H24.1398Z" fill="black"/>
<path d="M25.3489 98.2632V96.708H25.9642V98.2632H25.3489Z" fill="black"/>
<path d="M25.7884 98.2632V96.708H26.8648V98.2632H25.7884Z" fill="black"/>
<path d="M26.6904 98.2632V96.708H28.0745V98.2632H26.6904Z" fill="black"/>
<path d="M27.8616 98.2632V96.708H28.4769V98.2632H27.8616Z" fill="black"/>
<path d="M7 101.263V99.708H8.07643V101.263H7Z" fill="black"/>
<path d="M7.74788 101.263V99.708H9.28612V101.263H7.74788Z" fill="black"/>
<path d="M9.03397 101.263V99.708H10.5722V101.263H9.03397Z" fill="black"/>
<path d="M10.3593 101.263V99.708H11.4357V101.263H10.3593Z" fill="black"/>
<path d="M11.4155 101.263V99.708H12.7996V101.263H11.4155Z" fill="black"/>
<path d="M12.6245 101.263V99.708H14.1627V101.263H12.6245Z" fill="black"/>
<path d="M13.9877 101.263V99.708H14.6029V101.263H13.9877Z" fill="black"/>
<path d="M14.5814 101.263V99.708H15.9654V101.263H14.5814Z" fill="black"/>
<path d="M15.7133 101.263V99.708H16.7897V101.263H15.7133Z" fill="black"/>
<path d="M16.6153 101.263V99.708H18.1536V101.263H16.6153Z" fill="black"/>
<path d="M17.9014 101.263V99.708H19.2855V101.263H17.9014Z" fill="black"/>
<path d="M19.0334 101.263V99.708H20.5716V101.263H19.0334Z" fill="black"/>
<path d="M20.2424 101.263V99.708H21.0111V101.263H20.2424Z" fill="black"/>
<path d="M20.759 101.263V99.708H21.5278V101.263H20.759Z" fill="black"/>
</g>
<rect width="12" height="14" transform="translate(26 18.708)" fill="white"/>
<path d="M32.4307 23.7266C32.141 23.7266 31.8838 23.7835 31.6592 23.8975C31.4378 24.0081 31.2507 24.1693 31.0977 24.3809C30.9479 24.5924 30.834 24.848 30.7559 25.1475C30.6777 25.4469 30.6387 25.7839 30.6387 26.1582C30.6387 26.6628 30.7005 27.0941 30.8242 27.4521C30.9512 27.807 31.1465 28.0788 31.4102 28.2676C31.6738 28.4531 32.014 28.5459 32.4307 28.5459C32.7204 28.5459 33.0101 28.5133 33.2998 28.4482C33.5928 28.3831 33.9102 28.2904 34.252 28.1699V29.4395C33.9362 29.5697 33.6253 29.6624 33.3193 29.7178C33.0133 29.7764 32.6699 29.8057 32.2891 29.8057C31.5534 29.8057 30.9479 29.6543 30.4727 29.3516C30.0007 29.0456 29.6507 28.6191 29.4229 28.0723C29.195 27.5221 29.0811 26.8809 29.0811 26.1484C29.0811 25.6081 29.1543 25.1133 29.3008 24.6641C29.4473 24.2148 29.6621 23.8258 29.9453 23.4971C30.2285 23.1683 30.5785 22.9144 30.9951 22.7354C31.4118 22.5563 31.8903 22.4668 32.4307 22.4668C32.7855 22.4668 33.1403 22.5124 33.4951 22.6035C33.8532 22.6914 34.195 22.8135 34.5205 22.9697L34.0322 24.2002C33.7653 24.0732 33.4967 23.9626 33.2266 23.8682C32.9564 23.7738 32.6911 23.7266 32.4307 23.7266Z" fill="#585858"/>
</g>
<rect x="1" y="0.708008" width="39" height="35" stroke="#364B60"/>
<path d="M12.3333 38.708H3V45.0561H12.3333V38.708Z" fill="#E19E55"/>
<path d="M22.6663 38.708H13.333V45.0561H22.6663V38.708Z" fill="#7FA4CA"/>
<path d="M33.0003 38.708H23.667V45.0561H33.0003V38.708Z" fill="#E5592D"/>
<defs>
<filter id="filter0_i_238_44288" x="3" y="-2.29199" width="35" height="34" filterUnits="userSpaceOnUse" color-interpolation-filters="sRGB">
<feFlood flood-opacity="0" result="BackgroundImageFix"/>
<feBlend mode="normal" in="SourceGraphic" in2="BackgroundImageFix" result="shape"/>
<feColorMatrix in="SourceAlpha" type="matrix" values="0 0 0 0 0 0 0 0 0 0 0 0 0 0 0 0 0 0 127 0" result="hardAlpha"/>
<feOffset dy="-5"/>
<feGaussianBlur stdDeviation="3.5"/>
<feComposite in2="hardAlpha" operator="arithmetic" k2="-1" k3="1"/>
<feColorMatrix type="matrix" values="0 0 0 0 1 0 0 0 0 1 0 0 0 0 1 0 0 0 1 0"/>
<feBlend mode="normal" in2="shape" result="effect1_innerShadow_238_44288"/>
</filter>
<clipPath id="clip0_238_44288">
<rect width="35" height="31" fill="white" transform="translate(3 2.70801)"/>
</clipPath>
<clipPath id="clip1_238_44288">
<rect width="35" height="29" fill="white" transform="translate(3 2.70801)"/>
</clipPath>
</defs>
</svg>
