<svg width="39" height="47" viewBox="0 0 39 47" fill="none" xmlns="http://www.w3.org/2000/svg">
<g clip-path="url(#clip0_238_44222)">
<g clip-path="url(#clip1_238_44222)" filter="url(#filter0_d_238_44222)">
<rect width="35" height="31" transform="translate(2 2.28809)" fill="white"/>
<g opacity="0.3" filter="url(#filter1_i_238_44222)">
<rect width="35" height="29" transform="translate(2 2.28809)" fill="white"/>
<path d="M6 7.84326V6.28809H6.76932V7.84326H6Z" fill="black"/>
<path d="M6.7484 7.84326V6.28809H8.90345V7.84326H6.7484Z" fill="black"/>
<path d="M8.68901 7.84326V6.28809H10.2283V7.84326H8.68901Z" fill="black"/>
<path d="M9.89887 7.84326V6.28809H10.5146V7.84326H9.89887Z" fill="black"/>
<path d="M10.3387 7.84326V6.28809H11.878V7.84326H10.3387Z" fill="black"/>
<path d="M11.7029 7.84326V6.28809H13.2422V7.84326H11.7029Z" fill="black"/>
<path d="M12.9127 7.84326V6.28809H14.2978V7.84326H12.9127Z" fill="black"/>
<path d="M14.1997 7.84326V6.28809H15.739V7.84326H14.1997Z" fill="black"/>
<path d="M15.4096 7.84326V6.28809H16.0253V7.84326H15.4096Z" fill="black"/>
<path d="M16.0037 7.84326V6.28809H17.3887V7.84326H16.0037Z" fill="black"/>
<path d="M17.0593 7.84326V6.28809H18.5986V7.84326H17.0593Z" fill="black"/>
<path d="M18.2691 7.84326V6.28809H19.8085V7.84326H18.2691Z" fill="black"/>
<path d="M19.6333 7.84326V6.28809H21.0183V7.84326H19.6333Z" fill="black"/>
<path d="M20.8431 7.84326V6.28809H21.4589V7.84326H20.8431Z" fill="black"/>
<path d="M21.283 7.84326V6.28809H22.668V7.84326H21.283Z" fill="black"/>
<path d="M22.4157 7.84326V6.28809H23.4929V7.84326H22.4157Z" fill="black"/>
<path d="M23.3184 7.84326V6.28809H24.8577V7.84326H23.3184Z" fill="black"/>
<path d="M24.5282 7.84326V6.28809H26.0676V7.84326H24.5282Z" fill="black"/>
<path d="M25.8152 7.84326V6.28809H27.2003V7.84326H25.8152Z" fill="black"/>
<path d="M26.8911 7.84326V6.28809H27.5068V7.84326H26.8911Z" fill="black"/>
<path d="M27.331 7.84326V6.28809H28.4082V7.84326H27.331Z" fill="black"/>
<path d="M28.0794 7.84326V6.28809H29.6187V7.84326H28.0794Z" fill="black"/>
<path d="M29.4435 7.84326V6.28809H30.9828V7.84326H29.4435Z" fill="black"/>
<path d="M30.7305 7.84326V6.28809H31.8077V7.84326H30.7305Z" fill="black"/>
<path d="M31.4789 7.84326V6.28809H32.0946V7.84326H31.4789Z" fill="black"/>
<path d="M6 10.8433V9.28809H7.53932V10.8433H6Z" fill="black"/>
<path d="M7.28699 10.8433V9.28809H8.36418V10.8433H7.28699Z" fill="black"/>
<path d="M8.18966 10.8433V9.28809H9.26685V10.8433H8.18966Z" fill="black"/>
<path d="M9.09233 10.8433V9.28809H9.70806V10.8433H9.09233Z" fill="black"/>
<path d="M9.68646 10.8433V9.28809H10.9172V10.8433H9.68646Z" fill="black"/>
<path d="M10.8963 10.8433V9.28809H12.2814V10.8433H10.8963Z" fill="black"/>
<path d="M12.029 10.8433V9.28809H13.1062V10.8433H12.029Z" fill="black"/>
<path d="M12.7774 10.8433V9.28809H13.8546V10.8433H12.7774Z" fill="black"/>
<path d="M13.8344 10.8433V9.28809H15.0652V10.8433H13.8344Z" fill="black"/>
<path d="M15.0442 10.8433V9.28809H16.4293V10.8433H15.0442Z" fill="black"/>
<path d="M16.2541 10.8433V9.28809H17.6391V10.8433H16.2541Z" fill="black"/>
<path d="M17.4261 10.8433V9.28809H18.0418V10.8433H17.4261Z" fill="black"/>
<path d="M17.8659 10.8433V9.28809H19.251V10.8433H17.8659Z" fill="black"/>
<path d="M18.9418 10.8433V9.28809H20.4811V10.8433H18.9418Z" fill="black"/>
<path d="M20.1517 10.8433V9.28809H22.1531V10.8433H20.1517Z" fill="black"/>
<path d="M22.0544 10.8433V9.28809H23.5937V10.8433H22.0544Z" fill="black"/>
<path d="M23.3414 10.8433V9.28809H24.4186V10.8433H23.3414Z" fill="black"/>
<path d="M24.3983 10.8433V9.28809H25.7834V10.8433H24.3983Z" fill="black"/>
<path d="M25.6082 10.8433V9.28809H26.2239V10.8433H25.6082Z" fill="black"/>
<path d="M26.2023 10.8433V9.28809H27.4331V10.8433H26.2023Z" fill="black"/>
<path d="M27.4122 10.8433V9.28809H28.7972V10.8433H27.4122Z" fill="black"/>
<path d="M28.622 10.8433V9.28809H29.2378V10.8433H28.622Z" fill="black"/>
<path d="M29.0619 10.8433V9.28809H30.1391V10.8433H29.0619Z" fill="black"/>
<path d="M29.8103 10.8433V9.28809H31.3496V10.8433H29.8103Z" fill="black"/>
<path d="M31.1744 10.8433V9.28809H32.7137V10.8433H31.1744Z" fill="black"/>
<path d="M32.3843 10.8433V9.28809H33V10.8433H32.3843Z" fill="black"/>
<path d="M6 13.8433V12.2881H7.07719V13.8433H6Z" fill="black"/>
<path d="M6.7484 13.8433V12.2881H8.28772V13.8433H6.7484Z" fill="black"/>
<path d="M8.18966 13.8433V12.2881H9.57471V13.8433H8.18966Z" fill="black"/>
<path d="M9.24525 13.8433V12.2881H10.3224V13.8433H9.24525Z" fill="black"/>
<path d="M10.1479 13.8433V12.2881H11.6872V13.8433H10.1479Z" fill="black"/>
<path d="M11.3578 13.8433V12.2881H11.9735V13.8433H11.3578Z" fill="black"/>
<path d="M11.7976 13.8433V12.2881H12.8748V13.8433H11.7976Z" fill="black"/>
<path d="M12.8546 13.8433V12.2881H14.2396V13.8433H12.8546Z" fill="black"/>
<path d="M14.0644 13.8433V12.2881H14.6802V13.8433H14.0644Z" fill="black"/>
<path d="M14.5043 13.8433V12.2881H15.5815V13.8433H14.5043Z" fill="black"/>
<path d="M15.2527 13.8433V12.2881H16.792V13.8433H15.2527Z" fill="black"/>
<path d="M16.6168 13.8433V12.2881H18.1561V13.8433H16.6168Z" fill="black"/>
<path d="M17.8267 13.8433V12.2881H18.4424V13.8433H17.8267Z" fill="black"/>
<path d="M18.2665 13.8433V12.2881H19.8059V13.8433H18.2665Z" fill="black"/>
<path d="M19.5535 13.8433V12.2881H21.0929V13.8433H19.5535Z" fill="black"/>
<path d="M20.7634 13.8433V12.2881H21.9948V13.8433H20.7634Z" fill="black"/>
<path d="M21.6661 13.8433V12.2881H23.2054V13.8433H21.6661Z" fill="black"/>
<path d="M23.0302 13.8433V12.2881H24.4152V13.8433H23.0302Z" fill="black"/>
<path d="M24.24 13.8433V12.2881H25.6251V13.8433H24.24Z" fill="black"/>
<path d="M25.412 13.8433V12.2881H26.9513V13.8433H25.412Z" fill="black"/>
<path d="M26.6219 13.8433V12.2881H27.2376V13.8433H26.6219Z" fill="black"/>
<path d="M27.216 13.8433V12.2881H28.4468V13.8433H27.216Z" fill="black"/>
<path d="M28.2716 13.8433V12.2881H29.503V13.8433H28.2716Z" fill="black"/>
<path d="M29.1743 13.8433V12.2881H29.79V13.8433H29.1743Z" fill="black"/>
<path d="M6.15427 16.8433V15.2881H7.38505V16.8433H6.15427Z" fill="black"/>
<path d="M7.20986 16.8433V15.2881H8.74918V16.8433H7.20986Z" fill="black"/>
<path d="M8.57399 16.8433V15.2881H9.95903V16.8433H8.57399Z" fill="black"/>
<path d="M9.64987 16.8433V15.2881H10.2656V16.8433H9.64987Z" fill="black"/>
<path d="M10.244 16.8433V15.2881H11.6291V16.8433H10.244Z" fill="black"/>
<path d="M11.4539 16.8433V15.2881H12.9932V16.8433H11.4539Z" fill="black"/>
<path d="M12.7409 16.8433V15.2881H13.818V16.8433H12.7409Z" fill="black"/>
<path d="M13.4893 16.8433V15.2881H14.5664V16.8433H13.4893Z" fill="black"/>
<path d="M14.5462 16.8433V15.2881H15.777V16.8433H14.5462Z" fill="black"/>
<path d="M15.7561 16.8433V15.2881H17.1411V16.8433H15.7561Z" fill="black"/>
<path d="M16.9659 16.8433V15.2881H17.7352V16.8433H16.9659Z" fill="black"/>
<path d="M17.4829 16.8433V15.2881H18.0986V16.8433H17.4829Z" fill="black"/>
<path d="M18.077 16.8433V15.2881H19.4621V16.8433H18.077Z" fill="black"/>
<path d="M19.1326 16.8433V15.2881H20.6719V16.8433H19.1326Z" fill="black"/>
<path d="M20.4967 16.8433V15.2881H21.5739V16.8433H20.4967Z" fill="black"/>
<path d="M21.2451 16.8433V15.2881H21.8609V16.8433H21.2451Z" fill="black"/>
<path d="M21.685 16.8433V15.2881H23.8401V16.8433H21.685Z" fill="black"/>
<path d="M23.5877 16.8433V15.2881H25.127V16.8433H23.5877Z" fill="black"/>
<path d="M24.7976 16.8433V15.2881H25.4133V16.8433H24.7976Z" fill="black"/>
<path d="M25.2374 16.8433V15.2881H26.7768V16.8433H25.2374Z" fill="black"/>
<path d="M26.6787 16.8433V15.2881H27.9095V16.8433H26.6787Z" fill="black"/>
<path d="M27.7343 16.8433V15.2881H28.35V16.8433H27.7343Z" fill="black"/>
<path d="M28.3284 16.8433V15.2881H29.7135V16.8433H28.3284Z" fill="black"/>
<path d="M29.6926 16.8433V15.2881H30.9233V16.8433H29.6926Z" fill="black"/>
<path d="M30.7481 16.8433V15.2881H31.8253V16.8433H30.7481Z" fill="black"/>
<path d="M31.4965 16.8433V15.2881H32.1123V16.8433H31.4965Z" fill="black"/>
<path d="M6 19.8433V18.2881H7.38505V19.8433H6Z" fill="black"/>
<path d="M7.17197 19.8433V18.2881H8.71129V19.8433H7.17197Z" fill="black"/>
<path d="M8.38182 19.8433V18.2881H9.92114V19.8433H8.38182Z" fill="black"/>
<path d="M9.59168 19.8433V18.2881H11.131V19.8433H9.59168Z" fill="black"/>
<path d="M10.9179 19.8433V18.2881H11.6872V19.8433H10.9179Z" fill="black"/>
<path d="M11.4349 19.8433V18.2881H12.0506V19.8433H11.4349Z" fill="black"/>
<path d="M12.029 19.8433V18.2881H13.4141V19.8433H12.029Z" fill="black"/>
<path d="M13.3932 19.8433V18.2881H14.624V19.8433H13.3932Z" fill="black"/>
<path d="M14.4488 19.8433V18.2881H15.8338V19.8433H14.4488Z" fill="black"/>
<path d="M15.5246 19.8433V18.2881H16.1404V19.8433H15.5246Z" fill="black"/>
<path d="M15.9645 19.8433V18.2881H17.5038V19.8433H15.9645Z" fill="black"/>
<path d="M17.4058 19.8433V18.2881H18.6365V19.8433H17.4058Z" fill="black"/>
<path d="M18.4614 19.8433V18.2881H19.0771V19.8433H18.4614Z" fill="black"/>
<path d="M18.9012 19.8433V18.2881H21.0563V19.8433H18.9012Z" fill="black"/>
<path d="M20.8039 19.8433V18.2881H22.3433V19.8433H20.8039Z" fill="black"/>
<path d="M22.0138 19.8433V18.2881H22.6295V19.8433H22.0138Z" fill="black"/>
<path d="M22.4537 19.8433V18.2881H24.6087V19.8433H22.4537Z" fill="black"/>
<path d="M24.2792 19.8433V18.2881H25.8186V19.8433H24.2792Z" fill="black"/>
<path d="M25.7205 19.8433V18.2881H27.1056V19.8433H25.7205Z" fill="black"/>
<path d="M26.9304 19.8433V18.2881H28.0075V19.8433H26.9304Z" fill="black"/>
<path d="M27.6788 19.8433V18.2881H28.4481V19.8433H27.6788Z" fill="black"/>
<path d="M28.1958 19.8433V18.2881H28.8115V19.8433H28.1958Z" fill="black"/>
<path d="M6 22.8433V21.2881H8.15505V22.8433H6Z" fill="black"/>
<path d="M7.82559 22.8433V21.2881H9.3649V22.8433H7.82559Z" fill="black"/>
<path d="M9.11258 22.8433V21.2881H10.4976V22.8433H9.11258Z" fill="black"/>
<path d="M10.1885 22.8433V21.2881H10.8042V22.8433H10.1885Z" fill="black"/>
<path d="M10.6283 22.8433V21.2881H12.7834V22.8433H10.6283Z" fill="black"/>
<path d="M12.531 22.8433V21.2881H13.6082V22.8433H12.531Z" fill="black"/>
<path d="M13.4337 22.8433V21.2881H14.5109V22.8433H13.4337Z" fill="black"/>
<path d="M14.1821 22.8433V21.2881H15.7214V22.8433H14.1821Z" fill="black"/>
<path d="M15.5462 22.8433V21.2881H16.162V22.8433H15.5462Z" fill="black"/>
<path d="M15.9861 22.8433V21.2881H17.6797V22.8433H15.9861Z" fill="black"/>
<path d="M17.5234 22.8433V21.2881H18.7542V22.8433H17.5234Z" fill="black"/>
<path d="M18.579 22.8433V21.2881H19.9641V22.8433H18.579Z" fill="black"/>
<path d="M19.6549 22.8433V21.2881H20.7321V22.8433H19.6549Z" fill="black"/>
<path d="M20.4033 22.8433V21.2881H21.9426V22.8433H20.4033Z" fill="black"/>
<path d="M21.7674 22.8433V21.2881H22.3832V22.8433H21.7674Z" fill="black"/>
<path d="M22.2073 22.8433V21.2881H23.9009V22.8433H22.2073Z" fill="black"/>
<path d="M23.8028 22.8433V21.2881H25.0336V22.8433H23.8028Z" fill="black"/>
<path d="M24.8584 22.8433V21.2881H26.2435V22.8433H24.8584Z" fill="black"/>
<path d="M25.9343 22.8433V21.2881H27.4736V22.8433H25.9343Z" fill="black"/>
<path d="M27.1442 22.8433V21.2881H28.6835V22.8433H27.1442Z" fill="black"/>
<path d="M28.4312 22.8433V21.2881H29.2005V22.8433H28.4312Z" fill="black"/>
<path d="M28.9482 22.8433V21.2881H29.7175V22.8433H28.9482Z" fill="black"/>
<path d="M6.30786 7.73867H31.7861V7.8084H6.30786V7.73867ZM6.30786 10.7387H32.6921V10.8084H6.30786V10.7387ZM6.30786 13.7387H29.4814V13.8084H6.30786V13.7387ZM6.30786 16.7387H31.8037V16.8084H6.30786V16.7387ZM6.30786 19.7387H28.5036V19.8084H6.30786V19.7387ZM6.30786 22.7387H29.9056V22.8084H6.30786V22.7387Z" fill="black"/>
</g>
<rect width="12" height="14" transform="translate(25 18.2881)" fill="white"/>
<path d="M31.4307 23.3066C31.141 23.3066 30.8838 23.3636 30.6592 23.4775C30.4378 23.5882 30.2507 23.7493 30.0977 23.9609C29.9479 24.1725 29.834 24.4281 29.7559 24.7275C29.6777 25.027 29.6387 25.3639 29.6387 25.7383C29.6387 26.2428 29.7005 26.6742 29.8242 27.0322C29.9512 27.387 30.1465 27.6589 30.4102 27.8477C30.6738 28.0332 31.014 28.126 31.4307 28.126C31.7204 28.126 32.0101 28.0934 32.2998 28.0283C32.5928 27.9632 32.9102 27.8704 33.252 27.75V29.0195C32.9362 29.1497 32.6253 29.2425 32.3193 29.2979C32.0133 29.3564 31.6699 29.3857 31.2891 29.3857C30.5534 29.3857 29.9479 29.2344 29.4727 28.9316C29.0007 28.6257 28.6507 28.1992 28.4229 27.6523C28.195 27.1022 28.0811 26.4609 28.0811 25.7285C28.0811 25.1882 28.1543 24.6934 28.3008 24.2441C28.4473 23.7949 28.6621 23.4059 28.9453 23.0771C29.2285 22.7484 29.5785 22.4945 29.9951 22.3154C30.4118 22.1364 30.8903 22.0469 31.4307 22.0469C31.7855 22.0469 32.1403 22.0924 32.4951 22.1836C32.8532 22.2715 33.195 22.3936 33.5205 22.5498L33.0322 23.7803C32.7653 23.6533 32.4967 23.5426 32.2266 23.4482C31.9564 23.3538 31.6911 23.3066 31.4307 23.3066Z" fill="#585858"/>
</g>
<path d="M11.3333 38.2881H2V44.6362H11.3333V38.2881Z" fill="#E1C278"/>
</g>
<defs>
<filter id="filter0_d_238_44222" x="0" y="1.28809" width="39" height="35" filterUnits="userSpaceOnUse" color-interpolation-filters="sRGB">
<feFlood flood-opacity="0" result="BackgroundImageFix"/>
<feColorMatrix in="SourceAlpha" type="matrix" values="0 0 0 0 0 0 0 0 0 0 0 0 0 0 0 0 0 0 127 0" result="hardAlpha"/>
<feOffset dy="1"/>
<feGaussianBlur stdDeviation="1"/>
<feComposite in2="hardAlpha" operator="out"/>
<feColorMatrix type="matrix" values="0 0 0 0 0 0 0 0 0 0 0 0 0 0 0 0 0 0 0.1 0"/>
<feBlend mode="normal" in2="BackgroundImageFix" result="effect1_dropShadow_238_44222"/>
<feBlend mode="normal" in="SourceGraphic" in2="effect1_dropShadow_238_44222" result="shape"/>
</filter>
<filter id="filter1_i_238_44222" x="2" y="-2.71191" width="35" height="34" filterUnits="userSpaceOnUse" color-interpolation-filters="sRGB">
<feFlood flood-opacity="0" result="BackgroundImageFix"/>
<feBlend mode="normal" in="SourceGraphic" in2="BackgroundImageFix" result="shape"/>
<feColorMatrix in="SourceAlpha" type="matrix" values="0 0 0 0 0 0 0 0 0 0 0 0 0 0 0 0 0 0 127 0" result="hardAlpha"/>
<feOffset dy="-5"/>
<feGaussianBlur stdDeviation="3.5"/>
<feComposite in2="hardAlpha" operator="arithmetic" k2="-1" k3="1"/>
<feColorMatrix type="matrix" values="0 0 0 0 1 0 0 0 0 1 0 0 0 0 1 0 0 0 1 0"/>
<feBlend mode="normal" in2="shape" result="effect1_innerShadow_238_44222"/>
</filter>
<clipPath id="clip0_238_44222">
<rect width="39" height="46.3481" fill="white" transform="translate(0 0.288086)"/>
</clipPath>
<clipPath id="clip1_238_44222">
<rect width="35" height="31" fill="white" transform="translate(2 2.28809)"/>
</clipPath>
</defs>
</svg>
