<svg width="39" height="47" viewBox="0 0 39 47" fill="none" xmlns="http://www.w3.org/2000/svg">
<g clip-path="url(#clip0_238_44211)">
<g clip-path="url(#clip1_238_44211)" filter="url(#filter0_d_238_44211)">
<rect width="35" height="31" transform="translate(2 2.38477)" fill="white"/>
<g opacity="0.3" clip-path="url(#clip2_238_44211)" filter="url(#filter1_i_238_44211)">
<rect width="35" height="29" transform="translate(2 2.38477)" fill="white"/>
<path d="M6 7.93994V6.38477H6.77531V7.93994H6Z" fill="black"/>
<path d="M6.59875 7.93994V6.38477H8.15005V7.93994H6.59875Z" fill="black"/>
<path d="M7.97349 7.93994V6.38477H9.52479V7.93994H7.97349Z" fill="black"/>
<path d="M9.34824 7.93994V6.38477H10.7441V7.93994H9.34824Z" fill="black"/>
<path d="M10.4325 7.93994V6.38477H11.053V7.93994H10.4325Z" fill="black"/>
<path d="M10.8758 7.93994V6.38477H12.4271V7.93994H10.8758Z" fill="black"/>
<path d="M12.406 7.93994V6.38477H13.6463V7.93994H12.406Z" fill="black"/>
<path d="M13.4698 7.93994V6.38477H15.0211V7.93994H13.4698Z" fill="black"/>
<path d="M14.7668 7.93994V6.38477H15.8524V7.93994H14.7668Z" fill="black"/>
<path d="M15.6765 7.93994V6.38477H16.297V7.93994H15.6765Z" fill="black"/>
<path d="M16.1198 7.93994V6.38477H17.2053V7.93994H16.1198Z" fill="black"/>
<path d="M17.0295 7.93994V6.38477H18.4253V7.93994H17.0295Z" fill="black"/>
<path d="M18.2105 7.93994V6.38477H18.8311V7.93994H18.2105Z" fill="black"/>
<path d="M18.8093 7.93994V6.38477H20.2051V7.93994H18.8093Z" fill="black"/>
<path d="M20.184 7.93994V6.38477H21.4244V7.93994H20.184Z" fill="black"/>
<path d="M21.2478 7.93994V6.38477H22.3334V7.93994H21.2478Z" fill="black"/>
<path d="M22.0021 7.93994V6.38477H22.6226V7.93994H22.0021Z" fill="black"/>
<path d="M22.4454 7.93994V6.38477H23.8412V7.93994H22.4454Z" fill="black"/>
<path d="M23.5296 7.93994V6.38477H25.0809V7.93994H23.5296Z" fill="black"/>
<path d="M24.7489 7.93994V6.38477H26.3002V7.93994H24.7489Z" fill="black"/>
<path d="M26.1236 7.93994V6.38477H27.2092V7.93994H26.1236Z" fill="black"/>
<path d="M27.0333 7.93994V6.38477H29.0503V7.93994H27.0333Z" fill="black"/>
<path d="M28.9508 7.93994V6.38477H30.5021V7.93994H28.9508Z" fill="black"/>
<path d="M30.1701 7.93994V6.38477H30.7906V7.93994H30.1701Z" fill="black"/>
<path d="M6 10.9399V9.38477H7.39583V10.9399H6Z" fill="black"/>
<path d="M7.14154 10.9399V9.38477H8.69283V10.9399H7.14154Z" fill="black"/>
<path d="M8.51628 10.9399V9.38477H10.0676V10.9399H8.51628Z" fill="black"/>
<path d="M9.96875 10.9399V9.38477H11.3646V10.9399H9.96875Z" fill="black"/>
<path d="M11.188 10.9399V9.38477H12.7393V10.9399H11.188Z" fill="black"/>
<path d="M12.5628 10.9399V9.38477H14.1141V10.9399H12.5628Z" fill="black"/>
<path d="M13.782 10.9399V9.38477H14.5573V10.9399H13.782Z" fill="black"/>
<path d="M14.3031 10.9399V9.38477H14.9236V10.9399H14.3031Z" fill="black"/>
<path d="M14.7463 10.9399V9.38477H16.4531V10.9399H14.7463Z" fill="black"/>
<path d="M16.2956 10.9399V9.38477H17.536V10.9399H16.2956Z" fill="black"/>
<path d="M17.3594 10.9399V9.38477H18.7553V10.9399H17.3594Z" fill="black"/>
<path d="M18.4437 10.9399V9.38477H19.0642V10.9399H18.4437Z" fill="black"/>
<path d="M18.887 10.9399V9.38477H20.4383V10.9399H18.887Z" fill="black"/>
<path d="M20.3395 10.9399V9.38477H21.5798V10.9399H20.3395Z" fill="black"/>
<path d="M21.4033 10.9399V9.38477H22.0238V10.9399H21.4033Z" fill="black"/>
<path d="M21.8465 10.9399V9.38477H24.0184V10.9399H21.8465Z" fill="black"/>
<path d="M23.7641 10.9399V9.38477H25.3154V10.9399H23.7641Z" fill="black"/>
<path d="M24.9833 10.9399V9.38477H25.6039V10.9399H24.9833Z" fill="black"/>
<path d="M25.4266 10.9399V9.38477H26.9779V10.9399H25.4266Z" fill="black"/>
<path d="M26.7236 10.9399V9.38477H28.2749V10.9399H26.7236Z" fill="black"/>
<path d="M27.9429 10.9399V9.38477H29.3387V10.9399H27.9429Z" fill="black"/>
<path d="M29.124 10.9399V9.38477H30.2096V10.9399H29.124Z" fill="black"/>
<path d="M30.0337 10.9399V9.38477H31.4295V10.9399H30.0337Z" fill="black"/>
<path d="M31.1179 10.9399V9.38477H32.6692V10.9399H31.1179Z" fill="black"/>
<path d="M32.3372 10.9399V9.38477H32.9577V10.9399H32.3372Z" fill="black"/>
<path d="M6 13.9399V12.3848H7.08557V13.9399H6Z" fill="black"/>
<path d="M6.90969 13.9399V12.3848H8.15005V13.9399H6.90969Z" fill="black"/>
<path d="M7.97349 13.9399V12.3848H8.59401V13.9399H7.97349Z" fill="black"/>
<path d="M8.41678 13.9399V12.3848H9.50234V13.9399H8.41678Z" fill="black"/>
<path d="M9.171 13.9399V12.3848H10.7223V13.9399H9.171Z" fill="black"/>
<path d="M10.5457 13.9399V12.3848H11.9416V13.9399H10.5457Z" fill="black"/>
<path d="M11.63 13.9399V12.3848H13.1813V13.9399H11.63Z" fill="black"/>
<path d="M12.8493 13.9399V12.3848H14.4006V13.9399H12.8493Z" fill="black"/>
<path d="M14.1463 13.9399V12.3848H15.2318V13.9399H14.1463Z" fill="black"/>
<path d="M14.9005 13.9399V12.3848H16.4518V13.9399H14.9005Z" fill="black"/>
<path d="M16.2752 13.9399V12.3848H17.6711V13.9399H16.2752Z" fill="black"/>
<path d="M17.4945 13.9399V12.3848H18.115V13.9399H17.4945Z" fill="black"/>
<path d="M17.9378 13.9399V12.3848H19.0234V13.9399H17.9378Z" fill="black"/>
<path d="M18.692 13.9399V12.3848H20.2433V13.9399H18.692Z" fill="black"/>
<path d="M20.0668 13.9399V12.3848H21.6181V13.9399H20.0668Z" fill="black"/>
<path d="M21.286 13.9399V12.3848H21.9065V13.9399H21.286Z" fill="black"/>
<path d="M21.7293 13.9399V12.3848H23.4361V13.9399H21.7293Z" fill="black"/>
<path d="M23.2786 13.9399V12.3848H24.519V13.9399H23.2786Z" fill="black"/>
<path d="M24.3424 13.9399V12.3848H25.7382V13.9399H24.3424Z" fill="black"/>
<path d="M25.4267 13.9399V12.3848H26.5122V13.9399H25.4267Z" fill="black"/>
<path d="M26.1809 13.9399V12.3848H27.7322V13.9399H26.1809Z" fill="black"/>
<path d="M27.5556 13.9399V12.3848H28.1762V13.9399H27.5556Z" fill="black"/>
<path d="M6 16.9399V15.3848H7.70677V16.9399H6Z" fill="black"/>
<path d="M7.60795 16.9399V15.3848H8.8483V16.9399H7.60795Z" fill="black"/>
<path d="M8.67175 16.9399V15.3848H10.0676V16.9399H8.67175Z" fill="black"/>
<path d="M9.75601 16.9399V15.3848H11.3073V16.9399H9.75601Z" fill="black"/>
<path d="M10.9753 16.9399V15.3848H12.5266V16.9399H10.9753Z" fill="black"/>
<path d="M12.4278 16.9399V15.3848H13.8236V16.9399H12.4278Z" fill="black"/>
<path d="M13.647 16.9399V15.3848H14.2675V16.9399H13.647Z" fill="black"/>
<path d="M14.2458 16.9399V15.3848H15.6416V16.9399H14.2458Z" fill="black"/>
<path d="M15.3873 16.9399V15.3848H16.9386V16.9399H15.3873Z" fill="black"/>
<path d="M16.7621 16.9399V15.3848H18.0024V16.9399H16.7621Z" fill="black"/>
<path d="M17.9813 16.9399V15.3848H19.3772V16.9399H17.9813Z" fill="black"/>
<path d="M19.1229 16.9399V15.3848H20.2084V16.9399H19.1229Z" fill="black"/>
<path d="M20.0326 16.9399V15.3848H21.5839V16.9399H20.0326Z" fill="black"/>
<path d="M21.2518 16.9399V15.3848H21.8723V16.9399H21.2518Z" fill="black"/>
<path d="M21.8506 16.9399V15.3848H23.0909V16.9399H21.8506Z" fill="black"/>
<path d="M22.9144 16.9399V15.3848H24.3102V16.9399H22.9144Z" fill="black"/>
<path d="M23.9986 16.9399V15.3848H24.6192V16.9399H23.9986Z" fill="black"/>
<path d="M6 19.9399V18.3848H7.5513V19.9399H6Z" fill="black"/>
<path d="M7.29701 19.9399V18.3848H8.8483V19.9399H7.29701Z" fill="black"/>
<path d="M8.51628 19.9399V18.3848H9.9121V19.9399H8.51628Z" fill="black"/>
<path d="M9.69736 19.9399V18.3848H10.7829V19.9399H9.69736Z" fill="black"/>
<path d="M10.4516 19.9399V18.3848H12.0029V19.9399H10.4516Z" fill="black"/>
<path d="M11.9041 19.9399V18.3848H13.2999V19.9399H11.9041Z" fill="black"/>
<path d="M12.9679 19.9399V18.3848H14.0534V19.9399H12.9679Z" fill="black"/>
<path d="M13.8776 19.9399V18.3848H14.9631V19.9399H13.8776Z" fill="black"/>
<path d="M14.7873 19.9399V18.3848H15.8728V19.9399H14.7873Z" fill="black"/>
<path d="M15.8524 19.9399V18.3848H17.0928V19.9399H15.8524Z" fill="black"/>
<path d="M16.8194 19.9399V18.3848H18.3707V19.9399H16.8194Z" fill="black"/>
<path d="M18.0387 19.9399V18.3848H18.6592V19.9399H18.0387Z" fill="black"/>
<path d="M18.4819 19.9399V18.3848H19.5675V19.9399H18.4819Z" fill="black"/>
<path d="M19.2362 19.9399V18.3848H20.7875V19.9399H19.2362Z" fill="black"/>
<path d="M20.6109 19.9399V18.3848H22.1622V19.9399H20.6109Z" fill="black"/>
<path d="M21.8302 19.9399V18.3848H22.4507V19.9399H21.8302Z" fill="black"/>
<path d="M22.2735 19.9399V18.3848H23.9802V19.9399H22.2735Z" fill="black"/>
<path d="M23.7259 19.9399V18.3848H25.1218V19.9399H23.7259Z" fill="black"/>
<path d="M24.907 19.9399V18.3848H25.9926V19.9399H24.907Z" fill="black"/>
<path d="M25.8167 19.9399V18.3848H27.368V19.9399H25.8167Z" fill="black"/>
<path d="M27.1137 19.9399V18.3848H27.7342V19.9399H27.1137Z" fill="black"/>
<path d="M6.15547 22.9399V21.3848H7.70677V22.9399H6.15547Z" fill="black"/>
<path d="M7.23836 22.9399V21.3848H8.78966V22.9399H7.23836Z" fill="black"/>
<path d="M8.53537 22.9399V21.3848H9.9312V22.9399H8.53537Z" fill="black"/>
<path d="M9.67691 22.9399V21.3848H10.7625V22.9399H9.67691Z" fill="black"/>
<path d="M10.5866 22.9399V21.3848H11.8276V22.9399H10.5866Z" fill="black"/>
<path d="M11.4963 22.9399V21.3848H12.5819V22.9399H11.4963Z" fill="black"/>
<path d="M12.406 22.9399V21.3848H13.8018V22.9399H12.406Z" fill="black"/>
<path d="M13.5475 22.9399V21.3848H14.168V22.9399H13.5475Z" fill="black"/>
<path d="M13.9908 22.9399V21.3848H15.3866V22.9399H13.9908Z" fill="black"/>
<path d="M15.0751 22.9399V21.3848H16.6264V22.9399H15.0751Z" fill="black"/>
<path d="M16.2943 22.9399V21.3848H17.8456V22.9399H16.2943Z" fill="black"/>
<path d="M17.6691 22.9399V21.3848H18.7546V22.9399H17.6691Z" fill="black"/>
<path d="M18.7342 22.9399V21.3848H19.9746V22.9399H18.7342Z" fill="black"/>
<path d="M19.9535 22.9399V21.3848H21.3493V22.9399H19.9535Z" fill="black"/>
<path d="M21.1728 22.9399V21.3848H21.9481V22.9399H21.1728Z" fill="black"/>
<path d="M21.6938 22.9399V21.3848H22.3143V22.9399H21.6938Z" fill="black"/>
<path d="M22.1371 22.9399V21.3848H23.6884V22.9399H22.1371Z" fill="black"/>
<path d="M23.5118 22.9399V21.3848H24.9076V22.9399H23.5118Z" fill="black"/>
<path d="M24.8088 22.9399V21.3848H26.3601V22.9399H24.8088Z" fill="black"/>
<path d="M26.0281 22.9399V21.3848H27.4239V22.9399H26.0281Z" fill="black"/>
<path d="M27.1124 22.9399V21.3848H27.7329V22.9399H27.1124Z" fill="black"/>
<path d="M27.5556 22.9399V21.3848H28.6412V22.9399H27.5556Z" fill="black"/>
<path d="M28.3099 22.9399V21.3848H29.8612V22.9399H28.3099Z" fill="black"/>
<path d="M29.6846 22.9399V21.3848H31.2359V22.9399H29.6846Z" fill="black"/>
<path d="M30.9039 22.9399V21.3848H31.5244V22.9399H30.9039Z" fill="black"/>
<path d="M6.15547 25.9399V24.3848H7.5513V25.9399H6.15547Z" fill="black"/>
<path d="M7.29701 25.9399V24.3848H8.8483V25.9399H7.29701Z" fill="black"/>
<path d="M8.51628 25.9399V24.3848H10.0676V25.9399H8.51628Z" fill="black"/>
<path d="M9.81328 25.9399V24.3848H11.2091V25.9399H9.81328Z" fill="black"/>
<path d="M10.8975 25.9399V24.3848H12.2934V25.9399H10.8975Z" fill="black"/>
<path d="M12.0786 25.9399V24.3848H12.8539V25.9399H12.0786Z" fill="black"/>
<path d="M12.5996 25.9399V24.3848H13.2202V25.9399H12.5996Z" fill="black"/>
<path d="M13.0429 25.9399V24.3848H15.2147V25.9399H13.0429Z" fill="black"/>
<path d="M14.9605 25.9399V24.3848H16.5117V25.9399H14.9605Z" fill="black"/>
<path d="M16.1797 25.9399V24.3848H16.8002V25.9399H16.1797Z" fill="black"/>
<path d="M16.623 25.9399V24.3848H18.1743V25.9399H16.623Z" fill="black"/>
<path d="M17.9977 25.9399V24.3848H19.549V25.9399H17.9977Z" fill="black"/>
<path d="M19.217 25.9399V24.3848H20.6128V25.9399H19.217Z" fill="black"/>
<path d="M20.514 25.9399V24.3848H22.0653V25.9399H20.514Z" fill="black"/>
<path d="M21.7333 25.9399V24.3848H22.3538V25.9399H21.7333Z" fill="black"/>
<path d="M6 28.9399V27.3848H8.17181V28.9399H6Z" fill="black"/>
<path d="M7.91752 28.9399V27.3848H9.00309V28.9399H7.91752Z" fill="black"/>
<path d="M8.82722 28.9399V27.3848H9.91279V28.9399H8.82722Z" fill="black"/>
<path d="M9.58144 28.9399V27.3848H11.1327V28.9399H9.58144Z" fill="black"/>
<path d="M10.9562 28.9399V27.3848H12.5075V28.9399H10.9562Z" fill="black"/>
<path d="M12.2532 28.9399V27.3848H13.649V28.9399H12.2532Z" fill="black"/>
<path d="M13.2993 28.9399V27.3848H14.8506V28.9399H13.2993Z" fill="black"/>
<path d="M14.5185 28.9399V27.3848H16.6903V28.9399H14.5185Z" fill="black"/>
<path d="M16.5915 28.9399V27.3848H17.9874V28.9399H16.5915Z" fill="black"/>
<path d="M17.8108 28.9399V27.3848H18.4313V28.9399H17.8108Z" fill="black"/>
<path d="M18.4096 28.9399V27.3848H19.6499V28.9399H18.4096Z" fill="black"/>
<path d="M19.4734 28.9399V27.3848H21.0246V28.9399H19.4734Z" fill="black"/>
<path d="M20.8481 28.9399V27.3848H22.2439V28.9399H20.8481Z" fill="black"/>
<path d="M21.9324 28.9399V27.3848H22.5529V28.9399H21.9324Z" fill="black"/>
<path d="M22.5311 28.9399V27.3848H23.7715V28.9399H22.5311Z" fill="black"/>
<path d="M23.5949 28.9399V27.3848H25.7667V28.9399H23.5949Z" fill="black"/>
<path d="M25.6679 28.9399V27.3848H27.0637V28.9399H25.6679Z" fill="black"/>
<path d="M26.8872 28.9399V27.3848H27.5077V28.9399H26.8872Z" fill="black"/>
<path d="M6.15547 31.9399V30.3848H7.5513V31.9399H6.15547Z" fill="black"/>
<path d="M7.37474 31.9399V30.3848H8.92604V31.9399H7.37474Z" fill="black"/>
<path d="M8.74948 31.9399V30.3848H10.1453V31.9399H8.74948Z" fill="black"/>
<path d="M9.89102 31.9399V30.3848H10.9766V31.9399H9.89102Z" fill="black"/>
<path d="M10.8007 31.9399V30.3848H12.352V31.9399H10.8007Z" fill="black"/>
<path d="M12.02 31.9399V30.3848H13.5713V31.9399H12.02Z" fill="black"/>
<path d="M13.317 31.9399V30.3848H14.7128V31.9399H13.317Z" fill="black"/>
<path d="M14.4012 31.9399V30.3848H15.0218V31.9399H14.4012Z" fill="black"/>
<path d="M14.8445 31.9399V30.3848H17.0163V31.9399H14.8445Z" fill="black"/>
<path d="M16.7621 31.9399V30.3848H18.3134V31.9399H16.7621Z" fill="black"/>
<path d="M17.9813 31.9399V30.3848H19.5326V31.9399H17.9813Z" fill="black"/>
<path d="M19.4338 31.9399V30.3848H20.8296V31.9399H19.4338Z" fill="black"/>
<path d="M20.7308 31.9399V30.3848H21.9712V31.9399H20.7308Z" fill="black"/>
<path d="M21.9501 31.9399V30.3848H23.3459V31.9399H21.9501Z" fill="black"/>
<path d="M23.1694 31.9399V30.3848H24.5652V31.9399H23.1694Z" fill="black"/>
<path d="M24.3504 31.9399V30.3848H24.971V31.9399H24.3504Z" fill="black"/>
<path d="M24.7937 31.9399V30.3848H26.0348V31.9399H24.7937Z" fill="black"/>
<path d="M25.7034 31.9399V30.3848H27.0992V31.9399H25.7034Z" fill="black"/>
<path d="M26.9431 31.9399V30.3848H28.1835V31.9399H26.9431Z" fill="black"/>
<path d="M28.0069 31.9399V30.3848H30.024V31.9399H28.0069Z" fill="black"/>
<path d="M29.9245 31.9399V30.3848H30.545V31.9399H29.9245Z" fill="black"/>
<path d="M6 34.9399V33.3848H7.39583V34.9399H6Z" fill="black"/>
<path d="M7.45248 34.9399V33.3848H8.69283V34.9399H7.45248Z" fill="black"/>
<path d="M8.51628 34.9399V33.3848H10.0676V34.9399H8.51628Z" fill="black"/>
<path d="M9.89102 34.9399V33.3848H10.9766V34.9399H9.89102Z" fill="black"/>
<path d="M10.6452 34.9399V33.3848H12.1965V34.9399H10.6452Z" fill="black"/>
<path d="M12.02 34.9399V33.3848H12.6405V34.9399H12.02Z" fill="black"/>
<path d="M12.4633 34.9399V33.3848H14.17V34.9399H12.4633Z" fill="black"/>
<path d="M14.0712 34.9399V33.3848H15.3116V34.9399H14.0712Z" fill="black"/>
<path d="M15.135 34.9399V33.3848H16.5308V34.9399H15.135Z" fill="black"/>
<path d="M16.2193 34.9399V33.3848H17.7706V34.9399H16.2193Z" fill="black"/>
<path d="M17.4385 34.9399V33.3848H18.9898V34.9399H17.4385Z" fill="black"/>
<path d="M18.7355 34.9399V33.3848H19.3561V34.9399H18.7355Z" fill="black"/>
<path d="M19.1788 34.9399V33.3848H20.7301V34.9399H19.1788Z" fill="black"/>
<path d="M20.6313 34.9399V33.3848H22.0271V34.9399H20.6313Z" fill="black"/>
<path d="M21.8506 34.9399V33.3848H23.4019V34.9399H21.8506Z" fill="black"/>
<path d="M23.1476 34.9399V33.3848H23.7681V34.9399H23.1476Z" fill="black"/>
<path d="M23.7463 34.9399V33.3848H24.9867V34.9399H23.7463Z" fill="black"/>
<path d="M24.8101 34.9399V33.3848H26.0512V34.9399H24.8101Z" fill="black"/>
<path d="M25.7198 34.9399V33.3848H26.9609V34.9399H25.7198Z" fill="black"/>
<path d="M26.6295 34.9399V33.3848H28.1808V34.9399H26.6295Z" fill="black"/>
<path d="M27.8488 34.9399V33.3848H29.2446V34.9399H27.8488Z" fill="black"/>
<path d="M28.9331 34.9399V33.3848H30.4844V34.9399H28.9331Z" fill="black"/>
<path d="M30.1523 34.9399V33.3848H31.7036V34.9399H30.1523Z" fill="black"/>
<path d="M31.4493 34.9399V33.3848H32.0699V34.9399H31.4493Z" fill="black"/>
<path d="M6 37.9399V36.3848H7.5513V37.9399H6Z" fill="black"/>
<path d="M7.29701 37.9399V36.3848H8.38257V37.9399H7.29701Z" fill="black"/>
<path d="M8.2067 37.9399V36.3848H9.758V37.9399H8.2067Z" fill="black"/>
<path d="M9.50371 37.9399V36.3848H10.1242V37.9399H9.50371Z" fill="black"/>
<path d="M9.94699 37.9399V36.3848H11.0326V37.9399H9.94699Z" fill="black"/>
<path d="M10.8567 37.9399V36.3848H12.097V37.9399H10.8567Z" fill="black"/>
<path d="M11.9205 37.9399V36.3848H12.541V37.9399H11.9205Z" fill="black"/>
<path d="M12.3638 37.9399V36.3848H14.0705V37.9399H12.3638Z" fill="black"/>
<path d="M13.9131 37.9399V36.3848H15.1534V37.9399H13.9131Z" fill="black"/>
<path d="M14.9769 37.9399V36.3848H16.3727V37.9399H14.9769Z" fill="black"/>
<path d="M16.0611 37.9399V36.3848H17.1467V37.9399H16.0611Z" fill="black"/>
<path d="M16.8154 37.9399V36.3848H18.3666V37.9399H16.8154Z" fill="black"/>
<path d="M18.1901 37.9399V36.3848H18.8106V37.9399H18.1901Z" fill="black"/>
<path d="M18.6334 37.9399V36.3848H20.3401V37.9399H18.6334Z" fill="black"/>
<path d="M20.2413 37.9399V36.3848H21.4817V37.9399H20.2413Z" fill="black"/>
<path d="M21.3051 37.9399V36.3848H22.7009V37.9399H21.3051Z" fill="black"/>
<path d="M22.3894 37.9399V36.3848H23.9407V37.9399H22.3894Z" fill="black"/>
<path d="M23.6087 37.9399V36.3848H25.1599V37.9399H23.6087Z" fill="black"/>
<path d="M24.9057 37.9399V36.3848H25.5262V37.9399H24.9057Z" fill="black"/>
<path d="M25.3489 37.9399V36.3848H26.9002V37.9399H25.3489Z" fill="black"/>
<path d="M26.6459 37.9399V36.3848H28.0418V37.9399H26.6459Z" fill="black"/>
<path d="M27.827 37.9399V36.3848H28.4475V37.9399H27.827Z" fill="black"/>
<path d="M6.15547 40.9399V39.3848H7.5513V40.9399H6.15547Z" fill="black"/>
<path d="M7.29701 40.9399V39.3848H8.69283V40.9399H7.29701Z" fill="black"/>
<path d="M8.53673 40.9399V39.3848H9.77709V40.9399H8.53673Z" fill="black"/>
<path d="M9.75601 40.9399V39.3848H10.9964V40.9399H9.75601Z" fill="black"/>
<path d="M10.8198 40.9399V39.3848H12.0608V40.9399H10.8198Z" fill="black"/>
<path d="M11.7295 40.9399V39.3848H12.35V40.9399H11.7295Z" fill="black"/>
<path d="M12.3283 40.9399V39.3848H13.5686V40.9399H12.3283Z" fill="black"/>
<path d="M13.3921 40.9399V39.3848H14.6331V40.9399H13.3921Z" fill="black"/>
<path d="M14.3017 40.9399V39.3848H14.9223V40.9399H14.3017Z" fill="black"/>
<path d="M14.9005 40.9399V39.3848H16.1409V40.9399H14.9005Z" fill="black"/>
<path d="M15.9643 40.9399V39.3848H17.5156V40.9399H15.9643Z" fill="black"/>
<path d="M17.339 40.9399V39.3848H18.7349V40.9399H17.339Z" fill="black"/>
<path d="M18.4233 40.9399V39.3848H19.0438V40.9399H18.4233Z" fill="black"/>
<path d="M18.8666 40.9399V39.3848H19.9521V40.9399H18.8666Z" fill="black"/>
<path d="M19.9317 40.9399V39.3848H21.3276V40.9399H19.9317Z" fill="black"/>
<path d="M21.151 40.9399V39.3848H22.2366V40.9399H21.151Z" fill="black"/>
<path d="M21.9052 40.9399V39.3848H23.4565V40.9399H21.9052Z" fill="black"/>
<path d="M23.28 40.9399V39.3848H24.6758V40.9399H23.28Z" fill="black"/>
<path d="M24.4993 40.9399V39.3848H25.5848V40.9399H24.4993Z" fill="black"/>
<path d="M25.2535 40.9399V39.3848H25.874V40.9399H25.2535Z" fill="black"/>
<path d="M25.6968 40.9399V39.3848H26.7823V40.9399H25.6968Z" fill="black"/>
<path d="M26.6065 40.9399V39.3848H27.8468V40.9399H26.6065Z" fill="black"/>
<path d="M27.6703 40.9399V39.3848H28.2908V40.9399H27.6703Z" fill="black"/>
<path d="M28.1135 40.9399V39.3848H29.6648V40.9399H28.1135Z" fill="black"/>
<path d="M29.4105 40.9399V39.3848H30.9618V40.9399H29.4105Z" fill="black"/>
<path d="M30.6298 40.9399V39.3848H31.4051V40.9399H30.6298Z" fill="black"/>
<path d="M6 43.9399V42.3848H7.5513V43.9399H6Z" fill="black"/>
<path d="M7.21927 43.9399V42.3848H8.6151V43.9399H7.21927Z" fill="black"/>
<path d="M8.40036 43.9399V42.3848H9.79618V43.9399H8.40036Z" fill="black"/>
<path d="M9.54189 43.9399V42.3848H11.0932V43.9399H9.54189Z" fill="black"/>
<path d="M10.8389 43.9399V42.3848H11.9245V43.9399H10.8389Z" fill="black"/>
<path d="M11.7486 43.9399V42.3848H13.2999V43.9399H11.7486Z" fill="black"/>
<path d="M13.0456 43.9399V42.3848H14.1312V43.9399H13.0456Z" fill="black"/>
<path d="M13.7998 43.9399V42.3848H15.3511V43.9399H13.7998Z" fill="black"/>
<path d="M15.0191 43.9399V42.3848H15.6396V43.9399H15.0191Z" fill="black"/>
<path d="M15.4624 43.9399V42.3848H16.5479V43.9399H15.4624Z" fill="black"/>
<path d="M16.2166 43.9399V42.3848H17.7679V43.9399H16.2166Z" fill="black"/>
<path d="M17.5913 43.9399V42.3848H19.1426V43.9399H17.5913Z" fill="black"/>
<path d="M18.8106 43.9399V42.3848H19.4311V43.9399H18.8106Z" fill="black"/>
<path d="M19.2539 43.9399V42.3848H20.6497V43.9399H19.2539Z" fill="black"/>
<path d="M20.435 43.9399V42.3848H21.5205V43.9399H20.435Z" fill="black"/>
<path d="M21.3447 43.9399V42.3848H22.4302V43.9399H21.3447Z" fill="black"/>
<path d="M22.0989 43.9399V42.3848H23.6502V43.9399H22.0989Z" fill="black"/>
<path d="M23.4736 43.9399V42.3848H25.0249V43.9399H23.4736Z" fill="black"/>
<path d="M24.7706 43.9399V42.3848H25.8562V43.9399H24.7706Z" fill="black"/>
<path d="M25.5249 43.9399V42.3848H26.6104V43.9399H25.5249Z" fill="black"/>
<path d="M26.59 43.9399V42.3848H27.8304V43.9399H26.59Z" fill="black"/>
<path d="M27.8093 43.9399V42.3848H29.2051V43.9399H27.8093Z" fill="black"/>
<path d="M29.0286 43.9399V42.3848H29.6491V43.9399H29.0286Z" fill="black"/>
<path d="M6 46.9399V45.3848H7.5513V46.9399H6Z" fill="black"/>
<path d="M7.45248 46.9399V45.3848H8.8483V46.9399H7.45248Z" fill="black"/>
<path d="M8.67175 46.9399V45.3848H10.223V46.9399H8.67175Z" fill="black"/>
<path d="M9.96875 46.9399V45.3848H10.5893V46.9399H9.96875Z" fill="black"/>
<path d="M10.5675 46.9399V45.3848H11.9633V46.9399H10.5675Z" fill="black"/>
<path d="M11.9422 46.9399V45.3848H13.1826V46.9399H11.9422Z" fill="black"/>
<path d="M13.006 46.9399V45.3848H14.4019V46.9399H13.006Z" fill="black"/>
<path d="M14.0903 46.9399V45.3848H16.1073V46.9399H14.0903Z" fill="black"/>
<path d="M16.0078 46.9399V45.3848H17.5591V46.9399H16.0078Z" fill="black"/>
<path d="M17.3048 46.9399V45.3848H18.3904V46.9399H17.3048Z" fill="black"/>
<path d="M18.2145 46.9399V45.3848H19.3001V46.9399H18.2145Z" fill="black"/>
<path d="M19.2797 46.9399V45.3848H20.5201V46.9399H19.2797Z" fill="black"/>
<path d="M20.2467 46.9399V45.3848H21.798V46.9399H20.2467Z" fill="black"/>
<path d="M21.4659 46.9399V45.3848H22.0865V46.9399H21.4659Z" fill="black"/>
<path d="M21.9092 46.9399V45.3848H23.305V46.9399H21.9092Z" fill="black"/>
<path d="M22.9935 46.9399V45.3848H24.5448V46.9399H22.9935Z" fill="black"/>
<path d="M24.2128 46.9399V45.3848H25.2983V46.9399H24.2128Z" fill="black"/>
<path d="M25.1224 46.9399V45.3848H26.6737V46.9399H25.1224Z" fill="black"/>
<path d="M26.4194 46.9399V45.3848H27.505V46.9399H26.4194Z" fill="black"/>
<path d="M27.1737 46.9399V45.3848H28.2592V46.9399H27.1737Z" fill="black"/>
<path d="M28.2388 46.9399V45.3848H29.4792V46.9399H28.2388Z" fill="black"/>
<path d="M29.4581 46.9399V45.3848H30.8539V46.9399H29.4581Z" fill="black"/>
<path d="M30.6774 46.9399V45.3848H32.0732V46.9399H30.6774Z" fill="black"/>
<path d="M31.8585 46.9399V45.3848H32.6338V46.9399H31.8585Z" fill="black"/>
<path d="M32.3795 46.9399V45.3848H33V46.9399H32.3795Z" fill="black"/>
<path d="M6 49.9399V48.3848H7.39583V49.9399H6Z" fill="black"/>
<path d="M7.29701 49.9399V48.3848H8.38257V49.9399H7.29701Z" fill="black"/>
<path d="M8.36217 49.9399V48.3848H9.758V49.9399H8.36217Z" fill="black"/>
<path d="M9.58144 49.9399V48.3848H10.9773V49.9399H9.58144Z" fill="black"/>
<path d="M10.723 49.9399V48.3848H12.2743V49.9399H10.723Z" fill="black"/>
<path d="M11.9422 49.9399V48.3848H12.5628V49.9399H11.9422Z" fill="black"/>
<path d="M12.3855 49.9399V48.3848H13.6266V49.9399H12.3855Z" fill="black"/>
<path d="M13.4493 49.9399V48.3848H14.8452V49.9399H13.4493Z" fill="black"/>
<path d="M14.6686 49.9399V48.3848H16.0644V49.9399H14.6686Z" fill="black"/>
<path d="M15.8879 49.9399V48.3848H17.4392V49.9399H15.8879Z" fill="black"/>
<path d="M17.2626 49.9399V48.3848H18.0379V49.9399H17.2626Z" fill="black"/>
<path d="M17.7836 49.9399V48.3848H18.4042V49.9399H17.7836Z" fill="black"/>
<path d="M18.2269 49.9399V48.3848H19.3125V49.9399H18.2269Z" fill="black"/>
<path d="M18.9811 49.9399V48.3848H20.5324V49.9399H18.9811Z" fill="black"/>
<path d="M20.3559 49.9399V48.3848H21.9072V49.9399H20.3559Z" fill="black"/>
<path d="M21.5752 49.9399V48.3848H22.1957V49.9399H21.5752Z" fill="black"/>
<path d="M22.0184 49.9399V48.3848H23.7252V49.9399H22.0184Z" fill="black"/>
<path d="M23.5868 49.9399V48.3848H24.9827V49.9399H23.5868Z" fill="black"/>
<path d="M24.8061 49.9399V48.3848H25.8917V49.9399H24.8061Z" fill="black"/>
<path d="M25.7158 49.9399V48.3848H26.8014V49.9399H25.7158Z" fill="black"/>
<path d="M26.47 49.9399V48.3848H28.0213V49.9399H26.47Z" fill="black"/>
<path d="M27.6893 49.9399V48.3848H29.2406V49.9399H27.6893Z" fill="black"/>
<path d="M28.9863 49.9399V48.3848H29.6068V49.9399H28.9863Z" fill="black"/>
<path d="M6 52.9399V51.3848H7.39583V52.9399H6Z" fill="black"/>
<path d="M7.29701 52.9399V51.3848H8.38257V52.9399H7.29701Z" fill="black"/>
<path d="M8.05123 52.9399V51.3848H9.60253V52.9399H8.05123Z" fill="black"/>
<path d="M9.34824 52.9399V51.3848H10.4338V52.9399H9.34824Z" fill="black"/>
<path d="M10.1025 52.9399V51.3848H11.6538V52.9399H10.1025Z" fill="black"/>
<path d="M11.3217 52.9399V51.3848H12.7176V52.9399H11.3217Z" fill="black"/>
<path d="M12.5028 52.9399V51.3848H13.1233V52.9399H12.5028Z" fill="black"/>
<path d="M12.9461 52.9399V51.3848H14.4974V52.9399H12.9461Z" fill="black"/>
<path d="M14.3208 52.9399V51.3848H15.8721V52.9399H14.3208Z" fill="black"/>
<path d="M15.6178 52.9399V51.3848H17.0137V52.9399H15.6178Z" fill="black"/>
<path d="M16.7989 52.9399V51.3848H17.4194V52.9399H16.7989Z" fill="black"/>
<path d="M17.3977 52.9399V51.3848H18.7935V52.9399H17.3977Z" fill="black"/>
<path d="M18.5392 52.9399V51.3848H19.935V52.9399H18.5392Z" fill="black"/>
<path d="M19.7789 52.9399V51.3848H21.0193V52.9399H19.7789Z" fill="black"/>
<path d="M20.8427 52.9399V51.3848H22.2386V52.9399H20.8427Z" fill="black"/>
<path d="M22.1398 52.9399V51.3848H23.2253V52.9399H22.1398Z" fill="black"/>
<path d="M23.0494 52.9399V51.3848H24.6007V52.9399H23.0494Z" fill="black"/>
<path d="M24.3465 52.9399V51.3848H25.8978V52.9399H24.3465Z" fill="black"/>
<path d="M25.5657 52.9399V51.3848H27.117V52.9399H25.5657Z" fill="black"/>
<path d="M26.8627 52.9399V51.3848H27.4833V52.9399H26.8627Z" fill="black"/>
<path d="M27.4615 52.9399V51.3848H28.7018V52.9399H27.4615Z" fill="black"/>
<path d="M28.5253 52.9399V51.3848H29.9211V52.9399H28.5253Z" fill="black"/>
<path d="M29.8223 52.9399V51.3848H31.3736V52.9399H29.8223Z" fill="black"/>
<path d="M31.0416 52.9399V51.3848H32.4374V52.9399H31.0416Z" fill="black"/>
<path d="M32.1258 52.9399V51.3848H32.7463V52.9399H32.1258Z" fill="black"/>
<path d="M6 55.9399V54.3848H7.08557V55.9399H6Z" fill="black"/>
<path d="M6.90969 55.9399V54.3848H8.15073V55.9399H6.90969Z" fill="black"/>
<path d="M7.97349 55.9399V54.3848H8.7488V55.9399H7.97349Z" fill="black"/>
<path d="M8.49451 55.9399V54.3848H10.2013V55.9399H8.49451Z" fill="black"/>
<path d="M10.0247 55.9399V54.3848H10.6452V55.9399H10.0247Z" fill="black"/>
<path d="M10.6235 55.9399V54.3848H12.0193V55.9399H10.6235Z" fill="black"/>
<path d="M11.6873 55.9399V54.3848H12.7728V55.9399H11.6873Z" fill="black"/>
<path d="M12.597 55.9399V54.3848H13.6825V55.9399H12.597Z" fill="black"/>
<path d="M13.5067 55.9399V54.3848H14.5922V55.9399H13.5067Z" fill="black"/>
<path d="M14.4164 55.9399V54.3848H15.5019V55.9399H14.4164Z" fill="black"/>
<path d="M15.4815 55.9399V54.3848H16.7219V55.9399H15.4815Z" fill="black"/>
<path d="M16.7008 55.9399V54.3848H18.0966V55.9399H16.7008Z" fill="black"/>
<path d="M17.9201 55.9399V54.3848H18.5406V55.9399H17.9201Z" fill="black"/>
<path d="M18.3633 55.9399V54.3848H19.9146V55.9399H18.3633Z" fill="black"/>
<path d="M19.8158 55.9399V54.3848H21.0562V55.9399H19.8158Z" fill="black"/>
<path d="M20.8796 55.9399V54.3848H21.9652V55.9399H20.8796Z" fill="black"/>
<path d="M21.7893 55.9399V54.3848H22.8749V55.9399H21.7893Z" fill="black"/>
<path d="M22.699 55.9399V54.3848H24.2503V55.9399H22.699Z" fill="black"/>
<path d="M23.996 55.9399V54.3848H25.3918V55.9399H23.996Z" fill="black"/>
<path d="M25.0803 55.9399V54.3848H26.4761V55.9399H25.0803Z" fill="black"/>
<path d="M26.2614 55.9399V54.3848H26.8819V55.9399H26.2614Z" fill="black"/>
<path d="M26.7046 55.9399V54.3848H27.7902V55.9399H26.7046Z" fill="black"/>
<path d="M27.7698 55.9399V54.3848H29.1656V55.9399H27.7698Z" fill="black"/>
<path d="M28.9891 55.9399V54.3848H29.6096V55.9399H28.9891Z" fill="black"/>
<path d="M6 58.9399V57.3848H7.5513V58.9399H6Z" fill="black"/>
<path d="M7.29701 58.9399V57.3848H8.38257V58.9399H7.29701Z" fill="black"/>
<path d="M8.2067 58.9399V57.3848H9.758V58.9399H8.2067Z" fill="black"/>
<path d="M9.50371 58.9399V57.3848H10.1242V58.9399H9.50371Z" fill="black"/>
<path d="M9.94699 58.9399V57.3848H11.0326V58.9399H9.94699Z" fill="black"/>
<path d="M10.8567 58.9399V57.3848H12.097V58.9399H10.8567Z" fill="black"/>
<path d="M11.9205 58.9399V57.3848H12.541V58.9399H11.9205Z" fill="black"/>
<path d="M12.3638 58.9399V57.3848H14.0705V58.9399H12.3638Z" fill="black"/>
<path d="M13.9131 58.9399V57.3848H15.1534V58.9399H13.9131Z" fill="black"/>
<path d="M14.9769 58.9399V57.3848H16.3727V58.9399H14.9769Z" fill="black"/>
<path d="M16.0611 58.9399V57.3848H17.1467V58.9399H16.0611Z" fill="black"/>
<path d="M16.8154 58.9399V57.3848H18.3666V58.9399H16.8154Z" fill="black"/>
<path d="M18.1901 58.9399V57.3848H18.8106V58.9399H18.1901Z" fill="black"/>
<path d="M18.6334 58.9399V57.3848H20.3401V58.9399H18.6334Z" fill="black"/>
<path d="M20.2413 58.9399V57.3848H21.4817V58.9399H20.2413Z" fill="black"/>
<path d="M21.3051 58.9399V57.3848H22.7009V58.9399H21.3051Z" fill="black"/>
<path d="M22.3894 58.9399V57.3848H23.9407V58.9399H22.3894Z" fill="black"/>
<path d="M23.6087 58.9399V57.3848H25.1599V58.9399H23.6087Z" fill="black"/>
<path d="M24.9057 58.9399V57.3848H25.681V58.9399H24.9057Z" fill="black"/>
<path d="M25.4267 58.9399V57.3848H26.0472V58.9399H25.4267Z" fill="black"/>
<path d="M25.87 58.9399V57.3848H27.4213V58.9399H25.87Z" fill="black"/>
<path d="M27.3224 58.9399V57.3848H28.7183V58.9399H27.3224Z" fill="black"/>
<path d="M28.5417 58.9399V57.3848H30.093V58.9399H28.5417Z" fill="black"/>
<path d="M29.8387 58.9399V57.3848H30.4592V58.9399H29.8387Z" fill="black"/>
<path d="M6 61.9399V60.3848H8.17181V61.9399H6Z" fill="black"/>
<path d="M7.91752 61.9399V60.3848H9.46882V61.9399H7.91752Z" fill="black"/>
<path d="M9.1368 61.9399V60.3848H9.75731V61.9399H9.1368Z" fill="black"/>
<path d="M9.58008 61.9399V60.3848H10.6656V61.9399H9.58008Z" fill="black"/>
<path d="M10.6452 61.9399V60.3848H11.8856V61.9399H10.6452Z" fill="black"/>
<path d="M11.8645 61.9399V60.3848H13.1049V61.9399H11.8645Z" fill="black"/>
<path d="M12.9283 61.9399V60.3848H14.4796V61.9399H12.9283Z" fill="black"/>
<path d="M14.2649 61.9399V60.3848H14.8854V61.9399H14.2649Z" fill="black"/>
<path d="M14.7082 61.9399V60.3848H15.9492V61.9399H14.7082Z" fill="black"/>
<path d="M15.7733 61.9399V60.3848H17.0137V61.9399H15.7733Z" fill="black"/>
<path d="M16.8371 61.9399V60.3848H18.2329V61.9399H16.8371Z" fill="black"/>
<path d="M17.9214 61.9399V60.3848H20.0932V61.9399H17.9214Z" fill="black"/>
<path d="M19.7612 61.9399V60.3848H21.3125V61.9399H19.7612Z" fill="black"/>
<path d="M21.0582 61.9399V60.3848H22.454V61.9399H21.0582Z" fill="black"/>
<path d="M22.1424 61.9399V60.3848H23.6937V61.9399H22.1424Z" fill="black"/>
<path d="M23.4394 61.9399V60.3848H24.06V61.9399H23.4394Z" fill="black"/>
<path d="M23.8827 61.9399V60.3848H24.9683V61.9399H23.8827Z" fill="black"/>
<path d="M24.7924 61.9399V60.3848H26.0328V61.9399H24.7924Z" fill="black"/>
<path d="M25.8562 61.9399V60.3848H26.4767V61.9399H25.8562Z" fill="black"/>
<path d="M6 64.9399V63.3848H7.39583V64.9399H6Z" fill="black"/>
<path d="M7.08426 64.9399V63.3848H8.63555V64.9399H7.08426Z" fill="black"/>
<path d="M8.30353 64.9399V63.3848H9.69935V64.9399H8.30353Z" fill="black"/>
<path d="M9.48461 64.9399V63.3848H11.0359V64.9399H9.48461Z" fill="black"/>
<path d="M10.8594 64.9399V63.3848H12.8764V64.9399H10.8594Z" fill="black"/>
<path d="M12.7769 64.9399V63.3848H13.8624V64.9399H12.7769Z" fill="black"/>
<path d="M13.842 64.9399V63.3848H15.2379V64.9399H13.842Z" fill="black"/>
<path d="M15.0613 64.9399V63.3848H16.6126V64.9399H15.0613Z" fill="black"/>
<path d="M16.4361 64.9399V63.3848H17.0566V64.9399H16.4361Z" fill="black"/>
<path d="M17.0348 64.9399V63.3848H18.2752V64.9399H17.0348Z" fill="black"/>
<path d="M18.0986 64.9399V63.3848H19.6499V64.9399H18.0986Z" fill="black"/>
<path d="M19.4734 64.9399V63.3848H20.8692V64.9399H19.4734Z" fill="black"/>
<path d="M20.5576 64.9399V63.3848H21.1781V64.9399H20.5576Z" fill="black"/>
<path d="M6 67.9399V66.3848H7.39583V67.9399H6Z" fill="black"/>
<path d="M7.29701 67.9399V66.3848H8.53736V67.9399H7.29701Z" fill="black"/>
<path d="M8.51628 67.9399V66.3848H9.9121V67.9399H8.51628Z" fill="black"/>
<path d="M9.73555 67.9399V66.3848H10.8211V67.9399H9.73555Z" fill="black"/>
<path d="M10.4898 67.9399V66.3848H11.8856V67.9399H10.4898Z" fill="black"/>
<path d="M11.574 67.9399V66.3848H12.6596V67.9399H11.574Z" fill="black"/>
<path d="M12.6392 67.9399V66.3848H14.035V67.9399H12.6392Z" fill="black"/>
<path d="M13.703 67.9399V66.3848H15.2543V67.9399H13.703Z" fill="black"/>
<path d="M15.0777 67.9399V66.3848H16.1633V67.9399H15.0777Z" fill="black"/>
<path d="M15.832 67.9399V66.3848H16.9175V67.9399H15.832Z" fill="black"/>
<path d="M16.8971 67.9399V66.3848H18.1375V67.9399H16.8971Z" fill="black"/>
<path d="M18.1164 67.9399V66.3848H19.5122V67.9399H18.1164Z" fill="black"/>
<path d="M19.3357 67.9399V66.3848H20.7315V67.9399H19.3357Z" fill="black"/>
<path d="M20.5168 67.9399V66.3848H21.1373V67.9399H20.5168Z" fill="black"/>
<path d="M21.1155 67.9399V66.3848H22.3559V67.9399H21.1155Z" fill="black"/>
<path d="M22.3348 67.9399V66.3848H23.7306V67.9399H22.3348Z" fill="black"/>
<path d="M23.554 67.9399V66.3848H24.9499V67.9399H23.554Z" fill="black"/>
<path d="M24.6956 67.9399V66.3848H26.2469V67.9399H24.6956Z" fill="black"/>
<path d="M25.9149 67.9399V66.3848H26.5354V67.9399H25.9149Z" fill="black"/>
<path d="M26.3581 67.9399V66.3848H27.4437V67.9399H26.3581Z" fill="black"/>
<path d="M27.1124 67.9399V66.3848H28.6637V67.9399H27.1124Z" fill="black"/>
<path d="M28.4871 67.9399V66.3848H30.0384V67.9399H28.4871Z" fill="black"/>
<path d="M29.7064 67.9399V66.3848H30.3269V67.9399H29.7064Z" fill="black"/>
<path d="M6 70.9399V69.3848H7.70677V70.9399H6Z" fill="black"/>
<path d="M7.39383 70.9399V69.3848H8.16914V70.9399H7.39383Z" fill="black"/>
<path d="M8.07032 70.9399V69.3848H9.62162V70.9399H8.07032Z" fill="black"/>
<path d="M9.30869 70.9399V69.3848H10.084V70.9399H9.30869Z" fill="black"/>
<path d="M9.8297 70.9399V69.3848H11.5365V70.9399H9.8297Z" fill="black"/>
<path d="M11.3599 70.9399V69.3848H12.1352V70.9399H11.3599Z" fill="black"/>
<path d="M11.8809 70.9399V69.3848H13.5877V70.9399H11.8809Z" fill="black"/>
<path d="M13.3334 70.9399V69.3848H14.1087V70.9399H13.3334Z" fill="black"/>
<path d="M13.8544 70.9399V69.3848H14.4749V70.9399H13.8544Z" fill="black"/>
<path d="M14.4532 70.9399V69.3848H15.849V70.9399H14.4532Z" fill="black"/>
<path d="M15.517 70.9399V69.3848H17.0683V70.9399H15.517Z" fill="black"/>
<path d="M16.7363 70.9399V69.3848H18.2875V70.9399H16.7363Z" fill="black"/>
<path d="M18.111 70.9399V69.3848H19.1966V70.9399H18.111Z" fill="black"/>
<path d="M19.1762 70.9399V69.3848H20.572V70.9399H19.1762Z" fill="black"/>
<path d="M20.3954 70.9399V69.3848H21.7913V70.9399H20.3954Z" fill="black"/>
<path d="M21.5765 70.9399V69.3848H22.197V70.9399H21.5765Z" fill="black"/>
<path d="M22.0198 70.9399V69.3848H23.1054V70.9399H22.0198Z" fill="black"/>
<path d="M22.9295 70.9399V69.3848H24.1698V70.9399H22.9295Z" fill="black"/>
<path d="M23.9933 70.9399V69.3848H24.6138V70.9399H23.9933Z" fill="black"/>
<path d="M6 73.9399V72.3848H7.5513V73.9399H6Z" fill="black"/>
<path d="M7.29701 73.9399V72.3848H8.38257V73.9399H7.29701Z" fill="black"/>
<path d="M8.2067 73.9399V72.3848H9.60253V73.9399H8.2067Z" fill="black"/>
<path d="M9.38779 73.9399V72.3848H11.4048V73.9399H9.38779Z" fill="black"/>
<path d="M11.3053 73.9399V72.3848H12.8566V73.9399H11.3053Z" fill="black"/>
<path d="M12.7578 73.9399V72.3848H14.1536V73.9399H12.7578Z" fill="black"/>
<path d="M13.9771 73.9399V72.3848H15.0626V73.9399H13.9771Z" fill="black"/>
<path d="M14.7313 73.9399V72.3848H15.8168V73.9399H14.7313Z" fill="black"/>
<path d="M15.641 73.9399V72.3848H17.1923V73.9399H15.641Z" fill="black"/>
<path d="M16.8602 73.9399V72.3848H17.4808V73.9399H16.8602Z" fill="black"/>
<path d="M17.3035 73.9399V72.3848H18.3891V73.9399H17.3035Z" fill="black"/>
<path d="M18.2132 73.9399V72.3848H19.2988V73.9399H18.2132Z" fill="black"/>
<path d="M18.9674 73.9399V72.3848H20.3633V73.9399H18.9674Z" fill="black"/>
<path d="M20.1485 73.9399V72.3848H20.769V73.9399H20.1485Z" fill="black"/>
<path d="M20.7473 73.9399V72.3848H22.1431V73.9399H20.7473Z" fill="black"/>
<path d="M21.9666 73.9399V72.3848H23.5179V73.9399H21.9666Z" fill="black"/>
<path d="M23.3413 73.9399V72.3848H24.7371V73.9399H23.3413Z" fill="black"/>
<path d="M24.4828 73.9399V72.3848H25.5684V73.9399H24.4828Z" fill="black"/>
<path d="M25.3925 73.9399V72.3848H26.9438V73.9399H25.3925Z" fill="black"/>
<path d="M26.6118 73.9399V72.3848H28.1631V73.9399H26.6118Z" fill="black"/>
<path d="M27.9088 73.9399V72.3848H29.3046V73.9399H27.9088Z" fill="black"/>
<path d="M28.9931 73.9399V72.3848H29.6136V73.9399H28.9931Z" fill="black"/>
<path d="M6 76.9399V75.3848H8.17181V76.9399H6Z" fill="black"/>
<path d="M7.91752 76.9399V75.3848H9.46882V76.9399H7.91752Z" fill="black"/>
<path d="M9.1368 76.9399V75.3848H10.6881V76.9399H9.1368Z" fill="black"/>
<path d="M10.5893 76.9399V75.3848H11.9851V76.9399H10.5893Z" fill="black"/>
<path d="M11.8863 76.9399V75.3848H13.1266V76.9399H11.8863Z" fill="black"/>
<path d="M13.1056 76.9399V75.3848H14.5014V76.9399H13.1056Z" fill="black"/>
<path d="M14.3248 76.9399V75.3848H15.7206V76.9399H14.3248Z" fill="black"/>
<path d="M15.5059 76.9399V75.3848H16.1264V76.9399H15.5059Z" fill="black"/>
<path d="M15.9492 76.9399V75.3848H17.5005V76.9399H15.9492Z" fill="black"/>
<path d="M17.4017 76.9399V75.3848H18.7975V76.9399H17.4017Z" fill="black"/>
<path d="M18.6209 76.9399V75.3848H20.1722V76.9399H18.6209Z" fill="black"/>
<path d="M19.9179 76.9399V75.3848H20.5385V76.9399H19.9179Z" fill="black"/>
<path d="M20.3612 76.9399V75.3848H22.3783V76.9399H20.3612Z" fill="black"/>
<path d="M22.2787 76.9399V75.3848H23.3643V76.9399H22.2787Z" fill="black"/>
<path d="M23.1884 76.9399V75.3848H24.5843V76.9399H23.1884Z" fill="black"/>
<path d="M24.3695 76.9399V75.3848H25.7654V76.9399H24.3695Z" fill="black"/>
<path d="M25.5506 76.9399V75.3848H26.6362V76.9399H25.5506Z" fill="black"/>
<path d="M26.4603 76.9399V75.3848H27.5459V76.9399H26.4603Z" fill="black"/>
<path d="M27.37 76.9399V75.3848H28.9213V76.9399H27.37Z" fill="black"/>
<path d="M28.5893 76.9399V75.3848H29.2098V76.9399H28.5893Z" fill="black"/>
<path d="M6 79.9399V78.3848H7.08557V79.9399H6Z" fill="black"/>
<path d="M6.75422 79.9399V78.3848H8.30552V79.9399H6.75422Z" fill="black"/>
<path d="M7.97349 79.9399V78.3848H9.36932V79.9399H7.97349Z" fill="black"/>
<path d="M9.11503 79.9399V78.3848H10.6663V79.9399H9.11503Z" fill="black"/>
<path d="M10.6452 79.9399V78.3848H12.0411V79.9399H10.6452Z" fill="black"/>
<path d="M12.02 79.9399V78.3848H13.2603V79.9399H12.02Z" fill="black"/>
<path d="M13.0838 79.9399V78.3848H14.1694V79.9399H13.0838Z" fill="black"/>
<path d="M14.1489 79.9399V78.3848H15.3893V79.9399H14.1489Z" fill="black"/>
<path d="M15.2127 79.9399V78.3848H16.764V79.9399H15.2127Z" fill="black"/>
<path d="M16.743 79.9399V78.3848H18.1388V79.9399H16.743Z" fill="black"/>
<path d="M17.8845 79.9399V78.3848H18.505V79.9399H17.8845Z" fill="black"/>
<path d="M18.4832 79.9399V78.3848H19.8791V79.9399H18.4832Z" fill="black"/>
<path d="M19.6248 79.9399V78.3848H21.0206V79.9399H19.6248Z" fill="black"/>
<path d="M20.8645 79.9399V78.3848H22.1049V79.9399H20.8645Z" fill="black"/>
<path d="M21.9283 79.9399V78.3848H23.4796V79.9399H21.9283Z" fill="black"/>
<path d="M23.3031 79.9399V78.3848H24.6989V79.9399H23.3031Z" fill="black"/>
<path d="M24.3491 79.9399V78.3848H25.9004V79.9399H24.3491Z" fill="black"/>
<path d="M25.6461 79.9399V78.3848H27.6632V79.9399H25.6461Z" fill="black"/>
<path d="M27.5637 79.9399V78.3848H28.9595V79.9399H27.5637Z" fill="black"/>
<path d="M28.7447 79.9399V78.3848H29.5201V79.9399H28.7447Z" fill="black"/>
<path d="M29.2658 79.9399V78.3848H30.0411V79.9399H29.2658Z" fill="black"/>
<path d="M6.31026 7.83535H30.4804V7.90508H6.31026V7.83535ZM6.31026 10.8354H32.6475V10.9051H6.31026V10.8354ZM6.31026 13.8354H27.8659V13.9051H6.31026V13.8354ZM6.31026 16.8354H24.3082V16.9051H6.31026V16.8354ZM6.31026 19.8354H27.424V19.9051H6.31026V19.8354ZM6.31026 22.8354H31.2141V22.9051H6.31026V22.8354ZM6.31026 25.8354H22.0436V25.9051H6.31026V25.8354ZM6.31026 28.8354H27.1974V28.9051H6.31026V28.8354ZM6.31026 31.8354H30.2347V31.9051H6.31026V31.8354ZM6.31026 34.8354H31.7596V34.9051H6.31026V34.8354ZM6.31026 37.8354H28.1366V37.9051H6.31026V37.8354ZM6.31026 40.8354H31.5947V40.9051H6.31026V40.8354ZM6.31026 43.8354H29.3388V43.9051H6.31026V43.8354ZM6.31026 46.8354H32.6897V46.9051H6.31026V46.8354ZM6.31026 49.8354H29.2966V49.9051H6.31026V49.8354ZM6.31026 52.8354H32.4354V52.9051H6.31026V52.8354ZM6.31026 55.8354H29.2993V55.9051H6.31026V55.8354ZM6.31026 58.8354H30.149V58.9051H6.31026V58.8354ZM6.31026 61.8354H26.1665V61.9051H6.31026V61.8354ZM6.31026 64.8354H20.8672V64.9051H6.31026V64.8354ZM6.31026 67.8354H30.0166V67.9051H6.31026V67.8354ZM6.31026 70.8354H24.3035V70.9051H6.31026V70.8354ZM6.31026 73.8354H29.3026V73.9051H6.31026V73.8354ZM6.31026 76.8354H28.8995V76.9051H6.31026V76.8354ZM6.31026 79.8354H30.2306V79.9051H6.31026V79.8354Z" fill="black"/>
</g>
<rect width="12" height="14" transform="translate(25 18.3848)" fill="white"/>
<path d="M31.4307 23.4033C31.141 23.4033 30.8838 23.4603 30.6592 23.5742C30.4378 23.6849 30.2507 23.846 30.0977 24.0576C29.9479 24.2692 29.834 24.5247 29.7559 24.8242C29.6777 25.1237 29.6387 25.4606 29.6387 25.835C29.6387 26.3395 29.7005 26.7708 29.8242 27.1289C29.9512 27.4837 30.1465 27.7555 30.4102 27.9443C30.6738 28.1299 31.014 28.2227 31.4307 28.2227C31.7204 28.2227 32.0101 28.1901 32.2998 28.125C32.5928 28.0599 32.9102 27.9671 33.252 27.8467V29.1162C32.9362 29.2464 32.6253 29.3392 32.3193 29.3945C32.0133 29.4531 31.6699 29.4824 31.2891 29.4824C30.5534 29.4824 29.9479 29.3311 29.4727 29.0283C29.0007 28.7223 28.6507 28.2959 28.4229 27.749C28.195 27.1989 28.0811 26.5576 28.0811 25.8252C28.0811 25.2848 28.1543 24.79 28.3008 24.3408C28.4473 23.8916 28.6621 23.5026 28.9453 23.1738C29.2285 22.8451 29.5785 22.5911 29.9951 22.4121C30.4118 22.2331 30.8903 22.1436 31.4307 22.1436C31.7855 22.1436 32.1403 22.1891 32.4951 22.2803C32.8532 22.3682 33.195 22.4902 33.5205 22.6465L33.0322 23.877C32.7653 23.75 32.4967 23.6393 32.2266 23.5449C31.9564 23.4505 31.6911 23.4033 31.4307 23.4033Z" fill="#585858"/>
</g>
<path d="M11.3333 38.3848H2V44.7328H11.3333V38.3848Z" fill="#7FA4CA"/>
</g>
<defs>
<filter id="filter0_d_238_44211" x="0" y="1.38477" width="39" height="35" filterUnits="userSpaceOnUse" color-interpolation-filters="sRGB">
<feFlood flood-opacity="0" result="BackgroundImageFix"/>
<feColorMatrix in="SourceAlpha" type="matrix" values="0 0 0 0 0 0 0 0 0 0 0 0 0 0 0 0 0 0 127 0" result="hardAlpha"/>
<feOffset dy="1"/>
<feGaussianBlur stdDeviation="1"/>
<feComposite in2="hardAlpha" operator="out"/>
<feColorMatrix type="matrix" values="0 0 0 0 0 0 0 0 0 0 0 0 0 0 0 0 0 0 0.1 0"/>
<feBlend mode="normal" in2="BackgroundImageFix" result="effect1_dropShadow_238_44211"/>
<feBlend mode="normal" in="SourceGraphic" in2="effect1_dropShadow_238_44211" result="shape"/>
</filter>
<filter id="filter1_i_238_44211" x="2" y="-2.61523" width="35" height="34" filterUnits="userSpaceOnUse" color-interpolation-filters="sRGB">
<feFlood flood-opacity="0" result="BackgroundImageFix"/>
<feBlend mode="normal" in="SourceGraphic" in2="BackgroundImageFix" result="shape"/>
<feColorMatrix in="SourceAlpha" type="matrix" values="0 0 0 0 0 0 0 0 0 0 0 0 0 0 0 0 0 0 127 0" result="hardAlpha"/>
<feOffset dy="-5"/>
<feGaussianBlur stdDeviation="3.5"/>
<feComposite in2="hardAlpha" operator="arithmetic" k2="-1" k3="1"/>
<feColorMatrix type="matrix" values="0 0 0 0 1 0 0 0 0 1 0 0 0 0 1 0 0 0 1 0"/>
<feBlend mode="normal" in2="shape" result="effect1_innerShadow_238_44211"/>
</filter>
<clipPath id="clip0_238_44211">
<rect width="39" height="46.3481" fill="white" transform="translate(0 0.384766)"/>
</clipPath>
<clipPath id="clip1_238_44211">
<rect width="35" height="31" fill="white" transform="translate(2 2.38477)"/>
</clipPath>
<clipPath id="clip2_238_44211">
<rect width="35" height="29" fill="white" transform="translate(2 2.38477)"/>
</clipPath>
</defs>
</svg>
