<svg width="39" height="47" viewBox="0 0 39 47" fill="none" xmlns="http://www.w3.org/2000/svg">
<g clip-path="url(#clip0_238_44233)">
<g clip-path="url(#clip1_238_44233)" filter="url(#filter0_d_238_44233)">
<rect width="35" height="31" transform="translate(2 2.19141)" fill="white"/>
<g opacity="0.3" clip-path="url(#clip2_238_44233)" filter="url(#filter1_i_238_44233)">
<rect width="35" height="29" transform="translate(2 2.19141)" fill="white"/>
<path d="M6 7.74658V6.19141H6.76709V7.74658H6Z" fill="black"/>
<path d="M6.74623 7.74658V6.19141H8.89504V7.74658H6.74623Z" fill="black"/>
<path d="M8.68122 7.74658V6.19141H10.2161V7.74658H8.68122Z" fill="black"/>
<path d="M9.88758 7.74658V6.19141H10.9616V7.74658H9.88758Z" fill="black"/>
<path d="M10.7876 7.74658V6.19141H11.8617V7.74658H10.7876Z" fill="black"/>
<path d="M11.6877 7.74658V6.19141H12.4548V7.74658H11.6877Z" fill="black"/>
<path d="M12.2032 7.74658V6.19141H12.8171V7.74658H12.2032Z" fill="black"/>
<path d="M12.6418 7.74658V6.19141H13.7158V7.74658H12.6418Z" fill="black"/>
<path d="M13.388 7.74658V6.19141H14.9229V7.74658H13.388Z" fill="black"/>
<path d="M14.7482 7.74658V6.19141H16.283V7.74658H14.7482Z" fill="black"/>
<path d="M15.9545 7.74658V6.19141H16.5685V7.74658H15.9545Z" fill="black"/>
<path d="M16.3931 7.74658V6.19141H17.928V7.74658H16.3931Z" fill="black"/>
<path d="M17.6764 7.74658V6.19141H18.7504V7.74658H17.6764Z" fill="black"/>
<path d="M18.7303 7.74658V6.19141H20.1113V7.74658H18.7303Z" fill="black"/>
<path d="M19.9366 7.74658V6.19141H21.3177V7.74658H19.9366Z" fill="black"/>
<path d="M20.9891 7.74658V6.19141H22.524V7.74658H20.9891Z" fill="black"/>
<path d="M22.4262 7.74658V6.19141H23.8073V7.74658H22.4262Z" fill="black"/>
<path d="M23.6326 7.74658V6.19141H24.2465V7.74658H23.6326Z" fill="black"/>
<path d="M24.0712 7.74658V6.19141H26.0668V7.74658H24.0712Z" fill="black"/>
<path d="M26.1222 7.74658V6.19141H27.3494V7.74658H26.1222Z" fill="black"/>
<path d="M27.1747 7.74658V6.19141H28.7096V7.74658H27.1747Z" fill="black"/>
<path d="M28.458 7.74658V6.19141H29.9929V7.74658H28.458Z" fill="black"/>
<path d="M29.6644 7.74658V6.19141H30.7384V7.74658H29.6644Z" fill="black"/>
<path d="M30.5644 7.74658V6.19141H31.1784V7.74658H30.5644Z" fill="black"/>
<path d="M6 10.7466V9.19141H7.07407V10.7466H6Z" fill="black"/>
<path d="M6.90006 10.7466V9.19141H8.28109V10.7466H6.90006Z" fill="black"/>
<path d="M8.22245 10.7466V9.19141H9.60349V10.7466H8.22245Z" fill="black"/>
<path d="M9.4288 10.7466V9.19141H10.1959V10.7466H9.4288Z" fill="black"/>
<path d="M10.0212 10.7466V9.19141H11.0953V10.7466H10.0212Z" fill="black"/>
<path d="M10.7674 10.7466V9.19141H11.3814V10.7466H10.7674Z" fill="black"/>
<path d="M11.206 10.7466V9.19141H12.7409V10.7466H11.206Z" fill="black"/>
<path d="M12.4893 10.7466V9.19141H13.1032V10.7466H12.4893Z" fill="black"/>
<path d="M12.9279 10.7466V9.19141H14.9235V10.7466H12.9279Z" fill="black"/>
<path d="M14.9789 10.7466V9.19141H16.2061V10.7466H14.9789Z" fill="black"/>
<path d="M16.0314 10.7466V9.19141H17.5663V10.7466H16.0314Z" fill="black"/>
<path d="M17.3147 10.7466V9.19141H18.8496V10.7466H17.3147Z" fill="black"/>
<path d="M18.5211 10.7466V9.19141H19.5951V10.7466H18.5211Z" fill="black"/>
<path d="M19.4211 10.7466V9.19141H20.0351V10.7466H19.4211Z" fill="black"/>
<path d="M19.8597 10.7466V9.19141H20.9338V10.7466H19.8597Z" fill="black"/>
<path d="M20.6059 10.7466V9.19141H22.1408V10.7466H20.6059Z" fill="black"/>
<path d="M21.9661 10.7466V9.19141H23.501V10.7466H21.9661Z" fill="black"/>
<path d="M23.2494 10.7466V9.19141H24.3234V10.7466H23.2494Z" fill="black"/>
<path d="M23.9956 10.7466V9.19141H24.6096V10.7466H23.9956Z" fill="black"/>
<path d="M24.4342 10.7466V9.19141H26.583V10.7466H24.4342Z" fill="black"/>
<path d="M26.3314 10.7466V9.19141H27.8663V10.7466H26.3314Z" fill="black"/>
<path d="M27.5378 10.7466V9.19141H28.1517V10.7466H27.5378Z" fill="black"/>
<path d="M6 13.7466V12.1914H7.53486V13.7466H6Z" fill="black"/>
<path d="M7.36018 13.7466V12.1914H8.89504V13.7466H7.36018Z" fill="black"/>
<path d="M8.56653 13.7466V12.1914H9.94757V13.7466H8.56653Z" fill="black"/>
<path d="M9.84979 13.7466V12.1914H11.3847V13.7466H9.84979Z" fill="black"/>
<path d="M11.0561 13.7466V12.1914H11.6701V13.7466H11.0561Z" fill="black"/>
<path d="M11.4947 13.7466V12.1914H13.0296V13.7466H11.4947Z" fill="black"/>
<path d="M12.778 13.7466V12.1914H13.8521V13.7466H12.778Z" fill="black"/>
<path d="M13.5242 13.7466V12.1914H14.1382V13.7466H13.5242Z" fill="black"/>
<path d="M13.9628 13.7466V12.1914H15.4977V13.7466H13.9628Z" fill="black"/>
<path d="M15.2461 13.7466V12.1914H16.3201V13.7466H15.2461Z" fill="black"/>
<path d="M16.1461 13.7466V12.1914H17.2202V13.7466H16.1461Z" fill="black"/>
<path d="M17.0462 13.7466V12.1914H17.8133V13.7466H17.0462Z" fill="black"/>
<path d="M17.5617 13.7466V12.1914H18.1756V13.7466H17.5617Z" fill="black"/>
<path d="M18.0003 13.7466V12.1914H20.1491V13.7466H18.0003Z" fill="black"/>
<path d="M19.8975 13.7466V12.1914H21.4323V13.7466H19.8975Z" fill="black"/>
<path d="M21.2577 13.7466V12.1914H22.7925V13.7466H21.2577Z" fill="black"/>
<path d="M22.6178 13.7466V12.1914H23.9989V13.7466H22.6178Z" fill="black"/>
<path d="M23.8242 13.7466V12.1914H24.4381V13.7466H23.8242Z" fill="black"/>
<path d="M24.2628 13.7466V12.1914H26.4116V13.7466H24.2628Z" fill="black"/>
<path d="M26.16 13.7466V12.1914H27.6948V13.7466H26.16Z" fill="black"/>
<path d="M27.3663 13.7466V12.1914H28.1334V13.7466H27.3663Z" fill="black"/>
<path d="M27.9587 13.7466V12.1914H29.3398V13.7466H27.9587Z" fill="black"/>
<path d="M29.0315 13.7466V12.1914H30.5664V13.7466H29.0315Z" fill="black"/>
<path d="M30.2379 13.7466V12.1914H30.8518V13.7466H30.2379Z" fill="black"/>
<path d="M6 16.7466V15.1914H7.07407V16.7466H6Z" fill="black"/>
<path d="M6.74623 16.7466V15.1914H8.28109V16.7466H6.74623Z" fill="black"/>
<path d="M8.10641 16.7466V15.1914H9.18047V16.7466H8.10641Z" fill="black"/>
<path d="M9.16029 16.7466V15.1914H10.5413V16.7466H9.16029Z" fill="black"/>
<path d="M10.3666 16.7466V15.1914H11.9015V16.7466H10.3666Z" fill="black"/>
<path d="M11.689 16.7466V15.1914H12.7631V16.7466H11.689Z" fill="black"/>
<path d="M12.7429 16.7466V15.1914H14.124V16.7466H12.7429Z" fill="black"/>
<path d="M13.9493 16.7466V15.1914H15.4841V16.7466H13.9493Z" fill="black"/>
<path d="M15.3094 16.7466V15.1914H15.9234V16.7466H15.3094Z" fill="black"/>
<path d="M15.9019 16.7466V15.1914H17.1291V16.7466H15.9019Z" fill="black"/>
<path d="M16.9544 16.7466V15.1914H18.1823V16.7466H16.9544Z" fill="black"/>
<path d="M17.8544 16.7466V15.1914H18.4684V16.7466H17.8544Z" fill="black"/>
<path d="M18.293 16.7466V15.1914H19.9817V16.7466H18.293Z" fill="black"/>
<path d="M19.8259 16.7466V15.1914H21.0531V16.7466H19.8259Z" fill="black"/>
<path d="M20.8784 16.7466V15.1914H22.2595V16.7466H20.8784Z" fill="black"/>
<path d="M21.9512 16.7466V15.1914H23.0253V16.7466H21.9512Z" fill="black"/>
<path d="M22.6974 16.7466V15.1914H24.2323V16.7466H22.6974Z" fill="black"/>
<path d="M24.0576 16.7466V15.1914H24.6716V16.7466H24.0576Z" fill="black"/>
<path d="M24.4962 16.7466V15.1914H26.1849V16.7466H24.4962Z" fill="black"/>
<path d="M26.0871 16.7466V15.1914H27.3143V16.7466H26.0871Z" fill="black"/>
<path d="M27.1397 16.7466V15.1914H28.5207V16.7466H27.1397Z" fill="black"/>
<path d="M28.2124 16.7466V15.1914H29.7473V16.7466H28.2124Z" fill="black"/>
<path d="M29.4188 16.7466V15.1914H30.9536V16.7466H29.4188Z" fill="black"/>
<path d="M30.702 16.7466V15.1914H31.4691V16.7466H30.702Z" fill="black"/>
<path d="M31.2175 16.7466V15.1914H31.8315V16.7466H31.2175Z" fill="black"/>
<path d="M6 19.7466V18.1914H7.22789V19.7466H6Z" fill="black"/>
<path d="M7.20635 19.7466V18.1914H8.58739V19.7466H7.20635Z" fill="black"/>
<path d="M8.41271 19.7466V18.1914H9.02665V19.7466H8.41271Z" fill="black"/>
<path d="M8.85129 19.7466V18.1914H10.3862V19.7466H8.85129Z" fill="black"/>
<path d="M10.1346 19.7466V18.1914H11.2086V19.7466H10.1346Z" fill="black"/>
<path d="M11.1884 19.7466V18.1914H12.5695V19.7466H11.1884Z" fill="black"/>
<path d="M12.3948 19.7466V18.1914H13.7758V19.7466H12.3948Z" fill="black"/>
<path d="M13.4473 19.7466V18.1914H14.9822V19.7466H13.4473Z" fill="black"/>
<path d="M14.7306 19.7466V18.1914H15.4977V19.7466H14.7306Z" fill="black"/>
<path d="M15.2461 19.7466V18.1914H15.86V19.7466H15.2461Z" fill="black"/>
<path d="M15.6847 19.7466V18.1914H17.8335V19.7466H15.6847Z" fill="black"/>
<path d="M17.5819 19.7466V18.1914H19.1167V19.7466H17.5819Z" fill="black"/>
<path d="M18.7882 19.7466V18.1914H19.4022V19.7466H18.7882Z" fill="black"/>
<path d="M19.2268 19.7466V18.1914H20.7617V19.7466H19.2268Z" fill="black"/>
<path d="M20.5101 19.7466V18.1914H22.0449V19.7466H20.5101Z" fill="black"/>
<path d="M21.7164 19.7466V18.1914H23.0975V19.7466H21.7164Z" fill="black"/>
<path d="M22.8459 19.7466V18.1914H23.9199V19.7466H22.8459Z" fill="black"/>
<path d="M23.7459 19.7466V18.1914H25.7416V19.7466H23.7459Z" fill="black"/>
<path d="M25.6431 19.7466V18.1914H27.178V19.7466H25.6431Z" fill="black"/>
<path d="M26.9264 19.7466V18.1914H28.0005V19.7466H26.9264Z" fill="black"/>
<path d="M27.6726 19.7466V18.1914H29.2075V19.7466H27.6726Z" fill="black"/>
<path d="M28.879 19.7466V18.1914H30.4139V19.7466H28.879Z" fill="black"/>
<path d="M30.1623 19.7466V18.1914H30.7762V19.7466H30.1623Z" fill="black"/>
<path d="M6 22.7466V21.1914H7.07407V22.7466H6Z" fill="black"/>
<path d="M6.74623 22.7466V21.1914H8.28109V22.7466H6.74623Z" fill="black"/>
<path d="M8.10641 22.7466V21.1914H9.64127V22.7466H8.10641Z" fill="black"/>
<path d="M9.38967 22.7466V21.1914H10.4637V22.7466H9.38967Z" fill="black"/>
<path d="M10.1359 22.7466V21.1914H10.7499V22.7466H10.1359Z" fill="black"/>
<path d="M10.5745 22.7466V21.1914H11.9555V22.7466H10.5745Z" fill="black"/>
<path d="M11.8578 22.7466V21.1914H13.085V22.7466H11.8578Z" fill="black"/>
<path d="M12.9103 22.7466V21.1914H14.4451V22.7466H12.9103Z" fill="black"/>
<path d="M14.4243 22.7466V21.1914H15.8053V22.7466H14.4243Z" fill="black"/>
<path d="M15.6306 22.7466V21.1914H16.7047V22.7466H15.6306Z" fill="black"/>
<path d="M16.3769 22.7466V21.1914H17.7579V22.7466H16.3769Z" fill="black"/>
<path d="M17.6035 22.7466V21.1914H18.9845V22.7466H17.6035Z" fill="black"/>
<path d="M18.7329 22.7466V21.1914H19.5V22.7466H18.7329Z" fill="black"/>
<path d="M19.2484 22.7466V21.1914H19.8623V22.7466H19.2484Z" fill="black"/>
<path d="M19.687 22.7466V21.1914H21.2219V22.7466H19.687Z" fill="black"/>
<path d="M21.0472 22.7466V21.1914H22.582V22.7466H21.0472Z" fill="black"/>
<path d="M22.4073 22.7466V21.1914H23.9422V22.7466H22.4073Z" fill="black"/>
<path d="M23.6906 22.7466V21.1914H24.7647V22.7466H23.6906Z" fill="black"/>
<path d="M24.4368 22.7466V21.1914H25.0508V22.7466H24.4368Z" fill="black"/>
<path d="M6 25.7466V24.1914H7.38104V25.7466H6Z" fill="black"/>
<path d="M7.28326 25.7466V24.1914H8.51048V25.7466H7.28326Z" fill="black"/>
<path d="M8.33579 25.7466V24.1914H9.87066V25.7466H8.33579Z" fill="black"/>
<path d="M9.84979 25.7466V24.1914H11.2308V25.7466H9.84979Z" fill="black"/>
<path d="M11.0561 25.7466V24.1914H12.1302V25.7466H11.0561Z" fill="black"/>
<path d="M11.8024 25.7466V24.1914H13.1834V25.7466H11.8024Z" fill="black"/>
<path d="M13.029 25.7466V24.1914H14.41V25.7466H13.029Z" fill="black"/>
<path d="M14.1584 25.7466V24.1914H14.7724V25.7466H14.1584Z" fill="black"/>
<path d="M14.597 25.7466V24.1914H16.7458V25.7466H14.597Z" fill="black"/>
<path d="M16.4173 25.7466V24.1914H17.9522V25.7466H16.4173Z" fill="black"/>
<path d="M17.7006 25.7466V24.1914H19.0816V25.7466H17.7006Z" fill="black"/>
<path d="M18.8691 25.7466V24.1914H19.4831V25.7466H18.8691Z" fill="black"/>
<path d="M19.3077 25.7466V24.1914H20.8426V25.7466H19.3077Z" fill="black"/>
<path d="M20.591 25.7466V24.1914H22.1258V25.7466H20.591Z" fill="black"/>
<path d="M21.7973 25.7466V24.1914H23.1784V25.7466H21.7973Z" fill="black"/>
<path d="M22.9268 25.7466V24.1914H24.0008V25.7466H22.9268Z" fill="black"/>
<path d="M23.8268 25.7466V24.1914H25.8225V25.7466H23.8268Z" fill="black"/>
<path d="M25.724 25.7466V24.1914H27.2589V25.7466H25.724Z" fill="black"/>
<path d="M27.0073 25.7466V24.1914H28.0814V25.7466H27.0073Z" fill="black"/>
<path d="M27.7535 25.7466V24.1914H29.2884V25.7466H27.7535Z" fill="black"/>
<path d="M28.9599 25.7466V24.1914H30.4948V25.7466H28.9599Z" fill="black"/>
<path d="M30.2432 25.7466V24.1914H31.0103V25.7466H30.2432Z" fill="black"/>
<path d="M30.7587 25.7466V24.1914H31.3726V25.7466H30.7587Z" fill="black"/>
<path d="M6 28.7466V27.1914H7.53486V28.7466H6Z" fill="black"/>
<path d="M7.36018 28.7466V27.1914H8.89504V28.7466H7.36018Z" fill="black"/>
<path d="M8.72035 28.7466V27.1914H10.2552V28.7466H8.72035Z" fill="black"/>
<path d="M9.92671 28.7466V27.1914H11.3077V28.7466H9.92671Z" fill="black"/>
<path d="M10.9995 28.7466V27.1914H12.5343V28.7466H10.9995Z" fill="black"/>
<path d="M12.2058 28.7466V27.1914H12.8198V28.7466H12.2058Z" fill="black"/>
<path d="M12.6444 28.7466V27.1914H14.7932V28.7466H12.6444Z" fill="black"/>
<path d="M14.4647 28.7466V27.1914H15.9996V28.7466H14.4647Z" fill="black"/>
<path d="M15.748 28.7466V27.1914H17.129V28.7466H15.748Z" fill="black"/>
<path d="M16.9165 28.7466V27.1914H17.5305V28.7466H16.9165Z" fill="black"/>
<path d="M17.509 28.7466V27.1914H18.89V28.7466H17.509Z" fill="black"/>
<path d="M18.8691 28.7466V27.1914H20.0963V28.7466H18.8691Z" fill="black"/>
<path d="M19.9217 28.7466V27.1914H20.5356V28.7466H19.9217Z" fill="black"/>
<path d="M20.3603 28.7466V27.1914H21.8951V28.7466H20.3603Z" fill="black"/>
<path d="M21.6435 28.7466V27.1914H23.1784V28.7466H21.6435Z" fill="black"/>
<path d="M22.8499 28.7466V27.1914H24.3847V28.7466H22.8499Z" fill="black"/>
<path d="M24.1331 28.7466V27.1914H25.2072V28.7466H24.1331Z" fill="black"/>
<path d="M25.0332 28.7466V27.1914H25.6471V28.7466H25.0332Z" fill="black"/>
<path d="M25.4718 28.7466V27.1914H26.5458V28.7466H25.4718Z" fill="black"/>
<path d="M26.3718 28.7466V27.1914H27.599V28.7466H26.3718Z" fill="black"/>
<path d="M27.4244 28.7466V27.1914H28.0383V28.7466H27.4244Z" fill="black"/>
<path d="M6 31.7466V30.1914H7.53486V31.7466H6Z" fill="black"/>
<path d="M7.3224 31.7466V30.1914H8.85726V31.7466H7.3224Z" fill="black"/>
<path d="M8.52875 31.7466V30.1914H10.0636V31.7466H8.52875Z" fill="black"/>
<path d="M9.88893 31.7466V30.1914H11.27V31.7466H9.88893Z" fill="black"/>
<path d="M11.0184 31.7466V30.1914H11.6323V31.7466H11.0184Z" fill="black"/>
<path d="M11.457 31.7466V30.1914H12.9918V31.7466H11.457Z" fill="black"/>
<path d="M12.8171 31.7466V30.1914H14.352V31.7466H12.8171Z" fill="black"/>
<path d="M14.1004 31.7466V30.1914H15.6353V31.7466H14.1004Z" fill="black"/>
<path d="M15.3837 31.7466V30.1914H16.9185V31.7466H15.3837Z" fill="black"/>
<path d="M16.7438 31.7466V30.1914H18.2787V31.7466H16.7438Z" fill="black"/>
<path d="M18.0271 31.7466V30.1914H19.255V31.7466H18.0271Z" fill="black"/>
<path d="M18.9272 31.7466V30.1914H20.0012V31.7466H18.9272Z" fill="black"/>
<path d="M19.8272 31.7466V30.1914H20.5943V31.7466H19.8272Z" fill="black"/>
<path d="M20.3427 31.7466V30.1914H20.9567V31.7466H20.3427Z" fill="black"/>
<path d="M20.7813 31.7466V30.1914H22.3162V31.7466H20.7813Z" fill="black"/>
<path d="M22.1415 31.7466V30.1914H23.6763V31.7466H22.1415Z" fill="black"/>
<path d="M23.5016 31.7466V30.1914H25.0365V31.7466H23.5016Z" fill="black"/>
<path d="M24.708 31.7466V30.1914H25.3219V31.7466H24.708Z" fill="black"/>
<path d="M25.1466 31.7466V30.1914H26.6814V31.7466H25.1466Z" fill="black"/>
<path d="M26.4299 31.7466V30.1914H27.5039V31.7466H26.4299Z" fill="black"/>
<path d="M27.4837 31.7466V30.1914H28.8648V31.7466H27.4837Z" fill="black"/>
<path d="M28.6901 31.7466V30.1914H30.0711V31.7466H28.6901Z" fill="black"/>
<path d="M29.7426 31.7466V30.1914H31.2775V31.7466H29.7426Z" fill="black"/>
<path d="M31.1797 31.7466V30.1914H32.5607V31.7466H31.1797Z" fill="black"/>
<path d="M32.3861 31.7466V30.1914H33V31.7466H32.3861Z" fill="black"/>
<path d="M6 34.7466V33.1914H7.99566V34.7466H6Z" fill="black"/>
<path d="M8.05103 34.7466V33.1914H9.27825V34.7466H8.05103Z" fill="black"/>
<path d="M9.10356 34.7466V33.1914H10.6384V34.7466H9.10356Z" fill="black"/>
<path d="M10.3868 34.7466V33.1914H11.9217V34.7466H10.3868Z" fill="black"/>
<path d="M11.5932 34.7466V33.1914H12.6672V34.7466H11.5932Z" fill="black"/>
<path d="M12.4932 34.7466V33.1914H13.1072V34.7466H12.4932Z" fill="black"/>
<path d="M12.9318 34.7466V33.1914H14.0059V34.7466H12.9318Z" fill="black"/>
<path d="M13.6781 34.7466V33.1914H15.2129V34.7466H13.6781Z" fill="black"/>
<path d="M15.0382 34.7466V33.1914H16.5731V34.7466H15.0382Z" fill="black"/>
<path d="M16.3215 34.7466V33.1914H17.3956V34.7466H16.3215Z" fill="black"/>
<path d="M17.0677 34.7466V33.1914H17.6817V34.7466H17.0677Z" fill="black"/>
<path d="M17.5063 34.7466V33.1914H19.6551V34.7466H17.5063Z" fill="black"/>
<path d="M19.3266 34.7466V33.1914H20.8615V34.7466H19.3266Z" fill="black"/>
<path d="M20.6099 34.7466V33.1914H21.9909V34.7466H20.6099Z" fill="black"/>
<path d="M21.7784 34.7466V33.1914H22.3924V34.7466H21.7784Z" fill="black"/>
<path d="M6 37.7466V36.1914H7.99566V37.7466H6Z" fill="black"/>
<path d="M7.89721 37.7466V36.1914H9.43207V37.7466H7.89721Z" fill="black"/>
<path d="M9.25739 37.7466V36.1914H10.6384V37.7466H9.25739Z" fill="black"/>
<path d="M10.4637 37.7466V36.1914H11.5378V37.7466H10.4637Z" fill="black"/>
<path d="M11.21 37.7466V36.1914H12.284V37.7466H11.21Z" fill="black"/>
<path d="M12.2639 37.7466V36.1914H13.4911V37.7466H12.2639Z" fill="black"/>
<path d="M13.4702 37.7466V36.1914H14.8512V37.7466H13.4702Z" fill="black"/>
<path d="M14.6766 37.7466V36.1914H16.2114V37.7466H14.6766Z" fill="black"/>
<path d="M15.8829 37.7466V36.1914H17.4178V37.7466H15.8829Z" fill="black"/>
<path d="M17.1662 37.7466V36.1914H17.7801V37.7466H17.1662Z" fill="black"/>
<path d="M17.6048 37.7466V36.1914H19.7536V37.7466H17.6048Z" fill="black"/>
<path d="M19.4251 37.7466V36.1914H20.9599V37.7466H19.4251Z" fill="black"/>
<path d="M20.7083 37.7466V36.1914H22.0894V37.7466H20.7083Z" fill="black"/>
<path d="M21.8769 37.7466V36.1914H22.4908V37.7466H21.8769Z" fill="black"/>
<path d="M22.3155 37.7466V36.1914H23.8503V37.7466H22.3155Z" fill="black"/>
<path d="M23.5987 37.7466V36.1914H24.2127V37.7466H23.5987Z" fill="black"/>
<path d="M24.0373 37.7466V36.1914H26.033V37.7466H24.0373Z" fill="black"/>
<path d="M25.9345 37.7466V36.1914H27.4694V37.7466H25.9345Z" fill="black"/>
<path d="M27.2947 37.7466V36.1914H28.6758V37.7466H27.2947Z" fill="black"/>
<path d="M28.4242 37.7466V36.1914H29.959V37.7466H28.4242Z" fill="black"/>
<path d="M29.7843 37.7466V36.1914H30.3983V37.7466H29.7843Z" fill="black"/>
<path d="M6 40.7466V39.1914H7.53486V40.7466H6Z" fill="black"/>
<path d="M7.28326 40.7466V39.1914H8.35733V40.7466H7.28326Z" fill="black"/>
<path d="M8.18332 40.7466V39.1914H9.41121V40.7466H8.18332Z" fill="black"/>
<path d="M9.08338 40.7466V39.1914H10.3113V40.7466H9.08338Z" fill="black"/>
<path d="M9.98343 40.7466V39.1914H11.5183V40.7466H9.98343Z" fill="black"/>
<path d="M11.1898 40.7466V39.1914H12.5708V40.7466H11.1898Z" fill="black"/>
<path d="M12.2626 40.7466V39.1914H13.7974V40.7466H12.2626Z" fill="black"/>
<path d="M13.6227 40.7466V39.1914H15.0038V40.7466H13.6227Z" fill="black"/>
<path d="M14.8291 40.7466V39.1914H15.9032V40.7466H14.8291Z" fill="black"/>
<path d="M15.5753 40.7466V39.1914H16.1893V40.7466H15.5753Z" fill="black"/>
<path d="M16.0139 40.7466V39.1914H17.5488V40.7466H16.0139Z" fill="black"/>
<path d="M17.2972 40.7466V39.1914H18.832V40.7466H17.2972Z" fill="black"/>
<path d="M18.5035 40.7466V39.1914H20.0384V40.7466H18.5035Z" fill="black"/>
<path d="M19.7868 40.7466V39.1914H20.8609V40.7466H19.7868Z" fill="black"/>
<path d="M20.6868 40.7466V39.1914H21.4539V40.7466H20.6868Z" fill="black"/>
<path d="M21.2023 40.7466V39.1914H21.8163V40.7466H21.2023Z" fill="black"/>
<path d="M21.6409 40.7466V39.1914H23.1758V40.7466H21.6409Z" fill="black"/>
<path d="M23.0011 40.7466V39.1914H24.536V40.7466H23.0011Z" fill="black"/>
<path d="M24.3613 40.7466V39.1914H25.4353V40.7466H24.3613Z" fill="black"/>
<path d="M25.2613 40.7466V39.1914H26.6424V40.7466H25.2613Z" fill="black"/>
<path d="M26.4299 40.7466V39.1914H27.0438V40.7466H26.4299Z" fill="black"/>
<path d="M6 43.7466V42.1914H8.1488V43.7466H6Z" fill="black"/>
<path d="M8.05103 43.7466V42.1914H9.27825V43.7466H8.05103Z" fill="black"/>
<path d="M9.10356 43.7466V42.1914H10.6384V43.7466H9.10356Z" fill="black"/>
<path d="M10.4637 43.7466V42.1914H11.5378V43.7466H10.4637Z" fill="black"/>
<path d="M11.3638 43.7466V42.1914H12.8987V43.7466H11.3638Z" fill="black"/>
<path d="M12.6471 43.7466V42.1914H13.261V43.7466H12.6471Z" fill="black"/>
<path d="M13.2395 43.7466V42.1914H14.6205V43.7466H13.2395Z" fill="black"/>
<path d="M14.292 43.7466V42.1914H15.8269V43.7466H14.292Z" fill="black"/>
<path d="M15.4984 43.7466V42.1914H16.1123V43.7466H15.4984Z" fill="black"/>
<path d="M15.9369 43.7466V42.1914H18.0857V43.7466H15.9369Z" fill="black"/>
<path d="M17.8341 43.7466V42.1914H18.9082V43.7466H17.8341Z" fill="black"/>
<path d="M18.7342 43.7466V42.1914H19.8083V43.7466H18.7342Z" fill="black"/>
<path d="M19.4804 43.7466V42.1914H21.0153V43.7466H19.4804Z" fill="black"/>
<path d="M20.8406 43.7466V42.1914H21.4546V43.7466H20.8406Z" fill="black"/>
<path d="M21.2792 43.7466V42.1914H22.9679V43.7466H21.2792Z" fill="black"/>
<path d="M22.7163 43.7466V42.1914H23.7904V43.7466H22.7163Z" fill="black"/>
<path d="M23.6163 43.7466V42.1914H25.612V43.7466H23.6163Z" fill="black"/>
<path d="M25.5136 43.7466V42.1914H26.1275V43.7466H25.5136Z" fill="black"/>
<path d="M25.9521 43.7466V42.1914H27.3332V43.7466H25.9521Z" fill="black"/>
<path d="M27.2556 43.7466V42.1914H28.4829V43.7466H27.2556Z" fill="black"/>
<path d="M28.462 43.7466V42.1914H29.843V43.7466H28.462Z" fill="black"/>
<path d="M29.6683 43.7466V42.1914H31.2032V43.7466H29.6683Z" fill="black"/>
<path d="M31.0285 43.7466V42.1914H31.7956V43.7466H31.0285Z" fill="black"/>
<path d="M6 46.7466V45.1914H7.53486V46.7466H6Z" fill="black"/>
<path d="M7.514 46.7466V45.1914H8.89504V46.7466H7.514Z" fill="black"/>
<path d="M8.72035 46.7466V45.1914H9.3343V46.7466H8.72035Z" fill="black"/>
<path d="M9.15894 46.7466V45.1914H9.92603V46.7466H9.15894Z" fill="black"/>
<path d="M9.75135 46.7466V45.1914H10.5184V46.7466H9.75135Z" fill="black"/>
<path d="M10.3438 46.7466V45.1914H10.9577V46.7466H10.3438Z" fill="black"/>
<path d="M10.7823 46.7466V45.1914H12.1634V46.7466H10.7823Z" fill="black"/>
<path d="M12.1047 46.7466V45.1914H13.332V46.7466H12.1047Z" fill="black"/>
<path d="M13.1573 46.7466V45.1914H15.1529V46.7466H13.1573Z" fill="black"/>
<path d="M15.0545 46.7466V45.1914H16.5893V46.7466H15.0545Z" fill="black"/>
<path d="M16.2608 46.7466V45.1914H17.3349V46.7466H16.2608Z" fill="black"/>
<path d="M17.0071 46.7466V45.1914H18.5419V46.7466H17.0071Z" fill="black"/>
<path d="M18.3672 46.7466V45.1914H19.4413V46.7466H18.3672Z" fill="black"/>
<path d="M19.4211 46.7466V45.1914H20.8022V46.7466H19.4211Z" fill="black"/>
<path d="M20.6275 46.7466V45.1914H22.1623V46.7466H20.6275Z" fill="black"/>
<path d="M21.9876 46.7466V45.1914H22.6016V46.7466H21.9876Z" fill="black"/>
<path d="M22.4262 46.7466V45.1914H24.575V46.7466H22.4262Z" fill="black"/>
<path d="M24.3234 46.7466V45.1914H25.8583V46.7466H24.3234Z" fill="black"/>
<path d="M25.6836 46.7466V45.1914H27.2185V46.7466H25.6836Z" fill="black"/>
<path d="M26.89 46.7466V45.1914H28.271V46.7466H26.89Z" fill="black"/>
<path d="M27.9627 46.7466V45.1914H29.4976V46.7466H27.9627Z" fill="black"/>
<path d="M29.1691 46.7466V45.1914H29.783V46.7466H29.1691Z" fill="black"/>
<path d="M6 49.7466V48.1914H7.53486V49.7466H6Z" fill="black"/>
<path d="M7.36018 49.7466V48.1914H8.89504V49.7466H7.36018Z" fill="black"/>
<path d="M8.56653 49.7466V48.1914H9.33362V49.7466H8.56653Z" fill="black"/>
<path d="M9.15894 49.7466V48.1914H10.6938V49.7466H9.15894Z" fill="black"/>
<path d="M10.4422 49.7466V48.1914H11.0561V49.7466H10.4422Z" fill="black"/>
<path d="M11.0346 49.7466V48.1914H12.4157V49.7466H11.0346Z" fill="black"/>
<path d="M12.0871 49.7466V48.1914H13.622V49.7466H12.0871Z" fill="black"/>
<path d="M13.2935 49.7466V48.1914H13.9074V49.7466H13.2935Z" fill="black"/>
<path d="M13.7321 49.7466V48.1914H14.8061V49.7466H13.7321Z" fill="black"/>
<path d="M14.4783 49.7466V48.1914H16.0132V49.7466H14.4783Z" fill="black"/>
<path d="M15.8385 49.7466V48.1914H17.3734V49.7466H15.8385Z" fill="black"/>
<path d="M17.0448 49.7466V48.1914H18.4259V49.7466H17.0448Z" fill="black"/>
<path d="M18.1176 49.7466V48.1914H19.6525V49.7466H18.1176Z" fill="black"/>
<path d="M19.324 49.7466V48.1914H20.0911V49.7466H19.324Z" fill="black"/>
<path d="M19.8395 49.7466V48.1914H20.4534V49.7466H19.8395Z" fill="black"/>
<path d="M20.2781 49.7466V48.1914H21.8129V49.7466H20.2781Z" fill="black"/>
<path d="M21.6382 49.7466V48.1914H23.1731V49.7466H21.6382Z" fill="black"/>
<path d="M22.8446 49.7466V48.1914H23.6117V49.7466H22.8446Z" fill="black"/>
<path d="M23.437 49.7466V48.1914H24.9719V49.7466H23.437Z" fill="black"/>
<path d="M24.7203 49.7466V48.1914H25.3342V49.7466H24.7203Z" fill="black"/>
<path d="M25.3127 49.7466V48.1914H26.6937V49.7466H25.3127Z" fill="black"/>
<path d="M26.3652 49.7466V48.1914H27.9001V49.7466H26.3652Z" fill="black"/>
<path d="M27.5715 49.7466V48.1914H28.1855V49.7466H27.5715Z" fill="black"/>
<path d="M28.0101 49.7466V48.1914H29.0842V49.7466H28.0101Z" fill="black"/>
<path d="M29.064 49.7466V48.1914H30.445V49.7466H29.064Z" fill="black"/>
<path d="M30.2704 49.7466V48.1914H30.8843V49.7466H30.2704Z" fill="black"/>
<path d="M6 52.7466V51.1914H7.53486V52.7466H6Z" fill="black"/>
<path d="M7.36018 52.7466V51.1914H8.43424V52.7466H7.36018Z" fill="black"/>
<path d="M8.26023 52.7466V51.1914H9.64127V52.7466H8.26023Z" fill="black"/>
<path d="M9.4288 52.7466V51.1914H10.0427V52.7466H9.4288Z" fill="black"/>
<path d="M9.86739 52.7466V51.1914H11.2484V52.7466H9.86739Z" fill="black"/>
<path d="M11.1507 52.7466V51.1914H12.3779V52.7466H11.1507Z" fill="black"/>
<path d="M12.2032 52.7466V51.1914H13.738V52.7466H12.2032Z" fill="black"/>
<path d="M13.7172 52.7466V51.1914H15.0982V52.7466H13.7172Z" fill="black"/>
<path d="M14.9235 52.7466V51.1914H15.9976V52.7466H14.9235Z" fill="black"/>
<path d="M15.6698 52.7466V51.1914H17.0508V52.7466H15.6698Z" fill="black"/>
<path d="M16.8964 52.7466V51.1914H18.2774V52.7466H16.8964Z" fill="black"/>
<path d="M18.0258 52.7466V51.1914H18.7929V52.7466H18.0258Z" fill="black"/>
<path d="M18.5413 52.7466V51.1914H19.1552V52.7466H18.5413Z" fill="black"/>
<path d="M18.9799 52.7466V51.1914H20.5147V52.7466H18.9799Z" fill="black"/>
<path d="M20.3401 52.7466V51.1914H21.8749V52.7466H20.3401Z" fill="black"/>
<path d="M21.5464 52.7466V51.1914H22.3135V52.7466H21.5464Z" fill="black"/>
<path d="M22.1388 52.7466V51.1914H23.6737V52.7466H22.1388Z" fill="black"/>
<path d="M23.4221 52.7466V51.1914H24.036V52.7466H23.4221Z" fill="black"/>
<path d="M24.0145 52.7466V51.1914H25.3955V52.7466H24.0145Z" fill="black"/>
<path d="M25.067 52.7466V51.1914H26.6019V52.7466H25.067Z" fill="black"/>
<path d="M26.2734 52.7466V51.1914H26.8873V52.7466H26.2734Z" fill="black"/>
<path d="M6 55.7466V54.1914H7.38104V55.7466H6Z" fill="black"/>
<path d="M7.07277 55.7466V54.1914H8.60763V55.7466H7.07277Z" fill="black"/>
<path d="M8.58677 55.7466V54.1914H9.96781V55.7466H8.58677Z" fill="black"/>
<path d="M9.94695 55.7466V54.1914H11.328V55.7466H9.94695Z" fill="black"/>
<path d="M11.1533 55.7466V54.1914H12.2274V55.7466H11.1533Z" fill="black"/>
<path d="M12.2072 55.7466V54.1914H13.5882V55.7466H12.2072Z" fill="black"/>
<path d="M13.4135 55.7466V54.1914H14.9484V55.7466H13.4135Z" fill="black"/>
<path d="M14.7737 55.7466V54.1914H15.3877V55.7466H14.7737Z" fill="black"/>
<path d="M15.2123 55.7466V54.1914H16.7472V55.7466H15.2123Z" fill="black"/>
<path d="M16.5725 55.7466V54.1914H17.6465V55.7466H16.5725Z" fill="black"/>
<path d="M17.4725 55.7466V54.1914H18.8536V55.7466H17.4725Z" fill="black"/>
<path d="M18.6411 55.7466V54.1914H19.255V55.7466H18.6411Z" fill="black"/>
<path d="M19.0797 55.7466V54.1914H20.4607V55.7466H19.0797Z" fill="black"/>
<path d="M20.3629 55.7466V54.1914H21.5902V55.7466H20.3629Z" fill="black"/>
<path d="M21.4155 55.7466V54.1914H22.9503V55.7466H21.4155Z" fill="black"/>
<path d="M22.9295 55.7466V54.1914H24.3105V55.7466H22.9295Z" fill="black"/>
<path d="M24.1358 55.7466V54.1914H25.2099V55.7466H24.1358Z" fill="black"/>
<path d="M24.8821 55.7466V54.1914H26.2631V55.7466H24.8821Z" fill="black"/>
<path d="M26.1087 55.7466V54.1914H27.4897V55.7466H26.1087Z" fill="black"/>
<path d="M27.2381 55.7466V54.1914H28.0052V55.7466H27.2381Z" fill="black"/>
<path d="M27.7536 55.7466V54.1914H28.3675V55.7466H27.7536Z" fill="black"/>
<path d="M28.1922 55.7466V54.1914H29.8809V55.7466H28.1922Z" fill="black"/>
<path d="M29.6671 55.7466V54.1914H30.7411V55.7466H29.6671Z" fill="black"/>
<path d="M30.5671 55.7466V54.1914H31.9481V55.7466H30.5671Z" fill="black"/>
<path d="M31.7357 55.7466V54.1914H32.3496V55.7466H31.7357Z" fill="black"/>
<path d="M6 58.7466V57.1914H7.38104V58.7466H6Z" fill="black"/>
<path d="M7.28326 58.7466V57.1914H8.51048V58.7466H7.28326Z" fill="black"/>
<path d="M8.33579 58.7466V57.1914H9.87066V58.7466H8.33579Z" fill="black"/>
<path d="M9.84979 58.7466V57.1914H11.2308V58.7466H9.84979Z" fill="black"/>
<path d="M11.0561 58.7466V57.1914H12.1302V58.7466H11.0561Z" fill="black"/>
<path d="M11.8024 58.7466V57.1914H13.1834V58.7466H11.8024Z" fill="black"/>
<path d="M13.029 58.7466V57.1914H14.41V58.7466H13.029Z" fill="black"/>
<path d="M14.1584 58.7466V57.1914H14.7724V58.7466H14.1584Z" fill="black"/>
<path d="M14.597 58.7466V57.1914H16.7458V58.7466H14.597Z" fill="black"/>
<path d="M16.648 58.7466V57.1914H17.8752V58.7466H16.648Z" fill="black"/>
<path d="M17.7006 58.7466V57.1914H19.2354V58.7466H17.7006Z" fill="black"/>
<path d="M19.0607 58.7466V57.1914H20.1348V58.7466H19.0607Z" fill="black"/>
<path d="M19.9608 58.7466V57.1914H21.4957V58.7466H19.9608Z" fill="black"/>
<path d="M21.2441 58.7466V57.1914H21.858V58.7466H21.2441Z" fill="black"/>
<path d="M21.8365 58.7466V57.1914H23.2175V58.7466H21.8365Z" fill="black"/>
<path d="M22.889 58.7466V57.1914H24.4239V58.7466H22.889Z" fill="black"/>
<path d="M24.0954 58.7466V57.1914H24.7093V58.7466H24.0954Z" fill="black"/>
<path d="M24.5339 58.7466V57.1914H25.915V58.7466H24.5339Z" fill="black"/>
<path d="M25.8172 58.7466V57.1914H27.3521V58.7466H25.8172Z" fill="black"/>
<path d="M27.0236 58.7466V57.1914H28.4046V58.7466H27.0236Z" fill="black"/>
<path d="M28.2501 58.7466V57.1914H29.6312V58.7466H28.2501Z" fill="black"/>
<path d="M29.3796 58.7466V57.1914H29.9935V58.7466H29.3796Z" fill="black"/>
<path d="M6 61.7466V60.1914H7.38104V61.7466H6Z" fill="black"/>
<path d="M7.07277 61.7466V60.1914H8.14683V61.7466H7.07277Z" fill="black"/>
<path d="M7.97283 61.7466V60.1914H9.35386V61.7466H7.97283Z" fill="black"/>
<path d="M9.10227 61.7466V60.1914H10.6371V61.7466H9.10227Z" fill="black"/>
<path d="M10.4624 61.7466V60.1914H11.2295V61.7466H10.4624Z" fill="black"/>
<path d="M10.9779 61.7466V60.1914H11.5919V61.7466H10.9779Z" fill="black"/>
<path d="M11.4165 61.7466V60.1914H13.1052V61.7466H11.4165Z" fill="black"/>
<path d="M12.8914 61.7466V60.1914H13.9655V61.7466H12.8914Z" fill="black"/>
<path d="M13.7915 61.7466V60.1914H15.1725V61.7466H13.7915Z" fill="black"/>
<path d="M14.96 61.7466V60.1914H15.574V61.7466H14.96Z" fill="black"/>
<path d="M15.5524 61.7466V60.1914H16.9335V61.7466H15.5524Z" fill="black"/>
<path d="M16.6819 61.7466V60.1914H18.2167V61.7466H16.6819Z" fill="black"/>
<path d="M18.0421 61.7466V60.1914H19.2693V61.7466H18.0421Z" fill="black"/>
<path d="M19.2484 61.7466V60.1914H20.6294V61.7466H19.2484Z" fill="black"/>
<path d="M20.3778 61.7466V60.1914H21.4519V61.7466H20.3778Z" fill="black"/>
<path d="M21.2779 61.7466V60.1914H22.8128V61.7466H21.2779Z" fill="black"/>
<path d="M22.4843 61.7466V60.1914H23.0982V61.7466H22.4843Z" fill="black"/>
<path d="M22.9228 61.7466V60.1914H24.4577V61.7466H22.9228Z" fill="black"/>
<path d="M24.2061 61.7466V60.1914H25.5871V61.7466H24.2061Z" fill="black"/>
<path d="M25.2789 61.7466V60.1914H26.8137V61.7466H25.2789Z" fill="black"/>
<path d="M26.4852 61.7466V60.1914H27.0992V61.7466H26.4852Z" fill="black"/>
<path d="M6 64.7466V63.1914H7.07407V64.7466H6Z" fill="black"/>
<path d="M6.74623 64.7466V63.1914H8.12727V64.7466H6.74623Z" fill="black"/>
<path d="M7.819 64.7466V63.1914H9.35386V64.7466H7.819Z" fill="black"/>
<path d="M9.02536 64.7466V63.1914H11.021V64.7466H9.02536Z" fill="black"/>
<path d="M10.9226 64.7466V63.1914H12.4574V64.7466H10.9226Z" fill="black"/>
<path d="M12.2827 64.7466V63.1914H13.6638V64.7466H12.2827Z" fill="black"/>
<path d="M13.4891 64.7466V63.1914H15.024V64.7466H13.4891Z" fill="black"/>
<path d="M14.9262 64.7466V63.1914H16.1534V64.7466H14.9262Z" fill="black"/>
<path d="M15.9787 64.7466V63.1914H17.5136V64.7466H15.9787Z" fill="black"/>
<path d="M17.3389 64.7466V63.1914H18.7199V64.7466H17.3389Z" fill="black"/>
<path d="M18.5075 64.7466V63.1914H19.5815V64.7466H18.5075Z" fill="black"/>
<path d="M19.4844 64.7466V63.1914H20.8655V64.7466H19.4844Z" fill="black"/>
<path d="M20.6139 64.7466V63.1914H21.2278V64.7466H20.6139Z" fill="black"/>
<path d="M6 67.7466V66.1914H7.07407V67.7466H6Z" fill="black"/>
<path d="M7.05388 67.7466V66.1914H8.43492V67.7466H7.05388Z" fill="black"/>
<path d="M8.26023 67.7466V66.1914H9.79509V67.7466H8.26023Z" fill="black"/>
<path d="M9.5435 67.7466V66.1914H11.0784V67.7466H9.5435Z" fill="black"/>
<path d="M10.9037 67.7466V66.1914H12.2847V67.7466H10.9037Z" fill="black"/>
<path d="M12.0722 67.7466V66.1914H13.1463V67.7466H12.0722Z" fill="black"/>
<path d="M12.8185 67.7466V66.1914H14.1995V67.7466H12.8185Z" fill="black"/>
<path d="M13.8912 67.7466V66.1914H14.9653V67.7466H13.8912Z" fill="black"/>
<path d="M14.9451 67.7466V66.1914H16.1723V67.7466H14.9451Z" fill="black"/>
<path d="M15.9977 67.7466V66.1914H17.5325V67.7466H15.9977Z" fill="black"/>
<path d="M17.3578 67.7466V66.1914H18.7389V67.7466H17.3578Z" fill="black"/>
<path d="M18.5264 67.7466V66.1914H19.2935V67.7466H18.5264Z" fill="black"/>
<path d="M19.0419 67.7466V66.1914H19.809V67.7466H19.0419Z" fill="black"/>
<path d="M6.30697 7.64199H30.8707V7.71172H6.30697V7.64199ZM6.30697 10.642H27.8447V10.7117H6.30697V10.642ZM6.30697 13.642H30.5448V13.7117H6.30697V13.642ZM6.30697 16.642H31.5245V16.7117H6.30697V16.642ZM6.30697 19.642H30.4692V19.7117H6.30697V19.642ZM6.30697 22.642H24.7431V22.7117H6.30697V22.642ZM6.30697 25.642H31.0656V25.7117H6.30697V25.642ZM6.30697 28.642H27.7313V28.7117H6.30697V28.642ZM6.30697 31.642H32.693V31.7117H6.30697V31.642ZM6.30697 34.642H22.0847V34.7117H6.30697V34.642ZM6.30697 37.642H30.0913V37.7117H6.30697V37.642ZM6.30697 40.642H26.7362V40.7117H6.30697V40.642ZM6.30697 43.642H31.9832V43.7117H6.30697V43.642ZM6.30697 46.642H29.4761V46.7117H6.30697V46.642ZM6.30697 49.642H30.5773V49.7117H6.30697V49.642ZM6.30697 52.642H26.5804V52.7117H6.30697V52.642ZM6.30697 55.642H32.042V55.7117H6.30697V55.642ZM6.30697 58.642H29.6866V58.7117H6.30697V58.642ZM6.30697 61.642H26.7922V61.7117H6.30697V61.642ZM6.30697 64.642H20.9208V64.7117H6.30697V64.642ZM6.30697 67.642H19.9966V67.7117H6.30697V67.642Z" fill="black"/>
</g>
<rect width="12" height="14" transform="translate(25 18.1914)" fill="white"/>
<path d="M30.6787 22.0527C31.5999 22.0527 32.2721 22.2513 32.6953 22.6484C33.1185 23.0423 33.3301 23.5859 33.3301 24.2793C33.3301 24.5918 33.2829 24.8913 33.1885 25.1777C33.0941 25.4609 32.9395 25.7132 32.7246 25.9346C32.513 26.1559 32.2298 26.3317 31.875 26.4619C31.5202 26.5889 31.0824 26.6523 30.5615 26.6523H29.9121V29.1914H28.3984V22.0527H30.6787ZM30.6006 23.293H29.9121V25.4121H30.4102C30.6934 25.4121 30.9391 25.3747 31.1475 25.2998C31.3558 25.2249 31.5169 25.1077 31.6309 24.9482C31.7448 24.7887 31.8018 24.5837 31.8018 24.333C31.8018 23.9814 31.7041 23.721 31.5088 23.5518C31.3135 23.3792 31.0107 23.293 30.6006 23.293Z" fill="#585858"/>
</g>
<path d="M11.3333 38.1914H2V44.5395H11.3333V38.1914Z" fill="#BB90BB"/>
</g>
<defs>
<filter id="filter0_d_238_44233" x="0" y="1.19141" width="39" height="35" filterUnits="userSpaceOnUse" color-interpolation-filters="sRGB">
<feFlood flood-opacity="0" result="BackgroundImageFix"/>
<feColorMatrix in="SourceAlpha" type="matrix" values="0 0 0 0 0 0 0 0 0 0 0 0 0 0 0 0 0 0 127 0" result="hardAlpha"/>
<feOffset dy="1"/>
<feGaussianBlur stdDeviation="1"/>
<feComposite in2="hardAlpha" operator="out"/>
<feColorMatrix type="matrix" values="0 0 0 0 0 0 0 0 0 0 0 0 0 0 0 0 0 0 0.1 0"/>
<feBlend mode="normal" in2="BackgroundImageFix" result="effect1_dropShadow_238_44233"/>
<feBlend mode="normal" in="SourceGraphic" in2="effect1_dropShadow_238_44233" result="shape"/>
</filter>
<filter id="filter1_i_238_44233" x="2" y="-2.80859" width="35" height="34" filterUnits="userSpaceOnUse" color-interpolation-filters="sRGB">
<feFlood flood-opacity="0" result="BackgroundImageFix"/>
<feBlend mode="normal" in="SourceGraphic" in2="BackgroundImageFix" result="shape"/>
<feColorMatrix in="SourceAlpha" type="matrix" values="0 0 0 0 0 0 0 0 0 0 0 0 0 0 0 0 0 0 127 0" result="hardAlpha"/>
<feOffset dy="-5"/>
<feGaussianBlur stdDeviation="3.5"/>
<feComposite in2="hardAlpha" operator="arithmetic" k2="-1" k3="1"/>
<feColorMatrix type="matrix" values="0 0 0 0 1 0 0 0 0 1 0 0 0 0 1 0 0 0 1 0"/>
<feBlend mode="normal" in2="shape" result="effect1_innerShadow_238_44233"/>
</filter>
<clipPath id="clip0_238_44233">
<rect width="39" height="46.3481" fill="white" transform="translate(0 0.191406)"/>
</clipPath>
<clipPath id="clip1_238_44233">
<rect width="35" height="31" fill="white" transform="translate(2 2.19141)"/>
</clipPath>
<clipPath id="clip2_238_44233">
<rect width="35" height="29" fill="white" transform="translate(2 2.19141)"/>
</clipPath>
</defs>
</svg>
