<svg width="39" height="48" viewBox="0 0 39 48" fill="none" xmlns="http://www.w3.org/2000/svg">
<g clip-path="url(#clip0_238_44255)">
<g clip-path="url(#clip1_238_44255)" filter="url(#filter0_d_238_44255)">
<rect width="35" height="31" transform="translate(2 2.99805)" fill="white"/>
<g opacity="0.3" clip-path="url(#clip2_238_44255)" filter="url(#filter1_i_238_44255)">
<rect width="35" height="29" transform="translate(2 2.99805)" fill="white"/>
<path d="M6 8.55322V6.99805H6.76871V8.55322H6Z" fill="black"/>
<path d="M6.7478 8.55322V6.99805H8.28589V8.55322H6.7478Z" fill="black"/>
<path d="M7.97562 8.55322V6.99805H9.35956V8.55322H7.97562Z" fill="black"/>
<path d="M9.05065 8.55322V6.99805H10.5887V8.55322H9.05065Z" fill="black"/>
<path d="M10.2595 8.55322V6.99805H11.6435V8.55322H10.2595Z" fill="black"/>
<path d="M11.4306 8.55322V6.99805H12.5069V8.55322H11.4306Z" fill="black"/>
<path d="M12.3325 8.55322V6.99805H13.8706V8.55322H12.3325Z" fill="black"/>
<path d="M13.6185 8.55322V6.99805H15.1566V8.55322H13.6185Z" fill="black"/>
<path d="M14.9815 8.55322V6.99805H16.3655V8.55322H14.9815Z" fill="black"/>
<path d="M16.1904 8.55322V6.99805H17.2667V8.55322H16.1904Z" fill="black"/>
<path d="M16.9382 8.55322V6.99805H17.5534V8.55322H16.9382Z" fill="black"/>
<path d="M17.3777 8.55322V6.99805H18.9158V8.55322H17.3777Z" fill="black"/>
<path d="M18.7408 8.55322V6.99805H20.1247V8.55322H18.7408Z" fill="black"/>
<path d="M19.8158 8.55322V6.99805H21.3539V8.55322H19.8158Z" fill="black"/>
<path d="M21.1788 8.55322V6.99805H23.1787V8.55322H21.1788Z" fill="black"/>
<path d="M23.2342 8.55322V6.99805H24.6181V8.55322H23.2342Z" fill="black"/>
<path d="M24.366 8.55322V6.99805H24.9812V8.55322H24.366Z" fill="black"/>
<path d="M6 11.5532V9.99805H7.38394V11.5532H6Z" fill="black"/>
<path d="M7.07503 11.5532V9.99805H8.61312V11.5532H7.07503Z" fill="black"/>
<path d="M8.28392 11.5532V9.99805H9.66786V11.5532H8.28392Z" fill="black"/>
<path d="M9.56988 11.5532V9.99805H10.7997V11.5532H9.56988Z" fill="black"/>
<path d="M10.6246 11.5532V9.99805H12.1627V11.5532H10.6246Z" fill="black"/>
<path d="M12.1418 11.5532V9.99805H13.5258V11.5532H12.1418Z" fill="black"/>
<path d="M13.3507 11.5532V9.99805H14.427V11.5532H13.3507Z" fill="black"/>
<path d="M14.4068 11.5532V9.99805H15.6366V11.5532H14.4068Z" fill="black"/>
<path d="M15.3655 11.5532V9.99805H16.9036V11.5532H15.3655Z" fill="black"/>
<path d="M16.5744 11.5532V9.99805H17.9584V11.5532H16.5744Z" fill="black"/>
<path d="M17.7455 11.5532V9.99805H18.3607V11.5532H17.7455Z" fill="black"/>
<path d="M18.185 11.5532V9.99805H19.8772V11.5532H18.185Z" fill="black"/>
<path d="M19.7211 11.5532V9.99805H20.9509V11.5532H19.7211Z" fill="black"/>
<path d="M20.7758 11.5532V9.99805H22.1598V11.5532H20.7758Z" fill="black"/>
<path d="M21.8508 11.5532V9.99805H22.9272V11.5532H21.8508Z" fill="black"/>
<path d="M22.5987 11.5532V9.99805H24.1367V11.5532H22.5987Z" fill="black"/>
<path d="M23.9617 11.5532V9.99805H24.5769V11.5532H23.9617Z" fill="black"/>
<path d="M24.4012 11.5532V9.99805H26.0934V11.5532H24.4012Z" fill="black"/>
<path d="M25.9955 11.5532V9.99805H27.2252V11.5532H25.9955Z" fill="black"/>
<path d="M27.0502 11.5532V9.99805H28.4341V11.5532H27.0502Z" fill="black"/>
<path d="M28.1252 11.5532V9.99805H29.6633V11.5532H28.1252Z" fill="black"/>
<path d="M29.3341 11.5532V9.99805H30.8722V11.5532H29.3341Z" fill="black"/>
<path d="M30.6201 11.5532V9.99805H31.3888V11.5532H30.6201Z" fill="black"/>
<path d="M31.2137 11.5532V9.99805H32.5977V11.5532H31.2137Z" fill="black"/>
<path d="M32.3848 11.5532V9.99805H33V11.5532H32.3848Z" fill="black"/>
<path d="M6 14.5532V12.998H7.53809V14.5532H6Z" fill="black"/>
<path d="M7.28596 14.5532V12.998H8.82405V14.5532H7.28596Z" fill="black"/>
<path d="M8.49485 14.5532V12.998H9.8788V14.5532H8.49485Z" fill="black"/>
<path d="M9.66588 14.5532V12.998H10.7422V14.5532H9.66588Z" fill="black"/>
<path d="M10.5678 14.5532V12.998H11.9518V14.5532H10.5678Z" fill="black"/>
<path d="M11.6429 14.5532V12.998H13.1809V14.5532H11.6429Z" fill="black"/>
<path d="M12.8518 14.5532V12.998H13.467V14.5532H12.8518Z" fill="black"/>
<path d="M13.2913 14.5532V12.998H14.5217V14.5532H13.2913Z" fill="black"/>
<path d="M14.3474 14.5532V12.998H15.5771V14.5532H14.3474Z" fill="black"/>
<path d="M15.4021 14.5532V12.998H16.786V14.5532H15.4021Z" fill="black"/>
<path d="M16.4771 14.5532V12.998H17.0924V14.5532H16.4771Z" fill="black"/>
<path d="M16.9166 14.5532V12.998H18.3006V14.5532H16.9166Z" fill="black"/>
<path d="M18.0877 14.5532V12.998H19.6258V14.5532H18.0877Z" fill="black"/>
<path d="M19.2966 14.5532V12.998H20.6805V14.5532H19.2966Z" fill="black"/>
<path d="M20.4284 14.5532V12.998H21.9665V14.5532H20.4284Z" fill="black"/>
<path d="M21.7914 14.5532V12.998H23.1753V14.5532H21.7914Z" fill="black"/>
<path d="M22.8664 14.5532V12.998H23.9428V14.5532H22.8664Z" fill="black"/>
<path d="M23.7684 14.5532V12.998H24.8447V14.5532H23.7684Z" fill="black"/>
<path d="M24.6703 14.5532V12.998H26.0543V14.5532H24.6703Z" fill="black"/>
<path d="M25.8021 14.5532V12.998H26.4174V14.5532H25.8021Z" fill="black"/>
<path d="M26.2417 14.5532V12.998H27.7797V14.5532H26.2417Z" fill="black"/>
<path d="M27.6818 14.5532V12.998H29.0657V14.5532H27.6818Z" fill="black"/>
<path d="M28.8907 14.5532V12.998H30.4287V14.5532H28.8907Z" fill="black"/>
<path d="M30.1766 14.5532V12.998H30.7919V14.5532H30.1766Z" fill="black"/>
<path d="M6 17.5532V15.998H7.07632V17.5532H6Z" fill="black"/>
<path d="M6.90195 17.5532V15.998H8.28589V17.5532H6.90195Z" fill="black"/>
<path d="M8.07298 17.5532V15.998H8.68821V17.5532H8.07298Z" fill="black"/>
<path d="M8.66663 17.5532V15.998H10.0506V17.5532H8.66663Z" fill="black"/>
<path d="M9.79845 17.5532V15.998H11.1824V17.5532H9.79845Z" fill="black"/>
<path d="M10.8735 17.5532V15.998H12.4116V17.5532H10.8735Z" fill="black"/>
<path d="M12.2365 17.5532V15.998H13.6205V17.5532H12.2365Z" fill="black"/>
<path d="M13.3683 17.5532V15.998H14.9064V17.5532H13.3683Z" fill="black"/>
<path d="M14.6543 17.5532V15.998H16.0382V17.5532H14.6543Z" fill="black"/>
<path d="M15.7293 17.5532V15.998H17.2674V17.5532H15.7293Z" fill="black"/>
<path d="M16.9382 17.5532V15.998H18.4763V17.5532H16.9382Z" fill="black"/>
<path d="M18.2242 17.5532V15.998H18.8394V17.5532H18.2242Z" fill="black"/>
<path d="M18.6637 17.5532V15.998H19.74V17.5532H18.6637Z" fill="black"/>
<path d="M19.5656 17.5532V15.998H20.7954V17.5532H19.5656Z" fill="black"/>
<path d="M20.6204 17.5532V15.998H21.2356V17.5532H20.6204Z" fill="black"/>
<path d="M21.0599 17.5532V15.998H22.598V17.5532H21.0599Z" fill="black"/>
<path d="M22.4229 17.5532V15.998H23.8069V17.5532H22.4229Z" fill="black"/>
<path d="M23.6318 17.5532V15.998H25.0158V17.5532H23.6318Z" fill="black"/>
<path d="M24.8028 17.5532V15.998H26.3409V17.5532H24.8028Z" fill="black"/>
<path d="M26.1659 17.5532V15.998H27.5498V17.5532H26.1659Z" fill="black"/>
<path d="M27.2409 17.5532V15.998H28.779V17.5532H27.2409Z" fill="black"/>
<path d="M28.4498 17.5532V15.998H29.065V17.5532H28.4498Z" fill="black"/>
<path d="M28.8893 17.5532V15.998H30.4274V17.5532H28.8893Z" fill="black"/>
<path d="M30.1753 17.5532V15.998H30.7905V17.5532H30.1753Z" fill="black"/>
<path d="M6 20.5532V18.998H7.69224V20.5532H6Z" fill="black"/>
<path d="M7.53611 20.5532V18.998H9.0742V20.5532H7.53611Z" fill="black"/>
<path d="M8.76394 20.5532V18.998H10.4562V20.5532H8.76394Z" fill="black"/>
<path d="M10.2811 20.5532V18.998H11.9734V20.5532H10.2811Z" fill="black"/>
<path d="M11.7212 20.5532V18.998H12.3365V20.5532H11.7212Z" fill="black"/>
<path d="M12.1607 20.5532V18.998H13.3912V20.5532H12.1607Z" fill="black"/>
<path d="M13.0627 20.5532V18.998H14.4466V20.5532H13.0627Z" fill="black"/>
<path d="M14.1377 20.5532V18.998H15.6758V20.5532H14.1377Z" fill="black"/>
<path d="M15.3466 20.5532V18.998H16.8847V20.5532H15.3466Z" fill="black"/>
<path d="M16.5555 20.5532V18.998H17.1707V20.5532H16.5555Z" fill="black"/>
<path d="M17.1492 20.5532V18.998H18.3789V20.5532H17.1492Z" fill="black"/>
<path d="M18.2039 20.5532V18.998H19.4344V20.5532H18.2039Z" fill="black"/>
<path d="M19.1058 20.5532V18.998H19.7211V20.5532H19.1058Z" fill="black"/>
<path d="M19.5454 20.5532V18.998H20.6217V20.5532H19.5454Z" fill="black"/>
<path d="M20.4473 20.5532V18.998H21.5236V20.5532H20.4473Z" fill="black"/>
<path d="M21.1951 20.5532V18.998H22.579V20.5532H21.1951Z" fill="black"/>
<path d="M22.3661 20.5532V18.998H22.9814V20.5532H22.3661Z" fill="black"/>
<path d="M22.8056 20.5532V18.998H24.959V20.5532H22.8056Z" fill="black"/>
<path d="M24.7068 20.5532V18.998H26.2449V20.5532H24.7068Z" fill="black"/>
<path d="M25.9157 20.5532V18.998H27.4538V20.5532H25.9157Z" fill="black"/>
<path d="M27.3558 20.5532V18.998H28.7398V20.5532H27.3558Z" fill="black"/>
<path d="M28.6418 20.5532V18.998H29.8716V20.5532H28.6418Z" fill="black"/>
<path d="M29.8507 20.5532V18.998H31.2346V20.5532H29.8507Z" fill="black"/>
<path d="M31.0596 20.5532V18.998H32.4435V20.5532H31.0596Z" fill="black"/>
<path d="M32.2306 20.5532V18.998H32.8459V20.5532H32.2306Z" fill="black"/>
<path d="M6.15415 23.5532V21.998H7.38394V23.5532H6.15415Z" fill="black"/>
<path d="M7.20889 23.5532V21.998H8.43936V23.5532H7.20889Z" fill="black"/>
<path d="M8.11084 23.5532V21.998H8.72608V23.5532H8.11084Z" fill="black"/>
<path d="M8.55035 23.5532V21.998H10.5502V23.5532H8.55035Z" fill="black"/>
<path d="M10.4515 23.5532V21.998H11.9896V23.5532H10.4515Z" fill="black"/>
<path d="M11.7375 23.5532V21.998H13.1215V23.5532H11.7375Z" fill="black"/>
<path d="M12.9085 23.5532V21.998H14.2925V23.5532H12.9085Z" fill="black"/>
<path d="M14.0796 23.5532V21.998H14.6948V23.5532H14.0796Z" fill="black"/>
<path d="M14.5191 23.5532V21.998H16.0572V23.5532H14.5191Z" fill="black"/>
<path d="M15.805 23.5532V21.998H17.3431V23.5532H15.805Z" fill="black"/>
<path d="M17.0139 23.5532V21.998H18.3979V23.5532H17.0139Z" fill="black"/>
<path d="M18.185 23.5532V21.998H19.2613V23.5532H18.185Z" fill="black"/>
<path d="M18.9328 23.5532V21.998H20.3167V23.5532H18.9328Z" fill="black"/>
<path d="M20.0078 23.5532V21.998H21.5459V23.5532H20.0078Z" fill="black"/>
<path d="M21.3708 23.5532V21.998H22.7548V23.5532H21.3708Z" fill="black"/>
<path d="M22.5026 23.5532V21.998H23.579V23.5532H22.5026Z" fill="black"/>
<path d="M23.2504 23.5532V21.998H24.3268V23.5532H23.2504Z" fill="black"/>
<path d="M24.3065 23.5532V21.998H25.5363V23.5532H24.3065Z" fill="black"/>
<path d="M25.5154 23.5532V21.998H26.8994V23.5532H25.5154Z" fill="black"/>
<path d="M26.7243 23.5532V21.998H27.3396V23.5532H26.7243Z" fill="black"/>
<path d="M27.1638 23.5532V21.998H28.2402V23.5532H27.1638Z" fill="black"/>
<path d="M28.0658 23.5532V21.998H29.4497V23.5532H28.0658Z" fill="black"/>
<path d="M29.2368 23.5532V21.998H29.852V23.5532H29.2368Z" fill="black"/>
<path d="M6 26.5532V24.998H7.53809V26.5532H6Z" fill="black"/>
<path d="M7.28596 26.5532V24.998H8.36229V26.5532H7.28596Z" fill="black"/>
<path d="M8.18791 26.5532V24.998H9.57185V26.5532H8.18791Z" fill="black"/>
<path d="M9.51309 26.5532V24.998H10.7429V26.5532H9.51309Z" fill="black"/>
<path d="M10.5678 26.5532V24.998H11.1831V26.5532H10.5678Z" fill="black"/>
<path d="M11.0073 26.5532V24.998H12.5454V26.5532H11.0073Z" fill="black"/>
<path d="M12.2933 26.5532V24.998H12.9085V26.5532H12.2933Z" fill="black"/>
<path d="M12.7328 26.5532V24.998H14.1168V26.5532H12.7328Z" fill="black"/>
<path d="M13.9038 26.5532V24.998H15.4419V26.5532H13.9038Z" fill="black"/>
<path d="M15.1127 26.5532V24.998H16.4967V26.5532H15.1127Z" fill="black"/>
<path d="M16.2446 26.5532V24.998H17.7826V26.5532H16.2446Z" fill="black"/>
<path d="M17.6076 26.5532V24.998H18.9915V26.5532H17.6076Z" fill="black"/>
<path d="M18.6826 26.5532V24.998H20.2207V26.5532H18.6826Z" fill="black"/>
<path d="M19.8915 26.5532V24.998H20.5067V26.5532H19.8915Z" fill="black"/>
<path d="M20.331 26.5532V24.998H22.0232V26.5532H20.331Z" fill="black"/>
<path d="M21.8671 26.5532V24.998H23.0969V26.5532H21.8671Z" fill="black"/>
<path d="M22.9219 26.5532V24.998H24.3058V26.5532H22.9219Z" fill="black"/>
<path d="M23.9969 26.5532V24.998H25.0732V26.5532H23.9969Z" fill="black"/>
<path d="M24.7447 26.5532V24.998H26.2828V26.5532H24.7447Z" fill="black"/>
<path d="M26.1077 26.5532V24.998H26.723V26.5532H26.1077Z" fill="black"/>
<path d="M6 29.5532V27.998H7.69224V29.5532H6Z" fill="black"/>
<path d="M7.59426 29.5532V27.998H8.82405V29.5532H7.59426Z" fill="black"/>
<path d="M8.649 29.5532V27.998H10.0329V29.5532H8.649Z" fill="black"/>
<path d="M9.72403 29.5532V27.998H11.2621V29.5532H9.72403Z" fill="black"/>
<path d="M10.9329 29.5532V27.998H12.471V29.5532H10.9329Z" fill="black"/>
<path d="M12.2189 29.5532V27.998H12.9876V29.5532H12.2189Z" fill="black"/>
<path d="M12.7355 29.5532V27.998H13.3507V29.5532H12.7355Z" fill="black"/>
<path d="M13.3291 29.5532V27.998H14.8672V29.5532H13.3291Z" fill="black"/>
<path d="M14.5569 29.5532V27.998H15.9409V29.5532H14.5569Z" fill="black"/>
<path d="M15.632 29.5532V27.998H17.1701V29.5532H15.632Z" fill="black"/>
<path d="M16.8409 29.5532V27.998H18.2248V29.5532H16.8409Z" fill="black"/>
<path d="M18.0119 29.5532V27.998H19.0882V29.5532H18.0119Z" fill="black"/>
<path d="M18.9138 29.5532V27.998H20.4519V29.5532H18.9138Z" fill="black"/>
<path d="M20.1998 29.5532V27.998H21.7379V29.5532H20.1998Z" fill="black"/>
<path d="M21.5628 29.5532V27.998H22.9468V29.5532H21.5628Z" fill="black"/>
<path d="M22.7717 29.5532V27.998H23.8481V29.5532H22.7717Z" fill="black"/>
<path d="M23.5195 29.5532V27.998H24.1348V29.5532H23.5195Z" fill="black"/>
<path d="M23.959 29.5532V27.998H25.4971V29.5532H23.959Z" fill="black"/>
<path d="M25.3221 29.5532V27.998H26.706V29.5532H25.3221Z" fill="black"/>
<path d="M26.3971 29.5532V27.998H27.9352V29.5532H26.3971Z" fill="black"/>
<path d="M27.7601 29.5532V27.998H29.76V29.5532H27.7601Z" fill="black"/>
<path d="M29.8155 29.5532V27.998H31.1994V29.5532H29.8155Z" fill="black"/>
<path d="M30.9473 29.5532V27.998H31.5625V29.5532H30.9473Z" fill="black"/>
<path d="M6 32.5532V30.998H7.53809V32.5532H6Z" fill="black"/>
<path d="M7.36304 32.5532V30.998H8.90113V32.5532H7.36304Z" fill="black"/>
<path d="M8.649 32.5532V30.998H10.0329V32.5532H8.649Z" fill="black"/>
<path d="M9.82003 32.5532V30.998H10.4353V32.5532H9.82003Z" fill="black"/>
<path d="M10.2595 32.5532V30.998H12.2594V32.5532H10.2595Z" fill="black"/>
<path d="M12.1607 32.5532V30.998H13.6988V32.5532H12.1607Z" fill="black"/>
<path d="M13.4467 32.5532V30.998H14.9848V32.5532H13.4467Z" fill="black"/>
<path d="M14.7327 32.5532V30.998H16.2708V32.5532H14.7327Z" fill="black"/>
<path d="M15.9416 32.5532V30.998H16.5568V32.5532H15.9416Z" fill="black"/>
<path d="M16.3811 32.5532V30.998H17.4574V32.5532H16.3811Z" fill="black"/>
<path d="M17.283 32.5532V30.998H18.3593V32.5532H17.283Z" fill="black"/>
<path d="M18.0308 32.5532V30.998H18.6461V32.5532H18.0308Z" fill="black"/>
<path d="M18.4703 32.5532V30.998H19.8543V32.5532H18.4703Z" fill="black"/>
<path d="M19.6021 32.5532V30.998H20.6785V32.5532H19.6021Z" fill="black"/>
<path d="M20.5041 32.5532V30.998H22.0422V32.5532H20.5041Z" fill="black"/>
<path d="M21.713 32.5532V30.998H23.2511V32.5532H21.713Z" fill="black"/>
<path d="M22.9989 32.5532V30.998H24.3829V32.5532H22.9989Z" fill="black"/>
<path d="M24.074 32.5532V30.998H24.6892V32.5532H24.074Z" fill="black"/>
<path d="M24.5135 32.5532V30.998H25.5898V32.5532H24.5135Z" fill="black"/>
<path d="M25.2613 32.5532V30.998H26.7994V32.5532H25.2613Z" fill="black"/>
<path d="M26.6243 32.5532V30.998H28.1624V32.5532H26.6243Z" fill="black"/>
<path d="M27.9103 32.5532V30.998H28.9866V32.5532H27.9103Z" fill="black"/>
<path d="M28.6581 32.5532V30.998H29.2733V32.5532H28.6581Z" fill="black"/>
<path d="M29.0976 32.5532V30.998H30.1739V32.5532H29.0976Z" fill="black"/>
<path d="M29.9995 32.5532V30.998H31.23V32.5532H29.9995Z" fill="black"/>
<path d="M30.9015 32.5532V30.998H31.5167V32.5532H30.9015Z" fill="black"/>
<path d="M6 35.5532V33.998H7.69224V35.5532H6Z" fill="black"/>
<path d="M7.44011 35.5532V33.998H8.51644V35.5532H7.44011Z" fill="black"/>
<path d="M8.34206 35.5532V33.998H10.3419V35.5532H8.34206Z" fill="black"/>
<path d="M10.2433 35.5532V33.998H10.8585V35.5532H10.2433Z" fill="black"/>
<path d="M10.6828 35.5532V33.998H12.0667V35.5532H10.6828Z" fill="black"/>
<path d="M11.989 35.5532V33.998H13.2188V35.5532H11.989Z" fill="black"/>
<path d="M13.1979 35.5532V33.998H14.5818V35.5532H13.1979Z" fill="black"/>
<path d="M14.4068 35.5532V33.998H15.9449V35.5532H14.4068Z" fill="black"/>
<path d="M15.7698 35.5532V33.998H16.3851V35.5532H15.7698Z" fill="black"/>
<path d="M16.2093 35.5532V33.998H17.9016V35.5532H16.2093Z" fill="black"/>
<path d="M17.7644 35.5532V33.998H19.1483V35.5532H17.7644Z" fill="black"/>
<path d="M18.9733 35.5532V33.998H19.5885V35.5532H18.9733Z" fill="black"/>
<path d="M6 38.5532V36.998H7.53809V38.5532H6Z" fill="black"/>
<path d="M7.28596 38.5532V36.998H8.82405V38.5532H7.28596Z" fill="black"/>
<path d="M8.649 38.5532V36.998H10.0329V38.5532H8.649Z" fill="black"/>
<path d="M9.85789 38.5532V36.998H11.396V38.5532H9.85789Z" fill="black"/>
<path d="M11.2209 38.5532V36.998H12.6049V38.5532H11.2209Z" fill="black"/>
<path d="M12.3527 38.5532V36.998H13.4291V38.5532H12.3527Z" fill="black"/>
<path d="M13.2547 38.5532V36.998H14.7928V38.5532H13.2547Z" fill="black"/>
<path d="M14.4636 38.5532V36.998H16.0017V38.5532H14.4636Z" fill="black"/>
<path d="M15.7496 38.5532V36.998H17.1335V38.5532H15.7496Z" fill="black"/>
<path d="M16.8246 38.5532V36.998H17.9009V38.5532H16.8246Z" fill="black"/>
<path d="M17.8807 38.5532V36.998H19.1105V38.5532H17.8807Z" fill="black"/>
<path d="M18.8394 38.5532V36.998H20.3775V38.5532H18.8394Z" fill="black"/>
<path d="M20.0483 38.5532V36.998H21.4322V38.5532H20.0483Z" fill="black"/>
<path d="M21.2193 38.5532V36.998H21.988V38.5532H21.2193Z" fill="black"/>
<path d="M21.7359 38.5532V36.998H22.3512V38.5532H21.7359Z" fill="black"/>
<path d="M22.1754 38.5532V36.998H23.2517V38.5532H22.1754Z" fill="black"/>
<path d="M22.9232 38.5532V36.998H24.4613V38.5532H22.9232Z" fill="black"/>
<path d="M24.2863 38.5532V36.998H25.8244V38.5532H24.2863Z" fill="black"/>
<path d="M25.4952 38.5532V36.998H26.8791V38.5532H25.4952Z" fill="black"/>
<path d="M26.5702 38.5532V36.998H28.1083V38.5532H26.5702Z" fill="black"/>
<path d="M27.7791 38.5532V36.998H28.3943V38.5532H27.7791Z" fill="black"/>
<path d="M28.2186 38.5532V36.998H29.2949V38.5532H28.2186Z" fill="black"/>
<path d="M29.1205 38.5532V36.998H30.5045V38.5532H29.1205Z" fill="black"/>
<path d="M30.2916 38.5532V36.998H30.9068V38.5532H30.2916Z" fill="black"/>
<path d="M30.7311 38.5532V36.998H32.2692V38.5532H30.7311Z" fill="black"/>
<path d="M32.017 38.5532V36.998H32.6323V38.5532H32.017Z" fill="black"/>
<path d="M6.15415 41.5532V39.998H7.53809V41.5532H6.15415Z" fill="black"/>
<path d="M7.20889 41.5532V39.998H8.59283V41.5532H7.20889Z" fill="black"/>
<path d="M8.28392 41.5532V39.998H9.36024V41.5532H8.28392Z" fill="black"/>
<path d="M9.18587 41.5532V39.998H10.724V41.5532H9.18587Z" fill="black"/>
<path d="M10.5489 41.5532V39.998H12.087V41.5532H10.5489Z" fill="black"/>
<path d="M11.9119 41.5532V39.998H12.9883V41.5532H11.9119Z" fill="black"/>
<path d="M12.6597 41.5532V39.998H14.1978V41.5532H12.6597Z" fill="black"/>
<path d="M13.8686 41.5532V39.998H15.2526V41.5532H13.8686Z" fill="black"/>
<path d="M14.9437 41.5532V39.998H15.5589V41.5532H14.9437Z" fill="black"/>
<path d="M15.5373 41.5532V39.998H16.9213V41.5532H15.5373Z" fill="black"/>
<path d="M16.6691 41.5532V39.998H18.2072V41.5532H16.6691Z" fill="black"/>
<path d="M17.9551 41.5532V39.998H19.0314V41.5532H17.9551Z" fill="black"/>
<path d="M18.7029 41.5532V39.998H20.241V41.5532H18.7029Z" fill="black"/>
<path d="M20.0659 41.5532V39.998H20.6812V41.5532H20.0659Z" fill="black"/>
<path d="M20.5054 41.5532V39.998H21.7359V41.5532H20.5054Z" fill="black"/>
<path d="M21.5615 41.5532V39.998H22.7913V41.5532H21.5615Z" fill="black"/>
<path d="M22.6163 41.5532V39.998H24.0002V41.5532H22.6163Z" fill="black"/>
<path d="M23.6913 41.5532V39.998H24.3065V41.5532H23.6913Z" fill="black"/>
<path d="M24.1308 41.5532V39.998H25.8231V41.5532H24.1308Z" fill="black"/>
<path d="M25.6669 41.5532V39.998H26.8967V41.5532H25.6669Z" fill="black"/>
<path d="M26.7217 41.5532V39.998H28.1056V41.5532H26.7217Z" fill="black"/>
<path d="M27.7967 41.5532V39.998H28.873V41.5532H27.7967Z" fill="black"/>
<path d="M28.5445 41.5532V39.998H30.0826V41.5532H28.5445Z" fill="black"/>
<path d="M29.9075 41.5532V39.998H30.5228V41.5532H29.9075Z" fill="black"/>
<path d="M6 44.5532V42.998H7.69224V44.5532H6Z" fill="black"/>
<path d="M7.59426 44.5532V42.998H8.82405V44.5532H7.59426Z" fill="black"/>
<path d="M8.649 44.5532V42.998H10.0329V44.5532H8.649Z" fill="black"/>
<path d="M9.72403 44.5532V42.998H11.2621V44.5532H9.72403Z" fill="black"/>
<path d="M10.9329 44.5532V42.998H12.471V44.5532H10.9329Z" fill="black"/>
<path d="M12.2189 44.5532V42.998H12.8341V44.5532H12.2189Z" fill="black"/>
<path d="M12.6584 44.5532V42.998H14.1965V44.5532H12.6584Z" fill="black"/>
<path d="M14.0985 44.5532V42.998H15.4824V44.5532H14.0985Z" fill="black"/>
<path d="M15.3074 44.5532V42.998H16.8455V44.5532H15.3074Z" fill="black"/>
<path d="M16.5934 44.5532V42.998H17.2086V44.5532H16.5934Z" fill="black"/>
<path d="M17.0329 44.5532V42.998H18.1092V44.5532H17.0329Z" fill="black"/>
<path d="M17.9348 44.5532V42.998H19.0111V44.5532H17.9348Z" fill="black"/>
<path d="M18.6826 44.5532V42.998H20.0666V44.5532H18.6826Z" fill="black"/>
<path d="M19.8536 44.5532V42.998H20.4689V44.5532H19.8536Z" fill="black"/>
<path d="M20.4473 44.5532V42.998H21.8312V44.5532H20.4473Z" fill="black"/>
<path d="M21.5791 44.5532V42.998H23.1172V44.5532H21.5791Z" fill="black"/>
<path d="M22.9422 44.5532V42.998H24.172V44.5532H22.9422Z" fill="black"/>
<path d="M24.151 44.5532V42.998H25.535V44.5532H24.151Z" fill="black"/>
<path d="M25.2829 44.5532V42.998H26.3592V44.5532H25.2829Z" fill="black"/>
<path d="M26.1848 44.5532V42.998H27.7229V44.5532H26.1848Z" fill="black"/>
<path d="M27.3937 44.5532V42.998H28.1624V44.5532H27.3937Z" fill="black"/>
<path d="M27.9103 44.5532V42.998H28.5255V44.5532H27.9103Z" fill="black"/>
<path d="M28.5039 44.5532V42.998H30.6573V44.5532H28.5039Z" fill="black"/>
<path d="M30.443 44.5532V42.998H31.9811V44.5532H30.443Z" fill="black"/>
<path d="M31.6519 44.5532V42.998H32.2671V44.5532H31.6519Z" fill="black"/>
<path d="M6 47.5532V45.998H7.53809V47.5532H6Z" fill="black"/>
<path d="M7.36304 47.5532V45.998H8.74698V47.5532H7.36304Z" fill="black"/>
<path d="M8.49485 47.5532V45.998H9.8788V47.5532H8.49485Z" fill="black"/>
<path d="M9.78082 47.5532V45.998H10.8571V47.5532H9.78082Z" fill="black"/>
<path d="M10.6828 47.5532V45.998H12.0667V47.5532H10.6828Z" fill="black"/>
<path d="M11.8538 47.5532V45.998H12.9301V47.5532H11.8538Z" fill="black"/>
<path d="M12.9099 47.5532V45.998H14.1397V47.5532H12.9099Z" fill="black"/>
<path d="M14.1188 47.5532V45.998H15.5027V47.5532H14.1188Z" fill="black"/>
<path d="M15.3277 47.5532V45.998H15.9429V47.5532H15.3277Z" fill="black"/>
<path d="M15.7672 47.5532V45.998H17.3053V47.5532H15.7672Z" fill="black"/>
<path d="M17.0531 47.5532V45.998H17.6684V47.5532H17.0531Z" fill="black"/>
<path d="M17.4927 47.5532V45.998H18.8766V47.5532H17.4927Z" fill="black"/>
<path d="M18.6637 47.5532V45.998H19.74V47.5532H18.6637Z" fill="black"/>
<path d="M19.4115 47.5532V45.998H20.7954V47.5532H19.4115Z" fill="black"/>
<path d="M20.6407 47.5532V45.998H21.8705V47.5532H20.6407Z" fill="black"/>
<path d="M21.8495 47.5532V45.998H23.2335V47.5532H21.8495Z" fill="black"/>
<path d="M23.0584 47.5532V45.998H24.5965V47.5532H23.0584Z" fill="black"/>
<path d="M24.4215 47.5532V45.998H25.1902V47.5532H24.4215Z" fill="black"/>
<path d="M24.9381 47.5532V45.998H25.5533V47.5532H24.9381Z" fill="black"/>
<path d="M6 50.5532V48.998H7.38394V50.5532H6Z" fill="black"/>
<path d="M7.28596 50.5532V48.998H8.51576V50.5532H7.28596Z" fill="black"/>
<path d="M8.49485 50.5532V48.998H9.8788V50.5532H8.49485Z" fill="black"/>
<path d="M9.85789 50.5532V48.998H11.2418V50.5532H9.85789Z" fill="black"/>
<path d="M11.0668 50.5532V48.998H12.6049V50.5532H11.0668Z" fill="black"/>
<path d="M12.2757 50.5532V48.998H13.6596V50.5532H12.2757Z" fill="black"/>
<path d="M13.4075 50.5532V48.998H14.4838V50.5532H13.4075Z" fill="black"/>
<path d="M14.1553 50.5532V48.998H15.6934V50.5532H14.1553Z" fill="black"/>
<path d="M15.3642 50.5532V48.998H16.9023V50.5532H15.3642Z" fill="black"/>
<path d="M16.6501 50.5532V48.998H17.4189V50.5532H16.6501Z" fill="black"/>
<path d="M17.1667 50.5532V48.998H17.782V50.5532H17.1667Z" fill="black"/>
<path d="M17.6062 50.5532V48.998H18.9902V50.5532H17.6062Z" fill="black"/>
<path d="M18.7773 50.5532V48.998H20.3154V50.5532H18.7773Z" fill="black"/>
<path d="M19.9862 50.5532V48.998H21.3701V50.5532H19.9862Z" fill="black"/>
<path d="M21.118 50.5532V48.998H22.6561V50.5532H21.118Z" fill="black"/>
<path d="M22.481 50.5532V48.998H23.865V50.5532H22.481Z" fill="black"/>
<path d="M23.556 50.5532V48.998H25.0941V50.5532H23.556Z" fill="black"/>
<path d="M24.7649 50.5532V48.998H25.5336V50.5532H24.7649Z" fill="black"/>
<path d="M25.2815 50.5532V48.998H25.8967V50.5532H25.2815Z" fill="black"/>
<path d="M25.721 50.5532V48.998H27.2591V50.5532H25.721Z" fill="black"/>
<path d="M27.1611 50.5532V48.998H28.5451V50.5532H27.1611Z" fill="black"/>
<path d="M28.37 50.5532V48.998H29.9081V50.5532H28.37Z" fill="black"/>
<path d="M29.656 50.5532V48.998H30.2712V50.5532H29.656Z" fill="black"/>
<path d="M6.15415 53.5532V51.998H7.53809V53.5532H6.15415Z" fill="black"/>
<path d="M7.28596 53.5532V51.998H8.66991V53.5532H7.28596Z" fill="black"/>
<path d="M8.51514 53.5532V51.998H9.74493V53.5532H8.51514Z" fill="black"/>
<path d="M9.56988 53.5532V51.998H10.9538V53.5532H9.56988Z" fill="black"/>
<path d="M10.8951 53.5532V51.998H12.279V53.5532H10.8951Z" fill="black"/>
<path d="M12.0269 53.5532V51.998H13.565V53.5532H12.0269Z" fill="black"/>
<path d="M13.2358 53.5532V51.998H14.6197V53.5532H13.2358Z" fill="black"/>
<path d="M14.4649 53.5532V51.998H15.6947V53.5532H14.4649Z" fill="black"/>
<path d="M15.5197 53.5532V51.998H17.0578V53.5532H15.5197Z" fill="black"/>
<path d="M16.8827 53.5532V51.998H18.2667V53.5532H16.8827Z" fill="black"/>
<path d="M18.0538 53.5532V51.998H18.669V53.5532H18.0538Z" fill="black"/>
<path d="M18.4933 53.5532V51.998H20.1855V53.5532H18.4933Z" fill="black"/>
<path d="M20.0294 53.5532V51.998H21.2592V53.5532H20.0294Z" fill="black"/>
<path d="M21.0841 53.5532V51.998H22.4681V53.5532H21.0841Z" fill="black"/>
<path d="M22.1591 53.5532V51.998H23.2355V53.5532H22.1591Z" fill="black"/>
<path d="M22.9069 53.5532V51.998H24.445V53.5532H22.9069Z" fill="black"/>
<path d="M24.27 53.5532V51.998H24.8852V53.5532H24.27Z" fill="black"/>
<path d="M24.7095 53.5532V51.998H26.4017V53.5532H24.7095Z" fill="black"/>
<path d="M26.3037 53.5532V51.998H27.5335V53.5532H26.3037Z" fill="black"/>
<path d="M27.3585 53.5532V51.998H28.7424V53.5532H27.3585Z" fill="black"/>
<path d="M28.4335 53.5532V51.998H29.9716V53.5532H28.4335Z" fill="black"/>
<path d="M29.6424 53.5532V51.998H31.1805V53.5532H29.6424Z" fill="black"/>
<path d="M30.9284 53.5532V51.998H31.5436V53.5532H30.9284Z" fill="black"/>
<path d="M6 56.5532V54.998H7.07632V56.5532H6Z" fill="black"/>
<path d="M6.7478 56.5532V54.998H8.28589V56.5532H6.7478Z" fill="black"/>
<path d="M8.11084 56.5532V54.998H9.64893V56.5532H8.11084Z" fill="black"/>
<path d="M9.3968 56.5532V54.998H10.4731V56.5532H9.3968Z" fill="black"/>
<path d="M10.1446 56.5532V54.998H10.7598V56.5532H10.1446Z" fill="black"/>
<path d="M10.5841 56.5532V54.998H11.6604V56.5532H10.5841Z" fill="black"/>
<path d="M11.4861 56.5532V54.998H12.87V56.5532H11.4861Z" fill="black"/>
<path d="M12.6571 56.5532V54.998H13.2723V56.5532H12.6571Z" fill="black"/>
<path d="M13.0966 56.5532V54.998H14.1729V56.5532H13.0966Z" fill="black"/>
<path d="M14.1527 56.5532V54.998H15.5366V56.5532H14.1527Z" fill="black"/>
<path d="M15.3616 56.5532V54.998H16.4379V56.5532H15.3616Z" fill="black"/>
<path d="M16.1094 56.5532V54.998H17.6475V56.5532H16.1094Z" fill="black"/>
<path d="M17.3183 56.5532V54.998H18.8564V56.5532H17.3183Z" fill="black"/>
<path d="M18.6813 56.5532V54.998H20.0653V56.5532H18.6813Z" fill="black"/>
<path d="M19.7185 56.5532V54.998H21.2566V56.5532H19.7185Z" fill="black"/>
<path d="M21.0044 56.5532V54.998H22.0808V56.5532H21.0044Z" fill="black"/>
<path d="M21.7522 56.5532V54.998H23.2903V56.5532H21.7522Z" fill="black"/>
<path d="M22.9611 56.5532V54.998H24.4992V56.5532H22.9611Z" fill="black"/>
<path d="M24.2471 56.5532V54.998H24.8623V56.5532H24.2471Z" fill="black"/>
<path d="M24.6866 56.5532V54.998H25.7629V56.5532H24.6866Z" fill="black"/>
<path d="M25.7427 56.5532V54.998H27.1266V56.5532H25.7427Z" fill="black"/>
<path d="M26.9516 56.5532V54.998H28.0279V56.5532H26.9516Z" fill="black"/>
<path d="M27.8535 56.5532V54.998H29.0833V56.5532H27.8535Z" fill="black"/>
<path d="M28.9083 56.5532V54.998H29.5235V56.5532H28.9083Z" fill="black"/>
<path d="M6 59.5532V57.998H7.07632V59.5532H6Z" fill="black"/>
<path d="M6.7478 59.5532V57.998H8.28589V59.5532H6.7478Z" fill="black"/>
<path d="M8.11084 59.5532V57.998H9.64893V59.5532H8.11084Z" fill="black"/>
<path d="M9.31973 59.5532V57.998H9.93497V59.5532H9.31973Z" fill="black"/>
<path d="M9.75924 59.5532V57.998H11.1432V59.5532H9.75924Z" fill="black"/>
<path d="M11.0452 59.5532V57.998H12.275V59.5532H11.0452Z" fill="black"/>
<path d="M12.0999 59.5532V57.998H14.0998V59.5532H12.0999Z" fill="black"/>
<path d="M14.0011 59.5532V57.998H16.001V59.5532H14.0011Z" fill="black"/>
<path d="M15.9023 59.5532V57.998H17.4404V59.5532H15.9023Z" fill="black"/>
<path d="M17.4195 59.5532V57.998H18.8035V59.5532H17.4195Z" fill="black"/>
<path d="M18.6284 59.5532V57.998H19.7047V59.5532H18.6284Z" fill="black"/>
<path d="M19.5304 59.5532V57.998H20.6067V59.5532H19.5304Z" fill="black"/>
<path d="M20.4323 59.5532V57.998H21.8163V59.5532H20.4323Z" fill="black"/>
<path d="M21.5641 59.5532V57.998H22.1794V59.5532H21.5641Z" fill="black"/>
<path d="M22.1578 59.5532V57.998H23.3876V59.5532H22.1578Z" fill="black"/>
<path d="M23.2125 59.5532V57.998H24.443V59.5532H23.2125Z" fill="black"/>
<path d="M24.1145 59.5532V57.998H24.7297V59.5532H24.1145Z" fill="black"/>
<path d="M6.15415 62.5532V60.998H7.53809V62.5532H6.15415Z" fill="black"/>
<path d="M7.36304 62.5532V60.998H8.90113V62.5532H7.36304Z" fill="black"/>
<path d="M8.649 62.5532V60.998H9.72533V62.5532H8.649Z" fill="black"/>
<path d="M9.3968 62.5532V60.998H10.4731V62.5532H9.3968Z" fill="black"/>
<path d="M10.4529 62.5532V60.998H11.6827V62.5532H10.4529Z" fill="black"/>
<path d="M11.6618 62.5532V60.998H13.0457V62.5532H11.6618Z" fill="black"/>
<path d="M12.8707 62.5532V60.998H14.2546V62.5532H12.8707Z" fill="black"/>
<path d="M14.0417 62.5532V60.998H14.8104V62.5532H14.0417Z" fill="black"/>
<path d="M14.5583 62.5532V60.998H15.1735V62.5532H14.5583Z" fill="black"/>
<path d="M15.1519 62.5532V60.998H17.3053V62.5532H15.1519Z" fill="black"/>
<path d="M17.091 62.5532V60.998H18.6291V62.5532H17.091Z" fill="black"/>
<path d="M18.2999 62.5532V60.998H18.9151V62.5532H18.2999Z" fill="black"/>
<path d="M18.7394 62.5532V60.998H19.8157V62.5532H18.7394Z" fill="black"/>
<path d="M19.4872 62.5532V60.998H21.0253V62.5532H19.4872Z" fill="black"/>
<path d="M20.8502 62.5532V60.998H21.9266V62.5532H20.8502Z" fill="black"/>
<path d="M21.9063 62.5532V60.998H23.2903V62.5532H21.9063Z" fill="black"/>
<path d="M23.1152 62.5532V60.998H24.6533V62.5532H23.1152Z" fill="black"/>
<path d="M24.4404 62.5532V60.998H25.0556V62.5532H24.4404Z" fill="black"/>
<path d="M24.8799 62.5532V60.998H25.9562V62.5532H24.8799Z" fill="black"/>
<path d="M25.6277 62.5532V60.998H27.1658V62.5532H25.6277Z" fill="black"/>
<path d="M26.9908 62.5532V60.998H28.5288V62.5532H26.9908Z" fill="black"/>
<path d="M28.2767 62.5532V60.998H29.353V62.5532H28.2767Z" fill="black"/>
<path d="M29.0245 62.5532V60.998H29.6398V62.5532H29.0245Z" fill="black"/>
<path d="M6 65.5532V63.998H7.07632V65.5532H6Z" fill="black"/>
<path d="M6.7478 65.5532V63.998H8.28589V65.5532H6.7478Z" fill="black"/>
<path d="M8.11084 65.5532V63.998H9.64893V65.5532H8.11084Z" fill="black"/>
<path d="M9.31973 65.5532V63.998H9.93497V65.5532H9.31973Z" fill="black"/>
<path d="M9.91339 65.5532V63.998H11.2973V65.5532H9.91339Z" fill="black"/>
<path d="M11.0452 65.5532V63.998H12.5833V65.5532H11.0452Z" fill="black"/>
<path d="M12.4082 65.5532V63.998H13.638V65.5532H12.4082Z" fill="black"/>
<path d="M13.6171 65.5532V63.998H15.0011V65.5532H13.6171Z" fill="black"/>
<path d="M14.7489 65.5532V63.998H15.8253V65.5532H14.7489Z" fill="black"/>
<path d="M15.6509 65.5532V63.998H17.189V65.5532H15.6509Z" fill="black"/>
<path d="M16.8598 65.5532V63.998H17.475V65.5532H16.8598Z" fill="black"/>
<path d="M17.4534 65.5532V63.998H18.6832V65.5532H17.4534Z" fill="black"/>
<path d="M18.5082 65.5532V63.998H19.7387V65.5532H18.5082Z" fill="black"/>
<path d="M19.4101 65.5532V63.998H20.0254V65.5532H19.4101Z" fill="black"/>
<path d="M19.8496 65.5532V63.998H20.926V65.5532H19.8496Z" fill="black"/>
<path d="M20.5974 65.5532V63.998H22.1355V65.5532H20.5974Z" fill="black"/>
<path d="M21.9605 65.5532V63.998H23.4986V65.5532H21.9605Z" fill="black"/>
<path d="M23.1694 65.5532V63.998H23.7846V65.5532H23.1694Z" fill="black"/>
<path d="M23.6089 65.5532V63.998H25.3011V65.5532H23.6089Z" fill="black"/>
<path d="M25.1639 65.5532V63.998H26.5479V65.5532H25.1639Z" fill="black"/>
<path d="M26.3728 65.5532V63.998H27.4491V65.5532H26.3728Z" fill="black"/>
<path d="M27.2748 65.5532V63.998H28.3511V65.5532H27.2748Z" fill="black"/>
<path d="M28.0226 65.5532V63.998H29.5607V65.5532H28.0226Z" fill="black"/>
<path d="M29.2315 65.5532V63.998H30.7695V65.5532H29.2315Z" fill="black"/>
<path d="M30.5174 65.5532V63.998H31.1327V65.5532H30.5174Z" fill="black"/>
<path d="M6 68.5532V66.998H7.38394V68.5532H6Z" fill="black"/>
<path d="M7.28596 68.5532V66.998H8.36229V68.5532H7.28596Z" fill="black"/>
<path d="M8.03377 68.5532V66.998H9.57185V68.5532H8.03377Z" fill="black"/>
<path d="M9.31973 68.5532V66.998H10.3961V68.5532H9.31973Z" fill="black"/>
<path d="M10.0675 68.5532V66.998H11.6056V68.5532H10.0675Z" fill="black"/>
<path d="M11.2764 68.5532V66.998H12.6604V68.5532H11.2764Z" fill="black"/>
<path d="M12.4475 68.5532V66.998H13.0627V68.5532H12.4475Z" fill="black"/>
<path d="M12.887 68.5532V66.998H14.425V68.5532H12.887Z" fill="black"/>
<path d="M14.3271 68.5532V66.998H15.711V68.5532H14.3271Z" fill="black"/>
<path d="M15.536 68.5532V66.998H17.0741V68.5532H15.536Z" fill="black"/>
<path d="M16.8219 68.5532V66.998H17.4372V68.5532H16.8219Z" fill="black"/>
<path d="M17.2614 68.5532V66.998H18.9537V68.5532H17.2614Z" fill="black"/>
<path d="M18.7975 68.5532V66.998H20.0273V68.5532H18.7975Z" fill="black"/>
<path d="M19.8523 68.5532V66.998H21.2362V68.5532H19.8523Z" fill="black"/>
<path d="M20.9273 68.5532V66.998H22.0036V68.5532H20.9273Z" fill="black"/>
<path d="M21.6751 68.5532V66.998H23.2132V68.5532H21.6751Z" fill="black"/>
<path d="M23.0382 68.5532V66.998H23.6534V68.5532H23.0382Z" fill="black"/>
<path d="M23.4777 68.5532V66.998H25.1699V68.5532H23.4777Z" fill="black"/>
<path d="M25.0719 68.5532V66.998H26.3017V68.5532H25.0719Z" fill="black"/>
<path d="M26.1267 68.5532V66.998H27.5106V68.5532H26.1267Z" fill="black"/>
<path d="M27.2017 68.5532V66.998H28.7398V68.5532H27.2017Z" fill="black"/>
<path d="M28.4106 68.5532V66.998H29.9487V68.5532H28.4106Z" fill="black"/>
<path d="M29.6965 68.5532V66.998H30.3118V68.5532H29.6965Z" fill="black"/>
<path d="M6 71.5532V69.998H7.38394V71.5532H6Z" fill="black"/>
<path d="M7.13182 71.5532V69.998H8.66991V71.5532H7.13182Z" fill="black"/>
<path d="M8.57193 71.5532V69.998H9.95587V71.5532H8.57193Z" fill="black"/>
<path d="M9.78082 71.5532V69.998H10.3961V71.5532H9.78082Z" fill="black"/>
<path d="M10.2203 71.5532V69.998H11.6043V71.5532H10.2203Z" fill="black"/>
<path d="M11.3521 71.5532V69.998H12.7361V71.5532H11.3521Z" fill="black"/>
<path d="M12.4272 71.5532V69.998H13.9653V71.5532H12.4272Z" fill="black"/>
<path d="M13.6361 71.5532V69.998H15.1741V71.5532H13.6361Z" fill="black"/>
<path d="M14.922 71.5532V69.998H15.9983V71.5532H14.922Z" fill="black"/>
<path d="M15.6698 71.5532V69.998H17.2079V71.5532H15.6698Z" fill="black"/>
<path d="M16.8787 71.5532V69.998H17.494V71.5532H16.8787Z" fill="black"/>
<path d="M17.3182 71.5532V69.998H18.8563V71.5532H17.3182Z" fill="black"/>
<path d="M18.6042 71.5532V69.998H19.2194V71.5532H18.6042Z" fill="black"/>
<path d="M19.0437 71.5532V69.998H20.2742V71.5532H19.0437Z" fill="black"/>
<path d="M19.9456 71.5532V69.998H21.4837V71.5532H19.9456Z" fill="black"/>
<path d="M21.3087 71.5532V69.998H22.385V71.5532H21.3087Z" fill="black"/>
<path d="M22.0565 71.5532V69.998H23.5946V71.5532H22.0565Z" fill="black"/>
<path d="M23.4195 71.5532V69.998H24.8035V71.5532H23.4195Z" fill="black"/>
<path d="M24.4945 71.5532V69.998H26.0326V71.5532H24.4945Z" fill="black"/>
<path d="M25.7034 71.5532V69.998H26.3187V71.5532H25.7034Z" fill="black"/>
<path d="M6 74.5532V72.998H7.53809V74.5532H6Z" fill="black"/>
<path d="M7.28596 74.5532V72.998H8.82405V74.5532H7.28596Z" fill="black"/>
<path d="M8.49485 74.5532V72.998H9.72533V74.5532H8.49485Z" fill="black"/>
<path d="M9.3968 74.5532V72.998H10.4731V74.5532H9.3968Z" fill="black"/>
<path d="M10.4529 74.5532V72.998H11.8368V74.5532H10.4529Z" fill="black"/>
<path d="M11.6618 74.5532V72.998H13.1999V74.5532H11.6618Z" fill="black"/>
<path d="M12.8707 74.5532V72.998H14.4088V74.5532H12.8707Z" fill="black"/>
<path d="M14.1566 74.5532V72.998H14.7719V74.5532H14.1566Z" fill="black"/>
<path d="M14.7503 74.5532V72.998H16.1342V74.5532H14.7503Z" fill="black"/>
<path d="M15.9592 74.5532V72.998H17.3431V74.5532H15.9592Z" fill="black"/>
<path d="M17.091 74.5532V72.998H17.7062V74.5532H17.091Z" fill="black"/>
<path d="M17.5305 74.5532V72.998H18.761V74.5532H17.5305Z" fill="black"/>
<path d="M18.4325 74.5532V72.998H19.8164V74.5532H18.4325Z" fill="black"/>
<path d="M19.5075 74.5532V72.998H20.5838V74.5532H19.5075Z" fill="black"/>
<path d="M20.4094 74.5532V72.998H21.9475V74.5532H20.4094Z" fill="black"/>
<path d="M21.7725 74.5532V72.998H23.1564V74.5532H21.7725Z" fill="black"/>
<path d="M22.9814 74.5532V72.998H24.5195V74.5532H22.9814Z" fill="black"/>
<path d="M24.2673 74.5532V72.998H25.6513V74.5532H24.2673Z" fill="black"/>
<path d="M25.4384 74.5532V72.998H26.9765V74.5532H25.4384Z" fill="black"/>
<path d="M26.8014 74.5532V72.998H27.8777V74.5532H26.8014Z" fill="black"/>
<path d="M27.8575 74.5532V72.998H29.2414V74.5532H27.8575Z" fill="black"/>
<path d="M28.9893 74.5532V72.998H29.6045V74.5532H28.9893Z" fill="black"/>
<path d="M6 77.5532V75.998H7.53809V77.5532H6Z" fill="black"/>
<path d="M7.44011 77.5532V75.998H8.82405V77.5532H7.44011Z" fill="black"/>
<path d="M8.649 77.5532V75.998H10.1871V77.5532H8.649Z" fill="black"/>
<path d="M9.93497 77.5532V75.998H10.5502V77.5532H9.93497Z" fill="black"/>
<path d="M10.3745 77.5532V75.998H11.7584V77.5532H10.3745Z" fill="black"/>
<path d="M11.6604 77.5532V75.998H12.8902V77.5532H11.6604Z" fill="black"/>
<path d="M12.7152 77.5532V75.998H13.7915V77.5532H12.7152Z" fill="black"/>
<path d="M13.6171 77.5532V75.998H14.6935V77.5532H13.6171Z" fill="black"/>
<path d="M14.5191 77.5532V75.998H16.0572V77.5532H14.5191Z" fill="black"/>
<path d="M15.9592 77.5532V75.998H17.3431V77.5532H15.9592Z" fill="black"/>
<path d="M17.1681 77.5532V75.998H18.3979V77.5532H17.1681Z" fill="black"/>
<path d="M18.2228 77.5532V75.998H19.6068V77.5532H18.2228Z" fill="black"/>
<path d="M19.26 77.5532V75.998H20.7981V77.5532H19.26Z" fill="black"/>
<path d="M20.546 77.5532V75.998H21.6223V77.5532H20.546Z" fill="black"/>
<path d="M21.2938 77.5532V75.998H22.3701V77.5532H21.2938Z" fill="black"/>
<path d="M22.3499 77.5532V75.998H23.5796V77.5532H22.3499Z" fill="black"/>
<path d="M23.5587 77.5532V75.998H24.9427V77.5532H23.5587Z" fill="black"/>
<path d="M24.7676 77.5532V75.998H25.5363V77.5532H24.7676Z" fill="black"/>
<path d="M25.2842 77.5532V75.998H25.8995V77.5532H25.2842Z" fill="black"/>
<path d="M25.7237 77.5532V75.998H27.2618V77.5532H25.7237Z" fill="black"/>
<path d="M27.1638 77.5532V75.998H28.5478V77.5532H27.1638Z" fill="black"/>
<path d="M28.3727 77.5532V75.998H29.9108V77.5532H28.3727Z" fill="black"/>
<path d="M29.6587 77.5532V75.998H30.2739V77.5532H29.6587Z" fill="black"/>
<path d="M6.15415 80.5532V78.998H7.53809V80.5532H6.15415Z" fill="black"/>
<path d="M7.51718 80.5532V78.998H8.74698V80.5532H7.51718Z" fill="black"/>
<path d="M8.57193 80.5532V78.998H9.64825V80.5532H8.57193Z" fill="black"/>
<path d="M9.31973 80.5532V78.998H9.93497V80.5532H9.31973Z" fill="black"/>
<path d="M9.91339 80.5532V78.998H11.2973V80.5532H9.91339Z" fill="black"/>
<path d="M11.1223 80.5532V78.998H12.5062V80.5532H11.1223Z" fill="black"/>
<path d="M12.2541 80.5532V78.998H12.8693V80.5532H12.2541Z" fill="black"/>
<path d="M12.6936 80.5532V78.998H14.6935V80.5532H12.6936Z" fill="black"/>
<path d="M14.5948 80.5532V78.998H15.6711V80.5532H14.5948Z" fill="black"/>
<path d="M15.4967 80.5532V78.998H16.8807V80.5532H15.4967Z" fill="black"/>
<path d="M16.6678 80.5532V78.998H17.7441V80.5532H16.6678Z" fill="black"/>
<path d="M17.4156 80.5532V78.998H18.7995V80.5532H17.4156Z" fill="black"/>
<path d="M18.4906 80.5532V78.998H20.0287V80.5532H18.4906Z" fill="black"/>
<path d="M19.8536 80.5532V78.998H21.2376V80.5532H19.8536Z" fill="black"/>
<path d="M21.0247 80.5532V78.998H22.101V80.5532H21.0247Z" fill="black"/>
<path d="M21.7725 80.5532V78.998H22.3877V80.5532H21.7725Z" fill="black"/>
<path d="M22.212 80.5532V78.998H23.7501V80.5532H22.212Z" fill="black"/>
<path d="M23.6521 80.5532V78.998H25.036V80.5532H23.6521Z" fill="black"/>
<path d="M24.861 80.5532V78.998H26.3991V80.5532H24.861Z" fill="black"/>
<path d="M26.147 80.5532V78.998H26.7622V80.5532H26.147Z" fill="black"/>
<path d="M26.5865 80.5532V78.998H27.8169V80.5532H26.5865Z" fill="black"/>
<path d="M27.4884 80.5532V78.998H29.0265V80.5532H27.4884Z" fill="black"/>
<path d="M28.6973 80.5532V78.998H30.2354V80.5532H28.6973Z" fill="black"/>
<path d="M29.9833 80.5532V78.998H31.3672V80.5532H29.9833Z" fill="black"/>
<path d="M31.0583 80.5532V78.998H31.827V80.5532H31.0583Z" fill="black"/>
<path d="M31.5749 80.5532V78.998H32.3436V80.5532H31.5749Z" fill="black"/>
<path d="M6.30762 8.44863H24.6736V8.51836H6.30762V8.44863ZM6.30762 11.4486H32.6917V11.5184H6.30762V11.4486ZM6.30762 14.4486H30.4842V14.5184H6.30762V14.4486ZM6.30762 17.4486H30.4829V17.5184H6.30762V17.4486ZM6.30762 20.4486H32.5376V20.5184H6.30762V20.4486ZM6.30762 23.4486H29.5438V23.5184H6.30762V23.4486ZM6.30762 26.4486H26.4154V26.5184H6.30762V26.4486ZM6.30762 29.4486H31.2549V29.5184H6.30762V29.4486ZM6.30762 32.4486H31.2084V32.5184H6.30762V32.4486ZM6.30762 35.4486H19.2809V35.5184H6.30762V35.4486ZM6.30762 38.4486H32.3246V38.5184H6.30762V38.4486ZM6.30762 41.4486H30.2152V41.5184H6.30762V41.4486ZM6.30762 44.4486H31.9595V44.5184H6.30762V44.4486ZM6.30762 47.4486H25.2457V47.5184H6.30762V47.4486ZM6.30762 50.4486H29.9636V50.5184H6.30762V50.4486ZM6.30762 53.4486H31.236V53.5184H6.30762V53.4486ZM6.30762 56.4486H29.2159V56.5184H6.30762V56.4486ZM6.30762 59.4486H24.4214V59.5184H6.30762V59.4486ZM6.30762 62.4486H29.3315V62.5184H6.30762V62.4486ZM6.30762 65.4486H30.825V65.5184H6.30762V65.4486ZM6.30762 68.4486H30.0042V68.5184H6.30762V68.4486ZM6.30762 71.4486H26.0111V71.5184H6.30762V71.4486ZM6.30762 74.4486H29.2969V74.5184H6.30762V74.4486ZM6.30762 77.4486H29.9663V77.5184H6.30762V77.4486ZM6.30762 80.4486H32.5315V80.5184H6.30762V80.4486Z" fill="black"/>
</g>
<rect width="12" height="14" transform="translate(25 18.998)" fill="white"/>
<path d="M31.4307 24.0166C31.141 24.0166 30.8838 24.0736 30.6592 24.1875C30.4378 24.2982 30.2507 24.4593 30.0977 24.6709C29.9479 24.8825 29.834 25.138 29.7559 25.4375C29.6777 25.737 29.6387 26.0739 29.6387 26.4482C29.6387 26.9528 29.7005 27.3841 29.8242 27.7422C29.9512 28.097 30.1465 28.3688 30.4102 28.5576C30.6738 28.7432 31.014 28.8359 31.4307 28.8359C31.7204 28.8359 32.0101 28.8034 32.2998 28.7383C32.5928 28.6732 32.9102 28.5804 33.252 28.46V29.7295C32.9362 29.8597 32.6253 29.9525 32.3193 30.0078C32.0133 30.0664 31.6699 30.0957 31.2891 30.0957C30.5534 30.0957 29.9479 29.9443 29.4727 29.6416C29.0007 29.3356 28.6507 28.9092 28.4229 28.3623C28.195 27.8122 28.0811 27.1709 28.0811 26.4385C28.0811 25.8981 28.1543 25.4033 28.3008 24.9541C28.4473 24.5049 28.6621 24.1159 28.9453 23.7871C29.2285 23.4583 29.5785 23.2044 29.9951 23.0254C30.4118 22.8464 30.8903 22.7568 31.4307 22.7568C31.7855 22.7568 32.1403 22.8024 32.4951 22.8936C32.8532 22.9814 33.195 23.1035 33.5205 23.2598L33.0322 24.4902C32.7653 24.3633 32.4967 24.2526 32.2266 24.1582C31.9564 24.0638 31.6911 24.0166 31.4307 24.0166Z" fill="#585858"/>
</g>
<path d="M11.3333 38.998H2V45.3461H11.3333V38.998Z" fill="#7FA4CA"/>
<path d="M21.6663 38.998H12.333V45.3461H21.6663V38.998Z" fill="#E19E55"/>
</g>
<defs>
<filter id="filter0_d_238_44255" x="0" y="1.99805" width="39" height="35" filterUnits="userSpaceOnUse" color-interpolation-filters="sRGB">
<feFlood flood-opacity="0" result="BackgroundImageFix"/>
<feColorMatrix in="SourceAlpha" type="matrix" values="0 0 0 0 0 0 0 0 0 0 0 0 0 0 0 0 0 0 127 0" result="hardAlpha"/>
<feOffset dy="1"/>
<feGaussianBlur stdDeviation="1"/>
<feComposite in2="hardAlpha" operator="out"/>
<feColorMatrix type="matrix" values="0 0 0 0 0 0 0 0 0 0 0 0 0 0 0 0 0 0 0.1 0"/>
<feBlend mode="normal" in2="BackgroundImageFix" result="effect1_dropShadow_238_44255"/>
<feBlend mode="normal" in="SourceGraphic" in2="effect1_dropShadow_238_44255" result="shape"/>
</filter>
<filter id="filter1_i_238_44255" x="2" y="-2.00195" width="35" height="34" filterUnits="userSpaceOnUse" color-interpolation-filters="sRGB">
<feFlood flood-opacity="0" result="BackgroundImageFix"/>
<feBlend mode="normal" in="SourceGraphic" in2="BackgroundImageFix" result="shape"/>
<feColorMatrix in="SourceAlpha" type="matrix" values="0 0 0 0 0 0 0 0 0 0 0 0 0 0 0 0 0 0 127 0" result="hardAlpha"/>
<feOffset dy="-5"/>
<feGaussianBlur stdDeviation="3.5"/>
<feComposite in2="hardAlpha" operator="arithmetic" k2="-1" k3="1"/>
<feColorMatrix type="matrix" values="0 0 0 0 1 0 0 0 0 1 0 0 0 0 1 0 0 0 1 0"/>
<feBlend mode="normal" in2="shape" result="effect1_innerShadow_238_44255"/>
</filter>
<clipPath id="clip0_238_44255">
<rect width="39" height="46.3481" fill="white" transform="translate(0 0.998047)"/>
</clipPath>
<clipPath id="clip1_238_44255">
<rect width="35" height="31" fill="white" transform="translate(2 2.99805)"/>
</clipPath>
<clipPath id="clip2_238_44255">
<rect width="35" height="29" fill="white" transform="translate(2 2.99805)"/>
</clipPath>
</defs>
</svg>
