<svg width="18" height="22" viewBox="0 0 18 22" fill="none" xmlns="http://www.w3.org/2000/svg">
<path d="M9 21.5C7.75 21.5 6.58 21.26 5.49 20.79C4.4 20.32 3.45 19.67 2.64 18.86C1.83 18.05 1.19 17.1 0.71 16.01C0.23 14.92 0 13.75 0 12.5H2C2 14.45 2.68 16.1 4.04 17.46C5.4 18.82 7.05 19.5 9 19.5C10.95 19.5 12.6 18.82 13.96 17.46C15.32 16.1 16 14.45 16 12.5C16 10.55 15.32 8.9 13.96 7.54C12.6 6.18 10.95 5.5 9 5.5H8.85L10.4 7.05L9 8.5L5 4.5L9 0.5L10.4 1.95L8.85 3.5H9C10.25 3.5 11.42 3.74 12.51 4.21C13.6 4.68 14.55 5.33 15.36 6.14C16.17 6.95 16.81 7.9 17.29 8.99C17.77 10.08 18 11.25 18 12.5C18 13.75 17.76 14.92 17.29 16.01C16.81 17.1 16.17 18.05 15.36 18.86C14.55 19.67 13.6 20.31 12.51 20.79C11.42 21.27 10.25 21.5 9 21.5Z" fill="#434E4F"/>
</svg>
