<?xml version="1.0" encoding="utf-8"?>
<svg version="1.1" id="Layer_1" xmlns="http://www.w3.org/2000/svg" xmlns:xlink="http://www.w3.org/1999/xlink" x="0px" y="0px"
	 viewBox="0 0 249.3 36.7" style="enable-background:new 0 0 249.3 36.7;" xml:space="preserve">
<style type="text/css">
	.st0{fill:#D0DADF;}
	.st1{fill:#AFBFC9;}
	.st2{fill:#758896;}
	.st3{fill:#536875;}
	.st4{fill:#304854;}
	.st5{font-family:'ArialMT';}
	.st6{font-size:14px;}
</style>
<image style="display:none;overflow:visible;" width="370" height="64" xlink:href="../../../../../../../../Users/leeza/Desktop/Screen Shot 2019-05-03 at 2.14.33 PM.png"  transform="matrix(1 0 0 1 -7.0928 -13.0211)">
</image>
<rect x="1.7" y="2.8" class="st0" width="46.2" height="15.8"/>
<rect x="51.2" y="2.8" class="st1" width="46.2" height="15.8"/>
<rect x="100.7" y="2.8" class="st2" width="46.2" height="15.8"/>
<rect x="150.2" y="2.8" class="st3" width="46.2" height="15.8"/>
<rect x="199.7" y="2.8" class="st4" width="46.2" height="15.8"/>
<text transform="matrix(1 0 0 1 13 33.9833)" class="st5 st6">&lt;60</text>
<text transform="matrix(1 0 0 1 62.5849 33.9835)" class="st5 st6">&lt;75</text>
<text transform="matrix(1 0 0 1 206.3334 33.9831)" class="st5 st6">&lt;120</text>
<text transform="matrix(1 0 0 1 112.1693 33.9835)" class="st5 st6">&lt;90</text>
<text transform="matrix(1 0 0 1 156.7486 33.9831)" class="st5 st6">&lt;105</text>
</svg>
