<svg xmlns="http://www.w3.org/2000/svg" viewBox="0 0 493.3 52.4"><defs><style>.cls-1{fill:#ef4136}.cls-2{fill:#ed392a}</style></defs><title>cpp-logo-red</title><g id="Layer_2" data-name="Layer 2"><g id="Layer_1-2" data-name="Layer 1"><path class="cls-1" d="M150.9 0v50.7h42V0zm30.3 16.2h-1.9l-.3-1.6h-13.9v13.5h2.7v-9.2a1.22 1.22 0 0 1 1.2-1.2h10.9a1.22 1.22 0 0 1 1.2 1.2v10.5a1.22 1.22 0 0 1-1.2 1.2h-9.7v8.7l1.6.3v1.9h-5.7v-1.9l1.6-.3v-8.7h-4a1.22 1.22 0 0 1-1.2-1.2v-16a1.22 1.22 0 0 1 1.2-1.2h15.1l.3-1.6h1.9v5.6z"/><path class="cls-1" d="M170.3 20h8.4v8.1h-8.4z"/><path class="cls-2" d="M234.2 20.5h-3.5l-.9-5.3a9.27 9.27 0 0 0-3-2 11 11 0 0 0-4.3-.8 10.39 10.39 0 0 0-8.9 4.2c-2.1 2.8-3.1 6.4-3.1 10.7v.6c0 4.3 1 7.9 3.1 10.7a9.91 9.91 0 0 0 8.5 4.2 13.44 13.44 0 0 0 4.6-.8 9.68 9.68 0 0 0 3.2-1.9l.9-5.3h3.5v6.7a14.52 14.52 0 0 1-4.8 3.7 16 16 0 0 1-7.5 1.6 15 15 0 0 1-11.9-5.4c-3.1-3.6-4.6-8.1-4.6-13.5v-.5c0-5.4 1.5-10 4.6-13.5a14.83 14.83 0 0 1 12-5.4 16.53 16.53 0 0 1 7.5 1.6 12.69 12.69 0 0 1 4.8 3.7v6.7zm3.3 22.6l4.2-.7v-32l-4.2-.7V6.5h9.2v15.9a10.33 10.33 0 0 1 3.5-3.1 10.07 10.07 0 0 1 4.6-1.1 8.75 8.75 0 0 1 6.9 2.7c1.6 1.8 2.5 4.5 2.5 8.2v13.4l4.2.7v3.2H255v-3.2l4.2-.7V28.9q0-3.45-1.5-5.1a5.53 5.53 0 0 0-4.4-1.6 7.21 7.21 0 0 0-3.8 1 8 8 0 0 0-2.8 2.7v16.5l4.2.7v3.2h-13.4v-3.2zm34.5 0l4.2-.7V22.6l-4.2-.7v-3.2h9.2v23.7l4.2.7v3.2H272v-3.2zm9.2-31.5h-5V6.5h5zm7.2 31.5l4.2-.7V22.6l-4.2-.7v-3.2h8.7l.4 4.1a9.49 9.49 0 0 1 3.5-3.4 9.39 9.39 0 0 1 4.7-1.2 9 9 0 0 1 6.9 2.6c1.6 1.7 2.5 4.4 2.5 8.1v13.5l4.2.7v3.2h-13.4v-3.2l4.2-.7V28.9c0-2.4-.5-4.2-1.4-5.2a5.86 5.86 0 0 0-4.4-1.5 7 7 0 0 0-3.8 1 8.38 8.38 0 0 0-2.7 2.9v16.2l4.2.7v3.2h-13.4v-3.1zm52.5 3.2a17.66 17.66 0 0 1-.4-2c-.1-.6-.1-1.2-.2-1.8a13.44 13.44 0 0 1-3.6 3.1 9.39 9.39 0 0 1-4.7 1.2q-4.35 0-6.6-2.1a7.7 7.7 0 0 1-2.2-5.9 7.12 7.12 0 0 1 3.2-6.1q3.15-2.1 8.7-2.1h5.2v-3.2a4.9 4.9 0 0 0-1.5-3.8 6.17 6.17 0 0 0-4.3-1.4 10.42 10.42 0 0 0-3.3.5 6.31 6.31 0 0 0-2.3 1.3l-.5 2.9h-3.9v-5.4a15.4 15.4 0 0 1 4.6-2.4 18.08 18.08 0 0 1 5.8-.9 11.53 11.53 0 0 1 7.6 2.4 8.55 8.55 0 0 1 2.9 6.9v14.3a3.4 3.4 0 0 0 .1 1l2 .3v3.2h-6.6zm-8.1-3.7a9 9 0 0 0 4.6-1.2 7.63 7.63 0 0 0 3-2.9V34H335a7.93 7.93 0 0 0-4.9 1.4 4.36 4.36 0 0 0-1.8 3.5 3.76 3.76 0 0 0 1.1 2.8 5.13 5.13 0 0 0 3.4.9zm35.5-33.5c4 0 7.1 1 9.3 3.1a10.55 10.55 0 0 1 3.3 8.1 10.41 10.41 0 0 1-3.3 8.1q-3.3 3-9.3 3h-7.9v11l4.2.7v3.2h-13.4v-3.2l4.2-.7V13.1l-4.2-.7V9.2h17.1zm-7.9 18.3h7.9a7.74 7.74 0 0 0 5.7-2 7 7 0 0 0 1.9-5.1 7.26 7.26 0 0 0-1.9-5.2c-1.3-1.4-3.1-2.1-5.7-2.1h-7.9zm20.6 4.8a15.16 15.16 0 0 1 3.3-10.1 12.24 12.24 0 0 1 18.1 0 15.16 15.16 0 0 1 3.3 10.1v.6a15.16 15.16 0 0 1-3.3 10.1 11.17 11.17 0 0 1-9 3.9 11.37 11.37 0 0 1-9.1-3.9 15.16 15.16 0 0 1-3.3-10.1zm5 .6a13 13 0 0 0 1.9 7.3 6.17 6.17 0 0 0 5.5 2.9 6 6 0 0 0 5.4-2.9 13.38 13.38 0 0 0 1.9-7.3v-.6a12.46 12.46 0 0 0-1.9-7.2 6.17 6.17 0 0 0-5.5-2.9 6.29 6.29 0 0 0-5.5 2.9 13.26 13.26 0 0 0-1.8 7.2zm31.5-10.9l-3.2.6 3.6 13.8.6 3.3h.2l.7-3.3 5.5-17.6h4l5.5 17.6.8 3.7h.2l.7-3.7 3.4-13.8-3.2-.6v-3.2h10.5v3.2l-2.4.4-7 24h-4.1L428 29.5l-1.1-4.6h-.2l-1 4.6-5.3 16.8h-4.1l-7-24-2.4-.4v-3.2h10.5v3.2zm42.1 24.9a12 12 0 0 1-9.2-3.8 14.45 14.45 0 0 1-3.4-10v-1.1a14.34 14.34 0 0 1 3.5-9.8 10.75 10.75 0 0 1 8.3-3.9c3.7 0 6.5 1.1 8.4 3.4s2.9 5.2 2.9 9v3.1h-17.9l-.1.1a11.48 11.48 0 0 0 2 6.6 6.21 6.21 0 0 0 5.4 2.6 12.51 12.51 0 0 0 4.5-.7 10.77 10.77 0 0 0 3.3-2l2 3.3a10.77 10.77 0 0 1-3.9 2.4 16.59 16.59 0 0 1-5.8.8zm-.8-24.7a5.44 5.44 0 0 0-4.3 2.1 10.17 10.17 0 0 0-2.2 5.4l.1.1h12.7V29a7.69 7.69 0 0 0-1.6-5 5.87 5.87 0 0 0-4.7-1.9zm16.3-.2v-3.2h8.7l.5 4a9.36 9.36 0 0 1 2.9-3.3 6.67 6.67 0 0 1 3.9-1.2 4.87 4.87 0 0 1 1.2.1c.4.1.7.1 1 .2l-.7 4.7-2.9-.2a5.82 5.82 0 0 0-3.3.9 6.07 6.07 0 0 0-2.1 2.6v15.9l4.2.7v3.2h-13.4v-3.2l4.2-.7V22.6l-4.2-.7zM28.6 7.7c1.5.2 3.5 1 4.4 1.1.3 0 .9.4.9 1.7s.3 3.7.4 5-.4 1.9-.9 1.9c-.3 0-.6-.6-.9-1.5a9.35 9.35 0 0 0-2.3-4.3 14.64 14.64 0 0 0-9.2-3c-9.2 0-15.1 7.6-15.1 16.3a20.86 20.86 0 0 0 2 9.5 16.59 16.59 0 0 0 14.5 9.2 13.6 13.6 0 0 0 6.2-1.5 12.48 12.48 0 0 0 5.3-5.6c.7-1.2 1-1.5 1.2-1.5.6 0 .6 1.3.5 1.9a21.93 21.93 0 0 1-2.3 5.8 4.53 4.53 0 0 1-1.8 1.5 34.82 34.82 0 0 1-10.4 1.6c-8.1 0-14-4-16.3-6.7a19.16 19.16 0 0 1 1.5-26.9 23.72 23.72 0 0 1 15.5-5.3 27.38 27.38 0 0 1 6.8.8zm31.5.1c.3.1.7 1 .7 1.1.1 1.1.6 4.4.6 4.6 0 1 0 1.5-.4 1.5a1.65 1.65 0 0 1-1.4-1.2 8.53 8.53 0 0 0-2.8-4.1 6.72 6.72 0 0 0-10.7 5.4c0 4.1 2.9 5.8 8 9.2 4.4 3 7.9 6 7.9 11.1a9.89 9.89 0 0 1-4.7 8.1 16.14 16.14 0 0 1-7.8 2.1 22.25 22.25 0 0 1-7.5-1.5 3.84 3.84 0 0 1-1.3-1.8c-.3-1.9-.9-4.5-.9-5.4 0-.2.6-1.1.8-1.1.5 0 1.3 1.5 2.1 3.3 1.5 3.2 5.3 4.6 7.4 4.6a6.62 6.62 0 0 0 6.9-6.9c0-2.4-1.1-5-7.2-8.8-4.7-3.2-8.1-6.5-8.1-11.4a9.25 9.25 0 0 1 3.2-7c1.8-1.6 4.5-2.8 8.5-2.8a42.3 42.3 0 0 1 6.7 1zm12.3 5.6c-.2-2.6-.2-3.5-3.4-4.1-1.3-.2-1.6-.6-1.6-1s.6-.7 1.4-.7c1.5 0 4.4.2 6.2.2 2.8 0 4.1-.2 6.1-.2.9 0 1.4.2 1.4.7s-.6.8-1.5 1c-3.3.7-3.3 2.1-3.5 3.7-.3 1.9-.3 5.6-.3 16.8 0 3.1.1 6.7.2 8.5.2 3.1.5 4.2 4.2 4.9 1 .2 1.5.6 1.5 1s-.9.7-1.5.7c-2.9 0-7-.3-8.5-.3-1.7 0-2.2.1-4.4.1-1.1 0-1.5-.4-1.5-.8s.6-.7 1.7-1c2.9-.6 3.1-1.5 3.3-4.2.2-2 .3-8 .3-12.8 0-3.5 0-10.6-.1-12.5zm35.2-5.6c.3.1.7 1 .7 1.1.1 1.1.6 4.4.6 4.6 0 1 0 1.5-.4 1.5a1.65 1.65 0 0 1-1.4-1.2 8.53 8.53 0 0 0-2.8-4.1 6.72 6.72 0 0 0-10.7 5.4c0 4.1 2.9 5.8 8 9.2 4.4 3 7.9 6 7.9 11.1a9.89 9.89 0 0 1-4.7 8.1 16.14 16.14 0 0 1-7.8 2.1 22.25 22.25 0 0 1-7.5-1.5 3.84 3.84 0 0 1-1.3-1.8c-.3-1.9-.9-4.5-.9-5.4 0-.2.6-1.1.8-1.1.5 0 1.3 1.5 2.1 3.3 1.5 3.2 5.3 4.6 7.4 4.6a6.62 6.62 0 0 0 6.9-6.9c0-2.4-1.1-5-7.2-8.8-4.9-3.2-8.3-6.5-8.3-11.3a9.25 9.25 0 0 1 3.2-7c1.8-1.6 4.5-2.8 8.5-2.8a35 35 0 0 1 6.9.9zM130.4 51.5V1.3a.9.9 0 1 1 1.8 0v50.2a.9.9 0 0 1-.9.9.84.84 0 0 1-.9-.9z"/></g></g></svg>