<svg id="replay" width="48" height="48" viewBox="0 0 48 48" fill="none" xmlns="http://www.w3.org/2000/svg">
<path d="M17.5076 5.62578C19.8769 4.55121 22.4325 3.99678 25.0179 4.00001L25.0177 8.00001C25.0173 8.00001 25.0169 8.00001 25.0165 8.00001L25.0139 8.00001C23.0053 7.99736 21.0139 8.42769 19.1598 9.26862C17.3196 10.1032 15.6493 11.3266 14.2524 12.8718L13.6823 13.5747L20.5 17.5L6.5 22.5L4 8L10.1715 11.5533L11.2103 10.2726L11.244 10.235C13.0085 8.2708 15.1383 6.70034 17.5076 5.62578Z" fill="black"/>
<path fill-rule="evenodd" clip-rule="evenodd" d="M25.0177 8.00001L25.0179 4.00001C35.606 4.0008 43.9999 13.0696 43.9999 24C43.9999 34.9309 35.6053 44 25.0165 44C21.0622 43.9997 17.217 42.6999 14.0103 40.2974C10.8055 37.8962 8.39924 34.5155 7.10288 30.6335L6.46939 28.7365L10.2634 27.4695L10.8969 29.3665C11.9445 32.5035 13.877 35.1994 16.4087 37.0962C18.9385 38.9915 21.9457 39.9997 25.0165 40L25.0177 8.00001C25.0177 8.00001 25.0177 8.00001 25.0177 8.00001ZM25.0177 8.00001L25.0165 40C33.1802 39.9999 39.9999 32.944 39.9999 24C39.9999 15.0564 33.1809 8.00073 25.0177 8.00001Z" fill="black"/>
</svg>
