<?xml version="1.0" encoding="UTF-8"?>
<svg width="45px" height="46px" viewBox="0 0 45 46" version="1.1" xmlns="http://www.w3.org/2000/svg" xmlns:xlink="http://www.w3.org/1999/xlink">
    <!-- Generator: Sketch 52.2 (67145) - http://www.bohemiancoding.com/sketch -->
    <title>icon_plus_alt - customfont</title>
    <desc>Created with Sketch.</desc>
    <g id="Specs,-interactions" stroke="none" stroke-width="1" fill="none" fill-rule="evenodd">
        <g transform="translate(-3659.000000, -1147.000000)" fill="#000000" id="icon_plus_alt---customfont">
            <path d="M3681.488,1147.176 C3685.55202,1147.176 3689.34398,1148.19999 3692.864,1150.248 C3696.25602,1152.23201 3698.94399,1154.91998 3700.928,1158.312 C3702.97601,1161.83202 3704,1165.62398 3704,1169.688 C3704,1173.75202 3702.97601,1177.54398 3700.928,1181.064 C3698.94399,1184.45602 3696.25602,1187.14399 3692.864,1189.128 C3689.34398,1191.17601 3685.55202,1192.2 3681.488,1192.2 C3677.42398,1192.2 3673.64802,1191.17601 3670.16,1189.128 C3666.76798,1187.14399 3664.08001,1184.45602 3662.096,1181.064 C3660.04799,1177.54398 3659.024,1173.75202 3659.024,1169.688 C3659.024,1165.62398 3660.04799,1161.83202 3662.096,1158.312 C3664.08001,1154.91998 3666.76798,1152.23201 3670.16,1150.248 C3673.64802,1148.19999 3677.42398,1147.176 3681.488,1147.176 Z M3693.488,1171.176 C3693.904,1171.176 3694.264,1171.032 3694.568,1170.744 C3694.872,1170.456 3695.024,1170.104 3695.024,1169.688 C3695.024,1169.272 3694.872,1168.92 3694.568,1168.632 C3694.264,1168.344 3693.904,1168.2 3693.488,1168.2 L3683.024,1168.2 L3683.024,1157.688 C3683.024,1157.272 3682.872,1156.92 3682.568,1156.632 C3682.264,1156.344 3681.904,1156.2 3681.488,1156.2 C3681.072,1156.2 3680.72,1156.344 3680.432,1156.632 C3680.144,1156.92 3680,1157.272 3680,1157.688 L3680,1168.2 L3669.488,1168.2 C3669.072,1168.2 3668.72,1168.344 3668.432,1168.632 C3668.144,1168.92 3668,1169.272 3668,1169.688 C3668,1170.104 3668.144,1170.456 3668.432,1170.744 C3668.72,1171.032 3669.072,1171.176 3669.488,1171.176 L3680,1171.176 L3680,1181.688 C3680,1182.104 3680.144,1182.456 3680.432,1182.744 C3680.72,1183.032 3681.072,1183.176 3681.488,1183.176 C3681.904,1183.176 3682.264,1183.032 3682.568,1182.744 C3682.872,1182.456 3683.024,1182.104 3683.024,1181.688 L3683.024,1171.176 L3693.488,1171.176 Z"></path>
        </g>
    </g>
</svg>