<?xml version="1.0" encoding="UTF-8"?>
<svg width="45px" height="46px" viewBox="0 0 45 46" version="1.1" xmlns="http://www.w3.org/2000/svg" xmlns:xlink="http://www.w3.org/1999/xlink">
    <!-- Generator: Sketch 52.2 (67145) - http://www.bohemiancoding.com/sketch -->
    <title>icon_minus_alt - customfont</title>
    <desc>Created with Sketch.</desc>
    <g id="Specs,-interactions" stroke="none" stroke-width="1" fill="none" fill-rule="evenodd">
        <g id="Specs" transform="translate(-3728.000000, -1150.000000)" fill="#000000">
            <path d="M3750.488,1150.176 C3754.55202,1150.176 3758.34398,1151.19999 3761.864,1153.248 C3765.25602,1155.23201 3767.94399,1157.91998 3769.928,1161.312 C3771.97601,1164.83202 3773,1168.62398 3773,1172.688 C3773,1176.75202 3771.97601,1180.54398 3769.928,1184.064 C3767.94399,1187.45602 3765.25602,1190.14399 3761.864,1192.128 C3758.34398,1194.17601 3754.55202,1195.2 3750.488,1195.2 C3746.42398,1195.2 3742.64802,1194.17601 3739.16,1192.128 C3735.76798,1190.14399 3733.08001,1187.45602 3731.096,1184.064 C3729.04799,1180.54398 3728.024,1176.75202 3728.024,1172.688 C3728.024,1168.62398 3729.04799,1164.83202 3731.096,1161.312 C3733.08001,1157.91998 3735.76798,1155.23201 3739.16,1153.248 C3742.64802,1151.19999 3746.42398,1150.176 3750.488,1150.176 Z M3762.488,1174.176 C3762.904,1174.176 3763.264,1174.032 3763.568,1173.744 C3763.872,1173.456 3764.024,1173.104 3764.024,1172.688 C3764.024,1172.272 3763.872,1171.92 3763.568,1171.632 C3763.264,1171.344 3762.904,1171.2 3762.488,1171.2 L3738.488,1171.2 C3738.072,1171.2 3737.72,1171.344 3737.432,1171.632 C3737.144,1171.92 3737,1172.272 3737,1172.688 C3737,1173.104 3737.144,1173.456 3737.432,1173.744 C3737.72,1174.032 3738.072,1174.176 3738.488,1174.176 L3762.488,1174.176 Z" id="icon_minus_alt---customfont"></path>
        </g>
    </g>
</svg>