<svg width="39" height="88" viewBox="0 0 39 88" fill="none" xmlns="http://www.w3.org/2000/svg">
<rect width="39" height="88" />
<g clip-path="url(#clip0_39_124700)">
<g filter="url(#filter0_d_39_124700)">
<rect width="35" height="71.5552" transform="translate(2 2.93359)" fill="white"/>
<g opacity="0.3">
<rect width="35" height="69.5552" transform="translate(2 2.93359)" fill="white"/>
<path d="M6 8.48877V6.93359H6.76709V8.48877H6Z" fill="black"/>
<path d="M6.74623 8.48877V6.93359H8.28109V8.48877H6.74623Z" fill="black"/>
<path d="M7.97147 8.48877V6.93359H9.35251V8.48877H7.97147Z" fill="black"/>
<path d="M9.04424 8.48877V6.93359H10.5791V8.48877H9.04424Z" fill="black"/>
<path d="M10.2506 8.48877V6.93359H11.6316V8.48877H10.2506Z" fill="black"/>
<path d="M11.4192 8.48877V6.93359H12.4932V8.48877H11.4192Z" fill="black"/>
<path d="M12.3192 8.48877V6.93359H13.8541V8.48877H12.3192Z" fill="black"/>
<path d="M13.6025 8.48877V6.93359H15.1373V8.48877H13.6025Z" fill="black"/>
<path d="M14.9626 8.48877V6.93359H16.3437V8.48877H14.9626Z" fill="black"/>
<path d="M16.169 8.48877V6.93359H17.2431V8.48877H16.169Z" fill="black"/>
<path d="M16.9152 8.48877V6.93359H17.5292V8.48877H16.9152Z" fill="black"/>
<path d="M17.3538 8.48877V6.93359H18.8887V8.48877H17.3538Z" fill="black"/>
<path d="M18.7329 8.48877V6.93359H19.8069V8.48877H18.7329Z" fill="black"/>
<path d="M19.6329 8.48877V6.93359H21.1678V8.48877H19.6329Z" fill="black"/>
<path d="M20.9162 8.48877V6.93359H22.4511V8.48877H20.9162Z" fill="black"/>
<path d="M22.2764 8.48877V6.93359H23.6574V8.48877H22.2764Z" fill="black"/>
<path d="M23.4827 8.48877V6.93359H24.0967V8.48877H23.4827Z" fill="black"/>
<path d="M23.9213 8.48877V6.93359H25.4562V8.48877H23.9213Z" fill="black"/>
<path d="M25.2046 8.48877V6.93359H26.2786V8.48877H25.2046Z" fill="black"/>
<path d="M26.1046 8.48877V6.93359H27.4857V8.48877H26.1046Z" fill="black"/>
<path d="M27.427 8.48877V6.93359H28.6542V8.48877H27.427Z" fill="black"/>
<path d="M28.4795 8.48877V6.93359H29.0935V8.48877H28.4795Z" fill="black"/>
<path d="M6 11.4888V9.93359H7.53486V11.4888H6Z" fill="black"/>
<path d="M7.20635 11.4888V9.93359H8.74121V11.4888H7.20635Z" fill="black"/>
<path d="M8.64344 11.4888V9.93359H10.0245V11.4888H8.64344Z" fill="black"/>
<path d="M9.77288 11.4888V9.93359H11.1539V11.4888H9.77288Z" fill="black"/>
<path d="M10.8456 11.4888V9.93359H12.3805V11.4888H10.8456Z" fill="black"/>
<path d="M12.052 11.4888V9.93359H13.433V11.4888H12.052Z" fill="black"/>
<path d="M13.2206 11.4888V9.93359H14.6016V11.4888H13.2206Z" fill="black"/>
<path d="M14.3891 11.4888V9.93359H15.924V11.4888H14.3891Z" fill="black"/>
<path d="M15.5955 11.4888V9.93359H16.9765V11.4888H15.5955Z" fill="black"/>
<path d="M16.7641 11.4888V9.93359H17.378V11.4888H16.7641Z" fill="black"/>
<path d="M17.2026 11.4888V9.93359H18.7375V11.4888H17.2026Z" fill="black"/>
<path d="M18.5628 11.4888V9.93359H19.6369V11.4888H18.5628Z" fill="black"/>
<path d="M19.4629 11.4888V9.93359H20.8439V11.4888H19.4629Z" fill="black"/>
<path d="M20.6314 11.4888V9.93359H21.2454V11.4888H20.6314Z" fill="black"/>
<path d="M21.07 11.4888V9.93359H22.4511V11.4888H21.07Z" fill="black"/>
<path d="M22.2386 11.4888V9.93359H23.7734V11.4888H22.2386Z" fill="black"/>
<path d="M23.7526 11.4888V9.93359H25.1336V11.4888H23.7526Z" fill="black"/>
<path d="M25.0358 11.4888V9.93359H26.4169V11.4888H25.0358Z" fill="black"/>
<path d="M26.3191 11.4888V9.93359H27.5463V11.4888H26.3191Z" fill="black"/>
<path d="M27.3716 11.4888V9.93359H28.7527V11.4888H27.3716Z" fill="black"/>
<path d="M28.4444 11.4888V9.93359H29.5185V11.4888H28.4444Z" fill="black"/>
<path d="M29.1906 11.4888V9.93359H29.8046V11.4888H29.1906Z" fill="black"/>
<path d="M6 14.4888V12.9336H7.22789V14.4888H6Z" fill="black"/>
<path d="M7.05388 14.4888V12.9336H8.28109V14.4888H7.05388Z" fill="black"/>
<path d="M8.1064 14.4888V12.9336H9.48744V14.4888H8.1064Z" fill="black"/>
<path d="M9.17917 14.4888V12.9336H9.79312V14.4888H9.17917Z" fill="black"/>
<path d="M9.61776 14.4888V12.9336H10.6918V14.4888H9.61776Z" fill="black"/>
<path d="M10.6716 14.4888V12.9336H12.0527V14.4888H10.6716Z" fill="black"/>
<path d="M11.878 14.4888V12.9336H12.952V14.4888H11.878Z" fill="black"/>
<path d="M12.6242 14.4888V12.9336H14.1591V14.4888H12.6242Z" fill="black"/>
<path d="M13.8306 14.4888V12.9336H15.2116V14.4888H13.8306Z" fill="black"/>
<path d="M14.9033 14.4888V12.9336H15.6704V14.4888H14.9033Z" fill="black"/>
<path d="M15.4957 14.4888V12.9336H17.1844V14.4888H15.4957Z" fill="black"/>
<path d="M17.0867 14.4888V12.9336H18.3139V14.4888H17.0867Z" fill="black"/>
<path d="M18.1392 14.4888V12.9336H19.5202V14.4888H18.1392Z" fill="black"/>
<path d="M19.2119 14.4888V12.9336H20.7468V14.4888H19.2119Z" fill="black"/>
<path d="M20.4183 14.4888V12.9336H21.9532V14.4888H20.4183Z" fill="black"/>
<path d="M21.8554 14.4888V12.9336H23.2364V14.4888H21.8554Z" fill="black"/>
<path d="M23.0617 14.4888V12.9336H23.6757V14.4888H23.0617Z" fill="black"/>
<path d="M6 17.4888V15.9336H7.53486V17.4888H6Z" fill="black"/>
<path d="M7.28326 17.4888V15.9336H8.35733V17.4888H7.28326Z" fill="black"/>
<path d="M8.18332 17.4888V15.9336H9.71817V17.4888H8.18332Z" fill="black"/>
<path d="M9.46658 17.4888V15.9336H10.5406V17.4888H9.46658Z" fill="black"/>
<path d="M10.5205 17.4888V15.9336H11.7477V17.4888H10.5205Z" fill="black"/>
<path d="M11.573 17.4888V15.9336H13.1078V17.4888H11.573Z" fill="black"/>
<path d="M12.9332 17.4888V15.9336H14.468V17.4888H12.9332Z" fill="black"/>
<path d="M14.2933 17.4888V15.9336H15.8282V17.4888H14.2933Z" fill="black"/>
<path d="M15.4997 17.4888V15.9336H16.2668V17.4888H15.4997Z" fill="black"/>
<path d="M16.0152 17.4888V15.9336H16.6291V17.4888H16.0152Z" fill="black"/>
<path d="M16.4538 17.4888V15.9336H17.9886V17.4888H16.4538Z" fill="black"/>
<path d="M17.8139 17.4888V15.9336H19.195V17.4888H17.8139Z" fill="black"/>
<path d="M19.0203 17.4888V15.9336H20.5551V17.4888H19.0203Z" fill="black"/>
<path d="M20.3805 17.4888V15.9336H21.9153V17.4888H20.3805Z" fill="black"/>
<path d="M21.6637 17.4888V15.9336H23.1986V17.4888H21.6637Z" fill="black"/>
<path d="M23.0239 17.4888V15.9336H24.5588V17.4888H23.0239Z" fill="black"/>
<path d="M24.2302 17.4888V15.9336H26.2259V17.4888H24.2302Z" fill="black"/>
<path d="M26.1275 17.4888V15.9336H27.6623V17.4888H26.1275Z" fill="black"/>
<path d="M27.4876 17.4888V15.9336H28.8687V17.4888H27.4876Z" fill="black"/>
<path d="M28.694 17.4888V15.9336H29.768V17.4888H28.694Z" fill="black"/>
<path d="M29.4402 17.4888V15.9336H30.2073V17.4888H29.4402Z" fill="black"/>
<path d="M29.9557 17.4888V15.9336H30.5696V17.4888H29.9557Z" fill="black"/>
<path d="M6 20.4888V18.9336H7.53486V20.4888H6Z" fill="black"/>
<path d="M7.43709 20.4888V18.9336H8.81812V20.4888H7.43709Z" fill="black"/>
<path d="M8.64344 20.4888V18.9336H10.1783V20.4888H8.64344Z" fill="black"/>
<path d="M9.9267 20.4888V18.9336H10.5406V20.4888H9.9267Z" fill="black"/>
<path d="M10.3653 20.4888V18.9336H11.7463V20.4888H10.3653Z" fill="black"/>
<path d="M11.6485 20.4888V18.9336H12.8758V20.4888H11.6485Z" fill="black"/>
<path d="M12.8549 20.4888V18.9336H14.0821V20.4888H12.8549Z" fill="black"/>
<path d="M14.0612 20.4888V18.9336H15.4423V20.4888H14.0612Z" fill="black"/>
<path d="M15.1907 20.4888V18.9336H16.7255V20.4888H15.1907Z" fill="black"/>
<path d="M16.397 20.4888V18.9336H17.7781V20.4888H16.397Z" fill="black"/>
<path d="M17.432 20.4888V18.9336H18.9669V20.4888H17.432Z" fill="black"/>
<path d="M18.7153 20.4888V18.9336H19.7893V20.4888H18.7153Z" fill="black"/>
<path d="M19.4615 20.4888V18.9336H20.5356V20.4888H19.4615Z" fill="black"/>
<path d="M20.5154 20.4888V18.9336H21.7426V20.4888H20.5154Z" fill="black"/>
<path d="M21.7217 20.4888V18.9336H23.1028V20.4888H21.7217Z" fill="black"/>
<path d="M22.9281 20.4888V18.9336H23.6952V20.4888H22.9281Z" fill="black"/>
<path d="M23.4436 20.4888V18.9336H24.0575V20.4888H23.4436Z" fill="black"/>
<path d="M24.036 20.4888V18.9336H26.1848V20.4888H24.036Z" fill="black"/>
<path d="M25.971 20.4888V18.9336H27.5058V20.4888H25.971Z" fill="black"/>
<path d="M27.1773 20.4888V18.9336H27.7913V20.4888H27.1773Z" fill="black"/>
<path d="M6 23.4888V21.9336H7.53486V23.4888H6Z" fill="black"/>
<path d="M7.28326 23.4888V21.9336H8.81812V23.4888H7.28326Z" fill="black"/>
<path d="M8.64344 23.4888V21.9336H10.0245V23.4888H8.64344Z" fill="black"/>
<path d="M9.7162 23.4888V21.9336H11.2511V23.4888H9.7162Z" fill="black"/>
<path d="M10.9226 23.4888V21.9336H12.4574V23.4888H10.9226Z" fill="black"/>
<path d="M12.1289 23.4888V21.9336H12.7428V23.4888H12.1289Z" fill="black"/>
<path d="M12.5675 23.4888V21.9336H13.6416V23.4888H12.5675Z" fill="black"/>
<path d="M13.4675 23.4888V21.9336H14.6948V23.4888H13.4675Z" fill="black"/>
<path d="M14.5201 23.4888V21.9336H15.134V23.4888H14.5201Z" fill="black"/>
<path d="M14.9587 23.4888V21.9336H17.1075V23.4888H14.9587Z" fill="black"/>
<path d="M17.0097 23.4888V21.9336H18.2369V23.4888H17.0097Z" fill="black"/>
<path d="M18.0622 23.4888V21.9336H19.4432V23.4888H18.0622Z" fill="black"/>
<path d="M19.135 23.4888V21.9336H20.6698V23.4888H19.135Z" fill="black"/>
<path d="M20.4574 23.4888V21.9336H21.0713V23.4888H20.4574Z" fill="black"/>
<path d="M20.896 23.4888V21.9336H21.97V23.4888H20.896Z" fill="black"/>
<path d="M21.796 23.4888V21.9336H23.0232V23.4888H21.796Z" fill="black"/>
<path d="M22.8485 23.4888V21.9336H24.3834V23.4888H22.8485Z" fill="black"/>
<path d="M24.2087 23.4888V21.9336H25.7436V23.4888H24.2087Z" fill="black"/>
<path d="M25.4151 23.4888V21.9336H26.4891V23.4888H25.4151Z" fill="black"/>
<path d="M26.1613 23.4888V21.9336H27.6962V23.4888H26.1613Z" fill="black"/>
<path d="M27.5215 23.4888V21.9336H29.0563V23.4888H27.5215Z" fill="black"/>
<path d="M28.7278 23.4888V21.9336H30.1089V23.4888H28.7278Z" fill="black"/>
<path d="M29.8006 23.4888V21.9336H30.4145V23.4888H29.8006Z" fill="black"/>
<path d="M30.2392 23.4888V21.9336H31.3132V23.4888H30.2392Z" fill="black"/>
<path d="M31.1392 23.4888V21.9336H32.3664V23.4888H31.1392Z" fill="black"/>
<path d="M32.1918 23.4888V21.9336H32.8057V23.4888H32.1918Z" fill="black"/>
<path d="M6 26.4888V24.9336H7.07406V26.4888H6Z" fill="black"/>
<path d="M6.90005 26.4888V24.9336H8.89571V26.4888H6.90005Z" fill="black"/>
<path d="M8.95108 26.4888V24.9336H10.3321V26.4888H8.95108Z" fill="black"/>
<path d="M10.0805 26.4888V24.9336H11.4616V26.4888H10.0805Z" fill="black"/>
<path d="M11.3071 26.4888V24.9336H12.5343V26.4888H11.3071Z" fill="black"/>
<path d="M12.3596 26.4888V24.9336H13.7407V26.4888H12.3596Z" fill="black"/>
<path d="M13.6429 26.4888V24.9336H15.1778V26.4888H13.6429Z" fill="black"/>
<path d="M14.8493 26.4888V24.9336H15.4632V26.4888H14.8493Z" fill="black"/>
<path d="M15.2878 26.4888V24.9336H16.3619V26.4888H15.2878Z" fill="black"/>
<path d="M16.0341 26.4888V24.9336H17.5689V26.4888H16.0341Z" fill="black"/>
<path d="M17.3942 26.4888V24.9336H18.9291V26.4888H17.3942Z" fill="black"/>
<path d="M18.6006 26.4888V24.9336H19.2145V26.4888H18.6006Z" fill="black"/>
<path d="M19.0392 26.4888V24.9336H20.574V26.4888H19.0392Z" fill="black"/>
<path d="M20.3994 26.4888V24.9336H21.9342V26.4888H20.3994Z" fill="black"/>
<path d="M21.7595 26.4888V24.9336H23.7552V26.4888H21.7595Z" fill="black"/>
<path d="M23.6567 26.4888V24.9336H25.1916V26.4888H23.6567Z" fill="black"/>
<path d="M25.0938 26.4888V24.9336H26.4749V26.4888H25.0938Z" fill="black"/>
<path d="M26.3002 26.4888V24.9336H26.9141V26.4888H26.3002Z" fill="black"/>
<path d="M6 29.4888V27.9336H7.38103V29.4888H6Z" fill="black"/>
<path d="M7.07277 29.4888V27.9336H8.14683V29.4888H7.07277Z" fill="black"/>
<path d="M7.97282 29.4888V27.9336H9.50768V29.4888H7.97282Z" fill="black"/>
<path d="M9.333 29.4888V27.9336H10.8679V29.4888H9.333Z" fill="black"/>
<path d="M10.6932 29.4888V27.9336H11.7672V29.4888H10.6932Z" fill="black"/>
<path d="M11.4394 29.4888V27.9336H12.8204V29.4888H11.4394Z" fill="black"/>
<path d="M12.608 29.4888V27.9336H13.2219V29.4888H12.608Z" fill="black"/>
<path d="M13.0466 29.4888V27.9336H14.4276V29.4888H13.0466Z" fill="black"/>
<path d="M14.2151 29.4888V27.9336H15.2892V29.4888H14.2151Z" fill="black"/>
<path d="M15.1152 29.4888V27.9336H16.1892V29.4888H15.1152Z" fill="black"/>
<path d="M15.8614 29.4888V27.9336H17.3963V29.4888H15.8614Z" fill="black"/>
<path d="M17.2216 29.4888V27.9336H18.7564V29.4888H17.2216Z" fill="black"/>
<path d="M18.5048 29.4888V27.9336H19.5789V29.4888H18.5048Z" fill="black"/>
<path d="M19.2511 29.4888V27.9336H20.3251V29.4888H19.2511Z" fill="black"/>
<path d="M20.305 29.4888V27.9336H21.5322V29.4888H20.305Z" fill="black"/>
<path d="M21.5113 29.4888V27.9336H22.8923V29.4888H21.5113Z" fill="black"/>
<path d="M22.7177 29.4888V27.9336H23.3316V29.4888H22.7177Z" fill="black"/>
<path d="M23.1562 29.4888V27.9336H24.2303V29.4888H23.1562Z" fill="black"/>
<path d="M24.2101 29.4888V27.9336H25.5912V29.4888H24.2101Z" fill="black"/>
<path d="M25.4165 29.4888V27.9336H26.0304V29.4888H25.4165Z" fill="black"/>
<path d="M25.8551 29.4888V27.9336H26.9291V29.4888H25.8551Z" fill="black"/>
<path d="M26.6013 29.4888V27.9336H28.1361V29.4888H26.6013Z" fill="black"/>
<path d="M27.9615 29.4888V27.9336H29.4963V29.4888H27.9615Z" fill="black"/>
<path d="M29.1678 29.4888V27.9336H29.7817V29.4888H29.1678Z" fill="black"/>
<path d="M6 32.4888V30.9336H7.68868V32.4888H6Z" fill="black"/>
<path d="M7.53289 32.4888V30.9336H9.06775V32.4888H7.53289Z" fill="black"/>
<path d="M8.75813 32.4888V30.9336H10.4468V32.4888H8.75813Z" fill="black"/>
<path d="M10.2721 32.4888V30.9336H11.9608V32.4888H10.2721Z" fill="black"/>
<path d="M11.7092 32.4888V30.9336H12.3232V32.4888H11.7092Z" fill="black"/>
<path d="M12.1478 32.4888V30.9336H13.6827V32.4888H12.1478Z" fill="black"/>
<path d="M13.5849 32.4888V30.9336H14.9659V32.4888H13.5849Z" fill="black"/>
<path d="M14.7912 32.4888V30.9336H16.3261V32.4888H14.7912Z" fill="black"/>
<path d="M16.0745 32.4888V30.9336H16.6884V32.4888H16.0745Z" fill="black"/>
<path d="M16.5131 32.4888V30.9336H17.8941V32.4888H16.5131Z" fill="black"/>
<path d="M17.7963 32.4888V30.9336H19.0236V32.4888H17.7963Z" fill="black"/>
<path d="M18.8489 32.4888V30.9336H20.8445V32.4888H18.8489Z" fill="black"/>
<path d="M20.7461 32.4888V30.9336H22.7417V32.4888H20.7461Z" fill="black"/>
<path d="M22.6433 32.4888V30.9336H23.7173V32.4888H22.6433Z" fill="black"/>
<path d="M23.5433 32.4888V30.9336H24.6174V32.4888H23.5433Z" fill="black"/>
<path d="M24.2896 32.4888V30.9336H24.9035V32.4888H24.2896Z" fill="black"/>
<path d="M24.7281 32.4888V30.9336H25.8022V32.4888H24.7281Z" fill="black"/>
<path d="M25.6282 32.4888V30.9336H26.8554V32.4888H25.6282Z" fill="black"/>
<path d="M26.6807 32.4888V30.9336H27.2947V32.4888H26.6807Z" fill="black"/>
<path d="M6 35.4888V33.9336H7.38103V35.4888H6Z" fill="black"/>
<path d="M7.28326 35.4888V33.9336H8.51047V35.4888H7.28326Z" fill="black"/>
<path d="M8.48961 35.4888V33.9336H9.87065V35.4888H8.48961Z" fill="black"/>
<path d="M9.69596 35.4888V33.9336H10.77V35.4888H9.69596Z" fill="black"/>
<path d="M10.4422 35.4888V33.9336H11.5163V35.4888H10.4422Z" fill="black"/>
<path d="M11.4961 35.4888V33.9336H12.8771V35.4888H11.4961Z" fill="black"/>
<path d="M12.7024 35.4888V33.9336H14.2373V35.4888H12.7024Z" fill="black"/>
<path d="M14.0626 35.4888V33.9336H15.5975V35.4888H14.0626Z" fill="black"/>
<path d="M15.2689 35.4888V33.9336H15.8829V35.4888H15.2689Z" fill="black"/>
<path d="M15.7075 35.4888V33.9336H16.9354V35.4888H15.7075Z" fill="black"/>
<path d="M16.6076 35.4888V33.9336H18.1424V35.4888H16.6076Z" fill="black"/>
<path d="M17.8908 35.4888V33.9336H19.2719V35.4888H17.8908Z" fill="black"/>
<path d="M19.0203 35.4888V33.9336H20.0944V35.4888H19.0203Z" fill="black"/>
<path d="M19.9203 35.4888V33.9336H20.9944V35.4888H19.9203Z" fill="black"/>
<path d="M20.8204 35.4888V33.9336H21.8945V35.4888H20.8204Z" fill="black"/>
<path d="M21.7204 35.4888V33.9336H22.7945V35.4888H21.7204Z" fill="black"/>
<path d="M22.4667 35.4888V33.9336H24.0015V35.4888H22.4667Z" fill="black"/>
<path d="M23.7499 35.4888V33.9336H24.824V35.4888H23.7499Z" fill="black"/>
<path d="M24.4962 35.4888V33.9336H25.5702V35.4888H24.4962Z" fill="black"/>
<path d="M25.5501 35.4888V33.9336H26.9311V35.4888H25.5501Z" fill="black"/>
<path d="M26.7564 35.4888V33.9336H28.2913V35.4888H26.7564Z" fill="black"/>
<path d="M28.1166 35.4888V33.9336H28.7305V35.4888H28.1166Z" fill="black"/>
<path d="M28.5552 35.4888V33.9336H29.6292V35.4888H28.5552Z" fill="black"/>
<path d="M29.3014 35.4888V33.9336H30.8362V35.4888H29.3014Z" fill="black"/>
<path d="M30.6616 35.4888V33.9336H32.1964V35.4888H30.6616Z" fill="black"/>
<path d="M31.8679 35.4888V33.9336H32.4819V35.4888H31.8679Z" fill="black"/>
<path d="M6.15382 38.4888V36.9336H7.53486V38.4888H6.15382Z" fill="black"/>
<path d="M7.28326 38.4888V36.9336H8.6643V38.4888H7.28326Z" fill="black"/>
<path d="M8.50985 38.4888V36.9336H9.73706V38.4888H8.50985Z" fill="black"/>
<path d="M9.56238 38.4888V36.9336H10.9434V38.4888H9.56238Z" fill="black"/>
<path d="M10.8456 38.4888V36.9336H11.9197V38.4888H10.8456Z" fill="black"/>
<path d="M11.7457 38.4888V36.9336H13.1267V38.4888H11.7457Z" fill="black"/>
<path d="M12.9143 38.4888V36.9336H13.9883V38.4888H12.9143Z" fill="black"/>
<path d="M13.9681 38.4888V36.9336H15.1954V38.4888H13.9681Z" fill="black"/>
<path d="M15.1745 38.4888V36.9336H16.5555V38.4888H15.1745Z" fill="black"/>
<path d="M16.3808 38.4888V36.9336H16.9948V38.4888H16.3808Z" fill="black"/>
<path d="M16.9733 38.4888V36.9336H18.2005V38.4888H16.9733Z" fill="black"/>
<path d="M18.0258 38.4888V36.9336H19.2537V38.4888H18.0258Z" fill="black"/>
<path d="M18.9258 38.4888V36.9336H19.5398V38.4888H18.9258Z" fill="black"/>
<path d="M6 41.4888V39.9336H7.53486V41.4888H6Z" fill="black"/>
<path d="M7.36017 41.4888V39.9336H8.89503V41.4888H7.36017Z" fill="black"/>
<path d="M8.72035 41.4888V39.9336H10.716V41.4888H8.72035Z" fill="black"/>
<path d="M10.6176 41.4888V39.9336H12.1524V41.4888H10.6176Z" fill="black"/>
<path d="M12.0546 41.4888V39.9336H13.4357V41.4888H12.0546Z" fill="black"/>
<path d="M13.261 41.4888V39.9336H14.3351V41.4888H13.261Z" fill="black"/>
<path d="M14.161 41.4888V39.9336H15.2351V41.4888H14.161Z" fill="black"/>
<path d="M14.9073 41.4888V39.9336H16.4421V41.4888H14.9073Z" fill="black"/>
<path d="M16.1905 41.4888V39.9336H17.5716V41.4888H16.1905Z" fill="black"/>
<path d="M17.2633 41.4888V39.9336H18.3374V41.4888H17.2633Z" fill="black"/>
<path d="M18.1634 41.4888V39.9336H19.6982V41.4888H18.1634Z" fill="black"/>
<path d="M19.6004 41.4888V39.9336H20.9815V41.4888H19.6004Z" fill="black"/>
<path d="M20.8068 41.4888V39.9336H21.4207V41.4888H20.8068Z" fill="black"/>
<path d="M21.2454 41.4888V39.9336H22.7802V41.4888H21.2454Z" fill="black"/>
<path d="M22.5286 41.4888V39.9336H23.6027V41.4888H22.5286Z" fill="black"/>
<path d="M23.4287 41.4888V39.9336H24.9636V41.4888H23.4287Z" fill="black"/>
<path d="M24.712 41.4888V39.9336H25.3259V41.4888H24.712Z" fill="black"/>
<path d="M25.1505 41.4888V39.9336H26.2246V41.4888H25.1505Z" fill="black"/>
<path d="M26.0506 41.4888V39.9336H27.2778V41.4888H26.0506Z" fill="black"/>
<path d="M27.1031 41.4888V39.9336H27.7171V41.4888H27.1031Z" fill="black"/>
<path d="M27.5417 41.4888V39.9336H28.6158V41.4888H27.5417Z" fill="black"/>
<path d="M28.2879 41.4888V39.9336H29.8228V41.4888H28.2879Z" fill="black"/>
<path d="M29.6481 41.4888V39.9336H31.183V41.4888H29.6481Z" fill="black"/>
<path d="M30.8545 41.4888V39.9336H31.4684V41.4888H30.8545Z" fill="black"/>
<path d="M6.15382 44.4888V42.9336H7.53486V44.4888H6.15382Z" fill="black"/>
<path d="M7.36017 44.4888V42.9336H8.89503V44.4888H7.36017Z" fill="black"/>
<path d="M8.56652 44.4888V42.9336H10.1014V44.4888H8.56652Z" fill="black"/>
<path d="M9.77288 44.4888V42.9336H11.3077V44.4888H9.77288Z" fill="black"/>
<path d="M11.0561 44.4888V42.9336H12.1302V44.4888H11.0561Z" fill="black"/>
<path d="M11.9562 44.4888V42.9336H13.491V44.4888H11.9562Z" fill="black"/>
<path d="M13.1625 44.4888V42.9336H14.5436V44.4888H13.1625Z" fill="black"/>
<path d="M14.3311 44.4888V42.9336H15.4052V44.4888H14.3311Z" fill="black"/>
<path d="M15.0773 44.4888V42.9336H15.6913V44.4888H15.0773Z" fill="black"/>
<path d="M15.5159 44.4888V42.9336H17.2046V44.4888H15.5159Z" fill="black"/>
<path d="M17.0488 44.4888V42.9336H18.276V44.4888H17.0488Z" fill="black"/>
<path d="M18.1013 44.4888V42.9336H19.4824V44.4888H18.1013Z" fill="black"/>
<path d="M19.1741 44.4888V42.9336H20.2482V44.4888H19.1741Z" fill="black"/>
<path d="M19.9203 44.4888V42.9336H21.4552V44.4888H19.9203Z" fill="black"/>
<path d="M21.2805 44.4888V42.9336H21.8945V44.4888H21.2805Z" fill="black"/>
<path d="M21.7191 44.4888V42.9336H23.4078V44.4888H21.7191Z" fill="black"/>
<path d="M23.31 44.4888V42.9336H24.5372V44.4888H23.31Z" fill="black"/>
<path d="M24.3625 44.4888V42.9336H25.7436V44.4888H24.3625Z" fill="black"/>
<path d="M25.4353 44.4888V42.9336H26.9702V44.4888H25.4353Z" fill="black"/>
<path d="M26.6417 44.4888V42.9336H28.1765V44.4888H26.6417Z" fill="black"/>
<path d="M28.0787 44.4888V42.9336H29.4598V44.4888H28.0787Z" fill="black"/>
<path d="M29.2851 44.4888V42.9336H30.6661V44.4888H29.2851Z" fill="black"/>
<path d="M30.4537 44.4888V42.9336H31.2208V44.4888H30.4537Z" fill="black"/>
<path d="M30.9692 44.4888V42.9336H31.5831V44.4888H30.9692Z" fill="black"/>
<path d="M6.15382 47.4888V45.9336H8.30262V47.4888H6.15382Z" fill="black"/>
<path d="M8.08881 47.4888V45.9336H9.62367V47.4888H8.08881Z" fill="black"/>
<path d="M9.29516 47.4888V45.9336H9.9091V47.4888H9.29516Z" fill="black"/>
<path d="M9.73374 47.4888V45.9336H11.2686V47.4888H9.73374Z" fill="black"/>
<path d="M11.017 47.4888V45.9336H12.0911V47.4888H11.017Z" fill="black"/>
<path d="M11.9171 47.4888V45.9336H13.2981V47.4888H11.9171Z" fill="black"/>
<path d="M13.2395 47.4888V45.9336H14.4667V47.4888H13.2395Z" fill="black"/>
<path d="M14.292 47.4888V45.9336H14.9059V47.4888H14.292Z" fill="black"/>
<path d="M14.7306 47.4888V45.9336H16.1116V47.4888H14.7306Z" fill="black"/>
<path d="M15.8991 47.4888V45.9336H17.434V47.4888H15.8991Z" fill="black"/>
<path d="M17.2593 47.4888V45.9336H18.7942V47.4888H17.2593Z" fill="black"/>
<path d="M18.5426 47.4888V45.9336H19.9236V47.4888H18.5426Z" fill="black"/>
<path d="M19.6153 47.4888V45.9336H21.1502V47.4888H19.6153Z" fill="black"/>
<path d="M20.8217 47.4888V45.9336H21.4356V47.4888H20.8217Z" fill="black"/>
<path d="M21.4141 47.4888V45.9336H22.6413V47.4888H21.4141Z" fill="black"/>
<path d="M22.4666 47.4888V45.9336H24.0015V47.4888H22.4666Z" fill="black"/>
<path d="M23.8268 47.4888V45.9336H25.2078V47.4888H23.8268Z" fill="black"/>
<path d="M24.8996 47.4888V45.9336H25.5135V47.4888H24.8996Z" fill="black"/>
<path d="M6 50.4888V48.9336H8.1488V50.4888H6Z" fill="black"/>
<path d="M7.89721 50.4888V48.9336H8.97127V50.4888H7.89721Z" fill="black"/>
<path d="M8.79726 50.4888V48.9336H9.87132V50.4888H8.79726Z" fill="black"/>
<path d="M9.69731 50.4888V48.9336H10.7714V50.4888H9.69731Z" fill="black"/>
<path d="M10.5974 50.4888V48.9336H11.6714V50.4888H10.5974Z" fill="black"/>
<path d="M11.6512 50.4888V48.9336H13.0323V50.4888H11.6512Z" fill="black"/>
<path d="M12.8576 50.4888V48.9336H14.3925V50.4888H12.8576Z" fill="black"/>
<path d="M14.3716 50.4888V48.9336H15.7526V50.4888H14.3716Z" fill="black"/>
<path d="M15.5779 50.4888V48.9336H17.1128V50.4888H15.5779Z" fill="black"/>
<path d="M16.7843 50.4888V48.9336H18.1653V50.4888H16.7843Z" fill="black"/>
<path d="M17.9529 50.4888V48.9336H19.3339V50.4888H17.9529Z" fill="black"/>
<path d="M19.1214 50.4888V48.9336H19.7354V50.4888H19.1214Z" fill="black"/>
<path d="M19.56 50.4888V48.9336H20.6341V50.4888H19.56Z" fill="black"/>
<path d="M20.4601 50.4888V48.9336H21.6873V50.4888H20.4601Z" fill="black"/>
<path d="M21.5126 50.4888V48.9336H22.1265V50.4888H21.5126Z" fill="black"/>
<path d="M21.9512 50.4888V48.9336H23.486V50.4888H21.9512Z" fill="black"/>
<path d="M23.3114 50.4888V48.9336H24.8462V50.4888H23.3114Z" fill="black"/>
<path d="M24.5177 50.4888V48.9336H25.5918V50.4888H24.5177Z" fill="black"/>
<path d="M25.5716 50.4888V48.9336H26.9526V50.4888H25.5716Z" fill="black"/>
<path d="M26.701 50.4888V48.9336H27.315V50.4888H26.701Z" fill="black"/>
<path d="M6 53.4888V51.9336H7.22789V53.4888H6Z" fill="black"/>
<path d="M6.90005 53.4888V51.9336H8.43491V53.4888H6.90005Z" fill="black"/>
<path d="M8.18332 53.4888V51.9336H9.56435V53.4888H8.18332Z" fill="black"/>
<path d="M9.31276 53.4888V51.9336H10.3868V53.4888H9.31276Z" fill="black"/>
<path d="M10.2128 53.4888V51.9336H11.2869V53.4888H10.2128Z" fill="black"/>
<path d="M11.1129 53.4888V51.9336H12.1869V53.4888H11.1129Z" fill="black"/>
<path d="M12.0129 53.4888V51.9336H13.087V53.4888H12.0129Z" fill="black"/>
<path d="M12.7591 53.4888V51.9336H14.294V53.4888H12.7591Z" fill="black"/>
<path d="M14.0424 53.4888V51.9336H15.1165V53.4888H14.0424Z" fill="black"/>
<path d="M14.7886 53.4888V51.9336H16.3235V53.4888H14.7886Z" fill="black"/>
<path d="M15.995 53.4888V51.9336H16.6089V53.4888H15.995Z" fill="black"/>
<path d="M16.4336 53.4888V51.9336H17.5076V53.4888H16.4336Z" fill="black"/>
<path d="M17.1798 53.4888V51.9336H18.7147V53.4888H17.1798Z" fill="black"/>
<path d="M18.54 53.4888V51.9336H20.0748V53.4888H18.54Z" fill="black"/>
<path d="M19.7463 53.4888V51.9336H20.3603V53.4888H19.7463Z" fill="black"/>
<path d="M20.1849 53.4888V51.9336H21.566V53.4888H20.1849Z" fill="black"/>
<path d="M21.2577 53.4888V51.9336H22.7925V53.4888H21.2577Z" fill="black"/>
<path d="M22.464 53.4888V51.9336H23.9989V53.4888H22.464Z" fill="black"/>
<path d="M23.978 53.4888V51.9336H25.3591V53.4888H23.978Z" fill="black"/>
<path d="M25.1844 53.4888V51.9336H26.2584V53.4888H25.1844Z" fill="black"/>
<path d="M26.2383 53.4888V51.9336H27.4655V53.4888H26.2383Z" fill="black"/>
<path d="M27.4446 53.4888V51.9336H28.8256V53.4888H27.4446Z" fill="black"/>
<path d="M28.651 53.4888V51.9336H29.2649V53.4888H28.651Z" fill="black"/>
<path d="M29.2434 53.4888V51.9336H30.4706V53.4888H29.2434Z" fill="black"/>
<path d="M30.2959 53.4888V51.9336H31.5238V53.4888H30.2959Z" fill="black"/>
<path d="M31.196 53.4888V51.9336H31.8099V53.4888H31.196Z" fill="black"/>
<path d="M6 56.4888V54.9336H7.38103V56.4888H6Z" fill="black"/>
<path d="M7.16857 56.4888V54.9336H8.70343V56.4888H7.16857Z" fill="black"/>
<path d="M8.52874 56.4888V54.9336H9.90978V56.4888H8.52874Z" fill="black"/>
<path d="M9.65818 56.4888V54.9336H11.193V56.4888H9.65818Z" fill="black"/>
<path d="M10.9414 56.4888V54.9336H12.3225V56.4888H10.9414Z" fill="black"/>
<path d="M11.9764 56.4888V54.9336H13.5113V56.4888H11.9764Z" fill="black"/>
<path d="M13.2597 56.4888V54.9336H14.3338V56.4888H13.2597Z" fill="black"/>
<path d="M14.0059 56.4888V54.9336H15.5408V56.4888H14.0059Z" fill="black"/>
<path d="M15.2123 56.4888V54.9336H16.7471V56.4888H15.2123Z" fill="black"/>
<path d="M16.4955 56.4888V54.9336H17.1095V56.4888H16.4955Z" fill="black"/>
<path d="M16.9341 56.4888V54.9336H18.162V56.4888H16.9341Z" fill="black"/>
<path d="M17.8342 56.4888V54.9336H19.369V56.4888H17.8342Z" fill="black"/>
<path d="M19.1174 56.4888V54.9336H21.1131V56.4888H19.1174Z" fill="black"/>
<path d="M21.0146 56.4888V54.9336H22.0887V56.4888H21.0146Z" fill="black"/>
<path d="M21.9147 56.4888V54.9336H22.9888V56.4888H21.9147Z" fill="black"/>
<path d="M22.8148 56.4888V54.9336H23.8888V56.4888H22.8148Z" fill="black"/>
<path d="M23.7148 56.4888V54.9336H25.2497V56.4888H23.7148Z" fill="black"/>
<path d="M24.9212 56.4888V54.9336H26.3022V56.4888H24.9212Z" fill="black"/>
<path d="M26.0897 56.4888V54.9336H26.7037V56.4888H26.0897Z" fill="black"/>
<path d="M26.6821 56.4888V54.9336H27.9093V56.4888H26.6821Z" fill="black"/>
<path d="M27.7347 56.4888V54.9336H28.9625V56.4888H27.7347Z" fill="black"/>
<path d="M28.6347 56.4888V54.9336H29.2487V56.4888H28.6347Z" fill="black"/>
<path d="M29.0733 56.4888V54.9336H30.1474V56.4888H29.0733Z" fill="black"/>
<path d="M29.8195 56.4888V54.9336H31.3544V56.4888H29.8195Z" fill="black"/>
<path d="M31.1797 56.4888V54.9336H32.7146V56.4888H31.1797Z" fill="black"/>
<path d="M32.3861 56.4888V54.9336H33V56.4888H32.3861Z" fill="black"/>
<path d="M6 59.4888V57.9336H7.07406V59.4888H6Z" fill="black"/>
<path d="M6.74623 59.4888V57.9336H8.89503V59.4888H6.74623Z" fill="black"/>
<path d="M8.79726 59.4888V57.9336H10.0245V59.4888H8.79726Z" fill="black"/>
<path d="M9.84979 59.4888V57.9336H10.4637V59.4888H9.84979Z" fill="black"/>
<path d="M10.2884 59.4888V57.9336H11.9771V59.4888H10.2884Z" fill="black"/>
<path d="M11.8793 59.4888V57.9336H13.1065V59.4888H11.8793Z" fill="black"/>
<path d="M12.9318 59.4888V57.9336H14.3128V59.4888H12.9318Z" fill="black"/>
<path d="M14.0046 59.4888V57.9336H15.5394V59.4888H14.0046Z" fill="black"/>
<path d="M15.2109 59.4888V57.9336H16.7458V59.4888H15.2109Z" fill="black"/>
<path d="M16.4942 59.4888V57.9336H17.8752V59.4888H16.4942Z" fill="black"/>
<path d="M17.6628 59.4888V57.9336H18.4298V59.4888H17.6628Z" fill="black"/>
<path d="M18.1783 59.4888V57.9336H18.7922V59.4888H18.1783Z" fill="black"/>
<path d="M18.7707 59.4888V57.9336H20.9195V59.4888H18.7707Z" fill="black"/>
<path d="M20.7056 59.4888V57.9336H22.2405V59.4888H20.7056Z" fill="black"/>
<path d="M21.912 59.4888V57.9336H22.5259V59.4888H21.912Z" fill="black"/>
<path d="M22.3506 59.4888V57.9336H23.8854V59.4888H22.3506Z" fill="black"/>
<path d="M23.6338 59.4888V57.9336H24.7079V59.4888H23.6338Z" fill="black"/>
<path d="M24.5339 59.4888V57.9336H25.9149V59.4888H24.5339Z" fill="black"/>
<path d="M25.8563 59.4888V57.9336H27.0835V59.4888H25.8563Z" fill="black"/>
<path d="M26.9088 59.4888V57.9336H27.5228V59.4888H26.9088Z" fill="black"/>
<path d="M6 62.4888V60.9336H7.53486V62.4888H6Z" fill="black"/>
<path d="M7.28326 62.4888V60.9336H8.81812V62.4888H7.28326Z" fill="black"/>
<path d="M8.64344 62.4888V60.9336H10.0245V62.4888H8.64344Z" fill="black"/>
<path d="M9.7162 62.4888V60.9336H11.2511V62.4888H9.7162Z" fill="black"/>
<path d="M10.9226 62.4888V60.9336H12.4574V62.4888H10.9226Z" fill="black"/>
<path d="M12.1289 62.4888V60.9336H12.7428V62.4888H12.1289Z" fill="black"/>
<path d="M12.5675 62.4888V60.9336H13.6416V62.4888H12.5675Z" fill="black"/>
<path d="M13.4675 62.4888V60.9336H14.6948V62.4888H13.4675Z" fill="black"/>
<path d="M14.5201 62.4888V60.9336H15.134V62.4888H14.5201Z" fill="black"/>
<path d="M14.9587 62.4888V60.9336H16.3397V62.4888H14.9587Z" fill="black"/>
<path d="M16.2419 62.4888V60.9336H17.4691V62.4888H16.2419Z" fill="black"/>
<path d="M17.4483 62.4888V60.9336H18.6755V62.4888H17.4483Z" fill="black"/>
<path d="M18.5008 62.4888V60.9336H19.8818V62.4888H18.5008Z" fill="black"/>
<path d="M19.5736 62.4888V60.9336H21.1084V62.4888H19.5736Z" fill="black"/>
<path d="M20.8568 62.4888V60.9336H21.9309V62.4888H20.8568Z" fill="black"/>
<path d="M21.9107 62.4888V60.9336H23.2917V62.4888H21.9107Z" fill="black"/>
<path d="M23.1171 62.4888V60.9336H24.6519V62.4888H23.1171Z" fill="black"/>
<path d="M24.4003 62.4888V60.9336H25.4744V62.4888H24.4003Z" fill="black"/>
<path d="M25.1465 62.4888V60.9336H26.6814V62.4888H25.1465Z" fill="black"/>
<path d="M26.3529 62.4888V60.9336H26.9668V62.4888H26.3529Z" fill="black"/>
<path d="M26.9453 62.4888V60.9336H28.1725V62.4888H26.9453Z" fill="black"/>
<path d="M27.9978 62.4888V60.9336H29.5327V62.4888H27.9978Z" fill="black"/>
<path d="M29.358 62.4888V60.9336H30.739V62.4888H29.358Z" fill="black"/>
<path d="M30.4308 62.4888V60.9336H31.0447V62.4888H30.4308Z" fill="black"/>
<path d="M6 65.4888V63.9336H7.53486V65.4888H6Z" fill="black"/>
<path d="M7.43709 65.4888V63.9336H8.81812V65.4888H7.43709Z" fill="black"/>
<path d="M8.72035 65.4888V63.9336H10.1014V65.4888H8.72035Z" fill="black"/>
<path d="M9.84979 65.4888V63.9336H11.2308V65.4888H9.84979Z" fill="black"/>
<path d="M11.0764 65.4888V63.9336H12.3036V65.4888H11.0764Z" fill="black"/>
<path d="M12.1289 65.4888V63.9336H13.6638V65.4888H12.1289Z" fill="black"/>
<path d="M13.4122 65.4888V63.9336H14.7932V65.4888H13.4122Z" fill="black"/>
<path d="M14.5416 65.4888V63.9336H16.0765V65.4888H14.5416Z" fill="black"/>
<path d="M15.9018 65.4888V63.9336H17.4366V65.4888H15.9018Z" fill="black"/>
<path d="M17.1081 65.4888V63.9336H18.4892V65.4888H17.1081Z" fill="black"/>
<path d="M18.2767 65.4888V63.9336H18.8906V65.4888H18.2767Z" fill="black"/>
<path d="M18.7153 65.4888V63.9336H19.7893V65.4888H18.7153Z" fill="black"/>
<path d="M19.6153 65.4888V63.9336H20.8426V65.4888H19.6153Z" fill="black"/>
<path d="M20.6679 65.4888V63.9336H21.2818V65.4888H20.6679Z" fill="black"/>
<path d="M21.1065 65.4888V63.9336H22.1805V65.4888H21.1065Z" fill="black"/>
<path d="M21.8527 65.4888V63.9336H23.3875V65.4888H21.8527Z" fill="black"/>
<path d="M23.2129 65.4888V63.9336H24.7477V65.4888H23.2129Z" fill="black"/>
<path d="M24.4192 65.4888V63.9336H25.0332V65.4888H24.4192Z" fill="black"/>
<path d="M24.8578 65.4888V63.9336H26.5465V65.4888H24.8578Z" fill="black"/>
<path d="M26.3907 65.4888V63.9336H27.9255V65.4888H26.3907Z" fill="black"/>
<path d="M27.6159 65.4888V63.9336H29.3046V65.4888H27.6159Z" fill="black"/>
<path d="M29.1299 65.4888V63.9336H30.8186V65.4888H29.1299Z" fill="black"/>
<path d="M30.567 65.4888V63.9336H31.1809V65.4888H30.567Z" fill="black"/>
<path d="M6 68.4888V66.9336H7.07406V68.4888H6Z" fill="black"/>
<path d="M7.05388 68.4888V66.9336H8.43491V68.4888H7.05388Z" fill="black"/>
<path d="M8.26023 68.4888V66.9336H8.87417V68.4888H8.26023Z" fill="black"/>
<path d="M8.69881 68.4888V66.9336H9.77288V68.4888H8.69881Z" fill="black"/>
<path d="M9.75269 68.4888V66.9336H10.9799V68.4888H9.75269Z" fill="black"/>
<path d="M10.8052 68.4888V66.9336H12.1863V68.4888H10.8052Z" fill="black"/>
<path d="M11.9347 68.4888V66.9336H13.4695V68.4888H11.9347Z" fill="black"/>
<path d="M13.257 68.4888V66.9336H14.6381V68.4888H13.257Z" fill="black"/>
<path d="M14.4256 68.4888V66.9336H15.4997V68.4888H14.4256Z" fill="black"/>
<path d="M15.1718 68.4888V66.9336H16.7067V68.4888H15.1718Z" fill="black"/>
<path d="M16.532 68.4888V66.9336H17.9131V68.4888H16.532Z" fill="black"/>
<path d="M17.6615 68.4888V66.9336H18.4286V68.4888H17.6615Z" fill="black"/>
<path d="M6.30697 8.38418H28.7865V8.45391H6.30697V8.38418ZM6.30697 11.3842H29.4969V11.4539H6.30697V11.3842ZM6.30697 14.3842H23.3687V14.4539H6.30697V14.3842ZM6.30697 17.3842H30.2627V17.4539H6.30697V17.3842ZM6.30697 20.3842H27.4843V20.4539H6.30697V20.3842ZM6.30697 23.3842H32.4987V23.4539H6.30697V23.3842ZM6.30697 26.3842H26.6071V26.4539H6.30697V26.3842ZM6.30697 29.3842H29.4748V29.4539H6.30697V29.3842ZM6.30697 32.3842H26.9877V32.4539H6.30697V32.3842ZM6.30697 35.3842H32.1749V35.4539H6.30697V35.3842ZM6.30697 38.3842H19.2321V38.4539H6.30697V38.3842ZM6.30697 41.3842H31.1614V41.4539H6.30697V41.3842ZM6.30697 44.3842H31.2761V44.4539H6.30697V44.3842ZM6.30697 47.3842H25.2059V47.4539H6.30697V47.3842ZM6.30697 50.3842H27.008V50.4539H6.30697V50.3842ZM6.30697 53.3842H31.5022V53.4539H6.30697V53.3842ZM6.30697 56.3842H32.693V56.4539H6.30697V56.3842ZM6.30697 59.3842H27.2158V59.4539H6.30697V59.3842ZM6.30697 62.3842H30.7371V62.4539H6.30697V62.3842ZM6.30697 65.3842H30.8733V65.4539H6.30697V65.3842ZM6.30697 68.3842H18.5392V68.4539H6.30697V68.3842Z" fill="black"/>
</g>
</g>
<path d="M11.3333 79.4883H2V85.8364H11.3333V79.4883Z" fill="#BB90BB"/>
</g>
<defs>
<filter id="filter0_d_39_124700" x="0" y="1.93359" width="39" height="75.5547" filterUnits="userSpaceOnUse" color-interpolation-filters="sRGB">
<feFlood flood-opacity="0" result="BackgroundImageFix"/>
<feColorMatrix in="SourceAlpha" type="matrix" values="0 0 0 0 0 0 0 0 0 0 0 0 0 0 0 0 0 0 127 0" result="hardAlpha"/>
<feOffset dy="1"/>
<feGaussianBlur stdDeviation="1"/>
<feComposite in2="hardAlpha" operator="out"/>
<feColorMatrix type="matrix" values="0 0 0 0 0 0 0 0 0 0 0 0 0 0 0 0 0 0 0.1 0"/>
<feBlend mode="normal" in2="BackgroundImageFix" result="effect1_dropShadow_39_124700"/>
<feBlend mode="normal" in="SourceGraphic" in2="effect1_dropShadow_39_124700" result="shape"/>
</filter>
<clipPath id="clip0_39_124700">
<rect width="39" height="86.9033" fill="white" transform="translate(0 0.933594)"/>
</clipPath>
</defs>
</svg>
