<svg width="39" height="46" viewBox="0 0 39 46" fill="none" xmlns="http://www.w3.org/2000/svg">
<rect width="39" height="46" fill=""/>
<g clip-path="url(#clip0_39_124700)">
<g filter="url(#filter0_d_39_124700)">
<rect width="35" height="29.5552" transform="translate(2 2.74023)" fill="white"/>
<g opacity="0.3">
<rect width="35" height="27.5552" transform="translate(2 2.74023)" fill="white"/>
<path d="M6 8.29541V6.74023H6.78214V8.29541H6Z" fill="black"/>
<path d="M6.60403 8.29541V6.74023H8.169V8.29541H6.60403Z" fill="black"/>
<path d="M7.99089 8.29541V6.74023H9.55586V8.29541H7.99089Z" fill="black"/>
<path d="M9.37775 8.29541V6.74023H10.9427V8.29541H9.37775Z" fill="black"/>
<path d="M10.6078 8.29541V6.74023H11.2338V8.29541H10.6078Z" fill="black"/>
<path d="M11.055 8.29541V6.74023H12.7768V8.29541H11.055Z" fill="black"/>
<path d="M12.6372 8.29541V6.74023H14.0453V8.29541H12.6372Z" fill="black"/>
<path d="M13.8672 8.29541V6.74023H14.9623V8.29541H13.8672Z" fill="black"/>
<path d="M14.7849 8.29541V6.74023H15.8801V8.29541H14.7849Z" fill="black"/>
<path d="M15.5458 8.29541V6.74023H17.1108V8.29541H15.5458Z" fill="black"/>
<path d="M16.7758 8.29541V6.74023H18.3408V8.29541H16.7758Z" fill="black"/>
<path d="M18.0842 8.29541V6.74023H18.7102V8.29541H18.0842Z" fill="black"/>
<path d="M18.5314 8.29541V6.74023H19.9396V8.29541H18.5314Z" fill="black"/>
<path d="M19.8399 8.29541V6.74023H20.935V8.29541H19.8399Z" fill="black"/>
<path d="M20.6007 8.29541V6.74023H22.1657V8.29541H20.6007Z" fill="black"/>
<path d="M21.9092 8.29541V6.74023H23.0043V8.29541H21.9092Z" fill="black"/>
<path d="M22.6701 8.29541V6.74023H24.235V8.29541H22.6701Z" fill="black"/>
<path d="M23.9001 8.29541V6.74023H25.3082V8.29541H23.9001Z" fill="black"/>
<path d="M25.0916 8.29541V6.74023H25.7176V8.29541H25.0916Z" fill="black"/>
<path d="M25.5388 8.29541V6.74023H27.1037V8.29541H25.5388Z" fill="black"/>
<path d="M27.004 8.29541V6.74023H28.2553V8.29541H27.004Z" fill="black"/>
<path d="M28.0772 8.29541V6.74023H29.6422V8.29541H28.0772Z" fill="black"/>
<path d="M29.3072 8.29541V6.74023H30.7154V8.29541H29.3072Z" fill="black"/>
<path d="M30.4987 8.29541V6.74023H31.1247V8.29541H30.4987Z" fill="black"/>
<path d="M6.15684 11.2954V9.74023H7.56497V11.2954H6.15684Z" fill="black"/>
<path d="M7.5437 11.2954V9.74023H8.79499V11.2954H7.5437Z" fill="black"/>
<path d="M8.61688 11.2954V9.74023H9.71202V11.2954H8.61688Z" fill="black"/>
<path d="M9.37775 11.2954V9.74023H10.0037V11.2954H9.37775Z" fill="black"/>
<path d="M9.82494 11.2954V9.74023H11.3899V11.2954H9.82494Z" fill="black"/>
<path d="M11.2118 11.2954V9.74023H12.7768V11.2954H11.2118Z" fill="black"/>
<path d="M12.4418 11.2954V9.74023H13.85V11.2954H12.4418Z" fill="black"/>
<path d="M13.7503 11.2954V9.74023H15.3152V11.2954H13.7503Z" fill="black"/>
<path d="M14.9803 11.2954V9.74023H15.6063V11.2954H14.9803Z" fill="black"/>
<path d="M15.4275 11.2954V9.74023H16.9924V11.2954H15.4275Z" fill="black"/>
<path d="M16.9712 11.2954V9.74023H18.2225V11.2954H16.9712Z" fill="black"/>
<path d="M18.0443 11.2954V9.74023H19.4525V11.2954H18.0443Z" fill="black"/>
<path d="M19.2358 11.2954V9.74023H20.331V11.2954H19.2358Z" fill="black"/>
<path d="M19.9967 11.2954V9.74023H21.0919V11.2954H19.9967Z" fill="black"/>
<path d="M20.9144 11.2954V9.74023H22.0096V11.2954H20.9144Z" fill="black"/>
<path d="M21.8321 11.2954V9.74023H23.3971V11.2954H21.8321Z" fill="black"/>
<path d="M23.0622 11.2954V9.74023H23.6882V11.2954H23.0622Z" fill="black"/>
<path d="M23.5094 11.2954V9.74023H24.6045V11.2954H23.5094Z" fill="black"/>
<path d="M24.5839 11.2954V9.74023H25.992V11.2954H24.5839Z" fill="black"/>
<path d="M25.8139 11.2954V9.74023H26.9091V11.2954H25.8139Z" fill="black"/>
<path d="M26.5748 11.2954V9.74023H28.1398V11.2954H26.5748Z" fill="black"/>
<path d="M27.9617 11.2954V9.74023H29.3698V11.2954H27.9617Z" fill="black"/>
<path d="M29.1917 11.2954V9.74023H30.2868V11.2954H29.1917Z" fill="black"/>
<path d="M29.9525 11.2954V9.74023H30.5785V11.2954H29.9525Z" fill="black"/>
<path d="M6 14.2954V12.7402H7.09514V14.2954H6Z" fill="black"/>
<path d="M6.91771 14.2954V12.7402H8.169V14.2954H6.91771Z" fill="black"/>
<path d="M7.99089 14.2954V12.7402H10.1819V14.2954H7.99089Z" fill="black"/>
<path d="M9.8469 14.2954V12.7402H11.4119V14.2954H9.8469Z" fill="black"/>
<path d="M11.1553 14.2954V12.7402H12.5635V14.2954H11.1553Z" fill="black"/>
<path d="M12.2492 14.2954V12.7402H13.8141V14.2954H12.2492Z" fill="black"/>
<path d="M13.5576 14.2954V12.7402H14.1836V14.2954H13.5576Z" fill="black"/>
<path d="M14.0048 14.2954V12.7402H15.7266V14.2954H14.0048Z" fill="black"/>
<path d="M15.5677 14.2954V12.7402H17.1327V14.2954H15.5677Z" fill="black"/>
<path d="M16.817 14.2954V12.7402H18.5388V14.2954H16.817Z" fill="black"/>
<path d="M18.3607 14.2954V12.7402H20.0825V14.2954H18.3607Z" fill="black"/>
<path d="M19.826 14.2954V12.7402H20.6082V14.2954H19.826Z" fill="black"/>
<path d="M20.3516 14.2954V12.7402H21.1338V14.2954H20.3516Z" fill="black"/>
<path d="M20.8772 14.2954V12.7402H21.6594V14.2954H20.8772Z" fill="black"/>
<path d="M21.4028 14.2954V12.7402H22.6548V14.2954H21.4028Z" fill="black"/>
<path d="M22.476 14.2954V12.7402H23.102V14.2954H22.476Z" fill="black"/>
<path d="M22.9232 14.2954V12.7402H24.3313V14.2954H22.9232Z" fill="black"/>
<path d="M24.2316 14.2954V12.7402H25.4829V14.2954H24.2316Z" fill="black"/>
<path d="M25.4617 14.2954V12.7402H26.8698V14.2954H25.4617Z" fill="black"/>
<path d="M26.6917 14.2954V12.7402H27.7868V14.2954H26.6917Z" fill="black"/>
<path d="M27.4526 14.2954V12.7402H28.5477V14.2954H27.4526Z" fill="black"/>
<path d="M28.5271 14.2954V12.7402H29.9352V14.2954H28.5271Z" fill="black"/>
<path d="M29.7571 14.2954V12.7402H31.3221V14.2954H29.7571Z" fill="black"/>
<path d="M31.144 14.2954V12.7402H32.709V14.2954H31.144Z" fill="black"/>
<path d="M32.374 14.2954V12.7402H33V14.2954H32.374Z" fill="black"/>
<path d="M6 17.2954V15.7402H7.09514V17.2954H6Z" fill="black"/>
<path d="M6.91771 17.2954V15.7402H8.169V17.2954H6.91771Z" fill="black"/>
<path d="M7.99089 17.2954V15.7402H8.61688V17.2954H7.99089Z" fill="black"/>
<path d="M8.43808 17.2954V15.7402H9.84621V17.2954H8.43808Z" fill="black"/>
<path d="M9.62958 17.2954V15.7402H10.7247V17.2954H9.62958Z" fill="black"/>
<path d="M10.3904 17.2954V15.7402H11.9554V17.2954H10.3904Z" fill="black"/>
<path d="M11.8557 17.2954V15.7402H13.2639V17.2954H11.8557Z" fill="black"/>
<path d="M13.0857 17.2954V15.7402H14.6507V17.2954H13.0857Z" fill="black"/>
<path d="M14.3942 17.2954V15.7402H15.0202V17.2954H14.3942Z" fill="black"/>
<path d="M14.8414 17.2954V15.7402H16.2495V17.2954H14.8414Z" fill="black"/>
<path d="M15.9352 17.2954V15.7402H17.5002V17.2954H15.9352Z" fill="black"/>
<path d="M17.1652 17.2954V15.7402H18.7302V17.2954H17.1652Z" fill="black"/>
<path d="M18.4737 17.2954V15.7402H20.0386V17.2954H18.4737Z" fill="black"/>
<path d="M19.8605 17.2954V15.7402H21.2686V17.2954H19.8605Z" fill="black"/>
<path d="M21.0121 17.2954V15.7402H21.6381V17.2954H21.0121Z" fill="black"/>
<path d="M21.4593 17.2954V15.7402H22.5544V17.2954H21.4593Z" fill="black"/>
<path d="M22.377 17.2954V15.7402H23.6283V17.2954H22.377Z" fill="black"/>
<path d="M23.4502 17.2954V15.7402H24.0762V17.2954H23.4502Z" fill="black"/>
<path d="M23.8974 17.2954V15.7402H25.9322V17.2954H23.8974Z" fill="black"/>
<path d="M25.8318 17.2954V15.7402H27.3968V17.2954H25.8318Z" fill="black"/>
<path d="M27.0618 17.2954V15.7402H28.6268V17.2954H27.0618Z" fill="black"/>
<path d="M28.2918 17.2954V15.7402H29.387V17.2954H28.2918Z" fill="black"/>
<path d="M29.0527 17.2954V15.7402H29.6787V17.2954H29.0527Z" fill="black"/>
<path d="M6 20.2954V18.7402H8.19096V20.2954H6Z" fill="black"/>
<path d="M7.93443 20.2954V18.7402H9.02956V20.2954H7.93443Z" fill="black"/>
<path d="M8.85214 20.2954V18.7402H9.94728V20.2954H8.85214Z" fill="black"/>
<path d="M9.61301 20.2954V18.7402H11.178V20.2954H9.61301Z" fill="black"/>
<path d="M10.9999 20.2954V18.7402H11.6259V20.2954H10.9999Z" fill="black"/>
<path d="M11.4471 20.2954V18.7402H13.4819V20.2954H11.4471Z" fill="black"/>
<path d="M13.4599 20.2954V18.7402H14.868V20.2954H13.4599Z" fill="black"/>
<path d="M14.6115 20.2954V18.7402H15.2375V20.2954H14.6115Z" fill="black"/>
<path d="M15.0587 20.2954V18.7402H16.7805V20.2954H15.0587Z" fill="black"/>
<path d="M16.6217 20.2954V18.7402H17.873V20.2954H16.6217Z" fill="black"/>
<path d="M17.6948 20.2954V18.7402H19.103V20.2954H17.6948Z" fill="black"/>
<path d="M18.7887 20.2954V18.7402H19.8838V20.2954H18.7887Z" fill="black"/>
<path d="M19.5495 20.2954V18.7402H21.1145V20.2954H19.5495Z" fill="black"/>
<path d="M20.9364 20.2954V18.7402H21.5624V20.2954H20.9364Z" fill="black"/>
<path d="M21.3836 20.2954V18.7402H23.1054V20.2954H21.3836Z" fill="black"/>
<path d="M23.0057 20.2954V18.7402H24.257V20.2954H23.0057Z" fill="black"/>
<path d="M24.0789 20.2954V18.7402H25.487V20.2954H24.0789Z" fill="black"/>
<path d="M25.1727 20.2954V18.7402H26.7377V20.2954H25.1727Z" fill="black"/>
<path d="M26.4027 20.2954V18.7402H27.9677V20.2954H26.4027Z" fill="black"/>
<path d="M27.868 20.2954V18.7402H29.2761V20.2954H27.868Z" fill="black"/>
<path d="M29.098 20.2954V18.7402H29.724V20.2954H29.098Z" fill="black"/>
<path d="M6 23.2954V21.7402H7.40813V23.2954H6Z" fill="black"/>
<path d="M7.30844 23.2954V21.7402H8.55973V23.2954H7.30844Z" fill="black"/>
<path d="M8.38162 23.2954V21.7402H9.94659V23.2954H8.38162Z" fill="black"/>
<path d="M9.92532 23.2954V21.7402H11.3334V23.2954H9.92532Z" fill="black"/>
<path d="M11.1553 23.2954V21.7402H12.2505V23.2954H11.1553Z" fill="black"/>
<path d="M11.9162 23.2954V21.7402H13.4812V23.2954H11.9162Z" fill="black"/>
<path d="M13.1462 23.2954V21.7402H14.5544V23.2954H13.1462Z" fill="black"/>
<path d="M14.3969 23.2954V21.7402H15.805V23.2954H14.3969Z" fill="black"/>
<path d="M15.5485 23.2954V21.7402H17.1135V23.2954H15.5485Z" fill="black"/>
<path d="M16.8569 23.2954V21.7402H18.2651V23.2954H16.8569Z" fill="black"/>
<path d="M17.9507 23.2954V21.7402H19.0459V23.2954H17.9507Z" fill="black"/>
<path d="M18.7116 23.2954V21.7402H20.1197V23.2954H18.7116Z" fill="black"/>
<path d="M19.9031 23.2954V21.7402H20.5291V23.2954H19.9031Z" fill="black"/>
<path d="M20.3503 23.2954V21.7402H21.9153V23.2954H20.3503Z" fill="black"/>
<path d="M21.8156 23.2954V21.7402H23.2237V23.2954H21.8156Z" fill="black"/>
<path d="M23.124 23.2954V21.7402H24.5321V23.2954H23.124Z" fill="black"/>
<path d="M24.2756 23.2954V21.7402H26.4666V23.2954H24.2756Z" fill="black"/>
<path d="M26.21 23.2954V21.7402H27.775V23.2954H26.21Z" fill="black"/>
<path d="M27.5969 23.2954V21.7402H29.1619V23.2954H27.5969Z" fill="black"/>
<path d="M28.8269 23.2954V21.7402H30.2351V23.2954H28.8269Z" fill="black"/>
<path d="M29.9207 23.2954V21.7402H31.4857V23.2954H29.9207Z" fill="black"/>
<path d="M31.1508 23.2954V21.7402H31.9329V23.2954H31.1508Z" fill="black"/>
<path d="M31.6764 23.2954V21.7402H32.3024V23.2954H31.6764Z" fill="black"/>
<path d="M6 26.2954V24.7402H7.56497V26.2954H6Z" fill="black"/>
<path d="M7.30844 26.2954V24.7402H8.40358V26.2954H7.30844Z" fill="black"/>
<path d="M8.06931 26.2954V24.7402H8.6953V26.2954H8.06931Z" fill="black"/>
<path d="M8.5165 26.2954V24.7402H10.0815V26.2954H8.5165Z" fill="black"/>
<path d="M9.98178 26.2954V24.7402H11.3899V26.2954H9.98178Z" fill="black"/>
<path d="M11.2902 26.2954V24.7402H12.6984V26.2954H11.2902Z" fill="black"/>
<path d="M12.4418 26.2954V24.7402H13.537V26.2954H12.4418Z" fill="black"/>
<path d="M13.2027 26.2954V24.7402H14.2978V26.2954H13.2027Z" fill="black"/>
<path d="M14.1204 26.2954V24.7402H16.1552V26.2954H14.1204Z" fill="black"/>
<path d="M16.0548 26.2954V24.7402H17.6198V26.2954H16.0548Z" fill="black"/>
<path d="M17.2849 26.2954V24.7402H18.067V26.2954H17.2849Z" fill="black"/>
<path d="M17.8105 26.2954V24.7402H18.5926V26.2954H17.8105Z" fill="black"/>
<path d="M6.31299 8.19082H30.811V8.26055H6.31299V8.19082ZM6.31299 11.1908H30.2649V11.2605H6.31299V11.1908ZM6.31299 14.1908H32.687V14.2605H6.31299V14.1908ZM6.31299 17.1908H29.365V17.2605H6.31299V17.1908ZM6.31299 20.1908H29.411V20.2605H6.31299V20.1908ZM6.31299 23.1908H31.9894V23.2605H6.31299V23.1908ZM6.31299 26.1908H18.7838V26.2605H6.31299V26.1908Z" fill="black"/>
</g>
</g>
<path d="M11.3333 37.2949H2V43.643H11.3333V37.2949Z" fill="#E1C278"/>
<path d="M21.6663 37.2949H12.333V43.643H21.6663V37.2949Z" fill="#E5592D"/>
</g>
<defs>
<filter id="filter0_d_39_124700" x="0" y="1.74023" width="39" height="33.5547" filterUnits="userSpaceOnUse" color-interpolation-filters="sRGB">
<feFlood flood-opacity="0" result="BackgroundImageFix"/>
<feColorMatrix in="SourceAlpha" type="matrix" values="0 0 0 0 0 0 0 0 0 0 0 0 0 0 0 0 0 0 127 0" result="hardAlpha"/>
<feOffset dy="1"/>
<feGaussianBlur stdDeviation="1"/>
<feComposite in2="hardAlpha" operator="out"/>
<feColorMatrix type="matrix" values="0 0 0 0 0 0 0 0 0 0 0 0 0 0 0 0 0 0 0.1 0"/>
<feBlend mode="normal" in2="BackgroundImageFix" result="effect1_dropShadow_39_124700"/>
<feBlend mode="normal" in="SourceGraphic" in2="effect1_dropShadow_39_124700" result="shape"/>
</filter>
<clipPath id="clip0_39_124700">
<rect width="39" height="44.9033" fill="white" transform="translate(0 0.740234)"/>
</clipPath>
</defs>
</svg>
