<svg width="39" height="46" viewBox="0 0 39 46" fill="none" xmlns="http://www.w3.org/2000/svg">
<rect width="39" height="46" fill=""/>
<g clip-path="url(#clip0_39_124700)">
<g filter="url(#filter0_d_39_124700)">
<rect width="35" height="29.8002" transform="translate(2 2.60059)" fill="white"/>
<g opacity="0.3">
<rect width="35" height="27.8002" transform="translate(2 2.60059)" fill="white"/>
<path d="M6 8.15576V6.60059H6.76396V8.15576H6Z" fill="black"/>
<path d="M6.58999 8.15576V6.60059H8.27178V8.15576H6.58999Z" fill="black"/>
<path d="M8.11662 8.15576V6.60059H9.33882V8.15576H8.11662Z" fill="black"/>
<path d="M9.16485 8.15576V6.60059H11.3049V8.15576H9.16485Z" fill="black"/>
<path d="M11.0543 8.15576V6.60059H11.6658V8.15576H11.0543Z" fill="black"/>
<path d="M11.4911 8.15576V6.60059H12.5608V8.15576H11.4911Z" fill="black"/>
<path d="M12.2343 8.15576V6.60059H13.7629V8.15576H12.2343Z" fill="black"/>
<path d="M13.5889 8.15576V6.60059H15.1175V8.15576H13.5889Z" fill="black"/>
<path d="M14.8669 8.15576V6.60059H15.9366V8.15576H14.8669Z" fill="black"/>
<path d="M15.6101 8.15576V6.60059H16.2216V8.15576H15.6101Z" fill="black"/>
<path d="M16.0469 8.15576V6.60059H17.1166V8.15576H16.0469Z" fill="black"/>
<path d="M16.7901 8.15576V6.60059H18.3187V8.15576H16.7901Z" fill="black"/>
<path d="M18.1447 8.15576V6.60059H19.6733V8.15576H18.1447Z" fill="black"/>
<path d="M19.4994 8.15576V6.60059H20.8748V8.15576H19.4994Z" fill="black"/>
<path d="M20.6242 8.15576V6.60059H21.3881V8.15576H20.6242Z" fill="black"/>
<path d="M21.2142 8.15576V6.60059H22.5896V8.15576H21.2142Z" fill="black"/>
<path d="M22.4922 8.15576V6.60059H24.0208V8.15576H22.4922Z" fill="black"/>
<path d="M23.6936 8.15576V6.60059H24.3051V8.15576H23.6936Z" fill="black"/>
<path d="M24.1304 8.15576V6.60059H25.659V8.15576H24.1304Z" fill="black"/>
<path d="M25.4084 8.15576V6.60059H26.937V8.15576H25.4084Z" fill="black"/>
<path d="M26.6099 8.15576V6.60059H27.9853V8.15576H26.6099Z" fill="black"/>
<path d="M27.7347 8.15576V6.60059H28.8044V8.15576H27.7347Z" fill="black"/>
<path d="M28.6311 8.15576V6.60059H30.1597V8.15576H28.6311Z" fill="black"/>
<path d="M29.9091 8.15576V6.60059H31.4377V8.15576H29.9091Z" fill="black"/>
<path d="M31.1105 8.15576V6.60059H32.6391V8.15576H31.1105Z" fill="black"/>
<path d="M32.3886 8.15576V6.60059H33V8.15576H32.3886Z" fill="black"/>
<path d="M6 11.1558V9.60059H7.06968V11.1558H6Z" fill="black"/>
<path d="M6.89638 11.1558V9.60059H8.11858V11.1558H6.89638Z" fill="black"/>
<path d="M7.94461 11.1558V9.60059H8.55605V11.1558H7.94461Z" fill="black"/>
<path d="M8.38141 11.1558V9.60059H9.75681V11.1558H8.38141Z" fill="black"/>
<path d="M9.4498 11.1558V9.60059H10.9784V11.1558H9.4498Z" fill="black"/>
<path d="M10.6512 11.1558V9.60059H11.7209V11.1558H10.6512Z" fill="black"/>
<path d="M11.3944 11.1558V9.60059H12.923V11.1558H11.3944Z" fill="black"/>
<path d="M12.749 11.1558V9.60059H14.1244V11.1558H12.749Z" fill="black"/>
<path d="M13.9706 11.1558V9.60059H15.346V11.1558H13.9706Z" fill="black"/>
<path d="M15.172 11.1558V9.60059H15.7835V11.1558H15.172Z" fill="black"/>
<path d="M15.6088 11.1558V9.60059H16.6785V11.1558H15.6088Z" fill="black"/>
<path d="M16.5052 11.1558V9.60059H17.7274V11.1558H16.5052Z" fill="black"/>
<path d="M17.5535 11.1558V9.60059H18.1649V11.1558H17.5535Z" fill="black"/>
<path d="M17.9902 11.1558V9.60059H19.0599V11.1558H17.9902Z" fill="black"/>
<path d="M18.7334 11.1558V9.60059H20.262V11.1558H18.7334Z" fill="black"/>
<path d="M20.0881 11.1558V9.60059H21.6166V11.1558H20.0881Z" fill="black"/>
<path d="M21.2895 11.1558V9.60059H21.9009V11.1558H21.2895Z" fill="black"/>
<path d="M21.7263 11.1558V9.60059H22.796V11.1558H21.7263Z" fill="black"/>
<path d="M22.4695 11.1558V9.60059H23.9981V11.1558H22.4695Z" fill="black"/>
<path d="M23.7475 11.1558V9.60059H24.8172V11.1558H23.7475Z" fill="black"/>
<path d="M24.6439 11.1558V9.60059H26.1725V11.1558H24.6439Z" fill="black"/>
<path d="M25.9609 11.1558V9.60059H27.3363V11.1558H25.9609Z" fill="black"/>
<path d="M27.1247 11.1558V9.60059H27.8886V11.1558H27.1247Z" fill="black"/>
<path d="M27.6381 11.1558V9.60059H28.2495V11.1558H27.6381Z" fill="black"/>
<path d="M6 14.1558V12.6006H7.06968V14.1558H6Z" fill="black"/>
<path d="M6.89638 14.1558V12.6006H8.42497V14.1558H6.89638Z" fill="black"/>
<path d="M8.09781 14.1558V12.6006H9.16749V14.1558H8.09781Z" fill="black"/>
<path d="M8.84099 14.1558V12.6006H9.60495V14.1558H8.84099Z" fill="black"/>
<path d="M9.43098 14.1558V12.6006H10.8064V14.1558H9.43098Z" fill="black"/>
<path d="M10.5948 14.1558V12.6006H11.2062V14.1558H10.5948Z" fill="black"/>
<path d="M11.0316 14.1558V12.6006H11.9487V14.1558H11.0316Z" fill="black"/>
<path d="M11.6982 14.1558V12.6006H13.2268V14.1558H11.6982Z" fill="black"/>
<path d="M13.0528 14.1558V12.6006H14.4282V14.1558H13.0528Z" fill="black"/>
<path d="M14.2166 14.1558V12.6006H15.2863V14.1558H14.2166Z" fill="black"/>
<path d="M14.9598 14.1558V12.6006H15.5712V14.1558H14.9598Z" fill="black"/>
<path d="M15.3966 14.1558V12.6006H16.772V14.1558H15.3966Z" fill="black"/>
<path d="M16.465 14.1558V12.6006H17.9936V14.1558H16.465Z" fill="black"/>
<path d="M17.6664 14.1558V12.6006H19.6539V14.1558H17.6664Z" fill="black"/>
<path d="M19.5558 14.1558V12.6006H21.0844V14.1558H19.5558Z" fill="black"/>
<path d="M20.7573 14.1558V12.6006H22.7448V14.1558H20.7573Z" fill="black"/>
<path d="M22.7999 14.1558V12.6006H24.1753V14.1558H22.7999Z" fill="black"/>
<path d="M23.8482 14.1558V12.6006H25.3768V14.1558H23.8482Z" fill="black"/>
<path d="M25.0496 14.1558V12.6006H26.425V14.1558H25.0496Z" fill="black"/>
<path d="M26.118 14.1558V12.6006H26.7294V14.1558H26.118Z" fill="black"/>
<path d="M26.5548 14.1558V12.6006H27.6245V14.1558H26.5548Z" fill="black"/>
<path d="M27.298 14.1558V12.6006H28.8266V14.1558H27.298Z" fill="black"/>
<path d="M28.6526 14.1558V12.6006H30.1812V14.1558H28.6526Z" fill="black"/>
<path d="M29.9306 14.1558V12.6006H31.0003V14.1558H29.9306Z" fill="black"/>
<path d="M30.6738 14.1558V12.6006H31.2852V14.1558H30.6738Z" fill="black"/>
<path d="M6 17.1558V15.6006H8.14003V17.1558H6Z" fill="black"/>
<path d="M7.88946 17.1558V15.6006H9.41806V17.1558H7.88946Z" fill="black"/>
<path d="M9.09089 17.1558V15.6006H9.70233V17.1558H9.09089Z" fill="black"/>
<path d="M9.52768 17.1558V15.6006H11.0563V17.1558H9.52768Z" fill="black"/>
<path d="M10.8823 17.1558V15.6006H12.4109V17.1558H10.8823Z" fill="black"/>
<path d="M12.0837 17.1558V15.6006H13.4591V17.1558H12.0837Z" fill="black"/>
<path d="M13.3618 17.1558V15.6006H14.8904V17.1558H13.3618Z" fill="black"/>
<path d="M14.5632 17.1558V15.6006H15.1746V17.1558H14.5632Z" fill="black"/>
<path d="M15 17.1558V15.6006H16.3754V17.1558H15Z" fill="black"/>
<path d="M16.1638 17.1558V15.6006H17.2335V17.1558H16.1638Z" fill="black"/>
<path d="M16.907 17.1558V15.6006H18.4356V17.1558H16.907Z" fill="black"/>
<path d="M18.185 17.1558V15.6006H19.2547V17.1558H18.185Z" fill="black"/>
<path d="M18.9282 17.1558V15.6006H20.4568V17.1558H18.9282Z" fill="black"/>
<path d="M20.1296 17.1558V15.6006H21.6582V17.1558H20.1296Z" fill="black"/>
<path d="M21.4076 17.1558V15.6006H22.0191V17.1558H21.4076Z" fill="black"/>
<path d="M21.8444 17.1558V15.6006H22.9141V17.1558H21.8444Z" fill="black"/>
<path d="M22.5876 17.1558V15.6006H24.1162V17.1558H22.5876Z" fill="black"/>
<path d="M23.9422 17.1558V15.6006H25.4708V17.1558H23.9422Z" fill="black"/>
<path d="M25.2203 17.1558V15.6006H26.2899V17.1558H25.2203Z" fill="black"/>
<path d="M25.9634 17.1558V15.6006H26.5749V17.1558H25.9634Z" fill="black"/>
<path d="M26.4002 17.1558V15.6006H27.4699V17.1558H26.4002Z" fill="black"/>
<path d="M27.1434 17.1558V15.6006H28.672V17.1558H27.1434Z" fill="black"/>
<path d="M28.498 17.1558V15.6006H29.5677V17.1558H28.498Z" fill="black"/>
<path d="M29.3944 17.1558V15.6006H30.7698V17.1558H29.3944Z" fill="black"/>
<path d="M30.5582 17.1558V15.6006H31.1697V17.1558H30.5582Z" fill="black"/>
<path d="M6 20.1558V18.6006H7.06968V20.1558H6Z" fill="black"/>
<path d="M6.89638 20.1558V18.6006H8.27178V20.1558H6.89638Z" fill="black"/>
<path d="M8.06018 20.1558V18.6006H8.67162V20.1558H8.06018Z" fill="black"/>
<path d="M8.49698 20.1558V18.6006H10.0256V20.1558H8.49698Z" fill="black"/>
<path d="M9.775 20.1558V18.6006H10.3864V20.1558H9.775Z" fill="black"/>
<path d="M10.2118 20.1558V18.6006H11.5872V20.1558H10.2118Z" fill="black"/>
<path d="M11.5288 20.1558V18.6006H12.751V20.1558H11.5288Z" fill="black"/>
<path d="M12.577 20.1558V18.6006H13.9524V20.1558H12.577Z" fill="black"/>
<path d="M13.855 20.1558V18.6006H15.3836V20.1558H13.855Z" fill="black"/>
<path d="M15.0565 20.1558V18.6006H16.4319V20.1558H15.0565Z" fill="black"/>
<path d="M16.1249 20.1558V18.6006H17.6535V20.1558H16.1249Z" fill="black"/>
<path d="M17.3263 20.1558V18.6006H18.396V20.1558H17.3263Z" fill="black"/>
<path d="M18.2227 20.1558V18.6006H19.7513V20.1558H18.2227Z" fill="black"/>
<path d="M19.7305 20.1558V18.6006H21.1059V20.1558H19.7305Z" fill="black"/>
<path d="M20.9319 20.1558V18.6006H21.5434V20.1558H20.9319Z" fill="black"/>
<path d="M21.3687 20.1558V18.6006H22.7441V20.1558H21.3687Z" fill="black"/>
<path d="M22.5325 20.1558V18.6006H23.6022V20.1558H22.5325Z" fill="black"/>
<path d="M23.2757 20.1558V18.6006H24.8043V20.1558H23.2757Z" fill="black"/>
<path d="M24.5537 20.1558V18.6006H25.6234V20.1558H24.5537Z" fill="black"/>
<path d="M25.2969 20.1558V18.6006H26.8255V20.1558H25.2969Z" fill="black"/>
<path d="M26.4983 20.1558V18.6006H27.2623V20.1558H26.4983Z" fill="black"/>
<path d="M27.0117 20.1558V18.6006H27.6232V20.1558H27.0117Z" fill="black"/>
<path d="M27.4485 20.1558V18.6006H28.5182V20.1558H27.4485Z" fill="black"/>
<path d="M28.1917 20.1558V18.6006H29.7203V20.1558H28.1917Z" fill="black"/>
<path d="M29.5463 20.1558V18.6006H31.0749V20.1558H29.5463Z" fill="black"/>
<path d="M30.8244 20.1558V18.6006H31.894V20.1558H30.8244Z" fill="black"/>
<path d="M31.5675 20.1558V18.6006H32.179V20.1558H31.5675Z" fill="black"/>
<path d="M6 23.1558V21.6006H8.14003V23.1558H6Z" fill="black"/>
<path d="M7.88946 23.1558V21.6006H9.41806V23.1558H7.88946Z" fill="black"/>
<path d="M9.09089 23.1558V21.6006H9.70233V23.1558H9.09089Z" fill="black"/>
<path d="M9.52768 23.1558V21.6006H11.0563V23.1558H9.52768Z" fill="black"/>
<path d="M10.8823 23.1558V21.6006H12.4109V23.1558H10.8823Z" fill="black"/>
<path d="M12.0837 23.1558V21.6006H13.4591V23.1558H12.0837Z" fill="black"/>
<path d="M13.3618 23.1558V21.6006H14.8904V23.1558H13.3618Z" fill="black"/>
<path d="M14.5632 23.1558V21.6006H15.1746V23.1558H14.5632Z" fill="black"/>
<path d="M15.1532 23.1558V21.6006H16.5286V23.1558H15.1532Z" fill="black"/>
<path d="M16.5078 23.1558V21.6006H17.73V23.1558H16.5078Z" fill="black"/>
<path d="M17.556 23.1558V21.6006H18.1675V23.1558H17.556Z" fill="black"/>
<path d="M17.9928 23.1558V21.6006H19.0625V23.1558H17.9928Z" fill="black"/>
<path d="M19.0424 23.1558V21.6006H20.4178V23.1558H19.0424Z" fill="black"/>
<path d="M20.2438 23.1558V21.6006H21.3135V23.1558H20.2438Z" fill="black"/>
<path d="M20.987 23.1558V21.6006H22.5156V23.1558H20.987Z" fill="black"/>
<path d="M22.3416 23.1558V21.6006H23.717V23.1558H22.3416Z" fill="black"/>
<path d="M23.5431 23.1558V21.6006H24.6127V23.1558H23.5431Z" fill="black"/>
<path d="M24.2863 23.1558V21.6006H25.3559V23.1558H24.2863Z" fill="black"/>
<path d="M25.3358 23.1558V21.6006H26.558V23.1558H25.3358Z" fill="black"/>
<path d="M26.5373 23.1558V21.6006H27.9127V23.1558H26.5373Z" fill="black"/>
<path d="M27.7387 23.1558V21.6006H28.3501V23.1558H27.7387Z" fill="black"/>
<path d="M28.1755 23.1558V21.6006H29.2452V23.1558H28.1755Z" fill="black"/>
<path d="M29.0719 23.1558V21.6006H30.2941V23.1558H29.0719Z" fill="black"/>
<path d="M30.1201 23.1558V21.6006H30.7315V23.1558H30.1201Z" fill="black"/>
<path d="M6 26.1558V24.6006H7.52859V26.1558H6Z" fill="black"/>
<path d="M7.27803 26.1558V24.6006H8.3477V26.1558H7.27803Z" fill="black"/>
<path d="M8.02121 26.1558V24.6006H9.09089V26.1558H8.02121Z" fill="black"/>
<path d="M8.7644 26.1558V24.6006H10.293V26.1558H8.7644Z" fill="black"/>
<path d="M10.0424 26.1558V24.6006H11.4178V26.1558H10.0424Z" fill="black"/>
<path d="M11.1673 26.1558V24.6006H12.6958V26.1558H11.1673Z" fill="black"/>
<path d="M12.4842 26.1558V24.6006H13.0957V26.1558H12.4842Z" fill="black"/>
<path d="M12.921 26.1558V24.6006H13.9907V26.1558H12.921Z" fill="black"/>
<path d="M13.8174 26.1558V24.6006H14.8871V26.1558H13.8174Z" fill="black"/>
<path d="M14.9654 26.0802C14.9654 26.0456 14.9737 26.0214 14.9902 26.0074C15.0067 25.9934 15.0264 25.9864 15.0493 25.9864C15.0732 25.9864 15.0934 25.9934 15.1099 26.0074C15.1273 26.0214 15.136 26.0456 15.136 26.0802C15.136 26.1138 15.1273 26.138 15.1099 26.153C15.0934 26.1679 15.0732 26.1754 15.0493 26.1754C15.0264 26.1754 15.0067 26.1679 14.9902 26.153C14.9737 26.138 14.9654 26.1138 14.9654 26.0802ZM15.3259 26.0802C15.3259 26.0456 15.3342 26.0214 15.3507 26.0074C15.3672 25.9934 15.3869 25.9864 15.4099 25.9864C15.4337 25.9864 15.4539 25.9934 15.4704 26.0074C15.4879 26.0214 15.4966 26.0456 15.4966 26.0802C15.4966 26.1138 15.4879 26.138 15.4704 26.153C15.4539 26.1679 15.4337 26.1754 15.4099 26.1754C15.3869 26.1754 15.3672 26.1679 15.3507 26.153C15.3342 26.138 15.3259 26.1138 15.3259 26.0802ZM15.6851 26.0802C15.6851 26.0456 15.6933 26.0214 15.7099 26.0074C15.7264 25.9934 15.7461 25.9864 15.769 25.9864C15.7929 25.9864 15.8131 25.9934 15.8296 26.0074C15.847 26.0214 15.8557 26.0456 15.8557 26.0802C15.8557 26.1138 15.847 26.138 15.8296 26.153C15.8131 26.1679 15.7929 26.1754 15.769 26.1754C15.7461 26.1754 15.7264 26.1679 15.7099 26.153C15.6933 26.138 15.6851 26.1138 15.6851 26.0802Z" fill="black"/>
<path d="M15.5941 26.1558V24.6006H16.358V26.1558H15.5941Z" fill="black"/>
<path d="M6.30572 8.05117H32.6943V8.1209H6.30572V8.05117ZM6.30572 11.0512H27.9438V11.1209H6.30572V11.0512ZM6.30572 14.0512H30.9788V14.1209H6.30572V14.0512ZM6.30572 17.0512H30.8633V17.1209H6.30572V17.0512ZM6.30572 20.0512H31.8726V20.1209H6.30572V20.0512ZM6.30572 23.0512H30.4258V23.1209H6.30572V23.0512ZM6.30572 26.0512H14.8657V26.1209H6.30572V26.0512ZM14.8663 26.3308H15.8998V26.4008H14.8663V26.3308ZM15.8998 26.0512H16.5448V26.1209H15.8998V26.0512Z" fill="black"/>
</g>
<rect width="12" height="14" transform="translate(25 17.4009)" fill="white"/>
<path d="M31.4307 22.4194C31.141 22.4194 30.8838 22.4764 30.6592 22.5903C30.4378 22.701 30.2507 22.8621 30.0977 23.0737C29.9479 23.2853 29.834 23.5409 29.7559 23.8403C29.6777 24.1398 29.6387 24.4767 29.6387 24.8511C29.6387 25.3556 29.7005 25.7869 29.8242 26.145C29.9512 26.4998 30.1465 26.7716 30.4102 26.9604C30.6738 27.146 31.014 27.2388 31.4307 27.2388C31.7204 27.2388 32.0101 27.2062 32.2998 27.1411C32.5928 27.076 32.9102 26.9832 33.252 26.8628V28.1323C32.9362 28.2625 32.6253 28.3553 32.3193 28.4106C32.0133 28.4692 31.6699 28.4985 31.2891 28.4985C30.5534 28.4985 29.9479 28.3472 29.4727 28.0444C29.0007 27.7384 28.6507 27.312 28.4229 26.7651C28.195 26.215 28.0811 25.5737 28.0811 24.8413C28.0811 24.3009 28.1543 23.8062 28.3008 23.3569C28.4473 22.9077 28.6621 22.5187 28.9453 22.1899C29.2285 21.8612 29.5785 21.6073 29.9951 21.4282C30.4118 21.2492 30.8903 21.1597 31.4307 21.1597C31.7855 21.1597 32.1403 21.2052 32.4951 21.2964C32.8532 21.3843 33.195 21.5063 33.5205 21.6626L33.0322 22.8931C32.7653 22.7661 32.4967 22.6554 32.2266 22.561C31.9564 22.4666 31.6911 22.4194 31.4307 22.4194Z" fill="#585858"/>
</g>
<path d="M11.3333 37.4009H2V43.749H11.3333V37.4009Z" fill="#E5592D"/>
</g>
<defs>
<filter id="filter0_d_39_124700" x="0" y="1.60059" width="39" height="33.8003" filterUnits="userSpaceOnUse" color-interpolation-filters="sRGB">
<feFlood flood-opacity="0" result="BackgroundImageFix"/>
<feColorMatrix in="SourceAlpha" type="matrix" values="0 0 0 0 0 0 0 0 0 0 0 0 0 0 0 0 0 0 127 0" result="hardAlpha"/>
<feOffset dy="1"/>
<feGaussianBlur stdDeviation="1"/>
<feComposite in2="hardAlpha" operator="out"/>
<feColorMatrix type="matrix" values="0 0 0 0 0 0 0 0 0 0 0 0 0 0 0 0 0 0 0.1 0"/>
<feBlend mode="normal" in2="BackgroundImageFix" result="effect1_dropShadow_39_124700"/>
<feBlend mode="normal" in="SourceGraphic" in2="effect1_dropShadow_39_124700" result="shape"/>
</filter>
<clipPath id="clip0_39_124700">
<rect width="39" height="45.1483" fill="white" transform="translate(0 0.600586)"/>
</clipPath>
</defs>
</svg>
