<svg width="39" height="49" viewBox="0 0 39 49" fill="none" xmlns="http://www.w3.org/2000/svg">
<rect width="39" height="49" fill=""/>
<rect width="35" height="32.5748" transform="translate(2 2.74902)" fill="white"/>
<g opacity="0.3">
<path d="M6 8.3042V6.74902H6.7672V8.3042H6Z" fill="black"/>
<path d="M6.5925 8.3042V6.74902H8.12758V8.3042H6.5925Z" fill="black"/>
<path d="M7.95287 8.3042V6.74902H9.48796V8.3042H7.95287Z" fill="black"/>
<path d="M9.31325 8.3042V6.74902H10.8483V8.3042H9.31325Z" fill="black"/>
<path d="M10.5198 8.3042V6.74902H11.1338V8.3042H10.5198Z" fill="black"/>
<path d="M10.9584 8.3042V6.74902H12.6474V8.3042H10.9584Z" fill="black"/>
<path d="M12.5104 8.3042V6.74902H13.8917V8.3042H12.5104Z" fill="black"/>
<path d="M13.717 8.3042V6.74902H14.7912V8.3042H13.717Z" fill="black"/>
<path d="M14.6171 8.3042V6.74902H15.6914V8.3042H14.6171Z" fill="black"/>
<path d="M15.3635 8.3042V6.74902H16.8986V8.3042H15.3635Z" fill="black"/>
<path d="M16.57 8.3042V6.74902H18.1051V8.3042H16.57Z" fill="black"/>
<path d="M17.8535 8.3042V6.74902H18.4675V8.3042H17.8535Z" fill="black"/>
<path d="M18.2921 8.3042V6.74902H19.6734V8.3042H18.2921Z" fill="black"/>
<path d="M19.5756 8.3042V6.74902H20.6498V8.3042H19.5756Z" fill="black"/>
<path d="M20.3219 8.3042V6.74902H21.857V8.3042H20.3219Z" fill="black"/>
<path d="M21.6054 8.3042V6.74902H22.6796V8.3042H21.6054Z" fill="black"/>
<path d="M22.3517 8.3042V6.74902H23.8868V8.3042H22.3517Z" fill="black"/>
<path d="M23.5582 8.3042V6.74902H24.9395V8.3042H23.5582Z" fill="black"/>
<path d="M24.727 8.3042V6.74902H25.341V8.3042H24.727Z" fill="black"/>
<path d="M6 11.3042V9.74902H7.53508V11.3042H6Z" fill="black"/>
<path d="M7.28345 11.3042V9.74902H8.51152V11.3042H7.28345Z" fill="black"/>
<path d="M8.18364 11.3042V9.74902H9.41171V11.3042H8.18364Z" fill="black"/>
<path d="M9.08383 11.3042V9.74902H10.158V11.3042H9.08383Z" fill="black"/>
<path d="M9.98401 11.3042V9.74902H11.3653V11.3042H9.98401Z" fill="black"/>
<path d="M11.0569 11.3042V9.74902H13.0529V11.3042H11.0569Z" fill="black"/>
<path d="M12.9544 11.3042V9.74902H14.4895V11.3042H12.9544Z" fill="black"/>
<path d="M14.161 11.3042V9.74902H15.696V11.3042H14.161Z" fill="black"/>
<path d="M15.4444 11.3042V9.74902H16.0584V11.3042H15.4444Z" fill="black"/>
<path d="M15.8831 11.3042V9.74902H16.9573V11.3042H15.8831Z" fill="black"/>
<path d="M16.6294 11.3042V9.74902H18.1645V11.3042H16.6294Z" fill="black"/>
<path d="M17.9898 11.3042V9.74902H19.5249V11.3042H17.9898Z" fill="black"/>
<path d="M19.2732 11.3042V9.74902H20.3474V11.3042H19.2732Z" fill="black"/>
<path d="M20.0196 11.3042V9.74902H20.6336V11.3042H20.0196Z" fill="black"/>
<path d="M20.4582 11.3042V9.74902H21.5324V11.3042H20.4582Z" fill="black"/>
<path d="M21.3584 11.3042V9.74902H22.4326V11.3042H21.3584Z" fill="black"/>
<path d="M22.1047 11.3042V9.74902H22.7188V11.3042H22.1047Z" fill="black"/>
<path d="M22.5434 11.3042V9.74902H24.0785V11.3042H22.5434Z" fill="black"/>
<path d="M23.9038 11.3042V9.74902H25.4389V11.3042H23.9038Z" fill="black"/>
<path d="M25.1872 11.3042V9.74902H26.5685V11.3042H25.1872Z" fill="black"/>
<path d="M26.356 11.3042V9.74902H26.97V11.3042H26.356Z" fill="black"/>
<path d="M26.9485 11.3042V9.74902H28.3297V11.3042H26.9485Z" fill="black"/>
<path d="M28.3088 11.3042V9.74902H29.5362V11.3042H28.3088Z" fill="black"/>
<path d="M29.3615 11.3042V9.74902H29.9756V11.3042H29.3615Z" fill="black"/>
<path d="M6.15385 14.3042V12.749H7.53508V14.3042H6.15385Z" fill="black"/>
<path d="M7.36038 14.3042V12.749H8.89546V14.3042H7.36038Z" fill="black"/>
<path d="M8.72075 14.3042V12.749H10.102V14.3042H8.72075Z" fill="black"/>
<path d="M9.85036 14.3042V12.749H10.9246V14.3042H9.85036Z" fill="black"/>
<path d="M10.7505 14.3042V12.749H12.2856V14.3042H10.7505Z" fill="black"/>
<path d="M11.9571 14.3042V12.749H13.4922V14.3042H11.9571Z" fill="black"/>
<path d="M13.2405 14.3042V12.749H14.6218V14.3042H13.2405Z" fill="black"/>
<path d="M14.3135 14.3042V12.749H14.9275V14.3042H14.3135Z" fill="black"/>
<path d="M14.7521 14.3042V12.749H16.9012V14.3042H14.7521Z" fill="black"/>
<path d="M16.6496 14.3042V12.749H18.1847V14.3042H16.6496Z" fill="black"/>
<path d="M17.8561 14.3042V12.749H19.3912V14.3042H17.8561Z" fill="black"/>
<path d="M19.2934 14.3042V12.749H20.6747V14.3042H19.2934Z" fill="black"/>
<path d="M20.5769 14.3042V12.749H21.8043V14.3042H20.5769Z" fill="black"/>
<path d="M21.7834 14.3042V12.749H23.1646V14.3042H21.7834Z" fill="black"/>
<path d="M22.9899 14.3042V12.749H24.3712V14.3042H22.9899Z" fill="black"/>
<path d="M24.1587 14.3042V12.749H24.7727V14.3042H24.1587Z" fill="black"/>
<path d="M24.7512 14.3042V12.749H25.9786V14.3042H24.7512Z" fill="black"/>
<path d="M25.9577 14.3042V12.749H27.3389V14.3042H25.9577Z" fill="black"/>
<path d="M27.1642 14.3042V12.749H27.7783V14.3042H27.1642Z" fill="black"/>
<path d="M27.6029 14.3042V12.749H28.6771V14.3042H27.6029Z" fill="black"/>
<path d="M28.3492 14.3042V12.749H29.8843V14.3042H28.3492Z" fill="black"/>
<path d="M29.7096 14.3042V12.749H31.2447V14.3042H29.7096Z" fill="black"/>
<path d="M30.9161 14.3042V12.749H31.5302V14.3042H30.9161Z" fill="black"/>
<path d="M6 17.3042V15.749H7.68893V17.3042H6Z" fill="black"/>
<path d="M7.59114 17.3042V15.749H8.81854V17.3042H7.59114Z" fill="black"/>
<path d="M8.64383 17.3042V15.749H10.0251V17.3042H8.64383Z" fill="black"/>
<path d="M9.71675 17.3042V15.749H11.2518V17.3042H9.71675Z" fill="black"/>
<path d="M10.9233 17.3042V15.749H12.4584V17.3042H10.9233Z" fill="black"/>
<path d="M12.3606 17.3042V15.749H13.7418V17.3042H12.3606Z" fill="black"/>
<path d="M13.5671 17.3042V15.749H14.1811V17.3042H13.5671Z" fill="black"/>
<path d="M14.1596 17.3042V15.749H15.6947V17.3042H14.1596Z" fill="black"/>
<path d="M15.385 17.3042V15.749H16.9201V17.3042H15.385Z" fill="black"/>
<path d="M16.7454 17.3042V15.749H18.1266V17.3042H16.7454Z" fill="black"/>
<path d="M17.9519 17.3042V15.749H19.0262V17.3042H17.9519Z" fill="black"/>
<path d="M19.006 17.3042V15.749H20.3872V17.3042H19.006Z" fill="black"/>
<path d="M20.2125 17.3042V15.749H21.5937V17.3042H20.2125Z" fill="black"/>
<path d="M21.3812 17.3042V15.749H22.9163V17.3042H21.3812Z" fill="black"/>
<path d="M22.7416 17.3042V15.749H23.8158V17.3042H22.7416Z" fill="black"/>
<path d="M23.6418 17.3042V15.749H25.1769V17.3042H23.6418Z" fill="black"/>
<path d="M24.9253 17.3042V15.749H25.5393V17.3042H24.9253Z" fill="black"/>
<path d="M25.3639 17.3042V15.749H26.899V17.3042H25.3639Z" fill="black"/>
<path d="M26.8012 17.3042V15.749H28.1824V17.3042H26.8012Z" fill="black"/>
<path d="M28.0077 17.3042V15.749H29.5428V17.3042H28.0077Z" fill="black"/>
<path d="M29.2912 17.3042V15.749H29.9052V17.3042H29.2912Z" fill="black"/>
<path d="M6 20.3042V18.749H7.53508V20.3042H6Z" fill="black"/>
<path d="M7.36038 20.3042V18.749H8.89546V20.3042H7.36038Z" fill="black"/>
<path d="M8.64383 20.3042V18.749H10.0251V20.3042H8.64383Z" fill="black"/>
<path d="M9.81257 20.3042V18.749H10.4266V20.3042H9.81257Z" fill="black"/>
<path d="M10.4051 20.3042V18.749H11.7863V20.3042H10.4051Z" fill="black"/>
<path d="M11.7654 20.3042V18.749H12.9928V20.3042H11.7654Z" fill="black"/>
<path d="M12.8181 20.3042V18.749H13.4322V20.3042H12.8181Z" fill="black"/>
<path d="M13.2568 20.3042V18.749H14.331V20.3042H13.2568Z" fill="black"/>
<path d="M14.3108 20.3042V18.749H15.692V20.3042H14.3108Z" fill="black"/>
<path d="M15.5173 20.3042V18.749H16.5916V20.3042H15.5173Z" fill="black"/>
<path d="M16.2637 20.3042V18.749H17.7988V20.3042H16.2637Z" fill="black"/>
<path d="M17.6241 20.3042V18.749H19.0053V20.3042H17.6241Z" fill="black"/>
<path d="M18.8306 20.3042V18.749H19.9048V20.3042H18.8306Z" fill="black"/>
<path d="M19.5769 20.3042V18.749H20.6511V20.3042H19.5769Z" fill="black"/>
<path d="M20.631 20.3042V18.749H21.8583V20.3042H20.631Z" fill="black"/>
<path d="M21.8375 20.3042V18.749H23.2187V20.3042H21.8375Z" fill="black"/>
<path d="M23.044 20.3042V18.749H23.658V20.3042H23.044Z" fill="black"/>
<path d="M23.4827 20.3042V18.749H24.5569V20.3042H23.4827Z" fill="black"/>
<path d="M24.3828 20.3042V18.749H25.6102V20.3042H24.3828Z" fill="black"/>
<path d="M25.4355 20.3042V18.749H26.0496V20.3042H25.4355Z" fill="black"/>
<path d="M25.8742 20.3042V18.749H27.4093V20.3042H25.8742Z" fill="black"/>
<path d="M27.1576 20.3042V18.749H28.2319V20.3042H27.1576Z" fill="black"/>
<path d="M27.904 20.3042V18.749H28.9782V20.3042H27.904Z" fill="black"/>
<path d="M28.6503 20.3042V18.749H30.1854V20.3042H28.6503Z" fill="black"/>
<path d="M29.9338 20.3042V18.749H31.315V20.3042H29.9338Z" fill="black"/>
<path d="M31.0634 20.3042V18.749H32.5985V20.3042H31.0634Z" fill="black"/>
<path d="M32.386 20.3042V18.749H33V20.3042H32.386Z" fill="black"/>
<path d="M6.15385 23.3042V21.749H7.38124V23.3042H6.15385Z" fill="black"/>
<path d="M7.20653 23.3042V21.749H8.58777V23.3042H7.20653Z" fill="black"/>
<path d="M8.27946 23.3042V21.749H8.89349V23.3042H8.27946Z" fill="black"/>
<path d="M8.71811 23.3042V21.749H9.79233V23.3042H8.71811Z" fill="black"/>
<path d="M9.77214 23.3042V21.749H11.1534V23.3042H9.77214Z" fill="black"/>
<path d="M10.9017 23.3042V21.749H12.283V23.3042H10.9017Z" fill="black"/>
<path d="M12.1083 23.3042V21.749H13.6434V23.3042H12.1083Z" fill="black"/>
<path d="M13.3917 23.3042V21.749H14.9268V23.3042H13.3917Z" fill="black"/>
<path d="M14.6752 23.3042V21.749H16.2103V23.3042H14.6752Z" fill="black"/>
<path d="M15.8817 23.3042V21.749H16.4957V23.3042H15.8817Z" fill="black"/>
<path d="M16.3204 23.3042V21.749H17.3946V23.3042H16.3204Z" fill="black"/>
<path d="M17.0667 23.3042V21.749H18.6018V23.3042H17.0667Z" fill="black"/>
<path d="M18.4271 23.3042V21.749H19.9622V23.3042H18.4271Z" fill="black"/>
<path d="M19.6336 23.3042V21.749H20.2476V23.3042H19.6336Z" fill="black"/>
<path d="M20.0723 23.3042V21.749H21.7612V23.3042H20.0723Z" fill="black"/>
<path d="M21.6054 23.3042V21.749H23.1405V23.3042H21.6054Z" fill="black"/>
<path d="M22.8308 23.3042V21.749H24.5197V23.3042H22.8308Z" fill="black"/>
<path d="M24.345 23.3042V21.749H26.0339V23.3042H24.345Z" fill="black"/>
<path d="M25.7823 23.3042V21.749H26.3963V23.3042H25.7823Z" fill="black"/>
<path d="M26.221 23.3042V21.749H28.3701V23.3042H26.221Z" fill="black"/>
<path d="M28.1184 23.3042V21.749H29.1927V23.3042H28.1184Z" fill="black"/>
<path d="M29.0186 23.3042V21.749H30.0929V23.3042H29.0186Z" fill="black"/>
<path d="M29.765 23.3042V21.749H31.3001V23.3042H29.765Z" fill="black"/>
<path d="M31.1253 23.3042V21.749H31.7394V23.3042H31.1253Z" fill="black"/>
<path d="M6.15385 26.3042V24.749H7.53508V26.3042H6.15385Z" fill="black"/>
<path d="M7.36038 26.3042V24.749H8.89546V26.3042H7.36038Z" fill="black"/>
<path d="M8.72075 26.3042V24.749H10.102V26.3042H8.72075Z" fill="black"/>
<path d="M9.85036 26.3042V24.749H10.9246V26.3042H9.85036Z" fill="black"/>
<path d="M10.7505 26.3042V24.749H12.2856V26.3042H10.7505Z" fill="black"/>
<path d="M11.9571 26.3042V24.749H13.4922V26.3042H11.9571Z" fill="black"/>
<path d="M13.2405 26.3042V24.749H14.6218V26.3042H13.2405Z" fill="black"/>
<path d="M14.3135 26.3042V24.749H14.9275V26.3042H14.3135Z" fill="black"/>
<path d="M14.9059 26.3042V24.749H16.1333V26.3042H14.9059Z" fill="black"/>
<path d="M15.9586 26.3042V24.749H17.3399V26.3042H15.9586Z" fill="black"/>
<path d="M17.0316 26.3042V24.749H17.6456V26.3042H17.0316Z" fill="black"/>
<path d="M17.4702 26.3042V24.749H18.8514V26.3042H17.4702Z" fill="black"/>
<path d="M18.7537 26.3042V24.749H19.9811V26.3042H18.7537Z" fill="black"/>
<path d="M19.9602 26.3042V24.749H21.3414V26.3042H19.9602Z" fill="black"/>
<path d="M21.0898 26.3042V24.749H22.471V26.3042H21.0898Z" fill="black"/>
<path d="M22.3732 26.3042V24.749H23.9083V26.3042H22.3732Z" fill="black"/>
<path d="M23.7336 26.3042V24.749H25.1149V26.3042H23.7336Z" fill="black"/>
<path d="M24.9401 26.3042V24.749H26.0144V26.3042H24.9401Z" fill="black"/>
<path d="M25.6865 26.3042V24.749H26.7607V26.3042H25.6865Z" fill="black"/>
<path d="M26.7405 26.3042V24.749H27.9679V26.3042H26.7405Z" fill="black"/>
<path d="M27.9471 26.3042V24.749H29.3283V26.3042H27.9471Z" fill="black"/>
<path d="M29.1536 26.3042V24.749H30.6887V26.3042H29.1536Z" fill="black"/>
<path d="M30.437 26.3042V24.749H31.5113V26.3042H30.437Z" fill="black"/>
<path d="M31.3372 26.3042V24.749H31.9513V26.3042H31.3372Z" fill="black"/>
<path d="M6 29.3042V27.749H8.14912V29.3042H6Z" fill="black"/>
<path d="M7.89749 29.3042V27.749H9.43257V29.3042H7.89749Z" fill="black"/>
<path d="M9.10402 29.3042V27.749H10.6391V29.3042H9.10402Z" fill="black"/>
<path d="M10.5413 29.3042V27.749H11.9226V29.3042H10.5413Z" fill="black"/>
<path d="M11.8248 29.3042V27.749H13.0522V29.3042H11.8248Z" fill="black"/>
<path d="M13.0313 29.3042V27.749H14.4125V29.3042H13.0313Z" fill="black"/>
<path d="M14.2378 29.3042V27.749H15.6191V29.3042H14.2378Z" fill="black"/>
<path d="M15.8131 29.2286C15.8131 29.1941 15.8214 29.1698 15.838 29.1558C15.8545 29.1418 15.8743 29.1348 15.8974 29.1348C15.9213 29.1348 15.9416 29.1418 15.9582 29.1558C15.9757 29.1698 15.9844 29.1941 15.9844 29.2286C15.9844 29.2622 15.9757 29.2865 15.9582 29.3014C15.9416 29.3163 15.9213 29.3238 15.8974 29.3238C15.8743 29.3238 15.8545 29.3163 15.838 29.3014C15.8214 29.2865 15.8131 29.2622 15.8131 29.2286ZM16.1751 29.2286C16.1751 29.1941 16.1834 29.1698 16.2 29.1558C16.2166 29.1418 16.2364 29.1348 16.2594 29.1348C16.2834 29.1348 16.3037 29.1418 16.3202 29.1558C16.3377 29.1698 16.3465 29.1941 16.3465 29.2286C16.3465 29.2622 16.3377 29.2865 16.3202 29.3014C16.3037 29.3163 16.2834 29.3238 16.2594 29.3238C16.2364 29.3238 16.2166 29.3163 16.2 29.3014C16.1834 29.2865 16.1751 29.2622 16.1751 29.2286ZM16.5358 29.2286C16.5358 29.1941 16.5441 29.1698 16.5607 29.1558C16.5773 29.1418 16.5971 29.1348 16.6201 29.1348C16.6441 29.1348 16.6643 29.1418 16.6809 29.1558C16.6984 29.1698 16.7072 29.1941 16.7072 29.2286C16.7072 29.2622 16.6984 29.2865 16.6809 29.3014C16.6643 29.3163 16.6441 29.3238 16.6201 29.3238C16.5971 29.3238 16.5773 29.3163 16.5607 29.3014C16.5441 29.2865 16.5358 29.2622 16.5358 29.2286Z" fill="black"/>
<path d="M16.4444 29.3042V27.749H17.2116V29.3042H16.4444Z" fill="black"/>
</g>
<rect x="0.5" y="1.24902" width="38" height="35.5748" stroke="#E5592D"/>
<path d="M11.3333 40.3237H2V46.6718H11.3333V40.3237Z" fill="#E5592D"/>
</svg>
