<svg width="39" height="46" viewBox="0 0 39 46" fill="none" xmlns="http://www.w3.org/2000/svg">
<rect width="39" height="46" fill=""/>
<g clip-path="url(#clip0_39_124700)">
<g filter="url(#filter0_d_39_124700)">
<rect width="35" height="29.5552" transform="translate(2 2.69727)" fill="white"/>
<g opacity="0.3">
<rect width="35" height="27.5552" transform="translate(2 2.69727)" fill="white"/>
<path d="M6 8.25244V6.69727H6.76503V8.25244H6Z" fill="black"/>
<path d="M6.59081 8.25244V6.69727H8.12154V8.25244H6.59081Z" fill="black"/>
<path d="M7.94732 8.25244V6.69727H9.47805V8.25244H7.94732Z" fill="black"/>
<path d="M9.30383 8.25244V6.69727H10.8346V8.25244H9.30383Z" fill="black"/>
<path d="M10.5069 8.25244V6.69727H11.1192V8.25244H10.5069Z" fill="black"/>
<path d="M10.9443 8.25244V6.69727H12.6285V8.25244H10.9443Z" fill="black"/>
<path d="M12.4731 8.25244V6.69727H13.697V8.25244H12.4731Z" fill="black"/>
<path d="M13.5228 8.25244V6.69727H14.9001V8.25244H13.5228Z" fill="black"/>
<path d="M14.5927 8.25244V6.69727H15.6638V8.25244H14.5927Z" fill="black"/>
<path d="M15.3369 8.25244V6.69727H16.8676V8.25244H15.3369Z" fill="black"/>
<path d="M16.6934 8.25244V6.69727H17.3057V8.25244H16.6934Z" fill="black"/>
<path d="M17.1308 8.25244V6.69727H18.8149V8.25244H17.1308Z" fill="black"/>
<path d="M18.7174 8.25244V6.69727H19.9413V8.25244H18.7174Z" fill="black"/>
<path d="M19.7671 8.25244V6.69727H21.1444V8.25244H19.7671Z" fill="black"/>
<path d="M20.837 8.25244V6.69727H22.3677V8.25244H20.837Z" fill="black"/>
<path d="M22.0401 8.25244V6.69727H23.5708V8.25244H22.0401Z" fill="black"/>
<path d="M23.4733 8.25244V6.69727H24.8506V8.25244H23.4733Z" fill="black"/>
<path d="M24.6764 8.25244V6.69727H26.0537V8.25244H24.6764Z" fill="black"/>
<path d="M25.8418 8.25244V6.69727H26.4541V8.25244H25.8418Z" fill="black"/>
<path d="M26.2792 8.25244V6.69727H27.81V8.25244H26.2792Z" fill="black"/>
<path d="M27.6358 8.25244V6.69727H29.1665V8.25244H27.6358Z" fill="black"/>
<path d="M28.8389 8.25244V6.69727H30.2162V8.25244H28.8389Z" fill="black"/>
<path d="M30.1187 8.25244V6.69727H31.6494V8.25244H30.1187Z" fill="black"/>
<path d="M31.3218 8.25244V6.69727H31.9341V8.25244H31.3218Z" fill="black"/>
<path d="M6.15341 11.2524V9.69727H7.53072V11.2524H6.15341Z" fill="black"/>
<path d="M7.2031 11.2524V9.69727H8.73383V11.2524H7.2031Z" fill="black"/>
<path d="M8.4062 11.2524V9.69727H9.93693V11.2524H8.4062Z" fill="black"/>
<path d="M9.76271 11.2524V9.69727H11.14V11.2524H9.76271Z" fill="black"/>
<path d="M10.9658 11.2524V9.69727H11.5781V11.2524H10.9658Z" fill="black"/>
<path d="M11.4032 11.2524V9.69727H12.4744V11.2524H11.4032Z" fill="black"/>
<path d="M12.3008 11.2524V9.69727H13.5248V11.2524H12.3008Z" fill="black"/>
<path d="M13.3505 11.2524V9.69727H14.4217V11.2524H13.3505Z" fill="black"/>
<path d="M14.2482 11.2524V9.69727H15.7789V11.2524H14.2482Z" fill="black"/>
<path d="M15.528 11.2524V9.69727H16.1403V11.2524H15.528Z" fill="black"/>
<path d="M16.1188 11.2524V9.69727H17.4961V11.2524H16.1188Z" fill="black"/>
<path d="M17.3219 11.2524V9.69727H18.6992V11.2524H17.3219Z" fill="black"/>
<path d="M18.4483 11.2524V9.69727H19.0606V11.2524H18.4483Z" fill="black"/>
<path d="M18.8857 11.2524V9.69727H19.9569V11.2524H18.8857Z" fill="black"/>
<path d="M19.6299 11.2524V9.69727H21.1606V11.2524H19.6299Z" fill="black"/>
<path d="M20.9864 11.2524V9.69727H22.5171V11.2524H20.9864Z" fill="black"/>
<path d="M22.1895 11.2524V9.69727H22.8018V11.2524H22.1895Z" fill="black"/>
<path d="M6.15341 14.2524V12.6973H7.53072V14.2524H6.15341Z" fill="black"/>
<path d="M7.27981 14.2524V12.6973H8.65712V14.2524H7.27981Z" fill="black"/>
<path d="M8.34968 14.2524V12.6973H9.88041V14.2524H8.34968Z" fill="black"/>
<path d="M9.55279 14.2524V12.6973H10.9301V14.2524H9.55279Z" fill="black"/>
<path d="M10.7182 14.2524V12.6973H11.7894V14.2524H10.7182Z" fill="black"/>
<path d="M11.6158 14.2524V12.6973H13.1466V14.2524H11.6158Z" fill="black"/>
<path d="M12.8956 14.2524V12.6973H14.4264V14.2524H12.8956Z" fill="black"/>
<path d="M14.2522 14.2524V12.6973H15.6295V14.2524H14.2522Z" fill="black"/>
<path d="M15.4553 14.2524V12.6973H16.5264V14.2524H15.4553Z" fill="black"/>
<path d="M16.1995 14.2524V12.6973H16.8118V14.2524H16.1995Z" fill="black"/>
<path d="M16.7903 14.2524V12.6973H18.0142V14.2524H16.7903Z" fill="black"/>
<path d="M17.84 14.2524V12.6973H19.0646V14.2524H17.84Z" fill="black"/>
<path d="M18.7376 14.2524V12.6973H19.3499V14.2524H18.7376Z" fill="black"/>
<path d="M19.175 14.2524V12.6973H20.2462V14.2524H19.175Z" fill="black"/>
<path d="M19.9192 14.2524V12.6973H21.45V14.2524H19.9192Z" fill="black"/>
<path d="M21.2757 14.2524V12.6973H22.8065V14.2524H21.2757Z" fill="black"/>
<path d="M22.4788 14.2524V12.6973H23.0911V14.2524H22.4788Z" fill="black"/>
<path d="M22.9163 14.2524V12.6973H24.6004V14.2524H22.9163Z" fill="black"/>
<path d="M24.4639 14.2524V12.6973H25.8412V14.2524H24.4639Z" fill="black"/>
<path d="M25.667 14.2524V12.6973H26.7381V14.2524H25.667Z" fill="black"/>
<path d="M26.5646 14.2524V12.6973H27.6358V14.2524H26.5646Z" fill="black"/>
<path d="M27.3088 14.2524V12.6973H28.8395V14.2524H27.3088Z" fill="black"/>
<path d="M28.5119 14.2524V12.6973H30.0426V14.2524H28.5119Z" fill="black"/>
<path d="M29.7917 14.2524V12.6973H30.404V14.2524H29.7917Z" fill="black"/>
<path d="M6 17.2524V15.6973H7.37731V17.2524H6Z" fill="black"/>
<path d="M7.27981 17.2524V15.6973H8.35098V17.2524H7.27981Z" fill="black"/>
<path d="M8.02403 17.2524V15.6973H9.55475V17.2524H8.02403Z" fill="black"/>
<path d="M9.30383 17.2524V15.6973H10.375V17.2524H9.30383Z" fill="black"/>
<path d="M10.0481 17.2524V15.6973H11.5788V17.2524H10.0481Z" fill="black"/>
<path d="M11.2512 17.2524V15.6973H12.6285V17.2524H11.2512Z" fill="black"/>
<path d="M12.4166 17.2524V15.6973H13.0289V17.2524H12.4166Z" fill="black"/>
<path d="M12.854 17.2524V15.6973H13.9252V17.2524H12.854Z" fill="black"/>
<path d="M13.5982 17.2524V15.6973H15.1289V17.2524H13.5982Z" fill="black"/>
<path d="M14.9547 17.2524V15.6973H16.4854V17.2524H14.9547Z" fill="black"/>
<path d="M16.2345 17.2524V15.6973H17.3057V17.2524H16.2345Z" fill="black"/>
<path d="M16.9787 17.2524V15.6973H17.591V17.2524H16.9787Z" fill="black"/>
<path d="M17.4161 17.2524V15.6973H18.4873V17.2524H17.4161Z" fill="black"/>
<path d="M18.1604 17.2524V15.6973H19.6911V17.2524H18.1604Z" fill="black"/>
<path d="M19.5169 17.2524V15.6973H21.0476V17.2524H19.5169Z" fill="black"/>
<path d="M20.72 17.2524V15.6973H21.3323V17.2524H20.72Z" fill="black"/>
<path d="M21.1574 17.2524V15.6973H22.8415V17.2524H21.1574Z" fill="black"/>
<path d="M22.705 17.2524V15.6973H24.0823V17.2524H22.705Z" fill="black"/>
<path d="M23.9081 17.2524V15.6973H24.9792V17.2524H23.9081Z" fill="black"/>
<path d="M24.8057 17.2524V15.6973H25.8769V17.2524H24.8057Z" fill="black"/>
<path d="M25.5499 17.2524V15.6973H27.0807V17.2524H25.5499Z" fill="black"/>
<path d="M26.753 17.2524V15.6973H28.2838V17.2524H26.753Z" fill="black"/>
<path d="M28.0328 17.2524V15.6973H28.6451V17.2524H28.0328Z" fill="black"/>
<path d="M6 20.2524V18.6973H7.37731V20.2524H6Z" fill="black"/>
<path d="M7.27981 20.2524V18.6973H8.35098V20.2524H7.27981Z" fill="black"/>
<path d="M8.02403 20.2524V18.6973H9.55475V20.2524H8.02403Z" fill="black"/>
<path d="M9.30383 20.2524V18.6973H10.375V20.2524H9.30383Z" fill="black"/>
<path d="M10.0481 20.2524V18.6973H11.5788V20.2524H10.0481Z" fill="black"/>
<path d="M11.2512 20.2524V18.6973H12.6285V20.2524H11.2512Z" fill="black"/>
<path d="M12.4166 20.2524V18.6973H13.0289V20.2524H12.4166Z" fill="black"/>
<path d="M12.854 20.2524V18.6973H14.3847V20.2524H12.854Z" fill="black"/>
<path d="M14.2105 20.2524V18.6973H15.7412V20.2524H14.2105Z" fill="black"/>
<path d="M15.4903 20.2524V18.6973H16.8676V20.2524H15.4903Z" fill="black"/>
<path d="M16.6557 20.2524V18.6973H17.268V20.2524H16.6557Z" fill="black"/>
<path d="M17.2465 20.2524V18.6973H18.6238V20.2524H17.2465Z" fill="black"/>
<path d="M18.603 20.2524V18.6973H19.8269V20.2524H18.603Z" fill="black"/>
<path d="M19.6527 20.2524V18.6973H20.265V20.2524H19.6527Z" fill="black"/>
<path d="M20.0901 20.2524V18.6973H21.1613V20.2524H20.0901Z" fill="black"/>
<path d="M21.1412 20.2524V18.6973H22.5185V20.2524H21.1412Z" fill="black"/>
<path d="M22.3443 20.2524V18.6973H23.4154V20.2524H22.3443Z" fill="black"/>
<path d="M23.0885 20.2524V18.6973H24.6192V20.2524H23.0885Z" fill="black"/>
<path d="M24.445 20.2524V18.6973H25.8223V20.2524H24.445Z" fill="black"/>
<path d="M25.6481 20.2524V18.6973H26.7193V20.2524H25.6481Z" fill="black"/>
<path d="M26.3923 20.2524V18.6973H27.4635V20.2524H26.3923Z" fill="black"/>
<path d="M27.4434 20.2524V18.6973H28.6673V20.2524H27.4434Z" fill="black"/>
<path d="M28.6465 20.2524V18.6973H30.0238V20.2524H28.6465Z" fill="black"/>
<path d="M29.8496 20.2524V18.6973H30.4619V20.2524H29.8496Z" fill="black"/>
<path d="M30.4404 20.2524V18.6973H31.6643V20.2524H30.4404Z" fill="black"/>
<path d="M31.4901 20.2524V18.6973H32.7147V20.2524H31.4901Z" fill="black"/>
<path d="M32.3877 20.2524V18.6973H33V20.2524H32.3877Z" fill="black"/>
<path d="M6 23.2524V21.6973H7.53072V23.2524H6Z" fill="black"/>
<path d="M7.27981 23.2524V21.6973H8.35098V23.2524H7.27981Z" fill="black"/>
<path d="M8.02403 23.2524V21.6973H9.0952V23.2524H8.02403Z" fill="black"/>
<path d="M8.76825 23.2524V21.6973H10.299V23.2524H8.76825Z" fill="black"/>
<path d="M10.0481 23.2524V21.6973H11.4254V23.2524H10.0481Z" fill="black"/>
<path d="M11.1745 23.2524V21.6973H12.7052V23.2524H11.1745Z" fill="black"/>
<path d="M12.4933 23.2524V21.6973H13.5645V23.2524H12.4933Z" fill="black"/>
<path d="M13.5443 23.2524V21.6973H14.9216V23.2524H13.5443Z" fill="black"/>
<path d="M14.7474 23.2524V21.6973H16.2781V23.2524H14.7474Z" fill="black"/>
<path d="M16.1039 23.2524V21.6973H16.7162V23.2524H16.1039Z" fill="black"/>
<path d="M16.6947 23.2524V21.6973H17.9187V23.2524H16.6947Z" fill="black"/>
<path d="M17.7444 23.2524V21.6973H19.1218V23.2524H17.7444Z" fill="black"/>
<path d="M18.8143 23.2524V21.6973H19.4266V23.2524H18.8143Z" fill="black"/>
<path d="M19.2517 23.2524V21.6973H20.3229V23.2524H19.2517Z" fill="black"/>
<path d="M20.3028 23.2524V21.6973H21.6801V23.2524H20.3028Z" fill="black"/>
<path d="M21.4292 23.2524V21.6973H22.8065V23.2524H21.4292Z" fill="black"/>
<path d="M22.6323 23.2524V21.6973H24.163V23.2524H22.6323Z" fill="black"/>
<path d="M23.9121 23.2524V21.6973H25.4428V23.2524H23.9121Z" fill="black"/>
<path d="M25.1919 23.2524V21.6973H26.263V23.2524H25.1919Z" fill="black"/>
<path d="M26.2429 23.2524V21.6973H27.6202V23.2524H26.2429Z" fill="black"/>
<path d="M27.446 23.2524V21.6973H28.9767V23.2524H27.446Z" fill="black"/>
<path d="M28.8025 23.2524V21.6973H29.4148V23.2524H28.8025Z" fill="black"/>
<path d="M6 26.2524V24.6973H7.68413V26.2524H6Z" fill="black"/>
<path d="M7.52876 26.2524V24.6973H8.75266V26.2524H7.52876Z" fill="black"/>
<path d="M8.57845 26.2524V24.6973H9.95577V26.2524H8.57845Z" fill="black"/>
<path d="M9.64833 26.2524V24.6973H10.7195V26.2524H9.64833Z" fill="black"/>
<path d="M10.3926 26.2524V24.6973H11.9233V26.2524H10.3926Z" fill="black"/>
<path d="M11.7491 26.2524V24.6973H12.3614V26.2524H11.7491Z" fill="black"/>
<path d="M12.1865 26.2524V24.6973H13.8706V26.2524H12.1865Z" fill="black"/>
<path d="M13.7731 26.2524V24.6973H14.997V26.2524H13.7731Z" fill="black"/>
<path d="M14.8228 26.2524V24.6973H16.2001V26.2524H14.8228Z" fill="black"/>
<path d="M15.8927 26.2524V24.6973H17.4234V26.2524H15.8927Z" fill="black"/>
<path d="M17.0958 26.2524V24.6973H18.6265V26.2524H17.0958Z" fill="black"/>
<path d="M18.3756 26.2524V24.6973H19.1406V26.2524H18.3756Z" fill="black"/>
<path d="M18.8897 26.2524V24.6973H19.6547V26.2524H18.8897Z" fill="black"/>
<path d="M6.30614 8.14785H31.6279V8.21758H6.30614V8.14785ZM6.30614 11.1479H22.4957V11.2176H6.30614V11.1479ZM6.30614 14.1479H30.0979V14.2176H6.30614V14.1479ZM6.30614 17.1479H28.339V17.2176H6.30614V17.1479ZM6.30614 20.1479H32.6932V20.2176H6.30614V20.1479ZM6.30614 23.1479H29.1087V23.2176H6.30614V23.1479ZM6.30614 26.1479H19.8418V26.2176H6.30614V26.1479Z" fill="black"/>
</g>
<rect width="12" height="14" transform="translate(25 17.2524)" fill="white"/>
<path d="M31.4307 22.271C31.141 22.271 30.8838 22.328 30.6592 22.4419C30.4378 22.5526 30.2507 22.7137 30.0977 22.9253C29.9479 23.1369 29.834 23.3924 29.7559 23.6919C29.6777 23.9914 29.6387 24.3283 29.6387 24.7026C29.6387 25.2072 29.7005 25.6385 29.8242 25.9966C29.9512 26.3514 30.1465 26.6232 30.4102 26.812C30.6738 26.9976 31.014 27.0903 31.4307 27.0903C31.7204 27.0903 32.0101 27.0578 32.2998 26.9927C32.5928 26.9276 32.9102 26.8348 33.252 26.7144V27.9839C32.9362 28.1141 32.6253 28.2069 32.3193 28.2622C32.0133 28.3208 31.6699 28.3501 31.2891 28.3501C30.5534 28.3501 29.9479 28.1987 29.4727 27.896C29.0007 27.59 28.6507 27.1636 28.4229 26.6167C28.195 26.0666 28.0811 25.4253 28.0811 24.6929C28.0811 24.1525 28.1543 23.6577 28.3008 23.2085C28.4473 22.7593 28.6621 22.3703 28.9453 22.0415C29.2285 21.7127 29.5785 21.4588 29.9951 21.2798C30.4118 21.1007 30.8903 21.0112 31.4307 21.0112C31.7855 21.0112 32.1403 21.0568 32.4951 21.1479C32.8532 21.2358 33.195 21.3579 33.5205 21.5142L33.0322 22.7446C32.7653 22.6177 32.4967 22.507 32.2266 22.4126C31.9564 22.3182 31.6911 22.271 31.4307 22.271Z" fill="#585858"/>
</g>
<path d="M11.3333 37.2524H2V43.6005H11.3333V37.2524Z" fill="#E5592D"/>
</g>
<defs>
<filter id="filter0_d_39_124700" x="0" y="1.69727" width="39" height="33.5552" filterUnits="userSpaceOnUse" color-interpolation-filters="sRGB">
<feFlood flood-opacity="0" result="BackgroundImageFix"/>
<feColorMatrix in="SourceAlpha" type="matrix" values="0 0 0 0 0 0 0 0 0 0 0 0 0 0 0 0 0 0 127 0" result="hardAlpha"/>
<feOffset dy="1"/>
<feGaussianBlur stdDeviation="1"/>
<feComposite in2="hardAlpha" operator="out"/>
<feColorMatrix type="matrix" values="0 0 0 0 0 0 0 0 0 0 0 0 0 0 0 0 0 0 0.1 0"/>
<feBlend mode="normal" in2="BackgroundImageFix" result="effect1_dropShadow_39_124700"/>
<feBlend mode="normal" in="SourceGraphic" in2="effect1_dropShadow_39_124700" result="shape"/>
</filter>
<clipPath id="clip0_39_124700">
<rect width="39" height="44.9033" fill="white" transform="translate(0 0.697266)"/>
</clipPath>
</defs>
</svg>
