<svg width="39" height="127" viewBox="0 0 39 127" fill="none" xmlns="http://www.w3.org/2000/svg">
<rect width="39" height="127" fill=""/>
<g clip-path="url(#clip0_39_124700)">
<g filter="url(#filter0_d_39_124700)">
<rect width="35" height="110.555" transform="translate(2 2.38184)" fill="white"/>
<g opacity="0.3">
<rect width="35" height="108.555" transform="translate(2 2.38184)" fill="white"/>
<path d="M6 7.93701V6.38184H6.76594V7.93701H6Z" fill="black"/>
<path d="M6.59152 7.93701V6.38184H8.27768V7.93701H6.59152Z" fill="black"/>
<path d="M7.89173 7.93701V6.38184H8.96419V7.93701H7.89173Z" fill="black"/>
<path d="M8.79044 7.93701V6.38184H10.1694V7.93701H8.79044Z" fill="black"/>
<path d="M9.8616 7.93701V6.38184H11.2406V7.93701H9.8616Z" fill="black"/>
<path d="M11.0284 7.93701V6.38184H12.1009V7.93701H11.0284Z" fill="black"/>
<path d="M11.7735 7.93701V6.38184H12.5395V7.93701H11.7735Z" fill="black"/>
<path d="M12.2883 7.93701V6.38184H12.9013V7.93701H12.2883Z" fill="black"/>
<path d="M12.7262 7.93701V6.38184H13.9522V7.93701H12.7262Z" fill="black"/>
<path d="M13.7771 7.93701V6.38184H14.5431V7.93701H13.7771Z" fill="black"/>
<path d="M14.3687 7.93701V6.38184H16.3613V7.93701H14.3687Z" fill="black"/>
<path d="M16.263 7.93701V6.38184H16.8761V7.93701H16.263Z" fill="black"/>
<path d="M16.701 7.93701V6.38184H17.7734V7.93701H16.701Z" fill="black"/>
<path d="M17.5997 7.93701V6.38184H18.9786V7.93701H17.5997Z" fill="black"/>
<path d="M18.7665 7.93701V6.38184H20.1455V7.93701H18.7665Z" fill="black"/>
<path d="M19.9333 7.93701V6.38184H21.4659V7.93701H19.9333Z" fill="black"/>
<path d="M21.2915 7.93701V6.38184H22.3639V7.93701H21.2915Z" fill="black"/>
<path d="M22.3438 7.93701V6.38184H23.7227V7.93701H22.3438Z" fill="black"/>
<path d="M23.5483 7.93701V6.38184H25.0809V7.93701H23.5483Z" fill="black"/>
<path d="M24.9065 7.93701V6.38184H25.5195V7.93701H24.9065Z" fill="black"/>
<path d="M25.3444 7.93701V6.38184H26.8769V7.93701H25.3444Z" fill="black"/>
<path d="M26.6257 7.93701V6.38184H27.2387V7.93701H26.6257Z" fill="black"/>
<path d="M6.15359 10.937V9.38184H7.53256V10.937H6.15359Z" fill="black"/>
<path d="M7.28134 10.937V9.38184H8.66031V10.937H7.28134Z" fill="black"/>
<path d="M8.5061 10.937V9.38184H9.73148V10.937H8.5061Z" fill="black"/>
<path d="M9.55705 10.937V9.38184H10.936V10.937H9.55705Z" fill="black"/>
<path d="M10.6848 10.937V9.38184H11.7573V10.937H10.6848Z" fill="black"/>
<path d="M11.5835 10.937V9.38184H13.1161V10.937H11.5835Z" fill="black"/>
<path d="M12.8649 10.937V9.38184H14.8575V10.937H12.8649Z" fill="black"/>
<path d="M14.7592 10.937V9.38184H16.2918V10.937H14.7592Z" fill="black"/>
<path d="M16.0406 10.937V9.38184H17.113V10.937H16.0406Z" fill="black"/>
<path d="M16.7857 10.937V9.38184H17.8581V10.937H16.7857Z" fill="black"/>
<path d="M17.838 10.937V9.38184H19.0634V10.937H17.838Z" fill="black"/>
<path d="M19.0425 10.937V9.38184H20.4215V10.937H19.0425Z" fill="black"/>
<path d="M20.2471 10.937V9.38184H20.8601V10.937H20.2471Z" fill="black"/>
<path d="M20.685 10.937V9.38184H21.7575V10.937H20.685Z" fill="black"/>
<path d="M21.4301 10.937V9.38184H22.9627V10.937H21.4301Z" fill="black"/>
<path d="M22.7883 10.937V9.38184H24.3208V10.937H22.7883Z" fill="black"/>
<path d="M24.0696 10.937V9.38184H25.1421V10.937H24.0696Z" fill="black"/>
<path d="M24.8147 10.937V9.38184H25.4278V10.937H24.8147Z" fill="black"/>
<path d="M25.2527 10.937V9.38184H26.3251V10.937H25.2527Z" fill="black"/>
<path d="M26.1514 10.937V9.38184H27.2238V10.937H26.1514Z" fill="black"/>
<path d="M27.0501 10.937V9.38184H28.2761V10.937H27.0501Z" fill="black"/>
<path d="M27.9488 10.937V9.38184H29.0212V10.937H27.9488Z" fill="black"/>
<path d="M28.6939 10.937V9.38184H30.0729V10.937H28.6939Z" fill="black"/>
<path d="M29.8607 10.937V9.38184H30.4737V10.937H29.8607Z" fill="black"/>
<path d="M6 13.937V12.3818H7.07246V13.937H6Z" fill="black"/>
<path d="M6.74512 13.937V12.3818H8.27768V13.937H6.74512Z" fill="black"/>
<path d="M8.10326 13.937V12.3818H9.63582V13.937H8.10326Z" fill="black"/>
<path d="M9.3078 13.937V12.3818H9.92083V13.937H9.3078Z" fill="black"/>
<path d="M9.89933 13.937V12.3818H11.2783V13.937H9.89933Z" fill="black"/>
<path d="M11.0271 13.937V12.3818H12.406V13.937H11.0271Z" fill="black"/>
<path d="M12.2518 13.937V12.3818H13.4772V13.937H12.2518Z" fill="black"/>
<path d="M13.3028 13.937V12.3818H14.6818V13.937H13.3028Z" fill="black"/>
<path d="M14.5841 13.937V12.3818H15.6566V13.937H14.5841Z" fill="black"/>
<path d="M15.4828 13.937V12.3818H16.8618V13.937H15.4828Z" fill="black"/>
<path d="M16.6497 13.937V12.3818H17.7221V13.937H16.6497Z" fill="black"/>
<path d="M17.702 13.937V12.3818H18.9273V13.937H17.702Z" fill="black"/>
<path d="M18.9065 13.937V12.3818H20.2855V13.937H18.9065Z" fill="black"/>
<path d="M20.1111 13.937V12.3818H21.49V13.937H20.1111Z" fill="black"/>
<path d="M21.2779 13.937V12.3818H21.8909V13.937H21.2779Z" fill="black"/>
<path d="M21.8694 13.937V12.3818H23.0948V13.937H21.8694Z" fill="black"/>
<path d="M22.9204 13.937V12.3818H24.1464V13.937H22.9204Z" fill="black"/>
<path d="M23.8191 13.937V12.3818H24.4321V13.937H23.8191Z" fill="black"/>
<path d="M24.257 13.937V12.3818H25.3295V13.937H24.257Z" fill="black"/>
<path d="M25.0021 13.937V12.3818H26.5347V13.937H25.0021Z" fill="black"/>
<path d="M26.3602 13.937V12.3818H27.8928V13.937H26.3602Z" fill="black"/>
<path d="M27.5648 13.937V12.3818H28.1778V13.937H27.5648Z" fill="black"/>
<path d="M6 16.937V15.3818H7.53256V16.937H6Z" fill="black"/>
<path d="M7.35814 16.937V15.3818H8.73711V16.937H7.35814Z" fill="black"/>
<path d="M8.39158 16.937V15.3818H9.92414V16.937H8.39158Z" fill="black"/>
<path d="M9.67292 16.937V15.3818H11.2055V16.937H9.67292Z" fill="black"/>
<path d="M10.9543 16.937V15.3818H12.0267V16.937H10.9543Z" fill="black"/>
<path d="M12.0066 16.937V15.3818H13.3855V16.937H12.0066Z" fill="black"/>
<path d="M13.2111 16.937V15.3818H14.7437V16.937H13.2111Z" fill="black"/>
<path d="M14.5693 16.937V15.3818H15.1823V16.937H14.5693Z" fill="black"/>
<path d="M15.0072 16.937V15.3818H17.1528V16.937H15.0072Z" fill="black"/>
<path d="M16.9016 16.937V15.3818H17.974V16.937H16.9016Z" fill="black"/>
<path d="M17.8003 16.937V15.3818H18.8727V16.937H17.8003Z" fill="black"/>
<path d="M18.5454 16.937V15.3818H20.0779V16.937H18.5454Z" fill="black"/>
<path d="M19.9035 16.937V15.3818H20.5165V16.937H19.9035Z" fill="black"/>
<path d="M20.3414 16.937V15.3818H21.4139V16.937H20.3414Z" fill="black"/>
<path d="M21.0866 16.937V15.3818H22.6191V16.937H21.0866Z" fill="black"/>
<path d="M22.4447 16.937V15.3818H23.9773V16.937H22.4447Z" fill="black"/>
<path d="M23.6493 16.937V15.3818H24.2623V16.937H23.6493Z" fill="black"/>
<path d="M24.0872 16.937V15.3818H25.7733V16.937H24.0872Z" fill="black"/>
<path d="M25.5612 16.937V15.3818H26.9402V16.937H25.5612Z" fill="black"/>
<path d="M26.7657 16.937V15.3818H28.2983V16.937H26.7657Z" fill="black"/>
<path d="M27.9703 16.937V15.3818H29.963V16.937H27.9703Z" fill="black"/>
<path d="M29.9414 16.937V15.3818H31.3204V16.937H29.9414Z" fill="black"/>
<path d="M31.0692 16.937V15.3818H31.6822V16.937H31.0692Z" fill="black"/>
<path d="M6 19.937V18.3818H7.68616V19.937H6Z" fill="black"/>
<path d="M7.43494 19.937V18.3818H8.81391V19.937H7.43494Z" fill="black"/>
<path d="M8.56269 19.937V18.3818H9.63514V19.937H8.56269Z" fill="black"/>
<path d="M9.3078 19.937V18.3818H9.92083V19.937H9.3078Z" fill="black"/>
<path d="M9.74573 19.937V18.3818H11.8913V19.937H9.74573Z" fill="black"/>
<path d="M11.6401 19.937V18.3818H12.7126V19.937H11.6401Z" fill="black"/>
<path d="M12.5388 19.937V18.3818H13.6113V19.937H12.5388Z" fill="black"/>
<path d="M13.2839 19.937V18.3818H14.8165V19.937H13.2839Z" fill="black"/>
<path d="M14.6421 19.937V18.3818H15.2551V19.937H14.6421Z" fill="black"/>
<path d="M15.08 19.937V18.3818H16.459V19.937H15.08Z" fill="black"/>
<path d="M16.1512 19.937V18.3818H17.6837V19.937H16.1512Z" fill="black"/>
<path d="M17.3557 19.937V18.3818H18.7347V19.937H17.3557Z" fill="black"/>
<path d="M18.6761 19.937V18.3818H20.0551V19.937H18.6761Z" fill="black"/>
<path d="M19.8039 19.937V18.3818H21.3364V19.937H19.8039Z" fill="black"/>
<path d="M21.0084 19.937V18.3818H22.3874V19.937H21.0084Z" fill="black"/>
<path d="M22.1362 19.937V18.3818H23.2086V19.937H22.1362Z" fill="black"/>
<path d="M22.8813 19.937V18.3818H23.4943V19.937H22.8813Z" fill="black"/>
<path d="M23.3192 19.937V18.3818H24.3917V19.937H23.3192Z" fill="black"/>
<path d="M24.2179 19.937V18.3818H25.4433V19.937H24.2179Z" fill="black"/>
<path d="M25.2689 19.937V18.3818H25.8819V19.937H25.2689Z" fill="black"/>
<path d="M25.7068 19.937V18.3818H27.393V19.937H25.7068Z" fill="black"/>
<path d="M27.2374 19.937V18.3818H28.4628V19.937H27.2374Z" fill="black"/>
<path d="M28.2884 19.937V18.3818H29.6673V19.937H28.2884Z" fill="black"/>
<path d="M29.3595 19.937V18.3818H30.432V19.937H29.3595Z" fill="black"/>
<path d="M30.1046 19.937V18.3818H31.6372V19.937H30.1046Z" fill="black"/>
<path d="M31.4628 19.937V18.3818H32.0758V19.937H31.4628Z" fill="black"/>
<path d="M6 22.937V21.3818H7.68616V22.937H6Z" fill="black"/>
<path d="M7.58853 22.937V21.3818H8.81391V22.937H7.58853Z" fill="black"/>
<path d="M8.63948 22.937V21.3818H10.0185V22.937H8.63948Z" fill="black"/>
<path d="M9.71065 22.937V21.3818H11.2432V22.937H9.71065Z" fill="black"/>
<path d="M10.9152 22.937V21.3818H12.4478V22.937H10.9152Z" fill="black"/>
<path d="M12.1965 22.937V21.3818H12.9625V22.937H12.1965Z" fill="black"/>
<path d="M12.7113 22.937V21.3818H13.3243V22.937H12.7113Z" fill="black"/>
<path d="M13.1492 22.937V21.3818H14.8353V22.937H13.1492Z" fill="black"/>
<path d="M14.7377 22.937V21.3818H16.1167V22.937H14.7377Z" fill="black"/>
<path d="M15.9423 22.937V21.3818H17.4748V22.937H15.9423Z" fill="black"/>
<path d="M17.2236 22.937V21.3818H17.8366V22.937H17.2236Z" fill="black"/>
<path d="M17.6615 22.937V21.3818H19.0405V22.937H17.6615Z" fill="black"/>
<path d="M18.8284 22.937V21.3818H20.3609V22.937H18.8284Z" fill="black"/>
<path d="M20.0329 22.937V21.3818H21.4119V22.937H20.0329Z" fill="black"/>
<path d="M21.3143 22.937V21.3818H22.5396V22.937H21.3143Z" fill="black"/>
<path d="M22.5188 22.937V21.3818H23.8978V22.937H22.5188Z" fill="black"/>
<path d="M23.7234 22.937V21.3818H25.2559V22.937H23.7234Z" fill="black"/>
<path d="M25.0047 22.937V21.3818H26.0772V22.937H25.0047Z" fill="black"/>
<path d="M25.9802 22.937V21.3818H27.3592V22.937H25.9802Z" fill="black"/>
<path d="M27.108 22.937V21.3818H27.8739V22.937H27.108Z" fill="black"/>
<path d="M27.6227 22.937V21.3818H28.2357V22.937H27.6227Z" fill="black"/>
<path d="M28.0606 22.937V21.3818H29.2867V22.937H28.0606Z" fill="black"/>
<path d="M29.1116 22.937V21.3818H29.7246V22.937H29.1116Z" fill="black"/>
<path d="M6 25.937V24.3818H7.53256V25.937H6Z" fill="black"/>
<path d="M7.28134 25.937V24.3818H9.27401V25.937H7.28134Z" fill="black"/>
<path d="M9.17571 25.937V24.3818H9.78874V25.937H9.17571Z" fill="black"/>
<path d="M9.76723 25.937V24.3818H11.1462V25.937H9.76723Z" fill="black"/>
<path d="M11.1254 25.937V24.3818H12.3508V25.937H11.1254Z" fill="black"/>
<path d="M12.1763 25.937V24.3818H13.2488V25.937H12.1763Z" fill="black"/>
<path d="M12.9214 25.937V24.3818H13.9939V25.937H12.9214Z" fill="black"/>
<path d="M13.8202 25.937V24.3818H15.0462V25.937H13.8202Z" fill="black"/>
<path d="M14.8725 25.937V24.3818H16.2514V25.937H14.8725Z" fill="black"/>
<path d="M16.0002 25.937V24.3818H17.0727V25.937H16.0002Z" fill="black"/>
<path d="M17.0525 25.937V24.3818H18.4315V25.937H17.0525Z" fill="black"/>
<path d="M18.2571 25.937V24.3818H19.7896V25.937H18.2571Z" fill="black"/>
<path d="M19.6152 25.937V24.3818H20.2282V25.937H19.6152Z" fill="black"/>
<path d="M20.0531 25.937V24.3818H21.5857V25.937H20.0531Z" fill="black"/>
<path d="M21.4692 25.937V24.3818H22.6946V25.937H21.4692Z" fill="black"/>
<path d="M22.6737 25.937V24.3818H24.0527V25.937H22.6737Z" fill="black"/>
<path d="M23.8783 25.937V24.3818H25.4109V25.937H23.8783Z" fill="black"/>
<path d="M25.2364 25.937V24.3818H26.6154V25.937H25.2364Z" fill="black"/>
<path d="M26.3076 25.937V24.3818H27.8402V25.937H26.3076Z" fill="black"/>
<path d="M27.5121 25.937V24.3818H28.8911V25.937H27.5121Z" fill="black"/>
<path d="M28.679 25.937V24.3818H30.0579V25.937H28.679Z" fill="black"/>
<path d="M29.8458 25.937V24.3818H30.4588V25.937H29.8458Z" fill="black"/>
<path d="M30.4373 25.937V24.3818H31.6627V25.937H30.4373Z" fill="black"/>
<path d="M31.4883 25.937V24.3818H32.7143V25.937H31.4883Z" fill="black"/>
<path d="M32.387 25.937V24.3818H33V25.937H32.387Z" fill="black"/>
<path d="M6 28.937V27.3818H7.99267V28.937H6Z" fill="black"/>
<path d="M7.97117 28.937V27.3818H9.35014V28.937H7.97117Z" fill="black"/>
<path d="M9.09892 28.937V27.3818H9.71194V28.937H9.09892Z" fill="black"/>
<path d="M9.53685 28.937V27.3818H10.6093V28.937H9.53685Z" fill="black"/>
<path d="M10.5891 28.937V27.3818H11.9681V28.937H10.5891Z" fill="black"/>
<path d="M11.7937 28.937V27.3818H12.8662V28.937H11.7937Z" fill="black"/>
<path d="M12.5388 28.937V27.3818H14.0714V28.937H12.5388Z" fill="black"/>
<path d="M13.8969 28.937V27.3818H15.2759V28.937H13.8969Z" fill="black"/>
<path d="M15.1015 28.937V27.3818H16.174V28.937H15.1015Z" fill="black"/>
<path d="M15.8466 28.937V27.3818H16.4596V28.937H15.8466Z" fill="black"/>
<path d="M16.2845 28.937V27.3818H17.357V28.937H16.2845Z" fill="black"/>
<path d="M17.1832 28.937V27.3818H18.4086V28.937H17.1832Z" fill="black"/>
<path d="M18.2342 28.937V27.3818H18.8472V28.937H18.2342Z" fill="black"/>
<path d="M18.6721 28.937V27.3818H20.0511V28.937H18.6721Z" fill="black"/>
<path d="M19.7433 28.937V27.3818H21.2759V28.937H19.7433Z" fill="black"/>
<path d="M20.9478 28.937V27.3818H22.3268V28.937H20.9478Z" fill="black"/>
<path d="M22.1147 28.937V27.3818H23.4936V28.937H22.1147Z" fill="black"/>
<path d="M23.2424 28.937V27.3818H24.3149V28.937H23.2424Z" fill="black"/>
<path d="M24.2947 28.937V27.3818H25.6737V28.937H24.2947Z" fill="black"/>
<path d="M25.4993 28.937V27.3818H27.0318V28.937H25.4993Z" fill="black"/>
<path d="M26.7806 28.937V27.3818H27.3936V28.937H26.7806Z" fill="black"/>
<path d="M6 31.937V30.3818H7.68616V31.937H6Z" fill="black"/>
<path d="M7.5306 31.937V30.3818H8.75597V31.937H7.5306Z" fill="black"/>
<path d="M8.58155 31.937V30.3818H9.96052V31.937H8.58155Z" fill="black"/>
<path d="M9.65271 31.937V30.3818H10.7252V31.937H9.65271Z" fill="black"/>
<path d="M10.3978 31.937V30.3818H11.9304V31.937H10.3978Z" fill="black"/>
<path d="M11.756 31.937V30.3818H12.369V31.937H11.756Z" fill="black"/>
<path d="M12.1939 31.937V30.3818H13.8801V31.937H12.1939Z" fill="black"/>
<path d="M13.7824 31.937V30.3818H15.0078V31.937H13.7824Z" fill="black"/>
<path d="M14.8334 31.937V30.3818H16.2124V31.937H14.8334Z" fill="black"/>
<path d="M15.9045 31.937V30.3818H17.4371V31.937H15.9045Z" fill="black"/>
<path d="M17.1091 31.937V30.3818H18.6417V31.937H17.1091Z" fill="black"/>
<path d="M18.3904 31.937V30.3818H19.1564V31.937H18.3904Z" fill="black"/>
<path d="M18.982 31.937V30.3818H20.3609V31.937H18.982Z" fill="black"/>
<path d="M20.1488 31.937V30.3818H20.7618V31.937H20.1488Z" fill="black"/>
<path d="M6 34.937V33.3818H7.53256V34.937H6Z" fill="black"/>
<path d="M7.28134 34.937V33.3818H8.81391V34.937H7.28134Z" fill="black"/>
<path d="M8.48589 34.937V33.3818H9.86486V34.937H8.48589Z" fill="black"/>
<path d="M9.65271 34.937V33.3818H10.7252V34.937H9.65271Z" fill="black"/>
<path d="M10.5514 34.937V33.3818H12.084V34.937H10.5514Z" fill="black"/>
<path d="M12.0632 34.937V33.3818H13.4421V34.937H12.0632Z" fill="black"/>
<path d="M13.2677 34.937V33.3818H14.8003V34.937H13.2677Z" fill="black"/>
<path d="M14.549 34.937V33.3818H15.6215V34.937H14.549Z" fill="black"/>
<path d="M15.2942 34.937V33.3818H16.3666V34.937H15.2942Z" fill="black"/>
<path d="M16.3465 34.937V33.3818H17.5718V34.937H16.3465Z" fill="black"/>
<path d="M17.551 34.937V33.3818H18.93V34.937H17.551Z" fill="black"/>
<path d="M18.7556 34.937V33.3818H19.3686V34.937H18.7556Z" fill="black"/>
<path d="M19.1935 34.937V33.3818H20.7261V34.937H19.1935Z" fill="black"/>
<path d="M20.4748 34.937V33.3818H21.8538V34.937H20.4748Z" fill="black"/>
<path d="M21.6417 34.937V33.3818H22.2547V34.937H21.6417Z" fill="black"/>
<path d="M22.0796 34.937V33.3818H23.6121V34.937H22.0796Z" fill="black"/>
<path d="M23.3609 34.937V33.3818H23.974V34.937H23.3609Z" fill="black"/>
<path d="M23.7989 34.937V33.3818H25.1778V34.937H23.7989Z" fill="black"/>
<path d="M24.9657 34.937V33.3818H26.0381V34.937H24.9657Z" fill="black"/>
<path d="M25.7108 34.937V33.3818H27.2434V34.937H25.7108Z" fill="black"/>
<path d="M26.9921 34.937V33.3818H28.0646V34.937H26.9921Z" fill="black"/>
<path d="M27.7373 34.937V33.3818H29.2698V34.937H27.7373Z" fill="black"/>
<path d="M28.9418 34.937V33.3818H29.5548V34.937H28.9418Z" fill="black"/>
<path d="M6 37.937V36.3818H7.37897V37.937H6Z" fill="black"/>
<path d="M7.32042 37.937V36.3818H8.69939V37.937H7.32042Z" fill="black"/>
<path d="M8.60176 37.937V36.3818H9.82714V37.937H8.60176Z" fill="black"/>
<path d="M9.80631 37.937V36.3818H11.1853V37.937H9.80631Z" fill="black"/>
<path d="M11.0109 37.937V36.3818H12.3898V37.937H11.0109Z" fill="black"/>
<path d="M12.3313 37.937V36.3818H13.5566V37.937H12.3313Z" fill="black"/>
<path d="M13.3822 37.937V36.3818H14.7612V37.937H13.3822Z" fill="black"/>
<path d="M14.4534 37.937V36.3818H15.0664V37.937H14.4534Z" fill="black"/>
<path d="M15.0449 37.937V36.3818H16.2703V37.937H15.0449Z" fill="black"/>
<path d="M16.0959 37.937V36.3818H17.3219V37.937H16.0959Z" fill="black"/>
<path d="M16.9946 37.937V36.3818H17.6076V37.937H16.9946Z" fill="black"/>
<path d="M17.4325 37.937V36.3818H18.505V37.937H17.4325Z" fill="black"/>
<path d="M18.1776 37.937V36.3818H19.7102V37.937H18.1776Z" fill="black"/>
<path d="M19.3822 37.937V36.3818H20.7611V37.937H19.3822Z" fill="black"/>
<path d="M20.4533 37.937V36.3818H21.8323V37.937H20.4533Z" fill="black"/>
<path d="M21.6781 37.937V36.3818H22.9035V37.937H21.6781Z" fill="black"/>
<path d="M22.729 37.937V36.3818H24.108V37.937H22.729Z" fill="black"/>
<path d="M23.8002 37.937V36.3818H24.4132V37.937H23.8002Z" fill="black"/>
<path d="M24.2381 37.937V36.3818H25.3106V37.937H24.2381Z" fill="black"/>
<path d="M25.2904 37.937V36.3818H26.6694V37.937H25.2904Z" fill="black"/>
<path d="M26.495 37.937V36.3818H27.108V37.937H26.495Z" fill="black"/>
<path d="M26.9329 37.937V36.3818H28.159V37.937H26.9329Z" fill="black"/>
<path d="M27.9839 37.937V36.3818H29.5164V37.937H27.9839Z" fill="black"/>
<path d="M29.342 37.937V36.3818H29.955V37.937H29.342Z" fill="black"/>
<path d="M6 40.937V39.3818H7.53256V40.937H6Z" fill="black"/>
<path d="M7.28134 40.937V39.3818H8.81391V40.937H7.28134Z" fill="black"/>
<path d="M8.63948 40.937V39.3818H10.0185V40.937H8.63948Z" fill="black"/>
<path d="M9.76723 40.937V39.3818H11.1462V40.937H9.76723Z" fill="black"/>
<path d="M10.9341 40.937V39.3818H11.7V40.937H10.9341Z" fill="black"/>
<path d="M11.4488 40.937V39.3818H12.0618V40.937H11.4488Z" fill="black"/>
<path d="M11.8867 40.937V39.3818H13.4193V40.937H11.8867Z" fill="black"/>
<path d="M13.2449 40.937V39.3818H14.7774V40.937H13.2449Z" fill="black"/>
<path d="M14.603 40.937V39.3818H16.1356V40.937H14.603Z" fill="black"/>
<path d="M15.8075 40.937V39.3818H16.4206V40.937H15.8075Z" fill="black"/>
<path d="M16.3991 40.937V39.3818H17.778V40.937H16.3991Z" fill="black"/>
<path d="M17.6036 40.937V39.3818H19.1362V40.937H17.6036Z" fill="black"/>
<path d="M18.8082 40.937V39.3818H20.3407V40.937H18.8082Z" fill="black"/>
<path d="M20.0895 40.937V39.3818H21.162V40.937H20.0895Z" fill="black"/>
<path d="M20.8346 40.937V39.3818H21.4476V40.937H20.8346Z" fill="black"/>
<path d="M21.2725 40.937V39.3818H22.4986V40.937H21.2725Z" fill="black"/>
<path d="M22.3235 40.937V39.3818H23.8561V40.937H22.3235Z" fill="black"/>
<path d="M23.6816 40.937V39.3818H24.2947V40.937H23.6816Z" fill="black"/>
<path d="M24.1196 40.937V39.3818H25.6521V40.937H24.1196Z" fill="black"/>
<path d="M25.4009 40.937V39.3818H26.9335V40.937H25.4009Z" fill="black"/>
<path d="M26.7591 40.937V39.3818H28.138V40.937H26.7591Z" fill="black"/>
<path d="M27.8868 40.937V39.3818H29.2658V40.937H27.8868Z" fill="black"/>
<path d="M29.0536 40.937V39.3818H29.6667V40.937H29.0536Z" fill="black"/>
<path d="M6 43.937V42.3818H8.14559V43.937H6Z" fill="black"/>
<path d="M7.89437 43.937V42.3818H8.96683V43.937H7.89437Z" fill="black"/>
<path d="M8.79308 43.937V42.3818H9.86553V43.937H8.79308Z" fill="black"/>
<path d="M9.69179 43.937V42.3818H10.7642V43.937H9.69179Z" fill="black"/>
<path d="M10.5905 43.937V42.3818H11.2035V43.937H10.5905Z" fill="black"/>
<path d="M11.182 43.937V42.3818H12.561V43.937H11.182Z" fill="black"/>
<path d="M12.233 43.937V42.3818H13.7655V43.937H12.233Z" fill="black"/>
<path d="M13.4375 43.937V42.3818H14.0505V43.937H13.4375Z" fill="black"/>
<path d="M13.8754 43.937V42.3818H15.408V43.937H13.8754Z" fill="black"/>
<path d="M15.3104 43.937V42.3818H16.6894V43.937H15.3104Z" fill="black"/>
<path d="M16.5149 43.937V42.3818H17.128V43.937H16.5149Z" fill="black"/>
<path d="M16.9529 43.937V42.3818H18.0253V43.937H16.9529Z" fill="black"/>
<path d="M17.8516 43.937V42.3818H19.8442V43.937H17.8516Z" fill="black"/>
<path d="M19.8995 43.937V42.3818H21.2785V43.937H19.8995Z" fill="black"/>
<path d="M21.1809 43.937V42.3818H22.4063V43.937H21.1809Z" fill="black"/>
<path d="M22.2318 43.937V42.3818H23.6108V43.937H22.2318Z" fill="black"/>
<path d="M23.303 43.937V42.3818H24.3754V43.937H23.303Z" fill="black"/>
<path d="M24.0481 43.937V42.3818H25.5807V43.937H24.0481Z" fill="black"/>
<path d="M25.483 43.937V42.3818H26.862V43.937H25.483Z" fill="black"/>
<path d="M26.6876 43.937V42.3818H27.76V43.937H26.6876Z" fill="black"/>
<path d="M27.4327 43.937V42.3818H28.0457V43.937H27.4327Z" fill="black"/>
<path d="M6.15359 46.937V45.3818H7.53256V46.937H6.15359Z" fill="black"/>
<path d="M7.28134 46.937V45.3818H8.81391V46.937H7.28134Z" fill="black"/>
<path d="M8.48589 46.937V45.3818H9.86486V46.937H8.48589Z" fill="black"/>
<path d="M9.55705 46.937V45.3818H10.6295V46.937H9.55705Z" fill="black"/>
<path d="M10.6094 46.937V45.3818H11.8347V46.937H10.6094Z" fill="black"/>
<path d="M11.6603 46.937V45.3818H13.1929V46.937H11.6603Z" fill="black"/>
<path d="M12.9417 46.937V45.3818H13.5547V46.937H12.9417Z" fill="black"/>
<path d="M13.3796 46.937V45.3818H14.6056V46.937H13.3796Z" fill="black"/>
<path d="M14.4319 46.937V45.3818H15.6573V46.937H14.4319Z" fill="black"/>
<path d="M15.4828 46.937V45.3818H16.8618V46.937H15.4828Z" fill="black"/>
<path d="M16.554 46.937V45.3818H17.167V46.937H16.554Z" fill="black"/>
<path d="M16.9919 46.937V45.3818H18.6781V46.937H16.9919Z" fill="black"/>
<path d="M18.5225 46.937V45.3818H19.7479V46.937H18.5225Z" fill="black"/>
<path d="M19.5735 46.937V45.3818H20.9525V46.937H19.5735Z" fill="black"/>
<path d="M20.6446 46.937V45.3818H21.7171V46.937H20.6446Z" fill="black"/>
<path d="M21.3898 46.937V45.3818H22.9223V46.937H21.3898Z" fill="black"/>
<path d="M22.7479 46.937V45.3818H23.3609V46.937H22.7479Z" fill="black"/>
<path d="M23.1858 46.937V45.3818H24.872V46.937H23.1858Z" fill="black"/>
<path d="M24.7744 46.937V45.3818H25.9997V46.937H24.7744Z" fill="black"/>
<path d="M25.8253 46.937V45.3818H27.2043V46.937H25.8253Z" fill="black"/>
<path d="M26.8965 46.937V45.3818H28.429V46.937H26.8965Z" fill="black"/>
<path d="M28.101 46.937V45.3818H29.6336V46.937H28.101Z" fill="black"/>
<path d="M29.3824 46.937V45.3818H29.9954V46.937H29.3824Z" fill="black"/>
<path d="M29.8203 46.937V45.3818H30.8928V46.937H29.8203Z" fill="black"/>
<path d="M30.719 46.937V45.3818H31.9444V46.937H30.719Z" fill="black"/>
<path d="M31.77 46.937V45.3818H32.383V46.937H31.77Z" fill="black"/>
<path d="M6 49.937V48.3818H7.37897V49.937H6Z" fill="black"/>
<path d="M7.16682 49.937V48.3818H8.69939V49.937H7.16682Z" fill="black"/>
<path d="M8.67856 49.937V48.3818H9.90393V49.937H8.67856Z" fill="black"/>
<path d="M9.72951 49.937V48.3818H11.8751V49.937H9.72951Z" fill="black"/>
<path d="M11.6239 49.937V48.3818H12.2369V49.937H11.6239Z" fill="black"/>
<path d="M12.0618 49.937V48.3818H13.1343V49.937H12.0618Z" fill="black"/>
<path d="M12.9605 49.937V48.3818H14.033V49.937H12.9605Z" fill="black"/>
<path d="M13.7056 49.937V48.3818H15.0846V49.937H13.7056Z" fill="black"/>
<path d="M14.8725 49.937V48.3818H15.4855V49.937H14.8725Z" fill="black"/>
<path d="M15.3104 49.937V48.3818H16.6894V49.937H15.3104Z" fill="black"/>
<path d="M16.4772 49.937V48.3818H18.0098V49.937H16.4772Z" fill="black"/>
<path d="M17.6818 49.937V48.3818H19.0607V49.937H17.6818Z" fill="black"/>
<path d="M18.7529 49.937V48.3818H19.8254V49.937H18.7529Z" fill="black"/>
<path d="M19.8052 49.937V48.3818H21.0306V49.937H19.8052Z" fill="black"/>
<path d="M20.8562 49.937V48.3818H22.3887V49.937H20.8562Z" fill="black"/>
<path d="M22.2143 49.937V48.3818H23.5933V49.937H22.2143Z" fill="black"/>
<path d="M23.5347 49.937V48.3818H24.9137V49.937H23.5347Z" fill="black"/>
<path d="M24.7393 49.937V48.3818H26.2718V49.937H24.7393Z" fill="black"/>
<path d="M25.9438 49.937V48.3818H27.3228V49.937H25.9438Z" fill="black"/>
<path d="M27.1106 49.937V48.3818H28.4896V49.937H27.1106Z" fill="black"/>
<path d="M28.2775 49.937V48.3818H28.8905V49.937H28.2775Z" fill="black"/>
<path d="M28.869 49.937V48.3818H30.0944V49.937H28.869Z" fill="black"/>
<path d="M29.9199 49.937V48.3818H31.146V49.937H29.9199Z" fill="black"/>
<path d="M30.8187 49.937V48.3818H31.4317V49.937H30.8187Z" fill="black"/>
<path d="M6 52.937V51.3818H7.07246V52.937H6Z" fill="black"/>
<path d="M6.89871 52.937V51.3818H7.97117V52.937H6.89871Z" fill="black"/>
<path d="M7.64382 52.937V51.3818H9.02279V52.937H7.64382Z" fill="black"/>
<path d="M8.81065 52.937V51.3818H9.42367V52.937H8.81065Z" fill="black"/>
<path d="M9.24858 52.937V51.3818H10.6275V52.937H9.24858Z" fill="black"/>
<path d="M10.5299 52.937V51.3818H11.7553V52.937H10.5299Z" fill="black"/>
<path d="M11.7345 52.937V51.3818H12.9598V52.937H11.7345Z" fill="black"/>
<path d="M12.939 52.937V51.3818H14.318V52.937H12.939Z" fill="black"/>
<path d="M14.0668 52.937V51.3818H15.5993V52.937H14.0668Z" fill="black"/>
<path d="M15.2713 52.937V51.3818H16.6503V52.937H15.2713Z" fill="black"/>
<path d="M16.3048 52.937V51.3818H17.8373V52.937H16.3048Z" fill="black"/>
<path d="M17.5861 52.937V51.3818H18.6586V52.937H17.5861Z" fill="black"/>
<path d="M18.3312 52.937V51.3818H19.4037V52.937H18.3312Z" fill="black"/>
<path d="M19.3835 52.937V51.3818H20.6089V52.937H19.3835Z" fill="black"/>
<path d="M20.5881 52.937V51.3818H21.967V52.937H20.5881Z" fill="black"/>
<path d="M21.7926 52.937V51.3818H22.5586V52.937H21.7926Z" fill="black"/>
<path d="M22.3073 52.937V51.3818H22.9204V52.937H22.3073Z" fill="black"/>
<path d="M22.8989 52.937V51.3818H25.0444V52.937H22.8989Z" fill="black"/>
<path d="M24.8309 52.937V51.3818H26.3635V52.937H24.8309Z" fill="black"/>
<path d="M26.0355 52.937V51.3818H26.6485V52.937H26.0355Z" fill="black"/>
<path d="M26.4734 52.937V51.3818H28.619V52.937H26.4734Z" fill="black"/>
<path d="M28.3678 52.937V51.3818H29.4403V52.937H28.3678Z" fill="black"/>
<path d="M29.2665 52.937V51.3818H30.339V52.937H29.2665Z" fill="black"/>
<path d="M30.1652 52.937V51.3818H31.2377V52.937H30.1652Z" fill="black"/>
<path d="M31.0639 52.937V51.3818H31.6769V52.937H31.0639Z" fill="black"/>
<path d="M6 55.937V54.3818H8.14559V55.937H6Z" fill="black"/>
<path d="M8.04796 55.937V54.3818H9.27334V55.937H8.04796Z" fill="black"/>
<path d="M9.09892 55.937V54.3818H10.4779V55.937H9.09892Z" fill="black"/>
<path d="M10.1701 55.937V54.3818H11.7026V55.937H10.1701Z" fill="black"/>
<path d="M11.4905 55.937V54.3818H12.1035V55.937H11.4905Z" fill="black"/>
<path d="M11.9284 55.937V54.3818H13.0009V55.937H11.9284Z" fill="black"/>
<path d="M12.6735 55.937V54.3818H14.2061V55.937H12.6735Z" fill="black"/>
<path d="M14.0317 55.937V54.3818H15.4107V55.937H14.0317Z" fill="black"/>
<path d="M15.2564 55.937V54.3818H16.4818V55.937H15.2564Z" fill="black"/>
<path d="M16.3074 55.937V54.3818H17.84V55.937H16.3074Z" fill="black"/>
<path d="M17.6655 55.937V54.3818H19.1981V55.937H17.6655Z" fill="black"/>
<path d="M19.0237 55.937V54.3818H20.5562V55.937H19.0237Z" fill="black"/>
<path d="M20.3818 55.937V54.3818H20.9948V55.937H20.3818Z" fill="black"/>
<path d="M20.8197 55.937V54.3818H21.8922V55.937H20.8197Z" fill="black"/>
<path d="M21.5649 55.937V54.3818H23.0974V55.937H21.5649Z" fill="black"/>
<path d="M22.923 55.937V54.3818H24.4556V55.937H22.923Z" fill="black"/>
<path d="M24.1275 55.937V54.3818H24.7406V55.937H24.1275Z" fill="black"/>
<path d="M24.5655 55.937V54.3818H25.9444V55.937H24.5655Z" fill="black"/>
<path d="M25.7323 55.937V54.3818H26.8048V55.937H25.7323Z" fill="black"/>
<path d="M26.631 55.937V54.3818H28.1636V55.937H26.631Z" fill="black"/>
<path d="M27.9123 55.937V54.3818H28.6783V55.937H27.9123Z" fill="black"/>
<path d="M6.15359 58.937V57.3818H7.53256V58.937H6.15359Z" fill="black"/>
<path d="M7.28134 58.937V57.3818H8.81391V58.937H7.28134Z" fill="black"/>
<path d="M8.56269 58.937V57.3818H9.94166V58.937H8.56269Z" fill="black"/>
<path d="M9.63385 58.937V57.3818H10.7063V58.937H9.63385Z" fill="black"/>
<path d="M10.5326 58.937V57.3818H11.9115V58.937H10.5326Z" fill="black"/>
<path d="M11.6603 58.937V57.3818H12.2733V58.937H11.6603Z" fill="black"/>
<path d="M12.0982 58.937V57.3818H13.1707V58.937H12.0982Z" fill="black"/>
<path d="M12.8434 58.937V57.3818H14.3759V58.937H12.8434Z" fill="black"/>
<path d="M14.1247 58.937V57.3818H15.1972V58.937H14.1247Z" fill="black"/>
<path d="M15.0234 58.937V57.3818H16.556V58.937H15.0234Z" fill="black"/>
<path d="M16.3438 58.937V57.3818H17.7228V58.937H16.3438Z" fill="black"/>
<path d="M17.5106 58.937V57.3818H18.1237V58.937H17.5106Z" fill="black"/>
<path d="M17.9486 58.937V57.3818H19.021V58.937H17.9486Z" fill="black"/>
<path d="M18.8473 58.937V57.3818H20.0727V58.937H18.8473Z" fill="black"/>
<path d="M19.8982 58.937V57.3818H20.5113V58.937H19.8982Z" fill="black"/>
<path d="M20.3362 58.937V57.3818H21.8687V58.937H20.3362Z" fill="black"/>
<path d="M21.6175 58.937V57.3818H23.1501V58.937H21.6175Z" fill="black"/>
<path d="M22.8221 58.937V57.3818H24.201V58.937H22.8221Z" fill="black"/>
<path d="M24.1034 58.937V57.3818H25.636V58.937H24.1034Z" fill="black"/>
<path d="M25.3079 58.937V57.3818H26.3804V58.937H25.3079Z" fill="black"/>
<path d="M26.3602 58.937V57.3818H27.5856V58.937H26.3602Z" fill="black"/>
<path d="M27.5648 58.937V57.3818H28.9438V58.937H27.5648Z" fill="black"/>
<path d="M28.6925 58.937V57.3818H29.3056V58.937H28.6925Z" fill="black"/>
<path d="M29.1305 58.937V57.3818H30.663V58.937H29.1305Z" fill="black"/>
<path d="M30.4118 58.937V57.3818H31.0248V58.937H30.4118Z" fill="black"/>
<path d="M6 61.937V60.3818H7.37897V61.937H6Z" fill="black"/>
<path d="M7.28134 61.937V60.3818H8.50672V61.937H7.28134Z" fill="black"/>
<path d="M8.3323 61.937V60.3818H10.325V61.937H8.3323Z" fill="black"/>
<path d="M10.3803 61.937V60.3818H11.7592V61.937H10.3803Z" fill="black"/>
<path d="M11.508 61.937V60.3818H12.887V61.937H11.508Z" fill="black"/>
<path d="M12.5792 61.937V60.3818H14.1117V61.937H12.5792Z" fill="black"/>
<path d="M13.7837 61.937V60.3818H15.3163V61.937H13.7837Z" fill="black"/>
<path d="M15.1419 61.937V60.3818H16.6744V61.937H15.1419Z" fill="black"/>
<path d="M16.5 61.937V60.3818H17.879V61.937H16.5Z" fill="black"/>
<path d="M17.7046 61.937V60.3818H19.0835V61.937H17.7046Z" fill="black"/>
<path d="M18.8714 61.937V60.3818H19.9438V61.937H18.8714Z" fill="black"/>
<path d="M19.6933 61.937V60.3818H21.0723V61.937H19.6933Z" fill="black"/>
<path d="M20.9746 61.937V60.3818H22.5072V61.937H20.9746Z" fill="black"/>
<path d="M22.1792 61.937V60.3818H22.7922V61.937H22.1792Z" fill="black"/>
<path d="M22.6171 61.937V60.3818H24.1497V61.937H22.6171Z" fill="black"/>
<path d="M24.052 61.937V60.3818H25.431V61.937H24.052Z" fill="black"/>
<path d="M25.2566 61.937V60.3818H26.7892V61.937H25.2566Z" fill="black"/>
<path d="M26.5379 61.937V60.3818H27.151V61.937H26.5379Z" fill="black"/>
<path d="M6 64.937V63.3818H7.37897V64.937H6Z" fill="black"/>
<path d="M7.07116 64.937V63.3818H8.14362V64.937H7.07116Z" fill="black"/>
<path d="M7.96987 64.937V63.3818H9.50244V64.937H7.96987Z" fill="black"/>
<path d="M9.48161 64.937V63.3818H10.707V64.937H9.48161Z" fill="black"/>
<path d="M10.5326 64.937V63.3818H11.9115V64.937H10.5326Z" fill="black"/>
<path d="M11.7573 64.937V63.3818H12.9827V64.937H11.7573Z" fill="black"/>
<path d="M12.8083 64.937V63.3818H14.3408V64.937H12.8083Z" fill="black"/>
<path d="M14.1664 64.937V63.3818H15.5454V64.937H14.1664Z" fill="black"/>
<path d="M15.3332 64.937V63.3818H15.9463V64.937H15.3332Z" fill="black"/>
<path d="M15.7712 64.937V63.3818H17.1501V64.937H15.7712Z" fill="black"/>
<path d="M17.0525 64.937V63.3818H18.5851V64.937H17.0525Z" fill="black"/>
<path d="M18.2571 64.937V63.3818H19.636V64.937H18.2571Z" fill="black"/>
<path d="M19.3282 64.937V63.3818H20.4007V64.937H19.3282Z" fill="black"/>
<path d="M20.2269 64.937V63.3818H21.453V64.937H20.2269Z" fill="black"/>
<path d="M21.1256 64.937V63.3818H22.1981V64.937H21.1256Z" fill="black"/>
<path d="M22.0243 64.937V63.3818H23.4033V64.937H22.0243Z" fill="black"/>
<path d="M23.1521 64.937V63.3818H24.6847V64.937H23.1521Z" fill="black"/>
<path d="M24.4334 64.937V63.3818H25.5059V64.937H24.4334Z" fill="black"/>
<path d="M25.1786 64.937V63.3818H26.251V64.937H25.1786Z" fill="black"/>
<path d="M26.2309 64.937V63.3818H27.4562V64.937H26.2309Z" fill="black"/>
<path d="M27.4354 64.937V63.3818H28.8144V64.937H27.4354Z" fill="black"/>
<path d="M28.6399 64.937V63.3818H29.253V64.937H28.6399Z" fill="black"/>
<path d="M6.15359 67.937V66.3818H7.53256V67.937H6.15359Z" fill="black"/>
<path d="M7.28134 67.937V66.3818H8.66031V67.937H7.28134Z" fill="black"/>
<path d="M8.5061 67.937V66.3818H9.73148V67.937H8.5061Z" fill="black"/>
<path d="M9.55705 67.937V66.3818H10.6295V67.937H9.55705Z" fill="black"/>
<path d="M10.4558 67.937V66.3818H11.6811V67.937H10.4558Z" fill="black"/>
<path d="M11.5067 67.937V66.3818H12.8857V67.937H11.5067Z" fill="black"/>
<path d="M12.7881 67.937V66.3818H14.0134V67.937H12.7881Z" fill="black"/>
<path d="M13.839 67.937V66.3818H14.9115V67.937H13.839Z" fill="black"/>
<path d="M14.7377 67.937V66.3818H15.5037V67.937H14.7377Z" fill="black"/>
<path d="M15.2524 67.937V66.3818H15.8655V67.937H15.2524Z" fill="black"/>
<path d="M15.6904 67.937V66.3818H17.3765V67.937H15.6904Z" fill="black"/>
<path d="M17.2789 67.937V66.3818H18.6579V67.937H17.2789Z" fill="black"/>
<path d="M18.4835 67.937V66.3818H20.016V67.937H18.4835Z" fill="black"/>
<path d="M19.7648 67.937V66.3818H20.3778V67.937H19.7648Z" fill="black"/>
<path d="M20.2027 67.937V66.3818H21.7353V67.937H20.2027Z" fill="black"/>
<path d="M21.4841 67.937V66.3818H23.0166V67.937H21.4841Z" fill="black"/>
<path d="M22.8422 67.937V66.3818H24.2212V67.937H22.8422Z" fill="black"/>
<path d="M23.9134 67.937V66.3818H24.9858V67.937H23.9134Z" fill="black"/>
<path d="M24.9657 67.937V66.3818H26.3446V67.937H24.9657Z" fill="black"/>
<path d="M26.1702 67.937V66.3818H27.7028V67.937H26.1702Z" fill="black"/>
<path d="M27.5284 67.937V66.3818H28.1414V67.937H27.5284Z" fill="black"/>
<path d="M27.9663 67.937V66.3818H29.0388V67.937H27.9663Z" fill="black"/>
<path d="M28.7114 67.937V66.3818H30.244V67.937H28.7114Z" fill="black"/>
<path d="M30.0695 67.937V66.3818H31.142V67.937H30.0695Z" fill="black"/>
<path d="M30.9683 67.937V66.3818H32.3472V67.937H30.9683Z" fill="black"/>
<path d="M32.1351 67.937V66.3818H32.7481V67.937H32.1351Z" fill="black"/>
<path d="M6.15359 70.937V69.3818H7.53256V70.937H6.15359Z" fill="black"/>
<path d="M7.28134 70.937V69.3818H8.81391V70.937H7.28134Z" fill="black"/>
<path d="M8.48589 70.937V69.3818H9.86486V70.937H8.48589Z" fill="black"/>
<path d="M9.55705 70.937V69.3818H10.6295V70.937H9.55705Z" fill="black"/>
<path d="M10.6094 70.937V69.3818H11.8347V70.937H10.6094Z" fill="black"/>
<path d="M11.6603 70.937V69.3818H13.1929V70.937H11.6603Z" fill="black"/>
<path d="M12.9417 70.937V69.3818H13.7076V70.937H12.9417Z" fill="black"/>
<path d="M13.4564 70.937V69.3818H14.0694V70.937H13.4564Z" fill="black"/>
<path d="M13.8943 70.937V69.3818H14.9668V70.937H13.8943Z" fill="black"/>
<path d="M14.6394 70.937V69.3818H16.172V70.937H14.6394Z" fill="black"/>
<path d="M15.9976 70.937V69.3818H17.5301V70.937H15.9976Z" fill="black"/>
<path d="M17.2021 70.937V69.3818H17.8151V70.937H17.2021Z" fill="black"/>
<path d="M17.64 70.937V69.3818H19.3262V70.937H17.64Z" fill="black"/>
<path d="M19.1895 70.937V69.3818H20.5685V70.937H19.1895Z" fill="black"/>
<path d="M20.394 70.937V69.3818H21.4665V70.937H20.394Z" fill="black"/>
<path d="M21.2928 70.937V69.3818H22.3652V70.937H21.2928Z" fill="black"/>
<path d="M22.0379 70.937V69.3818H23.5704V70.937H22.0379Z" fill="black"/>
<path d="M23.2424 70.937V69.3818H24.775V70.937H23.2424Z" fill="black"/>
<path d="M24.5238 70.937V69.3818H25.1368V70.937H24.5238Z" fill="black"/>
<path d="M24.9617 70.937V69.3818H26.3407V70.937H24.9617Z" fill="black"/>
<path d="M26.243 70.937V69.3818H27.3155V70.937H26.243Z" fill="black"/>
<path d="M26.9881 70.937V69.3818H28.5207V70.937H26.9881Z" fill="black"/>
<path d="M28.2695 70.937V69.3818H29.342V70.937H28.2695Z" fill="black"/>
<path d="M29.0146 70.937V69.3818H30.5472V70.937H29.0146Z" fill="black"/>
<path d="M30.2192 70.937V69.3818H31.5981V70.937H30.2192Z" fill="black"/>
<path d="M31.386 70.937V69.3818H31.999V70.937H31.386Z" fill="black"/>
<path d="M6 73.937V72.3818H8.14559V73.937H6Z" fill="black"/>
<path d="M7.89437 73.937V72.3818H8.96683V73.937H7.89437Z" fill="black"/>
<path d="M8.79308 73.937V72.3818H9.86553V73.937H8.79308Z" fill="black"/>
<path d="M9.69179 73.937V72.3818H10.7642V73.937H9.69179Z" fill="black"/>
<path d="M10.5905 73.937V72.3818H11.2035V73.937H10.5905Z" fill="black"/>
<path d="M11.0284 73.937V72.3818H12.4074V73.937H11.0284Z" fill="black"/>
<path d="M12.1562 73.937V72.3818H13.6887V73.937H12.1562Z" fill="black"/>
<path d="M13.4375 73.937V72.3818H14.8165V73.937H13.4375Z" fill="black"/>
<path d="M14.5087 73.937V72.3818H16.0412V73.937H14.5087Z" fill="black"/>
<path d="M15.7132 73.937V72.3818H16.9393V73.937H15.7132Z" fill="black"/>
<path d="M16.6119 73.937V72.3818H18.1445V73.937H16.6119Z" fill="black"/>
<path d="M17.9701 73.937V72.3818H19.0425V73.937H17.9701Z" fill="black"/>
<path d="M18.8688 73.937V72.3818H19.9412V73.937H18.8688Z" fill="black"/>
<path d="M19.8443 73.937V72.3818H21.2233V73.937H19.8443Z" fill="black"/>
<path d="M20.972 73.937V72.3818H21.5851V73.937H20.972Z" fill="black"/>
<path d="M21.5636 73.937V72.3818H22.7889V73.937H21.5636Z" fill="black"/>
<path d="M22.7681 73.937V72.3818H24.1471V73.937H22.7681Z" fill="black"/>
<path d="M23.8191 73.937V72.3818H25.198V73.937H23.8191Z" fill="black"/>
<path d="M24.9859 73.937V72.3818H26.5185V73.937H24.9859Z" fill="black"/>
<path d="M26.1904 73.937V72.3818H27.5694V73.937H26.1904Z" fill="black"/>
<path d="M27.2616 73.937V72.3818H28.6406V73.937H27.2616Z" fill="black"/>
<path d="M28.5429 73.937V72.3818H30.0755V73.937H28.5429Z" fill="black"/>
<path d="M29.7475 73.937V72.3818H30.3605V73.937H29.7475Z" fill="black"/>
<path d="M6 76.937V75.3818H7.68616V76.937H6Z" fill="black"/>
<path d="M7.5306 76.937V75.3818H8.75597V76.937H7.5306Z" fill="black"/>
<path d="M8.58155 76.937V75.3818H9.96052V76.937H8.58155Z" fill="black"/>
<path d="M9.65271 76.937V75.3818H10.7252V76.937H9.65271Z" fill="black"/>
<path d="M10.3978 76.937V75.3818H11.9304V76.937H10.3978Z" fill="black"/>
<path d="M11.756 76.937V75.3818H12.369V76.937H11.756Z" fill="black"/>
<path d="M12.1939 76.937V75.3818H13.8801V76.937H12.1939Z" fill="black"/>
<path d="M13.7824 76.937V75.3818H15.0078V76.937H13.7824Z" fill="black"/>
<path d="M14.8334 76.937V75.3818H16.2124V76.937H14.8334Z" fill="black"/>
<path d="M15.9045 76.937V75.3818H17.4371V76.937H15.9045Z" fill="black"/>
<path d="M17.1091 76.937V75.3818H18.6417V76.937H17.1091Z" fill="black"/>
<path d="M18.3904 76.937V75.3818H19.1564V76.937H18.3904Z" fill="black"/>
<path d="M18.982 76.937V75.3818H20.3609V76.937H18.982Z" fill="black"/>
<path d="M20.1488 76.937V75.3818H20.7618V76.937H20.1488Z" fill="black"/>
<path d="M20.5867 76.937V75.3818H22.1193V76.937H20.5867Z" fill="black"/>
<path d="M21.8681 76.937V75.3818H23.247V76.937H21.8681Z" fill="black"/>
<path d="M22.9958 76.937V75.3818H24.0683V76.937H22.9958Z" fill="black"/>
<path d="M23.7409 76.937V75.3818H24.8134V76.937H23.7409Z" fill="black"/>
<path d="M24.7932 76.937V75.3818H26.0186V76.937H24.7932Z" fill="black"/>
<path d="M25.9978 76.937V75.3818H27.3767V76.937H25.9978Z" fill="black"/>
<path d="M27.2023 76.937V75.3818H28.5813V76.937H27.2023Z" fill="black"/>
<path d="M28.7308 76.6164V76.5072H30.0001V76.6164H28.7308Z" fill="black"/>
<path d="M6 79.937V78.3818H7.53256V79.937H6Z" fill="black"/>
<path d="M7.43494 79.937V78.3818H8.81391V79.937H7.43494Z" fill="black"/>
<path d="M8.63948 79.937V78.3818H10.172V79.937H8.63948Z" fill="black"/>
<path d="M9.92083 79.937V78.3818H10.5339V79.937H9.92083Z" fill="black"/>
<path d="M10.3588 79.937V78.3818H11.8913V79.937H10.3588Z" fill="black"/>
<path d="M11.6401 79.937V78.3818H13.0191V79.937H11.6401Z" fill="black"/>
<path d="M12.7679 79.937V78.3818H13.8403V79.937H12.7679Z" fill="black"/>
<path d="M13.513 79.937V78.3818H14.126V79.937H13.513Z" fill="black"/>
<path d="M13.9509 79.937V78.3818H15.4835V79.937H13.9509Z" fill="black"/>
<path d="M15.2322 79.937V78.3818H16.6112V79.937H15.2322Z" fill="black"/>
<path d="M16.36 79.937V78.3818H17.739V79.937H16.36Z" fill="black"/>
<path d="M17.6413 79.937V78.3818H18.8667V79.937H17.6413Z" fill="black"/>
<path d="M18.6923 79.937V78.3818H20.0713V79.937H18.6923Z" fill="black"/>
<path d="M19.7635 79.937V78.3818H21.296V79.937H19.7635Z" fill="black"/>
<path d="M21.0448 79.937V78.3818H22.1173V79.937H21.0448Z" fill="black"/>
<path d="M22.0971 79.937V78.3818H23.4761V79.937H22.0971Z" fill="black"/>
<path d="M23.3016 79.937V78.3818H24.8342V79.937H23.3016Z" fill="black"/>
<path d="M24.6598 79.937V78.3818H25.7322V79.937H24.6598Z" fill="black"/>
<path d="M25.6353 79.937V78.3818H27.0143V79.937H25.6353Z" fill="black"/>
<path d="M27.1689 79.8614C27.1689 79.8269 27.1772 79.8026 27.1937 79.7886C27.2103 79.7746 27.2301 79.7676 27.253 79.7676C27.277 79.7676 27.2972 79.7746 27.3138 79.7886C27.3312 79.8026 27.34 79.8269 27.34 79.8614C27.34 79.895 27.3312 79.9193 27.3138 79.9342C27.2972 79.9491 27.277 79.9566 27.253 79.9566C27.2301 79.9566 27.2103 79.9491 27.1937 79.9342C27.1772 79.9193 27.1689 79.895 27.1689 79.8614ZM27.5304 79.8614C27.5304 79.8269 27.5386 79.8026 27.5552 79.7886C27.5717 79.7746 27.5915 79.7676 27.6145 79.7676C27.6384 79.7676 27.6587 79.7746 27.6752 79.7886C27.6927 79.8026 27.7014 79.8269 27.7014 79.8614C27.7014 79.895 27.6927 79.9193 27.6752 79.9342C27.6587 79.9491 27.6384 79.9566 27.6145 79.9566C27.5915 79.9566 27.5717 79.9491 27.5552 79.9342C27.5386 79.9193 27.5304 79.895 27.5304 79.8614ZM27.8904 79.8614C27.8904 79.8269 27.8987 79.8026 27.9153 79.7886C27.9318 79.7746 27.9516 79.7676 27.9746 79.7676C27.9985 79.7676 28.0187 79.7746 28.0353 79.7886C28.0528 79.8026 28.0615 79.8269 28.0615 79.8614C28.0615 79.895 28.0528 79.9193 28.0353 79.9342C28.0187 79.9491 27.9985 79.9566 27.9746 79.9566C27.9516 79.9566 27.9318 79.9491 27.9153 79.9342C27.8987 79.9193 27.8904 79.895 27.8904 79.8614Z" fill="black"/>
<path d="M27.7992 79.937V78.3818H28.4122V79.937H27.7992Z" fill="black"/>
<path d="M6 82.937V81.3818H7.99267V82.937H6Z" fill="black"/>
<path d="M7.79871 82.937V81.3818H9.33127V82.937H7.79871Z" fill="black"/>
<path d="M9.15685 82.937V81.3818H10.2293V82.937H9.15685Z" fill="black"/>
<path d="M10.0556 82.937V81.3818H11.128V82.937H10.0556Z" fill="black"/>
<path d="M10.8007 82.937V81.3818H11.8731V82.937H10.8007Z" fill="black"/>
<path d="M11.6994 82.937V81.3818H12.7718V82.937H11.6994Z" fill="black"/>
<path d="M12.5981 82.937V81.3818H14.1307V82.937H12.5981Z" fill="black"/>
<path d="M13.8794 82.937V81.3818H14.9519V82.937H13.8794Z" fill="black"/>
<path d="M14.6245 82.937V81.3818H16.1571V82.937H14.6245Z" fill="black"/>
<path d="M15.8291 82.937V81.3818H17.2081V82.937H15.8291Z" fill="black"/>
<path d="M16.8625 82.937V81.3818H18.3951V82.937H16.8625Z" fill="black"/>
<path d="M18.1439 82.937V81.3818H19.2163V82.937H18.1439Z" fill="black"/>
<path d="M19.0426 82.937V81.3818H19.6556V82.937H19.0426Z" fill="black"/>
<path d="M19.4805 82.937V81.3818H21.0131V82.937H19.4805Z" fill="black"/>
<path d="M20.7619 82.937V81.3818H21.8343V82.937H20.7619Z" fill="black"/>
<path d="M21.8142 82.937V81.3818H23.1931V82.937H21.8142Z" fill="black"/>
<path d="M22.9419 82.937V81.3818H24.0144V82.937H22.9419Z" fill="black"/>
<path d="M23.9942 82.937V81.3818H25.2196V82.937H23.9942Z" fill="black"/>
<path d="M25.0452 82.937V81.3818H27.0378V82.937H25.0452Z" fill="black"/>
<path d="M26.9395 82.937V81.3818H28.4721V82.937H26.9395Z" fill="black"/>
<path d="M28.2209 82.937V81.3818H29.5999V82.937H28.2209Z" fill="black"/>
<path d="M29.5022 82.937V81.3818H30.8812V82.937H29.5022Z" fill="black"/>
<path d="M30.63 82.937V81.3818H31.243V82.937H30.63Z" fill="black"/>
<path d="M6 85.937V84.3818H7.07246V85.937H6Z" fill="black"/>
<path d="M6.89871 85.937V84.3818H8.27768V85.937H6.89871Z" fill="black"/>
<path d="M8.06553 85.937V84.3818H8.67856V85.937H8.06553Z" fill="black"/>
<path d="M8.50346 85.937V84.3818H9.57592V85.937H8.50346Z" fill="black"/>
<path d="M9.24858 85.937V84.3818H10.7811V85.937H9.24858Z" fill="black"/>
<path d="M10.6067 85.937V84.3818H12.1393V85.937H10.6067Z" fill="black"/>
<path d="M11.8113 85.937V84.3818H12.4243V85.937H11.8113Z" fill="black"/>
<path d="M12.4028 85.937V84.3818H13.7818V85.937H12.4028Z" fill="black"/>
<path d="M13.4537 85.937V84.3818H14.9863V85.937H13.4537Z" fill="black"/>
<path d="M14.6583 85.937V84.3818H16.0373V85.937H14.6583Z" fill="black"/>
<path d="M15.8251 85.937V84.3818H16.8976V85.937H15.8251Z" fill="black"/>
<path d="M16.5702 85.937V84.3818H17.1833V85.937H16.5702Z" fill="black"/>
<path d="M17.0082 85.937V84.3818H19.1537V85.937H17.0082Z" fill="black"/>
<path d="M18.8257 85.937V84.3818H20.3583V85.937H18.8257Z" fill="black"/>
<path d="M20.1839 85.937V84.3818H21.5628V85.937H20.1839Z" fill="black"/>
<path d="M21.3116 85.937V84.3818H21.9246V85.937H21.3116Z" fill="black"/>
<path d="M21.7495 85.937V84.3818H22.822V85.937H21.7495Z" fill="black"/>
<path d="M22.6483 85.937V84.3818H23.8736V85.937H22.6483Z" fill="black"/>
<path d="M23.6992 85.937V84.3818H24.3122V85.937H23.6992Z" fill="black"/>
<path d="M6.15359 88.937V87.3818H7.53256V88.937H6.15359Z" fill="black"/>
<path d="M7.28134 88.937V87.3818H8.81391V88.937H7.28134Z" fill="black"/>
<path d="M8.48589 88.937V87.3818H10.0185V88.937H8.48589Z" fill="black"/>
<path d="M9.76723 88.937V87.3818H11.1462V88.937H9.76723Z" fill="black"/>
<path d="M10.895 88.937V87.3818H12.4275V88.937H10.895Z" fill="black"/>
<path d="M12.0995 88.937V87.3818H13.3256V88.937H12.0995Z" fill="black"/>
<path d="M12.9982 88.937V87.3818H14.5308V88.937H12.9982Z" fill="black"/>
<path d="M14.3564 88.937V87.3818H15.4288V88.937H14.3564Z" fill="black"/>
<path d="M15.2551 88.937V87.3818H16.3275V88.937H15.2551Z" fill="black"/>
<path d="M16.2306 88.937V87.3818H17.6096V88.937H16.2306Z" fill="black"/>
<path d="M17.3583 88.937V87.3818H17.9714V88.937H17.3583Z" fill="black"/>
<path d="M17.7963 88.937V87.3818H19.1752V88.937H17.7963Z" fill="black"/>
<path d="M19.1167 88.937V87.3818H20.3421V88.937H19.1167Z" fill="black"/>
<path d="M20.1676 88.937V87.3818H21.2401V88.937H20.1676Z" fill="black"/>
<path d="M20.9896 88.937V87.3818H22.3685V88.937H20.9896Z" fill="black"/>
<path d="M22.2709 88.937V87.3818H23.8035V88.937H22.2709Z" fill="black"/>
<path d="M23.4754 88.937V87.3818H24.0885V88.937H23.4754Z" fill="black"/>
<path d="M23.9134 88.937V87.3818H24.9858V88.937H23.9134Z" fill="black"/>
<path d="M24.6585 88.937V87.3818H26.1911V88.937H24.6585Z" fill="black"/>
<path d="M26.0166 88.937V87.3818H27.5492V88.937H26.0166Z" fill="black"/>
<path d="M27.2212 88.937V87.3818H27.8342V88.937H27.2212Z" fill="black"/>
<path d="M6.15359 91.937V90.3818H7.53256V91.937H6.15359Z" fill="black"/>
<path d="M7.35814 91.937V90.3818H8.8907V91.937H7.35814Z" fill="black"/>
<path d="M8.71628 91.937V90.3818H10.0953V91.937H8.71628Z" fill="black"/>
<path d="M9.84403 91.937V90.3818H10.9165V91.937H9.84403Z" fill="black"/>
<path d="M10.7427 91.937V90.3818H12.2753V91.937H10.7427Z" fill="black"/>
<path d="M11.9473 91.937V90.3818H13.4799V91.937H11.9473Z" fill="black"/>
<path d="M13.2286 91.937V90.3818H14.6076V91.937H13.2286Z" fill="black"/>
<path d="M14.2998 91.937V90.3818H14.9128V91.937H14.2998Z" fill="black"/>
<path d="M14.7377 91.937V90.3818H15.8102V91.937H14.7377Z" fill="black"/>
<path d="M15.6364 91.937V90.3818H17.0154V91.937H15.6364Z" fill="black"/>
<path d="M16.8033 91.937V90.3818H18.1822V91.937H16.8033Z" fill="black"/>
<path d="M17.9701 91.937V90.3818H19.5026V91.937H17.9701Z" fill="black"/>
<path d="M19.3282 91.937V90.3818H20.8608V91.937H19.3282Z" fill="black"/>
<path d="M20.5328 91.937V90.3818H21.1458V91.937H20.5328Z" fill="black"/>
<path d="M20.9707 91.937V90.3818H23.1163V91.937H20.9707Z" fill="black"/>
<path d="M22.8651 91.937V90.3818H23.9375V91.937H22.8651Z" fill="black"/>
<path d="M23.7638 91.937V90.3818H24.8362V91.937H23.7638Z" fill="black"/>
<path d="M24.5089 91.937V90.3818H26.0415V91.937H24.5089Z" fill="black"/>
<path d="M25.867 91.937V90.3818H26.4801V91.937H25.867Z" fill="black"/>
<path d="M26.305 91.937V90.3818H27.9911V91.937H26.305Z" fill="black"/>
<path d="M27.8356 91.937V90.3818H29.0609V91.937H27.8356Z" fill="black"/>
<path d="M28.8865 91.937V90.3818H30.2655V91.937H28.8865Z" fill="black"/>
<path d="M29.9577 91.937V90.3818H31.0301V91.937H29.9577Z" fill="black"/>
<path d="M30.7028 91.937V90.3818H32.2353V91.937H30.7028Z" fill="black"/>
<path d="M32.0609 91.937V90.3818H32.674V91.937H32.0609Z" fill="black"/>
<path d="M6 94.937V93.3818H7.68616V94.937H6Z" fill="black"/>
<path d="M7.58853 94.937V93.3818H8.81391V94.937H7.58853Z" fill="black"/>
<path d="M8.63948 94.937V93.3818H10.0185V94.937H8.63948Z" fill="black"/>
<path d="M9.71065 94.937V93.3818H11.2432V94.937H9.71065Z" fill="black"/>
<path d="M10.9152 94.937V93.3818H12.4478V94.937H10.9152Z" fill="black"/>
<path d="M12.1965 94.937V93.3818H12.9625V94.937H12.1965Z" fill="black"/>
<path d="M12.7113 94.937V93.3818H13.3243V94.937H12.7113Z" fill="black"/>
<path d="M13.1492 94.937V93.3818H14.6818V94.937H13.1492Z" fill="black"/>
<path d="M14.6609 94.937V93.3818H15.8863V94.937H14.6609Z" fill="black"/>
<path d="M15.7119 94.937V93.3818H17.2444V94.937H15.7119Z" fill="black"/>
<path d="M16.9932 94.937V93.3818H18.5258V94.937H16.9932Z" fill="black"/>
<path d="M18.3514 94.937V93.3818H19.7303V94.937H18.3514Z" fill="black"/>
<path d="M19.4791 94.937V93.3818H20.2451V94.937H19.4791Z" fill="black"/>
<path d="M20.0706 94.937V93.3818H21.4496V94.937H20.0706Z" fill="black"/>
<path d="M21.2375 94.937V93.3818H21.8505V94.937H21.2375Z" fill="black"/>
<path d="M6 97.937V96.3818H7.53256V97.937H6Z" fill="black"/>
<path d="M7.28134 97.937V96.3818H8.81391V97.937H7.28134Z" fill="black"/>
<path d="M8.48589 97.937V96.3818H9.86486V97.937H8.48589Z" fill="black"/>
<path d="M9.76723 97.937V96.3818H11.2998V97.937H9.76723Z" fill="black"/>
<path d="M10.9718 97.937V96.3818H12.0442V97.937H10.9718Z" fill="black"/>
<path d="M12.0241 97.937V96.3818H13.2495V97.937H12.0241Z" fill="black"/>
<path d="M13.2286 97.937V96.3818H14.6076V97.937H13.2286Z" fill="black"/>
<path d="M14.3564 97.937V96.3818H16.349V97.937H14.3564Z" fill="black"/>
<path d="M16.2508 97.937V96.3818H17.7833V97.937H16.2508Z" fill="black"/>
<path d="M17.6089 97.937V96.3818H18.9879V97.937H17.6089Z" fill="black"/>
<path d="M18.8134 97.937V96.3818H19.8859V97.937H18.8134Z" fill="black"/>
<path d="M19.5586 97.937V96.3818H20.9375V97.937H19.5586Z" fill="black"/>
<path d="M20.7254 97.937V96.3818H21.3384V97.937H20.7254Z" fill="black"/>
<path d="M21.1633 97.937V96.3818H22.5423V97.937H21.1633Z" fill="black"/>
<path d="M22.3301 97.937V96.3818H23.8627V97.937H22.3301Z" fill="black"/>
<path d="M23.8419 97.937V96.3818H25.0672V97.937H23.8419Z" fill="black"/>
<path d="M24.8928 97.937V96.3818H27.0384V97.937H24.8928Z" fill="black"/>
<path d="M26.7872 97.937V96.3818H27.4002V97.937H26.7872Z" fill="black"/>
<path d="M27.2251 97.937V96.3818H28.2976V97.937H27.2251Z" fill="black"/>
<path d="M27.9702 97.937V96.3818H29.5028V97.937H27.9702Z" fill="black"/>
<path d="M29.3284 97.937V96.3818H30.8609V97.937H29.3284Z" fill="black"/>
<path d="M30.6097 97.937V96.3818H31.6822V97.937H30.6097Z" fill="black"/>
<path d="M31.3548 97.937V96.3818H31.9679V97.937H31.3548Z" fill="black"/>
<path d="M6 100.937V99.3818H7.07246V100.937H6Z" fill="black"/>
<path d="M6.89871 100.937V99.3818H8.12409V100.937H6.89871Z" fill="black"/>
<path d="M7.94966 100.937V99.3818H9.48223V100.937H7.94966Z" fill="black"/>
<path d="M9.3078 100.937V99.3818H10.8404V100.937H9.3078Z" fill="black"/>
<path d="M10.6659 100.937V99.3818H12.1985V100.937H10.6659Z" fill="black"/>
<path d="M12.0241 100.937V99.3818H12.6371V100.937H12.0241Z" fill="black"/>
<path d="M12.462 100.937V99.3818H14.4547V100.937H12.462Z" fill="black"/>
<path d="M14.3564 100.937V99.3818H15.8889V100.937H14.3564Z" fill="black"/>
<path d="M15.7145 100.937V99.3818H16.787V100.937H15.7145Z" fill="black"/>
<path d="M16.6132 100.937V99.3818H17.6857V100.937H16.6132Z" fill="black"/>
<path d="M17.3583 100.937V99.3818H18.4308V100.937H17.3583Z" fill="black"/>
<path d="M18.2571 100.937V99.3818H19.3295V100.937H18.2571Z" fill="black"/>
<path d="M19.1558 100.937V99.3818H20.6883V100.937H19.1558Z" fill="black"/>
<path d="M20.4371 100.937V99.3818H21.5096V100.937H20.4371Z" fill="black"/>
<path d="M21.1822 100.937V99.3818H22.7148V100.937H21.1822Z" fill="black"/>
<path d="M22.3868 100.937V99.3818H23.7657V100.937H22.3868Z" fill="black"/>
<path d="M23.4202 100.937V99.3818H24.9528V100.937H23.4202Z" fill="black"/>
<path d="M24.7016 100.937V99.3818H25.774V100.937H24.7016Z" fill="black"/>
<path d="M25.6003 100.937V99.3818H26.2133V100.937H25.6003Z" fill="black"/>
<path d="M6 103.937V102.382H7.53256V103.937H6Z" fill="black"/>
<path d="M7.28134 103.937V102.382H8.3538V103.937H7.28134Z" fill="black"/>
<path d="M8.33365 103.937V102.382H9.71262V103.937H8.33365Z" fill="black"/>
<path d="M9.4614 103.937V102.382H10.5339V103.937H9.4614Z" fill="black"/>
<path d="M10.5137 103.937V102.382H11.7391V103.937H10.5137Z" fill="black"/>
<path d="M11.5647 103.937V102.382H13.5573V103.937H11.5647Z" fill="black"/>
<path d="M13.459 103.937V102.382H14.9916V103.937H13.459Z" fill="black"/>
<path d="M14.7404 103.937V102.382H16.1193V103.937H14.7404Z" fill="black"/>
<path d="M16.0217 103.937V102.382H17.4007V103.937H16.0217Z" fill="black"/>
<path d="M17.1495 103.937V102.382H17.7625V103.937H17.1495Z" fill="black"/>
<path d="M17.5874 103.937V102.382H18.9664V103.937H17.5874Z" fill="black"/>
<path d="M18.7151 103.937V102.382H20.2477V103.937H18.7151Z" fill="black"/>
<path d="M20.1501 103.937V102.382H21.529V103.937H20.1501Z" fill="black"/>
<path d="M21.3546 103.937V102.382H21.9676V103.937H21.3546Z" fill="black"/>
<path d="M21.9461 103.937V102.382H23.3251V103.937H21.9461Z" fill="black"/>
<path d="M23.0739 103.937V102.382H24.1464V103.937H23.0739Z" fill="black"/>
<path d="M23.9726 103.937V102.382H25.5052V103.937H23.9726Z" fill="black"/>
<path d="M25.1772 103.937V102.382H26.2496V103.937H25.1772Z" fill="black"/>
<path d="M26.0759 103.937V102.382H27.6084V103.937H26.0759Z" fill="black"/>
<path d="M27.3572 103.937V102.382H27.9702V103.937H27.3572Z" fill="black"/>
<path d="M6.15359 106.937V105.382H7.53256V106.937H6.15359Z" fill="black"/>
<path d="M7.28134 106.937V105.382H8.66031V106.937H7.28134Z" fill="black"/>
<path d="M8.5061 106.937V105.382H9.73148V106.937H8.5061Z" fill="black"/>
<path d="M9.55705 106.937V105.382H11.5497V106.937H9.55705Z" fill="black"/>
<path d="M11.4514 106.937V105.382H12.5239V106.937H11.4514Z" fill="black"/>
<path d="M12.3501 106.937V105.382H13.7291V106.937H12.3501Z" fill="black"/>
<path d="M13.517 106.937V105.382H14.5894V106.937H13.517Z" fill="black"/>
<path d="M14.5693 106.937V105.382H15.9482V106.937H14.5693Z" fill="black"/>
<path d="M15.7738 106.937V105.382H17.3064V106.937H15.7738Z" fill="black"/>
<path d="M17.1319 106.937V105.382H17.745V106.937H17.1319Z" fill="black"/>
<path d="M17.5699 106.937V105.382H18.9488V106.937H17.5699Z" fill="black"/>
<path d="M18.641 106.937V105.382H20.1736V106.937H18.641Z" fill="black"/>
<path d="M19.8456 106.937V105.382H21.2246V106.937H19.8456Z" fill="black"/>
<path d="M21.0124 106.937V105.382H22.545V106.937H21.0124Z" fill="black"/>
<path d="M22.3705 106.937V105.382H23.443V106.937H22.3705Z" fill="black"/>
<path d="M23.2693 106.937V105.382H24.3417V106.937H23.2693Z" fill="black"/>
<path d="M24.0144 106.937V105.382H25.3933V106.937H24.0144Z" fill="black"/>
<path d="M25.1812 106.937V105.382H25.9471V106.937H25.1812Z" fill="black"/>
<path d="M25.6959 106.937V105.382H26.4619V106.937H25.6959Z" fill="black"/>
<path d="M6.30651 7.83242H26.9322V7.90215H6.30651V7.83242ZM6.30651 10.8324H30.1666V10.9021H6.30651V10.8324ZM6.30651 13.8324H27.8713V13.9021H6.30651V13.8324ZM6.30651 16.8324H31.3757V16.9021H6.30651V16.8324ZM6.30651 19.8324H31.7693V19.9021H6.30651V19.8324ZM6.30651 22.8324H29.4181V22.9021H6.30651V22.8324ZM6.30651 25.8324H32.6928V25.9021H6.30651V25.8324ZM6.30651 28.8324H27.0871V28.9021H6.30651V28.8324ZM6.30651 31.8324H20.4546V31.9021H6.30651V31.8324ZM6.30651 34.8324H29.2483V34.9021H6.30651V34.8324ZM6.30651 37.8324H29.6485V37.9021H6.30651V37.8324ZM6.30651 40.8324H29.3595V40.9021H6.30651V40.8324ZM6.30651 43.8324H27.7385V43.9021H6.30651V43.8324ZM6.30651 46.8324H32.0765V46.9021H6.30651V46.8324ZM6.30651 49.8324H31.1245V49.9021H6.30651V49.8324ZM6.30651 52.8324H31.3698V52.9021H6.30651V52.8324ZM6.30651 55.8324H28.8656V55.9021H6.30651V55.8324ZM6.30651 58.8324H30.7183V58.9021H6.30651V58.8324ZM6.30651 61.8324H26.8444V61.9021H6.30651V61.8324ZM6.30651 64.8324H28.9465V64.9021H6.30651V64.8324ZM6.30651 67.8324H32.4409V67.9021H6.30651V67.8324ZM6.30651 70.8324H31.6918V70.9021H6.30651V70.8324ZM6.30651 73.8324H30.054V73.9021H6.30651V73.8324ZM6.30651 76.8324H28.675V76.9021H6.30651V76.8324ZM28.6757 77.112H30.0553V77.182H28.6757V77.112ZM6.30651 79.8324H27.0696V79.9021H6.30651V79.8324ZM27.0696 80.112H28.1057V80.182H27.0696V80.112ZM6.30651 82.8324H30.9365V82.9021H6.30651V82.8324ZM6.30651 85.8324H24.0057V85.9021H6.30651V85.8324ZM6.30651 88.8324H27.5277V88.9021H6.30651V88.8324ZM6.30651 91.8324H32.3674V91.9021H6.30651V91.8324ZM6.30651 94.8324H21.5433V94.9021H6.30651V94.8324ZM6.30651 97.8324H31.6607V97.9021H6.30651V97.8324ZM6.30651 100.832H25.9061V100.902H6.30651V100.832ZM6.30651 103.832H27.6637V103.902H6.30651V103.832ZM6.30651 106.832H26.6491V106.902H6.30651V106.832Z" fill="black"/>
</g>
<rect width="12" height="14" transform="translate(25 97.937)" fill="white"/>
<path d="M30.6787 101.798C31.5999 101.798 32.2721 101.997 32.6953 102.394C33.1185 102.788 33.3301 103.332 33.3301 104.025C33.3301 104.337 33.2829 104.637 33.1885 104.923C33.0941 105.207 32.9395 105.459 32.7246 105.68C32.513 105.902 32.2298 106.077 31.875 106.208C31.5202 106.334 31.0824 106.398 30.5615 106.398H29.9121V108.937H28.3984V101.798H30.6787ZM30.6006 103.039H29.9121V105.158H30.4102C30.6934 105.158 30.9391 105.12 31.1475 105.045C31.3558 104.971 31.5169 104.853 31.6309 104.694C31.7448 104.534 31.8018 104.329 31.8018 104.079C31.8018 103.727 31.7041 103.467 31.5088 103.297C31.3135 103.125 31.0107 103.039 30.6006 103.039Z" fill="#585858"/>
</g>
<path d="M11.3333 117.937H2V124.285H11.3333V117.937Z" fill="#E1C278"/>
<path d="M21.6663 117.937H12.333V124.285H21.6663V117.937Z" fill="#7FA4CA"/>
</g>
<defs>
<filter id="filter0_d_39_124700" x="0" y="1.38184" width="39" height="114.555" filterUnits="userSpaceOnUse" color-interpolation-filters="sRGB">
<feFlood flood-opacity="0" result="BackgroundImageFix"/>
<feColorMatrix in="SourceAlpha" type="matrix" values="0 0 0 0 0 0 0 0 0 0 0 0 0 0 0 0 0 0 127 0" result="hardAlpha"/>
<feOffset dy="1"/>
<feGaussianBlur stdDeviation="1"/>
<feComposite in2="hardAlpha" operator="out"/>
<feColorMatrix type="matrix" values="0 0 0 0 0 0 0 0 0 0 0 0 0 0 0 0 0 0 0.1 0"/>
<feBlend mode="normal" in2="BackgroundImageFix" result="effect1_dropShadow_39_124700"/>
<feBlend mode="normal" in="SourceGraphic" in2="effect1_dropShadow_39_124700" result="shape"/>
</filter>
<clipPath id="clip0_39_124700">
<rect width="39" height="125.903" fill="white" transform="translate(0 0.381836)"/>
</clipPath>
</defs>
</svg>
