<svg width="41" height="49" viewBox="0 0 41 49" fill="none" xmlns="http://www.w3.org/2000/svg">
<rect width="41" height="49" fill=""/>
<rect width="35" height="32.5552" transform="translate(3 2.90332)" fill="white"/>
<path opacity="0.3" d="M33.6195 6.90845H7.01953V8.45845H34.0195V6.90845H33.6195Z" fill="black"/>
<path opacity="0.3" d="M28.5997 9.90845H7.17969V11.4584H29.1797V9.90845H28.5997Z" fill="black"/>
<path opacity="0.3" d="M8.39954 14.4584H18.3095V12.9084H7.01953V14.4584H8.39954Z" fill="black"/>
<path opacity="0.3" d="M27.9794 12.9084H18.3594V14.4584H31.1594V12.9084H27.9794Z" fill="black"/>
<path opacity="0.3" d="M8.09953 17.4584H32.3295V15.9084H7.01953V17.4584H8.09953Z" fill="black"/>
<path opacity="0.3" d="M8.09953 20.4584H33.4095V18.9084H7.01953V20.4584H8.09953Z" fill="black"/>
<path opacity="0.3" d="M33.0098 21.9084H7.00977V23.4584H33.6098V21.9084H33.0098Z" fill="black"/>
<path opacity="0.3" d="M8.56 26.4584H14.56V24.9084H7V26.4584H8.56Z" fill="black"/>
<path opacity="0.3" d="M32.5898 24.9084H14.5898V26.4584H33.1598V24.9084H32.5898Z" fill="black"/>
<path opacity="0.3" d="M15.3995 27.9084H7.01953V29.4584H16.7795V27.9084H15.3995Z" fill="black"/>
<rect width="12" height="14" transform="translate(26 20.4585)" fill="white"/>
<path d="M31.6787 24.3198C32.5999 24.3198 33.2721 24.5184 33.6953 24.9155C34.1185 25.3094 34.3301 25.853 34.3301 26.5464C34.3301 26.8589 34.2829 27.1584 34.1885 27.4448C34.0941 27.728 33.9395 27.9803 33.7246 28.2017C33.513 28.423 33.2298 28.5988 32.875 28.729C32.5202 28.856 32.0824 28.9194 31.5615 28.9194H30.9121V31.4585H29.3984V24.3198H31.6787ZM31.6006 25.5601H30.9121V27.6792H31.4102C31.6934 27.6792 31.9391 27.6418 32.1475 27.5669C32.3558 27.492 32.5169 27.3748 32.6309 27.2153C32.7448 27.0558 32.8018 26.8507 32.8018 26.6001C32.8018 26.2485 32.7041 25.9881 32.5088 25.8188C32.3135 25.6463 32.0107 25.5601 31.6006 25.5601Z" fill="#585858"/>
<rect x="1" y="0.90332" width="39" height="36.5552" stroke="#364B60"/>
<path d="M12.3333 40.4585H3V46.8066H12.3333V40.4585Z" fill="#7FA4CA"/>
</svg>
