<svg width="39" height="51" viewBox="0 0 39 51" fill="none" xmlns="http://www.w3.org/2000/svg">
<rect width="39" height="51" fill=""/>
<g clip-path="url(#clip0_39_124700)">
<g filter="url(#filter0_d_39_124700)">
<rect width="35" height="35.5552" transform="translate(2 2)" fill="white"/>
<g opacity="0.3">
<rect width="35" height="33.55" transform="translate(2 2.00513)" fill="white"/>
<path d="M32.56 6.00513H6V7.55513H33V6.00513H32.56Z" fill="black"/>
<path d="M7.71015 10.5551H24.0302V9.00513H6.16016V10.5551H7.71015Z" fill="black"/>
<path d="M31.76 12.0051H6V13.5551H32.38V12.0051H31.76Z" fill="black"/>
<path d="M7.55 16.5551H30.09V15.0051H6V16.5551H7.55Z" fill="black"/>
<path d="M31.1504 18.0051H6.15039V19.5551H31.1504V18.0051Z" fill="black"/>
<path d="M30.4902 21.0051H6.16016V22.5551H31.1602V21.0051H30.4902Z" fill="black"/>
<path d="M31.11 24.0051H6V25.5551H31.73V24.0051H31.11Z" fill="black"/>
<path d="M31.09 27.0051H14.48V28.4551H14.42V27.0051H6V28.5551H14.42H14.48H31.71V27.0051H31.09Z" fill="black"/>
<path d="M30.09 30.0051H6V31.5551H30.09H30.28V31.4851H30.09V30.0051Z" fill="black"/>
</g>
<rect width="12" height="14" transform="translate(25 22.5552)" fill="white"/>
<path d="M30.6787 26.4165C31.5999 26.4165 32.2721 26.6151 32.6953 27.0122C33.1185 27.4061 33.3301 27.9497 33.3301 28.6431C33.3301 28.9556 33.2829 29.255 33.1885 29.5415C33.0941 29.8247 32.9395 30.077 32.7246 30.2983C32.513 30.5197 32.2298 30.6955 31.875 30.8257C31.5202 30.9526 31.0824 31.0161 30.5615 31.0161H29.9121V33.5552H28.3984V26.4165H30.6787ZM30.6006 27.6567H29.9121V29.7759H30.4102C30.6934 29.7759 30.9391 29.7384 31.1475 29.6636C31.3558 29.5887 31.5169 29.4715 31.6309 29.312C31.7448 29.1525 31.8018 28.9474 31.8018 28.6968C31.8018 28.3452 31.7041 28.0848 31.5088 27.9155C31.3135 27.743 31.0107 27.6567 30.6006 27.6567Z" fill="#585858"/>
</g>
<path d="M11.3333 42.5552H2V48.9033H11.3333V42.5552Z" fill="#E1C278"/>
</g>
<defs>
<filter id="filter0_d_39_124700" x="0" y="1" width="39" height="39.5552" filterUnits="userSpaceOnUse" color-interpolation-filters="sRGB">
<feFlood flood-opacity="0" result="BackgroundImageFix"/>
<feColorMatrix in="SourceAlpha" type="matrix" values="0 0 0 0 0 0 0 0 0 0 0 0 0 0 0 0 0 0 127 0" result="hardAlpha"/>
<feOffset dy="1"/>
<feGaussianBlur stdDeviation="1"/>
<feComposite in2="hardAlpha" operator="out"/>
<feColorMatrix type="matrix" values="0 0 0 0 0 0 0 0 0 0 0 0 0 0 0 0 0 0 0.1 0"/>
<feBlend mode="normal" in2="BackgroundImageFix" result="effect1_dropShadow_39_124700"/>
<feBlend mode="normal" in="SourceGraphic" in2="effect1_dropShadow_39_124700" result="shape"/>
</filter>
<clipPath id="clip0_39_124700">
<rect width="39" height="50.9033" fill="white"/>
</clipPath>
</defs>
</svg>
