<svg width="39" height="85" viewBox="0 0 39 85" fill="none" xmlns="http://www.w3.org/2000/svg">
<rect width="39" height="85" fill=""/>
<g clip-path="url(#clip0_39_124700)">
<g filter="url(#filter0_d_39_124700)">
<rect width="35" height="68.5552" transform="translate(2 2.89062)" fill="white"/>
<g opacity="0.3">
<rect width="35" height="66.5552" transform="translate(2 2.89062)" fill="white"/>
<path d="M6 8.4458V6.89062H6.76328V8.4458H6Z" fill="black"/>
<path d="M6.58946 8.4458V6.89062H7.20035V8.4458H6.58946Z" fill="black"/>
<path d="M7.17893 8.4458V6.89062H9.31705V8.4458H7.17893Z" fill="black"/>
<path d="M9.10429 8.4458V6.89062H10.6315V8.4458H9.10429Z" fill="black"/>
<path d="M10.4577 8.4458V6.89062H11.9849V8.4458H10.4577Z" fill="black"/>
<path d="M11.7346 8.4458V6.89062H12.8033V8.4458H11.7346Z" fill="black"/>
<path d="M12.4771 8.4458V6.89062H13.2404V8.4458H12.4771Z" fill="black"/>
<path d="M13.0666 8.4458V6.89062H13.6775V8.4458H13.0666Z" fill="black"/>
<path d="M13.503 8.4458V6.89062H14.1139V8.4458H13.503Z" fill="black"/>
<path d="M13.9394 8.4458V6.89062H15.0081V8.4458H13.9394Z" fill="black"/>
<path d="M14.6819 8.4458V6.89062H16.2091V8.4458H14.6819Z" fill="black"/>
<path d="M16.0353 8.4458V6.89062H17.5625V8.4458H16.0353Z" fill="black"/>
<path d="M17.2357 8.4458V6.89062H17.8466V8.4458H17.2357Z" fill="black"/>
<path d="M17.8251 8.4458V6.89062H19.3524V8.4458H17.8251Z" fill="black"/>
<path d="M19.0443 8.4458V6.89062H20.4185V8.4458H19.0443Z" fill="black"/>
<path d="M20.1117 8.4458V6.89062H21.639V8.4458H20.1117Z" fill="black"/>
<path d="M21.3121 8.4458V6.89062H22.6862V8.4458H21.3121Z" fill="black"/>
<path d="M22.4748 8.4458V6.89062H23.5436V8.4458H22.4748Z" fill="black"/>
<path d="M23.3704 8.4458V6.89062H24.8976V8.4458H23.3704Z" fill="black"/>
<path d="M24.6473 8.4458V6.89062H26.1745V8.4458H24.6473Z" fill="black"/>
<path d="M26.0007 8.4458V6.89062H27.3749V8.4458H26.0007Z" fill="black"/>
<path d="M27.2011 8.4458V6.89062H28.2698V8.4458H27.2011Z" fill="black"/>
<path d="M27.9436 8.4458V6.89062H28.7069V8.4458H27.9436Z" fill="black"/>
<path d="M28.5331 8.4458V6.89062H29.1439V8.4458H28.5331Z" fill="black"/>
<path d="M6 11.4458V9.89062H7.52723V11.4458H6Z" fill="black"/>
<path d="M7.35341 11.4458V9.89062H8.42214V11.4458H7.35341Z" fill="black"/>
<path d="M8.24899 11.4458V9.89062H10.2347V11.4458H8.24899Z" fill="black"/>
<path d="M10.1368 11.4458V9.89062H11.5109V11.4458H10.1368Z" fill="black"/>
<path d="M11.2995 11.4458V9.89062H12.8268V11.4458H11.2995Z" fill="black"/>
<path d="M12.4999 11.4458V9.89062H13.5686V11.4458H12.4999Z" fill="black"/>
<path d="M13.3955 11.4458V9.89062H14.6172V11.4458H13.3955Z" fill="black"/>
<path d="M14.291 11.4458V9.89062H14.9019V11.4458H14.291Z" fill="black"/>
<path d="M14.7274 11.4458V9.89062H16.2547V11.4458H14.7274Z" fill="black"/>
<path d="M16.0809 11.4458V9.89062H17.6081V11.4458H16.0809Z" fill="black"/>
<path d="M17.3577 11.4458V9.89062H18.7319V11.4458H17.3577Z" fill="black"/>
<path d="M18.5205 11.4458V9.89062H19.1314V11.4458H18.5205Z" fill="black"/>
<path d="M18.9569 11.4458V9.89062H20.3311V11.4458H18.9569Z" fill="black"/>
<path d="M20.1197 11.4458V9.89062H21.6469V11.4458H20.1197Z" fill="black"/>
<path d="M21.3966 11.4458V9.89062H22.4653V11.4458H21.3966Z" fill="black"/>
<path d="M22.2921 11.4458V9.89062H23.8194V11.4458H22.2921Z" fill="black"/>
<path d="M23.569 11.4458V9.89062H24.3323V11.4458H23.569Z" fill="black"/>
<path d="M24.082 11.4458V9.89062H24.6928V11.4458H24.082Z" fill="black"/>
<path d="M24.5184 11.4458V9.89062H26.6565V11.4458H24.5184Z" fill="black"/>
<path d="M26.4061 11.4458V9.89062H27.9334V11.4458H26.4061Z" fill="black"/>
<path d="M27.7595 11.4458V9.89062H28.8283V11.4458H27.7595Z" fill="black"/>
<path d="M28.6551 11.4458V9.89062H30.0293V11.4458H28.6551Z" fill="black"/>
<path d="M29.7789 11.4458V9.89062H31.3062V11.4458H29.7789Z" fill="black"/>
<path d="M31.1324 11.4458V9.89062H31.7433V11.4458H31.1324Z" fill="black"/>
<path d="M6 14.4458V12.8906H7.06872V14.4458H6Z" fill="black"/>
<path d="M6.89558 14.4458V12.8906H8.26975V14.4458H6.89558Z" fill="black"/>
<path d="M8.05834 14.4458V12.8906H8.66923V14.4458H8.05834Z" fill="black"/>
<path d="M8.49475 14.4458V12.8906H9.56347V14.4458H8.49475Z" fill="black"/>
<path d="M9.23727 14.4458V12.8906H10.7645V14.4458H9.23727Z" fill="black"/>
<path d="M10.5907 14.4458V12.8906H12.1179V14.4458H10.5907Z" fill="black"/>
<path d="M11.8676 14.4458V12.8906H12.9363V14.4458H11.8676Z" fill="black"/>
<path d="M12.6101 14.4458V12.8906H13.221V14.4458H12.6101Z" fill="black"/>
<path d="M13.0465 14.4458V12.8906H14.1152V14.4458H13.0465Z" fill="black"/>
<path d="M13.789 14.4458V12.8906H15.3162V14.4458H13.789Z" fill="black"/>
<path d="M15.1424 14.4458V12.8906H16.6697V14.4458H15.1424Z" fill="black"/>
<path d="M16.3428 14.4458V12.8906H17.7169V14.4458H16.3428Z" fill="black"/>
<path d="M17.4102 14.4458V12.8906H18.9374V14.4458H17.4102Z" fill="black"/>
<path d="M18.6106 14.4458V12.8906H19.2215V14.4458H18.6106Z" fill="black"/>
<path d="M19.047 14.4458V12.8906H20.1157V14.4458H19.047Z" fill="black"/>
<path d="M19.9426 14.4458V12.8906H21.3167V14.4458H19.9426Z" fill="black"/>
<path d="M21.1053 14.4458V12.8906H21.7162V14.4458H21.1053Z" fill="black"/>
<path d="M21.6948 14.4458V12.8906H23.0689V14.4458H21.6948Z" fill="black"/>
<path d="M23.0482 14.4458V12.8906H24.2693V14.4458H23.0482Z" fill="black"/>
<path d="M24.0955 14.4458V12.8906H24.7064V14.4458H24.0955Z" fill="black"/>
<path d="M6 17.4458V15.8906H7.06872V17.4458H6Z" fill="black"/>
<path d="M7.04864 17.4458V15.8906H8.42281V17.4458H7.04864Z" fill="black"/>
<path d="M8.24899 17.4458V15.8906H9.31772V17.4458H8.24899Z" fill="black"/>
<path d="M8.99151 17.4458V15.8906H10.5187V17.4458H8.99151Z" fill="black"/>
<path d="M10.3449 17.4458V15.8906H11.7191V17.4458H10.3449Z" fill="black"/>
<path d="M11.5453 17.4458V15.8906H12.614V17.4458H11.5453Z" fill="black"/>
<path d="M12.2878 17.4458V15.8906H13.3565V17.4458H12.2878Z" fill="black"/>
<path d="M13.3364 17.4458V15.8906H14.5576V17.4458H13.3364Z" fill="black"/>
<path d="M14.5368 17.4458V15.8906H15.911V17.4458H14.5368Z" fill="black"/>
<path d="M15.7372 17.4458V15.8906H16.348V17.4458H15.7372Z" fill="black"/>
<path d="M16.1736 17.4458V15.8906H17.2423V17.4458H16.1736Z" fill="black"/>
<path d="M17.0691 17.4458V15.8906H18.2902V17.4458H17.0691Z" fill="black"/>
<path d="M18.1164 17.4458V15.8906H18.7273V17.4458H18.1164Z" fill="black"/>
<path d="M18.5528 17.4458V15.8906H19.6216V17.4458H18.5528Z" fill="black"/>
<path d="M19.6015 17.4458V15.8906H20.9756V17.4458H19.6015Z" fill="black"/>
<path d="M20.7253 17.4458V15.8906H22.0995V17.4458H20.7253Z" fill="black"/>
<path d="M21.9257 17.4458V15.8906H23.4529V17.4458H21.9257Z" fill="black"/>
<path d="M23.2025 17.4458V15.8906H24.7298V17.4458H23.2025Z" fill="black"/>
<path d="M24.4794 17.4458V15.8906H26.0066V17.4458H24.4794Z" fill="black"/>
<path d="M25.6798 17.4458V15.8906H26.2907V17.4458H25.6798Z" fill="black"/>
<path d="M26.1162 17.4458V15.8906H27.7965V17.4458H26.1162Z" fill="black"/>
<path d="M27.6414 17.4458V15.8906H28.8626V17.4458H27.6414Z" fill="black"/>
<path d="M28.6887 17.4458V15.8906H30.0629V17.4458H28.6887Z" fill="black"/>
<path d="M29.7562 17.4458V15.8906H30.8249V17.4458H29.7562Z" fill="black"/>
<path d="M30.4987 17.4458V15.8906H32.0259V17.4458H30.4987Z" fill="black"/>
<path d="M31.8521 17.4458V15.8906H32.463V17.4458H31.8521Z" fill="black"/>
<path d="M6 20.4458V18.8906H7.68029V20.4458H6Z" fill="black"/>
<path d="M7.583 20.4458V18.8906H8.80411V20.4458H7.583Z" fill="black"/>
<path d="M8.6303 20.4458V18.8906H10.0045V20.4458H8.6303Z" fill="black"/>
<path d="M9.69773 20.4458V18.8906H11.225V20.4458H9.69773Z" fill="black"/>
<path d="M10.8981 20.4458V18.8906H12.4253V20.4458H10.8981Z" fill="black"/>
<path d="M12.175 20.4458V18.8906H12.9382V20.4458H12.175Z" fill="black"/>
<path d="M12.6879 20.4458V18.8906H13.2988V20.4458H12.6879Z" fill="black"/>
<path d="M13.1243 20.4458V18.8906H14.6515V20.4458H13.1243Z" fill="black"/>
<path d="M14.4965 20.4458V18.8906H16.0237V20.4458H14.4965Z" fill="black"/>
<path d="M15.8499 20.4458V18.8906H16.9187V20.4458H15.8499Z" fill="black"/>
<path d="M16.5925 20.4458V18.8906H17.2033V20.4458H16.5925Z" fill="black"/>
<path d="M17.0289 20.4458V18.8906H18.0976V20.4458H17.0289Z" fill="black"/>
<path d="M17.7714 20.4458V18.8906H19.2986V20.4458H17.7714Z" fill="black"/>
<path d="M19.1248 20.4458V18.8906H20.652V20.4458H19.1248Z" fill="black"/>
<path d="M20.3251 20.4458V18.8906H20.936V20.4458H20.3251Z" fill="black"/>
<path d="M20.9146 20.4458V18.8906H22.4418V20.4458H20.9146Z" fill="black"/>
<path d="M22.1338 20.4458V18.8906H23.5079V20.4458H22.1338Z" fill="black"/>
<path d="M23.2012 20.4458V18.8906H24.7284V20.4458H23.2012Z" fill="black"/>
<path d="M24.4016 20.4458V18.8906H25.7757V20.4458H24.4016Z" fill="black"/>
<path d="M25.5643 20.4458V18.8906H26.633V20.4458H25.5643Z" fill="black"/>
<path d="M26.4599 20.4458V18.8906H27.9871V20.4458H26.4599Z" fill="black"/>
<path d="M27.7368 20.4458V18.8906H29.264V20.4458H27.7368Z" fill="black"/>
<path d="M29.0902 20.4458V18.8906H30.4644V20.4458H29.0902Z" fill="black"/>
<path d="M30.2905 20.4458V18.8906H31.3593V20.4458H30.2905Z" fill="black"/>
<path d="M31.0331 20.4458V18.8906H31.644V20.4458H31.0331Z" fill="black"/>
<path d="M6 23.4458V21.8906H7.06872V23.4458H6Z" fill="black"/>
<path d="M6.89558 23.4458V21.8906H8.26975V23.4458H6.89558Z" fill="black"/>
<path d="M8.05834 23.4458V21.8906H8.66923V23.4458H8.05834Z" fill="black"/>
<path d="M8.49475 23.4458V21.8906H9.86892V23.4458H8.49475Z" fill="black"/>
<path d="M9.77163 23.4458V21.8906H11.2989V23.4458H9.77163Z" fill="black"/>
<path d="M10.972 23.4458V21.8906H12.3462V23.4458H10.972Z" fill="black"/>
<path d="M12.1925 23.4458V21.8906H13.5666V23.4458H12.1925Z" fill="black"/>
<path d="M13.3163 23.4458V21.8906H13.9272V23.4458H13.3163Z" fill="black"/>
<path d="M13.7527 23.4458V21.8906H15.1269V23.4458H13.7527Z" fill="black"/>
<path d="M15.0296 23.4458V21.8906H16.2507V23.4458H15.0296Z" fill="black"/>
<path d="M16.0769 23.4458V21.8906H18.0626V23.4458H16.0769Z" fill="black"/>
<path d="M17.9647 23.4458V21.8906H19.9504V23.4458H17.9647Z" fill="black"/>
<path d="M19.8524 23.4458V21.8906H20.9212V23.4458H19.8524Z" fill="black"/>
<path d="M20.748 23.4458V21.8906H21.8167V23.4458H20.748Z" fill="black"/>
<path d="M21.4905 23.4458V21.8906H22.5593V23.4458H21.4905Z" fill="black"/>
<path d="M22.2331 23.4458V21.8906H23.7603V23.4458H22.2331Z" fill="black"/>
<path d="M23.4334 23.4458V21.8906H24.9606V23.4458H23.4334Z" fill="black"/>
<path d="M24.7103 23.4458V21.8906H25.3212V23.4458H24.7103Z" fill="black"/>
<path d="M25.1467 23.4458V21.8906H26.2154V23.4458H25.1467Z" fill="black"/>
<path d="M26.0423 23.4458V21.8906H27.2634V23.4458H26.0423Z" fill="black"/>
<path d="M27.0896 23.4458V21.8906H27.7005V23.4458H27.0896Z" fill="black"/>
<path d="M27.526 23.4458V21.8906H28.5947V23.4458H27.526Z" fill="black"/>
<path d="M28.2685 23.4458V21.8906H29.7957V23.4458H28.2685Z" fill="black"/>
<path d="M29.6219 23.4458V21.8906H31.1491V23.4458H29.6219Z" fill="black"/>
<path d="M30.8223 23.4458V21.8906H31.4332V23.4458H30.8223Z" fill="black"/>
<path d="M6 26.4458V24.8906H7.37417V26.4458H6Z" fill="black"/>
<path d="M7.16276 26.4458V24.8906H8.23149V26.4458H7.16276Z" fill="black"/>
<path d="M8.05834 26.4458V24.8906H9.58557V26.4458H8.05834Z" fill="black"/>
<path d="M9.33522 26.4458V24.8906H10.0985V26.4458H9.33522Z" fill="black"/>
<path d="M10.0777 26.4458V24.8906H11.4519V26.4458H10.0777Z" fill="black"/>
<path d="M11.2016 26.4458V24.8906H12.7288V26.4458H11.2016Z" fill="black"/>
<path d="M12.4785 26.4458V24.8906H13.8526V26.4458H12.4785Z" fill="black"/>
<path d="M13.5459 26.4458V24.8906H14.6146V26.4458H13.5459Z" fill="black"/>
<path d="M14.4415 26.4458V24.8906H15.8156V26.4458H14.4415Z" fill="black"/>
<path d="M15.5653 26.4458V24.8906H16.1762V26.4458H15.5653Z" fill="black"/>
<path d="M16.0017 26.4458V24.8906H17.0704V26.4458H16.0017Z" fill="black"/>
<path d="M16.7442 26.4458V24.8906H18.2715V26.4458H16.7442Z" fill="black"/>
<path d="M18.0211 26.4458V24.8906H19.0898V26.4458H18.0211Z" fill="black"/>
<path d="M18.9167 26.4458V24.8906H20.4439V26.4458H18.9167Z" fill="black"/>
<path d="M20.2325 26.4458V24.8906H21.6067V26.4458H20.2325Z" fill="black"/>
<path d="M21.3953 26.4458V24.8906H22.1585V26.4458H21.3953Z" fill="black"/>
<path d="M21.9082 26.4458V24.8906H22.5191V26.4458H21.9082Z" fill="black"/>
<path d="M22.4977 26.4458V24.8906H23.8718V26.4458H22.4977Z" fill="black"/>
<path d="M23.545 26.4458V24.8906H25.0722V26.4458H23.545Z" fill="black"/>
<path d="M24.7453 26.4458V24.8906H25.814V26.4458H24.7453Z" fill="black"/>
<path d="M25.6409 26.4458V24.8906H26.7096V26.4458H25.6409Z" fill="black"/>
<path d="M26.5365 26.4458V24.8906H28.0637V26.4458H26.5365Z" fill="black"/>
<path d="M27.7368 26.4458V24.8906H29.111V26.4458H27.7368Z" fill="black"/>
<path d="M29.0137 26.4458V24.8906H30.5409V26.4458H29.0137Z" fill="black"/>
<path d="M30.2141 26.4458V24.8906H31.5882V26.4458H30.2141Z" fill="black"/>
<path d="M31.3768 26.4458V24.8906H31.9877V26.4458H31.3768Z" fill="black"/>
<path d="M6 29.4458V27.8906H7.06872V29.4458H6Z" fill="black"/>
<path d="M6.74252 29.4458V27.8906H8.26975V29.4458H6.74252Z" fill="black"/>
<path d="M8.09593 29.4458V27.8906H9.62316V29.4458H8.09593Z" fill="black"/>
<path d="M9.37282 29.4458V27.8906H10.4415V29.4458H9.37282Z" fill="black"/>
<path d="M10.1153 29.4458V27.8906H10.7262V29.4458H10.1153Z" fill="black"/>
<path d="M10.5517 29.4458V27.8906H11.6205V29.4458H10.5517Z" fill="black"/>
<path d="M11.4473 29.4458V27.8906H12.516V29.4458H11.4473Z" fill="black"/>
<path d="M12.1898 29.4458V27.8906H12.8007V29.4458H12.1898Z" fill="black"/>
<path d="M12.6263 29.4458V27.8906H13.695V29.4458H12.6263Z" fill="black"/>
<path d="M13.5218 29.4458V27.8906H14.896V29.4458H13.5218Z" fill="black"/>
<path d="M14.6846 29.4458V27.8906H15.2955V29.4458H14.6846Z" fill="black"/>
<path d="M15.121 29.4458V27.8906H16.1897V29.4458H15.121Z" fill="black"/>
<path d="M15.8635 29.4458V27.8906H17.3907V29.4458H15.8635Z" fill="black"/>
<path d="M17.2169 29.4458V27.8906H18.7442V29.4458H17.2169Z" fill="black"/>
<path d="M18.4173 29.4458V27.8906H19.0282V29.4458H18.4173Z" fill="black"/>
<path d="M18.8537 29.4458V27.8906H20.0755V29.4458H18.8537Z" fill="black"/>
<path d="M19.9023 29.4458V27.8906H21.1234V29.4458H19.9023Z" fill="black"/>
<path d="M20.9496 29.4458V27.8906H22.3238V29.4458H20.9496Z" fill="black"/>
<path d="M22.0171 29.4458V27.8906H23.5443V29.4458H22.0171Z" fill="black"/>
<path d="M23.3705 29.4458V27.8906H25.3562V29.4458H23.3705Z" fill="black"/>
<path d="M25.2582 29.4458V27.8906H25.8691V29.4458H25.2582Z" fill="black"/>
<path d="M25.6947 29.4458V27.8906H26.7634V29.4458H25.6947Z" fill="black"/>
<path d="M26.7433 29.4458V27.8906H28.1175V29.4458H26.7433Z" fill="black"/>
<path d="M27.9436 29.4458V27.8906H28.5545V29.4458H27.9436Z" fill="black"/>
<path d="M6 32.4458V30.8906H8.13812V32.4458H6Z" fill="black"/>
<path d="M7.88777 32.4458V30.8906H9.415V32.4458H7.88777Z" fill="black"/>
<path d="M9.24119 32.4458V30.8906H10.3099V32.4458H9.24119Z" fill="black"/>
<path d="M10.1368 32.4458V30.8906H11.5109V32.4458H10.1368Z" fill="black"/>
<path d="M11.2606 32.4458V30.8906H12.7878V32.4458H11.2606Z" fill="black"/>
<path d="M12.614 32.4458V30.8906H13.2249V32.4458H12.614Z" fill="black"/>
<path d="M13.0504 32.4458V30.8906H15.1885V32.4458H13.0504Z" fill="black"/>
<path d="M14.9382 32.4458V30.8906H16.4654V32.4458H14.9382Z" fill="black"/>
<path d="M16.1385 32.4458V30.8906H16.7494V32.4458H16.1385Z" fill="black"/>
<path d="M16.5749 32.4458V30.8906H18.1022V32.4458H16.5749Z" fill="black"/>
<path d="M17.8518 32.4458V30.8906H19.226V32.4458H17.8518Z" fill="black"/>
<path d="M18.9193 32.4458V30.8906H20.4465V32.4458H18.9193Z" fill="black"/>
<path d="M20.1196 32.4458V30.8906H20.7305V32.4458H20.1196Z" fill="black"/>
<path d="M20.556 32.4458V30.8906H22.5418V32.4458H20.556Z" fill="black"/>
<path d="M22.5969 32.4458V30.8906H23.818V32.4458H22.5969Z" fill="black"/>
<path d="M23.6442 32.4458V30.8906H25.0183V32.4458H23.6442Z" fill="black"/>
<path d="M24.8069 32.4458V30.8906H25.8756V32.4458H24.8069Z" fill="black"/>
<path d="M25.5494 32.4458V30.8906H26.1603V32.4458H25.5494Z" fill="black"/>
<path d="M25.9858 32.4458V30.8906H27.0546V32.4458H25.9858Z" fill="black"/>
<path d="M26.8814 32.4458V30.8906H27.9501V32.4458H26.8814Z" fill="black"/>
<path d="M27.777 32.4458V30.8906H29.3042V32.4458H27.777Z" fill="black"/>
<path d="M29.0928 32.4458V30.8906H30.62V32.4458H29.0928Z" fill="black"/>
<path d="M30.2932 32.4458V30.8906H31.3619V32.4458H30.2932Z" fill="black"/>
<path d="M31.2653 32.4458V30.8906H32.6395V32.4458H31.2653Z" fill="black"/>
<path d="M32.3891 32.4458V30.8906H33V32.4458H32.3891Z" fill="black"/>
<path d="M6 35.4458V33.8906H7.06872V35.4458H6Z" fill="black"/>
<path d="M6.89558 35.4458V33.8906H8.11669V35.4458H6.89558Z" fill="black"/>
<path d="M7.94288 35.4458V33.8906H8.55377V35.4458H7.94288Z" fill="black"/>
<path d="M8.37928 35.4458V33.8906H9.90651V35.4458H8.37928Z" fill="black"/>
<path d="M9.73269 35.4458V33.8906H11.2599V35.4458H9.73269Z" fill="black"/>
<path d="M10.933 35.4458V33.8906H12.0018V35.4458H10.933Z" fill="black"/>
<path d="M11.6756 35.4458V33.8906H12.2865V35.4458H11.6756Z" fill="black"/>
<path d="M12.112 35.4458V33.8906H13.6392V35.4458H12.112Z" fill="black"/>
<path d="M13.3889 35.4458V33.8906H13.9997V35.4458H13.3889Z" fill="black"/>
<path d="M13.8253 35.4458V33.8906H15.1994V35.4458H13.8253Z" fill="black"/>
<path d="M14.988 35.4458V33.8906H16.5153V35.4458H14.988Z" fill="black"/>
<path d="M16.2649 35.4458V33.8906H17.3336V35.4458H16.2649Z" fill="black"/>
<path d="M17.0074 35.4458V33.8906H18.0762V35.4458H17.0074Z" fill="black"/>
<path d="M17.903 35.4458V33.8906H19.2772V35.4458H17.903Z" fill="black"/>
<path d="M19.0658 35.4458V33.8906H20.2876V35.4458H19.0658Z" fill="black"/>
<path d="M19.9614 35.4458V33.8906H21.4886V35.4458H19.9614Z" fill="black"/>
<path d="M21.2382 35.4458V33.8906H22.6124V35.4458H21.2382Z" fill="black"/>
<path d="M22.3621 35.4458V33.8906H23.4308V35.4458H22.3621Z" fill="black"/>
<path d="M23.2576 35.4458V33.8906H24.4788V35.4458H23.2576Z" fill="black"/>
<path d="M24.3049 35.4458V33.8906H25.6791V35.4458H24.3049Z" fill="black"/>
<path d="M25.5254 35.4458V33.8906H26.8996V35.4458H25.5254Z" fill="black"/>
<path d="M26.6493 35.4458V33.8906H27.2601V35.4458H26.6493Z" fill="black"/>
<path d="M6 38.4458V36.8906H7.37417V38.4458H6Z" fill="black"/>
<path d="M7.06744 38.4458V36.8906H8.59466V38.4458H7.06744Z" fill="black"/>
<path d="M8.26779 38.4458V36.8906H9.64196V38.4458H8.26779Z" fill="black"/>
<path d="M9.58361 38.4458V36.8906H10.8047V38.4458H9.58361Z" fill="black"/>
<path d="M10.6309 38.4458V36.8906H11.6996V38.4458H10.6309Z" fill="black"/>
<path d="M11.5265 38.4458V36.8906H13.0537V38.4458H11.5265Z" fill="black"/>
<path d="M12.8799 38.4458V36.8906H13.9486V38.4458H12.8799Z" fill="black"/>
<path d="M13.6224 38.4458V36.8906H14.6911V38.4458H13.6224Z" fill="black"/>
<path d="M14.6711 38.4458V36.8906H15.8922V38.4458H14.6711Z" fill="black"/>
<path d="M15.8714 38.4458V36.8906H17.2456V38.4458H15.8714Z" fill="black"/>
<path d="M17.0718 38.4458V36.8906H17.6827V38.4458H17.0718Z" fill="black"/>
<path d="M17.6612 38.4458V36.8906H18.8823V38.4458H17.6612Z" fill="black"/>
<path d="M18.7085 38.4458V36.8906H19.9303V38.4458H18.7085Z" fill="black"/>
<path d="M19.6041 38.4458V36.8906H20.215V38.4458H19.6041Z" fill="black"/>
<path d="M20.0405 38.4458V36.8906H21.1092V38.4458H20.0405Z" fill="black"/>
<path d="M20.783 38.4458V36.8906H22.3103V38.4458H20.783Z" fill="black"/>
<path d="M22.1364 38.4458V36.8906H23.6637V38.4458H22.1364Z" fill="black"/>
<path d="M23.3368 38.4458V36.8906H23.9477V38.4458H23.3368Z" fill="black"/>
<path d="M23.9263 38.4458V36.8906H25.3004V38.4458H23.9263Z" fill="black"/>
<path d="M25.1266 38.4458V36.8906H26.6538V38.4458H25.1266Z" fill="black"/>
<path d="M26.48 38.4458V36.8906H27.8542V38.4458H26.48Z" fill="black"/>
<path d="M27.6039 38.4458V36.8906H28.6726V38.4458H27.6039Z" fill="black"/>
<path d="M28.4994 38.4458V36.8906H30.0267V38.4458H28.4994Z" fill="black"/>
<path d="M29.6998 38.4458V36.8906H31.227V38.4458H29.6998Z" fill="black"/>
<path d="M30.9767 38.4458V36.8906H32.3508V38.4458H30.9767Z" fill="black"/>
<path d="M32.0441 38.4458V36.8906H32.655V38.4458H32.0441Z" fill="black"/>
<path d="M6.15306 41.4458V39.8906H7.52723V41.4458H6.15306Z" fill="black"/>
<path d="M7.27688 41.4458V39.8906H8.65105V41.4458H7.27688Z" fill="black"/>
<path d="M8.49738 41.4458V39.8906H9.71849V41.4458H8.49738Z" fill="black"/>
<path d="M9.69773 41.4458V39.8906H11.0719V41.4458H9.69773Z" fill="black"/>
<path d="M10.745 41.4458V39.8906H11.8138V41.4458H10.745Z" fill="black"/>
<path d="M11.6406 41.4458V39.8906H13.1678V41.4458H11.6406Z" fill="black"/>
<path d="M12.841 41.4458V39.8906H14.8267V41.4458H12.841Z" fill="black"/>
<path d="M14.7287 41.4458V39.8906H15.3396V41.4458H14.7287Z" fill="black"/>
<path d="M15.3182 41.4458V39.8906H16.5393V41.4458H15.3182Z" fill="black"/>
<path d="M16.5186 41.4458V39.8906H17.8927V41.4458H16.5186Z" fill="black"/>
<path d="M17.7189 41.4458V39.8906H18.3298V41.4458H17.7189Z" fill="black"/>
<path d="M18.1553 41.4458V39.8906H19.224V41.4458H18.1553Z" fill="black"/>
<path d="M18.8978 41.4458V39.8906H20.4251V41.4458H18.8978Z" fill="black"/>
<path d="M20.2512 41.4458V39.8906H21.7785V41.4458H20.2512Z" fill="black"/>
<path d="M21.4516 41.4458V39.8906H22.0625V41.4458H21.4516Z" fill="black"/>
<path d="M21.888 41.4458V39.8906H23.5683V41.4458H21.888Z" fill="black"/>
<path d="M23.471 41.4458V39.8906H24.6921V41.4458H23.471Z" fill="black"/>
<path d="M24.5183 41.4458V39.8906H25.8925V41.4458H24.5183Z" fill="black"/>
<path d="M25.5857 41.4458V39.8906H27.113V41.4458H25.5857Z" fill="black"/>
<path d="M26.7861 41.4458V39.8906H28.3133V41.4458H26.7861Z" fill="black"/>
<path d="M28.216 41.4458V39.8906H29.5902V41.4458H28.216Z" fill="black"/>
<path d="M29.4164 41.4458V39.8906H30.0273V41.4458H29.4164Z" fill="black"/>
<path d="M6.15306 44.4458V42.8906H7.68029V44.4458H6.15306Z" fill="black"/>
<path d="M7.37221 44.4458V42.8906H8.89944V44.4458H7.37221Z" fill="black"/>
<path d="M8.72562 44.4458V42.8906H10.0998V44.4458H8.72562Z" fill="black"/>
<path d="M9.92598 44.4458V42.8906H10.9947V44.4458H9.92598Z" fill="black"/>
<path d="M10.9746 44.4458V42.8906H12.3488V44.4458H10.9746Z" fill="black"/>
<path d="M12.175 44.4458V42.8906H13.5491V44.4458H12.175Z" fill="black"/>
<path d="M13.3377 44.4458V42.8906H14.865V44.4458H13.3377Z" fill="black"/>
<path d="M14.6911 44.4458V42.8906H15.7599V44.4458H14.6911Z" fill="black"/>
<path d="M15.5867 44.4458V42.8906H17.114V44.4458H15.5867Z" fill="black"/>
<path d="M16.8636 44.4458V42.8906H17.6269V44.4458H16.8636Z" fill="black"/>
<path d="M17.3765 44.4458V42.8906H17.9874V44.4458H17.3765Z" fill="black"/>
<path d="M17.8129 44.4458V42.8906H19.4932V44.4458H17.8129Z" fill="black"/>
<path d="M19.3959 44.4458V42.8906H20.7701V44.4458H19.3959Z" fill="black"/>
<path d="M20.5963 44.4458V42.8906H22.1235V44.4458H20.5963Z" fill="black"/>
<path d="M21.8732 44.4458V42.8906H22.4841V44.4458H21.8732Z" fill="black"/>
<path d="M22.3096 44.4458V42.8906H23.6838V44.4458H22.3096Z" fill="black"/>
<path d="M23.6254 44.4458V42.8906H24.8465V44.4458H23.6254Z" fill="black"/>
<path d="M24.6727 44.4458V42.8906H25.2836V44.4458H24.6727Z" fill="black"/>
<path d="M25.1091 44.4458V42.8906H26.6363V44.4458H25.1091Z" fill="black"/>
<path d="M26.4625 44.4458V42.8906H27.9898V44.4458H26.4625Z" fill="black"/>
<path d="M27.6629 44.4458V42.8906H28.2738V44.4458H27.6629Z" fill="black"/>
<path d="M6 47.4458V45.8906H7.37417V47.4458H6Z" fill="black"/>
<path d="M7.06744 47.4458V45.8906H8.59466V47.4458H7.06744Z" fill="black"/>
<path d="M8.26779 47.4458V45.8906H9.33651V47.4458H8.26779Z" fill="black"/>
<path d="M9.16337 47.4458V45.8906H10.2321V47.4458H9.16337Z" fill="black"/>
<path d="M9.90589 47.4458V45.8906H11.4331V47.4458H9.90589Z" fill="black"/>
<path d="M11.1062 47.4458V45.8906H12.4804V47.4458H11.1062Z" fill="black"/>
<path d="M12.1361 47.4458V45.8906H13.6633V47.4458H12.1361Z" fill="black"/>
<path d="M13.413 47.4458V45.8906H14.4817V47.4458H13.413Z" fill="black"/>
<path d="M14.1555 47.4458V45.8906H15.6827V47.4458H14.1555Z" fill="black"/>
<path d="M15.3558 47.4458V45.8906H16.8831V47.4458H15.3558Z" fill="black"/>
<path d="M16.6327 47.4458V45.8906H17.2436V47.4458H16.6327Z" fill="black"/>
<path d="M17.0691 47.4458V45.8906H18.1379V47.4458H17.0691Z" fill="black"/>
<path d="M17.8117 47.4458V45.8906H19.3389V47.4458H17.8117Z" fill="black"/>
<path d="M19.1651 47.4458V45.8906H20.6923V47.4458H19.1651Z" fill="black"/>
<path d="M20.3654 47.4458V45.8906H20.9763V47.4458H20.3654Z" fill="black"/>
<path d="M6 50.4458V48.8906H7.06872V50.4458H6Z" fill="black"/>
<path d="M6.89558 50.4458V48.8906H8.88131V50.4458H6.89558Z" fill="black"/>
<path d="M8.93641 50.4458V48.8906H10.3106V50.4458H8.93641Z" fill="black"/>
<path d="M10.2133 50.4458V48.8906H11.4344V50.4458H10.2133Z" fill="black"/>
<path d="M11.2606 50.4458V48.8906H12.6348V50.4458H11.2606Z" fill="black"/>
<path d="M12.328 50.4458V48.8906H13.3968V50.4458H12.328Z" fill="black"/>
<path d="M13.0705 50.4458V48.8906H14.5978V50.4458H13.0705Z" fill="black"/>
<path d="M14.5005 50.4458V48.8906H15.8747V50.4458H14.5005Z" fill="black"/>
<path d="M15.7008 50.4458V48.8906H17.075V50.4458H15.7008Z" fill="black"/>
<path d="M16.8247 50.4458V48.8906H18.3519V50.4458H16.8247Z" fill="black"/>
<path d="M18.025 50.4458V48.8906H18.6359V50.4458H18.025Z" fill="black"/>
<path d="M18.6145 50.4458V48.8906H19.8356V50.4458H18.6145Z" fill="black"/>
<path d="M19.6618 50.4458V48.8906H20.8836V50.4458H19.6618Z" fill="black"/>
<path d="M20.5574 50.4458V48.8906H21.1683V50.4458H20.5574Z" fill="black"/>
<path d="M20.9938 50.4458V48.8906H22.9795V50.4458H20.9938Z" fill="black"/>
<path d="M23.0346 50.4458V48.8906H24.2557V50.4458H23.0346Z" fill="black"/>
<path d="M24.0819 50.4458V48.8906H25.4561V50.4458H24.0819Z" fill="black"/>
<path d="M25.3588 50.4458V48.8906H26.4275V50.4458H25.3588Z" fill="black"/>
<path d="M26.4074 50.4458V48.8906H27.7816V50.4458H26.4074Z" fill="black"/>
<path d="M27.6078 50.4458V48.8906H29.135V50.4458H27.6078Z" fill="black"/>
<path d="M28.9612 50.4458V48.8906H29.5721V50.4458H28.9612Z" fill="black"/>
<path d="M6 53.4458V51.8906H7.06872V53.4458H6Z" fill="black"/>
<path d="M6.74252 53.4458V51.8906H8.26975V53.4458H6.74252Z" fill="black"/>
<path d="M8.24899 53.4458V51.8906H9.4701V53.4458H8.24899Z" fill="black"/>
<path d="M9.29629 53.4458V51.8906H10.6705V53.4458H9.29629Z" fill="black"/>
<path d="M10.4591 53.4458V51.8906H11.9863V53.4458H10.4591Z" fill="black"/>
<path d="M11.6594 53.4458V51.8906H12.2703V53.4458H11.6594Z" fill="black"/>
<path d="M12.0958 53.4458V51.8906H13.1645V53.4458H12.0958Z" fill="black"/>
<path d="M12.8383 53.4458V51.8906H14.3656V53.4458H12.8383Z" fill="black"/>
<path d="M14.1152 53.4458V51.8906H15.1839V53.4458H14.1152Z" fill="black"/>
<path d="M15.0108 53.4458V51.8906H16.538V53.4458H15.0108Z" fill="black"/>
<path d="M16.3266 53.4458V51.8906H17.7008V53.4458H16.3266Z" fill="black"/>
<path d="M17.4894 53.4458V51.8906H18.1003V53.4458H17.4894Z" fill="black"/>
<path d="M17.9258 53.4458V51.8906H19.1476V53.4458H17.9258Z" fill="black"/>
<path d="M18.9744 53.4458V51.8906H20.1955V53.4458H18.9744Z" fill="black"/>
<path d="M20.0217 53.4458V51.8906H21.3959V53.4458H20.0217Z" fill="black"/>
<path d="M21.0891 53.4458V51.8906H23.2273V53.4458H21.0891Z" fill="black"/>
<path d="M22.9004 53.4458V51.8906H24.4276V53.4458H22.9004Z" fill="black"/>
<path d="M24.1773 53.4458V51.8906H25.5514V53.4458H24.1773Z" fill="black"/>
<path d="M25.2447 53.4458V51.8906H26.7719V53.4458H25.2447Z" fill="black"/>
<path d="M26.5216 53.4458V51.8906H27.2849V53.4458H26.5216Z" fill="black"/>
<path d="M27.0345 53.4458V51.8906H27.6454V53.4458H27.0345Z" fill="black"/>
<path d="M27.4709 53.4458V51.8906H28.2342V53.4458H27.4709Z" fill="black"/>
<path d="M27.9839 53.4458V51.8906H28.5948V53.4458H27.9839Z" fill="black"/>
<path d="M28.4203 53.4458V51.8906H29.1836V53.4458H28.4203Z" fill="black"/>
<path d="M28.9332 53.4458V51.8906H29.5441V53.4458H28.9332Z" fill="black"/>
<path d="M29.3696 53.4458V51.8906H30.1329V53.4458H29.3696Z" fill="black"/>
<path d="M29.8825 53.4458V51.8906H30.4934V53.4458H29.8825Z" fill="black"/>
<path d="M6.15306 56.4458V54.8906H8.29118V56.4458H6.15306Z" fill="black"/>
<path d="M8.07843 56.4458V54.8906H9.60565V56.4458H8.07843Z" fill="black"/>
<path d="M9.27878 56.4458V54.8906H9.88967V56.4458H9.27878Z" fill="black"/>
<path d="M9.71519 56.4458V54.8906H11.2424V56.4458H9.71519Z" fill="black"/>
<path d="M10.9921 56.4458V54.8906H12.3662V56.4458H10.9921Z" fill="black"/>
<path d="M12.0595 56.4458V54.8906H13.5867V56.4458H12.0595Z" fill="black"/>
<path d="M13.2599 56.4458V54.8906H13.8708V56.4458H13.2599Z" fill="black"/>
<path d="M13.8493 56.4458V54.8906H15.2235V56.4458H13.8493Z" fill="black"/>
<path d="M15.2027 56.4458V54.8906H16.4238V56.4458H15.2027Z" fill="black"/>
<path d="M16.25 56.4458V54.8906H17.3188V56.4458H16.25Z" fill="black"/>
<path d="M16.9926 56.4458V54.8906H17.6034V56.4458H16.9926Z" fill="black"/>
<path d="M17.429 56.4458V54.8906H18.9562V56.4458H17.429Z" fill="black"/>
<path d="M18.9354 56.4458V54.8906H20.1565V56.4458H18.9354Z" fill="black"/>
<path d="M19.9827 56.4458V54.8906H21.0514V56.4458H19.9827Z" fill="black"/>
<path d="M21.0314 56.4458V54.8906H22.4055V56.4458H21.0314Z" fill="black"/>
<path d="M22.2317 56.4458V54.8906H23.7589V56.4458H22.2317Z" fill="black"/>
<path d="M23.5851 56.4458V54.8906H24.196V56.4458H23.5851Z" fill="black"/>
<path d="M24.0215 56.4458V54.8906H25.0903V56.4458H24.0215Z" fill="black"/>
<path d="M24.9171 56.4458V54.8906H26.1382V56.4458H24.9171Z" fill="black"/>
<path d="M25.9644 56.4458V54.8906H26.5753V56.4458H25.9644Z" fill="black"/>
<path d="M26.4008 56.4458V54.8906H27.928V56.4458H26.4008Z" fill="black"/>
<path d="M27.9073 56.4458V54.8906H29.1284V56.4458H27.9073Z" fill="black"/>
<path d="M28.9546 56.4458V54.8906H29.5655V56.4458H28.9546Z" fill="black"/>
<path d="M29.391 56.4458V54.8906H30.4597V56.4458H29.391Z" fill="black"/>
<path d="M30.4396 56.4458V54.8906H31.8138V56.4458H30.4396Z" fill="black"/>
<path d="M31.64 56.4458V54.8906H32.4033V56.4458H31.64Z" fill="black"/>
<path d="M32.1529 56.4458V54.8906H32.7638V56.4458H32.1529Z" fill="black"/>
<path d="M6 59.4458V57.8906H7.52723V59.4458H6Z" fill="black"/>
<path d="M7.27688 59.4458V57.8906H8.34561V59.4458H7.27688Z" fill="black"/>
<path d="M8.17246 59.4458V57.8906H9.24119V59.4458H8.17246Z" fill="black"/>
<path d="M9.06804 59.4458V57.8906H9.67894V59.4458H9.06804Z" fill="black"/>
<path d="M9.50445 59.4458V57.8906H11.0317V59.4458H9.50445Z" fill="black"/>
<path d="M10.8579 59.4458V57.8906H12.3851V59.4458H10.8579Z" fill="black"/>
<path d="M12.3643 59.4458V57.8906H13.7385V59.4458H12.3643Z" fill="black"/>
<path d="M13.5647 59.4458V57.8906H14.9389V59.4458H13.5647Z" fill="black"/>
<path d="M14.7274 59.4458V57.8906H15.3383V59.4458H14.7274Z" fill="black"/>
<path d="M15.3169 59.4458V57.8906H16.6911V59.4458H15.3169Z" fill="black"/>
<path d="M16.3642 59.4458V57.8906H17.4329V59.4458H16.3642Z" fill="black"/>
<path d="M17.2598 59.4458V57.8906H18.787V59.4458H17.2598Z" fill="black"/>
<path d="M18.6897 59.4458V57.8906H19.9108V59.4458H18.6897Z" fill="black"/>
<path d="M19.6417 59.4458V57.8906H20.7104V59.4458H19.6417Z" fill="black"/>
<path d="M20.6903 59.4458V57.8906H22.0645V59.4458H20.6903Z" fill="black"/>
<path d="M21.8907 59.4458V57.8906H23.4179V59.4458H21.8907Z" fill="black"/>
<path d="M23.2441 59.4458V57.8906H24.0074V59.4458H23.2441Z" fill="black"/>
<path d="M23.757 59.4458V57.8906H24.3679V59.4458H23.757Z" fill="black"/>
<path d="M24.1934 59.4458V57.8906H25.5676V59.4458H24.1934Z" fill="black"/>
<path d="M25.3562 59.4458V57.8906H26.8834V59.4458H25.3562Z" fill="black"/>
<path d="M26.7096 59.4458V57.8906H28.0838V59.4458H26.7096Z" fill="black"/>
<path d="M27.8334 59.4458V57.8906H28.4443V59.4458H27.8334Z" fill="black"/>
<path d="M6 62.4458V60.8906H7.06872V62.4458H6Z" fill="black"/>
<path d="M6.74252 62.4458V60.8906H8.26975V62.4458H6.74252Z" fill="black"/>
<path d="M8.01941 62.4458V60.8906H9.54663V62.4458H8.01941Z" fill="black"/>
<path d="M9.33522 62.4458V60.8906H10.8625V62.4458H9.33522Z" fill="black"/>
<path d="M10.5356 62.4458V60.8906H11.1465V62.4458H10.5356Z" fill="black"/>
<path d="M10.972 62.4458V60.8906H12.0407V62.4458H10.972Z" fill="black"/>
<path d="M11.8676 62.4458V60.8906H12.9363V62.4458H11.8676Z" fill="black"/>
<path d="M12.6101 62.4458V60.8906H13.221V62.4458H12.6101Z" fill="black"/>
<path d="M13.1995 62.4458V60.8906H14.4207V62.4458H13.1995Z" fill="black"/>
<path d="M14.2468 62.4458V60.8906H15.621V62.4458H14.2468Z" fill="black"/>
<path d="M15.3143 62.4458V60.8906H15.9252V62.4458H15.3143Z" fill="black"/>
<path d="M15.7507 62.4458V60.8906H16.8194V62.4458H15.7507Z" fill="black"/>
<path d="M16.6463 62.4458V60.8906H18.1735V62.4458H16.6463Z" fill="black"/>
<path d="M17.8466 62.4458V60.8906H19.3738V62.4458H17.8466Z" fill="black"/>
<path d="M19.047 62.4458V60.8906H20.4211V62.4458H19.047Z" fill="black"/>
<path d="M20.3239 62.4458V60.8906H21.8511V62.4458H20.3239Z" fill="black"/>
<path d="M21.5242 62.4458V60.8906H22.1351V62.4458H21.5242Z" fill="black"/>
<path d="M21.9606 62.4458V60.8906H23.0293V62.4458H21.9606Z" fill="black"/>
<path d="M22.8562 62.4458V60.8906H23.9249V62.4458H22.8562Z" fill="black"/>
<path d="M23.5987 62.4458V60.8906H24.362V62.4458H23.5987Z" fill="black"/>
<path d="M24.1117 62.4458V60.8906H24.7225V62.4458H24.1117Z" fill="black"/>
<path d="M24.5481 62.4458V60.8906H25.6168V62.4458H24.5481Z" fill="black"/>
<path d="M25.2906 62.4458V60.8906H26.8178V62.4458H25.2906Z" fill="black"/>
<path d="M26.644 62.4458V60.8906H27.7127V62.4458H26.644Z" fill="black"/>
<path d="M27.5396 62.4458V60.8906H28.9137V62.4458H27.5396Z" fill="black"/>
<path d="M28.7023 62.4458V60.8906H29.3132V62.4458H28.7023Z" fill="black"/>
<path d="M29.1387 62.4458V60.8906H30.2075V62.4458H29.1387Z" fill="black"/>
<path d="M30.0343 62.4458V60.8906H31.4085V62.4458H30.0343Z" fill="black"/>
<path d="M31.1971 62.4458V60.8906H31.808V62.4458H31.1971Z" fill="black"/>
<path d="M6 65.4458V63.8906H7.06872V65.4458H6Z" fill="black"/>
<path d="M6.89558 65.4458V63.8906H7.9643V65.4458H6.89558Z" fill="black"/>
<path d="M7.6381 65.4458V63.8906H8.40138V65.4458H7.6381Z" fill="black"/>
<path d="M8.15104 65.4458V63.8906H8.91431V65.4458H8.15104Z" fill="black"/>
<path d="M6.30545 8.34121H28.8385V8.41094H6.30545V8.34121ZM6.30545 11.3412H31.4378V11.4109H6.30545V11.3412ZM6.30545 14.3412H24.4009V14.4109H6.30545V14.3412ZM6.30545 17.3412H32.1576V17.4109H6.30545V17.3412ZM6.30545 20.3412H31.3378V20.4109H6.30545V20.3412ZM6.30545 23.3412H31.1277V23.4109H6.30545V23.3412ZM6.30545 26.3412H31.6816V26.4109H6.30545V26.3412ZM6.30545 29.3412H28.2491V29.4109H6.30545V29.3412ZM6.30545 32.3412H32.6946V32.4109H6.30545V32.3412ZM6.30545 35.3412H26.9547V35.4109H6.30545V35.3412ZM6.30545 38.3412H32.3489V38.4109H6.30545V38.3412ZM6.30545 41.3412H29.7218V41.4109H6.30545V41.3412ZM6.30545 44.3412H27.9683V44.4109H6.30545V44.3412ZM6.30545 47.3412H20.6709V47.4109H6.30545V47.3412ZM6.30545 50.3412H29.2666V50.4109H6.30545V50.3412ZM6.30545 53.3412H30.188V53.4109H6.30545V53.3412ZM6.30545 56.3412H32.4584V56.4109H6.30545V56.3412ZM6.30545 59.3412H28.1389V59.4109H6.30545V59.3412ZM6.30545 62.3412H31.5019V62.4109H6.30545V62.3412ZM6.30545 65.3412H9.10094V65.4109H6.30545V65.3412Z" fill="black"/>
</g>
</g>
<path d="M11.3333 76.4458H2V82.7939H11.3333V76.4458Z" fill="#E5592D"/>
</g>
<defs>
<filter id="filter0_d_39_124700" x="0" y="1.89062" width="39" height="72.5552" filterUnits="userSpaceOnUse" color-interpolation-filters="sRGB">
<feFlood flood-opacity="0" result="BackgroundImageFix"/>
<feColorMatrix in="SourceAlpha" type="matrix" values="0 0 0 0 0 0 0 0 0 0 0 0 0 0 0 0 0 0 127 0" result="hardAlpha"/>
<feOffset dy="1"/>
<feGaussianBlur stdDeviation="1"/>
<feComposite in2="hardAlpha" operator="out"/>
<feColorMatrix type="matrix" values="0 0 0 0 0 0 0 0 0 0 0 0 0 0 0 0 0 0 0.1 0"/>
<feBlend mode="normal" in2="BackgroundImageFix" result="effect1_dropShadow_39_124700"/>
<feBlend mode="normal" in="SourceGraphic" in2="effect1_dropShadow_39_124700" result="shape"/>
</filter>
<clipPath id="clip0_39_124700">
<rect width="39" height="83.9033" fill="white" transform="translate(0 0.890625)"/>
</clipPath>
</defs>
</svg>
