<svg width="39" height="37" viewBox="0 0 39 37" fill="none" xmlns="http://www.w3.org/2000/svg">
<rect width="39" height="37" fill=""/>
<g clip-path="url(#clip0_39_124700)">
<g filter="url(#filter0_d_39_124700)">
<rect width="35" height="20.5552" transform="translate(2 2.18066)" fill="white"/>
<g opacity="0.3">
<rect width="35" height="18.5552" transform="translate(2 2.18066)" fill="white"/>
<path d="M6 7.73584V6.18066H6.80368V7.73584H6Z" fill="black"/>
<path d="M6.78183 7.73584V6.18066H9.03313V7.73584H6.78183Z" fill="black"/>
<path d="M8.80911 7.73584V6.18066H10.4172V7.73584H8.80911Z" fill="black"/>
<path d="M10.073 7.73584V6.18066H10.7162V7.73584H10.073Z" fill="black"/>
<path d="M10.5325 7.73584V6.18066H12.1406V7.73584H10.5325Z" fill="black"/>
<path d="M11.9576 7.73584V6.18066H13.5656V7.73584H11.9576Z" fill="black"/>
<path d="M13.2215 7.73584V6.18066H14.6684V7.73584H13.2215Z" fill="black"/>
<path d="M14.5659 7.73584V6.18066H16.174V7.73584H14.5659Z" fill="black"/>
<path d="M15.8298 7.73584V6.18066H16.4731V7.73584H15.8298Z" fill="black"/>
<path d="M16.4505 7.73584V6.18066H17.8974V7.73584H16.4505Z" fill="black"/>
<path d="M17.8756 7.73584V6.18066H19.1613V7.73584H17.8756Z" fill="black"/>
<path d="M18.9783 7.73584V6.18066H19.6215V7.73584H18.9783Z" fill="black"/>
<path d="M19.4378 7.73584V6.18066H20.5631V7.73584H19.4378Z" fill="black"/>
<path d="M20.5419 7.73584V6.18066H21.9889V7.73584H20.5419Z" fill="black"/>
<path d="M21.8058 7.73584V6.18066H22.9311V7.73584H21.8058Z" fill="black"/>
<path d="M22.5877 7.73584V6.18066H24.1957V7.73584H22.5877Z" fill="black"/>
<path d="M24.0127 7.73584V6.18066H25.4596V7.73584H24.0127Z" fill="black"/>
<path d="M25.2766 7.73584V6.18066H26.4019V7.73584H25.2766Z" fill="black"/>
<path d="M26.0584 7.73584V6.18066H27.1837V7.73584H26.0584Z" fill="black"/>
<path d="M27.1626 7.73584V6.18066H28.4483V7.73584H27.1626Z" fill="black"/>
<path d="M28.4265 7.73584V6.18066H29.8734V7.73584H28.4265Z" fill="black"/>
<path d="M29.6904 7.73584V6.18066H30.3336V7.73584H29.6904Z" fill="black"/>
<path d="M30.311 7.73584V6.18066H31.5968V7.73584H30.311Z" fill="black"/>
<path d="M31.4138 7.73584V6.18066H32.7002V7.73584H31.4138Z" fill="black"/>
<path d="M32.3568 7.73584V6.18066H33V7.73584H32.3568Z" fill="black"/>
<path d="M6 10.7358V9.18066H7.1253V10.7358H6Z" fill="black"/>
<path d="M7.10415 10.7358V9.18066H8.55106V10.7358H7.10415Z" fill="black"/>
<path d="M8.28746 10.7358V9.18066H9.73437V10.7358H8.28746Z" fill="black"/>
<path d="M9.55136 10.7358V9.18066H11.1594V10.7358H9.55136Z" fill="black"/>
<path d="M10.8958 10.7358V9.18066H12.5039V10.7358H10.8958Z" fill="black"/>
<path d="M12.2403 10.7358V9.18066H13.3656V10.7358H12.2403Z" fill="black"/>
<path d="M13.3445 10.7358V9.18066H14.7914V10.7358H13.3445Z" fill="black"/>
<path d="M14.6084 10.7358V9.18066H16.2164V10.7358H14.6084Z" fill="black"/>
<path d="M16.0334 10.7358V9.18066H16.6766V10.7358H16.0334Z" fill="black"/>
<path d="M16.4929 10.7358V9.18066H18.2621V10.7358H16.4929Z" fill="black"/>
<path d="M18.0989 10.7358V9.18066H19.3847V10.7358H18.0989Z" fill="black"/>
<path d="M19.2017 10.7358V9.18066H20.6486V10.7358H19.2017Z" fill="black"/>
<path d="M20.3256 10.7358V9.18066H21.4509V10.7358H20.3256Z" fill="black"/>
<path d="M21.1074 10.7358V9.18066H22.7155V10.7358H21.1074Z" fill="black"/>
<path d="M22.5325 10.7358V9.18066H23.1757V10.7358H22.5325Z" fill="black"/>
<path d="M22.992 10.7358V9.18066H24.7612V10.7358H22.992Z" fill="black"/>
<path d="M24.6588 10.7358V9.18066H25.9445V10.7358H24.6588Z" fill="black"/>
<path d="M25.7615 10.7358V9.18066H27.2084V10.7358H25.7615Z" fill="black"/>
<path d="M26.8855 10.7358V9.18066H28.4935V10.7358H26.8855Z" fill="black"/>
<path d="M28.1493 10.7358V9.18066H29.7574V10.7358H28.1493Z" fill="black"/>
<path d="M29.4938 10.7358V9.18066H30.1371V10.7358H29.4938Z" fill="black"/>
<path d="M30.1145 10.7358V9.18066H31.4002V10.7358H30.1145Z" fill="black"/>
<path d="M31.2172 10.7358V9.18066H32.6641V10.7358H31.2172Z" fill="black"/>
<path d="M32.3412 10.7358V9.18066H32.9844V10.7358H32.3412Z" fill="black"/>
<path d="M6 13.7358V12.1807H7.1253V13.7358H6Z" fill="black"/>
<path d="M6.78183 13.7358V12.1807H8.3899V13.7358H6.78183Z" fill="black"/>
<path d="M8.1263 13.7358V12.1807H9.73437V13.7358H8.1263Z" fill="black"/>
<path d="M9.51177 13.7358V12.1807H10.6371V13.7358H9.51177Z" fill="black"/>
<path d="M10.6159 13.7358V12.1807H12.0628V13.7358H10.6159Z" fill="black"/>
<path d="M11.8798 13.7358V12.1807H13.4879V13.7358H11.8798Z" fill="black"/>
<path d="M13.3049 13.7358V12.1807H13.9481V13.7358H13.3049Z" fill="black"/>
<path d="M13.7644 13.7358V12.1807H15.3724V13.7358H13.7644Z" fill="black"/>
<path d="M15.3506 13.7358V12.1807H16.6363V13.7358H15.3506Z" fill="black"/>
<path d="M16.4533 13.7358V12.1807H17.9002V13.7358H16.4533Z" fill="black"/>
<path d="M17.6776 13.7358V12.1807H18.8029V13.7358H17.6776Z" fill="black"/>
<path d="M18.4595 13.7358V12.1807H19.5848V13.7358H18.4595Z" fill="black"/>
<path d="M19.4025 13.7358V12.1807H20.5278V13.7358H19.4025Z" fill="black"/>
<path d="M20.3454 13.7358V12.1807H21.9535V13.7358H20.3454Z" fill="black"/>
<path d="M21.6093 13.7358V12.1807H22.2526V13.7358H21.6093Z" fill="black"/>
<path d="M22.0688 13.7358V12.1807H23.6769V13.7358H22.0688Z" fill="black"/>
<path d="M23.4133 13.7358V12.1807H24.8602V13.7358H23.4133Z" fill="black"/>
<path d="M24.5966 13.7358V12.1807H25.7219V13.7358H24.5966Z" fill="black"/>
<path d="M25.3785 13.7358V12.1807H26.5038V13.7358H25.3785Z" fill="black"/>
<path d="M26.4826 13.7358V12.1807H27.7684V13.7358H26.4826Z" fill="black"/>
<path d="M27.7465 13.7358V12.1807H29.1934V13.7358H27.7465Z" fill="black"/>
<path d="M29.0104 13.7358V12.1807H29.6536V13.7358H29.0104Z" fill="black"/>
<path d="M6 16.7358V15.1807H7.60807V16.7358H6Z" fill="black"/>
<path d="M7.34448 16.7358V15.1807H8.95255V16.7358H7.34448Z" fill="black"/>
<path d="M8.76953 16.7358V15.1807H10.3776V16.7358H8.76953Z" fill="black"/>
<path d="M10.114 16.7358V15.1807H11.2393V16.7358H10.114Z" fill="black"/>
<path d="M11.2182 16.7358V15.1807H12.6651V16.7358H11.2182Z" fill="black"/>
<path d="M12.482 16.7358V15.1807H13.929V16.7358H12.482Z" fill="black"/>
<path d="M13.7064 16.7358V15.1807H14.8317V16.7358H13.7064Z" fill="black"/>
<path d="M14.4882 16.7358V15.1807H15.1314V16.7358H14.4882Z" fill="black"/>
<path d="M14.9477 16.7358V15.1807H16.7169V16.7358H14.9477Z" fill="black"/>
<path d="M16.5537 16.7358V15.1807H17.8395V16.7358H16.5537Z" fill="black"/>
<path d="M17.6564 16.7358V15.1807H19.1033V16.7358H17.6564Z" fill="black"/>
<path d="M18.7804 16.7358V15.1807H19.9057V16.7358H18.7804Z" fill="black"/>
<path d="M19.5622 16.7358V15.1807H21.1703V16.7358H19.5622Z" fill="black"/>
<path d="M20.9873 16.7358V15.1807H21.6305V16.7358H20.9873Z" fill="black"/>
<path d="M21.4468 16.7358V15.1807H23.216V16.7358H21.4468Z" fill="black"/>
<path d="M23.1136 16.7358V15.1807H24.3993V16.7358H23.1136Z" fill="black"/>
<path d="M24.2163 16.7358V15.1807H25.6632V16.7358H24.2163Z" fill="black"/>
<path d="M25.3402 16.7358V15.1807H26.9483V16.7358H25.3402Z" fill="black"/>
<path d="M26.6041 16.7358V15.1807H28.2122V16.7358H26.6041Z" fill="black"/>
<path d="M27.9486 16.7358V15.1807H28.7523V16.7358H27.9486Z" fill="black"/>
<path d="M28.4887 16.7358V15.1807H29.2924V16.7358H28.4887Z" fill="black"/>
<path d="M6.32161 7.63125H32.6777V7.70098H6.32161V7.63125ZM6.32161 10.6312H32.6621V10.701H6.32161V10.6312ZM6.32161 13.6312H29.332V13.701H6.32161V13.6312ZM6.32161 16.6313H29.4889V16.701H6.32161V16.6313Z" fill="black"/>
</g>
<rect width="12" height="14" transform="translate(25 7.73584)" fill="white"/>
<path d="M31.4307 12.7544C31.141 12.7544 30.8838 12.8114 30.6592 12.9253C30.4378 13.036 30.2507 13.1971 30.0977 13.4087C29.9479 13.6203 29.834 13.8758 29.7559 14.1753C29.6777 14.4748 29.6387 14.8117 29.6387 15.186C29.6387 15.6906 29.7005 16.1219 29.8242 16.48C29.9512 16.8348 30.1465 17.1066 30.4102 17.2954C30.6738 17.481 31.014 17.5737 31.4307 17.5737C31.7204 17.5737 32.0101 17.5412 32.2998 17.4761C32.5928 17.411 32.9102 17.3182 33.252 17.1978V18.4673C32.9362 18.5975 32.6253 18.6903 32.3193 18.7456C32.0133 18.8042 31.6699 18.8335 31.2891 18.8335C30.5534 18.8335 29.9479 18.6821 29.4727 18.3794C29.0007 18.0734 28.6507 17.647 28.4229 17.1001C28.195 16.55 28.0811 15.9087 28.0811 15.1763C28.0811 14.6359 28.1543 14.1411 28.3008 13.6919C28.4473 13.2427 28.6621 12.8537 28.9453 12.5249C29.2285 12.1961 29.5785 11.9422 29.9951 11.7632C30.4118 11.5841 30.8903 11.4946 31.4307 11.4946C31.7855 11.4946 32.1403 11.5402 32.4951 11.6313C32.8532 11.7192 33.195 11.8413 33.5205 11.9976L33.0322 13.228C32.7653 13.1011 32.4967 12.9904 32.2266 12.896C31.9564 12.8016 31.6911 12.7544 31.4307 12.7544Z" fill="#585858"/>
</g>
<path d="M11.3333 27.7358H2V34.0839H11.3333V27.7358Z" fill="#E5592D"/>
</g>
<defs>
<filter id="filter0_d_39_124700" x="0" y="1.18066" width="39" height="24.5552" filterUnits="userSpaceOnUse" color-interpolation-filters="sRGB">
<feFlood flood-opacity="0" result="BackgroundImageFix"/>
<feColorMatrix in="SourceAlpha" type="matrix" values="0 0 0 0 0 0 0 0 0 0 0 0 0 0 0 0 0 0 127 0" result="hardAlpha"/>
<feOffset dy="1"/>
<feGaussianBlur stdDeviation="1"/>
<feComposite in2="hardAlpha" operator="out"/>
<feColorMatrix type="matrix" values="0 0 0 0 0 0 0 0 0 0 0 0 0 0 0 0 0 0 0.1 0"/>
<feBlend mode="normal" in2="BackgroundImageFix" result="effect1_dropShadow_39_124700"/>
<feBlend mode="normal" in="SourceGraphic" in2="effect1_dropShadow_39_124700" result="shape"/>
</filter>
<clipPath id="clip0_39_124700">
<rect width="39" height="35.9033" fill="white" transform="translate(0 0.180664)"/>
</clipPath>
</defs>
</svg>
