<svg width="41" height="74" viewBox="0 0 41 74" fill="none" xmlns="http://www.w3.org/2000/svg">
<rect width="41" height="74" fill=""/>
<rect width="35" height="56.5552" transform="translate(3 3.37402)" fill="white"/>
<g opacity="0.3">
<path d="M7 8.9292V7.37402H7.7716V8.9292H7Z" fill="black"/>
<path d="M7.75062 8.9292V7.37402H9.91206V8.9292H7.75062Z" fill="black"/>
<path d="M9.69699 8.9292V7.37402H11.2409V8.9292H9.69699Z" fill="black"/>
<path d="M10.9104 8.9292V7.37402H11.682V8.9292H10.9104Z" fill="black"/>
<path d="M11.5063 8.9292V7.37402H12.8955V8.9292H11.5063Z" fill="black"/>
<path d="M12.5854 8.9292V7.37402H14.1293V8.9292H12.5854Z" fill="black"/>
<path d="M13.7988 8.9292V7.37402H14.4164V8.9292H13.7988Z" fill="black"/>
<path d="M14.24 8.9292V7.37402H15.7839V8.9292H14.24Z" fill="black"/>
<path d="M15.5308 8.9292V7.37402H16.1484V8.9292H15.5308Z" fill="black"/>
<path d="M16.1267 8.9292V7.37402H17.5159V8.9292H16.1267Z" fill="black"/>
<path d="M17.2628 8.9292V7.37402H18.8067V8.9292H17.2628Z" fill="black"/>
<path d="M18.4762 8.9292V7.37402H20.0201V8.9292H18.4762Z" fill="black"/>
<path d="M19.7671 8.9292V7.37402H21.1562V8.9292H19.7671Z" fill="black"/>
<path d="M20.9031 8.9292V7.37402H22.447V8.9292H20.9031Z" fill="black"/>
<path d="M22.1166 8.9292V7.37402H23.3517V8.9292H22.1166Z" fill="black"/>
<path d="M23.0219 8.9292V7.37402H24.5658V8.9292H23.0219Z" fill="black"/>
<path d="M24.3901 8.9292V7.37402H25.4705V8.9292H24.3901Z" fill="black"/>
<path d="M25.2954 8.9292V7.37402H25.913V8.9292H25.2954Z" fill="black"/>
<path d="M25.8913 8.9292V7.37402H27.2805V8.9292H25.8913Z" fill="black"/>
<path d="M27.0274 8.9292V7.37402H28.5713V8.9292H27.0274Z" fill="black"/>
<path d="M28.3956 8.9292V7.37402H29.63V8.9292H28.3956Z" fill="black"/>
<path d="M29.609 8.9292V7.37402H30.9982V8.9292H29.609Z" fill="black"/>
<path d="M30.7451 8.9292V7.37402H31.8255V8.9292H30.7451Z" fill="black"/>
<path d="M31.6505 8.9292V7.37402H33.1944V8.9292H31.6505Z" fill="black"/>
<path d="M32.8639 8.9292V7.37402H33.6355V8.9292H32.8639Z" fill="black"/>
<path d="M33.3824 8.9292V7.37402H34V8.9292H33.3824Z" fill="black"/>
<path d="M7.15473 11.9292V10.374H9.31617V11.9292H7.15473Z" fill="black"/>
<path d="M9.10109 11.9292V10.374H10.645V11.9292H9.10109Z" fill="black"/>
<path d="M10.3145 11.9292V10.374H10.9321V11.9292H10.3145Z" fill="black"/>
<path d="M10.7557 11.9292V10.374H12.2996V11.9292H10.7557Z" fill="black"/>
<path d="M12.1239 11.9292V10.374H13.6678V11.9292H12.1239Z" fill="black"/>
<path d="M13.3373 11.9292V10.374H14.7265V11.9292H13.3373Z" fill="black"/>
<path d="M14.6281 11.9292V10.374H16.172V11.9292H14.6281Z" fill="black"/>
<path d="M15.8416 11.9292V10.374H16.4591V11.9292H15.8416Z" fill="black"/>
<path d="M16.4375 11.9292V10.374H17.8266V11.9292H16.4375Z" fill="black"/>
<path d="M17.8056 11.9292V10.374H19.0401V11.9292H17.8056Z" fill="black"/>
<path d="M18.8644 11.9292V10.374H19.4819V11.9292H18.8644Z" fill="black"/>
<path d="M19.3055 11.9292V10.374H20.3859V11.9292H19.3055Z" fill="black"/>
<path d="M20.3656 11.9292V10.374H21.7548V11.9292H20.3656Z" fill="black"/>
<path d="M21.579 11.9292V10.374H22.6594V11.9292H21.579Z" fill="black"/>
<path d="M22.3297 11.9292V10.374H23.8736V11.9292H22.3297Z" fill="black"/>
<path d="M23.6978 11.9292V10.374H25.087V11.9292H23.6978Z" fill="black"/>
<path d="M24.9113 11.9292V10.374H25.9917V11.9292H24.9113Z" fill="black"/>
<path d="M25.6619 11.9292V10.374H26.7423V11.9292H25.6619Z" fill="black"/>
<path d="M26.722 11.9292V10.374H27.9564V11.9292H26.722Z" fill="black"/>
<path d="M27.9354 11.9292V10.374H29.3246V11.9292H27.9354Z" fill="black"/>
<path d="M29.1489 11.9292V10.374H29.7664V11.9292H29.1489Z" fill="black"/>
<path d="M29.7448 11.9292V10.374H30.9792V11.9292H29.7448Z" fill="black"/>
<path d="M30.8035 11.9292V10.374H32.0386V11.9292H30.8035Z" fill="black"/>
<path d="M31.7088 11.9292V10.374H32.3264V11.9292H31.7088Z" fill="black"/>
<path d="M7 14.9292V13.374H8.08038V14.9292H7Z" fill="black"/>
<path d="M8.06008 14.9292V13.374H9.44923V14.9292H8.06008Z" fill="black"/>
<path d="M9.19616 14.9292V13.374H10.5853V14.9292H9.19616Z" fill="black"/>
<path d="M10.4096 14.9292V13.374H11.9535V14.9292H10.4096Z" fill="black"/>
<path d="M11.7004 14.9292V13.374H13.2443V14.9292H11.7004Z" fill="black"/>
<path d="M12.9912 14.9292V13.374H14.0716V14.9292H12.9912Z" fill="black"/>
<path d="M14.0513 14.9292V13.374H15.4405V14.9292H14.0513Z" fill="black"/>
<path d="M15.2647 14.9292V13.374H16.8086V14.9292H15.2647Z" fill="black"/>
<path d="M16.6329 14.9292V13.374H17.2505V14.9292H16.6329Z" fill="black"/>
<path d="M17.0741 14.9292V13.374H18.7727V14.9292H17.0741Z" fill="black"/>
<path d="M18.616 14.9292V13.374H19.8504V14.9292H18.616Z" fill="black"/>
<path d="M19.6747 14.9292V13.374H21.0639V14.9292H19.6747Z" fill="black"/>
<path d="M20.7538 14.9292V13.374H21.8342V14.9292H20.7538Z" fill="black"/>
<path d="M21.5044 14.9292V13.374H23.0483V14.9292H21.5044Z" fill="black"/>
<path d="M22.8726 14.9292V13.374H23.4901V14.9292H22.8726Z" fill="black"/>
<path d="M23.3137 14.9292V13.374H25.0124V14.9292H23.3137Z" fill="black"/>
<path d="M24.914 14.9292V13.374H26.1484V14.9292H24.914Z" fill="black"/>
<path d="M25.9727 14.9292V13.374H27.3619V14.9292H25.9727Z" fill="black"/>
<path d="M27.0518 14.9292V13.374H28.5957V14.9292H27.0518Z" fill="black"/>
<path d="M28.2652 14.9292V13.374H29.8091V14.9292H28.2652Z" fill="black"/>
<path d="M29.5561 14.9292V13.374H30.3277V14.9292H29.5561Z" fill="black"/>
<path d="M30.0746 14.9292V13.374H30.6921V14.9292H30.0746Z" fill="black"/>
<path d="M7 17.9292V16.374H8.38916V17.9292H7Z" fill="black"/>
<path d="M8.44554 17.9292V16.374H9.67997V17.9292H8.44554Z" fill="black"/>
<path d="M9.50426 17.9292V16.374H11.0481V17.9292H9.50426Z" fill="black"/>
<path d="M10.8724 17.9292V16.374H11.9528V17.9292H10.8724Z" fill="black"/>
<path d="M11.623 17.9292V16.374H13.1669V17.9292H11.623Z" fill="black"/>
<path d="M12.9912 17.9292V16.374H13.6088V17.9292H12.9912Z" fill="black"/>
<path d="M13.4324 17.9292V16.374H15.131V17.9292H13.4324Z" fill="black"/>
<path d="M15.0327 17.9292V16.374H16.2671V17.9292H15.0327Z" fill="black"/>
<path d="M16.0914 17.9292V16.374H17.4805V17.9292H16.0914Z" fill="black"/>
<path d="M17.1704 17.9292V16.374H18.7143V17.9292H17.1704Z" fill="black"/>
<path d="M18.3839 17.9292V16.374H19.9278V17.9292H18.3839Z" fill="black"/>
<path d="M19.6747 17.9292V16.374H20.2923V17.9292H19.6747Z" fill="black"/>
<path d="M20.1159 17.9292V16.374H21.6598V17.9292H20.1159Z" fill="black"/>
<path d="M21.484 17.9292V16.374H23.0279V17.9292H21.484Z" fill="black"/>
<path d="M22.7749 17.9292V16.374H24.164V17.9292H22.7749Z" fill="black"/>
<path d="M23.9503 17.9292V16.374H24.5678V17.9292H23.9503Z" fill="black"/>
<path d="M24.5462 17.9292V16.374H25.9353V17.9292H24.5462Z" fill="black"/>
<path d="M25.9144 17.9292V16.374H27.1488V17.9292H25.9144Z" fill="black"/>
<path d="M26.9731 17.9292V16.374H27.5906V17.9292H26.9731Z" fill="black"/>
<path d="M7 20.9292V19.374H8.08038V20.9292H7Z" fill="black"/>
<path d="M8.06008 20.9292V19.374H9.44923V20.9292H8.06008Z" fill="black"/>
<path d="M9.27352 20.9292V19.374H10.3539V20.9292H9.27352Z" fill="black"/>
<path d="M10.0241 20.9292V19.374H11.568V20.9292H10.0241Z" fill="black"/>
<path d="M11.3923 20.9292V19.374H12.7815V20.9292H11.3923Z" fill="black"/>
<path d="M12.6058 20.9292V19.374H13.6861V20.9292H12.6058Z" fill="black"/>
<path d="M13.3564 20.9292V19.374H14.4368V20.9292H13.3564Z" fill="black"/>
<path d="M14.4165 20.9292V19.374H15.6509V20.9292H14.4165Z" fill="black"/>
<path d="M15.6299 20.9292V19.374H17.0191V20.9292H15.6299Z" fill="black"/>
<path d="M16.8433 20.9292V19.374H17.4609V20.9292H16.8433Z" fill="black"/>
<path d="M17.4392 20.9292V19.374H18.6737V20.9292H17.4392Z" fill="black"/>
<path d="M18.498 20.9292V19.374H19.7331V20.9292H18.498Z" fill="black"/>
<path d="M19.4033 20.9292V19.374H20.0209V20.9292H19.4033Z" fill="black"/>
<path d="M19.8445 20.9292V19.374H21.3884V20.9292H19.8445Z" fill="black"/>
<path d="M21.1353 20.9292V19.374H22.2157V20.9292H21.1353Z" fill="black"/>
<path d="M21.8859 20.9292V19.374H22.9663V20.9292H21.8859Z" fill="black"/>
<path d="M22.6365 20.9292V19.374H24.1804V20.9292H22.6365Z" fill="black"/>
<path d="M23.9273 20.9292V19.374H25.3165V20.9292H23.9273Z" fill="black"/>
<path d="M25.0634 20.9292V19.374H26.6073V20.9292H25.0634Z" fill="black"/>
<path d="M26.3936 20.9292V19.374H27.474V20.9292H26.3936Z" fill="black"/>
<path d="M27.4537 20.9292V19.374H28.8428V20.9292H27.4537Z" fill="black"/>
<path d="M28.6671 20.9292V19.374H30.211V20.9292H28.6671Z" fill="black"/>
<path d="M30.0353 20.9292V19.374H30.6528V20.9292H30.0353Z" fill="black"/>
<path d="M7 23.9292V22.374H8.69861V23.9292H7Z" fill="black"/>
<path d="M8.5419 23.9292V22.374H9.77633V23.9292H8.5419Z" fill="black"/>
<path d="M9.60062 23.9292V22.374H10.9898V23.9292H9.60062Z" fill="black"/>
<path d="M10.6797 23.9292V22.374H11.7601V23.9292H10.6797Z" fill="black"/>
<path d="M11.4303 23.9292V22.374H12.9742V23.9292H11.4303Z" fill="black"/>
<path d="M12.7985 23.9292V22.374H13.416V23.9292H12.7985Z" fill="black"/>
<path d="M13.2397 23.9292V22.374H14.9383V23.9292H13.2397Z" fill="black"/>
<path d="M14.8399 23.9292V22.374H16.0744V23.9292H14.8399Z" fill="black"/>
<path d="M15.8986 23.9292V22.374H17.2878V23.9292H15.8986Z" fill="black"/>
<path d="M16.9777 23.9292V22.374H18.5216V23.9292H16.9777Z" fill="black"/>
<path d="M18.1912 23.9292V22.374H19.735V23.9292H18.1912Z" fill="black"/>
<path d="M19.482 23.9292V22.374H20.2536V23.9292H19.482Z" fill="black"/>
<path d="M20.0005 23.9292V22.374H20.6181V23.9292H20.0005Z" fill="black"/>
<path d="M20.4417 23.9292V22.374H22.1403V23.9292H20.4417Z" fill="black"/>
<path d="M21.9836 23.9292V22.374H23.218V23.9292H21.9836Z" fill="black"/>
<path d="M23.0423 23.9292V22.374H24.4314V23.9292H23.0423Z" fill="black"/>
<path d="M24.1214 23.9292V22.374H24.7389V23.9292H24.1214Z" fill="black"/>
<path d="M24.5625 23.9292V22.374H26.1064V23.9292H24.5625Z" fill="black"/>
<path d="M26.0081 23.9292V22.374H27.2425V23.9292H26.0081Z" fill="black"/>
<path d="M27.0668 23.9292V22.374H28.6107V23.9292H27.0668Z" fill="black"/>
<path d="M28.2802 23.9292V22.374H29.6694V23.9292H28.2802Z" fill="black"/>
<path d="M29.4557 23.9292V22.374H30.0732V23.9292H29.4557Z" fill="black"/>
<path d="M7 26.9292V25.374H8.69861V26.9292H7Z" fill="black"/>
<path d="M8.44554 26.9292V25.374H10.4529V26.9292H8.44554Z" fill="black"/>
<path d="M10.3539 26.9292V25.374H11.8978V26.9292H10.3539Z" fill="black"/>
<path d="M11.5673 26.9292V25.374H12.9565V26.9292H11.5673Z" fill="black"/>
<path d="M12.6464 26.9292V25.374H13.7268V26.9292H12.6464Z" fill="black"/>
<path d="M13.5518 26.9292V25.374H14.9409V26.9292H13.5518Z" fill="black"/>
<path d="M14.6879 26.9292V25.374H16.2317V26.9292H14.6879Z" fill="black"/>
<path d="M15.9787 26.9292V25.374H16.7503V26.9292H15.9787Z" fill="black"/>
<path d="M16.4972 26.9292V25.374H17.1147V26.9292H16.4972Z" fill="black"/>
<path d="M17.0931 26.9292V25.374H19.2545V26.9292H17.0931Z" fill="black"/>
<path d="M19.0395 26.9292V25.374H20.5833V26.9292H19.0395Z" fill="black"/>
<path d="M20.2529 26.9292V25.374H21.0245V26.9292H20.2529Z" fill="black"/>
<path d="M20.8488 26.9292V25.374H22.2379V26.9292H20.8488Z" fill="black"/>
<path d="M21.9279 26.9292V25.374H23.4718V26.9292H21.9279Z" fill="black"/>
<path d="M23.1413 26.9292V25.374H23.7589V26.9292H23.1413Z" fill="black"/>
<path d="M23.7372 26.9292V25.374H25.1264V26.9292H23.7372Z" fill="black"/>
<path d="M24.8733 26.9292V25.374H26.4172V26.9292H24.8733Z" fill="black"/>
<path d="M26.2415 26.9292V25.374H27.6306V26.9292H26.2415Z" fill="black"/>
<path d="M27.3205 26.9292V25.374H28.8644V26.9292H27.3205Z" fill="black"/>
<path d="M28.534 26.9292V25.374H29.6144V26.9292H28.534Z" fill="black"/>
<path d="M29.5167 26.9292V25.374H30.9059V26.9292H29.5167Z" fill="black"/>
<path d="M30.6528 26.9292V25.374H31.2703V26.9292H30.6528Z" fill="black"/>
<path d="M7 29.9292V28.374H8.54388V29.9292H7Z" fill="black"/>
<path d="M8.29081 29.9292V28.374H9.83469V29.9292H8.29081Z" fill="black"/>
<path d="M9.50426 29.9292V28.374H10.7394V29.9292H9.50426Z" fill="black"/>
<path d="M10.4096 29.9292V28.374H11.9535V29.9292H10.4096Z" fill="black"/>
<path d="M11.7778 29.9292V28.374H13.1669V29.9292H11.7778Z" fill="black"/>
<path d="M12.9912 29.9292V28.374H14.3804V29.9292H12.9912Z" fill="black"/>
<path d="M14.1667 29.9292V28.374H15.247V29.9292H14.1667Z" fill="black"/>
<path d="M14.9946 29.9292V28.374H16.3838V29.9292H14.9946Z" fill="black"/>
<path d="M16.2855 29.9292V28.374H17.8293V29.9292H16.2855Z" fill="black"/>
<path d="M17.4989 29.9292V28.374H18.2705V29.9292H17.4989Z" fill="black"/>
<path d="M18.0174 29.9292V28.374H18.635V29.9292H18.0174Z" fill="black"/>
<path d="M18.4586 29.9292V28.374H20.0025V29.9292H18.4586Z" fill="black"/>
<path d="M19.9041 29.9292V28.374H21.2933V29.9292H19.9041Z" fill="black"/>
<path d="M21.1176 29.9292V28.374H22.6615V29.9292H21.1176Z" fill="black"/>
<path d="M22.4084 29.9292V28.374H23.0259V29.9292H22.4084Z" fill="black"/>
<path d="M22.8496 29.9292V28.374H23.9299V29.9292H22.8496Z" fill="black"/>
<path d="M23.6002 29.9292V28.374H25.1441V29.9292H23.6002Z" fill="black"/>
<path d="M24.9683 29.9292V28.374H26.5122V29.9292H24.9683Z" fill="black"/>
<path d="M26.1818 29.9292V28.374H26.7993V29.9292H26.1818Z" fill="black"/>
<path d="M7 32.9292V31.374H8.38916V32.9292H7Z" fill="black"/>
<path d="M8.07908 32.9292V31.374H9.62296V32.9292H8.07908Z" fill="black"/>
<path d="M9.29252 32.9292V31.374H10.8364V32.9292H9.29252Z" fill="black"/>
<path d="M10.5833 32.9292V31.374H11.9725V32.9292H10.5833Z" fill="black"/>
<path d="M11.9135 32.9292V31.374H13.1479V32.9292H11.9135Z" fill="black"/>
<path d="M13.1269 32.9292V31.374H14.5161V32.9292H13.1269Z" fill="black"/>
<path d="M14.3404 32.9292V31.374H14.9579V32.9292H14.3404Z" fill="black"/>
<path d="M14.7816 32.9292V31.374H16.943V32.9292H14.7816Z" fill="black"/>
<path d="M16.6899 32.9292V31.374H18.2338V32.9292H16.6899Z" fill="black"/>
<path d="M17.9034 32.9292V31.374H18.5209V32.9292H17.9034Z" fill="black"/>
<path d="M18.3445 32.9292V31.374H19.8884V32.9292H18.3445Z" fill="black"/>
<path d="M19.7127 32.9292V31.374H21.2566V32.9292H19.7127Z" fill="black"/>
<path d="M20.9262 32.9292V31.374H22.3153V32.9292H20.9262Z" fill="black"/>
<path d="M22.217 32.9292V31.374H23.7608V32.9292H22.217Z" fill="black"/>
<path d="M23.4304 32.9292V31.374H24.048V32.9292H23.4304Z" fill="black"/>
<path d="M23.8716 32.9292V31.374H24.952V32.9292H23.8716Z" fill="black"/>
<path d="M24.7769 32.9292V31.374H26.0113V32.9292H24.7769Z" fill="black"/>
<path d="M25.8356 32.9292V31.374H26.4532V32.9292H25.8356Z" fill="black"/>
<path d="M26.4315 32.9292V31.374H27.8207V32.9292H26.4315Z" fill="black"/>
<path d="M27.4902 32.9292V31.374H29.0341V32.9292H27.4902Z" fill="black"/>
<path d="M28.7037 32.9292V31.374H29.3212V32.9292H28.7037Z" fill="black"/>
<path d="M7 35.9292V34.374H8.54388V35.9292H7Z" fill="black"/>
<path d="M8.29081 35.9292V34.374H9.83469V35.9292H8.29081Z" fill="black"/>
<path d="M9.50426 35.9292V34.374H10.7394V35.9292H9.50426Z" fill="black"/>
<path d="M10.4096 35.9292V34.374H11.9535V35.9292H10.4096Z" fill="black"/>
<path d="M11.7778 35.9292V34.374H13.1669V35.9292H11.7778Z" fill="black"/>
<path d="M12.9912 35.9292V34.374H14.3804V35.9292H12.9912Z" fill="black"/>
<path d="M14.1667 35.9292V34.374H15.247V35.9292H14.1667Z" fill="black"/>
<path d="M14.9946 35.9292V34.374H16.3838V35.9292H14.9946Z" fill="black"/>
<path d="M16.2855 35.9292V34.374H17.8293V35.9292H16.2855Z" fill="black"/>
<path d="M17.4989 35.9292V34.374H18.1165V35.9292H17.4989Z" fill="black"/>
<path d="M17.9401 35.9292V34.374H19.0204V35.9292H17.9401Z" fill="black"/>
<path d="M18.8454 35.9292V34.374H20.2346V35.9292H18.8454Z" fill="black"/>
<path d="M20.0209 35.9292V34.374H20.6384V35.9292H20.0209Z" fill="black"/>
<path d="M20.6168 35.9292V34.374H22.0059V35.9292H20.6168Z" fill="black"/>
<path d="M21.6755 35.9292V34.374H23.2194V35.9292H21.6755Z" fill="black"/>
<path d="M22.8889 35.9292V34.374H24.2781V35.9292H22.8889Z" fill="black"/>
<path d="M24.025 35.9292V34.374H25.5689V35.9292H24.025Z" fill="black"/>
<path d="M25.3158 35.9292V34.374H26.8597V35.9292H25.3158Z" fill="black"/>
<path d="M26.684 35.9292V34.374H28.0731V35.9292H26.684Z" fill="black"/>
<path d="M27.8594 35.9292V34.374H29.4033V35.9292H27.8594Z" fill="black"/>
<path d="M29.0729 35.9292V34.374H29.6904V35.9292H29.0729Z" fill="black"/>
<path d="M7 38.9292V37.374H8.08038V38.9292H7Z" fill="black"/>
<path d="M7.75062 38.9292V37.374H9.2945V38.9292H7.75062Z" fill="black"/>
<path d="M9.11879 38.9292V37.374H10.6627V38.9292H9.11879Z" fill="black"/>
<path d="M10.3322 38.9292V37.374H11.7214V38.9292H10.3322Z" fill="black"/>
<path d="M11.4113 38.9292V37.374H12.9552V38.9292H11.4113Z" fill="black"/>
<path d="M12.6248 38.9292V37.374H13.2423V38.9292H12.6248Z" fill="black"/>
<path d="M13.0659 38.9292V37.374H14.1463V38.9292H13.0659Z" fill="black"/>
<path d="M13.9713 38.9292V37.374H15.3604V38.9292H13.9713Z" fill="black"/>
<path d="M15.1467 38.9292V37.374H15.7643V38.9292H15.1467Z" fill="black"/>
<path d="M15.5879 38.9292V37.374H17.1318V38.9292H15.5879Z" fill="black"/>
<path d="M16.8787 38.9292V37.374H17.4962V38.9292H16.8787Z" fill="black"/>
<path d="M17.3199 38.9292V37.374H18.4002V38.9292H17.3199Z" fill="black"/>
<path d="M18.0705 38.9292V37.374H19.6144V38.9292H18.0705Z" fill="black"/>
<path d="M19.4386 38.9292V37.374H20.8278V38.9292H19.4386Z" fill="black"/>
<path d="M20.5177 38.9292V37.374H22.0616V38.9292H20.5177Z" fill="black"/>
<path d="M21.7312 38.9292V37.374H23.2751V38.9292H21.7312Z" fill="black"/>
<path d="M23.022 38.9292V37.374H24.1024V38.9292H23.022Z" fill="black"/>
<path d="M23.7726 38.9292V37.374H25.3165V38.9292H23.7726Z" fill="black"/>
<path d="M25.1408 38.9292V37.374H26.5299V38.9292H25.1408Z" fill="black"/>
<path d="M26.3542 38.9292V37.374H27.4346V38.9292H26.3542Z" fill="black"/>
<path d="M27.4143 38.9292V37.374H28.8035V38.9292H27.4143Z" fill="black"/>
<path d="M28.6277 38.9292V37.374H30.1716V38.9292H28.6277Z" fill="black"/>
<path d="M29.9959 38.9292V37.374H30.6135V38.9292H29.9959Z" fill="black"/>
<path d="M7.15473 41.9292V40.374H8.54388V41.9292H7.15473Z" fill="black"/>
<path d="M8.44554 41.9292V40.374H9.67997V41.9292H8.44554Z" fill="black"/>
<path d="M9.50426 41.9292V40.374H10.8934V41.9292H9.50426Z" fill="black"/>
<path d="M10.6797 41.9292V40.374H11.7601V41.9292H10.6797Z" fill="black"/>
<path d="M11.585 41.9292V40.374H12.6654V41.9292H11.585Z" fill="black"/>
<path d="M12.3357 41.9292V40.374H13.416V41.9292H12.3357Z" fill="black"/>
<path d="M13.3957 41.9292V40.374H14.6302V41.9292H13.3957Z" fill="black"/>
<path d="M14.6092 41.9292V40.374H15.9983V41.9292H14.6092Z" fill="black"/>
<path d="M15.8226 41.9292V40.374H16.4402V41.9292H15.8226Z" fill="black"/>
<path d="M16.4185 41.9292V40.374H17.653V41.9292H16.4185Z" fill="black"/>
<path d="M17.4772 41.9292V40.374H18.7124V41.9292H17.4772Z" fill="black"/>
<path d="M18.3826 41.9292V40.374H19.0001V41.9292H18.3826Z" fill="black"/>
<path d="M18.8238 41.9292V40.374H19.9041V41.9292H18.8238Z" fill="black"/>
<path d="M19.5744 41.9292V40.374H21.1183V41.9292H19.5744Z" fill="black"/>
<path d="M20.9425 41.9292V40.374H22.4864V41.9292H20.9425Z" fill="black"/>
<path d="M22.156 41.9292V40.374H22.7735V41.9292H22.156Z" fill="black"/>
<path d="M22.5972 41.9292V40.374H24.2958V41.9292H22.5972Z" fill="black"/>
<path d="M23.9843 41.9292V40.374H25.9917V41.9292H23.9843Z" fill="black"/>
<path d="M25.7963 41.9292V40.374H27.3402V41.9292H25.7963Z" fill="black"/>
<path d="M27.0288 41.9292V40.374H27.8004V41.9292H27.0288Z" fill="black"/>
<path d="M27.5473 41.9292V40.374H28.1649V41.9292H27.5473Z" fill="black"/>
<path d="M27.9885 41.9292V40.374H29.3776V41.9292H27.9885Z" fill="black"/>
<path d="M29.3186 41.9292V40.374H30.5531V41.9292H29.3186Z" fill="black"/>
<path d="M30.3774 41.9292V40.374H30.9949V41.9292H30.3774Z" fill="black"/>
<path d="M7 44.9292V43.374H9.16144V44.9292H7Z" fill="black"/>
<path d="M8.90836 44.9292V43.374H10.4522V44.9292H8.90836Z" fill="black"/>
<path d="M10.1218 44.9292V43.374H10.7394V44.9292H10.1218Z" fill="black"/>
<path d="M10.563 44.9292V43.374H11.6434V44.9292H10.563Z" fill="black"/>
<path d="M11.623 44.9292V43.374H12.8575V44.9292H11.623Z" fill="black"/>
<path d="M12.8365 44.9292V43.374H14.2257V44.9292H12.8365Z" fill="black"/>
<path d="M14.0499 44.9292V43.374H15.5938V44.9292H14.0499Z" fill="black"/>
<path d="M15.4181 44.9292V43.374H16.0357V44.9292H15.4181Z" fill="black"/>
<path d="M15.8593 44.9292V43.374H17.0944V44.9292H15.8593Z" fill="black"/>
<path d="M16.9194 44.9292V43.374H18.1538V44.9292H16.9194Z" fill="black"/>
<path d="M17.9781 44.9292V43.374H19.3672V44.9292H17.9781Z" fill="black"/>
<path d="M19.0571 44.9292V43.374H19.6747V44.9292H19.0571Z" fill="black"/>
<path d="M19.653 44.9292V43.374H21.0422V44.9292H19.653Z" fill="black"/>
<path d="M20.7891 44.9292V43.374H22.333V44.9292H20.7891Z" fill="black"/>
<path d="M22.0026 44.9292V43.374H23.5465V44.9292H22.0026Z" fill="black"/>
<path d="M23.2934 44.9292V43.374H24.6825V44.9292H23.2934Z" fill="black"/>
<path d="M24.4295 44.9292V43.374H25.9733V44.9292H24.4295Z" fill="black"/>
<path d="M25.6429 44.9292V43.374H26.4145V44.9292H25.6429Z" fill="black"/>
<path d="M26.1614 44.9292V43.374H26.779V44.9292H26.1614Z" fill="black"/>
<path d="M26.6026 44.9292V43.374H27.8377V44.9292H26.6026Z" fill="black"/>
<path d="M27.6613 44.9292V43.374H28.7417V44.9292H27.6613Z" fill="black"/>
<path d="M28.4119 44.9292V43.374H29.1835V44.9292H28.4119Z" fill="black"/>
<path d="M29.0078 44.9292V43.374H30.397V44.9292H29.0078Z" fill="black"/>
<path d="M30.1833 44.9292V43.374H30.8008V44.9292H30.1833Z" fill="black"/>
<path d="M30.6244 44.9292V43.374H31.7048V44.9292H30.6244Z" fill="black"/>
<path d="M31.6845 44.9292V43.374H33.0737V44.9292H31.6845Z" fill="black"/>
<path d="M32.898 44.9292V43.374H33.5155V44.9292H32.898Z" fill="black"/>
<path d="M7.15473 47.9292V46.374H8.38916V47.9292H7.15473Z" fill="black"/>
<path d="M8.21345 47.9292V46.374H9.75733V47.9292H8.21345Z" fill="black"/>
<path d="M9.58162 47.9292V46.374H10.9708V47.9292H9.58162Z" fill="black"/>
<path d="M10.6607 47.9292V46.374H11.2783V47.9292H10.6607Z" fill="black"/>
<path d="M11.2566 47.9292V46.374H12.6457V47.9292H11.2566Z" fill="black"/>
<path d="M12.47 47.9292V46.374H14.0139V47.9292H12.47Z" fill="black"/>
<path d="M13.7608 47.9292V46.374H14.8412V47.9292H13.7608Z" fill="black"/>
<path d="M14.5115 47.9292V46.374H15.5918V47.9292H14.5115Z" fill="black"/>
<path d="M15.5715 47.9292V46.374H16.806V47.9292H15.5715Z" fill="black"/>
<path d="M16.785 47.9292V46.374H18.1741V47.9292H16.785Z" fill="black"/>
<path d="M17.9984 47.9292V46.374H18.77V47.9292H17.9984Z" fill="black"/>
<path d="M18.5943 47.9292V46.374H19.9835V47.9292H18.5943Z" fill="black"/>
<path d="M19.7698 47.9292V46.374H20.3873V47.9292H19.7698Z" fill="black"/>
<path d="M20.2109 47.9292V46.374H21.2913V47.9292H20.2109Z" fill="black"/>
<path d="M21.271 47.9292V46.374H22.6602V47.9292H21.271Z" fill="black"/>
<path d="M22.4845 47.9292V46.374H23.5648V47.9292H22.4845Z" fill="black"/>
<path d="M23.2351 47.9292V46.374H24.779V47.9292H23.2351Z" fill="black"/>
<path d="M24.4485 47.9292V46.374H25.8377V47.9292H24.4485Z" fill="black"/>
<path d="M25.5276 47.9292V46.374H27.0715V47.9292H25.5276Z" fill="black"/>
<path d="M26.741 47.9292V46.374H28.1302V47.9292H26.741Z" fill="black"/>
<path d="M27.9165 47.9292V46.374H28.9969V47.9292H27.9165Z" fill="black"/>
<path d="M28.6671 47.9292V46.374H29.2847V47.9292H28.6671Z" fill="black"/>
<path d="M29.1083 47.9292V46.374H30.1886V47.9292H29.1083Z" fill="black"/>
<path d="M29.8589 47.9292V46.374H31.4028V47.9292H29.8589Z" fill="black"/>
<path d="M31.2271 47.9292V46.374H32.7709V47.9292H31.2271Z" fill="black"/>
<path d="M32.5179 47.9292V46.374H33.5983V47.9292H32.5179Z" fill="black"/>
<path d="M33.2685 47.9292V46.374H33.886V47.9292H33.2685Z" fill="black"/>
<path d="M7 50.9292V49.374H9.16144V50.9292H7Z" fill="black"/>
<path d="M8.90836 50.9292V49.374H10.4522V50.9292H8.90836Z" fill="black"/>
<path d="M10.1218 50.9292V49.374H10.7394V50.9292H10.1218Z" fill="black"/>
<path d="M10.563 50.9292V49.374H12.1069V50.9292H10.563Z" fill="black"/>
<path d="M11.8538 50.9292V49.374H13.2429V50.9292H11.8538Z" fill="black"/>
<path d="M12.9899 50.9292V49.374H14.5338V50.9292H12.9899Z" fill="black"/>
<path d="M14.358 50.9292V49.374H15.4384V50.9292H14.358Z" fill="black"/>
<path d="M15.2634 50.9292V49.374H16.8073V50.9292H15.2634Z" fill="black"/>
<path d="M16.4768 50.9292V49.374H17.866V50.9292H16.4768Z" fill="black"/>
<path d="M17.7676 50.9292V49.374H19.3115V50.9292H17.7676Z" fill="black"/>
<path d="M18.9811 50.9292V49.374H19.5986V50.9292H18.9811Z" fill="black"/>
<path d="M19.577 50.9292V49.374H20.9661V50.9292H19.577Z" fill="black"/>
<path d="M20.7131 50.9292V49.374H22.2569V50.9292H20.7131Z" fill="black"/>
<path d="M21.9265 50.9292V49.374H23.4704V50.9292H21.9265Z" fill="black"/>
<path d="M23.2173 50.9292V49.374H24.6065V50.9292H23.2173Z" fill="black"/>
<path d="M24.3534 50.9292V49.374H25.8973V50.9292H24.3534Z" fill="black"/>
<path d="M25.5668 50.9292V49.374H26.1844V50.9292H25.5668Z" fill="black"/>
<path d="M26.1627 50.9292V49.374H27.3972V50.9292H26.1627Z" fill="black"/>
<path d="M27.3762 50.9292V49.374H28.7653V50.9292H27.3762Z" fill="black"/>
<path d="M28.5896 50.9292V49.374H29.2072V50.9292H28.5896Z" fill="black"/>
<path d="M29.0308 50.9292V49.374H30.1112V50.9292H29.0308Z" fill="black"/>
<path d="M29.7814 50.9292V49.374H31.3253V50.9292H29.7814Z" fill="black"/>
<path d="M31.1496 50.9292V49.374H32.6935V50.9292H31.1496Z" fill="black"/>
<path d="M32.363 50.9292V49.374H32.9806V50.9292H32.363Z" fill="black"/>
<path d="M7.15473 53.9292V52.374H8.54388V53.9292H7.15473Z" fill="black"/>
<path d="M8.29081 53.9292V52.374H9.83469V53.9292H8.29081Z" fill="black"/>
<path d="M9.65898 53.9292V52.374H11.0481V53.9292H9.65898Z" fill="black"/>
<path d="M10.8724 53.9292V52.374H11.9528V53.9292H10.8724Z" fill="black"/>
<path d="M11.9325 53.9292V52.374H13.3217V53.9292H11.9325Z" fill="black"/>
<path d="M13.146 53.9292V52.374H14.5351V53.9292H13.146Z" fill="black"/>
<path d="M14.3214 53.9292V52.374H15.8653V53.9292H14.3214Z" fill="black"/>
<path d="M15.6896 53.9292V52.374H16.7699V53.9292H15.6896Z" fill="black"/>
<path d="M16.5949 53.9292V52.374H18.1388V53.9292H16.5949Z" fill="black"/>
<path d="M17.8857 53.9292V52.374H18.6573V53.9292H17.8857Z" fill="black"/>
<path d="M18.4043 53.9292V52.374H19.1759V53.9292H18.4043Z" fill="black"/>
<path d="M19.0001 53.9292V52.374H19.7717V53.9292H19.0001Z" fill="black"/>
</g>
<rect width="12" height="14" transform="translate(26 44.9292)" fill="white"/>
<path d="M31.6787 48.7905C32.5999 48.7905 33.2721 48.9891 33.6953 49.3862C34.1185 49.7801 34.3301 50.3237 34.3301 51.0171C34.3301 51.3296 34.2829 51.6291 34.1885 51.9155C34.0941 52.1987 33.9395 52.451 33.7246 52.6724C33.513 52.8937 33.2298 53.0695 32.875 53.1997C32.5202 53.3267 32.0824 53.3901 31.5615 53.3901H30.9121V55.9292H29.3984V48.7905H31.6787ZM31.6006 50.0308H30.9121V52.1499H31.4102C31.6934 52.1499 31.9391 52.1125 32.1475 52.0376C32.3558 51.9627 32.5169 51.8455 32.6309 51.686C32.7448 51.5265 32.8018 51.3215 32.8018 51.0708C32.8018 50.7192 32.7041 50.4588 32.5088 50.2896C32.3135 50.117 32.0107 50.0308 31.6006 50.0308Z" fill="#585858"/>
<rect x="1" y="1.37402" width="39" height="60.5552" stroke="#364B60"/>
<path d="M12.3333 64.9292H3V71.2773H12.3333V64.9292Z" fill="#E5592D"/>
</svg>
