<svg width="39" height="40" viewBox="0 0 39 40" fill="none" xmlns="http://www.w3.org/2000/svg">
<rect width="39" height="40" fill=""/>
<g clip-path="url(#clip0_39_124700)">
<g filter="url(#filter0_d_39_124700)">
<rect width="35" height="23.5552" transform="translate(2 2.28516)" fill="white"/>
<g opacity="0.3">
<rect width="35" height="21.5552" transform="translate(2 2.28516)" fill="white"/>
<path d="M6 7.84033V6.28516H6.77433V7.84033H6Z" fill="black"/>
<path d="M6.598 7.84033V6.28516H7.83746V7.84033H6.598Z" fill="black"/>
<path d="M7.66045 7.84033V6.28516H8.28018V7.84033H7.66045Z" fill="black"/>
<path d="M8.10317 7.84033V6.28516H10.2722V7.84033H8.10317Z" fill="black"/>
<path d="M10.0183 7.84033V6.28516H11.1025V7.84033H10.0183Z" fill="black"/>
<path d="M10.9268 7.84033V6.28516H12.011V7.84033H10.9268Z" fill="black"/>
<path d="M11.8354 7.84033V6.28516H12.9195V7.84033H11.8354Z" fill="black"/>
<path d="M12.7439 7.84033V6.28516H13.3636V7.84033H12.7439Z" fill="black"/>
<path d="M13.1866 7.84033V6.28516H14.736V7.84033H13.1866Z" fill="black"/>
<path d="M14.6373 7.84033V6.28516H15.876V7.84033H14.6373Z" fill="black"/>
<path d="M15.6997 7.84033V6.28516H16.3194V7.84033H15.6997Z" fill="black"/>
<path d="M16.2977 7.84033V6.28516H17.6918V7.84033H16.2977Z" fill="black"/>
<path d="M17.6707 7.84033V6.28516H18.9095V7.84033H17.6707Z" fill="black"/>
<path d="M18.7332 7.84033V6.28516H19.8174V7.84033H18.7332Z" fill="black"/>
<path d="M19.4864 7.84033V6.28516H21.0358V7.84033H19.4864Z" fill="black"/>
<path d="M20.8594 7.84033V6.28516H21.9436V7.84033H20.8594Z" fill="black"/>
<path d="M21.9233 7.84033V6.28516H23.3173V7.84033H21.9233Z" fill="black"/>
<path d="M23.141 7.84033V6.28516H24.6903V7.84033H23.141Z" fill="black"/>
<path d="M24.514 7.84033V6.28516H25.1337V7.84033H24.514Z" fill="black"/>
<path d="M24.9567 7.84033V6.28516H26.0409V7.84033H24.9567Z" fill="black"/>
<path d="M25.8652 7.84033V6.28516H27.104V7.84033H25.8652Z" fill="black"/>
<path d="M26.9277 7.84033V6.28516H27.5474V7.84033H26.9277Z" fill="black"/>
<path d="M6 10.8403V9.28516H7.54933V10.8403H6Z" fill="black"/>
<path d="M7.52828 10.8403V9.28516H8.92234V10.8403H7.52828Z" fill="black"/>
<path d="M8.746 10.8403V9.28516H10.2953V10.8403H8.746Z" fill="black"/>
<path d="M10.0414 10.8403V9.28516H11.5907V10.8403H10.0414Z" fill="black"/>
<path d="M11.2591 10.8403V9.28516H12.6532V10.8403H11.2591Z" fill="black"/>
<path d="M12.342 10.8403V9.28516H14.3565V10.8403H12.342Z" fill="black"/>
<path d="M14.2571 10.8403V9.28516H15.3413V10.8403H14.2571Z" fill="black"/>
<path d="M15.3209 10.8403V9.28516H16.715V10.8403H15.3209Z" fill="black"/>
<path d="M16.5386 10.8403V9.28516H18.088V10.8403H16.5386Z" fill="black"/>
<path d="M17.7564 10.8403V9.28516H18.3761V10.8403H17.7564Z" fill="black"/>
<path d="M18.1991 10.8403V9.28516H19.2833V10.8403H18.1991Z" fill="black"/>
<path d="M18.9523 10.8403V9.28516H20.5017V10.8403H18.9523Z" fill="black"/>
<path d="M20.3253 10.8403V9.28516H21.8747V10.8403H20.3253Z" fill="black"/>
<path d="M21.5431 10.8403V9.28516H22.1628V10.8403H21.5431Z" fill="black"/>
<path d="M21.9858 10.8403V9.28516H23.3799V10.8403H21.9858Z" fill="black"/>
<path d="M23.1654 10.8403V9.28516H24.2496V10.8403H23.1654Z" fill="black"/>
<path d="M24.0739 10.8403V9.28516H25.6233V10.8403H24.0739Z" fill="black"/>
<path d="M25.3693 10.8403V9.28516H25.989V10.8403H25.3693Z" fill="black"/>
<path d="M25.9673 10.8403V9.28516H27.3614V10.8403H25.9673Z" fill="black"/>
<path d="M27.1074 10.8403V9.28516H28.6567V10.8403H27.1074Z" fill="black"/>
<path d="M28.4028 10.8403V9.28516H29.7968V10.8403H28.4028Z" fill="black"/>
<path d="M29.4856 10.8403V9.28516H30.5698V10.8403H29.4856Z" fill="black"/>
<path d="M30.3942 10.8403V9.28516H31.7882V10.8403H30.3942Z" fill="black"/>
<path d="M31.5343 10.8403V9.28516H32.154V10.8403H31.5343Z" fill="black"/>
<path d="M6 13.8403V12.2852H7.39406V13.8403H6Z" fill="black"/>
<path d="M7.17959 13.8403V12.2852H8.26378V13.8403H7.17959Z" fill="black"/>
<path d="M7.93286 13.8403V12.2852H9.32692V13.8403H7.93286Z" fill="black"/>
<path d="M9.01575 13.8403V12.2852H10.5651V13.8403H9.01575Z" fill="black"/>
<path d="M10.3887 13.8403V12.2852H11.7828V13.8403H10.3887Z" fill="black"/>
<path d="M11.5288 13.8403V12.2852H12.613V13.8403H11.5288Z" fill="black"/>
<path d="M12.2821 13.8403V12.2852H13.8314V13.8403H12.2821Z" fill="black"/>
<path d="M13.6551 13.8403V12.2852H15.0492V13.8403H13.6551Z" fill="black"/>
<path d="M14.738 13.8403V12.2852H16.2873V13.8403H14.738Z" fill="black"/>
<path d="M15.9557 13.8403V12.2852H16.7301V13.8403H15.9557Z" fill="black"/>
<path d="M16.4761 13.8403V12.2852H17.0958V13.8403H16.4761Z" fill="black"/>
<path d="M16.9188 13.8403V12.2852H18.003V13.8403H16.9188Z" fill="black"/>
<path d="M17.6721 13.8403V12.2852H19.2214V13.8403H17.6721Z" fill="black"/>
<path d="M19.0451 13.8403V12.2852H20.5944V13.8403H19.0451Z" fill="black"/>
<path d="M20.2628 13.8403V12.2852H20.8825V13.8403H20.2628Z" fill="black"/>
<path d="M20.7055 13.8403V12.2852H22.0996V13.8403H20.7055Z" fill="black"/>
<path d="M21.8456 13.8403V12.2852H23.2397V13.8403H21.8456Z" fill="black"/>
<path d="M22.9285 13.8403V12.2852H24.4778V13.8403H22.9285Z" fill="black"/>
<path d="M24.1462 13.8403V12.2852H25.6956V13.8403H24.1462Z" fill="black"/>
<path d="M25.4416 13.8403V12.2852H26.5258V13.8403H25.4416Z" fill="black"/>
<path d="M26.5054 13.8403V12.2852H27.8995V13.8403H26.5054Z" fill="black"/>
<path d="M27.5679 13.8403V12.2852H28.6521V13.8403H27.5679Z" fill="black"/>
<path d="M28.4764 13.8403V12.2852H29.5606V13.8403H28.4764Z" fill="black"/>
<path d="M29.385 13.8403V12.2852H30.4691V13.8403H29.385Z" fill="black"/>
<path d="M30.2935 13.8403V12.2852H31.3777V13.8403H30.2935Z" fill="black"/>
<path d="M31.202 13.8403V12.2852H32.5961V13.8403H31.202Z" fill="black"/>
<path d="M32.3421 13.8403V12.2852H32.9619V13.8403H32.3421Z" fill="black"/>
<path d="M6.15527 16.8403V15.2852H7.39406V16.8403H6.15527Z" fill="black"/>
<path d="M7.21773 16.8403V15.2852H8.4572V16.8403H7.21773Z" fill="black"/>
<path d="M8.12627 16.8403V15.2852H8.746V16.8403H8.12627Z" fill="black"/>
<path d="M8.56899 16.8403V15.2852H9.65319V16.8403H8.56899Z" fill="black"/>
<path d="M9.32226 16.8403V15.2852H10.8716V16.8403H9.32226Z" fill="black"/>
<path d="M10.6953 16.8403V15.2852H12.2446V16.8403H10.6953Z" fill="black"/>
<path d="M11.913 16.8403V15.2852H12.5327V16.8403H11.913Z" fill="black"/>
<path d="M12.3557 16.8403V15.2852H13.7498V16.8403H12.3557Z" fill="black"/>
<path d="M13.5353 16.8403V15.2852H14.6195V16.8403H13.5353Z" fill="black"/>
<path d="M14.4438 16.8403V15.2852H15.9932V16.8403H14.4438Z" fill="black"/>
<path d="M15.8945 16.8403V15.2852H17.2885V16.8403H15.8945Z" fill="black"/>
<path d="M17.0346 16.8403V15.2852H18.5839V16.8403H17.0346Z" fill="black"/>
<path d="M18.3299 16.8403V15.2852H19.724V16.8403H18.3299Z" fill="black"/>
<path d="M19.4128 16.8403V15.2852H20.497V16.8403H19.4128Z" fill="black"/>
<path d="M20.3214 16.8403V15.2852H21.7154V16.8403H20.3214Z" fill="black"/>
<path d="M21.4615 16.8403V15.2852H22.0812V16.8403H21.4615Z" fill="black"/>
<path d="M21.9042 16.8403V15.2852H23.2982V16.8403H21.9042Z" fill="black"/>
<path d="M23.0838 16.8403V15.2852H24.168V16.8403H23.0838Z" fill="black"/>
<path d="M23.837 16.8403V15.2852H25.2311V16.8403H23.837Z" fill="black"/>
<path d="M24.9199 16.8403V15.2852H26.4693V16.8403H24.9199Z" fill="black"/>
<path d="M26.2929 16.8403V15.2852H27.687V16.8403H26.2929Z" fill="black"/>
<path d="M27.433 16.8403V15.2852H28.5172V16.8403H27.433Z" fill="black"/>
<path d="M28.1863 16.8403V15.2852H29.7356V16.8403H28.1863Z" fill="black"/>
<path d="M29.5593 16.8403V15.2852H30.9534V16.8403H29.5593Z" fill="black"/>
<path d="M30.6422 16.8403V15.2852H32.1915V16.8403H30.6422Z" fill="black"/>
<path d="M31.8599 16.8403V15.2852H32.6342V16.8403H31.8599Z" fill="black"/>
<path d="M32.3803 16.8403V15.2852H33V16.8403H32.3803Z" fill="black"/>
<path d="M6 19.8403V18.2852H7.54933V19.8403H6Z" fill="black"/>
<path d="M7.45064 19.8403V18.2852H8.8447V19.8403H7.45064Z" fill="black"/>
<path d="M8.66837 19.8403V18.2852H10.2177V19.8403H8.66837Z" fill="black"/>
<path d="M9.96373 19.8403V18.2852H10.5835V19.8403H9.96373Z" fill="black"/>
<path d="M10.5617 19.8403V18.2852H11.8005V19.8403H10.5617Z" fill="black"/>
<path d="M11.6242 19.8403V18.2852H13.1735V19.8403H11.6242Z" fill="black"/>
<path d="M12.9972 19.8403V18.2852H14.3912V19.8403H12.9972Z" fill="black"/>
<path d="M14.0801 19.8403V18.2852H14.6998V19.8403H14.0801Z" fill="black"/>
<path d="M14.6781 19.8403V18.2852H16.0721V19.8403H14.6781Z" fill="black"/>
<path d="M15.8182 19.8403V18.2852H17.3675V19.8403H15.8182Z" fill="black"/>
<path d="M17.1135 19.8403V18.2852H18.5076V19.8403H17.1135Z" fill="black"/>
<path d="M18.1964 19.8403V18.2852H19.2806V19.8403H18.1964Z" fill="black"/>
<path d="M19.105 19.8403V18.2852H20.499V19.8403H19.105Z" fill="black"/>
<path d="M20.3227 19.8403V18.2852H21.872V19.8403H20.3227Z" fill="black"/>
<path d="M21.5404 19.8403V18.2852H22.9345V19.8403H21.5404Z" fill="black"/>
<path d="M22.6233 19.8403V18.2852H24.0174V19.8403H22.6233Z" fill="black"/>
<path d="M23.8029 19.8403V18.2852H24.5772V19.8403H23.8029Z" fill="black"/>
<path d="M24.3232 19.8403V18.2852H25.0976V19.8403H24.3232Z" fill="black"/>
<path d="M6.30987 7.73574H27.2376V7.80547H6.30987V7.73574ZM6.30987 10.7357H31.8441V10.8055H6.30987V10.7357ZM6.30987 13.7357H32.652V13.8055H6.30987V13.7357ZM6.30987 16.7357H32.6901V16.8055H6.30987V16.7357ZM6.30987 19.7357H25.2869V19.8055H6.30987V19.7357Z" fill="black"/>
</g>
<rect width="12" height="14" transform="translate(25 10.8403)" fill="white"/>
<path d="M30.6787 14.7017C31.5999 14.7017 32.2721 14.9002 32.6953 15.2974C33.1185 15.6912 33.3301 16.2349 33.3301 16.9282C33.3301 17.2407 33.2829 17.5402 33.1885 17.8267C33.0941 18.1099 32.9395 18.3621 32.7246 18.5835C32.513 18.8049 32.2298 18.9806 31.875 19.1108C31.5202 19.2378 31.0824 19.3013 30.5615 19.3013H29.9121V21.8403H28.3984V14.7017H30.6787ZM30.6006 15.9419H29.9121V18.061H30.4102C30.6934 18.061 30.9391 18.0236 31.1475 17.9487C31.3558 17.8739 31.5169 17.7567 31.6309 17.5972C31.7448 17.4377 31.8018 17.2326 31.8018 16.9819C31.8018 16.6304 31.7041 16.37 31.5088 16.2007C31.3135 16.0282 31.0107 15.9419 30.6006 15.9419Z" fill="#585858"/>
</g>
<path d="M11.3333 30.8403H2V37.1884H11.3333V30.8403Z" fill="#E1C278"/>
</g>
<defs>
<filter id="filter0_d_39_124700" x="0" y="1.28516" width="39" height="27.5552" filterUnits="userSpaceOnUse" color-interpolation-filters="sRGB">
<feFlood flood-opacity="0" result="BackgroundImageFix"/>
<feColorMatrix in="SourceAlpha" type="matrix" values="0 0 0 0 0 0 0 0 0 0 0 0 0 0 0 0 0 0 127 0" result="hardAlpha"/>
<feOffset dy="1"/>
<feGaussianBlur stdDeviation="1"/>
<feComposite in2="hardAlpha" operator="out"/>
<feColorMatrix type="matrix" values="0 0 0 0 0 0 0 0 0 0 0 0 0 0 0 0 0 0 0.1 0"/>
<feBlend mode="normal" in2="BackgroundImageFix" result="effect1_dropShadow_39_124700"/>
<feBlend mode="normal" in="SourceGraphic" in2="effect1_dropShadow_39_124700" result="shape"/>
</filter>
<clipPath id="clip0_39_124700">
<rect width="39" height="38.9033" fill="white" transform="translate(0 0.285156)"/>
</clipPath>
</defs>
</svg>
