<svg width="39" height="54" viewBox="0 0 39 54" fill="none" xmlns="http://www.w3.org/2000/svg">
<rect width="39" height="54" fill=""/>
<rect width="35" height="38.5552" transform="translate(2 2.08398)" fill="white"/>
<g opacity="0.3">
<path d="M6 7.63916V6.08398H6.76503V7.63916H6Z" fill="black"/>
<path d="M6.59081 7.63916V6.08398H8.12154V7.63916H6.59081Z" fill="black"/>
<path d="M7.94732 7.63916V6.08398H9.47805V7.63916H7.94732Z" fill="black"/>
<path d="M9.30383 7.63916V6.08398H10.8346V7.63916H9.30383Z" fill="black"/>
<path d="M10.5069 7.63916V6.08398H11.1192V7.63916H10.5069Z" fill="black"/>
<path d="M10.9443 7.63916V6.08398H12.6285V7.63916H10.9443Z" fill="black"/>
<path d="M12.4919 7.63916V6.08398H13.8693V7.63916H12.4919Z" fill="black"/>
<path d="M13.695 7.63916V6.08398H14.7662V7.63916H13.695Z" fill="black"/>
<path d="M14.5927 7.63916V6.08398H15.6638V7.63916H14.5927Z" fill="black"/>
<path d="M15.3369 7.63916V6.08398H16.8676V7.63916H15.3369Z" fill="black"/>
<path d="M16.54 7.63916V6.08398H18.0707V7.63916H16.54Z" fill="black"/>
<path d="M17.8198 7.63916V6.08398H18.4321V7.63916H17.8198Z" fill="black"/>
<path d="M18.2572 7.63916V6.08398H19.6345V7.63916H18.2572Z" fill="black"/>
<path d="M19.537 7.63916V6.08398H20.6082V7.63916H19.537Z" fill="black"/>
<path d="M20.2812 7.63916V6.08398H21.812V7.63916H20.2812Z" fill="black"/>
<path d="M21.561 7.63916V6.08398H22.6322V7.63916H21.561Z" fill="black"/>
<path d="M22.3053 7.63916V6.08398H23.836V7.63916H22.3053Z" fill="black"/>
<path d="M23.5084 7.63916V6.08398H24.8857V7.63916H23.5084Z" fill="black"/>
<path d="M24.6738 7.63916V6.08398H25.2861V7.63916H24.6738Z" fill="black"/>
<path d="M25.1112 7.63916V6.08398H26.6419V7.63916H25.1112Z" fill="black"/>
<path d="M26.6211 7.63916V6.08398H27.845V7.63916H26.6211Z" fill="black"/>
<path d="M27.8242 7.63916V6.08398H29.2015V7.63916H27.8242Z" fill="black"/>
<path d="M28.9506 7.63916V6.08398H30.4813V7.63916H28.9506Z" fill="black"/>
<path d="M30.1537 7.63916V6.08398H31.531V7.63916H30.1537Z" fill="black"/>
<path d="M31.3191 7.63916V6.08398H31.9314V7.63916H31.3191Z" fill="black"/>
<path d="M6 10.6392V9.08398H7.22458V10.6392H6Z" fill="black"/>
<path d="M7.05104 10.6392V9.08398H8.27494V10.6392H7.05104Z" fill="black"/>
<path d="M8.10073 10.6392V9.08398H9.47805V10.6392H8.10073Z" fill="black"/>
<path d="M9.17061 10.6392V9.08398H9.7829V10.6392H9.17061Z" fill="black"/>
<path d="M9.60801 10.6392V9.08398H11.1387V10.6392H9.60801Z" fill="black"/>
<path d="M10.8878 10.6392V9.08398H11.5001V10.6392H10.8878Z" fill="black"/>
<path d="M11.3252 10.6392V9.08398H12.8559V10.6392H11.3252Z" fill="black"/>
<path d="M12.605 10.6392V9.08398H13.6762V10.6392H12.605Z" fill="black"/>
<path d="M13.5027 10.6392V9.08398H14.7272V10.6392H13.5027Z" fill="black"/>
<path d="M14.4003 10.6392V9.08398H15.6249V10.6392H14.4003Z" fill="black"/>
<path d="M15.2979 10.6392V9.08398H16.8286V10.6392H15.2979Z" fill="black"/>
<path d="M16.501 10.6392V9.08398H17.8783V10.6392H16.501Z" fill="black"/>
<path d="M17.5709 10.6392V9.08398H19.1016V10.6392H17.5709Z" fill="black"/>
<path d="M18.9274 10.6392V9.08398H20.3047V10.6392H18.9274Z" fill="black"/>
<path d="M20.1305 10.6392V9.08398H21.2017V10.6392H20.1305Z" fill="black"/>
<path d="M20.8747 10.6392V9.08398H21.487V10.6392H20.8747Z" fill="black"/>
<path d="M21.3121 10.6392V9.08398H22.5367V10.6392H21.3121Z" fill="black"/>
<path d="M22.2098 10.6392V9.08398H23.7405V10.6392H22.2098Z" fill="black"/>
<path d="M23.5663 10.6392V9.08398H24.6374V10.6392H23.5663Z" fill="black"/>
<path d="M24.3105 10.6392V9.08398H25.8412V10.6392H24.3105Z" fill="black"/>
<path d="M25.667 10.6392V9.08398H27.0443V10.6392H25.667Z" fill="black"/>
<path d="M26.7369 10.6392V9.08398H28.2676V10.6392H26.7369Z" fill="black"/>
<path d="M27.94 10.6392V9.08398H28.5523V10.6392H27.94Z" fill="black"/>
<path d="M6 13.6392V12.084H8.14301V13.6392H6Z" fill="black"/>
<path d="M7.8921 13.6392V12.084H8.96327V13.6392H7.8921Z" fill="black"/>
<path d="M8.78973 13.6392V12.084H9.8609V13.6392H8.78973Z" fill="black"/>
<path d="M9.53395 13.6392V12.084H11.0647V13.6392H9.53395Z" fill="black"/>
<path d="M10.8905 13.6392V12.084H11.5027V13.6392H10.8905Z" fill="black"/>
<path d="M11.3279 13.6392V12.084H13.012V13.6392H11.3279Z" fill="black"/>
<path d="M12.8566 13.6392V12.084H14.0805V13.6392H12.8566Z" fill="black"/>
<path d="M13.9063 13.6392V12.084H15.2836V13.6392H13.9063Z" fill="black"/>
<path d="M14.9762 13.6392V12.084H16.0474V13.6392H14.9762Z" fill="black"/>
<path d="M15.7204 13.6392V12.084H17.2511V13.6392H15.7204Z" fill="black"/>
<path d="M17.0769 13.6392V12.084H17.6892V13.6392H17.0769Z" fill="black"/>
<path d="M17.5143 13.6392V12.084H19.1985V13.6392H17.5143Z" fill="black"/>
<path d="M19.1009 13.6392V12.084H20.3249V13.6392H19.1009Z" fill="black"/>
<path d="M20.1506 13.6392V12.084H21.528V13.6392H20.1506Z" fill="black"/>
<path d="M21.2205 13.6392V12.084H22.7512V13.6392H21.2205Z" fill="black"/>
<path d="M22.4236 13.6392V12.084H23.9543V13.6392H22.4236Z" fill="black"/>
<path d="M23.7034 13.6392V12.084H24.4685V13.6392H23.7034Z" fill="black"/>
<path d="M24.2175 13.6392V12.084H24.8298V13.6392H24.2175Z" fill="black"/>
<path d="M24.6549 13.6392V12.084H26.3391V13.6392H24.6549Z" fill="black"/>
<path d="M26.0882 13.6392V12.084H27.4655V13.6392H26.0882Z" fill="black"/>
<path d="M27.2536 13.6392V12.084H27.8659V13.6392H27.2536Z" fill="black"/>
<path d="M27.691 13.6392V12.084H28.9156V13.6392H27.691Z" fill="black"/>
<path d="M28.7407 13.6392V12.084H29.353V13.6392H28.7407Z" fill="black"/>
<path d="M6 16.6392V15.084H7.99028V16.6392H6Z" fill="black"/>
<path d="M7.8921 16.6392V15.084H9.42282V16.6392H7.8921Z" fill="black"/>
<path d="M9.1719 16.6392V15.084H10.7026V16.6392H9.1719Z" fill="black"/>
<path d="M10.4517 16.6392V15.084H11.9824V16.6392H10.4517Z" fill="black"/>
<path d="M11.6548 16.6392V15.084H12.2671V16.6392H11.6548Z" fill="black"/>
<path d="M12.0922 16.6392V15.084H13.4695V16.6392H12.0922Z" fill="black"/>
<path d="M13.2186 16.6392V15.084H14.2898V16.6392H13.2186Z" fill="black"/>
<path d="M14.1162 16.6392V15.084H15.647V16.6392H14.1162Z" fill="black"/>
<path d="M15.3193 16.6392V15.084H16.8501V16.6392H15.3193Z" fill="black"/>
<path d="M16.5991 16.6392V15.084H17.9765V16.6392H16.5991Z" fill="black"/>
<path d="M17.669 16.6392V15.084H18.2813V16.6392H17.669Z" fill="black"/>
<path d="M18.1064 16.6392V15.084H19.6372V16.6392H18.1064Z" fill="black"/>
<path d="M19.3862 16.6392V15.084H20.917V16.6392H19.3862Z" fill="black"/>
<path d="M20.7427 16.6392V15.084H22.1201V16.6392H20.7427Z" fill="black"/>
<path d="M21.8126 16.6392V15.084H22.8838V16.6392H21.8126Z" fill="black"/>
<path d="M22.8637 16.6392V15.084H24.241V16.6392H22.8637Z" fill="black"/>
<path d="M24.0668 16.6392V15.084H25.5975V16.6392H24.0668Z" fill="black"/>
<path d="M25.4233 16.6392V15.084H26.0356V16.6392H25.4233Z" fill="black"/>
<path d="M25.8607 16.6392V15.084H27.851V16.6392H25.8607Z" fill="black"/>
<path d="M27.8295 16.6392V15.084H29.2068V16.6392H27.8295Z" fill="black"/>
<path d="M28.9559 16.6392V15.084H29.5682V16.6392H28.9559Z" fill="black"/>
<path d="M6 19.6392V18.084H7.37731V19.6392H6Z" fill="black"/>
<path d="M7.27981 19.6392V18.084H8.35098V19.6392H7.27981Z" fill="black"/>
<path d="M8.17744 19.6392V18.084H9.55475V19.6392H8.17744Z" fill="black"/>
<path d="M9.34286 19.6392V18.084H10.414V19.6392H9.34286Z" fill="black"/>
<path d="M10.2405 19.6392V18.084H11.3117V19.6392H10.2405Z" fill="black"/>
<path d="M10.9847 19.6392V18.084H11.597V19.6392H10.9847Z" fill="black"/>
<path d="M11.4221 19.6392V18.084H12.4933V19.6392H11.4221Z" fill="black"/>
<path d="M12.3197 19.6392V18.084H13.5436V19.6392H12.3197Z" fill="black"/>
<path d="M13.3694 19.6392V18.084H13.9817V19.6392H13.3694Z" fill="black"/>
<path d="M13.8068 19.6392V18.084H15.1842V19.6392H13.8068Z" fill="black"/>
<path d="M15.2401 19.6392V18.084H16.464V19.6392H15.2401Z" fill="black"/>
<path d="M16.2897 19.6392V18.084H17.8205V19.6392H16.2897Z" fill="black"/>
<path d="M17.6463 19.6392V18.084H18.7174V19.6392H17.6463Z" fill="black"/>
<path d="M18.3905 19.6392V18.084H19.9212V19.6392H18.3905Z" fill="black"/>
<path d="M19.747 19.6392V18.084H20.3593V19.6392H19.747Z" fill="black"/>
<path d="M20.1844 19.6392V18.084H21.8685V19.6392H20.1844Z" fill="black"/>
<path d="M21.771 19.6392V18.084H22.9949V19.6392H21.771Z" fill="black"/>
<path d="M22.8207 19.6392V18.084H24.198V19.6392H22.8207Z" fill="black"/>
<path d="M23.8906 19.6392V18.084H25.4213V19.6392H23.8906Z" fill="black"/>
<path d="M25.0937 19.6392V18.084H26.6244V19.6392H25.0937Z" fill="black"/>
<path d="M26.3735 19.6392V18.084H26.9858V19.6392H26.3735Z" fill="black"/>
<path d="M26.8109 19.6392V18.084H27.8821V19.6392H26.8109Z" fill="black"/>
<path d="M27.8619 19.6392V18.084H29.2392V19.6392H27.8619Z" fill="black"/>
<path d="M29.065 19.6392V18.084H29.6773V19.6392H29.065Z" fill="black"/>
<path d="M6 22.6392V21.084H7.68413V22.6392H6Z" fill="black"/>
<path d="M7.14524 22.6392V21.084H8.67596V22.6392H7.14524Z" fill="black"/>
<path d="M8.50175 22.6392V21.084H9.87906V22.6392H8.50175Z" fill="black"/>
<path d="M9.55144 22.6392V21.084H10.9288V22.6392H9.55144Z" fill="black"/>
<path d="M10.6213 22.6392V21.084H12.152V22.6392H10.6213Z" fill="black"/>
<path d="M11.9778 22.6392V21.084H13.5086V22.6392H11.9778Z" fill="black"/>
<path d="M13.2576 22.6392V21.084H14.6349V22.6392H13.2576Z" fill="black"/>
<path d="M14.4809 22.6392V21.084H15.8582V22.6392H14.4809Z" fill="black"/>
<path d="M15.6073 22.6392V21.084H16.3723V22.6392H15.6073Z" fill="black"/>
<path d="M16.1214 22.6392V21.084H16.7337V22.6392H16.1214Z" fill="black"/>
<path d="M16.5588 22.6392V21.084H17.63V22.6392H16.5588Z" fill="black"/>
<path d="M17.3031 22.6392V21.084H18.8338V22.6392H17.3031Z" fill="black"/>
<path d="M18.6596 22.6392V21.084H20.1903V22.6392H18.6596Z" fill="black"/>
<path d="M19.8627 22.6392V21.084H20.475V22.6392H19.8627Z" fill="black"/>
<path d="M20.3001 22.6392V21.084H21.9842V22.6392H20.3001Z" fill="black"/>
<path d="M21.8477 22.6392V21.084H23.225V22.6392H21.8477Z" fill="black"/>
<path d="M23.0508 22.6392V21.084H24.1219V22.6392H23.0508Z" fill="black"/>
<path d="M23.9484 22.6392V21.084H25.0196V22.6392H23.9484Z" fill="black"/>
<path d="M24.6926 22.6392V21.084H26.2233V22.6392H24.6926Z" fill="black"/>
<path d="M25.8957 22.6392V21.084H27.4264V22.6392H25.8957Z" fill="black"/>
<path d="M27.1755 22.6392V21.084H27.7878V22.6392H27.1755Z" fill="black"/>
<path d="M6 25.6392V24.084H7.37731V25.6392H6Z" fill="black"/>
<path d="M7.27981 25.6392V24.084H8.35098V25.6392H7.27981Z" fill="black"/>
<path d="M8.02403 25.6392V24.084H9.55475V25.6392H8.02403Z" fill="black"/>
<path d="M9.30383 25.6392V24.084H10.375V25.6392H9.30383Z" fill="black"/>
<path d="M10.0481 25.6392V24.084H11.5788V25.6392H10.0481Z" fill="black"/>
<path d="M11.2512 25.6392V24.084H12.6285V25.6392H11.2512Z" fill="black"/>
<path d="M12.4166 25.6392V24.084H13.0289V25.6392H12.4166Z" fill="black"/>
<path d="M12.854 25.6392V24.084H14.3847V25.6392H12.854Z" fill="black"/>
<path d="M14.2105 25.6392V24.084H15.7412V25.6392H14.2105Z" fill="black"/>
<path d="M15.4903 25.6392V24.084H16.8676V25.6392H15.4903Z" fill="black"/>
<path d="M16.6557 25.6392V24.084H17.268V25.6392H16.6557Z" fill="black"/>
<path d="M17.2465 25.6392V24.084H18.6238V25.6392H17.2465Z" fill="black"/>
<path d="M18.603 25.6392V24.084H19.8269V25.6392H18.603Z" fill="black"/>
<path d="M19.6527 25.6392V24.084H20.265V25.6392H19.6527Z" fill="black"/>
<path d="M20.0901 25.6392V24.084H21.1613V25.6392H20.0901Z" fill="black"/>
<path d="M21.1412 25.6392V24.084H22.5185V25.6392H21.1412Z" fill="black"/>
<path d="M22.3443 25.6392V24.084H23.4154V25.6392H22.3443Z" fill="black"/>
<path d="M23.0885 25.6392V24.084H24.6192V25.6392H23.0885Z" fill="black"/>
<path d="M24.445 25.6392V24.084H25.8223V25.6392H24.445Z" fill="black"/>
<path d="M25.6481 25.6392V24.084H26.7193V25.6392H25.6481Z" fill="black"/>
<path d="M26.3923 25.6392V24.084H27.4635V25.6392H26.3923Z" fill="black"/>
<path d="M27.4434 25.6392V24.084H28.6673V25.6392H27.4434Z" fill="black"/>
<path d="M28.6465 25.6392V24.084H30.0238V25.6392H28.6465Z" fill="black"/>
<path d="M29.8496 25.6392V24.084H30.4619V25.6392H29.8496Z" fill="black"/>
<path d="M30.4404 25.6392V24.084H31.6643V25.6392H30.4404Z" fill="black"/>
<path d="M31.4901 25.6392V24.084H32.7147V25.6392H31.4901Z" fill="black"/>
<path d="M32.3877 25.6392V24.084H33V25.6392H32.3877Z" fill="black"/>
<path d="M6 28.6392V27.084H7.07117V28.6392H6Z" fill="black"/>
<path d="M7.05104 28.6392V27.084H8.42835V28.6392H7.05104Z" fill="black"/>
<path d="M8.17744 28.6392V27.084H9.55475V28.6392H8.17744Z" fill="black"/>
<path d="M9.38054 28.6392V27.084H10.9113V28.6392H9.38054Z" fill="black"/>
<path d="M10.6603 28.6392V27.084H12.1911V28.6392H10.6603Z" fill="black"/>
<path d="M11.9401 28.6392V27.084H13.0113V28.6392H11.9401Z" fill="black"/>
<path d="M12.9912 28.6392V27.084H14.3685V28.6392H12.9912Z" fill="black"/>
<path d="M14.1943 28.6392V27.084H15.725V28.6392H14.1943Z" fill="black"/>
<path d="M15.5508 28.6392V27.084H16.1631V28.6392H15.5508Z" fill="black"/>
<path d="M15.9882 28.6392V27.084H17.6723V28.6392H15.9882Z" fill="black"/>
<path d="M17.517 28.6392V27.084H18.7409V28.6392H17.517Z" fill="black"/>
<path d="M18.5667 28.6392V27.084H19.944V28.6392H18.5667Z" fill="black"/>
<path d="M19.6365 28.6392V27.084H20.7077V28.6392H19.6365Z" fill="black"/>
<path d="M20.3808 28.6392V27.084H21.9115V28.6392H20.3808Z" fill="black"/>
<path d="M21.7373 28.6392V27.084H22.3496V28.6392H21.7373Z" fill="black"/>
<path d="M22.1747 28.6392V27.084H23.8588V28.6392H22.1747Z" fill="black"/>
<path d="M23.7613 28.6392V27.084H24.9852V28.6392H23.7613Z" fill="black"/>
<path d="M24.811 28.6392V27.084H26.1883V28.6392H24.811Z" fill="black"/>
<path d="M25.8809 28.6392V27.084H27.4116V28.6392H25.8809Z" fill="black"/>
<path d="M27.084 28.6392V27.084H28.6147V28.6392H27.084Z" fill="black"/>
<path d="M28.3638 28.6392V27.084H29.1288V28.6392H28.3638Z" fill="black"/>
<path d="M28.8779 28.6392V27.084H29.4902V28.6392H28.8779Z" fill="black"/>
<path d="M6 31.6392V30.084H7.53072V31.6392H6Z" fill="black"/>
<path d="M7.35651 31.6392V30.084H8.88723V31.6392H7.35651Z" fill="black"/>
<path d="M8.71302 31.6392V30.084H9.78419V31.6392H8.71302Z" fill="black"/>
<path d="M9.61065 31.6392V30.084H10.988V31.6392H9.61065Z" fill="black"/>
<path d="M10.7761 31.6392V30.084H11.3884V31.6392H10.7761Z" fill="black"/>
<path d="M11.2135 31.6392V30.084H12.5908V31.6392H11.2135Z" fill="black"/>
<path d="M12.2834 31.6392V30.084H13.8141V31.6392H12.2834Z" fill="black"/>
<path d="M13.4865 31.6392V30.084H15.4767V31.6392H13.4865Z" fill="black"/>
<path d="M15.3786 31.6392V30.084H16.9093V31.6392H15.3786Z" fill="black"/>
<path d="M16.6584 31.6392V30.084H17.7295V31.6392H16.6584Z" fill="black"/>
<path d="M17.7094 31.6392V30.084H19.0867V31.6392H17.7094Z" fill="black"/>
<path d="M18.9125 31.6392V30.084H20.2898V31.6392H18.9125Z" fill="black"/>
<path d="M20.0779 31.6392V30.084H20.6902V31.6392H20.0779Z" fill="black"/>
<path d="M20.5153 31.6392V30.084H21.5865V31.6392H20.5153Z" fill="black"/>
<path d="M21.2595 31.6392V30.084H22.7903V31.6392H21.2595Z" fill="black"/>
<path d="M22.6161 31.6392V30.084H24.1468V31.6392H22.6161Z" fill="black"/>
<path d="M23.8192 31.6392V30.084H24.4314V31.6392H23.8192Z" fill="black"/>
<path d="M24.2566 31.6392V30.084H25.6339V31.6392H24.2566Z" fill="black"/>
<path d="M25.383 31.6392V30.084H26.9137V31.6392H25.383Z" fill="black"/>
<path d="M26.6628 31.6392V30.084H28.0401V31.6392H26.6628Z" fill="black"/>
<path d="M27.8282 31.6392V30.084H29.3589V31.6392H27.8282Z" fill="black"/>
<path d="M29.0313 31.6392V30.084H29.6436V31.6392H29.0313Z" fill="black"/>
<path d="M6 34.6392V33.084H7.07117V34.6392H6Z" fill="black"/>
<path d="M6.89763 34.6392V33.084H8.12154V34.6392H6.89763Z" fill="black"/>
<path d="M7.94732 34.6392V33.084H9.47805V34.6392H7.94732Z" fill="black"/>
<path d="M9.22713 34.6392V33.084H10.7579V34.6392H9.22713Z" fill="black"/>
<path d="M10.5836 34.6392V33.084H11.961V34.6392H10.5836Z" fill="black"/>
<path d="M11.71 34.6392V33.084H12.4751V34.6392H11.71Z" fill="black"/>
<path d="M12.2241 34.6392V33.084H12.9892V34.6392H12.2241Z" fill="black"/>
<path d="M12.815 34.6392V33.084H13.58V34.6392H12.815Z" fill="black"/>
</g>
<rect width="12" height="14" transform="translate(25 25.6392)" fill="white"/>
<path d="M30.6787 29.5005C31.5999 29.5005 32.2721 29.6991 32.6953 30.0962C33.1185 30.4901 33.3301 31.0337 33.3301 31.7271C33.3301 32.0396 33.2829 32.339 33.1885 32.6255C33.0941 32.9087 32.9395 33.161 32.7246 33.3823C32.513 33.6037 32.2298 33.7795 31.875 33.9097C31.5202 34.0366 31.0824 34.1001 30.5615 34.1001H29.9121V36.6392H28.3984V29.5005H30.6787ZM30.6006 30.7407H29.9121V32.8599H30.4102C30.6934 32.8599 30.9391 32.8224 31.1475 32.7476C31.3558 32.6727 31.5169 32.5555 31.6309 32.396C31.7448 32.2365 31.8018 32.0314 31.8018 31.7808C31.8018 31.4292 31.7041 31.1688 31.5088 30.9995C31.3135 30.827 31.0107 30.7407 30.6006 30.7407Z" fill="#585858"/>
<rect x="0.5" y="0.583984" width="38" height="41.5552" stroke="#E5592D"/>
<path d="M11.3333 45.6392H2V51.9872H11.3333V45.6392Z" fill="#E5592D"/>
</svg>
