<svg width="39" height="40" viewBox="0 0 39 40" fill="none" xmlns="http://www.w3.org/2000/svg">
<rect width="39" height="40" fill=""/>
<rect width="35" height="23.5552" transform="translate(2 2.8584)" fill="white"/>
<g opacity="0.3">
<path d="M6 8.41357V6.8584H6.7781V8.41357H6Z" fill="black"/>
<path d="M6.60091 8.41357V6.8584H8.15779V8.41357H6.60091Z" fill="black"/>
<path d="M7.9806 8.41357V6.8584H9.53748V8.41357H7.9806Z" fill="black"/>
<path d="M9.36029 8.41357V6.8584H10.9172V8.41357H9.36029Z" fill="black"/>
<path d="M10.5839 8.41357V6.8584H11.2067V8.41357H10.5839Z" fill="black"/>
<path d="M11.0288 8.41357V6.8584H12.7417V8.41357H11.0288Z" fill="black"/>
<path d="M12.4468 8.41357V6.8584H13.2249V8.41357H12.4468Z" fill="black"/>
<path d="M12.9697 8.41357V6.8584H14.3706V8.41357H12.9697Z" fill="black"/>
<path d="M14.2714 8.41357V6.8584H15.0495V8.41357H14.2714Z" fill="black"/>
<path d="M14.7943 8.41357V6.8584H15.417V8.41357H14.7943Z" fill="black"/>
<path d="M15.2392 8.41357V6.8584H17.4188V8.41357H15.2392Z" fill="black"/>
<path d="M17.1636 8.41357V6.8584H18.2531V8.41357H17.1636Z" fill="black"/>
<path d="M18.0766 8.41357V6.8584H19.166V8.41357H18.0766Z" fill="black"/>
<path d="M18.9895 8.41357V6.8584H20.079V8.41357H18.9895Z" fill="black"/>
<path d="M19.9025 8.41357V6.8584H20.5253V8.41357H19.9025Z" fill="black"/>
<path d="M20.5034 8.41357V6.8584H21.9043V8.41357H20.5034Z" fill="black"/>
<path d="M21.6491 8.41357V6.8584H23.0499V8.41357H21.6491Z" fill="black"/>
<path d="M22.8932 8.41357V6.8584H24.1381V8.41357H22.8932Z" fill="black"/>
<path d="M23.9609 8.41357V6.8584H25.3617V8.41357H23.9609Z" fill="black"/>
<path d="M25.2625 8.41357V6.8584H26.352V8.41357H25.2625Z" fill="black"/>
<path d="M26.1755 8.41357V6.8584H27.7324V8.41357H26.1755Z" fill="black"/>
<path d="M27.4772 8.41357V6.8584H29.0341V8.41357H27.4772Z" fill="black"/>
<path d="M28.7009 8.41357V6.8584H29.3236V8.41357H28.7009Z" fill="black"/>
<path d="M6 11.4136V9.8584H7.2455V11.4136H6Z" fill="black"/>
<path d="M7.069 11.4136V9.8584H8.31382V11.4136H7.069Z" fill="black"/>
<path d="M8.13663 11.4136V9.8584H9.53748V11.4136H8.13663Z" fill="black"/>
<path d="M9.22479 11.4136V9.8584H11.2491V11.4136H9.22479Z" fill="black"/>
<path d="M11.1492 11.4136V9.8584H12.7061V11.4136H11.1492Z" fill="black"/>
<path d="M12.4509 11.4136V9.8584H13.5404V11.4136H12.4509Z" fill="black"/>
<path d="M13.3639 11.4136V9.8584H13.9866V11.4136H13.3639Z" fill="black"/>
<path d="M13.8087 11.4136V9.8584H15.3656V11.4136H13.8087Z" fill="black"/>
<path d="M15.1104 11.4136V9.8584H16.5113V11.4136H15.1104Z" fill="black"/>
<path d="M16.2957 11.4136V9.8584H17.6966V11.4136H16.2957Z" fill="black"/>
<path d="M17.4811 11.4136V9.8584H19.038V11.4136H17.4811Z" fill="black"/>
<path d="M18.8608 11.4136V9.8584H20.2616V11.4136H18.8608Z" fill="black"/>
<path d="M19.9106 11.4136V9.8584H21.4675V11.4136H19.9106Z" fill="black"/>
<path d="M21.3683 11.4136V9.8584H22.7692V11.4136H21.3683Z" fill="black"/>
<path d="M22.592 11.4136V9.8584H23.9928V11.4136H22.592Z" fill="black"/>
<path d="M23.7376 11.4136V9.8584H25.2945V11.4136H23.7376Z" fill="black"/>
<path d="M24.9613 11.4136V9.8584H26.3621V11.4136H24.9613Z" fill="black"/>
<path d="M26.1466 11.4136V9.8584H26.7694V11.4136H26.1466Z" fill="black"/>
<path d="M26.5915 11.4136V9.8584H27.681V11.4136H26.5915Z" fill="black"/>
<path d="M27.5045 11.4136V9.8584H28.7493V11.4136H27.5045Z" fill="black"/>
<path d="M28.5721 11.4136V9.8584H29.1948V11.4136H28.5721Z" fill="black"/>
<path d="M29.017 11.4136V9.8584H30.1064V11.4136H29.017Z" fill="black"/>
<path d="M29.7739 11.4136V9.8584H31.3308V11.4136H29.7739Z" fill="black"/>
<path d="M31.1536 11.4136V9.8584H32.7105V11.4136H31.1536Z" fill="black"/>
<path d="M32.3772 11.4136V9.8584H33V11.4136H32.3772Z" fill="black"/>
<path d="M6 14.4136V12.8584H7.71291V14.4136H6Z" fill="black"/>
<path d="M7.55488 14.4136V12.8584H9.11176V14.4136H7.55488Z" fill="black"/>
<path d="M8.7977 14.4136V12.8584H10.5106V14.4136H8.7977Z" fill="black"/>
<path d="M10.3334 14.4136V12.8584H12.0463V14.4136H10.3334Z" fill="black"/>
<path d="M11.7911 14.4136V12.8584H12.5692V14.4136H11.7911Z" fill="black"/>
<path d="M12.314 14.4136V12.8584H12.9368V14.4136H12.314Z" fill="black"/>
<path d="M12.7589 14.4136V12.8584H14.3158V14.4136H12.7589Z" fill="black"/>
<path d="M14.0606 14.4136V12.8584H15.6175V14.4136H14.0606Z" fill="black"/>
<path d="M15.4403 14.4136V12.8584H16.9971V14.4136H15.4403Z" fill="black"/>
<path d="M16.7419 14.4136V12.8584H17.8314V14.4136H16.7419Z" fill="black"/>
<path d="M17.8109 14.4136V12.8584H19.2118V14.4136H17.8109Z" fill="black"/>
<path d="M19.0346 14.4136V12.8584H20.4354V14.4136H19.0346Z" fill="black"/>
<path d="M20.2199 14.4136V12.8584H21.3094V14.4136H20.2199Z" fill="black"/>
<path d="M20.9769 14.4136V12.8584H21.5996V14.4136H20.9769Z" fill="black"/>
<path d="M21.4217 14.4136V12.8584H22.5112V14.4136H21.4217Z" fill="black"/>
<path d="M22.1787 14.4136V12.8584H23.7356V14.4136H22.1787Z" fill="black"/>
<path d="M23.5584 14.4136V12.8584H25.1153V14.4136H23.5584Z" fill="black"/>
<path d="M24.782 14.4136V12.8584H25.4048V14.4136H24.782Z" fill="black"/>
<path d="M25.2269 14.4136V12.8584H26.3164V14.4136H25.2269Z" fill="black"/>
<path d="M25.9838 14.4136V12.8584H27.5407V14.4136H25.9838Z" fill="black"/>
<path d="M27.3635 14.4136V12.8584H28.7644V14.4136H27.3635Z" fill="black"/>
<path d="M28.4517 14.4136V12.8584H30.0086V14.4136H28.4517Z" fill="black"/>
<path d="M29.6754 14.4136V12.8584H31.2322V14.4136H29.6754Z" fill="black"/>
<path d="M30.977 14.4136V12.8584H32.0665V14.4136H30.977Z" fill="black"/>
<path d="M31.734 14.4136V12.8584H32.3567V14.4136H31.734Z" fill="black"/>
<path d="M6.15603 17.4136V15.8584H7.40085V17.4136H6.15603Z" fill="black"/>
<path d="M7.22366 17.4136V15.8584H8.62451V17.4136H7.22366Z" fill="black"/>
<path d="M8.31182 17.4136V15.8584H8.93457V17.4136H8.31182Z" fill="black"/>
<path d="M8.7567 17.4136V15.8584H10.3136V17.4136H8.7567Z" fill="black"/>
<path d="M10.1364 17.4136V15.8584H11.5372V17.4136H10.1364Z" fill="black"/>
<path d="M11.3217 17.4136V15.8584H12.8786V17.4136H11.3217Z" fill="black"/>
<path d="M12.5454 17.4136V15.8584H13.1681V17.4136H12.5454Z" fill="black"/>
<path d="M13.1463 17.4136V15.8584H14.3911V17.4136H13.1463Z" fill="black"/>
<path d="M14.2139 17.4136V15.8584H15.4594V17.4136H14.2139Z" fill="black"/>
<path d="M15.1269 17.4136V15.8584H15.7496V17.4136H15.1269Z" fill="black"/>
<path d="M15.7278 17.4136V15.8584H17.1286V17.4136H15.7278Z" fill="black"/>
<path d="M16.9515 17.4136V15.8584H18.5083V17.4136H16.9515Z" fill="black"/>
<path d="M18.3311 17.4136V15.8584H19.732V17.4136H18.3311Z" fill="black"/>
<path d="M19.4768 17.4136V15.8584H20.5663V17.4136H19.4768Z" fill="black"/>
<path d="M20.3898 17.4136V15.8584H21.9466V17.4136H20.3898Z" fill="black"/>
<path d="M21.6134 17.4136V15.8584H23.1703V17.4136H21.6134Z" fill="black"/>
<path d="M22.9151 17.4136V15.8584H24.3159V17.4136H22.9151Z" fill="black"/>
<path d="M24.0032 17.4136V15.8584H24.626V17.4136H24.0032Z" fill="black"/>
<path d="M6 20.4136V18.8584H8.17963V20.4136H6Z" fill="black"/>
<path d="M7.92443 20.4136V18.8584H9.48131V20.4136H7.92443Z" fill="black"/>
<path d="M9.14809 20.4136V18.8584H10.705V20.4136H9.14809Z" fill="black"/>
<path d="M10.6058 20.4136V18.8584H12.0066V20.4136H10.6058Z" fill="black"/>
<path d="M11.9075 20.4136V18.8584H13.1523V20.4136H11.9075Z" fill="black"/>
<path d="M13.1311 20.4136V18.8584H14.532V20.4136H13.1311Z" fill="black"/>
<path d="M14.3548 20.4136V18.8584H15.7556V20.4136H14.3548Z" fill="black"/>
<path d="M15.5401 20.4136V18.8584H16.1629V20.4136H15.5401Z" fill="black"/>
<path d="M16.141 20.4136V18.8584H17.5419V20.4136H16.141Z" fill="black"/>
<path d="M17.3647 20.4136V18.8584H18.7655V20.4136H17.3647Z" fill="black"/>
<path d="M18.5103 20.4136V18.8584H19.1331V20.4136H18.5103Z" fill="black"/>
<path d="M18.9552 20.4136V18.8584H20.0447V20.4136H18.9552Z" fill="black"/>
<path d="M19.7121 20.4136V18.8584H21.269V20.4136H19.7121Z" fill="black"/>
<path d="M21.0918 20.4136V18.8584H22.6487V20.4136H21.0918Z" fill="black"/>
<path d="M22.3155 20.4136V18.8584H22.9382V20.4136H22.3155Z" fill="black"/>
<path d="M22.7604 20.4136V18.8584H24.4733V20.4136H22.7604Z" fill="black"/>
<path d="M24.1784 20.4136V18.8584H24.9565V20.4136H24.1784Z" fill="black"/>
<path d="M24.7013 20.4136V18.8584H26.1021V20.4136H24.7013Z" fill="black"/>
<path d="M26.003 20.4136V18.8584H26.781V20.4136H26.003Z" fill="black"/>
<path d="M26.5258 20.4136V18.8584H27.3039V20.4136H26.5258Z" fill="black"/>
</g>
<rect x="0.5" y="1.3584" width="38" height="26.5552" stroke="#E5592D"/>
<path d="M11.3333 31.4136H2V37.7617H11.3333V31.4136Z" fill="#E5592D"/>
<path d="M21.6663 31.4136H12.333V37.7617H21.6663V31.4136Z" fill="#7FA4CA"/>
</svg>
