<svg width="39" height="55" viewBox="0 0 39 55" fill="none" xmlns="http://www.w3.org/2000/svg">
<rect width="39" height="55" fill=""/>
<g clip-path="url(#clip0_39_124700)">
<g filter="url(#filter0_d_39_124700)">
<rect width="35" height="38.5552" transform="translate(2 2.90332)" fill="white"/>
<g opacity="0.3">
<rect width="35" height="36.5552" transform="translate(2 2.90332)" fill="white"/>
<path d="M6 8.4585V6.90332H6.78667V8.4585H6Z" fill="black"/>
<path d="M6.76528 8.4585V6.90332H8.96893V8.4585H6.76528Z" fill="black"/>
<path d="M8.74965 8.4585V6.90332H10.3237V8.4585H8.74965Z" fill="black"/>
<path d="M9.9868 8.4585V6.90332H10.6164V8.4585H9.9868Z" fill="black"/>
<path d="M10.4366 8.4585V6.90332H12.0106V8.4585H10.4366Z" fill="black"/>
<path d="M11.7526 8.4585V6.90332H13.1689V8.4585H11.7526Z" fill="black"/>
<path d="M12.8527 8.4585V6.90332H14.4268V8.4585H12.8527Z" fill="black"/>
<path d="M14.0899 8.4585V6.90332H14.7195V8.4585H14.0899Z" fill="black"/>
<path d="M14.5397 8.4585V6.90332H15.956V8.4585H14.5397Z" fill="black"/>
<path d="M15.7381 8.4585V6.90332H17.3121V8.4585H15.7381Z" fill="black"/>
<path d="M16.9752 8.4585V6.90332H18.5492V8.4585H16.9752Z" fill="black"/>
<path d="M18.2123 8.4585V6.90332H19.7864V8.4585H18.2123Z" fill="black"/>
<path d="M19.5685 8.4585V6.90332H20.67V8.4585H19.5685Z" fill="black"/>
<path d="M20.6493 8.4585V6.90332H22.0656V8.4585H20.6493Z" fill="black"/>
<path d="M21.8864 8.4585V6.90332H23.4604V8.4585H21.8864Z" fill="black"/>
<path d="M23.2813 8.4585V6.90332H23.9109V8.4585H23.2813Z" fill="black"/>
<path d="M23.7311 8.4585V6.90332H24.8326V8.4585H23.7311Z" fill="black"/>
<path d="M24.6541 8.4585V6.90332H25.9127V8.4585H24.6541Z" fill="black"/>
<path d="M25.7335 8.4585V6.90332H26.3631V8.4585H25.7335Z" fill="black"/>
<path d="M6.15775 11.4585V9.90332H7.57403V11.4585H6.15775Z" fill="black"/>
<path d="M7.31602 11.4585V9.90332H8.7323V11.4585H7.31602Z" fill="black"/>
<path d="M8.41617 11.4585V9.90332H9.9902V11.4585H8.41617Z" fill="black"/>
<path d="M9.65331 11.4585V9.90332H11.0696V11.4585H9.65331Z" fill="black"/>
<path d="M10.9693 11.4585V9.90332H12.5434V11.4585H10.9693Z" fill="black"/>
<path d="M12.3642 11.4585V9.90332H13.7805V11.4585H12.3642Z" fill="black"/>
<path d="M13.6014 11.4585V9.90332H14.7028V11.4585H13.6014Z" fill="black"/>
<path d="M14.3666 11.4585V9.90332H14.9963V11.4585H14.3666Z" fill="black"/>
<path d="M14.8164 11.4585V9.90332H16.3905V11.4585H14.8164Z" fill="black"/>
<path d="M16.1324 11.4585V9.90332H17.7065V11.4585H16.1324Z" fill="black"/>
<path d="M17.5273 11.4585V9.90332H19.1014V11.4585H17.5273Z" fill="black"/>
<path d="M18.9222 11.4585V9.90332H20.3385V11.4585H18.9222Z" fill="black"/>
<path d="M20.0224 11.4585V9.90332H21.5964V11.4585H20.0224Z" fill="black"/>
<path d="M21.2595 11.4585V9.90332H22.6758V11.4585H21.2595Z" fill="black"/>
<path d="M22.4579 11.4585V9.90332H23.8742V11.4585H22.4579Z" fill="black"/>
<path d="M23.6563 11.4585V9.90332H24.7578V11.4585H23.6563Z" fill="black"/>
<path d="M24.7371 11.4585V9.90332H25.9956V11.4585H24.7371Z" fill="black"/>
<path d="M25.9742 11.4585V9.90332H27.3905V11.4585H25.9742Z" fill="black"/>
<path d="M27.2114 11.4585V9.90332H27.998V11.4585H27.2114Z" fill="black"/>
<path d="M27.74 11.4585V9.90332H28.3696V11.4585H27.74Z" fill="black"/>
<path d="M28.3476 11.4585V9.90332H29.7638V11.4585H28.3476Z" fill="black"/>
<path d="M29.7424 11.4585V9.90332H31.001V11.4585H29.7424Z" fill="black"/>
<path d="M30.8218 11.4585V9.90332H31.9233V11.4585H30.8218Z" fill="black"/>
<path d="M31.5871 11.4585V9.90332H32.2167V11.4585H31.5871Z" fill="black"/>
<path d="M6 14.4585V12.9033H7.10148V14.4585H6Z" fill="black"/>
<path d="M6.92303 14.4585V12.9033H8.18156V14.4585H6.92303Z" fill="black"/>
<path d="M8.00242 14.4585V12.9033H8.63203V14.4585H8.00242Z" fill="black"/>
<path d="M8.4522 14.4585V12.9033H9.55368V14.4585H8.4522Z" fill="black"/>
<path d="M9.53298 14.4585V12.9033H10.9493V14.4585H9.53298Z" fill="black"/>
<path d="M10.7701 14.4585V12.9033H11.8716V14.4585H10.7701Z" fill="black"/>
<path d="M11.6931 14.4585V12.9033H12.7946V14.4585H11.6931Z" fill="black"/>
<path d="M12.4584 14.4585V12.9033H13.5599V14.4585H12.4584Z" fill="black"/>
<path d="M13.3815 14.4585V12.9033H14.9555V14.4585H13.3815Z" fill="black"/>
<path d="M14.6975 14.4585V12.9033H15.7989V14.4585H14.6975Z" fill="black"/>
<path d="M15.4627 14.4585V12.9033H17.0368V14.4585H15.4627Z" fill="black"/>
<path d="M16.6999 14.4585V12.9033H17.3295V14.4585H16.6999Z" fill="black"/>
<path d="M17.1497 14.4585V12.9033H18.2512V14.4585H17.1497Z" fill="black"/>
<path d="M18.0727 14.4585V12.9033H19.1742V14.4585H18.0727Z" fill="black"/>
<path d="M18.838 14.4585V12.9033H19.6246V14.4585H18.838Z" fill="black"/>
<path d="M19.3666 14.4585V12.9033H19.9962V14.4585H19.3666Z" fill="black"/>
<path d="M19.8164 14.4585V12.9033H21.5482V14.4585H19.8164Z" fill="black"/>
<path d="M21.4479 14.4585V12.9033H22.8642V14.4585H21.4479Z" fill="black"/>
<path d="M22.6851 14.4585V12.9033H24.2591V14.4585H22.6851Z" fill="black"/>
<path d="M24.0011 14.4585V12.9033H24.6307V14.4585H24.0011Z" fill="black"/>
<path d="M24.4509 14.4585V12.9033H25.8672V14.4585H24.4509Z" fill="black"/>
<path d="M25.807 14.4585V12.9033H27.0655V14.4585H25.807Z" fill="black"/>
<path d="M26.8864 14.4585V12.9033H27.516V14.4585H26.8864Z" fill="black"/>
<path d="M27.3362 14.4585V12.9033H28.4377V14.4585H27.3362Z" fill="black"/>
<path d="M28.417 14.4585V12.9033H29.6755V14.4585H28.417Z" fill="black"/>
<path d="M29.6541 14.4585V12.9033H31.0704V14.4585H29.6541Z" fill="black"/>
<path d="M30.8912 14.4585V12.9033H32.4653V14.4585H30.8912Z" fill="black"/>
<path d="M32.2861 14.4585V12.9033H32.9158V14.4585H32.2861Z" fill="black"/>
<path d="M6 17.4585V15.9033H7.57403V17.4585H6Z" fill="black"/>
<path d="M7.31602 17.4585V15.9033H8.7323V17.4585H7.31602Z" fill="black"/>
<path d="M8.51441 17.4585V15.9033H9.14403V17.4585H8.51441Z" fill="black"/>
<path d="M8.96419 17.4585V15.9033H10.696V17.4585H8.96419Z" fill="black"/>
<path d="M10.5362 17.4585V15.9033H11.7947V17.4585H10.5362Z" fill="black"/>
<path d="M11.6156 17.4585V15.9033H13.0319V17.4585H11.6156Z" fill="black"/>
<path d="M12.7158 17.4585V15.9033H13.8172V17.4585H12.7158Z" fill="black"/>
<path d="M13.481 17.4585V15.9033H15.0551V17.4585H13.481Z" fill="black"/>
<path d="M14.8759 17.4585V15.9033H15.5055V17.4585H14.8759Z" fill="black"/>
<path d="M15.3257 17.4585V15.9033H17.0575V17.4585H15.3257Z" fill="black"/>
<path d="M16.9572 17.4585V15.9033H18.2158V17.4585H16.9572Z" fill="black"/>
<path d="M18.0366 17.4585V15.9033H19.4529V17.4585H18.0366Z" fill="black"/>
<path d="M19.1368 17.4585V15.9033H20.7108V17.4585H19.1368Z" fill="black"/>
<path d="M20.3739 17.4585V15.9033H21.9479V17.4585H20.3739Z" fill="black"/>
<path d="M21.6899 17.4585V15.9033H22.3195V17.4585H21.6899Z" fill="black"/>
<path d="M22.1397 17.4585V15.9033H23.7137V17.4585H22.1397Z" fill="black"/>
<path d="M23.6135 17.4585V15.9033H25.0298V17.4585H23.6135Z" fill="black"/>
<path d="M24.6929 17.4585V15.9033H25.7943V17.4585H24.6929Z" fill="black"/>
<path d="M25.6159 17.4585V15.9033H27.1899V17.4585H25.6159Z" fill="black"/>
<path d="M26.9319 17.4585V15.9033H28.5059V17.4585H26.9319Z" fill="black"/>
<path d="M28.169 17.4585V15.9033H29.5853V17.4585H28.169Z" fill="black"/>
<path d="M29.3674 17.4585V15.9033H29.9971V17.4585H29.3674Z" fill="black"/>
<path d="M29.975 17.4585V15.9033H31.3913V17.4585H29.975Z" fill="black"/>
<path d="M31.2121 17.4585V15.9033H32.6284V17.4585H31.2121Z" fill="black"/>
<path d="M32.3704 17.4585V15.9033H33V17.4585H32.3704Z" fill="black"/>
<path d="M6 20.4585V18.9033H7.10148V20.4585H6Z" fill="black"/>
<path d="M6.76528 20.4585V18.9033H8.33931V20.4585H6.76528Z" fill="black"/>
<path d="M8.16017 20.4585V18.9033H9.7342V20.4585H8.16017Z" fill="black"/>
<path d="M9.39731 20.4585V18.9033H10.0269V20.4585H9.39731Z" fill="black"/>
<path d="M9.84709 20.4585V18.9033H11.5789V20.4585H9.84709Z" fill="black"/>
<path d="M11.2807 20.4585V18.9033H12.0674V20.4585H11.2807Z" fill="black"/>
<path d="M11.8094 20.4585V18.9033H13.5412V20.4585H11.8094Z" fill="black"/>
<path d="M13.2236 20.4585V18.9033H14.0103V20.4585H13.2236Z" fill="black"/>
<path d="M13.7523 20.4585V18.9033H14.3819V20.4585H13.7523Z" fill="black"/>
<path d="M14.2021 20.4585V18.9033H15.6184V20.4585H14.2021Z" fill="black"/>
<path d="M15.3604 20.4585V18.9033H16.9344V20.4585H15.3604Z" fill="black"/>
<path d="M16.7552 20.4585V18.9033H18.3293V20.4585H16.7552Z" fill="black"/>
<path d="M18.0713 20.4585V18.9033H19.4875V20.4585H18.0713Z" fill="black"/>
<path d="M19.1714 20.4585V18.9033H20.2729V20.4585H19.1714Z" fill="black"/>
<path d="M19.9367 20.4585V18.9033H21.5107V20.4585H19.9367Z" fill="black"/>
<path d="M21.1738 20.4585V18.9033H22.5901V20.4585H21.1738Z" fill="black"/>
<path d="M22.274 20.4585V18.9033H22.9036V20.4585H22.274Z" fill="black"/>
<path d="M22.7238 20.4585V18.9033H24.2978V20.4585H22.7238Z" fill="black"/>
<path d="M24.1975 20.4585V18.9033H25.6138V20.4585H24.1975Z" fill="black"/>
<path d="M25.4347 20.4585V18.9033H27.0087V20.4585H25.4347Z" fill="black"/>
<path d="M26.7507 20.4585V18.9033H27.3803V20.4585H26.7507Z" fill="black"/>
<path d="M6 23.4585V21.9033H7.10148V23.4585H6Z" fill="black"/>
<path d="M7.08078 23.4585V21.9033H8.49706V23.4585H7.08078Z" fill="black"/>
<path d="M8.31792 23.4585V21.9033H9.4194V23.4585H8.31792Z" fill="black"/>
<path d="M9.0832 23.4585V21.9033H10.6572V23.4585H9.0832Z" fill="black"/>
<path d="M10.3203 23.4585V21.9033H11.7366V23.4585H10.3203Z" fill="black"/>
<path d="M11.5782 23.4585V21.9033H12.9945V23.4585H11.5782Z" fill="black"/>
<path d="M12.8154 23.4585V21.9033H14.3894V23.4585H12.8154Z" fill="black"/>
<path d="M14.1314 23.4585V21.9033H15.2329V23.4585H14.1314Z" fill="black"/>
<path d="M14.8967 23.4585V21.9033H15.9982V23.4585H14.8967Z" fill="black"/>
<path d="M15.9775 23.4585V21.9033H17.236V23.4585H15.9775Z" fill="black"/>
<path d="M17.2146 23.4585V21.9033H18.6309V23.4585H17.2146Z" fill="black"/>
<path d="M18.4517 23.4585V21.9033H20.0258V23.4585H18.4517Z" fill="black"/>
<path d="M19.7678 23.4585V21.9033H20.8692V23.4585H19.7678Z" fill="black"/>
<path d="M20.6908 23.4585V21.9033H21.3204V23.4585H20.6908Z" fill="black"/>
<path d="M21.2983 23.4585V21.9033H22.7146V23.4585H21.2983Z" fill="black"/>
<path d="M22.6932 23.4585V21.9033H23.9517V23.4585H22.6932Z" fill="black"/>
<path d="M23.9303 23.4585V21.9033H25.3466V23.4585H23.9303Z" fill="black"/>
<path d="M25.1675 23.4585V21.9033H25.9542V23.4585H25.1675Z" fill="black"/>
<path d="M6.15775 26.4585V24.9033H7.57403V26.4585H6.15775Z" fill="black"/>
<path d="M7.31602 26.4585V24.9033H8.7323V26.4585H7.31602Z" fill="black"/>
<path d="M8.57392 26.4585V24.9033H9.83245V26.4585H8.57392Z" fill="black"/>
<path d="M9.65331 26.4585V24.9033H10.7548V26.4585H9.65331Z" fill="black"/>
<path d="M10.5763 26.4585V24.9033H11.6778V26.4585H10.5763Z" fill="black"/>
<path d="M11.4994 26.4585V24.9033H12.7586V26.4585H11.4994Z" fill="black"/>
<path d="M12.4224 26.4585V24.9033H13.9964V26.4585H12.4224Z" fill="black"/>
<path d="M13.6595 26.4585V24.9033H15.0758V26.4585H13.6595Z" fill="black"/>
<path d="M14.7209 26.4585V24.9033H16.295V26.4585H14.7209Z" fill="black"/>
<path d="M16.037 26.4585V24.9033H17.1384V26.4585H16.037Z" fill="black"/>
<path d="M16.8022 26.4585V24.9033H17.9037V26.4585H16.8022Z" fill="black"/>
<path d="M17.883 26.4585V24.9033H19.1415V26.4585H17.883Z" fill="black"/>
<path d="M19.1202 26.4585V24.9033H20.5364V26.4585H19.1202Z" fill="black"/>
<path d="M20.3573 26.4585V24.9033H20.9869V26.4585H20.3573Z" fill="black"/>
<path d="M6 29.4585V27.9033H7.41629V29.4585H6Z" fill="black"/>
<path d="M7.31602 29.4585V27.9033H8.57455V29.4585H7.31602Z" fill="black"/>
<path d="M8.39541 29.4585V27.9033H10.442V29.4585H8.39541Z" fill="black"/>
<path d="M10.341 29.4585V27.9033H12.3876V29.4585H10.341Z" fill="black"/>
<path d="M12.2867 29.4585V27.9033H13.3882V29.4585H12.2867Z" fill="black"/>
<path d="M13.2097 29.4585V27.9033H14.3112V29.4585H13.2097Z" fill="black"/>
<path d="M13.975 29.4585V27.9033H16.0216V29.4585H13.975Z" fill="black"/>
<path d="M15.9206 29.4585V27.9033H17.4946V29.4585H15.9206Z" fill="black"/>
<path d="M17.3155 29.4585V27.9033H18.7318V29.4585H17.3155Z" fill="black"/>
<path d="M18.5526 29.4585V27.9033H19.6541V29.4585H18.5526Z" fill="black"/>
<path d="M19.3179 29.4585V27.9033H20.7342V29.4585H19.3179Z" fill="black"/>
<path d="M20.5163 29.4585V27.9033H21.303V29.4585H20.5163Z" fill="black"/>
<path d="M21.045 29.4585V27.9033H21.6746V29.4585H21.045Z" fill="black"/>
<path d="M21.4948 29.4585V27.9033H22.5962V29.4585H21.4948Z" fill="black"/>
<path d="M22.4178 29.4585V27.9033H23.5193V29.4585H22.4178Z" fill="black"/>
<path d="M23.1831 29.4585V27.9033H23.8127V29.4585H23.1831Z" fill="black"/>
<path d="M23.6328 29.4585V27.9033H25.2069V29.4585H23.6328Z" fill="black"/>
<path d="M25.0277 29.4585V27.9033H26.6018V29.4585H25.0277Z" fill="black"/>
<path d="M26.3437 29.4585V27.9033H27.76V29.4585H26.3437Z" fill="black"/>
<path d="M27.5421 29.4585V27.9033H28.1718V29.4585H27.5421Z" fill="black"/>
<path d="M6.15775 32.4585V30.9033H7.57403V32.4585H6.15775Z" fill="black"/>
<path d="M7.55264 32.4585V30.9033H8.81118V32.4585H7.55264Z" fill="black"/>
<path d="M8.63203 32.4585V30.9033H9.73351V32.4585H8.63203Z" fill="black"/>
<path d="M9.39731 32.4585V30.9033H10.9713V32.4585H9.39731Z" fill="black"/>
<path d="M10.7922 32.4585V30.9033H11.8937V32.4585H10.7922Z" fill="black"/>
<path d="M11.873 32.4585V30.9033H13.2893V32.4585H11.873Z" fill="black"/>
<path d="M13.1101 32.4585V30.9033H14.6842V32.4585H13.1101Z" fill="black"/>
<path d="M14.505 32.4585V30.9033H15.1346V32.4585H14.505Z" fill="black"/>
<path d="M14.9548 32.4585V30.9033H16.0563V32.4585H14.9548Z" fill="black"/>
<path d="M15.8778 32.4585V30.9033H17.1364V32.4585H15.8778Z" fill="black"/>
<path d="M16.9572 32.4585V30.9033H17.5868V32.4585H16.9572Z" fill="black"/>
<path d="M17.407 32.4585V30.9033H18.6662V32.4585H17.407Z" fill="black"/>
<path d="M18.33 32.4585V30.9033H19.9041V32.4585H18.33Z" fill="black"/>
<path d="M19.5672 32.4585V30.9033H21.1412V32.4585H19.5672Z" fill="black"/>
<path d="M20.8832 32.4585V30.9033H22.2995V32.4585H20.8832Z" fill="black"/>
<path d="M21.9833 32.4585V30.9033H22.6129V32.4585H21.9833Z" fill="black"/>
<path d="M22.4331 32.4585V30.9033H23.6923V32.4585H22.4331Z" fill="black"/>
<path d="M23.3561 32.4585V30.9033H24.7724V32.4585H23.3561Z" fill="black"/>
<path d="M24.614 32.4585V30.9033H25.8726V32.4585H24.614Z" fill="black"/>
<path d="M25.6934 32.4585V30.9033H27.74V32.4585H25.6934Z" fill="black"/>
<path d="M27.6391 32.4585V30.9033H28.2687V32.4585H27.6391Z" fill="black"/>
<path d="M6 35.4585V33.9033H7.73178V35.4585H6Z" fill="black"/>
<path d="M7.47377 35.4585V33.9033H9.52036V35.4585H7.47377Z" fill="black"/>
<path d="M9.4194 35.4585V33.9033H10.9934V35.4585H9.4194Z" fill="black"/>
<path d="M10.6565 35.4585V33.9033H12.0728V35.4585H10.6565Z" fill="black"/>
<path d="M11.7567 35.4585V33.9033H12.8582V35.4585H11.7567Z" fill="black"/>
<path d="M12.6797 35.4585V33.9033H14.096V35.4585H12.6797Z" fill="black"/>
<path d="M13.838 35.4585V33.9033H15.412V35.4585H13.838Z" fill="black"/>
<path d="M15.154 35.4585V33.9033H15.9407V35.4585H15.154Z" fill="black"/>
<path d="M15.6827 35.4585V33.9033H16.4693V35.4585H15.6827Z" fill="black"/>
<path d="M6.31481 8.35391H26.0483V8.42363H6.31481V8.35391ZM6.31481 11.3539H31.9012V11.4236H6.31481V11.3539ZM6.31481 14.3539H32.6009V14.4236H6.31481V14.3539ZM6.31481 17.3539H32.6852V17.4236H6.31481V17.3539ZM6.31481 20.3539H27.0655V20.4236H6.31481V20.3539ZM6.31481 23.3539H26.1465V23.4236H6.31481V23.3539ZM6.31481 26.3539H20.6721V26.4236H6.31481V26.3539ZM6.31481 29.3539H27.8563V29.4236H6.31481V29.3539ZM6.31481 32.3539H27.9539V32.4236H6.31481V32.3539ZM6.31481 35.3539H16.6617V35.4236H6.31481V35.3539Z" fill="black"/>
</g>
<rect width="12" height="14" transform="translate(25 26.4585)" fill="white"/>
<path d="M30.6787 30.3198C31.5999 30.3198 32.2721 30.5184 32.6953 30.9155C33.1185 31.3094 33.3301 31.853 33.3301 32.5464C33.3301 32.8589 33.2829 33.1584 33.1885 33.4448C33.0941 33.728 32.9395 33.9803 32.7246 34.2017C32.513 34.423 32.2298 34.5988 31.875 34.729C31.5202 34.856 31.0824 34.9194 30.5615 34.9194H29.9121V37.4585H28.3984V30.3198H30.6787ZM30.6006 31.5601H29.9121V33.6792H30.4102C30.6934 33.6792 30.9391 33.6418 31.1475 33.5669C31.3558 33.492 31.5169 33.3748 31.6309 33.2153C31.7448 33.0558 31.8018 32.8507 31.8018 32.6001C31.8018 32.2485 31.7041 31.9881 31.5088 31.8188C31.3135 31.6463 31.0107 31.5601 30.6006 31.5601Z" fill="#585858"/>
</g>
<path d="M11.3333 46.4585H2V52.8066H11.3333V46.4585Z" fill="#7FA4CA"/>
<path d="M21.6663 46.4585H12.333V52.8066H21.6663V46.4585Z" fill="#E5592D"/>
</g>
<defs>
<filter id="filter0_d_39_124700" x="0" y="1.90332" width="39" height="42.5552" filterUnits="userSpaceOnUse" color-interpolation-filters="sRGB">
<feFlood flood-opacity="0" result="BackgroundImageFix"/>
<feColorMatrix in="SourceAlpha" type="matrix" values="0 0 0 0 0 0 0 0 0 0 0 0 0 0 0 0 0 0 127 0" result="hardAlpha"/>
<feOffset dy="1"/>
<feGaussianBlur stdDeviation="1"/>
<feComposite in2="hardAlpha" operator="out"/>
<feColorMatrix type="matrix" values="0 0 0 0 0 0 0 0 0 0 0 0 0 0 0 0 0 0 0.1 0"/>
<feBlend mode="normal" in2="BackgroundImageFix" result="effect1_dropShadow_39_124700"/>
<feBlend mode="normal" in="SourceGraphic" in2="effect1_dropShadow_39_124700" result="shape"/>
</filter>
<clipPath id="clip0_39_124700">
<rect width="39" height="53.9033" fill="white" transform="translate(0 0.90332)"/>
</clipPath>
</defs>
</svg>
