<svg width="39" height="123" viewBox="0 0 39 123" fill="none" xmlns="http://www.w3.org/2000/svg">
<rect width="39" height="123" fill=""/>
<rect width="35" height="107.555" transform="translate(2 2)" fill="white"/>
<g opacity="0.3">
<path d="M6 7.55518V6H6.76671V7.55518H6Z" fill="black"/>
<path d="M6.59211 7.55518V6H7.20574V7.55518H6.59211Z" fill="black"/>
<path d="M7.03047 7.55518V6H8.56456V7.55518H7.03047Z" fill="black"/>
<path d="M8.38996 7.55518V6H9.15667V7.55518H8.38996Z" fill="black"/>
<path d="M8.98207 7.55518V6H10.5162V7.55518H8.98207Z" fill="black"/>
<path d="M10.3416 7.55518V6H11.8756V7.55518H10.3416Z" fill="black"/>
<path d="M11.5473 7.55518V6H12.1609V7.55518H11.5473Z" fill="black"/>
<path d="M11.9857 7.55518V6H13.6735V7.55518H11.9857Z" fill="black"/>
<path d="M13.5367 7.55518V6H14.917V7.55518H13.5367Z" fill="black"/>
<path d="M14.7424 7.55518V6H15.8159V7.55518H14.7424Z" fill="black"/>
<path d="M15.642 7.55518V6H16.7155V7.55518H15.642Z" fill="black"/>
<path d="M16.3879 7.55518V6H17.9219V7.55518H16.3879Z" fill="black"/>
<path d="M17.5936 7.55518V6H19.1277V7.55518H17.5936Z" fill="black"/>
<path d="M18.8762 7.55518V6H19.4899V7.55518H18.8762Z" fill="black"/>
<path d="M19.3146 7.55518V6H20.6949V7.55518H19.3146Z" fill="black"/>
<path d="M20.5972 7.55518V6H21.6707V7.55518H20.5972Z" fill="black"/>
<path d="M21.3431 7.55518V6H22.8771V7.55518H21.3431Z" fill="black"/>
<path d="M22.6257 7.55518V6H23.6992V7.55518H22.6257Z" fill="black"/>
<path d="M23.3715 7.55518V6H24.9056V7.55518H23.3715Z" fill="black"/>
<path d="M24.5773 7.55518V6H25.9576V7.55518H24.5773Z" fill="black"/>
<path d="M25.7453 7.55518V6H26.3589V7.55518H25.7453Z" fill="black"/>
<path d="M26.1836 7.55518V6H27.7177V7.55518H26.1836Z" fill="black"/>
<path d="M27.62 7.55518V6H29.0003V7.55518H27.62Z" fill="black"/>
<path d="M28.8257 7.55518V6H30.3598V7.55518H28.8257Z" fill="black"/>
<path d="M30.1083 7.55518V6H30.722V7.55518H30.1083Z" fill="black"/>
<path d="M6 10.5552V9H7.07352V10.5552H6Z" fill="black"/>
<path d="M6.74586 10.5552V9H8.27994V10.5552H6.74586Z" fill="black"/>
<path d="M8.10534 10.5552V9H9.63943V10.5552H8.10534Z" fill="black"/>
<path d="M9.31109 10.5552V9H9.92472V10.5552H9.31109Z" fill="black"/>
<path d="M9.74945 10.5552V9H11.4373V10.5552H9.74945Z" fill="black"/>
<path d="M11.1278 10.5552V9H12.6619V10.5552H11.1278Z" fill="black"/>
<path d="M12.3336 10.5552V9H14.3282V10.5552H12.3336Z" fill="black"/>
<path d="M14.3836 10.5552V9H15.6102V10.5552H14.3836Z" fill="black"/>
<path d="M15.4356 10.5552V9H16.8159V10.5552H15.4356Z" fill="black"/>
<path d="M16.5644 10.5552V9H17.9448V10.5552H16.5644Z" fill="black"/>
<path d="M17.5989 10.5552V9H19.133V10.5552H17.5989Z" fill="black"/>
<path d="M18.8815 10.5552V9H19.955V10.5552H18.8815Z" fill="black"/>
<path d="M19.6274 10.5552V9H20.7009V10.5552H19.6274Z" fill="black"/>
<path d="M20.527 10.5552V9H21.9073V10.5552H20.527Z" fill="black"/>
<path d="M21.6558 10.5552V9H22.2695V10.5552H21.6558Z" fill="black"/>
<path d="M22.2479 10.5552V9H23.782V10.5552H22.2479Z" fill="black"/>
<path d="M23.4726 10.5552V9H25.0067V10.5552H23.4726Z" fill="black"/>
<path d="M24.8321 10.5552V9H26.0587V10.5552H24.8321Z" fill="black"/>
<path d="M26.0378 10.5552V9H27.4181V10.5552H26.0378Z" fill="black"/>
<path d="M27.1667 10.5552V9H28.2402V10.5552H27.1667Z" fill="black"/>
<path d="M28.0663 10.5552V9H29.6004V10.5552H28.0663Z" fill="black"/>
<path d="M29.272 10.5552V9H30.0387V10.5552H29.272Z" fill="black"/>
<path d="M29.8641 10.5552V9H31.2445V10.5552H29.8641Z" fill="black"/>
<path d="M31.0321 10.5552V9H31.6457V10.5552H31.0321Z" fill="black"/>
<path d="M6 13.5552V12H7.68783V13.5552H6Z" fill="black"/>
<path d="M7.51323 13.5552V12H9.04732V13.5552H7.51323Z" fill="black"/>
<path d="M8.87272 13.5552V12H10.2531V13.5552H8.87272Z" fill="black"/>
<path d="M10.0016 13.5552V12H11.5357V13.5552H10.0016Z" fill="black"/>
<path d="M11.5148 13.5552V12H12.8952V13.5552H11.5148Z" fill="black"/>
<path d="M12.5668 13.5552V12H13.6403V13.5552H12.5668Z" fill="black"/>
<path d="M13.4664 13.5552V12H14.5399V13.5552H13.4664Z" fill="black"/>
<path d="M14.366 13.5552V12H15.7464V13.5552H14.366Z" fill="black"/>
<path d="M15.4949 13.5552V12H16.1085V13.5552H15.4949Z" fill="black"/>
<path d="M16.087 13.5552V12H17.3136V13.5552H16.087Z" fill="black"/>
<path d="M17.139 13.5552V12H18.3663V13.5552H17.139Z" fill="black"/>
<path d="M18.0386 13.5552V12H18.6522V13.5552H18.0386Z" fill="black"/>
<path d="M18.477 13.5552V12H20.1648V13.5552H18.477Z" fill="black"/>
<path d="M20.0671 13.5552V12H21.2937V13.5552H20.0671Z" fill="black"/>
<path d="M21.1191 13.5552V12H22.4994V13.5552H21.1191Z" fill="black"/>
<path d="M22.1913 13.5552V12H23.7254V13.5552H22.1913Z" fill="black"/>
<path d="M23.397 13.5552V12H24.9311V13.5552H23.397Z" fill="black"/>
<path d="M24.6797 13.5552V12H25.2933V13.5552H24.6797Z" fill="black"/>
<path d="M25.118 13.5552V12H26.6521V13.5552H25.118Z" fill="black"/>
<path d="M26.4775 13.5552V12H28.0116V13.5552H26.4775Z" fill="black"/>
<path d="M27.6833 13.5552V12H29.0636V13.5552H27.6833Z" fill="black"/>
<path d="M28.9659 13.5552V12H30.5V13.5552H28.9659Z" fill="black"/>
<path d="M30.1716 13.5552V12H30.7853V13.5552H30.1716Z" fill="black"/>
<path d="M6 16.5552V15H7.53408V16.5552H6Z" fill="black"/>
<path d="M7.28262 16.5552V15H8.8167V16.5552H7.28262Z" fill="black"/>
<path d="M8.48836 16.5552V15H9.8687V16.5552H8.48836Z" fill="black"/>
<path d="M9.61723 16.5552V15H10.6908V16.5552H9.61723Z" fill="black"/>
<path d="M10.5168 16.5552V15H12.0509V16.5552H10.5168Z" fill="black"/>
<path d="M11.7994 16.5552V15H13.3335V16.5552H11.7994Z" fill="black"/>
<path d="M13.0052 16.5552V15H14.5393V16.5552H13.0052Z" fill="black"/>
<path d="M14.2878 16.5552V15H14.9014V16.5552H14.2878Z" fill="black"/>
<path d="M14.7262 16.5552V15H15.7997V16.5552H14.7262Z" fill="black"/>
<path d="M15.6258 16.5552V15H16.8524V16.5552H15.6258Z" fill="black"/>
<path d="M16.6778 16.5552V15H17.2914V16.5552H16.6778Z" fill="black"/>
<path d="M17.1161 16.5552V15H18.1897V16.5552H17.1161Z" fill="black"/>
<path d="M17.862 16.5552V15H19.3961V16.5552H17.862Z" fill="black"/>
<path d="M19.1446 16.5552V15H20.6787V16.5552H19.1446Z" fill="black"/>
<path d="M20.4663 16.5552V15H22.0004V16.5552H20.4663Z" fill="black"/>
<path d="M21.6721 16.5552V15H22.2857V16.5552H21.6721Z" fill="black"/>
<path d="M22.1104 16.5552V15H23.4908V16.5552H22.1104Z" fill="black"/>
<path d="M23.2784 16.5552V15H24.3519V16.5552H23.2784Z" fill="black"/>
<path d="M24.0243 16.5552V15H25.5584V16.5552H24.0243Z" fill="black"/>
<path d="M25.3838 16.5552V15H26.7641V16.5552H25.3838Z" fill="black"/>
<path d="M26.5126 16.5552V15H27.893V16.5552H26.5126Z" fill="black"/>
<path d="M27.6806 16.5552V15H28.2943V16.5552H27.6806Z" fill="black"/>
<path d="M28.119 16.5552V15H29.1925V16.5552H28.119Z" fill="black"/>
<path d="M29.0186 16.5552V15H30.2452V16.5552H29.0186Z" fill="black"/>
<path d="M30.0706 16.5552V15H30.6842V16.5552H30.0706Z" fill="black"/>
<path d="M6 19.5552V18H7.22727V19.5552H6Z" fill="black"/>
<path d="M6.8996 19.5552V18H8.43369V19.5552H6.8996Z" fill="black"/>
<path d="M8.41284 19.5552V18H9.79317V19.5552H8.41284Z" fill="black"/>
<path d="M9.61858 19.5552V18H11.1527V19.5552H9.61858Z" fill="black"/>
<path d="M10.9012 19.5552V18H12.4353V19.5552H10.9012Z" fill="black"/>
<path d="M12.1838 19.5552V18H14.1785V19.5552H12.1838Z" fill="black"/>
<path d="M14.0801 19.5552V18H15.6141V19.5552H14.0801Z" fill="black"/>
<path d="M15.4396 19.5552V18H16.8199V19.5552H15.4396Z" fill="black"/>
<path d="M16.6453 19.5552V18H17.7188V19.5552H16.6453Z" fill="black"/>
<path d="M17.3911 19.5552V18H18.9252V19.5552H17.3911Z" fill="black"/>
<path d="M18.6738 19.5552V18H19.7473V19.5552H18.6738Z" fill="black"/>
<path d="M19.5734 19.5552V18H20.6469V19.5552H19.5734Z" fill="black"/>
<path d="M20.5498 19.5552V18H21.9302V19.5552H20.5498Z" fill="black"/>
<path d="M21.6787 19.5552V18H22.2923V19.5552H21.6787Z" fill="black"/>
<path d="M22.1171 19.5552V18H23.1906V19.5552H22.1171Z" fill="black"/>
<path d="M23.0167 19.5552V18H25.0113V19.5552H23.0167Z" fill="black"/>
<path d="M25.0667 19.5552V18H26.447V19.5552H25.0667Z" fill="black"/>
<path d="M26.1955 19.5552V18H27.5759V19.5552H26.1955Z" fill="black"/>
<path d="M27.4215 19.5552V18H28.6481V19.5552H27.4215Z" fill="black"/>
<path d="M28.4735 19.5552V18H29.8539V19.5552H28.4735Z" fill="black"/>
<path d="M29.7561 19.5552V18H31.2902V19.5552H29.7561Z" fill="black"/>
<path d="M30.9619 19.5552V18H31.5755V19.5552H30.9619Z" fill="black"/>
<path d="M6 22.5552V21H7.07352V22.5552H6Z" fill="black"/>
<path d="M6.74586 22.5552V21H8.27994V22.5552H6.74586Z" fill="black"/>
<path d="M8.10534 22.5552V21H9.63943V22.5552H8.10534Z" fill="black"/>
<path d="M9.31109 22.5552V21H10.3846V22.5552H9.31109Z" fill="black"/>
<path d="M10.2107 22.5552V21H11.591V22.5552H10.2107Z" fill="black"/>
<path d="M11.2829 22.5552V21H11.8966V22.5552H11.2829Z" fill="black"/>
<path d="M11.875 22.5552V21H13.2554V22.5552H11.875Z" fill="black"/>
<path d="M12.927 22.5552V21H14.0005V22.5552H12.927Z" fill="black"/>
<path d="M13.8266 22.5552V21H14.9001V22.5552H13.8266Z" fill="black"/>
<path d="M14.7262 22.5552V21H16.2603V22.5552H14.7262Z" fill="black"/>
<path d="M16.0088 22.5552V21H17.0824V22.5552H16.0088Z" fill="black"/>
<path d="M16.7547 22.5552V21H18.2888V22.5552H16.7547Z" fill="black"/>
<path d="M17.9604 22.5552V21H19.3408V22.5552H17.9604Z" fill="black"/>
<path d="M18.9949 22.5552V21H20.529V22.5552H18.9949Z" fill="black"/>
<path d="M20.2775 22.5552V21H21.351V22.5552H20.2775Z" fill="black"/>
<path d="M21.1771 22.5552V21H21.7908V22.5552H21.1771Z" fill="black"/>
<path d="M21.6155 22.5552V21H22.9958V22.5552H21.6155Z" fill="black"/>
<path d="M22.6877 22.5552V21H24.2218V22.5552H22.6877Z" fill="black"/>
<path d="M23.8935 22.5552V21H24.967V22.5552H23.8935Z" fill="black"/>
<path d="M24.7931 22.5552V21H26.3271V22.5552H24.7931Z" fill="black"/>
<path d="M26.0757 22.5552V21H27.1492V22.5552H26.0757Z" fill="black"/>
<path d="M26.8215 22.5552V21H27.8951V22.5552H26.8215Z" fill="black"/>
<path d="M27.8749 22.5552V21H29.1015V22.5552H27.8749Z" fill="black"/>
<path d="M29.0806 22.5552V21H30.461V22.5552H29.0806Z" fill="black"/>
<path d="M30.2864 22.5552V21H31.6667V22.5552H30.2864Z" fill="black"/>
<path d="M31.4543 22.5552V21H32.068V22.5552H31.4543Z" fill="black"/>
<path d="M6 25.5552V24H7.07352V25.5552H6Z" fill="black"/>
<path d="M7.05335 25.5552V24H8.43369V25.5552H7.05335Z" fill="black"/>
<path d="M8.25909 25.5552V24H8.87272V25.5552H8.25909Z" fill="black"/>
<path d="M8.69745 25.5552V24H9.77098V25.5552H8.69745Z" fill="black"/>
<path d="M9.44331 25.5552V24H10.9774V25.5552H9.44331Z" fill="black"/>
<path d="M10.8028 25.5552V24H12.3369V25.5552H10.8028Z" fill="black"/>
<path d="M12.0085 25.5552V24H12.6222V25.5552H12.0085Z" fill="black"/>
<path d="M12.4469 25.5552V24H13.5204V25.5552H12.4469Z" fill="black"/>
<path d="M13.5003 25.5552V24H14.8806V25.5552H13.5003Z" fill="black"/>
<path d="M14.706 25.5552V24H15.7795V25.5552H14.706Z" fill="black"/>
<path d="M15.4519 25.5552V24H16.9859V25.5552H15.4519Z" fill="black"/>
<path d="M16.6576 25.5552V24H18.0379V25.5552H16.6576Z" fill="black"/>
<path d="M17.7298 25.5552V24H19.2639V25.5552H17.7298Z" fill="black"/>
<path d="M18.9356 25.5552V24H20.3159V25.5552H18.9356Z" fill="black"/>
<path d="M20.1035 25.5552V24H21.1771V25.5552H20.1035Z" fill="black"/>
<path d="M20.8494 25.5552V24H22.2297V25.5552H20.8494Z" fill="black"/>
<path d="M22.0174 25.5552V24H22.631V25.5552H22.0174Z" fill="black"/>
<path d="M22.6095 25.5552V24H23.8361V25.5552H22.6095Z" fill="black"/>
<path d="M23.6615 25.5552V24H24.8888V25.5552H23.6615Z" fill="black"/>
<path d="M24.5611 25.5552V24H25.1747V25.5552H24.5611Z" fill="black"/>
<path d="M6 28.5552V27H7.53408V28.5552H6Z" fill="black"/>
<path d="M7.35949 28.5552V27H8.73983V28.5552H7.35949Z" fill="black"/>
<path d="M8.56523 28.5552V27H10.0993V28.5552H8.56523Z" fill="black"/>
<path d="M9.92472 28.5552V27H11.4588V28.5552H9.92472Z" fill="black"/>
<path d="M11.3611 28.5552V27H12.7414V28.5552H11.3611Z" fill="black"/>
<path d="M12.5668 28.5552V27H13.9472V28.5552H12.5668Z" fill="black"/>
<path d="M13.6957 28.5552V27H14.7692V28.5552H13.6957Z" fill="black"/>
<path d="M14.749 28.5552V27H16.1294V28.5552H14.749Z" fill="black"/>
<path d="M15.9548 28.5552V27H17.4889V28.5552H15.9548Z" fill="black"/>
<path d="M17.3143 28.5552V27H17.9279V28.5552H17.3143Z" fill="black"/>
<path d="M17.9064 28.5552V27H19.2867V28.5552H17.9064Z" fill="black"/>
<path d="M19.0353 28.5552V27H20.5693V28.5552H19.0353Z" fill="black"/>
<path d="M20.241 28.5552V27H21.7751V28.5552H20.241Z" fill="black"/>
<path d="M21.5236 28.5552V27H22.904V28.5552H21.5236Z" fill="black"/>
<path d="M22.6525 28.5552V27H24.1866V28.5552H22.6525Z" fill="black"/>
<path d="M23.8582 28.5552V27H24.4719V28.5552H23.8582Z" fill="black"/>
<path d="M24.2966 28.5552V27H25.8307V28.5552H24.2966Z" fill="black"/>
<path d="M25.733 28.5552V27H27.1133V28.5552H25.733Z" fill="black"/>
<path d="M26.9387 28.5552V27H28.4728V28.5552H26.9387Z" fill="black"/>
<path d="M28.2213 28.5552V27H28.8349V28.5552H28.2213Z" fill="black"/>
<path d="M6 31.5552V30H7.38034V31.5552H6Z" fill="black"/>
<path d="M7.16798 31.5552V30H8.70207V31.5552H7.16798Z" fill="black"/>
<path d="M8.37372 31.5552V30H9.75406V31.5552H8.37372Z" fill="black"/>
<path d="M9.5026 31.5552V30H11.0367V31.5552H9.5026Z" fill="black"/>
<path d="M10.8621 31.5552V30H12.2424V31.5552H10.8621Z" fill="black"/>
<path d="M11.9343 31.5552V30H13.0078V31.5552H11.9343Z" fill="black"/>
<path d="M12.8339 31.5552V30H13.9074V31.5552H12.8339Z" fill="black"/>
<path d="M13.7335 31.5552V30H15.1139V31.5552H13.7335Z" fill="black"/>
<path d="M14.8624 31.5552V30H15.476V31.5552H14.8624Z" fill="black"/>
<path d="M15.3007 31.5552V30H16.3743V31.5552H15.3007Z" fill="black"/>
<path d="M16.3541 31.5552V30H17.7344V31.5552H16.3541Z" fill="black"/>
<path d="M17.5598 31.5552V30H18.1735V31.5552H17.5598Z" fill="black"/>
<path d="M17.9982 31.5552V30H19.0717V31.5552H17.9982Z" fill="black"/>
<path d="M18.7441 31.5552V30H20.2781V31.5552H18.7441Z" fill="black"/>
<path d="M20.1035 31.5552V30H21.6376V31.5552H20.1035Z" fill="black"/>
<path d="M21.3093 31.5552V30H21.9229V31.5552H21.3093Z" fill="black"/>
<path d="M21.7477 31.5552V30H23.4355V31.5552H21.7477Z" fill="black"/>
<path d="M23.184 31.5552V30H24.5644V31.5552H23.184Z" fill="black"/>
<path d="M24.352 31.5552V30H25.4255V31.5552H24.352Z" fill="black"/>
<path d="M25.2516 31.5552V30H26.7857V31.5552H25.2516Z" fill="black"/>
<path d="M26.5342 31.5552V30H27.3009V31.5552H26.5342Z" fill="black"/>
<path d="M6.15375 34.5552V33H7.68783V34.5552H6.15375Z" fill="black"/>
<path d="M7.22462 34.5552V33H8.75871V34.5552H7.22462Z" fill="black"/>
<path d="M8.50724 34.5552V33H9.88758V34.5552H8.50724Z" fill="black"/>
<path d="M9.63611 34.5552V33H10.7096V34.5552H9.63611Z" fill="black"/>
<path d="M10.5357 34.5552V33H11.763V34.5552H10.5357Z" fill="black"/>
<path d="M11.4353 34.5552V33H12.5088V34.5552H11.4353Z" fill="black"/>
<path d="M12.3349 34.5552V33H13.7153V34.5552H12.3349Z" fill="black"/>
<path d="M13.4638 34.5552V33H14.0774V34.5552H13.4638Z" fill="black"/>
<path d="M13.9021 34.5552V33H15.2825V34.5552H13.9021Z" fill="black"/>
<path d="M14.9744 34.5552V33H16.5085V34.5552H14.9744Z" fill="black"/>
<path d="M16.1801 34.5552V33H17.7142V34.5552H16.1801Z" fill="black"/>
<path d="M17.5396 34.5552V33H18.6131V34.5552H17.5396Z" fill="black"/>
<path d="M18.593 34.5552V33H19.8195V34.5552H18.593Z" fill="black"/>
<path d="M19.7987 34.5552V33H21.179V34.5552H19.7987Z" fill="black"/>
<path d="M21.0044 34.5552V33H21.6181V34.5552H21.0044Z" fill="black"/>
<path d="M21.4428 34.5552V33H22.2095V34.5552H21.4428Z" fill="black"/>
<path d="M21.958 34.5552V33H22.5717V34.5552H21.958Z" fill="black"/>
<path d="M22.3964 34.5552V33H23.1631V34.5552H22.3964Z" fill="black"/>
<path d="M22.9116 34.5552V33H23.5253V34.5552H22.9116Z" fill="black"/>
<path d="M23.35 34.5552V33H24.1167V34.5552H23.35Z" fill="black"/>
<path d="M23.8652 34.5552V33H24.4789V34.5552H23.8652Z" fill="black"/>
<path d="M24.3036 34.5552V33H25.9914V34.5552H24.3036Z" fill="black"/>
<path d="M25.74 34.5552V33H27.1203V34.5552H25.74Z" fill="black"/>
<path d="M26.908 34.5552V33H27.5216V34.5552H26.908Z" fill="black"/>
<path d="M27.3463 34.5552V33H28.8804V34.5552H27.3463Z" fill="black"/>
<path d="M28.6289 34.5552V33H29.2426V34.5552H28.6289Z" fill="black"/>
<path d="M6 37.5552V36H7.38034V37.5552H6Z" fill="black"/>
<path d="M7.12887 37.5552V36H8.50921V37.5552H7.12887Z" fill="black"/>
<path d="M8.2011 37.5552V36H9.73518V37.5552H8.2011Z" fill="black"/>
<path d="M9.56059 37.5552V36H10.9409V37.5552H9.56059Z" fill="black"/>
<path d="M10.6895 37.5552V36H11.763V37.5552H10.6895Z" fill="black"/>
<path d="M11.5891 37.5552V36H13.1231V37.5552H11.5891Z" fill="black"/>
<path d="M12.8717 37.5552V36H13.9452V37.5552H12.8717Z" fill="black"/>
<path d="M13.7713 37.5552V36H14.3849V37.5552H13.7713Z" fill="black"/>
<path d="M14.2096 37.5552V36H15.4369V37.5552H14.2096Z" fill="black"/>
<path d="M15.1092 37.5552V36H16.1828V37.5552H15.1092Z" fill="black"/>
<path d="M16.0088 37.5552V36H17.3892V37.5552H16.0088Z" fill="black"/>
<path d="M17.0811 37.5552V36H18.4614V37.5552H17.0811Z" fill="black"/>
<path d="M18.249 37.5552V36H19.3226V37.5552H18.249Z" fill="black"/>
<path d="M18.9949 37.5552V36H19.6085V37.5552H18.9949Z" fill="black"/>
<path d="M19.4333 37.5552V36H20.8136V37.5552H19.4333Z" fill="black"/>
<path d="M20.6013 37.5552V36H21.6748V37.5552H20.6013Z" fill="black"/>
<path d="M21.3471 37.5552V36H22.8812V37.5552H21.3471Z" fill="black"/>
<path d="M22.7066 37.5552V36H24.0869V37.5552H22.7066Z" fill="black"/>
<path d="M23.8355 37.5552V36H24.6022V37.5552H23.8355Z" fill="black"/>
<path d="M24.3507 37.5552V36H24.9643V37.5552H24.3507Z" fill="black"/>
<path d="M24.7891 37.5552V36H25.8626V37.5552H24.7891Z" fill="black"/>
<path d="M25.5349 37.5552V36H27.069V37.5552H25.5349Z" fill="black"/>
<path d="M26.8944 37.5552V36H28.4285V37.5552H26.8944Z" fill="black"/>
<path d="M28.1002 37.5552V36H28.7138V37.5552H28.1002Z" fill="black"/>
<path d="M28.5385 37.5552V36H29.612V37.5552H28.5385Z" fill="black"/>
<path d="M29.2844 37.5552V36H31.4321V37.5552H29.2844Z" fill="black"/>
<path d="M31.3344 37.5552V36H32.561V37.5552H31.3344Z" fill="black"/>
<path d="M32.3864 37.5552V36H33V37.5552H32.3864Z" fill="black"/>
<path d="M6 40.5552V39H7.38034V40.5552H6Z" fill="black"/>
<path d="M7.16798 40.5552V39H8.2415V40.5552H7.16798Z" fill="black"/>
<path d="M8.06758 40.5552V39H9.60167V40.5552H8.06758Z" fill="black"/>
<path d="M9.3502 40.5552V39H10.8843V40.5552H9.3502Z" fill="black"/>
<path d="M10.5559 40.5552V39H11.9363V40.5552H10.5559Z" fill="black"/>
<path d="M11.7239 40.5552V39H12.3376V40.5552H11.7239Z" fill="black"/>
<path d="M12.1623 40.5552V39H13.5426V40.5552H12.1623Z" fill="black"/>
<path d="M13.3303 40.5552V39H14.4038V40.5552H13.3303Z" fill="black"/>
<path d="M14.0761 40.5552V39H15.6102V40.5552H14.0761Z" fill="black"/>
<path d="M15.3587 40.5552V39H16.4323V40.5552H15.3587Z" fill="black"/>
<path d="M16.1046 40.5552V39H17.6387V40.5552H16.1046Z" fill="black"/>
<path d="M17.3103 40.5552V39H18.8444V40.5552H17.3103Z" fill="black"/>
<path d="M18.593 40.5552V39H19.2066V40.5552H18.593Z" fill="black"/>
<path d="M19.0313 40.5552V39H20.1048V40.5552H19.0313Z" fill="black"/>
<path d="M19.7772 40.5552V39H21.3113V40.5552H19.7772Z" fill="black"/>
<path d="M21.1367 40.5552V39H22.6707V40.5552H21.1367Z" fill="black"/>
<path d="M22.4193 40.5552V39H23.4928V40.5552H22.4193Z" fill="black"/>
<path d="M23.1651 40.5552V39H23.7788V40.5552H23.1651Z" fill="black"/>
<path d="M23.7572 40.5552V39H25.1376V40.5552H23.7572Z" fill="black"/>
<path d="M24.963 40.5552V39H26.4971V40.5552H24.963Z" fill="black"/>
<path d="M26.1687 40.5552V39H27.2423V40.5552H26.1687Z" fill="black"/>
<path d="M27.0683 40.5552V39H28.1419V40.5552H27.0683Z" fill="black"/>
<path d="M27.8142 40.5552V39H29.3483V40.5552H27.8142Z" fill="black"/>
<path d="M29.1737 40.5552V39H30.7078V40.5552H29.1737Z" fill="black"/>
<path d="M30.3794 40.5552V39H31.7598V40.5552H30.3794Z" fill="black"/>
<path d="M31.4516 40.5552V39H32.0653V40.5552H31.4516Z" fill="black"/>
<path d="M6 43.5552V42H7.53408V43.5552H6Z" fill="black"/>
<path d="M7.51323 43.5552V42H8.73983V43.5552H7.51323Z" fill="black"/>
<path d="M8.56523 43.5552V42H9.94557V43.5552H8.56523Z" fill="black"/>
<path d="M9.84785 43.5552V42H11.3819V43.5552H9.84785Z" fill="black"/>
<path d="M11.0536 43.5552V42H12.4339V43.5552H11.0536Z" fill="black"/>
<path d="M12.2796 43.5552V42H13.6599V43.5552H12.2796Z" fill="black"/>
<path d="M13.4853 43.5552V42H15.48V43.5552H13.4853Z" fill="black"/>
<path d="M15.3816 43.5552V42H16.9156V43.5552H15.3816Z" fill="black"/>
<path d="M16.741 43.5552V42H18.1214V43.5552H16.741Z" fill="black"/>
<path d="M17.9468 43.5552V42H19.0203V43.5552H17.9468Z" fill="black"/>
<path d="M18.6926 43.5552V42H19.3063V43.5552H18.6926Z" fill="black"/>
<path d="M19.131 43.5552V42H21.2787V43.5552H19.131Z" fill="black"/>
<path d="M21.181 43.5552V42H22.4076V43.5552H21.181Z" fill="black"/>
<path d="M22.233 43.5552V42H23.7671V43.5552H22.233Z" fill="black"/>
<path d="M23.5925 43.5552V42H24.666V43.5552H23.5925Z" fill="black"/>
<path d="M24.4921 43.5552V42H26.0262V43.5552H24.4921Z" fill="black"/>
<path d="M25.7747 43.5552V42H26.3883V43.5552H25.7747Z" fill="black"/>
<path d="M26.2131 43.5552V42H27.7472V43.5552H26.2131Z" fill="black"/>
<path d="M27.5726 43.5552V42H29.1066V43.5552H27.5726Z" fill="black"/>
<path d="M28.7783 43.5552V42H30.1586V43.5552H28.7783Z" fill="black"/>
<path d="M30.0609 43.5552V42H31.595V43.5552H30.0609Z" fill="black"/>
<path d="M31.2667 43.5552V42H31.8803V43.5552H31.2667Z" fill="black"/>
<path d="M6 46.5552V45H7.53408V46.5552H6Z" fill="black"/>
<path d="M7.51323 46.5552V45H8.73983V46.5552H7.51323Z" fill="black"/>
<path d="M8.56523 46.5552V45H9.94557V46.5552H8.56523Z" fill="black"/>
<path d="M9.73321 46.5552V45H10.8067V46.5552H9.73321Z" fill="black"/>
<path d="M10.4791 46.5552V45H11.5526V46.5552H10.4791Z" fill="black"/>
<path d="M11.3787 46.5552V45H12.4522V46.5552H11.3787Z" fill="black"/>
<path d="M12.2783 46.5552V45H13.8124V46.5552H12.2783Z" fill="black"/>
<path d="M13.484 46.5552V45H14.0976V46.5552H13.484Z" fill="black"/>
<path d="M13.9224 46.5552V45H14.9959V46.5552H13.9224Z" fill="black"/>
<path d="M14.9757 46.5552V45H16.3561V46.5552H14.9757Z" fill="black"/>
<path d="M16.1815 46.5552V45H17.255V46.5552H16.1815Z" fill="black"/>
<path d="M16.9273 46.5552V45H18.4614V46.5552H16.9273Z" fill="black"/>
<path d="M18.2868 46.5552V45H19.6672V46.5552H18.2868Z" fill="black"/>
<path d="M19.4926 46.5552V45H20.5661V46.5552H19.4926Z" fill="black"/>
<path d="M20.2384 46.5552V45H20.852V46.5552H20.2384Z" fill="black"/>
<path d="M20.6768 46.5552V45H21.7503V46.5552H20.6768Z" fill="black"/>
<path d="M21.5764 46.5552V45H22.803V46.5552H21.5764Z" fill="black"/>
<path d="M22.6284 46.5552V45H24.7761V46.5552H22.6284Z" fill="black"/>
<path d="M24.4478 46.5552V45H25.9818V46.5552H24.4478Z" fill="black"/>
<path d="M25.7304 46.5552V45H27.1107V46.5552H25.7304Z" fill="black"/>
<path d="M26.8026 46.5552V45H28.3367V46.5552H26.8026Z" fill="black"/>
<path d="M28.0852 46.5552V45H28.6988V46.5552H28.0852Z" fill="black"/>
<path d="M28.5236 46.5552V45H29.5971V46.5552H28.5236Z" fill="black"/>
<path d="M29.2694 46.5552V45H30.8035V46.5552H29.2694Z" fill="black"/>
<path d="M30.6289 46.5552V45H32.163V46.5552H30.6289Z" fill="black"/>
<path d="M31.8347 46.5552V45H32.4483V46.5552H31.8347Z" fill="black"/>
<path d="M6.15375 49.5552V48H7.38034V49.5552H6.15375Z" fill="black"/>
<path d="M7.20574 49.5552V48H8.27927V49.5552H7.20574Z" fill="black"/>
<path d="M7.9516 49.5552V48H9.48568V49.5552H7.9516Z" fill="black"/>
<path d="M9.31109 49.5552V48H10.8452V49.5552H9.31109Z" fill="black"/>
<path d="M10.5168 49.5552V48H11.8972V49.5552H10.5168Z" fill="black"/>
<path d="M11.5891 49.5552V48H12.2027V49.5552H11.5891Z" fill="black"/>
<path d="M12.0274 49.5552V48H13.5615V49.5552H12.0274Z" fill="black"/>
<path d="M13.4638 49.5552V48H14.8441V49.5552H13.4638Z" fill="black"/>
<path d="M14.6695 49.5552V48H16.2036V49.5552H14.6695Z" fill="black"/>
<path d="M15.9521 49.5552V48H16.5658V49.5552H15.9521Z" fill="black"/>
<path d="M16.3905 49.5552V48H17.7708V49.5552H16.3905Z" fill="black"/>
<path d="M17.6731 49.5552V48H18.8997V49.5552H17.6731Z" fill="black"/>
<path d="M18.8789 49.5552V48H20.2592V49.5552H18.8789Z" fill="black"/>
<path d="M20.0846 49.5552V48H21.3119V49.5552H20.0846Z" fill="black"/>
<path d="M20.9842 49.5552V48H22.0577V49.5552H20.9842Z" fill="black"/>
<path d="M21.8838 49.5552V48H23.2642V49.5552H21.8838Z" fill="black"/>
<path d="M22.956 49.5552V48H24.9507V49.5552H22.956Z" fill="black"/>
<path d="M24.8523 49.5552V48H26.3864V49.5552H24.8523Z" fill="black"/>
<path d="M26.058 49.5552V48H27.5921V49.5552H26.058Z" fill="black"/>
<path d="M27.3407 49.5552V48H27.9543V49.5552H27.3407Z" fill="black"/>
<path d="M27.779 49.5552V48H28.8525V49.5552H27.779Z" fill="black"/>
<path d="M28.5249 49.5552V48H30.059V49.5552H28.5249Z" fill="black"/>
<path d="M29.8844 49.5552V48H31.4184V49.5552H29.8844Z" fill="black"/>
<path d="M31.0901 49.5552V48H31.7037V49.5552H31.0901Z" fill="black"/>
<path d="M6 52.5552V51H7.38034V52.5552H6Z" fill="black"/>
<path d="M7.28262 52.5552V51H8.50921V52.5552H7.28262Z" fill="black"/>
<path d="M8.33461 52.5552V51H10.3293V52.5552H8.33461Z" fill="black"/>
<path d="M10.2309 52.5552V51H12.2255V52.5552H10.2309Z" fill="black"/>
<path d="M12.1271 52.5552V51H13.2006V52.5552H12.1271Z" fill="black"/>
<path d="M13.0267 52.5552V51H14.1002V52.5552H13.0267Z" fill="black"/>
<path d="M13.7726 52.5552V51H15.7672V52.5552H13.7726Z" fill="black"/>
<path d="M15.6688 52.5552V51H17.2029V52.5552H15.6688Z" fill="black"/>
<path d="M17.0283 52.5552V51H18.4086V52.5552H17.0283Z" fill="black"/>
<path d="M18.2341 52.5552V51H19.3076V52.5552H18.2341Z" fill="black"/>
<path d="M18.9799 52.5552V51H19.5935V52.5552H18.9799Z" fill="black"/>
<path d="M19.572 52.5552V51H20.7986V52.5552H19.572Z" fill="black"/>
<path d="M20.624 52.5552V51H21.8513V52.5552H20.624Z" fill="black"/>
<path d="M21.5236 52.5552V51H22.1372V52.5552H21.5236Z" fill="black"/>
<path d="M22.1157 52.5552V51H23.4961V52.5552H22.1157Z" fill="black"/>
<path d="M23.3215 52.5552V51H24.5481V52.5552H23.3215Z" fill="black"/>
<path d="M24.3735 52.5552V51H25.447V52.5552H24.3735Z" fill="black"/>
<path d="M25.1193 52.5552V51H26.6534V52.5552H25.1193Z" fill="black"/>
<path d="M26.4788 52.5552V51H27.0924V52.5552H26.4788Z" fill="black"/>
<path d="M6 55.5552V54H7.53408V55.5552H6Z" fill="black"/>
<path d="M7.51323 55.5552V54H8.73983V55.5552H7.51323Z" fill="black"/>
<path d="M8.56523 55.5552V54H9.94557V55.5552H8.56523Z" fill="black"/>
<path d="M9.84785 55.5552V54H11.3819V55.5552H9.84785Z" fill="black"/>
<path d="M11.0536 55.5552V54H12.4339V55.5552H11.0536Z" fill="black"/>
<path d="M12.2796 55.5552V54H13.6599V55.5552H12.2796Z" fill="black"/>
<path d="M13.4853 55.5552V54H15.48V55.5552H13.4853Z" fill="black"/>
<path d="M15.3816 55.5552V54H16.9156V55.5552H15.3816Z" fill="black"/>
<path d="M16.741 55.5552V54H18.1214V55.5552H16.741Z" fill="black"/>
<path d="M17.9468 55.5552V54H19.0203V55.5552H17.9468Z" fill="black"/>
<path d="M18.6926 55.5552V54H20.073V55.5552H18.6926Z" fill="black"/>
<path d="M19.8606 55.5552V54H20.4743V55.5552H19.8606Z" fill="black"/>
<path d="M20.299 55.5552V54H21.3725V55.5552H20.299Z" fill="black"/>
<path d="M21.1986 55.5552V54H22.4252V55.5552H21.1986Z" fill="black"/>
<path d="M22.2506 55.5552V54H22.8642V55.5552H22.2506Z" fill="black"/>
<path d="M22.689 55.5552V54H24.6836V55.5552H22.689Z" fill="black"/>
<path d="M24.5852 55.5552V54H26.1193V55.5552H24.5852Z" fill="black"/>
<path d="M25.8678 55.5552V54H27.4019V55.5552H25.8678Z" fill="black"/>
<path d="M27.1895 55.5552V54H28.7236V55.5552H27.1895Z" fill="black"/>
<path d="M28.3953 55.5552V54H29.0089V55.5552H28.3953Z" fill="black"/>
<path d="M6 58.5552V57H7.53408V58.5552H6Z" fill="black"/>
<path d="M7.20574 58.5552V57H8.58608V58.5552H7.20574Z" fill="black"/>
<path d="M8.48836 58.5552V57H10.0224V58.5552H8.48836Z" fill="black"/>
<path d="M9.6941 58.5552V57H11.0744V58.5552H9.6941Z" fill="black"/>
<path d="M10.9201 58.5552V57H12.3004V58.5552H10.9201Z" fill="black"/>
<path d="M12.0489 58.5552V57H12.6626V58.5552H12.0489Z" fill="black"/>
<path d="M12.4873 58.5552V57H14.0214V58.5552H12.4873Z" fill="black"/>
<path d="M13.6931 58.5552V57H14.9203V58.5552H13.6931Z" fill="black"/>
<path d="M14.5927 58.5552V57H15.8199V58.5552H14.5927Z" fill="black"/>
<path d="M15.646 58.5552V57H16.8726V58.5552H15.646Z" fill="black"/>
<path d="M16.698 58.5552V57H18.0783V58.5552H16.698Z" fill="black"/>
<path d="M17.7702 58.5552V57H18.8437V58.5552H17.7702Z" fill="black"/>
<path d="M18.5161 58.5552V57H19.1297V58.5552H18.5161Z" fill="black"/>
<path d="M18.9544 58.5552V57H20.028V58.5552H18.9544Z" fill="black"/>
<path d="M20.0078 58.5552V57H21.3881V58.5552H20.0078Z" fill="black"/>
<path d="M21.2135 58.5552V57H21.8272V58.5552H21.2135Z" fill="black"/>
<path d="M21.6519 58.5552V57H22.7254V58.5552H21.6519Z" fill="black"/>
<path d="M22.3978 58.5552V57H23.9318V58.5552H22.3978Z" fill="black"/>
<path d="M23.7572 58.5552V57H25.2913V58.5552H23.7572Z" fill="black"/>
<path d="M24.963 58.5552V57H25.5766V58.5552H24.963Z" fill="black"/>
<path d="M25.4014 58.5552V57H26.6286V58.5552H25.4014Z" fill="black"/>
<path d="M26.301 58.5552V57H27.835V58.5552H26.301Z" fill="black"/>
<path d="M27.6604 58.5552V57H28.734V58.5552H27.6604Z" fill="black"/>
<path d="M28.4063 58.5552V57H29.9404V58.5552H28.4063Z" fill="black"/>
<path d="M29.7658 58.5552V57H31.1461V58.5552H29.7658Z" fill="black"/>
<path d="M30.838 58.5552V57H32.3721V58.5552H30.838Z" fill="black"/>
<path d="M32.0438 58.5552V57H32.6574V58.5552H32.0438Z" fill="black"/>
<path d="M6 61.5552V60H7.07352V61.5552H6Z" fill="black"/>
<path d="M6.8996 61.5552V60H8.12619V61.5552H6.8996Z" fill="black"/>
<path d="M7.9516 61.5552V60H8.56523V61.5552H7.9516Z" fill="black"/>
<path d="M8.54371 61.5552V60H9.92405V61.5552H8.54371Z" fill="black"/>
<path d="M9.59571 61.5552V60H11.1298V61.5552H9.59571Z" fill="black"/>
<path d="M10.9552 61.5552V60H12.0287V61.5552H10.9552Z" fill="black"/>
<path d="M11.8548 61.5552V60H12.9283V61.5552H11.8548Z" fill="black"/>
<path d="M12.7544 61.5552V60H14.2885V61.5552H12.7544Z" fill="black"/>
<path d="M14.037 61.5552V60H14.6506V61.5552H14.037Z" fill="black"/>
<path d="M14.4754 61.5552V60H16.0095V61.5552H14.4754Z" fill="black"/>
<path d="M15.758 61.5552V60H16.3716V61.5552H15.758Z" fill="black"/>
<path d="M16.3501 61.5552V60H17.7304V61.5552H16.3501Z" fill="black"/>
<path d="M17.5558 61.5552V60H19.0899V61.5552H17.5558Z" fill="black"/>
<path d="M18.7616 61.5552V60H20.9093V61.5552H18.7616Z" fill="black"/>
<path d="M20.6578 61.5552V60H21.2715V61.5552H20.6578Z" fill="black"/>
<path d="M6 64.5552V63H7.38034V64.5552H6Z" fill="black"/>
<path d="M7.07223 64.5552V63H8.60631V64.5552H7.07223Z" fill="black"/>
<path d="M8.27797 64.5552V63H9.35149V64.5552H8.27797Z" fill="black"/>
<path d="M9.17757 64.5552V63H10.7117V64.5552H9.17757Z" fill="black"/>
<path d="M10.4602 64.5552V63H11.5337V64.5552H10.4602Z" fill="black"/>
<path d="M11.206 64.5552V63H12.2796V64.5552H11.206Z" fill="black"/>
<path d="M12.2594 64.5552V63H13.486V64.5552H12.2594Z" fill="black"/>
<path d="M13.4651 64.5552V63H14.8455V64.5552H13.4651Z" fill="black"/>
<path d="M14.6709 64.5552V63H16.0512V64.5552H14.6709Z" fill="black"/>
<path d="M15.8389 64.5552V63H17.3729V64.5552H15.8389Z" fill="black"/>
<path d="M17.1983 64.5552V63H18.2719V64.5552H17.1983Z" fill="black"/>
<path d="M18.2517 64.5552V63H19.632V64.5552H18.2517Z" fill="black"/>
<path d="M19.3806 64.5552V63H19.9942V64.5552H19.3806Z" fill="black"/>
<path d="M19.8189 64.5552V63H21.0462V64.5552H19.8189Z" fill="black"/>
<path d="M20.7185 64.5552V63H22.0989V64.5552H20.7185Z" fill="black"/>
<path d="M21.7908 64.5552V63H23.3248V64.5552H21.7908Z" fill="black"/>
<path d="M22.9965 64.5552V63H24.5306V64.5552H22.9965Z" fill="black"/>
<path d="M24.2022 64.5552V63H24.8159V64.5552H24.2022Z" fill="black"/>
<path d="M24.6406 64.5552V63H25.8679V64.5552H24.6406Z" fill="black"/>
<path d="M25.5402 64.5552V63H26.9205V64.5552H25.5402Z" fill="black"/>
<path d="M26.7662 64.5552V63H27.9928V64.5552H26.7662Z" fill="black"/>
<path d="M27.8182 64.5552V63H29.8128V64.5552H27.8182Z" fill="black"/>
<path d="M29.7144 64.5552V63H30.3281V64.5552H29.7144Z" fill="black"/>
<path d="M6.15375 67.5552V66H7.53408V67.5552H6.15375Z" fill="black"/>
<path d="M7.28262 67.5552V66H8.8167V67.5552H7.28262Z" fill="black"/>
<path d="M8.56523 67.5552V66H9.94557V67.5552H8.56523Z" fill="black"/>
<path d="M9.73321 67.5552V66H10.8067V67.5552H9.73321Z" fill="black"/>
<path d="M10.4791 67.5552V66H11.0927V67.5552H10.4791Z" fill="black"/>
<path d="M10.9174 67.5552V66H12.4515V67.5552H10.9174Z" fill="black"/>
<path d="M12.2769 67.5552V66H13.6573V67.5552H12.2769Z" fill="black"/>
<path d="M13.4827 67.5552V66H15.4773V67.5552H13.4827Z" fill="black"/>
<path d="M15.3789 67.5552V66H16.4524V67.5552H15.3789Z" fill="black"/>
<path d="M16.2785 67.5552V66H17.352V67.5552H16.2785Z" fill="black"/>
<path d="M17.1781 67.5552V66H18.5585V67.5552H17.1781Z" fill="black"/>
<path d="M18.307 67.5552V66H19.0737V67.5552H18.307Z" fill="black"/>
<path d="M18.8222 67.5552V66H19.4359V67.5552H18.8222Z" fill="black"/>
<path d="M19.2606 67.5552V66H20.0273V67.5552H19.2606Z" fill="black"/>
<path d="M19.7758 67.5552V66H20.3895V67.5552H19.7758Z" fill="black"/>
<path d="M20.2142 67.5552V66H20.9809V67.5552H20.2142Z" fill="black"/>
<path d="M20.7294 67.5552V66H21.3431V67.5552H20.7294Z" fill="black"/>
<path d="M21.1678 67.5552V66H21.9345V67.5552H21.1678Z" fill="black"/>
<path d="M21.683 67.5552V66H22.2967V67.5552H21.683Z" fill="black"/>
<path d="M22.1214 67.5552V66H23.3487V67.5552H22.1214Z" fill="black"/>
<path d="M23.3271 67.5552V66H24.7075V67.5552H23.3271Z" fill="black"/>
<path d="M24.5329 67.5552V66H25.1465V67.5552H24.5329Z" fill="black"/>
<path d="M24.9712 67.5552V66H26.0448V67.5552H24.9712Z" fill="black"/>
<path d="M25.7171 67.5552V66H27.2512V67.5552H25.7171Z" fill="black"/>
<path d="M27.0766 67.5552V66H28.1501V67.5552H27.0766Z" fill="black"/>
<path d="M27.9762 67.5552V66H29.3565V67.5552H27.9762Z" fill="black"/>
<path d="M29.1442 67.5552V66H29.7578V67.5552H29.1442Z" fill="black"/>
<path d="M6 70.5552V69H7.38034V70.5552H6Z" fill="black"/>
<path d="M7.07223 70.5552V69H8.60631V70.5552H7.07223Z" fill="black"/>
<path d="M8.27797 70.5552V69H9.81206V70.5552H8.27797Z" fill="black"/>
<path d="M9.63746 70.5552V69H11.1715V70.5552H9.63746Z" fill="black"/>
<path d="M10.9201 70.5552V69H12.3004V70.5552H10.9201Z" fill="black"/>
<path d="M11.9923 70.5552V69H13.5264V70.5552H11.9923Z" fill="black"/>
<path d="M13.2749 70.5552V69H14.0416V70.5552H13.2749Z" fill="black"/>
<path d="M13.7902 70.5552V69H14.4038V70.5552H13.7902Z" fill="black"/>
<path d="M14.2285 70.5552V69H15.302V70.5552H14.2285Z" fill="black"/>
<path d="M14.9744 70.5552V69H16.5085V70.5552H14.9744Z" fill="black"/>
<path d="M16.3339 70.5552V69H17.8679V70.5552H16.3339Z" fill="black"/>
<path d="M17.5396 70.5552V69H18.1532V70.5552H17.5396Z" fill="black"/>
<path d="M17.978 70.5552V69H19.0515V70.5552H17.978Z" fill="black"/>
<path d="M18.7238 70.5552V69H20.8715V70.5552H18.7238Z" fill="black"/>
<path d="M20.7738 70.5552V69H22.0004V70.5552H20.7738Z" fill="black"/>
<path d="M21.8258 70.5552V69H22.4395V70.5552H21.8258Z" fill="black"/>
<path d="M22.2642 70.5552V69H23.6445V70.5552H22.2642Z" fill="black"/>
<path d="M23.4322 70.5552V69H24.5057V70.5552H23.4322Z" fill="black"/>
<path d="M24.3318 70.5552V69H25.8659V70.5552H24.3318Z" fill="black"/>
<path d="M25.6144 70.5552V69H27.1485V70.5552H25.6144Z" fill="black"/>
<path d="M26.8201 70.5552V69H28.2005V70.5552H26.8201Z" fill="black"/>
<path d="M27.9881 70.5552V69H28.6017V70.5552H27.9881Z" fill="black"/>
<path d="M6 73.5552V72H7.38034V73.5552H6Z" fill="black"/>
<path d="M7.07223 73.5552V72H8.60631V73.5552H7.07223Z" fill="black"/>
<path d="M8.27797 73.5552V72H9.81206V73.5552H8.27797Z" fill="black"/>
<path d="M9.56059 73.5552V72H10.7879V73.5552H9.56059Z" fill="black"/>
<path d="M10.4602 73.5552V72H11.6875V73.5552H10.4602Z" fill="black"/>
<path d="M11.3598 73.5552V72H12.4333V73.5552H11.3598Z" fill="black"/>
<path d="M12.2594 73.5552V72H13.6397V73.5552H12.2594Z" fill="black"/>
<path d="M13.3316 73.5552V72H15.3263V73.5552H13.3316Z" fill="black"/>
<path d="M15.2279 73.5552V72H16.762V73.5552H15.2279Z" fill="black"/>
<path d="M16.4336 73.5552V72H17.9677V73.5552H16.4336Z" fill="black"/>
<path d="M17.7162 73.5552V72H18.3299V73.5552H17.7162Z" fill="black"/>
<path d="M18.1546 73.5552V72H19.2281V73.5552H18.1546Z" fill="black"/>
<path d="M18.9004 73.5552V72H20.4345V73.5552H18.9004Z" fill="black"/>
<path d="M20.2599 73.5552V72H21.794V73.5552H20.2599Z" fill="black"/>
<path d="M21.5426 73.5552V72H22.6161V73.5552H21.5426Z" fill="black"/>
<path d="M22.2884 73.5552V72H22.902V73.5552H22.2884Z" fill="black"/>
<path d="M22.7268 73.5552V72H23.8003V73.5552H22.7268Z" fill="black"/>
<path d="M23.4726 73.5552V72H25.0067V73.5552H23.4726Z" fill="black"/>
<path d="M24.8321 73.5552V72H26.3662V73.5552H24.8321Z" fill="black"/>
<path d="M26.0379 73.5552V72H27.1114V73.5552H26.0379Z" fill="black"/>
<path d="M26.9375 73.5552V72H28.3178V73.5552H26.9375Z" fill="black"/>
<path d="M28.0097 73.5552V72H28.6233V73.5552H28.0097Z" fill="black"/>
<path d="M6 76.5552V75H7.38034V76.5552H6Z" fill="black"/>
<path d="M7.07223 76.5552V75H8.60631V76.5552H7.07223Z" fill="black"/>
<path d="M8.27797 76.5552V75H9.35149V76.5552H8.27797Z" fill="black"/>
<path d="M9.17757 76.5552V75H10.7117V76.5552H9.17757Z" fill="black"/>
<path d="M10.4602 76.5552V75H11.5337V76.5552H10.4602Z" fill="black"/>
<path d="M11.206 76.5552V75H12.2796V76.5552H11.206Z" fill="black"/>
<path d="M12.2594 76.5552V75H13.486V76.5552H12.2594Z" fill="black"/>
<path d="M13.4651 76.5552V75H14.8455V76.5552H13.4651Z" fill="black"/>
<path d="M14.6709 76.5552V75H16.0512V76.5552H14.6709Z" fill="black"/>
<path d="M15.8389 76.5552V75H16.4525V76.5552H15.8389Z" fill="black"/>
<path d="M16.2772 76.5552V75H17.6576V76.5552H16.2772Z" fill="black"/>
<path d="M17.4452 76.5552V75H18.9793V76.5552H17.4452Z" fill="black"/>
<path d="M18.9584 76.5552V75H20.185V76.5552H18.9584Z" fill="black"/>
<path d="M20.0104 76.5552V75H21.5445V76.5552H20.0104Z" fill="black"/>
<path d="M21.3699 76.5552V75H22.4434V76.5552H21.3699Z" fill="black"/>
<path d="M22.2695 76.5552V75H23.8036V76.5552H22.2695Z" fill="black"/>
<path d="M23.5521 76.5552V75H24.1658V76.5552H23.5521Z" fill="black"/>
<path d="M24.1443 76.5552V75H25.5246V76.5552H24.1443Z" fill="black"/>
<path d="M25.1962 76.5552V75H26.7303V76.5552H25.1962Z" fill="black"/>
<path d="M26.402 76.5552V75H27.0156V76.5552H26.402Z" fill="black"/>
<path d="M6.15375 79.5552V78H7.53408V79.5552H6.15375Z" fill="black"/>
<path d="M7.20574 79.5552V78H8.73983V79.5552H7.20574Z" fill="black"/>
<path d="M8.48836 79.5552V78H9.8687V79.5552H8.48836Z" fill="black"/>
<path d="M9.65634 79.5552V78H11.1904V79.5552H9.65634Z" fill="black"/>
<path d="M10.8621 79.5552V78H12.3962V79.5552H10.8621Z" fill="black"/>
<path d="M12.1447 79.5552V78H12.7583V79.5552H12.1447Z" fill="black"/>
<path d="M12.7368 79.5552V78H13.9634V79.5552H12.7368Z" fill="black"/>
<path d="M13.9426 79.5552V78H15.3229V79.5552H13.9426Z" fill="black"/>
<path d="M15.1483 79.5552V78H15.7619V79.5552H15.1483Z" fill="black"/>
<path d="M15.5867 79.5552V78H16.6602V79.5552H15.5867Z" fill="black"/>
<path d="M16.3325 79.5552V78H17.8666V79.5552H16.3325Z" fill="black"/>
<path d="M17.692 79.5552V78H19.2261V79.5552H17.692Z" fill="black"/>
<path d="M18.8977 79.5552V78H19.5114V79.5552H18.8977Z" fill="black"/>
<path d="M19.4899 79.5552V78H20.8702V79.5552H19.4899Z" fill="black"/>
<path d="M20.6187 79.5552V78H21.9991V79.5552H20.6187Z" fill="black"/>
<path d="M21.691 79.5552V78H22.7645V79.5552H21.691Z" fill="black"/>
<path d="M22.7443 79.5552V78H24.1246V79.5552H22.7443Z" fill="black"/>
<path d="M23.95 79.5552V78H25.3304V79.5552H23.95Z" fill="black"/>
<path d="M25.0789 79.5552V78H26.1524V79.5552H25.0789Z" fill="black"/>
<path d="M26.1323 79.5552V78H27.5126V79.5552H26.1323Z" fill="black"/>
<path d="M27.2611 79.5552V78H28.3347V79.5552H27.2611Z" fill="black"/>
<path d="M28.1607 79.5552V78H29.6948V79.5552H28.1607Z" fill="black"/>
<path d="M29.3665 79.5552V78H30.7468V79.5552H29.3665Z" fill="black"/>
<path d="M30.5345 79.5552V78H31.1481V79.5552H30.5345Z" fill="black"/>
<path d="M6.15375 82.5552V81H7.38034V82.5552H6.15375Z" fill="black"/>
<path d="M7.20574 82.5552V81H8.43301V82.5552H7.20574Z" fill="black"/>
<path d="M8.10534 82.5552V81H8.71898V82.5552H8.10534Z" fill="black"/>
<path d="M8.54371 82.5552V81H9.92405V82.5552H8.54371Z" fill="black"/>
<path d="M9.61594 82.5552V81H11.15V82.5552H9.61594Z" fill="black"/>
<path d="M10.8217 82.5552V81H12.202V82.5552H10.8217Z" fill="black"/>
<path d="M12.1434 82.5552V81H13.5237V82.5552H12.1434Z" fill="black"/>
<path d="M13.2723 82.5552V81H14.8064V82.5552H13.2723Z" fill="black"/>
<path d="M14.478 82.5552V81H15.8584V82.5552H14.478Z" fill="black"/>
<path d="M15.6069 82.5552V81H16.6804V82.5552H15.6069Z" fill="black"/>
<path d="M16.3527 82.5552V81H16.9664V82.5552H16.3527Z" fill="black"/>
<path d="M16.7911 82.5552V81H18.0184V82.5552H16.7911Z" fill="black"/>
<path d="M17.8445 82.5552V81H19.0711V82.5552H17.8445Z" fill="black"/>
<path d="M18.8965 82.5552V81H20.2768V82.5552H18.8965Z" fill="black"/>
<path d="M19.9687 82.5552V81H20.5823V82.5552H19.9687Z" fill="black"/>
<path d="M20.407 82.5552V81H21.9411V82.5552H20.407Z" fill="black"/>
<path d="M21.6128 82.5552V81H23.1469V82.5552H21.6128Z" fill="black"/>
<path d="M22.8954 82.5552V81H24.2757V82.5552H22.8954Z" fill="black"/>
<path d="M24.0243 82.5552V81H25.5584V82.5552H24.0243Z" fill="black"/>
<path d="M25.3838 82.5552V81H25.9974V82.5552H25.3838Z" fill="black"/>
<path d="M6.15375 85.5552V84H7.38034V85.5552H6.15375Z" fill="black"/>
<path d="M7.20574 85.5552V84H8.27927V85.5552H7.20574Z" fill="black"/>
<path d="M7.9516 85.5552V84H9.48568V85.5552H7.9516Z" fill="black"/>
<path d="M9.31109 85.5552V84H10.8452V85.5552H9.31109Z" fill="black"/>
<path d="M10.5168 85.5552V84H11.8972V85.5552H10.5168Z" fill="black"/>
<path d="M11.5891 85.5552V84H12.3558V85.5552H11.5891Z" fill="black"/>
<path d="M12.1812 85.5552V84H13.5615V85.5552H12.1812Z" fill="black"/>
<path d="M13.3491 85.5552V84H13.9628V85.5552H13.3491Z" fill="black"/>
<path d="M13.7875 85.5552V84H15.1679V85.5552H13.7875Z" fill="black"/>
<path d="M15.1092 85.5552V84H16.3358V85.5552H15.1092Z" fill="black"/>
<path d="M16.1612 85.5552V84H17.5416V85.5552H16.1612Z" fill="black"/>
<path d="M17.4439 85.5552V84H18.9779V85.5552H17.4439Z" fill="black"/>
<path d="M18.6496 85.5552V84H20.0299V85.5552H18.6496Z" fill="black"/>
<path d="M19.7218 85.5552V84H21.2559V85.5552H19.7218Z" fill="black"/>
<path d="M20.9276 85.5552V84H22.0011V85.5552H20.9276Z" fill="black"/>
<path d="M21.8272 85.5552V84H23.3613V85.5552H21.8272Z" fill="black"/>
<path d="M23.3404 85.5552V84H24.7207V85.5552H23.3404Z" fill="black"/>
<path d="M24.5461 85.5552V84H25.6197V85.5552H24.5461Z" fill="black"/>
<path d="M25.4457 85.5552V84H26.8261V85.5552H25.4457Z" fill="black"/>
<path d="M26.5746 85.5552V84H27.1883V85.5552H26.5746Z" fill="black"/>
<path d="M27.013 85.5552V84H28.5471V85.5552H27.013Z" fill="black"/>
<path d="M28.4493 85.5552V84H29.8297V85.5552H28.4493Z" fill="black"/>
<path d="M29.6551 85.5552V84H31.1892V85.5552H29.6551Z" fill="black"/>
<path d="M30.9377 85.5552V84H31.5513V85.5552H30.9377Z" fill="black"/>
<path d="M6.15375 88.5552V87H7.53408V88.5552H6.15375Z" fill="black"/>
<path d="M7.51323 88.5552V87H8.73983V88.5552H7.51323Z" fill="black"/>
<path d="M8.71898 88.5552V87H10.0993V88.5552H8.71898Z" fill="black"/>
<path d="M9.92472 88.5552V87H10.6914V88.5552H9.92472Z" fill="black"/>
<path d="M10.5168 88.5552V87H11.5904V88.5552H10.5168Z" fill="black"/>
<path d="M11.5702 88.5552V87H12.9505V88.5552H11.5702Z" fill="black"/>
<path d="M12.7759 88.5552V87H13.8494V88.5552H12.7759Z" fill="black"/>
<path d="M13.5218 88.5552V87H15.0559V88.5552H13.5218Z" fill="black"/>
<path d="M14.7275 88.5552V87H16.1079V88.5552H14.7275Z" fill="black"/>
<path d="M15.7997 88.5552V87H17.027V88.5552H15.7997Z" fill="black"/>
<path d="M16.6993 88.5552V87H18.2334V88.5552H16.6993Z" fill="black"/>
<path d="M17.9051 88.5552V87H19.2854V88.5552H17.9051Z" fill="black"/>
<path d="M18.9773 88.5552V87H20.5114V88.5552H18.9773Z" fill="black"/>
<path d="M20.3368 88.5552V87H21.7171V88.5552H20.3368Z" fill="black"/>
<path d="M21.5426 88.5552V87H22.9229V88.5552H21.5426Z" fill="black"/>
<path d="M22.6714 88.5552V87H24.2055V88.5552H22.6714Z" fill="black"/>
<path d="M23.8772 88.5552V87H24.4908V88.5552H23.8772Z" fill="black"/>
<path d="M24.3155 88.5552V87H25.3891V88.5552H24.3155Z" fill="black"/>
<path d="M25.3689 88.5552V87H26.7492V88.5552H25.3689Z" fill="black"/>
<path d="M26.5746 88.5552V87H27.1883V88.5552H26.5746Z" fill="black"/>
<path d="M27.013 88.5552V87H28.5471V88.5552H27.013Z" fill="black"/>
<path d="M28.2187 88.5552V87H29.7528V88.5552H28.2187Z" fill="black"/>
<path d="M29.5013 88.5552V87H30.8817V88.5552H29.5013Z" fill="black"/>
<path d="M30.6302 88.5552V87H32.1643V88.5552H30.6302Z" fill="black"/>
<path d="M31.9897 88.5552V87H32.6033V88.5552H31.9897Z" fill="black"/>
<path d="M6.15375 91.5552V90H7.38034V91.5552H6.15375Z" fill="black"/>
<path d="M7.20574 91.5552V90H8.27927V91.5552H7.20574Z" fill="black"/>
<path d="M7.9516 91.5552V90H9.48568V91.5552H7.9516Z" fill="black"/>
<path d="M9.31109 91.5552V90H10.8452V91.5552H9.31109Z" fill="black"/>
<path d="M10.5168 91.5552V90H11.8972V91.5552H10.5168Z" fill="black"/>
<path d="M11.5891 91.5552V90H12.3558V91.5552H11.5891Z" fill="black"/>
<path d="M12.1812 91.5552V90H13.5615V91.5552H12.1812Z" fill="black"/>
<path d="M13.3491 91.5552V90H13.9628V91.5552H13.3491Z" fill="black"/>
<path d="M13.7875 91.5552V90H14.861V91.5552H13.7875Z" fill="black"/>
<path d="M14.8409 91.5552V90H16.2212V91.5552H14.8409Z" fill="black"/>
<path d="M16.0466 91.5552V90H17.1201V91.5552H16.0466Z" fill="black"/>
<path d="M16.7925 91.5552V90H18.3265V91.5552H16.7925Z" fill="black"/>
<path d="M17.9982 91.5552V90H19.3785V91.5552H17.9982Z" fill="black"/>
<path d="M19.2242 91.5552V90H20.6045V91.5552H19.2242Z" fill="black"/>
<path d="M20.4299 91.5552V90H21.964V91.5552H20.4299Z" fill="black"/>
<path d="M21.7125 91.5552V90H22.7861V91.5552H21.7125Z" fill="black"/>
<path d="M22.6121 91.5552V90H23.2258V91.5552H22.6121Z" fill="black"/>
<path d="M23.0505 91.5552V90H24.5846V91.5552H23.0505Z" fill="black"/>
<path d="M24.3331 91.5552V90H25.5604V91.5552H24.3331Z" fill="black"/>
<path d="M25.2327 91.5552V90H26.46V91.5552H25.2327Z" fill="black"/>
<path d="M26.1323 91.5552V90H27.6664V91.5552H26.1323Z" fill="black"/>
<path d="M27.4149 91.5552V90H28.4885V91.5552H27.4149Z" fill="black"/>
<path d="M28.3145 91.5552V90H29.6949V91.5552H28.3145Z" fill="black"/>
<path d="M29.3868 91.5552V90H30.7671V91.5552H29.3868Z" fill="black"/>
<path d="M30.5547 91.5552V90H31.3214V91.5552H30.5547Z" fill="black"/>
<path d="M31.07 91.5552V90H31.6836V91.5552H31.07Z" fill="black"/>
<path d="M6 94.5552V93H7.53408V94.5552H6Z" fill="black"/>
<path d="M7.43636 94.5552V93H8.8167V94.5552H7.43636Z" fill="black"/>
<path d="M8.64211 94.5552V93H10.1762V94.5552H8.64211Z" fill="black"/>
<path d="M9.92472 94.5552V93H10.5384V94.5552H9.92472Z" fill="black"/>
<path d="M10.5168 94.5552V93H11.8972V94.5552H10.5168Z" fill="black"/>
<path d="M11.8763 94.5552V93H13.1029V94.5552H11.8763Z" fill="black"/>
<path d="M12.9283 94.5552V93H14.0018V94.5552H12.9283Z" fill="black"/>
<path d="M13.6742 94.5552V93H15.2083V94.5552H13.6742Z" fill="black"/>
<path d="M14.8799 94.5552V93H16.414V94.5552H14.8799Z" fill="black"/>
<path d="M16.1625 94.5552V93H16.7762V94.5552H16.1625Z" fill="black"/>
<path d="M16.6009 94.5552V93H17.6744V94.5552H16.6009Z" fill="black"/>
<path d="M17.3468 94.5552V93H18.8808V94.5552H17.3468Z" fill="black"/>
<path d="M18.7062 94.5552V93H20.2403V94.5552H18.7062Z" fill="black"/>
<path d="M19.912 94.5552V93H20.5256V94.5552H19.912Z" fill="black"/>
<path d="M20.3503 94.5552V93H21.7307V94.5552H20.3503Z" fill="black"/>
<path d="M21.5561 94.5552V93H23.0902V94.5552H21.5561Z" fill="black"/>
<path d="M22.8387 94.5552V93H23.9122V94.5552H22.8387Z" fill="black"/>
<path d="M23.7383 94.5552V93H25.2724V94.5552H23.7383Z" fill="black"/>
<path d="M25.0978 94.5552V93H26.6319V94.5552H25.0978Z" fill="black"/>
<path d="M26.3035 94.5552V93H26.9172V94.5552H26.3035Z" fill="black"/>
<path d="M26.8956 94.5552V93H28.1222V94.5552H26.8956Z" fill="black"/>
<path d="M27.9476 94.5552V93H29.1749V94.5552H27.9476Z" fill="black"/>
<path d="M28.8473 94.5552V93H29.4609V94.5552H28.8473Z" fill="black"/>
<path d="M6 97.5552V96H7.38034V97.5552H6Z" fill="black"/>
<path d="M7.07223 97.5552V96H8.60631V97.5552H7.07223Z" fill="black"/>
<path d="M8.27797 97.5552V96H9.81206V97.5552H8.27797Z" fill="black"/>
<path d="M9.63746 97.5552V96H11.1715V97.5552H9.63746Z" fill="black"/>
<path d="M10.9969 97.5552V96H12.0705V97.5552H10.9969Z" fill="black"/>
<path d="M11.8966 97.5552V96H13.4306V97.5552H11.8966Z" fill="black"/>
<path d="M13.1792 97.5552V96H14.5595V97.5552H13.1792Z" fill="black"/>
<path d="M14.2514 97.5552V96H14.865V97.5552H14.2514Z" fill="black"/>
<path d="M14.6898 97.5552V96H16.2238V97.5552H14.6898Z" fill="black"/>
<path d="M15.9724 97.5552V96H17.0459V97.5552H15.9724Z" fill="black"/>
<path d="M17.0257 97.5552V96H18.4061V97.5552H17.0257Z" fill="black"/>
<path d="M18.1546 97.5552V96H19.2281V97.5552H18.1546Z" fill="black"/>
<path d="M19.2079 97.5552V96H20.4345V97.5552H19.2079Z" fill="black"/>
<path d="M20.2599 97.5552V96H22.2546V97.5552H20.2599Z" fill="black"/>
<path d="M22.1562 97.5552V96H23.6903V97.5552H22.1562Z" fill="black"/>
<path d="M23.4388 97.5552V96H24.5123V97.5552H23.4388Z" fill="black"/>
<path d="M24.1847 97.5552V96H25.2582V97.5552H24.1847Z" fill="black"/>
<path d="M25.0843 97.5552V96H26.4646V97.5552H25.0843Z" fill="black"/>
<path d="M26.2131 97.5552V96H26.8268V97.5552H26.2131Z" fill="black"/>
<path d="M6 100.555V99H7.38034V100.555H6Z" fill="black"/>
<path d="M7.28262 100.555V99H8.50921V100.555H7.28262Z" fill="black"/>
<path d="M8.48836 100.555V99H9.8687V100.555H8.48836Z" fill="black"/>
<path d="M9.6941 100.555V99H10.7676V100.555H9.6941Z" fill="black"/>
<path d="M10.44 100.555V99H11.974V100.555H10.44Z" fill="black"/>
<path d="M11.7226 100.555V99H13.1029V100.555H11.7226Z" fill="black"/>
<path d="M12.8514 100.555V99H13.925V100.555H12.8514Z" fill="black"/>
<path d="M13.5973 100.555V99H14.9776V100.555H13.5973Z" fill="black"/>
<path d="M14.7653 100.555V99H15.532V100.555H14.7653Z" fill="black"/>
<path d="M15.2805 100.555V99H15.8942V100.555H15.2805Z" fill="black"/>
<path d="M15.8726 100.555V99H17.253V100.555H15.8726Z" fill="black"/>
<path d="M16.9246 100.555V99H17.9981V100.555H16.9246Z" fill="black"/>
<path d="M17.8242 100.555V99H18.8977V100.555H17.8242Z" fill="black"/>
<path d="M18.7238 100.555V99H20.2579V100.555H18.7238Z" fill="black"/>
<path d="M20.0064 100.555V99H21.08V100.555H20.0064Z" fill="black"/>
<path d="M20.7523 100.555V99H22.2864V100.555H20.7523Z" fill="black"/>
<path d="M21.958 100.555V99H23.3384V100.555H21.958Z" fill="black"/>
<path d="M22.9925 100.555V99H24.5266V100.555H22.9925Z" fill="black"/>
<path d="M24.2751 100.555V99H25.3486V100.555H24.2751Z" fill="black"/>
<path d="M25.1747 100.555V99H26.2482V100.555H25.1747Z" fill="black"/>
<path d="M26.1512 100.555V99H27.5315V100.555H26.1512Z" fill="black"/>
<path d="M27.2801 100.555V99H27.8937V100.555H27.2801Z" fill="black"/>
<path d="M27.7184 100.555V99H29.2525V100.555H27.7184Z" fill="black"/>
<path d="M29.1548 100.555V99H30.5351V100.555H29.1548Z" fill="black"/>
<path d="M30.3605 100.555V99H31.8946V100.555H30.3605Z" fill="black"/>
<path d="M31.6432 100.555V99H32.2568V100.555H31.6432Z" fill="black"/>
<path d="M6 103.555V102H7.07352V103.555H6Z" fill="black"/>
<path d="M7.05335 103.555V102H8.43369V103.555H7.05335Z" fill="black"/>
<path d="M8.25909 103.555V102H8.87272V103.555H8.25909Z" fill="black"/>
<path d="M8.8512 103.555V102H10.2315V103.555H8.8512Z" fill="black"/>
<path d="M9.9032 103.555V102H11.2835V103.555H9.9032Z" fill="black"/>
<path d="M11.1292 103.555V102H12.3558V103.555H11.1292Z" fill="black"/>
<path d="M12.1812 103.555V102H13.7153V103.555H12.1812Z" fill="black"/>
<path d="M13.4638 103.555V102H14.9979V103.555H13.4638Z" fill="black"/>
<path d="M14.7464 103.555V102H16.2805V103.555H14.7464Z" fill="black"/>
<path d="M15.9521 103.555V102H17.3325V103.555H15.9521Z" fill="black"/>
<path d="M17.0244 103.555V102H17.638V103.555H17.0244Z" fill="black"/>
<path d="M17.4627 103.555V102H18.69V103.555H17.4627Z" fill="black"/>
<path d="M18.5161 103.555V102H19.7427V103.555H18.5161Z" fill="black"/>
<path d="M19.5681 103.555V102H20.9484V103.555H19.5681Z" fill="black"/>
<path d="M20.6025 103.555V102H22.1366V103.555H20.6025Z" fill="black"/>
<path d="M21.8852 103.555V102H22.6519V103.555H21.8852Z" fill="black"/>
<path d="M22.4004 103.555V102H23.1671V103.555H22.4004Z" fill="black"/>
</g>
<rect x="0.5" y="0.5" width="38" height="110.555" stroke="#E5592D"/>
<path d="M11.3333 114.555H2V120.903H11.3333V114.555Z" fill="#E19E55"/>
</svg>
