<svg width="387" height="74" viewBox="0 0 387 74" fill="none" xmlns="http://www.w3.org/2000/svg">
<path d="M9.01573 8.73857V9.20771C9.01573 9.96016 8.91374 10.6355 8.70977 11.2339C8.50579 11.8322 8.21796 12.3421 7.84627 12.7637C7.47458 13.1807 7.03037 13.5003 6.51363 13.7224C6.00142 13.9445 5.43256 14.0555 4.80703 14.0555C4.18604 14.0555 3.61717 13.9445 3.10043 13.7224C2.58823 13.5003 2.14401 13.1807 1.76779 12.7637C1.39157 12.3421 1.0992 11.8322 0.890694 11.2339C0.686719 10.6355 0.584731 9.96016 0.584731 9.20771V8.73857C0.584731 7.98159 0.686719 7.30621 0.890694 6.71241C1.09467 6.11408 1.3825 5.60414 1.75419 5.18259C2.13041 4.76104 2.57463 4.43921 3.08683 4.21711C3.60357 3.995 4.17244 3.88395 4.79343 3.88395C5.41896 3.88395 5.98782 3.995 6.50003 4.21711C7.01677 4.43921 7.46098 4.76104 7.83267 5.18259C8.20889 5.60414 8.49899 6.11408 8.70297 6.71241C8.91148 7.30621 9.01573 7.98159 9.01573 8.73857ZM6.95557 9.20771V8.72497C6.95557 8.19917 6.90798 7.73682 6.81279 7.33794C6.7176 6.93905 6.57709 6.60362 6.39124 6.33166C6.2054 6.05969 5.97876 5.85571 5.71132 5.71973C5.44389 5.57921 5.13792 5.50895 4.79343 5.50895C4.44894 5.50895 4.14297 5.57921 3.87554 5.71973C3.61264 5.85571 3.38826 6.05969 3.20242 6.33166C3.02111 6.60362 2.88286 6.93905 2.78767 7.33794C2.69248 7.73682 2.64489 8.19917 2.64489 8.72497V9.20771C2.64489 9.72899 2.69248 10.1913 2.78767 10.5948C2.88286 10.9936 3.02337 11.3313 3.20922 11.6078C3.39506 11.8798 3.6217 12.086 3.88914 12.2266C4.15657 12.3671 4.46254 12.4373 4.80703 12.4373C5.15152 12.4373 5.45749 12.3671 5.72492 12.2266C5.99236 12.086 6.21673 11.8798 6.39804 11.6078C6.57935 11.3313 6.7176 10.9936 6.81279 10.5948C6.90798 10.1913 6.95557 9.72899 6.95557 9.20771ZM12.8573 13.9196H10.8855V5.91011C10.8855 5.35257 10.9943 4.88343 11.2119 4.50267C11.434 4.11739 11.7445 3.82729 12.1434 3.63238C12.5468 3.43293 13.025 3.33321 13.578 3.33321C13.7593 3.33321 13.9338 3.34681 14.1015 3.37401C14.2692 3.39667 14.4324 3.42613 14.5911 3.4624L14.5707 4.93782C14.4845 4.91516 14.3939 4.89929 14.2987 4.89023C14.2035 4.88116 14.0925 4.87663 13.9655 4.87663C13.7298 4.87663 13.5281 4.91742 13.3604 4.99901C13.1972 5.07607 13.0726 5.19166 12.9865 5.34577C12.9003 5.49989 12.8573 5.688 12.8573 5.91011V13.9196ZM14.3463 6.56283V7.94986H9.79084V6.56283H14.3463ZM17.2632 13.9196H15.305V6.22967C15.305 5.60414 15.4319 5.07607 15.6857 4.64546C15.9396 4.21484 16.3067 3.88848 16.7872 3.66637C17.2677 3.44427 17.8456 3.33321 18.521 3.33321C18.9063 3.33321 19.2802 3.37174 19.6429 3.4488C20.0055 3.52132 20.3794 3.61651 20.7647 3.73436L20.486 5.30498C20.2367 5.22792 19.967 5.1554 19.6769 5.0874C19.3913 5.01941 19.0468 4.98542 18.6434 4.98542C18.1901 4.98542 17.8456 5.09194 17.6099 5.30498C17.3787 5.51349 17.2632 5.82172 17.2632 6.22967V13.9196ZM18.725 6.56283V7.94986H14.2035V6.56283H18.725ZM21.6826 6.56283V13.9196H19.7109V6.56283H21.6826ZM26.3469 12.5257C26.5871 12.5257 26.8002 12.4804 26.986 12.3897C27.1718 12.2945 27.3169 12.1631 27.4211 11.9954C27.5299 11.8231 27.5866 11.6214 27.5911 11.3903H29.4337C29.4292 11.907 29.2909 12.3671 29.019 12.7705C28.747 13.1694 28.3821 13.4844 27.9243 13.7156C27.4665 13.9422 26.9543 14.0555 26.3877 14.0555C25.8165 14.0555 25.3179 13.9604 24.8918 13.77C24.4703 13.5796 24.119 13.3167 23.838 12.9813C23.5569 12.6413 23.3462 12.247 23.2056 11.7982C23.0651 11.3449 22.9949 10.8599 22.9949 10.3432V10.146C22.9949 9.62473 23.0651 9.13972 23.2056 8.69098C23.3462 8.2377 23.5569 7.84334 23.838 7.50792C24.119 7.16796 24.4703 6.90279 24.8918 6.71241C25.3134 6.52203 25.8075 6.42684 26.3741 6.42684C26.9769 6.42684 27.505 6.54243 27.9583 6.7736C28.4161 7.00478 28.7742 7.33567 29.0326 7.76629C29.2955 8.19237 29.4292 8.69778 29.4337 9.28251H27.5911C27.5866 9.03774 27.5345 8.81563 27.4347 8.61619C27.3396 8.41674 27.199 8.25809 27.0132 8.14024C26.8319 8.01786 26.6075 7.95666 26.3401 7.95666C26.0545 7.95666 25.8211 8.01786 25.6398 8.14024C25.4584 8.25809 25.3179 8.42127 25.2182 8.62978C25.1185 8.83376 25.0482 9.0672 25.0074 9.3301C24.9712 9.58847 24.953 9.86044 24.953 10.146V10.3432C24.953 10.6287 24.9712 10.903 25.0074 11.1659C25.0437 11.4288 25.1117 11.6622 25.2114 11.8662C25.3157 12.0702 25.4584 12.2311 25.6398 12.3489C25.8211 12.4668 26.0568 12.5257 26.3469 12.5257ZM32.6361 6.56283V13.9196H30.6712V6.56283H32.6361ZM30.5488 4.64546C30.5488 4.35989 30.6485 4.12418 30.8479 3.93834C31.0474 3.7525 31.3148 3.65957 31.6502 3.65957C31.9811 3.65957 32.2463 3.7525 32.4457 3.93834C32.6497 4.12418 32.7517 4.35989 32.7517 4.64546C32.7517 4.93102 32.6497 5.16673 32.4457 5.35257C32.2463 5.53842 31.9811 5.63134 31.6502 5.63134C31.3148 5.63134 31.0474 5.53842 30.8479 5.35257C30.6485 5.16673 30.5488 4.93102 30.5488 4.64546ZM38.2251 12.2606V8.98334C38.2251 8.74764 38.1865 8.54593 38.1095 8.37821C38.0324 8.20597 37.9123 8.07225 37.7491 7.97706C37.5905 7.88187 37.3842 7.83428 37.1304 7.83428C36.9128 7.83428 36.7247 7.87281 36.5661 7.94986C36.4074 8.02239 36.285 8.12891 36.1989 8.26943C36.1128 8.40541 36.0697 8.56632 36.0697 8.75217H34.1116C34.1116 8.43941 34.1841 8.14251 34.3291 7.86147C34.4742 7.58044 34.6849 7.3334 34.9615 7.12036C35.238 6.90279 35.5666 6.73281 35.9473 6.61042C36.3326 6.48804 36.7632 6.42684 37.2392 6.42684C37.8103 6.42684 38.318 6.52203 38.7622 6.71241C39.2064 6.90279 39.5554 7.18835 39.8093 7.56911C40.0676 7.94986 40.1968 8.42581 40.1968 8.99694V12.145C40.1968 12.5484 40.2218 12.8793 40.2716 13.1376C40.3215 13.3915 40.394 13.6136 40.4892 13.804V13.9196H38.5106C38.4154 13.7201 38.3429 13.4708 38.2931 13.1716C38.2477 12.8679 38.2251 12.5642 38.2251 12.2606ZM38.4834 9.43889L38.497 10.5472H37.4024C37.144 10.5472 36.9196 10.5766 36.7292 10.6355C36.5389 10.6945 36.3825 10.7783 36.2601 10.8871C36.1377 10.9914 36.0471 11.1138 35.9881 11.2543C35.9337 11.3948 35.9065 11.5489 35.9065 11.7166C35.9065 11.8843 35.9451 12.0362 36.0221 12.1722C36.0992 12.3036 36.2102 12.4079 36.3553 12.4849C36.5003 12.5575 36.6703 12.5937 36.8652 12.5937C37.1599 12.5937 37.416 12.5348 37.6335 12.4169C37.8511 12.2991 38.0188 12.154 38.1367 11.9818C38.2591 11.8095 38.3225 11.6464 38.3271 11.4922L38.8438 12.3217C38.7713 12.5076 38.6715 12.7002 38.5446 12.8997C38.4222 13.0991 38.2659 13.2872 38.0755 13.464C37.8851 13.6363 37.6562 13.779 37.3888 13.8924C37.1213 14.0011 36.804 14.0555 36.4369 14.0555C35.97 14.0555 35.5462 13.9626 35.1654 13.7768C34.7892 13.5864 34.49 13.3258 34.2679 12.9949C34.0504 12.6594 33.9416 12.2787 33.9416 11.8526C33.9416 11.4673 34.0141 11.1251 34.1591 10.8259C34.3042 10.5268 34.5172 10.2752 34.7983 10.0712C35.0838 9.8627 35.4397 9.70632 35.8657 9.60207C36.2918 9.49328 36.7859 9.43889 37.348 9.43889H38.4834ZM43.7732 3.476V13.9196H41.8082V3.476H43.7732ZM55.3454 12.3285V13.9196H50.3616V12.3285H55.3454ZM51.0211 4.01993V13.9196H48.9814V4.01993H51.0211ZM59.7785 14.0555C59.2074 14.0555 58.6952 13.9649 58.2419 13.7836C57.7886 13.5977 57.4033 13.3416 57.086 13.0153C56.7733 12.6889 56.533 12.3104 56.3653 11.8798C56.1976 11.4446 56.1137 10.9823 56.1137 10.4928V10.2208C56.1137 9.66326 56.1931 9.15332 56.3517 8.69098C56.5104 8.22863 56.737 7.82748 57.0316 7.48752C57.3308 7.14756 57.6934 6.88692 58.1195 6.70561C58.5456 6.51977 59.0261 6.42684 59.5609 6.42684C60.0822 6.42684 60.5445 6.51297 60.948 6.68521C61.3514 6.85746 61.6891 7.10223 61.961 7.41953C62.2375 7.73682 62.4461 8.11758 62.5866 8.56179C62.7271 9.00147 62.7973 9.49101 62.7973 10.0304V10.8463H56.95V9.54088H60.8732V9.39129C60.8732 9.11933 60.8233 8.87682 60.7236 8.66378C60.6284 8.44621 60.4834 8.27396 60.2884 8.14704C60.0935 8.02012 59.8442 7.95666 59.5405 7.95666C59.2822 7.95666 59.0601 8.01332 58.8742 8.12664C58.6884 8.23996 58.5365 8.39861 58.4187 8.60259C58.3053 8.80656 58.2192 9.0468 58.1603 9.3233C58.1059 9.59527 58.0787 9.89443 58.0787 10.2208V10.4928C58.0787 10.7874 58.1195 11.0594 58.2011 11.3087C58.2872 11.558 58.4073 11.7733 58.5614 11.9546C58.7201 12.1359 58.9105 12.2764 59.1326 12.3761C59.3592 12.4759 59.6153 12.5257 59.9009 12.5257C60.2544 12.5257 60.5831 12.4577 60.8868 12.3217C61.195 12.1812 61.4602 11.9705 61.6823 11.6894L62.6342 12.7229C62.4801 12.945 62.2693 13.158 62.0018 13.362C61.7389 13.566 61.4216 13.7337 61.05 13.8652C60.6783 13.9921 60.2544 14.0555 59.7785 14.0555ZM66.3193 12.4917L67.9511 6.56283H69.9977L67.516 13.9196H66.2785L66.3193 12.4917ZM65.1975 6.56283L66.8361 12.4985L66.8701 13.9196H65.6258L63.1441 6.56283H65.1975ZM74.1656 14.0555C73.5945 14.0555 73.0823 13.9649 72.629 13.7836C72.1757 13.5977 71.7904 13.3416 71.4731 13.0153C71.1604 12.6889 70.9201 12.3104 70.7524 11.8798C70.5847 11.4446 70.5008 10.9823 70.5008 10.4928V10.2208C70.5008 9.66326 70.5802 9.15332 70.7388 8.69098C70.8975 8.22863 71.1241 7.82748 71.4187 7.48752C71.7179 7.14756 72.0805 6.88692 72.5066 6.70561C72.9327 6.51977 73.4132 6.42684 73.948 6.42684C74.4693 6.42684 74.9316 6.51297 75.3351 6.68521C75.7385 6.85746 76.0762 7.10223 76.3481 7.41953C76.6246 7.73682 76.8331 8.11758 76.9737 8.56179C77.1142 9.00147 77.1844 9.49101 77.1844 10.0304V10.8463H71.3371V9.54088H75.2603V9.39129C75.2603 9.11933 75.2104 8.87682 75.1107 8.66378C75.0155 8.44621 74.8704 8.27396 74.6755 8.14704C74.4806 8.02012 74.2313 7.95666 73.9276 7.95666C73.6693 7.95666 73.4471 8.01332 73.2613 8.12664C73.0755 8.23996 72.9236 8.39861 72.8058 8.60259C72.6924 8.80656 72.6063 9.0468 72.5474 9.3233C72.493 9.59527 72.4658 9.89443 72.4658 10.2208V10.4928C72.4658 10.7874 72.5066 11.0594 72.5882 11.3087C72.6743 11.558 72.7944 11.7733 72.9485 11.9546C73.1072 12.1359 73.2976 12.2764 73.5197 12.3761C73.7463 12.4759 74.0024 12.5257 74.288 12.5257C74.6415 12.5257 74.9702 12.4577 75.2739 12.3217C75.5821 12.1812 75.8473 11.9705 76.0694 11.6894L77.0213 12.7229C76.8671 12.945 76.6564 13.158 76.3889 13.362C76.126 13.566 75.8087 13.7337 75.437 13.8652C75.0654 13.9921 74.6415 14.0555 74.1656 14.0555ZM80.3665 3.476V13.9196H78.4015V3.476H80.3665Z" fill="black"/>
<path d="M4.73904 33.3532H2.21654V31.7622H4.73904C5.12886 31.7622 5.44615 31.6987 5.69092 31.5718C5.9357 31.4403 6.11474 31.259 6.22806 31.0279C6.34138 30.7967 6.39804 30.536 6.39804 30.2459C6.39804 29.9513 6.34138 29.6771 6.22806 29.4232C6.11474 29.1694 5.9357 28.9654 5.69092 28.8113C5.44615 28.6572 5.12886 28.5801 4.73904 28.5801H2.92365V36.882H0.883895V26.9823H4.73904C5.51415 26.9823 6.1782 27.1228 6.7312 27.4039C7.28874 27.6804 7.71482 28.0634 8.00945 28.5529C8.30408 29.0425 8.4514 29.6023 8.4514 30.2323C8.4514 30.8715 8.30408 31.4245 8.00945 31.8914C7.71482 32.3582 7.28874 32.7186 6.7312 32.9724C6.1782 33.2263 5.51415 33.3532 4.73904 33.3532Z" fill="black"/>
<path d="M27.725 32.9996H25.0801V31.9321H27.725C28.2372 31.9321 28.652 31.8506 28.9693 31.6874C29.2866 31.5242 29.5178 31.2976 29.6628 31.0075C29.8124 30.7174 29.8872 30.3865 29.8872 30.0148C29.8872 29.6748 29.8124 29.3553 29.6628 29.0561C29.5178 28.7569 29.2866 28.5167 28.9693 28.3354C28.652 28.1495 28.2372 28.0566 27.725 28.0566H25.3861V36.882H24.0739V26.9823H27.725C28.4729 26.9823 29.1053 27.1115 29.622 27.3699C30.1387 27.6283 30.5308 27.9863 30.7983 28.4442C31.0657 28.8974 31.1994 29.4164 31.1994 30.0012C31.1994 30.6358 31.0657 31.1774 30.7983 31.6262C30.5308 32.0749 30.1387 32.4172 29.622 32.6529C29.1053 32.884 28.4729 32.9996 27.725 32.9996ZM33.9259 30.6811V36.882H32.668V29.5252H33.8919L33.9259 30.6811ZM36.224 29.4844L36.2172 30.6539C36.113 30.6312 36.0133 30.6176 35.9181 30.6131C35.8274 30.604 35.7232 30.5995 35.6053 30.5995C35.3152 30.5995 35.0591 30.6448 34.837 30.7355C34.6149 30.8261 34.4268 30.9531 34.2727 31.1162C34.1185 31.2794 33.9962 31.4743 33.9055 31.701C33.8194 31.9231 33.7627 32.1679 33.7355 32.4353L33.382 32.6393C33.382 32.195 33.425 31.778 33.5111 31.3882C33.6018 30.9984 33.7401 30.6539 33.9259 30.3547C34.1117 30.051 34.3474 29.8153 34.633 29.6476C34.9231 29.4754 35.2676 29.3892 35.6665 29.3892C35.7571 29.3892 35.8614 29.4006 35.9793 29.4232C36.0971 29.4414 36.1787 29.4618 36.224 29.4844ZM40.3035 37.0179C39.7913 37.0179 39.3267 36.9318 38.9097 36.7596C38.4972 36.5828 38.1414 36.3358 37.8422 36.0185C37.5476 35.7012 37.321 35.3249 37.1623 34.8898C37.0037 34.4546 36.9243 33.9787 36.9243 33.462V33.1764C36.9243 32.5781 37.0127 32.0455 37.1895 31.5786C37.3663 31.1072 37.6065 30.7083 37.9102 30.3819C38.2139 30.0556 38.5584 29.8085 38.9437 29.6408C39.329 29.4731 39.7279 29.3892 40.1404 29.3892C40.6662 29.3892 41.1194 29.4799 41.5002 29.6612C41.8855 29.8425 42.2005 30.0964 42.4453 30.4227C42.6901 30.7446 42.8714 31.1253 42.9892 31.565C43.1071 32.0001 43.166 32.4761 43.166 32.9928V33.5572H37.6723V32.5305H41.9082V32.4353C41.89 32.1089 41.822 31.7916 41.7042 31.4834C41.5909 31.1752 41.4095 30.9213 41.1602 30.7219C40.9109 30.5224 40.571 30.4227 40.1404 30.4227C39.8548 30.4227 39.5919 30.4839 39.3517 30.6063C39.1114 30.7242 38.9052 30.9009 38.7329 31.1366C38.5607 31.3723 38.427 31.6602 38.3318 32.0001C38.2366 32.3401 38.189 32.7322 38.189 33.1764V33.462C38.189 33.811 38.2366 34.1396 38.3318 34.4478C38.4315 34.7515 38.5743 35.019 38.7601 35.2502C38.9505 35.4813 39.1794 35.6626 39.4468 35.7941C39.7188 35.9255 40.027 35.9913 40.3715 35.9913C40.8157 35.9913 41.192 35.9006 41.5002 35.7193C41.8084 35.538 42.0781 35.2955 42.3093 34.9918L43.0708 35.5969C42.9122 35.8371 42.7105 36.0661 42.4657 36.2836C42.2209 36.5012 41.9195 36.678 41.5614 36.814C41.2078 36.9499 40.7886 37.0179 40.3035 37.0179ZM48.9181 34.9306C48.9181 34.7493 48.8773 34.5816 48.7957 34.4274C48.7187 34.2688 48.5578 34.126 48.313 33.9991C48.0728 33.8676 47.7101 33.7543 47.2251 33.6591C46.8172 33.573 46.4477 33.471 46.1169 33.3532C45.7905 33.2353 45.5117 33.0925 45.2806 32.9248C45.0539 32.7571 44.8794 32.5599 44.757 32.3333C44.6346 32.1067 44.5734 31.8415 44.5734 31.5378C44.5734 31.2477 44.6369 30.9735 44.7638 30.7151C44.8953 30.4567 45.0788 30.2278 45.3145 30.0284C45.5548 29.8289 45.8426 29.6725 46.178 29.5592C46.5135 29.4459 46.8874 29.3892 47.2999 29.3892C47.8892 29.3892 48.3923 29.4935 48.8093 29.702C49.2263 29.9105 49.5459 30.1893 49.768 30.5383C49.9901 30.8828 50.1012 31.2658 50.1012 31.6874H48.8433C48.8433 31.4834 48.7821 31.2862 48.6598 31.0958C48.5419 30.9009 48.3674 30.74 48.1362 30.6131C47.9096 30.4862 47.6308 30.4227 47.2999 30.4227C46.9509 30.4227 46.6676 30.4771 46.45 30.5859C46.237 30.6902 46.0806 30.8239 45.9809 30.9871C45.8857 31.1502 45.8381 31.3225 45.8381 31.5038C45.8381 31.6398 45.8607 31.7622 45.9061 31.871C45.9559 31.9752 46.0421 32.0727 46.1644 32.1633C46.2868 32.2494 46.4591 32.331 46.6812 32.4081C46.9033 32.4851 47.1866 32.5622 47.5311 32.6393C48.1339 32.7752 48.6303 32.9384 49.0201 33.1288C49.4099 33.3192 49.7 33.5526 49.8904 33.8291C50.0808 34.1056 50.176 34.441 50.176 34.8354C50.176 35.1572 50.108 35.4519 49.972 35.7193C49.8405 35.9867 49.6479 36.2179 49.3941 36.4128C49.1448 36.6032 48.8456 36.7528 48.4966 36.8616C48.1521 36.9658 47.7645 37.0179 47.3339 37.0179C46.6857 37.0179 46.1372 36.9024 45.6885 36.6712C45.2398 36.44 44.8998 36.1408 44.6686 35.7737C44.4375 35.4065 44.3219 35.019 44.3219 34.611H45.5865C45.6046 34.9555 45.7044 35.2298 45.8857 35.4337C46.067 35.6332 46.2891 35.776 46.552 35.8621C46.8149 35.9437 47.0755 35.9845 47.3339 35.9845C47.6784 35.9845 47.9662 35.9391 48.1974 35.8485C48.4331 35.7578 48.6122 35.6332 48.7345 35.4745C48.8569 35.3159 48.9181 35.1346 48.9181 34.9306ZM53.1948 29.5252V36.882H51.9302V29.5252H53.1948ZM51.835 27.5739C51.835 27.3699 51.8962 27.1976 52.0186 27.0571C52.1455 26.9166 52.3313 26.8463 52.5761 26.8463C52.8163 26.8463 52.9999 26.9166 53.1268 27.0571C53.2583 27.1976 53.324 27.3699 53.324 27.5739C53.324 27.7688 53.2583 27.9365 53.1268 28.077C52.9999 28.213 52.8163 28.281 52.5761 28.281C52.3313 28.281 52.1455 28.213 52.0186 28.077C51.8962 27.9365 51.835 27.7688 51.835 27.5739ZM59.8512 35.4541V26.4384H61.1159V36.882H59.96L59.8512 35.4541ZM54.9014 33.2852V33.1424C54.9014 32.5803 54.9694 32.0704 55.1054 31.6126C55.2459 31.1502 55.4431 30.7536 55.6969 30.4227C55.9553 30.0918 56.2612 29.838 56.6148 29.6612C56.9729 29.4799 57.3718 29.3892 57.8115 29.3892C58.2738 29.3892 58.6772 29.4708 59.0217 29.634C59.3707 29.7927 59.6654 30.0261 59.9056 30.3343C60.1504 30.638 60.343 31.0052 60.4835 31.4358C60.6241 31.8664 60.7215 32.3537 60.7759 32.8976V33.5232C60.7261 34.0626 60.6286 34.5476 60.4835 34.9782C60.343 35.4088 60.1504 35.776 59.9056 36.0797C59.6654 36.3834 59.3707 36.6168 59.0217 36.78C58.6727 36.9386 58.2647 37.0179 57.7979 37.0179C57.3672 37.0179 56.9729 36.925 56.6148 36.7392C56.2612 36.5533 55.9553 36.2927 55.6969 35.9573C55.4431 35.6218 55.2459 35.2275 55.1054 34.7742C54.9694 34.3164 54.9014 33.8201 54.9014 33.2852ZM56.1661 33.1424V33.2852C56.1661 33.6523 56.2023 33.9968 56.2748 34.3187C56.3519 34.6405 56.4698 34.9238 56.6284 35.1686C56.7871 35.4133 56.9888 35.606 57.2335 35.7465C57.4783 35.8825 57.7707 35.9505 58.1106 35.9505C58.5276 35.9505 58.8699 35.8621 59.1373 35.6853C59.4093 35.5085 59.6268 35.2751 59.79 34.985C59.9532 34.6949 60.0801 34.3799 60.1708 34.0399V32.4013C60.1164 32.152 60.0371 31.9117 59.9328 31.6806C59.8331 31.4449 59.7016 31.2364 59.5385 31.055C59.3798 30.8692 59.1826 30.7219 58.9469 30.6131C58.7158 30.5043 58.4415 30.4499 58.1242 30.4499C57.7797 30.4499 57.4828 30.5224 57.2335 30.6675C56.9888 30.808 56.7871 31.0029 56.6284 31.2522C56.4698 31.497 56.3519 31.7826 56.2748 32.1089C56.2023 32.4308 56.1661 32.7752 56.1661 33.1424ZM66.1269 37.0179C65.6147 37.0179 65.1501 36.9318 64.733 36.7596C64.3206 36.5828 63.9647 36.3358 63.6656 36.0185C63.3709 35.7012 63.1443 35.3249 62.9856 34.8898C62.827 34.4546 62.7477 33.9787 62.7477 33.462V33.1764C62.7477 32.5781 62.8361 32.0455 63.0128 31.5786C63.1896 31.1072 63.4299 30.7083 63.7336 30.3819C64.0373 30.0556 64.3818 29.8085 64.767 29.6408C65.1523 29.4731 65.5512 29.3892 65.9637 29.3892C66.4895 29.3892 66.9428 29.4799 67.3235 29.6612C67.7088 29.8425 68.0239 30.0964 68.2686 30.4227C68.5134 30.7446 68.6947 31.1253 68.8126 31.565C68.9304 32.0001 68.9893 32.4761 68.9893 32.9928V33.5572H63.4956V32.5305H67.7315V32.4353C67.7134 32.1089 67.6454 31.7916 67.5275 31.4834C67.4142 31.1752 67.2329 30.9213 66.9836 30.7219C66.7343 30.5224 66.3943 30.4227 65.9637 30.4227C65.6781 30.4227 65.4152 30.4839 65.175 30.6063C64.9348 30.7242 64.7285 30.9009 64.5563 31.1366C64.384 31.3723 64.2503 31.6602 64.1551 32.0001C64.0599 32.3401 64.0123 32.7322 64.0123 33.1764V33.462C64.0123 33.811 64.0599 34.1396 64.1551 34.4478C64.2548 34.7515 64.3976 35.019 64.5835 35.2502C64.7738 35.4813 65.0027 35.6626 65.2702 35.7941C65.5421 35.9255 65.8504 35.9913 66.1949 35.9913C66.6391 35.9913 67.0153 35.9006 67.3235 35.7193C67.6318 35.538 67.9015 35.2955 68.1326 34.9918L68.8941 35.5969C68.7355 35.8371 68.5338 36.0661 68.289 36.2836C68.0442 36.5012 67.7428 36.678 67.3847 36.814C67.0312 36.9499 66.6119 37.0179 66.1269 37.0179ZM71.7158 31.0958V36.882H70.458V29.5252H71.6478L71.7158 31.0958ZM71.4166 32.9248L70.8931 32.9044C70.8976 32.4013 70.9724 31.9367 71.1175 31.5106C71.2625 31.08 71.4665 30.706 71.7294 30.3887C71.9923 30.0714 72.3051 29.8267 72.6677 29.6544C73.0349 29.4776 73.4405 29.3892 73.8848 29.3892C74.2474 29.3892 74.5737 29.4391 74.8638 29.5388C75.1539 29.634 75.401 29.7881 75.605 30.0012C75.8135 30.2142 75.9721 30.4907 76.0809 30.8307C76.1897 31.1661 76.2441 31.5763 76.2441 32.0613V36.882H74.9794V32.0477C74.9794 31.6624 74.9228 31.3542 74.8094 31.123C74.6961 30.8873 74.5307 30.7174 74.3131 30.6131C74.0955 30.5043 73.8281 30.4499 73.5108 30.4499C73.198 30.4499 72.9125 30.5156 72.6541 30.6471C72.4003 30.7785 72.1804 30.9599 71.9946 31.191C71.8133 31.4222 71.6705 31.6874 71.5662 31.9865C71.4665 32.2812 71.4166 32.5939 71.4166 32.9248ZM81.2347 29.5252V30.4907H77.2572V29.5252H81.2347ZM78.6034 27.737H79.8612V35.0598C79.8612 35.3091 79.8998 35.4972 79.9768 35.6241C80.0539 35.751 80.1536 35.8349 80.276 35.8757C80.3984 35.9165 80.5298 35.9369 80.6704 35.9369C80.7746 35.9369 80.8834 35.9278 80.9967 35.9097C81.1146 35.887 81.203 35.8689 81.2619 35.8553L81.2687 36.882C81.169 36.9137 81.0375 36.9432 80.8743 36.9703C80.7157 37.0021 80.523 37.0179 80.2964 37.0179C79.9882 37.0179 79.7049 36.9567 79.4465 36.8344C79.1881 36.712 78.9819 36.508 78.8278 36.2224C78.6782 35.9323 78.6034 35.5425 78.6034 35.053V27.737ZM84.0767 29.5252V36.882H82.8121V29.5252H84.0767ZM82.7169 27.5739C82.7169 27.3699 82.7781 27.1976 82.9005 27.0571C83.0274 26.9166 83.2132 26.8463 83.458 26.8463C83.6983 26.8463 83.8818 26.9166 84.0088 27.0571C84.1402 27.1976 84.2059 27.3699 84.2059 27.5739C84.2059 27.7688 84.1402 27.9365 84.0088 28.077C83.8818 28.213 83.6983 28.281 83.458 28.281C83.2132 28.281 83.0274 28.213 82.9005 28.077C82.7781 27.9365 82.7169 27.7688 82.7169 27.5739ZM90.434 35.6241V31.837C90.434 31.5469 90.3751 31.2953 90.2572 31.0822C90.1439 30.8647 89.9716 30.697 89.7405 30.5791C89.5093 30.4613 89.2237 30.4023 88.8838 30.4023C88.5665 30.4023 88.2877 30.4567 88.0475 30.5655C87.8118 30.6743 87.6259 30.8171 87.4899 30.9939C87.3585 31.1706 87.2928 31.361 87.2928 31.565H86.0349C86.0349 31.3021 86.1029 31.0415 86.2389 30.7831C86.3749 30.5247 86.5698 30.2913 86.8236 30.0828C87.082 29.8697 87.3902 29.702 87.7483 29.5796C88.1109 29.4527 88.5144 29.3892 88.9586 29.3892C89.4934 29.3892 89.9648 29.4799 90.3728 29.6612C90.7853 29.8425 91.1071 30.1168 91.3383 30.4839C91.574 30.8465 91.6918 31.3021 91.6918 31.8506V35.2773C91.6918 35.5221 91.7122 35.7828 91.753 36.0593C91.7984 36.3358 91.8641 36.5737 91.9502 36.7732V36.882H90.638C90.5745 36.7369 90.5246 36.5443 90.4884 36.304C90.4521 36.0593 90.434 35.8326 90.434 35.6241ZM90.6516 32.4217L90.6652 33.3056H89.3937C89.0356 33.3056 88.7161 33.335 88.435 33.394C88.154 33.4484 87.9183 33.5322 87.7279 33.6455C87.5375 33.7589 87.3925 33.9016 87.2928 34.0739C87.193 34.2416 87.1432 34.4388 87.1432 34.6654C87.1432 34.8966 87.1953 35.1074 87.2996 35.2977C87.4038 35.4881 87.5602 35.64 87.7687 35.7533C87.9817 35.8621 88.2424 35.9165 88.5506 35.9165C88.9359 35.9165 89.2759 35.8349 89.5705 35.6717C89.8651 35.5085 90.0986 35.3091 90.2708 35.0734C90.4476 34.8377 90.5428 34.6088 90.5564 34.3867L91.0935 34.9918C91.0618 35.1822 90.9757 35.3929 90.8351 35.6241C90.6946 35.8553 90.5065 36.0774 90.2708 36.2904C90.0396 36.4989 89.7631 36.6734 89.4413 36.814C89.124 36.9499 88.7659 37.0179 88.367 37.0179C87.8684 37.0179 87.431 36.9205 87.0548 36.7256C86.6831 36.5307 86.393 36.27 86.1845 35.9437C85.9805 35.6128 85.8785 35.2434 85.8785 34.8354C85.8785 34.441 85.9556 34.0943 86.1097 33.7951C86.2638 33.4914 86.4859 33.2399 86.776 33.0404C87.0661 32.8364 87.4152 32.6823 87.8231 32.5781C88.2311 32.4738 88.6866 32.4217 89.1897 32.4217H90.6516ZM95.037 26.4384V36.882H93.7724V26.4384H95.037Z" fill="black"/>
<path d="M6.62241 56.5604H8.65537C8.61458 57.2267 8.431 57.8182 8.10464 58.3349C7.78281 58.8517 7.3318 59.2551 6.7516 59.5452C6.17593 59.8353 5.48242 59.9803 4.67105 59.9803C4.03645 59.9803 3.46759 59.8716 2.96445 59.654C2.46131 59.4319 2.03069 59.1146 1.6726 58.7021C1.31904 58.2896 1.04934 57.791 0.863498 57.2063C0.677653 56.6215 0.584731 55.9666 0.584731 55.2413V54.5546C0.584731 53.8293 0.679919 53.1744 0.870297 52.5896C1.06521 52.0004 1.34171 51.4995 1.6998 51.087C2.06242 50.6745 2.4953 50.3572 2.99844 50.1351C3.50158 49.913 4.06365 49.802 4.68464 49.802C5.50961 49.802 6.2054 49.9515 6.772 50.2507C7.34313 50.5499 7.78508 50.9623 8.09784 51.4882C8.41513 52.014 8.60551 52.6123 8.66897 53.2831H6.62921C6.60655 52.8843 6.52723 52.5466 6.39124 52.2701C6.25526 51.989 6.04902 51.7783 5.77251 51.6377C5.50055 51.4927 5.13792 51.4202 4.68464 51.4202C4.34468 51.4202 4.04779 51.4836 3.79395 51.6105C3.54011 51.7375 3.32707 51.9301 3.15483 52.1885C2.98258 52.4468 2.85339 52.7732 2.76727 53.1676C2.68568 53.5574 2.64489 54.0152 2.64489 54.541V55.2413C2.64489 55.7535 2.68341 56.2045 2.76047 56.5943C2.83753 56.9796 2.95538 57.306 3.11403 57.5734C3.27721 57.8363 3.48572 58.0358 3.73956 58.1718C3.99793 58.3032 4.30842 58.3689 4.67105 58.3689C5.09713 58.3689 5.44842 58.3009 5.72492 58.165C6.00142 58.029 6.2122 57.8273 6.35725 57.5598C6.50683 57.2924 6.59522 56.9592 6.62241 56.5604Z" fill="black"/>
<path d="M31.0504 56.6963H32.3558C32.2878 57.3219 32.1088 57.8817 31.8187 58.3757C31.5286 58.8698 31.1184 59.2619 30.588 59.552C30.0577 59.8376 29.3959 59.9803 28.6026 59.9803C28.0225 59.9803 27.4944 59.8716 27.0184 59.654C26.547 59.4364 26.1413 59.1282 25.8014 58.7293C25.4614 58.3259 25.1985 57.8431 25.0127 57.2811C24.8314 56.7145 24.7407 56.0844 24.7407 55.3909V54.405C24.7407 53.7115 24.8314 53.0837 25.0127 52.5216C25.1985 51.955 25.4637 51.47 25.8082 51.0666C26.1572 50.6632 26.5765 50.3527 27.066 50.1351C27.5556 49.9175 28.1063 49.8088 28.7182 49.8088C29.4661 49.8088 30.0985 49.9493 30.6152 50.2303C31.1319 50.5113 31.5331 50.9012 31.8187 51.3998C32.1088 51.8938 32.2878 52.4672 32.3558 53.12H31.0504C30.9869 52.6576 30.869 52.261 30.6968 51.9301C30.5246 51.5947 30.2798 51.3363 29.9625 51.155C29.6452 50.9737 29.2304 50.883 28.7182 50.883C28.2786 50.883 27.891 50.9669 27.5556 51.1346C27.2247 51.3023 26.9459 51.5403 26.7193 51.8485C26.4972 52.1567 26.3295 52.5262 26.2161 52.9568C26.1028 53.3874 26.0462 53.8656 26.0462 54.3914V55.3909C26.0462 55.8759 26.096 56.3314 26.1957 56.7575C26.3 57.1836 26.4564 57.5576 26.6649 57.8794C26.8734 58.2012 27.1386 58.4551 27.4604 58.6409C27.7822 58.8222 28.163 58.9129 28.6026 58.9129C29.1602 58.9129 29.6044 58.8245 29.9353 58.6477C30.2662 58.4709 30.5155 58.2171 30.6832 57.8862C30.8554 57.5553 30.9778 57.1587 31.0504 56.6963ZM38.2915 58.5865V54.7994C38.2915 54.5093 38.2326 54.2577 38.1147 54.0446C38.0014 53.8271 37.8292 53.6594 37.598 53.5415C37.3668 53.4237 37.0812 53.3647 36.7413 53.3647C36.424 53.3647 36.1452 53.4191 35.905 53.5279C35.6693 53.6367 35.4834 53.7795 35.3474 53.9563C35.216 54.133 35.1503 54.3234 35.1503 54.5274H33.8924C33.8924 54.2645 33.9604 54.0039 34.0964 53.7455C34.2324 53.4871 34.4273 53.2537 34.6811 53.0452C34.9395 52.8321 35.2477 52.6644 35.6058 52.542C35.9684 52.4151 36.3719 52.3516 36.8161 52.3516C37.3509 52.3516 37.8224 52.4423 38.2303 52.6236C38.6428 52.8049 38.9646 53.0792 39.1958 53.4463C39.4315 53.8089 39.5494 54.2645 39.5494 54.813V58.2398C39.5494 58.4845 39.5697 58.7452 39.6105 59.0217C39.6559 59.2982 39.7216 59.5361 39.8077 59.7356V59.8444H38.4955C38.432 59.6993 38.3822 59.5067 38.3459 59.2664C38.3096 59.0217 38.2915 58.795 38.2915 58.5865ZM38.5091 55.3841L38.5227 56.268H37.2512C36.8931 56.268 36.5736 56.2974 36.2925 56.3564C36.0115 56.4108 35.7758 56.4946 35.5854 56.6079C35.395 56.7213 35.25 56.864 35.1503 57.0363C35.0506 57.204 35.0007 57.4012 35.0007 57.6278C35.0007 57.859 35.0528 58.0698 35.1571 58.2601C35.2613 58.4505 35.4177 58.6024 35.6262 58.7157C35.8393 58.8245 36.0999 58.8789 36.4081 58.8789C36.7934 58.8789 37.1334 58.7973 37.428 58.6341C37.7226 58.4709 37.9561 58.2715 38.1283 58.0358C38.3051 57.8001 38.4003 57.5712 38.4139 57.3491L38.951 57.9542C38.9193 58.1446 38.8332 58.3553 38.6927 58.5865C38.5521 58.8177 38.364 59.0398 38.1283 59.2528C37.8971 59.4613 37.6206 59.6359 37.2988 59.7764C36.9815 59.9124 36.6234 59.9803 36.2245 59.9803C35.7259 59.9803 35.2885 59.8829 34.9123 59.688C34.5406 59.4931 34.2505 59.2324 34.042 58.9061C33.838 58.5752 33.736 58.2058 33.736 57.7978C33.736 57.4035 33.8131 57.0567 33.9672 56.7575C34.1213 56.4538 34.3434 56.2023 34.6335 56.0028C34.9236 55.7988 35.2727 55.6447 35.6806 55.5405C36.0886 55.4362 36.5441 55.3841 37.0472 55.3841H38.5091ZM41.5211 49.4008H42.7858V58.4165L42.677 59.8444H41.5211V49.4008ZM47.756 56.1048V56.2476C47.756 56.7825 47.6925 57.2788 47.5656 57.7366C47.4387 58.1899 47.2528 58.5842 47.0081 58.9197C46.7633 59.2551 46.4641 59.5157 46.1106 59.7016C45.757 59.8874 45.3513 59.9803 44.8935 59.9803C44.4266 59.9803 44.0164 59.901 43.6629 59.7424C43.3138 59.5792 43.0192 59.3458 42.779 59.0421C42.5387 58.7384 42.3461 58.3712 42.201 57.9406C42.0605 57.51 41.9631 57.025 41.9087 56.4856V55.86C41.9631 55.3161 42.0605 54.8288 42.201 54.3982C42.3461 53.9676 42.5387 53.6004 42.779 53.2967C43.0192 52.9885 43.3138 52.7551 43.6629 52.5964C44.0119 52.4332 44.4176 52.3516 44.8799 52.3516C45.3423 52.3516 45.7525 52.4423 46.1106 52.6236C46.4687 52.8004 46.7678 53.0542 47.0081 53.3851C47.2528 53.716 47.4387 54.1126 47.5656 54.575C47.6925 55.0328 47.756 55.5427 47.756 56.1048ZM46.4913 56.2476V56.1048C46.4913 55.7376 46.4573 55.3932 46.3893 55.0713C46.3213 54.745 46.2126 54.4594 46.063 54.2146C45.9134 53.9653 45.7162 53.7704 45.4714 53.6299C45.2267 53.4848 44.9252 53.4123 44.5672 53.4123C44.2499 53.4123 43.9734 53.4667 43.7377 53.5755C43.5065 53.6843 43.3093 53.8316 43.1461 54.0175C42.9829 54.1988 42.8492 54.4073 42.745 54.643C42.6452 54.8742 42.5705 55.1144 42.5206 55.3637V57.0023C42.5931 57.3196 42.711 57.6256 42.8742 57.9202C43.0419 58.2103 43.264 58.4483 43.5405 58.6341C43.8215 58.8199 44.1683 58.9129 44.5808 58.9129C44.9207 58.9129 45.2108 58.8449 45.451 58.7089C45.6958 58.5684 45.893 58.3757 46.0426 58.131C46.1967 57.8862 46.31 57.6029 46.3825 57.2811C46.4551 56.9592 46.4913 56.6147 46.4913 56.2476ZM50.7136 52.4876V59.8444H49.449V52.4876H50.7136ZM49.3538 50.5363C49.3538 50.3323 49.415 50.16 49.5374 50.0195C49.6643 49.879 49.8501 49.8088 50.0949 49.8088C50.3351 49.8088 50.5187 49.879 50.6456 50.0195C50.7771 50.16 50.8428 50.3323 50.8428 50.5363C50.8428 50.7312 50.7771 50.8989 50.6456 51.0394C50.5187 51.1754 50.3351 51.2434 50.0949 51.2434C49.8501 51.2434 49.6643 51.1754 49.5374 51.0394C49.415 50.8989 49.3538 50.7312 49.3538 50.5363ZM53.9908 54.0582V59.8444H52.733V52.4876H53.9228L53.9908 54.0582ZM53.6917 55.8872L53.1681 55.8668C53.1727 55.3637 53.2475 54.8991 53.3925 54.473C53.5376 54.0424 53.7415 53.6684 54.0044 53.3511C54.2673 53.0338 54.5801 52.7891 54.9427 52.6168C55.3099 52.44 55.7156 52.3516 56.1598 52.3516C56.5224 52.3516 56.8488 52.4015 57.1389 52.5012C57.429 52.5964 57.676 52.7505 57.88 52.9636C58.0885 53.1766 58.2471 53.4531 58.3559 53.7931C58.4647 54.1285 58.5191 54.5387 58.5191 55.0237V59.8444H57.2544V55.0101C57.2544 54.6248 57.1978 54.3166 57.0845 54.0854C56.9711 53.8497 56.8057 53.6798 56.5881 53.5755C56.3706 53.4667 56.1031 53.4123 55.7858 53.4123C55.4731 53.4123 55.1875 53.478 54.9291 53.6095C54.6753 53.741 54.4554 53.9223 54.2696 54.1534C54.0883 54.3846 53.9455 54.6498 53.8413 54.9489C53.7415 55.2436 53.6917 55.5563 53.6917 55.8872ZM63.4825 59.9803C62.9703 59.9803 62.5057 59.8942 62.0887 59.722C61.6762 59.5452 61.3204 59.2982 61.0212 58.9809C60.7266 58.6636 60.4999 58.2873 60.3413 57.8522C60.1826 57.417 60.1033 56.9411 60.1033 56.4244V56.1388C60.1033 55.5405 60.1917 55.0079 60.3685 54.541C60.5453 54.0696 60.7855 53.6707 61.0892 53.3443C61.3929 53.018 61.7374 52.7709 62.1227 52.6032C62.508 52.4355 62.9068 52.3516 63.3193 52.3516C63.8451 52.3516 64.2984 52.4423 64.6792 52.6236C65.0645 52.8049 65.3795 53.0588 65.6243 53.3851C65.869 53.707 66.0503 54.0877 66.1682 54.5274C66.286 54.9625 66.345 55.4385 66.345 55.9552V56.5196H60.8512V55.4929H65.0871V55.3977C65.069 55.0713 65.001 54.754 64.8831 54.4458C64.7698 54.1376 64.5885 53.8837 64.3392 53.6843C64.0899 53.4848 63.7499 53.3851 63.3193 53.3851C63.0338 53.3851 62.7709 53.4463 62.5306 53.5687C62.2904 53.6866 62.0841 53.8633 61.9119 54.099C61.7396 54.3347 61.6059 54.6226 61.5107 54.9625C61.4156 55.3025 61.368 55.6946 61.368 56.1388V56.4244C61.368 56.7734 61.4156 57.102 61.5107 57.4102C61.6105 57.7139 61.7532 57.9814 61.9391 58.2126C62.1295 58.4437 62.3584 58.625 62.6258 58.7565C62.8978 58.8879 63.206 58.9537 63.5505 58.9537C63.9947 58.9537 64.3709 58.863 64.6792 58.6817C64.9874 58.5004 65.2571 58.2579 65.4883 57.9542L66.2498 58.5593C66.0911 58.7996 65.8894 59.0285 65.6447 59.246C65.3999 59.4636 65.0985 59.6404 64.7404 59.7764C64.3868 59.9124 63.9675 59.9803 63.4825 59.9803ZM70.8936 52.4876V53.4531H66.9161V52.4876H70.8936ZM68.2623 50.6994H69.5202V58.0222C69.5202 58.2715 69.5587 58.4596 69.6358 58.5865C69.7128 58.7134 69.8126 58.7973 69.9349 58.8381C70.0573 58.8789 70.1888 58.8993 70.3293 58.8993C70.4336 58.8993 70.5423 58.8902 70.6557 58.8721C70.7735 58.8494 70.8619 58.8313 70.9208 58.8177L70.9276 59.8444C70.8279 59.8761 70.6965 59.9056 70.5333 59.9327C70.3746 59.9645 70.182 59.9803 69.9553 59.9803C69.6471 59.9803 69.3638 59.9192 69.1054 59.7968C68.8471 59.6744 68.6408 59.4704 68.4867 59.1848C68.3371 58.8947 68.2623 58.5049 68.2623 58.0154V50.6994Z" fill="black"/>
<rect x="130.344" y="0.919556" width="29.9382" height="18.7903" fill="#364B60"/>
<path d="M175.25 13.9196H173.183L173.197 12.8521H175.25C175.957 12.8521 176.547 12.7048 177.018 12.4101C177.49 12.111 177.843 11.694 178.079 11.1591C178.319 10.6197 178.439 9.98962 178.439 9.26891V8.66378C178.439 8.09718 178.371 7.59404 178.235 7.15436C178.099 6.71014 177.9 6.33619 177.637 6.03249C177.374 5.72426 177.052 5.49082 176.671 5.33217C176.295 5.17353 175.862 5.0942 175.373 5.0942H173.143V4.01993H175.373C176.021 4.01993 176.612 4.12872 177.147 4.34629C177.682 4.55933 178.142 4.86983 178.528 5.27778C178.917 5.6812 179.217 6.17074 179.425 6.74641C179.634 7.31754 179.738 7.9612 179.738 8.67738V9.26891C179.738 9.98509 179.634 10.631 179.425 11.2067C179.217 11.7778 178.915 12.2651 178.521 12.6685C178.131 13.0719 177.659 13.3824 177.106 13.6C176.558 13.813 175.939 13.9196 175.25 13.9196ZM173.884 4.01993V13.9196H172.571V4.01993H173.884ZM185.361 10.0372H182.716V8.96974H185.361C185.873 8.96974 186.288 8.88815 186.605 8.72497C186.922 8.56179 187.153 8.33515 187.298 8.04505C187.448 7.75495 187.523 7.42406 187.523 7.05237C187.523 6.71241 187.448 6.39285 187.298 6.09368C187.153 5.79452 186.922 5.55428 186.605 5.37297C186.288 5.18713 185.873 5.0942 185.361 5.0942H183.022V13.9196H181.71V4.01993H185.361C186.109 4.01993 186.741 4.14912 187.258 4.40748C187.774 4.66585 188.167 5.02394 188.434 5.48176C188.701 5.93504 188.835 6.45404 188.835 7.03877C188.835 7.67336 188.701 8.21503 188.434 8.66378C188.167 9.11253 187.774 9.45475 187.258 9.69046C186.741 9.92163 186.109 10.0372 185.361 10.0372ZM190.494 4.01993H193.771C194.515 4.01993 195.142 4.13325 195.655 4.35989C196.171 4.58653 196.564 4.92196 196.831 5.36617C197.103 5.80585 197.239 6.34752 197.239 6.99118C197.239 7.44446 197.146 7.85921 196.96 8.23543C196.779 8.60712 196.516 8.92442 196.171 9.18732C195.831 9.44569 195.424 9.63833 194.948 9.76525L194.58 9.90803H191.5L191.487 8.84056H193.812C194.284 8.84056 194.676 8.75897 194.988 8.59579C195.301 8.42807 195.537 8.2037 195.695 7.92267C195.854 7.64163 195.933 7.33114 195.933 6.99118C195.933 6.61042 195.859 6.27726 195.709 5.9917C195.559 5.70613 195.324 5.48629 195.002 5.33217C194.685 5.17353 194.274 5.0942 193.771 5.0942H191.806V13.9196H190.494V4.01993ZM196.28 13.9196L193.873 9.43209L195.24 9.42529L197.681 13.838V13.9196H196.28ZM200.387 4.01993V13.9196H199.075V4.01993H200.387ZM206.363 4.01993L202.25 8.63658L199.938 11.0367L199.721 9.63606L201.461 7.71869L204.786 4.01993H206.363ZM205.099 13.9196L201.434 9.09213L202.216 8.05185L206.663 13.9196H205.099ZM214.924 10.0372H212.279V8.96974H214.924C215.436 8.96974 215.851 8.88815 216.168 8.72497C216.485 8.56179 216.716 8.33515 216.861 8.04505C217.011 7.75495 217.086 7.42406 217.086 7.05237C217.086 6.71241 217.011 6.39285 216.861 6.09368C216.716 5.79452 216.485 5.55428 216.168 5.37297C215.851 5.18713 215.436 5.0942 214.924 5.0942H212.585V13.9196H211.272V4.01993H214.924C215.672 4.01993 216.304 4.14912 216.821 4.40748C217.337 4.66585 217.729 5.02394 217.997 5.48176C218.264 5.93504 218.398 6.45404 218.398 7.03877C218.398 7.67336 218.264 8.21503 217.997 8.66378C217.729 9.11253 217.337 9.45475 216.821 9.69046C216.304 9.92163 215.672 10.0372 214.924 10.0372ZM221.124 7.71869V13.9196H219.867V6.56283H221.09L221.124 7.71869ZM223.423 6.52203L223.416 7.69149C223.312 7.66883 223.212 7.65523 223.117 7.6507C223.026 7.64163 222.922 7.6371 222.804 7.6371C222.514 7.6371 222.258 7.68243 222.036 7.77309C221.813 7.86374 221.625 7.99066 221.471 8.15384C221.317 8.31702 221.195 8.51193 221.104 8.73857C221.018 8.96068 220.961 9.20545 220.934 9.47288L220.581 9.67686C220.581 9.23265 220.624 8.81563 220.71 8.42581C220.8 8.03599 220.939 7.69149 221.124 7.39233C221.31 7.08863 221.546 6.85293 221.832 6.68521C222.122 6.51297 222.466 6.42684 222.865 6.42684C222.956 6.42684 223.06 6.43818 223.178 6.46084C223.296 6.47897 223.377 6.49937 223.423 6.52203ZM227.502 14.0555C226.99 14.0555 226.525 13.9694 226.108 13.7972C225.696 13.6204 225.34 13.3734 225.041 13.0561C224.746 12.7388 224.52 12.3625 224.361 11.9274C224.202 11.4922 224.123 11.0163 224.123 10.4996V10.214C224.123 9.61567 224.211 9.08306 224.388 8.61619C224.565 8.14477 224.805 7.74589 225.109 7.41953C225.412 7.09317 225.757 6.84613 226.142 6.67842C226.528 6.5107 226.926 6.42684 227.339 6.42684C227.865 6.42684 228.318 6.5175 228.699 6.69881C229.084 6.88012 229.399 7.13396 229.644 7.46032C229.889 7.78215 230.07 8.16291 230.188 8.60259C230.306 9.03774 230.365 9.51368 230.365 10.0304V10.5948H224.871V9.56807H229.107V9.47288C229.089 9.14652 229.021 8.82923 228.903 8.521C228.789 8.21277 228.608 7.95893 228.359 7.75949C228.11 7.56004 227.77 7.46032 227.339 7.46032C227.053 7.46032 226.79 7.52151 226.55 7.6439C226.31 7.76175 226.104 7.93853 225.931 8.17424C225.759 8.40994 225.626 8.69778 225.53 9.03774C225.435 9.37769 225.388 9.76978 225.388 10.214V10.4996C225.388 10.8486 225.435 11.1772 225.53 11.4854C225.63 11.7891 225.773 12.0566 225.959 12.2877C226.149 12.5189 226.378 12.7002 226.645 12.8317C226.917 12.9631 227.226 13.0289 227.57 13.0289C228.014 13.0289 228.391 12.9382 228.699 12.7569C229.007 12.5756 229.277 12.3331 229.508 12.0294L230.269 12.6345C230.111 12.8747 229.909 13.1037 229.664 13.3212C229.419 13.5388 229.118 13.7156 228.76 13.8516C228.406 13.9875 227.987 14.0555 227.502 14.0555ZM236.117 11.9682C236.117 11.7869 236.076 11.6192 235.994 11.465C235.917 11.3064 235.756 11.1636 235.512 11.0367C235.271 10.9052 234.909 10.7919 234.424 10.6967C234.016 10.6106 233.646 10.5086 233.315 10.3908C232.989 10.2729 232.71 10.1301 232.479 9.96243C232.252 9.79471 232.078 9.59754 231.956 9.3709C231.833 9.14426 231.772 8.87909 231.772 8.57539C231.772 8.28529 231.835 8.01106 231.962 7.75269C232.094 7.49432 232.277 7.26541 232.513 7.06597C232.753 6.86653 233.041 6.71014 233.377 6.59682C233.712 6.4835 234.086 6.42684 234.498 6.42684C235.088 6.42684 235.591 6.5311 236.008 6.73961C236.425 6.94812 236.744 7.22688 236.967 7.57591C237.189 7.9204 237.3 8.30342 237.3 8.72497H236.042C236.042 8.521 235.981 8.32382 235.858 8.13344C235.74 7.93853 235.566 7.77762 235.335 7.6507C235.108 7.52378 234.829 7.46032 234.498 7.46032C234.149 7.46032 233.866 7.51472 233.649 7.6235C233.436 7.72776 233.279 7.86147 233.179 8.02466C233.084 8.18784 233.037 8.36008 233.037 8.54139C233.037 8.67738 233.059 8.79976 233.105 8.90855C233.155 9.0128 233.241 9.11026 233.363 9.20092C233.485 9.28704 233.658 9.36863 233.88 9.44569C234.102 9.52274 234.385 9.5998 234.73 9.67686C235.333 9.81284 235.829 9.97602 236.219 10.1664C236.608 10.3568 236.899 10.5902 237.089 10.8667C237.279 11.1432 237.375 11.4786 237.375 11.873C237.375 12.1948 237.307 12.4895 237.171 12.7569C237.039 13.0243 236.846 13.2555 236.593 13.4504C236.343 13.6408 236.044 13.7904 235.695 13.8992C235.351 14.0034 234.963 14.0555 234.532 14.0555C233.884 14.0555 233.336 13.94 232.887 13.7088C232.438 13.4776 232.098 13.1784 231.867 12.8113C231.636 12.4441 231.52 12.0566 231.52 11.6486H232.785C232.803 11.9931 232.903 12.2674 233.084 12.4713C233.266 12.6708 233.488 12.8136 233.751 12.8997C234.013 12.9813 234.274 13.0221 234.532 13.0221C234.877 13.0221 235.165 12.9767 235.396 12.8861C235.632 12.7954 235.811 12.6708 235.933 12.5121C236.055 12.3535 236.117 12.1722 236.117 11.9682ZM242.08 14.0555C241.567 14.0555 241.103 13.9694 240.686 13.7972C240.273 13.6204 239.917 13.3734 239.618 13.0561C239.324 12.7388 239.097 12.3625 238.938 11.9274C238.78 11.4922 238.7 11.0163 238.7 10.4996V10.214C238.7 9.61567 238.789 9.08306 238.966 8.61619C239.142 8.14477 239.383 7.74589 239.686 7.41953C239.99 7.09317 240.334 6.84613 240.72 6.67842C241.105 6.5107 241.504 6.42684 241.916 6.42684C242.442 6.42684 242.895 6.5175 243.276 6.69881C243.662 6.88012 243.977 7.13396 244.221 7.46032C244.466 7.78215 244.647 8.16291 244.765 8.60259C244.883 9.03774 244.942 9.51368 244.942 10.0304V10.5948H239.448V9.56807H243.684V9.47288C243.666 9.14652 243.598 8.82923 243.48 8.521C243.367 8.21277 243.186 7.95893 242.936 7.75949C242.687 7.56004 242.347 7.46032 241.916 7.46032C241.631 7.46032 241.368 7.52151 241.128 7.6439C240.887 7.76175 240.681 7.93853 240.509 8.17424C240.337 8.40994 240.203 8.69778 240.108 9.03774C240.013 9.37769 239.965 9.76978 239.965 10.214V10.4996C239.965 10.8486 240.013 11.1772 240.108 11.4854C240.208 11.7891 240.35 12.0566 240.536 12.2877C240.727 12.5189 240.955 12.7002 241.223 12.8317C241.495 12.9631 241.803 13.0289 242.148 13.0289C242.592 13.0289 242.968 12.9382 243.276 12.7569C243.584 12.5756 243.854 12.3331 244.085 12.0294L244.847 12.6345C244.688 12.8747 244.486 13.1037 244.242 13.3212C243.997 13.5388 243.696 13.7156 243.337 13.8516C242.984 13.9875 242.565 14.0555 242.08 14.0555ZM247.669 8.13344V13.9196H246.411V6.56283H247.601L247.669 8.13344ZM247.369 9.96243L246.846 9.94203C246.85 9.43889 246.925 8.97428 247.07 8.54819C247.215 8.11758 247.419 7.74362 247.682 7.42633C247.945 7.10903 248.258 6.86426 248.62 6.69201C248.988 6.51523 249.393 6.42684 249.837 6.42684C250.2 6.42684 250.526 6.47671 250.817 6.57643C251.107 6.67162 251.354 6.82573 251.558 7.03877C251.766 7.25181 251.925 7.52831 252.034 7.86827C252.142 8.2037 252.197 8.61392 252.197 9.09893V13.9196H250.932V9.08533C250.932 8.70004 250.875 8.39181 250.762 8.16064C250.649 7.92493 250.483 7.75495 250.266 7.6507C250.048 7.54191 249.781 7.48752 249.464 7.48752C249.151 7.48752 248.865 7.55324 248.607 7.6847C248.353 7.81615 248.133 7.99746 247.947 8.22863C247.766 8.4598 247.623 8.72497 247.519 9.02414C247.419 9.31877 247.369 9.63153 247.369 9.96243ZM257.051 13.0221C257.351 13.0221 257.627 12.9609 257.881 12.8385C258.135 12.7161 258.343 12.5484 258.506 12.3353C258.67 12.1178 258.763 11.8707 258.785 11.5942H259.982C259.959 12.0294 259.812 12.4351 259.54 12.8113C259.272 13.183 258.921 13.4844 258.486 13.7156C258.051 13.9422 257.573 14.0555 257.051 14.0555C256.498 14.0555 256.016 13.9581 255.603 13.7632C255.195 13.5683 254.855 13.3008 254.583 12.9609C254.316 12.6209 254.114 12.2311 253.978 11.7914C253.847 11.3472 253.781 10.878 253.781 10.384V10.0984C253.781 9.60433 253.847 9.13746 253.978 8.69778C254.114 8.25356 254.316 7.86147 254.583 7.52151C254.855 7.18156 255.195 6.91412 255.603 6.71921C256.016 6.5243 256.498 6.42684 257.051 6.42684C257.627 6.42684 258.13 6.5447 258.561 6.7804C258.991 7.01158 259.329 7.32887 259.574 7.73229C259.823 8.13118 259.959 8.58446 259.982 9.09213H258.785C258.763 8.78843 258.676 8.5142 258.527 8.26943C258.382 8.02466 258.182 7.82975 257.928 7.6847C257.679 7.53511 257.387 7.46032 257.051 7.46032C256.666 7.46032 256.342 7.53738 256.079 7.69149C255.821 7.84108 255.615 8.04505 255.46 8.30342C255.311 8.55726 255.202 8.84056 255.134 9.15332C255.071 9.46155 255.039 9.77658 255.039 10.0984V10.384C255.039 10.7058 255.071 11.0231 255.134 11.3359C255.197 11.6486 255.304 11.9319 255.454 12.1858C255.608 12.4396 255.814 12.6436 256.072 12.7977C256.335 12.9473 256.662 13.0221 257.051 13.0221ZM264.449 14.0555C263.937 14.0555 263.472 13.9694 263.055 13.7972C262.643 13.6204 262.287 13.3734 261.988 13.0561C261.693 12.7388 261.466 12.3625 261.308 11.9274C261.149 11.4922 261.07 11.0163 261.07 10.4996V10.214C261.07 9.61567 261.158 9.08306 261.335 8.61619C261.512 8.14477 261.752 7.74589 262.056 7.41953C262.359 7.09317 262.704 6.84613 263.089 6.67842C263.474 6.5107 263.873 6.42684 264.286 6.42684C264.812 6.42684 265.265 6.5175 265.646 6.69881C266.031 6.88012 266.346 7.13396 266.591 7.46032C266.835 7.78215 267.017 8.16291 267.135 8.60259C267.252 9.03774 267.311 9.51368 267.311 10.0304V10.5948H261.818V9.56807H266.054V9.47288C266.035 9.14652 265.967 8.82923 265.85 8.521C265.736 8.21277 265.555 7.95893 265.306 7.75949C265.056 7.56004 264.716 7.46032 264.286 7.46032C264 7.46032 263.737 7.52151 263.497 7.6439C263.257 7.76175 263.051 7.93853 262.878 8.17424C262.706 8.40994 262.572 8.69778 262.477 9.03774C262.382 9.37769 262.334 9.76978 262.334 10.214V10.4996C262.334 10.8486 262.382 11.1772 262.477 11.4854C262.577 11.7891 262.72 12.0566 262.906 12.2877C263.096 12.5189 263.325 12.7002 263.592 12.8317C263.864 12.9631 264.172 13.0289 264.517 13.0289C264.961 13.0289 265.337 12.9382 265.646 12.7569C265.954 12.5756 266.224 12.3331 266.455 12.0294L267.216 12.6345C267.058 12.8747 266.856 13.1037 266.611 13.3212C266.366 13.5388 266.065 13.7156 265.707 13.8516C265.353 13.9875 264.934 14.0555 264.449 14.0555Z" fill="black"/>
<rect x="129.648" y="27.3685" width="31.3307" height="20.1827" fill="white" stroke="#364B60" stroke-width="1.39247"/>
<path d="M172.571 31.1651H175.849C176.592 31.1651 177.22 31.2784 177.732 31.505C178.249 31.7317 178.641 32.0671 178.908 32.5113C179.18 32.951 179.316 33.4927 179.316 34.1363C179.316 34.5896 179.223 35.0043 179.037 35.3806C178.856 35.7523 178.593 36.0696 178.249 36.3325C177.909 36.5908 177.501 36.7835 177.025 36.9104L176.658 37.0532H173.578L173.564 35.9857H175.889C176.361 35.9857 176.753 35.9041 177.066 35.7409C177.378 35.5732 177.614 35.3488 177.773 35.0678C177.931 34.7868 178.011 34.4763 178.011 34.1363C178.011 33.7556 177.936 33.4224 177.786 33.1368C177.637 32.8513 177.401 32.6314 177.079 32.4773C176.762 32.3187 176.352 32.2393 175.849 32.2393H173.884V41.0647H172.571V31.1651ZM178.358 41.0647L175.951 36.5772L177.317 36.5704L179.758 40.9831V41.0647H178.358ZM188.774 35.8021V36.4276C188.774 37.171 188.681 37.8373 188.495 38.4266C188.309 39.0159 188.042 39.5167 187.693 39.9292C187.344 40.3417 186.925 40.6567 186.435 40.8743C185.95 41.0919 185.406 41.2007 184.803 41.2007C184.218 41.2007 183.681 41.0919 183.192 40.8743C182.707 40.6567 182.285 40.3417 181.927 39.9292C181.574 39.5167 181.299 39.0159 181.104 38.4266C180.91 37.8373 180.812 37.171 180.812 36.4276V35.8021C180.812 35.0587 180.907 34.3947 181.098 33.81C181.293 33.2207 181.567 32.7198 181.92 32.3073C182.274 31.8903 182.693 31.573 183.178 31.3554C183.668 31.1379 184.205 31.0291 184.79 31.0291C185.392 31.0291 185.936 31.1379 186.421 31.3554C186.911 31.573 187.33 31.8903 187.679 32.3073C188.033 32.7198 188.302 33.2207 188.488 33.81C188.679 34.3947 188.774 35.0587 188.774 35.8021ZM187.475 36.4276V35.7885C187.475 35.1993 187.414 34.678 187.292 34.2247C187.174 33.7714 186.999 33.3907 186.768 33.0824C186.537 32.7742 186.254 32.5408 185.918 32.3821C185.587 32.2235 185.211 32.1442 184.79 32.1442C184.382 32.1442 184.012 32.2235 183.681 32.3821C183.355 32.5408 183.074 32.7742 182.838 33.0824C182.607 33.3907 182.428 33.7714 182.301 34.2247C182.174 34.678 182.111 35.1993 182.111 35.7885V36.4276C182.111 37.0214 182.174 37.5472 182.301 38.0051C182.428 38.4583 182.609 38.8414 182.845 39.1541C183.085 39.4624 183.369 39.6958 183.695 39.8544C184.026 40.0131 184.395 40.0924 184.803 40.0924C185.229 40.0924 185.608 40.0131 185.939 39.8544C186.27 39.6958 186.548 39.4624 186.775 39.1541C187.006 38.8414 187.181 38.4583 187.298 38.0051C187.416 37.5472 187.475 37.0214 187.475 36.4276ZM192.051 31.1651V41.0647H190.739V31.1651H192.051ZM198.028 31.1651L193.914 35.7817L191.602 38.1818L191.385 36.7812L193.125 34.8638L196.45 31.1651H198.028ZM196.763 41.0647L193.098 36.2373L193.88 35.197L198.327 41.0647H196.763ZM206.588 37.1824H203.943V36.1149H206.588C207.1 36.1149 207.515 36.0333 207.832 35.8701C208.149 35.7069 208.381 35.4803 208.526 35.1902C208.675 34.9001 208.75 34.5692 208.75 34.1975C208.75 33.8576 208.675 33.538 208.526 33.2388C208.381 32.9397 208.149 32.6994 207.832 32.5181C207.515 32.3323 207.1 32.2393 206.588 32.2393H204.249V41.0647H202.937V31.1651H206.588C207.336 31.1651 207.968 31.2943 208.485 31.5526C209.002 31.811 209.394 32.1691 209.661 32.6269C209.928 33.0802 210.062 33.5992 210.062 34.1839C210.062 34.8185 209.928 35.3602 209.661 35.8089C209.394 36.2577 209.002 36.5999 208.485 36.8356C207.968 37.0668 207.336 37.1824 206.588 37.1824ZM212.789 34.8638V41.0647H211.531V33.708H212.755L212.789 34.8638ZM215.087 33.6672L215.08 34.8366C214.976 34.814 214.876 34.8004 214.781 34.7958C214.69 34.7868 214.586 34.7822 214.468 34.7822C214.178 34.7822 213.922 34.8276 213.7 34.9182C213.478 35.0089 213.29 35.1358 213.135 35.299C212.981 35.4622 212.859 35.6571 212.768 35.8837C212.682 36.1058 212.625 36.3506 212.598 36.618L212.245 36.822C212.245 36.3778 212.288 35.9608 212.374 35.5709C212.465 35.1811 212.603 34.8366 212.789 34.5375C212.974 34.2338 213.21 33.9981 213.496 33.8304C213.786 33.6581 214.13 33.572 214.529 33.572C214.62 33.572 214.724 33.5833 214.842 33.606C214.96 33.6241 215.041 33.6445 215.087 33.6672ZM219.166 41.2007C218.654 41.2007 218.189 41.1146 217.772 40.9423C217.36 40.7655 217.004 40.5185 216.705 40.2012C216.41 39.8839 216.184 39.5077 216.025 39.0725C215.866 38.6374 215.787 38.1614 215.787 37.6447V37.3591C215.787 36.7608 215.875 36.2282 216.052 35.7613C216.229 35.2899 216.469 34.891 216.773 34.5647C217.077 34.2383 217.421 33.9913 217.806 33.8236C218.192 33.6558 218.591 33.572 219.003 33.572C219.529 33.572 219.982 33.6626 220.363 33.844C220.748 34.0253 221.063 34.2791 221.308 34.6055C221.553 34.9273 221.734 35.308 221.852 35.7477C221.97 36.1829 222.029 36.6588 222.029 37.1756V37.7399H216.535V36.7132H220.771V36.618C220.753 36.2917 220.685 35.9744 220.567 35.6661C220.454 35.3579 220.272 35.1041 220.023 34.9046C219.774 34.7052 219.434 34.6055 219.003 34.6055C218.718 34.6055 218.455 34.6667 218.214 34.789C217.974 34.9069 217.768 35.0837 217.596 35.3194C217.423 35.5551 217.29 35.8429 217.195 36.1829C217.099 36.5228 217.052 36.9149 217.052 37.3591V37.6447C217.052 37.9937 217.099 38.3224 217.195 38.6306C217.294 38.9343 217.437 39.2017 217.623 39.4329C217.813 39.6641 218.042 39.8454 218.31 39.9768C218.582 40.1083 218.89 40.174 219.234 40.174C219.679 40.174 220.055 40.0833 220.363 39.902C220.671 39.7207 220.941 39.4782 221.172 39.1745L221.934 39.7796C221.775 40.0199 221.573 40.2488 221.328 40.4664C221.084 40.6839 220.782 40.8607 220.424 40.9967C220.071 41.1327 219.651 41.2007 219.166 41.2007ZM227.781 39.1133C227.781 38.932 227.74 38.7643 227.658 38.6102C227.581 38.4515 227.421 38.3088 227.176 38.1818C226.936 38.0504 226.573 37.9371 226.088 37.8419C225.68 37.7558 225.311 37.6538 224.98 37.5359C224.653 37.4181 224.374 37.2753 224.143 37.1076C223.917 36.9399 223.742 36.7427 223.62 36.516C223.497 36.2894 223.436 36.0242 223.436 35.7205C223.436 35.4304 223.5 35.1562 223.627 34.8978C223.758 34.6395 223.942 34.4106 224.177 34.2111C224.418 34.0117 224.705 33.8553 225.041 33.742C225.376 33.6286 225.75 33.572 226.163 33.572C226.752 33.572 227.255 33.6762 227.672 33.8847C228.089 34.0933 228.409 34.372 228.631 34.7211C228.853 35.0655 228.964 35.4486 228.964 35.8701H227.706C227.706 35.6661 227.645 35.469 227.523 35.2786C227.405 35.0837 227.23 34.9228 226.999 34.7958C226.772 34.6689 226.494 34.6055 226.163 34.6055C225.814 34.6055 225.53 34.6599 225.313 34.7686C225.1 34.8729 224.943 35.0066 224.844 35.1698C224.748 35.333 224.701 35.5052 224.701 35.6865C224.701 35.8225 224.724 35.9449 224.769 36.0537C224.819 36.1579 224.905 36.2554 225.027 36.3461C225.15 36.4322 225.322 36.5138 225.544 36.5908C225.766 36.6679 226.049 36.7449 226.394 36.822C226.997 36.958 227.493 37.1212 227.883 37.3115C228.273 37.5019 228.563 37.7354 228.753 38.0119C228.944 38.2884 229.039 38.6238 229.039 39.0181C229.039 39.34 228.971 39.6346 228.835 39.902C228.703 40.1695 228.511 40.4006 228.257 40.5956C228.008 40.7859 227.708 40.9355 227.359 41.0443C227.015 41.1486 226.627 41.2007 226.197 41.2007C225.548 41.2007 225 41.0851 224.551 40.8539C224.103 40.6227 223.763 40.3236 223.531 39.9564C223.3 39.5893 223.185 39.2017 223.185 38.7938H224.449C224.467 39.1383 224.567 39.4125 224.748 39.6165C224.93 39.8159 225.152 39.9587 225.415 40.0448C225.678 40.1264 225.938 40.1672 226.197 40.1672C226.541 40.1672 226.829 40.1219 227.06 40.0312C227.296 39.9406 227.475 39.8159 227.597 39.6573C227.72 39.4986 227.781 39.3173 227.781 39.1133ZM233.744 41.2007C233.232 41.2007 232.767 41.1146 232.35 40.9423C231.937 40.7655 231.582 40.5185 231.282 40.2012C230.988 39.8839 230.761 39.5077 230.603 39.0725C230.444 38.6374 230.365 38.1614 230.365 37.6447V37.3591C230.365 36.7608 230.453 36.2282 230.63 35.7613C230.807 35.2899 231.047 34.891 231.35 34.5647C231.654 34.2383 231.999 33.9913 232.384 33.8236C232.769 33.6558 233.168 33.572 233.581 33.572C234.106 33.572 234.56 33.6626 234.94 33.844C235.326 34.0253 235.641 34.2791 235.886 34.6055C236.13 34.9273 236.312 35.308 236.429 35.7477C236.547 36.1829 236.606 36.6588 236.606 37.1756V37.7399H231.112V36.7132H235.348V36.618C235.33 36.2917 235.262 35.9744 235.144 35.6661C235.031 35.3579 234.85 35.1041 234.6 34.9046C234.351 34.7052 234.011 34.6055 233.581 34.6055C233.295 34.6055 233.032 34.6667 232.792 34.789C232.552 34.9069 232.345 35.0837 232.173 35.3194C232.001 35.5551 231.867 35.8429 231.772 36.1829C231.677 36.5228 231.629 36.9149 231.629 37.3591V37.6447C231.629 37.9937 231.677 38.3224 231.772 38.6306C231.872 38.9343 232.015 39.2017 232.2 39.4329C232.391 39.6641 232.62 39.8454 232.887 39.9768C233.159 40.1083 233.467 40.174 233.812 40.174C234.256 40.174 234.632 40.0833 234.94 39.902C235.249 39.7207 235.518 39.4782 235.75 39.1745L236.511 39.7796C236.352 40.0199 236.151 40.2488 235.906 40.4664C235.661 40.6839 235.36 40.8607 235.002 40.9967C234.648 41.1327 234.229 41.2007 233.744 41.2007ZM239.333 35.2786V41.0647H238.075V33.708H239.265L239.333 35.2786ZM239.034 37.1076L238.51 37.0872C238.515 36.584 238.589 36.1194 238.734 35.6933C238.879 35.2627 239.083 34.8888 239.346 34.5715C239.609 34.2542 239.922 34.0094 240.285 33.8372C240.652 33.6604 241.057 33.572 241.502 33.572C241.864 33.572 242.191 33.6218 242.481 33.7216C242.771 33.8168 243.018 33.9709 243.222 34.1839C243.43 34.397 243.589 34.6735 243.698 35.0134C243.807 35.3488 243.861 35.7591 243.861 36.2441V41.0647H242.596V36.2305C242.596 35.8452 242.54 35.537 242.426 35.3058C242.313 35.0701 242.148 34.9001 241.93 34.7958C241.712 34.6871 241.445 34.6327 241.128 34.6327C240.815 34.6327 240.529 34.6984 240.271 34.8298C240.017 34.9613 239.797 35.1426 239.611 35.3738C239.43 35.6049 239.287 35.8701 239.183 36.1693C239.083 36.4639 239.034 36.7767 239.034 37.1076ZM248.716 40.1672C249.015 40.1672 249.291 40.106 249.545 39.9836C249.799 39.8612 250.007 39.6935 250.171 39.4805C250.334 39.2629 250.427 39.0159 250.449 38.7394H251.646C251.623 39.1745 251.476 39.5802 251.204 39.9564C250.937 40.3281 250.585 40.6295 250.15 40.8607C249.715 41.0874 249.237 41.2007 248.716 41.2007C248.163 41.2007 247.68 41.1032 247.267 40.9083C246.859 40.7134 246.519 40.446 246.247 40.106C245.98 39.7661 245.778 39.3762 245.642 38.9365C245.511 38.4923 245.445 38.0232 245.445 37.5291V37.2436C245.445 36.7495 245.511 36.2826 245.642 35.8429C245.778 35.3987 245.98 35.0066 246.247 34.6667C246.519 34.3267 246.859 34.0593 247.267 33.8644C247.68 33.6694 248.163 33.572 248.716 33.572C249.291 33.572 249.794 33.6898 250.225 33.9255C250.656 34.1567 250.993 34.474 251.238 34.8774C251.487 35.2763 251.623 35.7296 251.646 36.2373H250.449C250.427 35.9336 250.341 35.6593 250.191 35.4146C250.046 35.1698 249.847 34.9749 249.593 34.8298C249.343 34.6803 249.051 34.6055 248.716 34.6055C248.33 34.6055 248.006 34.6825 247.743 34.8366C247.485 34.9862 247.279 35.1902 247.125 35.4486C246.975 35.7024 246.866 35.9857 246.798 36.2985C246.735 36.6067 246.703 36.9217 246.703 37.2436V37.5291C246.703 37.8509 246.735 38.1682 246.798 38.481C246.862 38.7938 246.968 39.0771 247.118 39.3309C247.272 39.5847 247.478 39.7887 247.737 39.9428C247.999 40.0924 248.326 40.1672 248.716 40.1672ZM256.113 41.2007C255.601 41.2007 255.136 41.1146 254.719 40.9423C254.307 40.7655 253.951 40.5185 253.652 40.2012C253.357 39.8839 253.131 39.5077 252.972 39.0725C252.813 38.6374 252.734 38.1614 252.734 37.6447V37.3591C252.734 36.7608 252.822 36.2282 252.999 35.7613C253.176 35.2899 253.416 34.891 253.72 34.5647C254.023 34.2383 254.368 33.9913 254.753 33.8236C255.139 33.6558 255.537 33.572 255.95 33.572C256.476 33.572 256.929 33.6626 257.31 33.844C257.695 34.0253 258.01 34.2791 258.255 34.6055C258.5 34.9273 258.681 35.308 258.799 35.7477C258.917 36.1829 258.976 36.6588 258.976 37.1756V37.7399H253.482V36.7132H257.718V36.618C257.7 36.2917 257.632 35.9744 257.514 35.6661C257.4 35.3579 257.219 35.1041 256.97 34.9046C256.721 34.7052 256.381 34.6055 255.95 34.6055C255.664 34.6055 255.401 34.6667 255.161 34.789C254.921 34.9069 254.715 35.0837 254.542 35.3194C254.37 35.5551 254.237 35.8429 254.141 36.1829C254.046 36.5228 253.999 36.9149 253.999 37.3591V37.6447C253.999 37.9937 254.046 38.3224 254.141 38.6306C254.241 38.9343 254.384 39.2017 254.57 39.4329C254.76 39.6641 254.989 39.8454 255.256 39.9768C255.528 40.1083 255.837 40.174 256.181 40.174C256.625 40.174 257.002 40.0833 257.31 39.902C257.618 39.7207 257.888 39.4782 258.119 39.1745L258.88 39.7796C258.722 40.0199 258.52 40.2488 258.275 40.4664C258.03 40.6839 257.729 40.8607 257.371 40.9967C257.017 41.1327 256.598 41.2007 256.113 41.2007Z" fill="black"/>
<rect x="131.04" y="55.906" width="28.5457" height="17.3978" fill="white" stroke="#FF0000" stroke-width="1.39247"/>
<path d="M180.193 62.9471V63.5727C180.193 64.316 180.1 64.9824 179.915 65.5716C179.729 66.1609 179.461 66.6618 179.112 67.0743C178.763 67.4867 178.344 67.8018 177.854 68.0193C177.369 68.2369 176.825 68.3457 176.223 68.3457C175.638 68.3457 175.101 68.2369 174.611 68.0193C174.126 67.8018 173.705 67.4867 173.347 67.0743C172.993 66.6618 172.719 66.1609 172.524 65.5716C172.329 64.9824 172.231 64.316 172.231 63.5727V62.9471C172.231 62.2038 172.327 61.5397 172.517 60.955C172.712 60.3657 172.986 59.8648 173.34 59.4524C173.693 59.0353 174.113 58.718 174.598 58.5005C175.087 58.2829 175.624 58.1741 176.209 58.1741C176.812 58.1741 177.356 58.2829 177.841 58.5005C178.33 58.718 178.75 59.0353 179.099 59.4524C179.452 59.8648 179.722 60.3657 179.908 60.955C180.098 61.5397 180.193 62.2038 180.193 62.9471ZM178.895 63.5727V62.9335C178.895 62.3443 178.833 61.823 178.711 61.3697C178.593 60.9164 178.419 60.5357 178.188 60.2275C177.956 59.9192 177.673 59.6858 177.338 59.5271C177.007 59.3685 176.631 59.2892 176.209 59.2892C175.801 59.2892 175.432 59.3685 175.101 59.5271C174.774 59.6858 174.493 59.9192 174.258 60.2275C174.026 60.5357 173.847 60.9164 173.72 61.3697C173.594 61.823 173.53 62.3443 173.53 62.9335V63.5727C173.53 64.1665 173.594 64.6923 173.72 65.1501C173.847 65.6034 174.029 65.9864 174.264 66.2991C174.505 66.6074 174.788 66.8408 175.114 66.9995C175.445 67.1581 175.815 67.2374 176.223 67.2374C176.649 67.2374 177.027 67.1581 177.358 66.9995C177.689 66.8408 177.968 66.6074 178.194 66.2991C178.426 65.9864 178.6 65.6034 178.718 65.1501C178.836 64.6923 178.895 64.1665 178.895 63.5727ZM183.844 68.2097H182.587V60.0779C182.587 59.5475 182.682 59.1011 182.872 58.7384C183.067 58.3713 183.346 58.0948 183.709 57.9089C184.071 57.7186 184.502 57.6234 185 57.6234C185.145 57.6234 185.29 57.6324 185.436 57.6506C185.585 57.6687 185.73 57.6959 185.871 57.7322L185.803 58.7588C185.707 58.7362 185.599 58.7203 185.476 58.7112C185.358 58.7022 185.241 58.6976 185.123 58.6976C184.855 58.6976 184.624 58.752 184.429 58.8608C184.239 58.9651 184.094 59.1192 183.994 59.3232C183.894 59.5271 183.844 59.7787 183.844 60.0779V68.2097ZM185.476 60.853V61.8185H181.424V60.853H185.476ZM187.822 68.2097H186.564V60.2139C186.564 59.6563 186.671 59.1849 186.884 58.7996C187.101 58.4143 187.412 58.122 187.815 57.9225C188.219 57.7231 188.697 57.6234 189.25 57.6234C189.581 57.6234 189.903 57.6642 190.215 57.7458C190.528 57.8228 190.85 57.9203 191.181 58.0381L190.963 59.0988C190.759 59.0172 190.519 58.9402 190.243 58.8676C189.966 58.7906 189.667 58.752 189.345 58.752C188.806 58.752 188.416 58.8744 188.176 59.1192C187.94 59.3594 187.822 59.7243 187.822 60.2139V68.2097ZM189.325 60.853V61.8185H185.402V60.853H189.325ZM191.8 60.853V68.2097H190.542V60.853H191.8ZM196.797 67.3122C197.096 67.3122 197.373 67.251 197.626 67.1286C197.88 67.0063 198.089 66.8385 198.252 66.6255C198.415 66.4079 198.508 66.1609 198.531 65.8844H199.727C199.705 66.3195 199.557 66.7252 199.285 67.1014C199.018 67.4731 198.667 67.7746 198.232 68.0057C197.796 68.2324 197.318 68.3457 196.797 68.3457C196.244 68.3457 195.761 68.2482 195.349 68.0533C194.941 67.8584 194.601 67.591 194.329 67.251C194.061 66.9111 193.86 66.5213 193.724 66.0816C193.592 65.6374 193.527 65.1682 193.527 64.6741V64.3886C193.527 63.8945 193.592 63.4276 193.724 62.9879C193.86 62.5437 194.061 62.1516 194.329 61.8117C194.601 61.4717 194.941 61.2043 195.349 61.0094C195.761 60.8145 196.244 60.717 196.797 60.717C197.373 60.717 197.876 60.8349 198.306 61.0706C198.737 61.3017 199.075 61.619 199.319 62.0225C199.569 62.4213 199.705 62.8746 199.727 63.3823H198.531C198.508 63.0786 198.422 62.8044 198.272 62.5596C198.127 62.3148 197.928 62.1199 197.674 61.9749C197.425 61.8253 197.132 61.7505 196.797 61.7505C196.412 61.7505 196.088 61.8275 195.825 61.9817C195.566 62.1312 195.36 62.3352 195.206 62.5936C195.056 62.8474 194.948 63.1307 194.88 63.4435C194.816 63.7517 194.784 64.0667 194.784 64.3886V64.6741C194.784 64.996 194.816 65.3133 194.88 65.626C194.943 65.9388 195.05 66.2221 195.199 66.4759C195.353 66.7298 195.559 66.9337 195.818 67.0878C196.081 67.2374 196.407 67.3122 196.797 67.3122ZM202.508 60.853V68.2097H201.244V60.853H202.508ZM201.148 58.9016C201.148 58.6976 201.21 58.5254 201.332 58.3849C201.459 58.2444 201.645 58.1741 201.89 58.1741C202.13 58.1741 202.313 58.2444 202.44 58.3849C202.572 58.5254 202.637 58.6976 202.637 58.9016C202.637 59.0965 202.572 59.2642 202.44 59.4048C202.313 59.5407 202.13 59.6087 201.89 59.6087C201.645 59.6087 201.459 59.5407 201.332 59.4048C201.21 59.2642 201.148 59.0965 201.148 58.9016ZM208.866 66.9519V63.1647C208.866 62.8746 208.807 62.623 208.689 62.41C208.575 62.1924 208.403 62.0247 208.172 61.9069C207.941 61.789 207.655 61.7301 207.315 61.7301C206.998 61.7301 206.719 61.7845 206.479 61.8933C206.243 62.0021 206.057 62.1448 205.921 62.3216C205.79 62.4984 205.724 62.6888 205.724 62.8927H204.466C204.466 62.6298 204.534 62.3692 204.67 62.1108C204.806 61.8525 205.001 61.619 205.255 61.4105C205.514 61.1975 205.822 61.0298 206.18 60.9074C206.542 60.7805 206.946 60.717 207.39 60.717C207.925 60.717 208.396 60.8077 208.804 60.989C209.217 61.1703 209.539 61.4445 209.77 61.8117C210.006 62.1743 210.123 62.6298 210.123 63.1783V66.6051C210.123 66.8499 210.144 67.1105 210.185 67.387C210.23 67.6635 210.296 67.9015 210.382 68.1009V68.2097H209.069C209.006 68.0647 208.956 67.872 208.92 67.6318C208.884 67.387 208.866 67.1604 208.866 66.9519ZM209.083 63.7494L209.097 64.6333H207.825C207.467 64.6333 207.148 64.6628 206.867 64.7217C206.586 64.7761 206.35 64.86 206.159 64.9733C205.969 65.0866 205.824 65.2294 205.724 65.4017C205.625 65.5694 205.575 65.7665 205.575 65.9932C205.575 66.2244 205.627 66.4351 205.731 66.6255C205.835 66.8159 205.992 66.9677 206.2 67.0811C206.413 67.1898 206.674 67.2442 206.982 67.2442C207.367 67.2442 207.707 67.1626 208.002 66.9995C208.297 66.8363 208.53 66.6368 208.702 66.4011C208.879 66.1654 208.974 65.9365 208.988 65.7144L209.525 66.3195C209.493 66.5099 209.407 66.7207 209.267 66.9519C209.126 67.183 208.938 67.4051 208.702 67.6182C208.471 67.8267 208.195 68.0012 207.873 68.1417C207.556 68.2777 207.197 68.3457 206.799 68.3457C206.3 68.3457 205.863 68.2482 205.486 68.0533C205.115 67.8584 204.825 67.5978 204.616 67.2714C204.412 66.9405 204.31 66.5711 204.31 66.1632C204.31 65.7688 204.387 65.422 204.541 65.1229C204.695 64.8192 204.917 64.5676 205.208 64.3682C205.498 64.1642 205.847 64.0101 206.255 63.9058C206.663 63.8016 207.118 63.7494 207.621 63.7494H209.083ZM213.469 57.7662V68.2097H212.204V57.7662H213.469ZM223.287 65.3201V58.3101H224.592V65.3201C224.592 65.9728 224.458 66.5235 224.191 66.9723C223.923 67.421 223.554 67.7632 223.083 67.9989C222.616 68.2301 222.079 68.3457 221.471 68.3457C220.864 68.3457 220.324 68.2414 219.853 68.0329C219.382 67.8244 219.012 67.5071 218.745 67.0811C218.477 66.655 218.344 66.1178 218.344 65.4696H219.656C219.656 65.8867 219.733 66.2289 219.887 66.4963C220.041 66.7638 220.254 66.9609 220.526 67.0878C220.803 67.2148 221.118 67.2782 221.471 67.2782C221.816 67.2782 222.124 67.2057 222.396 67.0607C222.672 66.9111 222.89 66.6912 223.049 66.4011C223.207 66.1065 223.287 65.7461 223.287 65.3201ZM226.292 64.6129V64.4566C226.292 63.9262 226.369 63.4344 226.523 62.9811C226.677 62.5233 226.899 62.1267 227.189 61.7913C227.479 61.4513 227.831 61.1884 228.243 61.0026C228.656 60.8122 229.118 60.717 229.63 60.717C230.147 60.717 230.612 60.8122 231.024 61.0026C231.441 61.1884 231.795 61.4513 232.085 61.7913C232.379 62.1267 232.604 62.5233 232.758 62.9811C232.912 63.4344 232.989 63.9262 232.989 64.4566V64.6129C232.989 65.1433 232.912 65.6351 232.758 66.0884C232.604 66.5416 232.379 66.9383 232.085 67.2782C231.795 67.6137 231.443 67.8766 231.031 68.0669C230.623 68.2528 230.161 68.3457 229.644 68.3457C229.127 68.3457 228.663 68.2528 228.25 68.0669C227.838 67.8766 227.484 67.6137 227.189 67.2782C226.899 66.9383 226.677 66.5416 226.523 66.0884C226.369 65.6351 226.292 65.1433 226.292 64.6129ZM227.55 64.4566V64.6129C227.55 64.9801 227.593 65.3269 227.679 65.6532C227.765 65.975 227.894 66.2606 228.066 66.5099C228.243 66.7592 228.463 66.9564 228.726 67.1014C228.989 67.242 229.295 67.3122 229.644 67.3122C229.988 67.3122 230.29 67.242 230.548 67.1014C230.811 66.9564 231.029 66.7592 231.201 66.5099C231.373 66.2606 231.502 65.975 231.588 65.6532C231.679 65.3269 231.724 64.9801 231.724 64.6129V64.4566C231.724 64.0939 231.679 63.7517 231.588 63.4299C231.502 63.1035 231.371 62.8157 231.194 62.5664C231.022 62.3125 230.804 62.1131 230.541 61.9681C230.283 61.823 229.979 61.7505 229.63 61.7505C229.286 61.7505 228.982 61.823 228.719 61.9681C228.461 62.1131 228.243 62.3125 228.066 62.5664C227.894 62.8157 227.765 63.1035 227.679 63.4299C227.593 63.7517 227.55 64.0939 227.55 64.4566ZM235.933 60.853V68.2097H234.668V60.853H235.933ZM234.573 58.9016C234.573 58.6976 234.634 58.5254 234.757 58.3849C234.884 58.2444 235.07 58.1741 235.314 58.1741C235.555 58.1741 235.738 58.2444 235.865 58.3849C235.997 58.5254 236.062 58.6976 236.062 58.9016C236.062 59.0965 235.997 59.2642 235.865 59.4048C235.738 59.5407 235.555 59.6087 235.314 59.6087C235.07 59.6087 234.884 59.5407 234.757 59.4048C234.634 59.2642 234.573 59.0965 234.573 58.9016ZM239.21 62.4236V68.2097H237.952V60.853H239.142L239.21 62.4236ZM238.911 64.2526L238.388 64.2322C238.392 63.729 238.467 63.2644 238.612 62.8384C238.757 62.4077 238.961 62.0338 239.224 61.7165C239.487 61.3992 239.8 61.1544 240.162 60.9822C240.529 60.8054 240.935 60.717 241.379 60.717C241.742 60.717 242.068 60.7669 242.358 60.8666C242.648 60.9618 242.895 61.1159 243.099 61.3289C243.308 61.542 243.467 61.8185 243.575 62.1584C243.684 62.4939 243.739 62.9041 243.739 63.3891V68.2097H242.474V63.3755C242.474 62.9902 242.417 62.682 242.304 62.4508C242.191 62.2151 242.025 62.0451 241.808 61.9409C241.59 61.8321 241.323 61.7777 241.005 61.7777C240.693 61.7777 240.407 61.8434 240.149 61.9749C239.895 62.1063 239.675 62.2876 239.489 62.5188C239.308 62.75 239.165 63.0151 239.061 63.3143C238.961 63.6089 238.911 63.9217 238.911 64.2526ZM248.729 60.853V61.8185H244.752V60.853H248.729ZM246.098 59.0648H247.356V66.3875C247.356 66.6368 247.394 66.8249 247.471 66.9519C247.548 67.0788 247.648 67.1626 247.771 67.2034C247.893 67.2442 248.024 67.2646 248.165 67.2646C248.269 67.2646 248.378 67.2556 248.491 67.2374C248.609 67.2148 248.697 67.1966 248.756 67.183L248.763 68.2097C248.663 68.2414 248.532 68.2709 248.369 68.2981C248.21 68.3298 248.018 68.3457 247.791 68.3457C247.483 68.3457 247.199 68.2845 246.941 68.1621C246.683 68.0397 246.476 67.8358 246.322 67.5502C246.173 67.2601 246.098 66.8703 246.098 66.3807V59.0648ZM259.125 65.7076C259.125 65.4764 259.089 65.2725 259.016 65.0957C258.948 64.9144 258.826 64.7512 258.649 64.6061C258.477 64.4611 258.237 64.3228 257.929 64.1914C257.625 64.0599 257.24 63.9262 256.773 63.7902C256.283 63.6452 255.841 63.4843 255.447 63.3075C255.052 63.1262 254.715 62.9199 254.434 62.6888C254.153 62.4576 253.937 62.1924 253.788 61.8933C253.638 61.5941 253.563 61.2519 253.563 60.8666C253.563 60.4813 253.643 60.1255 253.801 59.7991C253.96 59.4728 254.187 59.1895 254.481 58.9492C254.78 58.7044 255.136 58.5141 255.549 58.3781C255.961 58.2421 256.421 58.1741 256.929 58.1741C257.672 58.1741 258.302 58.3169 258.819 58.6025C259.34 58.8835 259.737 59.2529 260.009 59.7107C260.281 60.164 260.417 60.649 260.417 61.1658H259.112C259.112 60.7941 259.032 60.4654 258.874 60.1799C258.715 59.8898 258.475 59.6631 258.153 59.5C257.831 59.3322 257.423 59.2484 256.929 59.2484C256.462 59.2484 256.077 59.3186 255.773 59.4592C255.469 59.5997 255.243 59.79 255.093 60.0303C254.948 60.2705 254.876 60.5448 254.876 60.853C254.876 61.0615 254.919 61.2519 255.005 61.4241C255.096 61.5918 255.234 61.7482 255.42 61.8933C255.61 62.0383 255.85 62.172 256.14 62.2944C256.435 62.4168 256.786 62.5347 257.194 62.648C257.756 62.8066 258.241 62.9834 258.649 63.1783C259.057 63.3732 259.393 63.5931 259.655 63.8378C259.923 64.0781 260.12 64.3523 260.247 64.6605C260.378 64.9642 260.444 65.3087 260.444 65.694C260.444 66.0974 260.363 66.4623 260.199 66.7887C260.036 67.115 259.803 67.3938 259.499 67.625C259.195 67.8562 258.831 68.0352 258.404 68.1621C257.983 68.2845 257.511 68.3457 256.99 68.3457C256.532 68.3457 256.081 68.2822 255.637 68.1553C255.197 68.0284 254.796 67.838 254.434 67.5842C254.076 67.3304 253.788 67.0176 253.57 66.6459C253.357 66.2697 253.251 65.8345 253.251 65.3405H254.556C254.556 65.6804 254.622 65.9728 254.753 66.2176C254.885 66.4578 255.064 66.6572 255.29 66.8159C255.522 66.9745 255.782 67.0924 256.072 67.1694C256.367 67.242 256.673 67.2782 256.99 67.2782C257.448 67.2782 257.836 67.2148 258.153 67.0878C258.47 66.9609 258.71 66.7796 258.874 66.5439C259.041 66.3082 259.125 66.0294 259.125 65.7076ZM265.006 60.853V61.8185H261.029V60.853H265.006ZM262.375 59.0648H263.633V66.3875C263.633 66.6368 263.672 66.8249 263.749 66.9519C263.826 67.0788 263.925 67.1626 264.048 67.2034C264.17 67.2442 264.302 67.2646 264.442 67.2646C264.546 67.2646 264.655 67.2556 264.768 67.2374C264.886 67.2148 264.975 67.1966 265.034 67.183L265.04 68.2097C264.941 68.2414 264.809 68.2709 264.646 68.2981C264.487 68.3298 264.295 68.3457 264.068 68.3457C263.76 68.3457 263.477 68.2845 263.218 68.1621C262.96 68.0397 262.754 67.8358 262.6 67.5502C262.45 67.2601 262.375 66.8703 262.375 66.3807V59.0648ZM270.82 66.9519V63.1647C270.82 62.8746 270.761 62.623 270.643 62.41C270.53 62.1924 270.357 62.0247 270.126 61.9069C269.895 61.789 269.61 61.7301 269.27 61.7301C268.952 61.7301 268.673 61.7845 268.433 61.8933C268.198 62.0021 268.012 62.1448 267.876 62.3216C267.744 62.4984 267.679 62.6888 267.679 62.8927H266.421C266.421 62.6298 266.489 62.3692 266.625 62.1108C266.761 61.8525 266.956 61.619 267.209 61.4105C267.468 61.1975 267.776 61.0298 268.134 60.9074C268.497 60.7805 268.9 60.717 269.344 60.717C269.879 60.717 270.351 60.8077 270.759 60.989C271.171 61.1703 271.493 61.4445 271.724 61.8117C271.96 62.1743 272.078 62.6298 272.078 63.1783V66.6051C272.078 66.8499 272.098 67.1105 272.139 67.387C272.184 67.6635 272.25 67.9015 272.336 68.1009V68.2097H271.024C270.96 68.0647 270.91 67.872 270.874 67.6318C270.838 67.387 270.82 67.1604 270.82 66.9519ZM271.037 63.7494L271.051 64.6333H269.779C269.421 64.6333 269.102 64.6628 268.821 64.7217C268.54 64.7761 268.304 64.86 268.114 64.9733C267.923 65.0866 267.778 65.2294 267.679 65.4017C267.579 65.5694 267.529 65.7665 267.529 65.9932C267.529 66.2244 267.581 66.4351 267.685 66.6255C267.79 66.8159 267.946 66.9677 268.154 67.0811C268.368 67.1898 268.628 67.2442 268.936 67.2442C269.322 67.2442 269.662 67.1626 269.956 66.9995C270.251 66.8363 270.484 66.6368 270.657 66.4011C270.833 66.1654 270.929 65.9365 270.942 65.7144L271.479 66.3195C271.448 66.5099 271.361 66.7207 271.221 66.9519C271.08 67.183 270.892 67.4051 270.657 67.6182C270.425 67.8267 270.149 68.0012 269.827 68.1417C269.51 68.2777 269.152 68.3457 268.753 68.3457C268.254 68.3457 267.817 68.2482 267.441 68.0533C267.069 67.8584 266.779 67.5978 266.57 67.2714C266.366 66.9405 266.264 66.5711 266.264 66.1632C266.264 65.7688 266.341 65.422 266.495 65.1229C266.65 64.8192 266.872 64.5676 267.162 64.3682C267.452 64.1642 267.801 64.0101 268.209 63.9058C268.617 63.8016 269.072 63.7494 269.576 63.7494H271.037ZM277.136 60.853V61.8185H273.159V60.853H277.136ZM274.505 59.0648H275.763V66.3875C275.763 66.6368 275.801 66.8249 275.878 66.9519C275.955 67.0788 276.055 67.1626 276.178 67.2034C276.3 67.2442 276.431 67.2646 276.572 67.2646C276.676 67.2646 276.785 67.2556 276.898 67.2374C277.016 67.2148 277.104 67.1966 277.163 67.183L277.17 68.2097C277.07 68.2414 276.939 68.2709 276.776 68.2981C276.617 68.3298 276.425 68.3457 276.198 68.3457C275.89 68.3457 275.606 68.2845 275.348 68.1621C275.09 68.0397 274.883 67.8358 274.729 67.5502C274.58 67.2601 274.505 66.8703 274.505 66.3807V59.0648ZM281.664 68.3457C281.152 68.3457 280.688 68.2596 280.271 68.0873C279.858 67.9106 279.502 67.6635 279.203 67.3462C278.909 67.0289 278.682 66.6527 278.523 66.2176C278.365 65.7824 278.285 65.3065 278.285 64.7897V64.5042C278.285 63.9058 278.374 63.3732 278.55 62.9063C278.727 62.4349 278.967 62.036 279.271 61.7097C279.575 61.3833 279.919 61.1363 280.305 60.9686C280.69 60.8009 281.089 60.717 281.501 60.717C282.027 60.717 282.48 60.8077 282.861 60.989C283.246 61.1703 283.561 61.4241 283.806 61.7505C284.051 62.0723 284.232 62.4531 284.35 62.8927C284.468 63.3279 284.527 63.8038 284.527 64.3206V64.8849H279.033V63.8582H283.269V63.763C283.251 63.4367 283.183 63.1194 283.065 62.8112C282.952 62.5029 282.77 62.2491 282.521 62.0496C282.272 61.8502 281.932 61.7505 281.501 61.7505C281.216 61.7505 280.953 61.8117 280.713 61.9341C280.472 62.0519 280.266 62.2287 280.094 62.4644C279.922 62.7001 279.788 62.9879 279.693 63.3279C279.598 63.6679 279.55 64.0599 279.55 64.5042V64.7897C279.55 65.1387 279.598 65.4674 279.693 65.7756C279.792 66.0793 279.935 66.3467 280.121 66.5779C280.311 66.8091 280.54 66.9904 280.808 67.1218C281.08 67.2533 281.388 67.319 281.732 67.319C282.177 67.319 282.553 67.2284 282.861 67.0471C283.169 66.8657 283.439 66.6232 283.67 66.3195L284.432 66.9247C284.273 67.1649 284.071 67.3938 283.827 67.6114C283.582 67.829 283.28 68.0057 282.922 68.1417C282.569 68.2777 282.149 68.3457 281.664 68.3457ZM287.247 62.3148V68.2097H285.982V60.853H287.179L287.247 62.3148ZM286.988 64.2526L286.404 64.2322C286.408 63.729 286.474 63.2644 286.601 62.8384C286.728 62.4077 286.916 62.0338 287.165 61.7165C287.414 61.3992 287.725 61.1544 288.097 60.9822C288.468 60.8054 288.899 60.717 289.388 60.717C289.733 60.717 290.05 60.7669 290.34 60.8666C290.63 60.9618 290.882 61.1136 291.095 61.3221C291.308 61.5306 291.473 61.7981 291.591 62.1244C291.709 62.4508 291.768 62.8452 291.768 63.3075V68.2097H290.51V63.3687C290.51 62.9834 290.445 62.6752 290.313 62.444C290.186 62.2128 290.005 62.0451 289.769 61.9409C289.533 61.8321 289.257 61.7777 288.94 61.7777C288.568 61.7777 288.257 61.8434 288.008 61.9749C287.759 62.1063 287.559 62.2876 287.41 62.5188C287.26 62.75 287.151 63.0151 287.083 63.3143C287.02 63.6089 286.988 63.9217 286.988 64.2526ZM291.754 63.5591L290.911 63.8174C290.916 63.414 290.982 63.0265 291.109 62.6548C291.24 62.2831 291.428 61.9522 291.673 61.6621C291.922 61.372 292.228 61.1431 292.591 60.9754C292.953 60.8031 293.368 60.717 293.835 60.717C294.229 60.717 294.578 60.7691 294.882 60.8734C295.19 60.9776 295.449 61.1386 295.657 61.3561C295.87 61.5692 296.031 61.8434 296.14 62.1788C296.249 62.5143 296.303 62.9131 296.303 63.3755V68.2097H295.038V63.3619C295.038 62.9494 294.973 62.6298 294.841 62.4032C294.714 62.172 294.533 62.0111 294.297 61.9205C294.066 61.8253 293.79 61.7777 293.468 61.7777C293.191 61.7777 292.947 61.8253 292.734 61.9205C292.521 62.0157 292.341 62.1471 292.196 62.3148C292.051 62.478 291.94 62.6661 291.863 62.8791C291.791 63.0922 291.754 63.3188 291.754 63.5591ZM301.26 68.3457C300.748 68.3457 300.283 68.2596 299.866 68.0873C299.453 67.9106 299.098 67.6635 298.798 67.3462C298.504 67.0289 298.277 66.6527 298.119 66.2176C297.96 65.7824 297.881 65.3065 297.881 64.7897V64.5042C297.881 63.9058 297.969 63.3732 298.146 62.9063C298.323 62.4349 298.563 62.036 298.866 61.7097C299.17 61.3833 299.515 61.1363 299.9 60.9686C300.285 60.8009 300.684 60.717 301.097 60.717C301.622 60.717 302.076 60.8077 302.456 60.989C302.842 61.1703 303.157 61.4241 303.401 61.7505C303.646 62.0723 303.828 62.4531 303.945 62.8927C304.063 63.3279 304.122 63.8038 304.122 64.3206V64.8849H298.628V63.8582H302.864V63.763C302.846 63.4367 302.778 63.1194 302.66 62.8112C302.547 62.5029 302.366 62.2491 302.116 62.0496C301.867 61.8502 301.527 61.7505 301.097 61.7505C300.811 61.7505 300.548 61.8117 300.308 61.9341C300.068 62.0519 299.861 62.2287 299.689 62.4644C299.517 62.7001 299.383 62.9879 299.288 63.3279C299.193 63.6679 299.145 64.0599 299.145 64.5042V64.7897C299.145 65.1387 299.193 65.4674 299.288 65.7756C299.388 66.0793 299.53 66.3467 299.716 66.5779C299.907 66.8091 300.136 66.9904 300.403 67.1218C300.675 67.2533 300.983 67.319 301.328 67.319C301.772 67.319 302.148 67.2284 302.456 67.0471C302.765 66.8657 303.034 66.6232 303.266 66.3195L304.027 66.9247C303.868 67.1649 303.667 67.3938 303.422 67.6114C303.177 67.829 302.876 68.0057 302.518 68.1417C302.164 68.2777 301.745 68.3457 301.26 68.3457ZM306.849 62.4236V68.2097H305.591V60.853H306.781L306.849 62.4236ZM306.55 64.2526L306.026 64.2322C306.031 63.729 306.105 63.2644 306.25 62.8384C306.395 62.4077 306.599 62.0338 306.862 61.7165C307.125 61.3992 307.438 61.1544 307.801 60.9822C308.168 60.8054 308.573 60.717 309.018 60.717C309.38 60.717 309.707 60.7669 309.997 60.8666C310.287 60.9618 310.534 61.1159 310.738 61.3289C310.946 61.542 311.105 61.8185 311.214 62.1584C311.323 62.4939 311.377 62.9041 311.377 63.3891V68.2097H310.112V63.3755C310.112 62.9902 310.056 62.682 309.942 62.4508C309.829 62.2151 309.664 62.0451 309.446 61.9409C309.228 61.8321 308.961 61.7777 308.644 61.7777C308.331 61.7777 308.045 61.8434 307.787 61.9749C307.533 62.1063 307.313 62.2876 307.127 62.5188C306.946 62.75 306.803 63.0151 306.699 63.3143C306.599 63.6089 306.55 63.9217 306.55 64.2526ZM316.368 60.853V61.8185H312.39V60.853H316.368ZM313.736 59.0648H314.994V66.3875C314.994 66.6368 315.033 66.8249 315.11 66.9519C315.187 67.0788 315.286 67.1626 315.409 67.2034C315.531 67.2442 315.663 67.2646 315.803 67.2646C315.907 67.2646 316.016 67.2556 316.13 67.2374C316.247 67.2148 316.336 67.1966 316.395 67.183L316.402 68.2097C316.302 68.2414 316.17 68.2709 316.007 68.2981C315.849 68.3298 315.656 68.3457 315.429 68.3457C315.121 68.3457 314.838 68.2845 314.579 68.1621C314.321 68.0397 314.115 67.8358 313.961 67.5502C313.811 67.2601 313.736 66.8703 313.736 66.3807V59.0648ZM323.16 66.9043L325.05 60.853H325.88L325.716 62.0564L323.792 68.2097H322.983L323.16 66.9043ZM321.889 60.853L323.5 66.9723L323.615 68.2097H322.766L320.631 60.853H321.889ZM327.688 66.9247L329.225 60.853H330.476L328.341 68.2097H327.498L327.688 66.9247ZM326.063 60.853L327.913 66.8023L328.123 68.2097H327.321L325.342 62.0428L325.179 60.853H326.063ZM333.134 60.853V68.2097H331.87V60.853H333.134ZM331.775 58.9016C331.775 58.6976 331.836 58.5254 331.958 58.3849C332.085 58.2444 332.271 58.1741 332.516 58.1741C332.756 58.1741 332.939 58.2444 333.066 58.3849C333.198 58.5254 333.264 58.6976 333.264 58.9016C333.264 59.0965 333.198 59.2642 333.066 59.4048C332.939 59.5407 332.756 59.6087 332.516 59.6087C332.271 59.6087 332.085 59.5407 331.958 59.4048C331.836 59.2642 331.775 59.0965 331.775 58.9016ZM338.234 60.853V61.8185H334.256V60.853H338.234ZM335.602 59.0648H336.86V66.3875C336.86 66.6368 336.899 66.8249 336.976 66.9519C337.053 67.0788 337.153 67.1626 337.275 67.2034C337.397 67.2442 337.529 67.2646 337.669 67.2646C337.774 67.2646 337.882 67.2556 337.996 67.2374C338.114 67.2148 338.202 67.1966 338.261 67.183L338.268 68.2097C338.168 68.2414 338.037 68.2709 337.873 68.2981C337.715 68.3298 337.522 68.3457 337.295 68.3457C336.987 68.3457 336.704 68.2845 336.446 68.1621C336.187 68.0397 335.981 67.8358 335.827 67.5502C335.677 67.2601 335.602 66.8703 335.602 66.3807V59.0648ZM340.967 57.7662V68.2097H339.709V57.7662H340.967ZM340.668 64.2526L340.144 64.2322C340.149 63.729 340.224 63.2644 340.369 62.8384C340.514 62.4077 340.718 62.0338 340.981 61.7165C341.244 61.3992 341.556 61.1544 341.919 60.9822C342.286 60.8054 342.692 60.717 343.136 60.717C343.499 60.717 343.825 60.7669 344.115 60.8666C344.405 60.9618 344.652 61.1159 344.856 61.3289C345.065 61.542 345.223 61.8185 345.332 62.1584C345.441 62.4939 345.495 62.9041 345.495 63.3891V68.2097H344.231V63.3755C344.231 62.9902 344.174 62.682 344.061 62.4508C343.947 62.2151 343.782 62.0451 343.564 61.9409C343.347 61.8321 343.079 61.7777 342.762 61.7777C342.449 61.7777 342.164 61.8434 341.905 61.9749C341.651 62.1063 341.432 62.2876 341.246 62.5188C341.064 62.75 340.922 63.0151 340.817 63.3143C340.718 63.6089 340.668 63.9217 340.668 64.2526ZM353.702 68.2097H351.635L351.649 67.1422H353.702C354.409 67.1422 354.998 66.9949 355.47 66.7003C355.941 66.4011 356.295 65.9841 356.53 65.4492C356.771 64.9098 356.891 64.2798 356.891 63.5591V62.9539C356.891 62.3873 356.823 61.8842 356.687 61.4445C356.551 61.0003 356.351 60.6264 356.088 60.3227C355.826 60.0144 355.504 59.781 355.123 59.6223C354.747 59.4637 354.314 59.3844 353.824 59.3844H351.594V58.3101H353.824C354.473 58.3101 355.064 58.4189 355.599 58.6365C356.134 58.8495 356.594 59.16 356.979 59.5679C357.369 59.9714 357.668 60.4609 357.877 61.0366C358.085 61.6077 358.189 62.2514 358.189 62.9675V63.5591C358.189 64.2753 358.085 64.9212 357.877 65.4968C357.668 66.068 357.367 66.5552 356.972 66.9587C356.583 67.3621 356.111 67.6726 355.558 67.8902C355.01 68.1032 354.391 68.2097 353.702 68.2097ZM352.335 58.3101V68.2097H351.023V58.3101H352.335ZM363.812 64.3274H361.167V63.2599H363.812C364.325 63.2599 364.739 63.1783 365.057 63.0151C365.374 62.852 365.605 62.6253 365.75 62.3352C365.9 62.0451 365.974 61.7142 365.974 61.3425C365.974 61.0026 365.9 60.683 365.75 60.3838C365.605 60.0847 365.374 59.8444 365.057 59.6631C364.739 59.4773 364.325 59.3844 363.812 59.3844H361.473V68.2097H360.161V58.3101H363.812C364.56 58.3101 365.193 58.4393 365.709 58.6976C366.226 58.956 366.618 59.3141 366.886 59.7719C367.153 60.2252 367.287 60.7442 367.287 61.3289C367.287 61.9635 367.153 62.5052 366.886 62.9539C366.618 63.4027 366.226 63.7449 365.709 63.9806C365.193 64.2118 364.56 64.3274 363.812 64.3274ZM368.946 58.3101H372.223C372.966 58.3101 373.594 58.4234 374.106 58.6501C374.623 58.8767 375.015 59.2121 375.283 59.6563C375.555 60.096 375.691 60.6377 375.691 61.2813C375.691 61.7346 375.598 62.1494 375.412 62.5256C375.23 62.8973 374.968 63.2146 374.623 63.4775C374.283 63.7358 373.875 63.9285 373.399 64.0554L373.032 64.1982H369.952L369.938 63.1307H372.264C372.735 63.1307 373.127 63.0491 373.44 62.8859C373.753 62.7182 373.988 62.4939 374.147 62.2128C374.306 61.9318 374.385 61.6213 374.385 61.2813C374.385 60.9006 374.31 60.5674 374.161 60.2819C374.011 59.9963 373.775 59.7765 373.454 59.6223C373.136 59.4637 372.726 59.3844 372.223 59.3844H370.258V68.2097H368.946V58.3101ZM374.732 68.2097L372.325 63.7222L373.692 63.7155L376.132 68.1281V68.2097H374.732ZM378.839 58.3101V68.2097H377.526V58.3101H378.839ZM384.815 58.3101L380.702 62.9267L378.39 65.3269L378.172 63.9262L379.913 62.0089L383.238 58.3101H384.815ZM383.55 68.2097L379.886 63.3823L380.668 62.342L385.114 68.2097H383.55Z" fill="black"/>
</svg>
