<svg width="39" height="52" viewBox="0 0 39 52" fill="none" xmlns="http://www.w3.org/2000/svg">
<rect width="39" height="52" fill=""/>
<g clip-path="url(#clip0_39_124700)">
<g filter="url(#filter0_d_39_124700)">
<rect width="35" height="35.5552" transform="translate(2 2.125)" fill="white"/>
<g opacity="0.3">
<rect width="35" height="33.5552" transform="translate(2 2.125)" fill="white"/>
<path d="M6 7.68018V6.125H6.77164V7.68018H6Z" fill="black"/>
<path d="M6.59592 7.68018V6.125H7.2135V7.68018H6.59592Z" fill="black"/>
<path d="M7.19184 7.68018V6.125H9.35338V7.68018H7.19184Z" fill="black"/>
<path d="M9.1383 7.68018V6.125H9.90994V7.68018H9.1383Z" fill="black"/>
<path d="M9.73422 7.68018V6.125H11.2782V7.68018H9.73422Z" fill="black"/>
<path d="M10.9477 7.68018V6.125H11.5653V7.68018H10.9477Z" fill="black"/>
<path d="M11.5436 7.68018V6.125H12.9329V7.68018H11.5436Z" fill="black"/>
<path d="M12.7572 7.68018V6.125H13.9916V7.68018H12.7572Z" fill="black"/>
<path d="M13.8159 7.68018V6.125H14.8964V7.68018H13.8159Z" fill="black"/>
<path d="M14.5666 7.68018V6.125H16.1105V7.68018H14.5666Z" fill="black"/>
<path d="M15.9348 7.68018V6.125H16.5524V7.68018H15.9348Z" fill="black"/>
<path d="M16.376 7.68018V6.125H17.92V7.68018H16.376Z" fill="black"/>
<path d="M17.6669 7.68018V6.125H19.2108V7.68018H17.6669Z" fill="black"/>
<path d="M19.0351 7.68018V6.125H20.4243V7.68018H19.0351Z" fill="black"/>
<path d="M20.1142 7.68018V6.125H21.6582V7.68018H20.1142Z" fill="black"/>
<path d="M21.3277 7.68018V6.125H22.8717V7.68018H21.3277Z" fill="black"/>
<path d="M22.5413 7.68018V6.125H23.1588V7.68018H22.5413Z" fill="black"/>
<path d="M22.9824 7.68018V6.125H24.0629V7.68018H22.9824Z" fill="black"/>
<path d="M23.7331 7.68018V6.125H25.2771V7.68018H23.7331Z" fill="black"/>
<path d="M25.1013 7.68018V6.125H26.6453V7.68018H25.1013Z" fill="black"/>
<path d="M26.3922 7.68018V6.125H27.4726V7.68018H26.3922Z" fill="black"/>
<path d="M27.1429 7.68018V6.125H27.7604V7.68018H27.1429Z" fill="black"/>
<path d="M27.7388 7.68018V6.125H29.128V7.68018H27.7388Z" fill="black"/>
<path d="M29.107 7.68018V6.125H30.3415V7.68018H29.107Z" fill="black"/>
<path d="M30.1658 7.68018V6.125H32.3273V7.68018H30.1658Z" fill="black"/>
<path d="M32.0742 7.68018V6.125H32.6918V7.68018H32.0742Z" fill="black"/>
<path d="M6 10.6802V9.125H7.08043V10.6802H6Z" fill="black"/>
<path d="M6.90539 10.6802V9.125H8.29462V10.6802H6.90539Z" fill="black"/>
<path d="M8.08089 10.6802V9.125H8.69847V10.6802H8.08089Z" fill="black"/>
<path d="M8.52208 10.6802V9.125H9.60251V10.6802H8.52208Z" fill="black"/>
<path d="M9.27273 10.6802V9.125H10.8167V10.6802H9.27273Z" fill="black"/>
<path d="M10.641 10.6802V9.125H12.1849V10.6802H10.641Z" fill="black"/>
<path d="M11.8545 10.6802V9.125H12.4721V10.6802H11.8545Z" fill="black"/>
<path d="M12.2957 10.6802V9.125H13.3761V10.6802H12.2957Z" fill="black"/>
<path d="M13.0463 10.6802V9.125H14.1268V10.6802H13.0463Z" fill="black"/>
<path d="M13.9517 10.6802V9.125H15.9592V10.6802H13.9517Z" fill="black"/>
<path d="M15.8602 10.6802V9.125H17.4041V10.6802H15.8602Z" fill="black"/>
<path d="M17.0737 10.6802V9.125H17.6913V10.6802H17.0737Z" fill="black"/>
<path d="M17.5149 10.6802V9.125H18.75V10.6802H17.5149Z" fill="black"/>
<path d="M18.575 10.6802V9.125H19.8095V10.6802H18.575Z" fill="black"/>
<path d="M19.6338 10.6802V9.125H21.023V10.6802H19.6338Z" fill="black"/>
<path d="M20.7129 10.6802V9.125H21.3305V10.6802H20.7129Z" fill="black"/>
<path d="M21.1541 10.6802V9.125H22.8528V10.6802H21.1541Z" fill="black"/>
<path d="M22.696 10.6802V9.125H23.9305V10.6802H22.696Z" fill="black"/>
<path d="M23.7548 10.6802V9.125H25.144V10.6802H23.7548Z" fill="black"/>
<path d="M24.8339 10.6802V9.125H25.9144V10.6802H24.8339Z" fill="black"/>
<path d="M25.5846 10.6802V9.125H27.1286V10.6802H25.5846Z" fill="black"/>
<path d="M26.9528 10.6802V9.125H27.5704V10.6802H26.9528Z" fill="black"/>
<path d="M6 13.6802V12.125H7.69869V13.6802H6Z" fill="black"/>
<path d="M7.60034 13.6802V12.125H8.83483V13.6802H7.60034Z" fill="black"/>
<path d="M8.65911 13.6802V12.125H10.0483V13.6802H8.65911Z" fill="black"/>
<path d="M9.73824 13.6802V12.125H11.2822V13.6802H9.73824Z" fill="black"/>
<path d="M10.9517 13.6802V12.125H12.4957V13.6802H10.9517Z" fill="black"/>
<path d="M12.2426 13.6802V12.125H12.8602V13.6802H12.2426Z" fill="black"/>
<path d="M12.6838 13.6802V12.125H13.7642V13.6802H12.6838Z" fill="black"/>
<path d="M13.5892 13.6802V12.125H14.8237V13.6802H13.5892Z" fill="black"/>
<path d="M14.648 13.6802V12.125H15.2655V13.6802H14.648Z" fill="black"/>
<path d="M15.0891 13.6802V12.125H16.6331V13.6802H15.0891Z" fill="black"/>
<path d="M16.4574 13.6802V12.125H17.8466V13.6802H16.4574Z" fill="black"/>
<path d="M17.6709 13.6802V12.125H19.2149V13.6802H17.6709Z" fill="black"/>
<path d="M18.9618 13.6802V12.125H19.5793V13.6802H18.9618Z" fill="black"/>
<path d="M19.403 13.6802V12.125H20.4834V13.6802H19.403Z" fill="black"/>
<path d="M20.1536 13.6802V12.125H21.6976V13.6802H20.1536Z" fill="black"/>
<path d="M21.5218 13.6802V12.125H23.0658V13.6802H21.5218Z" fill="black"/>
<path d="M22.7354 13.6802V12.125H23.3529V13.6802H22.7354Z" fill="black"/>
<path d="M23.1765 13.6802V12.125H24.7205V13.6802H23.1765Z" fill="black"/>
<path d="M24.5068 13.6802V12.125H25.5872V13.6802H24.5068Z" fill="black"/>
<path d="M25.5669 13.6802V12.125H26.9561V13.6802H25.5669Z" fill="black"/>
<path d="M26.7804 13.6802V12.125H28.3244V13.6802H26.7804Z" fill="black"/>
<path d="M28.0713 13.6802V12.125H28.6889V13.6802H28.0713Z" fill="black"/>
<path d="M28.6672 13.6802V12.125H29.9017V13.6802H28.6672Z" fill="black"/>
<path d="M29.726 13.6802V12.125H30.9611V13.6802H29.726Z" fill="black"/>
<path d="M30.6314 13.6802V12.125H31.2489V13.6802H30.6314Z" fill="black"/>
<path d="M6.15474 16.6802V15.125H7.54396V16.6802H6.15474Z" fill="black"/>
<path d="M7.2135 16.6802V15.125H8.75746V16.6802H7.2135Z" fill="black"/>
<path d="M8.42701 16.6802V15.125H9.50744V16.6802H8.42701Z" fill="black"/>
<path d="M9.3324 16.6802V15.125H10.4128V16.6802H9.3324Z" fill="black"/>
<path d="M10.2378 16.6802V15.125H11.3182V16.6802H10.2378Z" fill="black"/>
<path d="M11.1432 16.6802V15.125H12.6871V16.6802H11.1432Z" fill="black"/>
<path d="M12.5114 16.6802V15.125H14.0554V16.6802H12.5114Z" fill="black"/>
<path d="M13.7249 16.6802V15.125H15.1142V16.6802H13.7249Z" fill="black"/>
<path d="M14.8041 16.6802V15.125H16.348V16.6802H14.8041Z" fill="black"/>
<path d="M16.1723 16.6802V15.125H17.5615V16.6802H16.1723Z" fill="black"/>
<path d="M17.3858 16.6802V15.125H18.4662V16.6802H17.3858Z" fill="black"/>
<path d="M18.1365 16.6802V15.125H18.754V16.6802H18.1365Z" fill="black"/>
<path d="M18.5776 16.6802V15.125H20.1216V16.6802H18.5776Z" fill="black"/>
<path d="M20.0232 16.6802V15.125H21.4125V16.6802H20.0232Z" fill="black"/>
<path d="M21.3141 16.6802V15.125H22.7033V16.6802H21.3141Z" fill="black"/>
<path d="M22.4503 16.6802V15.125H23.8395V16.6802H22.4503Z" fill="black"/>
<path d="M23.6841 16.6802V15.125H24.9186V16.6802H23.6841Z" fill="black"/>
<path d="M24.7429 16.6802V15.125H26.2869V16.6802H24.7429Z" fill="black"/>
<path d="M26.0338 16.6802V15.125H27.423V16.6802H26.0338Z" fill="black"/>
<path d="M27.1699 16.6802V15.125H28.7139V16.6802H27.1699Z" fill="black"/>
<path d="M28.5381 16.6802V15.125H29.1557V16.6802H28.5381Z" fill="black"/>
<path d="M6 19.6802V18.125H7.08043V19.6802H6Z" fill="black"/>
<path d="M6.75066 19.6802V18.125H8.29462V19.6802H6.75066Z" fill="black"/>
<path d="M8.1189 19.6802V18.125H9.66286V19.6802H8.1189Z" fill="black"/>
<path d="M9.40977 19.6802V18.125H10.4902V19.6802H9.40977Z" fill="black"/>
<path d="M10.1604 19.6802V18.125H10.778V19.6802H10.1604Z" fill="black"/>
<path d="M10.6016 19.6802V18.125H11.682V19.6802H10.6016Z" fill="black"/>
<path d="M11.3523 19.6802V18.125H12.8962V19.6802H11.3523Z" fill="black"/>
<path d="M12.7205 19.6802V18.125H14.2645V19.6802H12.7205Z" fill="black"/>
<path d="M14.0887 19.6802V18.125H15.478V19.6802H14.0887Z" fill="black"/>
<path d="M15.2249 19.6802V18.125H15.9965V19.6802H15.2249Z" fill="black"/>
<path d="M15.8208 19.6802V18.125H17.21V19.6802H15.8208Z" fill="black"/>
<path d="M17.1117 19.6802V18.125H18.6556V19.6802H17.1117Z" fill="black"/>
<path d="M18.3252 19.6802V18.125H18.9428V19.6802H18.3252Z" fill="black"/>
<path d="M18.9211 19.6802V18.125H20.3103V19.6802H18.9211Z" fill="black"/>
<path d="M19.9799 19.6802V18.125H21.5238V19.6802H19.9799Z" fill="black"/>
<path d="M21.1934 19.6802V18.125H22.7373V19.6802H21.1934Z" fill="black"/>
<path d="M22.5616 19.6802V18.125H23.9508V19.6802H22.5616Z" fill="black"/>
<path d="M23.7751 19.6802V18.125H24.3927V19.6802H23.7751Z" fill="black"/>
<path d="M24.2163 19.6802V18.125H25.2967V19.6802H24.2163Z" fill="black"/>
<path d="M24.967 19.6802V18.125H26.5109V19.6802H24.967Z" fill="black"/>
<path d="M26.2578 19.6802V18.125H27.8018V19.6802H26.2578Z" fill="black"/>
<path d="M27.5881 19.6802V18.125H28.6685V19.6802H27.5881Z" fill="black"/>
<path d="M28.6482 19.6802V18.125H30.0374V19.6802H28.6482Z" fill="black"/>
<path d="M29.8617 19.6802V18.125H31.4057V19.6802H29.8617Z" fill="black"/>
<path d="M31.2299 19.6802V18.125H32.0016V19.6802H31.2299Z" fill="black"/>
<path d="M31.7485 19.6802V18.125H32.3661V19.6802H31.7485Z" fill="black"/>
<path d="M6 22.6802V21.125H7.54396V22.6802H6Z" fill="black"/>
<path d="M7.44561 22.6802V21.125H8.83483V22.6802H7.44561Z" fill="black"/>
<path d="M8.65911 22.6802V21.125H10.2031V22.6802H8.65911Z" fill="black"/>
<path d="M9.94998 22.6802V21.125H10.5676V22.6802H9.94998Z" fill="black"/>
<path d="M10.3912 22.6802V21.125H11.4716V22.6802H10.3912Z" fill="black"/>
<path d="M11.2966 22.6802V21.125H12.531V22.6802H11.2966Z" fill="black"/>
<path d="M12.3553 22.6802V21.125H12.9729V22.6802H12.3553Z" fill="black"/>
<path d="M12.7965 22.6802V21.125H13.8769V22.6802H12.7965Z" fill="black"/>
<path d="M13.5472 22.6802V21.125H14.9364V22.6802H13.5472Z" fill="black"/>
<path d="M14.781 22.6802V21.125H16.1703V22.6802H14.781Z" fill="black"/>
<path d="M15.9172 22.6802V21.125H16.5348V22.6802H15.9172Z" fill="black"/>
<path d="M16.3584 22.6802V21.125H17.4388V22.6802H16.3584Z" fill="black"/>
<path d="M17.2637 22.6802V21.125H18.4982V22.6802H17.2637Z" fill="black"/>
<path d="M18.3225 22.6802V21.125H18.9401V22.6802H18.3225Z" fill="black"/>
<path d="M18.7637 22.6802V21.125H19.8441V22.6802H18.7637Z" fill="black"/>
<path d="M19.8238 22.6802V21.125H21.0583V22.6802H19.8238Z" fill="black"/>
<path d="M20.8826 22.6802V21.125H23.0441V22.6802H20.8826Z" fill="black"/>
<path d="M22.7911 22.6802V21.125H24.335V22.6802H22.7911Z" fill="black"/>
<path d="M24.0046 22.6802V21.125H25.3938V22.6802H24.0046Z" fill="black"/>
<path d="M25.0837 22.6802V21.125H25.7013V22.6802H25.0837Z" fill="black"/>
<path d="M6 25.6802V24.125H7.08043V25.6802H6Z" fill="black"/>
<path d="M6.75066 25.6802V24.125H8.29462V25.6802H6.75066Z" fill="black"/>
<path d="M7.96416 25.6802V24.125H9.97165V25.6802H7.96416Z" fill="black"/>
<path d="M10.0274 25.6802V24.125H11.4166V25.6802H10.0274Z" fill="black"/>
<path d="M11.1635 25.6802V24.125H12.7074V25.6802H11.1635Z" fill="black"/>
<path d="M12.377 25.6802V24.125H13.7662V25.6802H12.377Z" fill="black"/>
<path d="M13.4181 25.6802V24.125H14.9621V25.6802H13.4181Z" fill="black"/>
<path d="M14.709 25.6802V24.125H15.7894V25.6802H14.709Z" fill="black"/>
<path d="M15.4596 25.6802V24.125H17.0036V25.6802H15.4596Z" fill="black"/>
<path d="M16.8279 25.6802V24.125H18.2171V25.6802H16.8279Z" fill="black"/>
<path d="M17.907 25.6802V24.125H19.451V25.6802H17.907Z" fill="black"/>
<path d="M19.1205 25.6802V24.125H20.5097V25.6802H19.1205Z" fill="black"/>
<path d="M20.296 25.6802V24.125H20.9136V25.6802H20.296Z" fill="black"/>
<path d="M20.7372 25.6802V24.125H21.5088V25.6802H20.7372Z" fill="black"/>
<path d="M21.3331 25.6802V24.125H22.1048V25.6802H21.3331Z" fill="black"/>
<path d="M21.929 25.6802V24.125H22.5466V25.6802H21.929Z" fill="black"/>
<path d="M22.525 25.6802V24.125H23.9142V25.6802H22.525Z" fill="black"/>
<path d="M23.8932 25.6802V24.125H25.1277V25.6802H23.8932Z" fill="black"/>
<path d="M25.1067 25.6802V24.125H26.4959V25.6802H25.1067Z" fill="black"/>
<path d="M26.3202 25.6802V24.125H27.5547V25.6802H26.3202Z" fill="black"/>
<path d="M27.379 25.6802V24.125H28.9229V25.6802H27.379Z" fill="black"/>
<path d="M28.7472 25.6802V24.125H30.1364V25.6802H28.7472Z" fill="black"/>
<path d="M29.8834 25.6802V24.125H30.5009V25.6802H29.8834Z" fill="black"/>
<path d="M6 28.6802V27.125H8.16154V28.6802H6Z" fill="black"/>
<path d="M7.83109 28.6802V27.125H9.37505V28.6802H7.83109Z" fill="black"/>
<path d="M9.2767 28.6802V27.125H10.6659V28.6802H9.2767Z" fill="black"/>
<path d="M10.4902 28.6802V27.125H11.5706V28.6802H10.4902Z" fill="black"/>
<path d="M11.2409 28.6802V27.125H12.6301V28.6802H11.2409Z" fill="black"/>
<path d="M12.4164 28.6802V27.125H13.0339V28.6802H12.4164Z" fill="black"/>
<path d="M12.8575 28.6802V27.125H13.938V28.6802H12.8575Z" fill="black"/>
<path d="M13.7629 28.6802V27.125H14.9974V28.6802H13.7629Z" fill="black"/>
<path d="M14.8217 28.6802V27.125H15.4393V28.6802H14.8217Z" fill="black"/>
<path d="M15.2629 28.6802V27.125H16.6521V28.6802H15.2629Z" fill="black"/>
<path d="M16.4384 28.6802V27.125H17.9823V28.6802H16.4384Z" fill="black"/>
<path d="M17.6519 28.6802V27.125H19.1959V28.6802H17.6519Z" fill="black"/>
<path d="M18.8654 28.6802V27.125H19.483V28.6802H18.8654Z" fill="black"/>
<path d="M19.3066 28.6802V27.125H20.8505V28.6802H19.3066Z" fill="black"/>
<path d="M20.5975 28.6802V27.125H21.215V28.6802H20.5975Z" fill="black"/>
<path d="M21.0386 28.6802V27.125H22.4279V28.6802H21.0386Z" fill="black"/>
<path d="M22.3295 28.6802V27.125H23.564V28.6802H22.3295Z" fill="black"/>
<path d="M23.543 28.6802V27.125H24.9322V28.6802H23.543Z" fill="black"/>
<path d="M24.7565 28.6802V27.125H25.9917V28.6802H24.7565Z" fill="black"/>
<path d="M25.6619 28.6802V27.125H26.7423V28.6802H25.6619Z" fill="black"/>
<path d="M26.5673 28.6802V27.125H27.6477V28.6802H26.5673Z" fill="black"/>
<path d="M27.4727 28.6802V27.125H28.8619V28.6802H27.4727Z" fill="black"/>
<path d="M28.6088 28.6802V27.125H29.6893V28.6802H28.6088Z" fill="black"/>
<path d="M29.3595 28.6802V27.125H29.9771V28.6802H29.3595Z" fill="black"/>
<path d="M29.9554 28.6802V27.125H31.1899V28.6802H29.9554Z" fill="black"/>
<path d="M31.1689 28.6802V27.125H32.5581V28.6802H31.1689Z" fill="black"/>
<path d="M32.3824 28.6802V27.125H33V28.6802H32.3824Z" fill="black"/>
<path d="M6 31.6802V30.125H7.08043V31.6802H6Z" fill="black"/>
<path d="M6.75066 31.6802V30.125H8.29462V31.6802H6.75066Z" fill="black"/>
<path d="M8.1189 31.6802V30.125H9.66286V31.6802H8.1189Z" fill="black"/>
<path d="M9.3324 31.6802V30.125H9.94998V31.6802H9.3324Z" fill="black"/>
<path d="M9.77359 31.6802V30.125H11.4723V31.6802H9.77359Z" fill="black"/>
<path d="M11.3739 31.6802V30.125H12.6084V31.6802H11.3739Z" fill="black"/>
<path d="M12.4327 31.6802V30.125H13.8219V31.6802H12.4327Z" fill="black"/>
<path d="M13.5118 31.6802V30.125H15.0558V31.6802H13.5118Z" fill="black"/>
<path d="M14.7253 31.6802V30.125H16.2693V31.6802H14.7253Z" fill="black"/>
<path d="M16.1709 31.6802V30.125H17.5602V31.6802H16.1709Z" fill="black"/>
<path d="M17.3844 31.6802V30.125H18.002V31.6802H17.3844Z" fill="black"/>
<path d="M17.9804 31.6802V30.125H19.5243V31.6802H17.9804Z" fill="black"/>
<path d="M19.2129 31.6802V30.125H20.7568V31.6802H19.2129Z" fill="black"/>
<path d="M20.5811 31.6802V30.125H21.9703V31.6802H20.5811Z" fill="black"/>
<path d="M21.7946 31.6802V30.125H22.875V31.6802H21.7946Z" fill="black"/>
<path d="M22.8547 31.6802V30.125H24.244V31.6802H22.8547Z" fill="black"/>
<path d="M24.0682 31.6802V30.125H25.4575V31.6802H24.0682Z" fill="black"/>
<path d="M25.2437 31.6802V30.125H26.7877V31.6802H25.2437Z" fill="black"/>
<path d="M26.612 31.6802V30.125H27.6924V31.6802H26.612Z" fill="black"/>
<path d="M27.5174 31.6802V30.125H29.0613V31.6802H27.5174Z" fill="black"/>
<path d="M28.8082 31.6802V30.125H29.5799V31.6802H28.8082Z" fill="black"/>
<path d="M29.3268 31.6802V30.125H30.0984V31.6802H29.3268Z" fill="black"/>
<path d="M6.30879 7.57559H32.383V7.64531H6.30879V7.57559ZM6.30879 10.5756H27.2616V10.6453H6.30879V10.5756ZM6.30879 13.5756H30.9395V13.6453H6.30879V13.5756ZM6.30879 16.5756H28.8469V16.6453H6.30879V16.5756ZM6.30879 19.5756H32.0573V19.6453H6.30879V19.5756ZM6.30879 22.5756H25.3918V22.6453H6.30879V22.5756ZM6.30879 25.5756H30.1922V25.6453H6.30879V25.5756ZM6.30879 28.5756H32.6912V28.6453H6.30879V28.5756ZM6.30879 31.5756H30.2871V31.6453H6.30879V31.5756Z" fill="black"/>
</g>
<rect width="12" height="14" transform="translate(25 22.6797)" fill="white"/>
<path d="M30.6787 26.541C31.5999 26.541 32.2721 26.7396 32.6953 27.1367C33.1185 27.5306 33.3301 28.0742 33.3301 28.7676C33.3301 29.0801 33.2829 29.3796 33.1885 29.666C33.0941 29.9492 32.9395 30.2015 32.7246 30.4229C32.513 30.6442 32.2298 30.82 31.875 30.9502C31.5202 31.0771 31.0824 31.1406 30.5615 31.1406H29.9121V33.6797H28.3984V26.541H30.6787ZM30.6006 27.7812H29.9121V29.9004H30.4102C30.6934 29.9004 30.9391 29.863 31.1475 29.7881C31.3558 29.7132 31.5169 29.596 31.6309 29.4365C31.7448 29.277 31.8018 29.0719 31.8018 28.8213C31.8018 28.4697 31.7041 28.2093 31.5088 28.04C31.3135 27.8675 31.0107 27.7812 30.6006 27.7812Z" fill="#585858"/>
</g>
<path d="M11.3333 42.6797H2V49.0278H11.3333V42.6797Z" fill="#805162"/>
</g>
<defs>
<filter id="filter0_d_39_124700" x="0" y="1.125" width="39" height="39.5547" filterUnits="userSpaceOnUse" color-interpolation-filters="sRGB">
<feFlood flood-opacity="0" result="BackgroundImageFix"/>
<feColorMatrix in="SourceAlpha" type="matrix" values="0 0 0 0 0 0 0 0 0 0 0 0 0 0 0 0 0 0 127 0" result="hardAlpha"/>
<feOffset dy="1"/>
<feGaussianBlur stdDeviation="1"/>
<feComposite in2="hardAlpha" operator="out"/>
<feColorMatrix type="matrix" values="0 0 0 0 0 0 0 0 0 0 0 0 0 0 0 0 0 0 0.1 0"/>
<feBlend mode="normal" in2="BackgroundImageFix" result="effect1_dropShadow_39_124700"/>
<feBlend mode="normal" in="SourceGraphic" in2="effect1_dropShadow_39_124700" result="shape"/>
</filter>
<clipPath id="clip0_39_124700">
<rect width="39" height="50.9033" fill="white" transform="translate(0 0.125)"/>
</clipPath>
</defs>
</svg>
