<svg width="41" height="79" viewBox="0 0 41 79" fill="none" xmlns="http://www.w3.org/2000/svg">
<rect width="41" height="79" fill=""/>
<rect width="35" height="62.5552" transform="translate(3 2.70508)" fill="white"/>
<g opacity="0.3">
<path d="M7 8.26025V6.70508H7.77087V8.26025H7Z" fill="black"/>
<path d="M7.59533 8.26025V6.70508H9.13774V8.26025H7.59533Z" fill="black"/>
<path d="M8.9622 8.26025V6.70508H10.5046V8.26025H8.9622Z" fill="black"/>
<path d="M10.3291 8.26025V6.70508H11.7169V8.26025H10.3291Z" fill="black"/>
<path d="M11.4071 8.26025V6.70508H12.0241V8.26025H11.4071Z" fill="black"/>
<path d="M11.8479 8.26025V6.70508H13.8534V8.26025H11.8479Z" fill="black"/>
<path d="M13.7544 8.26025V6.70508H15.2968V8.26025H13.7544Z" fill="black"/>
<path d="M14.9667 8.26025V6.70508H16.3546V8.26025H14.9667Z" fill="black"/>
<path d="M16.141 8.26025V6.70508H17.5289V8.26025H16.141Z" fill="black"/>
<path d="M17.3154 8.26025V6.70508H18.8578V8.26025H17.3154Z" fill="black"/>
<path d="M18.6049 8.26025V6.70508H20.1474V8.26025H18.6049Z" fill="black"/>
<path d="M19.9718 8.26025V6.70508H21.5142V8.26025H19.9718Z" fill="black"/>
<path d="M21.1841 8.26025V6.70508H21.8011V8.26025H21.1841Z" fill="black"/>
<path d="M21.6249 8.26025V6.70508H22.7042V8.26025H21.6249Z" fill="black"/>
<path d="M22.5293 8.26025V6.70508H23.9172V8.26025H22.5293Z" fill="black"/>
<path d="M23.7037 8.26025V6.70508H24.3206V8.26025H23.7037Z" fill="black"/>
<path d="M24.1444 8.26025V6.70508H25.5323V8.26025H24.1444Z" fill="black"/>
<path d="M25.2794 8.26025V6.70508H26.3588V8.26025H25.2794Z" fill="black"/>
<path d="M26.1839 8.26025V6.70508H27.7263V8.26025H26.1839Z" fill="black"/>
<path d="M27.3962 8.26025V6.70508H28.9386V8.26025H27.3962Z" fill="black"/>
<path d="M28.6858 8.26025V6.70508H30.0736V8.26025H28.6858Z" fill="black"/>
<path d="M29.7638 8.26025V6.70508H30.5347V8.26025H29.7638Z" fill="black"/>
<path d="M30.2819 8.26025V6.70508H30.8988V8.26025H30.2819Z" fill="black"/>
<path d="M30.7226 8.26025V6.70508H31.9565V8.26025H30.7226Z" fill="black"/>
<path d="M31.7803 8.26025V6.70508H33.0143V8.26025H31.7803Z" fill="black"/>
<path d="M32.6848 8.26025V6.70508H33.3018V8.26025H32.6848Z" fill="black"/>
<path d="M7 11.2603V9.70508H8.697V11.2603H7Z" fill="black"/>
<path d="M8.54044 11.2603V9.70508H9.77369V11.2603H8.54044Z" fill="black"/>
<path d="M9.59815 11.2603V9.70508H10.986V11.2603H9.59815Z" fill="black"/>
<path d="M10.6762 11.2603V9.70508H11.7556V11.2603H10.6762Z" fill="black"/>
<path d="M11.4261 11.2603V9.70508H12.9685V11.2603H11.4261Z" fill="black"/>
<path d="M12.793 11.2603V9.70508H13.4099V11.2603H12.793Z" fill="black"/>
<path d="M13.2337 11.2603V9.70508H14.9307V11.2603H13.2337Z" fill="black"/>
<path d="M14.8325 11.2603V9.70508H16.0657V11.2603H14.8325Z" fill="black"/>
<path d="M15.8902 11.2603V9.70508H17.278V11.2603H15.8902Z" fill="black"/>
<path d="M16.9682 11.2603V9.70508H18.5107V11.2603H16.9682Z" fill="black"/>
<path d="M18.1805 11.2603V9.70508H19.7229V11.2603H18.1805Z" fill="black"/>
<path d="M19.4701 11.2603V9.70508H20.0871V11.2603H19.4701Z" fill="black"/>
<path d="M19.9109 11.2603V9.70508H20.9902V11.2603H19.9109Z" fill="black"/>
<path d="M20.8153 11.2603V9.70508H22.2032V11.2603H20.8153Z" fill="black"/>
<path d="M21.9897 11.2603V9.70508H22.6066V11.2603H21.9897Z" fill="black"/>
<path d="M22.585 11.2603V9.70508H23.9728V11.2603H22.585Z" fill="black"/>
<path d="M23.72 11.2603V9.70508H25.1078V11.2603H23.72Z" fill="black"/>
<path d="M24.798 11.2603V9.70508H26.3405V11.2603H24.798Z" fill="black"/>
<path d="M26.1649 11.2603V9.70508H27.5528V11.2603H26.1649Z" fill="black"/>
<path d="M27.2999 11.2603V9.70508H28.8423V11.2603H27.2999Z" fill="black"/>
<path d="M28.5895 11.2603V9.70508H29.9773V11.2603H28.5895Z" fill="black"/>
<path d="M29.6676 11.2603V9.70508H31.21V11.2603H29.6676Z" fill="black"/>
<path d="M30.8799 11.2603V9.70508H32.4223V11.2603H30.8799Z" fill="black"/>
<path d="M32.1694 11.2603V9.70508H32.7864V11.2603H32.1694Z" fill="black"/>
<path d="M7 14.2603V12.7051H8.07935V14.2603H7Z" fill="black"/>
<path d="M7.90449 14.2603V12.7051H9.13774V14.2603H7.90449Z" fill="black"/>
<path d="M8.9622 14.2603V12.7051H9.57917V14.2603H8.9622Z" fill="black"/>
<path d="M9.40294 14.2603V12.7051H10.4823V14.2603H9.40294Z" fill="black"/>
<path d="M10.1529 14.2603V12.7051H11.6953V14.2603H10.1529Z" fill="black"/>
<path d="M11.4424 14.2603V12.7051H12.9849V14.2603H11.4424Z" fill="black"/>
<path d="M12.7713 14.2603V12.7051H14.3138V14.2603H12.7713Z" fill="black"/>
<path d="M13.9836 14.2603V12.7051H14.6006V14.2603H13.9836Z" fill="black"/>
<path d="M14.4244 14.2603V12.7051H15.8122V14.2603H14.4244Z" fill="black"/>
<path d="M15.714 14.2603V12.7051H16.9472V14.2603H15.714Z" fill="black"/>
<path d="M16.9263 14.2603V12.7051H18.3141V14.2603H16.9263Z" fill="black"/>
<path d="M18.1385 14.2603V12.7051H19.5264V14.2603H18.1385Z" fill="black"/>
<path d="M19.2735 14.2603V12.7051H20.6614V14.2603H19.2735Z" fill="black"/>
<path d="M20.3516 14.2603V12.7051H21.894V14.2603H20.3516Z" fill="black"/>
<path d="M21.5639 14.2603V12.7051H22.6432V14.2603H21.5639Z" fill="black"/>
<path d="M22.3138 14.2603V12.7051H23.8562V14.2603H22.3138Z" fill="black"/>
<path d="M23.5261 14.2603V12.7051H24.1431V14.2603H23.5261Z" fill="black"/>
<path d="M23.9668 14.2603V12.7051H25.5093V14.2603H23.9668Z" fill="black"/>
<path d="M25.411 14.2603V12.7051H26.7988V14.2603H25.411Z" fill="black"/>
<path d="M26.6233 14.2603V12.7051H28.1657V14.2603H26.6233Z" fill="black"/>
<path d="M27.9129 14.2603V12.7051H28.5298V14.2603H27.9129Z" fill="black"/>
<path d="M7 17.2603V15.7051H8.07935V17.2603H7Z" fill="black"/>
<path d="M7.90449 17.2603V15.7051H9.29232V17.2603H7.90449Z" fill="black"/>
<path d="M8.98254 17.2603V15.7051H10.3704V17.2603H8.98254Z" fill="black"/>
<path d="M10.0606 17.2603V15.7051H11.603V17.2603H10.0606Z" fill="black"/>
<path d="M11.2729 17.2603V15.7051H12.6607V17.2603H11.2729Z" fill="black"/>
<path d="M12.5625 17.2603V15.7051H14.1049V17.2603H12.5625Z" fill="black"/>
<path d="M13.7748 17.2603V15.7051H15.1626V17.2603H13.7748Z" fill="black"/>
<path d="M14.8528 17.2603V15.7051H16.2406V17.2603H14.8528Z" fill="black"/>
<path d="M16.0271 17.2603V15.7051H17.1065V17.2603H16.0271Z" fill="black"/>
<path d="M17.0862 17.2603V15.7051H18.474V17.2603H17.0862Z" fill="black"/>
<path d="M18.1439 17.2603V15.7051H19.2233V17.2603H18.1439Z" fill="black"/>
<path d="M19.0484 17.2603V15.7051H20.5908V17.2603H19.0484Z" fill="black"/>
<path d="M20.2607 17.2603V15.7051H20.8777V17.2603H20.2607Z" fill="black"/>
<path d="M20.7014 17.2603V15.7051H22.0893V17.2603H20.7014Z" fill="black"/>
<path d="M21.8758 17.2603V15.7051H22.9551V17.2603H21.8758Z" fill="black"/>
<path d="M22.6257 17.2603V15.7051H24.1681V17.2603H22.6257Z" fill="black"/>
<path d="M23.9925 17.2603V15.7051H25.3804V17.2603H23.9925Z" fill="black"/>
<path d="M25.1276 17.2603V15.7051H26.5154V17.2603H25.1276Z" fill="black"/>
<path d="M26.3019 17.2603V15.7051H26.9188V17.2603H26.3019Z" fill="black"/>
<path d="M26.7426 17.2603V15.7051H27.822V17.2603H26.7426Z" fill="black"/>
<path d="M27.6471 17.2603V15.7051H28.8804V17.2603H27.6471Z" fill="black"/>
<path d="M28.7048 17.2603V15.7051H29.3218V17.2603H28.7048Z" fill="black"/>
<path d="M7 20.2603V18.7051H8.23393V20.2603H7Z" fill="black"/>
<path d="M7.90449 20.2603V18.7051H9.44691V20.2603H7.90449Z" fill="black"/>
<path d="M9.27136 20.2603V18.7051H10.3507V20.2603H9.27136Z" fill="black"/>
<path d="M10.1758 20.2603V18.7051H11.4098V20.2603H10.1758Z" fill="black"/>
<path d="M11.0803 20.2603V18.7051H12.1597V20.2603H11.0803Z" fill="black"/>
<path d="M11.9848 20.2603V18.7051H13.0642V20.2603H11.9848Z" fill="black"/>
<path d="M12.8893 20.2603V18.7051H13.9687V20.2603H12.8893Z" fill="black"/>
<path d="M13.7938 20.2603V18.7051H14.4108V20.2603H13.7938Z" fill="black"/>
<path d="M14.2345 20.2603V18.7051H15.3139V20.2603H14.2345Z" fill="black"/>
<path d="M15.139 20.2603V18.7051H16.2184V20.2603H15.139Z" fill="black"/>
<path d="M15.8889 20.2603V18.7051H17.2768V20.2603H15.8889Z" fill="black"/>
<path d="M17.0633 20.2603V18.7051H17.6802V20.2603H17.0633Z" fill="black"/>
<path d="M17.6586 20.2603V18.7051H18.8918V20.2603H17.6586Z" fill="black"/>
<path d="M18.8709 20.2603V18.7051H20.2587V20.2603H18.8709Z" fill="black"/>
<path d="M19.9286 20.2603V18.7051H21.0079V20.2603H19.9286Z" fill="black"/>
<path d="M20.8331 20.2603V18.7051H21.9124V20.2603H20.8331Z" fill="black"/>
<path d="M21.7376 20.2603V18.7051H23.28V20.2603H21.7376Z" fill="black"/>
<path d="M23.1044 20.2603V18.7051H24.6469V20.2603H23.1044Z" fill="black"/>
<path d="M24.394 20.2603V18.7051H25.4734V20.2603H24.394Z" fill="black"/>
<path d="M25.1439 20.2603V18.7051H26.2233V20.2603H25.1439Z" fill="black"/>
<path d="M26.203 20.2603V18.7051H27.4363V20.2603H26.203Z" fill="black"/>
<path d="M27.4153 20.2603V18.7051H28.8031V20.2603H27.4153Z" fill="black"/>
<path d="M28.6276 20.2603V18.7051H30.0154V20.2603H28.6276Z" fill="black"/>
<path d="M29.8019 20.2603V18.7051H30.4189V20.2603H29.8019Z" fill="black"/>
<path d="M7 23.2603V21.7051H8.54242V23.2603H7Z" fill="black"/>
<path d="M8.44416 23.2603V21.7051H9.832V23.2603H8.44416Z" fill="black"/>
<path d="M9.65646 23.2603V21.7051H11.1989V23.2603H9.65646Z" fill="black"/>
<path d="M10.946 23.2603V21.7051H11.563V23.2603H10.946Z" fill="black"/>
<path d="M11.3868 23.2603V21.7051H12.9292V23.2603H11.3868Z" fill="black"/>
<path d="M12.5991 23.2603V21.7051H13.6784V23.2603H12.5991Z" fill="black"/>
<path d="M13.5036 23.2603V21.7051H14.5829V23.2603H13.5036Z" fill="black"/>
<path d="M14.4081 23.2603V21.7051H16.4135V23.2603H14.4081Z" fill="black"/>
<path d="M16.3146 23.2603V21.7051H17.394V23.2603H16.3146Z" fill="black"/>
<path d="M17.3737 23.2603V21.7051H18.7615V23.2603H17.3737Z" fill="black"/>
<path d="M18.586 23.2603V21.7051H20.1284V23.2603H18.586Z" fill="black"/>
<path d="M19.8755 23.2603V21.7051H20.9549V23.2603H19.8755Z" fill="black"/>
<path d="M20.6255 23.2603V21.7051H22.1679V23.2603H20.6255Z" fill="black"/>
<path d="M21.8377 23.2603V21.7051H22.4547V23.2603H21.8377Z" fill="black"/>
<path d="M22.2785 23.2603V21.7051H23.3578V23.2603H22.2785Z" fill="black"/>
<path d="M23.183 23.2603V21.7051H24.2623V23.2603H23.183Z" fill="black"/>
<path d="M23.9329 23.2603V21.7051H25.3207V23.2603H23.9329Z" fill="black"/>
<path d="M25.1072 23.2603V21.7051H25.7242V23.2603H25.1072Z" fill="black"/>
<path d="M7.15458 26.2603V24.7051H8.54242V26.2603H7.15458Z" fill="black"/>
<path d="M8.36687 26.2603V24.7051H9.90929V26.2603H8.36687Z" fill="black"/>
<path d="M9.73375 26.2603V24.7051H11.1216V26.2603H9.73375Z" fill="black"/>
<path d="M10.8687 26.2603V24.7051H11.9481V26.2603H10.8687Z" fill="black"/>
<path d="M11.7732 26.2603V24.7051H13.3157V26.2603H11.7732Z" fill="black"/>
<path d="M12.9855 26.2603V24.7051H14.5279V26.2603H12.9855Z" fill="black"/>
<path d="M14.2751 26.2603V24.7051H15.663V26.2603H14.2751Z" fill="black"/>
<path d="M15.3532 26.2603V24.7051H15.9701V26.2603H15.3532Z" fill="black"/>
<path d="M15.7939 26.2603V24.7051H17.9533V26.2603H15.7939Z" fill="black"/>
<path d="M17.7005 26.2603V24.7051H19.2429V26.2603H17.7005Z" fill="black"/>
<path d="M18.9128 26.2603V24.7051H20.4552V26.2603H18.9128Z" fill="black"/>
<path d="M20.3569 26.2603V24.7051H21.7448V26.2603H20.3569Z" fill="black"/>
<path d="M21.6465 26.2603V24.7051H22.8798V26.2603H21.6465Z" fill="black"/>
<path d="M22.8588 26.2603V24.7051H24.2466V26.2603H22.8588Z" fill="black"/>
<path d="M24.0711 26.2603V24.7051H25.4589V26.2603H24.0711Z" fill="black"/>
<path d="M25.2454 26.2603V24.7051H25.8624V26.2603H25.2454Z" fill="black"/>
<path d="M7.15458 29.2603V27.7051H8.54242V29.2603H7.15458Z" fill="black"/>
<path d="M8.28958 29.2603V27.7051H9.67742V29.2603H8.28958Z" fill="black"/>
<path d="M9.52222 29.2603V27.7051H10.7555V29.2603H9.52222Z" fill="black"/>
<path d="M10.5799 29.2603V27.7051H12.1223V29.2603H10.5799Z" fill="black"/>
<path d="M11.9468 29.2603V27.7051H13.3346V29.2603H11.9468Z" fill="black"/>
<path d="M12.9869 29.2603V27.7051H14.5293V29.2603H12.9869Z" fill="black"/>
<path d="M14.2765 29.2603V27.7051H16.282V29.2603H14.2765Z" fill="black"/>
<path d="M16.183 29.2603V27.7051H16.9539V29.2603H16.183Z" fill="black"/>
<path d="M16.7011 29.2603V27.7051H17.318V29.2603H16.7011Z" fill="black"/>
<path d="M17.1418 29.2603V27.7051H18.2212V29.2603H17.1418Z" fill="black"/>
<path d="M17.8917 29.2603V27.7051H19.4341V29.2603H17.8917Z" fill="black"/>
<path d="M19.2586 29.2603V27.7051H20.801V29.2603H19.2586Z" fill="black"/>
<path d="M20.4709 29.2603V27.7051H21.0878V29.2603H20.4709Z" fill="black"/>
<path d="M20.9116 29.2603V27.7051H22.6086V29.2603H20.9116Z" fill="black"/>
<path d="M22.471 29.2603V27.7051H23.8589V29.2603H22.471Z" fill="black"/>
<path d="M23.6833 29.2603V27.7051H24.7627V29.2603H23.6833Z" fill="black"/>
<path d="M24.5878 29.2603V27.7051H25.6672V29.2603H24.5878Z" fill="black"/>
<path d="M25.3377 29.2603V27.7051H26.8801V29.2603H25.3377Z" fill="black"/>
<path d="M26.55 29.2603V27.7051H28.0924V29.2603H26.55Z" fill="black"/>
<path d="M27.8396 29.2603V27.7051H28.4566V29.2603H27.8396Z" fill="black"/>
<path d="M7 32.2603V30.7051H8.38784V32.2603H7Z" fill="black"/>
<path d="M8.28958 32.2603V30.7051H9.36894V32.2603H8.28958Z" fill="black"/>
<path d="M9.03949 32.2603V30.7051H10.5819V32.2603H9.03949Z" fill="black"/>
<path d="M10.3291 32.2603V30.7051H11.4084V32.2603H10.3291Z" fill="black"/>
<path d="M11.079 32.2603V30.7051H12.6214V32.2603H11.079Z" fill="black"/>
<path d="M12.2913 32.2603V30.7051H13.6791V32.2603H12.2913Z" fill="black"/>
<path d="M13.4656 32.2603V30.7051H14.0826V32.2603H13.4656Z" fill="black"/>
<path d="M13.9063 32.2603V30.7051H16.0657V32.2603H13.9063Z" fill="black"/>
<path d="M15.8129 32.2603V30.7051H16.8922V32.2603H15.8129Z" fill="black"/>
<path d="M16.7174 32.2603V30.7051H17.7967V32.2603H16.7174Z" fill="black"/>
<path d="M17.6219 32.2603V30.7051H18.7012V32.2603H17.6219Z" fill="black"/>
<path d="M18.5264 32.2603V30.7051H19.1433V32.2603H18.5264Z" fill="black"/>
<path d="M18.9671 32.2603V30.7051H20.3549V32.2603H18.9671Z" fill="black"/>
<path d="M20.1414 32.2603V30.7051H21.6838V32.2603H20.1414Z" fill="black"/>
<path d="M21.6629 32.2603V30.7051H23.0507V32.2603H21.6629Z" fill="black"/>
<path d="M22.9525 32.2603V30.7051H24.3403V32.2603H22.9525Z" fill="black"/>
<path d="M24.242 32.2603V30.7051H25.4753V32.2603H24.242Z" fill="black"/>
<path d="M25.2998 32.2603V30.7051H26.6876V32.2603H25.2998Z" fill="black"/>
<path d="M26.3778 32.2603V30.7051H27.4572V32.2603H26.3778Z" fill="black"/>
<path d="M27.1277 32.2603V30.7051H27.7447V32.2603H27.1277Z" fill="black"/>
<path d="M7 35.2603V33.7051H8.54242V35.2603H7Z" fill="black"/>
<path d="M8.21229 35.2603V33.7051H9.60013V35.2603H8.21229Z" fill="black"/>
<path d="M9.50188 35.2603V33.7051H10.7351V35.2603H9.50188Z" fill="black"/>
<path d="M10.7142 35.2603V33.7051H12.102V35.2603H10.7142Z" fill="black"/>
<path d="M12.081 35.2603V33.7051H13.3143V35.2603H12.081Z" fill="black"/>
<path d="M13.1388 35.2603V33.7051H15.1442V35.2603H13.1388Z" fill="black"/>
<path d="M15.0453 35.2603V33.7051H16.1247V35.2603H15.0453Z" fill="black"/>
<path d="M15.9498 35.2603V33.7051H17.3376V35.2603H15.9498Z" fill="black"/>
<path d="M17.0848 35.2603V33.7051H17.7018V35.2603H17.0848Z" fill="black"/>
<path d="M17.5255 35.2603V33.7051H19.068V35.2603H17.5255Z" fill="black"/>
<path d="M18.8151 35.2603V33.7051H20.203V35.2603H18.8151Z" fill="black"/>
<path d="M19.9894 35.2603V33.7051H21.3773V35.2603H19.9894Z" fill="black"/>
<path d="M21.1638 35.2603V33.7051H22.2431V35.2603H21.1638Z" fill="black"/>
<path d="M22.0683 35.2603V33.7051H23.4561V35.2603H22.0683Z" fill="black"/>
<path d="M23.2426 35.2603V33.7051H24.3219V35.2603H23.2426Z" fill="black"/>
<path d="M23.9925 35.2603V33.7051H25.5349V35.2603H23.9925Z" fill="black"/>
<path d="M25.4367 35.2603V33.7051H26.8245V35.2603H25.4367Z" fill="black"/>
<path d="M26.649 35.2603V33.7051H28.0368V35.2603H26.649Z" fill="black"/>
<path d="M27.784 35.2603V33.7051H29.3264V35.2603H27.784Z" fill="black"/>
<path d="M28.9962 35.2603V33.7051H29.6132V35.2603H28.9962Z" fill="black"/>
<path d="M29.437 35.2603V33.7051H30.9794V35.2603H29.437Z" fill="black"/>
<path d="M30.8812 35.2603V33.7051H32.269V35.2603H30.8812Z" fill="black"/>
<path d="M32.0934 35.2603V33.7051H33.6359V35.2603H32.0934Z" fill="black"/>
<path d="M33.383 35.2603V33.7051H34V35.2603H33.383Z" fill="black"/>
<path d="M7 38.2603V36.7051H8.54242V38.2603H7Z" fill="black"/>
<path d="M8.36687 38.2603V36.7051H9.90929V38.2603H8.36687Z" fill="black"/>
<path d="M9.57917 38.2603V36.7051H10.6585V38.2603H9.57917Z" fill="black"/>
<path d="M10.6382 38.2603V36.7051H12.0261V38.2603H10.6382Z" fill="black"/>
<path d="M11.7732 38.2603V36.7051H12.3902V38.2603H11.7732Z" fill="black"/>
<path d="M12.3686 38.2603V36.7051H13.7564V38.2603H12.3686Z" fill="black"/>
<path d="M13.5036 38.2603V36.7051H14.8914V38.2603H13.5036Z" fill="black"/>
<path d="M14.7362 38.2603V36.7051H15.9695V38.2603H14.7362Z" fill="black"/>
<path d="M15.7939 38.2603V36.7051H17.7994V38.2603H15.7939Z" fill="black"/>
<path d="M17.855 38.2603V36.7051H19.0883V38.2603H17.855Z" fill="black"/>
<path d="M18.9128 38.2603V36.7051H19.9921V38.2603H18.9128Z" fill="black"/>
<path d="M19.6627 38.2603V36.7051H21.2051V38.2603H19.6627Z" fill="black"/>
<path d="M20.875 38.2603V36.7051H21.4919V38.2603H20.875Z" fill="black"/>
<path d="M21.3157 38.2603V36.7051H22.3951V38.2603H21.3157Z" fill="black"/>
<path d="M22.2202 38.2603V36.7051H23.2995V38.2603H22.2202Z" fill="black"/>
<path d="M22.9701 38.2603V36.7051H24.3579V38.2603H22.9701Z" fill="black"/>
<path d="M24.1444 38.2603V36.7051H24.7614V38.2603H24.1444Z" fill="black"/>
<path d="M24.5852 38.2603V36.7051H25.8191V38.2603H24.5852Z" fill="black"/>
<path d="M25.4897 38.2603V36.7051H27.0321V38.2603H25.4897Z" fill="black"/>
<path d="M26.8565 38.2603V36.7051H27.9359V38.2603H26.8565Z" fill="black"/>
<path d="M27.761 38.2603V36.7051H28.8404V38.2603H27.761Z" fill="black"/>
<path d="M28.6655 38.2603V36.7051H29.2825V38.2603H28.6655Z" fill="black"/>
<path d="M7 41.2603V39.7051H8.07935V41.2603H7Z" fill="black"/>
<path d="M8.05907 41.2603V39.7051H9.44691V41.2603H8.05907Z" fill="black"/>
<path d="M9.27136 41.2603V39.7051H10.3507V41.2603H9.27136Z" fill="black"/>
<path d="M10.0213 41.2603V39.7051H11.5637V41.2603H10.0213Z" fill="black"/>
<path d="M11.2336 41.2603V39.7051H12.776V41.2603H11.2336Z" fill="black"/>
<path d="M12.6004 41.2603V39.7051H13.9883V41.2603H12.6004Z" fill="black"/>
<path d="M13.6405 41.2603V39.7051H15.1829V41.2603H13.6405Z" fill="black"/>
<path d="M14.9301 41.2603V39.7051H16.0095V41.2603H14.9301Z" fill="black"/>
<path d="M15.68 41.2603V39.7051H16.7594V41.2603H15.68Z" fill="black"/>
<path d="M16.7391 41.2603V39.7051H17.9723V41.2603H16.7391Z" fill="black"/>
<path d="M17.9514 41.2603V39.7051H19.3392V41.2603H17.9514Z" fill="black"/>
<path d="M19.1637 41.2603V39.7051H19.7806V41.2603H19.1637Z" fill="black"/>
<path d="M19.6044 41.2603V39.7051H20.6838V41.2603H19.6044Z" fill="black"/>
<path d="M20.6635 41.2603V39.7051H22.0513V41.2603H20.6635Z" fill="black"/>
<path d="M21.8758 41.2603V39.7051H22.9551V41.2603H21.8758Z" fill="black"/>
<path d="M22.7803 41.2603V39.7051H24.0135V41.2603H22.7803Z" fill="black"/>
<path d="M23.838 41.2603V39.7051H24.4549V41.2603H23.838Z" fill="black"/>
<path d="M24.2787 41.2603V39.7051H25.3581V41.2603H24.2787Z" fill="black"/>
<path d="M25.0286 41.2603V39.7051H26.571V41.2603H25.0286Z" fill="black"/>
<path d="M26.3955 41.2603V39.7051H27.9379V41.2603H26.3955Z" fill="black"/>
<path d="M27.6078 41.2603V39.7051H28.2248V41.2603H27.6078Z" fill="black"/>
<path d="M7 44.2603V42.7051H8.38784V44.2603H7Z" fill="black"/>
<path d="M8.28958 44.2603V42.7051H9.52284V44.2603H8.28958Z" fill="black"/>
<path d="M9.3473 44.2603V42.7051H11.3528V44.2603H9.3473Z" fill="black"/>
<path d="M11.2538 44.2603V42.7051H13.2593V44.2603H11.2538Z" fill="black"/>
<path d="M13.1604 44.2603V42.7051H14.7028V44.2603H13.1604Z" fill="black"/>
<path d="M14.6819 44.2603V42.7051H16.0697V44.2603H14.6819Z" fill="black"/>
<path d="M15.8941 44.2603V42.7051H16.9735V44.2603H15.8941Z" fill="black"/>
<path d="M16.7986 44.2603V42.7051H17.878V44.2603H16.7986Z" fill="black"/>
<path d="M17.7031 44.2603V42.7051H19.091V44.2603H17.7031Z" fill="black"/>
<path d="M18.8381 44.2603V42.7051H19.4551V44.2603H18.8381Z" fill="black"/>
<path d="M19.4334 44.2603V42.7051H20.6667V44.2603H19.4334Z" fill="black"/>
<path d="M20.4912 44.2603V42.7051H21.7251V44.2603H20.4912Z" fill="black"/>
<path d="M21.3956 44.2603V42.7051H22.0126V44.2603H21.3956Z" fill="black"/>
<path d="M21.991 44.2603V42.7051H23.3788V44.2603H21.991Z" fill="black"/>
<path d="M23.2033 44.2603V42.7051H24.7457V44.2603H23.2033Z" fill="black"/>
<path d="M24.4928 44.2603V42.7051H25.5722V44.2603H24.4928Z" fill="black"/>
<path d="M25.2428 44.2603V42.7051H26.3221V44.2603H25.2428Z" fill="black"/>
<path d="M26.3018 44.2603V42.7051H27.5351V44.2603H26.3018Z" fill="black"/>
<path d="M27.5141 44.2603V42.7051H28.902V44.2603H27.5141Z" fill="black"/>
<path d="M28.7264 44.2603V42.7051H30.1142V44.2603H28.7264Z" fill="black"/>
<path d="M29.9007 44.2603V42.7051H30.6716V44.2603H29.9007Z" fill="black"/>
<path d="M30.4188 44.2603V42.7051H31.0357V44.2603H30.4188Z" fill="black"/>
<path d="M7 47.2603V45.7051H8.54242V47.2603H7Z" fill="black"/>
<path d="M8.36687 47.2603V45.7051H9.90929V47.2603H8.36687Z" fill="black"/>
<path d="M9.73375 47.2603V45.7051H11.2762V47.2603H9.73375Z" fill="black"/>
<path d="M11.0233 47.2603V45.7051H12.1027V47.2603H11.0233Z" fill="black"/>
<path d="M11.7732 47.2603V45.7051H12.3902V47.2603H11.7732Z" fill="black"/>
<path d="M12.3686 47.2603V45.7051H13.6018V47.2603H12.3686Z" fill="black"/>
<path d="M13.5809 47.2603V45.7051H14.9687V47.2603H13.5809Z" fill="black"/>
<path d="M14.8704 47.2603V45.7051H16.2583V47.2603H14.8704Z" fill="black"/>
<path d="M16.16 47.2603V45.7051H17.3933V47.2603H16.16Z" fill="black"/>
<path d="M17.2177 47.2603V45.7051H18.6056V47.2603H17.2177Z" fill="black"/>
<path d="M18.2958 47.2603V45.7051H19.3751V47.2603H18.2958Z" fill="black"/>
<path d="M19.0457 47.2603V45.7051H20.5881V47.2603H19.0457Z" fill="black"/>
<path d="M20.5671 47.2603V45.7051H21.955V47.2603H20.5671Z" fill="black"/>
<path d="M21.7794 47.2603V45.7051H22.8588V47.2603H21.7794Z" fill="black"/>
<path d="M22.6839 47.2603V45.7051H23.7633V47.2603H22.6839Z" fill="black"/>
<path d="M23.5884 47.2603V45.7051H24.9763V47.2603H23.5884Z" fill="black"/>
<path d="M24.7234 47.2603V45.7051H25.3404V47.2603H24.7234Z" fill="black"/>
<path d="M25.1642 47.2603V45.7051H26.7066V47.2603H25.1642Z" fill="black"/>
<path d="M26.6083 47.2603V45.7051H27.9962V47.2603H26.6083Z" fill="black"/>
<path d="M27.8206 47.2603V45.7051H29.363V47.2603H27.8206Z" fill="black"/>
<path d="M29.1102 47.2603V45.7051H29.7272V47.2603H29.1102Z" fill="black"/>
<path d="M7 50.2603V48.7051H8.38784V50.2603H7Z" fill="black"/>
<path d="M8.07805 50.2603V48.7051H9.62047V50.2603H8.07805Z" fill="black"/>
<path d="M9.29034 50.2603V48.7051H10.6782V50.2603H9.29034Z" fill="black"/>
<path d="M10.6193 50.2603V48.7051H12.0071V50.2603H10.6193Z" fill="black"/>
<path d="M11.7543 50.2603V48.7051H13.2967V50.2603H11.7543Z" fill="black"/>
<path d="M12.9665 50.2603V48.7051H14.3544V50.2603H12.9665Z" fill="black"/>
<path d="M14.1015 50.2603V48.7051H15.1809V50.2603H14.1015Z" fill="black"/>
<path d="M14.8515 50.2603V48.7051H15.4684V50.2603H14.8515Z" fill="black"/>
<path d="M15.2922 50.2603V48.7051H17.4516V50.2603H15.2922Z" fill="black"/>
<path d="M17.1988 50.2603V48.7051H18.2781V50.2603H17.1988Z" fill="black"/>
<path d="M18.1032 50.2603V48.7051H19.1826V50.2603H18.1032Z" fill="black"/>
<path d="M19.0077 50.2603V48.7051H20.0871V50.2603H19.0077Z" fill="black"/>
<path d="M19.9122 50.2603V48.7051H20.5292V50.2603H19.9122Z" fill="black"/>
<path d="M20.5075 50.2603V48.7051H21.8954V50.2603H20.5075Z" fill="black"/>
<path d="M21.8744 50.2603V48.7051H23.1077V50.2603H21.8744Z" fill="black"/>
<path d="M22.9321 50.2603V48.7051H24.0115V50.2603H22.9321Z" fill="black"/>
<path d="M23.682 50.2603V48.7051H24.299V50.2603H23.682Z" fill="black"/>
<path d="M24.1228 50.2603V48.7051H25.5106V50.2603H24.1228Z" fill="black"/>
<path d="M25.4124 50.2603V48.7051H26.6456V50.2603H25.4124Z" fill="black"/>
<path d="M26.4701 50.2603V48.7051H28.4756V50.2603H26.4701Z" fill="black"/>
<path d="M28.3766 50.2603V48.7051H29.919V50.2603H28.3766Z" fill="black"/>
<path d="M29.5889 50.2603V48.7051H30.2059V50.2603H29.5889Z" fill="black"/>
<path d="M7 53.2603V51.7051H9.15938V53.2603H7Z" fill="black"/>
<path d="M8.90655 53.2603V51.7051H9.9859V53.2603H8.90655Z" fill="black"/>
<path d="M9.81104 53.2603V51.7051H10.8904V53.2603H9.81104Z" fill="black"/>
<path d="M10.5609 53.2603V51.7051H12.1034V53.2603H10.5609Z" fill="black"/>
<path d="M11.9278 53.2603V51.7051H12.5448V53.2603H11.9278Z" fill="black"/>
<path d="M12.3686 53.2603V51.7051H13.4479V53.2603H12.3686Z" fill="black"/>
<path d="M13.1185 53.2603V51.7051H14.6609V53.2603H13.1185Z" fill="black"/>
<path d="M14.4853 53.2603V51.7051H15.8732V53.2603H14.4853Z" fill="black"/>
<path d="M15.5634 53.2603V51.7051H17.1058V53.2603H15.5634Z" fill="black"/>
<path d="M16.7757 53.2603V51.7051H18.3181V53.2603H16.7757Z" fill="black"/>
<path d="M18.0653 53.2603V51.7051H19.1446V53.2603H18.0653Z" fill="black"/>
<path d="M18.8152 53.2603V51.7051H20.203V53.2603H18.8152Z" fill="black"/>
<path d="M20.3535 52.9397V52.8305H21.631V52.9397H20.3535Z" fill="black"/>
<path d="M21.3225 53.2603V51.7051H21.9394V53.2603H21.3225Z" fill="black"/>
<path d="M21.7632 53.2603V51.7051H23.4602V53.2603H21.7632Z" fill="black"/>
<path d="M23.3037 53.2603V51.7051H24.5369V53.2603H23.3037Z" fill="black"/>
<path d="M24.3614 53.2603V51.7051H25.7492V53.2603H24.3614Z" fill="black"/>
<path d="M25.4394 53.2603V51.7051H26.5188V53.2603H25.4394Z" fill="black"/>
<path d="M26.1893 53.2603V51.7051H27.7317V53.2603H26.1893Z" fill="black"/>
<path d="M27.5562 53.2603V51.7051H28.1732V53.2603H27.5562Z" fill="black"/>
<path d="M7 56.2603V54.7051H8.697V56.2603H7Z" fill="black"/>
<path d="M8.59874 56.2603V54.7051H9.832V56.2603H8.59874Z" fill="black"/>
<path d="M9.65646 56.2603V54.7051H11.0443V56.2603H9.65646Z" fill="black"/>
<path d="M10.7345 56.2603V54.7051H12.2769V56.2603H10.7345Z" fill="black"/>
<path d="M11.9468 56.2603V54.7051H13.4892V56.2603H11.9468Z" fill="black"/>
<path d="M13.2364 56.2603V54.7051H13.8534V56.2603H13.2364Z" fill="black"/>
<path d="M13.6771 56.2603V54.7051H15.6826V56.2603H13.6771Z" fill="black"/>
<path d="M15.5837 56.2603V54.7051H17.1261V56.2603H15.5837Z" fill="black"/>
<path d="M16.9506 56.2603V54.7051H18.3384V56.2603H16.9506Z" fill="black"/>
<path d="M18.1249 56.2603V54.7051H19.2042V56.2603H18.1249Z" fill="black"/>
<path d="M18.8748 56.2603V54.7051H19.4918V56.2603H18.8748Z" fill="black"/>
<path d="M19.3155 56.2603V54.7051H20.3949V56.2603H19.3155Z" fill="black"/>
<path d="M20.22 56.2603V54.7051H21.2994V56.2603H20.22Z" fill="black"/>
<path d="M21.0472 56.2603V54.7051H22.4351V56.2603H21.0472Z" fill="black"/>
<path d="M22.3368 56.2603V54.7051H23.8792V56.2603H22.3368Z" fill="black"/>
<path d="M23.5491 56.2603V54.7051H24.1661V56.2603H23.5491Z" fill="black"/>
<path d="M23.9898 56.2603V54.7051H25.5323V56.2603H23.9898Z" fill="black"/>
<path d="M25.5113 56.2603V54.7051H26.8991V56.2603H25.5113Z" fill="black"/>
<path d="M26.6463 56.2603V54.7051H27.2633V56.2603H26.6463Z" fill="black"/>
<path d="M27.087 56.2603V54.7051H28.1664V56.2603H27.087Z" fill="black"/>
<path d="M27.9915 56.2603V54.7051H29.2248V56.2603H27.9915Z" fill="black"/>
<path d="M29.0492 56.2603V54.7051H29.6662V56.2603H29.0492Z" fill="black"/>
<path d="M29.49 56.2603V54.7051H30.5693V56.2603H29.49Z" fill="black"/>
<path d="M30.3945 56.2603V54.7051H31.4738V56.2603H30.3945Z" fill="black"/>
<path d="M31.1444 56.2603V54.7051H32.5322V56.2603H31.1444Z" fill="black"/>
<path d="M32.3187 56.2603V54.7051H32.9357V56.2603H32.3187Z" fill="black"/>
<path d="M7.15458 59.2603V57.7051H8.38784V59.2603H7.15458Z" fill="black"/>
<path d="M8.36687 59.2603V57.7051H9.75471V59.2603H8.36687Z" fill="black"/>
<path d="M9.42459 59.2603V57.7051H10.5039V59.2603H9.42459Z" fill="black"/>
<path d="M10.3291 59.2603V57.7051H11.4084V59.2603H10.3291Z" fill="black"/>
<path d="M11.2336 59.2603V57.7051H12.776V59.2603H11.2336Z" fill="black"/>
<path d="M12.6004 59.2603V57.7051H14.1429V59.2603H12.6004Z" fill="black"/>
<path d="M13.89 59.2603V57.7051H14.9694V59.2603H13.89Z" fill="black"/>
<path d="M14.6399 59.2603V57.7051H15.7193V59.2603H14.6399Z" fill="black"/>
<path d="M15.699 59.2603V57.7051H16.9322V59.2603H15.699Z" fill="black"/>
<path d="M16.9113 59.2603V57.7051H18.2991V59.2603H16.9113Z" fill="black"/>
<path d="M18.1236 59.2603V57.7051H19.5114V59.2603H18.1236Z" fill="black"/>
<path d="M19.2979 59.2603V57.7051H20.0688V59.2603H19.2979Z" fill="black"/>
<path d="M19.8159 59.2603V57.7051H20.5868V59.2603H19.8159Z" fill="black"/>
</g>
<rect width="12" height="14" transform="translate(26 50.2603)" fill="white"/>
<path d="M31.6787 54.1216C32.5999 54.1216 33.2721 54.3201 33.6953 54.7173C34.1185 55.1112 34.3301 55.6548 34.3301 56.3481C34.3301 56.6606 34.2829 56.9601 34.1885 57.2466C34.0941 57.5298 33.9395 57.7821 33.7246 58.0034C33.513 58.2248 33.2298 58.4006 32.875 58.5308C32.5202 58.6577 32.0824 58.7212 31.5615 58.7212H30.9121V61.2603H29.3984V54.1216H31.6787ZM31.6006 55.3618H30.9121V57.481H31.4102C31.6934 57.481 31.9391 57.4435 32.1475 57.3687C32.3558 57.2938 32.5169 57.1766 32.6309 57.0171C32.7448 56.8576 32.8018 56.6525 32.8018 56.4019C32.8018 56.0503 32.7041 55.7899 32.5088 55.6206C32.3135 55.4481 32.0107 55.3618 31.6006 55.3618Z" fill="#585858"/>
<rect x="1" y="0.705078" width="39" height="66.5552" stroke="#364B60"/>
<path d="M12.3333 70.2603H3V76.6083H12.3333V70.2603Z" fill="#7FA4CA"/>
<path d="M22.6663 70.2603H13.333V76.6083H22.6663V70.2603Z" fill="#BB90BB"/>
</svg>
