<svg width="41" height="64" viewBox="0 0 41 64" fill="none" xmlns="http://www.w3.org/2000/svg">
<rect width="41" height="64" fill=""/>
<rect width="35" height="47.5552" transform="translate(3 2.6084)" fill="white"/>
<g opacity="0.3">
<path d="M7 8.16357V6.6084H7.8256V8.16357H7Z" fill="black"/>
<path d="M7.63759 8.16357V6.6084H8.95913V8.16357H7.63759Z" fill="black"/>
<path d="M8.7704 8.16357V6.6084H9.43117V8.16357H8.7704Z" fill="black"/>
<path d="M9.24244 8.16357V6.6084H11.5551V8.16357H9.24244Z" fill="black"/>
<path d="M11.2016 8.16357V6.6084H12.8535V8.16357H11.2016Z" fill="black"/>
<path d="M12.7483 8.16357V6.6084H14.2346V8.16357H12.7483Z" fill="black"/>
<path d="M14.0466 8.16357V6.6084H15.2026V8.16357H14.0466Z" fill="black"/>
<path d="M14.8498 8.16357V6.6084H15.5106V8.16357H14.8498Z" fill="black"/>
<path d="M15.3218 8.16357V6.6084H16.4778V8.16357H15.3218Z" fill="black"/>
<path d="M16.2905 8.16357V6.6084H17.6113V8.16357H16.2905Z" fill="black"/>
<path d="M17.4233 8.16357V6.6084H18.0841V8.16357H17.4233Z" fill="black"/>
<path d="M17.8954 8.16357V6.6084H19.3817V8.16357H17.8954Z" fill="black"/>
<path d="M19.05 8.16357V6.6084H20.7019V8.16357H19.05Z" fill="black"/>
<path d="M20.3483 8.16357V6.6084H21.5043V8.16357H20.3483Z" fill="black"/>
<path d="M21.317 8.16357V6.6084H22.473V8.16357H21.317Z" fill="black"/>
<path d="M22.1202 8.16357V6.6084H23.7721V8.16357H22.1202Z" fill="black"/>
<path d="M23.4185 8.16357V6.6084H24.9049V8.16357H23.4185Z" fill="black"/>
<path d="M24.5325 8.16357V6.6084H26.1844V8.16357H24.5325Z" fill="black"/>
<path d="M25.9136 8.16357V6.6084H27.0696V8.16357H25.9136Z" fill="black"/>
<path d="M26.7168 8.16357V6.6084H28.3687V8.16357H26.7168Z" fill="black"/>
<path d="M28.0151 8.16357V6.6084H28.6759V8.16357H28.0151Z" fill="black"/>
<path d="M28.4872 8.16357V6.6084H29.6432V8.16357H28.4872Z" fill="black"/>
<path d="M29.2903 8.16357V6.6084H30.9422V8.16357H29.2903Z" fill="black"/>
<path d="M30.7542 8.16357V6.6084H32.4062V8.16357H30.7542Z" fill="black"/>
<path d="M32.1354 8.16357V6.6084H33.2914V8.16357H32.1354Z" fill="black"/>
<path d="M32.9385 8.16357V6.6084H33.5993V8.16357H32.9385Z" fill="black"/>
<path d="M7 11.1636V9.6084H8.65193V11.1636H7Z" fill="black"/>
<path d="M8.38114 11.1636V9.6084H9.53713V11.1636H8.38114Z" fill="black"/>
<path d="M9.5154 11.1636V9.6084H10.8362V11.1636H9.5154Z" fill="black"/>
<path d="M10.8138 11.1636V9.6084H12.3001V11.1636H10.8138Z" fill="black"/>
<path d="M12.1121 11.1636V9.6084H13.7641V11.1636H12.1121Z" fill="black"/>
<path d="M13.5761 11.1636V9.6084H14.2368V11.1636H13.5761Z" fill="black"/>
<path d="M14.0481 11.1636V9.6084H16.3608V11.1636H14.0481Z" fill="black"/>
<path d="M16.09 11.1636V9.6084H17.246V11.1636H16.09Z" fill="black"/>
<path d="M17.0587 11.1636V9.6084H18.2147V11.1636H17.0587Z" fill="black"/>
<path d="M17.8619 11.1636V9.6084H19.5138V11.1636H17.8619Z" fill="black"/>
<path d="M19.3258 11.1636V9.6084H19.9865V11.1636H19.3258Z" fill="black"/>
<path d="M19.9634 11.1636V9.6084H21.2842V11.1636H19.9634Z" fill="black"/>
<path d="M21.0962 11.1636V9.6084H22.7481V11.1636H21.0962Z" fill="black"/>
<path d="M22.5601 11.1636V9.6084H24.0465V11.1636H22.5601Z" fill="black"/>
<path d="M23.7147 11.1636V9.6084H24.3755V11.1636H23.7147Z" fill="black"/>
<path d="M24.1867 11.1636V9.6084H25.6731V11.1636H24.1867Z" fill="black"/>
<path d="M25.7334 11.1636V9.6084H27.0542V11.1636H25.7334Z" fill="black"/>
<path d="M26.8662 11.1636V9.6084H28.5182V11.1636H26.8662Z" fill="black"/>
<path d="M28.3301 11.1636V9.6084H29.4861V11.1636H28.3301Z" fill="black"/>
<path d="M29.1333 11.1636V9.6084H30.7852V11.1636H29.1333Z" fill="black"/>
<path d="M30.5972 11.1636V9.6084H31.258V11.1636H30.5972Z" fill="black"/>
<path d="M7 14.1636V12.6084H8.81748V14.1636H7Z" fill="black"/>
<path d="M8.71225 14.1636V12.6084H10.0331V14.1636H8.71225Z" fill="black"/>
<path d="M9.84506 14.1636V12.6084H11.3314V14.1636H9.84506Z" fill="black"/>
<path d="M10.9997 14.1636V12.6084H12.6516V14.1636H10.9997Z" fill="black"/>
<path d="M12.298 14.1636V12.6084H13.9499V14.1636H12.298Z" fill="black"/>
<path d="M13.8447 14.1636V12.6084H15.3311V14.1636H13.8447Z" fill="black"/>
<path d="M15.1431 14.1636V12.6084H15.8039V14.1636H15.1431Z" fill="black"/>
<path d="M15.6151 14.1636V12.6084H17.267V14.1636H15.6151Z" fill="black"/>
<path d="M17.1618 14.1636V12.6084H18.6482V14.1636H17.1618Z" fill="black"/>
<path d="M18.4602 14.1636V12.6084H20.1121V14.1636H18.4602Z" fill="black"/>
<path d="M19.8413 14.1636V12.6084H20.5021V14.1636H19.8413Z" fill="black"/>
<path d="M7 17.1636V15.6084H8.15599V17.1636H7Z" fill="black"/>
<path d="M8.13426 17.1636V15.6084H9.62063V17.1636H8.13426Z" fill="black"/>
<path d="M9.43262 17.1636V15.6084H10.5886V17.1636H9.43262Z" fill="black"/>
<path d="M10.2358 17.1636V15.6084H11.8877V17.1636H10.2358Z" fill="black"/>
<path d="M11.5341 17.1636V15.6084H13.0205V17.1636H11.5341Z" fill="black"/>
<path d="M12.8543 17.1636V15.6084H14.3407V17.1636H12.8543Z" fill="black"/>
<path d="M14.1526 17.1636V15.6084H15.8046V17.1636H14.1526Z" fill="black"/>
<path d="M15.5338 17.1636V15.6084H16.6898V17.1636H15.5338Z" fill="black"/>
<path d="M16.3369 17.1636V15.6084H17.4929V17.1636H16.3369Z" fill="black"/>
<path d="M17.4712 17.1636V15.6084H18.792V17.1636H17.4712Z" fill="black"/>
<path d="M18.7696 17.1636V15.6084H20.2559V17.1636H18.7696Z" fill="black"/>
<path d="M20.0679 17.1636V15.6084H21.7199V17.1636H20.0679Z" fill="black"/>
<path d="M21.4491 17.1636V15.6084H22.6051V17.1636H21.4491Z" fill="black"/>
<path d="M22.4178 17.1636V15.6084H23.0785V17.1636H22.4178Z" fill="black"/>
<path d="M23.0554 17.1636V15.6084H24.5417V17.1636H23.0554Z" fill="black"/>
<path d="M24.271 17.1636V15.6084H25.9229V17.1636H24.271Z" fill="black"/>
<path d="M25.6521 17.1636V15.6084H27.1385V17.1636H25.6521Z" fill="black"/>
<path d="M26.8067 17.1636V15.6084H27.9627V17.1636H26.8067Z" fill="black"/>
<path d="M27.7754 17.1636V15.6084H29.2618V17.1636H27.7754Z" fill="black"/>
<path d="M29.0738 17.1636V15.6084H30.7257V17.1636H29.0738Z" fill="black"/>
<path d="M30.3721 17.1636V15.6084H31.8585V17.1636H30.3721Z" fill="black"/>
<path d="M31.5267 17.1636V15.6084H33.0131V17.1636H31.5267Z" fill="black"/>
<path d="M32.7844 17.1636V15.6084H33.61V17.1636H32.7844Z" fill="black"/>
<path d="M33.3392 17.1636V15.6084H34V17.1636H33.3392Z" fill="black"/>
<path d="M7 20.1636V18.6084H8.15599V20.1636H7Z" fill="black"/>
<path d="M7.80315 20.1636V18.6084H9.45508V20.1636H7.80315Z" fill="black"/>
<path d="M9.26707 20.1636V18.6084H10.919V20.1636H9.26707Z" fill="black"/>
<path d="M10.5654 20.1636V18.6084H11.2262V20.1636H10.5654Z" fill="black"/>
<path d="M11.0375 20.1636V18.6084H12.855V20.1636H11.0375Z" fill="black"/>
<path d="M12.7076 20.1636V18.6084H14.194V20.1636H12.7076Z" fill="black"/>
<path d="M14.006 20.1636V18.6084H15.162V20.1636H14.006Z" fill="black"/>
<path d="M14.9747 20.1636V18.6084H16.1307V20.1636H14.9747Z" fill="black"/>
<path d="M15.7778 20.1636V18.6084H17.4298V20.1636H15.7778Z" fill="black"/>
<path d="M17.0762 20.1636V18.6084H18.7281V20.1636H17.0762Z" fill="black"/>
<path d="M18.4573 20.1636V18.6084H19.1181V20.1636H18.4573Z" fill="black"/>
<path d="M18.9294 20.1636V18.6084H20.4157V20.1636H18.9294Z" fill="black"/>
<path d="M20.3105 20.1636V18.6084H21.4665V20.1636H20.3105Z" fill="black"/>
<path d="M21.1137 20.1636V18.6084H22.7656V20.1636H21.1137Z" fill="black"/>
<path d="M22.4948 20.1636V18.6084H23.6508V20.1636H22.4948Z" fill="black"/>
<path d="M23.298 20.1636V18.6084H24.9499V20.1636H23.298Z" fill="black"/>
<path d="M24.5963 20.1636V18.6084H26.0827V20.1636H24.5963Z" fill="black"/>
<path d="M25.854 20.1636V18.6084H26.5148V20.1636H25.854Z" fill="black"/>
<path d="M26.3261 20.1636V18.6084H27.482V20.1636H26.3261Z" fill="black"/>
<path d="M27.2948 20.1636V18.6084H28.7811V20.1636H27.2948Z" fill="black"/>
<path d="M28.5525 20.1636V18.6084H29.2132V20.1636H28.5525Z" fill="black"/>
<path d="M7.16556 23.1636V21.6084H8.65193V23.1636H7.16556Z" fill="black"/>
<path d="M8.38114 23.1636V21.6084H9.86751V23.1636H8.38114Z" fill="black"/>
<path d="M9.53573 23.1636V21.6084H11.1877V23.1636H9.53573Z" fill="black"/>
<path d="M10.9997 23.1636V21.6084H12.486V23.1636H10.9997Z" fill="black"/>
<path d="M12.2152 23.1636V21.6084H13.8672V23.1636H12.2152Z" fill="black"/>
<path d="M13.5964 23.1636V21.6084H15.0828V23.1636H13.5964Z" fill="black"/>
<path d="M14.751 23.1636V21.6084H16.4029V23.1636H14.751Z" fill="black"/>
<path d="M16.0493 23.1636V21.6084H17.7013V23.1636H16.0493Z" fill="black"/>
<path d="M17.4305 23.1636V21.6084H18.0913V23.1636H17.4305Z" fill="black"/>
<path d="M17.9025 23.1636V21.6084H19.0585V23.1636H17.9025Z" fill="black"/>
<path d="M18.8712 23.1636V21.6084H20.192V23.1636H18.8712Z" fill="black"/>
<path d="M20.004 23.1636V21.6084H20.6648V23.1636H20.004Z" fill="black"/>
<path d="M20.6416 23.1636V21.6084H22.128V23.1636H20.6416Z" fill="black"/>
<path d="M21.8572 23.1636V21.6084H23.3436V23.1636H21.8572Z" fill="black"/>
<path d="M23.1774 23.1636V21.6084H24.4982V23.1636H23.1774Z" fill="black"/>
<path d="M24.3102 23.1636V21.6084H25.7965V23.1636H24.3102Z" fill="black"/>
<path d="M25.6913 23.1636V21.6084H26.8473V23.1636H25.6913Z" fill="black"/>
<path d="M26.66 23.1636V21.6084H28.3119V23.1636H26.66Z" fill="black"/>
<path d="M28.0412 23.1636V21.6084H29.6931V23.1636H28.0412Z" fill="black"/>
<path d="M29.3395 23.1636V21.6084H30.0003V23.1636H29.3395Z" fill="black"/>
<path d="M7 26.1636V24.6084H8.65193V26.1636H7Z" fill="black"/>
<path d="M8.29836 26.1636V24.6084H9.78474V26.1636H8.29836Z" fill="black"/>
<path d="M9.67951 26.1636V24.6084H11.0003V26.1636H9.67951Z" fill="black"/>
<path d="M10.9779 26.1636V24.6084H12.4642V26.1636H10.9779Z" fill="black"/>
<path d="M12.4418 26.1636V24.6084H13.7626V26.1636H12.4418Z" fill="black"/>
<path d="M13.5746 26.1636V24.6084H15.7225V26.1636H13.5746Z" fill="black"/>
<path d="M15.6165 26.1636V24.6084H16.7725V26.1636H15.6165Z" fill="black"/>
<path d="M16.5852 26.1636V24.6084H18.0716V26.1636H16.5852Z" fill="black"/>
<path d="M17.8008 26.1636V24.6084H18.4616V26.1636H17.8008Z" fill="black"/>
<path d="M18.2728 26.1636V24.6084H19.9248V26.1636H18.2728Z" fill="black"/>
<path d="M19.654 26.1636V24.6084H21.1404V26.1636H19.654Z" fill="black"/>
<path d="M20.9117 26.1636V24.6084H22.3981V26.1636H20.9117Z" fill="black"/>
<path d="M22.1694 26.1636V24.6084H23.3254V26.1636H22.1694Z" fill="black"/>
<path d="M23.1381 26.1636V24.6084H24.6245V26.1636H23.1381Z" fill="black"/>
<path d="M24.3958 26.1636V24.6084H25.5518V26.1636H24.3958Z" fill="black"/>
<path d="M25.1989 26.1636V24.6084H26.8509V26.1636H25.1989Z" fill="black"/>
<path d="M26.7456 26.1636V24.6084H28.232V26.1636H26.7456Z" fill="black"/>
<path d="M28.044 26.1636V24.6084H29.5304V26.1636H28.044Z" fill="black"/>
<path d="M29.2596 26.1636V24.6084H30.9115V26.1636H29.2596Z" fill="black"/>
<path d="M30.5579 26.1636V24.6084H31.2187V26.1636H30.5579Z" fill="black"/>
<path d="M31.03 26.1636V24.6084H32.186V26.1636H31.03Z" fill="black"/>
<path d="M31.9987 26.1636V24.6084H33.3195V26.1636H31.9987Z" fill="black"/>
<path d="M33.1315 26.1636V24.6084H33.7923V26.1636H33.1315Z" fill="black"/>
<path d="M7 29.1636V27.6084H8.81748V29.1636H7Z" fill="black"/>
<path d="M8.64981 29.1636V27.6084H9.97062V29.1636H8.64981Z" fill="black"/>
<path d="M9.78262 29.1636V27.6084H11.269V29.1636H9.78262Z" fill="black"/>
<path d="M10.9372 29.1636V27.6084H12.0932V29.1636H10.9372Z" fill="black"/>
<path d="M11.7404 29.1636V27.6084H13.3923V29.1636H11.7404Z" fill="black"/>
<path d="M13.2043 29.1636V27.6084H13.865V29.1636H13.2043Z" fill="black"/>
<path d="M13.6763 29.1636V27.6084H15.4938V29.1636H13.6763Z" fill="black"/>
<path d="M15.3886 29.1636V27.6084H16.7094V29.1636H15.3886Z" fill="black"/>
<path d="M16.5214 29.1636V27.6084H18.0077V29.1636H16.5214Z" fill="black"/>
<path d="M17.676 29.1636V27.6084H19.3279V29.1636H17.676Z" fill="black"/>
<path d="M18.9743 29.1636V27.6084H20.6263V29.1636H18.9743Z" fill="black"/>
<path d="M20.3555 29.1636V27.6084H21.0162V29.1636H20.3555Z" fill="black"/>
<path d="M20.8275 29.1636V27.6084H22.4794V29.1636H20.8275Z" fill="black"/>
<path d="M22.3742 29.1636V27.6084H23.8606V29.1636H22.3742Z" fill="black"/>
<path d="M23.6726 29.1636V27.6084H25.3245V29.1636H23.6726Z" fill="black"/>
<path d="M25.0537 29.1636V27.6084H25.7145V29.1636H25.0537Z" fill="black"/>
<path d="M25.5257 29.1636V27.6084H27.1777V29.1636H25.5257Z" fill="black"/>
<path d="M26.9897 29.1636V27.6084H28.6416V29.1636H26.9897Z" fill="black"/>
<path d="M28.288 29.1636V27.6084H29.444V29.1636H28.288Z" fill="black"/>
<path d="M29.4223 29.1636V27.6084H30.9087V29.1636H29.4223Z" fill="black"/>
<path d="M30.6379 29.1636V27.6084H31.2987V29.1636H30.6379Z" fill="black"/>
<path d="M31.1099 29.1636V27.6084H32.2659V29.1636H31.1099Z" fill="black"/>
<path d="M32.0786 29.1636V27.6084H33.2346V29.1636H32.0786Z" fill="black"/>
<path d="M32.8818 29.1636V27.6084H33.5425V29.1636H32.8818Z" fill="black"/>
<path d="M7 32.1636V30.6084H8.15599V32.1636H7Z" fill="black"/>
<path d="M8.13426 32.1636V30.6084H9.62063V32.1636H8.13426Z" fill="black"/>
<path d="M9.43262 32.1636V30.6084H10.5886V32.1636H9.43262Z" fill="black"/>
<path d="M10.2358 32.1636V30.6084H11.8877V32.1636H10.2358Z" fill="black"/>
<path d="M11.5341 32.1636V30.6084H13.1861V32.1636H11.5341Z" fill="black"/>
<path d="M12.9981 32.1636V30.6084H14.4844V32.1636H12.9981Z" fill="black"/>
<path d="M14.112 32.1636V30.6084H15.7639V32.1636H14.112Z" fill="black"/>
<path d="M15.4931 32.1636V30.6084H16.6491V32.1636H15.4931Z" fill="black"/>
<path d="M16.2963 32.1636V30.6084H17.9482V32.1636H16.2963Z" fill="black"/>
<path d="M17.5946 32.1636V30.6084H18.2554V32.1636H17.5946Z" fill="black"/>
<path d="M18.0667 32.1636V30.6084H19.2227V32.1636H18.0667Z" fill="black"/>
<path d="M19.2009 32.1636V30.6084H20.6873V32.1636H19.2009Z" fill="black"/>
<path d="M20.4993 32.1636V30.6084H21.6553V32.1636H20.4993Z" fill="black"/>
<path d="M21.468 32.1636V30.6084H22.7888V32.1636H21.468Z" fill="black"/>
<path d="M22.6008 32.1636V30.6084H23.2616V32.1636H22.6008Z" fill="black"/>
<path d="M23.0729 32.1636V30.6084H24.2288V32.1636H23.0729Z" fill="black"/>
<path d="M23.876 32.1636V30.6084H25.5279V32.1636H23.876Z" fill="black"/>
<path d="M25.3399 32.1636V30.6084H26.9918V32.1636H25.3399Z" fill="black"/>
<path d="M26.6383 32.1636V30.6084H27.2991V32.1636H26.6383Z" fill="black"/>
<path d="M7 35.1636V33.6084H8.15599V35.1636H7Z" fill="black"/>
<path d="M8.13426 35.1636V33.6084H9.62063V35.1636H8.13426Z" fill="black"/>
<path d="M9.43262 35.1636V33.6084H10.5886V35.1636H9.43262Z" fill="black"/>
<path d="M10.2358 35.1636V33.6084H11.8877V35.1636H10.2358Z" fill="black"/>
<path d="M11.5341 35.1636V33.6084H13.0205V35.1636H11.5341Z" fill="black"/>
<path d="M12.8543 35.1636V33.6084H14.3407V35.1636H12.8543Z" fill="black"/>
<path d="M14.1526 35.1636V33.6084H15.8046V35.1636H14.1526Z" fill="black"/>
<path d="M15.5338 35.1636V33.6084H16.6898V35.1636H15.5338Z" fill="black"/>
<path d="M16.3369 35.1636V33.6084H17.4929V35.1636H16.3369Z" fill="black"/>
<path d="M17.4712 35.1636V33.6084H18.792V35.1636H17.4712Z" fill="black"/>
<path d="M18.7696 35.1636V33.6084H20.2559V35.1636H18.7696Z" fill="black"/>
<path d="M20.0679 35.1636V33.6084H21.7199V35.1636H20.0679Z" fill="black"/>
<path d="M21.4491 35.1636V33.6084H22.6051V35.1636H21.4491Z" fill="black"/>
<path d="M22.4178 35.1636V33.6084H23.0785V35.1636H22.4178Z" fill="black"/>
<path d="M7 38.1636V36.6084H8.48637V38.1636H7Z" fill="black"/>
<path d="M8.38114 38.1636V36.6084H9.70196V38.1636H8.38114Z" fill="black"/>
<path d="M9.51395 38.1636V36.6084H11.6618V38.1636H9.51395Z" fill="black"/>
<path d="M11.5559 38.1636V36.6084H13.7037V38.1636H11.5559Z" fill="black"/>
<path d="M13.5978 38.1636V36.6084H15.2497V38.1636H13.5978Z" fill="black"/>
<path d="M15.2273 38.1636V36.6084H16.7136V38.1636H15.2273Z" fill="black"/>
<path d="M16.5256 38.1636V36.6084H17.6816V38.1636H16.5256Z" fill="black"/>
<path d="M17.4943 38.1636V36.6084H18.6503V38.1636H17.4943Z" fill="black"/>
<path d="M18.463 38.1636V36.6084H19.9494V38.1636H18.463Z" fill="black"/>
<path d="M19.6786 38.1636V36.6084H20.5042V38.1636H19.6786Z" fill="black"/>
<path d="M20.2334 38.1636V36.6084H20.8942V38.1636H20.2334Z" fill="black"/>
<path d="M20.871 38.1636V36.6084H22.3574V38.1636H20.871Z" fill="black"/>
<path d="M22.0866 38.1636V36.6084H23.573V38.1636H22.0866Z" fill="black"/>
<path d="M23.4068 38.1636V36.6084H24.7276V38.1636H23.4068Z" fill="black"/>
<path d="M24.5396 38.1636V36.6084H26.0259V38.1636H24.5396Z" fill="black"/>
<path d="M25.9207 38.1636V36.6084H27.0767V38.1636H25.9207Z" fill="black"/>
<path d="M26.8894 38.1636V36.6084H28.5413V38.1636H26.8894Z" fill="black"/>
<path d="M28.2705 38.1636V36.6084H29.9225V38.1636H28.2705Z" fill="black"/>
<path d="M29.5689 38.1636V36.6084H31.2208V38.1636H29.5689Z" fill="black"/>
<path d="M30.9501 38.1636V36.6084H31.6108V38.1636H30.9501Z" fill="black"/>
<path d="M7 41.1636V39.6084H8.15599V41.1636H7Z" fill="black"/>
<path d="M7.80315 41.1636V39.6084H9.45508V41.1636H7.80315Z" fill="black"/>
<path d="M9.26707 41.1636V39.6084H10.919V41.1636H9.26707Z" fill="black"/>
<path d="M10.6482 41.1636V39.6084H11.8042V41.1636H10.6482Z" fill="black"/>
<path d="M11.4514 41.1636V39.6084H12.1121V41.1636H11.4514Z" fill="black"/>
<path d="M11.9234 41.1636V39.6084H13.7409V41.1636H11.9234Z" fill="black"/>
<path d="M13.5732 41.1636V39.6084H14.894V41.1636H13.5732Z" fill="black"/>
<path d="M14.706 41.1636V39.6084H16.1924V41.1636H14.706Z" fill="black"/>
<path d="M15.8606 41.1636V39.6084H17.0166V41.1636H15.8606Z" fill="black"/>
<path d="M16.6638 41.1636V39.6084H18.3157V41.1636H16.6638Z" fill="black"/>
<path d="M18.1277 41.1636V39.6084H18.7884V41.1636H18.1277Z" fill="black"/>
<path d="M18.5997 41.1636V39.6084H20.4172V41.1636H18.5997Z" fill="black"/>
<path d="M20.312 41.1636V39.6084H21.6328V41.1636H20.312Z" fill="black"/>
<path d="M21.4448 41.1636V39.6084H22.9311V41.1636H21.4448Z" fill="black"/>
<path d="M22.5994 41.1636V39.6084H24.2513V41.1636H22.5994Z" fill="black"/>
<path d="M23.8977 41.1636V39.6084H25.5497V41.1636H23.8977Z" fill="black"/>
<path d="M25.2789 41.1636V39.6084H25.9396V41.1636H25.2789Z" fill="black"/>
<path d="M25.7509 41.1636V39.6084H27.8988V41.1636H25.7509Z" fill="black"/>
<path d="M27.7928 41.1636V39.6084H29.4447V41.1636H27.7928Z" fill="black"/>
<path d="M29.0912 41.1636V39.6084H30.7431V41.1636H29.0912Z" fill="black"/>
<path d="M30.3895 41.1636V39.6084H31.5455V41.1636H30.3895Z" fill="black"/>
<path d="M31.1927 41.1636V39.6084H32.6791V41.1636H31.1927Z" fill="black"/>
<path d="M32.4504 41.1636V39.6084H33.1112V41.1636H32.4504Z" fill="black"/>
<path d="M7 44.1636V42.6084H8.15599V44.1636H7Z" fill="black"/>
<path d="M7.9687 44.1636V42.6084H9.12469V44.1636H7.9687Z" fill="black"/>
<path d="M8.77185 44.1636V42.6084H10.2582V44.1636H8.77185Z" fill="black"/>
<path d="M10.0296 44.1636V42.6084H10.6903V44.1636H10.0296Z" fill="black"/>
<path d="M10.6671 44.1636V42.6084H11.988V44.1636H10.6671Z" fill="black"/>
<path d="M11.9655 44.1636V42.6084H13.4519V44.1636H11.9655Z" fill="black"/>
<path d="M13.0983 44.1636V42.6084H14.2543V44.1636H13.0983Z" fill="black"/>
<path d="M14.067 44.1636V42.6084H15.223V44.1636H14.067Z" fill="black"/>
<path d="M15.0357 44.1636V42.6084H16.6877V44.1636H15.0357Z" fill="black"/>
<path d="M16.4996 44.1636V42.6084H18.1516V44.1636H16.4996Z" fill="black"/>
<path d="M17.8808 44.1636V42.6084H19.0368V44.1636H17.8808Z" fill="black"/>
<path d="M18.6839 44.1636V42.6084H19.8399V44.1636H18.6839Z" fill="black"/>
<path d="M19.8182 44.1636V42.6084H21.139V44.1636H19.8182Z" fill="black"/>
<path d="M21.1166 44.1636V42.6084H22.6029V44.1636H21.1166Z" fill="black"/>
<path d="M22.4149 44.1636V42.6084H23.9013V44.1636H22.4149Z" fill="black"/>
<path d="M23.6726 44.1636V42.6084H24.4982V44.1636H23.6726Z" fill="black"/>
<path d="M24.2274 44.1636V42.6084H25.053V44.1636H24.2274Z" fill="black"/>
</g>
<rect width="12" height="14" transform="translate(26 35.1636)" fill="white"/>
<path d="M31.6787 39.0249C32.5999 39.0249 33.2721 39.2235 33.6953 39.6206C34.1185 40.0145 34.3301 40.5581 34.3301 41.2515C34.3301 41.564 34.2829 41.8634 34.1885 42.1499C34.0941 42.4331 33.9395 42.6854 33.7246 42.9067C33.513 43.1281 33.2298 43.3039 32.875 43.4341C32.5202 43.561 32.0824 43.6245 31.5615 43.6245H30.9121V46.1636H29.3984V39.0249H31.6787ZM31.6006 40.2651H30.9121V42.3843H31.4102C31.6934 42.3843 31.9391 42.3468 32.1475 42.272C32.3558 42.1971 32.5169 42.0799 32.6309 41.9204C32.7448 41.7609 32.8018 41.5558 32.8018 41.3052C32.8018 40.9536 32.7041 40.6932 32.5088 40.5239C32.3135 40.3514 32.0107 40.2651 31.6006 40.2651Z" fill="#585858"/>
<rect x="1" y="0.608398" width="39" height="51.5552" stroke="#364B60"/>
<path d="M12.3333 55.1636H3V61.5117H12.3333V55.1636Z" fill="#BB90BB"/>
</svg>
