<svg width="41" height="52" viewBox="0 0 41 52" fill="none" xmlns="http://www.w3.org/2000/svg">
<rect width="41" height="52" fill=""/>
<rect width="35" height="35.5552" transform="translate(3 2.51172)" fill="white"/>
<g opacity="0.3">
<path d="M7 8.06689V6.51172H7.76832V8.06689H7Z" fill="black"/>
<path d="M7.59336 8.06689V6.51172H8.82321V8.06689H7.59336Z" fill="black"/>
<path d="M8.64757 8.06689V6.51172H9.87742V8.06689H8.64757Z" fill="black"/>
<path d="M9.54906 8.06689V6.51172H10.164V8.06689H9.54906Z" fill="black"/>
<path d="M9.98835 8.06689V6.51172H11.0641V8.06689H9.98835Z" fill="black"/>
<path d="M10.7358 8.06689V6.51172H12.2731V8.06689H10.7358Z" fill="black"/>
<path d="M12.0981 8.06689V6.51172H13.6354V8.06689H12.0981Z" fill="black"/>
<path d="M13.3064 8.06689V6.51172H13.9213V8.06689H13.3064Z" fill="black"/>
<path d="M13.7457 8.06689V6.51172H15.4371V8.06689H13.7457Z" fill="black"/>
<path d="M15.281 8.06689V6.51172H16.5102V8.06689H15.281Z" fill="black"/>
<path d="M16.3352 8.06689V6.51172H17.7185V8.06689H16.3352Z" fill="black"/>
<path d="M17.4097 8.06689V6.51172H18.4855V8.06689H17.4097Z" fill="black"/>
<path d="M18.1571 8.06689V6.51172H19.6945V8.06689H18.1571Z" fill="black"/>
<path d="M19.5195 8.06689V6.51172H20.1344V8.06689H19.5195Z" fill="black"/>
<path d="M19.9588 8.06689V6.51172H21.4961V8.06689H19.9588Z" fill="black"/>
<path d="M21.3982 8.06689V6.51172H22.7814V8.06689H21.3982Z" fill="black"/>
<path d="M22.4524 8.06689V6.51172H23.9897V8.06689H22.4524Z" fill="black"/>
<path d="M23.8918 8.06689V6.51172H25.275V8.06689H23.8918Z" fill="black"/>
<path d="M25.1 8.06689V6.51172H26.6374V8.06689H25.1Z" fill="black"/>
<path d="M26.5394 8.06689V6.51172H27.7686V8.06689H26.5394Z" fill="black"/>
<path d="M27.7477 8.06689V6.51172H29.131V8.06689H27.7477Z" fill="black"/>
<path d="M28.956 8.06689V6.51172H30.3392V8.06689H28.956Z" fill="black"/>
<path d="M30.1264 8.06689V6.51172H30.7414V8.06689H30.1264Z" fill="black"/>
<path d="M30.5657 8.06689V6.51172H31.6415V8.06689H30.5657Z" fill="black"/>
<path d="M31.4672 8.06689V6.51172H32.543V8.06689H31.4672Z" fill="black"/>
<path d="M32.2146 8.06689V6.51172H33.5979V8.06689H32.2146Z" fill="black"/>
<path d="M33.3851 8.06689V6.51172H34V8.06689H33.3851Z" fill="black"/>
<path d="M7 11.0669V9.51172H8.53731V11.0669H7Z" fill="black"/>
<path d="M8.36235 11.0669V9.51172H9.89966V11.0669H8.36235Z" fill="black"/>
<path d="M9.7247 11.0669V9.51172H11.262V11.0669H9.7247Z" fill="black"/>
<path d="M10.933 11.0669V9.51172H12.3162V11.0669H10.933Z" fill="black"/>
<path d="M12.1034 11.0669V9.51172H13.1792V11.0669H12.1034Z" fill="black"/>
<path d="M12.8508 11.0669V9.51172H13.4658V11.0669H12.8508Z" fill="black"/>
<path d="M13.2901 11.0669V9.51172H14.52V11.0669H13.2901Z" fill="black"/>
<path d="M14.3457 11.0669V9.51172H15.5749V11.0669H14.3457Z" fill="black"/>
<path d="M15.3999 11.0669V9.51172H16.7831V11.0669H15.3999Z" fill="black"/>
<path d="M16.4744 11.0669V9.51172H17.0893V11.0669H16.4744Z" fill="black"/>
<path d="M17.0677 11.0669V9.51172H18.451V11.0669H17.0677Z" fill="black"/>
<path d="M18.276 11.0669V9.51172H19.8133V11.0669H18.276Z" fill="black"/>
<path d="M19.6384 11.0669V9.51172H21.0216V11.0669H19.6384Z" fill="black"/>
<path d="M20.7696 11.0669V9.51172H21.8454V11.0669H20.7696Z" fill="black"/>
<path d="M21.6711 11.0669V9.51172H23.2084V11.0669H21.6711Z" fill="black"/>
<path d="M22.8794 11.0669V9.51172H24.4167V11.0669H22.8794Z" fill="black"/>
<path d="M24.1647 11.0669V9.51172H25.548V11.0669H24.1647Z" fill="black"/>
<path d="M25.2392 11.0669V9.51172H25.8541V11.0669H25.2392Z" fill="black"/>
<path d="M7 14.0669V12.5117H9.15224V14.0669H7Z" fill="black"/>
<path d="M8.90024 14.0669V12.5117H10.4376V14.0669H8.90024Z" fill="black"/>
<path d="M10.1085 14.0669V12.5117H11.6458V14.0669H10.1085Z" fill="black"/>
<path d="M11.5479 14.0669V12.5117H12.9311V14.0669H11.5479Z" fill="black"/>
<path d="M12.8332 14.0669V12.5117H14.0624V14.0669H12.8332Z" fill="black"/>
<path d="M14.0415 14.0669V12.5117H15.4247V14.0669H14.0415Z" fill="black"/>
<path d="M15.2498 14.0669V12.5117H16.633V14.0669H15.2498Z" fill="black"/>
<path d="M16.4202 14.0669V12.5117H17.0351V14.0669H16.4202Z" fill="black"/>
<path d="M16.8595 14.0669V12.5117H18.3968V14.0669H16.8595Z" fill="black"/>
<path d="M18.2989 14.0669V12.5117H19.6821V14.0669H18.2989Z" fill="black"/>
<path d="M19.5072 14.0669V12.5117H21.0445V14.0669H19.5072Z" fill="black"/>
<path d="M20.7925 14.0669V12.5117H21.4074V14.0669H20.7925Z" fill="black"/>
<path d="M21.2318 14.0669V12.5117H23.2306V14.0669H21.2318Z" fill="black"/>
<path d="M23.2861 14.0669V12.5117H24.5153V14.0669H23.2861Z" fill="black"/>
<path d="M24.3403 14.0669V12.5117H25.7235V14.0669H24.3403Z" fill="black"/>
<path d="M25.6256 14.0669V12.5117H27.1629V14.0669H25.6256Z" fill="black"/>
<path d="M26.8339 14.0669V12.5117H28.2171V14.0669H26.8339Z" fill="black"/>
<path d="M28.0043 14.0669V12.5117H28.6193V14.0669H28.0043Z" fill="black"/>
<path d="M7 17.0669V15.5117H8.07578V17.0669H7Z" fill="black"/>
<path d="M7.90149 17.0669V15.5117H9.13067V17.0669H7.90149Z" fill="black"/>
<path d="M8.95571 17.0669V15.5117H11.1079V17.0669H8.95571Z" fill="black"/>
<path d="M10.7789 17.0669V15.5117H12.3162V17.0669H10.7789Z" fill="black"/>
<path d="M12.0642 17.0669V15.5117H13.4475V17.0669H12.0642Z" fill="black"/>
<path d="M13.1387 17.0669V15.5117H14.676V17.0669H13.1387Z" fill="black"/>
<path d="M14.424 17.0669V15.5117H15.0389V17.0669H14.424Z" fill="black"/>
<path d="M7 20.0669V18.5117H8.53731V20.0669H7Z" fill="black"/>
<path d="M8.28532 20.0669V18.5117H9.82263V20.0669H8.28532Z" fill="black"/>
<path d="M9.64767 20.0669V18.5117H11.0309V20.0669H9.64767Z" fill="black"/>
<path d="M10.8559 20.0669V18.5117H12.3933V20.0669H10.8559Z" fill="black"/>
<path d="M12.2183 20.0669V18.5117H13.6015V20.0669H12.2183Z" fill="black"/>
<path d="M13.3495 20.0669V18.5117H14.4253V20.0669H13.3495Z" fill="black"/>
<path d="M14.251 20.0669V18.5117H15.7883V20.0669H14.251Z" fill="black"/>
<path d="M15.4593 20.0669V18.5117H16.9966V20.0669H15.4593Z" fill="black"/>
<path d="M16.7446 20.0669V18.5117H18.1279V20.0669H16.7446Z" fill="black"/>
<path d="M17.8191 20.0669V18.5117H18.8949V20.0669H17.8191Z" fill="black"/>
<path d="M18.8747 20.0669V18.5117H20.1039V20.0669H18.8747Z" fill="black"/>
<path d="M19.8329 20.0669V18.5117H21.3702V20.0669H19.8329Z" fill="black"/>
<path d="M21.1182 20.0669V18.5117H22.194V20.0669H21.1182Z" fill="black"/>
<path d="M21.8657 20.0669V18.5117H22.9415V20.0669H21.8657Z" fill="black"/>
<path d="M22.9212 20.0669V18.5117H24.1504V20.0669H22.9212Z" fill="black"/>
<path d="M24.1295 20.0669V18.5117H25.5128V20.0669H24.1295Z" fill="black"/>
<path d="M25.3378 20.0669V18.5117H26.1061V20.0669H25.3378Z" fill="black"/>
<path d="M25.8541 20.0669V18.5117H26.469V20.0669H25.8541Z" fill="black"/>
<path d="M26.2934 20.0669V18.5117H27.3692V20.0669H26.2934Z" fill="black"/>
<path d="M27.1949 20.0669V18.5117H28.2707V20.0669H27.1949Z" fill="black"/>
<path d="M27.9423 20.0669V18.5117H28.5572V20.0669H27.9423Z" fill="black"/>
<path d="M28.3816 20.0669V18.5117H30.5338V20.0669H28.3816Z" fill="black"/>
<path d="M30.2819 20.0669V18.5117H31.3576V20.0669H30.2819Z" fill="black"/>
<path d="M31.1833 20.0669V18.5117H32.2591V20.0669H31.1833Z" fill="black"/>
<path d="M32.0848 20.0669V18.5117H33.1606V20.0669H32.0848Z" fill="black"/>
<path d="M32.9863 20.0669V18.5117H33.6013V20.0669H32.9863Z" fill="black"/>
<path d="M7 23.0669V21.5117H8.53731V23.0669H7Z" fill="black"/>
<path d="M8.36235 23.0669V21.5117H9.74559V23.0669H8.36235Z" fill="black"/>
<path d="M9.57063 23.0669V21.5117H10.493V23.0669H9.57063Z" fill="black"/>
<path d="M10.3951 23.0669V21.5117H11.6243V23.0669H10.3951Z" fill="black"/>
<path d="M11.6034 23.0669V21.5117H12.9866V23.0669H11.6034Z" fill="black"/>
<path d="M12.7346 23.0669V21.5117H13.3495V23.0669H12.7346Z" fill="black"/>
<path d="M13.1739 23.0669V21.5117H14.7112V23.0669H13.1739Z" fill="black"/>
<path d="M14.5363 23.0669V21.5117H15.9195V23.0669H14.5363Z" fill="black"/>
<path d="M15.6107 23.0669V21.5117H17.148V23.0669H15.6107Z" fill="black"/>
<path d="M16.819 23.0669V21.5117H18.3563V23.0669H16.819Z" fill="black"/>
<path d="M18.1043 23.0669V21.5117H19.1801V23.0669H18.1043Z" fill="black"/>
<path d="M18.8518 23.0669V21.5117H20.3891V23.0669H18.8518Z" fill="black"/>
<path d="M20.06 23.0669V21.5117H21.4433V23.0669H20.06Z" fill="black"/>
<path d="M21.1345 23.0669V21.5117H21.7494V23.0669H21.1345Z" fill="black"/>
<path d="M21.5738 23.0669V21.5117H22.9571V23.0669H21.5738Z" fill="black"/>
<path d="M22.7442 23.0669V21.5117H24.2816V23.0669H22.7442Z" fill="black"/>
<path d="M23.9525 23.0669V21.5117H25.3358V23.0669H23.9525Z" fill="black"/>
<path d="M25.0838 23.0669V21.5117H26.6211V23.0669H25.0838Z" fill="black"/>
<path d="M26.4461 23.0669V21.5117H27.8294V23.0669H26.4461Z" fill="black"/>
<path d="M27.5206 23.0669V21.5117H28.5964V23.0669H27.5206Z" fill="black"/>
<path d="M28.4221 23.0669V21.5117H29.4979V23.0669H28.4221Z" fill="black"/>
<path d="M29.3236 23.0669V21.5117H30.7068V23.0669H29.3236Z" fill="black"/>
<path d="M30.4548 23.0669V21.5117H31.0698V23.0669H30.4548Z" fill="black"/>
<path d="M7 26.0669V24.5117H8.53731V26.0669H7Z" fill="black"/>
<path d="M8.43938 26.0669V24.5117H9.82263V26.0669H8.43938Z" fill="black"/>
<path d="M9.64767 26.0669V24.5117H11.185V26.0669H9.64767Z" fill="black"/>
<path d="M10.933 26.0669V24.5117H11.5479V26.0669H10.933Z" fill="black"/>
<path d="M11.5263 26.0669V24.5117H12.7555V26.0669H11.5263Z" fill="black"/>
<path d="M12.7346 26.0669V24.5117H14.1179V26.0669H12.7346Z" fill="black"/>
<path d="M14.0199 26.0669V24.5117H15.4032V26.0669H14.0199Z" fill="black"/>
<path d="M15.3052 26.0669V24.5117H16.5344V26.0669H15.3052Z" fill="black"/>
<path d="M16.3595 26.0669V24.5117H17.7427V26.0669H16.3595Z" fill="black"/>
<path d="M17.4339 26.0669V24.5117H18.5097V26.0669H17.4339Z" fill="black"/>
<path d="M18.1814 26.0669V24.5117H19.7187V26.0669H18.1814Z" fill="black"/>
<path d="M19.6978 26.0669V24.5117H21.081V26.0669H19.6978Z" fill="black"/>
<path d="M20.9061 26.0669V24.5117H21.9818V26.0669H20.9061Z" fill="black"/>
<path d="M21.8076 26.0669V24.5117H22.8833V26.0669H21.8076Z" fill="black"/>
<path d="M22.7091 26.0669V24.5117H24.0923V26.0669H22.7091Z" fill="black"/>
<path d="M23.8403 26.0669V24.5117H24.4552V26.0669H23.8403Z" fill="black"/>
<path d="M24.2796 26.0669V24.5117H25.5094V26.0669H24.2796Z" fill="black"/>
<path d="M25.3351 26.0669V24.5117H26.5643V26.0669H25.3351Z" fill="black"/>
<path d="M26.3894 26.0669V24.5117H27.7726V26.0669H26.3894Z" fill="black"/>
<path d="M27.4638 26.0669V24.5117H28.0788V26.0669H27.4638Z" fill="black"/>
<path d="M27.9031 26.0669V24.5117H28.9789V26.0669H27.9031Z" fill="black"/>
<path d="M28.8046 26.0669V24.5117H29.8804V26.0669H28.8046Z" fill="black"/>
<path d="M29.552 26.0669V24.5117H30.9353V26.0669H29.552Z" fill="black"/>
<path d="M30.7225 26.0669V24.5117H31.3374V26.0669H30.7225Z" fill="black"/>
<path d="M7.15407 29.0669V27.5117H8.53731V29.0669H7.15407Z" fill="black"/>
<path d="M8.28532 29.0669V27.5117H9.82263V29.0669H8.28532Z" fill="black"/>
<path d="M9.64767 29.0669V27.5117H10.8768V29.0669H9.64767Z" fill="black"/>
<path d="M10.8559 29.0669V27.5117H12.2392V29.0669H10.8559Z" fill="black"/>
<path d="M11.9872 29.0669V27.5117H13.063V29.0669H11.9872Z" fill="black"/>
<path d="M12.8887 29.0669V27.5117H14.426V29.0669H12.8887Z" fill="black"/>
<path d="M14.097 29.0669V27.5117H14.8653V29.0669H14.097Z" fill="black"/>
<path d="M14.6133 29.0669V27.5117H15.2282V29.0669H14.6133Z" fill="black"/>
<path d="M15.0526 29.0669V27.5117H16.5899V29.0669H15.0526Z" fill="black"/>
<path d="M16.4149 29.0669V27.5117H17.9522V29.0669H16.4149Z" fill="black"/>
<path d="M17.7773 29.0669V27.5117H19.3146V29.0669H17.7773Z" fill="black"/>
<path d="M19.0626 29.0669V27.5117H20.1384V29.0669H19.0626Z" fill="black"/>
<path d="M19.81 29.0669V27.5117H20.5783V29.0669H19.81Z" fill="black"/>
<path d="M20.4034 29.0669V27.5117H21.7866V29.0669H20.4034Z" fill="black"/>
<path d="M21.5738 29.0669V27.5117H22.1887V29.0669H21.5738Z" fill="black"/>
<path d="M22.0131 29.0669V27.5117H23.0889V29.0669H22.0131Z" fill="black"/>
<path d="M22.7605 29.0669V27.5117H24.2978V29.0669H22.7605Z" fill="black"/>
<path d="M24.1229 29.0669V27.5117H25.6602V29.0669H24.1229Z" fill="black"/>
<path d="M25.3311 29.0669V27.5117H25.9461V29.0669H25.3311Z" fill="black"/>
<path d="M25.7704 29.0669V27.5117H27.1537V29.0669H25.7704Z" fill="black"/>
<path d="M26.9017 29.0669V27.5117H28.439V29.0669H26.9017Z" fill="black"/>
<path d="M28.4181 29.0669V27.5117H29.6473V29.0669H28.4181Z" fill="black"/>
<path d="M29.4723 29.0669V27.5117H30.5481V29.0669H29.4723Z" fill="black"/>
<path d="M30.3738 29.0669V27.5117H31.757V29.0669H30.3738Z" fill="black"/>
<path d="M31.5051 29.0669V27.5117H33.0424V29.0669H31.5051Z" fill="black"/>
<path d="M32.7133 29.0669V27.5117H33.3283V29.0669H32.7133Z" fill="black"/>
<path d="M7 32.0669V30.5117H8.07578V32.0669H7Z" fill="black"/>
<path d="M7.74742 32.0669V30.5117H9.28474V32.0669H7.74742Z" fill="black"/>
<path d="M9.10977 32.0669V30.5117H10.6471V32.0669H9.10977Z" fill="black"/>
<path d="M10.3951 32.0669V30.5117H11.4709V32.0669H10.3951Z" fill="black"/>
<path d="M11.1425 32.0669V30.5117H11.7574V32.0669H11.1425Z" fill="black"/>
<path d="M11.5818 32.0669V30.5117H13.2732V32.0669H11.5818Z" fill="black"/>
<path d="M13.1171 32.0669V30.5117H14.3463V32.0669H13.1171Z" fill="black"/>
<path d="M14.1714 32.0669V30.5117H15.5546V32.0669H14.1714Z" fill="black"/>
<path d="M15.2458 32.0669V30.5117H16.3216V32.0669H15.2458Z" fill="black"/>
<path d="M15.9933 32.0669V30.5117H17.5306V32.0669H15.9933Z" fill="black"/>
<path d="M17.3556 32.0669V30.5117H17.9705V32.0669H17.3556Z" fill="black"/>
<path d="M17.7949 32.0669V30.5117H19.4863V32.0669H17.7949Z" fill="black"/>
<path d="M19.3883 32.0669V30.5117H20.6175V32.0669H19.3883Z" fill="black"/>
<path d="M20.4426 32.0669V30.5117H21.8258V32.0669H20.4426Z" fill="black"/>
<path d="M21.517 32.0669V30.5117H23.0544V32.0669H21.517Z" fill="black"/>
<path d="M22.7253 32.0669V30.5117H24.2626V32.0669H22.7253Z" fill="black"/>
<path d="M24.0106 32.0669V30.5117H24.6256V32.0669H24.0106Z" fill="black"/>
<path d="M24.4499 32.0669V30.5117H25.6798V32.0669H24.4499Z" fill="black"/>
<path d="M25.3514 32.0669V30.5117H26.8887V32.0669H25.3514Z" fill="black"/>
<path d="M26.6367 32.0669V30.5117H28.02V32.0669H26.6367Z" fill="black"/>
<path d="M27.768 32.0669V30.5117H29.3053V32.0669H27.768Z" fill="black"/>
<path d="M28.9763 32.0669V30.5117H30.3595V32.0669H28.9763Z" fill="black"/>
<path d="M30.1467 32.0669V30.5117H30.915V32.0669H30.1467Z" fill="black"/>
<path d="M30.663 32.0669V30.5117H31.4313V32.0669H30.663Z" fill="black"/>
</g>
<rect width="12" height="14" transform="translate(26 23.0669)" fill="white"/>
<path d="M31.6787 26.9282C32.5999 26.9282 33.2721 27.1268 33.6953 27.5239C34.1185 27.9178 34.3301 28.4614 34.3301 29.1548C34.3301 29.4673 34.2829 29.7668 34.1885 30.0532C34.0941 30.3364 33.9395 30.5887 33.7246 30.8101C33.513 31.0314 33.2298 31.2072 32.875 31.3374C32.5202 31.4644 32.0824 31.5278 31.5615 31.5278H30.9121V34.0669H29.3984V26.9282H31.6787ZM31.6006 28.1685H30.9121V30.2876H31.4102C31.6934 30.2876 31.9391 30.2502 32.1475 30.1753C32.3558 30.1004 32.5169 29.9832 32.6309 29.8237C32.7448 29.6642 32.8018 29.4591 32.8018 29.2085C32.8018 28.8569 32.7041 28.5965 32.5088 28.4272C32.3135 28.2547 32.0107 28.1685 31.6006 28.1685Z" fill="#585858"/>
<rect x="1" y="0.511719" width="39" height="39.5552" stroke="#364B60"/>
<path d="M12.3333 43.0669H3V49.415H12.3333V43.0669Z" fill="#7FA4CA"/>
<path d="M22.6663 43.0669H13.333V49.415H22.6663V43.0669Z" fill="#BB90BB"/>
</svg>
