<svg width="41" height="70" viewBox="0 0 41 70" fill="none" xmlns="http://www.w3.org/2000/svg">
<rect width="41" height="70" fill=""/>
<rect width="35" height="53.5552" transform="translate(3 2.57812)" fill="white"/>
<g opacity="0.3">
<path d="M7 8.1333V6.57812H7.76832V8.1333H7Z" fill="black"/>
<path d="M7.59336 8.1333V6.57812H8.20828V8.1333H7.59336Z" fill="black"/>
<path d="M8.03264 8.1333V6.57812H9.2625V8.1333H8.03264Z" fill="black"/>
<path d="M9.08686 8.1333V6.57812H9.85518V8.1333H9.08686Z" fill="black"/>
<path d="M9.68021 8.1333V6.57812H10.9101V8.1333H9.68021Z" fill="black"/>
<path d="M10.5817 8.1333V6.57812H11.1966V8.1333H10.5817Z" fill="black"/>
<path d="M11.021 8.1333V6.57812H12.0968V8.1333H11.021Z" fill="black"/>
<path d="M11.9225 8.1333V6.57812H12.9983V8.1333H11.9225Z" fill="black"/>
<path d="M12.6699 8.1333V6.57812H13.2848V8.1333H12.6699Z" fill="black"/>
<path d="M13.1092 8.1333V6.57812H14.185V8.1333H13.1092Z" fill="black"/>
<path d="M14.0107 8.1333V6.57812H15.3939V8.1333H14.0107Z" fill="black"/>
<path d="M15.1811 8.1333V6.57812H15.7961V8.1333H15.1811Z" fill="black"/>
<path d="M15.6204 8.1333V6.57812H17.7727V8.1333H15.6204Z" fill="black"/>
<path d="M17.5207 8.1333V6.57812H18.5965V8.1333H17.5207Z" fill="black"/>
<path d="M18.4222 8.1333V6.57812H19.498V8.1333H18.4222Z" fill="black"/>
<path d="M19.3237 8.1333V6.57812H20.3995V8.1333H19.3237Z" fill="black"/>
<path d="M20.2252 8.1333V6.57812H21.3009V8.1333H20.2252Z" fill="black"/>
<path d="M21.2807 8.1333V6.57812H22.664V8.1333H21.2807Z" fill="black"/>
<path d="M22.489 8.1333V6.57812H24.0263V8.1333H22.489Z" fill="black"/>
<path d="M23.8514 8.1333V6.57812H24.4663V8.1333H23.8514Z" fill="black"/>
<path d="M24.2907 8.1333V6.57812H25.3664V8.1333H24.2907Z" fill="black"/>
<path d="M25.1921 8.1333V6.57812H26.4213V8.1333H25.1921Z" fill="black"/>
<path d="M26.2464 8.1333V6.57812H26.8613V8.1333H26.2464Z" fill="black"/>
<path d="M7 11.1333V9.57812H8.38325V11.1333H7Z" fill="black"/>
<path d="M8.07449 11.1333V9.57812H9.6118V11.1333H8.07449Z" fill="black"/>
<path d="M9.28277 11.1333V9.57812H10.666V11.1333H9.28277Z" fill="black"/>
<path d="M10.5681 11.1333V9.57812H11.7973V11.1333H10.5681Z" fill="black"/>
<path d="M11.6223 11.1333V9.57812H13.1596V11.1333H11.6223Z" fill="black"/>
<path d="M13.1387 11.1333V9.57812H14.522V11.1333H13.1387Z" fill="black"/>
<path d="M14.347 11.1333V9.57812H15.4228V11.1333H14.347Z" fill="black"/>
<path d="M15.4026 11.1333V9.57812H16.6317V11.1333H15.4026Z" fill="black"/>
<path d="M16.3608 11.1333V9.57812H17.8981V11.1333H16.3608Z" fill="black"/>
<path d="M17.5691 11.1333V9.57812H18.184V11.1333H17.5691Z" fill="black"/>
<path d="M18.0084 11.1333V9.57812H19.0842V11.1333H18.0084Z" fill="black"/>
<path d="M18.9099 11.1333V9.57812H19.9857V11.1333H18.9099Z" fill="black"/>
<path d="M19.6573 11.1333V9.57812H21.0406V11.1333H19.6573Z" fill="black"/>
<path d="M20.8278 11.1333V9.57812H21.4427V11.1333H20.8278Z" fill="black"/>
<path d="M7 14.1333V12.5781H8.07578V14.1333H7Z" fill="black"/>
<path d="M8.05557 14.1333V12.5781H9.43881V14.1333H8.05557Z" fill="black"/>
<path d="M9.26385 14.1333V12.5781H10.3396V14.1333H9.26385Z" fill="black"/>
<path d="M10.0113 14.1333V12.5781H11.5486V14.1333H10.0113Z" fill="black"/>
<path d="M11.2196 14.1333V12.5781H12.6028V14.1333H11.2196Z" fill="black"/>
<path d="M12.4481 14.1333V12.5781H13.8314V14.1333H12.4481Z" fill="black"/>
<path d="M13.6564 14.1333V12.5781H15.1937V14.1333H13.6564Z" fill="black"/>
<path d="M14.9417 14.1333V12.5781H16.0175V14.1333H14.9417Z" fill="black"/>
<path d="M15.6891 14.1333V12.5781H16.7649V14.1333H15.6891Z" fill="black"/>
<path d="M16.7447 14.1333V12.5781H17.9739V14.1333H16.7447Z" fill="black"/>
<path d="M17.953 14.1333V12.5781H19.3362V14.1333H17.953Z" fill="black"/>
<path d="M19.1613 14.1333V12.5781H20.6986V14.1333H19.1613Z" fill="black"/>
<path d="M20.4466 14.1333V12.5781H21.5224V14.1333H20.4466Z" fill="black"/>
<path d="M21.3481 14.1333V12.5781H21.963V14.1333H21.3481Z" fill="black"/>
<path d="M7.15407 17.1333V15.5781H8.38325V17.1333H7.15407Z" fill="black"/>
<path d="M8.36235 17.1333V15.5781H9.7456V17.1333H8.36235Z" fill="black"/>
<path d="M9.41657 17.1333V15.5781H10.4923V17.1333H9.41657Z" fill="black"/>
<path d="M10.3181 17.1333V15.5781H11.3938V17.1333H10.3181Z" fill="black"/>
<path d="M11.2196 17.1333V15.5781H12.7569V17.1333H11.2196Z" fill="black"/>
<path d="M12.5819 17.1333V15.5781H14.1192V17.1333H12.5819Z" fill="black"/>
<path d="M13.8672 17.1333V15.5781H14.943V17.1333H13.8672Z" fill="black"/>
<path d="M14.6147 17.1333V15.5781H15.6904V17.1333H14.6147Z" fill="black"/>
<path d="M15.6702 17.1333V15.5781H16.8994V17.1333H15.6702Z" fill="black"/>
<path d="M16.8785 17.1333V15.5781H18.2617V17.1333H16.8785Z" fill="black"/>
<path d="M18.0868 17.1333V15.5781H19.47V17.1333H18.0868Z" fill="black"/>
<path d="M19.2572 17.1333V15.5781H19.8722V17.1333H19.2572Z" fill="black"/>
<path d="M19.6965 17.1333V15.5781H21.2338V17.1333H19.6965Z" fill="black"/>
<path d="M21.1359 17.1333V15.5781H22.5191V17.1333H21.1359Z" fill="black"/>
<path d="M22.3442 17.1333V15.5781H23.8815V17.1333H22.3442Z" fill="black"/>
<path d="M23.6295 17.1333V15.5781H24.2444V17.1333H23.6295Z" fill="black"/>
<path d="M24.0688 17.1333V15.5781H25.1446V17.1333H24.0688Z" fill="black"/>
<path d="M24.8162 17.1333V15.5781H26.3535V17.1333H24.8162Z" fill="black"/>
<path d="M26.1786 17.1333V15.5781H27.7159V17.1333H26.1786Z" fill="black"/>
<path d="M27.3869 17.1333V15.5781H28.0018V17.1333H27.3869Z" fill="black"/>
<path d="M7 20.1333V18.5781H8.07578V20.1333H7Z" fill="black"/>
<path d="M7.9015 20.1333V18.5781H9.90034V20.1333H7.9015Z" fill="black"/>
<path d="M9.95581 20.1333V18.5781H11.3391V20.1333H9.95581Z" fill="black"/>
<path d="M11.2411 20.1333V18.5781H12.4703V20.1333H11.2411Z" fill="black"/>
<path d="M12.2953 20.1333V18.5781H13.6786V20.1333H12.2953Z" fill="black"/>
<path d="M13.3698 20.1333V18.5781H14.4456V20.1333H13.3698Z" fill="black"/>
<path d="M14.1173 20.1333V18.5781H15.6546V20.1333H14.1173Z" fill="black"/>
<path d="M15.5566 20.1333V18.5781H16.9399V20.1333H15.5566Z" fill="black"/>
<path d="M16.7649 20.1333V18.5781H18.1482V20.1333H16.7649Z" fill="black"/>
<path d="M17.8962 20.1333V18.5781H19.4335V20.1333H17.8962Z" fill="black"/>
<path d="M19.1045 20.1333V18.5781H19.7194V20.1333H19.1045Z" fill="black"/>
<path d="M19.6978 20.1333V18.5781H20.927V20.1333H19.6978Z" fill="black"/>
<path d="M20.752 20.1333V18.5781H21.9819V20.1333H20.752Z" fill="black"/>
<path d="M21.6535 20.1333V18.5781H22.2684V20.1333H21.6535Z" fill="black"/>
<path d="M7 23.1333V21.5781H8.53732V23.1333H7Z" fill="black"/>
<path d="M8.28532 23.1333V21.5781H9.82263V23.1333H8.28532Z" fill="black"/>
<path d="M9.64767 23.1333V21.5781H11.0309V23.1333H9.64767Z" fill="black"/>
<path d="M10.856 23.1333V21.5781H12.3933V23.1333H10.856Z" fill="black"/>
<path d="M12.2183 23.1333V21.5781H13.6016V23.1333H12.2183Z" fill="black"/>
<path d="M13.3496 23.1333V21.5781H14.4253V23.1333H13.3496Z" fill="black"/>
<path d="M14.2511 23.1333V21.5781H15.7884V23.1333H14.2511Z" fill="black"/>
<path d="M15.4593 23.1333V21.5781H16.9966V23.1333H15.4593Z" fill="black"/>
<path d="M16.7447 23.1333V21.5781H18.1279V23.1333H16.7447Z" fill="black"/>
<path d="M17.8191 23.1333V21.5781H18.8949V23.1333H17.8191Z" fill="black"/>
<path d="M18.8747 23.1333V21.5781H20.1039V23.1333H18.8747Z" fill="black"/>
<path d="M19.833 23.1333V21.5781H21.3703V23.1333H19.833Z" fill="black"/>
<path d="M21.1183 23.1333V21.5781H22.1941V23.1333H21.1183Z" fill="black"/>
<path d="M21.8657 23.1333V21.5781H22.9415V23.1333H21.8657Z" fill="black"/>
<path d="M22.9213 23.1333V21.5781H24.1504V23.1333H22.9213Z" fill="black"/>
<path d="M24.1296 23.1333V21.5781H25.5128V23.1333H24.1296Z" fill="black"/>
<path d="M25.3378 23.1333V21.5781H25.9528V23.1333H25.3378Z" fill="black"/>
<path d="M25.7771 23.1333V21.5781H26.8529V23.1333H25.7771Z" fill="black"/>
<path d="M26.8327 23.1333V21.5781H28.2159V23.1333H26.8327Z" fill="black"/>
<path d="M28.041 23.1333V21.5781H28.6559V23.1333H28.041Z" fill="black"/>
<path d="M28.4803 23.1333V21.5781H29.556V23.1333H28.4803Z" fill="black"/>
<path d="M29.2277 23.1333V21.5781H30.765V23.1333H29.2277Z" fill="black"/>
<path d="M30.59 23.1333V21.5781H32.1274V23.1333H30.59Z" fill="black"/>
<path d="M31.7983 23.1333V21.5781H32.4132V23.1333H31.7983Z" fill="black"/>
<path d="M7 26.1333V24.5781H8.69139V26.1333H7Z" fill="black"/>
<path d="M8.59346 26.1333V24.5781H9.82263V26.1333H8.59346Z" fill="black"/>
<path d="M9.64767 26.1333V24.5781H11.0309V26.1333H9.64767Z" fill="black"/>
<path d="M10.7222 26.1333V24.5781H12.2595V26.1333H10.7222Z" fill="black"/>
<path d="M11.9304 26.1333V24.5781H13.4678V26.1333H11.9304Z" fill="black"/>
<path d="M13.3698 26.1333V24.5781H14.7531V26.1333H13.3698Z" fill="black"/>
<path d="M14.5781 26.1333V24.5781H15.193V26.1333H14.5781Z" fill="black"/>
<path d="M15.1715 26.1333V24.5781H16.7088V26.1333H15.1715Z" fill="black"/>
<path d="M16.3987 26.1333V24.5781H17.936V26.1333H16.3987Z" fill="black"/>
<path d="M17.761 26.1333V24.5781H19.1443V26.1333H17.761Z" fill="black"/>
<path d="M18.9693 26.1333V24.5781H20.0451V26.1333H18.9693Z" fill="black"/>
<path d="M20.0249 26.1333V24.5781H21.4081V26.1333H20.0249Z" fill="black"/>
<path d="M21.2332 26.1333V24.5781H22.6164V26.1333H21.2332Z" fill="black"/>
<path d="M22.4036 26.1333V24.5781H23.9409V26.1333H22.4036Z" fill="black"/>
<path d="M23.7659 26.1333V24.5781H24.8417V26.1333H23.7659Z" fill="black"/>
<path d="M24.6674 26.1333V24.5781H26.2048V26.1333H24.6674Z" fill="black"/>
<path d="M25.9528 26.1333V24.5781H26.7211V26.1333H25.9528Z" fill="black"/>
<path d="M26.4691 26.1333V24.5781H27.084V26.1333H26.4691Z" fill="black"/>
<path d="M26.9084 26.1333V24.5781H27.9842V26.1333H26.9084Z" fill="black"/>
<path d="M27.6558 26.1333V24.5781H29.1931V26.1333H27.6558Z" fill="black"/>
<path d="M29.0182 26.1333V24.5781H30.5555V26.1333H29.0182Z" fill="black"/>
<path d="M30.2264 26.1333V24.5781H30.8414V26.1333H30.2264Z" fill="black"/>
<path d="M7.15407 29.1333V27.5781H8.38325V29.1333H7.15407Z" fill="black"/>
<path d="M8.36235 29.1333V27.5781H9.7456V29.1333H8.36235Z" fill="black"/>
<path d="M9.64767 29.1333V27.5781H11.0309V29.1333H9.64767Z" fill="black"/>
<path d="M10.933 29.1333V27.5781H12.1622V29.1333H10.933Z" fill="black"/>
<path d="M11.9872 29.1333V27.5781H13.3704V29.1333H11.9872Z" fill="black"/>
<path d="M13.0617 29.1333V27.5781H14.1375V29.1333H13.0617Z" fill="black"/>
<path d="M13.8091 29.1333V27.5781H15.3464V29.1333H13.8091Z" fill="black"/>
<path d="M15.3255 29.1333V27.5781H16.7088V29.1333H15.3255Z" fill="black"/>
<path d="M16.5338 29.1333V27.5781H17.6096V29.1333H16.5338Z" fill="black"/>
<path d="M17.4353 29.1333V27.5781H18.5111V29.1333H17.4353Z" fill="black"/>
<path d="M18.1827 29.1333V27.5781H19.2585V29.1333H18.1827Z" fill="black"/>
<path d="M19.0842 29.1333V27.5781H20.6216V29.1333H19.0842Z" fill="black"/>
<path d="M20.2925 29.1333V27.5781H21.6758V29.1333H20.2925Z" fill="black"/>
<path d="M21.463 29.1333V27.5781H22.0779V29.1333H21.463Z" fill="black"/>
<path d="M21.9022 29.1333V27.5781H23.1321V29.1333H21.9022Z" fill="black"/>
<path d="M22.9578 29.1333V27.5781H24.187V29.1333H22.9578Z" fill="black"/>
<path d="M24.012 29.1333V27.5781H25.3953V29.1333H24.012Z" fill="black"/>
<path d="M25.0865 29.1333V27.5781H25.7014V29.1333H25.0865Z" fill="black"/>
<path d="M25.5258 29.1333V27.5781H27.0631V29.1333H25.5258Z" fill="black"/>
<path d="M26.8882 29.1333V27.5781H28.2714V29.1333H26.8882Z" fill="black"/>
<path d="M28.0586 29.1333V27.5781H28.6735V29.1333H28.0586Z" fill="black"/>
<path d="M28.4979 29.1333V27.5781H29.5737V29.1333H28.4979Z" fill="black"/>
<path d="M29.3994 29.1333V27.5781H30.6286V29.1333H29.3994Z" fill="black"/>
<path d="M30.4536 29.1333V27.5781H31.0685V29.1333H30.4536Z" fill="black"/>
<path d="M7 32.1333V30.5781H8.53732V32.1333H7Z" fill="black"/>
<path d="M8.28532 32.1333V30.5781H9.3611V32.1333H8.28532Z" fill="black"/>
<path d="M9.18681 32.1333V30.5781H10.7241V32.1333H9.18681Z" fill="black"/>
<path d="M10.4721 32.1333V30.5781H11.5479V32.1333H10.4721Z" fill="black"/>
<path d="M11.5277 32.1333V30.5781H12.7569V32.1333H11.5277Z" fill="black"/>
<path d="M12.5819 32.1333V30.5781H14.1192V32.1333H12.5819Z" fill="black"/>
<path d="M13.9443 32.1333V30.5781H15.4816V32.1333H13.9443Z" fill="black"/>
<path d="M15.3066 32.1333V30.5781H16.8439V32.1333H15.3066Z" fill="black"/>
<path d="M16.5149 32.1333V30.5781H17.1298V32.1333H16.5149Z" fill="black"/>
<path d="M16.9542 32.1333V30.5781H19.1064V32.1333H16.9542Z" fill="black"/>
<path d="M18.8544 32.1333V30.5781H19.9302V32.1333H18.8544Z" fill="black"/>
<path d="M19.7559 32.1333V30.5781H20.8317V32.1333H19.7559Z" fill="black"/>
<path d="M20.5034 32.1333V30.5781H22.0407V32.1333H20.5034Z" fill="black"/>
<path d="M21.8657 32.1333V30.5781H22.4806V32.1333H21.8657Z" fill="black"/>
<path d="M22.305 32.1333V30.5781H23.3808V32.1333H22.305Z" fill="black"/>
<path d="M23.0524 32.1333V30.5781H24.5897V32.1333H23.0524Z" fill="black"/>
<path d="M24.4148 32.1333V30.5781H25.9521V32.1333H24.4148Z" fill="black"/>
<path d="M25.6231 32.1333V30.5781H27.6219V32.1333H25.6231Z" fill="black"/>
<path d="M27.5233 32.1333V30.5781H28.1382V32.1333H27.5233Z" fill="black"/>
<path d="M27.9626 32.1333V30.5781H29.4999V32.1333H27.9626Z" fill="black"/>
<path d="M29.2479 32.1333V30.5781H30.6311V32.1333H29.2479Z" fill="black"/>
<path d="M30.3224 32.1333V30.5781H31.8597V32.1333H30.3224Z" fill="black"/>
<path d="M31.5307 32.1333V30.5781H32.1456V32.1333H31.5307Z" fill="black"/>
<path d="M7 35.1333V33.5781H8.07578V35.1333H7Z" fill="black"/>
<path d="M7.74743 35.1333V33.5781H9.28474V35.1333H7.74743Z" fill="black"/>
<path d="M9.10978 35.1333V33.5781H10.6471V35.1333H9.10978Z" fill="black"/>
<path d="M10.3181 35.1333V33.5781H11.7013V35.1333H10.3181Z" fill="black"/>
<path d="M11.3925 35.1333V33.5781H12.9299V35.1333H11.3925Z" fill="black"/>
<path d="M12.6008 35.1333V33.5781H13.3692V35.1333H12.6008Z" fill="black"/>
<path d="M13.1172 35.1333V33.5781H13.7321V35.1333H13.1172Z" fill="black"/>
<path d="M13.5564 35.1333V33.5781H15.2478V35.1333H13.5564Z" fill="black"/>
<path d="M15.1499 35.1333V33.5781H16.5331V35.1333H15.1499Z" fill="black"/>
<path d="M16.3582 35.1333V33.5781H17.8955V35.1333H16.3582Z" fill="black"/>
<path d="M17.6435 35.1333V33.5781H18.2584V35.1333H17.6435Z" fill="black"/>
<path d="M18.0828 35.1333V33.5781H20.235V35.1333H18.0828Z" fill="black"/>
<path d="M19.983 35.1333V33.5781H21.5203V35.1333H19.983Z" fill="black"/>
<path d="M21.1913 35.1333V33.5781H21.8062V35.1333H21.1913Z" fill="black"/>
<path d="M21.6306 35.1333V33.5781H23.1679V35.1333H21.6306Z" fill="black"/>
<path d="M23.07 35.1333V33.5781H24.2992V35.1333H23.07Z" fill="black"/>
<path d="M24.1242 35.1333V33.5781H24.7391V35.1333H24.1242Z" fill="black"/>
<path d="M24.7176 35.1333V33.5781H26.1008V35.1333H24.7176Z" fill="black"/>
<path d="M26.0799 35.1333V33.5781H27.3091V35.1333H26.0799Z" fill="black"/>
<path d="M27.1341 35.1333V33.5781H28.2099V35.1333H27.1341Z" fill="black"/>
<path d="M27.8815 35.1333V33.5781H28.4965V35.1333H27.8815Z" fill="black"/>
<path d="M28.3208 35.1333V33.5781H29.8582V35.1333H28.3208Z" fill="black"/>
<path d="M29.6832 35.1333V33.5781H31.2205V35.1333H29.6832Z" fill="black"/>
<path d="M30.8915 35.1333V33.5781H32.2747V35.1333H30.8915Z" fill="black"/>
<path d="M32.1768 35.1333V33.5781H33.7141V35.1333H32.1768Z" fill="black"/>
<path d="M33.3851 35.1333V33.5781H34V35.1333H33.3851Z" fill="black"/>
<path d="M7 38.1333V36.5781H8.53732V38.1333H7Z" fill="black"/>
<path d="M8.43939 38.1333V36.5781H9.82263V38.1333H8.43939Z" fill="black"/>
<path d="M9.72471 38.1333V36.5781H11.108V38.1333H9.72471Z" fill="black"/>
<path d="M10.856 38.1333V36.5781H11.4709V38.1333H10.856Z" fill="black"/>
<path d="M11.2952 38.1333V36.5781H12.371V38.1333H11.2952Z" fill="black"/>
<path d="M12.3508 38.1333V36.5781H13.7341V38.1333H12.3508Z" fill="black"/>
<path d="M13.5591 38.1333V36.5781H14.6349V38.1333H13.5591Z" fill="black"/>
<path d="M14.3065 38.1333V36.5781H15.8438V38.1333H14.3065Z" fill="black"/>
<path d="M15.5148 38.1333V36.5781H16.898V38.1333H15.5148Z" fill="black"/>
<path d="M16.5893 38.1333V36.5781H18.1266V38.1333H16.5893Z" fill="black"/>
<path d="M17.7976 38.1333V36.5781H19.1808V38.1333H17.7976Z" fill="black"/>
<path d="M18.968 38.1333V36.5781H20.0438V38.1333H18.968Z" fill="black"/>
<path d="M19.7154 38.1333V36.5781H20.3304V38.1333H19.7154Z" fill="black"/>
<path d="M20.1547 38.1333V36.5781H21.2305V38.1333H20.1547Z" fill="black"/>
<path d="M21.2103 38.1333V36.5781H22.5935V38.1333H21.2103Z" fill="black"/>
<path d="M22.4186 38.1333V36.5781H23.0335V38.1333H22.4186Z" fill="black"/>
<path d="M22.8579 38.1333V36.5781H24.3952V38.1333H22.8579Z" fill="black"/>
<path d="M24.2972 38.1333V36.5781H25.6805V38.1333H24.2972Z" fill="black"/>
<path d="M25.5055 38.1333V36.5781H26.1205V38.1333H25.5055Z" fill="black"/>
<path d="M7.15407 41.1333V39.5781H8.38325V41.1333H7.15407Z" fill="black"/>
<path d="M8.20828 41.1333V39.5781H9.43814V41.1333H8.20828Z" fill="black"/>
<path d="M9.10978 41.1333V39.5781H10.3396V41.1333H9.10978Z" fill="black"/>
<path d="M10.0113 41.1333V39.5781H11.5486V41.1333H10.0113Z" fill="black"/>
<path d="M11.3736 41.1333V39.5781H12.7569V41.1333H11.3736Z" fill="black"/>
<path d="M12.5819 41.1333V39.5781H13.9652V41.1333H12.5819Z" fill="black"/>
<path d="M13.7524 41.1333V39.5781H14.8281V41.1333H13.7524Z" fill="black"/>
<path d="M14.5768 41.1333V39.5781H15.9601V41.1333H14.5768Z" fill="black"/>
<path d="M15.8621 41.1333V39.5781H17.3994V41.1333H15.8621Z" fill="black"/>
<path d="M17.0704 41.1333V39.5781H17.6853V41.1333H17.0704Z" fill="black"/>
<path d="M17.5097 41.1333V39.5781H19.047V41.1333H17.5097Z" fill="black"/>
<path d="M18.9491 41.1333V39.5781H20.3323V41.1333H18.9491Z" fill="black"/>
<path d="M20.2344 41.1333V39.5781H21.6177V41.1333H20.2344Z" fill="black"/>
<path d="M21.3657 41.1333V39.5781H22.7489V41.1333H21.3657Z" fill="black"/>
<path d="M22.5942 41.1333V39.5781H23.8234V41.1333H22.5942Z" fill="black"/>
<path d="M23.6484 41.1333V39.5781H25.1857V41.1333H23.6484Z" fill="black"/>
<path d="M24.9337 41.1333V39.5781H26.317V41.1333H24.9337Z" fill="black"/>
<path d="M26.065 41.1333V39.5781H27.6023V41.1333H26.065Z" fill="black"/>
<path d="M27.4273 41.1333V39.5781H28.0423V41.1333H27.4273Z" fill="black"/>
<path d="M27.8666 41.1333V39.5781H28.9424V41.1333H27.8666Z" fill="black"/>
<path d="M28.7681 41.1333V39.5781H29.9973V41.1333H28.7681Z" fill="black"/>
<path d="M29.8223 41.1333V39.5781H30.4373V41.1333H29.8223Z" fill="black"/>
<path d="M7 44.1333V42.5781H8.69139V44.1333H7Z" fill="black"/>
<path d="M8.53534 44.1333V42.5781H9.76452V44.1333H8.53534Z" fill="black"/>
<path d="M9.58956 44.1333V42.5781H10.9728V44.1333H9.58956Z" fill="black"/>
<path d="M10.664 44.1333V42.5781H11.7398V44.1333H10.664Z" fill="black"/>
<path d="M11.4115 44.1333V42.5781H12.9488V44.1333H11.4115Z" fill="black"/>
<path d="M12.7738 44.1333V42.5781H13.3887V44.1333H12.7738Z" fill="black"/>
<path d="M13.2131 44.1333V42.5781H14.9045V44.1333H13.2131Z" fill="black"/>
<path d="M14.8066 44.1333V42.5781H16.0357V44.1333H14.8066Z" fill="black"/>
<path d="M15.8608 44.1333V42.5781H17.244V44.1333H15.8608Z" fill="black"/>
<path d="M16.9353 44.1333V42.5781H18.4726V44.1333H16.9353Z" fill="black"/>
<path d="M18.1435 44.1333V42.5781H19.6809V44.1333H18.1435Z" fill="black"/>
<path d="M19.4289 44.1333V42.5781H20.1972V44.1333H19.4289Z" fill="black"/>
<path d="M19.9452 44.1333V42.5781H20.5601V44.1333H19.9452Z" fill="black"/>
<path d="M20.5385 44.1333V42.5781H22.6908V44.1333H20.5385Z" fill="black"/>
<path d="M22.4766 44.1333V42.5781H24.0139V44.1333H22.4766Z" fill="black"/>
<path d="M23.6849 44.1333V42.5781H24.2998V44.1333H23.6849Z" fill="black"/>
<path d="M24.1242 44.1333V42.5781H26.2764V44.1333H24.1242Z" fill="black"/>
<path d="M25.9474 44.1333V42.5781H27.4847V44.1333H25.9474Z" fill="black"/>
<path d="M27.3868 44.1333V42.5781H28.77V44.1333H27.3868Z" fill="black"/>
<path d="M28.5951 44.1333V42.5781H29.6709V44.1333H28.5951Z" fill="black"/>
<path d="M29.3425 44.1333V42.5781H29.9574V44.1333H29.3425Z" fill="black"/>
<path d="M7.15407 47.1333V45.5781H8.53732V47.1333H7.15407Z" fill="black"/>
<path d="M8.28532 47.1333V45.5781H9.82263V47.1333H8.28532Z" fill="black"/>
<path d="M9.4936 47.1333V45.5781H11.0309V47.1333H9.4936Z" fill="black"/>
<path d="M10.7789 47.1333V45.5781H12.1622V47.1333H10.7789Z" fill="black"/>
<path d="M11.9102 47.1333V45.5781H13.4475V47.1333H11.9102Z" fill="black"/>
<path d="M13.1185 47.1333V45.5781H13.7334V47.1333H13.1185Z" fill="black"/>
<path d="M13.5577 47.1333V45.5781H15.0951V47.1333H13.5577Z" fill="black"/>
<path d="M14.9971 47.1333V45.5781H16.3804V47.1333H14.9971Z" fill="black"/>
<path d="M16.2054 47.1333V45.5781H17.7427V47.1333H16.2054Z" fill="black"/>
<path d="M17.4907 47.1333V45.5781H18.1057V47.1333H17.4907Z" fill="black"/>
<path d="M17.93 47.1333V45.5781H19.3133V47.1333H17.93Z" fill="black"/>
<path d="M19.1005 47.1333V45.5781H20.6378V47.1333H19.1005Z" fill="black"/>
<path d="M20.3087 47.1333V45.5781H21.692V47.1333H20.3087Z" fill="black"/>
<path d="M21.44 47.1333V45.5781H22.9773V47.1333H21.44Z" fill="black"/>
<path d="M22.8023 47.1333V45.5781H24.1856V47.1333H22.8023Z" fill="black"/>
<path d="M23.8768 47.1333V45.5781H24.9526V47.1333H23.8768Z" fill="black"/>
<path d="M24.7783 47.1333V45.5781H25.8541V47.1333H24.7783Z" fill="black"/>
<path d="M25.6798 47.1333V45.5781H27.0631V47.1333H25.6798Z" fill="black"/>
<path d="M26.8111 47.1333V45.5781H27.426V47.1333H26.8111Z" fill="black"/>
<path d="M27.2504 47.1333V45.5781H28.4802V47.1333H27.2504Z" fill="black"/>
<path d="M28.3059 47.1333V45.5781H29.5351V47.1333H28.3059Z" fill="black"/>
<path d="M29.3601 47.1333V45.5781H30.7434V47.1333H29.3601Z" fill="black"/>
<path d="M30.4346 47.1333V45.5781H31.0495V47.1333H30.4346Z" fill="black"/>
<path d="M7 50.1333V48.5781H8.53732V50.1333H7Z" fill="black"/>
<path d="M8.28532 50.1333V48.5781H9.3611V50.1333H8.28532Z" fill="black"/>
<path d="M9.18681 50.1333V48.5781H10.2626V50.1333H9.18681Z" fill="black"/>
<path d="M10.0883 50.1333V48.5781H10.7032V50.1333H10.0883Z" fill="black"/>
<path d="M10.6817 50.1333V48.5781H12.0649V50.1333H10.6817Z" fill="black"/>
<path d="M11.8129 50.1333V48.5781H13.3502V50.1333H11.8129Z" fill="black"/>
<path d="M13.1753 50.1333V48.5781H14.4044V50.1333H13.1753Z" fill="black"/>
<path d="M14.3836 50.1333V48.5781H15.7668V50.1333H14.3836Z" fill="black"/>
<path d="M15.5148 50.1333V48.5781H16.5906V50.1333H15.5148Z" fill="black"/>
<path d="M16.4163 50.1333V48.5781H17.9536V50.1333H16.4163Z" fill="black"/>
<path d="M17.6246 50.1333V48.5781H19.0078V50.1333H17.6246Z" fill="black"/>
<path d="M18.795 50.1333V48.5781H19.5633V50.1333H18.795Z" fill="black"/>
<path d="M19.3113 50.1333V48.5781H20.0797V50.1333H19.3113Z" fill="black"/>
</g>
<rect width="12" height="14" transform="translate(26 41.1328)" fill="white"/>
<path d="M31.6787 44.9941C32.5999 44.9941 33.2721 45.1927 33.6953 45.5898C34.1185 45.9837 34.3301 46.5273 34.3301 47.2207C34.3301 47.5332 34.2829 47.8327 34.1885 48.1191C34.0941 48.4023 33.9395 48.6546 33.7246 48.876C33.513 49.0973 33.2298 49.2731 32.875 49.4033C32.5202 49.5303 32.0824 49.5938 31.5615 49.5938H30.9121V52.1328H29.3984V44.9941H31.6787ZM31.6006 46.2344H30.9121V48.3535H31.4102C31.6934 48.3535 31.9391 48.3161 32.1475 48.2412C32.3558 48.1663 32.5169 48.0492 32.6309 47.8896C32.7448 47.7301 32.8018 47.5251 32.8018 47.2744C32.8018 46.9229 32.7041 46.6624 32.5088 46.4932C32.3135 46.3206 32.0107 46.2344 31.6006 46.2344Z" fill="#585858"/>
<rect x="1" y="0.578125" width="39" height="57.5552" stroke="#364B60"/>
<path d="M12.3333 61.1328H3V67.4809H12.3333V61.1328Z" fill="#BB90BB"/>
</svg>
