<svg width="39" height="88" viewBox="0 0 39 88" fill="none" xmlns="http://www.w3.org/2000/svg">
<rect width="39" height="88" fill=""/>
<g clip-path="url(#clip0_39_124700)">
<g filter="url(#filter0_d_39_124700)">
<rect width="35" height="71.5552" transform="translate(2 2.54492)" fill="white"/>
<g opacity="0.3">
<rect width="35" height="69.5552" transform="translate(2 2.54492)" fill="white"/>
<path d="M6 8.1001V6.54492H6.76176V8.1001H6Z" fill="black"/>
<path d="M6.58829 8.1001V6.54492H7.95973V8.1001H6.58829Z" fill="black"/>
<path d="M8.01539 8.1001V6.54492H9.23408V8.1001H8.01539Z" fill="black"/>
<path d="M9.06061 8.1001V6.54492H9.67028V8.1001H9.06061Z" fill="black"/>
<path d="M9.49614 8.1001V6.54492H10.5627V8.1001H9.49614Z" fill="black"/>
<path d="M10.3899 8.1001V6.54492H11.4565V8.1001H10.3899Z" fill="black"/>
<path d="M11.2837 8.1001V6.54492H12.8079V8.1001H11.2837Z" fill="black"/>
<path d="M12.597 8.1001V6.54492H14.1211V8.1001H12.597Z" fill="black"/>
<path d="M13.7949 8.1001V6.54492H14.4046V8.1001H13.7949Z" fill="black"/>
<path d="M14.2305 8.1001V6.54492H15.7547V8.1001H14.2305Z" fill="black"/>
<path d="M15.5048 8.1001V6.54492H16.5714V8.1001H15.5048Z" fill="black"/>
<path d="M16.3986 8.1001V6.54492H17.4652V8.1001H16.3986Z" fill="black"/>
<path d="M17.2924 8.1001V6.54492H17.9021V8.1001H17.2924Z" fill="black"/>
<path d="M17.8807 8.1001V6.54492H19.2521V8.1001H17.8807Z" fill="black"/>
<path d="M19.0787 8.1001V6.54492H20.6029V8.1001H19.0787Z" fill="black"/>
<path d="M20.353 8.1001V6.54492H21.4196V8.1001H20.353Z" fill="black"/>
<path d="M21.0941 8.1001V6.54492H22.1607V8.1001H21.0941Z" fill="black"/>
<path d="M22.1406 8.1001V6.54492H23.3593V8.1001H22.1406Z" fill="black"/>
<path d="M23.3386 8.1001V6.54492H24.71V8.1001H23.3386Z" fill="black"/>
<path d="M24.5366 8.1001V6.54492H25.908V8.1001H24.5366Z" fill="black"/>
<path d="M25.697 8.1001V6.54492H26.3067V8.1001H25.697Z" fill="black"/>
<path d="M26.2853 8.1001V6.54492H27.504V8.1001H26.2853Z" fill="black"/>
<path d="M27.4833 8.1001V6.54492H28.8547V8.1001H27.4833Z" fill="black"/>
<path d="M28.6812 8.1001V6.54492H29.2909V8.1001H28.6812Z" fill="black"/>
<path d="M6 11.1001V9.54492H7.67695V11.1001H6Z" fill="black"/>
<path d="M7.3132 11.1001V9.54492H8.8374V11.1001H7.3132Z" fill="black"/>
<path d="M8.58755 11.1001V9.54492H9.95899V11.1001H8.58755Z" fill="black"/>
<path d="M9.65287 11.1001V9.54492H10.7195V11.1001H9.65287Z" fill="black"/>
<path d="M10.3939 11.1001V9.54492H11.9181V11.1001H10.3939Z" fill="black"/>
<path d="M11.7446 11.1001V9.54492H12.5064V11.1001H11.7446Z" fill="black"/>
<path d="M12.2565 11.1001V9.54492H12.8662V11.1001H12.2565Z" fill="black"/>
<path d="M12.6921 11.1001V9.54492H14.369V11.1001H12.6921Z" fill="black"/>
<path d="M14.2143 11.1001V9.54492H15.433V11.1001H14.2143Z" fill="black"/>
<path d="M15.2595 11.1001V9.54492H16.631V11.1001H15.2595Z" fill="black"/>
<path d="M16.3249 11.1001V9.54492H17.3915V11.1001H16.3249Z" fill="black"/>
<path d="M17.0659 11.1001V9.54492H18.5901V11.1001H17.0659Z" fill="black"/>
<path d="M18.4166 11.1001V9.54492H19.0263V11.1001H18.4166Z" fill="black"/>
<path d="M18.8522 11.1001V9.54492H20.5291V11.1001H18.8522Z" fill="black"/>
<path d="M20.432 11.1001V9.54492H21.6507V11.1001H20.432Z" fill="black"/>
<path d="M21.4772 11.1001V9.54492H22.8487V11.1001H21.4772Z" fill="black"/>
<path d="M22.5425 11.1001V9.54492H24.0667V11.1001H22.5425Z" fill="black"/>
<path d="M23.7405 11.1001V9.54492H25.2647V11.1001H23.7405Z" fill="black"/>
<path d="M25.0149 11.1001V9.54492H25.6245V11.1001H25.0149Z" fill="black"/>
<path d="M25.4504 11.1001V9.54492H26.9746V11.1001H25.4504Z" fill="black"/>
<path d="M26.8775 11.1001V9.54492H28.2489V11.1001H26.8775Z" fill="black"/>
<path d="M28.0755 11.1001V9.54492H29.5997V11.1001H28.0755Z" fill="black"/>
<path d="M29.3498 11.1001V9.54492H29.9595V11.1001H29.3498Z" fill="black"/>
<path d="M6 14.1001V12.5449H7.0666V14.1001H6Z" fill="black"/>
<path d="M6.8938 14.1001V12.5449H7.9604V14.1001H6.8938Z" fill="black"/>
<path d="M7.63485 14.1001V12.5449H9.00629V14.1001H7.63485Z" fill="black"/>
<path d="M8.7953 14.1001V12.5449H9.40497V14.1001H8.7953Z" fill="black"/>
<path d="M9.38359 14.1001V12.5449H10.755V14.1001H9.38359Z" fill="black"/>
<path d="M10.5052 14.1001V12.5449H12.0294V14.1001H10.5052Z" fill="black"/>
<path d="M11.8559 14.1001V12.5449H13.0746V14.1001H11.8559Z" fill="black"/>
<path d="M13.0539 14.1001V12.5449H14.4253V14.1001H13.0539Z" fill="black"/>
<path d="M14.1755 14.1001V12.5449H15.2421V14.1001H14.1755Z" fill="black"/>
<path d="M15.0693 14.1001V12.5449H16.5935V14.1001H15.0693Z" fill="black"/>
<path d="M16.2672 14.1001V12.5449H16.8769V14.1001H16.2672Z" fill="black"/>
<path d="M16.7028 14.1001V12.5449H18.227V14.1001H16.7028Z" fill="black"/>
<path d="M18.0535 14.1001V12.5449H19.5777V14.1001H18.0535Z" fill="black"/>
<path d="M19.2515 14.1001V12.5449H20.6229V14.1001H19.2515Z" fill="black"/>
<path d="M20.5258 14.1001V12.5449H22.05V14.1001H20.5258Z" fill="black"/>
<path d="M21.7238 14.1001V12.5449H22.3335V14.1001H21.7238Z" fill="black"/>
<path d="M22.1593 14.1001V12.5449H23.6835V14.1001H22.1593Z" fill="black"/>
<path d="M23.4337 14.1001V12.5449H24.0433V14.1001H23.4337Z" fill="black"/>
<path d="M23.8692 14.1001V12.5449H25.2406V14.1001H23.8692Z" fill="black"/>
<path d="M24.9908 14.1001V12.5449H26.515V14.1001H24.9908Z" fill="black"/>
<path d="M26.4943 14.1001V12.5449H27.713V14.1001H26.4943Z" fill="black"/>
<path d="M27.5395 14.1001V12.5449H28.6061V14.1001H27.5395Z" fill="black"/>
<path d="M28.4333 14.1001V12.5449H29.8047V14.1001H28.4333Z" fill="black"/>
<path d="M29.5549 14.1001V12.5449H31.0791V14.1001H29.5549Z" fill="black"/>
<path d="M30.7528 14.1001V12.5449H31.5146V14.1001H30.7528Z" fill="black"/>
<path d="M31.2648 14.1001V12.5449H31.8744V14.1001H31.2648Z" fill="black"/>
<path d="M6 17.1001V15.5449H7.52419V17.1001H6Z" fill="black"/>
<path d="M7.35072 17.1001V15.5449H8.87492V17.1001H7.35072Z" fill="black"/>
<path d="M8.70145 17.1001V15.5449H10.2256V17.1001H8.70145Z" fill="black"/>
<path d="M10.0522 17.1001V15.5449H11.4236V17.1001H10.0522Z" fill="black"/>
<path d="M11.1738 17.1001V15.5449H11.7834V17.1001H11.1738Z" fill="black"/>
<path d="M11.6093 17.1001V15.5449H12.9807V17.1001H11.6093Z" fill="black"/>
<path d="M12.7309 17.1001V15.5449H14.2551V17.1001H12.7309Z" fill="black"/>
<path d="M14.158 17.1001V15.5449H15.5294V17.1001H14.158Z" fill="black"/>
<path d="M15.356 17.1001V15.5449H15.9656V17.1001H15.356Z" fill="black"/>
<path d="M15.7915 17.1001V15.5449H17.1629V17.1001H15.7915Z" fill="black"/>
<path d="M16.9131 17.1001V15.5449H18.4373V17.1001H16.9131Z" fill="black"/>
<path d="M18.4166 17.1001V15.5449H19.6353V17.1001H18.4166Z" fill="black"/>
<path d="M19.6145 17.1001V15.5449H20.8332V17.1001H19.6145Z" fill="black"/>
<path d="M20.6598 17.1001V15.5449H22.0312V17.1001H20.6598Z" fill="black"/>
<path d="M21.8202 17.1001V15.5449H23.3444V17.1001H21.8202Z" fill="black"/>
<path d="M23.0182 17.1001V15.5449H23.6279V17.1001H23.0182Z" fill="black"/>
<path d="M23.4537 17.1001V15.5449H24.5203V17.1001H23.4537Z" fill="black"/>
<path d="M24.3475 17.1001V15.5449H25.5662V17.1001H24.3475Z" fill="black"/>
<path d="M25.3927 17.1001V15.5449H26.0024V17.1001H25.3927Z" fill="black"/>
<path d="M6 20.1001V18.5449H7.37144V20.1001H6Z" fill="black"/>
<path d="M7.27435 20.1001V18.5449H8.49303V20.1001H7.27435Z" fill="black"/>
<path d="M8.47232 20.1001V18.5449H9.84375V20.1001H8.47232Z" fill="black"/>
<path d="M9.67028 20.1001V18.5449H10.7369V20.1001H9.67028Z" fill="black"/>
<path d="M10.4113 20.1001V18.5449H11.4779V20.1001H10.4113Z" fill="black"/>
<path d="M11.4579 20.1001V18.5449H12.8293V20.1001H11.4579Z" fill="black"/>
<path d="M12.6559 20.1001V18.5449H14.18V20.1001H12.6559Z" fill="black"/>
<path d="M14.0066 20.1001V18.5449H15.5308V20.1001H14.0066Z" fill="black"/>
<path d="M15.2045 20.1001V18.5449H15.8142V20.1001H15.2045Z" fill="black"/>
<path d="M15.6401 20.1001V18.5449H17.1643V20.1001H15.6401Z" fill="black"/>
<path d="M17.0672 20.1001V18.5449H18.2859V20.1001H17.0672Z" fill="black"/>
<path d="M18.1124 20.1001V18.5449H20.2463V20.1001H18.1124Z" fill="black"/>
<path d="M20.1492 20.1001V18.5449H21.5206V20.1001H20.1492Z" fill="black"/>
<path d="M21.3471 20.1001V18.5449H21.9568V20.1001H21.3471Z" fill="black"/>
<path d="M21.7827 20.1001V18.5449H23.3069V20.1001H21.7827Z" fill="black"/>
<path d="M23.057 20.1001V18.5449H23.6667V20.1001H23.057Z" fill="black"/>
<path d="M23.4926 20.1001V18.5449H24.5592V20.1001H23.4926Z" fill="black"/>
<path d="M24.5391 20.1001V18.5449H25.7578V20.1001H24.5391Z" fill="black"/>
<path d="M25.7371 20.1001V18.5449H27.1085V20.1001H25.7371Z" fill="black"/>
<path d="M26.9351 20.1001V18.5449H28.4593V20.1001H26.9351Z" fill="black"/>
<path d="M28.133 20.1001V18.5449H29.1996V20.1001H28.133Z" fill="black"/>
<path d="M29.1032 20.1001V18.5449H30.4746V20.1001H29.1032Z" fill="black"/>
<path d="M30.2248 20.1001V18.5449H30.8345V20.1001H30.2248Z" fill="black"/>
<path d="M6 23.1001V21.5449H7.37144V23.1001H6Z" fill="black"/>
<path d="M7.21807 23.1001V21.5449H8.43675V23.1001H7.21807Z" fill="black"/>
<path d="M8.26328 23.1001V21.5449H9.78748V23.1001H8.26328Z" fill="black"/>
<path d="M9.53763 23.1001V21.5449H11.0618V23.1001H9.53763Z" fill="black"/>
<path d="M10.812 23.1001V21.5449H11.4217V23.1001H10.812Z" fill="black"/>
<path d="M11.4003 23.1001V21.5449H12.619V23.1001H11.4003Z" fill="black"/>
<path d="M12.4455 23.1001V21.5449H13.6648V23.1001H12.4455Z" fill="black"/>
<path d="M13.3393 23.1001V21.5449H13.949V23.1001H13.3393Z" fill="black"/>
<path d="M13.7748 23.1001V21.5449H14.8414V23.1001H13.7748Z" fill="black"/>
<path d="M14.6686 23.1001V21.5449H16.0401V23.1001H14.6686Z" fill="black"/>
<path d="M15.9818 23.1001V21.5449H17.2005V23.1001H15.9818Z" fill="black"/>
<path d="M17.027 23.1001V21.5449H18.0936V23.1001H17.027Z" fill="black"/>
<path d="M17.9208 23.1001V21.5449H19.445V23.1001H17.9208Z" fill="black"/>
<path d="M19.1952 23.1001V21.5449H20.2618V23.1001H19.1952Z" fill="black"/>
<path d="M19.9362 23.1001V21.5449H21.0028V23.1001H19.9362Z" fill="black"/>
<path d="M20.9828 23.1001V21.5449H22.2015V23.1001H20.9828Z" fill="black"/>
<path d="M22.1808 23.1001V21.5449H23.5522V23.1001H22.1808Z" fill="black"/>
<path d="M23.3787 23.1001V21.5449H24.1405V23.1001H23.3787Z" fill="black"/>
<path d="M23.8906 23.1001V21.5449H24.5003V23.1001H23.8906Z" fill="black"/>
<path d="M24.4789 23.1001V21.5449H25.6976V23.1001H24.4789Z" fill="black"/>
<path d="M25.5241 23.1001V21.5449H26.8956V23.1001H25.5241Z" fill="black"/>
<path d="M26.5895 23.1001V21.5449H27.1991V23.1001H26.5895Z" fill="black"/>
<path d="M27.025 23.1001V21.5449H28.0916V23.1001H27.025Z" fill="black"/>
<path d="M27.766 23.1001V21.5449H29.2902V23.1001H27.766Z" fill="black"/>
<path d="M29.1168 23.1001V21.5449H30.641V23.1001H29.1168Z" fill="black"/>
<path d="M30.4675 23.1001V21.5449H31.8389V23.1001H30.4675Z" fill="black"/>
<path d="M31.5891 23.1001V21.5449H32.1988V23.1001H31.5891Z" fill="black"/>
<path d="M6 26.1001V24.5449H7.37144V26.1001H6Z" fill="black"/>
<path d="M7.12159 26.1001V24.5449H8.64579V26.1001H7.12159Z" fill="black"/>
<path d="M8.54869 26.1001V24.5449H9.92013V26.1001H8.54869Z" fill="black"/>
<path d="M9.74666 26.1001V24.5449H10.3563V26.1001H9.74666Z" fill="black"/>
<path d="M10.1822 26.1001V24.5449H11.5536V26.1001H10.1822Z" fill="black"/>
<path d="M11.3038 26.1001V24.5449H12.828V26.1001H11.3038Z" fill="black"/>
<path d="M12.8073 26.1001V24.5449H14.026V26.1001H12.8073Z" fill="black"/>
<path d="M14.0052 26.1001V24.5449H15.2239V26.1001H14.0052Z" fill="black"/>
<path d="M15.0505 26.1001V24.5449H16.4219V26.1001H15.0505Z" fill="black"/>
<path d="M16.2109 26.1001V24.5449H17.7351V26.1001H16.2109Z" fill="black"/>
<path d="M17.4089 26.1001V24.5449H18.0186V26.1001H17.4089Z" fill="black"/>
<path d="M17.8444 26.1001V24.5449H18.911V26.1001H17.8444Z" fill="black"/>
<path d="M18.7382 26.1001V24.5449H19.9569V26.1001H18.7382Z" fill="black"/>
<path d="M19.7834 26.1001V24.5449H20.3931V26.1001H19.7834Z" fill="black"/>
<path d="M20.219 26.1001V24.5449H21.1335V26.1001H20.219Z" fill="black"/>
<path d="M21.0364 26.1001V24.5449H22.2551V26.1001H21.0364Z" fill="black"/>
<path d="M22.0816 26.1001V24.5449H23.1482V26.1001H22.0816Z" fill="black"/>
<path d="M23.1282 26.1001V24.5449H24.4996V26.1001H23.1282Z" fill="black"/>
<path d="M24.3261 26.1001V24.5449H24.9358V26.1001H24.3261Z" fill="black"/>
<path d="M24.7617 26.1001V24.5449H25.8283V26.1001H24.7617Z" fill="black"/>
<path d="M25.5027 26.1001V24.5449H27.0269V26.1001H25.5027Z" fill="black"/>
<path d="M26.8534 26.1001V24.5449H28.3776V26.1001H26.8534Z" fill="black"/>
<path d="M28.0514 26.1001V24.5449H28.6611V26.1001H28.0514Z" fill="black"/>
<path d="M6 29.1001V27.5449H7.37144V29.1001H6Z" fill="black"/>
<path d="M7.06531 29.1001V27.5449H8.58951V29.1001H7.06531Z" fill="black"/>
<path d="M8.26328 29.1001V27.5449H9.63472V29.1001H8.26328Z" fill="black"/>
<path d="M9.42373 29.1001V27.5449H10.4903V29.1001H9.42373Z" fill="black"/>
<path d="M10.1648 29.1001V27.5449H10.7745V29.1001H10.1648Z" fill="black"/>
<path d="M10.7531 29.1001V27.5449H11.9718V29.1001H10.7531Z" fill="black"/>
<path d="M11.7983 29.1001V27.5449H13.0176V29.1001H11.7983Z" fill="black"/>
<path d="M12.6921 29.1001V27.5449H13.3018V29.1001H12.6921Z" fill="black"/>
<path d="M13.1276 29.1001V27.5449H14.1942V29.1001H13.1276Z" fill="black"/>
<path d="M13.8687 29.1001V27.5449H15.3929V29.1001H13.8687Z" fill="black"/>
<path d="M15.2194 29.1001V27.5449H16.7436V29.1001H15.2194Z" fill="black"/>
<path d="M16.4174 29.1001V27.5449H17.027V29.1001H16.4174Z" fill="black"/>
<path d="M16.8529 29.1001V27.5449H18.9868V29.1001H16.8529Z" fill="black"/>
<path d="M18.8897 29.1001V27.5449H20.1084V29.1001H18.8897Z" fill="black"/>
<path d="M19.9349 29.1001V27.5449H21.3063V29.1001H19.9349Z" fill="black"/>
<path d="M21.0002 29.1001V27.5449H22.0668V29.1001H21.0002Z" fill="black"/>
<path d="M21.894 29.1001V27.5449H23.4182V29.1001H21.894Z" fill="black"/>
<path d="M23.1684 29.1001V27.5449H23.778V29.1001H23.1684Z" fill="black"/>
<path d="M23.6039 29.1001V27.5449H25.1281V29.1001H23.6039Z" fill="black"/>
<path d="M25.031 29.1001V27.5449H26.4024V29.1001H25.031Z" fill="black"/>
<path d="M26.229 29.1001V27.5449H27.7532V29.1001H26.229Z" fill="black"/>
<path d="M27.5033 29.1001V27.5449H28.113V29.1001H27.5033Z" fill="black"/>
<path d="M6 32.1001V30.5449H7.37144V32.1001H6Z" fill="black"/>
<path d="M7.16045 32.1001V30.5449H8.68464V32.1001H7.16045Z" fill="black"/>
<path d="M8.35842 32.1001V30.5449H9.88261V32.1001H8.35842Z" fill="black"/>
<path d="M9.55639 32.1001V30.5449H11.0806V32.1001H9.55639Z" fill="black"/>
<path d="M10.8696 32.1001V30.5449H11.4793V32.1001H10.8696Z" fill="black"/>
<path d="M11.3051 32.1001V30.5449H12.8293V32.1001H11.3051Z" fill="black"/>
<path d="M12.5795 32.1001V30.5449H13.1892V32.1001H12.5795Z" fill="black"/>
<path d="M13.015 32.1001V30.5449H14.2344V32.1001H13.015Z" fill="black"/>
<path d="M13.9088 32.1001V30.5449H15.433V32.1001H13.9088Z" fill="black"/>
<path d="M15.2595 32.1001V30.5449H16.3261V32.1001H15.2595Z" fill="black"/>
<path d="M16.0006 32.1001V30.5449H17.5248V32.1001H16.0006Z" fill="black"/>
<path d="M17.3513 32.1001V30.5449H18.7227V32.1001H17.3513Z" fill="black"/>
<path d="M18.4166 32.1001V30.5449H19.9408V32.1001H18.4166Z" fill="black"/>
<path d="M19.6146 32.1001V30.5449H20.2243V32.1001H19.6146Z" fill="black"/>
<path d="M20.2029 32.1001V30.5449H21.4216V32.1001H20.2029Z" fill="black"/>
<path d="M21.2481 32.1001V30.5449H22.4675V32.1001H21.2481Z" fill="black"/>
<path d="M22.1419 32.1001V30.5449H22.7516V32.1001H22.1419Z" fill="black"/>
<path d="M22.5774 32.1001V30.5449H24.1016V32.1001H22.5774Z" fill="black"/>
<path d="M23.9282 32.1001V30.5449H25.2996V32.1001H23.9282Z" fill="black"/>
<path d="M24.9935 32.1001V30.5449H26.5177V32.1001H24.9935Z" fill="black"/>
<path d="M26.1914 32.1001V30.5449H27.7156V32.1001H26.1914Z" fill="black"/>
<path d="M27.4658 32.1001V30.5449H28.5324V32.1001H27.4658Z" fill="black"/>
<path d="M28.2068 32.1001V30.5449H29.731V32.1001H28.2068Z" fill="black"/>
<path d="M29.4048 32.1001V30.5449H30.7762V32.1001H29.4048Z" fill="black"/>
<path d="M30.4701 32.1001V30.5449H31.0798V32.1001H30.4701Z" fill="black"/>
<path d="M6.15275 35.1001V33.5449H7.37144V35.1001H6.15275Z" fill="black"/>
<path d="M7.35072 35.1001V33.5449H8.72216V35.1001H7.35072Z" fill="black"/>
<path d="M8.62507 35.1001V33.5449H9.99651V35.1001H8.62507Z" fill="black"/>
<path d="M9.89942 35.1001V33.5449H11.1181V35.1001H9.89942Z" fill="black"/>
<path d="M10.9446 35.1001V33.5449H12.3161V35.1001H10.9446Z" fill="black"/>
<path d="M12.0099 35.1001V33.5449H13.0765V35.1001H12.0099Z" fill="black"/>
<path d="M12.751 35.1001V33.5449H14.2752V35.1001H12.751Z" fill="black"/>
<path d="M14.2545 35.1001V33.5449H15.6259V35.1001H14.2545Z" fill="black"/>
<path d="M15.4524 35.1001V33.5449H16.519V35.1001H15.4524Z" fill="black"/>
<path d="M16.3462 35.1001V33.5449H17.4128V35.1001H16.3462Z" fill="black"/>
<path d="M17.24 35.1001V33.5449H18.6115V35.1001H17.24Z" fill="black"/>
<path d="M18.3616 35.1001V33.5449H19.1234V35.1001H18.3616Z" fill="black"/>
<path d="M18.8735 35.1001V33.5449H19.4832V35.1001H18.8735Z" fill="black"/>
<path d="M19.3091 35.1001V33.5449H20.8333V35.1001H19.3091Z" fill="black"/>
<path d="M20.7362 35.1001V33.5449H22.1076V35.1001H20.7362Z" fill="black"/>
<path d="M21.9342 35.1001V33.5449H23.4583V35.1001H21.9342Z" fill="black"/>
<path d="M23.2085 35.1001V33.5449H23.8182V35.1001H23.2085Z" fill="black"/>
<path d="M23.644 35.1001V33.5449H25.1682V35.1001H23.644Z" fill="black"/>
<path d="M24.9948 35.1001V33.5449H26.3662V35.1001H24.9948Z" fill="black"/>
<path d="M26.0601 35.1001V33.5449H27.5843V35.1001H26.0601Z" fill="black"/>
<path d="M27.258 35.1001V33.5449H28.7822V35.1001H27.258Z" fill="black"/>
<path d="M28.5324 35.1001V33.5449H29.599V35.1001H28.5324Z" fill="black"/>
<path d="M29.2734 35.1001V33.5449H30.7976V35.1001H29.2734Z" fill="black"/>
<path d="M30.4714 35.1001V33.5449H31.8428V35.1001H30.4714Z" fill="black"/>
<path d="M31.5367 35.1001V33.5449H32.1464V35.1001H31.5367Z" fill="black"/>
<path d="M6 38.1001V36.5449H7.37144V38.1001H6Z" fill="black"/>
<path d="M7.16045 38.1001V36.5449H8.68464V38.1001H7.16045Z" fill="black"/>
<path d="M8.35842 38.1001V36.5449H9.72986V38.1001H8.35842Z" fill="black"/>
<path d="M9.48001 38.1001V36.5449H11.0042V38.1001H9.48001Z" fill="black"/>
<path d="M10.8307 38.1001V36.5449H12.2022V38.1001H10.8307Z" fill="black"/>
<path d="M11.896 38.1001V36.5449H12.9626V38.1001H11.896Z" fill="black"/>
<path d="M12.7898 38.1001V36.5449H13.8564V38.1001H12.7898Z" fill="black"/>
<path d="M13.6837 38.1001V36.5449H15.0551V38.1001H13.6837Z" fill="black"/>
<path d="M14.8052 38.1001V36.5449H15.567V38.1001H14.8052Z" fill="black"/>
<path d="M15.3172 38.1001V36.5449H15.9268V38.1001H15.3172Z" fill="black"/>
<path d="M15.7527 38.1001V36.5449H17.2769V38.1001H15.7527Z" fill="black"/>
<path d="M17.1798 38.1001V36.5449H18.5512V38.1001H17.1798Z" fill="black"/>
<path d="M18.3778 38.1001V36.5449H19.902V38.1001H18.3778Z" fill="black"/>
<path d="M19.6521 38.1001V36.5449H20.2618V38.1001H19.6521Z" fill="black"/>
<path d="M20.0876 38.1001V36.5449H21.6118V38.1001H20.0876Z" fill="black"/>
<path d="M21.4384 38.1001V36.5449H22.8098V38.1001H21.4384Z" fill="black"/>
<path d="M22.5037 38.1001V36.5449H24.0279V38.1001H22.5037Z" fill="black"/>
<path d="M23.7017 38.1001V36.5449H25.2258V38.1001H23.7017Z" fill="black"/>
<path d="M24.976 38.1001V36.5449H26.0426V38.1001H24.976Z" fill="black"/>
<path d="M25.717 38.1001V36.5449H27.2412V38.1001H25.717Z" fill="black"/>
<path d="M26.915 38.1001V36.5449H28.2865V38.1001H26.915Z" fill="black"/>
<path d="M27.9803 38.1001V36.5449H28.59V38.1001H27.9803Z" fill="black"/>
<path d="M6 41.1001V39.5449H7.37144V41.1001H6Z" fill="black"/>
<path d="M7.06531 41.1001V39.5449H8.58951V41.1001H7.06531Z" fill="black"/>
<path d="M8.26328 41.1001V39.5449H9.63472V41.1001H8.26328Z" fill="black"/>
<path d="M9.57649 41.1001V39.5449H10.9479V41.1001H9.57649Z" fill="black"/>
<path d="M10.6981 41.1001V39.5449H12.2223V41.1001H10.6981Z" fill="black"/>
<path d="M11.896 41.1001V39.5449H13.2675V41.1001H11.896Z" fill="black"/>
<path d="M13.0176 41.1001V39.5449H14.0842V41.1001H13.0176Z" fill="black"/>
<path d="M13.7587 41.1001V39.5449H14.3684V41.1001H13.7587Z" fill="black"/>
<path d="M14.1942 41.1001V39.5449H14.956V41.1001H14.1942Z" fill="black"/>
<path d="M14.7825 41.1001V39.5449H15.5443V41.1001H14.7825Z" fill="black"/>
<path d="M15.3708 41.1001V39.5449H15.9805V41.1001H15.3708Z" fill="black"/>
<path d="M15.8063 41.1001V39.5449H17.3305V41.1001H15.8063Z" fill="black"/>
<path d="M17.0807 41.1001V39.5449H17.6904V41.1001H17.0807Z" fill="black"/>
<path d="M17.5162 41.1001V39.5449H18.7356V41.1001H17.5162Z" fill="black"/>
<path d="M18.41 41.1001V39.5449H19.9342V41.1001H18.41Z" fill="black"/>
<path d="M19.7608 41.1001V39.5449H20.8274V41.1001H19.7608Z" fill="black"/>
<path d="M20.5018 41.1001V39.5449H22.026V41.1001H20.5018Z" fill="black"/>
<path d="M21.8525 41.1001V39.5449H23.224V41.1001H21.8525Z" fill="black"/>
<path d="M22.9178 41.1001V39.5449H24.442V41.1001H22.9178Z" fill="black"/>
<path d="M24.1158 41.1001V39.5449H24.7255V41.1001H24.1158Z" fill="black"/>
<path d="M24.5513 41.1001V39.5449H25.6179V41.1001H24.5513Z" fill="black"/>
<path d="M25.2924 41.1001V39.5449H26.8166V41.1001H25.2924Z" fill="black"/>
<path d="M26.6431 41.1001V39.5449H28.1673V41.1001H26.6431Z" fill="black"/>
<path d="M27.9175 41.1001V39.5449H28.9841V41.1001H27.9175Z" fill="black"/>
<path d="M28.6585 41.1001V39.5449H29.2682V41.1001H28.6585Z" fill="black"/>
<path d="M6 44.1001V42.5449H7.52419V44.1001H6Z" fill="black"/>
<path d="M7.27435 44.1001V42.5449H8.34095V44.1001H7.27435Z" fill="black"/>
<path d="M8.16815 44.1001V42.5449H9.53959V44.1001H8.16815Z" fill="black"/>
<path d="M9.23346 44.1001V42.5449H10.7577V44.1001H9.23346Z" fill="black"/>
<path d="M10.4314 44.1001V42.5449H11.9556V44.1001H10.4314Z" fill="black"/>
<path d="M11.7058 44.1001V42.5449H13.23V44.1001H11.7058Z" fill="black"/>
<path d="M13.0565 44.1001V42.5449H14.4279V44.1001H13.0565Z" fill="black"/>
<path d="M14.1781 44.1001V42.5449H14.7878V44.1001H14.1781Z" fill="black"/>
<path d="M14.6136 44.1001V42.5449H16.1378V44.1001H14.6136Z" fill="black"/>
<path d="M15.8116 44.1001V42.5449H17.3358V44.1001H15.8116Z" fill="black"/>
<path d="M17.0859 44.1001V42.5449H18.1525V44.1001H17.0859Z" fill="black"/>
<path d="M17.9797 44.1001V42.5449H19.3512V44.1001H17.9797Z" fill="black"/>
<path d="M19.1402 44.1001V42.5449H20.2068V44.1001H19.1402Z" fill="black"/>
<path d="M19.8812 44.1001V42.5449H21.2527V44.1001H19.8812Z" fill="black"/>
<path d="M21.0417 44.1001V42.5449H21.6514V44.1001H21.0417Z" fill="black"/>
<path d="M21.4772 44.1001V42.5449H22.6966V44.1001H21.4772Z" fill="black"/>
<path d="M22.5238 44.1001V42.5449H23.7425V44.1001H22.5238Z" fill="black"/>
<path d="M23.569 44.1001V42.5449H24.9404V44.1001H23.569Z" fill="black"/>
<path d="M24.6343 44.1001V42.5449H25.244V44.1001H24.6343Z" fill="black"/>
<path d="M25.0699 44.1001V42.5449H26.1365V44.1001H25.0699Z" fill="black"/>
<path d="M25.8109 44.1001V42.5449H27.3351V44.1001H25.8109Z" fill="black"/>
<path d="M27.1616 44.1001V42.5449H28.6858V44.1001H27.1616Z" fill="black"/>
<path d="M28.3596 44.1001V42.5449H28.9693V44.1001H28.3596Z" fill="black"/>
<path d="M6 47.1001V45.5449H7.37144V47.1001H6Z" fill="black"/>
<path d="M7.12159 47.1001V45.5449H8.18819V47.1001H7.12159Z" fill="black"/>
<path d="M8.01539 47.1001V45.5449H9.08199V47.1001H8.01539Z" fill="black"/>
<path d="M8.75644 47.1001V45.5449H9.82304V47.1001H8.75644Z" fill="black"/>
<path d="M9.80299 47.1001V45.5449H11.0217V47.1001H9.80299Z" fill="black"/>
<path d="M10.7531 47.1001V45.5449H12.2773V47.1001H10.7531Z" fill="black"/>
<path d="M12.1038 47.1001V45.5449H13.4752V47.1001H12.1038Z" fill="black"/>
<path d="M13.3018 47.1001V45.5449H14.6732V47.1001H13.3018Z" fill="black"/>
<path d="M14.4622 47.1001V45.5449H15.0719V47.1001H14.4622Z" fill="black"/>
<path d="M15.0505 47.1001V45.5449H16.2692V47.1001H15.0505Z" fill="black"/>
<path d="M16.2485 47.1001V45.5449H17.6199V47.1001H16.2485Z" fill="black"/>
<path d="M17.4464 47.1001V45.5449H18.0561V47.1001H17.4464Z" fill="black"/>
<path d="M17.882 47.1001V45.5449H18.9486V47.1001H17.882Z" fill="black"/>
<path d="M18.623 47.1001V45.5449H20.1472V47.1001H18.623Z" fill="black"/>
<path d="M19.9738 47.1001V45.5449H21.4979V47.1001H19.9738Z" fill="black"/>
<path d="M21.1717 47.1001V45.5449H21.7814V47.1001H21.1717Z" fill="black"/>
<path d="M21.6073 47.1001V45.5449H22.9787V47.1001H21.6073Z" fill="black"/>
<path d="M22.9205 47.1001V45.5449H24.1391V47.1001H22.9205Z" fill="black"/>
<path d="M23.9657 47.1001V45.5449H25.4899V47.1001H23.9657Z" fill="black"/>
<path d="M25.3164 47.1001V45.5449H26.383V47.1001H25.3164Z" fill="black"/>
<path d="M26.0574 47.1001V45.5449H27.5816V47.1001H26.0574Z" fill="black"/>
<path d="M27.4082 47.1001V45.5449H28.9324V47.1001H27.4082Z" fill="black"/>
<path d="M28.6061 47.1001V45.5449H29.9776V47.1001H28.6061Z" fill="black"/>
<path d="M29.8242 47.1001V45.5449H31.1956V47.1001H29.8242Z" fill="black"/>
<path d="M31.0222 47.1001V45.5449H31.6319V47.1001H31.0222Z" fill="black"/>
<path d="M6 50.1001V48.5449H7.52419V50.1001H6Z" fill="black"/>
<path d="M7.35072 50.1001V48.5449H8.72216V50.1001H7.35072Z" fill="black"/>
<path d="M8.54869 50.1001V48.5449H10.0729V50.1001H8.54869Z" fill="black"/>
<path d="M9.82304 50.1001V48.5449H10.4327V50.1001H9.82304Z" fill="black"/>
<path d="M10.4113 50.1001V48.5449H11.63V50.1001H10.4113Z" fill="black"/>
<path d="M11.4565 50.1001V48.5449H12.6759V50.1001H11.4565Z" fill="black"/>
<path d="M12.3503 50.1001V48.5449H12.96V50.1001H12.3503Z" fill="black"/>
<path d="M12.7859 50.1001V48.5449H13.8525V50.1001H12.7859Z" fill="black"/>
<path d="M13.5269 50.1001V48.5449H15.0511V50.1001H13.5269Z" fill="black"/>
<path d="M14.8777 50.1001V48.5449H16.4018V50.1001H14.8777Z" fill="black"/>
<path d="M16.0756 50.1001V48.5449H16.6853V50.1001H16.0756Z" fill="black"/>
<path d="M16.5112 50.1001V48.5449H18.1881V50.1001H16.5112Z" fill="black"/>
<path d="M18.091 50.1001V48.5449H19.3097V50.1001H18.091Z" fill="black"/>
<path d="M19.1362 50.1001V48.5449H20.5077V50.1001H19.1362Z" fill="black"/>
<path d="M20.2015 50.1001V48.5449H21.7257V50.1001H20.2015Z" fill="black"/>
<path d="M21.3995 50.1001V48.5449H22.9237V50.1001H21.3995Z" fill="black"/>
<path d="M22.8266 50.1001V48.5449H24.1981V50.1001H22.8266Z" fill="black"/>
<path d="M24.0246 50.1001V48.5449H24.6343V50.1001H24.0246Z" fill="black"/>
<path d="M6.15275 53.1001V51.5449H7.67695V53.1001H6.15275Z" fill="black"/>
<path d="M7.36948 53.1001V51.5449H8.89368V53.1001H7.36948Z" fill="black"/>
<path d="M8.72021 53.1001V51.5449H10.0916V53.1001H8.72021Z" fill="black"/>
<path d="M9.91818 53.1001V51.5449H10.9848V53.1001H9.91818Z" fill="black"/>
<path d="M10.9647 53.1001V51.5449H12.3362V53.1001H10.9647Z" fill="black"/>
<path d="M12.1627 53.1001V51.5449H13.5341V53.1001H12.1627Z" fill="black"/>
<path d="M13.3232 53.1001V51.5449H14.8473V53.1001H13.3232Z" fill="black"/>
<path d="M14.6739 53.1001V51.5449H15.7405V53.1001H14.6739Z" fill="black"/>
<path d="M15.5677 53.1001V51.5449H17.0919V53.1001H15.5677Z" fill="black"/>
<path d="M16.842 53.1001V51.5449H17.6038V53.1001H16.842Z" fill="black"/>
<path d="M17.3539 53.1001V51.5449H17.9636V53.1001H17.3539Z" fill="black"/>
<path d="M17.7895 53.1001V51.5449H19.0088V53.1001H17.7895Z" fill="black"/>
<path d="M18.8347 53.1001V51.5449H20.054V53.1001H18.8347Z" fill="black"/>
<path d="M19.7285 53.1001V51.5449H20.3382V53.1001H19.7285Z" fill="black"/>
<path d="M20.164 53.1001V51.5449H21.2306V53.1001H20.164Z" fill="black"/>
<path d="M20.9051 53.1001V51.5449H22.4293V53.1001H20.9051Z" fill="black"/>
<path d="M22.2558 53.1001V51.5449H23.78V53.1001H22.2558Z" fill="black"/>
<path d="M23.6065 53.1001V51.5449H24.978V53.1001H23.6065Z" fill="black"/>
<path d="M24.7281 53.1001V51.5449H25.3378V53.1001H24.7281Z" fill="black"/>
<path d="M25.1636 53.1001V51.5449H26.5351V53.1001H25.1636Z" fill="black"/>
<path d="M26.2852 53.1001V51.5449H27.8094V53.1001H26.2852Z" fill="black"/>
<path d="M27.7887 53.1001V51.5449H29.0074V53.1001H27.7887Z" fill="black"/>
<path d="M28.9867 53.1001V51.5449H30.2054V53.1001H28.9867Z" fill="black"/>
<path d="M30.0319 53.1001V51.5449H31.4033V53.1001H30.0319Z" fill="black"/>
<path d="M31.1924 53.1001V51.5449H32.7165V53.1001H31.1924Z" fill="black"/>
<path d="M32.3903 53.1001V51.5449H33V53.1001H32.3903Z" fill="black"/>
<path d="M6 56.1001V54.5449H7.0666V56.1001H6Z" fill="black"/>
<path d="M6.74105 56.1001V54.5449H8.26524V56.1001H6.74105Z" fill="black"/>
<path d="M8.09177 56.1001V54.5449H9.15837V56.1001H8.09177Z" fill="black"/>
<path d="M8.98557 56.1001V54.5449H10.357V56.1001H8.98557Z" fill="black"/>
<path d="M10.146 56.1001V54.5449H10.7557V56.1001H10.146Z" fill="black"/>
<path d="M10.7343 56.1001V54.5449H12.1058V56.1001H10.7343Z" fill="black"/>
<path d="M11.8559 56.1001V54.5449H13.3801V56.1001H11.8559Z" fill="black"/>
<path d="M13.1303 56.1001V54.5449H14.1969V56.1001H13.1303Z" fill="black"/>
<path d="M13.8713 56.1001V54.5449H15.3955V56.1001H13.8713Z" fill="black"/>
<path d="M15.222 56.1001V54.5449H15.9838V56.1001H15.222Z" fill="black"/>
<path d="M15.7339 56.1001V54.5449H16.3436V56.1001H15.7339Z" fill="black"/>
<path d="M16.1695 56.1001V54.5449H17.8464V56.1001H16.1695Z" fill="black"/>
<path d="M17.5966 56.1001V54.5449H19.5784V56.1001H17.5966Z" fill="black"/>
<path d="M19.4806 56.1001V54.5449H21.0048V56.1001H19.4806Z" fill="black"/>
<path d="M20.6786 56.1001V54.5449H22.05V56.1001H20.6786Z" fill="black"/>
<path d="M21.7439 56.1001V54.5449H22.8105V56.1001H21.7439Z" fill="black"/>
<path d="M22.6377 56.1001V54.5449H24.0091V56.1001H22.6377Z" fill="black"/>
<path d="M23.7593 56.1001V54.5449H25.2835V56.1001H23.7593Z" fill="black"/>
<path d="M25.0336 56.1001V54.5449H25.6433V56.1001H25.0336Z" fill="black"/>
<path d="M25.4692 56.1001V54.5449H26.9934V56.1001H25.4692Z" fill="black"/>
<path d="M26.8963 56.1001V54.5449H28.2677V56.1001H26.8963Z" fill="black"/>
<path d="M28.0942 56.1001V54.5449H29.6184V56.1001H28.0942Z" fill="black"/>
<path d="M29.3686 56.1001V54.5449H29.9783V56.1001H29.3686Z" fill="black"/>
<path d="M6 59.1001V57.5449H7.0666V59.1001H6Z" fill="black"/>
<path d="M6.74105 59.1001V57.5449H8.26524V59.1001H6.74105Z" fill="black"/>
<path d="M8.09177 59.1001V57.5449H9.61596V59.1001H8.09177Z" fill="black"/>
<path d="M9.28974 59.1001V57.5449H9.89942V59.1001H9.28974Z" fill="black"/>
<path d="M9.72528 59.1001V57.5449H11.4022V59.1001H9.72528Z" fill="black"/>
<path d="M11.2288 59.1001V57.5449H12.7529V59.1001H11.2288Z" fill="black"/>
<path d="M12.5795 59.1001V57.5449H13.9509V59.1001H12.5795Z" fill="black"/>
<path d="M13.7011 59.1001V57.5449H15.2253V59.1001H13.7011Z" fill="black"/>
<path d="M15.2045 59.1001V57.5449H16.576V59.1001H15.2045Z" fill="black"/>
<path d="M16.2498 59.1001V57.5449H17.3164V59.1001H16.2498Z" fill="black"/>
<path d="M17.1436 59.1001V57.5449H18.2102V59.1001H17.1436Z" fill="black"/>
<path d="M18.0374 59.1001V57.5449H19.4088V59.1001H18.0374Z" fill="black"/>
<path d="M19.159 59.1001V57.5449H19.7686V59.1001H19.159Z" fill="black"/>
<path d="M19.7472 59.1001V57.5449H20.9659V59.1001H19.7472Z" fill="black"/>
<path d="M20.7925 59.1001V57.5449H22.0118V59.1001H20.7925Z" fill="black"/>
<path d="M21.6863 59.1001V57.5449H22.2959V59.1001H21.6863Z" fill="black"/>
<path d="M22.1218 59.1001V57.5449H23.7987V59.1001H22.1218Z" fill="black"/>
<path d="M23.7017 59.1001V57.5449H24.9203V59.1001H23.7017Z" fill="black"/>
<path d="M24.7469 59.1001V57.5449H26.1183V59.1001H24.7469Z" fill="black"/>
<path d="M25.8122 59.1001V57.5449H27.3364V59.1001H25.8122Z" fill="black"/>
<path d="M27.0102 59.1001V57.5449H28.5343V59.1001H27.0102Z" fill="black"/>
<path d="M28.2845 59.1001V57.5449H28.8942V59.1001H28.2845Z" fill="black"/>
<path d="M6 62.1001V60.5449H7.52419V62.1001H6Z" fill="black"/>
<path d="M7.4271 62.1001V60.5449H8.79854V62.1001H7.4271Z" fill="black"/>
<path d="M8.62507 62.1001V60.5449H10.1493V62.1001H8.62507Z" fill="black"/>
<path d="M9.89942 62.1001V60.5449H10.5091V62.1001H9.89942Z" fill="black"/>
<path d="M10.335 62.1001V60.5449H11.4016V62.1001H10.335Z" fill="black"/>
<path d="M11.076 62.1001V60.5449H12.6002V62.1001H11.076Z" fill="black"/>
<path d="M12.4267 62.1001V60.5449H13.9509V62.1001H12.4267Z" fill="black"/>
<path d="M13.6247 62.1001V60.5449H14.2344V62.1001H13.6247Z" fill="black"/>
<path d="M14.0602 62.1001V60.5449H15.4317V62.1001H14.0602Z" fill="black"/>
<path d="M15.1255 62.1001V60.5449H16.6497V62.1001H15.1255Z" fill="black"/>
<path d="M16.3235 62.1001V60.5449H17.695V62.1001H16.3235Z" fill="black"/>
<path d="M17.484 62.1001V60.5449H18.5506V62.1001H17.484Z" fill="black"/>
<path d="M18.225 62.1001V60.5449H18.8347V62.1001H18.225Z" fill="black"/>
<path d="M18.8133 62.1001V60.5449H20.032V62.1001H18.8133Z" fill="black"/>
<path d="M19.8585 62.1001V60.5449H21.0779V62.1001H19.8585Z" fill="black"/>
<path d="M20.7523 62.1001V60.5449H21.362V62.1001H20.7523Z" fill="black"/>
<path d="M21.1879 62.1001V60.5449H22.2545V62.1001H21.1879Z" fill="black"/>
<path d="M21.9289 62.1001V60.5449H23.4531V62.1001H21.9289Z" fill="black"/>
<path d="M23.2796 62.1001V60.5449H24.8038V62.1001H23.2796Z" fill="black"/>
<path d="M24.4776 62.1001V60.5449H25.0873V62.1001H24.4776Z" fill="black"/>
<path d="M24.9131 62.1001V60.5449H27.047V62.1001H24.9131Z" fill="black"/>
<path d="M26.9499 62.1001V60.5449H28.1686V62.1001H26.9499Z" fill="black"/>
<path d="M27.9951 62.1001V60.5449H29.3666V62.1001H27.9951Z" fill="black"/>
<path d="M29.0604 62.1001V60.5449H30.127V62.1001H29.0604Z" fill="black"/>
<path d="M29.9542 62.1001V60.5449H31.4784V62.1001H29.9542Z" fill="black"/>
<path d="M31.2286 62.1001V60.5449H31.8383V62.1001H31.2286Z" fill="black"/>
<path d="M6 65.1001V63.5449H8.13387V65.1001H6Z" fill="black"/>
<path d="M7.88402 65.1001V63.5449H8.95062V65.1001H7.88402Z" fill="black"/>
<path d="M8.77782 65.1001V63.5449H9.84442V65.1001H8.77782Z" fill="black"/>
<path d="M9.67162 65.1001V63.5449H10.7382V65.1001H9.67162Z" fill="black"/>
<path d="M10.5654 65.1001V63.5449H11.1751V65.1001H10.5654Z" fill="black"/>
<path d="M11.001 65.1001V63.5449H12.5252V65.1001H11.001Z" fill="black"/>
<path d="M12.3517 65.1001V63.5449H13.8759V65.1001H12.3517Z" fill="black"/>
<path d="M13.5497 65.1001V63.5449H14.6163V65.1001H13.5497Z" fill="black"/>
<path d="M14.5962 65.1001V63.5449H15.9676V65.1001H14.5962Z" fill="black"/>
<path d="M15.7178 65.1001V63.5449H16.3275V65.1001H15.7178Z" fill="black"/>
<path d="M16.1533 65.1001V63.5449H17.2199V65.1001H16.1533Z" fill="black"/>
<path d="M16.8944 65.1001V63.5449H18.4186V65.1001H16.8944Z" fill="black"/>
<path d="M18.2451 65.1001V63.5449H19.7693V65.1001H18.2451Z" fill="black"/>
<path d="M19.4431 65.1001V63.5449H21.4249V65.1001H19.4431Z" fill="black"/>
<path d="M21.3271 65.1001V63.5449H21.9368V65.1001H21.3271Z" fill="black"/>
<path d="M21.9154 65.1001V63.5449H23.2868V65.1001H21.9154Z" fill="black"/>
<path d="M22.9606 65.1001V63.5449H24.4848V65.1001H22.9606Z" fill="black"/>
<path d="M24.3113 65.1001V63.5449H25.3779V65.1001H24.3113Z" fill="black"/>
<path d="M25.2051 65.1001V63.5449H26.2717V65.1001H25.2051Z" fill="black"/>
<path d="M26.0989 65.1001V63.5449H27.6231V65.1001H26.0989Z" fill="black"/>
<path d="M27.3733 65.1001V63.5449H27.983V65.1001H27.3733Z" fill="black"/>
<path d="M27.8088 65.1001V63.5449H28.8754V65.1001H27.8088Z" fill="black"/>
<path d="M28.5499 65.1001V63.5449H30.0741V65.1001H28.5499Z" fill="black"/>
<path d="M29.9006 65.1001V63.5449H31.4248V65.1001H29.9006Z" fill="black"/>
<path d="M31.1749 65.1001V63.5449H32.2415V65.1001H31.1749Z" fill="black"/>
<path d="M31.916 65.1001V63.5449H32.5257V65.1001H31.916Z" fill="black"/>
<path d="M6 68.1001V66.5449H7.21935V68.1001H6Z" fill="black"/>
<path d="M6.8938 68.1001V66.5449H8.41799V68.1001H6.8938Z" fill="black"/>
<path d="M8.24452 68.1001V66.5449H9.31112V68.1001H8.24452Z" fill="black"/>
<path d="M8.98557 68.1001V66.5449H10.5098V68.1001H8.98557Z" fill="black"/>
<path d="M10.3363 68.1001V66.5449H11.7077V68.1001H10.3363Z" fill="black"/>
<path d="M11.4016 68.1001V66.5449H12.9258V68.1001H11.4016Z" fill="black"/>
<path d="M12.5996 68.1001V66.5449H13.3613V68.1001H12.5996Z" fill="black"/>
<path d="M6.30484 7.99551H28.9861V8.06523H6.30484V7.99551ZM6.30484 10.9955H29.6547V11.0652H6.30484V10.9955ZM6.30484 13.9955H31.5696V14.0652H6.30484V13.9955ZM6.30484 16.9955H25.6976V17.0652H6.30484V16.9955ZM6.30484 19.9955H30.5296V20.0652H6.30484V19.9955ZM6.30484 22.9955H31.8939V23.0652H6.30484V22.9955ZM6.30484 25.9955H28.3562V26.0652H6.30484V25.9955ZM6.30484 28.9955H27.8081V29.0652H6.30484V28.9955ZM6.30484 31.9955H30.7743V32.0652H6.30484V31.9955ZM6.30484 34.9955H31.8409V35.0652H6.30484V34.9955ZM6.30484 37.9955H28.2845V38.0652H6.30484V37.9955ZM6.30484 40.9955H28.9627V41.0652H6.30484V40.9955ZM6.30484 43.9955H28.6644V44.0652H6.30484V43.9955ZM6.30484 46.9955H31.327V47.0652H6.30484V46.9955ZM6.30484 49.9955H24.3294V50.0652H6.30484V49.9955ZM6.30484 52.9955H32.6952V53.0652H6.30484V52.9955ZM6.30484 55.9955H29.6734V56.0652H6.30484V55.9955ZM6.30484 58.9955H28.5893V59.0652H6.30484V58.9955ZM6.30484 61.9955H31.5334V62.0652H6.30484V61.9955ZM6.30484 64.9955H32.2201V65.0652H6.30484V64.9955ZM6.30484 67.9955H13.4712V68.0652H6.30484V67.9955Z" fill="black"/>
</g>
<rect width="12" height="14" transform="translate(25 59.0996)" fill="white"/>
<path d="M30.6787 62.9609C31.5999 62.9609 32.2721 63.1595 32.6953 63.5566C33.1185 63.9505 33.3301 64.4941 33.3301 65.1875C33.3301 65.5 33.2829 65.7995 33.1885 66.0859C33.0941 66.3691 32.9395 66.6214 32.7246 66.8428C32.513 67.0641 32.2298 67.2399 31.875 67.3701C31.5202 67.4971 31.0824 67.5605 30.5615 67.5605H29.9121V70.0996H28.3984V62.9609H30.6787ZM30.6006 64.2012H29.9121V66.3203H30.4102C30.6934 66.3203 30.9391 66.2829 31.1475 66.208C31.3558 66.1331 31.5169 66.016 31.6309 65.8564C31.7448 65.6969 31.8018 65.4919 31.8018 65.2412C31.8018 64.8896 31.7041 64.6292 31.5088 64.46C31.3135 64.2874 31.0107 64.2012 30.6006 64.2012Z" fill="#585858"/>
</g>
<path d="M11.3333 79.0996H2V85.4477H11.3333V79.0996Z" fill="#BB90BB"/>
</g>
<defs>
<filter id="filter0_d_39_124700" x="0" y="1.54492" width="39" height="75.5547" filterUnits="userSpaceOnUse" color-interpolation-filters="sRGB">
<feFlood flood-opacity="0" result="BackgroundImageFix"/>
<feColorMatrix in="SourceAlpha" type="matrix" values="0 0 0 0 0 0 0 0 0 0 0 0 0 0 0 0 0 0 127 0" result="hardAlpha"/>
<feOffset dy="1"/>
<feGaussianBlur stdDeviation="1"/>
<feComposite in2="hardAlpha" operator="out"/>
<feColorMatrix type="matrix" values="0 0 0 0 0 0 0 0 0 0 0 0 0 0 0 0 0 0 0.1 0"/>
<feBlend mode="normal" in2="BackgroundImageFix" result="effect1_dropShadow_39_124700"/>
<feBlend mode="normal" in="SourceGraphic" in2="effect1_dropShadow_39_124700" result="shape"/>
</filter>
<clipPath id="clip0_39_124700">
<rect width="39" height="86.9033" fill="white" transform="translate(0 0.544922)"/>
</clipPath>
</defs>
</svg>
