<svg width="41" height="127" viewBox="0 0 41 127" fill="none" xmlns="http://www.w3.org/2000/svg">
<rect width="41" height="127" fill=""/>
<rect width="35" height="110.555" transform="translate(3 2.93164)" fill="white"/>
<g opacity="0.3">
<path d="M7 8.48682V6.93164H7.76264V8.48682H7Z" fill="black"/>
<path d="M7.58897 8.48682V6.93164H9.11491V8.48682H7.58897Z" fill="black"/>
<path d="M8.94124 8.48682V6.93164H10.4672V8.48682H8.94124Z" fill="black"/>
<path d="M10.2935 8.48682V6.93164H11.6665V8.48682H10.2935Z" fill="black"/>
<path d="M11.36 8.48682V6.93164H11.9704V8.48682H11.36Z" fill="black"/>
<path d="M11.7961 8.48682V6.93164H12.8639V8.48682H11.7961Z" fill="black"/>
<path d="M12.538 8.48682V6.93164H14.6743V8.48682H12.538Z" fill="black"/>
<path d="M14.5771 8.48682V6.93164H15.7972V8.48682H14.5771Z" fill="black"/>
<path d="M15.6235 8.48682V6.93164H16.2339V8.48682H15.6235Z" fill="black"/>
<path d="M16.2125 8.48682V6.93164H17.5855V8.48682H16.2125Z" fill="black"/>
<path d="M17.4118 8.48682V6.93164H18.9378V8.48682H17.4118Z" fill="black"/>
<path d="M18.6876 8.48682V6.93164H19.7554V8.48682H18.6876Z" fill="black"/>
<path d="M19.4295 8.48682V6.93164H20.4973V8.48682H19.4295Z" fill="black"/>
<path d="M20.4773 8.48682V6.93164H21.6974V8.48682H20.4773Z" fill="black"/>
<path d="M21.6766 8.48682V6.93164H23.0496V8.48682H21.6766Z" fill="black"/>
<path d="M22.876 8.48682V6.93164H24.249V8.48682H22.876Z" fill="black"/>
<path d="M24.0377 8.48682V6.93164H24.6481V8.48682H24.0377Z" fill="black"/>
<path d="M24.4738 8.48682V6.93164H25.9997V8.48682H24.4738Z" fill="black"/>
<path d="M25.7496 8.48682V6.93164H27.1226V8.48682H25.7496Z" fill="black"/>
<path d="M26.8161 8.48682V6.93164H28.3421V8.48682H26.8161Z" fill="black"/>
<path d="M28.0155 8.48682V6.93164H28.6258V8.48682H28.0155Z" fill="black"/>
<path d="M7.15293 11.4868V9.93164H8.52594V11.4868H7.15293Z" fill="black"/>
<path d="M8.27581 11.4868V9.93164H9.64882V11.4868H8.27581Z" fill="black"/>
<path d="M9.34234 11.4868V9.93164H10.8683V11.4868H9.34234Z" fill="black"/>
<path d="M10.6946 11.4868V9.93164H12.0676V11.4868H10.6946Z" fill="black"/>
<path d="M11.8175 11.4868V9.93164H13.3434V11.4868H11.8175Z" fill="black"/>
<path d="M13.0933 11.4868V9.93164H14.4663V11.4868H13.0933Z" fill="black"/>
<path d="M14.1598 11.4868V9.93164H15.6858V11.4868H14.1598Z" fill="black"/>
<path d="M15.3592 11.4868V9.93164H16.8851V11.4868H15.3592Z" fill="black"/>
<path d="M16.635 11.4868V9.93164H17.2454V11.4868H16.635Z" fill="black"/>
<path d="M17.071 11.4868V9.93164H18.1388V11.4868H17.071Z" fill="black"/>
<path d="M17.9659 11.4868V9.93164H19.1859V11.4868H17.9659Z" fill="black"/>
<path d="M19.0123 11.4868V9.93164H19.6226V11.4868H19.0123Z" fill="black"/>
<path d="M19.4483 11.4868V9.93164H20.9742V11.4868H19.4483Z" fill="black"/>
<path d="M20.8006 11.4868V9.93164H22.1736V11.4868H20.8006Z" fill="black"/>
<path d="M21.9999 11.4868V9.93164H23.5259V11.4868H21.9999Z" fill="black"/>
<path d="M23.3522 11.4868V9.93164H24.8781V11.4868H23.3522Z" fill="black"/>
<path d="M24.628 11.4868V9.93164H26.1539V11.4868H24.628Z" fill="black"/>
<path d="M25.9803 11.4868V9.93164H27.5062V11.4868H25.9803Z" fill="black"/>
<path d="M27.1796 11.4868V9.93164H27.79V11.4868H27.1796Z" fill="black"/>
<path d="M27.6156 11.4868V9.93164H29.752V11.4868H27.6156Z" fill="black"/>
<path d="M29.5018 11.4868V9.93164H30.5697V11.4868H29.5018Z" fill="black"/>
<path d="M30.3967 11.4868V9.93164H31.4645V11.4868H30.3967Z" fill="black"/>
<path d="M31.1386 11.4868V9.93164H32.6645V11.4868H31.1386Z" fill="black"/>
<path d="M32.4908 11.4868V9.93164H33.1012V11.4868H32.4908Z" fill="black"/>
<path d="M7 14.4868V12.9316H8.67887V14.4868H7Z" fill="black"/>
<path d="M8.52398 14.4868V12.9316H9.74407V14.4868H8.52398Z" fill="black"/>
<path d="M9.5704 14.4868V12.9316H10.9434V14.4868H9.5704Z" fill="black"/>
<path d="M10.6369 14.4868V12.9316H11.7048V14.4868H10.6369Z" fill="black"/>
<path d="M11.3788 14.4868V12.9316H12.9048V14.4868H11.3788Z" fill="black"/>
<path d="M12.7311 14.4868V12.9316H13.3415V14.4868H12.7311Z" fill="black"/>
<path d="M13.1671 14.4868V12.9316H14.846V14.4868H13.1671Z" fill="black"/>
<path d="M14.7488 14.4868V12.9316H15.9689V14.4868H14.7488Z" fill="black"/>
<path d="M15.7952 14.4868V12.9316H17.1682V14.4868H15.7952Z" fill="black"/>
<path d="M16.8618 14.4868V12.9316H18.3877V14.4868H16.8618Z" fill="black"/>
<path d="M18.0611 14.4868V12.9316H19.587V14.4868H18.0611Z" fill="black"/>
<path d="M19.3369 14.4868V12.9316H19.9473V14.4868H19.3369Z" fill="black"/>
<path d="M7 17.4868V15.9316H8.52594V17.4868H7Z" fill="black"/>
<path d="M8.27581 17.4868V15.9316H9.34363V17.4868H8.27581Z" fill="black"/>
<path d="M9.32356 17.4868V15.9316H10.6966V17.4868H9.32356Z" fill="black"/>
<path d="M10.4464 17.4868V15.9316H11.5143V17.4868H10.4464Z" fill="black"/>
<path d="M11.4942 17.4868V15.9316H12.7143V17.4868H11.4942Z" fill="black"/>
<path d="M12.5406 17.4868V15.9316H14.5247V17.4868H12.5406Z" fill="black"/>
<path d="M14.4268 17.4868V15.9316H15.9527V17.4868H14.4268Z" fill="black"/>
<path d="M15.7026 17.4868V15.9316H16.7704V17.4868H15.7026Z" fill="black"/>
<path d="M16.4445 17.4868V15.9316H17.5123V17.4868H16.4445Z" fill="black"/>
<path d="M17.3393 17.4868V15.9316H18.7123V17.4868H17.3393Z" fill="black"/>
<path d="M18.4622 17.4868V15.9316H19.9881V17.4868H18.4622Z" fill="black"/>
<path d="M19.738 17.4868V15.9316H20.8058V17.4868H19.738Z" fill="black"/>
<path d="M20.6328 17.4868V15.9316H21.7007V17.4868H20.6328Z" fill="black"/>
<path d="M21.6041 17.4868V15.9316H22.9771V17.4868H21.6041Z" fill="black"/>
<path d="M22.727 17.4868V15.9316H23.3374V17.4868H22.727Z" fill="black"/>
<path d="M23.163 17.4868V15.9316H24.689V17.4868H23.163Z" fill="black"/>
<path d="M24.5918 17.4868V15.9316H25.9648V17.4868H24.5918Z" fill="black"/>
<path d="M25.7911 17.4868V15.9316H27.3171V17.4868H25.7911Z" fill="black"/>
<path d="M27.0669 17.4868V15.9316H27.8296V17.4868H27.0669Z" fill="black"/>
<path d="M27.5794 17.4868V15.9316H28.1898V17.4868H27.5794Z" fill="black"/>
<path d="M28.1684 17.4868V15.9316H29.3885V17.4868H28.1684Z" fill="black"/>
<path d="M29.2148 17.4868V15.9316H30.5878V17.4868H29.2148Z" fill="black"/>
<path d="M30.4906 17.4868V15.9316H32.0166V17.4868H30.4906Z" fill="black"/>
<path d="M31.69 17.4868V15.9316H33.063V17.4868H31.69Z" fill="black"/>
<path d="M32.7565 17.4868V15.9316H33.3669V17.4868H32.7565Z" fill="black"/>
<path d="M7 20.4868V18.9316H8.06782V20.4868H7Z" fill="black"/>
<path d="M7.7419 20.4868V18.9316H8.80972V20.4868H7.7419Z" fill="black"/>
<path d="M8.63672 20.4868V18.9316H10.6208V20.4868H8.63672Z" fill="black"/>
<path d="M10.5229 20.4868V18.9316H12.0488V20.4868H10.5229Z" fill="black"/>
<path d="M11.7222 20.4868V18.9316H12.4849V20.4868H11.7222Z" fill="black"/>
<path d="M12.2348 20.4868V18.9316H12.8451V20.4868H12.2348Z" fill="black"/>
<path d="M12.8237 20.4868V18.9316H14.1967V20.4868H12.8237Z" fill="black"/>
<path d="M13.8701 20.4868V18.9316H15.3961V20.4868H13.8701Z" fill="black"/>
<path d="M15.2224 20.4868V18.9316H16.2902V20.4868H15.2224Z" fill="black"/>
<path d="M16.1172 20.4868V18.9316H17.1851V20.4868H16.1172Z" fill="black"/>
<path d="M17.0121 20.4868V18.9316H18.538V20.4868H17.0121Z" fill="black"/>
<path d="M18.2879 20.4868V18.9316H18.8982V20.4868H18.2879Z" fill="black"/>
<path d="M18.7239 20.4868V18.9316H19.7917V20.4868H18.7239Z" fill="black"/>
<path d="M19.4658 20.4868V18.9316H20.8388V20.4868H19.4658Z" fill="black"/>
<path d="M20.5323 20.4868V18.9316H22.0583V20.4868H20.5323Z" fill="black"/>
<path d="M21.8846 20.4868V18.9316H23.2576V20.4868H21.8846Z" fill="black"/>
<path d="M23.0464 20.4868V18.9316H24.1142V20.4868H23.0464Z" fill="black"/>
<path d="M23.7883 20.4868V18.9316H24.5509V20.4868H23.7883Z" fill="black"/>
<path d="M24.3008 20.4868V18.9316H25.0634V20.4868H24.3008Z" fill="black"/>
<path d="M24.8133 20.4868V18.9316H25.5759V20.4868H24.8133Z" fill="black"/>
<path d="M25.3258 20.4868V18.9316H27.4621V20.4868H25.3258Z" fill="black"/>
<path d="M27.212 20.4868V18.9316H28.7379V20.4868H27.212Z" fill="black"/>
<path d="M28.4113 20.4868V18.9316H29.0217V20.4868H28.4113Z" fill="black"/>
<path d="M7 23.4868V21.9316H8.37301V23.4868H7Z" fill="black"/>
<path d="M8.06654 23.4868V21.9316H9.59248V23.4868H8.06654Z" fill="black"/>
<path d="M9.26588 23.4868V21.9316H11.2499V23.4868H9.26588Z" fill="black"/>
<path d="M11.1521 23.4868V21.9316H12.678V23.4868H11.1521Z" fill="black"/>
<path d="M12.4279 23.4868V21.9316H13.4957V23.4868H12.4279Z" fill="black"/>
<path d="M13.4756 23.4868V21.9316H14.8486V23.4868H13.4756Z" fill="black"/>
<path d="M14.675 23.4868V21.9316H15.2853V23.4868H14.675Z" fill="black"/>
<path d="M15.2639 23.4868V21.9316H16.484V23.4868H15.2639Z" fill="black"/>
<path d="M16.4633 23.4868V21.9316H17.8363V23.4868H16.4633Z" fill="black"/>
<path d="M17.5862 23.4868V21.9316H19.1121V23.4868H17.5862Z" fill="black"/>
<path d="M18.9384 23.4868V21.9316H20.3114V23.4868H18.9384Z" fill="black"/>
<path d="M20.1378 23.4868V21.9316H20.7481V23.4868H20.1378Z" fill="black"/>
<path d="M20.5738 23.4868V21.9316H21.6416V23.4868H20.5738Z" fill="black"/>
<path d="M21.4686 23.4868V21.9316H22.6887V23.4868H21.4686Z" fill="black"/>
<path d="M22.515 23.4868V21.9316H23.1254V23.4868H22.515Z" fill="black"/>
<path d="M22.9511 23.4868V21.9316H24.0189V23.4868H22.9511Z" fill="black"/>
<path d="M23.693 23.4868V21.9316H25.2189V23.4868H23.693Z" fill="black"/>
<path d="M25.0453 23.4868V21.9316H26.5712V23.4868H25.0453Z" fill="black"/>
<path d="M26.2446 23.4868V21.9316H26.855V23.4868H26.2446Z" fill="black"/>
<path d="M7.15293 26.4868V24.9316H8.52594V26.4868H7.15293Z" fill="black"/>
<path d="M8.27581 26.4868V24.9316H9.64882V26.4868H8.27581Z" fill="black"/>
<path d="M9.49527 26.4868V24.9316H10.7154V26.4868H9.49527Z" fill="black"/>
<path d="M10.5417 26.4868V24.9316H11.9147V26.4868H10.5417Z" fill="black"/>
<path d="M11.8564 26.4868V24.9316H13.2294V26.4868H11.8564Z" fill="black"/>
<path d="M12.9793 26.4868V24.9316H14.5052V26.4868H12.9793Z" fill="black"/>
<path d="M14.1786 26.4868V24.9316H15.5516V26.4868H14.1786Z" fill="black"/>
<path d="M15.3015 26.4868V24.9316H16.3693V26.4868H15.3015Z" fill="black"/>
<path d="M16.0434 26.4868V24.9316H16.6538V26.4868H16.0434Z" fill="black"/>
<path d="M16.6324 26.4868V24.9316H17.8524V26.4868H16.6324Z" fill="black"/>
<path d="M17.6788 26.4868V24.9316H18.8995V26.4868H17.6788Z" fill="black"/>
<path d="M18.5736 26.4868V24.9316H19.184V26.4868H18.5736Z" fill="black"/>
<path d="M19.0096 26.4868V24.9316H20.6885V26.4868H19.0096Z" fill="black"/>
<path d="M20.5336 26.4868V24.9316H21.7537V26.4868H20.5336Z" fill="black"/>
<path d="M21.58 26.4868V24.9316H22.953V26.4868H21.58Z" fill="black"/>
<path d="M22.6466 26.4868V24.9316H23.7144V26.4868H22.6466Z" fill="black"/>
<path d="M23.3885 26.4868V24.9316H24.9144V26.4868H23.3885Z" fill="black"/>
<path d="M24.7407 26.4868V24.9316H25.3511V26.4868H24.7407Z" fill="black"/>
<path d="M25.1768 26.4868V24.9316H26.8556V26.4868H25.1768Z" fill="black"/>
<path d="M26.7584 26.4868V24.9316H27.9785V26.4868H26.7584Z" fill="black"/>
<path d="M27.8049 26.4868V24.9316H29.1779V26.4868H27.8049Z" fill="black"/>
<path d="M28.8714 26.4868V24.9316H30.3973V26.4868H28.8714Z" fill="black"/>
<path d="M30.0707 26.4868V24.9316H31.5967V26.4868H30.0707Z" fill="black"/>
<path d="M31.3465 26.4868V24.9316H31.9569V26.4868H31.3465Z" fill="black"/>
<path d="M7 29.4868V27.9316H8.06782V29.4868H7Z" fill="black"/>
<path d="M7.7419 29.4868V27.9316H9.26784V29.4868H7.7419Z" fill="black"/>
<path d="M9.0177 29.4868V27.9316H10.5436V29.4868H9.0177Z" fill="black"/>
<path d="M10.3324 29.4868V27.9316H11.4002V29.4868H10.3324Z" fill="black"/>
<path d="M11.3802 29.4868V27.9316H12.7532V29.4868H11.3802Z" fill="black"/>
<path d="M12.5795 29.4868V27.9316H14.1055V29.4868H12.5795Z" fill="black"/>
<path d="M13.9318 29.4868V27.9316H14.5422V29.4868H13.9318Z" fill="black"/>
<path d="M14.3678 29.4868V27.9316H15.8938V29.4868H14.3678Z" fill="black"/>
<path d="M15.6436 29.4868V27.9316H16.254V29.4868H15.6436Z" fill="black"/>
<path d="M16.2326 29.4868V27.9316H17.6056V29.4868H16.2326Z" fill="black"/>
<path d="M17.3555 29.4868V27.9316H18.8814V29.4868H17.3555Z" fill="black"/>
<path d="M18.5548 29.4868V27.9316H20.0808V29.4868H18.5548Z" fill="black"/>
<path d="M19.8306 29.4868V27.9316H21.2036V29.4868H19.8306Z" fill="black"/>
<path d="M20.9535 29.4868V27.9316H22.4794V29.4868H20.9535Z" fill="black"/>
<path d="M22.1528 29.4868V27.9316H23.3736V29.4868H22.1528Z" fill="black"/>
<path d="M23.0477 29.4868V27.9316H24.5736V29.4868H23.0477Z" fill="black"/>
<path d="M24.3999 29.4868V27.9316H25.4678V29.4868H24.3999Z" fill="black"/>
<path d="M25.2948 29.4868V27.9316H25.9051V29.4868H25.2948Z" fill="black"/>
<path d="M25.8837 29.4868V27.9316H27.2567V29.4868H25.8837Z" fill="black"/>
<path d="M27.0066 29.4868V27.9316H28.5326V29.4868H27.0066Z" fill="black"/>
<path d="M28.2824 29.4868V27.9316H29.3502V29.4868H28.2824Z" fill="black"/>
<path d="M29.0243 29.4868V27.9316H30.5503V29.4868H29.0243Z" fill="black"/>
<path d="M30.3766 29.4868V27.9316H30.987V29.4868H30.3766Z" fill="black"/>
<path d="M30.9656 29.4868V27.9316H32.1856V29.4868H30.9656Z" fill="black"/>
<path d="M32.012 29.4868V27.9316H33.2327V29.4868H32.012Z" fill="black"/>
<path d="M32.9068 29.4868V27.9316H33.5172V29.4868H32.9068Z" fill="black"/>
<path d="M7 32.4868V30.9316H8.52594V32.4868H7Z" fill="black"/>
<path d="M8.27581 32.4868V30.9316H9.80175V32.4868H8.27581Z" fill="black"/>
<path d="M9.62808 32.4868V30.9316H11.0011V32.4868H9.62808Z" fill="black"/>
<path d="M10.8274 32.4868V30.9316H12.3534V32.4868H10.8274Z" fill="black"/>
<path d="M12.1797 32.4868V30.9316H13.5527V32.4868H12.1797Z" fill="black"/>
<path d="M13.3026 32.4868V30.9316H14.3704V32.4868H13.3026Z" fill="black"/>
<path d="M14.1974 32.4868V30.9316H15.7233V32.4868H14.1974Z" fill="black"/>
<path d="M15.3967 32.4868V30.9316H16.9227V32.4868H15.3967Z" fill="black"/>
<path d="M16.6726 32.4868V30.9316H18.0456V32.4868H16.6726Z" fill="black"/>
<path d="M17.7391 32.4868V30.9316H18.8069V32.4868H17.7391Z" fill="black"/>
<path d="M18.7868 32.4868V30.9316H20.0069V32.4868H18.7868Z" fill="black"/>
<path d="M19.738 32.4868V30.9316H21.264V32.4868H19.738Z" fill="black"/>
<path d="M21.0138 32.4868V30.9316H22.0816V32.4868H21.0138Z" fill="black"/>
<path d="M21.7557 32.4868V30.9316H22.8235V32.4868H21.7557Z" fill="black"/>
<path d="M22.8035 32.4868V30.9316H24.0235V32.4868H22.8035Z" fill="black"/>
<path d="M24.0028 32.4868V30.9316H25.3758V32.4868H24.0028Z" fill="black"/>
<path d="M25.2022 32.4868V30.9316H25.9648V32.4868H25.2022Z" fill="black"/>
<path d="M25.7147 32.4868V30.9316H26.325V32.4868H25.7147Z" fill="black"/>
<path d="M7 35.4868V33.9316H8.52594V35.4868H7Z" fill="black"/>
<path d="M8.42874 35.4868V33.9316H9.80175V35.4868H8.42874Z" fill="black"/>
<path d="M9.47515 35.4868V33.9316H10.543V35.4868H9.47515Z" fill="black"/>
<path d="M10.37 35.4868V33.9316H11.8959V35.4868H10.37Z" fill="black"/>
<path d="M11.6458 35.4868V33.9316H12.7136V35.4868H11.6458Z" fill="black"/>
<path d="M12.6935 35.4868V33.9316H14.0666V35.4868H12.6935Z" fill="black"/>
<path d="M13.8929 35.4868V33.9316H15.4188V35.4868H13.8929Z" fill="black"/>
<path d="M15.2452 35.4868V33.9316H15.8555V35.4868H15.2452Z" fill="black"/>
<path d="M15.8341 35.4868V33.9316H17.2071V35.4868H15.8341Z" fill="black"/>
<path d="M17.0335 35.4868V33.9316H18.4065V35.4868H17.0335Z" fill="black"/>
<path d="M18.1563 35.4868V33.9316H18.7667V35.4868H18.1563Z" fill="black"/>
<path d="M18.5924 35.4868V33.9316H19.6602V35.4868H18.5924Z" fill="black"/>
<path d="M19.6401 35.4868V33.9316H21.0131V35.4868H19.6401Z" fill="black"/>
<path d="M20.8395 35.4868V33.9316H21.9073V35.4868H20.8395Z" fill="black"/>
<path d="M21.5814 35.4868V33.9316H23.1073V35.4868H21.5814Z" fill="black"/>
<path d="M22.7807 35.4868V33.9316H24.1537V35.4868H22.7807Z" fill="black"/>
<path d="M24.0002 35.4868V33.9316H25.3732V35.4868H24.0002Z" fill="black"/>
<path d="M25.1995 35.4868V33.9316H26.7255V35.4868H25.1995Z" fill="black"/>
<path d="M26.4753 35.4868V33.9316H27.5432V35.4868H26.4753Z" fill="black"/>
<path d="M27.2172 35.4868V33.9316H28.2851V35.4868H27.2172Z" fill="black"/>
<path d="M28.265 35.4868V33.9316H29.4851V35.4868H28.265Z" fill="black"/>
<path d="M29.4643 35.4868V33.9316H30.8373V35.4868H29.4643Z" fill="black"/>
<path d="M30.6637 35.4868V33.9316H32.1896V35.4868H30.6637Z" fill="black"/>
<path d="M31.9395 35.4868V33.9316H33.0073V35.4868H31.9395Z" fill="black"/>
<path d="M32.8343 35.4868V33.9316H33.4447V35.4868H32.8343Z" fill="black"/>
<path d="M7 38.4868V36.9316H8.37301V38.4868H7Z" fill="black"/>
<path d="M8.27581 38.4868V36.9316H9.49589V38.4868H8.27581Z" fill="black"/>
<path d="M9.32222 38.4868V36.9316H11.3063V38.4868H9.32222Z" fill="black"/>
<path d="M11.2084 38.4868V36.9316H13.1925V38.4868H11.2084Z" fill="black"/>
<path d="M13.0946 38.4868V36.9316H14.1624V38.4868H13.0946Z" fill="black"/>
<path d="M13.9894 38.4868V36.9316H15.0572V38.4868H13.9894Z" fill="black"/>
<path d="M14.7313 38.4868V36.9316H16.7154V38.4868H14.7313Z" fill="black"/>
<path d="M16.6175 38.4868V36.9316H18.1434V38.4868H16.6175Z" fill="black"/>
<path d="M17.9698 38.4868V36.9316H19.3428V38.4868H17.9698Z" fill="black"/>
<path d="M19.1691 38.4868V36.9316H20.2369V38.4868H19.1691Z" fill="black"/>
<path d="M19.911 38.4868V36.9316H21.284V38.4868H19.911Z" fill="black"/>
<path d="M21.0728 38.4868V36.9316H21.8354V38.4868H21.0728Z" fill="black"/>
<path d="M21.5853 38.4868V36.9316H22.1957V38.4868H21.5853Z" fill="black"/>
<path d="M22.0213 38.4868V36.9316H23.3943V38.4868H22.0213Z" fill="black"/>
<path d="M23.0879 38.4868V36.9316H24.6138V38.4868H23.0879Z" fill="black"/>
<path d="M24.2872 38.4868V36.9316H25.2028V38.4868H24.2872Z" fill="black"/>
<path d="M25.1056 38.4868V36.9316H26.3256V38.4868H25.1056Z" fill="black"/>
<path d="M26.152 38.4868V36.9316H27.2198V38.4868H26.152Z" fill="black"/>
<path d="M27.1997 38.4868V36.9316H28.5727V38.4868H27.1997Z" fill="black"/>
<path d="M28.3991 38.4868V36.9316H29.4669V38.4868H28.3991Z" fill="black"/>
<path d="M29.4468 38.4868V36.9316H30.8198V38.4868H29.4468Z" fill="black"/>
<path d="M30.6462 38.4868V36.9316H32.1721V38.4868H30.6462Z" fill="black"/>
<path d="M31.9984 38.4868V36.9316H32.6088V38.4868H31.9984Z" fill="black"/>
<path d="M7 41.4868V39.9316H8.06782V41.4868H7Z" fill="black"/>
<path d="M7.7419 41.4868V39.9316H9.26784V41.4868H7.7419Z" fill="black"/>
<path d="M9.09417 41.4868V39.9316H10.6201V41.4868H9.09417Z" fill="black"/>
<path d="M10.2935 41.4868V39.9316H10.9039V41.4868H10.2935Z" fill="black"/>
<path d="M10.7295 41.4868V39.9316H11.7974V41.4868H10.7295Z" fill="black"/>
<path d="M11.7773 41.4868V39.9316H13.1503V41.4868H11.7773Z" fill="black"/>
<path d="M12.9766 41.4868V39.9316H14.0445V41.4868H12.9766Z" fill="black"/>
<path d="M13.7185 41.4868V39.9316H15.2445V41.4868H13.7185Z" fill="black"/>
<path d="M14.9179 41.4868V39.9316H16.2909V41.4868H14.9179Z" fill="black"/>
<path d="M16.1373 41.4868V39.9316H17.5104V41.4868H16.1373Z" fill="black"/>
<path d="M17.3367 41.4868V39.9316H18.8626V41.4868H17.3367Z" fill="black"/>
<path d="M18.6125 41.4868V39.9316H19.6803V41.4868H18.6125Z" fill="black"/>
<path d="M19.3544 41.4868V39.9316H20.4222V41.4868H19.3544Z" fill="black"/>
<path d="M20.4022 41.4868V39.9316H21.6222V41.4868H20.4022Z" fill="black"/>
<path d="M21.6015 41.4868V39.9316H22.9745V41.4868H21.6015Z" fill="black"/>
<path d="M22.8008 41.4868V39.9316H24.3268V41.4868H22.8008Z" fill="black"/>
<path d="M24.0766 41.4868V39.9316H25.1445V41.4868H24.0766Z" fill="black"/>
<path d="M24.9715 41.4868V39.9316H25.5818V41.4868H24.9715Z" fill="black"/>
<path d="M7 44.4868V42.9316H8.37301V44.4868H7Z" fill="black"/>
<path d="M8.27581 44.4868V42.9316H9.49589V44.4868H8.27581Z" fill="black"/>
<path d="M9.32222 44.4868V42.9316H11.3063V44.4868H9.32222Z" fill="black"/>
<path d="M11.2084 44.4868V42.9316H13.1925V44.4868H11.2084Z" fill="black"/>
<path d="M13.0946 44.4868V42.9316H14.6205V44.4868H13.0946Z" fill="black"/>
<path d="M14.5998 44.4868V42.9316H15.9728V44.4868H14.5998Z" fill="black"/>
<path d="M15.7991 44.4868V42.9316H16.867V44.4868H15.7991Z" fill="black"/>
<path d="M16.694 44.4868V42.9316H17.7618V44.4868H16.694Z" fill="black"/>
<path d="M17.5888 44.4868V42.9316H18.9618V44.4868H17.5888Z" fill="black"/>
<path d="M18.7117 44.4868V42.9316H19.4743V44.4868H18.7117Z" fill="black"/>
<path d="M19.2242 44.4868V42.9316H19.8345V44.4868H19.2242Z" fill="black"/>
<path d="M19.6602 44.4868V42.9316H21.1861V44.4868H19.6602Z" fill="black"/>
<path d="M21.0889 44.4868V42.9316H22.462V44.4868H21.0889Z" fill="black"/>
<path d="M22.2883 44.4868V42.9316H23.8142V44.4868H22.2883Z" fill="black"/>
<path d="M23.5641 44.4868V42.9316H24.1745V44.4868H23.5641Z" fill="black"/>
<path d="M24.0001 44.4868V42.9316H25.3731V44.4868H24.0001Z" fill="black"/>
<path d="M25.1619 44.4868V42.9316H26.6879V44.4868H25.1619Z" fill="black"/>
<path d="M26.3613 44.4868V42.9316H27.8872V44.4868H26.3613Z" fill="black"/>
<path d="M27.5606 44.4868V42.9316H28.6284V44.4868H27.5606Z" fill="black"/>
<path d="M28.6083 44.4868V42.9316H29.9814V44.4868H28.6083Z" fill="black"/>
<path d="M29.8077 44.4868V42.9316H31.3336V44.4868H29.8077Z" fill="black"/>
<path d="M31.16 44.4868V42.9316H31.7703V44.4868H31.16Z" fill="black"/>
<path d="M31.596 44.4868V42.9316H33.1219V44.4868H31.596Z" fill="black"/>
<path d="M32.8718 44.4868V42.9316H33.4822V44.4868H32.8718Z" fill="black"/>
<path d="M7 47.4868V45.9316H8.52594V47.4868H7Z" fill="black"/>
<path d="M8.35227 47.4868V45.9316H9.72528V47.4868H8.35227Z" fill="black"/>
<path d="M9.38125 47.4868V45.9316H10.9072V47.4868H9.38125Z" fill="black"/>
<path d="M10.6571 47.4868V45.9316H12.183V47.4868H10.6571Z" fill="black"/>
<path d="M11.9329 47.4868V45.9316H13.4588V47.4868H11.9329Z" fill="black"/>
<path d="M13.2851 47.4868V45.9316H14.8111V47.4868H13.2851Z" fill="black"/>
<path d="M14.5609 47.4868V45.9316H15.6288V47.4868H14.5609Z" fill="black"/>
<path d="M15.4558 47.4868V45.9316H16.0661V47.4868H15.4558Z" fill="black"/>
<path d="M16.0447 47.4868V45.9316H17.4177V47.4868H16.0447Z" fill="black"/>
<path d="M17.1676 47.4868V45.9316H18.5406V47.4868H17.1676Z" fill="black"/>
<path d="M18.3871 47.4868V45.9316H19.6072V47.4868H18.3871Z" fill="black"/>
<path d="M19.4335 47.4868V45.9316H20.9594V47.4868H19.4335Z" fill="black"/>
<path d="M20.7858 47.4868V45.9316H22.1588V47.4868H20.7858Z" fill="black"/>
<path d="M21.8523 47.4868V45.9316H23.3782V47.4868H21.8523Z" fill="black"/>
<path d="M23.0516 47.4868V45.9316H24.4247V47.4868H23.0516Z" fill="black"/>
<path d="M24.2134 47.4868V45.9316H25.5864V47.4868H24.2134Z" fill="black"/>
<path d="M25.3752 47.4868V45.9316H26.443V47.4868H25.3752Z" fill="black"/>
<path d="M26.423 47.4868V45.9316H27.643V47.4868H26.423Z" fill="black"/>
<path d="M27.6223 47.4868V45.9316H28.9953V47.4868H27.6223Z" fill="black"/>
<path d="M28.8216 47.4868V45.9316H29.432V47.4868H28.8216Z" fill="black"/>
<path d="M29.2577 47.4868V45.9316H30.3255V47.4868H29.2577Z" fill="black"/>
<path d="M30.3054 47.4868V45.9316H31.6784V47.4868H30.3054Z" fill="black"/>
<path d="M31.5048 47.4868V45.9316H32.1152V47.4868H31.5048Z" fill="black"/>
<path d="M7 50.4868V48.9316H9.13632V50.4868H7Z" fill="black"/>
<path d="M8.88618 50.4868V48.9316H10.4121V50.4868H8.88618Z" fill="black"/>
<path d="M10.2385 50.4868V48.9316H11.3063V50.4868H10.2385Z" fill="black"/>
<path d="M11.1333 50.4868V48.9316H12.5063V50.4868H11.1333Z" fill="black"/>
<path d="M12.2562 50.4868V48.9316H13.7821V50.4868H12.2562Z" fill="black"/>
<path d="M13.6084 50.4868V48.9316H14.2188V50.4868H13.6084Z" fill="black"/>
<path d="M14.1974 50.4868V48.9316H15.5704V50.4868H14.1974Z" fill="black"/>
<path d="M15.3967 50.4868V48.9316H16.6168V50.4868H15.3967Z" fill="black"/>
<path d="M16.4432 50.4868V48.9316H17.511V50.4868H16.4432Z" fill="black"/>
<path d="M17.1851 50.4868V48.9316H18.711V50.4868H17.1851Z" fill="black"/>
<path d="M18.5373 50.4868V48.9316H19.1477V50.4868H18.5373Z" fill="black"/>
<path d="M18.9734 50.4868V48.9316H20.3464V50.4868H18.9734Z" fill="black"/>
<path d="M20.1351 50.4868V48.9316H21.6611V50.4868H20.1351Z" fill="black"/>
<path d="M21.3345 50.4868V48.9316H22.7075V50.4868H21.3345Z" fill="black"/>
<path d="M22.4574 50.4868V48.9316H23.9833V50.4868H22.4574Z" fill="black"/>
<path d="M23.8096 50.4868V48.9316H25.1826V50.4868H23.8096Z" fill="black"/>
<path d="M24.8762 50.4868V48.9316H25.944V50.4868H24.8762Z" fill="black"/>
<path d="M25.771 50.4868V48.9316H26.8388V50.4868H25.771Z" fill="black"/>
<path d="M26.6658 50.4868V48.9316H28.0388V50.4868H26.6658Z" fill="black"/>
<path d="M27.7887 50.4868V48.9316H28.3991V50.4868H27.7887Z" fill="black"/>
<path d="M28.2247 50.4868V48.9316H29.7507V50.4868H28.2247Z" fill="black"/>
<path d="M29.6535 50.4868V48.9316H31.0265V50.4868H29.6535Z" fill="black"/>
<path d="M30.8528 50.4868V48.9316H32.3788V50.4868H30.8528Z" fill="black"/>
<path d="M32.1286 50.4868V48.9316H32.739V50.4868H32.1286Z" fill="black"/>
<path d="M7.15293 53.4868V51.9316H8.52594V53.4868H7.15293Z" fill="black"/>
<path d="M8.27581 53.4868V51.9316H9.64882V53.4868H8.27581Z" fill="black"/>
<path d="M9.49527 53.4868V51.9316H10.7154V53.4868H9.49527Z" fill="black"/>
<path d="M10.5417 53.4868V51.9316H11.9147V53.4868H10.5417Z" fill="black"/>
<path d="M11.8564 53.4868V51.9316H13.2294V53.4868H11.8564Z" fill="black"/>
<path d="M12.9793 53.4868V51.9316H14.5052V53.4868H12.9793Z" fill="black"/>
<path d="M14.1786 53.4868V51.9316H15.5516V53.4868H14.1786Z" fill="black"/>
<path d="M15.2452 53.4868V51.9316H16.313V53.4868H15.2452Z" fill="black"/>
<path d="M16.14 53.4868V51.9316H17.2078V53.4868H16.14Z" fill="black"/>
<path d="M17.0348 53.4868V51.9316H18.4078V53.4868H17.0348Z" fill="black"/>
<path d="M18.1577 53.4868V51.9316H18.7681V53.4868H18.1577Z" fill="black"/>
<path d="M18.5937 53.4868V51.9316H19.8145V53.4868H18.5937Z" fill="black"/>
<path d="M19.6415 53.4868V51.9316H20.8616V53.4868H19.6415Z" fill="black"/>
<path d="M20.6879 53.4868V51.9316H22.0609V53.4868H20.6879Z" fill="black"/>
<path d="M21.7544 53.4868V51.9316H22.3648V53.4868H21.7544Z" fill="black"/>
<path d="M22.1905 53.4868V51.9316H23.2583V53.4868H22.1905Z" fill="black"/>
<path d="M22.9324 53.4868V51.9316H24.4583V53.4868H22.9324Z" fill="black"/>
<path d="M24.2846 53.4868V51.9316H25.8106V53.4868H24.2846Z" fill="black"/>
<path d="M25.484 53.4868V51.9316H26.0943V53.4868H25.484Z" fill="black"/>
<path d="M26.0729 53.4868V51.9316H27.446V53.4868H26.0729Z" fill="black"/>
<path d="M27.1958 53.4868V51.9316H28.7218V53.4868H27.1958Z" fill="black"/>
<path d="M28.5481 53.4868V51.9316H29.7682V53.4868H28.5481Z" fill="black"/>
<path d="M29.7474 53.4868V51.9316H31.1204V53.4868H29.7474Z" fill="black"/>
<path d="M30.8703 53.4868V51.9316H31.9381V53.4868H30.8703Z" fill="black"/>
<path d="M31.7651 53.4868V51.9316H33.2911V53.4868H31.7651Z" fill="black"/>
<path d="M32.9645 53.4868V51.9316H33.5749V53.4868H32.9645Z" fill="black"/>
<path d="M7.15293 56.4868V54.9316H8.37301V56.4868H7.15293Z" fill="black"/>
<path d="M8.19934 56.4868V54.9316H9.4201V56.4868H8.19934Z" fill="black"/>
<path d="M9.09417 56.4868V54.9316H9.70454V56.4868H9.09417Z" fill="black"/>
<path d="M9.53021 56.4868V54.9316H11.2091V56.4868H9.53021Z" fill="black"/>
<path d="M11.0542 56.4868V54.9316H12.2743V56.4868H11.0542Z" fill="black"/>
<path d="M12.1006 56.4868V54.9316H13.4736V56.4868H12.1006Z" fill="black"/>
<path d="M13.1671 56.4868V54.9316H14.235V56.4868H13.1671Z" fill="black"/>
<path d="M13.909 56.4868V54.9316H15.435V56.4868H13.909Z" fill="black"/>
<path d="M15.2613 56.4868V54.9316H15.8717V56.4868H15.2613Z" fill="black"/>
<path d="M15.6973 56.4868V54.9316H17.3762V56.4868H15.6973Z" fill="black"/>
<path d="M17.279 56.4868V54.9316H18.4991V56.4868H17.279Z" fill="black"/>
<path d="M18.3254 56.4868V54.9316H19.6984V56.4868H18.3254Z" fill="black"/>
<path d="M19.392 56.4868V54.9316H20.9179V56.4868H19.392Z" fill="black"/>
<path d="M20.5913 56.4868V54.9316H22.1172V56.4868H20.5913Z" fill="black"/>
<path d="M21.8671 56.4868V54.9316H22.4775V56.4868H21.8671Z" fill="black"/>
<path d="M22.3031 56.4868V54.9316H23.6762V56.4868H22.3031Z" fill="black"/>
<path d="M23.426 56.4868V54.9316H24.952V56.4868H23.426Z" fill="black"/>
<path d="M24.8548 56.4868V54.9316H26.2278V56.4868H24.8548Z" fill="black"/>
<path d="M26.0541 56.4868V54.9316H26.6645V56.4868H26.0541Z" fill="black"/>
<path d="M26.6431 56.4868V54.9316H28.0161V56.4868H26.6431Z" fill="black"/>
<path d="M27.6895 56.4868V54.9316H29.2154V56.4868H27.6895Z" fill="black"/>
<path d="M28.8888 56.4868V54.9316H29.4992V56.4868H28.8888Z" fill="black"/>
<path d="M7 59.4868V57.9316H8.52594V59.4868H7Z" fill="black"/>
<path d="M8.27581 59.4868V57.9316H9.64882V59.4868H8.27581Z" fill="black"/>
<path d="M9.39869 59.4868V57.9316H10.9246V59.4868H9.39869Z" fill="black"/>
<path d="M10.751 59.4868V57.9316H11.8188V59.4868H10.751Z" fill="black"/>
<path d="M11.6458 59.4868V57.9316H13.1717V59.4868H11.6458Z" fill="black"/>
<path d="M12.8451 59.4868V57.9316H14.2181V59.4868H12.8451Z" fill="black"/>
<path d="M14.1209 59.4868V57.9316H15.6469V59.4868H14.1209Z" fill="black"/>
<path d="M15.3203 59.4868V57.9316H16.8462V59.4868H15.3203Z" fill="black"/>
<path d="M16.5961 59.4868V57.9316H17.3587V59.4868H16.5961Z" fill="black"/>
<path d="M17.1086 59.4868V57.9316H17.719V59.4868H17.1086Z" fill="black"/>
<path d="M17.5446 59.4868V57.9316H18.7654V59.4868H17.5446Z" fill="black"/>
<path d="M18.591 59.4868V57.9316H19.8118V59.4868H18.591Z" fill="black"/>
<path d="M19.4859 59.4868V57.9316H20.0962V59.4868H19.4859Z" fill="black"/>
<path d="M19.9219 59.4868V57.9316H22.0582V59.4868H19.9219Z" fill="black"/>
<path d="M21.8081 59.4868V57.9316H23.334V59.4868H21.8081Z" fill="black"/>
<path d="M23.1604 59.4868V57.9316H24.6863V59.4868H23.1604Z" fill="black"/>
<path d="M24.4362 59.4868V57.9316H25.504V59.4868H24.4362Z" fill="black"/>
<path d="M25.1781 59.4868V57.9316H25.7884V59.4868H25.1781Z" fill="black"/>
<path d="M25.6141 59.4868V57.9316H27.293V59.4868H25.6141Z" fill="black"/>
<path d="M27.1381 59.4868V57.9316H28.3582V59.4868H27.1381Z" fill="black"/>
<path d="M28.1845 59.4868V57.9316H29.5575V59.4868H28.1845Z" fill="black"/>
<path d="M29.251 59.4868V57.9316H30.3189V59.4868H29.251Z" fill="black"/>
<path d="M29.9929 59.4868V57.9316H31.5189V59.4868H29.9929Z" fill="black"/>
<path d="M31.3452 59.4868V57.9316H31.9556V59.4868H31.3452Z" fill="black"/>
<path d="M7 62.4868V60.9316H8.67887V62.4868H7Z" fill="black"/>
<path d="M8.58167 62.4868V60.9316H9.80175V62.4868H8.58167Z" fill="black"/>
<path d="M9.62808 62.4868V60.9316H11.0011V62.4868H9.62808Z" fill="black"/>
<path d="M10.6946 62.4868V60.9316H12.2206V62.4868H10.6946Z" fill="black"/>
<path d="M11.894 62.4868V60.9316H13.4199V62.4868H11.894Z" fill="black"/>
<path d="M13.1698 62.4868V60.9316H13.7801V62.4868H13.1698Z" fill="black"/>
<path d="M13.6058 62.4868V60.9316H15.1317V62.4868H13.6058Z" fill="black"/>
<path d="M14.9581 62.4868V60.9316H16.484V62.4868H14.9581Z" fill="black"/>
<path d="M16.2339 62.4868V60.9316H17.6069V62.4868H16.2339Z" fill="black"/>
<path d="M17.3957 62.4868V60.9316H18.006V62.4868H17.3957Z" fill="black"/>
<path d="M17.9846 62.4868V60.9316H19.3576V62.4868H17.9846Z" fill="black"/>
<path d="M19.031 62.4868V60.9316H20.557V62.4868H19.031Z" fill="black"/>
<path d="M20.2304 62.4868V60.9316H21.7563V62.4868H20.2304Z" fill="black"/>
<path d="M21.5827 62.4868V60.9316H22.9557V62.4868H21.5827Z" fill="black"/>
<path d="M22.782 62.4868V60.9316H23.3924V62.4868H22.782Z" fill="black"/>
<path d="M23.218 62.4868V60.9316H24.744V62.4868H23.218Z" fill="black"/>
<path d="M24.6468 62.4868V60.9316H25.8669V62.4868H24.6468Z" fill="black"/>
<path d="M25.6932 62.4868V60.9316H26.761V62.4868H25.6932Z" fill="black"/>
<path d="M26.7409 62.4868V60.9316H28.114V62.4868H26.7409Z" fill="black"/>
<path d="M27.9403 62.4868V60.9316H29.4662V62.4868H27.9403Z" fill="black"/>
<path d="M29.2926 62.4868V60.9316H29.9029V62.4868H29.2926Z" fill="black"/>
<path d="M7 65.4868V63.9316H8.52594V65.4868H7Z" fill="black"/>
<path d="M8.35227 65.4868V63.9316H9.87821V65.4868H8.35227Z" fill="black"/>
<path d="M9.62808 65.4868V63.9316H11.0011V65.4868H9.62808Z" fill="black"/>
<path d="M10.7899 65.4868V63.9316H11.4002V65.4868H10.7899Z" fill="black"/>
<path d="M11.3788 65.4868V63.9316H12.7518V65.4868H11.3788Z" fill="black"/>
<path d="M12.7311 65.4868V63.9316H13.9512V65.4868H12.7311Z" fill="black"/>
<path d="M13.7775 65.4868V63.9316H14.8453V65.4868H13.7775Z" fill="black"/>
<path d="M14.5194 65.4868V63.9316H15.1298V65.4868H14.5194Z" fill="black"/>
<path d="M14.9554 65.4868V63.9316H16.3285V65.4868H14.9554Z" fill="black"/>
<path d="M16.022 65.4868V63.9316H17.5479V65.4868H16.022Z" fill="black"/>
<path d="M17.2213 65.4868V63.9316H18.5943V65.4868H17.2213Z" fill="black"/>
<path d="M18.3831 65.4868V63.9316H19.909V65.4868H18.3831Z" fill="black"/>
<path d="M19.7354 65.4868V63.9316H20.8032V65.4868H19.7354Z" fill="black"/>
<path d="M20.6302 65.4868V63.9316H21.698V65.4868H20.6302Z" fill="black"/>
<path d="M21.3721 65.4868V63.9316H22.898V65.4868H21.3721Z" fill="black"/>
<path d="M22.5714 65.4868V63.9316H24.0974V65.4868H22.5714Z" fill="black"/>
<path d="M23.8473 65.4868V63.9316H24.4576V65.4868H23.8473Z" fill="black"/>
<path d="M24.2833 65.4868V63.9316H25.3511V65.4868H24.2833Z" fill="black"/>
<path d="M25.331 65.4868V63.9316H26.7041V65.4868H25.331Z" fill="black"/>
<path d="M26.5304 65.4868V63.9316H27.1408V65.4868H26.5304Z" fill="black"/>
<path d="M26.9664 65.4868V63.9316H28.4924V65.4868H26.9664Z" fill="black"/>
<path d="M28.2422 65.4868V63.9316H28.8526V65.4868H28.2422Z" fill="black"/>
<path d="M7 68.4868V66.9316H8.37301V68.4868H7Z" fill="black"/>
<path d="M8.16178 68.4868V66.9316H9.2296V68.4868H8.16178Z" fill="black"/>
<path d="M8.90368 68.4868V66.9316H10.2767V68.4868H8.90368Z" fill="black"/>
<path d="M10.1231 68.4868V66.9316H11.3432V68.4868H10.1231Z" fill="black"/>
<path d="M11.3225 68.4868V66.9316H12.6955V68.4868H11.3225Z" fill="black"/>
<path d="M12.5218 68.4868V66.9316H14.0478V68.4868H12.5218Z" fill="black"/>
<path d="M13.8741 68.4868V66.9316H14.6367V68.4868H13.8741Z" fill="black"/>
<path d="M14.3866 68.4868V66.9316H14.997V68.4868H14.3866Z" fill="black"/>
<path d="M14.9756 68.4868V66.9316H16.3486V68.4868H14.9756Z" fill="black"/>
<path d="M16.0984 68.4868V66.9316H17.4715V68.4868H16.0984Z" fill="black"/>
<path d="M17.3179 68.4868V66.9316H18.538V68.4868H17.3179Z" fill="black"/>
<path d="M18.3643 68.4868V66.9316H19.7373V68.4868H18.3643Z" fill="black"/>
<path d="M19.679 68.4868V66.9316H21.052V68.4868H19.679Z" fill="black"/>
<path d="M20.8019 68.4868V66.9316H22.3279V68.4868H20.8019Z" fill="black"/>
<path d="M22.0013 68.4868V66.9316H23.3743V68.4868H22.0013Z" fill="black"/>
<path d="M23.2207 68.4868V66.9316H24.4408V68.4868H23.2207Z" fill="black"/>
<path d="M24.2671 68.4868V66.9316H25.7931V68.4868H24.2671Z" fill="black"/>
<path d="M25.6194 68.4868V66.9316H26.9924V68.4868H25.6194Z" fill="black"/>
<path d="M26.7812 68.4868V66.9316H27.3916V68.4868H26.7812Z" fill="black"/>
<path d="M7.15293 71.4868V69.9316H8.52594V71.4868H7.15293Z" fill="black"/>
<path d="M8.35227 71.4868V69.9316H9.87821V71.4868H8.35227Z" fill="black"/>
<path d="M9.62808 71.4868V69.9316H10.6959V71.4868H9.62808Z" fill="black"/>
<path d="M10.37 71.4868V69.9316H11.4378V71.4868H10.37Z" fill="black"/>
<path d="M11.4177 71.4868V69.9316H12.6378V71.4868H11.4177Z" fill="black"/>
<path d="M12.6171 71.4868V69.9316H13.9901V71.4868H12.6171Z" fill="black"/>
<path d="M13.8164 71.4868V69.9316H14.5791V71.4868H13.8164Z" fill="black"/>
<path d="M14.3289 71.4868V69.9316H14.9393V71.4868H14.3289Z" fill="black"/>
<path d="M14.765 71.4868V69.9316H15.8328V71.4868H14.765Z" fill="black"/>
<path d="M15.5069 71.4868V69.9316H17.0328V71.4868H15.5069Z" fill="black"/>
<path d="M16.8591 71.4868V69.9316H18.3851V71.4868H16.8591Z" fill="black"/>
<path d="M18.2114 71.4868V69.9316H19.5844V71.4868H18.2114Z" fill="black"/>
<path d="M19.4107 71.4868V69.9316H20.0211V71.4868H19.4107Z" fill="black"/>
<path d="M19.9997 71.4868V69.9316H21.3727V71.4868H19.9997Z" fill="black"/>
<path d="M21.352 71.4868V69.9316H22.5721V71.4868H21.352Z" fill="black"/>
<path d="M22.3984 71.4868V69.9316H24.5347V71.4868H22.3984Z" fill="black"/>
<path d="M24.2846 71.4868V69.9316H24.895V71.4868H24.2846Z" fill="black"/>
<path d="M24.7206 71.4868V69.9316H25.7884V71.4868H24.7206Z" fill="black"/>
<path d="M25.6154 71.4868V69.9316H26.9885V71.4868H25.6154Z" fill="black"/>
<path d="M26.7772 71.4868V69.9316H27.3876V71.4868H26.7772Z" fill="black"/>
<path d="M27.2133 71.4868V69.9316H28.7392V71.4868H27.2133Z" fill="black"/>
<path d="M28.4891 71.4868V69.9316H29.0994V71.4868H28.4891Z" fill="black"/>
<path d="M7 74.4868V72.9316H8.52594V74.4868H7Z" fill="black"/>
<path d="M8.5052 74.4868V72.9316H9.72528V74.4868H8.5052Z" fill="black"/>
<path d="M9.70454 74.4868V72.9316H10.9246V74.4868H9.70454Z" fill="black"/>
<path d="M10.751 74.4868V72.9316H12.2769V74.4868H10.751Z" fill="black"/>
<path d="M12.0268 74.4868V72.9316H12.6371V74.4868H12.0268Z" fill="black"/>
<path d="M12.4628 74.4868V72.9316H13.5306V74.4868H12.4628Z" fill="black"/>
<path d="M13.2047 74.4868V72.9316H14.2725V74.4868H13.2047Z" fill="black"/>
<path d="M14.0995 74.4868V72.9316H16.0836V74.4868H14.0995Z" fill="black"/>
<path d="M15.9857 74.4868V72.9316H17.5116V74.4868H15.9857Z" fill="black"/>
<path d="M17.1851 74.4868V72.9316H17.7954V74.4868H17.1851Z" fill="black"/>
<path d="M17.6211 74.4868V72.9316H18.8418V74.4868H17.6211Z" fill="black"/>
<path d="M18.6688 74.4868V72.9316H19.8889V74.4868H18.6688Z" fill="black"/>
<path d="M19.7153 74.4868V72.9316H21.0883V74.4868H19.7153Z" fill="black"/>
<path d="M20.7818 74.4868V72.9316H21.3922V74.4868H20.7818Z" fill="black"/>
<path d="M21.2178 74.4868V72.9316H22.8967V74.4868H21.2178Z" fill="black"/>
<path d="M22.6466 74.4868V72.9316H23.7144V74.4868H22.6466Z" fill="black"/>
<path d="M23.5414 74.4868V72.9316H25.5255V74.4868H23.5414Z" fill="black"/>
<path d="M25.4276 74.4868V72.9316H26.038V74.4868H25.4276Z" fill="black"/>
<path d="M25.8636 74.4868V72.9316H27.2366V74.4868H25.8636Z" fill="black"/>
<path d="M27.1595 74.4868V72.9316H28.3796V74.4868H27.1595Z" fill="black"/>
<path d="M28.3589 74.4868V72.9316H29.7319V74.4868H28.3589Z" fill="black"/>
<path d="M29.5582 74.4868V72.9316H31.0842V74.4868H29.5582Z" fill="black"/>
<path d="M30.9105 74.4868V72.9316H31.6731V74.4868H30.9105Z" fill="black"/>
<path d="M7 77.4868V75.9316H8.52594V77.4868H7Z" fill="black"/>
<path d="M8.5052 77.4868V75.9316H9.87821V77.4868H8.5052Z" fill="black"/>
<path d="M9.70454 77.4868V75.9316H10.3149V77.4868H9.70454Z" fill="black"/>
<path d="M10.1406 77.4868V75.9316H11.2084V77.4868H10.1406Z" fill="black"/>
<path d="M11.0354 77.4868V75.9316H12.2555V77.4868H11.0354Z" fill="black"/>
<path d="M12.0818 77.4868V75.9316H12.6922V77.4868H12.0818Z" fill="black"/>
<path d="M12.5179 77.4868V75.9316H14.0438V77.4868H12.5179Z" fill="black"/>
<path d="M13.7172 77.4868V75.9316H15.0902V77.4868H13.7172Z" fill="black"/>
<path d="M14.9165 77.4868V75.9316H16.4425V77.4868H14.9165Z" fill="black"/>
<path d="M16.1924 77.4868V75.9316H17.2602V77.4868H16.1924Z" fill="black"/>
<path d="M17.0872 77.4868V75.9316H18.6131V77.4868H17.0872Z" fill="black"/>
<path d="M18.4394 77.4868V75.9316H19.9654V77.4868H18.4394Z" fill="black"/>
<path d="M19.7153 77.4868V75.9316H20.7831V77.4868H19.7153Z" fill="black"/>
<path d="M20.4572 77.4868V75.9316H21.9831V77.4868H20.4572Z" fill="black"/>
<path d="M21.6565 77.4868V75.9316H22.2669V77.4868H21.6565Z" fill="black"/>
<path d="M22.0925 77.4868V75.9316H23.1604V77.4868H22.0925Z" fill="black"/>
<path d="M22.8344 77.4868V75.9316H24.3604V77.4868H22.8344Z" fill="black"/>
<path d="M24.1867 77.4868V75.9316H25.7126V77.4868H24.1867Z" fill="black"/>
<path d="M25.4625 77.4868V75.9316H26.5303V77.4868H25.4625Z" fill="black"/>
<path d="M26.2044 77.4868V75.9316H26.8148V77.4868H26.2044Z" fill="black"/>
<path d="M7 80.4868V78.9316H8.52594V80.4868H7Z" fill="black"/>
<path d="M8.35227 80.4868V78.9316H9.4201V80.4868H8.35227Z" fill="black"/>
<path d="M9.2471 80.4868V78.9316H10.6201V80.4868H9.2471Z" fill="black"/>
<path d="M10.4089 80.4868V78.9316H11.4767V80.4868H10.4089Z" fill="black"/>
<path d="M11.3037 80.4868V78.9316H12.5238V80.4868H11.3037Z" fill="black"/>
<path d="M12.3501 80.4868V78.9316H13.7231V80.4868H12.3501Z" fill="black"/>
<path d="M13.5696 80.4868V78.9316H14.9426V80.4868H13.5696Z" fill="black"/>
<path d="M14.6925 80.4868V78.9316H15.3028V80.4868H14.6925Z" fill="black"/>
<path d="M15.1285 80.4868V78.9316H16.6544V80.4868H15.1285Z" fill="black"/>
<path d="M16.5572 80.4868V78.9316H17.9302V80.4868H16.5572Z" fill="black"/>
<path d="M17.7566 80.4868V78.9316H19.2825V80.4868H17.7566Z" fill="black"/>
<path d="M19.0324 80.4868V78.9316H19.6428V80.4868H19.0324Z" fill="black"/>
<path d="M19.4684 80.4868V78.9316H20.5362V80.4868H19.4684Z" fill="black"/>
<path d="M20.2103 80.4868V78.9316H21.7363V80.4868H20.2103Z" fill="black"/>
<path d="M21.4861 80.4868V78.9316H23.0121V80.4868H21.4861Z" fill="black"/>
<path d="M22.8008 80.4868V78.9316H24.3268V80.4868H22.8008Z" fill="black"/>
<path d="M24.0002 80.4868V78.9316H24.6106V80.4868H24.0002Z" fill="black"/>
<path d="M24.4362 80.4868V78.9316H25.9622V80.4868H24.4362Z" fill="black"/>
<path d="M25.712 80.4868V78.9316H26.3224V80.4868H25.712Z" fill="black"/>
<path d="M7 83.4868V81.9316H8.52594V83.4868H7Z" fill="black"/>
<path d="M8.27581 83.4868V81.9316H9.34363V83.4868H8.27581Z" fill="black"/>
<path d="M9.17063 83.4868V81.9316H10.3914V83.4868H9.17063Z" fill="black"/>
<path d="M10.0655 83.4868V81.9316H11.2862V83.4868H10.0655Z" fill="black"/>
<path d="M10.9603 83.4868V81.9316H12.4862V83.4868H10.9603Z" fill="black"/>
<path d="M12.1596 83.4868V81.9316H13.5326V83.4868H12.1596Z" fill="black"/>
<path d="M13.2262 83.4868V81.9316H14.7521V83.4868H13.2262Z" fill="black"/>
<path d="M14.5784 83.4868V81.9316H15.9514V83.4868H14.5784Z" fill="black"/>
<path d="M15.7778 83.4868V81.9316H16.8456V83.4868H15.7778Z" fill="black"/>
<path d="M16.5197 83.4868V81.9316H17.1301V83.4868H16.5197Z" fill="black"/>
<path d="M17.1086 83.4868V81.9316H18.4817V83.4868H17.1086Z" fill="black"/>
<path d="M18.2315 83.4868V81.9316H19.7575V83.4868H18.2315Z" fill="black"/>
<path d="M19.5073 83.4868V81.9316H20.5752V83.4868H19.5073Z" fill="black"/>
<path d="M20.2492 83.4868V81.9316H21.7752V83.4868H20.2492Z" fill="black"/>
<path d="M21.6015 83.4868V81.9316H22.3641V83.4868H21.6015Z" fill="black"/>
<path d="M22.114 83.4868V81.9316H22.7244V83.4868H22.114Z" fill="black"/>
<path d="M22.55 83.4868V81.9316H24.2289V83.4868H22.55Z" fill="black"/>
<path d="M24.1317 83.4868V81.9316H25.5047V83.4868H24.1317Z" fill="black"/>
<path d="M25.331 83.4868V81.9316H26.857V83.4868H25.331Z" fill="black"/>
<path d="M26.6069 83.4868V81.9316H27.2172V83.4868H26.6069Z" fill="black"/>
<path d="M27.0429 83.4868V81.9316H28.2636V83.4868H27.0429Z" fill="black"/>
<path d="M28.0893 83.4868V81.9316H28.6997V83.4868H28.0893Z" fill="black"/>
<path d="M7 86.4868V84.9316H8.06782V86.4868H7Z" fill="black"/>
<path d="M7.7419 86.4868V84.9316H9.26784V86.4868H7.7419Z" fill="black"/>
<path d="M9.09417 86.4868V84.9316H10.162V86.4868H9.09417Z" fill="black"/>
<path d="M10.1419 86.4868V84.9316H11.5149V86.4868H10.1419Z" fill="black"/>
<path d="M11.3413 86.4868V84.9316H12.8672V86.4868H11.3413Z" fill="black"/>
<path d="M12.656 86.4868V84.9316H13.2664V86.4868H12.656Z" fill="black"/>
<path d="M13.092 86.4868V84.9316H14.1598V86.4868H13.092Z" fill="black"/>
<path d="M13.8339 86.4868V84.9316H15.3599V86.4868H13.8339Z" fill="black"/>
<path d="M15.1862 86.4868V84.9316H16.7121V86.4868H15.1862Z" fill="black"/>
<path d="M16.462 86.4868V84.9316H17.5298V86.4868H16.462Z" fill="black"/>
<path d="M17.2039 86.4868V84.9316H17.9665V86.4868H17.2039Z" fill="black"/>
<path d="M17.7164 86.4868V84.9316H18.3268V86.4868H17.7164Z" fill="black"/>
<path d="M18.1524 86.4868V84.9316H19.5254V86.4868H18.1524Z" fill="black"/>
<path d="M19.3142 86.4868V84.9316H20.8401V86.4868H19.3142Z" fill="black"/>
<path d="M20.8194 86.4868V84.9316H22.0395V86.4868H20.8194Z" fill="black"/>
<path d="M21.8658 86.4868V84.9316H23.3918V86.4868H21.8658Z" fill="black"/>
<path d="M23.2181 86.4868V84.9316H24.2859V86.4868H23.2181Z" fill="black"/>
<path d="M24.1129 86.4868V84.9316H25.6389V86.4868H24.1129Z" fill="black"/>
<path d="M25.3887 86.4868V84.9316H25.9991V86.4868H25.3887Z" fill="black"/>
<path d="M25.8248 86.4868V84.9316H27.3507V86.4868H25.8248Z" fill="black"/>
<path d="M27.177 86.4868V84.9316H28.703V86.4868H27.177Z" fill="black"/>
<path d="M28.3764 86.4868V84.9316H28.9868V86.4868H28.3764Z" fill="black"/>
<path d="M7 89.4868V87.9316H8.37301V89.4868H7Z" fill="black"/>
<path d="M8.12288 89.4868V87.9316H9.64882V89.4868H8.12288Z" fill="black"/>
<path d="M9.62808 89.4868V87.9316H10.8482V89.4868H9.62808Z" fill="black"/>
<path d="M10.8274 89.4868V87.9316H12.0475V89.4868H10.8274Z" fill="black"/>
<path d="M11.8738 89.4868V87.9316H13.2468V89.4868H11.8738Z" fill="black"/>
<path d="M13.0356 89.4868V87.9316H14.5616V89.4868H13.0356Z" fill="black"/>
<path d="M14.235 89.4868V87.9316H14.8453V89.4868H14.235Z" fill="black"/>
<path d="M14.671 89.4868V87.9316H15.7388V89.4868H14.671Z" fill="black"/>
<path d="M15.5658 89.4868V87.9316H16.7859V89.4868H15.5658Z" fill="black"/>
<path d="M16.6122 89.4868V87.9316H17.2226V89.4868H16.6122Z" fill="black"/>
<path d="M17.0483 89.4868V87.9316H18.1161V89.4868H17.0483Z" fill="black"/>
<path d="M17.7902 89.4868V87.9316H19.3161V89.4868H17.7902Z" fill="black"/>
<path d="M19.066 89.4868V87.9316H20.5919V89.4868H19.066Z" fill="black"/>
<path d="M20.3807 89.4868V87.9316H21.9066V89.4868H20.3807Z" fill="black"/>
<path d="M21.58 89.4868V87.9316H22.1904V89.4868H21.58Z" fill="black"/>
<path d="M22.0161 89.4868V87.9316H23.542V89.4868H22.0161Z" fill="black"/>
<path d="M23.2919 89.4868V87.9316H23.9023V89.4868H23.2919Z" fill="black"/>
<path d="M23.7279 89.4868V87.9316H25.2539V89.4868H23.7279Z" fill="black"/>
<path d="M25.0037 89.4868V87.9316H26.0715V89.4868H25.0037Z" fill="black"/>
<path d="M25.8985 89.4868V87.9316H27.1193V89.4868H25.8985Z" fill="black"/>
<path d="M26.7934 89.4868V87.9316H28.0141V89.4868H26.7934Z" fill="black"/>
<path d="M27.6882 89.4868V87.9316H29.2141V89.4868H27.6882Z" fill="black"/>
<path d="M28.8875 89.4868V87.9316H30.2606V89.4868H28.8875Z" fill="black"/>
<path d="M29.9541 89.4868V87.9316H31.48V89.4868H29.9541Z" fill="black"/>
<path d="M31.3063 89.4868V87.9316H32.6794V89.4868H31.3063Z" fill="black"/>
<path d="M32.5057 89.4868V87.9316H33.5735V89.4868H32.5057Z" fill="black"/>
<path d="M33.2476 89.4868V87.9316H33.858V89.4868H33.2476Z" fill="black"/>
<path d="M7.15293 92.4868V90.9316H8.52594V92.4868H7.15293Z" fill="black"/>
<path d="M8.27581 92.4868V90.9316H9.80175V92.4868H8.27581Z" fill="black"/>
<path d="M9.55162 92.4868V90.9316H10.6194V92.4868H9.55162Z" fill="black"/>
<path d="M10.2935 92.4868V90.9316H11.8195V92.4868H10.2935Z" fill="black"/>
<path d="M11.6458 92.4868V90.9316H12.4084V92.4868H11.6458Z" fill="black"/>
<path d="M12.1583 92.4868V90.9316H12.7687V92.4868H12.1583Z" fill="black"/>
<path d="M12.7473 92.4868V90.9316H14.1203V92.4868H12.7473Z" fill="black"/>
<path d="M14.0995 92.4868V90.9316H15.3196V92.4868H14.0995Z" fill="black"/>
<path d="M15.1459 92.4868V90.9316H16.2138V92.4868H15.1459Z" fill="black"/>
<path d="M15.8878 92.4868V90.9316H16.4982V92.4868H15.8878Z" fill="black"/>
<path d="M16.4768 92.4868V90.9316H17.6969V92.4868H16.4768Z" fill="black"/>
<path d="M17.6761 92.4868V90.9316H19.0492V92.4868H17.6761Z" fill="black"/>
<path d="M18.8755 92.4868V90.9316H19.9433V92.4868H18.8755Z" fill="black"/>
<path d="M19.8468 92.4868V90.9316H21.2198V92.4868H19.8468Z" fill="black"/>
<path d="M20.9697 92.4868V90.9316H21.58V92.4868H20.9697Z" fill="black"/>
<path d="M21.5586 92.4868V90.9316H23.0846V92.4868H21.5586Z" fill="black"/>
<path d="M22.7767 92.4868V90.9316H24.1498V92.4868H22.7767Z" fill="black"/>
<path d="M23.8433 92.4868V90.9316H25.3692V92.4868H23.8433Z" fill="black"/>
<path d="M25.0426 92.4868V90.9316H26.4156V92.4868H25.0426Z" fill="black"/>
<path d="M26.2044 92.4868V90.9316H27.2722V92.4868H26.2044Z" fill="black"/>
<path d="M27.0992 92.4868V90.9316H28.6252V92.4868H27.0992Z" fill="black"/>
<path d="M28.375 92.4868V90.9316H29.901V92.4868H28.375Z" fill="black"/>
<path d="M29.7273 92.4868V90.9316H31.1003V92.4868H29.7273Z" fill="black"/>
<path d="M30.9267 92.4868V90.9316H31.9945V92.4868H30.9267Z" fill="black"/>
<path d="M31.6685 92.4868V90.9316H32.2789V92.4868H31.6685Z" fill="black"/>
<path d="M7.15293 95.4868V93.9316H8.67887V95.4868H7.15293Z" fill="black"/>
<path d="M8.21812 95.4868V93.9316H9.74407V95.4868H8.21812Z" fill="black"/>
<path d="M9.49393 95.4868V93.9316H10.8669V95.4868H9.49393Z" fill="black"/>
<path d="M10.5605 95.4868V93.9316H12.0864V95.4868H10.5605Z" fill="black"/>
<path d="M11.8752 95.4868V93.9316H12.4856V95.4868H11.8752Z" fill="black"/>
<path d="M12.3112 95.4868V93.9316H13.8372V95.4868H12.3112Z" fill="black"/>
<path d="M13.74 95.4868V93.9316H15.113V95.4868H13.74Z" fill="black"/>
<path d="M14.9393 95.4868V93.9316H16.4652V95.4868H14.9393Z" fill="black"/>
<path d="M16.2151 95.4868V93.9316H16.8255V95.4868H16.2151Z" fill="black"/>
<path d="M16.6511 95.4868V93.9316H18.6352V95.4868H16.6511Z" fill="black"/>
<path d="M18.6138 95.4868V93.9316H19.9868V95.4868H18.6138Z" fill="black"/>
<path d="M19.7367 95.4868V93.9316H21.1097V95.4868H19.7367Z" fill="black"/>
<path d="M20.8984 95.4868V93.9316H22.4244V95.4868H20.8984Z" fill="black"/>
<path d="M22.0978 95.4868V93.9316H23.1656V95.4868H22.0978Z" fill="black"/>
<path d="M22.9926 95.4868V93.9316H24.2134V95.4868H22.9926Z" fill="black"/>
<path d="M23.8874 95.4868V93.9316H24.4978V95.4868H23.8874Z" fill="black"/>
<path d="M24.3235 95.4868V93.9316H26.4598V95.4868H24.3235Z" fill="black"/>
<path d="M26.3626 95.4868V93.9316H27.5827V95.4868H26.3626Z" fill="black"/>
<path d="M27.409 95.4868V93.9316H28.9349V95.4868H27.409Z" fill="black"/>
<path d="M28.7613 95.4868V93.9316H29.8291V95.4868H28.7613Z" fill="black"/>
<path d="M29.6561 95.4868V93.9316H31.182V95.4868H29.6561Z" fill="black"/>
<path d="M30.9319 95.4868V93.9316H31.5423V95.4868H30.9319Z" fill="black"/>
<path d="M7 98.4868V96.9316H9.13632V98.4868H7Z" fill="black"/>
<path d="M8.88618 98.4868V96.9316H10.4121V98.4868H8.88618Z" fill="black"/>
<path d="M10.0855 98.4868V96.9316H11.1534V98.4868H10.0855Z" fill="black"/>
<path d="M10.9804 98.4868V96.9316H12.3534V98.4868H10.9804Z" fill="black"/>
<path d="M12.2562 98.4868V96.9316H13.4762V98.4868H12.2562Z" fill="black"/>
<path d="M13.3026 98.4868V96.9316H15.2866V98.4868H13.3026Z" fill="black"/>
<path d="M15.1888 98.4868V96.9316H16.7147V98.4868H15.1888Z" fill="black"/>
<path d="M16.3881 98.4868V96.9316H16.9985V98.4868H16.3881Z" fill="black"/>
<path d="M16.8241 98.4868V96.9316H17.892V98.4868H16.8241Z" fill="black"/>
<path d="M17.719 98.4868V96.9316H18.7868V98.4868H17.719Z" fill="black"/>
<path d="M18.4609 98.4868V96.9316H19.2235V98.4868H18.4609Z" fill="black"/>
<path d="M18.9734 98.4868V96.9316H19.5837V98.4868H18.9734Z" fill="black"/>
<path d="M19.5623 98.4868V96.9316H20.9353V98.4868H19.5623Z" fill="black"/>
<path d="M20.6087 98.4868V96.9316H22.1347V98.4868H20.6087Z" fill="black"/>
<path d="M21.961 98.4868V96.9316H23.0288V98.4868H21.961Z" fill="black"/>
<path d="M22.7029 98.4868V96.9316H23.3133V98.4868H22.7029Z" fill="black"/>
<path d="M23.1389 98.4868V96.9316H24.2068V98.4868H23.1389Z" fill="black"/>
<path d="M23.8808 98.4868V96.9316H25.4068V98.4868H23.8808Z" fill="black"/>
<path d="M25.2331 98.4868V96.9316H26.7591V98.4868H25.2331Z" fill="black"/>
<path d="M26.4325 98.4868V96.9316H27.0428V98.4868H26.4325Z" fill="black"/>
<path d="M7 101.487V99.9316H8.06782V101.487H7Z" fill="black"/>
<path d="M8.04776 101.487V99.9316H9.42077V101.487H8.04776Z" fill="black"/>
<path d="M9.2471 101.487V99.9316H10.3149V101.487H9.2471Z" fill="black"/>
<path d="M9.98899 101.487V99.9316H11.5149V101.487H9.98899Z" fill="black"/>
<path d="M11.1883 101.487V99.9316H12.5613V101.487H11.1883Z" fill="black"/>
<path d="M12.4078 101.487V99.9316H13.7808V101.487H12.4078Z" fill="black"/>
<path d="M13.6071 101.487V99.9316H15.1331V101.487H13.6071Z" fill="black"/>
<path d="M14.883 101.487V99.9316H15.9508V101.487H14.883Z" fill="black"/>
<path d="M15.6248 101.487V99.9316H16.6927V101.487H15.6248Z" fill="black"/>
<path d="M16.6726 101.487V99.9316H17.8927V101.487H16.6726Z" fill="black"/>
<path d="M17.8719 101.487V99.9316H19.245V101.487H17.8719Z" fill="black"/>
<path d="M19.0713 101.487V99.9316H20.5972V101.487H19.0713Z" fill="black"/>
<path d="M20.3471 101.487V99.9316H21.4149V101.487H20.3471Z" fill="black"/>
<path d="M21.2419 101.487V99.9316H21.8523V101.487H21.2419Z" fill="black"/>
<path d="M21.678 101.487V99.9316H23.051V101.487H21.678Z" fill="black"/>
<path d="M22.9538 101.487V99.9316H24.1738V101.487H22.9538Z" fill="black"/>
<path d="M24.0002 101.487V99.9316H25.9842V101.487H24.0002Z" fill="black"/>
<path d="M25.8864 101.487V99.9316H27.8704V101.487H25.8864Z" fill="black"/>
<path d="M27.7725 101.487V99.9316H29.2985V101.487H27.7725Z" fill="black"/>
<path d="M29.2778 101.487V99.9316H30.6508V101.487H29.2778Z" fill="black"/>
<path d="M30.4771 101.487V99.9316H31.5449V101.487H30.4771Z" fill="black"/>
<path d="M31.3719 101.487V99.9316H32.4397V101.487H31.3719Z" fill="black"/>
<path d="M32.2667 101.487V99.9316H33.6398V101.487H32.2667Z" fill="black"/>
<path d="M33.3896 101.487V99.9316H34V101.487H33.3896Z" fill="black"/>
<path d="M7 104.487V102.932H8.52594V104.487H7Z" fill="black"/>
<path d="M8.27581 104.487V102.932H9.64882V104.487H8.27581Z" fill="black"/>
<path d="M9.43759 104.487V102.932H10.048V104.487H9.43759Z" fill="black"/>
<path d="M9.87363 104.487V102.932H11.3996V104.487H9.87363Z" fill="black"/>
<path d="M11.1494 104.487V102.932H11.7598V104.487H11.1494Z" fill="black"/>
<path d="M11.5855 104.487V102.932H13.7218V104.487H11.5855Z" fill="black"/>
<path d="M13.4717 104.487V102.932H14.9976V104.487H13.4717Z" fill="black"/>
<path d="M14.9769 104.487V102.932H16.1969V104.487H14.9769Z" fill="black"/>
<path d="M16.0233 104.487V102.932H17.0911V104.487H16.0233Z" fill="black"/>
<path d="M16.9181 104.487V102.932H18.444V104.487H16.9181Z" fill="black"/>
<path d="M18.1174 104.487V102.932H18.7278V104.487H18.1174Z" fill="black"/>
<path d="M18.5535 104.487V102.932H20.6898V104.487H18.5535Z" fill="black"/>
<path d="M20.5926 104.487V102.932H21.8127V104.487H20.5926Z" fill="black"/>
<path d="M21.639 104.487V102.932H23.1649V104.487H21.639Z" fill="black"/>
<path d="M22.9913 104.487V102.932H24.0591V104.487H22.9913Z" fill="black"/>
<path d="M23.8861 104.487V102.932H25.412V104.487H23.8861Z" fill="black"/>
<path d="M25.1619 104.487V102.932H25.7723V104.487H25.1619Z" fill="black"/>
<path d="M7 107.487V105.932H9.13632V107.487H7Z" fill="black"/>
<path d="M8.88618 107.487V105.932H10.4121V107.487H8.88618Z" fill="black"/>
<path d="M10.0855 107.487V105.932H11.1534V107.487H10.0855Z" fill="black"/>
<path d="M10.9804 107.487V105.932H12.3534V107.487H10.9804Z" fill="black"/>
<path d="M12.2562 107.487V105.932H13.4762V107.487H12.2562Z" fill="black"/>
<path d="M13.3026 107.487V105.932H15.2866V107.487H13.3026Z" fill="black"/>
<path d="M15.1888 107.487V105.932H16.7147V107.487H15.1888Z" fill="black"/>
<path d="M16.3881 107.487V105.932H16.9985V107.487H16.3881Z" fill="black"/>
<path d="M16.8241 107.487V105.932H17.892V107.487H16.8241Z" fill="black"/>
<path d="M17.719 107.487V105.932H18.7868V107.487H17.719Z" fill="black"/>
<path d="M18.4609 107.487V105.932H19.2235V107.487H18.4609Z" fill="black"/>
<path d="M18.9734 107.487V105.932H19.736V107.487H18.9734Z" fill="black"/>
</g>
<rect width="12" height="14" transform="translate(26 98.4863)" fill="white"/>
<path d="M31.6787 102.348C32.5999 102.348 33.2721 102.546 33.6953 102.943C34.1185 103.337 34.3301 103.881 34.3301 104.574C34.3301 104.887 34.2829 105.186 34.1885 105.473C34.0941 105.756 33.9395 106.008 33.7246 106.229C33.513 106.451 33.2298 106.627 32.875 106.757C32.5202 106.884 32.0824 106.947 31.5615 106.947H30.9121V109.486H29.3984V102.348H31.6787ZM31.6006 103.588H30.9121V105.707H31.4102C31.6934 105.707 31.9391 105.67 32.1475 105.595C32.3558 105.52 32.5169 105.403 32.6309 105.243C32.7448 105.084 32.8018 104.879 32.8018 104.628C32.8018 104.276 32.7041 104.016 32.5088 103.847C32.3135 103.674 32.0107 103.588 31.6006 103.588Z" fill="#585858"/>
<rect x="1" y="0.931641" width="39" height="114.555" stroke="#364B60"/>
<path d="M12.3333 118.486H3V124.834H12.3333V118.486Z" fill="#7FA4CA"/>
<path d="M22.6663 118.486H13.333V124.834H22.6663V118.486Z" fill="#BB90BB"/>
<path d="M33.0003 118.486H23.667V124.834H33.0003V118.486Z" fill="#E19E55"/>
</svg>
