<svg width="39" height="109" viewBox="0 0 39 109" fill="none" xmlns="http://www.w3.org/2000/svg">
<rect width="39" height="109" fill=""/>
<g clip-path="url(#clip0_39_124700)">
<g filter="url(#filter0_d_39_124700)">
<rect width="35" height="92.5552" transform="translate(2 2.80176)" fill="white"/>
<g opacity="0.3">
<rect width="35" height="90.5552" transform="translate(2 2.80176)" fill="white"/>
<path d="M6 8.35693V6.80176H6.76659V8.35693H6Z" fill="black"/>
<path d="M6.74575 8.35693V6.80176H8.27961V8.35693H6.74575Z" fill="black"/>
<path d="M7.95131 8.35693V6.80176H9.48518V8.35693H7.95131Z" fill="black"/>
<path d="M9.15688 8.35693V6.80176H10.2302V8.35693H9.15688Z" fill="black"/>
<path d="M9.90263 8.35693V6.80176H10.5162V8.35693H9.90263Z" fill="black"/>
<path d="M10.3409 8.35693V6.80176H11.4143V8.35693H10.3409Z" fill="black"/>
<path d="M11.0867 8.35693V6.80176H12.6205V8.35693H11.0867Z" fill="black"/>
<path d="M12.446 8.35693V6.80176H13.9798V8.35693H12.446Z" fill="black"/>
<path d="M13.6515 8.35693V6.80176H15.0317V8.35693H13.6515Z" fill="black"/>
<path d="M14.7236 8.35693V6.80176H16.2575V8.35693H14.7236Z" fill="black"/>
<path d="M15.9292 8.35693V6.80176H16.5427V8.35693H15.9292Z" fill="black"/>
<path d="M16.3675 8.35693V6.80176H17.4408V8.35693H16.3675Z" fill="black"/>
<path d="M17.2669 8.35693V6.80176H18.6471V8.35693H17.2669Z" fill="black"/>
<path d="M18.4348 8.35693V6.80176H19.0483V8.35693H18.4348Z" fill="black"/>
<path d="M18.8731 8.35693V6.80176H20.4069V8.35693H18.8731Z" fill="black"/>
<path d="M20.3092 8.35693V6.80176H21.6893V8.35693H20.3092Z" fill="black"/>
<path d="M21.6685 8.35693V6.80176H22.8949V8.35693H21.6685Z" fill="black"/>
<path d="M22.7203 8.35693V6.80176H23.7937V8.35693H22.7203Z" fill="black"/>
<path d="M23.4661 8.35693V6.80176H24.9999V8.35693H23.4661Z" fill="black"/>
<path d="M24.8254 8.35693V6.80176H26.3592V8.35693H24.8254Z" fill="black"/>
<path d="M26.0309 8.35693V6.80176H27.4111V8.35693H26.0309Z" fill="black"/>
<path d="M27.103 8.35693V6.80176H27.7166V8.35693H27.103Z" fill="black"/>
<path d="M27.695 8.35693V6.80176H29.0752V8.35693H27.695Z" fill="black"/>
<path d="M28.8237 8.35693V6.80176H30.3576V8.35693H28.8237Z" fill="black"/>
<path d="M30.1062 8.35693V6.80176H31.1795V8.35693H30.1062Z" fill="black"/>
<path d="M30.8519 8.35693V6.80176H32.3858V8.35693H30.8519Z" fill="black"/>
<path d="M32.2112 8.35693V6.80176H32.8248V8.35693H32.2112Z" fill="black"/>
<path d="M6 11.3569V9.80176H7.07337V11.3569H6Z" fill="black"/>
<path d="M6.74575 11.3569V9.80176H8.27961V11.3569H6.74575Z" fill="black"/>
<path d="M8.10504 11.3569V9.80176H9.6389V11.3569H8.10504Z" fill="black"/>
<path d="M9.38747 11.3569V9.80176H10.4608V11.3569H9.38747Z" fill="black"/>
<path d="M10.1332 11.3569V9.80176H10.7468V11.3569H10.1332Z" fill="black"/>
<path d="M10.5715 11.3569V9.80176H11.9517V11.3569H10.5715Z" fill="black"/>
<path d="M11.7002 11.3569V9.80176H13.2341V11.3569H11.7002Z" fill="black"/>
<path d="M13.1364 11.3569V9.80176H14.5165V11.3569H13.1364Z" fill="black"/>
<path d="M14.3419 11.3569V9.80176H14.9555V11.3569H14.3419Z" fill="black"/>
<path d="M14.934 11.3569V9.80176H16.3141V11.3569H14.934Z" fill="black"/>
<path d="M15.9858 11.3569V9.80176H17.5197V11.3569H15.9858Z" fill="black"/>
<path d="M17.1914 11.3569V9.80176H17.8049V11.3569H17.1914Z" fill="black"/>
<path d="M17.6297 11.3569V9.80176H18.703V11.3569H17.6297Z" fill="black"/>
<path d="M18.3754 11.3569V9.80176H19.9093V11.3569H18.3754Z" fill="black"/>
<path d="M19.6578 11.3569V9.80176H21.1917V11.3569H19.6578Z" fill="black"/>
<path d="M20.9794 11.3569V9.80176H22.5132V11.3569H20.9794Z" fill="black"/>
<path d="M22.3387 11.3569V9.80176H23.7188V11.3569H22.3387Z" fill="black"/>
<path d="M23.5442 11.3569V9.80176H24.3108V11.3569H23.5442Z" fill="black"/>
<path d="M24.0594 11.3569V9.80176H24.6729V11.3569H24.0594Z" fill="black"/>
<path d="M6.15372 14.3569V12.8018H8.30113V14.3569H6.15372Z" fill="black"/>
<path d="M8.24118 14.3569V12.8018H9.46759V14.3569H8.24118Z" fill="black"/>
<path d="M9.29302 14.3569V12.8018H10.6732V14.3569H9.29302Z" fill="black"/>
<path d="M10.3651 14.3569V12.8018H11.899V14.3569H10.3651Z" fill="black"/>
<path d="M11.6866 14.3569V12.8018H12.76V14.3569H11.6866Z" fill="black"/>
<path d="M12.7398 14.3569V12.8018H14.12V14.3569H12.7398Z" fill="black"/>
<path d="M13.9454 14.3569V12.8018H15.4792V14.3569H13.9454Z" fill="black"/>
<path d="M15.3047 14.3569V12.8018H15.9182V14.3569H15.3047Z" fill="black"/>
<path d="M15.743 14.3569V12.8018H16.8163V14.3569H15.743Z" fill="black"/>
<path d="M16.7962 14.3569V12.8018H18.1763V14.3569H16.7962Z" fill="black"/>
<path d="M18.0017 14.3569V12.8018H18.6153V14.3569H18.0017Z" fill="black"/>
<path d="M18.44 14.3569V12.8018H19.5134V14.3569H18.44Z" fill="black"/>
<path d="M19.1858 14.3569V12.8018H20.7196V14.3569H19.1858Z" fill="black"/>
<path d="M20.6219 14.3569V12.8018H22.0021V14.3569H20.6219Z" fill="black"/>
<path d="M21.8275 14.3569V12.8018H23.3614V14.3569H21.8275Z" fill="black"/>
<path d="M23.1099 14.3569V12.8018H24.6438V14.3569H23.1099Z" fill="black"/>
<path d="M24.3155 14.3569V12.8018H26.3099V14.3569H24.3155Z" fill="black"/>
<path d="M26.2115 14.3569V12.8018H26.825V14.3569H26.2115Z" fill="black"/>
<path d="M26.6498 14.3569V12.8018H28.7972V14.3569H26.6498Z" fill="black"/>
<path d="M28.5457 14.3569V12.8018H29.6191V14.3569H28.5457Z" fill="black"/>
<path d="M29.4452 14.3569V12.8018H30.5186V14.3569H29.4452Z" fill="black"/>
<path d="M30.191 14.3569V12.8018H31.7248V14.3569H30.191Z" fill="black"/>
<path d="M31.5503 14.3569V12.8018H32.1638V14.3569H31.5503Z" fill="black"/>
<path d="M6.15372 17.3569V15.8018H7.38014V17.3569H6.15372Z" fill="black"/>
<path d="M7.20557 17.3569V15.8018H8.73943V17.3569H7.20557Z" fill="black"/>
<path d="M8.56486 17.3569V15.8018H9.945V17.3569H8.56486Z" fill="black"/>
<path d="M9.63693 17.3569V15.8018H10.2505V17.3569H9.63693Z" fill="black"/>
<path d="M10.229 17.3569V15.8018H11.6091V17.3569H10.229Z" fill="black"/>
<path d="M11.3577 17.3569V15.8018H12.8915V17.3569H11.3577Z" fill="black"/>
<path d="M12.6401 17.3569V15.8018H14.0202V17.3569H12.6401Z" fill="black"/>
<path d="M13.7122 17.3569V15.8018H14.7855V17.3569H13.7122Z" fill="black"/>
<path d="M14.6116 17.3569V15.8018H15.9918V17.3569H14.6116Z" fill="black"/>
<path d="M15.8172 17.3569V15.8018H17.3511V17.3569H15.8172Z" fill="black"/>
<path d="M17.0228 17.3569V15.8018H18.4029V17.3569H17.0228Z" fill="black"/>
<path d="M18.0948 17.3569V15.8018H19.475V17.3569H18.0948Z" fill="black"/>
<path d="M19.6247 17.0363V16.9271H20.895V17.0363H19.6247Z" fill="black"/>
<path d="M20.5882 17.3569V15.8018H21.9684V17.3569H20.5882Z" fill="black"/>
<path d="M21.756 17.3569V15.8018H23.2899V17.3569H21.756Z" fill="black"/>
<path d="M23.2691 17.3569V15.8018H24.6492V17.3569H23.2691Z" fill="black"/>
<path d="M24.5515 17.3569V15.8018H25.9316V17.3569H24.5515Z" fill="black"/>
<path d="M25.8339 17.3569V15.8018H27.0603V17.3569H25.8339Z" fill="black"/>
<path d="M26.8858 17.3569V15.8018H28.2659V17.3569H26.8858Z" fill="black"/>
<path d="M27.9578 17.3569V15.8018H29.0312V17.3569H27.9578Z" fill="black"/>
<path d="M28.7036 17.3569V15.8018H30.2374V17.3569H28.7036Z" fill="black"/>
<path d="M29.9091 17.3569V15.8018H31.443V17.3569H29.9091Z" fill="black"/>
<path d="M31.1916 17.3569V15.8018H31.8051V17.3569H31.1916Z" fill="black"/>
<path d="M6.15372 20.3569V18.8018H7.53386V20.3569H6.15372Z" fill="black"/>
<path d="M7.35929 20.3569V18.8018H8.73943V20.3569H7.35929Z" fill="black"/>
<path d="M8.488 20.3569V18.8018H9.10154V20.3569H8.488Z" fill="black"/>
<path d="M8.9263 20.3569V18.8018H10.4602V20.3569H8.9263Z" fill="black"/>
<path d="M10.2087 20.3569V18.8018H11.2821V20.3569H10.2087Z" fill="black"/>
<path d="M11.1082 20.3569V18.8018H12.4883V20.3569H11.1082Z" fill="black"/>
<path d="M12.1803 20.3569V18.8018H13.7141V20.3569H12.1803Z" fill="black"/>
<path d="M13.3858 20.3569V18.8018H14.766V20.3569H13.3858Z" fill="black"/>
<path d="M14.5145 20.3569V18.8018H15.5879V20.3569H14.5145Z" fill="black"/>
<path d="M15.2603 20.3569V18.8018H15.8738V20.3569H15.2603Z" fill="black"/>
<path d="M15.6986 20.3569V18.8018H17.2324V20.3569H15.6986Z" fill="black"/>
<path d="M16.981 20.3569V18.8018H18.0544V20.3569H16.981Z" fill="black"/>
<path d="M18.0342 20.3569V18.8018H19.4143V20.3569H18.0342Z" fill="black"/>
<path d="M19.1629 20.3569V18.8018H20.2363V20.3569H19.1629Z" fill="black"/>
<path d="M20.2161 20.3569V18.8018H21.4425V20.3569H20.2161Z" fill="black"/>
<path d="M21.268 20.3569V18.8018H23.2623V20.3569H21.268Z" fill="black"/>
<path d="M23.1639 20.3569V18.8018H24.6978V20.3569H23.1639Z" fill="black"/>
<path d="M24.4464 20.3569V18.8018H25.8265V20.3569H24.4464Z" fill="black"/>
<path d="M25.7288 20.3569V18.8018H27.1089V20.3569H25.7288Z" fill="black"/>
<path d="M27.2195 20.0363V19.9271H28.4898V20.0363H27.2195Z" fill="black"/>
<path d="M28.1831 20.3569V18.8018H29.2564V20.3569H28.1831Z" fill="black"/>
<path d="M28.9288 20.3569V18.8018H30.4627V20.3569H28.9288Z" fill="black"/>
<path d="M30.2881 20.3569V18.8018H31.822V20.3569H30.2881Z" fill="black"/>
<path d="M31.4937 20.3569V18.8018H32.1072V20.3569H31.4937Z" fill="black"/>
<path d="M6 23.3569V21.8018H7.68758V23.3569H6Z" fill="black"/>
<path d="M7.55077 23.3569V21.8018H8.93091V23.3569H7.55077Z" fill="black"/>
<path d="M8.75634 23.3569V21.8018H9.8297V23.3569H8.75634Z" fill="black"/>
<path d="M9.65581 23.3569V21.8018H10.7292V23.3569H9.65581Z" fill="black"/>
<path d="M10.4016 23.3569V21.8018H11.9354V23.3569H10.4016Z" fill="black"/>
<path d="M11.6071 23.3569V21.8018H13.141V23.3569H11.6071Z" fill="black"/>
<path d="M12.8896 23.3569V21.8018H13.5031V23.3569H12.8896Z" fill="black"/>
<path d="M13.3279 23.3569V21.8018H14.708V23.3569H13.3279Z" fill="black"/>
<path d="M14.6103 23.3569V21.8018H15.6836V23.3569H14.6103Z" fill="black"/>
<path d="M15.356 23.3569V21.8018H16.8899V23.3569H15.356Z" fill="black"/>
<path d="M16.6385 23.3569V21.8018H17.7118V23.3569H16.6385Z" fill="black"/>
<path d="M17.3842 23.3569V21.8018H18.9181V23.3569H17.3842Z" fill="black"/>
<path d="M18.5898 23.3569V21.8018H19.9699V23.3569H18.5898Z" fill="black"/>
<path d="M19.7576 23.3569V21.8018H20.3711V23.3569H19.7576Z" fill="black"/>
<path d="M20.1959 23.3569V21.8018H21.2692V23.3569H20.1959Z" fill="black"/>
<path d="M21.0954 23.3569V21.8018H22.4755V23.3569H21.0954Z" fill="black"/>
<path d="M22.2632 23.3569V21.8018H22.8767V23.3569H22.2632Z" fill="black"/>
<path d="M22.8552 23.3569V21.8018H24.2353V23.3569H22.8552Z" fill="black"/>
<path d="M23.9839 23.3569V21.8018H25.364V23.3569H23.9839Z" fill="black"/>
<path d="M25.056 23.3569V21.8018H26.5898V23.3569H25.056Z" fill="black"/>
<path d="M26.4153 23.3569V21.8018H27.7954V23.3569H26.4153Z" fill="black"/>
<path d="M27.544 23.3569V21.8018H29.0778V23.3569H27.544Z" fill="black"/>
<path d="M28.8264 23.3569V21.8018H30.2065V23.3569H28.8264Z" fill="black"/>
<path d="M29.8985 23.3569V21.8018H31.4323V23.3569H29.8985Z" fill="black"/>
<path d="M31.104 23.3569V21.8018H32.6379V23.3569H31.104Z" fill="black"/>
<path d="M32.3865 23.3569V21.8018H33V23.3569H32.3865Z" fill="black"/>
<path d="M6 26.3569V24.8018H7.07337V26.3569H6Z" fill="black"/>
<path d="M6.89947 26.3569V24.8018H8.12588V26.3569H6.89947Z" fill="black"/>
<path d="M7.95131 26.3569V24.8018H8.56486V26.3569H7.95131Z" fill="black"/>
<path d="M8.54334 26.3569V24.8018H9.76975V26.3569H8.54334Z" fill="black"/>
<path d="M9.59518 26.3569V24.8018H10.8223V26.3569H9.59518Z" fill="black"/>
<path d="M10.4947 26.3569V24.8018H11.7217V26.3569H10.4947Z" fill="black"/>
<path d="M11.3941 26.3569V24.8018H12.928V26.3569H11.3941Z" fill="black"/>
<path d="M12.5997 26.3569V24.8018H13.9798V26.3569H12.5997Z" fill="black"/>
<path d="M13.6718 26.3569V24.8018H14.2853V26.3569H13.6718Z" fill="black"/>
<path d="M14.1101 26.3569V24.8018H15.7976V26.3569H14.1101Z" fill="black"/>
<path d="M15.642 26.3569V24.8018H16.8684V26.3569H15.642Z" fill="black"/>
<path d="M16.6938 26.3569V24.8018H18.0739V26.3569H16.6938Z" fill="black"/>
<path d="M17.7659 26.3569V24.8018H18.8392V26.3569H17.7659Z" fill="black"/>
<path d="M18.5116 26.3569V24.8018H20.0455V26.3569H18.5116Z" fill="black"/>
<path d="M19.8709 26.3569V24.8018H20.4844V26.3569H19.8709Z" fill="black"/>
<path d="M20.3092 26.3569V24.8018H21.9968V26.3569H20.3092Z" fill="black"/>
<path d="M21.8991 26.3569V24.8018H23.1255V26.3569H21.8991Z" fill="black"/>
<path d="M22.9509 26.3569V24.8018H24.3311V26.3569H22.9509Z" fill="black"/>
<path d="M24.023 26.3569V24.8018H25.5569V26.3569H24.023Z" fill="black"/>
<path d="M25.2286 26.3569V24.8018H26.7624V26.3569H25.2286Z" fill="black"/>
<path d="M26.511 26.3569V24.8018H27.1245V26.3569H26.511Z" fill="black"/>
<path d="M26.9493 26.3569V24.8018H28.4832V26.3569H26.9493Z" fill="black"/>
<path d="M28.2317 26.3569V24.8018H28.8453V26.3569H28.2317Z" fill="black"/>
<path d="M6 29.3569V27.8018H7.53386V29.3569H6Z" fill="black"/>
<path d="M7.28243 29.3569V27.8018H8.35579V29.3569H7.28243Z" fill="black"/>
<path d="M8.1819 29.3569V27.8018H9.40899V29.3569H8.1819Z" fill="black"/>
<path d="M9.08137 29.3569V27.8018H10.3085V29.3569H9.08137Z" fill="black"/>
<path d="M9.98084 29.3569V27.8018H11.5147V29.3569H9.98084Z" fill="black"/>
<path d="M11.1864 29.3569V27.8018H12.5665V29.3569H11.1864Z" fill="black"/>
<path d="M12.2585 29.3569V27.8018H13.7923V29.3569H12.2585Z" fill="black"/>
<path d="M13.6178 29.3569V27.8018H14.9979V29.3569H13.6178Z" fill="black"/>
<path d="M14.8233 29.3569V27.8018H15.8967V29.3569H14.8233Z" fill="black"/>
<path d="M15.5691 29.3569V27.8018H16.1826V29.3569H15.5691Z" fill="black"/>
<path d="M16.0074 29.3569V27.8018H17.2345V29.3569H16.0074Z" fill="black"/>
<path d="M16.9069 29.3569V27.8018H18.4407V29.3569H16.9069Z" fill="black"/>
<path d="M18.2661 29.3569V27.8018H19.3395V29.3569H18.2661Z" fill="black"/>
<path d="M19.0119 29.3569V27.8018H20.5458V29.3569H19.0119Z" fill="black"/>
<path d="M20.3712 29.3569V27.8018H21.7513V29.3569H20.3712Z" fill="black"/>
<path d="M21.4433 29.3569V27.8018H22.9771V29.3569H21.4433Z" fill="black"/>
<path d="M22.6488 29.3569V27.8018H23.4154V29.3569H22.6488Z" fill="black"/>
<path d="M23.164 29.3569V27.8018H23.7775V29.3569H23.164Z" fill="black"/>
<path d="M23.6023 29.3569V27.8018H24.8294V29.3569H23.6023Z" fill="black"/>
<path d="M24.8078 29.3569V27.8018H26.188V29.3569H24.8078Z" fill="black"/>
<path d="M26.0134 29.3569V27.8018H27.3936V29.3569H26.0134Z" fill="black"/>
<path d="M27.1812 29.3569V27.8018H28.2546V29.3569H27.1812Z" fill="black"/>
<path d="M27.927 29.3569V27.8018H29.4608V29.3569H27.927Z" fill="black"/>
<path d="M29.1325 29.3569V27.8018H30.6664V29.3569H29.1325Z" fill="black"/>
<path d="M30.415 29.3569V27.8018H31.9488V29.3569H30.415Z" fill="black"/>
<path d="M31.6974 29.3569V27.8018H32.3109V29.3569H31.6974Z" fill="black"/>
<path d="M6.15372 32.3569V30.8018H7.38014V32.3569H6.15372Z" fill="black"/>
<path d="M7.20557 32.3569V30.8018H8.43266V32.3569H7.20557Z" fill="black"/>
<path d="M8.10504 32.3569V30.8018H8.71858V32.3569H8.10504Z" fill="black"/>
<path d="M8.54334 32.3569V30.8018H10.0772V32.3569H8.54334Z" fill="black"/>
<path d="M9.97949 32.3569V30.8018H11.3596V32.3569H9.97949Z" fill="black"/>
<path d="M11.1851 32.3569V30.8018H11.7986V32.3569H11.1851Z" fill="black"/>
<path d="M11.6234 32.3569V30.8018H12.6967V32.3569H11.6234Z" fill="black"/>
<path d="M12.5228 32.3569V30.8018H13.903V32.3569H12.5228Z" fill="black"/>
<path d="M13.8444 32.3569V30.8018H15.0708V32.3569H13.8444Z" fill="black"/>
<path d="M14.8962 32.3569V30.8018H15.9696V32.3569H14.8962Z" fill="black"/>
<path d="M15.7957 32.3569V30.8018H17.3295V32.3569H15.7957Z" fill="black"/>
<path d="M17.0781 32.3569V30.8018H18.1515V32.3569H17.0781Z" fill="black"/>
<path d="M17.8239 32.3569V30.8018H18.8972V32.3569H17.8239Z" fill="black"/>
<path d="M18.877 32.3569V30.8018H20.1035V32.3569H18.877Z" fill="black"/>
<path d="M20.0826 32.3569V30.8018H21.4627V32.3569H20.0826Z" fill="black"/>
<path d="M21.2882 32.3569V30.8018H21.9017V32.3569H21.2882Z" fill="black"/>
<path d="M21.7265 32.3569V30.8018H22.7998V32.3569H21.7265Z" fill="black"/>
<path d="M22.4722 32.3569V30.8018H24.0061V32.3569H22.4722Z" fill="black"/>
<path d="M23.8315 32.3569V30.8018H25.3654V32.3569H23.8315Z" fill="black"/>
<path d="M25.1139 32.3569V30.8018H26.1873V32.3569H25.1139Z" fill="black"/>
<path d="M25.8597 32.3569V30.8018H26.4732V32.3569H25.8597Z" fill="black"/>
<path d="M26.298 32.3569V30.8018H27.8319V32.3569H26.298Z" fill="black"/>
<path d="M27.6573 32.3569V30.8018H29.1911V32.3569H27.6573Z" fill="black"/>
<path d="M28.9397 32.3569V30.8018H30.3199V32.3569H28.9397Z" fill="black"/>
<path d="M30.1075 32.3569V30.8018H30.7211V32.3569H30.1075Z" fill="black"/>
<path d="M6 35.3569V33.8018H7.38014V35.3569H6Z" fill="black"/>
<path d="M7.28243 35.3569V33.8018H8.50884V35.3569H7.28243Z" fill="black"/>
<path d="M8.33427 35.3569V33.8018H10.3286V35.3569H8.33427Z" fill="black"/>
<path d="M10.384 35.3569V33.8018H11.7641V35.3569H10.384Z" fill="black"/>
<path d="M11.6664 35.3569V33.8018H12.8928V35.3569H11.6664Z" fill="black"/>
<path d="M12.7182 35.3569V33.8018H14.2521V35.3569H12.7182Z" fill="black"/>
<path d="M14.2313 35.3569V33.8018H15.6114V35.3569H14.2313Z" fill="black"/>
<path d="M15.4368 35.3569V33.8018H16.9707V35.3569H15.4368Z" fill="black"/>
<path d="M16.7193 35.3569V33.8018H18.2531V35.3569H16.7193Z" fill="black"/>
<path d="M17.9248 35.3569V33.8018H19.4587V35.3569H17.9248Z" fill="black"/>
<path d="M19.2073 35.3569V33.8018H19.8208V35.3569H19.2073Z" fill="black"/>
<path d="M19.6456 35.3569V33.8018H20.7189V35.3569H19.6456Z" fill="black"/>
<path d="M20.3913 35.3569V33.8018H21.9252V35.3569H20.3913Z" fill="black"/>
<path d="M21.7506 35.3569V33.8018H23.2844V35.3569H21.7506Z" fill="black"/>
<path d="M22.9562 35.3569V33.8018H23.5697V35.3569H22.9562Z" fill="black"/>
<path d="M23.3945 35.3569V33.8018H24.9283V35.3569H23.3945Z" fill="black"/>
<path d="M24.9075 35.3569V33.8018H26.1339V35.3569H24.9075Z" fill="black"/>
<path d="M25.9593 35.3569V33.8018H27.3395V35.3569H25.9593Z" fill="black"/>
<path d="M27.0314 35.3569V33.8018H28.4115V35.3569H27.0314Z" fill="black"/>
<path d="M28.1035 35.3569V33.8018H29.1768V35.3569H28.1035Z" fill="black"/>
<path d="M29.0029 35.3569V33.8018H30.23V35.3569H29.0029Z" fill="black"/>
<path d="M29.9024 35.3569V33.8018H30.9758V35.3569H29.9024Z" fill="black"/>
<path d="M30.8019 35.3569V33.8018H32.182V35.3569H30.8019Z" fill="black"/>
<path d="M31.9306 35.3569V33.8018H32.5441V35.3569H31.9306Z" fill="black"/>
<path d="M6 38.3569V36.8018H7.38014V38.3569H6Z" fill="black"/>
<path d="M7.07207 38.3569V36.8018H8.60593V38.3569H7.07207Z" fill="black"/>
<path d="M8.43136 38.3569V36.8018H9.8115V38.3569H8.43136Z" fill="black"/>
<path d="M9.56007 38.3569V36.8018H10.9402V38.3569H9.56007Z" fill="black"/>
<path d="M10.6321 38.3569V36.8018H12.166V38.3569H10.6321Z" fill="black"/>
<path d="M11.8377 38.3569V36.8018H13.2178V38.3569H11.8377Z" fill="black"/>
<path d="M13.0055 38.3569V36.8018H14.3857V38.3569H13.0055Z" fill="black"/>
<path d="M14.1733 38.3569V36.8018H15.2467V38.3569H14.1733Z" fill="black"/>
<path d="M15.2265 38.3569V36.8018H16.4529V38.3569H15.2265Z" fill="black"/>
<path d="M16.4321 38.3569V36.8018H17.8122V38.3569H16.4321Z" fill="black"/>
<path d="M17.6377 38.3569V36.8018H18.2512V38.3569H17.6377Z" fill="black"/>
<path d="M18.2297 38.3569V36.8018H19.4561V38.3569H18.2297Z" fill="black"/>
<path d="M19.2815 38.3569V36.8018H20.5086V38.3569H19.2815Z" fill="black"/>
<path d="M20.181 38.3569V36.8018H20.7945V38.3569H20.181Z" fill="black"/>
<path d="M20.6193 38.3569V36.8018H21.6927V38.3569H20.6193Z" fill="black"/>
<path d="M21.5188 38.3569V36.8018H22.5921V38.3569H21.5188Z" fill="black"/>
<path d="M22.2645 38.3569V36.8018H23.6446V38.3569H22.2645Z" fill="black"/>
<path d="M23.4323 38.3569V36.8018H24.0459V38.3569H23.4323Z" fill="black"/>
<path d="M24.0243 38.3569V36.8018H25.2508V38.3569H24.0243Z" fill="black"/>
<path d="M25.0762 38.3569V36.8018H27.2236V38.3569H25.0762Z" fill="black"/>
<path d="M27.1259 38.3569V36.8018H28.506V38.3569H27.1259Z" fill="black"/>
<path d="M28.3315 38.3569V36.8018H28.945V38.3569H28.3315Z" fill="black"/>
<path d="M6.15372 41.3569V39.8018H7.53386V41.3569H6.15372Z" fill="black"/>
<path d="M7.28243 41.3569V39.8018H8.81629V41.3569H7.28243Z" fill="black"/>
<path d="M8.64172 41.3569V39.8018H9.86813V41.3569H8.64172Z" fill="black"/>
<path d="M9.84729 41.3569V39.8018H11.2274V41.3569H9.84729Z" fill="black"/>
<path d="M10.976 41.3569V39.8018H12.0494V41.3569H10.976Z" fill="black"/>
<path d="M11.8755 41.3569V39.8018H13.4093V41.3569H11.8755Z" fill="black"/>
<path d="M13.081 41.3569V39.8018H13.8476V41.3569H13.081Z" fill="black"/>
<path d="M13.5962 41.3569V39.8018H14.2097V41.3569H13.5962Z" fill="black"/>
<path d="M14.0345 41.3569V39.8018H15.7221V41.3569H14.0345Z" fill="black"/>
<path d="M15.5664 41.3569V39.8018H16.7928V41.3569H15.5664Z" fill="black"/>
<path d="M16.6182 41.3569V39.8018H17.9984V41.3569H16.6182Z" fill="black"/>
<path d="M17.6903 41.3569V39.8018H18.7637V41.3569H17.6903Z" fill="black"/>
<path d="M18.436 41.3569V39.8018H19.9699V41.3569H18.436Z" fill="black"/>
<path d="M19.7953 41.3569V39.8018H20.4089V41.3569H19.7953Z" fill="black"/>
<path d="M20.2336 41.3569V39.8018H21.9212V41.3569H20.2336Z" fill="black"/>
<path d="M21.8235 41.3569V39.8018H23.0499V41.3569H21.8235Z" fill="black"/>
<path d="M22.8754 41.3569V39.8018H24.2555V41.3569H22.8754Z" fill="black"/>
<path d="M23.9474 41.3569V39.8018H25.4813V41.3569H23.9474Z" fill="black"/>
<path d="M25.153 41.3569V39.8018H26.6869V41.3569H25.153Z" fill="black"/>
<path d="M26.4354 41.3569V39.8018H27.049V41.3569H26.4354Z" fill="black"/>
<path d="M6 44.3569V42.8018H7.38014V44.3569H6Z" fill="black"/>
<path d="M7.28243 44.3569V42.8018H8.50884V44.3569H7.28243Z" fill="black"/>
<path d="M8.33427 44.3569V42.8018H9.86813V44.3569H8.33427Z" fill="black"/>
<path d="M9.69356 44.3569V42.8018H10.7669V44.3569H9.69356Z" fill="black"/>
<path d="M10.593 44.3569V42.8018H12.1269V44.3569H10.593Z" fill="black"/>
<path d="M11.8755 44.3569V42.8018H12.489V44.3569H11.8755Z" fill="black"/>
<path d="M12.3138 44.3569V42.8018H13.8476V44.3569H12.3138Z" fill="black"/>
<path d="M13.6731 44.3569V42.8018H15.2069V44.3569H13.6731Z" fill="black"/>
<path d="M14.8786 44.3569V42.8018H16.2588V44.3569H14.8786Z" fill="black"/>
<path d="M16.1611 44.3569V42.8018H17.6949V44.3569H16.1611Z" fill="black"/>
<path d="M17.3666 44.3569V42.8018H17.9802V44.3569H17.3666Z" fill="black"/>
<path d="M17.8049 44.3569V42.8018H19.3388V44.3569H17.8049Z" fill="black"/>
<path d="M19.0873 44.3569V42.8018H19.7009V44.3569H19.0873Z" fill="black"/>
<path d="M19.5256 44.3569V42.8018H20.7527V44.3569H19.5256Z" fill="black"/>
<path d="M20.4251 44.3569V42.8018H21.959V44.3569H20.4251Z" fill="black"/>
<path d="M21.7844 44.3569V42.8018H22.8578V44.3569H21.7844Z" fill="black"/>
<path d="M22.5302 44.3569V42.8018H24.064V44.3569H22.5302Z" fill="black"/>
<path d="M23.8894 44.3569V42.8018H25.2696V44.3569H23.8894Z" fill="black"/>
<path d="M24.9615 44.3569V42.8018H26.4954V44.3569H24.9615Z" fill="black"/>
<path d="M26.1671 44.3569V42.8018H26.7806V44.3569H26.1671Z" fill="black"/>
<path d="M26.7591 44.3569V42.8018H27.9855V44.3569H26.7591Z" fill="black"/>
<path d="M27.811 44.3569V42.8018H29.038V44.3569H27.811Z" fill="black"/>
<path d="M28.7104 44.3569V42.8018H29.324V44.3569H28.7104Z" fill="black"/>
<path d="M6 47.3569V45.8018H7.07337V47.3569H6Z" fill="black"/>
<path d="M7.05319 47.3569V45.8018H8.43333V47.3569H7.05319Z" fill="black"/>
<path d="M8.25876 47.3569V45.8018H9.33213V47.3569H8.25876Z" fill="black"/>
<path d="M9.00451 47.3569V45.8018H10.5384V47.3569H9.00451Z" fill="black"/>
<path d="M10.2101 47.3569V45.8018H11.5902V47.3569H10.2101Z" fill="black"/>
<path d="M11.4359 47.3569V45.8018H12.816V47.3569H11.4359Z" fill="black"/>
<path d="M12.6414 47.3569V45.8018H14.1753V47.3569H12.6414Z" fill="black"/>
<path d="M13.9239 47.3569V45.8018H14.9972V47.3569H13.9239Z" fill="black"/>
<path d="M14.6696 47.3569V45.8018H15.743V47.3569H14.6696Z" fill="black"/>
<path d="M15.7228 47.3569V45.8018H16.9492V47.3569H15.7228Z" fill="black"/>
<path d="M16.9284 47.3569V45.8018H18.3085V47.3569H16.9284Z" fill="black"/>
<path d="M18.1339 47.3569V45.8018H19.6678V47.3569H18.1339Z" fill="black"/>
<path d="M19.4164 47.3569V45.8018H20.4897V47.3569H19.4164Z" fill="black"/>
<path d="M20.3158 47.3569V45.8018H20.9294V47.3569H20.3158Z" fill="black"/>
<path d="M6 50.3569V48.8018H7.07337V50.3569H6Z" fill="black"/>
<path d="M7.05319 50.3569V48.8018H8.43333V50.3569H7.05319Z" fill="black"/>
<path d="M8.25876 50.3569V48.8018H9.33213V50.3569H8.25876Z" fill="black"/>
<path d="M9.00451 50.3569V48.8018H10.5384V50.3569H9.00451Z" fill="black"/>
<path d="M10.2101 50.3569V48.8018H11.7439V50.3569H10.2101Z" fill="black"/>
<path d="M11.5694 50.3569V48.8018H12.9495V50.3569H11.5694Z" fill="black"/>
<path d="M12.6037 50.3569V48.8018H14.1375V50.3569H12.6037Z" fill="black"/>
<path d="M13.8861 50.3569V48.8018H14.9595V50.3569H13.8861Z" fill="black"/>
<path d="M14.6319 50.3569V48.8018H15.7052V50.3569H14.6319Z" fill="black"/>
<path d="M15.685 50.3569V48.8018H16.9115V50.3569H15.685Z" fill="black"/>
<path d="M16.8906 50.3569V48.8018H18.2708V50.3569H16.8906Z" fill="black"/>
<path d="M18.0962 50.3569V48.8018H18.8628V50.3569H18.0962Z" fill="black"/>
<path d="M18.6113 50.3569V48.8018H19.2249V50.3569H18.6113Z" fill="black"/>
<path d="M19.0496 50.3569V48.8018H20.2767V50.3569H19.0496Z" fill="black"/>
<path d="M20.2552 50.3569V48.8018H21.6354V50.3569H20.2552Z" fill="black"/>
<path d="M21.4608 50.3569V48.8018H22.8409V50.3569H21.4608Z" fill="black"/>
<path d="M22.6286 50.3569V48.8018H23.702V50.3569H22.6286Z" fill="black"/>
<path d="M23.3743 50.3569V48.8018H24.9082V50.3569H23.3743Z" fill="black"/>
<path d="M24.5799 50.3569V48.8018H26.1138V50.3569H24.5799Z" fill="black"/>
<path d="M25.8623 50.3569V48.8018H27.3962V50.3569H25.8623Z" fill="black"/>
<path d="M27.1448 50.3569V48.8018H27.7583V50.3569H27.1448Z" fill="black"/>
<path d="M27.7368 50.3569V48.8018H28.9632V50.3569H27.7368Z" fill="black"/>
<path d="M28.7886 50.3569V48.8018H30.0157V50.3569H28.7886Z" fill="black"/>
<path d="M29.6881 50.3569V48.8018H30.3016V50.3569H29.6881Z" fill="black"/>
<path d="M6 53.3569V51.8018H7.53386V53.3569H6Z" fill="black"/>
<path d="M7.35929 53.3569V51.8018H8.73943V53.3569H7.35929Z" fill="black"/>
<path d="M8.43136 53.3569V51.8018H9.50473V53.3569H8.43136Z" fill="black"/>
<path d="M9.48456 53.3569V51.8018H10.8647V53.3569H9.48456Z" fill="black"/>
<path d="M10.767 53.3569V51.8018H12.1471V53.3569H10.767Z" fill="black"/>
<path d="M11.8957 53.3569V51.8018H12.9691V53.3569H11.8957Z" fill="black"/>
<path d="M12.9489 53.3569V51.8018H14.329V53.3569H12.9489Z" fill="black"/>
<path d="M14.1545 53.3569V51.8018H15.6883V53.3569H14.1545Z" fill="black"/>
<path d="M15.5137 53.3569V51.8018H16.1273V53.3569H15.5137Z" fill="black"/>
<path d="M16.1058 53.3569V51.8018H17.4859V53.3569H16.1058Z" fill="black"/>
<path d="M17.3882 53.3569V51.8018H18.6146V53.3569H17.3882Z" fill="black"/>
<path d="M18.44 53.3569V51.8018H19.8202V53.3569H18.44Z" fill="black"/>
<path d="M19.7225 53.3569V51.8018H21.2563V53.3569H19.7225Z" fill="black"/>
<path d="M20.928 53.3569V51.8018H22.3082V53.3569H20.928Z" fill="black"/>
<path d="M22.0001 53.3569V51.8018H23.0735V53.3569H22.0001Z" fill="black"/>
<path d="M22.8996 53.3569V51.8018H24.2797V53.3569H22.8996Z" fill="black"/>
<path d="M24.0283 53.3569V51.8018H24.7949V53.3569H24.0283Z" fill="black"/>
<path d="M24.5434 53.3569V51.8018H25.157V53.3569H24.5434Z" fill="black"/>
<path d="M24.9817 53.3569V51.8018H26.0551V53.3569H24.9817Z" fill="black"/>
<path d="M25.8812 53.3569V51.8018H26.9546V53.3569H25.8812Z" fill="black"/>
<path d="M26.627 53.3569V51.8018H27.2405V53.3569H26.627Z" fill="black"/>
<path d="M6 56.3569V54.8018H7.38014V56.3569H6Z" fill="black"/>
<path d="M7.28243 56.3569V54.8018H8.50884V56.3569H7.28243Z" fill="black"/>
<path d="M8.33427 56.3569V54.8018H9.86813V56.3569H8.33427Z" fill="black"/>
<path d="M9.69356 56.3569V54.8018H10.7669V56.3569H9.69356Z" fill="black"/>
<path d="M10.593 56.3569V54.8018H12.1269V56.3569H10.593Z" fill="black"/>
<path d="M11.8755 56.3569V54.8018H12.489V56.3569H11.8755Z" fill="black"/>
<path d="M12.3138 56.3569V54.8018H13.8476V56.3569H12.3138Z" fill="black"/>
<path d="M13.6731 56.3569V54.8018H15.2069V56.3569H13.6731Z" fill="black"/>
<path d="M14.8786 56.3569V54.8018H16.2588V56.3569H14.8786Z" fill="black"/>
<path d="M16.1611 56.3569V54.8018H17.6949V56.3569H16.1611Z" fill="black"/>
<path d="M17.3666 56.3569V54.8018H17.9802V56.3569H17.3666Z" fill="black"/>
<path d="M17.8049 56.3569V54.8018H19.3388V56.3569H17.8049Z" fill="black"/>
<path d="M19.0873 56.3569V54.8018H19.7009V56.3569H19.0873Z" fill="black"/>
<path d="M19.5256 56.3569V54.8018H20.7527V56.3569H19.5256Z" fill="black"/>
<path d="M20.4251 56.3569V54.8018H21.959V56.3569H20.4251Z" fill="black"/>
<path d="M21.7844 56.3569V54.8018H22.8578V56.3569H21.7844Z" fill="black"/>
<path d="M22.5302 56.3569V54.8018H24.064V56.3569H22.5302Z" fill="black"/>
<path d="M23.8894 56.3569V54.8018H25.2696V56.3569H23.8894Z" fill="black"/>
<path d="M24.9615 56.3569V54.8018H26.4954V56.3569H24.9615Z" fill="black"/>
<path d="M26.1671 56.3569V54.8018H26.7806V56.3569H26.1671Z" fill="black"/>
<path d="M26.7591 56.3569V54.8018H27.9855V56.3569H26.7591Z" fill="black"/>
<path d="M27.811 56.3569V54.8018H29.038V56.3569H27.811Z" fill="black"/>
<path d="M28.7104 56.3569V54.8018H29.324V56.3569H28.7104Z" fill="black"/>
<path d="M6 59.3569V57.8018H7.53386V59.3569H6Z" fill="black"/>
<path d="M7.20557 59.3569V57.8018H8.58571V59.3569H7.20557Z" fill="black"/>
<path d="M8.488 59.3569V57.8018H9.71441V59.3569H8.488Z" fill="black"/>
<path d="M9.69356 59.3569V57.8018H11.0737V59.3569H9.69356Z" fill="black"/>
<path d="M11.0529 59.3569V57.8018H12.2793V59.3569H11.0529Z" fill="black"/>
<path d="M12.1047 59.3569V57.8018H14.0991V59.3569H12.1047Z" fill="black"/>
<path d="M14.0007 59.3569V57.8018H15.074V59.3569H14.0007Z" fill="black"/>
<path d="M14.9001 59.3569V57.8018H16.2803V59.3569H14.9001Z" fill="black"/>
<path d="M16.0288 59.3569V57.8018H16.6424V59.3569H16.0288Z" fill="black"/>
<path d="M16.6209 59.3569V57.8018H17.8473V59.3569H16.6209Z" fill="black"/>
<path d="M17.8264 59.3569V57.8018H19.2066V59.3569H17.8264Z" fill="black"/>
<path d="M19.1089 59.3569V57.8018H20.489V59.3569H19.1089Z" fill="black"/>
<path d="M20.3913 59.3569V57.8018H21.6177V59.3569H20.3913Z" fill="black"/>
<path d="M21.4431 59.3569V57.8018H22.8233V59.3569H21.4431Z" fill="black"/>
<path d="M22.5152 59.3569V57.8018H23.5886V59.3569H22.5152Z" fill="black"/>
<path d="M23.261 59.3569V57.8018H24.7948V59.3569H23.261Z" fill="black"/>
<path d="M24.774 59.3569V57.8018H26.1541V59.3569H24.774Z" fill="black"/>
<path d="M25.9795 59.3569V57.8018H27.0529V59.3569H25.9795Z" fill="black"/>
<path d="M26.879 59.3569V57.8018H27.9524V59.3569H26.879Z" fill="black"/>
<path d="M27.7785 59.3569V57.8018H29.1586V59.3569H27.7785Z" fill="black"/>
<path d="M29.2692 59.0363V58.9271H30.5395V59.0363H29.2692Z" fill="black"/>
<path d="M6 62.3569V60.8018H8.14741V62.3569H6Z" fill="black"/>
<path d="M7.89597 62.3569V60.8018H9.42983V62.3569H7.89597Z" fill="black"/>
<path d="M9.25526 62.3569V60.8018H10.7891V62.3569H9.25526Z" fill="black"/>
<path d="M10.4608 62.3569V60.8018H11.841V62.3569H10.4608Z" fill="black"/>
<path d="M11.5329 62.3569V60.8018H13.0668V62.3569H11.5329Z" fill="black"/>
<path d="M12.7385 62.3569V60.8018H13.352V62.3569H12.7385Z" fill="black"/>
<path d="M13.1768 62.3569V60.8018H14.2501V62.3569H13.1768Z" fill="black"/>
<path d="M13.9225 62.3569V60.8018H15.3027V62.3569H13.9225Z" fill="black"/>
<path d="M14.9568 62.3569V60.8018H16.4907V62.3569H14.9568Z" fill="black"/>
<path d="M16.2393 62.3569V60.8018H17.7731V62.3569H16.2393Z" fill="black"/>
<path d="M17.5217 62.3569V60.8018H19.0556V62.3569H17.5217Z" fill="black"/>
<path d="M18.7273 62.3569V60.8018H19.3408V62.3569H18.7273Z" fill="black"/>
<path d="M19.1656 62.3569V60.8018H20.6994V62.3569H19.1656Z" fill="black"/>
<path d="M20.6017 62.3569V60.8018H21.9818V62.3569H20.6017Z" fill="black"/>
<path d="M21.8073 62.3569V60.8018H23.3411V62.3569H21.8073Z" fill="black"/>
<path d="M23.0897 62.3569V60.8018H23.7033V62.3569H23.0897Z" fill="black"/>
<path d="M6 65.3569V63.8018H7.07337V65.3569H6Z" fill="black"/>
<path d="M7.05319 65.3569V63.8018H8.43333V65.3569H7.05319Z" fill="black"/>
<path d="M8.1819 65.3569V63.8018H9.56204V65.3569H8.1819Z" fill="black"/>
<path d="M9.46433 65.3569V63.8018H10.9982V65.3569H9.46433Z" fill="black"/>
<path d="M10.6699 65.3569V63.8018H12.05V65.3569H10.6699Z" fill="black"/>
<path d="M11.8377 65.3569V63.8018H12.9111V65.3569H11.8377Z" fill="black"/>
<path d="M12.5835 65.3569V63.8018H14.5778V65.3569H12.5835Z" fill="black"/>
<path d="M14.4794 65.3569V63.8018H16.0133V65.3569H14.4794Z" fill="black"/>
<path d="M15.8387 65.3569V63.8018H17.2189V65.3569H15.8387Z" fill="black"/>
<path d="M17.0443 65.3569V63.8018H18.1177V65.3569H17.0443Z" fill="black"/>
<path d="M17.79 65.3569V63.8018H18.4036V65.3569H17.79Z" fill="black"/>
<path d="M18.2283 65.3569V63.8018H19.7622V65.3569H18.2283Z" fill="black"/>
<path d="M19.6645 65.3569V63.8018H21.0446V65.3569H19.6645Z" fill="black"/>
<path d="M20.8701 65.3569V63.8018H22.4039V65.3569H20.8701Z" fill="black"/>
<path d="M22.1525 65.3569V63.8018H22.766V65.3569H22.1525Z" fill="black"/>
<path d="M22.5908 65.3569V63.8018H23.6641V65.3569H22.5908Z" fill="black"/>
<path d="M23.4902 65.3569V63.8018H24.7167V65.3569H23.4902Z" fill="black"/>
<path d="M24.5421 65.3569V63.8018H26.076V65.3569H24.5421Z" fill="black"/>
<path d="M25.9014 65.3569V63.8018H27.2815V65.3569H25.9014Z" fill="black"/>
<path d="M26.9735 65.3569V63.8018H28.0468V65.3569H26.9735Z" fill="black"/>
<path d="M27.8729 65.3569V63.8018H29.2531V65.3569H27.8729Z" fill="black"/>
<path d="M29.0407 65.3569V63.8018H31.0351V65.3569H29.0407Z" fill="black"/>
<path d="M30.9367 65.3569V63.8018H31.5503V65.3569H30.9367Z" fill="black"/>
<path d="M6 68.3569V66.8018H7.38014V68.3569H6Z" fill="black"/>
<path d="M7.12871 68.3569V66.8018H8.66257V68.3569H7.12871Z" fill="black"/>
<path d="M8.56486 68.3569V66.8018H9.945V68.3569H8.56486Z" fill="black"/>
<path d="M9.77043 68.3569V66.8018H10.384V68.3569H9.77043Z" fill="black"/>
<path d="M10.3624 68.3569V66.8018H11.5889V68.3569H10.3624Z" fill="black"/>
<path d="M11.4143 68.3569V66.8018H12.6414V68.3569H11.4143Z" fill="black"/>
<path d="M12.3138 68.3569V66.8018H13.5409V68.3569H12.3138Z" fill="black"/>
<path d="M13.2132 68.3569V66.8018H14.7471V68.3569H13.2132Z" fill="black"/>
<path d="M14.4188 68.3569V66.8018H15.7989V68.3569H14.4188Z" fill="black"/>
<path d="M15.4909 68.3569V66.8018H16.1044V68.3569H15.4909Z" fill="black"/>
<path d="M15.9292 68.3569V66.8018H17.0025V68.3569H15.9292Z" fill="black"/>
<path d="M16.6749 68.3569V66.8018H18.2088V68.3569H16.6749Z" fill="black"/>
<path d="M18.0342 68.3569V66.8018H19.5681V68.3569H18.0342Z" fill="black"/>
<path d="M19.2398 68.3569V66.8018H19.8533V68.3569H19.2398Z" fill="black"/>
<path d="M19.6781 68.3569V66.8018H21.3657V68.3569H19.6781Z" fill="black"/>
<path d="M21.21 68.3569V66.8018H22.4364V68.3569H21.21Z" fill="black"/>
<path d="M22.2618 68.3569V66.8018H23.642V68.3569H22.2618Z" fill="black"/>
<path d="M23.3339 68.3569V66.8018H24.4072V68.3569H23.3339Z" fill="black"/>
<path d="M24.0796 68.3569V66.8018H25.6135V68.3569H24.0796Z" fill="black"/>
<path d="M25.4389 68.3569V66.8018H26.0525V68.3569H25.4389Z" fill="black"/>
<path d="M6 71.3569V69.8018H7.68758V71.3569H6Z" fill="black"/>
<path d="M7.58988 71.3569V69.8018H8.81629V71.3569H7.58988Z" fill="black"/>
<path d="M8.64172 71.3569V69.8018H10.0219V71.3569H8.64172Z" fill="black"/>
<path d="M9.71379 71.3569V69.8018H11.2477V71.3569H9.71379Z" fill="black"/>
<path d="M10.9194 71.3569V69.8018H12.4532V71.3569H10.9194Z" fill="black"/>
<path d="M12.3555 71.3569V69.8018H13.7356V71.3569H12.3555Z" fill="black"/>
<path d="M13.5611 71.3569V69.8018H14.1746V71.3569H13.5611Z" fill="black"/>
<path d="M14.1531 71.3569V69.8018H15.5332V71.3569H14.1531Z" fill="black"/>
<path d="M15.2818 71.3569V69.8018H16.8157V71.3569H15.2818Z" fill="black"/>
<path d="M16.6411 71.3569V69.8018H17.8675V71.3569H16.6411Z" fill="black"/>
<path d="M17.8467 71.3569V69.8018H19.2268V71.3569H17.8467Z" fill="black"/>
<path d="M18.9754 71.3569V69.8018H20.0487V71.3569H18.9754Z" fill="black"/>
<path d="M19.8748 71.3569V69.8018H21.4087V71.3569H19.8748Z" fill="black"/>
<path d="M21.0804 71.3569V69.8018H21.694V71.3569H21.0804Z" fill="black"/>
<path d="M21.5187 71.3569V69.8018H22.5921V71.3569H21.5187Z" fill="black"/>
<path d="M22.2645 71.3569V69.8018H23.7983V71.3569H22.2645Z" fill="black"/>
<path d="M23.6237 71.3569V69.8018H25.1576V71.3569H23.6237Z" fill="black"/>
<path d="M24.8293 71.3569V69.8018H25.4429V71.3569H24.8293Z" fill="black"/>
<path d="M6 74.3569V72.8018H7.38014V74.3569H6Z" fill="black"/>
<path d="M7.12871 74.3569V72.8018H8.66257V74.3569H7.12871Z" fill="black"/>
<path d="M8.488 74.3569V72.8018H10.0219V74.3569H8.488Z" fill="black"/>
<path d="M9.92415 74.3569V72.8018H11.3043V74.3569H9.92415Z" fill="black"/>
<path d="M11.1297 74.3569V72.8018H12.5099V74.3569H11.1297Z" fill="black"/>
<path d="M12.2584 74.3569V72.8018H13.7923V74.3569H12.2584Z" fill="black"/>
<path d="M13.464 74.3569V72.8018H14.0775V74.3569H13.464Z" fill="black"/>
<path d="M13.9023 74.3569V72.8018H15.4362V74.3569H13.9023Z" fill="black"/>
<path d="M15.1847 74.3569V72.8018H16.2581V74.3569H15.1847Z" fill="black"/>
<path d="M15.9305 74.3569V72.8018H16.544V74.3569H15.9305Z" fill="black"/>
<path d="M16.3688 74.3569V72.8018H17.9026V74.3569H16.3688Z" fill="black"/>
<path d="M17.6512 74.3569V72.8018H18.2647V74.3569H17.6512Z" fill="black"/>
<path d="M18.2432 74.3569V72.8018H19.6234V74.3569H18.2432Z" fill="black"/>
<path d="M19.2951 74.3569V72.8018H20.8289V74.3569H19.2951Z" fill="black"/>
<path d="M20.5006 74.3569V72.8018H21.574V74.3569H20.5006Z" fill="black"/>
<path d="M21.2464 74.3569V72.8018H22.3197V74.3569H21.2464Z" fill="black"/>
<path d="M21.9921 74.3569V72.8018H23.526V74.3569H21.9921Z" fill="black"/>
<path d="M23.1977 74.3569V72.8018H24.5778V74.3569H23.1977Z" fill="black"/>
<path d="M24.2698 74.3569V72.8018H24.8833V74.3569H24.2698Z" fill="black"/>
<path d="M24.7081 74.3569V72.8018H25.7814V74.3569H24.7081Z" fill="black"/>
<path d="M25.6075 74.3569V72.8018H26.6809V74.3569H25.6075Z" fill="black"/>
<path d="M26.507 74.3569V72.8018H27.7341V74.3569H26.507Z" fill="black"/>
<path d="M27.4065 74.3569V72.8018H28.9403V74.3569H27.4065Z" fill="black"/>
<path d="M28.612 74.3569V72.8018H29.3786V74.3569H28.612Z" fill="black"/>
<path d="M29.1272 74.3569V72.8018H29.7407V74.3569H29.1272Z" fill="black"/>
<path d="M6 77.3569V75.8018H7.68758V77.3569H6Z" fill="black"/>
<path d="M7.58988 77.3569V75.8018H8.97001V77.3569H7.58988Z" fill="black"/>
<path d="M8.79544 77.3569V75.8018H10.3293V77.3569H8.79544Z" fill="black"/>
<path d="M10.0779 77.3569V75.8018H10.6914V77.3569H10.0779Z" fill="black"/>
<path d="M10.5162 77.3569V75.8018H11.5895V77.3569H10.5162Z" fill="black"/>
<path d="M11.5694 77.3569V75.8018H12.9495V77.3569H11.5694Z" fill="black"/>
<path d="M12.7749 77.3569V75.8018H14.1551V77.3569H12.7749Z" fill="black"/>
<path d="M13.9427 77.3569V75.8018H15.0161V77.3569H13.9427Z" fill="black"/>
<path d="M14.6885 77.3569V75.8018H16.2224V77.3569H14.6885Z" fill="black"/>
<path d="M15.8941 77.3569V75.8018H17.4279V77.3569H15.8941Z" fill="black"/>
<path d="M17.1765 77.3569V75.8018H18.7103V77.3569H17.1765Z" fill="black"/>
<path d="M18.4589 77.3569V75.8018H19.0725V77.3569H18.4589Z" fill="black"/>
<path d="M19.0509 77.3569V75.8018H20.2774V77.3569H19.0509Z" fill="black"/>
<path d="M20.1028 77.3569V75.8018H21.3299V77.3569H20.1028Z" fill="black"/>
<path d="M21.0023 77.3569V75.8018H21.6158V77.3569H21.0023Z" fill="black"/>
<path d="M6 80.3569V78.8018H7.07337V80.3569H6Z" fill="black"/>
<path d="M7.05319 80.3569V78.8018H8.43333V80.3569H7.05319Z" fill="black"/>
<path d="M8.25876 80.3569V78.8018H9.6389V80.3569H8.25876Z" fill="black"/>
<path d="M9.38747 80.3569V78.8018H10.7676V80.3569H9.38747Z" fill="black"/>
<path d="M10.4595 80.3569V78.8018H11.9934V80.3569H10.4595Z" fill="black"/>
<path d="M11.6651 80.3569V78.8018H13.199V80.3569H11.6651Z" fill="black"/>
<path d="M12.9475 80.3569V78.8018H14.3277V80.3569H12.9475Z" fill="black"/>
<path d="M14.1153 80.3569V78.8018H15.1887V80.3569H14.1153Z" fill="black"/>
<path d="M15.1685 80.3569V78.8018H16.5487V80.3569H15.1685Z" fill="black"/>
<path d="M16.3741 80.3569V78.8018H17.908V80.3569H16.3741Z" fill="black"/>
<path d="M17.7334 80.3569V78.8018H18.3469V80.3569H17.7334Z" fill="black"/>
<path d="M18.1717 80.3569V78.8018H19.2451V80.3569H18.1717Z" fill="black"/>
<path d="M19.2249 80.3569V78.8018H20.605V80.3569H19.2249Z" fill="black"/>
<path d="M20.4305 80.3569V78.8018H21.8106V80.3569H20.4305Z" fill="black"/>
<path d="M21.5983 80.3569V78.8018H23.1321V80.3569H21.5983Z" fill="black"/>
<path d="M22.8038 80.3569V78.8018H24.184V80.3569H22.8038Z" fill="black"/>
<path d="M23.9325 80.3569V78.8018H25.4664V80.3569H23.9325Z" fill="black"/>
<path d="M25.2918 80.3569V78.8018H26.672V80.3569H25.2918Z" fill="black"/>
<path d="M26.3639 80.3569V78.8018H27.4373V80.3569H26.3639Z" fill="black"/>
<path d="M27.2634 80.3569V78.8018H28.3367V80.3569H27.2634Z" fill="black"/>
<path d="M28.1628 80.3569V78.8018H29.543V80.3569H28.1628Z" fill="black"/>
<path d="M29.2915 80.3569V78.8018H30.0581V80.3569H29.2915Z" fill="black"/>
<path d="M29.8067 80.3569V78.8018H30.4203V80.3569H29.8067Z" fill="black"/>
<path d="M30.245 80.3569V78.8018H31.3184V80.3569H30.245Z" fill="black"/>
<path d="M31.1445 80.3569V78.8018H32.2178V80.3569H31.1445Z" fill="black"/>
<path d="M31.8902 80.3569V78.8018H32.5038V80.3569H31.8902Z" fill="black"/>
<path d="M6 83.3569V81.8018H7.38014V83.3569H6Z" fill="black"/>
<path d="M7.28243 83.3569V81.8018H8.50884V83.3569H7.28243Z" fill="black"/>
<path d="M8.33427 83.3569V81.8018H9.86813V83.3569H8.33427Z" fill="black"/>
<path d="M9.69356 83.3569V81.8018H10.7669V83.3569H9.69356Z" fill="black"/>
<path d="M10.593 83.3569V81.8018H12.1269V83.3569H10.593Z" fill="black"/>
<path d="M11.8755 83.3569V81.8018H12.489V83.3569H11.8755Z" fill="black"/>
<path d="M12.3138 83.3569V81.8018H13.8476V83.3569H12.3138Z" fill="black"/>
<path d="M13.6731 83.3569V81.8018H15.2069V83.3569H13.6731Z" fill="black"/>
<path d="M14.8786 83.3569V81.8018H16.2588V83.3569H14.8786Z" fill="black"/>
<path d="M16.1611 83.3569V81.8018H17.6949V83.3569H16.1611Z" fill="black"/>
<path d="M17.3666 83.3569V81.8018H17.9802V83.3569H17.3666Z" fill="black"/>
<path d="M17.8049 83.3569V81.8018H19.3388V83.3569H17.8049Z" fill="black"/>
<path d="M19.0873 83.3569V81.8018H19.7009V83.3569H19.0873Z" fill="black"/>
<path d="M19.5256 83.3569V81.8018H20.7527V83.3569H19.5256Z" fill="black"/>
<path d="M20.4251 83.3569V81.8018H21.959V83.3569H20.4251Z" fill="black"/>
<path d="M21.7844 83.3569V81.8018H22.8578V83.3569H21.7844Z" fill="black"/>
<path d="M22.5302 83.3569V81.8018H24.064V83.3569H22.5302Z" fill="black"/>
<path d="M23.8894 83.3569V81.8018H25.2696V83.3569H23.8894Z" fill="black"/>
<path d="M24.9615 83.3569V81.8018H26.4954V83.3569H24.9615Z" fill="black"/>
<path d="M26.1671 83.3569V81.8018H26.7806V83.3569H26.1671Z" fill="black"/>
<path d="M26.7591 83.3569V81.8018H27.9855V83.3569H26.7591Z" fill="black"/>
<path d="M27.811 83.3569V81.8018H29.038V83.3569H27.811Z" fill="black"/>
<path d="M28.7104 83.3569V81.8018H29.324V83.3569H28.7104Z" fill="black"/>
<path d="M6 86.3569V84.8018H7.53386V86.3569H6Z" fill="black"/>
<path d="M7.35929 86.3569V84.8018H8.73943V86.3569H7.35929Z" fill="black"/>
<path d="M8.43136 86.3569V84.8018H9.96522V86.3569H8.43136Z" fill="black"/>
<path d="M9.63693 86.3569V84.8018H11.1708V86.3569H9.63693Z" fill="black"/>
<path d="M10.9194 86.3569V84.8018H11.9927V86.3569H10.9194Z" fill="black"/>
<path d="M11.6651 86.3569V84.8018H13.199V86.3569H11.6651Z" fill="black"/>
<path d="M12.8707 86.3569V84.8018H14.2508V86.3569H12.8707Z" fill="black"/>
<path d="M13.9427 86.3569V84.8018H14.5563V86.3569H13.9427Z" fill="black"/>
<path d="M14.381 86.3569V84.8018H15.7612V86.3569H14.381Z" fill="black"/>
<path d="M15.5489 86.3569V84.8018H17.0827V86.3569H15.5489Z" fill="black"/>
<path d="M16.7544 86.3569V84.8018H18.1346V86.3569H16.7544Z" fill="black"/>
<path d="M17.8831 86.3569V84.8018H19.417V86.3569H17.8831Z" fill="black"/>
<path d="M19.2424 86.3569V84.8018H20.6226V86.3569H19.2424Z" fill="black"/>
<path d="M20.3145 86.3569V84.8018H21.3879V86.3569H20.3145Z" fill="black"/>
<path d="M21.214 86.3569V84.8018H22.2873V86.3569H21.214Z" fill="black"/>
<path d="M22.1134 86.3569V84.8018H23.4936V86.3569H22.1134Z" fill="black"/>
<path d="M23.2421 86.3569V84.8018H23.8557V86.3569H23.2421Z" fill="black"/>
<path d="M23.6804 86.3569V84.8018H25.2143V86.3569H23.6804Z" fill="black"/>
<path d="M25.1166 86.3569V84.8018H26.4967V86.3569H25.1166Z" fill="black"/>
<path d="M26.3222 86.3569V84.8018H27.856V86.3569H26.3222Z" fill="black"/>
<path d="M27.6046 86.3569V84.8018H28.2181V86.3569H27.6046Z" fill="black"/>
<path d="M6 89.3569V87.8018H7.38014V89.3569H6Z" fill="black"/>
<path d="M7.07207 89.3569V87.8018H8.60593V89.3569H7.07207Z" fill="black"/>
<path d="M8.27764 89.3569V87.8018H9.65778V89.3569H8.27764Z" fill="black"/>
<path d="M9.59917 89.3569V87.8018H10.9793V89.3569H9.59917Z" fill="black"/>
<path d="M10.7279 89.3569V87.8018H12.2617V89.3569H10.7279Z" fill="black"/>
<path d="M11.9334 89.3569V87.8018H13.3136V89.3569H11.9334Z" fill="black"/>
<path d="M13.0622 89.3569V87.8018H14.1355V89.3569H13.0622Z" fill="black"/>
<path d="M13.8079 89.3569V87.8018H14.5745V89.3569H13.8079Z" fill="black"/>
<path d="M14.3231 89.3569V87.8018H15.0897V89.3569H14.3231Z" fill="black"/>
<path d="M6.30677 8.25234H32.518V8.32207H6.30677V8.25234ZM6.30677 11.2523H24.3662V11.3221H6.30677V11.2523ZM6.30677 14.2523H31.857V14.3221H6.30677V14.2523ZM6.30677 17.2523H19.5687V17.3221H6.30677V17.2523ZM19.5694 17.5319H20.895V17.6019H19.5694V17.5319ZM20.895 17.2523H31.4983V17.3221H20.895V17.2523ZM6.30677 20.2523H27.1643V20.3221H6.30677V20.2523ZM27.1643 20.5319H28.4898V20.6019H27.1643V20.5319ZM28.4898 20.2523H31.8004V20.3221H28.4898V20.2523ZM6.30677 23.2523H32.6932V23.3221H6.30677V23.2523ZM6.30677 26.2523H28.5385V26.3221H6.30677V26.2523ZM6.30677 29.2523H32.0042V29.3221H6.30677V29.2523ZM6.30677 32.2523H30.4136V32.3221H6.30677V32.2523ZM6.30677 35.2523H32.2373V35.3221H6.30677V35.2523ZM6.30677 38.2523H28.6382V38.3221H6.30677V38.2523ZM6.30677 41.2523H26.7422V41.3221H6.30677V41.2523ZM6.30677 44.2523H29.0165V44.3221H6.30677V44.2523ZM6.30677 47.2523H20.6219V47.3221H6.30677V47.2523ZM6.30677 50.2523H29.9942V50.3221H6.30677V50.2523ZM6.30677 53.2523H26.9331V53.3221H6.30677V53.2523ZM6.30677 56.2523H29.0165V56.3221H6.30677V56.2523ZM6.30677 59.2523H29.214V59.3221H6.30677V59.2523ZM29.214 59.5319H30.5948V59.6019H29.214V59.5319ZM6.30677 62.2523H23.3965V62.3221H6.30677V62.2523ZM6.30677 65.2523H31.2435V65.3221H6.30677V65.2523ZM6.30677 68.2523H25.7457V68.3221H6.30677V68.2523ZM6.30677 71.2523H25.1361V71.3221H6.30677V71.2523ZM6.30677 74.2523H29.434V74.3221H6.30677V74.2523ZM6.30677 77.2523H21.3084V77.3221H6.30677V77.2523ZM6.30677 80.2523H32.1963V80.3221H6.30677V80.2523ZM6.30677 83.2523H29.0165V83.3221H6.30677V83.2523ZM6.30677 86.2523H27.9114V86.3221H6.30677V86.2523ZM6.30677 89.2523H15.2771V89.3221H6.30677V89.2523Z" fill="black"/>
</g>
<rect width="12" height="14" transform="translate(25 80.3569)" fill="white"/>
<path d="M30.6787 84.2183C31.5999 84.2183 32.2721 84.4168 32.6953 84.814C33.1185 85.2078 33.3301 85.7515 33.3301 86.4448C33.3301 86.7573 33.2829 87.0568 33.1885 87.3433C33.0941 87.6265 32.9395 87.8787 32.7246 88.1001C32.513 88.3215 32.2298 88.4972 31.875 88.6274C31.5202 88.7544 31.0824 88.8179 30.5615 88.8179H29.9121V91.3569H28.3984V84.2183H30.6787ZM30.6006 85.4585H29.9121V87.5776H30.4102C30.6934 87.5776 30.9391 87.5402 31.1475 87.4653C31.3558 87.3905 31.5169 87.2733 31.6309 87.1138C31.7448 86.9543 31.8018 86.7492 31.8018 86.4985C31.8018 86.147 31.7041 85.8866 31.5088 85.7173C31.3135 85.5448 31.0107 85.4585 30.6006 85.4585Z" fill="#585858"/>
</g>
<path d="M11.3333 100.357H2V106.705H11.3333V100.357Z" fill="#BB90BB"/>
</g>
<defs>
<filter id="filter0_d_39_124700" x="0" y="1.80176" width="39" height="96.5552" filterUnits="userSpaceOnUse" color-interpolation-filters="sRGB">
<feFlood flood-opacity="0" result="BackgroundImageFix"/>
<feColorMatrix in="SourceAlpha" type="matrix" values="0 0 0 0 0 0 0 0 0 0 0 0 0 0 0 0 0 0 127 0" result="hardAlpha"/>
<feOffset dy="1"/>
<feGaussianBlur stdDeviation="1"/>
<feComposite in2="hardAlpha" operator="out"/>
<feColorMatrix type="matrix" values="0 0 0 0 0 0 0 0 0 0 0 0 0 0 0 0 0 0 0.1 0"/>
<feBlend mode="normal" in2="BackgroundImageFix" result="effect1_dropShadow_39_124700"/>
<feBlend mode="normal" in="SourceGraphic" in2="effect1_dropShadow_39_124700" result="shape"/>
</filter>
<clipPath id="clip0_39_124700">
<rect width="39" height="107.903" fill="white" transform="translate(0 0.801758)"/>
</clipPath>
</defs>
</svg>
