<svg width="41" height="97" viewBox="0 0 41 97" fill="none" xmlns="http://www.w3.org/2000/svg">
<rect width="41" height="97" fill=""/>
<rect width="35" height="80.5552" transform="translate(3 3.02832)" fill="white"/>
<g opacity="0.3">
<path d="M7 8.5835V7.02832H7.76656V8.5835H7Z" fill="black"/>
<path d="M7.59199 8.5835V7.02832H9.12578V8.5835H7.59199Z" fill="black"/>
<path d="M8.95122 8.5835V7.02832H10.485V8.5835H8.95122Z" fill="black"/>
<path d="M10.3104 8.5835V7.02832H11.6905V8.5835H10.3104Z" fill="black"/>
<path d="M11.3825 8.5835V7.02832H11.996V8.5835H11.3825Z" fill="black"/>
<path d="M11.9745 8.5835V7.02832H13.3545V8.5835H11.9745Z" fill="black"/>
<path d="M13.1031 8.5835V7.02832H14.4832V8.5835H13.1031Z" fill="black"/>
<path d="M14.1751 8.5835V7.02832H15.7089V8.5835H14.1751Z" fill="black"/>
<path d="M15.3806 8.5835V7.02832H16.6077V8.5835H15.3806Z" fill="black"/>
<path d="M16.2801 8.5835V7.02832H17.8139V8.5835H16.2801Z" fill="black"/>
<path d="M17.4856 8.5835V7.02832H18.8657V8.5835H17.4856Z" fill="black"/>
<path d="M18.5576 8.5835V7.02832H20.0914V8.5835H18.5576Z" fill="black"/>
<path d="M19.9168 8.5835V7.02832H21.2969V8.5835H19.9168Z" fill="black"/>
<path d="M21.1223 8.5835V7.02832H22.5024V8.5835H21.1223Z" fill="black"/>
<path d="M22.251 8.5835V7.02832H23.7848V8.5835H22.251Z" fill="black"/>
<path d="M23.4565 8.5835V7.02832H24.07V8.5835H23.4565Z" fill="black"/>
<path d="M23.8948 8.5835V7.02832H26.0421V8.5835H23.8948Z" fill="black"/>
<path d="M25.9444 8.5835V7.02832H27.1707V8.5835H25.9444Z" fill="black"/>
<path d="M26.9962 8.5835V7.02832H28.53V8.5835H26.9962Z" fill="black"/>
<path d="M28.3554 8.5835V7.02832H29.4287V8.5835H28.3554Z" fill="black"/>
<path d="M29.2548 8.5835V7.02832H30.7886V8.5835H29.2548Z" fill="black"/>
<path d="M30.5372 8.5835V7.02832H31.1507V8.5835H30.5372Z" fill="black"/>
<path d="M31.1292 8.5835V7.02832H32.5093V8.5835H31.1292Z" fill="black"/>
<path d="M32.181 8.5835V7.02832H33.7148V8.5835H32.181Z" fill="black"/>
<path d="M33.3865 8.5835V7.02832H34V8.5835H33.3865Z" fill="black"/>
<path d="M7 11.5835V10.0283H8.07331V11.5835H7Z" fill="black"/>
<path d="M7.89943 11.5835V10.0283H9.12578V11.5835H7.89943Z" fill="black"/>
<path d="M8.95122 11.5835V10.0283H9.56474V11.5835H8.95122Z" fill="black"/>
<path d="M9.3895 11.5835V10.0283H10.9233V11.5835H9.3895Z" fill="black"/>
<path d="M10.7487 11.5835V10.0283H12.2825V11.5835H10.7487Z" fill="black"/>
<path d="M11.9542 11.5835V10.0283H13.0275V11.5835H11.9542Z" fill="black"/>
<path d="M12.6999 11.5835V10.0283H13.3135V11.5835H12.6999Z" fill="black"/>
<path d="M13.1382 11.5835V10.0283H14.2115V11.5835H13.1382Z" fill="black"/>
<path d="M14.0377 11.5835V10.0283H15.264V11.5835H14.0377Z" fill="black"/>
<path d="M15.0894 11.5835V10.0283H15.703V11.5835H15.0894Z" fill="black"/>
<path d="M15.5277 11.5835V10.0283H16.601V11.5835H15.5277Z" fill="black"/>
<path d="M16.2734 11.5835V10.0283H17.8072V11.5835H16.2734Z" fill="black"/>
<path d="M17.5558 11.5835V10.0283H18.6291V11.5835H17.5558Z" fill="black"/>
<path d="M18.4552 11.5835V10.0283H19.989V11.5835H18.4552Z" fill="black"/>
<path d="M19.7767 11.5835V10.0283H21.1568V11.5835H19.7767Z" fill="black"/>
<path d="M20.9445 11.5835V10.0283H21.711V11.5835H20.9445Z" fill="black"/>
<path d="M21.4596 11.5835V10.0283H22.0731V11.5835H21.4596Z" fill="black"/>
<path d="M21.8979 11.5835V10.0283H23.4317V11.5835H21.8979Z" fill="black"/>
<path d="M23.2571 11.5835V10.0283H24.7909V11.5835H23.2571Z" fill="black"/>
<path d="M24.6163 11.5835V10.0283H25.9964V11.5835H24.6163Z" fill="black"/>
<path d="M25.6883 11.5835V10.0283H26.3019V11.5835H25.6883Z" fill="black"/>
<path d="M7.15372 14.5835V13.0283H8.53379V14.5835H7.15372Z" fill="black"/>
<path d="M8.28237 14.5835V13.0283H9.66244V14.5835H8.28237Z" fill="black"/>
<path d="M9.35439 14.5835V13.0283H10.8882V14.5835H9.35439Z" fill="black"/>
<path d="M10.5599 14.5835V13.0283H11.7869V14.5835H10.5599Z" fill="black"/>
<path d="M11.4593 14.5835V13.0283H12.9931V14.5835H11.4593Z" fill="black"/>
<path d="M12.6648 14.5835V13.0283H14.0449V14.5835H12.6648Z" fill="black"/>
<path d="M13.7369 14.5835V13.0283H15.2706V14.5835H13.7369Z" fill="black"/>
<path d="M15.0961 14.5835V13.0283H16.4762V14.5835H15.0961Z" fill="black"/>
<path d="M16.3016 14.5835V13.0283H17.6817V14.5835H16.3016Z" fill="black"/>
<path d="M17.4302 14.5835V13.0283H18.964V14.5835H17.4302Z" fill="black"/>
<path d="M18.6358 14.5835V13.0283H19.2493V14.5835H18.6358Z" fill="black"/>
<path d="M19.074 14.5835V13.0283H21.2213V14.5835H19.074Z" fill="black"/>
<path d="M21.1236 14.5835V13.0283H22.35V14.5835H21.1236Z" fill="black"/>
<path d="M22.1754 14.5835V13.0283H23.7092V14.5835H22.1754Z" fill="black"/>
<path d="M23.5346 14.5835V13.0283H24.608V14.5835H23.5346Z" fill="black"/>
<path d="M24.4341 14.5835V13.0283H25.9679V14.5835H24.4341Z" fill="black"/>
<path d="M25.7164 14.5835V13.0283H26.33V14.5835H25.7164Z" fill="black"/>
<path d="M26.3084 14.5835V13.0283H27.6885V14.5835H26.3084Z" fill="black"/>
<path d="M27.3602 14.5835V13.0283H28.894V14.5835H27.3602Z" fill="black"/>
<path d="M28.5657 14.5835V13.0283H29.3323V14.5835H28.5657Z" fill="black"/>
<path d="M29.0809 14.5835V13.0283H29.6944V14.5835H29.0809Z" fill="black"/>
<path d="M7 17.5835V16.0283H8.07331V17.5835H7Z" fill="black"/>
<path d="M7.74571 17.5835V16.0283H9.2795V17.5835H7.74571Z" fill="black"/>
<path d="M9.10494 17.5835V16.0283H10.485V17.5835H9.10494Z" fill="black"/>
<path d="M10.3307 17.5835V16.0283H11.557V17.5835H10.3307Z" fill="black"/>
<path d="M11.3825 17.5835V16.0283H12.9163V17.5835H11.3825Z" fill="black"/>
<path d="M12.7417 17.5835V16.0283H14.2755V17.5835H12.7417Z" fill="black"/>
<path d="M14.1009 17.5835V16.0283H15.6347V17.5835H14.1009Z" fill="black"/>
<path d="M15.4601 17.5835V16.0283H16.0737V17.5835H15.4601Z" fill="black"/>
<path d="M15.8984 17.5835V16.0283H16.9717V17.5835H15.8984Z" fill="black"/>
<path d="M16.6441 17.5835V16.0283H18.1779V17.5835H16.6441Z" fill="black"/>
<path d="M18.0034 17.5835V16.0283H19.5371V17.5835H18.0034Z" fill="black"/>
<path d="M19.2089 17.5835V16.0283H20.5889V17.5835H19.2089Z" fill="black"/>
<path d="M20.3766 17.5835V16.0283H21.9104V17.5835H20.3766Z" fill="black"/>
<path d="M21.5821 17.5835V16.0283H22.1956V17.5835H21.5821Z" fill="black"/>
<path d="M22.0204 17.5835V16.0283H23.4005V17.5835H22.0204Z" fill="black"/>
<path d="M23.3028 17.5835V16.0283H24.3761V17.5835H23.3028Z" fill="black"/>
<path d="M24.2022 17.5835V16.0283H25.736V17.5835H24.2022Z" fill="black"/>
<path d="M25.4846 17.5835V16.0283H26.2511V17.5835H25.4846Z" fill="black"/>
<path d="M26.2303 17.5835V16.0283H27.7641V17.5835H26.2303Z" fill="black"/>
<path d="M27.301 17.5835V16.0283H28.8347V17.5835H27.301Z" fill="black"/>
<path d="M28.5833 17.5835V16.0283H29.9634V17.5835H28.5833Z" fill="black"/>
<path d="M29.6553 17.5835V16.0283H30.7287V17.5835H29.6553Z" fill="black"/>
<path d="M30.5548 17.5835V16.0283H31.9348V17.5835H30.5548Z" fill="black"/>
<path d="M31.6834 17.5835V16.0283H32.2969V17.5835H31.6834Z" fill="black"/>
<path d="M7.15372 20.5835V19.0283H8.38007V20.5835H7.15372Z" fill="black"/>
<path d="M8.20551 20.5835V19.0283H9.58558V20.5835H8.20551Z" fill="black"/>
<path d="M9.27753 20.5835V19.0283H9.89104V20.5835H9.27753Z" fill="black"/>
<path d="M9.71581 20.5835V19.0283H10.7891V20.5835H9.71581Z" fill="black"/>
<path d="M10.4615 20.5835V19.0283H11.9953V20.5835H10.4615Z" fill="black"/>
<path d="M11.8207 20.5835V19.0283H13.2008V20.5835H11.8207Z" fill="black"/>
<path d="M13.0465 20.5835V19.0283H14.2728V20.5835H13.0465Z" fill="black"/>
<path d="M14.0983 20.5835V19.0283H15.6321V20.5835H14.0983Z" fill="black"/>
<path d="M15.4575 20.5835V19.0283H16.9913V20.5835H15.4575Z" fill="black"/>
<path d="M16.8167 20.5835V19.0283H18.3505V20.5835H16.8167Z" fill="black"/>
<path d="M18.176 20.5835V19.0283H18.7895V20.5835H18.176Z" fill="black"/>
<path d="M18.7679 20.5835V19.0283H20.148V20.5835H18.7679Z" fill="black"/>
<path d="M19.8197 20.5835V19.0283H20.8931V20.5835H19.8197Z" fill="black"/>
<path d="M20.7192 20.5835V19.0283H21.7925V20.5835H20.7192Z" fill="black"/>
<path d="M21.6186 20.5835V19.0283H23.1524V20.5835H21.6186Z" fill="black"/>
<path d="M22.901 20.5835V19.0283H23.9743V20.5835H22.901Z" fill="black"/>
<path d="M23.6467 20.5835V19.0283H25.1805V20.5835H23.6467Z" fill="black"/>
<path d="M24.8522 20.5835V19.0283H26.2323V20.5835H24.8522Z" fill="black"/>
<path d="M25.8864 20.5835V19.0283H27.4202V20.5835H25.8864Z" fill="black"/>
<path d="M27.1688 20.5835V19.0283H28.2421V20.5835H27.1688Z" fill="black"/>
<path d="M28.0682 20.5835V19.0283H28.6818V20.5835H28.0682Z" fill="black"/>
<path d="M7 23.5835V22.0283H8.99426V23.5835H7Z" fill="black"/>
<path d="M8.89588 23.5835V22.0283H10.4297V23.5835H8.89588Z" fill="black"/>
<path d="M10.1014 23.5835V22.0283H11.6352V23.5835H10.1014Z" fill="black"/>
<path d="M11.5375 23.5835V22.0283H12.9175V23.5835H11.5375Z" fill="black"/>
<path d="M12.743 23.5835V22.0283H14.1231V23.5835H12.743Z" fill="black"/>
<path d="M13.9107 23.5835V22.0283H14.6773V23.5835H13.9107Z" fill="black"/>
<path d="M14.4259 23.5835V22.0283H15.0394V23.5835H14.4259Z" fill="black"/>
<path d="M14.8642 23.5835V22.0283H16.3979V23.5835H14.8642Z" fill="black"/>
<path d="M16.2234 23.5835V22.0283H17.7572V23.5835H16.2234Z" fill="black"/>
<path d="M17.4289 23.5835V22.0283H18.5022V23.5835H17.4289Z" fill="black"/>
<path d="M18.1746 23.5835V22.0283H18.7881V23.5835H18.1746Z" fill="black"/>
<path d="M18.6129 23.5835V22.0283H19.6862V23.5835H18.6129Z" fill="black"/>
<path d="M19.5123 23.5835V22.0283H20.7387V23.5835H19.5123Z" fill="black"/>
<path d="M20.5641 23.5835V22.0283H21.1776V23.5835H20.5641Z" fill="black"/>
<path d="M21.0024 23.5835V22.0283H22.5362V23.5835H21.0024Z" fill="black"/>
<path d="M22.2847 23.5835V22.0283H22.8983V23.5835H22.2847Z" fill="black"/>
<path d="M22.8767 23.5835V22.0283H24.2568V23.5835H22.8767Z" fill="black"/>
<path d="M24.0054 23.5835V22.0283H25.0787V23.5835H24.0054Z" fill="black"/>
<path d="M24.9048 23.5835V22.0283H26.4386V23.5835H24.9048Z" fill="black"/>
<path d="M26.1872 23.5835V22.0283H27.5673V23.5835H26.1872Z" fill="black"/>
<path d="M27.3158 23.5835V22.0283H28.8496V23.5835H27.3158Z" fill="black"/>
<path d="M28.5214 23.5835V22.0283H29.1349V23.5835H28.5214Z" fill="black"/>
<path d="M7 26.5835V25.0283H9.1473V26.5835H7Z" fill="black"/>
<path d="M8.89588 26.5835V25.0283H10.4297V26.5835H8.89588Z" fill="black"/>
<path d="M10.2551 26.5835V25.0283H11.7889V26.5835H10.2551Z" fill="black"/>
<path d="M11.4606 26.5835V25.0283H12.8407V26.5835H11.4606Z" fill="black"/>
<path d="M12.5326 26.5835V25.0283H14.0664V26.5835H12.5326Z" fill="black"/>
<path d="M13.7381 26.5835V25.0283H14.3517V26.5835H13.7381Z" fill="black"/>
<path d="M14.1764 26.5835V25.0283H16.3237V26.5835H14.1764Z" fill="black"/>
<path d="M16.0723 26.5835V25.0283H17.6061V26.5835H16.0723Z" fill="black"/>
<path d="M17.2778 26.5835V25.0283H17.8913V26.5835H17.2778Z" fill="black"/>
<path d="M17.7161 26.5835V25.0283H19.2499V26.5835H17.7161Z" fill="black"/>
<path d="M18.9985 26.5835V25.0283H20.3785V26.5835H18.9985Z" fill="black"/>
<path d="M20.0705 26.5835V25.0283H21.6043V26.5835H20.0705Z" fill="black"/>
<path d="M21.276 26.5835V25.0283H21.8895V26.5835H21.276Z" fill="black"/>
<path d="M21.7143 26.5835V25.0283H22.7876V26.5835H21.7143Z" fill="black"/>
<path d="M22.46 26.5835V25.0283H23.9938V26.5835H22.46Z" fill="black"/>
<path d="M23.7424 26.5835V25.0283H24.8157V26.5835H23.7424Z" fill="black"/>
<path d="M24.6418 26.5835V25.0283H26.1756V26.5835H24.6418Z" fill="black"/>
<path d="M25.9633 26.5835V25.0283H27.0366V26.5835H25.9633Z" fill="black"/>
<path d="M27.0164 26.5835V25.0283H28.3965V26.5835H27.0164Z" fill="black"/>
<path d="M28.2219 26.5835V25.0283H29.7557V26.5835H28.2219Z" fill="black"/>
<path d="M29.5811 26.5835V25.0283H30.1946V26.5835H29.5811Z" fill="black"/>
<path d="M7 29.5835V28.0283H8.53379V29.5835H7Z" fill="black"/>
<path d="M8.43608 29.5835V28.0283H9.81616V29.5835H8.43608Z" fill="black"/>
<path d="M9.64159 29.5835V28.0283H10.8679V29.5835H9.64159Z" fill="black"/>
<path d="M10.6934 29.5835V28.0283H12.2272V29.5835H10.6934Z" fill="black"/>
<path d="M12.0526 29.5835V28.0283H13.1259V29.5835H12.0526Z" fill="black"/>
<path d="M12.7983 29.5835V28.0283H13.4118V29.5835H12.7983Z" fill="black"/>
<path d="M13.2366 29.5835V28.0283H14.3099V29.5835H13.2366Z" fill="black"/>
<path d="M13.9823 29.5835V28.0283H15.5161V29.5835H13.9823Z" fill="black"/>
<path d="M15.3415 29.5835V28.0283H16.8753V29.5835H15.3415Z" fill="black"/>
<path d="M16.547 29.5835V28.0283H17.1606V29.5835H16.547Z" fill="black"/>
<path d="M16.9853 29.5835V28.0283H18.3654V29.5835H16.9853Z" fill="black"/>
<path d="M18.0573 29.5835V28.0283H19.5911V29.5835H18.0573Z" fill="black"/>
<path d="M19.2629 29.5835V28.0283H20.7966V29.5835H19.2629Z" fill="black"/>
<path d="M20.5452 29.5835V28.0283H21.6185V29.5835H20.5452Z" fill="black"/>
<path d="M21.4447 29.5835V28.0283H22.0582V29.5835H21.4447Z" fill="black"/>
<path d="M21.8829 29.5835V28.0283H23.11V29.5835H21.8829Z" fill="black"/>
<path d="M22.7824 29.5835V28.0283H24.3161V29.5835H22.7824Z" fill="black"/>
<path d="M24.1416 29.5835V28.0283H25.2149V29.5835H24.1416Z" fill="black"/>
<path d="M24.8873 29.5835V28.0283H26.4211V29.5835H24.8873Z" fill="black"/>
<path d="M26.2465 29.5835V28.0283H27.6266V29.5835H26.2465Z" fill="black"/>
<path d="M27.3185 29.5835V28.0283H28.8523V29.5835H27.3185Z" fill="black"/>
<path d="M28.524 29.5835V28.0283H29.2906V29.5835H28.524Z" fill="black"/>
<path d="M29.0392 29.5835V28.0283H29.6527V29.5835H29.0392Z" fill="black"/>
<path d="M7 32.5835V31.0283H9.1473V32.5835H7Z" fill="black"/>
<path d="M8.89588 32.5835V31.0283H10.4297V32.5835H8.89588Z" fill="black"/>
<path d="M10.2551 32.5835V31.0283H11.3284V32.5835H10.2551Z" fill="black"/>
<path d="M11.1545 32.5835V31.0283H12.5346V32.5835H11.1545Z" fill="black"/>
<path d="M12.2832 32.5835V31.0283H13.817V32.5835H12.2832Z" fill="black"/>
<path d="M13.6424 32.5835V31.0283H14.2559V32.5835H13.6424Z" fill="black"/>
<path d="M14.0807 32.5835V31.0283H15.154V32.5835H14.0807Z" fill="black"/>
<path d="M14.9801 32.5835V31.0283H16.3602V32.5835H14.9801Z" fill="black"/>
<path d="M16.1479 32.5835V31.0283H16.7614V32.5835H16.1479Z" fill="black"/>
<path d="M16.5862 32.5835V31.0283H17.6595V32.5835H16.5862Z" fill="black"/>
<path d="M17.3319 32.5835V31.0283H18.8656V32.5835H17.3319Z" fill="black"/>
<path d="M18.6911 32.5835V31.0283H20.2249V32.5835H18.6911Z" fill="black"/>
<path d="M19.8966 32.5835V31.0283H20.5101V32.5835H19.8966Z" fill="black"/>
<path d="M20.3349 32.5835V31.0283H21.5619V32.5835H20.3349Z" fill="black"/>
<path d="M21.2343 32.5835V31.0283H22.7681V32.5835H21.2343Z" fill="black"/>
<path d="M22.5935 32.5835V31.0283H23.6668V32.5835H22.5935Z" fill="black"/>
<path d="M23.3392 32.5835V31.0283H24.873V32.5835H23.3392Z" fill="black"/>
<path d="M24.6985 32.5835V31.0283H26.0785V32.5835H24.6985Z" fill="black"/>
<path d="M25.7705 32.5835V31.0283H27.3043V32.5835H25.7705Z" fill="black"/>
<path d="M26.976 32.5835V31.0283H27.5895V32.5835H26.976Z" fill="black"/>
<path d="M27.568 32.5835V31.0283H28.7943V32.5835H27.568Z" fill="black"/>
<path d="M28.6198 32.5835V31.0283H29.8468V32.5835H28.6198Z" fill="black"/>
<path d="M29.5192 32.5835V31.0283H30.1327V32.5835H29.5192Z" fill="black"/>
<path d="M7 35.5835V34.0283H8.53379V35.5835H7Z" fill="black"/>
<path d="M8.28237 35.5835V34.0283H9.81616V35.5835H8.28237Z" fill="black"/>
<path d="M9.64159 35.5835V34.0283H11.0217V35.5835H9.64159Z" fill="black"/>
<path d="M10.8471 35.5835V34.0283H12.3809V35.5835H10.8471Z" fill="black"/>
<path d="M12.2063 35.5835V34.0283H13.5864V35.5835H12.2063Z" fill="black"/>
<path d="M13.335 35.5835V34.0283H14.4083V35.5835H13.335Z" fill="black"/>
<path d="M14.2344 35.5835V34.0283H15.7682V35.5835H14.2344Z" fill="black"/>
<path d="M15.4399 35.5835V34.0283H16.9737V35.5835H15.4399Z" fill="black"/>
<path d="M16.7223 35.5835V34.0283H18.1024V35.5835H16.7223Z" fill="black"/>
<path d="M17.7943 35.5835V34.0283H18.8676V35.5835H17.7943Z" fill="black"/>
<path d="M18.8474 35.5835V34.0283H20.0738V35.5835H18.8474Z" fill="black"/>
<path d="M19.8035 35.5835V34.0283H20.8768V35.5835H19.8035Z" fill="black"/>
<path d="M20.8566 35.5835V34.0283H22.2367V35.5835H20.8566Z" fill="black"/>
<path d="M22.0622 35.5835V34.0283H23.5959V35.5835H22.0622Z" fill="black"/>
<path d="M23.4214 35.5835V34.0283H24.0349V35.5835H23.4214Z" fill="black"/>
<path d="M7 38.5835V37.0283H8.53379V38.5835H7Z" fill="black"/>
<path d="M8.43608 38.5835V37.0283H9.81616V38.5835H8.43608Z" fill="black"/>
<path d="M9.64159 38.5835V37.0283H11.1754V38.5835H9.64159Z" fill="black"/>
<path d="M10.924 38.5835V37.0283H11.6905V38.5835H10.924Z" fill="black"/>
<path d="M11.4391 38.5835V37.0283H12.2057V38.5835H11.4391Z" fill="black"/>
<path d="M11.9542 38.5835V37.0283H12.7208V38.5835H11.9542Z" fill="black"/>
<path d="M12.4694 38.5835V37.0283H14.0032V38.5835H12.4694Z" fill="black"/>
<path d="M13.8286 38.5835V37.0283H14.9019V38.5835H13.8286Z" fill="black"/>
<path d="M14.728 38.5835V37.0283H15.8013V38.5835H14.728Z" fill="black"/>
<path d="M15.4737 38.5835V37.0283H16.547V38.5835H15.4737Z" fill="black"/>
<path d="M16.3732 38.5835V37.0283H18.3674V38.5835H16.3732Z" fill="black"/>
<path d="M18.269 38.5835V37.0283H19.8028V38.5835H18.269Z" fill="black"/>
<path d="M19.5514 38.5835V37.0283H20.6247V38.5835H19.5514Z" fill="black"/>
<path d="M20.2971 38.5835V37.0283H21.8309V38.5835H20.2971Z" fill="black"/>
<path d="M21.5026 38.5835V37.0283H22.5759V38.5835H21.5026Z" fill="black"/>
<path d="M22.4789 38.5835V37.0283H23.859V38.5835H22.4789Z" fill="black"/>
<path d="M23.6076 38.5835V37.0283H24.3741V38.5835H23.6076Z" fill="black"/>
<path d="M24.1227 38.5835V37.0283H24.7362V38.5835H24.1227Z" fill="black"/>
<path d="M24.561 38.5835V37.0283H25.6343V38.5835H24.561Z" fill="black"/>
<path d="M25.3067 38.5835V37.0283H26.8405V38.5835H25.3067Z" fill="black"/>
<path d="M26.6659 38.5835V37.0283H28.1997V38.5835H26.6659Z" fill="black"/>
<path d="M27.8714 38.5835V37.0283H28.4849V38.5835H27.8714Z" fill="black"/>
<path d="M7 41.5835V40.0283H8.38007V41.5835H7Z" fill="black"/>
<path d="M8.07202 41.5835V40.0283H9.60581V41.5835H8.07202Z" fill="black"/>
<path d="M9.27753 41.5835V40.0283H10.8113V41.5835H9.27753Z" fill="black"/>
<path d="M10.7905 41.5835V40.0283H12.1705V41.5835H10.7905Z" fill="black"/>
<path d="M11.996 41.5835V40.0283H13.0693V41.5835H11.996Z" fill="black"/>
<path d="M12.8954 41.5835V40.0283H14.1224V41.5835H12.8954Z" fill="black"/>
<path d="M13.7948 41.5835V40.0283H14.8681V41.5835H13.7948Z" fill="black"/>
<path d="M14.6943 41.5835V40.0283H16.0743V41.5835H14.6943Z" fill="black"/>
<path d="M15.8229 41.5835V40.0283H17.3567V41.5835H15.8229Z" fill="black"/>
<path d="M17.1053 41.5835V40.0283H18.1786V41.5835H17.1053Z" fill="black"/>
<path d="M17.851 41.5835V40.0283H18.9243V41.5835H17.851Z" fill="black"/>
<path d="M18.9041 41.5835V40.0283H20.1305V41.5835H18.9041Z" fill="black"/>
<path d="M20.1096 41.5835V40.0283H21.4897V41.5835H20.1096Z" fill="black"/>
<path d="M21.3152 41.5835V40.0283H21.9287V41.5835H21.3152Z" fill="black"/>
<path d="M21.9071 41.5835V40.0283H23.1335V41.5835H21.9071Z" fill="black"/>
<path d="M22.9589 41.5835V40.0283H24.186V41.5835H22.9589Z" fill="black"/>
<path d="M23.8584 41.5835V40.0283H24.4719V41.5835H23.8584Z" fill="black"/>
<path d="M24.2966 41.5835V40.0283H25.37V41.5835H24.2966Z" fill="black"/>
<path d="M25.0424 41.5835V40.0283H26.5761V41.5835H25.0424Z" fill="black"/>
<path d="M26.4016 41.5835V40.0283H27.9354V41.5835H26.4016Z" fill="black"/>
<path d="M27.6071 41.5835V40.0283H28.2206V41.5835H27.6071Z" fill="black"/>
<path d="M7.15372 44.5835V43.0283H8.53379V44.5835H7.15372Z" fill="black"/>
<path d="M8.28237 44.5835V43.0283H9.81616V44.5835H8.28237Z" fill="black"/>
<path d="M9.64159 44.5835V43.0283H11.0217V44.5835H9.64159Z" fill="black"/>
<path d="M10.8471 44.5835V43.0283H11.9204V44.5835H10.8471Z" fill="black"/>
<path d="M11.9002 44.5835V43.0283H13.2803V44.5835H11.9002Z" fill="black"/>
<path d="M13.1058 44.5835V43.0283H14.4858V44.5835H13.1058Z" fill="black"/>
<path d="M14.2735 44.5835V43.0283H15.8073V44.5835H14.2735Z" fill="black"/>
<path d="M15.6327 44.5835V43.0283H16.7061V44.5835H15.6327Z" fill="black"/>
<path d="M16.5322 44.5835V43.0283H18.066V44.5835H16.5322Z" fill="black"/>
<path d="M17.8145 44.5835V43.0283H18.428V44.5835H17.8145Z" fill="black"/>
<path d="M18.2528 44.5835V43.0283H19.7866V44.5835H18.2528Z" fill="black"/>
<path d="M19.5352 44.5835V43.0283H20.9152V44.5835H19.5352Z" fill="black"/>
<path d="M20.7029 44.5835V43.0283H21.3164V44.5835H20.7029Z" fill="black"/>
<path d="M21.1412 44.5835V43.0283H22.675V44.5835H21.1412Z" fill="black"/>
<path d="M22.4236 44.5835V43.0283H23.0371V44.5835H22.4236Z" fill="black"/>
<path d="M23.0156 44.5835V43.0283H24.3956V44.5835H23.0156Z" fill="black"/>
<path d="M24.1442 44.5835V43.0283H25.678V44.5835H24.1442Z" fill="black"/>
<path d="M25.3497 44.5835V43.0283H26.8835V44.5835H25.3497Z" fill="black"/>
<path d="M26.6321 44.5835V43.0283H28.0122V44.5835H26.6321Z" fill="black"/>
<path d="M27.7608 44.5835V43.0283H29.2945V44.5835H27.7608Z" fill="black"/>
<path d="M28.9663 44.5835V43.0283H30.1933V44.5835H28.9663Z" fill="black"/>
<path d="M29.8657 44.5835V43.0283H31.3995V44.5835H29.8657Z" fill="black"/>
<path d="M31.2249 44.5835V43.0283H32.2982V44.5835H31.2249Z" fill="black"/>
<path d="M32.1243 44.5835V43.0283H32.8909V44.5835H32.1243Z" fill="black"/>
<path d="M32.6395 44.5835V43.0283H33.253V44.5835H32.6395Z" fill="black"/>
<path d="M7.15372 47.5835V46.0283H8.53379V47.5835H7.15372Z" fill="black"/>
<path d="M8.51294 47.5835V46.0283H9.7393V47.5835H8.51294Z" fill="black"/>
<path d="M9.71845 47.5835V46.0283H11.0985V47.5835H9.71845Z" fill="black"/>
<path d="M11.0777 47.5835V46.0283H12.4577V47.5835H11.0777Z" fill="black"/>
<path d="M12.2832 47.5835V46.0283H13.817V47.5835H12.2832Z" fill="black"/>
<path d="M13.6424 47.5835V46.0283H15.0225V47.5835H13.6424Z" fill="black"/>
<path d="M14.7711 47.5835V46.0283H15.8444V47.5835H14.7711Z" fill="black"/>
<path d="M15.6705 47.5835V46.0283H17.2043V47.5835H15.6705Z" fill="black"/>
<path d="M16.876 47.5835V46.0283H18.4098V47.5835H16.876Z" fill="black"/>
<path d="M18.1584 47.5835V46.0283H19.5384V47.5835H18.1584Z" fill="black"/>
<path d="M19.2304 47.5835V46.0283H19.8439V47.5835H19.2304Z" fill="black"/>
<path d="M7 50.5835V49.0283H8.53379V50.5835H7Z" fill="black"/>
<path d="M8.35923 50.5835V49.0283H9.7393V50.5835H8.35923Z" fill="black"/>
<path d="M9.56474 50.5835V49.0283H10.638V50.5835H9.56474Z" fill="black"/>
<path d="M10.3104 50.5835V49.0283H11.3838V50.5835H10.3104Z" fill="black"/>
<path d="M11.2099 50.5835V49.0283H12.2832V50.5835H11.2099Z" fill="black"/>
<path d="M12.1093 50.5835V49.0283H13.4894V50.5835H12.1093Z" fill="black"/>
<path d="M13.238 50.5835V49.0283H14.0045V50.5835H13.238Z" fill="black"/>
<path d="M13.7531 50.5835V49.0283H14.5196V50.5835H13.7531Z" fill="black"/>
<path d="M14.2682 50.5835V49.0283H15.0348V50.5835H14.2682Z" fill="black"/>
<path d="M14.9371 50.5835V49.0283H16.4709V50.5835H14.9371Z" fill="black"/>
<path d="M16.1615 50.5835V49.0283H17.5415V50.5835H16.1615Z" fill="black"/>
<path d="M17.2335 50.5835V49.0283H18.7673V50.5835H17.2335Z" fill="black"/>
<path d="M18.439 50.5835V49.0283H19.8191V50.5835H18.439Z" fill="black"/>
<path d="M19.6067 50.5835V49.0283H20.6801V50.5835H19.6067Z" fill="black"/>
<path d="M20.5062 50.5835V49.0283H22.04V50.5835H20.5062Z" fill="black"/>
<path d="M21.7885 50.5835V49.0283H23.3223V50.5835H21.7885Z" fill="black"/>
<path d="M23.1478 50.5835V49.0283H24.5278V50.5835H23.1478Z" fill="black"/>
<path d="M24.3533 50.5835V49.0283H25.4266V50.5835H24.3533Z" fill="black"/>
<path d="M25.099 50.5835V49.0283H25.7125V50.5835H25.099Z" fill="black"/>
<path d="M25.5373 50.5835V49.0283H27.0711V50.5835H25.5373Z" fill="black"/>
<path d="M27.0502 50.5835V49.0283H28.4303V50.5835H27.0502Z" fill="black"/>
<path d="M28.102 50.5835V49.0283H29.6358V50.5835H28.102Z" fill="black"/>
<path d="M29.3844 50.5835V49.0283H31.3786V50.5835H29.3844Z" fill="black"/>
<path d="M31.2803 50.5835V49.0283H32.814V50.5835H31.2803Z" fill="black"/>
<path d="M32.5626 50.5835V49.0283H33.1761V50.5835H32.5626Z" fill="black"/>
<path d="M7.15372 53.5835V52.0283H8.38007V53.5835H7.15372Z" fill="black"/>
<path d="M8.20551 53.5835V52.0283H9.58558V53.5835H8.20551Z" fill="black"/>
<path d="M9.27753 53.5835V52.0283H10.8113V53.5835H9.27753Z" fill="black"/>
<path d="M10.5599 53.5835V52.0283H12.0937V53.5835H10.5599Z" fill="black"/>
<path d="M11.7654 53.5835V52.0283H13.1455V53.5835H11.7654Z" fill="black"/>
<path d="M12.8374 53.5835V52.0283H14.3712V53.5835H12.8374Z" fill="black"/>
<path d="M14.0429 53.5835V52.0283H15.5767V53.5835H14.0429Z" fill="black"/>
<path d="M15.3253 53.5835V52.0283H15.9388V53.5835H15.3253Z" fill="black"/>
<path d="M15.7636 53.5835V52.0283H17.2974V53.5835H15.7636Z" fill="black"/>
<path d="M17.046 53.5835V52.0283H17.6595V53.5835H17.046Z" fill="black"/>
<path d="M17.6379 53.5835V52.0283H19.018V53.5835H17.6379Z" fill="black"/>
<path d="M18.8435 53.5835V52.0283H20.3772V53.5835H18.8435Z" fill="black"/>
<path d="M20.2027 53.5835V52.0283H22.1969V53.5835H20.2027Z" fill="black"/>
<path d="M22.2523 53.5835V52.0283H23.6324V53.5835H22.2523Z" fill="black"/>
<path d="M23.3041 53.5835V52.0283H24.8379V53.5835H23.3041Z" fill="black"/>
<path d="M24.5096 53.5835V52.0283H25.8897V53.5835H24.5096Z" fill="black"/>
<path d="M25.5816 53.5835V52.0283H26.1951V53.5835H25.5816Z" fill="black"/>
<path d="M26.1736 53.5835V52.0283H27.4V53.5835H26.1736Z" fill="black"/>
<path d="M27.2254 53.5835V52.0283H28.4524V53.5835H27.2254Z" fill="black"/>
<path d="M28.1248 53.5835V52.0283H28.7383V53.5835H28.1248Z" fill="black"/>
<path d="M7 56.5835V55.0283H8.53379V56.5835H7Z" fill="black"/>
<path d="M8.20551 56.5835V55.0283H9.7393V56.5835H8.20551Z" fill="black"/>
<path d="M9.48788 56.5835V55.0283H11.0217V56.5835H9.48788Z" fill="black"/>
<path d="M10.6934 56.5835V55.0283H12.0735V56.5835H10.6934Z" fill="black"/>
<path d="M11.7654 56.5835V55.0283H13.1455V56.5835H11.7654Z" fill="black"/>
<path d="M12.8941 56.5835V55.0283H13.9674V56.5835H12.8941Z" fill="black"/>
<path d="M13.7935 56.5835V55.0283H15.1736V56.5835H13.7935Z" fill="black"/>
<path d="M14.9612 56.5835V55.0283H16.495V56.5835H14.9612Z" fill="black"/>
<path d="M16.1667 56.5835V55.0283H17.5468V56.5835H16.1667Z" fill="black"/>
<path d="M17.3345 56.5835V55.0283H17.948V56.5835H17.3345Z" fill="black"/>
<path d="M17.9265 56.5835V55.0283H19.3066V56.5835H17.9265Z" fill="black"/>
<path d="M19.2857 56.5835V55.0283H20.5121V56.5835H19.2857Z" fill="black"/>
<path d="M20.3375 56.5835V55.0283H21.4108V56.5835H20.3375Z" fill="black"/>
<path d="M21.0832 56.5835V55.0283H21.6967V56.5835H21.0832Z" fill="black"/>
<path d="M21.5215 56.5835V55.0283H22.5948V56.5835H21.5215Z" fill="black"/>
<path d="M22.4209 56.5835V55.0283H23.6473V56.5835H22.4209Z" fill="black"/>
<path d="M23.4727 56.5835V55.0283H24.0862V56.5835H23.4727Z" fill="black"/>
<path d="M24.0647 56.5835V55.0283H25.4448V56.5835H24.0647Z" fill="black"/>
<path d="M25.1165 56.5835V55.0283H26.6503V56.5835H25.1165Z" fill="black"/>
<path d="M26.322 56.5835V55.0283H26.9355V56.5835H26.322Z" fill="black"/>
<path d="M7 59.5835V58.0283H8.53379V59.5835H7Z" fill="black"/>
<path d="M8.51294 59.5835V58.0283H9.89301V59.5835H8.51294Z" fill="black"/>
<path d="M9.71845 59.5835V58.0283H11.2522V59.5835H9.71845Z" fill="black"/>
<path d="M11.0008 59.5835V58.0283H12.5346V59.5835H11.0008Z" fill="black"/>
<path d="M12.2063 59.5835V58.0283H13.5864V59.5835H12.2063Z" fill="black"/>
<path d="M13.2783 59.5835V58.0283H14.3517V59.5835H13.2783Z" fill="black"/>
<path d="M14.0241 59.5835V58.0283H15.5578V59.5835H14.0241Z" fill="black"/>
<path d="M15.3064 59.5835V58.0283H16.8402V59.5835H15.3064Z" fill="black"/>
<path d="M16.6279 59.5835V58.0283H18.1617V59.5835H16.6279Z" fill="black"/>
<path d="M17.9871 59.5835V58.0283H19.3672V59.5835H17.9871Z" fill="black"/>
<path d="M19.1926 59.5835V58.0283H19.9592V59.5835H19.1926Z" fill="black"/>
<path d="M19.7078 59.5835V58.0283H20.3213V59.5835H19.7078Z" fill="black"/>
<path d="M20.146 59.5835V58.0283H21.3731V59.5835H20.146Z" fill="black"/>
<path d="M21.1978 59.5835V58.0283H21.8114V59.5835H21.1978Z" fill="black"/>
<path d="M21.6361 59.5835V58.0283H22.7094V59.5835H21.6361Z" fill="black"/>
<path d="M22.3818 59.5835V58.0283H23.9156V59.5835H22.3818Z" fill="black"/>
<path d="M23.7411 59.5835V58.0283H24.8144V59.5835H23.7411Z" fill="black"/>
<path d="M24.7942 59.5835V58.0283H26.1743V59.5835H24.7942Z" fill="black"/>
<path d="M25.9997 59.5835V58.0283H27.5335V59.5835H25.9997Z" fill="black"/>
<path d="M27.3212 59.5835V58.0283H27.9347V59.5835H27.3212Z" fill="black"/>
<path d="M27.7595 59.5835V58.0283H29.9068V59.5835H27.7595Z" fill="black"/>
<path d="M29.6553 59.5835V58.0283H31.1891V59.5835H29.6553Z" fill="black"/>
<path d="M30.8609 59.5835V58.0283H31.4744V59.5835H30.8609Z" fill="black"/>
<path d="M7 62.5835V61.0283H8.53379V62.5835H7Z" fill="black"/>
<path d="M8.35923 62.5835V61.0283H9.89301V62.5835H8.35923Z" fill="black"/>
<path d="M9.56474 62.5835V61.0283H10.9448V62.5835H9.56474Z" fill="black"/>
<path d="M10.8471 62.5835V61.0283H12.3809V62.5835H10.8471Z" fill="black"/>
<path d="M12.0526 62.5835V61.0283H12.6661V62.5835H12.0526Z" fill="black"/>
<path d="M12.4909 62.5835V61.0283H13.5642V62.5835H12.4909Z" fill="black"/>
<path d="M13.544 62.5835V61.0283H14.7704V62.5835H13.544Z" fill="black"/>
<path d="M14.5958 62.5835V61.0283H16.7431V62.5835H14.5958Z" fill="black"/>
<path d="M16.4917 62.5835V61.0283H18.0255V62.5835H16.4917Z" fill="black"/>
<path d="M17.6972 62.5835V61.0283H19.0773V62.5835H17.6972Z" fill="black"/>
<path d="M18.7692 62.5835V61.0283H20.303V62.5835H18.7692Z" fill="black"/>
<path d="M19.9748 62.5835V61.0283H21.5085V62.5835H19.9748Z" fill="black"/>
<path d="M21.2571 62.5835V61.0283H21.8706V62.5835H21.2571Z" fill="black"/>
<path d="M21.8491 62.5835V61.0283H23.0755V62.5835H21.8491Z" fill="black"/>
<path d="M22.9009 62.5835V61.0283H24.4347V62.5835H22.9009Z" fill="black"/>
<path d="M24.2601 62.5835V61.0283H25.6402V62.5835H24.2601Z" fill="black"/>
<path d="M25.3322 62.5835V61.0283H25.9457V62.5835H25.3322Z" fill="black"/>
<path d="M7 65.5835V64.0283H8.38007V65.5835H7Z" fill="black"/>
<path d="M8.07202 65.5835V64.0283H9.60581V65.5835H8.07202Z" fill="black"/>
<path d="M9.43125 65.5835V64.0283H10.965V65.5835H9.43125Z" fill="black"/>
<path d="M10.6368 65.5835V64.0283H11.7101V65.5835H10.6368Z" fill="black"/>
<path d="M11.5362 65.5835V64.0283H12.7625V65.5835H11.5362Z" fill="black"/>
<path d="M12.588 65.5835V64.0283H13.968V65.5835H12.588Z" fill="black"/>
<path d="M13.66 65.5835V64.0283H14.7333V65.5835H13.66Z" fill="black"/>
<path d="M14.5594 65.5835V64.0283H15.9395V65.5835H14.5594Z" fill="black"/>
<path d="M15.6881 65.5835V64.0283H16.3016V65.5835H15.6881Z" fill="black"/>
<path d="M16.1264 65.5835V64.0283H17.5064V65.5835H16.1264Z" fill="black"/>
<path d="M17.2941 65.5835V64.0283H18.3674V65.5835H17.2941Z" fill="black"/>
<path d="M18.1935 65.5835V64.0283H19.7273V65.5835H18.1935Z" fill="black"/>
<path d="M19.7065 65.5835V64.0283H21.0865V65.5835H19.7065Z" fill="black"/>
<path d="M20.912 65.5835V64.0283H21.9853V65.5835H20.912Z" fill="black"/>
<path d="M21.8114 65.5835V64.0283H23.0384V65.5835H21.8114Z" fill="black"/>
<path d="M22.7108 65.5835V64.0283H23.7842V65.5835H22.7108Z" fill="black"/>
<path d="M23.6103 65.5835V64.0283H24.9903V65.5835H23.6103Z" fill="black"/>
<path d="M24.7389 65.5835V64.0283H26.2727V65.5835H24.7389Z" fill="black"/>
<path d="M26.175 65.5835V64.0283H27.5551V65.5835H26.175Z" fill="black"/>
<path d="M27.3805 65.5835V64.0283H28.4538V65.5835H27.3805Z" fill="black"/>
<path d="M28.1262 65.5835V64.0283H29.1995V65.5835H28.1262Z" fill="black"/>
<path d="M29.1025 65.5835V64.0283H30.4826V65.5835H29.1025Z" fill="black"/>
<path d="M30.2312 65.5835V64.0283H30.9977V65.5835H30.2312Z" fill="black"/>
<path d="M30.7463 65.5835V64.0283H31.3598V65.5835H30.7463Z" fill="black"/>
<path d="M7 68.5835V67.0283H8.53379V68.5835H7Z" fill="black"/>
<path d="M8.43608 68.5835V67.0283H9.81616V68.5835H8.43608Z" fill="black"/>
<path d="M9.64159 68.5835V67.0283H11.1754V68.5835H9.64159Z" fill="black"/>
<path d="M10.924 68.5835V67.0283H11.5375V68.5835H10.924Z" fill="black"/>
<path d="M11.3622 68.5835V67.0283H13.5095V68.5835H11.3622Z" fill="black"/>
<path d="M13.2581 68.5835V67.0283H14.7919V68.5835H13.2581Z" fill="black"/>
<path d="M14.4636 68.5835V67.0283H15.0771V68.5835H14.4636Z" fill="black"/>
<path d="M14.9019 68.5835V67.0283H16.4357V68.5835H14.9019Z" fill="black"/>
<path d="M16.1843 68.5835V67.0283H17.5644V68.5835H16.1843Z" fill="black"/>
<path d="M17.2563 68.5835V67.0283H18.7901V68.5835H17.2563Z" fill="black"/>
<path d="M18.4618 68.5835V67.0283H19.0753V68.5835H18.4618Z" fill="black"/>
<path d="M18.9001 68.5835V67.0283H20.4339V68.5835H18.9001Z" fill="black"/>
<path d="M20.1825 68.5835V67.0283H21.2558V68.5835H20.1825Z" fill="black"/>
<path d="M20.9282 68.5835V67.0283H22.0015V68.5835H20.9282Z" fill="black"/>
<path d="M21.6739 68.5835V67.0283H23.2077V68.5835H21.6739Z" fill="black"/>
<path d="M22.8794 68.5835V67.0283H24.8736V68.5835H22.8794Z" fill="black"/>
<path d="M24.929 68.5835V67.0283H26.3091V68.5835H24.929Z" fill="black"/>
<path d="M26.0576 68.5835V67.0283H27.131V68.5835H26.0576Z" fill="black"/>
<path d="M26.8033 68.5835V67.0283H27.8767V68.5835H26.8033Z" fill="black"/>
<path d="M27.8565 68.5835V67.0283H29.2366V68.5835H27.8565Z" fill="black"/>
<path d="M29.062 68.5835V67.0283H30.5958V68.5835H29.062Z" fill="black"/>
<path d="M30.4212 68.5835V67.0283H31.0347V68.5835H30.4212Z" fill="black"/>
<path d="M30.8595 68.5835V67.0283H31.9328V68.5835H30.8595Z" fill="black"/>
<path d="M31.7589 68.5835V67.0283H32.9853V68.5835H31.7589Z" fill="black"/>
<path d="M32.8107 68.5835V67.0283H33.4242V68.5835H32.8107Z" fill="black"/>
<path d="M7 71.5835V70.0283H8.22703V71.5835H7Z" fill="black"/>
<path d="M7.89943 71.5835V70.0283H8.97274V71.5835H7.89943Z" fill="black"/>
<path d="M8.95257 71.5835V70.0283H10.3326V71.5835H8.95257Z" fill="black"/>
<path d="M10.1581 71.5835V70.0283H11.6919V71.5835H10.1581Z" fill="black"/>
<path d="M11.4404 71.5835V70.0283H12.054V71.5835H11.4404Z" fill="black"/>
<path d="M11.8787 71.5835V70.0283H13.4125V71.5835H11.8787Z" fill="black"/>
<path d="M13.1611 71.5835V70.0283H13.7746V71.5835H13.1611Z" fill="black"/>
<path d="M13.5994 71.5835V70.0283H15.7467V71.5835H13.5994Z" fill="black"/>
<path d="M15.4184 71.5835V70.0283H16.9522V71.5835H15.4184Z" fill="black"/>
<path d="M16.7776 71.5835V70.0283H18.1577V71.5835H16.7776Z" fill="black"/>
<path d="M17.9063 71.5835V70.0283H18.5198V71.5835H17.9063Z" fill="black"/>
<path d="M18.3446 71.5835V70.0283H19.5716V71.5835H18.3446Z" fill="black"/>
<path d="M19.3977 71.5835V70.0283H20.6241V71.5835H19.3977Z" fill="black"/>
<path d="M20.4495 71.5835V70.0283H21.8296V71.5835H20.4495Z" fill="black"/>
<path d="M21.5215 71.5835V70.0283H22.135V71.5835H21.5215Z" fill="black"/>
<path d="M7 74.5835V73.0283H8.38007V74.5835H7Z" fill="black"/>
<path d="M8.07202 74.5835V73.0283H9.60581V74.5835H8.07202Z" fill="black"/>
<path d="M9.27753 74.5835V73.0283H10.8113V74.5835H9.27753Z" fill="black"/>
<path d="M10.5599 74.5835V73.0283H11.94V74.5835H10.5599Z" fill="black"/>
<path d="M11.8814 74.5835V73.0283H13.1077V74.5835H11.8814Z" fill="black"/>
<path d="M13.0869 74.5835V73.0283H14.4669V74.5835H13.0869Z" fill="black"/>
<path d="M14.2924 74.5835V73.0283H15.8262V74.5835H14.2924Z" fill="black"/>
<path d="M15.7285 74.5835V73.0283H17.1085V74.5835H15.7285Z" fill="black"/>
<path d="M16.7803 74.5835V73.0283H17.8536V74.5835H16.7803Z" fill="black"/>
<path d="M17.6797 74.5835V73.0283H19.2135V74.5835H17.6797Z" fill="black"/>
<path d="M19.0389 74.5835V73.0283H20.419V74.5835H19.0389Z" fill="black"/>
<path d="M20.2444 74.5835V73.0283H21.7782V74.5835H20.2444Z" fill="black"/>
<path d="M21.4499 74.5835V73.0283H22.83V74.5835H21.4499Z" fill="black"/>
<path d="M22.6177 74.5835V73.0283H23.9978V74.5835H22.6177Z" fill="black"/>
<path d="M23.7854 74.5835V73.0283H24.399V74.5835H23.7854Z" fill="black"/>
<path d="M24.2237 74.5835V73.0283H25.297V74.5835H24.2237Z" fill="black"/>
<path d="M25.1232 74.5835V73.0283H26.3495V74.5835H25.1232Z" fill="black"/>
<path d="M26.1749 74.5835V73.0283H26.7885V74.5835H26.1749Z" fill="black"/>
<path d="M7.15372 77.5835V76.0283H8.53379V77.5835H7.15372Z" fill="black"/>
<path d="M8.28237 77.5835V76.0283H9.66244V77.5835H8.28237Z" fill="black"/>
<path d="M9.35439 77.5835V76.0283H10.8882V77.5835H9.35439Z" fill="black"/>
<path d="M10.5599 77.5835V76.0283H11.94V77.5835H10.5599Z" fill="black"/>
<path d="M11.7654 77.5835V76.0283H13.2992V77.5835H11.7654Z" fill="black"/>
<path d="M13.0478 77.5835V76.0283H14.1211V77.5835H13.0478Z" fill="black"/>
<path d="M13.9472 77.5835V76.0283H15.0205V77.5835H13.9472Z" fill="black"/>
<path d="M14.8466 77.5835V76.0283H15.4601V77.5835H14.8466Z" fill="black"/>
<path d="M15.2849 77.5835V76.0283H16.8187V77.5835H15.2849Z" fill="black"/>
<path d="M16.6441 77.5835V76.0283H18.1779V77.5835H16.6441Z" fill="black"/>
<path d="M17.8496 77.5835V76.0283H19.2297V77.5835H17.8496Z" fill="black"/>
<path d="M18.9217 77.5835V76.0283H20.4554V77.5835H18.9217Z" fill="black"/>
<path d="M20.1272 77.5835V76.0283H20.8937V77.5835H20.1272Z" fill="black"/>
<path d="M20.6423 77.5835V76.0283H21.4089V77.5835H20.6423Z" fill="black"/>
</g>
<rect width="12" height="14" transform="translate(26 68.584)" fill="white"/>
<path d="M32.4307 73.6025C32.141 73.6025 31.8838 73.6595 31.6592 73.7734C31.4378 73.8841 31.2507 74.0452 31.0977 74.2568C30.9479 74.4684 30.834 74.724 30.7559 75.0234C30.6777 75.3229 30.6387 75.6598 30.6387 76.0342C30.6387 76.5387 30.7005 76.9701 30.8242 77.3281C30.9512 77.6829 31.1465 77.9548 31.4102 78.1436C31.6738 78.3291 32.014 78.4219 32.4307 78.4219C32.7204 78.4219 33.0101 78.3893 33.2998 78.3242C33.5928 78.2591 33.9102 78.1663 34.252 78.0459V79.3154C33.9362 79.4456 33.6253 79.5384 33.3193 79.5938C33.0133 79.6523 32.6699 79.6816 32.2891 79.6816C31.5534 79.6816 30.9479 79.5303 30.4727 79.2275C30.0007 78.9215 29.6507 78.4951 29.4229 77.9482C29.195 77.3981 29.0811 76.7568 29.0811 76.0244C29.0811 75.484 29.1543 74.9893 29.3008 74.54C29.4473 74.0908 29.6621 73.7018 29.9453 73.373C30.2285 73.0443 30.5785 72.7904 30.9951 72.6113C31.4118 72.4323 31.8903 72.3428 32.4307 72.3428C32.7855 72.3428 33.1403 72.3883 33.4951 72.4795C33.8532 72.5674 34.195 72.6895 34.5205 72.8457L34.0322 74.0762C33.7653 73.9492 33.4967 73.8385 33.2266 73.7441C32.9564 73.6497 32.6911 73.6025 32.4307 73.6025Z" fill="#585858"/>
<rect x="1" y="1.02832" width="39" height="84.5552" stroke="#364B60"/>
<path d="M12.3333 88.584H3V94.9321H12.3333V88.584Z" fill="#7FA4CA"/>
<path d="M22.6663 88.584H13.333V94.9321H22.6663V88.584Z" fill="#E1C278"/>
</svg>
