<svg width="39" height="55" viewBox="0 0 39 55" fill="none" xmlns="http://www.w3.org/2000/svg">
<rect width="39" height="55" fill=""/>
<g clip-path="url(#clip0_39_124700)">
<g filter="url(#filter0_d_39_124700)">
<rect width="35" height="38.5552" transform="translate(2 2.1582)" fill="white"/>
<g opacity="0.3">
<rect width="35" height="36.5552" transform="translate(2 2.1582)" fill="white"/>
<path d="M6 7.71338V6.1582H6.76763V7.71338H6Z" fill="black"/>
<path d="M6.59282 7.71338V6.1582H7.82157V7.71338H6.59282Z" fill="black"/>
<path d="M7.64609 7.71338V6.1582H8.26046V7.71338H7.64609Z" fill="black"/>
<path d="M8.08498 7.71338V6.1582H9.1598V7.71338H8.08498Z" fill="black"/>
<path d="M8.83174 7.71338V6.1582H10.3677V7.71338H8.83174Z" fill="black"/>
<path d="M10.1929 7.71338V6.1582H11.2677V7.71338H10.1929Z" fill="black"/>
<path d="M11.2475 7.71338V6.1582H12.6295V7.71338H11.2475Z" fill="black"/>
<path d="M12.4547 7.71338V6.1582H13.9906V7.71338H12.4547Z" fill="black"/>
<path d="M13.778 7.71338V6.1582H14.3924V7.71338H13.778Z" fill="black"/>
<path d="M14.2169 7.71338V6.1582H15.2917V7.71338H14.2169Z" fill="black"/>
<path d="M14.9637 7.71338V6.1582H16.4996V7.71338H14.9637Z" fill="black"/>
<path d="M16.3248 7.71338V6.1582H17.8607V7.71338H16.3248Z" fill="black"/>
<path d="M17.6859 7.71338V6.1582H19.0679V7.71338H17.6859Z" fill="black"/>
<path d="M18.8161 7.71338V6.1582H19.4305V7.71338H18.8161Z" fill="black"/>
<path d="M19.255 7.71338V6.1582H20.791V7.71338H19.255Z" fill="black"/>
<path d="M20.7701 7.71338V6.1582H22.1521V7.71338H20.7701Z" fill="black"/>
<path d="M21.9773 7.71338V6.1582H23.5132V7.71338H21.9773Z" fill="black"/>
<path d="M23.2615 7.71338V6.1582H24.7974V7.71338H23.2615Z" fill="black"/>
<path d="M24.4687 7.71338V6.1582H25.8507V7.71338H24.4687Z" fill="black"/>
<path d="M25.5422 7.71338V6.1582H26.9242V7.71338H25.5422Z" fill="black"/>
<path d="M26.7116 7.71338V6.1582H27.7864V7.71338H26.7116Z" fill="black"/>
<path d="M27.4583 7.71338V6.1582H28.9943V7.71338H27.4583Z" fill="black"/>
<path d="M28.8964 7.71338V6.1582H30.2784V7.71338H28.8964Z" fill="black"/>
<path d="M30.1036 7.71338V6.1582H31.6395V7.71338H30.1036Z" fill="black"/>
<path d="M31.3878 7.71338V6.1582H32.0021V7.71338H31.3878Z" fill="black"/>
<path d="M6 10.7134V9.1582H7.07482V10.7134H6Z" fill="black"/>
<path d="M6.74675 10.7134V9.1582H8.28269V10.7134H6.74675Z" fill="black"/>
<path d="M8.10788 10.7134V9.1582H9.64382V10.7134H8.10788Z" fill="black"/>
<path d="M9.39205 10.7134V9.1582H10.4669V10.7134H9.39205Z" fill="black"/>
<path d="M10.1388 10.7134V9.1582H10.7532V10.7134H10.1388Z" fill="black"/>
<path d="M10.5777 10.7134V9.1582H12.728V10.7134H10.5777Z" fill="black"/>
<path d="M12.4762 10.7134V9.1582H14.0122V10.7134H12.4762Z" fill="black"/>
<path d="M13.6834 10.7134V9.1582H14.2978V10.7134H13.6834Z" fill="black"/>
<path d="M14.1223 10.7134V9.1582H15.6583V10.7134H14.1223Z" fill="black"/>
<path d="M15.4065 10.7134V9.1582H16.7885V10.7134H15.4065Z" fill="black"/>
<path d="M16.48 10.7134V9.1582H18.0159V10.7134H16.48Z" fill="black"/>
<path d="M17.6872 10.7134V9.1582H18.3016V10.7134H17.6872Z" fill="black"/>
<path d="M18.1261 10.7134V9.1582H20.2764V10.7134H18.1261Z" fill="black"/>
<path d="M20.0246 10.7134V9.1582H21.0995V10.7134H20.0246Z" fill="black"/>
<path d="M20.9253 10.7134V9.1582H22.0001V10.7134H20.9253Z" fill="black"/>
<path d="M21.826 10.7134V9.1582H22.9008V10.7134H21.826Z" fill="black"/>
<path d="M22.7267 10.7134V9.1582H23.8015V10.7134H22.7267Z" fill="black"/>
<path d="M23.7813 10.7134V9.1582H25.1633V10.7134H23.7813Z" fill="black"/>
<path d="M24.9885 10.7134V9.1582H26.5244V10.7134H24.9885Z" fill="black"/>
<path d="M26.3496 10.7134V9.1582H26.964V10.7134H26.3496Z" fill="black"/>
<path d="M26.7885 10.7134V9.1582H27.8633V10.7134H26.7885Z" fill="black"/>
<path d="M27.6892 10.7134V9.1582H28.9173V10.7134H27.6892Z" fill="black"/>
<path d="M28.7425 10.7134V9.1582H29.3569V10.7134H28.7425Z" fill="black"/>
<path d="M6 13.7134V12.1582H7.53594V13.7134H6Z" fill="black"/>
<path d="M7.36113 13.7134V12.1582H8.74313V13.7134H7.36113Z" fill="black"/>
<path d="M8.56833 13.7134V12.1582H10.1043V13.7134H8.56833Z" fill="black"/>
<path d="M9.92946 13.7134V12.1582H11.4654V13.7134H9.92946Z" fill="black"/>
<path d="M11.2136 13.7134V12.1582H12.7496V13.7134H11.2136Z" fill="black"/>
<path d="M12.5747 13.7134V12.1582H14.1107V13.7134H12.5747Z" fill="black"/>
<path d="M13.7819 13.7134V12.1582H14.3963V13.7134H13.7819Z" fill="black"/>
<path d="M14.2208 13.7134V12.1582H15.2957V13.7134H14.2208Z" fill="black"/>
<path d="M14.9676 13.7134V12.1582H16.5035V13.7134H14.9676Z" fill="black"/>
<path d="M16.3287 13.7134V12.1582H17.8647V13.7134H16.3287Z" fill="black"/>
<path d="M17.5359 13.7134V12.1582H19.533V13.7134H17.5359Z" fill="black"/>
<path d="M19.4345 13.7134V12.1582H20.0488V13.7134H19.4345Z" fill="black"/>
<path d="M19.8734 13.7134V12.1582H20.9482V13.7134H19.8734Z" fill="black"/>
<path d="M20.928 13.7134V12.1582H22.31V13.7134H20.928Z" fill="black"/>
<path d="M22.1352 13.7134V12.1582H22.7495V13.7134H22.1352Z" fill="black"/>
<path d="M22.5741 13.7134V12.1582H24.11V13.7134H22.5741Z" fill="black"/>
<path d="M23.8582 13.7134V12.1582H24.4726V13.7134H23.8582Z" fill="black"/>
<path d="M24.2971 13.7134V12.1582H25.6791V13.7134H24.2971Z" fill="black"/>
<path d="M25.4665 13.7134V12.1582H27.0024V13.7134H25.4665Z" fill="black"/>
<path d="M26.6737 13.7134V12.1582H28.0557V13.7134H26.6737Z" fill="black"/>
<path d="M27.7472 13.7134V12.1582H28.822V13.7134H27.7472Z" fill="black"/>
<path d="M28.8018 13.7134V12.1582H30.0299V13.7134H28.8018Z" fill="black"/>
<path d="M29.8551 13.7134V12.1582H31.391V13.7134H29.8551Z" fill="black"/>
<path d="M31.2162 13.7134V12.1582H32.5982V13.7134H31.2162Z" fill="black"/>
<path d="M32.3856 13.7134V12.1582H33V13.7134H32.3856Z" fill="black"/>
<path d="M6 16.7134V15.1582H7.53594V16.7134H6Z" fill="black"/>
<path d="M7.43809 16.7134V15.1582H8.8201V16.7134H7.43809Z" fill="black"/>
<path d="M8.64529 16.7134V15.1582H10.1812V16.7134H8.64529Z" fill="black"/>
<path d="M9.92946 16.7134V15.1582H10.5438V16.7134H9.92946Z" fill="black"/>
<path d="M10.3683 16.7134V15.1582H11.7504V16.7134H10.3683Z" fill="black"/>
<path d="M11.5377 16.7134V15.1582H12.6126V16.7134H11.5377Z" fill="black"/>
<path d="M12.5924 16.7134V15.1582H13.9744V16.7134H12.5924Z" fill="black"/>
<path d="M13.7996 16.7134V15.1582H15.1816V16.7134H13.7996Z" fill="black"/>
<path d="M14.9298 16.7134V15.1582H16.4657V16.7134H14.9298Z" fill="black"/>
<path d="M16.137 16.7134V15.1582H17.519V16.7134H16.137Z" fill="black"/>
<path d="M17.2105 16.7134V15.1582H18.7464V16.7134H17.2105Z" fill="black"/>
<path d="M18.4177 16.7134V15.1582H19.0321V16.7134H18.4177Z" fill="black"/>
<path d="M18.8566 16.7134V15.1582H20.3925V16.7134H18.8566Z" fill="black"/>
<path d="M20.1408 16.7134V15.1582H21.2156V16.7134H20.1408Z" fill="black"/>
<path d="M21.0414 16.7134V15.1582H22.4234V16.7134H21.0414Z" fill="black"/>
<path d="M22.2108 16.7134V15.1582H23.5928V16.7134H22.2108Z" fill="black"/>
<path d="M23.3411 16.7134V15.1582H24.877V16.7134H23.3411Z" fill="black"/>
<path d="M24.7022 16.7134V15.1582H26.0842V16.7134H24.7022Z" fill="black"/>
<path d="M25.8716 16.7134V15.1582H27.2536V16.7134H25.8716Z" fill="black"/>
<path d="M27.041 16.7134V15.1582H28.1158V16.7134H27.041Z" fill="black"/>
<path d="M28.0956 16.7134V15.1582H29.3237V16.7134H28.0956Z" fill="black"/>
<path d="M29.3028 16.7134V15.1582H30.6848V16.7134H29.3028Z" fill="black"/>
<path d="M30.51 16.7134V15.1582H31.1244V16.7134H30.51Z" fill="black"/>
<path d="M6 19.7134V18.1582H7.53594V19.7134H6Z" fill="black"/>
<path d="M7.43809 19.7134V18.1582H8.8201V19.7134H7.43809Z" fill="black"/>
<path d="M8.64529 19.7134V18.1582H9.87337V19.7134H8.64529Z" fill="black"/>
<path d="M9.69856 19.7134V18.1582H11.2345V19.7134H9.69856Z" fill="black"/>
<path d="M11.0597 19.7134V18.1582H12.1345V19.7134H11.0597Z" fill="black"/>
<path d="M11.8064 19.7134V18.1582H12.4208V19.7134H11.8064Z" fill="black"/>
<path d="M12.2453 19.7134V18.1582H13.3202V19.7134H12.2453Z" fill="black"/>
<path d="M12.9921 19.7134V18.1582H14.528V19.7134H12.9921Z" fill="black"/>
<path d="M14.3532 19.7134V18.1582H15.8892V19.7134H14.3532Z" fill="black"/>
<path d="M15.5604 19.7134V18.1582H16.1748V19.7134H15.5604Z" fill="black"/>
<path d="M16.1532 19.7134V18.1582H17.5352V19.7134H16.1532Z" fill="black"/>
<path d="M17.3604 19.7134V18.1582H18.8964V19.7134H17.3604Z" fill="black"/>
<path d="M18.7216 19.7134V18.1582H20.1036V19.7134H18.7216Z" fill="black"/>
<path d="M19.8518 19.7134V18.1582H20.9266V19.7134H19.8518Z" fill="black"/>
<path d="M20.7525 19.7134V18.1582H22.2884V19.7134H20.7525Z" fill="black"/>
<path d="M21.9597 19.7134V18.1582H23.4956V19.7134H21.9597Z" fill="black"/>
<path d="M23.2438 19.7134V18.1582H24.6259V19.7134H23.2438Z" fill="black"/>
<path d="M24.3174 19.7134V18.1582H24.9317V19.7134H24.3174Z" fill="black"/>
<path d="M24.7563 19.7134V18.1582H25.8311V19.7134H24.7563Z" fill="black"/>
<path d="M25.6569 19.7134V18.1582H27.039V19.7134H25.6569Z" fill="black"/>
<path d="M26.8263 19.7134V18.1582H28.2083V19.7134H26.8263Z" fill="black"/>
<path d="M27.9957 19.7134V18.1582H29.5317V19.7134H27.9957Z" fill="black"/>
<path d="M29.3569 19.7134V18.1582H30.8928V19.7134H29.3569Z" fill="black"/>
<path d="M30.5641 19.7134V18.1582H31.3317V19.7134H30.5641Z" fill="black"/>
<path d="M31.0799 19.7134V18.1582H31.6943V19.7134H31.0799Z" fill="black"/>
<path d="M6.15393 22.7134V21.1582H8.30424V22.7134H6.15393Z" fill="black"/>
<path d="M8.09028 22.7134V21.1582H9.62621V22.7134H8.09028Z" fill="black"/>
<path d="M9.29747 22.7134V21.1582H9.91185V22.7134H9.29747Z" fill="black"/>
<path d="M9.73637 22.7134V21.1582H11.2723V22.7134H9.73637Z" fill="black"/>
<path d="M11.0975 22.7134V21.1582H12.6334V22.7134H11.0975Z" fill="black"/>
<path d="M12.3047 22.7134V21.1582H13.6867V22.7134H12.3047Z" fill="black"/>
<path d="M13.5889 22.7134V21.1582H15.1248V22.7134H13.5889Z" fill="black"/>
<path d="M14.7961 22.7134V21.1582H15.4104V22.7134H14.7961Z" fill="black"/>
<path d="M15.2349 22.7134V21.1582H17.232V22.7134H15.2349Z" fill="black"/>
<path d="M17.1335 22.7134V21.1582H18.6694V22.7134H17.1335Z" fill="black"/>
<path d="M18.4176 22.7134V21.1582H19.9536V22.7134H18.4176Z" fill="black"/>
<path d="M19.7018 22.7134V21.1582H21.2377V22.7134H19.7018Z" fill="black"/>
<path d="M20.909 22.7134V21.1582H21.5234V22.7134H20.909Z" fill="black"/>
<path d="M21.3479 22.7134V21.1582H22.4227V22.7134H21.3479Z" fill="black"/>
<path d="M22.0947 22.7134V21.1582H23.6306V22.7134H22.0947Z" fill="black"/>
<path d="M23.4558 22.7134V21.1582H24.9917V22.7134H23.4558Z" fill="black"/>
<path d="M24.7399 22.7134V21.1582H25.8148V22.7134H24.7399Z" fill="black"/>
<path d="M25.4867 22.7134V21.1582H26.1011V22.7134H25.4867Z" fill="black"/>
<path d="M26.0795 22.7134V21.1582H27.4615V22.7134H26.0795Z" fill="black"/>
<path d="M27.3637 22.7134V21.1582H28.5918V22.7134H27.3637Z" fill="black"/>
<path d="M28.417 22.7134V21.1582H29.4918V22.7134H28.417Z" fill="black"/>
<path d="M29.4716 22.7134V21.1582H30.8536V22.7134H29.4716Z" fill="black"/>
<path d="M30.6788 22.7134V21.1582H31.7536V22.7134H30.6788Z" fill="black"/>
<path d="M31.4255 22.7134V21.1582H32.0399V22.7134H31.4255Z" fill="black"/>
<path d="M6 25.7134V24.1582H7.382V25.7134H6Z" fill="black"/>
<path d="M7.28416 25.7134V24.1582H8.8201V25.7134H7.28416Z" fill="black"/>
<path d="M8.49136 25.7134V24.1582H9.87337V25.7134H8.49136Z" fill="black"/>
<path d="M9.71881 25.7134V24.1582H11.1008V25.7134H9.71881Z" fill="black"/>
<path d="M10.849 25.7134V24.1582H11.4634V25.7134H10.849Z" fill="black"/>
<path d="M11.2879 25.7134V24.1582H12.6699V25.7134H11.2879Z" fill="black"/>
<path d="M12.4182 25.7134V24.1582H13.493V25.7134H12.4182Z" fill="black"/>
<path d="M13.3189 25.7134V24.1582H14.8548V25.7134H13.3189Z" fill="black"/>
<path d="M14.5261 25.7134V24.1582H16.062V25.7134H14.5261Z" fill="black"/>
<path d="M15.8102 25.7134V24.1582H17.1922V25.7134H15.8102Z" fill="black"/>
<path d="M16.8837 25.7134V24.1582H17.4981V25.7134H16.8837Z" fill="black"/>
<path d="M17.3226 25.7134V24.1582H18.3974V25.7134H17.3226Z" fill="black"/>
<path d="M18.2233 25.7134V24.1582H19.4514V25.7134H18.2233Z" fill="black"/>
<path d="M19.2766 25.7134V24.1582H19.891V25.7134H19.2766Z" fill="black"/>
<path d="M19.7155 25.7134V24.1582H20.7903V25.7134H19.7155Z" fill="black"/>
<path d="M20.4622 25.7134V24.1582H21.9982V25.7134H20.4622Z" fill="black"/>
<path d="M21.8234 25.7134V24.1582H23.3593V25.7134H21.8234Z" fill="black"/>
<path d="M23.0306 25.7134V24.1582H25.0276V25.7134H23.0306Z" fill="black"/>
<path d="M24.9291 25.7134V24.1582H25.5435V25.7134H24.9291Z" fill="black"/>
<path d="M6.15393 28.7134V27.1582H7.53594V28.7134H6.15393Z" fill="black"/>
<path d="M7.28416 28.7134V27.1582H8.8201V28.7134H7.28416Z" fill="black"/>
<path d="M8.79922 28.7134V27.1582H10.1812V28.7134H8.79922Z" fill="black"/>
<path d="M9.85249 28.7134V27.1582H10.9273V28.7134H9.85249Z" fill="black"/>
<path d="M10.7532 28.7134V27.1582H11.828V28.7134H10.7532Z" fill="black"/>
<path d="M11.6539 28.7134V27.1582H13.0359V28.7134H11.6539Z" fill="black"/>
<path d="M12.7841 28.7134V27.1582H13.8589V28.7134H12.7841Z" fill="black"/>
<path d="M13.7617 28.7134V27.1582H15.1437V28.7134H13.7617Z" fill="black"/>
<path d="M14.892 28.7134V27.1582H15.6596V28.7134H14.892Z" fill="black"/>
<path d="M15.4078 28.7134V27.1582H16.0222V28.7134H15.4078Z" fill="black"/>
<path d="M16.0007 28.7134V27.1582H17.3827V28.7134H16.0007Z" fill="black"/>
<path d="M17.0539 28.7134V27.1582H18.5899V28.7134H17.0539Z" fill="black"/>
<path d="M18.4151 28.7134V27.1582H19.4899V28.7134H18.4151Z" fill="black"/>
<path d="M19.1618 28.7134V27.1582H19.7762V28.7134H19.1618Z" fill="black"/>
<path d="M19.6007 28.7134V27.1582H21.1366V28.7134H19.6007Z" fill="black"/>
<path d="M20.8849 28.7134V27.1582H21.9597V28.7134H20.8849Z" fill="black"/>
<path d="M21.7856 28.7134V27.1582H23.1676V28.7134H21.7856Z" fill="black"/>
<path d="M23.1089 28.7134V27.1582H24.3369V28.7134H23.1089Z" fill="black"/>
<path d="M24.1621 28.7134V27.1582H24.7765V28.7134H24.1621Z" fill="black"/>
<path d="M6.15393 31.7134V30.1582H7.53594V31.7134H6.15393Z" fill="black"/>
<path d="M7.28416 31.7134V30.1582H8.66617V31.7134H7.28416Z" fill="black"/>
<path d="M8.35768 31.7134V30.1582H9.4325V31.7134H8.35768Z" fill="black"/>
<path d="M9.1814 31.7134V30.1582H10.5634V31.7134H9.1814Z" fill="black"/>
<path d="M10.3886 31.7134V30.1582H11.9245V31.7134H10.3886Z" fill="black"/>
<path d="M11.6728 31.7134V30.1582H12.7476V31.7134H11.6728Z" fill="black"/>
<path d="M12.4195 31.7134V30.1582H13.9555V31.7134H12.4195Z" fill="black"/>
<path d="M13.6267 31.7134V30.1582H14.7015V31.7134H13.6267Z" fill="black"/>
<path d="M14.6044 31.7134V30.1582H15.9864V31.7134H14.6044Z" fill="black"/>
<path d="M15.7346 31.7134V30.1582H16.349V31.7134H15.7346Z" fill="black"/>
<path d="M16.1735 31.7134V30.1582H17.2483V31.7134H16.1735Z" fill="black"/>
<path d="M16.9203 31.7134V30.1582H18.4562V31.7134H16.9203Z" fill="black"/>
<path d="M18.2814 31.7134V30.1582H19.6634V31.7134H18.2814Z" fill="black"/>
<path d="M19.5088 31.7134V30.1582H20.7369V31.7134H19.5088Z" fill="black"/>
<path d="M20.5621 31.7134V30.1582H22.098V31.7134H20.5621Z" fill="black"/>
<path d="M21.9232 31.7134V30.1582H23.4592V31.7134H21.9232Z" fill="black"/>
<path d="M23.2844 31.7134V30.1582H24.8203V31.7134H23.2844Z" fill="black"/>
<path d="M24.6455 31.7134V30.1582H25.2599V31.7134H24.6455Z" fill="black"/>
<path d="M25.0844 31.7134V30.1582H26.1592V31.7134H25.0844Z" fill="black"/>
<path d="M25.8311 31.7134V30.1582H27.3671V31.7134H25.8311Z" fill="black"/>
<path d="M27.1923 31.7134V30.1582H28.7282V31.7134H27.1923Z" fill="black"/>
<path d="M28.3995 31.7134V30.1582H29.0138V31.7134H28.3995Z" fill="black"/>
<path d="M6 34.7134V33.1582H7.68987V34.7134H6Z" fill="black"/>
<path d="M7.38003 34.7134V33.1582H8.91597V34.7134H7.38003Z" fill="black"/>
<path d="M8.58723 34.7134V33.1582H10.7375V34.7134H8.58723Z" fill="black"/>
<path d="M10.4858 34.7134V33.1582H11.1001V34.7134H10.4858Z" fill="black"/>
<path d="M11.0786 34.7134V33.1582H12.6145V34.7134H11.0786Z" fill="black"/>
<path d="M12.4397 34.7134V33.1582H13.6678V34.7134H12.4397Z" fill="black"/>
<path d="M13.493 34.7134V33.1582H14.875V34.7134H13.493Z" fill="black"/>
<path d="M14.5665 34.7134V33.1582H16.1024V34.7134H14.5665Z" fill="black"/>
<path d="M15.8898 34.7134V33.1582H16.5042V34.7134H15.8898Z" fill="black"/>
<path d="M16.3287 34.7134V33.1582H17.7107V34.7134H16.3287Z" fill="black"/>
<path d="M17.459 34.7134V33.1582H18.9949V34.7134H17.459Z" fill="black"/>
<path d="M18.8201 34.7134V33.1582H20.356V34.7134H18.8201Z" fill="black"/>
<path d="M20.2582 34.7134V33.1582H21.6402V34.7134H20.2582Z" fill="black"/>
<path d="M21.6193 34.7134V33.1582H23.0013V34.7134H21.6193Z" fill="black"/>
<path d="M22.8265 34.7134V33.1582H24.3624V34.7134H22.8265Z" fill="black"/>
<path d="M24.0337 34.7134V33.1582H25.1085V34.7134H24.0337Z" fill="black"/>
<path d="M24.9344 34.7134V33.1582H25.702V34.7134H24.9344Z" fill="black"/>
<path d="M25.4502 34.7134V33.1582H26.2179V34.7134H25.4502Z" fill="black"/>
<path d="M6.30719 7.60879H31.695V7.67852H6.30719V7.60879ZM6.30719 10.6088H29.0497V10.6785H6.30719V10.6088ZM6.30719 13.6088H32.6921V13.6785H6.30719V13.6088ZM6.30719 16.6088H30.8172V16.6785H6.30719V16.6088ZM6.30719 19.6088H31.3871V19.6785H6.30719V19.6088ZM6.30719 22.6088H31.732V22.6785H6.30719V22.6088ZM6.30719 25.6088H25.2363V25.6785H6.30719V25.6088ZM6.30719 28.6088H24.4693V28.6785H6.30719V28.6088ZM6.30719 31.6088H28.7066V31.6785H6.30719V31.6088ZM6.30719 34.6088H26.4056V34.6785H6.30719V34.6088Z" fill="black"/>
</g>
</g>
<path d="M11.3333 45.7129H2V52.061H11.3333V45.7129Z" fill="#7FA4CA"/>
</g>
<defs>
<filter id="filter0_d_39_124700" x="0" y="1.1582" width="39" height="42.5547" filterUnits="userSpaceOnUse" color-interpolation-filters="sRGB">
<feFlood flood-opacity="0" result="BackgroundImageFix"/>
<feColorMatrix in="SourceAlpha" type="matrix" values="0 0 0 0 0 0 0 0 0 0 0 0 0 0 0 0 0 0 127 0" result="hardAlpha"/>
<feOffset dy="1"/>
<feGaussianBlur stdDeviation="1"/>
<feComposite in2="hardAlpha" operator="out"/>
<feColorMatrix type="matrix" values="0 0 0 0 0 0 0 0 0 0 0 0 0 0 0 0 0 0 0.1 0"/>
<feBlend mode="normal" in2="BackgroundImageFix" result="effect1_dropShadow_39_124700"/>
<feBlend mode="normal" in="SourceGraphic" in2="effect1_dropShadow_39_124700" result="shape"/>
</filter>
<clipPath id="clip0_39_124700">
<rect width="39" height="53.9033" fill="white" transform="translate(0 0.158203)"/>
</clipPath>
</defs>
</svg>
