<svg width="39" height="55" viewBox="0 0 39 55" fill="none" xmlns="http://www.w3.org/2000/svg">
<rect width="39" height="55" fill=""/>
<g clip-path="url(#clip0_39_124700)">
<g filter="url(#filter0_d_39_124700)">
<rect width="35" height="38.5552" transform="translate(2 2.31836)" fill="white"/>
<g opacity="0.3">
<rect width="35" height="36.5552" transform="translate(2 2.31836)" fill="white"/>
<path d="M6 7.87354V6.31836H6.77172V7.87354H6Z" fill="black"/>
<path d="M6.59598 7.87354V6.31836H8.14009V7.87354H6.59598Z" fill="black"/>
<path d="M8.1191 7.87354V6.31836H9.35372V7.87354H8.1191Z" fill="black"/>
<path d="M9.17798 7.87354V6.31836H9.79562V7.87354H9.17798Z" fill="black"/>
<path d="M9.61921 7.87354V6.31836H10.6997V7.87354H9.61921Z" fill="black"/>
<path d="M10.3699 7.87354V6.31836H11.914V7.87354H10.3699Z" fill="black"/>
<path d="M11.7383 7.87354V6.31836H13.2824V7.87354H11.7383Z" fill="black"/>
<path d="M12.9519 7.87354V6.31836H13.5696V7.87354H12.9519Z" fill="black"/>
<path d="M13.3932 7.87354V6.31836H14.4737V7.87354H13.3932Z" fill="black"/>
<path d="M14.2986 7.87354V6.31836H15.8428V7.87354H14.2986Z" fill="black"/>
<path d="M15.5123 7.87354V6.31836H17.0564V7.87354H15.5123Z" fill="black"/>
<path d="M16.8033 7.87354V6.31836H18.3474V7.87354H16.8033Z" fill="black"/>
<path d="M18.0943 7.87354V6.31836H19.6384V7.87354H18.0943Z" fill="black"/>
<path d="M19.3079 7.87354V6.31836H20.6973V7.87354H19.3079Z" fill="black"/>
<path d="M20.3871 7.87354V6.31836H21.7765V7.87354H20.3871Z" fill="black"/>
<path d="M21.5627 7.87354V6.31836H23.1069V7.87354H21.5627Z" fill="black"/>
<path d="M22.9311 7.87354V6.31836H24.0117V7.87354H22.9311Z" fill="black"/>
<path d="M23.9913 7.87354V6.31836H25.3807V7.87354H23.9913Z" fill="black"/>
<path d="M25.1276 7.87354V6.31836H25.7452V7.87354H25.1276Z" fill="black"/>
<path d="M25.7236 7.87354V6.31836H26.9582V7.87354H25.7236Z" fill="black"/>
<path d="M26.7824 7.87354V6.31836H28.0177V7.87354H26.7824Z" fill="black"/>
<path d="M27.6879 7.87354V6.31836H28.3056V7.87354H27.6879Z" fill="black"/>
<path d="M6 10.8735V9.31836H7.69886V10.8735H6Z" fill="black"/>
<path d="M7.54213 10.8735V9.31836H8.77674V10.8735H7.54213Z" fill="black"/>
<path d="M8.601 10.8735V9.31836H9.99036V10.8735H8.601Z" fill="black"/>
<path d="M9.68024 10.8735V9.31836H10.7608V10.8735H9.68024Z" fill="black"/>
<path d="M10.431 10.8735V9.31836H11.9751V10.8735H10.431Z" fill="black"/>
<path d="M11.7993 10.8735V9.31836H12.417V10.8735H11.7993Z" fill="black"/>
<path d="M12.2406 10.8735V9.31836H13.9394V10.8735H12.2406Z" fill="black"/>
<path d="M13.8411 10.8735V9.31836H15.0757V10.8735H13.8411Z" fill="black"/>
<path d="M14.8999 10.8735V9.31836H16.2893V10.8735H14.8999Z" fill="black"/>
<path d="M15.9792 10.8735V9.31836H17.5233V10.8735H15.9792Z" fill="black"/>
<path d="M17.1928 10.8735V9.31836H18.7369V10.8735H17.1928Z" fill="black"/>
<path d="M18.4838 10.8735V9.31836H19.2555V10.8735H18.4838Z" fill="black"/>
<path d="M19.0024 10.8735V9.31836H19.6201V10.8735H19.0024Z" fill="black"/>
<path d="M19.4436 10.8735V9.31836H20.6789V10.8735H19.4436Z" fill="black"/>
<path d="M20.5025 10.8735V9.31836H21.1202V10.8735H20.5025Z" fill="black"/>
<path d="M20.9437 10.8735V9.31836H22.4879V10.8735H20.9437Z" fill="black"/>
<path d="M22.3121 10.8735V9.31836H23.8562V10.8735H22.3121Z" fill="black"/>
<path d="M23.5257 10.8735V9.31836H24.9151V10.8735H23.5257Z" fill="black"/>
<path d="M24.8167 10.8735V9.31836H26.3609V10.8735H24.8167Z" fill="black"/>
<path d="M26.0304 10.8735V9.31836H26.648V10.8735H26.0304Z" fill="black"/>
<path d="M6.15475 13.8735V12.3184H7.38936V13.8735H6.15475Z" fill="black"/>
<path d="M7.21362 13.8735V12.3184H8.44891V13.8735H7.21362Z" fill="black"/>
<path d="M8.1191 13.8735V12.3184H9.35439V13.8735H8.1191Z" fill="black"/>
<path d="M9.02459 13.8735V12.3184H10.5687V13.8735H9.02459Z" fill="black"/>
<path d="M10.2382 13.8735V12.3184H11.6276V13.8735H10.2382Z" fill="black"/>
<path d="M11.3174 13.8735V12.3184H12.8616V13.8735H11.3174Z" fill="black"/>
<path d="M12.5311 13.8735V12.3184H14.0752V13.8735H12.5311Z" fill="black"/>
<path d="M13.8221 13.8735V12.3184H14.4397V13.8735H13.8221Z" fill="black"/>
<path d="M14.2633 13.8735V12.3184H15.8074V13.8735H14.2633Z" fill="black"/>
<path d="M15.5543 13.8735V12.3184H16.1719V13.8735H15.5543Z" fill="black"/>
<path d="M15.9955 13.8735V12.3184H17.3849V13.8735H15.9955Z" fill="black"/>
<path d="M17.1318 13.8735V12.3184H18.6759V13.8735H17.1318Z" fill="black"/>
<path d="M18.6549 13.8735V12.3184H19.8895V13.8735H18.6549Z" fill="black"/>
<path d="M19.7138 13.8735V12.3184H20.7943V13.8735H19.7138Z" fill="black"/>
<path d="M20.6193 13.8735V12.3184H22.0086V13.8735H20.6193Z" fill="black"/>
<path d="M21.7555 13.8735V12.3184H23.2996V13.8735H21.7555Z" fill="black"/>
<path d="M22.9691 13.8735V12.3184H23.7408V13.8735H22.9691Z" fill="black"/>
<path d="M23.4877 13.8735V12.3184H24.1054V13.8735H23.4877Z" fill="black"/>
<path d="M23.929 13.8735V12.3184H25.0095V13.8735H23.929Z" fill="black"/>
<path d="M24.8344 13.8735V12.3184H26.3786V13.8735H24.8344Z" fill="black"/>
<path d="M26.0481 13.8735V12.3184H27.1286V13.8735H26.0481Z" fill="black"/>
<path d="M26.7988 13.8735V12.3184H27.4164V13.8735H26.7988Z" fill="black"/>
<path d="M27.24 13.8735V12.3184H28.7841V13.8735H27.24Z" fill="black"/>
<path d="M28.7631 13.8735V12.3184H29.9978V13.8735H28.7631Z" fill="black"/>
<path d="M29.822 13.8735V12.3184H30.4397V13.8735H29.822Z" fill="black"/>
<path d="M30.418 13.8735V12.3184H31.6526V13.8735H30.418Z" fill="black"/>
<path d="M31.4769 13.8735V12.3184H32.7122V13.8735H31.4769Z" fill="black"/>
<path d="M32.3824 13.8735V12.3184H33V13.8735H32.3824Z" fill="black"/>
<path d="M6.15475 16.8735V15.3184H7.54411V16.8735H6.15475Z" fill="black"/>
<path d="M7.44575 16.8735V15.3184H8.68036V16.8735H7.44575Z" fill="black"/>
<path d="M8.50462 16.8735V15.3184H10.0487V16.8735H8.50462Z" fill="black"/>
<path d="M9.873 16.8735V15.3184H11.2624V16.8735H9.873Z" fill="black"/>
<path d="M10.9522 16.8735V15.3184H11.5699V16.8735H10.9522Z" fill="black"/>
<path d="M11.5482 16.8735V15.3184H12.9376V16.8735H11.5482Z" fill="black"/>
<path d="M12.7618 16.8735V15.3184H14.3059V16.8735H12.7618Z" fill="black"/>
<path d="M14.1302 16.8735V15.3184H15.5196V16.8735H14.1302Z" fill="black"/>
<path d="M15.2665 16.8735V15.3184H16.347V16.8735H15.2665Z" fill="black"/>
<path d="M16.1719 16.8735V15.3184H17.7161V16.8735H16.1719Z" fill="black"/>
<path d="M17.3856 16.8735V15.3184H18.9297V16.8735H17.3856Z" fill="black"/>
<path d="M18.6766 16.8735V15.3184H20.0659V16.8735H18.6766Z" fill="black"/>
<path d="M19.7558 16.8735V15.3184H20.3734V16.8735H19.7558Z" fill="black"/>
<path d="M20.197 16.8735V15.3184H22.3588V16.8735H20.197Z" fill="black"/>
<path d="M22.1057 16.8735V15.3184H23.6498V16.8735H22.1057Z" fill="black"/>
<path d="M23.3193 16.8735V15.3184H24.8634V16.8735H23.3193Z" fill="black"/>
<path d="M24.765 16.8735V15.3184H26.1544V16.8735H24.765Z" fill="black"/>
<path d="M26.056 16.8735V15.3184H27.2907V16.8735H26.056Z" fill="black"/>
<path d="M27.2697 16.8735V15.3184H28.659V16.8735H27.2697Z" fill="black"/>
<path d="M28.4833 16.8735V15.3184H29.8727V16.8735H28.4833Z" fill="black"/>
<path d="M29.6589 16.8735V15.3184H30.2766V16.8735H29.6589Z" fill="black"/>
<path d="M6 19.8735V18.3184H7.54411V19.8735H6Z" fill="black"/>
<path d="M7.44575 19.8735V18.3184H8.83511V19.8735H7.44575Z" fill="black"/>
<path d="M8.65937 19.8735V18.3184H10.2035V19.8735H8.65937Z" fill="black"/>
<path d="M9.95037 19.8735V18.3184H10.568V19.8735H9.95037Z" fill="black"/>
<path d="M10.3916 19.8735V18.3184H11.781V19.8735H10.3916Z" fill="black"/>
<path d="M11.5279 19.8735V18.3184H13.072V19.8735H11.5279Z" fill="black"/>
<path d="M13.051 19.8735V18.3184H14.2856V19.8735H13.051Z" fill="black"/>
<path d="M14.2646 19.8735V18.3184H15.4992V19.8735H14.2646Z" fill="black"/>
<path d="M15.3235 19.8735V18.3184H16.7128V19.8735H15.3235Z" fill="black"/>
<path d="M16.4991 19.8735V18.3184H18.0432V19.8735H16.4991Z" fill="black"/>
<path d="M17.7127 19.8735V18.3184H18.3304V19.8735H17.7127Z" fill="black"/>
<path d="M18.1539 19.8735V18.3184H19.2345V19.8735H18.1539Z" fill="black"/>
<path d="M18.9047 19.8735V18.3184H20.4488V19.8735H18.9047Z" fill="black"/>
<path d="M20.273 19.8735V18.3184H21.8172V19.8735H20.273Z" fill="black"/>
<path d="M21.4867 19.8735V18.3184H22.1043V19.8735H21.4867Z" fill="black"/>
<path d="M22.0826 19.8735V18.3184H23.472V19.8735H22.0826Z" fill="black"/>
<path d="M23.2189 19.8735V18.3184H24.763V19.8735H23.2189Z" fill="black"/>
<path d="M24.5099 19.8735V18.3184H25.5904V19.8735H24.5099Z" fill="black"/>
<path d="M25.2606 19.8735V18.3184H26.8047V19.8735H25.2606Z" fill="black"/>
<path d="M26.629 19.8735V18.3184H27.2466V19.8735H26.629Z" fill="black"/>
<path d="M27.225 19.8735V18.3184H28.4596V19.8735H27.225Z" fill="black"/>
<path d="M28.2839 19.8735V18.3184H29.5191V19.8735H28.2839Z" fill="black"/>
<path d="M29.1893 19.8735V18.3184H29.807V19.8735H29.1893Z" fill="black"/>
<path d="M6.15475 22.8735V21.3184H7.54411V22.8735H6.15475Z" fill="black"/>
<path d="M7.291 22.8735V21.3184H8.83511V22.8735H7.291Z" fill="black"/>
<path d="M8.50462 22.8735V21.3184H10.0487V22.8735H8.50462Z" fill="black"/>
<path d="M9.79562 22.8735V21.3184H11.185V22.8735H9.79562Z" fill="black"/>
<path d="M10.9319 22.8735V21.3184H12.476V22.8735H10.9319Z" fill="black"/>
<path d="M12.1455 22.8735V21.3184H12.7631V22.8735H12.1455Z" fill="black"/>
<path d="M12.5867 22.8735V21.3184H14.1308V22.8735H12.5867Z" fill="black"/>
<path d="M14.0325 22.8735V21.3184H15.4218V22.8735H14.0325Z" fill="black"/>
<path d="M15.2461 22.8735V21.3184H16.7902V22.8735H15.2461Z" fill="black"/>
<path d="M16.5371 22.8735V21.3184H17.1547V22.8735H16.5371Z" fill="black"/>
<path d="M17.1331 22.8735V21.3184H18.5224V22.8735H17.1331Z" fill="black"/>
<path d="M18.2693 22.8735V21.3184H19.6587V22.8735H18.2693Z" fill="black"/>
<path d="M19.5033 22.8735V21.3184H20.7379V22.8735H19.5033Z" fill="black"/>
<path d="M20.5622 22.8735V21.3184H22.1063V22.8735H20.5622Z" fill="black"/>
<path d="M21.9306 22.8735V21.3184H23.3199V22.8735H21.9306Z" fill="black"/>
<path d="M23.0098 22.8735V21.3184H24.5539V22.8735H23.0098Z" fill="black"/>
<path d="M24.2234 22.8735V21.3184H25.6128V22.8735H24.2234Z" fill="black"/>
<path d="M25.399 22.8735V21.3184H26.7884V22.8735H25.399Z" fill="black"/>
<path d="M26.5747 22.8735V21.3184H27.3464V22.8735H26.5747Z" fill="black"/>
<path d="M27.0933 22.8735V21.3184H27.7109V22.8735H27.0933Z" fill="black"/>
<path d="M27.5345 22.8735V21.3184H28.7698V22.8735H27.5345Z" fill="black"/>
<path d="M28.5934 22.8735V21.3184H29.8286V22.8735H28.5934Z" fill="black"/>
<path d="M29.4988 22.8735V21.3184H30.1165V22.8735H29.4988Z" fill="black"/>
<path d="M6.15475 25.8735V24.3184H7.54411V25.8735H6.15475Z" fill="black"/>
<path d="M7.44575 25.8735V24.3184H8.68036V25.8735H7.44575Z" fill="black"/>
<path d="M8.50462 25.8735V24.3184H10.0487V25.8735H8.50462Z" fill="black"/>
<path d="M9.873 25.8735V24.3184H10.4906V25.8735H9.873Z" fill="black"/>
<path d="M10.3142 25.8735V24.3184H11.8583V25.8735H10.3142Z" fill="black"/>
<path d="M11.76 25.8735V24.3184H12.9946V25.8735H11.76Z" fill="black"/>
<path d="M12.8189 25.8735V24.3184H13.5906V25.8735H12.8189Z" fill="black"/>
<path d="M13.3375 25.8735V24.3184H13.9551V25.8735H13.3375Z" fill="black"/>
<path d="M13.9334 25.8735V24.3184H15.3228V25.8735H13.9334Z" fill="black"/>
<path d="M15.2244 25.8735V24.3184H16.459V25.8735H15.2244Z" fill="black"/>
<path d="M16.2833 25.8735V24.3184H17.8274V25.8735H16.2833Z" fill="black"/>
<path d="M17.6517 25.8735V24.3184H18.2693V25.8735H17.6517Z" fill="black"/>
<path d="M18.0929 25.8735V24.3184H20.2547V25.8735H18.0929Z" fill="black"/>
<path d="M20.0016 25.8735V24.3184H21.0821V25.8735H20.0016Z" fill="black"/>
<path d="M20.907 25.8735V24.3184H21.9876V25.8735H20.907Z" fill="black"/>
<path d="M21.8125 25.8735V24.3184H22.8931V25.8735H21.8125Z" fill="black"/>
<path d="M22.718 25.8735V24.3184H23.3356V25.8735H22.718Z" fill="black"/>
<path d="M23.1592 25.8735V24.3184H24.3945V25.8735H23.1592Z" fill="black"/>
<path d="M24.0647 25.8735V24.3184H25.1452V25.8735H24.0647Z" fill="black"/>
<path d="M25.1249 25.8735V24.3184H26.5143V25.8735H25.1249Z" fill="black"/>
<path d="M26.3386 25.8735V24.3184H27.8827V25.8735H26.3386Z" fill="black"/>
<path d="M27.6296 25.8735V24.3184H28.2472V25.8735H27.6296Z" fill="black"/>
<path d="M28.0708 25.8735V24.3184H29.6149V25.8735H28.0708Z" fill="black"/>
<path d="M29.5165 25.8735V24.3184H30.9059V25.8735H29.5165Z" fill="black"/>
<path d="M30.7302 25.8735V24.3184H31.3478V25.8735H30.7302Z" fill="black"/>
<path d="M6 28.8735V27.3184H7.54411V28.8735H6Z" fill="black"/>
<path d="M7.21362 28.8735V27.3184H8.75774V28.8735H7.21362Z" fill="black"/>
<path d="M8.50462 28.8735V27.3184H9.58516V28.8735H8.50462Z" fill="black"/>
<path d="M9.25535 28.8735V27.3184H10.7995V28.8735H9.25535Z" fill="black"/>
<path d="M10.6237 28.8735V27.3184H12.0131V28.8735H10.6237Z" fill="black"/>
<path d="M11.8374 28.8735V27.3184H13.3815V28.8735H11.8374Z" fill="black"/>
<path d="M13.1284 28.8735V27.3184H14.6725V28.8735H13.1284Z" fill="black"/>
<path d="M14.342 28.8735V27.3184H15.8861V28.8735H14.342Z" fill="black"/>
<path d="M15.633 28.8735V27.3184H16.2506V28.8735H15.633Z" fill="black"/>
<path d="M16.0742 28.8735V27.3184H17.6183V28.8735H16.0742Z" fill="black"/>
<path d="M17.4426 28.8735V27.3184H18.9867V28.8735H17.4426Z" fill="black"/>
<path d="M18.8883 28.8735V27.3184H20.2777V28.8735H18.8883Z" fill="black"/>
<path d="M20.102 28.8735V27.3184H21.6461V28.8735H20.102Z" fill="black"/>
<path d="M21.393 28.8735V27.3184H22.0106V28.8735H21.393Z" fill="black"/>
<path d="M21.8342 28.8735V27.3184H23.0695V28.8735H21.8342Z" fill="black"/>
<path d="M22.7397 28.8735V27.3184H24.129V28.8735H22.7397Z" fill="black"/>
<path d="M23.9736 28.8735V27.3184H25.2083V28.8735H23.9736Z" fill="black"/>
<path d="M25.0325 28.8735V27.3184H27.0402V28.8735H25.0325Z" fill="black"/>
<path d="M26.9412 28.8735V27.3184H27.5588V28.8735H26.9412Z" fill="black"/>
<path d="M27.3824 28.8735V27.3184H28.4629V28.8735H27.3824Z" fill="black"/>
<path d="M28.1331 28.8735V27.3184H29.6772V28.8735H28.1331Z" fill="black"/>
<path d="M29.5015 28.8735V27.3184H31.0456V28.8735H29.5015Z" fill="black"/>
<path d="M30.7151 28.8735V27.3184H31.3328V28.8735H30.7151Z" fill="black"/>
<path d="M6 31.8735V30.3184H7.69886V31.8735H6Z" fill="black"/>
<path d="M7.56113 31.8735V30.3184H8.95049V31.8735H7.56113Z" fill="black"/>
<path d="M8.77476 31.8735V30.3184H9.8553V31.8735H8.77476Z" fill="black"/>
<path d="M9.68024 31.8735V30.3184H10.7608V31.8735H9.68024Z" fill="black"/>
<path d="M10.431 31.8735V30.3184H11.9751V31.8735H10.431Z" fill="black"/>
<path d="M11.6446 31.8735V30.3184H13.1887V31.8735H11.6446Z" fill="black"/>
<path d="M12.9356 31.8735V30.3184H13.5532V31.8735H12.9356Z" fill="black"/>
<path d="M13.3768 31.8735V30.3184H14.7662V31.8735H13.3768Z" fill="black"/>
<path d="M14.6678 31.8735V30.3184H15.7484V31.8735H14.6678Z" fill="black"/>
<path d="M15.4186 31.8735V30.3184H16.9627V31.8735H15.4186Z" fill="black"/>
<path d="M16.7095 31.8735V30.3184H17.7901V31.8735H16.7095Z" fill="black"/>
<path d="M17.4603 31.8735V30.3184H19.0044V31.8735H17.4603Z" fill="black"/>
<path d="M18.6739 31.8735V30.3184H20.0633V31.8735H18.6739Z" fill="black"/>
<path d="M19.8495 31.8735V30.3184H20.4672V31.8735H19.8495Z" fill="black"/>
<path d="M20.4455 31.8735V30.3184H21.6801V31.8735H20.4455Z" fill="black"/>
<path d="M21.5044 31.8735V30.3184H22.7397V31.8735H21.5044Z" fill="black"/>
<path d="M22.4099 31.8735V30.3184H23.0275V31.8735H22.4099Z" fill="black"/>
<path d="M6 34.8735V33.3184H7.69886V34.8735H6Z" fill="black"/>
<path d="M7.44575 34.8735V33.3184H9.45343V34.8735H7.44575Z" fill="black"/>
<path d="M9.35439 34.8735V33.3184H10.8985V34.8735H9.35439Z" fill="black"/>
<path d="M10.568 34.8735V33.3184H11.9574V34.8735H10.568Z" fill="black"/>
<path d="M11.6473 34.8735V33.3184H12.7278V34.8735H11.6473Z" fill="black"/>
<path d="M12.5527 34.8735V33.3184H13.9421V34.8735H12.5527Z" fill="black"/>
<path d="M13.689 34.8735V33.3184H15.2331V34.8735H13.689Z" fill="black"/>
<path d="M14.98 34.8735V33.3184H15.7517V34.8735H14.98Z" fill="black"/>
<path d="M15.4986 34.8735V33.3184H16.2703V34.8735H15.4986Z" fill="black"/>
<path d="M6.30882 7.76895H27.9961V7.83867H6.30882V7.76895ZM6.30882 10.7689H26.3392V10.8387H6.30882V10.7689ZM6.30882 13.7689H32.6905V13.8387H6.30882V13.7689ZM6.30882 16.7689H29.9671V16.8387H6.30882V16.7689ZM6.30882 19.7689H29.4975V19.8387H6.30882V19.7689ZM6.30882 22.7689H29.807V22.8387H6.30882V22.7689ZM6.30882 25.7689H31.039V25.8387H6.30882V25.7689ZM6.30882 28.7689H31.0239V28.8387H6.30882V28.7689ZM6.30882 31.7689H22.718V31.8387H6.30882V31.7689ZM6.30882 34.7689H16.459V34.8387H6.30882V34.7689Z" fill="black"/>
</g>
<rect width="12" height="14" transform="translate(25 25.8735)" fill="white"/>
<path d="M30.6787 29.7349C31.5999 29.7349 32.2721 29.9334 32.6953 30.3306C33.1185 30.7244 33.3301 31.2681 33.3301 31.9614C33.3301 32.2739 33.2829 32.5734 33.1885 32.8599C33.0941 33.1431 32.9395 33.3953 32.7246 33.6167C32.513 33.8381 32.2298 34.0138 31.875 34.144C31.5202 34.271 31.0824 34.3345 30.5615 34.3345H29.9121V36.8735H28.3984V29.7349H30.6787ZM30.6006 30.9751H29.9121V33.0942H30.4102C30.6934 33.0942 30.9391 33.0568 31.1475 32.9819C31.3558 32.9071 31.5169 32.7899 31.6309 32.6304C31.7448 32.4709 31.8018 32.2658 31.8018 32.0151C31.8018 31.6636 31.7041 31.4032 31.5088 31.2339C31.3135 31.0614 31.0107 30.9751 30.6006 30.9751Z" fill="#585858"/>
</g>
<path d="M11.3333 45.8735H2V52.2216H11.3333V45.8735Z" fill="#7FA4CA"/>
<path d="M21.6663 45.8735H12.333V52.2216H21.6663V45.8735Z" fill="#BB90BB"/>
</g>
<defs>
<filter id="filter0_d_39_124700" x="0" y="1.31836" width="39" height="42.5552" filterUnits="userSpaceOnUse" color-interpolation-filters="sRGB">
<feFlood flood-opacity="0" result="BackgroundImageFix"/>
<feColorMatrix in="SourceAlpha" type="matrix" values="0 0 0 0 0 0 0 0 0 0 0 0 0 0 0 0 0 0 127 0" result="hardAlpha"/>
<feOffset dy="1"/>
<feGaussianBlur stdDeviation="1"/>
<feComposite in2="hardAlpha" operator="out"/>
<feColorMatrix type="matrix" values="0 0 0 0 0 0 0 0 0 0 0 0 0 0 0 0 0 0 0.1 0"/>
<feBlend mode="normal" in2="BackgroundImageFix" result="effect1_dropShadow_39_124700"/>
<feBlend mode="normal" in="SourceGraphic" in2="effect1_dropShadow_39_124700" result="shape"/>
</filter>
<clipPath id="clip0_39_124700">
<rect width="39" height="53.9033" fill="white" transform="translate(0 0.318359)"/>
</clipPath>
</defs>
</svg>
