<svg width="39" height="58" viewBox="0 0 39 58" fill="none" xmlns="http://www.w3.org/2000/svg">
<rect width="39" height="58" fill=""/>
<g clip-path="url(#clip0_39_124700)">
<g filter="url(#filter0_d_39_124700)">
<rect width="35" height="41.5552" transform="translate(2 2.73828)" fill="white"/>
<g opacity="0.3">
<rect width="35" height="39.5552" transform="translate(2 2.73828)" fill="white"/>
<path d="M6 8.29346V6.73828H6.84431V8.29346H6Z" fill="black"/>
<path d="M6.65204 8.29346V6.73828H8.34141V8.29346H6.65204Z" fill="black"/>
<path d="M8.31845 8.29346V6.73828H9.6692V8.29346H8.31845Z" fill="black"/>
<path d="M9.47693 8.29346V6.73828H10.1527V8.29346H9.47693Z" fill="black"/>
<path d="M9.95967 8.29346V6.73828H11.1419V8.29346H9.95967Z" fill="black"/>
<path d="M10.781 8.29346V6.73828H12.4704V8.29346H10.781Z" fill="black"/>
<path d="M12.2781 8.29346V6.73828H13.9675V8.29346H12.2781Z" fill="black"/>
<path d="M13.6906 8.29346V6.73828H14.8728V8.29346H13.6906Z" fill="black"/>
<path d="M14.5119 8.29346V6.73828H15.1877V8.29346H14.5119Z" fill="black"/>
<path d="M14.9947 8.29346V6.73828H16.684V8.29346H14.9947Z" fill="black"/>
<path d="M16.4918 8.29346V6.73828H18.0118V8.29346H16.4918Z" fill="black"/>
<path d="M17.8195 8.29346V6.73828H19.5089V8.29346H17.8195Z" fill="black"/>
<path d="M19.232 8.29346V6.73828H20.0763V8.29346H19.232Z" fill="black"/>
<path d="M19.7994 8.29346V6.73828H20.4751V8.29346H19.7994Z" fill="black"/>
<path d="M20.2821 8.29346V6.73828H22.6472V8.29346H20.2821Z" fill="black"/>
<path d="M22.3703 8.29346V6.73828H24.0597V8.29346H22.3703Z" fill="black"/>
<path d="M23.6981 8.29346V6.73828H24.3738V8.29346H23.6981Z" fill="black"/>
<path d="M24.1808 8.29346V6.73828H25.8702V8.29346H24.1808Z" fill="black"/>
<path d="M25.5933 8.29346V6.73828H27.1133V8.29346H25.5933Z" fill="black"/>
<path d="M26.774 8.29346V6.73828H28.4634V8.29346H26.774Z" fill="black"/>
<path d="M28.1018 8.29346V6.73828H28.7776V8.29346H28.1018Z" fill="black"/>
<path d="M6.16931 11.2935V9.73828H7.68937V11.2935H6.16931Z" fill="black"/>
<path d="M7.41244 11.2935V9.73828H8.9325V11.2935H7.41244Z" fill="black"/>
<path d="M8.59321 11.2935V9.73828H10.2826V11.2935H8.59321Z" fill="black"/>
<path d="M10.0903 11.2935V9.73828H11.6104V11.2935H10.0903Z" fill="black"/>
<path d="M11.3334 11.2935V9.73828H13.0228V11.2935H11.3334Z" fill="black"/>
<path d="M12.7459 11.2935V9.73828H14.2659V11.2935H12.7459Z" fill="black"/>
<path d="M13.9266 11.2935V9.73828H15.616V11.2935H13.9266Z" fill="black"/>
<path d="M15.2544 11.2935V9.73828H16.9438V11.2935H15.2544Z" fill="black"/>
<path d="M16.6669 11.2935V9.73828H17.3426V11.2935H16.6669Z" fill="black"/>
<path d="M17.1496 11.2935V9.73828H18.5011V11.2935H17.1496Z" fill="black"/>
<path d="M18.3096 11.2935V9.73828H19.6603V11.2935H18.3096Z" fill="black"/>
<path d="M19.4681 11.2935V9.73828H20.9881V11.2935H19.4681Z" fill="black"/>
<path d="M20.6488 11.2935V9.73828H21.3246V11.2935H20.6488Z" fill="black"/>
<path d="M6.16931 14.2935V12.7383H7.68937V14.2935H6.16931Z" fill="black"/>
<path d="M7.4971 14.2935V12.7383H9.18647V14.2935H7.4971Z" fill="black"/>
<path d="M8.82489 14.2935V12.7383H10.5143V14.2935H8.82489Z" fill="black"/>
<path d="M10.4913 14.2935V12.7383H11.842V14.2935H10.4913Z" fill="black"/>
<path d="M11.6498 14.2935V12.7383H12.832V14.2935H11.6498Z" fill="black"/>
<path d="M12.4711 14.2935V12.7383H13.6533V14.2935H12.4711Z" fill="black"/>
<path d="M13.4618 14.2935V12.7383H15.1512V14.2935H13.4618Z" fill="black"/>
<path d="M14.8742 14.2935V12.7383H16.0564V14.2935H14.8742Z" fill="black"/>
<path d="M15.6956 14.2935V12.7383H16.8778V14.2935H15.6956Z" fill="black"/>
<path d="M16.8556 14.2935V12.7383H18.2063V14.2935H16.8556Z" fill="black"/>
<path d="M18.1833 14.2935V12.7383H19.7034V14.2935H18.1833Z" fill="black"/>
<path d="M19.5111 14.2935V12.7383H21.0312V14.2935H19.5111Z" fill="black"/>
<path d="M20.7973 14.2935V12.7383H21.6417V14.2935H20.7973Z" fill="black"/>
<path d="M21.3647 14.2935V12.7383H22.0405V14.2935H21.3647Z" fill="black"/>
<path d="M22.0168 14.2935V12.7383H23.5368V14.2935H22.0168Z" fill="black"/>
<path d="M23.2599 14.2935V12.7383H24.78V14.2935H23.2599Z" fill="black"/>
<path d="M24.61 14.2935V12.7383H25.9607V14.2935H24.61Z" fill="black"/>
<path d="M25.7685 14.2935V12.7383H27.2885V14.2935H25.7685Z" fill="black"/>
<path d="M27.1809 14.2935V12.7383H28.3631V14.2935H27.1809Z" fill="black"/>
<path d="M28.1716 14.2935V12.7383H29.8609V14.2935H28.1716Z" fill="black"/>
<path d="M29.584 14.2935V12.7383H31.2734V14.2935H29.584Z" fill="black"/>
<path d="M30.9118 14.2935V12.7383H32.6012V14.2935H30.9118Z" fill="black"/>
<path d="M32.3243 14.2935V12.7383H33V14.2935H32.3243Z" fill="black"/>
<path d="M6 17.2935V15.7383H7.18219V17.2935H6Z" fill="black"/>
<path d="M6.82135 17.2935V15.7383H8.51072V17.2935H6.82135Z" fill="black"/>
<path d="M8.31845 17.2935V15.7383H10.0078V17.2935H8.31845Z" fill="black"/>
<path d="M9.7309 17.2935V15.7383H10.9131V17.2935H9.7309Z" fill="black"/>
<path d="M10.5522 17.2935V15.7383H11.228V17.2935H10.5522Z" fill="black"/>
<path d="M11.035 17.2935V15.7383H12.2172V17.2935H11.035Z" fill="black"/>
<path d="M11.8563 17.2935V15.7383H13.5457V17.2935H11.8563Z" fill="black"/>
<path d="M13.3534 17.2935V15.7383H15.0428V17.2935H13.3534Z" fill="black"/>
<path d="M14.8505 17.2935V15.7383H16.3706V17.2935H14.8505Z" fill="black"/>
<path d="M16.0937 17.2935V15.7383H16.7694V17.2935H16.0937Z" fill="black"/>
<path d="M16.5764 17.2935V15.7383H18.2658V17.2935H16.5764Z" fill="black"/>
<path d="M17.9889 17.2935V15.7383H19.5089V17.2935H17.9889Z" fill="black"/>
<path d="M19.1696 17.2935V15.7383H20.859V17.2935H19.1696Z" fill="black"/>
<path d="M20.4974 17.2935V15.7383H21.1732V17.2935H20.4974Z" fill="black"/>
<path d="M20.9801 17.2935V15.7383H22.6695V17.2935H20.9801Z" fill="black"/>
<path d="M22.3926 17.2935V15.7383H24.082V17.2935H22.3926Z" fill="black"/>
<path d="M23.8897 17.2935V15.7383H25.0719V17.2935H23.8897Z" fill="black"/>
<path d="M24.711 17.2935V15.7383H26.4004V17.2935H24.711Z" fill="black"/>
<path d="M26.2081 17.2935V15.7383H27.8975V17.2935H26.2081Z" fill="black"/>
<path d="M27.7052 17.2935V15.7383H29.2253V17.2935H27.7052Z" fill="black"/>
<path d="M29.033 17.2935V15.7383H30.2152V17.2935H29.033Z" fill="black"/>
<path d="M29.8544 17.2935V15.7383H31.0366V17.2935H29.8544Z" fill="black"/>
<path d="M30.845 17.2935V15.7383H32.3651V17.2935H30.845Z" fill="black"/>
<path d="M32.0882 17.2935V15.7383H32.7639V17.2935H32.0882Z" fill="black"/>
<path d="M6 20.2935V18.7383H7.68937V20.2935H6Z" fill="black"/>
<path d="M7.58175 20.2935V18.7383H9.10181V20.2935H7.58175Z" fill="black"/>
<path d="M8.90954 20.2935V18.7383H10.5989V20.2935H8.90954Z" fill="black"/>
<path d="M10.322 20.2935V18.7383H10.9977V20.2935H10.322Z" fill="black"/>
<path d="M10.8047 20.2935V18.7383H12.3248V20.2935H10.8047Z" fill="black"/>
<path d="M12.0479 20.2935V18.7383H13.5679V20.2935H12.0479Z" fill="black"/>
<path d="M13.2286 20.2935V18.7383H14.918V20.2935H13.2286Z" fill="black"/>
<path d="M14.5564 20.2935V18.7383H16.2458V20.2935H14.5564Z" fill="black"/>
<path d="M15.9689 20.2935V18.7383H17.151V20.2935H15.9689Z" fill="black"/>
<path d="M17.1288 20.2935V18.7383H18.6489V20.2935H17.1288Z" fill="black"/>
<path d="M18.2873 20.2935V18.7383H19.4695V20.2935H18.2873Z" fill="black"/>
<path d="M19.278 20.2935V18.7383H20.9673V20.2935H19.278Z" fill="black"/>
<path d="M20.6058 20.2935V18.7383H21.4501V20.2935H20.6058Z" fill="black"/>
<path d="M21.1732 20.2935V18.7383H21.8489V20.2935H21.1732Z" fill="black"/>
<path d="M21.6559 20.2935V18.7383H23.3453V20.2935H21.6559Z" fill="black"/>
<path d="M23.153 20.2935V18.7383H24.8424V20.2935H23.153Z" fill="black"/>
<path d="M24.4808 20.2935V18.7383H25.663V20.2935H24.4808Z" fill="black"/>
<path d="M25.3021 20.2935V18.7383H25.9779V20.2935H25.3021Z" fill="black"/>
<path d="M25.7849 20.2935V18.7383H27.4742V20.2935H25.7849Z" fill="black"/>
<path d="M27.1973 20.2935V18.7383H28.3795V20.2935H27.1973Z" fill="black"/>
<path d="M28.0187 20.2935V18.7383H28.6944V20.2935H28.0187Z" fill="black"/>
<path d="M28.5014 20.2935V18.7383H29.6836V20.2935H28.5014Z" fill="black"/>
<path d="M29.3227 20.2935V18.7383H31.0121V20.2935H29.3227Z" fill="black"/>
<path d="M30.8198 20.2935V18.7383H32.5092V20.2935H30.8198Z" fill="black"/>
<path d="M32.1476 20.2935V18.7383H32.8234V20.2935H32.1476Z" fill="black"/>
<path d="M6 23.2935V21.7383H7.68937V23.2935H6Z" fill="black"/>
<path d="M7.4971 23.2935V21.7383H9.01716V23.2935H7.4971Z" fill="black"/>
<path d="M8.82489 23.2935V21.7383H10.0071V23.2935H8.82489Z" fill="black"/>
<path d="M9.64624 23.2935V21.7383H10.8284V23.2935H9.64624Z" fill="black"/>
<path d="M10.6369 23.2935V21.7383H12.157V23.2935H10.6369Z" fill="black"/>
<path d="M11.8177 23.2935V21.7383H13.507V23.2935H11.8177Z" fill="black"/>
<path d="M13.1455 23.2935V21.7383H14.3276V23.2935H13.1455Z" fill="black"/>
<path d="M14.1361 23.2935V21.7383H15.6562V23.2935H14.1361Z" fill="black"/>
<path d="M15.3793 23.2935V21.7383H16.055V23.2935H15.3793Z" fill="black"/>
<path d="M16.0313 23.2935V21.7383H17.382V23.2935H16.0313Z" fill="black"/>
<path d="M17.1898 23.2935V21.7383H18.5413V23.2935H17.1898Z" fill="black"/>
<path d="M18.1804 23.2935V21.7383H18.8562V23.2935H18.1804Z" fill="black"/>
<path d="M18.6632 23.2935V21.7383H19.8454V23.2935H18.6632Z" fill="black"/>
<path d="M19.4845 23.2935V21.7383H21.1739V23.2935H19.4845Z" fill="black"/>
<path d="M20.9816 23.2935V21.7383H22.671V23.2935H20.9816Z" fill="black"/>
<path d="M22.3094 23.2935V21.7383H22.9852V23.2935H22.3094Z" fill="black"/>
<path d="M22.7922 23.2935V21.7383H24.6508V23.2935H22.7922Z" fill="black"/>
<path d="M24.4794 23.2935V21.7383H25.8301V23.2935H24.4794Z" fill="black"/>
<path d="M25.6378 23.2935V21.7383H27.1579V23.2935H25.6378Z" fill="black"/>
<path d="M26.8186 23.2935V21.7383H28.0008V23.2935H26.8186Z" fill="black"/>
<path d="M27.6399 23.2935V21.7383H29.3293V23.2935H27.6399Z" fill="black"/>
<path d="M29.137 23.2935V21.7383H29.9814V23.2935H29.137Z" fill="black"/>
<path d="M29.7891 23.2935V21.7383H31.3091V23.2935H29.7891Z" fill="black"/>
<path d="M31.0753 23.2935V21.7383H31.751V23.2935H31.0753Z" fill="black"/>
<path d="M6.16931 26.2935V24.7383H7.68937V26.2935H6.16931Z" fill="black"/>
<path d="M7.4971 26.2935V24.7383H9.18647V26.2935H7.4971Z" fill="black"/>
<path d="M8.9942 26.2935V24.7383H10.5143V26.2935H8.9942Z" fill="black"/>
<path d="M10.2373 26.2935V24.7383H11.4195V26.2935H10.2373Z" fill="black"/>
<path d="M11.228 26.2935V24.7383H12.9174V26.2935H11.228Z" fill="black"/>
<path d="M12.5558 26.2935V24.7383H14.2452V26.2935H12.5558Z" fill="black"/>
<path d="M13.9682 26.2935V24.7383H15.4883V26.2935H13.9682Z" fill="black"/>
<path d="M15.149 26.2935V24.7383H15.8247V26.2935H15.149Z" fill="black"/>
<path d="M15.801 26.2935V24.7383H17.3211V26.2935H15.801Z" fill="black"/>
<path d="M17.0442 26.2935V24.7383H18.5642V26.2935H17.0442Z" fill="black"/>
<path d="M18.3942 26.2935V24.7383H19.745V26.2935H18.3942Z" fill="black"/>
<path d="M19.5527 26.2935V24.7383H21.2421V26.2935H19.5527Z" fill="black"/>
<path d="M21.0498 26.2935V24.7383H22.5699V26.2935H21.0498Z" fill="black"/>
<path d="M22.189 26.2935V24.7383H23.8784V26.2935H22.189Z" fill="black"/>
<path d="M23.6014 26.2935V24.7383H25.798V26.2935H23.6014Z" fill="black"/>
<path d="M25.6896 26.2935V24.7383H26.5339V26.2935H25.6896Z" fill="black"/>
<path d="M26.257 26.2935V24.7383H26.9328V26.2935H26.257Z" fill="black"/>
<path d="M26.7398 26.2935V24.7383H28.4291V26.2935H26.7398Z" fill="black"/>
<path d="M28.3215 26.2935V24.7383H29.8416V26.2935H28.3215Z" fill="black"/>
<path d="M29.6493 26.2935V24.7383H31.3387V26.2935H29.6493Z" fill="black"/>
<path d="M31.0617 26.2935V24.7383H31.7375V26.2935H31.0617Z" fill="black"/>
<path d="M6 29.2935V27.7383H7.52006V29.2935H6Z" fill="black"/>
<path d="M7.18076 29.2935V27.7383H8.87013V29.2935H7.18076Z" fill="black"/>
<path d="M8.50855 29.2935V27.7383H10.0286V29.2935H8.50855Z" fill="black"/>
<path d="M9.79476 29.2935V27.7383H11.4841V29.2935H9.79476Z" fill="black"/>
<path d="M11.2919 29.2935V27.7383H12.474V29.2935H11.2919Z" fill="black"/>
<path d="M12.2825 29.2935V27.7383H13.4647V29.2935H12.2825Z" fill="black"/>
<path d="M13.1039 29.2935V27.7383H13.7796V29.2935H13.1039Z" fill="black"/>
<path d="M13.5866 29.2935V27.7383H14.7688V29.2935H13.5866Z" fill="black"/>
<path d="M14.7466 29.2935V27.7383H16.2666V29.2935H14.7466Z" fill="black"/>
<path d="M16.0744 29.2935V27.7383H16.7501V29.2935H16.0744Z" fill="black"/>
<path d="M16.5571 29.2935V27.7383H18.0772V29.2935H16.5571Z" fill="black"/>
<path d="M17.9695 29.2935V27.7383H19.3203V29.2935H17.9695Z" fill="black"/>
<path d="M19.2973 29.2935V27.7383H20.8174V29.2935H19.2973Z" fill="black"/>
<path d="M20.6251 29.2935V27.7383H22.1452V29.2935H20.6251Z" fill="black"/>
<path d="M21.8683 29.2935V27.7383H23.3883V29.2935H21.8683Z" fill="black"/>
<path d="M23.049 29.2935V27.7383H24.7384V29.2935H23.049Z" fill="black"/>
<path d="M24.3768 29.2935V27.7383H25.559V29.2935H24.3768Z" fill="black"/>
<path d="M25.1982 29.2935V27.7383H26.8875V29.2935H25.1982Z" fill="black"/>
<path d="M26.526 29.2935V27.7383H27.2017V29.2935H26.526Z" fill="black"/>
<path d="M27.0087 29.2935V27.7383H28.6981V29.2935H27.0087Z" fill="black"/>
<path d="M28.5904 29.2935V27.7383H30.1105V29.2935H28.5904Z" fill="black"/>
<path d="M29.9182 29.2935V27.7383H31.6076V29.2935H29.9182Z" fill="black"/>
<path d="M31.3307 29.2935V27.7383H32.0064V29.2935H31.3307Z" fill="black"/>
<path d="M6 32.2935V30.7383H7.18219V32.2935H6Z" fill="black"/>
<path d="M6.99066 32.2935V30.7383H8.51072V32.2935H6.99066Z" fill="black"/>
<path d="M8.17142 32.2935V30.7383H9.69148V32.2935H8.17142Z" fill="black"/>
<path d="M9.35218 32.2935V30.7383H11.0415V32.2935H9.35218Z" fill="black"/>
<path d="M10.68 32.2935V30.7383H12.2V32.2935H10.68Z" fill="black"/>
<path d="M12.0924 32.2935V30.7383H13.7818V32.2935H12.0924Z" fill="black"/>
<path d="M13.4202 32.2935V30.7383H14.9403V32.2935H13.4202Z" fill="black"/>
<path d="M14.601 32.2935V30.7383H16.121V32.2935H14.601Z" fill="black"/>
<path d="M15.8872 32.2935V30.7383H17.0694V32.2935H15.8872Z" fill="black"/>
<path d="M17.0471 32.2935V30.7383H18.5672V32.2935H17.0471Z" fill="black"/>
<path d="M18.2056 32.2935V30.7383H19.3878V32.2935H18.2056Z" fill="black"/>
<path d="M19.1963 32.2935V30.7383H20.8857V32.2935H19.1963Z" fill="black"/>
<path d="M20.5241 32.2935V30.7383H21.1998V32.2935H20.5241Z" fill="black"/>
<path d="M21.0068 32.2935V30.7383H22.5269V32.2935H21.0068Z" fill="black"/>
<path d="M22.293 32.2935V30.7383H23.4752V32.2935H22.293Z" fill="black"/>
<path d="M23.1144 32.2935V30.7383H24.8037V32.2935H23.1144Z" fill="black"/>
<path d="M24.6115 32.2935V30.7383H26.1315V32.2935H24.6115Z" fill="black"/>
<path d="M25.8546 32.2935V30.7383H27.3747V32.2935H25.8546Z" fill="black"/>
<path d="M27.1408 32.2935V30.7383H27.8166V32.2935H27.1408Z" fill="black"/>
<path d="M6 35.2935V33.7383H7.18219V35.2935H6Z" fill="black"/>
<path d="M6.99066 35.2935V33.7383H8.34141V35.2935H6.99066Z" fill="black"/>
<path d="M8.14914 35.2935V33.7383H10.5143V35.2935H8.14914Z" fill="black"/>
<path d="M10.1527 35.2935V33.7383H11.842V35.2935H10.1527Z" fill="black"/>
<path d="M11.5651 35.2935V33.7383H13.0852V35.2935H11.5651Z" fill="black"/>
<path d="M12.7459 35.2935V33.7383H14.4353V35.2935H12.7459Z" fill="black"/>
<path d="M14.1583 35.2935V33.7383H14.8341V35.2935H14.1583Z" fill="black"/>
<path d="M6 38.2935V36.7383H7.68937V38.2935H6Z" fill="black"/>
<path d="M7.41244 38.2935V36.7383H9.10181V38.2935H7.41244Z" fill="black"/>
<path d="M8.90954 38.2935V36.7383H10.4296V38.2935H8.90954Z" fill="black"/>
<path d="M10.2373 38.2935V36.7383H11.9267V38.2935H10.2373Z" fill="black"/>
<path d="M11.7344 38.2935V36.7383H13.2545V38.2935H11.7344Z" fill="black"/>
<path d="M12.9776 38.2935V36.7383H14.1598V38.2935H12.9776Z" fill="black"/>
<path d="M13.9682 38.2935V36.7383H15.6576V38.2935H13.9682Z" fill="black"/>
<path d="M15.296 38.2935V36.7383H16.9854V38.2935H15.296Z" fill="black"/>
<path d="M16.7085 38.2935V36.7383H18.2285V38.2935H16.7085Z" fill="black"/>
<path d="M17.8892 38.2935V36.7383H19.0714V38.2935H17.8892Z" fill="black"/>
<path d="M19.0492 38.2935V36.7383H20.3999V38.2935H19.0492Z" fill="black"/>
<path d="M20.1022 38.2935V36.7383H21.7916V38.2935H20.1022Z" fill="black"/>
<path d="M21.5147 38.2935V36.7383H22.6969V38.2935H21.5147Z" fill="black"/>
<path d="M22.336 38.2935V36.7383H23.5182V38.2935H22.336Z" fill="black"/>
<path d="M23.496 38.2935V36.7383H24.8467V38.2935H23.496Z" fill="black"/>
<path d="M24.8238 38.2935V36.7383H26.3438V38.2935H24.8238Z" fill="black"/>
<path d="M26.1516 38.2935V36.7383H26.9959V38.2935H26.1516Z" fill="black"/>
<path d="M26.719 38.2935V36.7383H27.5633V38.2935H26.719Z" fill="black"/>
<path d="M6.33787 8.18887H28.4397V8.25859H6.33787V8.18887ZM6.33787 11.1889H20.986V11.2586H6.33787V11.1889ZM6.33787 14.1889H32.6621V14.2586H6.33787V14.1889ZM6.33787 17.1889H32.426V17.2586H6.33787V17.1889ZM6.33787 20.1889H32.4855V20.2586H6.33787V20.1889ZM6.33787 23.1889H31.4124V23.2586H6.33787V23.1889ZM6.33787 26.1889H31.3996V26.2586H6.33787V26.1889ZM6.33787 29.1889H31.6686V29.2586H6.33787V29.1889ZM6.33787 32.1889H27.4779V32.2586H6.33787V32.1889ZM6.33787 35.1889H14.4962V35.2586H6.33787V35.1889ZM6.33787 38.1889H27.7697V38.2586H6.33787V38.1889Z" fill="black"/>
</g>
</g>
<path d="M11.3333 49.293H2V55.641H11.3333V49.293Z" fill="#7FA4CA"/>
</g>
<defs>
<filter id="filter0_d_39_124700" x="0" y="1.73828" width="39" height="45.5547" filterUnits="userSpaceOnUse" color-interpolation-filters="sRGB">
<feFlood flood-opacity="0" result="BackgroundImageFix"/>
<feColorMatrix in="SourceAlpha" type="matrix" values="0 0 0 0 0 0 0 0 0 0 0 0 0 0 0 0 0 0 127 0" result="hardAlpha"/>
<feOffset dy="1"/>
<feGaussianBlur stdDeviation="1"/>
<feComposite in2="hardAlpha" operator="out"/>
<feColorMatrix type="matrix" values="0 0 0 0 0 0 0 0 0 0 0 0 0 0 0 0 0 0 0.1 0"/>
<feBlend mode="normal" in2="BackgroundImageFix" result="effect1_dropShadow_39_124700"/>
<feBlend mode="normal" in="SourceGraphic" in2="effect1_dropShadow_39_124700" result="shape"/>
</filter>
<clipPath id="clip0_39_124700">
<rect width="39" height="56.9033" fill="white" transform="translate(0 0.738281)"/>
</clipPath>
</defs>
</svg>
