<svg width="39" height="40" viewBox="0 0 39 40" fill="none" xmlns="http://www.w3.org/2000/svg">
<rect width="39" height="40" fill=""/>
<g clip-path="url(#clip0_39_124700)">
<g filter="url(#filter0_d_39_124700)">
<rect width="35" height="23.5552" transform="translate(2 2.86816)" fill="white"/>
<g opacity="0.3">
<rect width="35" height="21.5552" transform="translate(2 2.86816)" fill="white"/>
<path d="M6 8.42334V6.86816H6.76335V8.42334H6Z" fill="black"/>
<path d="M6.7426 8.42334V6.86816H8.88093V8.42334H6.7426Z" fill="black"/>
<path d="M8.66816 8.42334V6.86816H10.1955V8.42334H8.66816Z" fill="black"/>
<path d="M9.86863 8.42334V6.86816H10.4796V8.42334H9.86863Z" fill="black"/>
<path d="M10.3051 8.42334V6.86816H11.8325V8.42334H10.3051Z" fill="black"/>
<path d="M11.5821 8.42334V6.86816H12.6509V8.42334H11.5821Z" fill="black"/>
<path d="M12.4778 8.42334V6.86816H13.8521V8.42334H12.4778Z" fill="black"/>
<path d="M13.7937 8.42334V6.86816H15.0149V8.42334H13.7937Z" fill="black"/>
<path d="M14.8411 8.42334V6.86816H15.4521V8.42334H14.8411Z" fill="black"/>
<path d="M15.2776 8.42334V6.86816H16.8049V8.42334H15.2776Z" fill="black"/>
<path d="M16.6311 8.42334V6.86816H18.1585V8.42334H16.6311Z" fill="black"/>
<path d="M17.8316 8.42334V6.86816H19.2059V8.42334H17.8316Z" fill="black"/>
<path d="M19.1086 8.42334V6.86816H20.636V8.42334H19.1086Z" fill="black"/>
<path d="M20.3091 8.42334V6.86816H20.92V8.42334H20.3091Z" fill="black"/>
<path d="M20.7455 8.42334V6.86816H22.7314V8.42334H20.7455Z" fill="black"/>
<path d="M22.6335 8.42334V6.86816H24.1609V8.42334H22.6335Z" fill="black"/>
<path d="M23.9105 8.42334V6.86816H25.4379V8.42334H23.9105Z" fill="black"/>
<path d="M25.1875 8.42334V6.86816H26.7149V8.42334H25.1875Z" fill="black"/>
<path d="M26.388 8.42334V6.86816H26.9989V8.42334H26.388Z" fill="black"/>
<path d="M26.8244 8.42334V6.86816H28.1987V8.42334H26.8244Z" fill="black"/>
<path d="M27.9484 8.42334V6.86816H29.0172V8.42334H27.9484Z" fill="black"/>
<path d="M28.844 8.42334V6.86816H30.3714V8.42334H28.844Z" fill="black"/>
<path d="M30.0445 8.42334V6.86816H31.5719V8.42334H30.0445Z" fill="black"/>
<path d="M31.3215 8.42334V6.86816H32.6958V8.42334H31.3215Z" fill="black"/>
<path d="M32.389 8.42334V6.86816H33V8.42334H32.389Z" fill="black"/>
<path d="M6 11.4233V9.86816H7.06883V11.4233H6Z" fill="black"/>
<path d="M6.89567 11.4233V9.86816H8.1169V11.4233H6.89567Z" fill="black"/>
<path d="M7.94307 11.4233V9.86816H8.55402V11.4233H7.94307Z" fill="black"/>
<path d="M8.37952 11.4233V9.86816H10.06V11.4233H8.37952Z" fill="black"/>
<path d="M9.90494 11.4233V9.86816H11.1262V11.4233H9.90494Z" fill="black"/>
<path d="M10.9523 11.4233V9.86816H12.3266V11.4233H10.9523Z" fill="black"/>
<path d="M12.0199 11.4233V9.86816H13.0887V11.4233H12.0199Z" fill="black"/>
<path d="M12.7625 11.4233V9.86816H14.2899V11.4233H12.7625Z" fill="black"/>
<path d="M14.116 11.4233V9.86816H14.727V11.4233H14.116Z" fill="black"/>
<path d="M14.5525 11.4233V9.86816H16.2329V11.4233H14.5525Z" fill="black"/>
<path d="M16.1356 11.4233V9.86816H17.3569V11.4233H16.1356Z" fill="black"/>
<path d="M17.183 11.4233V9.86816H18.5573V11.4233H17.183Z" fill="black"/>
<path d="M18.2506 11.4233V9.86816H19.7779V11.4233H18.2506Z" fill="black"/>
<path d="M19.451 11.4233V9.86816H20.9784V11.4233H19.451Z" fill="black"/>
<path d="M20.7281 11.4233V9.86816H21.339V11.4233H20.7281Z" fill="black"/>
<path d="M21.1645 11.4233V9.86816H22.2333V11.4233H21.1645Z" fill="black"/>
<path d="M21.9071 11.4233V9.86816H23.4345V11.4233H21.9071Z" fill="black"/>
<path d="M23.2606 11.4233V9.86816H24.788V11.4233H23.2606Z" fill="black"/>
<path d="M24.5377 11.4233V9.86816H25.6065V11.4233H24.5377Z" fill="black"/>
<path d="M25.2803 11.4233V9.86816H25.8912V11.4233H25.2803Z" fill="black"/>
<path d="M25.7167 11.4233V9.86816H26.7855V11.4233H25.7167Z" fill="black"/>
<path d="M26.4593 11.4233V9.86816H27.9867V11.4233H26.4593Z" fill="black"/>
<path d="M27.8128 11.4233V9.86816H29.3402V11.4233H27.8128Z" fill="black"/>
<path d="M29.0133 11.4233V9.86816H29.6243V11.4233H29.0133Z" fill="black"/>
<path d="M6.15307 14.4233V12.8682H7.52738V14.4233H6.15307Z" fill="black"/>
<path d="M7.27701 14.4233V12.8682H8.80439V14.4233H7.27701Z" fill="black"/>
<path d="M8.55402 14.4233V12.8682H9.62285V14.4233H8.55402Z" fill="black"/>
<path d="M9.29662 14.4233V12.8682H10.824V14.4233H9.29662Z" fill="black"/>
<path d="M10.6502 14.4233V12.8682H11.2611V14.4233H10.6502Z" fill="black"/>
<path d="M11.2397 14.4233V12.8682H12.4609V14.4233H11.2397Z" fill="black"/>
<path d="M12.2871 14.4233V12.8682H13.509V14.4233H12.2871Z" fill="black"/>
<path d="M13.1828 14.4233V12.8682H13.7937V14.4233H13.1828Z" fill="black"/>
<path d="M13.6192 14.4233V12.8682H15.1466V14.4233H13.6192Z" fill="black"/>
<path d="M14.9728 14.4233V12.8682H16.3471V14.4233H14.9728Z" fill="black"/>
<path d="M16.1732 14.4233V12.8682H17.7006V14.4233H16.1732Z" fill="black"/>
<path d="M17.5268 14.4233V12.8682H19.0542V14.4233H17.5268Z" fill="black"/>
<path d="M18.8038 14.4233V12.8682H20.3312V14.4233H18.8038Z" fill="black"/>
<path d="M20.1573 14.4233V12.8682H21.6847V14.4233H20.1573Z" fill="black"/>
<path d="M21.3578 14.4233V12.8682H23.3437V14.4233H21.3578Z" fill="black"/>
<path d="M23.2458 14.4233V12.8682H24.7731V14.4233H23.2458Z" fill="black"/>
<path d="M24.5993 14.4233V12.8682H25.9736V14.4233H24.5993Z" fill="black"/>
<path d="M25.7998 14.4233V12.8682H26.8686V14.4233H25.7998Z" fill="black"/>
<path d="M26.5424 14.4233V12.8682H27.1533V14.4233H26.5424Z" fill="black"/>
<path d="M26.9788 14.4233V12.8682H28.5062V14.4233H26.9788Z" fill="black"/>
<path d="M28.4089 14.4233V12.8682H29.7832V14.4233H28.4089Z" fill="black"/>
<path d="M29.6094 14.4233V12.8682H31.1368V14.4233H29.6094Z" fill="black"/>
<path d="M30.8864 14.4233V12.8682H31.4974V14.4233H30.8864Z" fill="black"/>
<path d="M6 17.4233V15.8682H7.37431V17.4233H6Z" fill="black"/>
<path d="M7.12394 17.4233V15.8682H8.49824V17.4233H7.12394Z" fill="black"/>
<path d="M8.19148 17.4233V15.8682H9.71886V17.4233H8.19148Z" fill="black"/>
<path d="M9.39195 17.4233V15.8682H10.9193V17.4233H9.39195Z" fill="black"/>
<path d="M10.669 17.4233V15.8682H11.7378V17.4233H10.669Z" fill="black"/>
<path d="M11.7177 17.4233V15.8682H13.092V17.4233H11.7177Z" fill="black"/>
<path d="M12.7651 17.4233V15.8682H13.8339V17.4233H12.7651Z" fill="black"/>
<path d="M13.6608 17.4233V15.8682H15.1882V17.4233H13.6608Z" fill="black"/>
<path d="M14.8612 17.4233V15.8682H15.4722V17.4233H14.8612Z" fill="black"/>
<path d="M15.4508 17.4233V15.8682H16.8251V17.4233H15.4508Z" fill="black"/>
<path d="M16.6512 17.4233V15.8682H18.1786V17.4233H16.6512Z" fill="black"/>
<path d="M17.8517 17.4233V15.8682H19.3791V17.4233H17.8517Z" fill="black"/>
<path d="M19.3583 17.4233V15.8682H20.5796V17.4233H19.3583Z" fill="black"/>
<path d="M20.4057 17.4233V15.8682H21.4746V17.4233H20.4057Z" fill="black"/>
<path d="M21.1483 17.4233V15.8682H22.2172V17.4233H21.1483Z" fill="black"/>
<path d="M22.044 17.4233V15.8682H23.5714V17.4233H22.044Z" fill="black"/>
<path d="M23.321 17.4233V15.8682H24.3898V17.4233H23.321Z" fill="black"/>
<path d="M24.0636 17.4233V15.8682H25.1324V17.4233H24.0636Z" fill="black"/>
<path d="M25.1124 17.4233V15.8682H26.3336V17.4233H25.1124Z" fill="black"/>
<path d="M26.3128 17.4233V15.8682H27.6871V17.4233H26.3128Z" fill="black"/>
<path d="M27.5133 17.4233V15.8682H28.8876V17.4233H27.5133Z" fill="black"/>
<path d="M28.6762 17.4233V15.8682H29.2871V17.4233H28.6762Z" fill="black"/>
<path d="M6 20.4233V18.8682H7.37431V20.4233H6Z" fill="black"/>
<path d="M7.06754 20.4233V18.8682H8.59492V20.4233H7.06754Z" fill="black"/>
<path d="M8.26802 20.4233V18.8682H10.2539V20.4233H8.26802Z" fill="black"/>
<path d="M10.156 20.4233V18.8682H11.6834V20.4233H10.156Z" fill="black"/>
<path d="M11.433 20.4233V18.8682H12.5018V20.4233H11.433Z" fill="black"/>
<path d="M12.4817 20.4233V18.8682H13.856V20.4233H12.4817Z" fill="black"/>
<path d="M13.6822 20.4233V18.8682H15.0565V20.4233H13.6822Z" fill="black"/>
<path d="M14.8451 20.4233V18.8682H15.456V20.4233H14.8451Z" fill="black"/>
<path d="M15.4346 20.4233V18.8682H16.6558V20.4233H15.4346Z" fill="black"/>
<path d="M16.6351 20.4233V18.8682H18.0094V20.4233H16.6351Z" fill="black"/>
<path d="M17.759 20.4233V18.8682H19.2864V20.4233H17.759Z" fill="black"/>
<path d="M19.1126 20.4233V18.8682H20.4869V20.4233H19.1126Z" fill="black"/>
<path d="M20.313 20.4233V18.8682H21.0764V20.4233H20.313Z" fill="black"/>
<path d="M20.826 20.4233V18.8682H21.5894V20.4233H20.826Z" fill="black"/>
<path d="M6.30548 8.31875H32.6939V8.38848H6.30548V8.31875ZM6.30548 11.3187H29.3188V11.3885H6.30548V11.3187ZM6.30548 14.3187H31.1919V14.3885H6.30548V14.3187ZM6.30548 17.3188H28.981V17.3885H6.30548V17.3188ZM6.30548 20.3188H21.776V20.3885H6.30548V20.3188Z" fill="black"/>
</g>
</g>
<path d="M11.3333 31.4238H2V37.7719H11.3333V31.4238Z" fill="#E1C278"/>
</g>
<defs>
<filter id="filter0_d_39_124700" x="0" y="1.86816" width="39" height="27.5557" filterUnits="userSpaceOnUse" color-interpolation-filters="sRGB">
<feFlood flood-opacity="0" result="BackgroundImageFix"/>
<feColorMatrix in="SourceAlpha" type="matrix" values="0 0 0 0 0 0 0 0 0 0 0 0 0 0 0 0 0 0 127 0" result="hardAlpha"/>
<feOffset dy="1"/>
<feGaussianBlur stdDeviation="1"/>
<feComposite in2="hardAlpha" operator="out"/>
<feColorMatrix type="matrix" values="0 0 0 0 0 0 0 0 0 0 0 0 0 0 0 0 0 0 0.1 0"/>
<feBlend mode="normal" in2="BackgroundImageFix" result="effect1_dropShadow_39_124700"/>
<feBlend mode="normal" in="SourceGraphic" in2="effect1_dropShadow_39_124700" result="shape"/>
</filter>
<clipPath id="clip0_39_124700">
<rect width="39" height="38.9033" fill="white" transform="translate(0 0.868164)"/>
</clipPath>
</defs>
</svg>
