<svg width="39" height="82" viewBox="0 0 39 82" fill="none" xmlns="http://www.w3.org/2000/svg">
<rect width="39" height="82" fill=""/>
<rect width="35" height="65.5552" transform="translate(2 2.99512)" fill="white"/>
<g opacity="0.3">
<path d="M6 8.55029V6.99512H6.76652V8.55029H6Z" fill="black"/>
<path d="M6.59197 8.55029V6.99512H8.12568V8.55029H6.59197Z" fill="black"/>
<path d="M7.95112 8.55029V6.99512H9.48483V8.55029H7.95112Z" fill="black"/>
<path d="M9.31028 8.55029V6.99512H10.844V8.55029H9.31028Z" fill="black"/>
<path d="M10.5157 8.55029V6.99512H11.1292V8.55029H10.5157Z" fill="black"/>
<path d="M10.954 8.55029V6.99512H12.6414V8.55029H10.954Z" fill="black"/>
<path d="M12.5046 8.55029V6.99512H13.8846V8.55029H12.5046Z" fill="black"/>
<path d="M13.7101 8.55029V6.99512H14.7833V8.55029H13.7101Z" fill="black"/>
<path d="M14.6094 8.55029V6.99512H15.6827V8.55029H14.6094Z" fill="black"/>
<path d="M15.3551 8.55029V6.99512H16.8888V8.55029H15.3551Z" fill="black"/>
<path d="M16.5606 8.55029V6.99512H18.0943V8.55029H16.5606Z" fill="black"/>
<path d="M17.8429 8.55029V6.99512H18.4563V8.55029H17.8429Z" fill="black"/>
<path d="M18.2811 8.55029V6.99512H19.6611V8.55029H18.2811Z" fill="black"/>
<path d="M19.5634 8.55029V6.99512H20.6367V8.55029H19.5634Z" fill="black"/>
<path d="M20.3091 8.55029V6.99512H21.8428V8.55029H20.3091Z" fill="black"/>
<path d="M21.5914 8.55029V6.99512H22.6647V8.55029H21.5914Z" fill="black"/>
<path d="M22.3371 8.55029V6.99512H23.8708V8.55029H22.3371Z" fill="black"/>
<path d="M23.5425 8.55029V6.99512H24.9225V8.55029H23.5425Z" fill="black"/>
<path d="M24.7102 8.55029V6.99512H25.3237V8.55029H24.7102Z" fill="black"/>
<path d="M25.1485 8.55029V6.99512H26.6822V8.55029H25.1485Z" fill="black"/>
<path d="M26.5845 8.55029V6.99512H27.9645V8.55029H26.5845Z" fill="black"/>
<path d="M27.7899 8.55029V6.99512H29.3237V8.55029H27.7899Z" fill="black"/>
<path d="M29.0722 8.55029V6.99512H29.6857V8.55029H29.0722Z" fill="black"/>
<path d="M6 11.5503V9.99512H7.07326V11.5503H6Z" fill="black"/>
<path d="M6.74567 11.5503V9.99512H8.27938V11.5503H6.74567Z" fill="black"/>
<path d="M8.10483 11.5503V9.99512H9.63854V11.5503H8.10483Z" fill="black"/>
<path d="M9.31028 11.5503V9.99512H9.92377V11.5503H9.31028Z" fill="black"/>
<path d="M9.74854 11.5503V9.99512H11.436V11.5503H9.74854Z" fill="black"/>
<path d="M11.0699 11.5503V9.99512H12.6037V11.5503H11.0699Z" fill="black"/>
<path d="M12.4291 11.5503V9.99512H13.8091V11.5503H12.4291Z" fill="black"/>
<path d="M13.6548 11.5503V9.99512H14.8811V11.5503H13.6548Z" fill="black"/>
<path d="M14.8602 11.5503V9.99512H16.2402V11.5503H14.8602Z" fill="black"/>
<path d="M15.9888 11.5503V9.99512H17.5225V11.5503H15.9888Z" fill="black"/>
<path d="M17.1943 11.5503V9.99512H18.728V11.5503H17.1943Z" fill="black"/>
<path d="M18.6303 11.5503V9.99512H20.0103V11.5503H18.6303Z" fill="black"/>
<path d="M19.8357 11.5503V9.99512H20.4492V11.5503H19.8357Z" fill="black"/>
<path d="M20.274 11.5503V9.99512H21.9614V11.5503H20.274Z" fill="black"/>
<path d="M21.8246 11.5503V9.99512H23.2046V11.5503H21.8246Z" fill="black"/>
<path d="M23.0301 11.5503V9.99512H24.1033V11.5503H23.0301Z" fill="black"/>
<path d="M24.0831 11.5503V9.99512H25.3094V11.5503H24.0831Z" fill="black"/>
<path d="M25.2886 11.5503V9.99512H26.6686V11.5503H25.2886Z" fill="black"/>
<path d="M26.494 11.5503V9.99512H27.1075V11.5503H26.494Z" fill="black"/>
<path d="M6 14.5503V12.9951H7.38V14.5503H6Z" fill="black"/>
<path d="M7.1677 14.5503V12.9951H8.24096V14.5503H7.1677Z" fill="black"/>
<path d="M7.91337 14.5503V12.9951H9.44708V14.5503H7.91337Z" fill="black"/>
<path d="M9.34938 14.5503V12.9951H10.7294V14.5503H9.34938Z" fill="black"/>
<path d="M10.5548 14.5503V12.9951H12.0885V14.5503H10.5548Z" fill="black"/>
<path d="M11.8371 14.5503V12.9951H12.4506V14.5503H11.8371Z" fill="black"/>
<path d="M12.2754 14.5503V12.9951H13.6554V14.5503H12.2754Z" fill="black"/>
<path d="M13.3474 14.5503V12.9951H14.8811V14.5503H13.3474Z" fill="black"/>
<path d="M14.5528 14.5503V12.9951H16.0865V14.5503H14.5528Z" fill="black"/>
<path d="M15.8351 14.5503V12.9951H17.3688V14.5503H15.8351Z" fill="black"/>
<path d="M17.1943 14.5503V12.9951H18.5743V14.5503H17.1943Z" fill="black"/>
<path d="M18.3229 14.5503V12.9951H18.9363V14.5503H18.3229Z" fill="black"/>
<path d="M18.7611 14.5503V12.9951H19.8344V14.5503H18.7611Z" fill="black"/>
<path d="M19.6605 14.5503V12.9951H20.8868V14.5503H19.6605Z" fill="black"/>
<path d="M20.7122 14.5503V12.9951H21.3257V14.5503H20.7122Z" fill="black"/>
<path d="M21.1505 14.5503V12.9951H23.2977V14.5503H21.1505Z" fill="black"/>
<path d="M23.2 14.5503V12.9951H24.4263V14.5503H23.2Z" fill="black"/>
<path d="M24.2517 14.5503V12.9951H25.6317V14.5503H24.2517Z" fill="black"/>
<path d="M25.3237 14.5503V12.9951H26.8574V14.5503H25.3237Z" fill="black"/>
<path d="M26.6451 14.5503V12.9951H27.2586V14.5503H26.6451Z" fill="black"/>
<path d="M27.0834 14.5503V12.9951H29.2306V14.5503H27.0834Z" fill="black"/>
<path d="M28.9792 14.5503V12.9951H30.0524V14.5503H28.9792Z" fill="black"/>
<path d="M29.8785 14.5503V12.9951H30.9518V14.5503H29.8785Z" fill="black"/>
<path d="M30.6242 14.5503V12.9951H32.1579V14.5503H30.6242Z" fill="black"/>
<path d="M31.9834 14.5503V12.9951H32.5969V14.5503H31.9834Z" fill="black"/>
<path d="M6.15371 17.5503V15.9951H7.38V17.5503H6.15371Z" fill="black"/>
<path d="M7.20545 17.5503V15.9951H8.27871V17.5503H7.20545Z" fill="black"/>
<path d="M7.95112 17.5503V15.9951H9.48483V17.5503H7.95112Z" fill="black"/>
<path d="M9.31028 17.5503V15.9951H10.844V17.5503H9.31028Z" fill="black"/>
<path d="M10.5157 17.5503V15.9951H11.8957V17.5503H10.5157Z" fill="black"/>
<path d="M11.5877 17.5503V15.9951H12.9677V17.5503H11.5877Z" fill="black"/>
<path d="M12.7554 17.5503V15.9951H13.3689V17.5503H12.7554Z" fill="black"/>
<path d="M13.1937 17.5503V15.9951H14.2669V17.5503H13.1937Z" fill="black"/>
<path d="M14.2467 17.5503V15.9951H15.6267V17.5503H14.2467Z" fill="black"/>
<path d="M15.4522 17.5503V15.9951H16.0657V17.5503H15.4522Z" fill="black"/>
<path d="M15.8904 17.5503V15.9951H18.0376V17.5503H15.8904Z" fill="black"/>
<path d="M17.7862 17.5503V15.9951H19.3199V17.5503H17.7862Z" fill="black"/>
<path d="M18.9917 17.5503V15.9951H20.0649V17.5503H18.9917Z" fill="black"/>
<path d="M19.8911 17.5503V15.9951H21.2711V17.5503H19.8911Z" fill="black"/>
<path d="M21.1734 17.5503V15.9951H22.3997V17.5503H21.1734Z" fill="black"/>
<path d="M22.2251 17.5503V15.9951H24.2193V17.5503H22.2251Z" fill="black"/>
<path d="M24.1209 17.5503V15.9951H25.1942V17.5503H24.1209Z" fill="black"/>
<path d="M25.174 17.5503V15.9951H26.554V17.5503H25.174Z" fill="black"/>
<path d="M26.3794 17.5503V15.9951H27.9131V17.5503H26.3794Z" fill="black"/>
<path d="M27.7386 17.5503V15.9951H28.3521V17.5503H27.7386Z" fill="black"/>
<path d="M28.1769 17.5503V15.9951H29.2501V17.5503H28.1769Z" fill="black"/>
<path d="M29.2299 17.5503V15.9951H30.6099V17.5503H29.2299Z" fill="black"/>
<path d="M30.4354 17.5503V15.9951H31.5087V17.5503H30.4354Z" fill="black"/>
<path d="M31.3348 17.5503V15.9951H32.5611V17.5503H31.3348Z" fill="black"/>
<path d="M32.3865 17.5503V15.9951H33V17.5503H32.3865Z" fill="black"/>
<path d="M6 20.5503V18.9951H7.07326V20.5503H6Z" fill="black"/>
<path d="M6.74567 20.5503V18.9951H8.27938V20.5503H6.74567Z" fill="black"/>
<path d="M8.10483 20.5503V18.9951H9.63854V20.5503H8.10483Z" fill="black"/>
<path d="M9.31028 20.5503V18.9951H9.92377V20.5503H9.31028Z" fill="black"/>
<path d="M9.74854 20.5503V18.9951H10.8218V20.5503H9.74854Z" fill="black"/>
<path d="M10.8016 20.5503V18.9951H12.1816V20.5503H10.8016Z" fill="black"/>
<path d="M12.0071 20.5503V18.9951H13.0803V20.5503H12.0071Z" fill="black"/>
<path d="M12.7528 20.5503V18.9951H14.2865V20.5503H12.7528Z" fill="black"/>
<path d="M13.9582 20.5503V18.9951H15.3382V20.5503H13.9582Z" fill="black"/>
<path d="M15.1839 20.5503V18.9951H16.5639V20.5503H15.1839Z" fill="black"/>
<path d="M16.3893 20.5503V18.9951H17.923V20.5503H16.3893Z" fill="black"/>
<path d="M17.6716 20.5503V18.9951H18.7449V20.5503H17.6716Z" fill="black"/>
<path d="M18.4173 20.5503V18.9951H19.4906V20.5503H18.4173Z" fill="black"/>
<path d="M19.4704 20.5503V18.9951H20.6967V20.5503H19.4704Z" fill="black"/>
<path d="M20.6758 20.5503V18.9951H22.0558V20.5503H20.6758Z" fill="black"/>
<path d="M21.8813 20.5503V18.9951H23.415V20.5503H21.8813Z" fill="black"/>
<path d="M23.1636 20.5503V18.9951H24.2369V20.5503H23.1636Z" fill="black"/>
<path d="M24.063 20.5503V18.9951H24.6765V20.5503H24.063Z" fill="black"/>
<path d="M6 23.5503V21.9951H7.38V23.5503H6Z" fill="black"/>
<path d="M7.2823 23.5503V21.9951H8.5086V23.5503H7.2823Z" fill="black"/>
<path d="M8.33405 23.5503V21.9951H10.3282V23.5503H8.33405Z" fill="black"/>
<path d="M10.2298 23.5503V21.9951H12.224V23.5503H10.2298Z" fill="black"/>
<path d="M12.1256 23.5503V21.9951H13.6593V23.5503H12.1256Z" fill="black"/>
<path d="M13.6385 23.5503V21.9951H15.0185V23.5503H13.6385Z" fill="black"/>
<path d="M14.8439 23.5503V21.9951H15.9172V23.5503H14.8439Z" fill="black"/>
<path d="M15.7433 23.5503V21.9951H16.8166V23.5503H15.7433Z" fill="black"/>
<path d="M16.6427 23.5503V21.9951H18.0227V23.5503H16.6427Z" fill="black"/>
<path d="M17.7713 23.5503V21.9951H18.3848V23.5503H17.7713Z" fill="black"/>
<path d="M18.2096 23.5503V21.9951H19.7433V23.5503H18.2096Z" fill="black"/>
<path d="M19.4919 23.5503V21.9951H20.1053V23.5503H19.4919Z" fill="black"/>
<path d="M19.9301 23.5503V21.9951H21.6175V23.5503H19.9301Z" fill="black"/>
<path d="M21.4619 23.5503V21.9951H22.6882V23.5503H21.4619Z" fill="black"/>
<path d="M22.5136 23.5503V21.9951H23.8936V23.5503H22.5136Z" fill="black"/>
<path d="M23.5856 23.5503V21.9951H24.6588V23.5503H23.5856Z" fill="black"/>
<path d="M24.3312 23.5503V21.9951H25.8649V23.5503H24.3312Z" fill="black"/>
<path d="M25.6904 23.5503V21.9951H26.3039V23.5503H25.6904Z" fill="black"/>
<path d="M26.1287 23.5503V21.9951H27.8161V23.5503H26.1287Z" fill="black"/>
<path d="M27.7184 23.5503V21.9951H28.9447V23.5503H27.7184Z" fill="black"/>
<path d="M28.7701 23.5503V21.9951H30.1501V23.5503H28.7701Z" fill="black"/>
<path d="M29.8421 23.5503V21.9951H31.3758V23.5503H29.8421Z" fill="black"/>
<path d="M31.0475 23.5503V21.9951H32.5812V23.5503H31.0475Z" fill="black"/>
<path d="M32.3298 23.5503V21.9951H32.9433V23.5503H32.3298Z" fill="black"/>
<path d="M6 26.5503V24.9951H7.07326V26.5503H6Z" fill="black"/>
<path d="M6.74567 26.5503V24.9951H8.27938V26.5503H6.74567Z" fill="black"/>
<path d="M8.10483 26.5503V24.9951H9.63854V26.5503H8.10483Z" fill="black"/>
<path d="M9.38713 26.5503V24.9951H10.4604V26.5503H9.38713Z" fill="black"/>
<path d="M10.1328 26.5503V24.9951H10.7463V26.5503H10.1328Z" fill="black"/>
<path d="M10.5711 26.5503V24.9951H12.1048V26.5503H10.5711Z" fill="black"/>
<path d="M12.0071 26.5503V24.9951H13.3871V26.5503H12.0071Z" fill="black"/>
<path d="M13.0588 26.5503V24.9951H14.5925V26.5503H13.0588Z" fill="black"/>
<path d="M14.4948 26.5503V24.9951H15.8748V26.5503H14.4948Z" fill="black"/>
<path d="M15.7003 26.5503V24.9951H17.234V26.5503H15.7003Z" fill="black"/>
<path d="M17.1363 26.5503V24.9951H18.3626V26.5503H17.1363Z" fill="black"/>
<path d="M18.3417 26.5503V24.9951H19.7217V26.5503H18.3417Z" fill="black"/>
<path d="M19.5472 26.5503V24.9951H20.9272V26.5503H19.5472Z" fill="black"/>
<path d="M20.7149 26.5503V24.9951H21.3284V26.5503H20.7149Z" fill="black"/>
<path d="M21.1531 26.5503V24.9951H22.2264V26.5503H21.1531Z" fill="black"/>
<path d="M22.0525 26.5503V24.9951H23.1258V26.5503H22.0525Z" fill="black"/>
<path d="M22.7982 26.5503V24.9951H24.1782V26.5503H22.7982Z" fill="black"/>
<path d="M23.9659 26.5503V24.9951H24.5794V26.5503H23.9659Z" fill="black"/>
<path d="M24.5579 26.5503V24.9951H25.9379V26.5503H24.5579Z" fill="black"/>
<path d="M25.6865 26.5503V24.9951H27.2202V26.5503H25.6865Z" fill="black"/>
<path d="M27.0456 26.5503V24.9951H28.4256V26.5503H27.0456Z" fill="black"/>
<path d="M28.1176 26.5503V24.9951H29.4976V26.5503H28.1176Z" fill="black"/>
<path d="M29.2853 26.5503V24.9951H30.819V26.5503H29.2853Z" fill="black"/>
<path d="M30.6444 26.5503V24.9951H31.7177V26.5503H30.6444Z" fill="black"/>
<path d="M31.5438 26.5503V24.9951H32.6171V26.5503H31.5438Z" fill="black"/>
<path d="M32.2895 26.5503V24.9951H32.903V26.5503H32.2895Z" fill="black"/>
<path d="M6.15371 29.5503V27.9951H7.38V29.5503H6.15371Z" fill="black"/>
<path d="M7.20545 29.5503V27.9951H8.43242V29.5503H7.20545Z" fill="black"/>
<path d="M8.10483 29.5503V27.9951H8.71832V29.5503H8.10483Z" fill="black"/>
<path d="M8.54309 29.5503V27.9951H10.6903V29.5503H8.54309Z" fill="black"/>
<path d="M10.4389 29.5503V27.9951H11.9726V29.5503H10.4389Z" fill="black"/>
<path d="M11.6443 29.5503V27.9951H13.178V29.5503H11.6443Z" fill="black"/>
<path d="M13.0803 29.5503V27.9951H14.4603V29.5503H13.0803Z" fill="black"/>
<path d="M14.3626 29.5503V27.9951H15.5889V29.5503H14.3626Z" fill="black"/>
<path d="M15.5681 29.5503V27.9951H16.9481V29.5503H15.5681Z" fill="black"/>
<path d="M16.7735 29.5503V27.9951H18.1535V29.5503H16.7735Z" fill="black"/>
<path d="M17.9412 29.5503V27.9951H18.5547V29.5503H17.9412Z" fill="black"/>
<path d="M18.5332 29.5503V27.9951H19.7595V29.5503H18.5332Z" fill="black"/>
<path d="M19.5849 29.5503V27.9951H20.8119V29.5503H19.5849Z" fill="black"/>
<path d="M20.4843 29.5503V27.9951H21.0978V29.5503H20.4843Z" fill="black"/>
<path d="M20.9226 29.5503V27.9951H22.9167V29.5503H20.9226Z" fill="black"/>
<path d="M22.8184 29.5503V27.9951H24.3521V29.5503H22.8184Z" fill="black"/>
<path d="M24.1007 29.5503V27.9951H25.4807V29.5503H24.1007Z" fill="black"/>
<path d="M25.2684 29.5503V27.9951H26.6484V29.5503H25.2684Z" fill="black"/>
<path d="M26.4361 29.5503V27.9951H27.0496V29.5503H26.4361Z" fill="black"/>
<path d="M6 32.5503V30.9951H7.53371V32.5503H6Z" fill="black"/>
<path d="M7.2823 32.5503V30.9951H8.81601V32.5503H7.2823Z" fill="black"/>
<path d="M8.48775 32.5503V30.9951H9.86776V32.5503H8.48775Z" fill="black"/>
<path d="M9.65545 32.5503V30.9951H10.7287V32.5503H9.65545Z" fill="black"/>
<path d="M10.4011 32.5503V30.9951H11.7811V32.5503H10.4011Z" fill="black"/>
<path d="M11.4731 32.5503V30.9951H13.0068V32.5503H11.4731Z" fill="black"/>
<path d="M12.8322 32.5503V30.9951H14.2123V32.5503H12.8322Z" fill="black"/>
<path d="M13.9608 32.5503V30.9951H15.0341V32.5503H13.9608Z" fill="black"/>
<path d="M14.7065 32.5503V30.9951H15.7798V32.5503H14.7065Z" fill="black"/>
<path d="M15.7596 32.5503V30.9951H16.9859V32.5503H15.7596Z" fill="black"/>
<path d="M16.9651 32.5503V30.9951H18.3451V32.5503H16.9651Z" fill="black"/>
<path d="M18.1705 32.5503V30.9951H18.784V32.5503H18.1705Z" fill="black"/>
<path d="M18.6088 32.5503V30.9951H20.1425V32.5503H18.6088Z" fill="black"/>
<path d="M20.0448 32.5503V30.9951H21.4248V32.5503H20.0448Z" fill="black"/>
<path d="M21.2502 32.5503V30.9951H22.7839V32.5503H21.2502Z" fill="black"/>
<path d="M22.5325 32.5503V30.9951H23.146V32.5503H22.5325Z" fill="black"/>
<path d="M23.1245 32.5503V30.9951H24.5045V32.5503H23.1245Z" fill="black"/>
<path d="M24.4068 32.5503V30.9951H25.6331V32.5503H24.4068Z" fill="black"/>
<path d="M25.4585 32.5503V30.9951H26.5318V32.5503H25.4585Z" fill="black"/>
<path d="M26.3579 32.5503V30.9951H27.4312V32.5503H26.3579Z" fill="black"/>
<path d="M27.2573 32.5503V30.9951H28.6373V32.5503H27.2573Z" fill="black"/>
<path d="M28.5396 32.5503V30.9951H29.9196V32.5503H28.5396Z" fill="black"/>
<path d="M29.6682 32.5503V30.9951H30.2817V32.5503H29.6682Z" fill="black"/>
<path d="M30.2602 32.5503V30.9951H31.4865V32.5503H30.2602Z" fill="black"/>
<path d="M31.3119 32.5503V30.9951H32.5389V32.5503H31.3119Z" fill="black"/>
<path d="M32.2113 32.5503V30.9951H32.8248V32.5503H32.2113Z" fill="black"/>
<path d="M6 35.5503V33.9951H7.07326V35.5503H6Z" fill="black"/>
<path d="M6.74567 35.5503V33.9951H8.27938V35.5503H6.74567Z" fill="black"/>
<path d="M8.10483 35.5503V33.9951H9.48483V35.5503H8.10483Z" fill="black"/>
<path d="M9.1768 35.5503V33.9951H10.7105V35.5503H9.1768Z" fill="black"/>
<path d="M10.3822 35.5503V33.9951H11.916V35.5503H10.3822Z" fill="black"/>
<path d="M11.6646 35.5503V33.9951H12.7378V35.5503H11.6646Z" fill="black"/>
<path d="M12.4102 35.5503V33.9951H13.7902V35.5503H12.4102Z" fill="black"/>
<path d="M13.5779 35.5503V33.9951H14.1914V35.5503H13.5779Z" fill="black"/>
<path d="M14.0162 35.5503V33.9951H15.5499V35.5503H14.0162Z" fill="black"/>
<path d="M15.2985 35.5503V33.9951H16.3717V35.5503H15.2985Z" fill="black"/>
<path d="M16.1979 35.5503V33.9951H18.192V35.5503H16.1979Z" fill="black"/>
<path d="M18.0937 35.5503V33.9951H19.6274V35.5503H18.0937Z" fill="black"/>
<path d="M19.2991 35.5503V33.9951H20.8328V35.5503H19.2991Z" fill="black"/>
<path d="M20.5814 35.5503V33.9951H21.1949V35.5503H20.5814Z" fill="black"/>
<path d="M21.0197 35.5503V33.9951H22.5534V35.5503H21.0197Z" fill="black"/>
<path d="M22.302 35.5503V33.9951H23.3752V35.5503H22.302Z" fill="black"/>
<path d="M23.0476 35.5503V33.9951H23.6611V35.5503H23.0476Z" fill="black"/>
<path d="M23.4859 35.5503V33.9951H24.5592V35.5503H23.4859Z" fill="black"/>
<path d="M24.3853 35.5503V33.9951H25.4585V35.5503H24.3853Z" fill="black"/>
<path d="M25.131 35.5503V33.9951H26.511V35.5503H25.131Z" fill="black"/>
<path d="M26.2986 35.5503V33.9951H26.9121V35.5503H26.2986Z" fill="black"/>
<path d="M6.15371 38.5503V36.9951H7.53371V38.5503H6.15371Z" fill="black"/>
<path d="M7.35916 38.5503V36.9951H8.89287V38.5503H7.35916Z" fill="black"/>
<path d="M8.56461 38.5503V36.9951H9.63787V38.5503H8.56461Z" fill="black"/>
<path d="M9.46399 38.5503V36.9951H10.9977V38.5503H9.46399Z" fill="black"/>
<path d="M10.8231 38.5503V36.9951H12.3569V38.5503H10.8231Z" fill="black"/>
<path d="M12.336 38.5503V36.9951H13.716V38.5503H12.336Z" fill="black"/>
<path d="M13.5415 38.5503V36.9951H14.7678V38.5503H13.5415Z" fill="black"/>
<path d="M14.5932 38.5503V36.9951H15.9732V38.5503H14.5932Z" fill="black"/>
<path d="M15.6652 38.5503V36.9951H17.0452V38.5503H15.6652Z" fill="black"/>
<path d="M16.8329 38.5503V36.9951H17.4464V38.5503H16.8329Z" fill="black"/>
<path d="M17.2711 38.5503V36.9951H18.8048V38.5503H17.2711Z" fill="black"/>
<path d="M18.7071 38.5503V36.9951H20.0871V38.5503H18.7071Z" fill="black"/>
<path d="M19.9126 38.5503V36.9951H21.4463V38.5503H19.9126Z" fill="black"/>
<path d="M21.1949 38.5503V36.9951H21.8084V38.5503H21.1949Z" fill="black"/>
<path d="M21.6331 38.5503V36.9951H22.7064V38.5503H21.6331Z" fill="black"/>
<path d="M22.3788 38.5503V36.9951H23.9125V38.5503H22.3788Z" fill="black"/>
<path d="M23.738 38.5503V36.9951H25.2717V38.5503H23.738Z" fill="black"/>
<path d="M25.0203 38.5503V36.9951H26.0935V38.5503H25.0203Z" fill="black"/>
<path d="M25.766 38.5503V36.9951H26.3794V38.5503H25.766Z" fill="black"/>
<path d="M6.15371 41.5503V39.9951H7.53371V41.5503H6.15371Z" fill="black"/>
<path d="M7.2823 41.5503V39.9951H8.66231V41.5503H7.2823Z" fill="black"/>
<path d="M8.50798 41.5503V39.9951H9.73427V41.5503H8.50798Z" fill="black"/>
<path d="M9.55972 41.5503V39.9951H10.633V41.5503H9.55972Z" fill="black"/>
<path d="M10.3054 41.5503V39.9951H11.8391V41.5503H10.3054Z" fill="black"/>
<path d="M11.5108 41.5503V39.9951H12.8908V41.5503H11.5108Z" fill="black"/>
<path d="M12.6394 41.5503V39.9951H13.7127V41.5503H12.6394Z" fill="black"/>
<path d="M13.3851 41.5503V39.9951H14.7651V41.5503H13.3851Z" fill="black"/>
<path d="M14.5528 41.5503V39.9951H15.1663V41.5503H14.5528Z" fill="black"/>
<path d="M14.9911 41.5503V39.9951H16.0643V41.5503H14.9911Z" fill="black"/>
<path d="M15.7367 41.5503V39.9951H17.2704V41.5503H15.7367Z" fill="black"/>
<path d="M17.0959 41.5503V39.9951H18.6296V41.5503H17.0959Z" fill="black"/>
<path d="M18.3013 41.5503V39.9951H18.9148V41.5503H18.3013Z" fill="black"/>
<path d="M18.7396 41.5503V39.9951H20.1196V41.5503H18.7396Z" fill="black"/>
<path d="M19.8116 41.5503V39.9951H20.8848V41.5503H19.8116Z" fill="black"/>
<path d="M20.711 41.5503V39.9951H22.2447V41.5503H20.711Z" fill="black"/>
<path d="M22.0701 41.5503V39.9951H23.6038V41.5503H22.0701Z" fill="black"/>
<path d="M23.4293 41.5503V39.9951H24.5025V41.5503H23.4293Z" fill="black"/>
<path d="M24.1749 41.5503V39.9951H25.5549V41.5503H24.1749Z" fill="black"/>
<path d="M25.3426 41.5503V39.9951H25.9561V41.5503H25.3426Z" fill="black"/>
<path d="M25.9346 41.5503V39.9951H27.1609V41.5503H25.9346Z" fill="black"/>
<path d="M26.9863 41.5503V39.9951H28.2133V41.5503H26.9863Z" fill="black"/>
<path d="M27.8857 41.5503V39.9951H28.4992V41.5503H27.8857Z" fill="black"/>
<path d="M28.324 41.5503V39.9951H29.3972V41.5503H28.324Z" fill="black"/>
<path d="M29.2234 41.5503V39.9951H30.2966V41.5503H29.2234Z" fill="black"/>
<path d="M29.969 41.5503V39.9951H31.349V41.5503H29.969Z" fill="black"/>
<path d="M31.1367 41.5503V39.9951H31.7502V41.5503H31.1367Z" fill="black"/>
<path d="M6.15371 44.5503V42.9951H7.53371V44.5503H6.15371Z" fill="black"/>
<path d="M7.2823 44.5503V42.9951H8.81601V44.5503H7.2823Z" fill="black"/>
<path d="M8.64146 44.5503V42.9951H9.86776V44.5503H8.64146Z" fill="black"/>
<path d="M9.84691 44.5503V42.9951H11.2269V44.5503H9.84691Z" fill="black"/>
<path d="M10.9755 44.5503V42.9951H12.0488V44.5503H10.9755Z" fill="black"/>
<path d="M11.8749 44.5503V42.9951H13.4086V44.5503H11.8749Z" fill="black"/>
<path d="M13.0803 44.5503V42.9951H13.8469V44.5503H13.0803Z" fill="black"/>
<path d="M13.5954 44.5503V42.9951H14.2089V44.5503H13.5954Z" fill="black"/>
<path d="M14.0337 44.5503V42.9951H15.4137V44.5503H14.0337Z" fill="black"/>
<path d="M15.316 44.5503V42.9951H16.8497V44.5503H15.316Z" fill="black"/>
<path d="M16.6752 44.5503V42.9951H18.0552V44.5503H16.6752Z" fill="black"/>
<path d="M17.8038 44.5503V42.9951H19.3375V44.5503H17.8038Z" fill="black"/>
<path d="M19.1629 44.5503V42.9951H19.7764V44.5503H19.1629Z" fill="black"/>
<path d="M19.6012 44.5503V42.9951H21.1349V44.5503H19.6012Z" fill="black"/>
<path d="M20.8835 44.5503V42.9951H21.497V44.5503H20.8835Z" fill="black"/>
<path d="M21.3217 44.5503V42.9951H23.0092V44.5503H21.3217Z" fill="black"/>
<path d="M22.8535 44.5503V42.9951H24.0798V44.5503H22.8535Z" fill="black"/>
<path d="M23.9052 44.5503V42.9951H25.2852V44.5503H23.9052Z" fill="black"/>
<path d="M24.9772 44.5503V42.9951H26.0504V44.5503H24.9772Z" fill="black"/>
<path d="M25.7229 44.5503V42.9951H27.2566V44.5503H25.7229Z" fill="black"/>
<path d="M27.082 44.5503V42.9951H27.6955V44.5503H27.082Z" fill="black"/>
<path d="M6 47.5503V45.9951H7.68742V47.5503H6Z" fill="black"/>
<path d="M7.58972 47.5503V45.9951H8.81601V47.5503H7.58972Z" fill="black"/>
<path d="M8.64146 47.5503V45.9951H10.0215V47.5503H8.64146Z" fill="black"/>
<path d="M9.71343 47.5503V45.9951H11.2471V47.5503H9.71343Z" fill="black"/>
<path d="M10.9189 47.5503V45.9951H12.4526V47.5503H10.9189Z" fill="black"/>
<path d="M12.2012 47.5503V45.9951H12.8147V47.5503H12.2012Z" fill="black"/>
<path d="M12.6394 47.5503V45.9951H14.0194V47.5503H12.6394Z" fill="black"/>
<path d="M13.9217 47.5503V45.9951H15.148V47.5503H13.9217Z" fill="black"/>
<path d="M14.9735 47.5503V45.9951H16.5072V47.5503H14.9735Z" fill="black"/>
<path d="M16.3326 47.5503V45.9951H17.4059V47.5503H16.3326Z" fill="black"/>
<path d="M17.232 47.5503V45.9951H18.7657V47.5503H17.232Z" fill="black"/>
<path d="M18.5143 47.5503V45.9951H19.1278V47.5503H18.5143Z" fill="black"/>
<path d="M18.9526 47.5503V45.9951H20.3326V47.5503H18.9526Z" fill="black"/>
<path d="M20.1203 47.5503V45.9951H21.654V47.5503H20.1203Z" fill="black"/>
<path d="M21.4794 47.5503V45.9951H23.0131V47.5503H21.4794Z" fill="black"/>
<path d="M22.7617 47.5503V45.9951H24.1417V47.5503H22.7617Z" fill="black"/>
<path d="M23.8337 47.5503V45.9951H25.3674V47.5503H23.8337Z" fill="black"/>
<path d="M25.0392 47.5503V45.9951H25.6526V47.5503H25.0392Z" fill="black"/>
<path d="M25.4774 47.5503V45.9951H26.5507V47.5503H25.4774Z" fill="black"/>
<path d="M26.5305 47.5503V45.9951H27.9105V47.5503H26.5305Z" fill="black"/>
<path d="M27.736 47.5503V45.9951H28.3494V47.5503H27.736Z" fill="black"/>
<path d="M28.1742 47.5503V45.9951H29.2475V47.5503H28.1742Z" fill="black"/>
<path d="M28.9199 47.5503V45.9951H30.4536V47.5503H28.9199Z" fill="black"/>
<path d="M30.279 47.5503V45.9951H31.8128V47.5503H30.279Z" fill="black"/>
<path d="M31.4845 47.5503V45.9951H32.098V47.5503H31.4845Z" fill="black"/>
<path d="M6.15371 50.5503V48.9951H7.53371V50.5503H6.15371Z" fill="black"/>
<path d="M7.2823 50.5503V48.9951H8.66231V50.5503H7.2823Z" fill="black"/>
<path d="M8.50798 50.5503V48.9951H9.73427V50.5503H8.50798Z" fill="black"/>
<path d="M9.55972 50.5503V48.9951H10.9397V50.5503H9.55972Z" fill="black"/>
<path d="M10.8811 50.5503V48.9951H12.2611V50.5503H10.8811Z" fill="black"/>
<path d="M12.0097 50.5503V48.9951H13.5434V50.5503H12.0097Z" fill="black"/>
<path d="M13.2152 50.5503V48.9951H14.5952V50.5503H13.2152Z" fill="black"/>
<path d="M14.2871 50.5503V48.9951H15.3604V50.5503H14.2871Z" fill="black"/>
<path d="M15.1865 50.5503V48.9951H16.2598V50.5503H15.1865Z" fill="black"/>
<path d="M16.0859 50.5503V48.9951H17.4659V50.5503H16.0859Z" fill="black"/>
<path d="M17.2145 50.5503V48.9951H17.828V50.5503H17.2145Z" fill="black"/>
<path d="M17.6528 50.5503V48.9951H19.1865V50.5503H17.6528Z" fill="black"/>
<path d="M19.0888 50.5503V48.9951H20.4688V50.5503H19.0888Z" fill="black"/>
<path d="M20.2942 50.5503V48.9951H21.8279V50.5503H20.2942Z" fill="black"/>
<path d="M21.5765 50.5503V48.9951H22.19V50.5503H21.5765Z" fill="black"/>
<path d="M6 53.5503V51.9951H7.53371V53.5503H6Z" fill="black"/>
<path d="M7.2823 53.5503V51.9951H8.81601V53.5503H7.2823Z" fill="black"/>
<path d="M8.48775 53.5503V51.9951H9.86776V53.5503H8.48775Z" fill="black"/>
<path d="M9.77006 53.5503V51.9951H11.3038V53.5503H9.77006Z" fill="black"/>
<path d="M10.9755 53.5503V51.9951H12.0488V53.5503H10.9755Z" fill="black"/>
<path d="M12.0286 53.5503V51.9951H13.2549V53.5503H12.0286Z" fill="black"/>
<path d="M13.234 53.5503V51.9951H14.614V53.5503H13.234Z" fill="black"/>
<path d="M14.3626 53.5503V51.9951H16.3568V53.5503H14.3626Z" fill="black"/>
<path d="M16.2584 53.5503V51.9951H17.7921V53.5503H16.2584Z" fill="black"/>
<path d="M17.6176 53.5503V51.9951H18.9976V53.5503H17.6176Z" fill="black"/>
<path d="M18.823 53.5503V51.9951H19.8963V53.5503H18.823Z" fill="black"/>
<path d="M19.5687 53.5503V51.9951H20.1822V53.5503H19.5687Z" fill="black"/>
<path d="M20.007 53.5503V51.9951H21.0802V53.5503H20.007Z" fill="black"/>
<path d="M20.7526 53.5503V51.9951H22.2864V53.5503H20.7526Z" fill="black"/>
<path d="M22.1118 53.5503V51.9951H23.6455V53.5503H22.1118Z" fill="black"/>
<path d="M23.3941 53.5503V51.9951H24.4674V53.5503H23.3941Z" fill="black"/>
<path d="M24.1398 53.5503V51.9951H24.7533V53.5503H24.1398Z" fill="black"/>
<path d="M24.578 53.5503V51.9951H25.6513V53.5503H24.578Z" fill="black"/>
<path d="M25.3237 53.5503V51.9951H26.8574V53.5503H25.3237Z" fill="black"/>
<path d="M26.6829 53.5503V51.9951H28.2166V53.5503H26.6829Z" fill="black"/>
<path d="M27.8883 53.5503V51.9951H28.5018V53.5503H27.8883Z" fill="black"/>
<path d="M6 56.5503V54.9951H7.38V56.5503H6Z" fill="black"/>
<path d="M7.07197 56.5503V54.9951H8.60568V56.5503H7.07197Z" fill="black"/>
<path d="M8.27742 56.5503V54.9951H10.2716V56.5503H8.27742Z" fill="black"/>
<path d="M10.1732 56.5503V54.9951H11.7069V56.5503H10.1732Z" fill="black"/>
<path d="M11.4555 56.5503V54.9951H12.5288V56.5503H11.4555Z" fill="black"/>
<path d="M12.5086 56.5503V54.9951H13.8886V56.5503H12.5086Z" fill="black"/>
<path d="M13.714 56.5503V54.9951H15.2478V56.5503H13.714Z" fill="black"/>
<path d="M14.9964 56.5503V54.9951H16.5301V56.5503H14.9964Z" fill="black"/>
<path d="M16.2018 56.5503V54.9951H17.5818V56.5503H16.2018Z" fill="black"/>
<path d="M17.2738 56.5503V54.9951H17.8873V56.5503H17.2738Z" fill="black"/>
<path d="M17.8657 56.5503V54.9951H19.092V56.5503H17.8657Z" fill="black"/>
<path d="M18.9175 56.5503V54.9951H20.1444V56.5503H18.9175Z" fill="black"/>
<path d="M19.8169 56.5503V54.9951H20.4303V56.5503H19.8169Z" fill="black"/>
<path d="M20.4088 56.5503V54.9951H21.7888V56.5503H20.4088Z" fill="black"/>
<path d="M21.768 56.5503V54.9951H22.9943V56.5503H21.768Z" fill="black"/>
<path d="M22.8197 56.5503V54.9951H24.1997V56.5503H22.8197Z" fill="black"/>
<path d="M23.8917 56.5503V54.9951H24.9649V56.5503H23.8917Z" fill="black"/>
<path d="M24.6374 56.5503V54.9951H26.1711V56.5503H24.6374Z" fill="black"/>
<path d="M25.9965 56.5503V54.9951H27.5302V56.5503H25.9965Z" fill="black"/>
<path d="M27.202 56.5503V54.9951H28.7357V56.5503H27.202Z" fill="black"/>
<path d="M28.4843 56.5503V54.9951H29.8643V56.5503H28.4843Z" fill="black"/>
<path d="M29.652 56.5503V54.9951H30.7252V56.5503H29.652Z" fill="black"/>
<path d="M30.3976 56.5503V54.9951H31.0111V56.5503H30.3976Z" fill="black"/>
<path d="M6 59.5503V57.9951H7.68742V59.5503H6Z" fill="black"/>
<path d="M7.43601 59.5503V57.9951H8.81601V59.5503H7.43601Z" fill="black"/>
<path d="M8.60371 59.5503V57.9951H9.67697V59.5503H8.60371Z" fill="black"/>
<path d="M9.50309 59.5503V57.9951H11.0368V59.5503H9.50309Z" fill="black"/>
<path d="M10.7854 59.5503V57.9951H11.3989V59.5503H10.7854Z" fill="black"/>
<path d="M11.2237 59.5503V57.9951H12.7574V59.5503H11.2237Z" fill="black"/>
<path d="M12.5828 59.5503V57.9951H14.1165V59.5503H12.5828Z" fill="black"/>
<path d="M13.8651 59.5503V57.9951H15.2451V59.5503H13.8651Z" fill="black"/>
<path d="M15.0328 59.5503V57.9951H15.6463V59.5503H15.0328Z" fill="black"/>
<path d="M15.4711 59.5503V57.9951H17.0048V59.5503H15.4711Z" fill="black"/>
<path d="M16.7534 59.5503V57.9951H18.1334V59.5503H16.7534Z" fill="black"/>
<path d="M17.882 59.5503V57.9951H19.4157V59.5503H17.882Z" fill="black"/>
<path d="M19.2411 59.5503V57.9951H20.3144V59.5503H19.2411Z" fill="black"/>
<path d="M20.1405 59.5503V57.9951H21.6742V59.5503H20.1405Z" fill="black"/>
<path d="M21.346 59.5503V57.9951H22.726V59.5503H21.346Z" fill="black"/>
<path d="M22.6283 59.5503V57.9951H24.162V59.5503H22.6283Z" fill="black"/>
<path d="M23.8337 59.5503V57.9951H25.3674V59.5503H23.8337Z" fill="black"/>
<path d="M25.116 59.5503V57.9951H25.7295V59.5503H25.116Z" fill="black"/>
<path d="M25.5543 59.5503V57.9951H26.6275V59.5503H25.5543Z" fill="black"/>
<path d="M26.6074 59.5503V57.9951H27.9874V59.5503H26.6074Z" fill="black"/>
<path d="M27.8128 59.5503V57.9951H28.4263V59.5503H27.8128Z" fill="black"/>
<path d="M6 62.5503V60.9951H7.38V62.5503H6Z" fill="black"/>
<path d="M7.07197 62.5503V60.9951H8.60568V62.5503H7.07197Z" fill="black"/>
<path d="M8.27742 62.5503V60.9951H9.65742V62.5503H8.27742Z" fill="black"/>
<path d="M9.40601 62.5503V60.9951H10.9397V62.5503H9.40601Z" fill="black"/>
<path d="M10.7652 62.5503V60.9951H12.1452V62.5503H10.7652Z" fill="black"/>
<path d="M11.9706 62.5503V60.9951H13.0439V62.5503H11.9706Z" fill="black"/>
<path d="M12.7163 62.5503V60.9951H13.3298V62.5503H12.7163Z" fill="black"/>
<path d="M13.3083 62.5503V60.9951H14.6883V62.5503H13.3083Z" fill="black"/>
<path d="M14.4369 62.5503V60.9951H15.9706V62.5503H14.4369Z" fill="black"/>
<path d="M15.6423 62.5503V60.9951H17.176V62.5503H15.6423Z" fill="black"/>
<path d="M16.9246 62.5503V60.9951H18.3046V62.5503H16.9246Z" fill="black"/>
<path d="M17.9966 62.5503V60.9951H19.3766V62.5503H17.9966Z" fill="black"/>
<path d="M19.1643 62.5503V60.9951H19.9308V62.5503H19.1643Z" fill="black"/>
<path d="M19.6794 62.5503V60.9951H20.4459V62.5503H19.6794Z" fill="black"/>
</g>
<rect x="0.5" y="1.49512" width="38" height="68.5552" stroke="#E5592D"/>
<path d="M11.3333 73.5503H2V79.8984H11.3333V73.5503Z" fill="#7FA4CA"/>
</svg>
