<svg width="41" height="121" viewBox="0 0 41 121" fill="none" xmlns="http://www.w3.org/2000/svg">
<rect width="41" height="121" fill=""/>
<rect width="35" height="104.555" transform="translate(3 2.89844)" fill="white"/>
<g opacity="0.3">
<path d="M7 8.45361V6.89844H7.76264V8.45361H7Z" fill="black"/>
<path d="M7.58897 8.45361V6.89844H8.96198V8.45361H7.58897Z" fill="black"/>
<path d="M9.0177 8.45361V6.89844H10.2378V8.45361H9.0177Z" fill="black"/>
<path d="M10.0641 8.45361V6.89844H10.6745V8.45361H10.0641Z" fill="black"/>
<path d="M10.5002 8.45361V6.89844H11.7209V8.45361H10.5002Z" fill="black"/>
<path d="M11.5466 8.45361V6.89844H12.1569V8.45361H11.5466Z" fill="black"/>
<path d="M11.9826 8.45361V6.89844H14.1189V8.45361H11.9826Z" fill="black"/>
<path d="M13.7923 8.45361V6.89844H15.3183V8.45361H13.7923Z" fill="black"/>
<path d="M15.2211 8.45361V6.89844H16.5941V8.45361H15.2211Z" fill="black"/>
<path d="M16.4204 8.45361V6.89844H17.4882V8.45361H16.4204Z" fill="black"/>
<path d="M17.1623 8.45361V6.89844H17.7727V8.45361H17.1623Z" fill="black"/>
<path d="M17.5983 8.45361V6.89844H18.6662V8.45361H17.5983Z" fill="black"/>
<path d="M18.4932 8.45361V6.89844H19.7132V8.45361H18.4932Z" fill="black"/>
<path d="M19.5396 8.45361V6.89844H20.15V8.45361H19.5396Z" fill="black"/>
<path d="M20.1285 8.45361V6.89844H21.5016V8.45361H20.1285Z" fill="black"/>
<path d="M21.175 8.45361V6.89844H22.7009V8.45361H21.175Z" fill="black"/>
<path d="M22.3743 8.45361V6.89844H22.9847V8.45361H22.3743Z" fill="black"/>
<path d="M22.8103 8.45361V6.89844H24.1833V8.45361H22.8103Z" fill="black"/>
<path d="M23.9332 8.45361V6.89844H25.001V8.45361H23.9332Z" fill="black"/>
<path d="M24.828 8.45361V6.89844H26.354V8.45361H24.828Z" fill="black"/>
<path d="M26.0274 8.45361V6.89844H27.5533V8.45361H26.0274Z" fill="black"/>
<path d="M27.3032 8.45361V6.89844H28.6762V8.45361H27.3032Z" fill="black"/>
<path d="M28.3697 8.45361V6.89844H28.9801V8.45361H28.3697Z" fill="black"/>
<path d="M28.8058 8.45361V6.89844H29.8736V8.45361H28.8058Z" fill="black"/>
<path d="M29.5477 8.45361V6.89844H31.0736V8.45361H29.5477Z" fill="black"/>
<path d="M30.8999 8.45361V6.89844H32.4259V8.45361H30.8999Z" fill="black"/>
<path d="M32.1757 8.45361V6.89844H33.2436V8.45361H32.1757Z" fill="black"/>
<path d="M32.9176 8.45361V6.89844H33.528V8.45361H32.9176Z" fill="black"/>
<path d="M7 11.4536V9.89844H8.06782V11.4536H7Z" fill="black"/>
<path d="M7.7419 11.4536V9.89844H9.26784V11.4536H7.7419Z" fill="black"/>
<path d="M9.09417 11.4536V9.89844H10.6201V11.4536H9.09417Z" fill="black"/>
<path d="M10.2935 11.4536V9.89844H11.6665V11.4536H10.2935Z" fill="black"/>
<path d="M11.36 11.4536V9.89844H12.886V11.4536H11.36Z" fill="black"/>
<path d="M12.5594 11.4536V9.89844H13.1698V11.4536H12.5594Z" fill="black"/>
<path d="M12.9954 11.4536V9.89844H14.0633V11.4536H12.9954Z" fill="black"/>
<path d="M13.8903 11.4536V9.89844H15.2633V11.4536H13.8903Z" fill="black"/>
<path d="M15.052 11.4536V9.89844H15.6624V11.4536H15.052Z" fill="black"/>
<path d="M15.4881 11.4536V9.89844H17.014V11.4536H15.4881Z" fill="black"/>
<path d="M16.9168 11.4536V9.89844H18.2898V11.4536H16.9168Z" fill="black"/>
<path d="M18.2691 11.4536V9.89844H19.4892V11.4536H18.2691Z" fill="black"/>
<path d="M19.3155 11.4536V9.89844H20.3833V11.4536H19.3155Z" fill="black"/>
<path d="M20.0574 11.4536V9.89844H21.5833V11.4536H20.0574Z" fill="black"/>
<path d="M21.4097 11.4536V9.89844H22.9356V11.4536H21.4097Z" fill="black"/>
<path d="M22.609 11.4536V9.89844H23.982V11.4536H22.609Z" fill="black"/>
<path d="M23.6755 11.4536V9.89844H24.2859V11.4536H23.6755Z" fill="black"/>
<path d="M24.2645 11.4536V9.89844H25.6375V11.4536H24.2645Z" fill="black"/>
<path d="M25.3874 11.4536V9.89844H26.9133V11.4536H25.3874Z" fill="black"/>
<path d="M26.6632 11.4536V9.89844H27.731V11.4536H26.6632Z" fill="black"/>
<path d="M27.4051 11.4536V9.89844H28.931V11.4536H27.4051Z" fill="black"/>
<path d="M28.7574 11.4536V9.89844H29.3677V11.4536H28.7574Z" fill="black"/>
<path d="M7 14.4536V12.8984H8.52594V14.4536H7Z" fill="black"/>
<path d="M8.19934 14.4536V12.8984H9.57235V14.4536H8.19934Z" fill="black"/>
<path d="M9.39869 14.4536V12.8984H10.9246V14.4536H9.39869Z" fill="black"/>
<path d="M10.6745 14.4536V12.8984H11.7423V14.4536H10.6745Z" fill="black"/>
<path d="M11.5693 14.4536V12.8984H12.6371V14.4536H11.5693Z" fill="black"/>
<path d="M12.4641 14.4536V12.8984H13.9901V14.4536H12.4641Z" fill="black"/>
<path d="M13.8929 14.4536V12.8984H15.2659V14.4536H13.8929Z" fill="black"/>
<path d="M14.9393 14.4536V12.8984H16.0071V14.4536H14.9393Z" fill="black"/>
<path d="M15.8341 14.4536V12.8984H17.3601V14.4536H15.8341Z" fill="black"/>
<path d="M17.0335 14.4536V12.8984H17.6438V14.4536H17.0335Z" fill="black"/>
<path d="M17.4695 14.4536V12.8984H18.5373V14.4536H17.4695Z" fill="black"/>
<path d="M18.3643 14.4536V12.8984H19.5844V14.4536H18.3643Z" fill="black"/>
<path d="M19.4107 14.4536V12.8984H20.0211V14.4536H19.4107Z" fill="black"/>
<path d="M19.8468 14.4536V12.8984H21.5256V14.4536H19.8468Z" fill="black"/>
<path d="M21.3708 14.4536V12.8984H22.5908V14.4536H21.3708Z" fill="black"/>
<path d="M22.4172 14.4536V12.8984H23.7902V14.4536H22.4172Z" fill="black"/>
<path d="M23.4837 14.4536V12.8984H24.5515V14.4536H23.4837Z" fill="black"/>
<path d="M24.2256 14.4536V12.8984H25.7515V14.4536H24.2256Z" fill="black"/>
<path d="M25.5779 14.4536V12.8984H26.1883V14.4536H25.5779Z" fill="black"/>
<path d="M26.0139 14.4536V12.8984H27.6928V14.4536H26.0139Z" fill="black"/>
<path d="M27.5956 14.4536V12.8984H28.8157V14.4536H27.5956Z" fill="black"/>
<path d="M28.642 14.4536V12.8984H30.015V14.4536H28.642Z" fill="black"/>
<path d="M29.7085 14.4536V12.8984H31.2345V14.4536H29.7085Z" fill="black"/>
<path d="M30.9079 14.4536V12.8984H32.4338V14.4536H30.9079Z" fill="black"/>
<path d="M7.36014 17.133V17.0238H8.62392V17.133H7.36014Z" fill="black"/>
<path d="M8.31874 17.4536V15.8984H9.84468V17.4536H8.31874Z" fill="black"/>
<path d="M9.59454 17.4536V15.8984H10.2049V17.4536H9.59454Z" fill="black"/>
<path d="M10.1835 17.4536V15.8984H11.5565V17.4536H10.1835Z" fill="black"/>
<path d="M11.3064 17.4536V15.8984H12.8323V17.4536H11.3064Z" fill="black"/>
<path d="M12.5822 17.4536V15.8984H13.65V17.4536H12.5822Z" fill="black"/>
<path d="M13.3241 17.4536V15.8984H14.85V17.4536H13.3241Z" fill="black"/>
<path d="M14.6764 17.4536V15.8984H15.2867V17.4536H14.6764Z" fill="black"/>
<path d="M15.1124 17.4536V15.8984H16.1802V17.4536H15.1124Z" fill="black"/>
<path d="M15.8543 17.4536V15.8984H17.3802V17.4536H15.8543Z" fill="black"/>
<path d="M17.2066 17.4536V15.8984H18.7325V17.4536H17.2066Z" fill="black"/>
<path d="M18.4824 17.4536V15.8984H19.5502V17.4536H18.4824Z" fill="black"/>
<path d="M19.2243 17.4536V15.8984H19.8346V17.4536H19.2243Z" fill="black"/>
<path d="M19.6603 17.4536V15.8984H20.7281V17.4536H19.6603Z" fill="black"/>
<path d="M20.5551 17.4536V15.8984H22.0811V17.4536H20.5551Z" fill="black"/>
<path d="M21.7545 17.4536V15.8984H23.2804V17.4536H21.7545Z" fill="black"/>
<path d="M23.0303 17.4536V15.8984H24.5562V17.4536H23.0303Z" fill="black"/>
<path d="M24.3061 17.4536V15.8984H25.6791V17.4536H24.3061Z" fill="black"/>
<path d="M25.4679 17.4536V15.8984H26.0783V17.4536H25.4679Z" fill="black"/>
<path d="M25.9039 17.4536V15.8984H26.9717V17.4536H25.9039Z" fill="black"/>
<path d="M26.7987 17.4536V15.8984H28.0188V17.4536H26.7987Z" fill="black"/>
<path d="M27.8452 17.4536V15.8984H28.4555V17.4536H27.8452Z" fill="black"/>
<path d="M7.15293 20.4536V18.8984H8.52594V20.4536H7.15293Z" fill="black"/>
<path d="M8.27581 20.4536V18.8984H9.80175V20.4536H8.27581Z" fill="black"/>
<path d="M9.47515 20.4536V18.8984H11.0011V20.4536H9.47515Z" fill="black"/>
<path d="M10.751 20.4536V18.8984H12.124V20.4536H10.751Z" fill="black"/>
<path d="M11.8738 20.4536V18.8984H13.3998V20.4536H11.8738Z" fill="black"/>
<path d="M13.0732 20.4536V18.8984H13.6836V20.4536H13.0732Z" fill="black"/>
<path d="M13.5092 20.4536V18.8984H15.0352V20.4536H13.5092Z" fill="black"/>
<path d="M14.938 20.4536V18.8984H16.311V20.4536H14.938Z" fill="black"/>
<path d="M16.1373 20.4536V18.8984H17.6632V20.4536H16.1373Z" fill="black"/>
<path d="M17.4131 20.4536V18.8984H18.0235V20.4536H17.4131Z" fill="black"/>
<path d="M17.8491 20.4536V18.8984H19.3751V20.4536H17.8491Z" fill="black"/>
<path d="M19.0485 20.4536V18.8984H20.4215V20.4536H19.0485Z" fill="black"/>
<path d="M20.3243 20.4536V18.8984H21.5444V20.4536H20.3243Z" fill="black"/>
<path d="M21.5236 20.4536V18.8984H22.8966V20.4536H21.5236Z" fill="black"/>
<path d="M22.8759 20.4536V18.8984H24.096V20.4536H22.8759Z" fill="black"/>
<path d="M23.9223 20.4536V18.8984H25.9064V20.4536H23.9223Z" fill="black"/>
<path d="M25.8085 20.4536V18.8984H26.8763V20.4536H25.8085Z" fill="black"/>
<path d="M26.7033 20.4536V18.8984H28.0763V20.4536H26.7033Z" fill="black"/>
<path d="M27.8262 20.4536V18.8984H28.4366V20.4536H27.8262Z" fill="black"/>
<path d="M7.15293 23.4536V21.8984H8.37301V23.4536H7.15293Z" fill="black"/>
<path d="M8.35227 23.4536V21.8984H9.72528V23.4536H8.35227Z" fill="black"/>
<path d="M9.62808 23.4536V21.8984H11.0011V23.4536H9.62808Z" fill="black"/>
<path d="M10.9039 23.4536V21.8984H12.124V23.4536H10.9039Z" fill="black"/>
<path d="M11.9503 23.4536V21.8984H13.3233V23.4536H11.9503Z" fill="black"/>
<path d="M13.0168 23.4536V21.8984H14.0847V23.4536H13.0168Z" fill="black"/>
<path d="M13.7587 23.4536V21.8984H15.2847V23.4536H13.7587Z" fill="black"/>
<path d="M15.2639 23.4536V21.8984H16.6369V23.4536H15.2639Z" fill="black"/>
<path d="M16.4633 23.4536V21.8984H17.5311V23.4536H16.4633Z" fill="black"/>
<path d="M17.3581 23.4536V21.8984H18.4259V23.4536H17.3581Z" fill="black"/>
<path d="M18.2529 23.4536V21.8984H19.6259V23.4536H18.2529Z" fill="black"/>
<path d="M19.3758 23.4536V21.8984H19.9862V23.4536H19.3758Z" fill="black"/>
<path d="M19.8118 23.4536V21.8984H21.0326V23.4536H19.8118Z" fill="black"/>
<path d="M20.8596 23.4536V21.8984H22.0797V23.4536H20.8596Z" fill="black"/>
<path d="M21.906 23.4536V21.8984H23.279V23.4536H21.906Z" fill="black"/>
<path d="M22.9725 23.4536V21.8984H23.5829V23.4536H22.9725Z" fill="black"/>
<path d="M23.4086 23.4536V21.8984H24.4764V23.4536H23.4086Z" fill="black"/>
<path d="M24.1505 23.4536V21.8984H25.6764V23.4536H24.1505Z" fill="black"/>
<path d="M25.5028 23.4536V21.8984H27.0287V23.4536H25.5028Z" fill="black"/>
<path d="M26.7021 23.4536V21.8984H27.3125V23.4536H26.7021Z" fill="black"/>
<path d="M7.15293 26.4536V24.8984H8.52594V26.4536H7.15293Z" fill="black"/>
<path d="M8.27581 26.4536V24.8984H9.80175V26.4536H8.27581Z" fill="black"/>
<path d="M9.62808 26.4536V24.8984H10.8482V26.4536H9.62808Z" fill="black"/>
<path d="M10.8274 26.4536V24.8984H12.2004V26.4536H10.8274Z" fill="black"/>
<path d="M11.9503 26.4536V24.8984H13.0181V26.4536H11.9503Z" fill="black"/>
<path d="M12.8451 26.4536V24.8984H14.3711V26.4536H12.8451Z" fill="black"/>
<path d="M14.0445 26.4536V24.8984H14.6548V26.4536H14.0445Z" fill="black"/>
<path d="M14.6334 26.4536V24.8984H15.8535V26.4536H14.6334Z" fill="black"/>
<path d="M15.6799 26.4536V24.8984H16.9006V26.4536H15.6799Z" fill="black"/>
<path d="M16.5747 26.4536V24.8984H17.1851V26.4536H16.5747Z" fill="black"/>
<path d="M17.0107 26.4536V24.8984H18.6896V26.4536H17.0107Z" fill="black"/>
<path d="M18.5347 26.4536V24.8984H19.7548V26.4536H18.5347Z" fill="black"/>
<path d="M19.5811 26.4536V24.8984H20.9541V26.4536H19.5811Z" fill="black"/>
<path d="M20.6476 26.4536V24.8984H21.7155V26.4536H20.6476Z" fill="black"/>
<path d="M21.3895 26.4536V24.8984H22.9155V26.4536H21.3895Z" fill="black"/>
<path d="M22.7418 26.4536V24.8984H23.3522V26.4536H22.7418Z" fill="black"/>
<path d="M23.1778 26.4536V24.8984H24.8567V26.4536H23.1778Z" fill="black"/>
<path d="M24.7595 26.4536V24.8984H25.9796V26.4536H24.7595Z" fill="black"/>
<path d="M25.8059 26.4536V24.8984H27.1789V26.4536H25.8059Z" fill="black"/>
<path d="M26.8725 26.4536V24.8984H28.3984V26.4536H26.8725Z" fill="black"/>
<path d="M28.0718 26.4536V24.8984H29.5978V26.4536H28.0718Z" fill="black"/>
<path d="M29.3476 26.4536V24.8984H30.1103V26.4536H29.3476Z" fill="black"/>
<path d="M29.8601 26.4536V24.8984H30.4705V26.4536H29.8601Z" fill="black"/>
<path d="M7 29.4536V27.8984H8.06782V29.4536H7Z" fill="black"/>
<path d="M8.04776 29.4536V27.8984H9.42077V29.4536H8.04776Z" fill="black"/>
<path d="M9.2471 29.4536V27.8984H10.6201V29.4536H9.2471Z" fill="black"/>
<path d="M10.37 29.4536V27.8984H11.4378V29.4536H10.37Z" fill="black"/>
<path d="M11.2648 29.4536V27.8984H12.7907V29.4536H11.2648Z" fill="black"/>
<path d="M12.6171 29.4536V27.8984H14.143V29.4536H12.6171Z" fill="black"/>
<path d="M13.8929 29.4536V27.8984H14.9607V29.4536H13.8929Z" fill="black"/>
<path d="M14.9406 29.4536V27.8984H16.3136V29.4536H14.9406Z" fill="black"/>
<path d="M16.14 29.4536V27.8984H17.6659V29.4536H16.14Z" fill="black"/>
<path d="M17.4923 29.4536V27.8984H18.1026V29.4536H17.4923Z" fill="black"/>
<path d="M17.9283 29.4536V27.8984H19.149V29.4536H17.9283Z" fill="black"/>
<path d="M18.8231 29.4536V27.8984H20.3491V29.4536H18.8231Z" fill="black"/>
<path d="M20.1754 29.4536V27.8984H21.2432V29.4536H20.1754Z" fill="black"/>
<path d="M21.0702 29.4536V27.8984H22.138V29.4536H21.0702Z" fill="black"/>
<path d="M21.965 29.4536V27.8984H22.5754V29.4536H21.965Z" fill="black"/>
<path d="M7 32.4536V30.8984H8.06782V32.4536H7Z" fill="black"/>
<path d="M8.04776 32.4536V30.8984H9.42077V32.4536H8.04776Z" fill="black"/>
<path d="M9.2471 32.4536V30.8984H10.3149V32.4536H9.2471Z" fill="black"/>
<path d="M9.98899 32.4536V30.8984H11.5149V32.4536H9.98899Z" fill="black"/>
<path d="M11.1883 32.4536V30.8984H12.7143V32.4536H11.1883Z" fill="black"/>
<path d="M12.5406 32.4536V30.8984H13.9136V32.4536H12.5406Z" fill="black"/>
<path d="M13.5696 32.4536V30.8984H15.0955V32.4536H13.5696Z" fill="black"/>
<path d="M14.8454 32.4536V30.8984H15.9132V32.4536H14.8454Z" fill="black"/>
<path d="M15.5873 32.4536V30.8984H16.6551V32.4536H15.5873Z" fill="black"/>
<path d="M16.635 32.4536V30.8984H17.8551V32.4536H16.635Z" fill="black"/>
<path d="M17.8344 32.4536V30.8984H19.2074V32.4536H17.8344Z" fill="black"/>
<path d="M19.0337 32.4536V30.8984H19.6441V32.4536H19.0337Z" fill="black"/>
<path d="M19.4698 32.4536V30.8984H20.5376V32.4536H19.4698Z" fill="black"/>
<path d="M20.5175 32.4536V30.8984H21.8905V32.4536H20.5175Z" fill="black"/>
<path d="M21.7169 32.4536V30.8984H22.7847V32.4536H21.7169Z" fill="black"/>
<path d="M22.6117 32.4536V30.8984H23.8318V32.4536H22.6117Z" fill="black"/>
<path d="M23.6581 32.4536V30.8984H24.2685V32.4536H23.6581Z" fill="black"/>
<path d="M24.0941 32.4536V30.8984H25.162V32.4536H24.0941Z" fill="black"/>
<path d="M24.836 32.4536V30.8984H26.362V32.4536H24.836Z" fill="black"/>
<path d="M26.1883 32.4536V30.8984H27.7142V32.4536H26.1883Z" fill="black"/>
<path d="M27.3877 32.4536V30.8984H27.998V32.4536H27.3877Z" fill="black"/>
<path d="M7 35.4536V33.8984H8.37301V35.4536H7Z" fill="black"/>
<path d="M8.27581 35.4536V33.8984H9.49589V35.4536H8.27581Z" fill="black"/>
<path d="M9.32222 35.4536V33.8984H11.3063V35.4536H9.32222Z" fill="black"/>
<path d="M11.2084 35.4536V33.8984H13.1925V35.4536H11.2084Z" fill="black"/>
<path d="M13.0946 35.4536V33.8984H14.6205V35.4536H13.0946Z" fill="black"/>
<path d="M14.5998 35.4536V33.8984H15.9728V35.4536H14.5998Z" fill="black"/>
<path d="M15.7991 35.4536V33.8984H16.867V35.4536H15.7991Z" fill="black"/>
<path d="M16.694 35.4536V33.8984H17.7618V35.4536H16.694Z" fill="black"/>
<path d="M17.5888 35.4536V33.8984H18.9618V35.4536H17.5888Z" fill="black"/>
<path d="M18.7117 35.4536V33.8984H19.322V35.4536H18.7117Z" fill="black"/>
<path d="M19.3006 35.4536V33.8984H20.5207V35.4536H19.3006Z" fill="black"/>
<path d="M20.347 35.4536V33.8984H21.5678V35.4536H20.347Z" fill="black"/>
<path d="M21.2419 35.4536V33.8984H21.8522V35.4536H21.2419Z" fill="black"/>
<path d="M21.8308 35.4536V33.8984H23.2038V35.4536H21.8308Z" fill="black"/>
<path d="M23.0302 35.4536V33.8984H24.5561V35.4536H23.0302Z" fill="black"/>
<path d="M24.306 35.4536V33.8984H25.3738V35.4536H24.306Z" fill="black"/>
<path d="M25.0479 35.4536V33.8984H26.1157V35.4536H25.0479Z" fill="black"/>
<path d="M26.0956 35.4536V33.8984H27.3157V35.4536H26.0956Z" fill="black"/>
<path d="M27.295 35.4536V33.8984H28.668V35.4536H27.295Z" fill="black"/>
<path d="M28.4943 35.4536V33.8984H29.8673V35.4536H28.4943Z" fill="black"/>
<path d="M29.6561 35.4536V33.8984H30.4187V35.4536H29.6561Z" fill="black"/>
<path d="M30.1686 35.4536V33.8984H30.779V35.4536H30.1686Z" fill="black"/>
<path d="M7 38.4536V36.8984H8.52594V38.4536H7Z" fill="black"/>
<path d="M8.35227 38.4536V36.8984H9.87821V38.4536H8.35227Z" fill="black"/>
<path d="M9.70454 38.4536V36.8984H11.2305V38.4536H9.70454Z" fill="black"/>
<path d="M10.9804 38.4536V36.8984H12.0482V38.4536H10.9804Z" fill="black"/>
<path d="M11.7222 38.4536V36.8984H12.3326V38.4536H11.7222Z" fill="black"/>
<path d="M12.1583 38.4536V36.8984H13.6842V38.4536H12.1583Z" fill="black"/>
<path d="M13.4341 38.4536V36.8984H14.96V38.4536H13.4341Z" fill="black"/>
<path d="M14.6334 38.4536V36.8984H16.0064V38.4536H14.6334Z" fill="black"/>
<path d="M15.7952 38.4536V36.8984H16.863V38.4536H15.7952Z" fill="black"/>
<path d="M16.5371 38.4536V36.8984H17.6049V38.4536H16.5371Z" fill="black"/>
<path d="M17.5849 38.4536V36.8984H18.9579V38.4536H17.5849Z" fill="black"/>
<path d="M18.7842 38.4536V36.8984H20.3102V38.4536H18.7842Z" fill="black"/>
<path d="M20.06 38.4536V36.8984H21.1278V38.4536H20.06Z" fill="black"/>
<path d="M20.8019 38.4536V36.8984H21.8697V38.4536H20.8019Z" fill="black"/>
<path d="M21.8497 38.4536V36.8984H23.0698V38.4536H21.8497Z" fill="black"/>
<path d="M23.049 38.4536V36.8984H24.422V38.4536H23.049Z" fill="black"/>
<path d="M24.2484 38.4536V36.8984H24.8587V38.4536H24.2484Z" fill="black"/>
<path d="M24.6844 38.4536V36.8984H26.0574V38.4536H24.6844Z" fill="black"/>
<path d="M25.8073 38.4536V36.8984H27.3332V38.4536H25.8073Z" fill="black"/>
<path d="M27.236 38.4536V36.8984H28.609V38.4536H27.236Z" fill="black"/>
<path d="M28.4354 38.4536V36.8984H29.0457V38.4536H28.4354Z" fill="black"/>
<path d="M7.15293 41.4536V39.8984H8.37301V41.4536H7.15293Z" fill="black"/>
<path d="M8.35227 41.4536V39.8984H9.72528V41.4536H8.35227Z" fill="black"/>
<path d="M9.55162 41.4536V39.8984H10.6194V41.4536H9.55162Z" fill="black"/>
<path d="M10.5229 41.4536V39.8984H11.8959V41.4536H10.5229Z" fill="black"/>
<path d="M11.6458 41.4536V39.8984H12.2562V41.4536H11.6458Z" fill="black"/>
<path d="M12.2348 41.4536V39.8984H13.6078V41.4536H12.2348Z" fill="black"/>
<path d="M13.2812 41.4536V39.8984H14.8071V41.4536H13.2812Z" fill="black"/>
<path d="M14.4805 41.4536V39.8984H15.0909V41.4536H14.4805Z" fill="black"/>
<path d="M14.9165 41.4536V39.8984H16.2896V41.4536H14.9165Z" fill="black"/>
<path d="M15.9831 41.4536V39.8984H17.509V41.4536H15.9831Z" fill="black"/>
<path d="M17.1824 41.4536V39.8984H18.7084V41.4536H17.1824Z" fill="black"/>
<path d="M18.4582 41.4536V39.8984H19.8312V41.4536H18.4582Z" fill="black"/>
<path d="M19.5811 41.4536V39.8984H21.1071V41.4536H19.5811Z" fill="black"/>
<path d="M20.9334 41.4536V39.8984H22.4593V41.4536H20.9334Z" fill="black"/>
<path d="M22.1327 41.4536V39.8984H23.6587V41.4536H22.1327Z" fill="black"/>
<path d="M23.4085 41.4536V39.8984H24.0189V41.4536H23.4085Z" fill="black"/>
<path d="M23.8446 41.4536V39.8984H24.9124V41.4536H23.8446Z" fill="black"/>
<path d="M24.5865 41.4536V39.8984H26.1124V41.4536H24.5865Z" fill="black"/>
<path d="M25.9387 41.4536V39.8984H27.3117V41.4536H25.9387Z" fill="black"/>
<path d="M27.1582 41.4536V39.8984H28.3783V41.4536H27.1582Z" fill="black"/>
<path d="M28.2046 41.4536V39.8984H29.7306V41.4536H28.2046Z" fill="black"/>
<path d="M29.5569 41.4536V39.8984H31.0828V41.4536H29.5569Z" fill="black"/>
<path d="M30.9092 41.4536V39.8984H32.4351V41.4536H30.9092Z" fill="black"/>
<path d="M32.2614 41.4536V39.8984H32.8718V41.4536H32.2614Z" fill="black"/>
<path d="M7.15293 44.4536V42.8984H8.52594V44.4536H7.15293Z" fill="black"/>
<path d="M8.27581 44.4536V42.8984H9.80175V44.4536H8.27581Z" fill="black"/>
<path d="M9.47515 44.4536V42.8984H11.0011V44.4536H9.47515Z" fill="black"/>
<path d="M10.751 44.4536V42.8984H12.124V44.4536H10.751Z" fill="black"/>
<path d="M11.8738 44.4536V42.8984H13.3998V44.4536H11.8738Z" fill="black"/>
<path d="M13.0732 44.4536V42.8984H14.2939V44.4536H13.0732Z" fill="black"/>
<path d="M13.968 44.4536V42.8984H15.4939V44.4536H13.968Z" fill="black"/>
<path d="M15.3203 44.4536V42.8984H16.3881V44.4536H15.3203Z" fill="black"/>
<path d="M16.2151 44.4536V42.8984H16.8255V44.4536H16.2151Z" fill="black"/>
<path d="M16.8041 44.4536V42.8984H18.1771V44.4536H16.8041Z" fill="black"/>
<path d="M18.0034 44.4536V42.8984H19.5294V44.4536H18.0034Z" fill="black"/>
<path d="M19.2028 44.4536V42.8984H20.7287V44.4536H19.2028Z" fill="black"/>
<path d="M20.708 44.4536V42.8984H21.928V44.4536H20.708Z" fill="black"/>
<path d="M21.7544 44.4536V42.8984H22.8222V44.4536H21.7544Z" fill="black"/>
<path d="M22.4963 44.4536V42.8984H23.5641V44.4536H22.4963Z" fill="black"/>
<path d="M23.3911 44.4536V42.8984H24.917V44.4536H23.3911Z" fill="black"/>
<path d="M24.6669 44.4536V42.8984H25.7347V44.4536H24.6669Z" fill="black"/>
<path d="M25.4088 44.4536V42.8984H26.4766V44.4536H25.4088Z" fill="black"/>
<path d="M26.4566 44.4536V42.8984H27.6766V44.4536H26.4566Z" fill="black"/>
<path d="M27.6559 44.4536V42.8984H29.0289V44.4536H27.6559Z" fill="black"/>
<path d="M28.8552 44.4536V42.8984H30.2282V44.4536H28.8552Z" fill="black"/>
<path d="M30.017 44.4536V42.8984H30.6274V44.4536H30.017Z" fill="black"/>
<path d="M7 47.4536V45.8984H8.06782V47.4536H7Z" fill="black"/>
<path d="M7.7419 47.4536V45.8984H9.26784V47.4536H7.7419Z" fill="black"/>
<path d="M9.09417 47.4536V45.8984H10.6201V47.4536H9.09417Z" fill="black"/>
<path d="M10.37 47.4536V45.8984H11.4378V47.4536H10.37Z" fill="black"/>
<path d="M11.1119 47.4536V45.8984H11.7222V47.4536H11.1119Z" fill="black"/>
<path d="M11.5479 47.4536V45.8984H13.0739V47.4536H11.5479Z" fill="black"/>
<path d="M12.8237 47.4536V45.8984H14.1967V47.4536H12.8237Z" fill="black"/>
<path d="M13.9466 47.4536V45.8984H15.4725V47.4536H13.9466Z" fill="black"/>
<path d="M15.2989 47.4536V45.8984H16.3667V47.4536H15.2989Z" fill="black"/>
<path d="M16.1937 47.4536V45.8984H17.7196V47.4536H16.1937Z" fill="black"/>
<path d="M17.393 47.4536V45.8984H18.766V47.4536H17.393Z" fill="black"/>
<path d="M18.6688 47.4536V45.8984H20.1948V47.4536H18.6688Z" fill="black"/>
<path d="M19.8682 47.4536V45.8984H20.4786V47.4536H19.8682Z" fill="black"/>
<path d="M20.3042 47.4536V45.8984H21.372V47.4536H20.3042Z" fill="black"/>
<path d="M21.0461 47.4536V45.8984H22.5721V47.4536H21.0461Z" fill="black"/>
<path d="M22.3984 47.4536V45.8984H23.9243V47.4536H22.3984Z" fill="black"/>
<path d="M23.5977 47.4536V45.8984H24.2081V47.4536H23.5977Z" fill="black"/>
<path d="M24.0338 47.4536V45.8984H25.2545V47.4536H24.0338Z" fill="black"/>
<path d="M24.9286 47.4536V45.8984H26.4545V47.4536H24.9286Z" fill="black"/>
<path d="M26.2809 47.4536V45.8984H27.3487V47.4536H26.2809Z" fill="black"/>
<path d="M27.1757 47.4536V45.8984H28.2435V47.4536H27.1757Z" fill="black"/>
<path d="M28.0705 47.4536V45.8984H28.6809V47.4536H28.0705Z" fill="black"/>
<path d="M28.5066 47.4536V45.8984H30.0325V47.4536H28.5066Z" fill="black"/>
<path d="M29.9353 47.4536V45.8984H31.3083V47.4536H29.9353Z" fill="black"/>
<path d="M31.1346 47.4536V45.8984H32.6606V47.4536H31.1346Z" fill="black"/>
<path d="M32.4104 47.4536V45.8984H33.0208V47.4536H32.4104Z" fill="black"/>
<path d="M7 50.4536V48.8984H8.37301V50.4536H7Z" fill="black"/>
<path d="M8.27581 50.4536V48.8984H9.80175V50.4536H8.27581Z" fill="black"/>
<path d="M9.47515 50.4536V48.8984H10.8482V50.4536H9.47515Z" fill="black"/>
<path d="M10.5417 50.4536V48.8984H11.6095V50.4536H10.5417Z" fill="black"/>
<path d="M11.4365 50.4536V48.8984H12.6573V50.4536H11.4365Z" fill="black"/>
<path d="M12.3313 50.4536V48.8984H13.3992V50.4536H12.3313Z" fill="black"/>
<path d="M13.2262 50.4536V48.8984H14.7521V50.4536H13.2262Z" fill="black"/>
<path d="M14.6549 50.4536V48.8984H16.0279V50.4536H14.6549Z" fill="black"/>
<path d="M15.7013 50.4536V48.8984H16.7691V50.4536H15.7013Z" fill="black"/>
<path d="M16.5961 50.4536V48.8984H18.1221V50.4536H16.5961Z" fill="black"/>
<path d="M17.7955 50.4536V48.8984H18.4059V50.4536H17.7955Z" fill="black"/>
<path d="M7 53.4536V51.8984H8.52594V53.4536H7Z" fill="black"/>
<path d="M8.27581 53.4536V51.8984H9.80175V53.4536H8.27581Z" fill="black"/>
<path d="M9.62808 53.4536V51.8984H11.0011V53.4536H9.62808Z" fill="black"/>
<path d="M10.8274 53.4536V51.8984H12.3534V53.4536H10.8274Z" fill="black"/>
<path d="M12.1797 53.4536V51.8984H13.5527V53.4536H12.1797Z" fill="black"/>
<path d="M13.3026 53.4536V51.8984H14.3704V53.4536H13.3026Z" fill="black"/>
<path d="M14.1974 53.4536V51.8984H15.7233V53.4536H14.1974Z" fill="black"/>
<path d="M15.3967 53.4536V51.8984H16.9227V53.4536H15.3967Z" fill="black"/>
<path d="M16.6726 53.4536V51.8984H18.0456V53.4536H16.6726Z" fill="black"/>
<path d="M17.7391 53.4536V51.8984H18.8069V53.4536H17.7391Z" fill="black"/>
<path d="M18.7868 53.4536V51.8984H20.0069V53.4536H18.7868Z" fill="black"/>
<path d="M19.738 53.4536V51.8984H21.264V53.4536H19.738Z" fill="black"/>
<path d="M21.0138 53.4536V51.8984H22.0816V53.4536H21.0138Z" fill="black"/>
<path d="M21.7557 53.4536V51.8984H22.8235V53.4536H21.7557Z" fill="black"/>
<path d="M22.8035 53.4536V51.8984H24.0235V53.4536H22.8035Z" fill="black"/>
<path d="M24.0028 53.4536V51.8984H25.3758V53.4536H24.0028Z" fill="black"/>
<path d="M25.2022 53.4536V51.8984H25.8125V53.4536H25.2022Z" fill="black"/>
<path d="M25.7911 53.4536V51.8984H27.0112V53.4536H25.7911Z" fill="black"/>
<path d="M26.8375 53.4536V51.8984H28.0583V53.4536H26.8375Z" fill="black"/>
<path d="M27.7324 53.4536V51.8984H28.3427V53.4536H27.7324Z" fill="black"/>
<path d="M28.1684 53.4536V51.8984H29.2362V53.4536H28.1684Z" fill="black"/>
<path d="M28.9103 53.4536V51.8984H30.4362V53.4536H28.9103Z" fill="black"/>
<path d="M30.2626 53.4536V51.8984H31.7885V53.4536H30.2626Z" fill="black"/>
<path d="M31.4619 53.4536V51.8984H32.0723V53.4536H31.4619Z" fill="black"/>
<path d="M7 56.4536V54.8984H8.67887V56.4536H7Z" fill="black"/>
<path d="M8.58167 56.4536V54.8984H9.80175V56.4536H8.58167Z" fill="black"/>
<path d="M9.62808 56.4536V54.8984H11.0011V56.4536H9.62808Z" fill="black"/>
<path d="M10.6946 56.4536V54.8984H12.2206V56.4536H10.6946Z" fill="black"/>
<path d="M11.894 56.4536V54.8984H13.4199V56.4536H11.894Z" fill="black"/>
<path d="M13.3227 56.4536V54.8984H14.6957V56.4536H13.3227Z" fill="black"/>
<path d="M14.522 56.4536V54.8984H15.1324V56.4536H14.522Z" fill="black"/>
<path d="M15.111 56.4536V54.8984H16.484V56.4536H15.111Z" fill="black"/>
<path d="M16.2339 56.4536V54.8984H17.7598V56.4536H16.2339Z" fill="black"/>
<path d="M17.5862 56.4536V54.8984H18.9592V56.4536H17.5862Z" fill="black"/>
<path d="M18.7855 56.4536V54.8984H19.8533V56.4536H18.7855Z" fill="black"/>
<path d="M19.8333 56.4536V54.8984H21.2063V56.4536H19.8333Z" fill="black"/>
<path d="M21.0326 56.4536V54.8984H22.4056V56.4536H21.0326Z" fill="black"/>
<path d="M22.1944 56.4536V54.8984H23.7203V56.4536H22.1944Z" fill="black"/>
<path d="M23.5467 56.4536V54.8984H24.6145V56.4536H23.5467Z" fill="black"/>
<path d="M24.4415 56.4536V54.8984H25.9674V56.4536H24.4415Z" fill="black"/>
<path d="M25.7173 56.4536V54.8984H26.4799V56.4536H25.7173Z" fill="black"/>
<path d="M26.2298 56.4536V54.8984H26.8402V56.4536H26.2298Z" fill="black"/>
<path d="M26.6658 56.4536V54.8984H28.1918V56.4536H26.6658Z" fill="black"/>
<path d="M28.0181 56.4536V54.8984H29.544V56.4536H28.0181Z" fill="black"/>
<path d="M29.3704 56.4536V54.8984H30.8963V56.4536H29.3704Z" fill="black"/>
<path d="M30.6462 56.4536V54.8984H31.714V56.4536H30.6462Z" fill="black"/>
<path d="M31.3881 56.4536V54.8984H31.9984V56.4536H31.3881Z" fill="black"/>
<path d="M7 59.4536V57.8984H8.06782V59.4536H7Z" fill="black"/>
<path d="M7.89483 59.4536V57.8984H9.26784V59.4536H7.89483Z" fill="black"/>
<path d="M9.05661 59.4536V57.8984H9.66698V59.4536H9.05661Z" fill="black"/>
<path d="M9.49264 59.4536V57.8984H10.5605V59.4536H9.49264Z" fill="black"/>
<path d="M10.2345 59.4536V57.8984H11.7605V59.4536H10.2345Z" fill="black"/>
<path d="M11.5868 59.4536V57.8984H13.1128V59.4536H11.5868Z" fill="black"/>
<path d="M12.7862 59.4536V57.8984H13.3965V59.4536H12.7862Z" fill="black"/>
<path d="M13.3751 59.4536V57.8984H14.5952V59.4536H13.3751Z" fill="black"/>
<path d="M14.5745 59.4536V57.8984H15.9475V59.4536H14.5745Z" fill="black"/>
<path d="M15.8503 59.4536V57.8984H17.2233V59.4536H15.8503Z" fill="black"/>
<path d="M17.1261 59.4536V57.8984H18.3462V59.4536H17.1261Z" fill="black"/>
<path d="M18.1725 59.4536V57.8984H19.5455V59.4536H18.1725Z" fill="black"/>
<path d="M19.239 59.4536V57.8984H20.3069V59.4536H19.239Z" fill="black"/>
<path d="M19.9809 59.4536V57.8984H21.5069V59.4536H19.9809Z" fill="black"/>
<path d="M21.4861 59.4536V57.8984H22.8591V59.4536H21.4861Z" fill="black"/>
<path d="M22.6855 59.4536V57.8984H23.7533V59.4536H22.6855Z" fill="black"/>
<path d="M23.5803 59.4536V57.8984H24.6481V59.4536H23.5803Z" fill="black"/>
<path d="M24.4751 59.4536V57.8984H25.8481V59.4536H24.4751Z" fill="black"/>
<path d="M25.598 59.4536V57.8984H26.2084V59.4536H25.598Z" fill="black"/>
<path d="M26.034 59.4536V57.8984H27.1019V59.4536H26.034Z" fill="black"/>
<path d="M26.7759 59.4536V57.8984H28.3019V59.4536H26.7759Z" fill="black"/>
<path d="M28.1282 59.4536V57.8984H29.6541V59.4536H28.1282Z" fill="black"/>
<path d="M29.404 59.4536V57.8984H30.4718V59.4536H29.404Z" fill="black"/>
<path d="M30.1459 59.4536V57.8984H30.7563V59.4536H30.1459Z" fill="black"/>
<path d="M7 62.4536V60.8984H8.52594V62.4536H7Z" fill="black"/>
<path d="M8.19934 62.4536V60.8984H9.72528V62.4536H8.19934Z" fill="black"/>
<path d="M9.47515 62.4536V60.8984H10.543V62.4536H9.47515Z" fill="black"/>
<path d="M10.37 62.4536V60.8984H11.743V62.4536H10.37Z" fill="black"/>
<path d="M11.5318 62.4536V60.8984H12.5996V62.4536H11.5318Z" fill="black"/>
<path d="M12.2737 62.4536V60.8984H13.6467V62.4536H12.2737Z" fill="black"/>
<path d="M13.4354 62.4536V60.8984H14.0458V62.4536H13.4354Z" fill="black"/>
<path d="M13.8715 62.4536V60.8984H15.0922V62.4536H13.8715Z" fill="black"/>
<path d="M14.9192 62.4536V60.8984H16.1393V62.4536H14.9192Z" fill="black"/>
<path d="M15.9656 62.4536V60.8984H17.3387V62.4536H15.9656Z" fill="black"/>
<path d="M17.0322 62.4536V60.8984H17.6426V62.4536H17.0322Z" fill="black"/>
<path d="M17.4682 62.4536V60.8984H19.1471V62.4536H17.4682Z" fill="black"/>
<path d="M18.9922 62.4536V60.8984H20.2123V62.4536H18.9922Z" fill="black"/>
<path d="M20.0386 62.4536V60.8984H21.4116V62.4536H20.0386Z" fill="black"/>
<path d="M21.1051 62.4536V60.8984H22.173V62.4536H21.1051Z" fill="black"/>
<path d="M21.847 62.4536V60.8984H23.373V62.4536H21.847Z" fill="black"/>
<path d="M23.1993 62.4536V60.8984H23.8097V62.4536H23.1993Z" fill="black"/>
<path d="M23.6353 62.4536V60.8984H25.3142V62.4536H23.6353Z" fill="black"/>
<path d="M25.217 62.4536V60.8984H26.4371V62.4536H25.217Z" fill="black"/>
<path d="M26.2634 62.4536V60.8984H27.6364V62.4536H26.2634Z" fill="black"/>
<path d="M27.33 62.4536V60.8984H28.8559V62.4536H27.33Z" fill="black"/>
<path d="M28.5293 62.4536V60.8984H30.0552V62.4536H28.5293Z" fill="black"/>
<path d="M29.8051 62.4536V60.8984H30.5678V62.4536H29.8051Z" fill="black"/>
<path d="M30.3176 62.4536V60.8984H30.928V62.4536H30.3176Z" fill="black"/>
<path d="M7 65.4536V63.8984H8.52594V65.4536H7Z" fill="black"/>
<path d="M8.42874 65.4536V63.8984H9.80175V65.4536H8.42874Z" fill="black"/>
<path d="M9.62808 65.4536V63.8984H11.154V65.4536H9.62808Z" fill="black"/>
<path d="M10.9039 65.4536V63.8984H11.5143V65.4536H10.9039Z" fill="black"/>
<path d="M11.4929 65.4536V63.8984H13.0188V65.4536H11.4929Z" fill="black"/>
<path d="M12.711 65.4536V63.8984H14.084V65.4536H12.711Z" fill="black"/>
<path d="M13.7775 65.4536V63.8984H15.3035V65.4536H13.7775Z" fill="black"/>
<path d="M14.9769 65.4536V63.8984H16.3499V65.4536H14.9769Z" fill="black"/>
<path d="M16.1386 65.4536V63.8984H17.2065V65.4536H16.1386Z" fill="black"/>
<path d="M17.0335 65.4536V63.8984H18.5594V65.4536H17.0335Z" fill="black"/>
<path d="M18.3093 65.4536V63.8984H19.8352V65.4536H18.3093Z" fill="black"/>
<path d="M19.6615 65.4536V63.8984H21.0346V65.4536H19.6615Z" fill="black"/>
<path d="M20.8609 65.4536V63.8984H21.9287V65.4536H20.8609Z" fill="black"/>
<path d="M21.6028 65.4536V63.8984H22.2132V65.4536H21.6028Z" fill="black"/>
<path d="M22.0388 65.4536V63.8984H23.5648V65.4536H22.0388Z" fill="black"/>
<path d="M23.3146 65.4536V63.8984H24.8406V65.4536H23.3146Z" fill="black"/>
<path d="M24.514 65.4536V63.8984H26.0399V65.4536H24.514Z" fill="black"/>
<path d="M25.7133 65.4536V63.8984H26.3237V65.4536H25.7133Z" fill="black"/>
<path d="M26.1494 65.4536V63.8984H27.6753V65.4536H26.1494Z" fill="black"/>
<path d="M27.5781 65.4536V63.8984H28.9511V65.4536H27.5781Z" fill="black"/>
<path d="M28.7774 65.4536V63.8984H30.3034V65.4536H28.7774Z" fill="black"/>
<path d="M30.0532 65.4536V63.8984H30.6636V65.4536H30.0532Z" fill="black"/>
<path d="M30.4893 65.4536V63.8984H31.71V65.4536H30.4893Z" fill="black"/>
<path d="M31.5357 65.4536V63.8984H32.1461V65.4536H31.5357Z" fill="black"/>
<path d="M7 68.4536V66.8984H7.91556V68.4536H7Z" fill="black"/>
<path d="M7.81836 68.4536V66.8984H9.03844V68.4536H7.81836Z" fill="black"/>
<path d="M8.86477 68.4536V66.8984H9.9326V68.4536H8.86477Z" fill="black"/>
<path d="M9.91253 68.4536V66.8984H11.2855V68.4536H9.91253Z" fill="black"/>
<path d="M11.1119 68.4536V66.8984H11.7222V68.4536H11.1119Z" fill="black"/>
<path d="M11.5479 68.4536V66.8984H13.6842V68.4536H11.5479Z" fill="black"/>
<path d="M13.4341 68.4536V66.8984H14.5019V68.4536H13.4341Z" fill="black"/>
<path d="M14.3289 68.4536V66.8984H15.3967V68.4536H14.3289Z" fill="black"/>
<path d="M15.0708 68.4536V66.8984H16.5968V68.4536H15.0708Z" fill="black"/>
<path d="M16.4231 68.4536V66.8984H17.0335V68.4536H16.4231Z" fill="black"/>
<path d="M16.8591 68.4536V66.8984H17.9269V68.4536H16.8591Z" fill="black"/>
<path d="M17.601 68.4536V66.8984H19.127V68.4536H17.601Z" fill="black"/>
<path d="M18.9533 68.4536V66.8984H20.4792V68.4536H18.9533Z" fill="black"/>
<path d="M20.1526 68.4536V66.8984H20.763V68.4536H20.1526Z" fill="black"/>
<path d="M7 71.4536V69.8984H8.06782V71.4536H7Z" fill="black"/>
<path d="M8.04776 71.4536V69.8984H9.42077V71.4536H8.04776Z" fill="black"/>
<path d="M9.2471 71.4536V69.8984H10.3149V71.4536H9.2471Z" fill="black"/>
<path d="M9.98899 71.4536V69.8984H11.5149V71.4536H9.98899Z" fill="black"/>
<path d="M11.1883 71.4536V69.8984H12.5613V71.4536H11.1883Z" fill="black"/>
<path d="M12.4078 71.4536V69.8984H13.7808V71.4536H12.4078Z" fill="black"/>
<path d="M13.6071 71.4536V69.8984H15.1331V71.4536H13.6071Z" fill="black"/>
<path d="M14.883 71.4536V69.8984H15.9508V71.4536H14.883Z" fill="black"/>
<path d="M15.6248 71.4536V69.8984H16.6927V71.4536H15.6248Z" fill="black"/>
<path d="M16.6726 71.4536V69.8984H17.8927V71.4536H16.6726Z" fill="black"/>
<path d="M17.8719 71.4536V69.8984H19.245V71.4536H17.8719Z" fill="black"/>
<path d="M19.0713 71.4536V69.8984H20.5972V71.4536H19.0713Z" fill="black"/>
<path d="M20.3471 71.4536V69.8984H21.4149V71.4536H20.3471Z" fill="black"/>
<path d="M21.2419 71.4536V69.8984H21.8523V71.4536H21.2419Z" fill="black"/>
<path d="M21.678 71.4536V69.8984H23.051V71.4536H21.678Z" fill="black"/>
<path d="M22.9538 71.4536V69.8984H24.1738V71.4536H22.9538Z" fill="black"/>
<path d="M24.0002 71.4536V69.8984H25.9842V71.4536H24.0002Z" fill="black"/>
<path d="M25.8864 71.4536V69.8984H27.8704V71.4536H25.8864Z" fill="black"/>
<path d="M27.7725 71.4536V69.8984H29.2985V71.4536H27.7725Z" fill="black"/>
<path d="M29.2778 71.4536V69.8984H30.6508V71.4536H29.2778Z" fill="black"/>
<path d="M30.4771 71.4536V69.8984H31.5449V71.4536H30.4771Z" fill="black"/>
<path d="M31.3719 71.4536V69.8984H32.4397V71.4536H31.3719Z" fill="black"/>
<path d="M32.2667 71.4536V69.8984H33.6398V71.4536H32.2667Z" fill="black"/>
<path d="M33.3896 71.4536V69.8984H34V71.4536H33.3896Z" fill="black"/>
<path d="M7 74.4536V72.8984H8.06782V74.4536H7Z" fill="black"/>
<path d="M8.04776 74.4536V72.8984H9.42077V74.4536H8.04776Z" fill="black"/>
<path d="M9.2471 74.4536V72.8984H9.85747V74.4536H9.2471Z" fill="black"/>
<path d="M9.68313 74.4536V72.8984H11.2091V74.4536H9.68313Z" fill="black"/>
<path d="M11.0354 74.4536V72.8984H12.4084V74.4536H11.0354Z" fill="black"/>
<path d="M12.1019 74.4536V72.8984H13.6279V74.4536H12.1019Z" fill="black"/>
<path d="M13.4542 74.4536V72.8984H14.522V74.4536H13.4542Z" fill="black"/>
<path d="M14.502 74.4536V72.8984H15.875V74.4536H14.502Z" fill="black"/>
<path d="M15.7013 74.4536V72.8984H17.2273V74.4536H15.7013Z" fill="black"/>
<path d="M17.0536 74.4536V72.8984H17.664V74.4536H17.0536Z" fill="black"/>
<path d="M17.4896 74.4536V72.8984H18.5574V74.4536H17.4896Z" fill="black"/>
<path d="M18.2315 74.4536V72.8984H19.7575V74.4536H18.2315Z" fill="black"/>
<path d="M19.5838 74.4536V72.8984H21.1097V74.4536H19.5838Z" fill="black"/>
<path d="M20.7831 74.4536V72.8984H21.3935V74.4536H20.7831Z" fill="black"/>
<path d="M21.2192 74.4536V72.8984H22.898V74.4536H21.2192Z" fill="black"/>
<path d="M22.7432 74.4536V72.8984H23.9632V74.4536H22.7432Z" fill="black"/>
<path d="M23.7896 74.4536V72.8984H25.1626V74.4536H23.7896Z" fill="black"/>
<path d="M24.8561 74.4536V72.8984H25.9239V74.4536H24.8561Z" fill="black"/>
<path d="M25.598 74.4536V72.8984H27.1239V74.4536H25.598Z" fill="black"/>
<path d="M26.9503 74.4536V72.8984H27.5606V74.4536H26.9503Z" fill="black"/>
<path d="M7 77.4536V75.8984H8.67887V77.4536H7Z" fill="black"/>
<path d="M8.58167 77.4536V75.8984H9.80175V77.4536H8.58167Z" fill="black"/>
<path d="M9.62808 77.4536V75.8984H11.0011V77.4536H9.62808Z" fill="black"/>
<path d="M10.6946 77.4536V75.8984H12.2206V77.4536H10.6946Z" fill="black"/>
<path d="M11.894 77.4536V75.8984H13.4199V77.4536H11.894Z" fill="black"/>
<path d="M13.3227 77.4536V75.8984H14.6957V77.4536H13.3227Z" fill="black"/>
<path d="M14.522 77.4536V75.8984H15.8951V77.4536H14.522Z" fill="black"/>
<path d="M15.6838 77.4536V75.8984H16.2942V77.4536H15.6838Z" fill="black"/>
<path d="M16.1199 77.4536V75.8984H17.1877V77.4536H16.1199Z" fill="black"/>
<path d="M17.0147 77.4536V75.8984H18.2348V77.4536H17.0147Z" fill="black"/>
<path d="M18.0611 77.4536V75.8984H18.6715V77.4536H18.0611Z" fill="black"/>
<path d="M18.4971 77.4536V75.8984H19.565V77.4536H18.4971Z" fill="black"/>
<path d="M19.239 77.4536V75.8984H20.765V77.4536H19.239Z" fill="black"/>
<path d="M20.5148 77.4536V75.8984H22.0408V77.4536H20.5148Z" fill="black"/>
<path d="M21.8295 77.4536V75.8984H23.3555V77.4536H21.8295Z" fill="black"/>
<path d="M23.0289 77.4536V75.8984H23.6393V77.4536H23.0289Z" fill="black"/>
<path d="M23.4649 77.4536V75.8984H24.5328V77.4536H23.4649Z" fill="black"/>
<path d="M24.3598 77.4536V75.8984H25.4276V77.4536H24.3598Z" fill="black"/>
<path d="M25.5057 77.378C25.5057 77.3435 25.514 77.3192 25.5305 77.3052C25.547 77.2912 25.5666 77.2842 25.5895 77.2842C25.6133 77.2842 25.6335 77.2912 25.65 77.3052C25.6674 77.3192 25.6761 77.3435 25.6761 77.378C25.6761 77.4116 25.6674 77.4359 25.65 77.4508C25.6335 77.4657 25.6133 77.4732 25.5895 77.4732C25.5666 77.4732 25.547 77.4657 25.5305 77.4508C25.514 77.4359 25.5057 77.4116 25.5057 77.378ZM25.8656 77.378C25.8656 77.3435 25.8739 77.3192 25.8904 77.3052C25.9069 77.2912 25.9265 77.2842 25.9494 77.2842C25.9733 77.2842 25.9934 77.2912 26.0099 77.3052C26.0273 77.3192 26.036 77.3435 26.036 77.378C26.036 77.4116 26.0273 77.4359 26.0099 77.4508C25.9934 77.4657 25.9733 77.4732 25.9494 77.4732C25.9265 77.4732 25.9069 77.4657 25.8904 77.4508C25.8739 77.4359 25.8656 77.4116 25.8656 77.378ZM26.2242 77.378C26.2242 77.3435 26.2324 77.3192 26.2489 77.3052C26.2654 77.2912 26.2851 77.2842 26.308 77.2842C26.3318 77.2842 26.3519 77.2912 26.3684 77.3052C26.3858 77.3192 26.3945 77.3435 26.3945 77.378C26.3945 77.4116 26.3858 77.4359 26.3684 77.4508C26.3519 77.4657 26.3318 77.4732 26.308 77.4732C26.2851 77.4732 26.2654 77.4657 26.2489 77.4508C26.2324 77.4359 26.2242 77.4116 26.2242 77.378Z" fill="black"/>
<path d="M26.1333 77.4536V75.8984H26.7437V77.4536H26.1333Z" fill="black"/>
<path d="M26.7223 77.4536V75.8984H28.8586V77.4536H26.7223Z" fill="black"/>
<path d="M28.646 77.4536V75.8984H30.172V77.4536H28.646Z" fill="black"/>
<path d="M29.8454 77.4536V75.8984H30.4557V77.4536H29.8454Z" fill="black"/>
<path d="M7 80.4536V78.8984H8.52594V80.4536H7Z" fill="black"/>
<path d="M8.27581 80.4536V78.8984H9.64882V80.4536H8.27581Z" fill="black"/>
<path d="M9.34234 80.4536V78.8984H10.8683V80.4536H9.34234Z" fill="black"/>
<path d="M10.5417 80.4536V78.8984H11.1521V80.4536H10.5417Z" fill="black"/>
<path d="M10.9777 80.4536V78.8984H12.9618V80.4536H10.9777Z" fill="black"/>
<path d="M13.0168 80.4536V78.8984H14.2369V80.4536H13.0168Z" fill="black"/>
<path d="M14.0633 80.4536V78.8984H15.4363V80.4536H14.0633Z" fill="black"/>
<path d="M15.1298 80.4536V78.8984H16.6557V80.4536H15.1298Z" fill="black"/>
<path d="M16.3291 80.4536V78.8984H16.9395V80.4536H16.3291Z" fill="black"/>
<path d="M16.7652 80.4536V78.8984H17.833V80.4536H16.7652Z" fill="black"/>
<path d="M17.5071 80.4536V78.8984H19.033V80.4536H17.5071Z" fill="black"/>
<path d="M18.8593 80.4536V78.8984H20.3853V80.4536H18.8593Z" fill="black"/>
<path d="M20.2881 80.4536V78.8984H21.6611V80.4536H20.2881Z" fill="black"/>
<path d="M21.4874 80.4536V78.8984H22.0978V80.4536H21.4874Z" fill="black"/>
<path d="M21.9235 80.4536V78.8984H24.0598V80.4536H21.9235Z" fill="black"/>
<path d="M23.8096 80.4536V78.8984H24.8775V80.4536H23.8096Z" fill="black"/>
<path d="M24.7045 80.4536V78.8984H25.7723V80.4536H24.7045Z" fill="black"/>
<path d="M25.5993 80.4536V78.8984H26.6671V80.4536H25.5993Z" fill="black"/>
<path d="M26.4941 80.4536V78.8984H27.5619V80.4536H26.4941Z" fill="black"/>
<path d="M27.5419 80.4536V78.8984H28.9149V80.4536H27.5419Z" fill="black"/>
<path d="M28.7412 80.4536V78.8984H30.2672V80.4536H28.7412Z" fill="black"/>
<path d="M30.0935 80.4536V78.8984H30.7039V80.4536H30.0935Z" fill="black"/>
<path d="M30.5295 80.4536V78.8984H31.5973V80.4536H30.5295Z" fill="black"/>
<path d="M31.4243 80.4536V78.8984H32.6444V80.4536H31.4243Z" fill="black"/>
<path d="M32.4708 80.4536V78.8984H33.0811V80.4536H32.4708Z" fill="black"/>
<path d="M7 83.4536V81.8984H8.52594V83.4536H7Z" fill="black"/>
<path d="M8.35227 83.4536V81.8984H9.72528V83.4536H8.35227Z" fill="black"/>
<path d="M9.55162 83.4536V81.8984H11.0776V83.4536H9.55162Z" fill="black"/>
<path d="M10.9039 83.4536V81.8984H12.4298V83.4536H10.9039Z" fill="black"/>
<path d="M12.1797 83.4536V81.8984H13.7056V83.4536H12.1797Z" fill="black"/>
<path d="M13.532 83.4536V81.8984H15.0579V83.4536H13.532Z" fill="black"/>
<path d="M14.7313 83.4536V81.8984H15.3417V83.4536H14.7313Z" fill="black"/>
<path d="M15.1673 83.4536V81.8984H16.2352V83.4536H15.1673Z" fill="black"/>
<path d="M16.2151 83.4536V81.8984H17.5881V83.4536H16.2151Z" fill="black"/>
<path d="M17.4144 83.4536V81.8984H18.0248V83.4536H17.4144Z" fill="black"/>
<path d="M18.0034 83.4536V81.8984H19.3764V83.4536H18.0034Z" fill="black"/>
<path d="M19.2028 83.4536V81.8984H20.7287V83.4536H19.2028Z" fill="black"/>
<path d="M20.4021 83.4536V81.8984H21.928V83.4536H20.4021Z" fill="black"/>
<path d="M21.9073 83.4536V81.8984H23.1274V83.4536H21.9073Z" fill="black"/>
<path d="M22.9537 83.4536V81.8984H24.0215V83.4536H22.9537Z" fill="black"/>
<path d="M23.6956 83.4536V81.8984H24.7634V83.4536H23.6956Z" fill="black"/>
<path d="M24.5904 83.4536V81.8984H26.1164V83.4536H24.5904Z" fill="black"/>
<path d="M25.8662 83.4536V81.8984H26.9341V83.4536H25.8662Z" fill="black"/>
<path d="M26.6081 83.4536V81.8984H27.676V83.4536H26.6081Z" fill="black"/>
<path d="M27.6559 83.4536V81.8984H28.876V83.4536H27.6559Z" fill="black"/>
<path d="M28.8552 83.4536V81.8984H30.2282V83.4536H28.8552Z" fill="black"/>
<path d="M30.0546 83.4536V81.8984H31.4276V83.4536H30.0546Z" fill="black"/>
<path d="M31.2164 83.4536V81.8984H31.8267V83.4536H31.2164Z" fill="black"/>
<path d="M7 86.4536V84.8984H8.06782V86.4536H7Z" fill="black"/>
<path d="M7.89483 86.4536V84.8984H9.11491V86.4536H7.89483Z" fill="black"/>
<path d="M8.94124 86.4536V84.8984H9.55162V86.4536H8.94124Z" fill="black"/>
<path d="M9.37728 86.4536V84.8984H10.9032V86.4536H9.37728Z" fill="black"/>
<path d="M10.7295 86.4536V84.8984H12.2555V86.4536H10.7295Z" fill="black"/>
<path d="M11.9289 86.4536V84.8984H12.9967V86.4536H11.9289Z" fill="black"/>
<path d="M12.6708 86.4536V84.8984H13.2812V86.4536H12.6708Z" fill="black"/>
<path d="M13.1068 86.4536V84.8984H14.7857V86.4536H13.1068Z" fill="black"/>
<path d="M14.6308 86.4536V84.8984H15.8509V86.4536H14.6308Z" fill="black"/>
<path d="M15.6772 86.4536V84.8984H17.0502V86.4536H15.6772Z" fill="black"/>
<path d="M16.7438 86.4536V84.8984H17.8116V86.4536H16.7438Z" fill="black"/>
<path d="M17.4857 86.4536V84.8984H19.0116V86.4536H17.4857Z" fill="black"/>
<path d="M18.8379 86.4536V84.8984H19.4483V86.4536H18.8379Z" fill="black"/>
<path d="M19.274 86.4536V84.8984H20.9528V86.4536H19.274Z" fill="black"/>
<path d="M20.8556 86.4536V84.8984H22.0757V86.4536H20.8556Z" fill="black"/>
<path d="M21.902 86.4536V84.8984H23.2751V86.4536H21.902Z" fill="black"/>
<path d="M22.9686 86.4536V84.8984H24.4945V86.4536H22.9686Z" fill="black"/>
<path d="M24.1679 86.4536V84.8984H25.6939V86.4536H24.1679Z" fill="black"/>
<path d="M25.4437 86.4536V84.8984H26.0541V86.4536H25.4437Z" fill="black"/>
<path d="M26.0327 86.4536V84.8984H27.2528V86.4536H26.0327Z" fill="black"/>
<path d="M27.232 86.4536V84.8984H28.605V86.4536H27.232Z" fill="black"/>
<path d="M28.4314 86.4536V84.8984H29.0418V86.4536H28.4314Z" fill="black"/>
<path d="M28.8674 86.4536V84.8984H30.3934V86.4536H28.8674Z" fill="black"/>
<path d="M30.1432 86.4536V84.8984H30.7536V86.4536H30.1432Z" fill="black"/>
<path d="M7.15293 89.4536V87.8984H8.52594V89.4536H7.15293Z" fill="black"/>
<path d="M8.27581 89.4536V87.8984H9.80175V89.4536H8.27581Z" fill="black"/>
<path d="M9.55162 89.4536V87.8984H10.6194V89.4536H9.55162Z" fill="black"/>
<path d="M10.2935 89.4536V87.8984H11.8195V89.4536H10.2935Z" fill="black"/>
<path d="M11.6458 89.4536V87.8984H12.2562V89.4536H11.6458Z" fill="black"/>
<path d="M12.2348 89.4536V87.8984H13.4548V89.4536H12.2348Z" fill="black"/>
<path d="M13.2812 89.4536V87.8984H14.5019V89.4536H13.2812Z" fill="black"/>
<path d="M14.176 89.4536V87.8984H14.7864V89.4536H14.176Z" fill="black"/>
<path d="M14.765 89.4536V87.8984H16.138V89.4536H14.765Z" fill="black"/>
<path d="M15.8878 89.4536V87.8984H17.4138V89.4536H15.8878Z" fill="black"/>
<path d="M17.0872 89.4536V87.8984H18.6131V89.4536H17.0872Z" fill="black"/>
<path d="M18.363 89.4536V87.8984H19.736V89.4536H18.363Z" fill="black"/>
<path d="M19.4859 89.4536V87.8984H21.0118V89.4536H19.4859Z" fill="black"/>
<path d="M20.6852 89.4536V87.8984H21.906V89.4536H20.6852Z" fill="black"/>
<path d="M21.58 89.4536V87.8984H23.106V89.4536H21.58Z" fill="black"/>
<path d="M22.9323 89.4536V87.8984H24.0001V89.4536H22.9323Z" fill="black"/>
<path d="M23.8271 89.4536V87.8984H24.4375V89.4536H23.8271Z" fill="black"/>
<path d="M7 92.4536V90.8984H8.37301V92.4536H7Z" fill="black"/>
<path d="M8.27581 92.4536V90.8984H9.49589V92.4536H8.27581Z" fill="black"/>
<path d="M9.32222 92.4536V90.8984H10.8482V92.4536H9.32222Z" fill="black"/>
<path d="M10.5216 92.4536V90.8984H12.0475V92.4536H10.5216Z" fill="black"/>
<path d="M11.7974 92.4536V90.8984H12.8652V92.4536H11.7974Z" fill="black"/>
<path d="M12.6922 92.4536V90.8984H14.0652V92.4536H12.6922Z" fill="black"/>
<path d="M13.854 92.4536V90.8984H14.9218V92.4536H13.854Z" fill="black"/>
<path d="M14.5959 92.4536V90.8984H16.1218V92.4536H14.5959Z" fill="black"/>
<path d="M15.9481 92.4536V90.8984H17.3212V92.4536H15.9481Z" fill="black"/>
<path d="M17.1475 92.4536V90.8984H18.5205V92.4536H17.1475Z" fill="black"/>
<path d="M18.2704 92.4536V90.8984H19.7963V92.4536H18.2704Z" fill="black"/>
<path d="M19.4697 92.4536V90.8984H20.0801V92.4536H19.4697Z" fill="black"/>
<path d="M19.9057 92.4536V90.8984H22.0421V92.4536H19.9057Z" fill="black"/>
<path d="M21.7919 92.4536V90.8984H22.8598V92.4536H21.7919Z" fill="black"/>
<path d="M22.6868 92.4536V90.8984H23.7546V92.4536H22.6868Z" fill="black"/>
<path d="M23.4287 92.4536V90.8984H24.9546V92.4536H23.4287Z" fill="black"/>
<path d="M24.7809 92.4536V90.8984H25.3913V92.4536H24.7809Z" fill="black"/>
<path d="M25.217 92.4536V90.8984H26.2848V92.4536H25.217Z" fill="black"/>
<path d="M26.1118 92.4536V90.8984H27.1796V92.4536H26.1118Z" fill="black"/>
<path d="M26.8537 92.4536V90.8984H28.2267V92.4536H26.8537Z" fill="black"/>
<path d="M28.0155 92.4536V90.8984H28.6258V92.4536H28.0155Z" fill="black"/>
<path d="M7.15293 95.4536V93.8984H8.52594V95.4536H7.15293Z" fill="black"/>
<path d="M8.35227 95.4536V93.8984H9.87821V95.4536H8.35227Z" fill="black"/>
<path d="M9.55162 95.4536V93.8984H10.6194V95.4536H9.55162Z" fill="black"/>
<path d="M10.4464 95.4536V93.8984H11.9724V95.4536H10.4464Z" fill="black"/>
<path d="M11.7987 95.4536V93.8984H13.3247V95.4536H11.7987Z" fill="black"/>
<path d="M13.3039 95.4536V93.8984H14.6769V95.4536H13.3039Z" fill="black"/>
<path d="M14.5033 95.4536V93.8984H15.7233V95.4536H14.5033Z" fill="black"/>
<path d="M15.5497 95.4536V93.8984H16.9227V95.4536H15.5497Z" fill="black"/>
<path d="M16.6162 95.4536V93.8984H17.9892V95.4536H16.6162Z" fill="black"/>
<path d="M17.778 95.4536V93.8984H18.5406V95.4536H17.778Z" fill="black"/>
<path d="M18.2905 95.4536V93.8984H18.9009V95.4536H18.2905Z" fill="black"/>
<path d="M18.7265 95.4536V93.8984H20.2525V95.4536H18.7265Z" fill="black"/>
<path d="M20.1553 95.4536V93.8984H21.5283V95.4536H20.1553Z" fill="black"/>
<path d="M21.3546 95.4536V93.8984H22.8805V95.4536H21.3546Z" fill="black"/>
<path d="M22.6304 95.4536V93.8984H23.2408V95.4536H22.6304Z" fill="black"/>
<path d="M23.0665 95.4536V93.8984H25.2028V95.4536H23.0665Z" fill="black"/>
<path d="M24.9526 95.4536V93.8984H26.4786V95.4536H24.9526Z" fill="black"/>
<path d="M26.152 95.4536V93.8984H26.7624V95.4536H26.152Z" fill="black"/>
<path d="M26.588 95.4536V93.8984H28.7243V95.4536H26.588Z" fill="black"/>
<path d="M28.3977 95.4536V93.8984H29.9237V95.4536H28.3977Z" fill="black"/>
<path d="M29.8265 95.4536V93.8984H31.1995V95.4536H29.8265Z" fill="black"/>
<path d="M31.0258 95.4536V93.8984H32.0936V95.4536H31.0258Z" fill="black"/>
<path d="M31.7677 95.4536V93.8984H32.3781V95.4536H31.7677Z" fill="black"/>
<path d="M7 98.4536V96.8984H8.06782V98.4536H7Z" fill="black"/>
<path d="M7.89483 98.4536V96.8984H9.11491V98.4536H7.89483Z" fill="black"/>
<path d="M8.94124 98.4536V96.8984H9.55162V98.4536H8.94124Z" fill="black"/>
<path d="M9.37728 98.4536V96.8984H10.9032V98.4536H9.37728Z" fill="black"/>
<path d="M10.7295 98.4536V96.8984H12.1026V98.4536H10.7295Z" fill="black"/>
<path d="M11.9289 98.4536V96.8984H13.3019V98.4536H11.9289Z" fill="black"/>
<path d="M13.2047 98.4536V96.8984H14.4248V98.4536H13.2047Z" fill="black"/>
<path d="M14.2511 98.4536V96.8984H15.7771V98.4536H14.2511Z" fill="black"/>
<path d="M15.6034 98.4536V96.8984H16.9764V98.4536H15.6034Z" fill="black"/>
<path d="M16.6324 98.4536V96.8984H18.1583V98.4536H16.6324Z" fill="black"/>
<path d="M17.9082 98.4536V96.8984H19.4341V98.4536H17.9082Z" fill="black"/>
<path d="M19.2604 98.4536V96.8984H20.7864V98.4536H19.2604Z" fill="black"/>
<path d="M20.4598 98.4536V96.8984H21.0702V98.4536H20.4598Z" fill="black"/>
<path d="M20.8958 98.4536V96.8984H21.9636V98.4536H20.8958Z" fill="black"/>
<path d="M21.6377 98.4536V96.8984H23.1637V98.4536H21.6377Z" fill="black"/>
<path d="M22.99 98.4536V96.8984H24.5159V98.4536H22.99Z" fill="black"/>
<path d="M24.1893 98.4536V96.8984H25.2572V98.4536H24.1893Z" fill="black"/>
<path d="M25.0842 98.4536V96.8984H26.4572V98.4536H25.0842Z" fill="black"/>
<path d="M26.1507 98.4536V96.8984H26.7611V98.4536H26.1507Z" fill="black"/>
<path d="M7.15293 101.454V99.8984H8.52594V101.454H7.15293Z" fill="black"/>
<path d="M8.27581 101.454V99.8984H9.64882V101.454H8.27581Z" fill="black"/>
<path d="M9.49527 101.454V99.8984H10.7154V101.454H9.49527Z" fill="black"/>
<path d="M10.5417 101.454V99.8984H11.9147V101.454H10.5417Z" fill="black"/>
<path d="M11.8564 101.454V99.8984H13.2294V101.454H11.8564Z" fill="black"/>
<path d="M12.9793 101.454V99.8984H14.5052V101.454H12.9793Z" fill="black"/>
<path d="M14.1786 101.454V99.8984H15.5516V101.454H14.1786Z" fill="black"/>
<path d="M15.2452 101.454V99.8984H16.313V101.454H15.2452Z" fill="black"/>
<path d="M16.14 101.454V99.8984H17.2078V101.454H16.14Z" fill="black"/>
<path d="M17.0348 101.454V99.8984H18.4078V101.454H17.0348Z" fill="black"/>
<path d="M18.1577 101.454V99.8984H18.9203V101.454H18.1577Z" fill="black"/>
<path d="M18.6702 101.454V99.8984H19.4328V101.454H18.6702Z" fill="black"/>
</g>
<rect width="12" height="14" transform="translate(26 92.4536)" fill="white"/>
<path d="M31.6787 96.3149C32.5999 96.3149 33.2721 96.5135 33.6953 96.9106C34.1185 97.3045 34.3301 97.8481 34.3301 98.5415C34.3301 98.854 34.2829 99.1535 34.1885 99.4399C34.0941 99.7231 33.9395 99.9754 33.7246 100.197C33.513 100.418 33.2298 100.594 32.875 100.724C32.5202 100.851 32.0824 100.915 31.5615 100.915H30.9121V103.454H29.3984V96.3149H31.6787ZM31.6006 97.5552H30.9121V99.6743H31.4102C31.6934 99.6743 31.9391 99.6369 32.1475 99.562C32.3558 99.4871 32.5169 99.37 32.6309 99.2104C32.7448 99.0509 32.8018 98.8459 32.8018 98.5952C32.8018 98.2437 32.7041 97.9832 32.5088 97.814C32.3135 97.6414 32.0107 97.5552 31.6006 97.5552Z" fill="#585858"/>
<rect x="1" y="0.898438" width="39" height="108.555" stroke="#364B60"/>
<path d="M12.3333 112.454H3V118.802H12.3333V112.454Z" fill="#7FA4CA"/>
<path d="M22.6663 112.454H13.333V118.802H22.6663V112.454Z" fill="#BB90BB"/>
</svg>
