<svg width="39" height="100" viewBox="0 0 39 100" fill="none" xmlns="http://www.w3.org/2000/svg">
<rect width="39" height="100" fill=""/>
<g clip-path="url(#clip0_39_124700)">
<g filter="url(#filter0_d_39_124700)">
<rect width="35" height="83.5552" transform="translate(2 2.77148)" fill="white"/>
<g opacity="0.3">
<rect width="35" height="81.5552" transform="translate(2 2.77148)" fill="white"/>
<path d="M6 8.32666V6.77148H6.77359V8.32666H6Z" fill="black"/>
<path d="M6.59743 8.32666V6.77148H7.21657V8.32666H6.59743Z" fill="black"/>
<path d="M7.03973 8.32666V6.77148H8.58759V8.32666H7.03973Z" fill="black"/>
<path d="M8.41142 8.32666V6.77148H9.18501V8.32666H8.41142Z" fill="black"/>
<path d="M9.00885 8.32666V6.77148H10.5567V8.32666H9.00885Z" fill="black"/>
<path d="M10.3805 8.32666V6.77148H11.9284V8.32666H10.3805Z" fill="black"/>
<path d="M11.5971 8.32666V6.77148H12.2163V8.32666H11.5971Z" fill="black"/>
<path d="M12.0394 8.32666V6.77148H13.4321V8.32666H12.0394Z" fill="black"/>
<path d="M13.1213 8.32666V6.77148H14.6691V8.32666H13.1213Z" fill="black"/>
<path d="M14.3378 8.32666V6.77148H15.7306V8.32666H14.3378Z" fill="black"/>
<path d="M15.632 8.32666V6.77148H16.8696V8.32666H15.632Z" fill="black"/>
<path d="M16.6934 8.32666V6.77148H18.0861V8.32666H16.6934Z" fill="black"/>
<path d="M17.7753 8.32666V6.77148H19.3231V8.32666H17.7753Z" fill="black"/>
<path d="M19.0694 8.32666V6.77148H19.6885V8.32666H19.0694Z" fill="black"/>
<path d="M19.5117 8.32666V6.77148H21.5243V8.32666H19.5117Z" fill="black"/>
<path d="M21.425 8.32666V6.77148H22.9728V8.32666H21.425Z" fill="black"/>
<path d="M22.7191 8.32666V6.77148H24.267V8.32666H22.7191Z" fill="black"/>
<path d="M24.0527 8.32666V6.77148H25.6006V8.32666H24.0527Z" fill="black"/>
<path d="M25.2693 8.32666V6.77148H26.662V8.32666H25.2693Z" fill="black"/>
<path d="M26.4477 8.32666V6.77148H27.0669V8.32666H26.4477Z" fill="black"/>
<path d="M26.89 8.32666V6.77148H27.9732V8.32666H26.89Z" fill="black"/>
<path d="M27.7977 8.32666V6.77148H28.8809V8.32666H27.7977Z" fill="black"/>
<path d="M28.5503 8.32666V6.77148H29.1694V8.32666H28.5503Z" fill="black"/>
<path d="M6 11.3267V9.77148H7.39273V11.3267H6Z" fill="black"/>
<path d="M7.13901 11.3267V9.77148H8.22217V11.3267H7.13901Z" fill="black"/>
<path d="M8.04668 11.3267V9.77148H9.59454V11.3267H8.04668Z" fill="black"/>
<path d="M9.26325 11.3267V9.77148H10.8111V11.3267H9.26325Z" fill="black"/>
<path d="M10.5574 11.3267V9.77148H11.9501V11.3267H10.5574Z" fill="black"/>
<path d="M11.6392 11.3267V9.77148H12.2584V11.3267H11.6392Z" fill="black"/>
<path d="M12.0815 11.3267V9.77148H13.1647V11.3267H12.0815Z" fill="black"/>
<path d="M12.8341 11.3267V9.77148H14.382V11.3267H12.8341Z" fill="black"/>
<path d="M14.2058 11.3267V9.77148H15.7537V11.3267H14.2058Z" fill="black"/>
<path d="M15.4999 11.3267V9.77148H16.5831V11.3267H15.4999Z" fill="black"/>
<path d="M16.2525 11.3267V9.77148H16.8716V11.3267H16.2525Z" fill="black"/>
<path d="M16.6948 11.3267V9.77148H17.7779V11.3267H16.6948Z" fill="black"/>
<path d="M17.4473 11.3267V9.77148H18.9952V11.3267H17.4473Z" fill="black"/>
<path d="M18.819 11.3267V9.77148H20.3669V11.3267H18.819Z" fill="black"/>
<path d="M20.0356 11.3267V9.77148H20.6547V11.3267H20.0356Z" fill="black"/>
<path d="M20.4779 11.3267V9.77148H22.1809V11.3267H20.4779Z" fill="black"/>
<path d="M22.0428 11.3267V9.77148H23.4355V11.3267H22.0428Z" fill="black"/>
<path d="M23.2594 11.3267V9.77148H24.3425V11.3267H23.2594Z" fill="black"/>
<path d="M24.1671 11.3267V9.77148H25.2502V11.3267H24.1671Z" fill="black"/>
<path d="M24.9196 11.3267V9.77148H26.4675V11.3267H24.9196Z" fill="black"/>
<path d="M26.1362 11.3267V9.77148H27.684V11.3267H26.1362Z" fill="black"/>
<path d="M27.4303 11.3267V9.77148H28.0495V11.3267H27.4303Z" fill="black"/>
<path d="M6 14.3267V12.7715H7.39273V14.3267H6Z" fill="black"/>
<path d="M7.29413 14.3267V12.7715H8.37729V14.3267H7.29413Z" fill="black"/>
<path d="M8.04668 14.3267V12.7715H9.59454V14.3267H8.04668Z" fill="black"/>
<path d="M9.34082 14.3267V12.7715H10.424V14.3267H9.34082Z" fill="black"/>
<path d="M10.0934 14.3267V12.7715H11.6412V14.3267H10.0934Z" fill="black"/>
<path d="M11.3099 14.3267V12.7715H12.7027V14.3267H11.3099Z" fill="black"/>
<path d="M12.4884 14.3267V12.7715H13.1076V14.3267H12.4884Z" fill="black"/>
<path d="M12.9307 14.3267V12.7715H14.4786V14.3267H12.9307Z" fill="black"/>
<path d="M14.3024 14.3267V12.7715H15.8503V14.3267H14.3024Z" fill="black"/>
<path d="M15.5965 14.3267V12.7715H16.9893V14.3267H15.5965Z" fill="black"/>
<path d="M16.775 14.3267V12.7715H17.3941V14.3267H16.775Z" fill="black"/>
<path d="M17.2173 14.3267V12.7715H18.61V14.3267H17.2173Z" fill="black"/>
<path d="M18.5114 14.3267V12.7715H19.749V14.3267H18.5114Z" fill="black"/>
<path d="M19.728 14.3267V12.7715H21.1207V14.3267H19.728Z" fill="black"/>
<path d="M20.9446 14.3267V12.7715H22.3373V14.3267H20.9446Z" fill="black"/>
<path d="M22.123 14.3267V12.7715H23.2062V14.3267H22.123Z" fill="black"/>
<path d="M23.0307 14.3267V12.7715H24.4235V14.3267H23.0307Z" fill="black"/>
<path d="M24.2092 14.3267V12.7715H25.2924V14.3267H24.2092Z" fill="black"/>
<path d="M24.9617 14.3267V12.7715H26.5096V14.3267H24.9617Z" fill="black"/>
<path d="M26.3334 14.3267V12.7715H27.7262V14.3267H26.3334Z" fill="black"/>
<path d="M27.55 14.3267V12.7715H28.6332V14.3267H27.55Z" fill="black"/>
<path d="M28.3026 14.3267V12.7715H29.3857V14.3267H28.3026Z" fill="black"/>
<path d="M29.2878 14.3267V12.7715H30.6805V14.3267H29.2878Z" fill="black"/>
<path d="M30.4268 14.3267V12.7715H31.046V14.3267H30.4268Z" fill="black"/>
<path d="M6 17.3267V15.7715H8.01256V17.3267H6Z" fill="black"/>
<path d="M7.91328 17.3267V15.7715H9.46114V17.3267H7.91328Z" fill="black"/>
<path d="M9.20741 17.3267V15.7715H10.7553V17.3267H9.20741Z" fill="black"/>
<path d="M10.5015 17.3267V15.7715H12.0494V17.3267H10.5015Z" fill="black"/>
<path d="M11.7181 17.3267V15.7715H12.3373V17.3267H11.7181Z" fill="black"/>
<path d="M12.1604 17.3267V15.7715H13.7083V17.3267H12.1604Z" fill="black"/>
<path d="M13.4545 17.3267V15.7715H14.0737V17.3267H13.4545Z" fill="black"/>
<path d="M13.8968 17.3267V15.7715H15.4447V17.3267H13.8968Z" fill="black"/>
<path d="M15.4237 17.3267V15.7715H16.6613V17.3267H15.4237Z" fill="black"/>
<path d="M16.6402 17.3267V15.7715H17.8778V17.3267H16.6402Z" fill="black"/>
<path d="M17.7017 17.3267V15.7715H19.2495V17.3267H17.7017Z" fill="black"/>
<path d="M18.9958 17.3267V15.7715H19.615V17.3267H18.9958Z" fill="black"/>
<path d="M19.4381 17.3267V15.7715H20.6764V17.3267H19.4381Z" fill="black"/>
<path d="M20.3458 17.3267V15.7715H21.8937V17.3267H20.3458Z" fill="black"/>
<path d="M21.6399 17.3267V15.7715H22.7231V17.3267H21.6399Z" fill="black"/>
<path d="M22.5476 17.3267V15.7715H23.6308V17.3267H22.5476Z" fill="black"/>
<path d="M23.3002 17.3267V15.7715H24.848V17.3267H23.3002Z" fill="black"/>
<path d="M24.6719 17.3267V15.7715H25.291V17.3267H24.6719Z" fill="black"/>
<path d="M25.1142 17.3267V15.7715H26.662V17.3267H25.1142Z" fill="black"/>
<path d="M26.3307 17.3267V15.7715H27.569V17.3267H26.3307Z" fill="black"/>
<path d="M27.2384 17.3267V15.7715H28.4767V17.3267H27.2384Z" fill="black"/>
<path d="M28.3012 17.3267V15.7715H29.5388V17.3267H28.3012Z" fill="black"/>
<path d="M29.3626 17.3267V15.7715H30.7554V17.3267H29.3626Z" fill="black"/>
<path d="M30.4445 17.3267V15.7715H31.5277V17.3267H30.4445Z" fill="black"/>
<path d="M31.1971 17.3267V15.7715H31.8162V17.3267H31.1971Z" fill="black"/>
<path d="M6 20.3267V18.7715H7.08316V20.3267H6Z" fill="black"/>
<path d="M6.90768 20.3267V18.7715H8.14529V20.3267H6.90768Z" fill="black"/>
<path d="M7.96912 20.3267V18.7715H8.58827V20.3267H7.96912Z" fill="black"/>
<path d="M8.41142 20.3267V18.7715H9.80416V20.3267H8.41142Z" fill="black"/>
<path d="M9.49328 20.3267V18.7715H11.0411V20.3267H9.49328Z" fill="black"/>
<path d="M10.7098 20.3267V18.7715H12.2577V20.3267H10.7098Z" fill="black"/>
<path d="M12.004 20.3267V18.7715H13.3967V20.3267H12.004Z" fill="black"/>
<path d="M13.143 20.3267V18.7715H14.6908V20.3267H13.143Z" fill="black"/>
<path d="M14.5147 20.3267V18.7715H15.1338V20.3267H14.5147Z" fill="black"/>
<path d="M14.957 20.3267V18.7715H16.5048V20.3267H14.957Z" fill="black"/>
<path d="M16.2511 20.3267V18.7715H16.8703V20.3267H16.2511Z" fill="black"/>
<path d="M6 23.3267V21.7715H7.54786V23.3267H6Z" fill="black"/>
<path d="M7.29413 23.3267V21.7715H8.84199V23.3267H7.29413Z" fill="black"/>
<path d="M8.66583 23.3267V21.7715H10.0586V23.3267H8.66583Z" fill="black"/>
<path d="M9.8824 23.3267V21.7715H11.4303V23.3267H9.8824Z" fill="black"/>
<path d="M11.2541 23.3267V21.7715H12.6468V23.3267H11.2541Z" fill="black"/>
<path d="M12.3931 23.3267V21.7715H13.4763V23.3267H12.3931Z" fill="black"/>
<path d="M13.3008 23.3267V21.7715H14.8486V23.3267H13.3008Z" fill="black"/>
<path d="M14.5173 23.3267V21.7715H16.0652V23.3267H14.5173Z" fill="black"/>
<path d="M15.8115 23.3267V21.7715H17.2042V23.3267H15.8115Z" fill="black"/>
<path d="M16.8933 23.3267V21.7715H17.9765V23.3267H16.8933Z" fill="black"/>
<path d="M17.9561 23.3267V21.7715H19.1937V23.3267H17.9561Z" fill="black"/>
<path d="M18.921 23.3267V21.7715H20.4688V23.3267H18.921Z" fill="black"/>
<path d="M20.2151 23.3267V21.7715H21.2983V23.3267H20.2151Z" fill="black"/>
<path d="M20.9677 23.3267V21.7715H22.0508V23.3267H20.9677Z" fill="black"/>
<path d="M22.0305 23.3267V21.7715H23.2681V23.3267H22.0305Z" fill="black"/>
<path d="M23.247 23.3267V21.7715H24.6398V23.3267H23.247Z" fill="black"/>
<path d="M24.4636 23.3267V21.7715H25.0827V23.3267H24.4636Z" fill="black"/>
<path d="M24.9059 23.3267V21.7715H26.4538V23.3267H24.9059Z" fill="black"/>
<path d="M26.2 23.3267V21.7715H27.7479V23.3267H26.2Z" fill="black"/>
<path d="M27.4166 23.3267V21.7715H28.9645V23.3267H27.4166Z" fill="black"/>
<path d="M28.7107 23.3267V21.7715H29.7939V23.3267H28.7107Z" fill="black"/>
<path d="M29.6184 23.3267V21.7715H30.2376V23.3267H29.6184Z" fill="black"/>
<path d="M6 26.3267V24.7715H7.08316V26.3267H6Z" fill="black"/>
<path d="M6.75255 26.3267V24.7715H8.30041V26.3267H6.75255Z" fill="black"/>
<path d="M8.12425 26.3267V24.7715H9.51698V26.3267H8.12425Z" fill="black"/>
<path d="M9.36123 26.3267V24.7715H10.5988V26.3267H9.36123Z" fill="black"/>
<path d="M10.4227 26.3267V24.7715H11.9705V26.3267H10.4227Z" fill="black"/>
<path d="M11.7944 26.3267V24.7715H13.3422V26.3267H11.7944Z" fill="black"/>
<path d="M13.1661 26.3267V24.7715H14.7139V26.3267H13.1661Z" fill="black"/>
<path d="M14.5378 26.3267V24.7715H15.1569V26.3267H14.5378Z" fill="black"/>
<path d="M14.9801 26.3267V24.7715H16.5279V26.3267H14.9801Z" fill="black"/>
<path d="M16.2742 26.3267V24.7715H17.3574V26.3267H16.2742Z" fill="black"/>
<path d="M17.337 26.3267V24.7715H18.7297V26.3267H17.337Z" fill="black"/>
<path d="M18.476 26.3267V24.7715H19.5592V26.3267H18.476Z" fill="black"/>
<path d="M19.5388 26.3267V24.7715H20.7764V26.3267H19.5388Z" fill="black"/>
<path d="M20.6003 26.3267V24.7715H22.6128V26.3267H20.6003Z" fill="black"/>
<path d="M22.5135 26.3267V24.7715H24.0614V26.3267H22.5135Z" fill="black"/>
<path d="M23.8077 26.3267V24.7715H25.2004V26.3267H23.8077Z" fill="black"/>
<path d="M25.1018 26.3267V24.7715H26.4945V26.3267H25.1018Z" fill="black"/>
<path d="M26.2408 26.3267V24.7715H27.0144V26.3267H26.2408Z" fill="black"/>
<path d="M26.7607 26.3267V24.7715H27.3798V26.3267H26.7607Z" fill="black"/>
<path d="M27.3581 26.3267V24.7715H29.5251V26.3267H27.3581Z" fill="black"/>
<path d="M29.3095 26.3267V24.7715H30.8573V26.3267H29.3095Z" fill="black"/>
<path d="M30.526 26.3267V24.7715H31.1452V26.3267H30.526Z" fill="black"/>
<path d="M6 29.3267V27.7715H7.54786V29.3267H6Z" fill="black"/>
<path d="M7.3717 29.3267V27.7715H8.91956V29.3267H7.3717Z" fill="black"/>
<path d="M8.58827 29.3267V27.7715H9.981V29.3267H8.58827Z" fill="black"/>
<path d="M9.8824 29.3267V27.7715H11.4303V29.3267H9.8824Z" fill="black"/>
<path d="M11.099 29.3267V27.7715H11.7181V29.3267H11.099Z" fill="black"/>
<path d="M11.5413 29.3267V27.7715H13.0891V29.3267H11.5413Z" fill="black"/>
<path d="M12.8354 29.3267V27.7715H13.9186V29.3267H12.8354Z" fill="black"/>
<path d="M13.6655 29.3267V27.7715H15.8325V29.3267H13.6655Z" fill="black"/>
<path d="M15.5012 29.3267V27.7715H17.0491V29.3267H15.5012Z" fill="black"/>
<path d="M16.8729 29.3267V27.7715H18.2657V29.3267H16.8729Z" fill="black"/>
<path d="M18.0119 29.3267V27.7715H19.4047V29.3267H18.0119Z" fill="black"/>
<path d="M19.1904 29.3267V27.7715H19.8095V29.3267H19.1904Z" fill="black"/>
<path d="M19.6327 29.3267V27.7715H21.1806V29.3267H19.6327Z" fill="black"/>
<path d="M20.9268 29.3267V27.7715H22.3196V29.3267H20.9268Z" fill="black"/>
<path d="M22.0658 29.3267V27.7715H23.4586V29.3267H22.0658Z" fill="black"/>
<path d="M23.2048 29.3267V27.7715H24.7527V29.3267H23.2048Z" fill="black"/>
<path d="M24.5765 29.3267V27.7715H25.9693V29.3267H24.5765Z" fill="black"/>
<path d="M25.7155 29.3267V27.7715H26.7987V29.3267H25.7155Z" fill="black"/>
<path d="M26.4681 29.3267V27.7715H28.016V29.3267H26.4681Z" fill="black"/>
<path d="M27.6847 29.3267V27.7715H29.2325V29.3267H27.6847Z" fill="black"/>
<path d="M28.9788 29.3267V27.7715H29.5979V29.3267H28.9788Z" fill="black"/>
<path d="M6 32.3267V30.7715H7.08316V32.3267H6Z" fill="black"/>
<path d="M6.75255 32.3267V30.7715H8.30041V32.3267H6.75255Z" fill="black"/>
<path d="M8.12425 32.3267V30.7715H9.67211V32.3267H8.12425Z" fill="black"/>
<path d="M9.41838 32.3267V30.7715H10.5015V32.3267H9.41838Z" fill="black"/>
<path d="M10.1709 32.3267V30.7715H10.7901V32.3267H10.1709Z" fill="black"/>
<path d="M10.6132 32.3267V30.7715H11.6964V32.3267H10.6132Z" fill="black"/>
<path d="M11.3658 32.3267V30.7715H12.9136V32.3267H11.3658Z" fill="black"/>
<path d="M12.7375 32.3267V30.7715H14.2853V32.3267H12.7375Z" fill="black"/>
<path d="M13.9541 32.3267V30.7715H15.3468V32.3267H13.9541Z" fill="black"/>
<path d="M15.0359 32.3267V30.7715H16.5838V32.3267H15.0359Z" fill="black"/>
<path d="M16.2525 32.3267V30.7715H16.8716V32.3267H16.2525Z" fill="black"/>
<path d="M16.6948 32.3267V30.7715H18.8618V32.3267H16.6948Z" fill="black"/>
<path d="M18.7632 32.3267V30.7715H20.0008V32.3267H18.7632Z" fill="black"/>
<path d="M19.8246 32.3267V30.7715H21.3725V32.3267H19.8246Z" fill="black"/>
<path d="M21.1963 32.3267V30.7715H22.2795V32.3267H21.1963Z" fill="black"/>
<path d="M22.104 32.3267V30.7715H23.6519V32.3267H22.104Z" fill="black"/>
<path d="M23.3981 32.3267V30.7715H24.0173V32.3267H23.3981Z" fill="black"/>
<path d="M23.9956 32.3267V30.7715H25.3883V32.3267H23.9956Z" fill="black"/>
<path d="M25.057 32.3267V30.7715H26.6049V32.3267H25.057Z" fill="black"/>
<path d="M26.2736 32.3267V30.7715H26.8927V32.3267H26.2736Z" fill="black"/>
<path d="M26.7159 32.3267V30.7715H28.2637V32.3267H26.7159Z" fill="black"/>
<path d="M28.0876 32.3267V30.7715H29.1707V32.3267H28.0876Z" fill="black"/>
<path d="M28.9177 32.3267V30.7715H30.3104V32.3267H28.9177Z" fill="black"/>
<path d="M30.2118 32.3267V30.7715H31.7597V32.3267H30.2118Z" fill="black"/>
<path d="M31.4284 32.3267V30.7715H32.0475V32.3267H31.4284Z" fill="black"/>
<path d="M6 35.3267V33.7715H7.54786V35.3267H6Z" fill="black"/>
<path d="M7.44926 35.3267V33.7715H8.84199V35.3267H7.44926Z" fill="black"/>
<path d="M8.66583 35.3267V33.7715H10.2137V35.3267H8.66583Z" fill="black"/>
<path d="M9.95996 35.3267V33.7715H10.5791V35.3267H9.95996Z" fill="black"/>
<path d="M10.4023 35.3267V33.7715H11.4854V35.3267H10.4023Z" fill="black"/>
<path d="M11.1548 35.3267V33.7715H12.7027V35.3267H11.1548Z" fill="black"/>
<path d="M12.4489 35.3267V33.7715H13.9968V35.3267H12.4489Z" fill="black"/>
<path d="M13.7825 35.3267V33.7715H15.3304V35.3267H13.7825Z" fill="black"/>
<path d="M14.9991 35.3267V33.7715H15.6183V35.3267H14.9991Z" fill="black"/>
<path d="M15.4414 35.3267V33.7715H16.5246V35.3267H15.4414Z" fill="black"/>
<path d="M16.5042 35.3267V33.7715H17.8969V35.3267H16.5042Z" fill="black"/>
<path d="M17.7208 35.3267V33.7715H18.3399V35.3267H17.7208Z" fill="black"/>
<path d="M18.1631 35.3267V33.7715H19.7109V35.3267H18.1631Z" fill="black"/>
<path d="M19.4572 35.3267V33.7715H20.0764V35.3267H19.4572Z" fill="black"/>
<path d="M19.8995 35.3267V33.7715H21.2923V35.3267H19.8995Z" fill="black"/>
<path d="M21.078 35.3267V33.7715H22.6258V35.3267H21.078Z" fill="black"/>
<path d="M22.2946 35.3267V33.7715H23.3777V35.3267H22.2946Z" fill="black"/>
<path d="M23.0471 35.3267V33.7715H24.1303V35.3267H23.0471Z" fill="black"/>
<path d="M23.7997 35.3267V33.7715H24.8828V35.3267H23.7997Z" fill="black"/>
<path d="M24.7073 35.3267V33.7715H26.2552V35.3267H24.7073Z" fill="black"/>
<path d="M25.9239 35.3267V33.7715H27.9365V35.3267H25.9239Z" fill="black"/>
<path d="M27.8372 35.3267V33.7715H29.385V35.3267H27.8372Z" fill="black"/>
<path d="M29.2089 35.3267V33.7715H30.6016V35.3267H29.2089Z" fill="black"/>
<path d="M30.4254 35.3267V33.7715H31.5086V35.3267H30.4254Z" fill="black"/>
<path d="M31.178 35.3267V33.7715H31.7971V35.3267H31.178Z" fill="black"/>
<path d="M6 38.3267V36.7715H7.54786V38.3267H6Z" fill="black"/>
<path d="M7.44926 38.3267V36.7715H8.84199V38.3267H7.44926Z" fill="black"/>
<path d="M8.66583 38.3267V36.7715H10.2137V38.3267H8.66583Z" fill="black"/>
<path d="M9.95996 38.3267V36.7715H10.5791V38.3267H9.95996Z" fill="black"/>
<path d="M10.4023 38.3267V36.7715H11.4854V38.3267H10.4023Z" fill="black"/>
<path d="M11.1548 38.3267V36.7715H12.7027V38.3267H11.1548Z" fill="black"/>
<path d="M12.5265 38.3267V36.7715H14.0744V38.3267H12.5265Z" fill="black"/>
<path d="M13.8206 38.3267V36.7715H14.9038V38.3267H13.8206Z" fill="black"/>
<path d="M14.5732 38.3267V36.7715H15.1923V38.3267H14.5732Z" fill="black"/>
<path d="M15.0155 38.3267V36.7715H16.0987V38.3267H15.0155Z" fill="black"/>
<path d="M15.9232 38.3267V36.7715H17.471V38.3267H15.9232Z" fill="black"/>
<path d="M17.1397 38.3267V36.7715H18.6876V38.3267H17.1397Z" fill="black"/>
<path d="M18.5114 38.3267V36.7715H19.5946V38.3267H18.5114Z" fill="black"/>
<path d="M19.4191 38.3267V36.7715H20.5023V38.3267H19.4191Z" fill="black"/>
<path d="M20.1717 38.3267V36.7715H21.2548V38.3267H20.1717Z" fill="black"/>
<path d="M21.0793 38.3267V36.7715H23.0919V38.3267H21.0793Z" fill="black"/>
<path d="M22.9926 38.3267V36.7715H24.5405V38.3267H22.9926Z" fill="black"/>
<path d="M24.2868 38.3267V36.7715H25.3699V38.3267H24.2868Z" fill="black"/>
<path d="M25.0393 38.3267V36.7715H26.5872V38.3267H25.0393Z" fill="black"/>
<path d="M26.2559 38.3267V36.7715H26.875V38.3267H26.2559Z" fill="black"/>
<path d="M6 41.3267V39.7715H7.39273V41.3267H6Z" fill="black"/>
<path d="M7.29413 41.3267V39.7715H8.53174V41.3267H7.29413Z" fill="black"/>
<path d="M8.5107 41.3267V39.7715H9.90344V41.3267H8.5107Z" fill="black"/>
<path d="M9.72727 41.3267V39.7715H11.12V41.3267H9.72727Z" fill="black"/>
<path d="M10.8663 41.3267V39.7715H12.4141V41.3267H10.8663Z" fill="black"/>
<path d="M12.0828 41.3267V39.7715H13.4756V41.3267H12.0828Z" fill="black"/>
<path d="M13.3198 41.3267V39.7715H14.7126V41.3267H13.3198Z" fill="black"/>
<path d="M14.5364 41.3267V39.7715H15.9291V41.3267H14.5364Z" fill="black"/>
<path d="M15.7149 41.3267V39.7715H16.334V41.3267H15.7149Z" fill="black"/>
<path d="M16.3123 41.3267V39.7715H17.5499V41.3267H16.3123Z" fill="black"/>
<path d="M17.3737 41.3267V39.7715H18.612V41.3267H17.3737Z" fill="black"/>
<path d="M18.2814 41.3267V39.7715H18.9006V41.3267H18.2814Z" fill="black"/>
<path d="M18.7237 41.3267V39.7715H19.8069V41.3267H18.7237Z" fill="black"/>
<path d="M19.4763 41.3267V39.7715H21.0241V41.3267H19.4763Z" fill="black"/>
<path d="M20.848 41.3267V39.7715H22.3958V41.3267H20.848Z" fill="black"/>
<path d="M22.0645 41.3267V39.7715H22.6837V41.3267H22.0645Z" fill="black"/>
<path d="M22.5068 41.3267V39.7715H24.2098V41.3267H22.5068Z" fill="black"/>
<path d="M24.0527 41.3267V39.7715H25.6006V41.3267H24.0527Z" fill="black"/>
<path d="M25.2883 41.3267V39.7715H26.9913V41.3267H25.2883Z" fill="black"/>
<path d="M26.8151 41.3267V39.7715H28.5181V41.3267H26.8151Z" fill="black"/>
<path d="M28.2644 41.3267V39.7715H28.8836V41.3267H28.2644Z" fill="black"/>
<path d="M6 44.3267V42.7715H8.167V44.3267H6Z" fill="black"/>
<path d="M8.0684 44.3267V42.7715H9.30601V44.3267H8.0684Z" fill="black"/>
<path d="M9.12985 44.3267V42.7715H10.6777V44.3267H9.12985Z" fill="black"/>
<path d="M10.5015 44.3267V42.7715H11.5847V44.3267H10.5015Z" fill="black"/>
<path d="M11.4092 44.3267V42.7715H12.9571V44.3267H11.4092Z" fill="black"/>
<path d="M12.7034 44.3267V42.7715H13.3225V44.3267H12.7034Z" fill="black"/>
<path d="M13.3008 44.3267V42.7715H14.6935V44.3267H13.3008Z" fill="black"/>
<path d="M14.5173 44.3267V42.7715H16.0652V44.3267H14.5173Z" fill="black"/>
<path d="M15.7339 44.3267V42.7715H17.2818V44.3267H15.7339Z" fill="black"/>
<path d="M16.9505 44.3267V42.7715H18.4983V44.3267H16.9505Z" fill="black"/>
<path d="M18.2446 44.3267V42.7715H18.8638V44.3267H18.2446Z" fill="black"/>
<path d="M18.6869 44.3267V42.7715H19.7701V44.3267H18.6869Z" fill="black"/>
<path d="M19.5946 44.3267V42.7715H20.8322V44.3267H19.5946Z" fill="black"/>
<path d="M20.656 44.3267V42.7715H21.2752V44.3267H20.656Z" fill="black"/>
<path d="M21.2535 44.3267V42.7715H22.6462V44.3267H21.2535Z" fill="black"/>
<path d="M22.3149 44.3267V42.7715H23.8628V44.3267H22.3149Z" fill="black"/>
<path d="M23.5315 44.3267V42.7715H24.1506V44.3267H23.5315Z" fill="black"/>
<path d="M6 47.3267V45.7715H7.54786V47.3267H6Z" fill="black"/>
<path d="M7.29413 47.3267V45.7715H8.84199V47.3267H7.29413Z" fill="black"/>
<path d="M8.58827 47.3267V45.7715H10.1361V47.3267H8.58827Z" fill="black"/>
<path d="M9.8824 47.3267V45.7715H11.2751V47.3267H9.8824Z" fill="black"/>
<path d="M10.9643 47.3267V45.7715H12.5121V47.3267H10.9643Z" fill="black"/>
<path d="M12.1808 47.3267V45.7715H13.5736V47.3267H12.1808Z" fill="black"/>
<path d="M13.3593 47.3267V45.7715H14.752V47.3267H13.3593Z" fill="black"/>
<path d="M14.5378 47.3267V45.7715H16.0856V47.3267H14.5378Z" fill="black"/>
<path d="M15.7543 47.3267V45.7715H17.3022V47.3267H15.7543Z" fill="black"/>
<path d="M17.0485 47.3267V45.7715H17.8221V47.3267H17.0485Z" fill="black"/>
<path d="M17.5683 47.3267V45.7715H18.1875V47.3267H17.5683Z" fill="black"/>
<path d="M18.1658 47.3267V45.7715H20.3328V47.3267H18.1658Z" fill="black"/>
<path d="M20.1171 47.3267V45.7715H21.665V47.3267H20.1171Z" fill="black"/>
<path d="M21.3337 47.3267V45.7715H21.9528V47.3267H21.3337Z" fill="black"/>
<path d="M21.776 47.3267V45.7715H23.943V47.3267H21.776Z" fill="black"/>
<path d="M23.6117 47.3267V45.7715H25.1596V47.3267H23.6117Z" fill="black"/>
<path d="M25.061 47.3267V45.7715H26.4537V47.3267H25.061Z" fill="black"/>
<path d="M26.2775 47.3267V45.7715H27.3607V47.3267H26.2775Z" fill="black"/>
<path d="M27.0301 47.3267V45.7715H27.6492V47.3267H27.0301Z" fill="black"/>
<path d="M27.4724 47.3267V45.7715H29.0203V47.3267H27.4724Z" fill="black"/>
<path d="M28.7665 47.3267V45.7715H29.3857V47.3267H28.7665Z" fill="black"/>
<path d="M6.15513 50.3267V48.7715H7.54786V50.3267H6.15513Z" fill="black"/>
<path d="M7.3717 50.3267V48.7715H8.91956V50.3267H7.3717Z" fill="black"/>
<path d="M8.58827 50.3267V48.7715H10.1361V50.3267H8.58827Z" fill="black"/>
<path d="M10.1151 50.3267V48.7715H11.3527V50.3267H10.1151Z" fill="black"/>
<path d="M11.1765 50.3267V48.7715H12.2597V50.3267H11.1765Z" fill="black"/>
<path d="M11.9291 50.3267V48.7715H13.0122V50.3267H11.9291Z" fill="black"/>
<path d="M12.8368 50.3267V48.7715H14.3846V50.3267H12.8368Z" fill="black"/>
<path d="M14.1309 50.3267V48.7715H15.2141V50.3267H14.1309Z" fill="black"/>
<path d="M14.8834 50.3267V48.7715H16.4313V50.3267H14.8834Z" fill="black"/>
<path d="M16.1 50.3267V48.7715H17.6479V50.3267H16.1Z" fill="black"/>
<path d="M17.3941 50.3267V48.7715H18.0133V50.3267H17.3941Z" fill="black"/>
<path d="M17.8364 50.3267V48.7715H19.2292V50.3267H17.8364Z" fill="black"/>
<path d="M19.17 50.3267V48.7715H20.4077V50.3267H19.17Z" fill="black"/>
<path d="M20.2315 50.3267V48.7715H21.3146V50.3267H20.2315Z" fill="black"/>
<path d="M21.1392 50.3267V48.7715H22.687V50.3267H21.1392Z" fill="black"/>
<path d="M22.5109 50.3267V48.7715H23.594V50.3267H22.5109Z" fill="black"/>
<path d="M23.2634 50.3267V48.7715H24.3466V50.3267H23.2634Z" fill="black"/>
<path d="M24.3262 50.3267V48.7715H25.5638V50.3267H24.3262Z" fill="black"/>
<path d="M25.5428 50.3267V48.7715H26.9355V50.3267H25.5428Z" fill="black"/>
<path d="M26.7594 50.3267V48.7715H27.5329V50.3267H26.7594Z" fill="black"/>
<path d="M27.2792 50.3267V48.7715H28.0528V50.3267H27.2792Z" fill="black"/>
<path d="M27.7991 50.3267V48.7715H28.5727V50.3267H27.7991Z" fill="black"/>
<path d="M28.3189 50.3267V48.7715H29.0925V50.3267H28.3189Z" fill="black"/>
<path d="M28.9939 50.3267V48.7715H31.1609V50.3267H28.9939Z" fill="black"/>
<path d="M30.9453 50.3267V48.7715H32.4932V50.3267H30.9453Z" fill="black"/>
<path d="M32.1619 50.3267V48.7715H32.781V50.3267H32.1619Z" fill="black"/>
<path d="M6 53.3267V51.7715H7.54786V53.3267H6Z" fill="black"/>
<path d="M7.3717 53.3267V51.7715H8.91956V53.3267H7.3717Z" fill="black"/>
<path d="M8.58827 53.3267V51.7715H9.981V53.3267H8.58827Z" fill="black"/>
<path d="M9.8824 53.3267V51.7715H11.4303V53.3267H9.8824Z" fill="black"/>
<path d="M11.099 53.3267V51.7715H11.7181V53.3267H11.099Z" fill="black"/>
<path d="M11.6964 53.3267V51.7715H13.0891V53.3267H11.6964Z" fill="black"/>
<path d="M13.0681 53.3267V51.7715H14.3057V53.3267H13.0681Z" fill="black"/>
<path d="M14.1295 53.3267V51.7715H15.2127V53.3267H14.1295Z" fill="black"/>
<path d="M14.8821 53.3267V51.7715H15.5012V53.3267H14.8821Z" fill="black"/>
<path d="M15.3244 53.3267V51.7715H17.4914V53.3267H15.3244Z" fill="black"/>
<path d="M17.1601 53.3267V51.7715H18.708V53.3267H17.1601Z" fill="black"/>
<path d="M18.4542 53.3267V51.7715H19.5374V53.3267H18.4542Z" fill="black"/>
<path d="M19.3619 53.3267V51.7715H20.9098V53.3267H19.3619Z" fill="black"/>
<path d="M20.6955 53.3267V51.7715H22.2434V53.3267H20.6955Z" fill="black"/>
<path d="M21.9121 53.3267V51.7715H23.4599V53.3267H21.9121Z" fill="black"/>
<path d="M23.2062 53.3267V51.7715H23.8254V53.3267H23.2062Z" fill="black"/>
<path d="M23.8036 53.3267V51.7715H25.1964V53.3267H23.8036Z" fill="black"/>
<path d="M24.8651 53.3267V51.7715H26.4129V53.3267H24.8651Z" fill="black"/>
<path d="M26.1592 53.3267V51.7715H27.5519V53.3267H26.1592Z" fill="black"/>
<path d="M27.2982 53.3267V51.7715H28.8461V53.3267H27.2982Z" fill="black"/>
<path d="M28.6318 53.3267V51.7715H29.251V53.3267H28.6318Z" fill="black"/>
<path d="M29.2292 53.3267V51.7715H30.4668V53.3267H29.2292Z" fill="black"/>
<path d="M30.4458 53.3267V51.7715H31.8385V53.3267H30.4458Z" fill="black"/>
<path d="M31.6624 53.3267V51.7715H32.2815V53.3267H31.6624Z" fill="black"/>
<path d="M6.15513 56.3267V54.7715H7.39273V56.3267H6.15513Z" fill="black"/>
<path d="M7.21657 56.3267V54.7715H8.76443V56.3267H7.21657Z" fill="black"/>
<path d="M8.58827 56.3267V54.7715H9.981V56.3267H8.58827Z" fill="black"/>
<path d="M9.67012 56.3267V54.7715H10.2893V56.3267H9.67012Z" fill="black"/>
<path d="M10.1124 56.3267V54.7715H12.2794V56.3267H10.1124Z" fill="black"/>
<path d="M12.0257 56.3267V54.7715H13.1089V56.3267H12.0257Z" fill="black"/>
<path d="M12.9334 56.3267V54.7715H14.0165V56.3267H12.9334Z" fill="black"/>
<path d="M13.8411 56.3267V54.7715H14.9242V56.3267H13.8411Z" fill="black"/>
<path d="M14.7487 56.3267V54.7715H15.8319V56.3267H14.7487Z" fill="black"/>
<path d="M15.8115 56.3267V54.7715H17.2043V56.3267H15.8115Z" fill="black"/>
<path d="M17.0281 56.3267V54.7715H18.576V56.3267H17.0281Z" fill="black"/>
<path d="M18.5549 56.3267V54.7715H19.9477V56.3267H18.5549Z" fill="black"/>
<path d="M19.7715 56.3267V54.7715H21.3194V56.3267H19.7715Z" fill="black"/>
<path d="M20.9881 56.3267V54.7715H22.3808V56.3267H20.9881Z" fill="black"/>
<path d="M22.1665 56.3267V54.7715H23.5593V56.3267H22.1665Z" fill="black"/>
<path d="M23.345 56.3267V54.7715H23.9641V56.3267H23.345Z" fill="black"/>
<path d="M23.7873 56.3267V54.7715H24.8705V56.3267H23.7873Z" fill="black"/>
<path d="M24.695 56.3267V54.7715H25.9326V56.3267H24.695Z" fill="black"/>
<path d="M25.7564 56.3267V54.7715H26.3756V56.3267H25.7564Z" fill="black"/>
<path d="M6.15513 59.3267V57.7715H7.54786V59.3267H6.15513Z" fill="black"/>
<path d="M7.29413 59.3267V57.7715H8.68687V59.3267H7.29413Z" fill="black"/>
<path d="M8.53111 59.3267V57.7715H9.76872V59.3267H8.53111Z" fill="black"/>
<path d="M9.59256 59.3267V57.7715H10.9853V59.3267H9.59256Z" fill="black"/>
<path d="M10.8867 59.3267V57.7715H11.9699V59.3267H10.8867Z" fill="black"/>
<path d="M11.7944 59.3267V57.7715H13.3422V59.3267H11.7944Z" fill="black"/>
<path d="M13.0885 59.3267V57.7715H14.6364V59.3267H13.0885Z" fill="black"/>
<path d="M14.3051 59.3267V57.7715H14.9242V59.3267H14.3051Z" fill="black"/>
<path d="M14.7474 59.3267V57.7715H16.2952V59.3267H14.7474Z" fill="black"/>
<path d="M16.0415 59.3267V57.7715H17.4342V59.3267H16.0415Z" fill="black"/>
<path d="M17.22 59.3267V57.7715H18.6127V59.3267H17.22Z" fill="black"/>
<path d="M18.3984 59.3267V57.7715H19.9463V59.3267H18.3984Z" fill="black"/>
<path d="M19.7701 59.3267V57.7715H21.1629V59.3267H19.7701Z" fill="black"/>
<path d="M20.8139 59.3267V57.7715H22.3617V59.3267H20.8139Z" fill="black"/>
<path d="M22.2631 59.3267V57.7715H23.6559V59.3267H22.2631Z" fill="black"/>
<path d="M23.4797 59.3267V57.7715H24.8725V59.3267H23.4797Z" fill="black"/>
<path d="M24.6187 59.3267V57.7715H26.1666V59.3267H24.6187Z" fill="black"/>
<path d="M25.8353 59.3267V57.7715H27.228V59.3267H25.8353Z" fill="black"/>
<path d="M27.0138 59.3267V57.7715H27.6329V59.3267H27.0138Z" fill="black"/>
<path d="M27.4561 59.3267V57.7715H29.0039V59.3267H27.4561Z" fill="black"/>
<path d="M28.9053 59.3267V57.7715H30.2981V59.3267H28.9053Z" fill="black"/>
<path d="M30.1219 59.3267V57.7715H31.6698V59.3267H30.1219Z" fill="black"/>
<path d="M31.416 59.3267V57.7715H32.0352V59.3267H31.416Z" fill="black"/>
<path d="M6 62.3267V60.7715H7.54786V62.3267H6Z" fill="black"/>
<path d="M7.29413 62.3267V60.7715H8.68687V62.3267H7.29413Z" fill="black"/>
<path d="M8.4726 62.3267V60.7715H9.86533V62.3267H8.4726Z" fill="black"/>
<path d="M9.65107 62.3267V60.7715H10.7342V62.3267H9.65107Z" fill="black"/>
<path d="M10.5587 62.3267V60.7715H11.9515V62.3267H10.5587Z" fill="black"/>
<path d="M11.7372 62.3267V60.7715H12.8204V62.3267H11.7372Z" fill="black"/>
<path d="M12.4898 62.3267V60.7715H14.0376V62.3267H12.4898Z" fill="black"/>
<path d="M13.939 62.3267V60.7715H15.3318V62.3267H13.939Z" fill="black"/>
<path d="M15.1556 62.3267V60.7715H16.5483V62.3267H15.1556Z" fill="black"/>
<path d="M16.2946 62.3267V60.7715H17.8425V62.3267H16.2946Z" fill="black"/>
<path d="M17.5112 62.3267V60.7715H18.1303V62.3267H17.5112Z" fill="black"/>
<path d="M17.9535 62.3267V60.7715H19.0366V62.3267H17.9535Z" fill="black"/>
<path d="M18.8612 62.3267V60.7715H20.0988V62.3267H18.8612Z" fill="black"/>
<path d="M19.9226 62.3267V60.7715H20.5417V62.3267H19.9226Z" fill="black"/>
<path d="M20.3649 62.3267V60.7715H22.0679V62.3267H20.3649Z" fill="black"/>
<path d="M21.9108 62.3267V60.7715H23.1484V62.3267H21.9108Z" fill="black"/>
<path d="M22.9722 62.3267V60.7715H24.3649V62.3267H22.9722Z" fill="black"/>
<path d="M24.0541 62.3267V60.7715H25.1372V62.3267H24.0541Z" fill="black"/>
<path d="M24.8066 62.3267V60.7715H26.3545V62.3267H24.8066Z" fill="black"/>
<path d="M26.1783 62.3267V60.7715H26.7975V62.3267H26.1783Z" fill="black"/>
<path d="M6 65.3267V63.7715H7.70299V65.3267H6Z" fill="black"/>
<path d="M7.60439 65.3267V63.7715H8.84199V65.3267H7.60439Z" fill="black"/>
<path d="M8.66583 65.3267V63.7715H10.0586V65.3267H8.66583Z" fill="black"/>
<path d="M9.74768 65.3267V63.7715H11.2955V65.3267H9.74768Z" fill="black"/>
<path d="M10.9643 65.3267V63.7715H12.5121V65.3267H10.9643Z" fill="black"/>
<path d="M12.2584 65.3267V63.7715H13.032V65.3267H12.2584Z" fill="black"/>
<path d="M12.7782 65.3267V63.7715H13.3974V65.3267H12.7782Z" fill="black"/>
<path d="M13.2205 65.3267V63.7715H15.3876V65.3267H13.2205Z" fill="black"/>
<path d="M15.1338 65.3267V63.7715H16.217V65.3267H15.1338Z" fill="black"/>
<path d="M16.0415 65.3267V63.7715H17.1247V65.3267H16.0415Z" fill="black"/>
<path d="M16.7941 65.3267V63.7715H18.3419V65.3267H16.7941Z" fill="black"/>
<path d="M18.1658 65.3267V63.7715H18.7849V65.3267H18.1658Z" fill="black"/>
<path d="M18.7632 65.3267V63.7715H20.1559V65.3267H18.7632Z" fill="black"/>
<path d="M19.9022 65.3267V63.7715H21.2949V65.3267H19.9022Z" fill="black"/>
<path d="M21.1392 65.3267V63.7715H22.3768V65.3267H21.1392Z" fill="black"/>
<path d="M22.2006 65.3267V63.7715H23.7485V65.3267H22.2006Z" fill="black"/>
<path d="M23.5723 65.3267V63.7715H24.965V65.3267H23.5723Z" fill="black"/>
<path d="M24.6542 65.3267V63.7715H26.202V65.3267H24.6542Z" fill="black"/>
<path d="M25.8707 65.3267V63.7715H27.2635V65.3267H25.8707Z" fill="black"/>
<path d="M27.0492 65.3267V63.7715H28.4419V65.3267H27.0492Z" fill="black"/>
<path d="M28.2277 65.3267V63.7715H28.8468V65.3267H28.2277Z" fill="black"/>
<path d="M6 68.3267V66.7715H7.08316V68.3267H6Z" fill="black"/>
<path d="M6.90768 68.3267V66.7715H8.14529V68.3267H6.90768Z" fill="black"/>
<path d="M7.96912 68.3267V66.7715H10.1361V68.3267H7.96912Z" fill="black"/>
<path d="M9.80484 68.3267V66.7715H11.3527V68.3267H9.80484Z" fill="black"/>
<path d="M11.099 68.3267V66.7715H12.4917V68.3267H11.099Z" fill="black"/>
<path d="M12.1808 68.3267V66.7715H13.7287V68.3267H12.1808Z" fill="black"/>
<path d="M13.475 68.3267V66.7715H14.0941V68.3267H13.475Z" fill="black"/>
<path d="M13.9173 68.3267V66.7715H15.4651V68.3267H13.9173Z" fill="black"/>
<path d="M15.2114 68.3267V66.7715H16.7592V68.3267H15.2114Z" fill="black"/>
<path d="M16.5831 68.3267V66.7715H17.9758V68.3267H16.5831Z" fill="black"/>
<path d="M17.7997 68.3267V66.7715H19.3475V68.3267H17.7997Z" fill="black"/>
<path d="M19.1714 68.3267V66.7715H20.5641V68.3267H19.1714Z" fill="black"/>
<path d="M20.3104 68.3267V66.7715H21.3935V68.3267H20.3104Z" fill="black"/>
<path d="M21.218 68.3267V66.7715H22.7659V68.3267H21.218Z" fill="black"/>
<path d="M22.4346 68.3267V66.7715H23.9825V68.3267H22.4346Z" fill="black"/>
<path d="M23.7287 68.3267V66.7715H25.1215V68.3267H23.7287Z" fill="black"/>
<path d="M24.8106 68.3267V66.7715H25.8938V68.3267H24.8106Z" fill="black"/>
<path d="M25.8734 68.3267V66.7715H27.111V68.3267H25.8734Z" fill="black"/>
<path d="M26.8382 68.3267V66.7715H28.3861V68.3267H26.8382Z" fill="black"/>
<path d="M28.1324 68.3267V66.7715H29.2155V68.3267H28.1324Z" fill="black"/>
<path d="M28.8849 68.3267V66.7715H29.9681V68.3267H28.8849Z" fill="black"/>
<path d="M29.9477 68.3267V66.7715H31.1853V68.3267H29.9477Z" fill="black"/>
<path d="M31.1643 68.3267V66.7715H32.557V68.3267H31.1643Z" fill="black"/>
<path d="M32.3809 68.3267V66.7715H33V68.3267H32.3809Z" fill="black"/>
<path d="M6 71.3267V69.7715H8.167V71.3267H6Z" fill="black"/>
<path d="M7.91328 71.3267V69.7715H9.46114V71.3267H7.91328Z" fill="black"/>
<path d="M9.12985 71.3267V69.7715H9.74899V71.3267H9.12985Z" fill="black"/>
<path d="M9.57215 71.3267V69.7715H10.9649V71.3267H9.57215Z" fill="black"/>
<path d="M10.7112 71.3267V69.7715H12.259V71.3267H10.7112Z" fill="black"/>
<path d="M12.1604 71.3267V69.7715H13.5531V71.3267H12.1604Z" fill="black"/>
<path d="M13.377 71.3267V69.7715H13.9961V71.3267H13.377Z" fill="black"/>
<path d="M13.9744 71.3267V69.7715H15.3671V71.3267H13.9744Z" fill="black"/>
<path d="M15.1134 71.3267V69.7715H16.5061V71.3267H15.1134Z" fill="black"/>
<path d="M16.3504 71.3267V69.7715H17.588V71.3267H16.3504Z" fill="black"/>
<path d="M17.4118 71.3267V69.7715H19.4244V71.3267H17.4118Z" fill="black"/>
<path d="M19.4802 71.3267V69.7715H20.7178V71.3267H19.4802Z" fill="black"/>
<path d="M20.5417 71.3267V69.7715H21.6248V71.3267H20.5417Z" fill="black"/>
<path d="M21.2942 71.3267V69.7715H22.8421V71.3267H21.2942Z" fill="black"/>
<path d="M22.5108 71.3267V69.7715H23.13V71.3267H22.5108Z" fill="black"/>
<path d="M6 74.3267V72.7715H7.54786V74.3267H6Z" fill="black"/>
<path d="M7.21657 74.3267V72.7715H8.6093V74.3267H7.21657Z" fill="black"/>
<path d="M8.5107 74.3267V72.7715H9.74831V74.3267H8.5107Z" fill="black"/>
<path d="M9.72727 74.3267V72.7715H11.12V74.3267H9.72727Z" fill="black"/>
<path d="M11.099 74.3267V72.7715H12.3366V74.3267H11.099Z" fill="black"/>
<path d="M12.1604 74.3267V72.7715H14.173V74.3267H12.1604Z" fill="black"/>
<path d="M14.0737 74.3267V72.7715H15.1569V74.3267H14.0737Z" fill="black"/>
<path d="M14.9814 74.3267V72.7715H16.3741V74.3267H14.9814Z" fill="black"/>
<path d="M16.1204 74.3267V72.7715H16.7395V74.3267H16.1204Z" fill="black"/>
<path d="M16.5627 74.3267V72.7715H17.9554V74.3267H16.5627Z" fill="black"/>
<path d="M17.8568 74.3267V72.7715H19.0944V74.3267H17.8568Z" fill="black"/>
<path d="M19.0734 74.3267V72.7715H20.311V74.3267H19.0734Z" fill="black"/>
<path d="M20.2899 74.3267V72.7715H21.6827V74.3267H20.2899Z" fill="black"/>
<path d="M21.429 74.3267V72.7715H22.9768V74.3267H21.429Z" fill="black"/>
<path d="M22.6455 74.3267V72.7715H24.0383V74.3267H22.6455Z" fill="black"/>
<path d="M23.6893 74.3267V72.7715H25.2371V74.3267H23.6893Z" fill="black"/>
<path d="M24.9834 74.3267V72.7715H26.0666V74.3267H24.9834Z" fill="black"/>
<path d="M25.736 74.3267V72.7715H26.8191V74.3267H25.736Z" fill="black"/>
<path d="M26.7988 74.3267V72.7715H28.0364V74.3267H26.7988Z" fill="black"/>
<path d="M28.0153 74.3267V72.7715H29.4081V74.3267H28.0153Z" fill="black"/>
<path d="M29.2319 74.3267V72.7715H29.851V74.3267H29.2319Z" fill="black"/>
<path d="M6 77.3267V75.7715H7.54786V77.3267H6Z" fill="black"/>
<path d="M7.44926 77.3267V75.7715H8.84199V77.3267H7.44926Z" fill="black"/>
<path d="M8.66583 77.3267V75.7715H10.2137V77.3267H8.66583Z" fill="black"/>
<path d="M9.95996 77.3267V75.7715H10.5791V77.3267H9.95996Z" fill="black"/>
<path d="M10.5574 77.3267V75.7715H11.9501V77.3267H10.5574Z" fill="black"/>
<path d="M11.6188 77.3267V75.7715H13.1667V77.3267H11.6188Z" fill="black"/>
<path d="M12.9905 77.3267V75.7715H14.0737V77.3267H12.9905Z" fill="black"/>
<path d="M13.8982 77.3267V75.7715H14.9814V77.3267H13.8982Z" fill="black"/>
<path d="M14.8059 77.3267V75.7715H16.3537V77.3267H14.8059Z" fill="black"/>
<path d="M16.1 77.3267V75.7715H16.7192V77.3267H16.1Z" fill="black"/>
<path d="M16.5423 77.3267V75.7715H18.0902V77.3267H16.5423Z" fill="black"/>
<path d="M17.8364 77.3267V75.7715H18.4556V77.3267H17.8364Z" fill="black"/>
<path d="M18.4339 77.3267V75.7715H19.8266V77.3267H18.4339Z" fill="black"/>
<path d="M19.5729 77.3267V75.7715H21.1207V77.3267H19.5729Z" fill="black"/>
<path d="M20.7895 77.3267V75.7715H22.1822V77.3267H20.7895Z" fill="black"/>
<path d="M21.8713 77.3267V75.7715H23.8839V77.3267H21.8713Z" fill="black"/>
<path d="M23.7846 77.3267V75.7715H25.3324V77.3267H23.7846Z" fill="black"/>
<path d="M25.2338 77.3267V75.7715H26.6266V77.3267H25.2338Z" fill="black"/>
<path d="M26.4504 77.3267V75.7715H27.9983V77.3267H26.4504Z" fill="black"/>
<path d="M27.8221 77.3267V75.7715H29.2148V77.3267H27.8221Z" fill="black"/>
<path d="M29.0387 77.3267V75.7715H30.1218V77.3267H29.0387Z" fill="black"/>
<path d="M29.7912 77.3267V75.7715H30.4104V77.3267H29.7912Z" fill="black"/>
<path d="M6.15513 80.3267V78.7715H7.54786V80.3267H6.15513Z" fill="black"/>
<path d="M7.29413 80.3267V78.7715H8.84199V80.3267H7.29413Z" fill="black"/>
<path d="M8.5107 80.3267V78.7715H10.0586V80.3267H8.5107Z" fill="black"/>
<path d="M9.80484 80.3267V78.7715H11.1976V80.3267H9.80484Z" fill="black"/>
<path d="M10.9438 80.3267V78.7715H12.4917V80.3267H10.9438Z" fill="black"/>
<path d="M12.1604 80.3267V78.7715H12.934V80.3267H12.1604Z" fill="black"/>
<path d="M12.6803 80.3267V78.7715H13.4539V80.3267H12.6803Z" fill="black"/>
<path d="M6.30957 8.22207H28.8592V8.2918H6.30957V8.22207ZM6.30957 11.2221H27.7399V11.2918H6.30957V11.2221ZM6.30957 14.2221H30.7364V14.2918H6.30957V14.2221ZM6.30957 17.2221H31.5059V17.2918H6.30957V17.2221ZM6.30957 20.2221H16.5607V20.2918H6.30957V20.2221ZM6.30957 23.2221H29.9273V23.2918H6.30957V23.2221ZM6.30957 26.2221H30.8356V26.2918H6.30957V26.2221ZM6.30957 29.2221H29.2884V29.2918H6.30957V29.2221ZM6.30957 32.2221H31.738V32.2918H6.30957V32.2221ZM6.30957 35.2221H31.4869V35.2918H6.30957V35.2221ZM6.30957 38.2221H26.5655V38.2918H6.30957V38.2221ZM6.30957 41.2221H28.5733V41.2918H6.30957V41.2221ZM6.30957 44.2221H23.8411V44.2918H6.30957V44.2221ZM6.30957 47.2221H29.0761V47.2918H6.30957V47.2221ZM6.30957 50.2221H32.4715V50.2918H6.30957V50.2221ZM6.30957 53.2221H31.972V53.2918H6.30957V53.2221ZM6.30957 56.2221H26.066V56.2918H6.30957V56.2221ZM6.30957 59.2221H31.7256V59.2918H6.30957V59.2221ZM6.30957 62.2221H26.4879V62.2918H6.30957V62.2221ZM6.30957 65.2221H28.5366V65.2918H6.30957V65.2221ZM6.30957 68.2221H32.6904V68.2918H6.30957V68.2221ZM6.30957 71.2221H22.8204V71.2918H6.30957V71.2221ZM6.30957 74.2221H29.5415V74.2918H6.30957V74.2221ZM6.30957 77.2221H30.1001V77.2918H6.30957V77.2221ZM6.30957 80.2221H13.643V80.2918H6.30957V80.2221Z" fill="black"/>
</g>
</g>
<path d="M11.3333 91.3262H2V97.6743H11.3333V91.3262Z" fill="#7FA4CA"/>
<path d="M21.6663 91.3262H12.333V97.6743H21.6663V91.3262Z" fill="#E1C278"/>
<path d="M32.0003 91.3262H22.667V97.6743H32.0003V91.3262Z" fill="#BB90BB"/>
</g>
<defs>
<filter id="filter0_d_39_124700" x="0" y="1.77148" width="39" height="87.5547" filterUnits="userSpaceOnUse" color-interpolation-filters="sRGB">
<feFlood flood-opacity="0" result="BackgroundImageFix"/>
<feColorMatrix in="SourceAlpha" type="matrix" values="0 0 0 0 0 0 0 0 0 0 0 0 0 0 0 0 0 0 127 0" result="hardAlpha"/>
<feOffset dy="1"/>
<feGaussianBlur stdDeviation="1"/>
<feComposite in2="hardAlpha" operator="out"/>
<feColorMatrix type="matrix" values="0 0 0 0 0 0 0 0 0 0 0 0 0 0 0 0 0 0 0.1 0"/>
<feBlend mode="normal" in2="BackgroundImageFix" result="effect1_dropShadow_39_124700"/>
<feBlend mode="normal" in="SourceGraphic" in2="effect1_dropShadow_39_124700" result="shape"/>
</filter>
<clipPath id="clip0_39_124700">
<rect width="39" height="98.9033" fill="white" transform="translate(0 0.771484)"/>
</clipPath>
</defs>
</svg>
