<svg width="39" height="82" viewBox="0 0 39 82" fill="none" xmlns="http://www.w3.org/2000/svg">
<rect width="39" height="82" fill=""/>
<g clip-path="url(#clip0_39_124700)">
<g filter="url(#filter0_d_39_124700)">
<rect width="35" height="65.5552" transform="translate(2 2.6416)" fill="white"/>
<g opacity="0.3">
<rect width="35" height="63.5552" transform="translate(2 2.6416)" fill="white"/>
<path d="M6 8.19678V6.6416H6.78095V8.19678H6Z" fill="black"/>
<path d="M6.75971 8.19678V6.6416H8.94733V8.19678H6.75971Z" fill="black"/>
<path d="M8.72966 8.19678V6.6416H10.2922V8.19678H8.72966Z" fill="black"/>
<path d="M9.9578 8.19678V6.6416H10.5828V8.19678H9.9578Z" fill="black"/>
<path d="M10.4043 8.19678V6.6416H11.9669V8.19678H10.4043Z" fill="black"/>
<path d="M11.7108 8.19678V6.6416H13.1167V8.19678H11.7108Z" fill="black"/>
<path d="M12.8029 8.19678V6.6416H14.3655V8.19678H12.8029Z" fill="black"/>
<path d="M14.031 8.19678V6.6416H14.6561V8.19678H14.031Z" fill="black"/>
<path d="M14.6342 8.19678V6.6416H16.0401V8.19678H14.6342Z" fill="black"/>
<path d="M15.784 8.19678V6.6416H17.19V8.19678H15.784Z" fill="black"/>
<path d="M16.8761 8.19678V6.6416H18.4387V8.19678H16.8761Z" fill="black"/>
<path d="M18.2609 8.19678V6.6416H19.6669V8.19678H18.2609Z" fill="black"/>
<path d="M19.4107 8.19678V6.6416H20.9733V8.19678H19.4107Z" fill="black"/>
<path d="M20.7172 8.19678V6.6416H22.1232V8.19678H20.7172Z" fill="black"/>
<path d="M21.8093 8.19678V6.6416H23.3719V8.19678H21.8093Z" fill="black"/>
<path d="M23.0375 8.19678V6.6416H24.6001V8.19678H23.0375Z" fill="black"/>
<path d="M24.3439 8.19678V6.6416H24.969V8.19678H24.3439Z" fill="black"/>
<path d="M24.7904 8.19678V6.6416H25.8839V8.19678H24.7904Z" fill="black"/>
<path d="M25.7067 8.19678V6.6416H26.9561V8.19678H25.7067Z" fill="black"/>
<path d="M26.7783 8.19678V6.6416H27.4033V8.19678H26.7783Z" fill="black"/>
<path d="M27.2248 8.19678V6.6416H28.7874V8.19678H27.2248Z" fill="black"/>
<path d="M28.7661 8.19678V6.6416H30.0155V8.19678H28.7661Z" fill="black"/>
<path d="M29.8377 8.19678V6.6416H30.4627V8.19678H29.8377Z" fill="black"/>
<path d="M6.1566 11.1968V9.6416H7.56259V11.1968H6.1566Z" fill="black"/>
<path d="M7.22814 11.1968V9.6416H8.79073V11.1968H7.22814Z" fill="black"/>
<path d="M8.53459 11.1968V9.6416H9.94057V11.1968H8.53459Z" fill="black"/>
<path d="M9.68443 11.1968V9.6416H11.247V11.1968H9.68443Z" fill="black"/>
<path d="M11.0307 11.1968V9.6416H11.6558V11.1968H11.0307Z" fill="black"/>
<path d="M11.4772 11.1968V9.6416H12.5707V11.1968H11.4772Z" fill="black"/>
<path d="M12.3935 11.1968V9.6416H13.6429V11.1968H12.3935Z" fill="black"/>
<path d="M13.4651 11.1968V9.6416H14.0901V11.1968H13.4651Z" fill="black"/>
<path d="M13.9116 11.1968V9.6416H15.3176V11.1968H13.9116Z" fill="black"/>
<path d="M15.1013 11.1968V9.6416H16.1947V11.1968H15.1013Z" fill="black"/>
<path d="M16.0176 11.1968V9.6416H17.5802V11.1968H16.0176Z" fill="black"/>
<path d="M17.324 11.1968V9.6416H18.105V11.1968H17.324Z" fill="black"/>
<path d="M18.0837 11.1968V9.6416H19.4897V11.1968H18.0837Z" fill="black"/>
<path d="M19.2336 11.1968V9.6416H20.7962V11.1968H19.2336Z" fill="black"/>
<path d="M20.54 11.1968V9.6416H21.946V11.1968H20.54Z" fill="black"/>
<path d="M21.6322 11.1968V9.6416H22.7256V11.1968H21.6322Z" fill="black"/>
<path d="M22.5485 11.1968V9.6416H23.9545V11.1968H22.5485Z" fill="black"/>
<path d="M23.6983 11.1968V9.6416H24.3234V11.1968H23.6983Z" fill="black"/>
<path d="M24.1448 11.1968V9.6416H25.2383V11.1968H24.1448Z" fill="black"/>
<path d="M24.9046 11.1968V9.6416H26.4671V11.1968H24.9046Z" fill="black"/>
<path d="M26.211 11.1968V9.6416H27.3045V11.1968H26.211Z" fill="black"/>
<path d="M27.1273 11.1968V9.6416H28.6899V11.1968H27.1273Z" fill="black"/>
<path d="M28.4736 11.1968V9.6416H29.8796V11.1968H28.4736Z" fill="black"/>
<path d="M29.6633 11.1968V9.6416H30.2883V11.1968H29.6633Z" fill="black"/>
<path d="M6 14.1968V12.6416H8.18762V14.1968H6Z" fill="black"/>
<path d="M7.93148 14.1968V12.6416H9.49407V14.1968H7.93148Z" fill="black"/>
<path d="M9.31623 14.1968V12.6416H10.8788V14.1968H9.31623Z" fill="black"/>
<path d="M10.701 14.1968V12.6416H12.107V14.1968H10.701Z" fill="black"/>
<path d="M11.9291 14.1968V12.6416H12.5542V14.1968H11.9291Z" fill="black"/>
<path d="M12.3756 14.1968V12.6416H14.0948V14.1968H12.3756Z" fill="black"/>
<path d="M13.9362 14.1968V12.6416H15.1856V14.1968H13.9362Z" fill="black"/>
<path d="M15.0077 14.1968V12.6416H16.4137V14.1968H15.0077Z" fill="black"/>
<path d="M16.0999 14.1968V12.6416H17.1934V14.1968H16.0999Z" fill="black"/>
<path d="M16.8596 14.1968V12.6416H18.4222V14.1968H16.8596Z" fill="black"/>
<path d="M18.2444 14.1968V12.6416H18.8694V14.1968H18.2444Z" fill="black"/>
<path d="M18.6909 14.1968V12.6416H20.41V14.1968H18.6909Z" fill="black"/>
<path d="M20.3105 14.1968V12.6416H21.5599V14.1968H20.3105Z" fill="black"/>
<path d="M21.3821 14.1968V12.6416H22.788V14.1968H21.3821Z" fill="black"/>
<path d="M22.4742 14.1968V12.6416H24.0368V14.1968H22.4742Z" fill="black"/>
<path d="M23.7023 14.1968V12.6416H25.2649V14.1968H23.7023Z" fill="black"/>
<path d="M25.0088 14.1968V12.6416H25.6338V14.1968H25.0088Z" fill="black"/>
<path d="M6 17.1968V15.6416H7.56259V17.1968H6Z" fill="black"/>
<path d="M7.30645 17.1968V15.6416H8.86903V17.1968H7.30645Z" fill="black"/>
<path d="M8.53459 17.1968V15.6416H10.5663V17.1968H8.53459Z" fill="black"/>
<path d="M10.6227 17.1968V15.6416H11.8721V17.1968H10.6227Z" fill="black"/>
<path d="M11.8508 17.1968V15.6416H13.2568V17.1968H11.8508Z" fill="black"/>
<path d="M13.079 17.1968V15.6416H14.4849V17.1968H13.079Z" fill="black"/>
<path d="M14.2686 17.1968V15.6416H15.3621V17.1968H14.2686Z" fill="black"/>
<path d="M15.0284 17.1968V15.6416H16.4343V17.1968H15.0284Z" fill="black"/>
<path d="M16.082 17.1968V15.6416H17.6446V17.1968H16.082Z" fill="black"/>
<path d="M17.3885 17.1968V15.6416H18.482V17.1968H17.3885Z" fill="black"/>
<path d="M18.1482 17.1968V15.6416H19.7108V17.1968H18.1482Z" fill="black"/>
<path d="M19.3763 17.1968V15.6416H20.7823V17.1968H19.3763Z" fill="black"/>
<path d="M20.566 17.1968V15.6416H21.1911V17.1968H20.566Z" fill="black"/>
<path d="M21.0125 17.1968V15.6416H22.106V17.1968H21.0125Z" fill="black"/>
<path d="M21.9288 17.1968V15.6416H23.0223V17.1968H21.9288Z" fill="black"/>
<path d="M22.6886 17.1968V15.6416H24.0945V17.1968H22.6886Z" fill="black"/>
<path d="M23.8782 17.1968V15.6416H24.5033V17.1968H23.8782Z" fill="black"/>
<path d="M24.3247 17.1968V15.6416H25.5748V17.1968H24.3247Z" fill="black"/>
<path d="M25.2411 17.1968V15.6416H26.8036V17.1968H25.2411Z" fill="black"/>
<path d="M26.6258 17.1968V15.6416H27.7193V17.1968H26.6258Z" fill="black"/>
<path d="M27.5421 17.1968V15.6416H28.6356V17.1968H27.5421Z" fill="black"/>
<path d="M28.4584 17.1968V15.6416H29.0835V17.1968H28.4584Z" fill="black"/>
<path d="M6 20.1968V18.6416H7.40598V20.1968H6Z" fill="black"/>
<path d="M7.30645 20.1968V18.6416H8.55583V20.1968H7.30645Z" fill="black"/>
<path d="M8.37799 20.1968V18.6416H10.4097V20.1968H8.37799Z" fill="black"/>
<path d="M10.3095 20.1968V18.6416H12.3412V20.1968H10.3095Z" fill="black"/>
<path d="M12.2409 20.1968V18.6416H13.3344V20.1968H12.2409Z" fill="black"/>
<path d="M13.1573 20.1968V18.6416H14.2507V20.1968H13.1573Z" fill="black"/>
<path d="M13.917 20.1968V18.6416H15.9487V20.1968H13.917Z" fill="black"/>
<path d="M15.8485 20.1968V18.6416H17.411V20.1968H15.8485Z" fill="black"/>
<path d="M17.2332 20.1968V18.6416H18.6392V20.1968H17.2332Z" fill="black"/>
<path d="M18.4613 20.1968V18.6416H19.5548V20.1968H18.4613Z" fill="black"/>
<path d="M19.2211 20.1968V18.6416H19.8461V20.1968H19.2211Z" fill="black"/>
<path d="M19.6676 20.1968V18.6416H20.761V20.1968H19.6676Z" fill="black"/>
<path d="M20.5839 20.1968V18.6416H21.8333V20.1968H20.5839Z" fill="black"/>
<path d="M21.6554 20.1968V18.6416H22.2805V20.1968H21.6554Z" fill="black"/>
<path d="M22.1019 20.1968V18.6416H23.5079V20.1968H22.1019Z" fill="black"/>
<path d="M23.4084 20.1968V18.6416H24.6578V20.1968H23.4084Z" fill="black"/>
<path d="M24.4799 20.1968V18.6416H26.5116V20.1968H24.4799Z" fill="black"/>
<path d="M26.568 20.1968V18.6416H27.974V20.1968H26.568Z" fill="black"/>
<path d="M27.7178 20.1968V18.6416H28.8113V20.1968H27.7178Z" fill="black"/>
<path d="M28.6342 20.1968V18.6416H30.1967V20.1968H28.6342Z" fill="black"/>
<path d="M29.8623 20.1968V18.6416H30.9558V20.1968H29.8623Z" fill="black"/>
<path d="M30.622 20.1968V18.6416H32.1846V20.1968H30.622Z" fill="black"/>
<path d="M31.8502 20.1968V18.6416H32.6311V20.1968H31.8502Z" fill="black"/>
<path d="M32.375 20.1968V18.6416H33V20.1968H32.375Z" fill="black"/>
<path d="M6 23.1968V21.6416H7.40598V23.1968H6Z" fill="black"/>
<path d="M7.30645 23.1968V21.6416H8.86903V23.1968H7.30645Z" fill="black"/>
<path d="M8.53459 23.1968V21.6416H9.94057V23.1968H8.53459Z" fill="black"/>
<path d="M9.62674 23.1968V21.6416H10.7202V23.1968H9.62674Z" fill="black"/>
<path d="M10.5431 23.1968V21.6416H11.7931V23.1968H10.5431Z" fill="black"/>
<path d="M11.4594 23.1968V21.6416H12.5528V23.1968H11.4594Z" fill="black"/>
<path d="M12.3757 23.1968V21.6416H13.9383V23.1968H12.3757Z" fill="black"/>
<path d="M13.8387 23.1968V21.6416H15.2447V23.1968H13.8387Z" fill="black"/>
<path d="M14.9103 23.1968V21.6416H16.0037V23.1968H14.9103Z" fill="black"/>
<path d="M15.8266 23.1968V21.6416H17.3892V23.1968H15.8266Z" fill="black"/>
<path d="M17.0547 23.1968V21.6416H17.8357V23.1968H17.0547Z" fill="black"/>
<path d="M17.5795 23.1968V21.6416H18.2046V23.1968H17.5795Z" fill="black"/>
<path d="M18.026 23.1968V21.6416H19.1195V23.1968H18.026Z" fill="black"/>
<path d="M18.9424 23.1968V21.6416H20.3483V23.1968H18.9424Z" fill="black"/>
<path d="M20.0345 23.1968V21.6416H21.4405V23.1968H20.0345Z" fill="black"/>
<path d="M21.1267 23.1968V21.6416H22.6892V23.1968H21.1267Z" fill="black"/>
<path d="M22.3548 23.1968V21.6416H23.7608V23.1968H22.3548Z" fill="black"/>
<path d="M23.6612 23.1968V21.6416H25.2238V23.1968H23.6612Z" fill="black"/>
<path d="M24.8894 23.1968V21.6416H26.2954V23.1968H24.8894Z" fill="black"/>
<path d="M25.9815 23.1968V21.6416H27.3875V23.1968H25.9815Z" fill="black"/>
<path d="M27.1712 23.1968V21.6416H28.2647V23.1968H27.1712Z" fill="black"/>
<path d="M28.2441 23.1968V21.6416H29.6501V23.1968H28.2441Z" fill="black"/>
<path d="M29.3157 23.1968V21.6416H30.4091V23.1968H29.3157Z" fill="black"/>
<path d="M30.232 23.1968V21.6416H31.7946V23.1968H30.232Z" fill="black"/>
<path d="M31.4601 23.1968V21.6416H32.0852V23.1968H31.4601Z" fill="black"/>
<path d="M6 26.1968V24.6416H7.56259V26.1968H6Z" fill="black"/>
<path d="M7.30645 26.1968V24.6416H8.86903V26.1968H7.30645Z" fill="black"/>
<path d="M8.69119 26.1968V24.6416H10.0972V26.1968H8.69119Z" fill="black"/>
<path d="M9.91934 26.1968V24.6416H11.4819V26.1968H9.91934Z" fill="black"/>
<path d="M11.3041 26.1968V24.6416H12.7101V26.1968H11.3041Z" fill="black"/>
<path d="M12.4539 26.1968V24.6416H13.5474V26.1968H12.4539Z" fill="black"/>
<path d="M13.3702 26.1968V24.6416H14.9328V26.1968H13.3702Z" fill="black"/>
<path d="M14.5984 26.1968V24.6416H16.161V26.1968H14.5984Z" fill="black"/>
<path d="M15.9048 26.1968V24.6416H17.3108V26.1968H15.9048Z" fill="black"/>
<path d="M16.997 26.1968V24.6416H18.0904V26.1968H16.997Z" fill="black"/>
<path d="M18.0699 26.1968V24.6416H19.3193V26.1968H18.0699Z" fill="black"/>
<path d="M19.0439 26.1968V24.6416H20.6065V26.1968H19.0439Z" fill="black"/>
<path d="M20.3503 26.1968V24.6416H21.4438V26.1968H20.3503Z" fill="black"/>
<path d="M21.1101 26.1968V24.6416H22.2035V26.1968H21.1101Z" fill="black"/>
<path d="M22.183 26.1968V24.6416H23.4324V26.1968H22.183Z" fill="black"/>
<path d="M23.4111 26.1968V24.6416H24.8171V26.1968H23.4111Z" fill="black"/>
<path d="M24.6393 26.1968V24.6416H25.4202V26.1968H24.6393Z" fill="black"/>
<path d="M25.1641 26.1968V24.6416H25.7891V26.1968H25.1641Z" fill="black"/>
<path d="M25.6106 26.1968V24.6416H27.1732V26.1968H25.6106Z" fill="black"/>
<path d="M26.9953 26.1968V24.6416H28.5579V26.1968H26.9953Z" fill="black"/>
<path d="M28.3801 26.1968V24.6416H29.9427V26.1968H28.3801Z" fill="black"/>
<path d="M29.6082 26.1968V24.6416H30.2333V26.1968H29.6082Z" fill="black"/>
<path d="M6 29.1968V27.6416H7.40598V29.1968H6Z" fill="black"/>
<path d="M7.18968 29.1968V27.6416H8.28315V29.1968H7.18968Z" fill="black"/>
<path d="M8.10599 29.1968V27.6416H10.1377V29.1968H8.10599Z" fill="black"/>
<path d="M10.1941 29.1968V27.6416H11.6001V29.1968H10.1941Z" fill="black"/>
<path d="M11.3439 29.1968V27.6416H12.4374V29.1968H11.3439Z" fill="black"/>
<path d="M12.2602 29.1968V27.6416H13.8228V29.1968H12.2602Z" fill="black"/>
<path d="M13.4884 29.1968V27.6416H14.1134V29.1968H13.4884Z" fill="black"/>
<path d="M13.9349 29.1968V27.6416H15.185V29.1968H13.9349Z" fill="black"/>
<path d="M14.8512 29.1968V27.6416H16.4138V29.1968H14.8512Z" fill="black"/>
<path d="M16.1576 29.1968V27.6416H17.5636V29.1968H16.1576Z" fill="black"/>
<path d="M17.3075 29.1968V27.6416H18.401V29.1968H17.3075Z" fill="black"/>
<path d="M18.0672 29.1968V27.6416H18.6922V29.1968H18.0672Z" fill="black"/>
<path d="M18.5137 29.1968V27.6416H19.6072V29.1968H18.5137Z" fill="black"/>
<path d="M19.43 29.1968V27.6416H20.836V29.1968H19.43Z" fill="black"/>
<path d="M20.6197 29.1968V27.6416H21.2447V29.1968H20.6197Z" fill="black"/>
<path d="M21.0662 29.1968V27.6416H22.1597V29.1968H21.0662Z" fill="black"/>
<path d="M21.8259 29.1968V27.6416H23.3885V29.1968H21.8259Z" fill="black"/>
<path d="M23.2107 29.1968V27.6416H24.3041V29.1968H23.2107Z" fill="black"/>
<path d="M24.127 29.1968V27.6416H25.533V29.1968H24.127Z" fill="black"/>
<path d="M25.3167 29.1968V27.6416H26.0976V29.1968H25.3167Z" fill="black"/>
<path d="M25.8415 29.1968V27.6416H26.4665V29.1968H25.8415Z" fill="black"/>
<path d="M26.288 29.1968V27.6416H28.0072V29.1968H26.288Z" fill="black"/>
<path d="M27.8486 29.1968V27.6416H29.0979V29.1968H27.8486Z" fill="black"/>
<path d="M28.9201 29.1968V27.6416H30.3261V29.1968H28.9201Z" fill="black"/>
<path d="M30.0123 29.1968V27.6416H31.1057V29.1968H30.0123Z" fill="black"/>
<path d="M30.772 29.1968V27.6416H32.3346V29.1968H30.772Z" fill="black"/>
<path d="M32.1567 29.1968V27.6416H32.7817V29.1968H32.1567Z" fill="black"/>
<path d="M6 32.1968V30.6416H7.71919V32.1968H6Z" fill="black"/>
<path d="M7.61965 32.1968V30.6416H8.86903V32.1968H7.61965Z" fill="black"/>
<path d="M8.69119 32.1968V30.6416H10.0972V32.1968H8.69119Z" fill="black"/>
<path d="M9.78334 32.1968V30.6416H11.3459V32.1968H9.78334Z" fill="black"/>
<path d="M11.0115 32.1968V30.6416H12.5741V32.1968H11.0115Z" fill="black"/>
<path d="M12.3179 32.1968V30.6416H12.943V32.1968H12.3179Z" fill="black"/>
<path d="M12.7644 32.1968V30.6416H14.1704V32.1968H12.7644Z" fill="black"/>
<path d="M13.9143 32.1968V30.6416H15.4769V32.1968H13.9143Z" fill="black"/>
<path d="M15.3773 32.1968V30.6416H16.7833V32.1968H15.3773Z" fill="black"/>
<path d="M16.6055 32.1968V30.6416H17.2305V32.1968H16.6055Z" fill="black"/>
<path d="M17.2086 32.1968V30.6416H18.6146V32.1968H17.2086Z" fill="black"/>
<path d="M18.4367 32.1968V30.6416H19.9993V32.1968H18.4367Z" fill="black"/>
<path d="M19.6649 32.1968V30.6416H21.0709V32.1968H19.6649Z" fill="black"/>
<path d="M20.9713 32.1968V30.6416H22.5339V32.1968H20.9713Z" fill="black"/>
<path d="M22.1995 32.1968V30.6416H23.6054V32.1968H22.1995Z" fill="black"/>
<path d="M23.2916 32.1968V30.6416H23.9166V32.1968H23.2916Z" fill="black"/>
<path d="M23.7381 32.1968V30.6416H25.3007V32.1968H23.7381Z" fill="black"/>
<path d="M25.0446 32.1968V30.6416H26.4505V32.1968H25.0446Z" fill="black"/>
<path d="M26.1944 32.1968V30.6416H27.757V32.1968H26.1944Z" fill="black"/>
<path d="M27.5792 32.1968V30.6416H28.6726V32.1968H27.5792Z" fill="black"/>
<path d="M28.4955 32.1968V30.6416H30.0581V32.1968H28.4955Z" fill="black"/>
<path d="M29.7236 32.1968V30.6416H31.1296V32.1968H29.7236Z" fill="black"/>
<path d="M31.0301 32.1968V30.6416H32.5926V32.1968H31.0301Z" fill="black"/>
<path d="M32.2582 32.1968V30.6416H32.8832V32.1968H32.2582Z" fill="black"/>
<path d="M6 35.1968V33.6416H7.40598V35.1968H6Z" fill="black"/>
<path d="M7.18968 35.1968V33.6416H8.75227V35.1968H7.18968Z" fill="black"/>
<path d="M8.41783 35.1968V33.6416H9.82381V35.1968H8.41783Z" fill="black"/>
<path d="M9.56767 35.1968V33.6416H11.1303V35.1968H9.56767Z" fill="black"/>
<path d="M10.9524 35.1968V33.6416H12.3584V35.1968H10.9524Z" fill="black"/>
<path d="M12.0446 35.1968V33.6416H13.138V35.1968H12.0446Z" fill="black"/>
<path d="M12.9609 35.1968V33.6416H14.0543V35.1968H12.9609Z" fill="black"/>
<path d="M13.8772 35.1968V33.6416H15.2832V35.1968H13.8772Z" fill="black"/>
<path d="M15.027 35.1968V33.6416H15.6521V35.1968H15.027Z" fill="black"/>
<path d="M15.4735 35.1968V33.6416H17.0361V35.1968H15.4735Z" fill="black"/>
<path d="M16.9366 35.1968V33.6416H18.3426V35.1968H16.9366Z" fill="black"/>
<path d="M18.1647 35.1968V33.6416H19.7273V35.1968H18.1647Z" fill="black"/>
<path d="M19.4712 35.1968V33.6416H20.0962V35.1968H19.4712Z" fill="black"/>
<path d="M20.0743 35.1968V33.6416H21.4803V35.1968H20.0743Z" fill="black"/>
<path d="M21.2241 35.1968V33.6416H22.6301V35.1968H21.2241Z" fill="black"/>
<path d="M22.4729 35.1968V33.6416H23.7223V35.1968H22.4729Z" fill="black"/>
<path d="M23.5444 35.1968V33.6416H24.9504V35.1968H23.5444Z" fill="black"/>
<path d="M24.8907 35.1968V33.6416H26.2967V35.1968H24.8907Z" fill="black"/>
<path d="M26.0406 35.1968V33.6416H27.6031V35.1968H26.0406Z" fill="black"/>
<path d="M27.2687 35.1968V33.6416H28.6747V35.1968H27.2687Z" fill="black"/>
<path d="M28.3608 35.1968V33.6416H29.4543V35.1968H28.3608Z" fill="black"/>
<path d="M29.2772 35.1968V33.6416H30.3706V35.1968H29.2772Z" fill="black"/>
<path d="M30.1935 35.1968V33.6416H31.5995V35.1968H30.1935Z" fill="black"/>
<path d="M31.3433 35.1968V33.6416H31.9684V35.1968H31.3433Z" fill="black"/>
<path d="M6 38.1968V36.6416H7.40598V38.1968H6Z" fill="black"/>
<path d="M7.34628 38.1968V36.6416H8.59566V38.1968H7.34628Z" fill="black"/>
<path d="M8.41783 38.1968V36.6416H9.04286V38.1968H8.41783Z" fill="black"/>
<path d="M8.86433 38.1968V36.6416H9.9578V38.1968H8.86433Z" fill="black"/>
<path d="M9.93725 38.1968V36.6416H11.1866V38.1968H9.93725Z" fill="black"/>
<path d="M11.1654 38.1968V36.6416H12.5714V38.1968H11.1654Z" fill="black"/>
<path d="M12.3935 38.1968V36.6416H13.9561V38.1968H12.3935Z" fill="black"/>
<path d="M13.7783 38.1968V36.6416H14.4033V38.1968H13.7783Z" fill="black"/>
<path d="M14.2248 38.1968V36.6416H15.7874V38.1968H14.2248Z" fill="black"/>
<path d="M15.5312 38.1968V36.6416H16.9372V38.1968H15.5312Z" fill="black"/>
<path d="M16.7209 38.1968V36.6416H17.346V38.1968H16.7209Z" fill="black"/>
<path d="M17.1674 38.1968V36.6416H18.2609V38.1968H17.1674Z" fill="black"/>
<path d="M18.0837 38.1968V36.6416H19.1772V38.1968H18.0837Z" fill="black"/>
<path d="M18.8435 38.1968V36.6416H19.4685V38.1968H18.8435Z" fill="black"/>
<path d="M19.4466 38.1968V36.6416H20.8525V38.1968H19.4466Z" fill="black"/>
<path d="M20.5964 38.1968V36.6416H22.159V38.1968H20.5964Z" fill="black"/>
<path d="M21.9812 38.1968V36.6416H23.3871V38.1968H21.9812Z" fill="black"/>
<path d="M23.0733 38.1968V36.6416H24.4793V38.1968H23.0733Z" fill="black"/>
<path d="M24.263 38.1968V36.6416H25.8256V38.1968H24.263Z" fill="black"/>
<path d="M25.6477 38.1968V36.6416H27.2103V38.1968H25.6477Z" fill="black"/>
<path d="M26.8759 38.1968V36.6416H28.2819V38.1968H26.8759Z" fill="black"/>
<path d="M28.0656 38.1968V36.6416H28.6906V38.1968H28.0656Z" fill="black"/>
<path d="M6.1566 41.1968V39.6416H7.56259V41.1968H6.1566Z" fill="black"/>
<path d="M7.38475 41.1968V39.6416H8.94733V41.1968H7.38475Z" fill="black"/>
<path d="M8.76949 41.1968V39.6416H10.1755V41.1968H8.76949Z" fill="black"/>
<path d="M9.91934 41.1968V39.6416H11.0128V41.1968H9.91934Z" fill="black"/>
<path d="M10.8357 41.1968V39.6416H12.3982V41.1968H10.8357Z" fill="black"/>
<path d="M12.0638 41.1968V39.6416H13.6264V41.1968H12.0638Z" fill="black"/>
<path d="M13.3702 41.1968V39.6416H14.7762V41.1968H13.3702Z" fill="black"/>
<path d="M14.4624 41.1968V39.6416H15.0874V41.1968H14.4624Z" fill="black"/>
<path d="M14.9089 41.1968V39.6416H17.0965V41.1968H14.9089Z" fill="black"/>
<path d="M16.8404 41.1968V39.6416H18.403V41.1968H16.8404Z" fill="black"/>
<path d="M18.0685 41.1968V39.6416H19.6311V41.1968H18.0685Z" fill="black"/>
<path d="M19.5316 41.1968V39.6416H20.9376V41.1968H19.5316Z" fill="black"/>
<path d="M20.838 41.1968V39.6416H22.0874V41.1968H20.838Z" fill="black"/>
<path d="M22.0662 41.1968V39.6416H23.4721V41.1968H22.0662Z" fill="black"/>
<path d="M23.2943 41.1968V39.6416H24.7003V41.1968H23.2943Z" fill="black"/>
<path d="M24.484 41.1968V39.6416H25.109V41.1968H24.484Z" fill="black"/>
<path d="M24.9305 41.1968V39.6416H25.7114V41.1968H24.9305Z" fill="black"/>
<path d="M25.5336 41.1968V39.6416H26.3145V41.1968H25.5336Z" fill="black"/>
<path d="M26.1367 41.1968V39.6416H26.7617V41.1968H26.1367Z" fill="black"/>
<path d="M6.1566 44.1968V42.6416H7.56259V44.1968H6.1566Z" fill="black"/>
<path d="M7.30645 44.1968V42.6416H8.86903V44.1968H7.30645Z" fill="black"/>
<path d="M8.53459 44.1968V42.6416H9.94057V44.1968H8.53459Z" fill="black"/>
<path d="M9.62674 44.1968V42.6416H10.7202V44.1968H9.62674Z" fill="black"/>
<path d="M10.6997 44.1968V42.6416H11.949V44.1968H10.6997Z" fill="black"/>
<path d="M11.7712 44.1968V42.6416H13.3338V44.1968H11.7712Z" fill="black"/>
<path d="M13.0776 44.1968V42.6416H13.8586V44.1968H13.0776Z" fill="black"/>
<path d="M13.6025 44.1968V42.6416H14.2275V44.1968H13.6025Z" fill="black"/>
<path d="M14.049 44.1968V42.6416H15.6115V44.1968H14.049Z" fill="black"/>
<path d="M15.4529 44.1968V42.6416H17.0155V44.1968H15.4529Z" fill="black"/>
<path d="M16.8377 44.1968V42.6416H17.9312V44.1968H16.8377Z" fill="black"/>
<path d="M17.5974 44.1968V42.6416H18.2224V44.1968H17.5974Z" fill="black"/>
<path d="M18.0439 44.1968V42.6416H19.1374V44.1968H18.0439Z" fill="black"/>
<path d="M18.8036 44.1968V42.6416H20.3662V44.1968H18.8036Z" fill="black"/>
<path d="M20.1884 44.1968V42.6416H21.2818V44.1968H20.1884Z" fill="black"/>
<path d="M21.1047 44.1968V42.6416H22.5107V44.1968H21.1047Z" fill="black"/>
<path d="M22.2944 44.1968V42.6416H22.9194V44.1968H22.2944Z" fill="black"/>
<path d="M22.7409 44.1968V42.6416H23.8343V44.1968H22.7409Z" fill="black"/>
<path d="M23.6572 44.1968V42.6416H25.0632V44.1968H23.6572Z" fill="black"/>
<path d="M24.8469 44.1968V42.6416H25.4719V44.1968H24.8469Z" fill="black"/>
<path d="M25.2934 44.1968V42.6416H26.856V44.1968H25.2934Z" fill="black"/>
<path d="M26.7564 44.1968V42.6416H28.1624V44.1968H26.7564Z" fill="black"/>
<path d="M27.9846 44.1968V42.6416H29.2339V44.1968H27.9846Z" fill="black"/>
<path d="M29.0561 44.1968V42.6416H30.6187V44.1968H29.0561Z" fill="black"/>
<path d="M30.4408 44.1968V42.6416H31.5343V44.1968H30.4408Z" fill="black"/>
<path d="M31.2006 44.1968V42.6416H31.8256V44.1968H31.2006Z" fill="black"/>
<path d="M6 47.1968V45.6416H8.03171V47.1968H6Z" fill="black"/>
<path d="M8.08808 47.1968V45.6416H9.33746V47.1968H8.08808Z" fill="black"/>
<path d="M9.15962 47.1968V45.6416H10.5656V47.1968H9.15962Z" fill="black"/>
<path d="M10.2518 47.1968V45.6416H11.8144V47.1968H10.2518Z" fill="black"/>
<path d="M11.4799 47.1968V45.6416H12.105V47.1968H11.4799Z" fill="black"/>
<path d="M11.9264 47.1968V45.6416H13.0199V47.1968H11.9264Z" fill="black"/>
<path d="M12.6861 47.1968V45.6416H14.2487V47.1968H12.6861Z" fill="black"/>
<path d="M14.0709 47.1968V45.6416H15.6335V47.1968H14.0709Z" fill="black"/>
<path d="M15.5339 47.1968V45.6416H16.9399V47.1968H15.5339Z" fill="black"/>
<path d="M16.7621 47.1968V45.6416H17.3871V47.1968H16.7621Z" fill="black"/>
<path d="M17.2086 47.1968V45.6416H19.3962V47.1968H17.2086Z" fill="black"/>
<path d="M19.1401 47.1968V45.6416H20.7026V47.1968H19.1401Z" fill="black"/>
<path d="M20.3682 47.1968V45.6416H21.9308V47.1968H20.3682Z" fill="black"/>
<path d="M21.8313 47.1968V45.6416H23.2372V47.1968H21.8313Z" fill="black"/>
<path d="M23.1377 47.1968V45.6416H24.3871V47.1968H23.1377Z" fill="black"/>
<path d="M24.3658 47.1968V45.6416H25.7718V47.1968H24.3658Z" fill="black"/>
<path d="M25.594 47.1968V45.6416H27V47.1968H25.594Z" fill="black"/>
<path d="M26.7837 47.1968V45.6416H27.5646V47.1968H26.7837Z" fill="black"/>
<path d="M27.3085 47.1968V45.6416H27.9335V47.1968H27.3085Z" fill="black"/>
<path d="M27.9116 47.1968V45.6416H30.0992V47.1968H27.9116Z" fill="black"/>
<path d="M29.8815 47.1968V45.6416H31.4441V47.1968H29.8815Z" fill="black"/>
<path d="M31.1097 47.1968V45.6416H31.7347V47.1968H31.1097Z" fill="black"/>
<path d="M6 50.1968V48.6416H8.18762V50.1968H6Z" fill="black"/>
<path d="M7.93148 50.1968V48.6416H9.02495V50.1968H7.93148Z" fill="black"/>
<path d="M8.84779 50.1968V48.6416H9.94126V50.1968H8.84779Z" fill="black"/>
<path d="M9.76411 50.1968V48.6416H10.8576V50.1968H9.76411Z" fill="black"/>
<path d="M10.6804 50.1968V48.6416H11.3055V50.1968H10.6804Z" fill="black"/>
<path d="M11.2835 50.1968V48.6416H12.6895V50.1968H11.2835Z" fill="black"/>
<path d="M12.5117 50.1968V48.6416H14.0743V50.1968H12.5117Z" fill="black"/>
<path d="M13.7398 50.1968V48.6416H15.1458V50.1968H13.7398Z" fill="black"/>
<path d="M15.0463 50.1968V48.6416H16.6089V50.1968H15.0463Z" fill="black"/>
<path d="M16.2744 50.1968V48.6416H17.6804V50.1968H16.2744Z" fill="black"/>
<path d="M17.3666 50.1968V48.6416H17.9916V50.1968H17.3666Z" fill="black"/>
<path d="M17.8131 50.1968V48.6416H19.0631V50.1968H17.8131Z" fill="black"/>
<path d="M18.886 50.1968V48.6416H20.1354V50.1968H18.886Z" fill="black"/>
<path d="M19.9575 50.1968V48.6416H21.3635V50.1968H19.9575Z" fill="black"/>
<path d="M21.0497 50.1968V48.6416H22.6123V50.1968H21.0497Z" fill="black"/>
<path d="M22.4344 50.1968V48.6416H23.997V50.1968H22.4344Z" fill="black"/>
<path d="M23.6626 50.1968V48.6416H24.756V50.1968H23.6626Z" fill="black"/>
<path d="M24.4223 50.1968V48.6416H25.0473V50.1968H24.4223Z" fill="black"/>
<path d="M24.8688 50.1968V48.6416H25.9623V50.1968H24.8688Z" fill="black"/>
<path d="M25.6285 50.1968V48.6416H27.1911V50.1968H25.6285Z" fill="black"/>
<path d="M27.0132 50.1968V48.6416H28.5758V50.1968H27.0132Z" fill="black"/>
<path d="M28.3197 50.1968V48.6416H29.4132V50.1968H28.3197Z" fill="black"/>
<path d="M29.0794 50.1968V48.6416H29.7044V50.1968H29.0794Z" fill="black"/>
<path d="M6 53.1968V51.6416H7.71919V53.1968H6Z" fill="black"/>
<path d="M7.61965 53.1968V51.6416H8.86903V53.1968H7.61965Z" fill="black"/>
<path d="M8.69119 53.1968V51.6416H10.0972V53.1968H8.69119Z" fill="black"/>
<path d="M9.78334 53.1968V51.6416H11.3459V53.1968H9.78334Z" fill="black"/>
<path d="M11.0115 53.1968V51.6416H12.5741V53.1968H11.0115Z" fill="black"/>
<path d="M12.4745 53.1968V51.6416H13.8805V53.1968H12.4745Z" fill="black"/>
<path d="M13.7027 53.1968V51.6416H15.1087V53.1968H13.7027Z" fill="black"/>
<path d="M14.8924 53.1968V51.6416H15.5174V53.1968H14.8924Z" fill="black"/>
<path d="M15.7076 52.8762V52.767H16.2985V52.8762H15.7076Z" fill="black"/>
<path d="M15.9859 53.1968V51.6416H16.7669V53.1968H15.9859Z" fill="black"/>
<path d="M16.589 53.1968V51.6416H17.2141V53.1968H16.589Z" fill="black"/>
<path d="M17.0356 53.1968V51.6416H18.7547V53.1968H17.0356Z" fill="black"/>
<path d="M18.5961 53.1968V51.6416H19.8455V53.1968H18.5961Z" fill="black"/>
<path d="M19.6677 53.1968V51.6416H21.0737V53.1968H19.6677Z" fill="black"/>
<path d="M20.7598 53.1968V51.6416H21.8533V53.1968H20.7598Z" fill="black"/>
<path d="M21.5195 53.1968V51.6416H23.0821V53.1968H21.5195Z" fill="black"/>
<path d="M22.9043 53.1968V51.6416H23.5293V53.1968H22.9043Z" fill="black"/>
<path d="M23.3508 53.1968V51.6416H24.9134V53.1968H23.3508Z" fill="black"/>
<path d="M24.8138 53.1968V51.6416H26.2198V53.1968H24.8138Z" fill="black"/>
<path d="M26.042 53.1968V51.6416H27.6046V53.1968H26.042Z" fill="black"/>
<path d="M27.3484 53.1968V51.6416H27.9735V53.1968H27.3484Z" fill="black"/>
<path d="M6 56.1968V54.6416H7.40598V56.1968H6Z" fill="black"/>
<path d="M7.46305 56.1968V54.6416H8.71243V56.1968H7.46305Z" fill="black"/>
<path d="M8.53459 56.1968V54.6416H10.0972V56.1968H8.53459Z" fill="black"/>
<path d="M9.91934 56.1968V54.6416H11.0128V56.1968H9.91934Z" fill="black"/>
<path d="M10.679 56.1968V54.6416H12.2416V56.1968H10.679Z" fill="black"/>
<path d="M12.0638 56.1968V54.6416H12.6888V56.1968H12.0638Z" fill="black"/>
<path d="M12.5103 56.1968V54.6416H13.2913V56.1968H12.5103Z" fill="black"/>
<path d="M13.4822 55.8762V55.767H14.073V55.8762H13.4822Z" fill="black"/>
<path d="M13.7605 56.1968V54.6416H14.3855V56.1968H13.7605Z" fill="black"/>
<path d="M14.207 56.1968V54.6416H15.7696V56.1968H14.207Z" fill="black"/>
<path d="M15.5134 56.1968V54.6416H16.9194V56.1968H15.5134Z" fill="black"/>
<path d="M16.6056 56.1968V54.6416H18.1682V56.1968H16.6056Z" fill="black"/>
<path d="M17.8337 56.1968V54.6416H18.4588V56.1968H17.8337Z" fill="black"/>
<path d="M18.4368 56.1968V54.6416H19.6862V56.1968H18.4368Z" fill="black"/>
<path d="M19.665 56.1968V54.6416H21.071V56.1968H19.665Z" fill="black"/>
<path d="M20.8931 56.1968V54.6416H22.4557V56.1968H20.8931Z" fill="black"/>
<path d="M22.1213 56.1968V54.6416H22.7463V56.1968H22.1213Z" fill="black"/>
<path d="M22.7244 56.1968V54.6416H24.1304V56.1968H22.7244Z" fill="black"/>
<path d="M23.8742 56.1968V54.6416H25.4368V56.1968H23.8742Z" fill="black"/>
<path d="M25.259 56.1968V54.6416H26.5084V56.1968H25.259Z" fill="black"/>
<path d="M26.4871 56.1968V54.6416H27.8931V56.1968H26.4871Z" fill="black"/>
<path d="M27.637 56.1968V54.6416H28.7304V56.1968H27.637Z" fill="black"/>
<path d="M28.5533 56.1968V54.6416H30.1159V56.1968H28.5533Z" fill="black"/>
<path d="M29.7814 56.1968V54.6416H30.5624V56.1968H29.7814Z" fill="black"/>
<path d="M30.3062 56.1968V54.6416H30.9313V56.1968H30.3062Z" fill="black"/>
<path d="M6 59.1968V57.6416H7.56259V59.1968H6Z" fill="black"/>
<path d="M7.22814 59.1968V57.6416H8.79073V59.1968H7.22814Z" fill="black"/>
<path d="M8.61289 59.1968V57.6416H10.1755V59.1968H8.61289Z" fill="black"/>
<path d="M9.99764 59.1968V57.6416H11.5602V59.1968H9.99764Z" fill="black"/>
<path d="M11.3041 59.1968V57.6416H12.3975V59.1968H11.3041Z" fill="black"/>
<path d="M12.2204 59.1968V57.6416H13.3139V59.1968H12.2204Z" fill="black"/>
<path d="M13.215 59.1968V57.6416H14.621V59.1968H13.215Z" fill="black"/>
<path d="M14.3649 59.1968V57.6416H14.9899V59.1968H14.3649Z" fill="black"/>
<path d="M14.8114 59.1968V57.6416H16.3739V59.1968H14.8114Z" fill="black"/>
<path d="M16.1178 59.1968V57.6416H17.6804V59.1968H16.1178Z" fill="black"/>
<path d="M17.346 59.1968V57.6416H18.7519V59.1968H17.346Z" fill="black"/>
<path d="M18.5356 59.1968V57.6416H20.0982V59.1968H18.5356Z" fill="black"/>
<path d="M19.7638 59.1968V57.6416H21.1698V59.1968H19.7638Z" fill="black"/>
<path d="M20.8559 59.1968V57.6416H22.2619V59.1968H20.8559Z" fill="black"/>
<path d="M22.1624 59.1968V57.6416H23.2558V59.1968H22.1624Z" fill="black"/>
<path d="M23.2353 59.1968V57.6416H24.6413V59.1968H23.2353Z" fill="black"/>
<path d="M24.4634 59.1968V57.6416H26.026V59.1968H24.4634Z" fill="black"/>
<path d="M25.8482 59.1968V57.6416H26.4732V59.1968H25.8482Z" fill="black"/>
<path d="M26.2947 59.1968V57.6416H27.3882V59.1968H26.2947Z" fill="black"/>
<path d="M27.211 59.1968V57.6416H28.4604V59.1968H27.211Z" fill="black"/>
<path d="M28.2825 59.1968V57.6416H28.9076V59.1968H28.2825Z" fill="black"/>
<path d="M28.8857 59.1968V57.6416H30.2916V59.1968H28.8857Z" fill="black"/>
<path d="M29.9572 59.1968V57.6416H31.5198V59.1968H29.9572Z" fill="black"/>
<path d="M31.1853 59.1968V57.6416H31.8104V59.1968H31.1853Z" fill="black"/>
<path d="M6 62.1968V60.6416H7.09347V62.1968H6Z" fill="black"/>
<path d="M6.75971 62.1968V60.6416H8.1657V62.1968H6.75971Z" fill="black"/>
<path d="M7.85186 62.1968V60.6416H9.41445V62.1968H7.85186Z" fill="black"/>
<path d="M9.08 62.1968V60.6416H10.6426V62.1968H9.08Z" fill="black"/>
<path d="M10.3864 62.1968V60.6416H11.4799V62.1968H10.3864Z" fill="black"/>
<path d="M11.1462 62.1968V60.6416H12.7087V62.1968H11.1462Z" fill="black"/>
<path d="M12.3743 62.1968V60.6416H13.9369V62.1968H12.3743Z" fill="black"/>
<path d="M13.6808 62.1968V60.6416H14.3058V62.1968H13.6808Z" fill="black"/>
<path d="M14.1273 62.1968V60.6416H16.3149V62.1968H14.1273Z" fill="black"/>
<path d="M16.0587 62.1968V60.6416H17.1522V62.1968H16.0587Z" fill="black"/>
<path d="M16.9751 62.1968V60.6416H18.0685V62.1968H16.9751Z" fill="black"/>
<path d="M17.7348 62.1968V60.6416H19.2974V62.1968H17.7348Z" fill="black"/>
<path d="M19.1195 62.1968V60.6416H19.7445V62.1968H19.1195Z" fill="black"/>
<path d="M19.566 62.1968V60.6416H21.1286V62.1968H19.566Z" fill="black"/>
<path d="M20.8725 62.1968V60.6416H21.9659V62.1968H20.8725Z" fill="black"/>
<path d="M21.7888 62.1968V60.6416H23.3514V62.1968H21.7888Z" fill="black"/>
<path d="M23.3301 62.1968V60.6416H24.7361V62.1968H23.3301Z" fill="black"/>
<path d="M24.5583 62.1968V60.6416H25.6517V62.1968H24.5583Z" fill="black"/>
<path d="M25.4746 62.1968V60.6416H26.5681V62.1968H25.4746Z" fill="black"/>
<path d="M26.3909 62.1968V60.6416H27.7969V62.1968H26.3909Z" fill="black"/>
<path d="M27.5407 62.1968V60.6416H28.3217V62.1968H27.5407Z" fill="black"/>
<path d="M6.31252 8.09219H30.1502V8.16191H6.31252V8.09219ZM6.31252 11.0922H29.9751V11.1619H6.31252V11.0922ZM6.31252 14.0922H25.3213V14.1619H6.31252V14.0922ZM6.31252 17.0922H28.7703V17.1619H6.31252V17.0922ZM6.31252 20.0922H32.6875V20.1619H6.31252V20.0922ZM6.31252 23.0922H31.7727V23.1619H6.31252V23.0922ZM6.31252 26.0922H29.9207V26.1619H6.31252V26.0922ZM6.31252 29.0922H32.4692V29.1619H6.31252V29.0922ZM6.31252 32.0922H32.5707V32.1619H6.31252V32.0922ZM6.31252 35.0922H31.6558V35.1619H6.31252V35.0922ZM6.31252 38.0922H28.3774V38.1619H6.31252V38.0922ZM6.31252 41.0922H26.4492V41.1619H6.31252V41.0922ZM6.31252 44.0922H31.5124V44.1619H6.31252V44.0922ZM6.31252 47.0922H31.4222V47.1619H6.31252V47.0922ZM6.31252 50.0922H29.3912V50.1619H6.31252V50.0922ZM6.31252 53.0922H15.6514V53.1619H6.31252V53.0922ZM15.6514 53.3718H16.2985V53.4418H15.6514V53.3718ZM16.2985 53.0922H27.6609V53.1619H16.2985V53.0922ZM6.31252 56.0922H13.4259V56.1619H6.31252V56.0922ZM13.4259 56.3718H14.073V56.4418H13.4259V56.3718ZM14.073 56.0922H30.6187V56.1619H14.073V56.0922ZM6.31252 59.0922H31.4979V59.1619H6.31252V59.0922ZM6.31252 62.0922H28.4343V62.1619H6.31252V62.0922Z" fill="black"/>
</g>
<rect width="12" height="14" transform="translate(25 53.1973)" fill="white"/>
<path d="M31.4307 58.2158C31.141 58.2158 30.8838 58.2728 30.6592 58.3867C30.4378 58.4974 30.2507 58.6585 30.0977 58.8701C29.9479 59.0817 29.834 59.3372 29.7559 59.6367C29.6777 59.9362 29.6387 60.2731 29.6387 60.6475C29.6387 61.152 29.7005 61.5833 29.8242 61.9414C29.9512 62.2962 30.1465 62.568 30.4102 62.7568C30.6738 62.9424 31.014 63.0352 31.4307 63.0352C31.7204 63.0352 32.0101 63.0026 32.2998 62.9375C32.5928 62.8724 32.9102 62.7796 33.252 62.6592V63.9287C32.9362 64.0589 32.6253 64.1517 32.3193 64.207C32.0133 64.2656 31.6699 64.2949 31.2891 64.2949C30.5534 64.2949 29.9479 64.1436 29.4727 63.8408C29.0007 63.5348 28.6507 63.1084 28.4229 62.5615C28.195 62.0114 28.0811 61.3701 28.0811 60.6377C28.0811 60.0973 28.1543 59.6025 28.3008 59.1533C28.4473 58.7041 28.6621 58.3151 28.9453 57.9863C29.2285 57.6576 29.5785 57.4036 29.9951 57.2246C30.4118 57.0456 30.8903 56.9561 31.4307 56.9561C31.7855 56.9561 32.1403 57.0016 32.4951 57.0928C32.8532 57.1807 33.195 57.3027 33.5205 57.459L33.0322 58.6895C32.7653 58.5625 32.4967 58.4518 32.2266 58.3574C31.9564 58.263 31.6911 58.2158 31.4307 58.2158Z" fill="#585858"/>
</g>
<path d="M11.3333 73.1973H2V79.5453H11.3333V73.1973Z" fill="#7FA4CA"/>
<path d="M21.6663 73.1973H12.333V79.5453H21.6663V73.1973Z" fill="#E1C278"/>
</g>
<defs>
<filter id="filter0_d_39_124700" x="0" y="1.6416" width="39" height="69.5557" filterUnits="userSpaceOnUse" color-interpolation-filters="sRGB">
<feFlood flood-opacity="0" result="BackgroundImageFix"/>
<feColorMatrix in="SourceAlpha" type="matrix" values="0 0 0 0 0 0 0 0 0 0 0 0 0 0 0 0 0 0 127 0" result="hardAlpha"/>
<feOffset dy="1"/>
<feGaussianBlur stdDeviation="1"/>
<feComposite in2="hardAlpha" operator="out"/>
<feColorMatrix type="matrix" values="0 0 0 0 0 0 0 0 0 0 0 0 0 0 0 0 0 0 0.1 0"/>
<feBlend mode="normal" in2="BackgroundImageFix" result="effect1_dropShadow_39_124700"/>
<feBlend mode="normal" in="SourceGraphic" in2="effect1_dropShadow_39_124700" result="shape"/>
</filter>
<clipPath id="clip0_39_124700">
<rect width="39" height="80.9033" fill="white" transform="translate(0 0.641602)"/>
</clipPath>
</defs>
</svg>
