<svg width="39" height="64" viewBox="0 0 39 64" fill="none" xmlns="http://www.w3.org/2000/svg">
<rect width="39" height="64" fill=""/>
<g clip-path="url(#clip0_39_124700)">
<g filter="url(#filter0_d_39_124700)">
<rect width="35" height="47.5552" transform="translate(2 2.35156)" fill="white"/>
<g opacity="0.3">
<rect width="35" height="45.5552" transform="translate(2 2.35156)" fill="white"/>
<path d="M6 7.90674V6.35156H6.76187V7.90674H6Z" fill="black"/>
<path d="M6.58838 7.90674V6.35156H7.19814V7.90674H6.58838Z" fill="black"/>
<path d="M7.02398 7.90674V6.35156H8.24351V7.90674H7.02398Z" fill="black"/>
<path d="M8.06934 7.90674V6.35156H8.83122V7.90674H8.06934Z" fill="black"/>
<path d="M8.65772 7.90674V6.35156H9.87725V7.90674H8.65772Z" fill="black"/>
<path d="M9.55165 7.90674V6.35156H10.1614V7.90674H9.55165Z" fill="black"/>
<path d="M9.98725 7.90674V6.35156H11.6644V7.90674H9.98725Z" fill="black"/>
<path d="M11.5097 7.90674V6.35156H12.7286V7.90674H11.5097Z" fill="black"/>
<path d="M12.5551 7.90674V6.35156H13.9267V7.90674H12.5551Z" fill="black"/>
<path d="M13.6205 7.90674V6.35156H14.6873V7.90674H13.6205Z" fill="black"/>
<path d="M14.3617 7.90674V6.35156H15.8861V7.90674H14.3617Z" fill="black"/>
<path d="M15.7126 7.90674V6.35156H16.3224V7.90674H15.7126Z" fill="black"/>
<path d="M16.1482 7.90674V6.35156H17.8254V7.90674H16.1482Z" fill="black"/>
<path d="M17.7283 7.90674V6.35156H18.9472V7.90674H17.7283Z" fill="black"/>
<path d="M18.7737 7.90674V6.35156H20.1453V7.90674H18.7737Z" fill="black"/>
<path d="M19.8391 7.90674V6.35156H21.3636V7.90674H19.8391Z" fill="black"/>
<path d="M21.0373 7.90674V6.35156H22.5617V7.90674H21.0373Z" fill="black"/>
<path d="M22.3118 7.90674V6.35156H22.9216V7.90674H22.3118Z" fill="black"/>
<path d="M22.9002 7.90674V6.35156H24.2718V7.90674H22.9002Z" fill="black"/>
<path d="M23.9456 7.90674V6.35156H25.47V7.90674H23.9456Z" fill="black"/>
<path d="M25.1437 7.90674V6.35156H26.5153V7.90674H25.1437Z" fill="black"/>
<path d="M26.4182 7.90674V6.35156H27.6371V7.90674H26.4182Z" fill="black"/>
<path d="M27.4636 7.90674V6.35156H29.4457V7.90674H27.4636Z" fill="black"/>
<path d="M29.3479 7.90674V6.35156H30.8723V7.90674H29.3479Z" fill="black"/>
<path d="M30.546 7.90674V6.35156H31.9177V7.90674H30.546Z" fill="black"/>
<path d="M31.7067 7.90674V6.35156H32.3164V7.90674H31.7067Z" fill="black"/>
<path d="M6 10.9067V9.35156H7.37164V10.9067H6Z" fill="black"/>
<path d="M7.16062 10.9067V9.35156H8.68503V10.9067H7.16062Z" fill="black"/>
<path d="M8.35876 10.9067V9.35156H9.7304V10.9067H8.35876Z" fill="black"/>
<path d="M9.42423 10.9067V9.35156H10.491V10.9067H9.42423Z" fill="black"/>
<path d="M10.4709 10.9067V9.35156H11.6898V10.9067H10.4709Z" fill="black"/>
<path d="M11.5163 10.9067V9.35156H13.0407V10.9067H11.5163Z" fill="black"/>
<path d="M12.8672 10.9067V9.35156H14.2389V10.9067H12.8672Z" fill="black"/>
<path d="M14.0278 10.9067V9.35156H14.6376V10.9067H14.0278Z" fill="black"/>
<path d="M14.4634 10.9067V9.35156H15.9879V10.9067H14.4634Z" fill="black"/>
<path d="M15.8907 10.9067V9.35156H17.2624V10.9067H15.8907Z" fill="black"/>
<path d="M17.0889 10.9067V9.35156H18.3078V10.9067H17.0889Z" fill="black"/>
<path d="M18.1343 10.9067V9.35156H19.6587V10.9067H18.1343Z" fill="black"/>
<path d="M19.4852 10.9067V9.35156H20.5519V10.9067H19.4852Z" fill="black"/>
<path d="M20.2263 10.9067V9.35156H20.8361V10.9067H20.2263Z" fill="black"/>
<path d="M6 13.9067V12.3516H7.52441V13.9067H6Z" fill="black"/>
<path d="M7.27453 13.9067V12.3516H8.79895V13.9067H7.27453Z" fill="black"/>
<path d="M8.62545 13.9067V12.3516H9.99709V13.9067H8.62545Z" fill="black"/>
<path d="M9.82359 13.9067V12.3516H11.348V13.9067H9.82359Z" fill="black"/>
<path d="M11.1745 13.9067V12.3516H12.5462V13.9067H11.1745Z" fill="black"/>
<path d="M12.2963 13.9067V12.3516H13.363V13.9067H12.2963Z" fill="black"/>
<path d="M13.1902 13.9067V12.3516H14.7146V13.9067H13.1902Z" fill="black"/>
<path d="M14.3883 13.9067V12.3516H15.9128V13.9067H14.3883Z" fill="black"/>
<path d="M15.6629 13.9067V12.3516H17.0345V13.9067H15.6629Z" fill="black"/>
<path d="M16.7283 13.9067V12.3516H17.7951V13.9067H16.7283Z" fill="black"/>
<path d="M17.775 13.9067V12.3516H18.9939V13.9067H17.775Z" fill="black"/>
<path d="M18.7253 13.9067V12.3516H20.2497V13.9067H18.7253Z" fill="black"/>
<path d="M19.9998 13.9067V12.3516H21.0665V13.9067H19.9998Z" fill="black"/>
<path d="M20.7409 13.9067V12.3516H21.8077V13.9067H20.7409Z" fill="black"/>
<path d="M21.7877 13.9067V12.3516H23.0065V13.9067H21.7877Z" fill="black"/>
<path d="M22.9858 13.9067V12.3516H24.3574V13.9067H22.9858Z" fill="black"/>
<path d="M24.1839 13.9067V12.3516H24.7937V13.9067H24.1839Z" fill="black"/>
<path d="M24.7723 13.9067V12.3516H25.9912V13.9067H24.7723Z" fill="black"/>
<path d="M25.9705 13.9067V12.3516H27.3421V13.9067H25.9705Z" fill="black"/>
<path d="M27.1686 13.9067V12.3516H27.7784V13.9067H27.1686Z" fill="black"/>
<path d="M27.6042 13.9067V12.3516H28.671V13.9067H27.6042Z" fill="black"/>
<path d="M28.3454 13.9067V12.3516H29.8698V13.9067H28.3454Z" fill="black"/>
<path d="M29.6963 13.9067V12.3516H31.2207V13.9067H29.6963Z" fill="black"/>
<path d="M30.8944 13.9067V12.3516H31.5042V13.9067H30.8944Z" fill="black"/>
<path d="M6.15278 16.9067V15.3516H7.67719V16.9067H6.15278Z" fill="black"/>
<path d="M7.36968 16.9067V15.3516H8.8941V16.9067H7.36968Z" fill="black"/>
<path d="M8.7206 16.9067V15.3516H10.0922V16.9067H8.7206Z" fill="black"/>
<path d="M9.91874 16.9067V15.3516H10.9855V16.9067H9.91874Z" fill="black"/>
<path d="M10.9655 16.9067V15.3516H12.3371V16.9067H10.9655Z" fill="black"/>
<path d="M12.1636 16.9067V15.3516H13.5352V16.9067H12.1636Z" fill="black"/>
<path d="M13.3242 16.9067V15.3516H14.8486V16.9067H13.3242Z" fill="black"/>
<path d="M14.6751 16.9067V15.3516H15.7419V16.9067H14.6751Z" fill="black"/>
<path d="M15.5691 16.9067V15.3516H17.0935V16.9067H15.5691Z" fill="black"/>
<path d="M16.8436 16.9067V15.3516H17.4534V16.9067H16.8436Z" fill="black"/>
<path d="M17.2792 16.9067V15.3516H18.8036V16.9067H17.2792Z" fill="black"/>
<path d="M18.7065 16.9067V15.3516H20.0781V16.9067H18.7065Z" fill="black"/>
<path d="M19.9046 16.9067V15.3516H21.4291V16.9067H19.9046Z" fill="black"/>
<path d="M21.1792 16.9067V15.3516H21.7889V16.9067H21.1792Z" fill="black"/>
<path d="M21.6148 16.9067V15.3516H22.6815V16.9067H21.6148Z" fill="black"/>
<path d="M22.5087 16.9067V15.3516H23.8803V16.9067H22.5087Z" fill="black"/>
<path d="M23.6693 16.9067V15.3516H24.2791V16.9067H23.6693Z" fill="black"/>
<path d="M6.15278 19.9067V18.3516H7.52441V19.9067H6.15278Z" fill="black"/>
<path d="M7.27453 19.9067V18.3516H8.64617V19.9067H7.27453Z" fill="black"/>
<path d="M8.34 19.9067V18.3516H9.86441V19.9067H8.34Z" fill="black"/>
<path d="M9.69092 19.9067V18.3516H11.0626V19.9067H9.69092Z" fill="black"/>
<path d="M10.8127 19.9067V18.3516H12.3371V19.9067H10.8127Z" fill="black"/>
<path d="M12.0872 19.9067V18.3516H13.4588V19.9067H12.0872Z" fill="black"/>
<path d="M13.1527 19.9067V18.3516H14.6771V19.9067H13.1527Z" fill="black"/>
<path d="M14.3508 19.9067V18.3516H15.8752V19.9067H14.3508Z" fill="black"/>
<path d="M15.6253 19.9067V18.3516H16.2351V19.9067H15.6253Z" fill="black"/>
<path d="M16.0609 19.9067V18.3516H17.1277V19.9067H16.0609Z" fill="black"/>
<path d="M16.9549 19.9067V18.3516H18.1737V19.9067H16.9549Z" fill="black"/>
<path d="M18.0002 19.9067V18.3516H18.61V19.9067H18.0002Z" fill="black"/>
<path d="M18.4358 19.9067V18.3516H19.9603V19.9067H18.4358Z" fill="black"/>
<path d="M19.7868 19.9067V18.3516H21.3112V19.9067H19.7868Z" fill="black"/>
<path d="M20.9849 19.9067V18.3516H22.3565V19.9067H20.9849Z" fill="black"/>
<path d="M22.2594 19.9067V18.3516H23.7839V19.9067H22.2594Z" fill="black"/>
<path d="M23.4576 19.9067V18.3516H24.0673V19.9067H23.4576Z" fill="black"/>
<path d="M23.8932 19.9067V18.3516H25.4176V19.9067H23.8932Z" fill="black"/>
<path d="M25.1677 19.9067V18.3516H25.7775V19.9067H25.1677Z" fill="black"/>
<path d="M6 22.9067V21.3516H7.37164V22.9067H6Z" fill="black"/>
<path d="M7.27453 22.9067V21.3516H8.49339V22.9067H7.27453Z" fill="black"/>
<path d="M8.47267 22.9067V21.3516H9.84431V22.9067H8.47267Z" fill="black"/>
<path d="M9.59443 22.9067V21.3516H10.9661V22.9067H9.59443Z" fill="black"/>
<path d="M10.869 22.9067V21.3516H12.3934V22.9067H10.869Z" fill="black"/>
<path d="M12.0671 22.9067V21.3516H13.4387V22.9067H12.0671Z" fill="black"/>
<path d="M13.1326 22.9067V21.3516H14.5042V22.9067H13.1326Z" fill="black"/>
<path d="M14.2932 22.9067V21.3516H15.8176V22.9067H14.2932Z" fill="black"/>
<path d="M15.5677 22.9067V21.3516H16.6345V22.9067H15.5677Z" fill="black"/>
<path d="M16.3089 22.9067V21.3516H17.3756V22.9067H16.3089Z" fill="black"/>
<path d="M17.3556 22.9067V21.3516H18.5744V22.9067H17.3556Z" fill="black"/>
<path d="M18.5537 22.9067V21.3516H19.9254V22.9067H18.5537Z" fill="black"/>
<path d="M19.7519 22.9067V21.3516H20.3616V22.9067H19.7519Z" fill="black"/>
<path d="M20.1875 22.9067V21.3516H21.7119V22.9067H20.1875Z" fill="black"/>
<path d="M21.462 22.9067V21.3516H22.8336V22.9067H21.462Z" fill="black"/>
<path d="M22.6802 22.9067V21.3516H23.8991V22.9067H22.6802Z" fill="black"/>
<path d="M23.7256 22.9067V21.3516H25.25V22.9067H23.7256Z" fill="black"/>
<path d="M25.2293 22.9067V21.3516H26.6009V22.9067H25.2293Z" fill="black"/>
<path d="M26.4274 22.9067V21.3516H27.9519V22.9067H26.4274Z" fill="black"/>
<path d="M27.702 22.9067V21.3516H28.3117V22.9067H27.702Z" fill="black"/>
<path d="M28.1376 22.9067V21.3516H29.2043V22.9067H28.1376Z" fill="black"/>
<path d="M28.8787 22.9067V21.3516H30.4031V22.9067H28.8787Z" fill="black"/>
<path d="M30.2297 22.9067V21.3516H31.7541V22.9067H30.2297Z" fill="black"/>
<path d="M31.5042 22.9067V21.3516H32.5709V22.9067H31.5042Z" fill="black"/>
<path d="M32.2453 22.9067V21.3516H32.8551V22.9067H32.2453Z" fill="black"/>
<path d="M6 25.9067V24.3516H7.06675V25.9067H6Z" fill="black"/>
<path d="M6.89393 25.9067V24.3516H8.11279V25.9067H6.89393Z" fill="black"/>
<path d="M8.09207 25.9067V24.3516H9.46371V25.9067H8.09207Z" fill="black"/>
<path d="M9.21383 25.9067V24.3516H10.2806V25.9067H9.21383Z" fill="black"/>
<path d="M10.1078 25.9067V24.3516H11.4794V25.9067H10.1078Z" fill="black"/>
<path d="M11.2295 25.9067V24.3516H11.9914V25.9067H11.2295Z" fill="black"/>
<path d="M11.7415 25.9067V24.3516H12.3513V25.9067H11.7415Z" fill="black"/>
<path d="M12.1771 25.9067V24.3516H13.2439V25.9067H12.1771Z" fill="black"/>
<path d="M12.9183 25.9067V24.3516H14.4427V25.9067H12.9183Z" fill="black"/>
<path d="M14.2692 25.9067V24.3516H15.7936V25.9067H14.2692Z" fill="black"/>
<path d="M15.6201 25.9067V24.3516H16.9917V25.9067H15.6201Z" fill="black"/>
<path d="M16.8182 25.9067V24.3516H17.428V25.9067H16.8182Z" fill="black"/>
<path d="M17.2538 25.9067V24.3516H18.3206V25.9067H17.2538Z" fill="black"/>
<path d="M17.995 25.9067V24.3516H19.5194V25.9067H17.995Z" fill="black"/>
<path d="M19.3459 25.9067V24.3516H20.8703V25.9067H19.3459Z" fill="black"/>
<path d="M20.5441 25.9067V24.3516H21.1538V25.9067H20.5441Z" fill="black"/>
<path d="M20.9797 25.9067V24.3516H22.6568V25.9067H20.9797Z" fill="black"/>
<path d="M22.5209 25.9067V24.3516H23.8925V25.9067H22.5209Z" fill="black"/>
<path d="M23.719 25.9067V24.3516H24.7858V25.9067H23.719Z" fill="black"/>
<path d="M24.6129 25.9067V24.3516H25.6797V25.9067H24.6129Z" fill="black"/>
<path d="M25.3541 25.9067V24.3516H26.8785V25.9067H25.3541Z" fill="black"/>
<path d="M26.5522 25.9067V24.3516H28.0767V25.9067H26.5522Z" fill="black"/>
<path d="M27.8268 25.9067V24.3516H28.4365V25.9067H27.8268Z" fill="black"/>
<path d="M6 28.9067V27.3516H7.37164V28.9067H6Z" fill="black"/>
<path d="M7.27453 28.9067V27.3516H8.34129V28.9067H7.27453Z" fill="black"/>
<path d="M8.01568 28.9067V27.3516H9.5401V28.9067H8.01568Z" fill="black"/>
<path d="M9.29022 28.9067V27.3516H10.357V28.9067H9.29022Z" fill="black"/>
<path d="M10.0314 28.9067V27.3516H11.5558V28.9067H10.0314Z" fill="black"/>
<path d="M11.2295 28.9067V27.3516H12.6011V28.9067H11.2295Z" fill="black"/>
<path d="M12.3901 28.9067V27.3516H12.9999V28.9067H12.3901Z" fill="black"/>
<path d="M12.8257 28.9067V27.3516H13.8925V28.9067H12.8257Z" fill="black"/>
<path d="M13.7197 28.9067V27.3516H15.0913V28.9067H13.7197Z" fill="black"/>
<path d="M14.8803 28.9067V27.3516H15.49V28.9067H14.8803Z" fill="black"/>
<path d="M15.3159 28.9067V27.3516H16.8403V28.9067H15.3159Z" fill="black"/>
<path d="M16.8196 28.9067V27.3516H18.0384V28.9067H16.8196Z" fill="black"/>
<path d="M17.8649 28.9067V27.3516H18.9317V28.9067H17.8649Z" fill="black"/>
<path d="M18.9116 28.9067V27.3516H20.2833V28.9067H18.9116Z" fill="black"/>
<path d="M20.1098 28.9067V27.3516H21.6342V28.9067H20.1098Z" fill="black"/>
<path d="M21.4607 28.9067V27.3516H22.0705V28.9067H21.4607Z" fill="black"/>
<path d="M21.8963 28.9067V27.3516H22.9631V28.9067H21.8963Z" fill="black"/>
<path d="M22.7902 28.9067V27.3516H24.0091V28.9067H22.7902Z" fill="black"/>
<path d="M23.8356 28.9067V27.3516H24.4454V28.9067H23.8356Z" fill="black"/>
<path d="M24.424 28.9067V27.3516H25.7956V28.9067H24.424Z" fill="black"/>
<path d="M25.4694 28.9067V27.3516H26.9938V28.9067H25.4694Z" fill="black"/>
<path d="M26.6675 28.9067V27.3516H27.2773V28.9067H26.6675Z" fill="black"/>
<path d="M27.1031 28.9067V27.3516H28.4747V28.9067H27.1031Z" fill="black"/>
<path d="M28.3776 28.9067V27.3516H29.902V28.9067H28.3776Z" fill="black"/>
<path d="M29.5758 28.9067V27.3516H30.9474V28.9067H29.5758Z" fill="black"/>
<path d="M30.794 28.9067V27.3516H32.1657V28.9067H30.794Z" fill="black"/>
<path d="M31.9158 28.9067V27.3516H32.5255V28.9067H31.9158Z" fill="black"/>
<path d="M6.15278 31.9067V30.3516H7.37164V31.9067H6.15278Z" fill="black"/>
<path d="M7.35092 31.9067V30.3516H8.72256V31.9067H7.35092Z" fill="black"/>
<path d="M8.47267 31.9067V30.3516H9.99709V31.9067H8.47267Z" fill="black"/>
<path d="M9.82359 31.9067V30.3516H11.1952V31.9067H9.82359Z" fill="black"/>
<path d="M11.0217 31.9067V30.3516H11.6315V31.9067H11.0217Z" fill="black"/>
<path d="M11.4573 31.9067V30.3516H12.5241V31.9067H11.4573Z" fill="black"/>
<path d="M12.3513 31.9067V30.3516H13.5701V31.9067H12.3513Z" fill="black"/>
<path d="M13.3966 31.9067V30.3516H14.0064V31.9067H13.3966Z" fill="black"/>
<path d="M13.8322 31.9067V30.3516H14.899V31.9067H13.8322Z" fill="black"/>
<path d="M14.5734 31.9067V30.3516H15.945V31.9067H14.5734Z" fill="black"/>
<path d="M15.7916 31.9067V30.3516H17.1633V31.9067H15.7916Z" fill="black"/>
<path d="M16.9134 31.9067V30.3516H17.9801V31.9067H16.9134Z" fill="black"/>
<path d="M17.9601 31.9067V30.3516H19.3317V31.9067H17.9601Z" fill="black"/>
<path d="M19.1582 31.9067V30.3516H20.6827V31.9067H19.1582Z" fill="black"/>
<path d="M20.5092 31.9067V30.3516H21.1189V31.9067H20.5092Z" fill="black"/>
<path d="M20.9448 31.9067V30.3516H22.0115V31.9067H20.9448Z" fill="black"/>
<path d="M21.8387 31.9067V30.3516H23.0575V31.9067H21.8387Z" fill="black"/>
<path d="M22.8841 31.9067V30.3516H23.4938V31.9067H22.8841Z" fill="black"/>
<path d="M23.3197 31.9067V30.3516H24.8441V31.9067H23.3197Z" fill="black"/>
<path d="M24.5942 31.9067V30.3516H25.9658V31.9067H24.5942Z" fill="black"/>
<path d="M25.6597 31.9067V30.3516H27.0313V31.9067H25.6597Z" fill="black"/>
<path d="M26.7251 31.9067V30.3516H27.7919V31.9067H26.7251Z" fill="black"/>
<path d="M27.5427 31.9067V30.3516H28.9143V31.9067H27.5427Z" fill="black"/>
<path d="M28.8172 31.9067V30.3516H30.3416V31.9067H28.8172Z" fill="black"/>
<path d="M30.0153 31.9067V30.3516H30.6251V31.9067H30.0153Z" fill="black"/>
<path d="M6 34.9067V33.3516H7.52441V34.9067H6Z" fill="black"/>
<path d="M7.27453 34.9067V33.3516H8.34129V34.9067H7.27453Z" fill="black"/>
<path d="M8.01568 34.9067V33.3516H8.62545V34.9067H8.01568Z" fill="black"/>
<path d="M8.45129 34.9067V33.3516H9.9757V34.9067H8.45129Z" fill="black"/>
<path d="M9.72582 34.9067V33.3516H10.3356V34.9067H9.72582Z" fill="black"/>
<path d="M10.1614 34.9067V33.3516H11.5331V34.9067H10.1614Z" fill="black"/>
<path d="M11.4748 34.9067V33.3516H12.6937V34.9067H11.4748Z" fill="black"/>
<path d="M12.5202 34.9067V33.3516H13.5869V34.9067H12.5202Z" fill="black"/>
<path d="M13.4141 34.9067V33.3516H14.9385V34.9067H13.4141Z" fill="black"/>
<path d="M14.765 34.9067V33.3516H15.8318V34.9067H14.765Z" fill="black"/>
<path d="M15.5062 34.9067V33.3516H16.5729V34.9067H15.5062Z" fill="black"/>
<path d="M16.5529 34.9067V33.3516H17.7717V34.9067H16.5529Z" fill="black"/>
<path d="M17.751 34.9067V33.3516H19.1227V34.9067H17.751Z" fill="black"/>
<path d="M18.9492 34.9067V33.3516H19.5589V34.9067H18.9492Z" fill="black"/>
<path d="M19.3848 34.9067V33.3516H20.4515V34.9067H19.3848Z" fill="black"/>
<path d="M20.1259 34.9067V33.3516H21.6503V34.9067H20.1259Z" fill="black"/>
<path d="M21.4768 34.9067V33.3516H23.0013V34.9067H21.4768Z" fill="black"/>
<path d="M22.7514 34.9067V33.3516H23.8181V34.9067H22.7514Z" fill="black"/>
<path d="M23.4925 34.9067V33.3516H24.1023V34.9067H23.4925Z" fill="black"/>
<path d="M24.0809 34.9067V33.3516H25.2998V34.9067H24.0809Z" fill="black"/>
<path d="M25.1263 34.9067V33.3516H26.4979V34.9067H25.1263Z" fill="black"/>
<path d="M26.4008 34.9067V33.3516H27.9252V34.9067H26.4008Z" fill="black"/>
<path d="M27.5989 34.9067V33.3516H28.9706V34.9067H27.5989Z" fill="black"/>
<path d="M28.6644 34.9067V33.3516H29.2742V34.9067H28.6644Z" fill="black"/>
<path d="M29.1 34.9067V33.3516H30.1668V34.9067H29.1Z" fill="black"/>
<path d="M29.8412 34.9067V33.3516H31.3656V34.9067H29.8412Z" fill="black"/>
<path d="M31.1921 34.9067V33.3516H32.7165V34.9067H31.1921Z" fill="black"/>
<path d="M32.3902 34.9067V33.3516H33V34.9067H32.3902Z" fill="black"/>
<path d="M6 37.9067V36.3516H7.06675V37.9067H6Z" fill="black"/>
<path d="M7.04671 37.9067V36.3516H8.26557V37.9067H7.04671Z" fill="black"/>
<path d="M8.24485 37.9067V36.3516H9.61649V37.9067H8.24485Z" fill="black"/>
<path d="M9.44299 37.9067V36.3516H10.9674V37.9067H9.44299Z" fill="black"/>
<path d="M10.7939 37.9067V36.3516H11.4037V37.9067H10.7939Z" fill="black"/>
<path d="M11.2295 37.9067V36.3516H12.2963V37.9067H11.2295Z" fill="black"/>
<path d="M11.9707 37.9067V36.3516H13.4951V37.9067H11.9707Z" fill="black"/>
<path d="M13.1688 37.9067V36.3516H14.5404V37.9067H13.1688Z" fill="black"/>
<path d="M14.2343 37.9067V36.3516H16.2164V37.9067H14.2343Z" fill="black"/>
<path d="M16.1186 37.9067V36.3516H16.7283V37.9067H16.1186Z" fill="black"/>
<path d="M16.5542 37.9067V36.3516H17.9258V37.9067H16.5542Z" fill="black"/>
<path d="M17.8287 37.9067V36.3516H19.0476V37.9067H17.8287Z" fill="black"/>
<path d="M18.8741 37.9067V36.3516H20.3985V37.9067H18.8741Z" fill="black"/>
<path d="M20.225 37.9067V36.3516H21.2917V37.9067H20.225Z" fill="black"/>
<path d="M21.1189 37.9067V36.3516H22.6433V37.9067H21.1189Z" fill="black"/>
<path d="M22.3935 37.9067V36.3516H23.0032V37.9067H22.3935Z" fill="black"/>
<path d="M22.8291 37.9067V36.3516H23.8958V37.9067H22.8291Z" fill="black"/>
<path d="M23.723 37.9067V36.3516H25.2474V37.9067H23.723Z" fill="black"/>
<path d="M24.9211 37.9067V36.3516H26.4455V37.9067H24.9211Z" fill="black"/>
<path d="M26.1957 37.9067V36.3516H27.7201V37.9067H26.1957Z" fill="black"/>
<path d="M27.4702 37.9067V36.3516H28.08V37.9067H27.4702Z" fill="black"/>
<path d="M27.9058 37.9067V36.3516H28.9725V37.9067H27.9058Z" fill="black"/>
<path d="M28.7997 37.9067V36.3516H30.0186V37.9067H28.7997Z" fill="black"/>
<path d="M29.8451 37.9067V36.3516H30.4549V37.9067H29.8451Z" fill="black"/>
<path d="M6 40.9067V39.3516H7.52441V40.9067H6Z" fill="black"/>
<path d="M7.35092 40.9067V39.3516H8.72256V40.9067H7.35092Z" fill="black"/>
<path d="M8.41639 40.9067V39.3516H9.9408V40.9067H8.41639Z" fill="black"/>
<path d="M9.61453 40.9067V39.3516H11.1389V40.9067H9.61453Z" fill="black"/>
<path d="M10.8891 40.9067V39.3516H11.9558V40.9067H10.8891Z" fill="black"/>
<path d="M11.6302 40.9067V39.3516H13.1546V40.9067H11.6302Z" fill="black"/>
<path d="M12.8284 40.9067V39.3516H14.2V40.9067H12.8284Z" fill="black"/>
<path d="M13.8938 40.9067V39.3516H14.5036V40.9067H13.8938Z" fill="black"/>
<path d="M14.4822 40.9067V39.3516H15.8538V40.9067H14.4822Z" fill="black"/>
<path d="M15.604 40.9067V39.3516H16.9756V40.9067H15.604Z" fill="black"/>
<path d="M16.8222 40.9067V39.3516H18.0411V40.9067H16.8222Z" fill="black"/>
<path d="M17.8676 40.9067V39.3516H19.2392V40.9067H17.8676Z" fill="black"/>
<path d="M19.181 40.9067V39.3516H20.5526V40.9067H19.181Z" fill="black"/>
<path d="M20.3027 40.9067V39.3516H21.8271V40.9067H20.3027Z" fill="black"/>
<path d="M21.5009 40.9067V39.3516H22.8725V40.9067H21.5009Z" fill="black"/>
<path d="M22.5663 40.9067V39.3516H23.6331V40.9067H22.5663Z" fill="black"/>
<path d="M23.4603 40.9067V39.3516H24.527V40.9067H23.4603Z" fill="black"/>
<path d="M24.3542 40.9067V39.3516H25.7258V40.9067H24.3542Z" fill="black"/>
<path d="M25.4759 40.9067V39.3516H26.0857V40.9067H25.4759Z" fill="black"/>
<path d="M25.9115 40.9067V39.3516H27.436V40.9067H25.9115Z" fill="black"/>
<path d="M27.3389 40.9067V39.3516H28.7105V40.9067H27.3389Z" fill="black"/>
<path d="M28.537 40.9067V39.3516H30.0614V40.9067H28.537Z" fill="black"/>
<path d="M29.8115 40.9067V39.3516H30.4213V40.9067H29.8115Z" fill="black"/>
<path d="M6 43.9067V42.3516H7.37164V43.9067H6Z" fill="black"/>
<path d="M7.16062 43.9067V42.3516H8.68503V43.9067H7.16062Z" fill="black"/>
<path d="M8.35876 43.9067V42.3516H9.7304V43.9067H8.35876Z" fill="black"/>
<path d="M9.48052 43.9067V42.3516H11.0049V43.9067H9.48052Z" fill="black"/>
<path d="M10.8314 43.9067V42.3516H12.2031V43.9067H10.8314Z" fill="black"/>
<path d="M11.8969 43.9067V42.3516H12.9637V43.9067H11.8969Z" fill="black"/>
<path d="M12.7908 43.9067V42.3516H13.8576V43.9067H12.7908Z" fill="black"/>
<path d="M13.6848 43.9067V42.3516H15.0564V43.9067H13.6848Z" fill="black"/>
<path d="M14.8065 43.9067V42.3516H15.4163V43.9067H14.8065Z" fill="black"/>
<path d="M15.2421 43.9067V42.3516H16.4617V43.9067H15.2421Z" fill="black"/>
<path d="M16.2888 43.9067V42.3516H17.5077V43.9067H16.2888Z" fill="black"/>
<path d="M17.3342 43.9067V42.3516H18.7058V43.9067H17.3342Z" fill="black"/>
<path d="M18.3997 43.9067V42.3516H19.0094V43.9067H18.3997Z" fill="black"/>
<path d="M18.8353 43.9067V42.3516H20.5125V43.9067H18.8353Z" fill="black"/>
<path d="M20.3577 43.9067V42.3516H21.5766V43.9067H20.3577Z" fill="black"/>
<path d="M21.4031 43.9067V42.3516H22.7747V43.9067H21.4031Z" fill="black"/>
<path d="M22.4686 43.9067V42.3516H23.5353V43.9067H22.4686Z" fill="black"/>
<path d="M23.2097 43.9067V42.3516H24.7341V43.9067H23.2097Z" fill="black"/>
<path d="M24.5606 43.9067V42.3516H25.1704V43.9067H24.5606Z" fill="black"/>
<path d="M24.9962 43.9067V42.3516H26.6734V43.9067H24.9962Z" fill="black"/>
<path d="M26.5763 43.9067V42.3516H27.7952V43.9067H26.5763Z" fill="black"/>
<path d="M27.6217 43.9067V42.3516H28.9933V43.9067H27.6217Z" fill="black"/>
<path d="M28.6871 43.9067V42.3516H30.2116V43.9067H28.6871Z" fill="black"/>
<path d="M29.8853 43.9067V42.3516H31.4097V43.9067H29.8853Z" fill="black"/>
<path d="M31.1598 43.9067V42.3516H31.9217V43.9067H31.1598Z" fill="black"/>
<path d="M31.6718 43.9067V42.3516H32.4337V43.9067H31.6718Z" fill="black"/>
<path d="M6.30488 7.80215H32.0109V7.87188H6.30488V7.80215ZM6.30488 10.8021H20.5305V10.8719H6.30488V10.8021ZM6.30488 13.8021H31.1993V13.8719H6.30488V13.8021ZM6.30488 16.8021H23.9735V16.8719H6.30488V16.8021ZM6.30488 19.8021H25.4726V19.8719H6.30488V19.8021ZM6.30488 22.8021H32.5496V22.8719H6.30488V22.8021ZM6.30488 25.8021H28.1317V25.8719H6.30488V25.8021ZM6.30488 28.8021H32.2206V28.8719H6.30488V28.8021ZM6.30488 31.8021H30.3202V31.8719H6.30488V31.8021ZM6.30488 34.8021H32.6951V34.8719H6.30488V34.8021ZM6.30488 37.8021H30.15V37.8719H6.30488V37.8021ZM6.30488 40.8021H30.1164V40.8719H6.30488V40.8021ZM6.30488 43.8021H32.62V43.8719H6.30488V43.8021Z" fill="black"/>
</g>
<rect width="12" height="14" transform="translate(25 34.9062)" fill="white"/>
<path d="M30.6787 38.7676C31.5999 38.7676 32.2721 38.9661 32.6953 39.3633C33.1185 39.7572 33.3301 40.3008 33.3301 40.9941C33.3301 41.3066 33.2829 41.6061 33.1885 41.8926C33.0941 42.1758 32.9395 42.4281 32.7246 42.6494C32.513 42.8708 32.2298 43.0465 31.875 43.1768C31.5202 43.3037 31.0824 43.3672 30.5615 43.3672H29.9121V45.9062H28.3984V38.7676H30.6787ZM30.6006 40.0078H29.9121V42.127H30.4102C30.6934 42.127 30.9391 42.0895 31.1475 42.0146C31.3558 41.9398 31.5169 41.8226 31.6309 41.6631C31.7448 41.5036 31.8018 41.2985 31.8018 41.0479C31.8018 40.6963 31.7041 40.4359 31.5088 40.2666C31.3135 40.0941 31.0107 40.0078 30.6006 40.0078Z" fill="#585858"/>
</g>
<path d="M11.3333 54.9062H2V61.2543H11.3333V54.9062Z" fill="#7FA4CA"/>
<path d="M21.6663 54.9062H12.333V61.2543H21.6663V54.9062Z" fill="#BB90BB"/>
</g>
<defs>
<filter id="filter0_d_39_124700" x="0" y="1.35156" width="39" height="51.5547" filterUnits="userSpaceOnUse" color-interpolation-filters="sRGB">
<feFlood flood-opacity="0" result="BackgroundImageFix"/>
<feColorMatrix in="SourceAlpha" type="matrix" values="0 0 0 0 0 0 0 0 0 0 0 0 0 0 0 0 0 0 127 0" result="hardAlpha"/>
<feOffset dy="1"/>
<feGaussianBlur stdDeviation="1"/>
<feComposite in2="hardAlpha" operator="out"/>
<feColorMatrix type="matrix" values="0 0 0 0 0 0 0 0 0 0 0 0 0 0 0 0 0 0 0.1 0"/>
<feBlend mode="normal" in2="BackgroundImageFix" result="effect1_dropShadow_39_124700"/>
<feBlend mode="normal" in="SourceGraphic" in2="effect1_dropShadow_39_124700" result="shape"/>
</filter>
<clipPath id="clip0_39_124700">
<rect width="39" height="62.9033" fill="white" transform="translate(0 0.351562)"/>
</clipPath>
</defs>
</svg>
