<svg width="39" height="78" viewBox="0 0 39 78" fill="none" xmlns="http://www.w3.org/2000/svg">
<rect width="39" height="78" fill=""/>
<rect width="35" height="62.5552" transform="translate(2 2.06152)" fill="white"/>
<g opacity="0.3">
<path d="M6 7.6167V6.06152H6.76282V7.6167H6Z" fill="black"/>
<path d="M6.74208 7.6167V6.06152H8.87892V7.6167H6.74208Z" fill="black"/>
<path d="M8.66629 7.6167V6.06152H10.1926V7.6167H8.66629Z" fill="black"/>
<path d="M9.86593 7.6167V6.06152H10.4765V7.6167H9.86593Z" fill="black"/>
<path d="M10.3021 7.6167V6.06152H11.6754V7.6167H10.3021Z" fill="black"/>
<path d="M11.3689 7.6167V6.06152H12.8952V7.6167H11.3689Z" fill="black"/>
<path d="M12.5685 7.6167V6.06152H14.0948V7.6167H12.5685Z" fill="black"/>
<path d="M13.8446 7.6167V6.06152H15.0657V7.6167H13.8446Z" fill="black"/>
<path d="M14.7397 7.6167V6.06152H15.9607V7.6167H14.7397Z" fill="black"/>
<path d="M15.6347 7.6167V6.06152H16.7028V7.6167H15.6347Z" fill="black"/>
<path d="M16.5298 7.6167V6.06152H17.9031V7.6167H16.5298Z" fill="black"/>
<path d="M17.5966 7.6167V6.06152H19.5811V7.6167H17.5966Z" fill="black"/>
<path d="M19.4832 7.6167V6.06152H20.0937V7.6167H19.4832Z" fill="black"/>
<path d="M20.0723 7.6167V6.06152H21.2927V7.6167H20.0723Z" fill="black"/>
<path d="M21.119 7.6167V6.06152H22.6453V7.6167H21.119Z" fill="black"/>
<path d="M22.4716 7.6167V6.06152H23.8449V7.6167H22.4716Z" fill="black"/>
<path d="M23.5384 7.6167V6.06152H24.1489V7.6167H23.5384Z" fill="black"/>
<path d="M6 10.6167V9.06152H7.37335V10.6167H6Z" fill="black"/>
<path d="M7.27612 10.6167V9.06152H8.4965V10.6167H7.27612Z" fill="black"/>
<path d="M8.32279 10.6167V9.06152H10.3073V10.6167H8.32279Z" fill="black"/>
<path d="M10.2094 10.6167V9.06152H12.194V10.6167H10.2094Z" fill="black"/>
<path d="M12.0961 10.6167V9.06152H13.1642V10.6167H12.0961Z" fill="black"/>
<path d="M12.9911 10.6167V9.06152H14.0592V10.6167H12.9911Z" fill="black"/>
<path d="M13.7332 10.6167V9.06152H15.7177V10.6167H13.7332Z" fill="black"/>
<path d="M15.6198 10.6167V9.06152H17.1462V10.6167H15.6198Z" fill="black"/>
<path d="M16.9724 10.6167V9.06152H18.3458V10.6167H16.9724Z" fill="black"/>
<path d="M18.1721 10.6167V9.06152H19.2402V10.6167H18.1721Z" fill="black"/>
<path d="M18.9142 10.6167V9.06152H19.5247V10.6167H18.9142Z" fill="black"/>
<path d="M19.3503 10.6167V9.06152H20.4184V10.6167H19.3503Z" fill="black"/>
<path d="M20.2454 10.6167V9.06152H21.4657V10.6167H20.2454Z" fill="black"/>
<path d="M21.292 10.6167V9.06152H21.9025V10.6167H21.292Z" fill="black"/>
<path d="M21.8811 10.6167V9.06152H23.1015V10.6167H21.8811Z" fill="black"/>
<path d="M22.9278 10.6167V9.06152H24.4541V10.6167H22.9278Z" fill="black"/>
<path d="M24.2804 10.6167V9.06152H25.6538V10.6167H24.2804Z" fill="black"/>
<path d="M25.3472 10.6167V9.06152H25.9577V10.6167H25.3472Z" fill="black"/>
<path d="M6 13.6167V12.0615H7.37335V13.6167H6Z" fill="black"/>
<path d="M7.27612 13.6167V12.0615H8.4965V13.6167H7.27612Z" fill="black"/>
<path d="M8.32279 13.6167V12.0615H10.3073V13.6167H8.32279Z" fill="black"/>
<path d="M10.2094 13.6167V12.0615H12.194V13.6167H10.2094Z" fill="black"/>
<path d="M12.249 13.6167V12.0615H13.4694V13.6167H12.249Z" fill="black"/>
<path d="M13.4487 13.6167V12.0615H14.822V13.6167H13.4487Z" fill="black"/>
<path d="M14.6483 13.6167V12.0615H15.2588V13.6167H14.6483Z" fill="black"/>
<path d="M15.0845 13.6167V12.0615H16.6108V13.6167H15.0845Z" fill="black"/>
<path d="M16.59 13.6167V12.0615H17.8104V13.6167H16.59Z" fill="black"/>
<path d="M17.6367 13.6167V12.0615H19.163V13.6167H17.6367Z" fill="black"/>
<path d="M18.9128 13.6167V12.0615H19.9809V13.6167H18.9128Z" fill="black"/>
<path d="M19.8079 13.6167V12.0615H20.5707V13.6167H19.8079Z" fill="black"/>
<path d="M20.3205 13.6167V12.0615H20.931V13.6167H20.3205Z" fill="black"/>
<path d="M20.7566 13.6167V12.0615H22.13V13.6167H20.7566Z" fill="black"/>
<path d="M21.9187 13.6167V12.0615H23.445V13.6167H21.9187Z" fill="black"/>
<path d="M23.2713 13.6167V12.0615H24.7976V13.6167H23.2713Z" fill="black"/>
<path d="M24.5474 13.6167V12.0615H25.9208V13.6167H24.5474Z" fill="black"/>
<path d="M25.6142 13.6167V12.0615H27.1405V13.6167H25.6142Z" fill="black"/>
<path d="M26.8139 13.6167V12.0615H28.3402V13.6167H26.8139Z" fill="black"/>
<path d="M28.09 13.6167V12.0615H28.7005V13.6167H28.09Z" fill="black"/>
<path d="M28.6791 13.6167V12.0615H30.0524V13.6167H28.6791Z" fill="black"/>
<path d="M29.8787 13.6167V12.0615H31.2521V13.6167H29.8787Z" fill="black"/>
<path d="M31.0019 13.6167V12.0615H31.6124V13.6167H31.0019Z" fill="black"/>
<path d="M6 16.6167V15.0615H7.06808V16.6167H6Z" fill="black"/>
<path d="M6.74208 16.6167V15.0615H8.26839V16.6167H6.74208Z" fill="black"/>
<path d="M8.09468 16.6167V15.0615H9.62099V16.6167H8.09468Z" fill="black"/>
<path d="M9.29432 16.6167V15.0615H9.90484V16.6167H9.29432Z" fill="black"/>
<path d="M9.73046 16.6167V15.0615H10.7985V16.6167H9.73046Z" fill="black"/>
<path d="M10.7785 16.6167V15.0615H12.1518V16.6167H10.7785Z" fill="black"/>
<path d="M11.9781 16.6167V15.0615H13.0462V16.6167H11.9781Z" fill="black"/>
<path d="M12.7202 16.6167V15.0615H14.2465V16.6167H12.7202Z" fill="black"/>
<path d="M13.9198 16.6167V15.0615H15.2932V16.6167H13.9198Z" fill="black"/>
<path d="M15.1396 16.6167V15.0615H16.5129V16.6167H15.1396Z" fill="black"/>
<path d="M16.3392 16.6167V15.0615H17.8655V16.6167H16.3392Z" fill="black"/>
<path d="M17.6153 16.6167V15.0615H18.6834V16.6167H17.6153Z" fill="black"/>
<path d="M18.3574 16.6167V15.0615H19.4255V16.6167H18.3574Z" fill="black"/>
<path d="M19.4054 16.6167V15.0615H20.6258V16.6167H19.4054Z" fill="black"/>
<path d="M20.6051 16.6167V15.0615H21.9784V16.6167H20.6051Z" fill="black"/>
<path d="M21.8047 16.6167V15.0615H23.331V16.6167H21.8047Z" fill="black"/>
<path d="M23.0808 16.6167V15.0615H24.1489V16.6167H23.0808Z" fill="black"/>
<path d="M23.9759 16.6167V15.0615H24.5864V16.6167H23.9759Z" fill="black"/>
<path d="M6 19.6167V18.0615H7.37335V19.6167H6Z" fill="black"/>
<path d="M7.27612 19.6167V18.0615H8.4965V19.6167H7.27612Z" fill="black"/>
<path d="M8.32279 19.6167V18.0615H10.3073V19.6167H8.32279Z" fill="black"/>
<path d="M10.2094 19.6167V18.0615H12.194V19.6167H10.2094Z" fill="black"/>
<path d="M12.0961 19.6167V18.0615H13.6224V19.6167H12.0961Z" fill="black"/>
<path d="M13.6016 19.6167V18.0615H14.975V19.6167H13.6016Z" fill="black"/>
<path d="M14.8013 19.6167V18.0615H15.8694V19.6167H14.8013Z" fill="black"/>
<path d="M15.6963 19.6167V18.0615H16.7644V19.6167H15.6963Z" fill="black"/>
<path d="M16.5914 19.6167V18.0615H17.9647V19.6167H16.5914Z" fill="black"/>
<path d="M17.7145 19.6167V18.0615H18.4773V19.6167H17.7145Z" fill="black"/>
<path d="M18.2272 19.6167V18.0615H18.8377V19.6167H18.2272Z" fill="black"/>
<path d="M18.6633 19.6167V18.0615H19.7314V19.6167H18.6633Z" fill="black"/>
<path d="M19.5583 19.6167V18.0615H20.7787V19.6167H19.5583Z" fill="black"/>
<path d="M20.605 19.6167V18.0615H21.2155V19.6167H20.605Z" fill="black"/>
<path d="M21.0412 19.6167V18.0615H22.5675V19.6167H21.0412Z" fill="black"/>
<path d="M22.3173 19.6167V18.0615H23.6906V19.6167H22.3173Z" fill="black"/>
<path d="M23.4404 19.6167V18.0615H24.9667V19.6167H23.4404Z" fill="black"/>
<path d="M24.793 19.6167V18.0615H25.8611V19.6167H24.793Z" fill="black"/>
<path d="M25.6881 19.6167V18.0615H27.2144V19.6167H25.6881Z" fill="black"/>
<path d="M26.8877 19.6167V18.0615H28.2611V19.6167H26.8877Z" fill="black"/>
<path d="M28.1638 19.6167V18.0615H29.6901V19.6167H28.1638Z" fill="black"/>
<path d="M29.3635 19.6167V18.0615H29.974V19.6167H29.3635Z" fill="black"/>
<path d="M6 22.6167V21.0615H7.06808V22.6167H6Z" fill="black"/>
<path d="M6.74208 22.6167V21.0615H8.26839V22.6167H6.74208Z" fill="black"/>
<path d="M8.09468 22.6167V21.0615H9.62099V22.6167H8.09468Z" fill="black"/>
<path d="M9.29432 22.6167V21.0615H9.90484V22.6167H9.29432Z" fill="black"/>
<path d="M9.73046 22.6167V21.0615H11.1038V22.6167H9.73046Z" fill="black"/>
<path d="M11.0066 22.6167V21.0615H12.227V22.6167H11.0066Z" fill="black"/>
<path d="M12.0532 22.6167V21.0615H14.0378V22.6167H12.0532Z" fill="black"/>
<path d="M14.0929 22.6167V21.0615H15.4662V22.6167H14.0929Z" fill="black"/>
<path d="M15.216 22.6167V21.0615H16.2841V22.6167H15.216Z" fill="black"/>
<path d="M16.1111 22.6167V21.0615H17.6374V22.6167H16.1111Z" fill="black"/>
<path d="M17.3107 22.6167V21.0615H18.3788V22.6167H17.3107Z" fill="black"/>
<path d="M18.0528 22.6167V21.0615H19.5791V22.6167H18.0528Z" fill="black"/>
<path d="M19.2524 22.6167V21.0615H20.0152V22.6167H19.2524Z" fill="black"/>
<path d="M19.765 22.6167V21.0615H20.3756V22.6167H19.765Z" fill="black"/>
<path d="M20.2012 22.6167V21.0615H21.5745V22.6167H20.2012Z" fill="black"/>
<path d="M21.4773 22.6167V21.0615H23.0036V22.6167H21.4773Z" fill="black"/>
<path d="M22.6769 22.6167V21.0615H24.0503V22.6167H22.6769Z" fill="black"/>
<path d="M23.7437 22.6167V21.0615H24.8118V22.6167H23.7437Z" fill="black"/>
<path d="M24.6388 22.6167V21.0615H25.8598V22.6167H24.6388Z" fill="black"/>
<path d="M25.5338 22.6167V21.0615H26.6019V22.6167H25.5338Z" fill="black"/>
<path d="M26.4289 22.6167V21.0615H27.9552V22.6167H26.4289Z" fill="black"/>
<path d="M27.858 22.6167V21.0615H29.2313V22.6167H27.858Z" fill="black"/>
<path d="M28.9046 22.6167V21.0615H29.9727V22.6167H28.9046Z" fill="black"/>
<path d="M29.7997 22.6167V21.0615H31.326V22.6167H29.7997Z" fill="black"/>
<path d="M30.9993 22.6167V21.0615H31.7621V22.6167H30.9993Z" fill="black"/>
<path d="M31.5119 22.6167V21.0615H32.1225V22.6167H31.5119Z" fill="black"/>
<path d="M6 25.6167V24.0615H7.52631V25.6167H6Z" fill="black"/>
<path d="M7.42909 25.6167V24.0615H8.80243V25.6167H7.42909Z" fill="black"/>
<path d="M8.62872 25.6167V24.0615H10.155V25.6167H8.62872Z" fill="black"/>
<path d="M9.90484 25.6167V24.0615H10.5154V25.6167H9.90484Z" fill="black"/>
<path d="M10.341 25.6167V24.0615H11.4091V25.6167H10.341Z" fill="black"/>
<path d="M11.236 25.6167V24.0615H12.6094V25.6167H11.236Z" fill="black"/>
<path d="M12.3028 25.6167V24.0615H13.6762V25.6167H12.3028Z" fill="black"/>
<path d="M13.3696 25.6167V24.0615H14.8959V25.6167H13.3696Z" fill="black"/>
<path d="M14.5693 25.6167V24.0615H15.9426V25.6167H14.5693Z" fill="black"/>
<path d="M15.8454 25.6167V24.0615H17.3717V25.6167H15.8454Z" fill="black"/>
<path d="M17.045 25.6167V24.0615H18.4184V25.6167H17.045Z" fill="black"/>
<path d="M18.1118 25.6167V24.0615H19.4852V25.6167H18.1118Z" fill="black"/>
<path d="M19.2739 25.6167V24.0615H20.342V25.6167H19.2739Z" fill="black"/>
<path d="M20.3219 25.6167V24.0615H21.6952V25.6167H20.3219Z" fill="black"/>
<path d="M21.3686 25.6167V24.0615H22.4366V25.6167H21.3686Z" fill="black"/>
<path d="M22.2636 25.6167V24.0615H23.7899V25.6167H22.2636Z" fill="black"/>
<path d="M23.4632 25.6167V24.0615H24.0738V25.6167H23.4632Z" fill="black"/>
<path d="M6 28.6167V27.0615H7.52631V28.6167H6Z" fill="black"/>
<path d="M7.27612 28.6167V27.0615H8.80243V28.6167H7.27612Z" fill="black"/>
<path d="M8.62872 28.6167V27.0615H10.0021V28.6167H8.62872Z" fill="black"/>
<path d="M9.82836 28.6167V27.0615H11.3547V28.6167H9.82836Z" fill="black"/>
<path d="M11.181 28.6167V27.0615H12.5543V28.6167H11.181Z" fill="black"/>
<path d="M12.3041 28.6167V27.0615H13.3722V28.6167H12.3041Z" fill="black"/>
<path d="M13.1992 28.6167V27.0615H14.7255V28.6167H13.1992Z" fill="black"/>
<path d="M14.3988 28.6167V27.0615H15.9251V28.6167H14.3988Z" fill="black"/>
<path d="M15.6749 28.6167V27.0615H17.0483V28.6167H15.6749Z" fill="black"/>
<path d="M16.7417 28.6167V27.0615H17.8098V28.6167H16.7417Z" fill="black"/>
<path d="M17.7897 28.6167V27.0615H19.0101V28.6167H17.7897Z" fill="black"/>
<path d="M18.7411 28.6167V27.0615H20.2674V28.6167H18.7411Z" fill="black"/>
<path d="M20.0172 28.6167V27.0615H21.0853V28.6167H20.0172Z" fill="black"/>
<path d="M20.7593 28.6167V27.0615H21.8274V28.6167H20.7593Z" fill="black"/>
<path d="M21.8073 28.6167V27.0615H23.0277V28.6167H21.8073Z" fill="black"/>
<path d="M23.007 28.6167V27.0615H24.3803V28.6167H23.007Z" fill="black"/>
<path d="M24.2066 28.6167V27.0615H24.8171V28.6167H24.2066Z" fill="black"/>
<path d="M24.7957 28.6167V27.0615H26.0161V28.6167H24.7957Z" fill="black"/>
<path d="M25.8424 28.6167V27.0615H27.0634V28.6167H25.8424Z" fill="black"/>
<path d="M26.7374 28.6167V27.0615H27.348V28.6167H26.7374Z" fill="black"/>
<path d="M6 31.6167V30.0615H7.67928V31.6167H6Z" fill="black"/>
<path d="M7.52436 31.6167V30.0615H8.74474V31.6167H7.52436Z" fill="black"/>
<path d="M8.57102 31.6167V30.0615H9.94437V31.6167H8.57102Z" fill="black"/>
<path d="M9.63782 31.6167V30.0615H10.7059V31.6167H9.63782Z" fill="black"/>
<path d="M10.3799 31.6167V30.0615H11.9062V31.6167H10.3799Z" fill="black"/>
<path d="M11.7325 31.6167V30.0615H12.343V31.6167H11.7325Z" fill="black"/>
<path d="M12.1686 31.6167V30.0615H13.8479V31.6167H12.1686Z" fill="black"/>
<path d="M13.7507 31.6167V30.0615H14.9711V31.6167H13.7507Z" fill="black"/>
<path d="M14.7974 31.6167V30.0615H16.1707V31.6167H14.7974Z" fill="black"/>
<path d="M15.8642 31.6167V30.0615H17.3905V31.6167H15.8642Z" fill="black"/>
<path d="M17.0638 31.6167V30.0615H18.5901V31.6167H17.0638Z" fill="black"/>
<path d="M18.3399 31.6167V30.0615H18.9504V31.6167H18.3399Z" fill="black"/>
<path d="M18.7761 31.6167V30.0615H19.8441V31.6167H18.7761Z" fill="black"/>
<path d="M19.8241 31.6167V30.0615H21.1974V31.6167H19.8241Z" fill="black"/>
<path d="M21.0237 31.6167V30.0615H21.6342V31.6167H21.0237Z" fill="black"/>
<path d="M21.4599 31.6167V30.0615H22.9862V31.6167H21.4599Z" fill="black"/>
<path d="M22.736 31.6167V30.0615H23.3465V31.6167H22.736Z" fill="black"/>
<path d="M23.3251 31.6167V30.0615H24.6984V31.6167H23.3251Z" fill="black"/>
<path d="M24.4482 31.6167V30.0615H25.9746V31.6167H24.4482Z" fill="black"/>
<path d="M25.6479 31.6167V30.0615H27.1742V31.6167H25.6479Z" fill="black"/>
<path d="M26.924 31.6167V30.0615H28.2973V31.6167H26.924Z" fill="black"/>
<path d="M28.0471 31.6167V30.0615H29.5735V31.6167H28.0471Z" fill="black"/>
<path d="M29.2468 31.6167V30.0615H30.4678V31.6167H29.2468Z" fill="black"/>
<path d="M30.1418 31.6167V30.0615H31.6681V31.6167H30.1418Z" fill="black"/>
<path d="M31.4944 31.6167V30.0615H32.5625V31.6167H31.4944Z" fill="black"/>
<path d="M32.3895 31.6167V30.0615H33V31.6167H32.3895Z" fill="black"/>
<path d="M6 34.6167V33.0615H7.98454V34.6167H6Z" fill="black"/>
<path d="M7.88665 34.6167V33.0615H9.41296V34.6167H7.88665Z" fill="black"/>
<path d="M9.31573 34.6167V33.0615H10.6891V34.6167H9.31573Z" fill="black"/>
<path d="M10.6683 34.6167V33.0615H12.0417V34.6167H10.6683Z" fill="black"/>
<path d="M11.868 34.6167V33.0615H13.3943V34.6167H11.868Z" fill="black"/>
<path d="M13.0676 34.6167V33.0615H14.441V34.6167H13.0676Z" fill="black"/>
<path d="M14.1344 34.6167V33.0615H14.8972V34.6167H14.1344Z" fill="black"/>
<path d="M14.647 34.6167V33.0615H15.4099V34.6167H14.647Z" fill="black"/>
<path d="M15.1597 34.6167V33.0615H15.9225V34.6167H15.1597Z" fill="black"/>
<path d="M15.6723 34.6167V33.0615H17.1986V34.6167H15.6723Z" fill="black"/>
<path d="M17.0249 34.6167V33.0615H18.5512V34.6167H17.0249Z" fill="black"/>
<path d="M18.3775 34.6167V33.0615H19.9038V34.6167H18.3775Z" fill="black"/>
<path d="M19.5771 34.6167V33.0615H20.1877V34.6167H19.5771Z" fill="black"/>
<path d="M20.0133 34.6167V33.0615H21.6926V34.6167H20.0133Z" fill="black"/>
<path d="M21.5564 34.6167V33.0615H22.9298V34.6167H21.5564Z" fill="black"/>
<path d="M22.756 34.6167V33.0615H23.8241V34.6167H22.756Z" fill="black"/>
<path d="M23.6511 34.6167V33.0615H24.7192V34.6167H23.6511Z" fill="black"/>
<path d="M24.3932 34.6167V33.0615H25.9195V34.6167H24.3932Z" fill="black"/>
<path d="M25.5928 34.6167V33.0615H27.1191V34.6167H25.5928Z" fill="black"/>
<path d="M26.8689 34.6167V33.0615H27.4795V34.6167H26.8689Z" fill="black"/>
<path d="M6 37.6167V36.0615H7.37335V37.6167H6Z" fill="black"/>
<path d="M7.27612 37.6167V36.0615H8.3442V37.6167H7.27612Z" fill="black"/>
<path d="M8.0182 37.6167V36.0615H9.54451V37.6167H8.0182Z" fill="black"/>
<path d="M9.29432 37.6167V36.0615H10.3624V37.6167H9.29432Z" fill="black"/>
<path d="M10.0364 37.6167V36.0615H11.5627V37.6167H10.0364Z" fill="black"/>
<path d="M11.236 37.6167V36.0615H12.6094V37.6167H11.236Z" fill="black"/>
<path d="M12.3981 37.6167V36.0615H13.0086V37.6167H12.3981Z" fill="black"/>
<path d="M12.8342 37.6167V36.0615H14.3606V37.6167H12.8342Z" fill="black"/>
<path d="M14.2633 37.6167V36.0615H15.6367V37.6167H14.2633Z" fill="black"/>
<path d="M15.463 37.6167V36.0615H16.9893V37.6167H15.463Z" fill="black"/>
<path d="M16.7391 37.6167V36.0615H17.3496V37.6167H16.7391Z" fill="black"/>
<path d="M17.1752 37.6167V36.0615H18.2433V37.6167H17.1752Z" fill="black"/>
<path d="M17.9173 37.6167V36.0615H19.4436V37.6167H17.9173Z" fill="black"/>
<path d="M19.2699 37.6167V36.0615H20.7962V37.6167H19.2699Z" fill="black"/>
<path d="M20.4695 37.6167V36.0615H21.0801V37.6167H20.4695Z" fill="black"/>
<path d="M20.9057 37.6167V36.0615H22.585V37.6167H20.9057Z" fill="black"/>
<path d="M22.4113 37.6167V36.0615H23.9376V37.6167H22.4113Z" fill="black"/>
<path d="M23.7639 37.6167V36.0615H25.1372V37.6167H23.7639Z" fill="black"/>
<path d="M24.887 37.6167V36.0615H26.4133V37.6167H24.887Z" fill="black"/>
<path d="M26.3926 37.6167V36.0615H27.7659V37.6167H26.3926Z" fill="black"/>
<path d="M27.4393 37.6167V36.0615H28.5073V37.6167H27.4393Z" fill="black"/>
<path d="M28.3343 37.6167V36.0615H29.4024V37.6167H28.3343Z" fill="black"/>
<path d="M29.2293 37.6167V36.0615H30.6027V37.6167H29.2293Z" fill="black"/>
<path d="M30.3525 37.6167V36.0615H30.963V37.6167H30.3525Z" fill="black"/>
<path d="M6.15297 40.6167V39.0615H7.37335V40.6167H6.15297Z" fill="black"/>
<path d="M7.19964 40.6167V39.0615H8.42069V40.6167H7.19964Z" fill="black"/>
<path d="M8.09468 40.6167V39.0615H8.70521V40.6167H8.09468Z" fill="black"/>
<path d="M8.53082 40.6167V39.0615H10.2101V40.6167H8.53082Z" fill="black"/>
<path d="M10.1129 40.6167V39.0615H11.3333V40.6167H10.1129Z" fill="black"/>
<path d="M11.1595 40.6167V39.0615H12.5329V40.6167H11.1595Z" fill="black"/>
<path d="M12.2263 40.6167V39.0615H13.7527V40.6167H12.2263Z" fill="black"/>
<path d="M13.426 40.6167V39.0615H14.9523V40.6167H13.426Z" fill="black"/>
<path d="M14.7021 40.6167V39.0615H15.3126V40.6167H14.7021Z" fill="black"/>
<path d="M15.1382 40.6167V39.0615H17.1228V40.6167H15.1382Z" fill="black"/>
<path d="M17.0249 40.6167V39.0615H18.5512V40.6167H17.0249Z" fill="black"/>
<path d="M18.301 40.6167V39.0615H19.3691V40.6167H18.301Z" fill="black"/>
<path d="M19.349 40.6167V39.0615H20.7224V40.6167H19.349Z" fill="black"/>
<path d="M20.5487 40.6167V39.0615H21.6167V40.6167H20.5487Z" fill="black"/>
<path d="M21.2907 40.6167V39.0615H22.817V40.6167H21.2907Z" fill="black"/>
<path d="M22.5669 40.6167V39.0615H23.6349V40.6167H22.5669Z" fill="black"/>
<path d="M23.6149 40.6167V39.0615H24.9882V40.6167H23.6149Z" fill="black"/>
<path d="M24.8145 40.6167V39.0615H25.425V40.6167H24.8145Z" fill="black"/>
<path d="M25.4036 40.6167V39.0615H26.777V40.6167H25.4036Z" fill="black"/>
<path d="M26.7562 40.6167V39.0615H27.9766V40.6167H26.7562Z" fill="black"/>
<path d="M27.8029 40.6167V39.0615H28.4134V40.6167H27.8029Z" fill="black"/>
<path d="M6 43.6167V42.0615H7.52631V43.6167H6Z" fill="black"/>
<path d="M7.50557 43.6167V42.0615H8.72595V43.6167H7.50557Z" fill="black"/>
<path d="M8.55224 43.6167V42.0615H9.92559V43.6167H8.55224Z" fill="black"/>
<path d="M9.7143 43.6167V42.0615H10.7824V43.6167H9.7143Z" fill="black"/>
<path d="M10.4564 43.6167V42.0615H11.5245V43.6167H10.4564Z" fill="black"/>
<path d="M11.3514 43.6167V42.0615H12.4195V43.6167H11.3514Z" fill="black"/>
<path d="M12.2465 43.6167V42.0615H13.7728V43.6167H12.2465Z" fill="black"/>
<path d="M13.4461 43.6167V42.0615H14.0566V43.6167H13.4461Z" fill="black"/>
<path d="M14.0352 43.6167V42.0615H15.4086V43.6167H14.0352Z" fill="black"/>
<path d="M15.3113 43.6167V42.0615H16.5317V43.6167H15.3113Z" fill="black"/>
<path d="M16.358 43.6167V42.0615H17.4261V43.6167H16.358Z" fill="black"/>
<path d="M17.2531 43.6167V42.0615H18.3211V43.6167H17.2531Z" fill="black"/>
<path d="M18.1481 43.6167V42.0615H19.5214V43.6167H18.1481Z" fill="black"/>
<path d="M19.4242 43.6167V42.0615H20.7976V43.6167H19.4242Z" fill="black"/>
<path d="M20.5474 43.6167V42.0615H21.1579V43.6167H20.5474Z" fill="black"/>
<path d="M20.9835 43.6167V42.0615H22.0516V43.6167H20.9835Z" fill="black"/>
<path d="M21.8786 43.6167V42.0615H23.0989V43.6167H21.8786Z" fill="black"/>
<path d="M22.9252 43.6167V42.0615H25.0621V43.6167H22.9252Z" fill="black"/>
<path d="M24.7354 43.6167V42.0615H26.2617V43.6167H24.7354Z" fill="black"/>
<path d="M26.0115 43.6167V42.0615H27.3849V43.6167H26.0115Z" fill="black"/>
<path d="M27.0783 43.6167V42.0615H28.6046V43.6167H27.0783Z" fill="black"/>
<path d="M28.3544 43.6167V42.0615H29.7278V43.6167H28.3544Z" fill="black"/>
<path d="M29.5165 43.6167V42.0615H30.127V43.6167H29.5165Z" fill="black"/>
<path d="M6 46.6167V45.0615H7.67928V46.6167H6Z" fill="black"/>
<path d="M7.52436 46.6167V45.0615H8.74474V46.6167H7.52436Z" fill="black"/>
<path d="M8.57102 46.6167V45.0615H9.94437V46.6167H8.57102Z" fill="black"/>
<path d="M9.63782 46.6167V45.0615H10.7059V46.6167H9.63782Z" fill="black"/>
<path d="M10.3799 46.6167V45.0615H11.9062V46.6167H10.3799Z" fill="black"/>
<path d="M11.7325 46.6167V45.0615H12.343V46.6167H11.7325Z" fill="black"/>
<path d="M12.1686 46.6167V45.0615H13.8479V46.6167H12.1686Z" fill="black"/>
<path d="M13.7507 46.6167V45.0615H14.9711V46.6167H13.7507Z" fill="black"/>
<path d="M14.7974 46.6167V45.0615H16.1707V46.6167H14.7974Z" fill="black"/>
<path d="M15.8642 46.6167V45.0615H17.3905V46.6167H15.8642Z" fill="black"/>
<path d="M17.0638 46.6167V45.0615H18.5901V46.6167H17.0638Z" fill="black"/>
<path d="M18.3399 46.6167V45.0615H18.9504V46.6167H18.3399Z" fill="black"/>
<path d="M18.7761 46.6167V45.0615H20.3024V46.6167H18.7761Z" fill="black"/>
<path d="M20.2051 46.6167V45.0615H21.5785V46.6167H20.2051Z" fill="black"/>
<path d="M21.4048 46.6167V45.0615H22.9311V46.6167H21.4048Z" fill="black"/>
<path d="M22.6809 46.6167V45.0615H23.2914V46.6167H22.6809Z" fill="black"/>
<path d="M23.117 46.6167V45.0615H24.4904V46.6167H23.117Z" fill="black"/>
<path d="M24.1838 46.6167V45.0615H25.7102V46.6167H24.1838Z" fill="black"/>
<path d="M25.3835 46.6167V45.0615H27.368V46.6167H25.3835Z" fill="black"/>
<path d="M27.2701 46.6167V45.0615H28.7964V46.6167H27.2701Z" fill="black"/>
<path d="M28.5462 46.6167V45.0615H29.6143V46.6167H28.5462Z" fill="black"/>
<path d="M29.5943 46.6167V45.0615H30.9676V46.6167H29.5943Z" fill="black"/>
<path d="M30.7939 46.6167V45.0615H31.4044V46.6167H30.7939Z" fill="black"/>
<path d="M6.15297 49.6167V48.0615H7.37335V49.6167H6.15297Z" fill="black"/>
<path d="M7.3526 49.6167V48.0615H8.72595V49.6167H7.3526Z" fill="black"/>
<path d="M8.47576 49.6167V48.0615H10.0021V49.6167H8.47576Z" fill="black"/>
<path d="M9.82836 49.6167V48.0615H11.2017V49.6167H9.82836Z" fill="black"/>
<path d="M11.028 49.6167V48.0615H11.6385V49.6167H11.028Z" fill="black"/>
<path d="M11.4641 49.6167V48.0615H12.5322V49.6167H11.4641Z" fill="black"/>
<path d="M12.3592 49.6167V48.0615H13.5796V49.6167H12.3592Z" fill="black"/>
<path d="M13.4059 49.6167V48.0615H14.0164V49.6167H13.4059Z" fill="black"/>
<path d="M13.842 49.6167V48.0615H15.3683V49.6167H13.842Z" fill="black"/>
<path d="M15.1181 49.6167V48.0615H16.1862V49.6167H15.1181Z" fill="black"/>
<path d="M16.0132 49.6167V48.0615H17.5395V49.6167H16.0132Z" fill="black"/>
<path d="M17.2893 49.6167V48.0615H18.3574V49.6167H17.2893Z" fill="black"/>
<path d="M18.3373 49.6167V48.0615H19.5577V49.6167H18.3373Z" fill="black"/>
<path d="M19.384 49.6167V48.0615H20.9103V49.6167H19.384Z" fill="black"/>
<path d="M20.7366 49.6167V48.0615H22.2629V49.6167H20.7366Z" fill="black"/>
<path d="M22.0892 49.6167V48.0615H23.6155V49.6167H22.0892Z" fill="black"/>
<path d="M23.2888 49.6167V48.0615H23.8993V49.6167H23.2888Z" fill="black"/>
<path d="M23.7249 49.6167V48.0615H25.8618V49.6167H23.7249Z" fill="black"/>
<path d="M25.6116 49.6167V48.0615H26.6797V49.6167H25.6116Z" fill="black"/>
<path d="M26.5066 49.6167V48.0615H27.5747V49.6167H26.5066Z" fill="black"/>
<path d="M27.2487 49.6167V48.0615H28.775V49.6167H27.2487Z" fill="black"/>
<path d="M28.6013 49.6167V48.0615H29.2118V49.6167H28.6013Z" fill="black"/>
<path d="M6 52.6167V51.0615H7.67928V52.6167H6Z" fill="black"/>
<path d="M7.52436 52.6167V51.0615H8.74474V52.6167H7.52436Z" fill="black"/>
<path d="M8.57102 52.6167V51.0615H9.94437V52.6167H8.57102Z" fill="black"/>
<path d="M9.63782 52.6167V51.0615H10.7059V52.6167H9.63782Z" fill="black"/>
<path d="M10.3799 52.6167V51.0615H11.9062V52.6167H10.3799Z" fill="black"/>
<path d="M11.7325 52.6167V51.0615H12.343V52.6167H11.7325Z" fill="black"/>
<path d="M12.1686 52.6167V51.0615H13.8479V52.6167H12.1686Z" fill="black"/>
<path d="M13.7507 52.6167V51.0615H14.9711V52.6167H13.7507Z" fill="black"/>
<path d="M14.7974 52.6167V51.0615H16.1707V52.6167H14.7974Z" fill="black"/>
<path d="M15.8642 52.6167V51.0615H17.3905V52.6167H15.8642Z" fill="black"/>
<path d="M17.0638 52.6167V51.0615H18.5901V52.6167H17.0638Z" fill="black"/>
<path d="M18.3399 52.6167V51.0615H18.9504V52.6167H18.3399Z" fill="black"/>
<path d="M18.7761 52.6167V51.0615H19.8441V52.6167H18.7761Z" fill="black"/>
<path d="M19.6711 52.6167V51.0615H20.8915V52.6167H19.6711Z" fill="black"/>
<path d="M20.7178 52.6167V51.0615H21.3283V52.6167H20.7178Z" fill="black"/>
<path d="M21.1539 52.6167V51.0615H22.6802V52.6167H21.1539Z" fill="black"/>
<path d="M22.43 52.6167V51.0615H23.8034V52.6167H22.43Z" fill="black"/>
<path d="M23.5532 52.6167V51.0615H25.0795V52.6167H23.5532Z" fill="black"/>
<path d="M24.9058 52.6167V51.0615H25.9739V52.6167H24.9058Z" fill="black"/>
<path d="M25.8008 52.6167V51.0615H27.3272V52.6167H25.8008Z" fill="black"/>
<path d="M27.0005 52.6167V51.0615H28.3738V52.6167H27.0005Z" fill="black"/>
<path d="M28.2766 52.6167V51.0615H29.8029V52.6167H28.2766Z" fill="black"/>
<path d="M29.4762 52.6167V51.0615H30.0868V52.6167H29.4762Z" fill="black"/>
<path d="M6.15297 55.6167V54.0615H7.37335V55.6167H6.15297Z" fill="black"/>
<path d="M7.19964 55.6167V54.0615H8.72595V55.6167H7.19964Z" fill="black"/>
<path d="M8.55224 55.6167V54.0615H9.92559V55.6167H8.55224Z" fill="black"/>
<path d="M9.61904 55.6167V54.0615H10.2296V55.6167H9.61904Z" fill="black"/>
<path d="M10.0552 55.6167V54.0615H11.4285V55.6167H10.0552Z" fill="black"/>
<path d="M11.2172 55.6167V54.0615H12.7436V55.6167H11.2172Z" fill="black"/>
<path d="M12.5698 55.6167V54.0615H14.0962V55.6167H12.5698Z" fill="black"/>
<path d="M13.846 55.6167V54.0615H15.2193V55.6167H13.846Z" fill="black"/>
<path d="M14.9128 55.6167V54.0615H16.4391V55.6167H14.9128Z" fill="black"/>
<path d="M16.1124 55.6167V54.0615H17.6387V55.6167H16.1124Z" fill="black"/>
<path d="M17.3885 55.6167V54.0615H17.999V55.6167H17.3885Z" fill="black"/>
<path d="M17.8247 55.6167V54.0615H19.351V55.6167H17.8247Z" fill="black"/>
<path d="M19.3302 55.6167V54.0615H20.5506V55.6167H19.3302Z" fill="black"/>
<path d="M20.3769 55.6167V54.0615H21.9032V55.6167H20.3769Z" fill="black"/>
<path d="M21.653 55.6167V54.0615H22.7211V55.6167H21.653Z" fill="black"/>
<path d="M22.5481 55.6167V54.0615H23.1586V55.6167H22.5481Z" fill="black"/>
<path d="M23.1372 55.6167V54.0615H24.3576V55.6167H23.1372Z" fill="black"/>
<path d="M24.1838 55.6167V54.0615H25.4049V55.6167H24.1838Z" fill="black"/>
<path d="M25.0789 55.6167V54.0615H25.6894V55.6167H25.0789Z" fill="black"/>
<path d="M6 58.6167V57.0615H7.52631V58.6167H6Z" fill="black"/>
<path d="M7.27612 58.6167V57.0615H8.80243V58.6167H7.27612Z" fill="black"/>
<path d="M8.62872 58.6167V57.0615H10.0021V58.6167H8.62872Z" fill="black"/>
<path d="M9.82836 58.6167V57.0615H11.3547V58.6167H9.82836Z" fill="black"/>
<path d="M11.181 58.6167V57.0615H12.5543V58.6167H11.181Z" fill="black"/>
<path d="M12.3041 58.6167V57.0615H13.3722V58.6167H12.3041Z" fill="black"/>
<path d="M13.1992 58.6167V57.0615H14.7255V58.6167H13.1992Z" fill="black"/>
<path d="M14.3988 58.6167V57.0615H15.9251V58.6167H14.3988Z" fill="black"/>
<path d="M15.6749 58.6167V57.0615H17.0483V58.6167H15.6749Z" fill="black"/>
<path d="M16.7417 58.6167V57.0615H17.8098V58.6167H16.7417Z" fill="black"/>
<path d="M17.7897 58.6167V57.0615H19.0101V58.6167H17.7897Z" fill="black"/>
<path d="M18.7411 58.6167V57.0615H20.2674V58.6167H18.7411Z" fill="black"/>
<path d="M20.0172 58.6167V57.0615H21.0853V58.6167H20.0172Z" fill="black"/>
<path d="M20.7593 58.6167V57.0615H21.8274V58.6167H20.7593Z" fill="black"/>
<path d="M21.8073 58.6167V57.0615H23.0277V58.6167H21.8073Z" fill="black"/>
<path d="M23.007 58.6167V57.0615H24.3803V58.6167H23.007Z" fill="black"/>
<path d="M24.2066 58.6167V57.0615H24.9694V58.6167H24.2066Z" fill="black"/>
<path d="M24.7192 58.6167V57.0615H25.4821V58.6167H24.7192Z" fill="black"/>
</g>
<rect x="0.5" y="0.561523" width="38" height="65.5552" stroke="#E5592D"/>
<path d="M11.3333 69.6172H2V75.9653H11.3333V69.6172Z" fill="#7FA4CA"/>
</svg>
