<svg width="39" height="73" viewBox="0 0 39 73" fill="none" xmlns="http://www.w3.org/2000/svg">
<rect width="39" height="73" fill=""/>
<g clip-path="url(#clip0_39_124700)">
<rect width="35" height="56.5552" transform="translate(2 2.41699)" fill="#364B60"/>
<g opacity="0.5">
<path d="M6 7.97217V6.41699H6.76381V7.97217H6Z" fill="white"/>
<path d="M6.58987 7.97217V6.41699H8.27133V7.97217H6.58987Z" fill="white"/>
<path d="M8.17398 7.97217V6.41699H9.5491V7.97217H8.17398Z" fill="white"/>
<path d="M9.37517 7.97217V6.41699H10.9035V7.97217H9.37517Z" fill="white"/>
<path d="M10.6529 7.97217V6.41699H11.2643V7.97217H10.6529Z" fill="white"/>
<path d="M11.0896 7.97217V6.41699H12.6179V7.97217H11.0896Z" fill="white"/>
<path d="M12.3674 7.97217V6.41699H13.7426V7.97217H12.3674Z" fill="white"/>
<path d="M13.531 7.97217V6.41699H14.1423V7.97217H13.531Z" fill="white"/>
<path d="M13.9677 7.97217V6.41699H15.1903V7.97217H13.9677Z" fill="white"/>
<path d="M15.0157 7.97217V6.41699H15.7795V7.97217H15.0157Z" fill="white"/>
<path d="M15.6056 7.97217V6.41699H16.9807V7.97217H15.6056Z" fill="white"/>
<path d="M16.8834 7.97217V6.41699H18.4117V7.97217H16.8834Z" fill="white"/>
<path d="M18.0846 7.97217V6.41699H18.6959V7.97217H18.0846Z" fill="white"/>
<path d="M18.5213 7.97217V6.41699H19.8964V7.97217H18.5213Z" fill="white"/>
<path d="M19.6848 7.97217V6.41699H21.2131V7.97217H19.6848Z" fill="white"/>
<path d="M20.9626 7.97217V6.41699H22.0321V7.97217H20.9626Z" fill="white"/>
<path d="M21.8588 7.97217V6.41699H23.3871V7.97217H21.8588Z" fill="white"/>
<path d="M23.1366 7.97217V6.41699H23.7479V7.97217H23.1366Z" fill="white"/>
<path d="M23.5733 7.97217V6.41699H25.5604V7.97217H23.5733Z" fill="white"/>
<path d="M25.4624 7.97217V6.41699H26.9907V7.97217H25.4624Z" fill="white"/>
<path d="M26.8933 7.97217V6.41699H28.2685V7.97217H26.8933Z" fill="white"/>
<path d="M28.1711 7.97217V6.41699H29.5462V7.97217H28.1711Z" fill="white"/>
<path d="M29.2957 7.97217V6.41699H29.907V7.97217H29.2957Z" fill="white"/>
<path d="M6 10.9722V9.41699H7.06947V10.9722H6Z" fill="white"/>
<path d="M6.74304 10.9722V9.41699H7.81251V10.9722H6.74304Z" fill="white"/>
<path d="M7.63924 10.9722V9.41699H9.62636V10.9722H7.63924Z" fill="white"/>
<path d="M9.52833 10.9722V9.41699H11.0566V10.9722H9.52833Z" fill="white"/>
<path d="M10.7295 10.9722V9.41699H12.1047V10.9722H10.7295Z" fill="white"/>
<path d="M11.8931 10.9722V9.41699H12.5044V10.9722H11.8931Z" fill="white"/>
<path d="M12.6905 10.6516V10.5424H13.9562V10.6516H12.6905Z" fill="white"/>
<path d="M13.6506 10.9722V9.41699H14.2619V10.9722H13.6506Z" fill="white"/>
<path d="M14.0873 10.9722V9.41699H15.6156V10.9722H14.0873Z" fill="white"/>
<path d="M15.5182 10.9722V9.41699H16.8933V10.9722H15.5182Z" fill="white"/>
<path d="M16.7194 10.9722V9.41699H18.2477V10.9722H16.7194Z" fill="white"/>
<path d="M17.9972 10.9722V9.41699H18.6085V10.9722H17.9972Z" fill="white"/>
<path d="M18.4339 10.9722V9.41699H19.6565V10.9722H18.4339Z" fill="white"/>
<path d="M19.4819 10.9722V9.41699H20.0932V10.9722H19.4819Z" fill="white"/>
<path d="M19.9186 10.9722V9.41699H21.2938V10.9722H19.9186Z" fill="white"/>
<path d="M21.0822 10.9722V9.41699H22.6105V10.9722H21.0822Z" fill="white"/>
<path d="M22.4366 10.9722V9.41699H23.8117V10.9722H22.4366Z" fill="white"/>
<path d="M23.5612 10.9722V9.41699H24.1725V10.9722H23.5612Z" fill="white"/>
<path d="M23.9979 10.9722V9.41699H25.0673V10.9722H23.9979Z" fill="white"/>
<path d="M24.8941 10.9722V9.41699H25.9635V10.9722H24.8941Z" fill="white"/>
<path d="M25.6371 10.9722V9.41699H26.2484V10.9722H25.6371Z" fill="white"/>
<path d="M26.0738 10.9722V9.41699H27.1433V10.9722H26.0738Z" fill="white"/>
<path d="M26.97 10.9722V9.41699H28.192V10.9722H26.97Z" fill="white"/>
<path d="M28.018 10.9722V9.41699H28.6294V10.9722H28.018Z" fill="white"/>
<path d="M28.4548 10.9722V9.41699H29.5242V10.9722H28.4548Z" fill="white"/>
<path d="M29.1978 10.9722V9.41699H30.7261V10.9722H29.1978Z" fill="white"/>
<path d="M30.5522 10.9722V9.41699H32.0804V10.9722H30.5522Z" fill="white"/>
<path d="M31.7533 10.9722V9.41699H32.3647V10.9722H31.7533Z" fill="white"/>
<path d="M6.15317 13.9722V12.417H7.52829V13.9722H6.15317Z" fill="white"/>
<path d="M7.27777 13.9722V12.417H8.6529V13.9722H7.27777Z" fill="white"/>
<path d="M8.34595 13.9722V12.417H9.87424V13.9722H8.34595Z" fill="white"/>
<path d="M9.54714 13.9722V12.417H10.9223V13.9722H9.54714Z" fill="white"/>
<path d="M10.7107 13.9722V12.417H12.0858V13.9722H10.7107Z" fill="white"/>
<path d="M11.8743 13.9722V12.417H12.6381V13.9722H11.8743Z" fill="white"/>
<path d="M12.3876 13.9722V12.417H12.9989V13.9722H12.3876Z" fill="white"/>
<path d="M12.8243 13.9722V12.417H14.0469V13.9722H12.8243Z" fill="white"/>
<path d="M13.8723 13.9722V12.417H14.4836V13.9722H13.8723Z" fill="white"/>
<path d="M14.309 13.9722V12.417H15.6841V13.9722H14.309Z" fill="white"/>
<path d="M15.4726 13.9722V12.417H17.0009V13.9722H15.4726Z" fill="white"/>
<path d="M16.8269 13.9722V12.417H18.2021V13.9722H16.8269Z" fill="white"/>
<path d="M17.9516 13.9722V12.417H18.5629V13.9722H17.9516Z" fill="white"/>
<path d="M18.3883 13.9722V12.417H19.4577V13.9722H18.3883Z" fill="white"/>
<path d="M19.2845 13.9722V12.417H20.3539V13.9722H19.2845Z" fill="white"/>
<path d="M20.0275 13.9722V12.417H20.6388V13.9722H20.0275Z" fill="white"/>
<path d="M20.4642 13.9722V12.417H21.5337V13.9722H20.4642Z" fill="white"/>
<path d="M21.3604 13.9722V12.417H22.5824V13.9722H21.3604Z" fill="white"/>
<path d="M22.4084 13.9722V12.417H23.0198V13.9722H22.4084Z" fill="white"/>
<path d="M22.8452 13.9722V12.417H24.3734V13.9722H22.8452Z" fill="white"/>
<path d="M24.2761 13.9722V12.417H25.6512V13.9722H24.2761Z" fill="white"/>
<path d="M25.5539 13.9722V12.417H26.929V13.9722H25.5539Z" fill="white"/>
<path d="M26.8316 13.9722V12.417H28.2068V13.9722H26.8316Z" fill="white"/>
<path d="M28.0328 13.9722V12.417H29.2548V13.9722H28.0328Z" fill="white"/>
<path d="M29.0809 13.9722V12.417H30.6091V13.9722H29.0809Z" fill="white"/>
<path d="M30.4352 13.9722V12.417H31.8103V13.9722H30.4352Z" fill="white"/>
<path d="M31.5598 13.9722V12.417H32.1711V13.9722H31.5598Z" fill="white"/>
<path d="M6 16.9722V15.417H7.06947V16.9722H6Z" fill="white"/>
<path d="M6.74304 16.9722V15.417H8.27133V16.9722H6.74304Z" fill="white"/>
<path d="M8.09739 16.9722V15.417H9.62569V16.9722H8.09739Z" fill="white"/>
<path d="M9.37517 16.9722V15.417H10.4446V16.9722H9.37517Z" fill="white"/>
<path d="M10.1182 16.9722V15.417H10.7295V16.9722H10.1182Z" fill="white"/>
<path d="M10.5549 16.9722V15.417H12.6945V16.9722H10.5549Z" fill="white"/>
<path d="M12.3674 16.9722V15.417H13.8957V16.9722H12.3674Z" fill="white"/>
<path d="M13.7984 16.9722V15.417H15.1735V16.9722H13.7984Z" fill="white"/>
<path d="M14.9996 16.9722V15.417H16.069V16.9722H14.9996Z" fill="white"/>
<path d="M15.7426 16.9722V15.417H17.1177V16.9722H15.7426Z" fill="white"/>
<path d="M16.9062 16.9722V15.417H17.5175V16.9722H16.9062Z" fill="white"/>
<path d="M17.3429 16.9722V15.417H18.4123V16.9722H17.3429Z" fill="white"/>
<path d="M18.2391 16.9722V15.417H19.461V16.9722H18.2391Z" fill="white"/>
<path d="M19.2871 16.9722V15.417H19.8984V16.9722H19.2871Z" fill="white"/>
<path d="M19.7238 16.9722V15.417H20.7933V16.9722H19.7238Z" fill="white"/>
<path d="M20.62 16.9722V15.417H21.6895V16.9722H20.62Z" fill="white"/>
<path d="M21.5162 16.9722V15.417H22.8913V16.9722H21.5162Z" fill="white"/>
<path d="M22.6798 16.9722V15.417H23.7493V16.9722H22.6798Z" fill="white"/>
<path d="M23.4228 16.9722V15.417H24.9511V16.9722H23.4228Z" fill="white"/>
<path d="M24.7772 16.9722V15.417H26.1523V16.9722H24.7772Z" fill="white"/>
<path d="M25.9784 16.9722V15.417H26.7422V16.9722H25.9784Z" fill="white"/>
<path d="M26.4917 16.9722V15.417H27.103V16.9722H26.4917Z" fill="white"/>
<path d="M26.9284 16.9722V15.417H28.151V16.9722H26.9284Z" fill="white"/>
<path d="M27.9764 16.9722V15.417H28.5877V16.9722H27.9764Z" fill="white"/>
<path d="M6 19.9722V18.417H7.06947V19.9722H6Z" fill="white"/>
<path d="M6.74304 19.9722V18.417H8.27133V19.9722H6.74304Z" fill="white"/>
<path d="M8.09739 19.9722V18.417H9.16686V19.9722H8.09739Z" fill="white"/>
<path d="M9.14676 19.9722V18.417H10.5219V19.9722H9.14676Z" fill="white"/>
<path d="M10.348 19.9722V18.417H11.8762V19.9722H10.348Z" fill="white"/>
<path d="M11.6647 19.9722V18.417H12.276V19.9722H11.6647Z" fill="white"/>
<path d="M12.1014 19.9722V18.417H13.1709V19.9722H12.1014Z" fill="white"/>
<path d="M12.8444 19.9722V18.417H14.3727V19.9722H12.8444Z" fill="white"/>
<path d="M14.1988 19.9722V18.417H15.7271V19.9722H14.1988Z" fill="white"/>
<path d="M15.4766 19.9722V18.417H16.546V19.9722H15.4766Z" fill="white"/>
<path d="M16.2196 19.9722V18.417H16.8309V19.9722H16.2196Z" fill="white"/>
<path d="M16.8095 19.9722V18.417H18.1846V19.9722H16.8095Z" fill="white"/>
<path d="M18.0873 19.9722V18.417H19.3092V19.9722H18.0873Z" fill="white"/>
<path d="M19.1353 19.9722V18.417H20.6636V19.9722H19.1353Z" fill="white"/>
<path d="M20.4896 19.9722V18.417H21.8648V19.9722H20.4896Z" fill="white"/>
<path d="M21.5578 19.9722V18.417H22.1691V19.9722H21.5578Z" fill="white"/>
<path d="M21.9945 19.9722V18.417H23.3697V19.9722H21.9945Z" fill="white"/>
<path d="M23.2723 19.9722V18.417H24.4943V19.9722H23.2723Z" fill="white"/>
<path d="M24.3203 19.9722V18.417H25.8486V19.9722H24.3203Z" fill="white"/>
<path d="M25.8278 19.9722V18.417H27.203V19.9722H25.8278Z" fill="white"/>
<path d="M27.029 19.9722V18.417H28.0985V19.9722H27.029Z" fill="white"/>
<path d="M27.7721 19.9722V18.417H29.1472V19.9722H27.7721Z" fill="white"/>
<path d="M28.9934 19.9722V18.417H30.3685V19.9722H28.9934Z" fill="white"/>
<path d="M30.118 19.9722V18.417H30.7293V19.9722H30.118Z" fill="white"/>
<path d="M6 22.9722V21.417H7.52829V22.9722H6Z" fill="white"/>
<path d="M7.35436 22.9722V21.417H8.88265V22.9722H7.35436Z" fill="white"/>
<path d="M8.63213 22.9722V21.417H10.0073V22.9722H8.63213Z" fill="white"/>
<path d="M9.7957 22.9722V21.417H10.407V22.9722H9.7957Z" fill="white"/>
<path d="M10.2324 22.9722V21.417H11.3019V22.9722H10.2324Z" fill="white"/>
<path d="M10.9754 22.9722V21.417H12.3506V22.9722H10.9754Z" fill="white"/>
<path d="M12.0436 22.9722V21.417H13.5719V22.9722H12.0436Z" fill="white"/>
<path d="M13.2448 22.9722V21.417H15.2319V22.9722H13.2448Z" fill="white"/>
<path d="M15.1339 22.9722V21.417H16.6622V22.9722H15.1339Z" fill="white"/>
<path d="M16.4883 22.9722V21.417H17.8634V22.9722H16.4883Z" fill="white"/>
<path d="M17.6895 22.9722V21.417H19.2177V22.9722H17.6895Z" fill="white"/>
<path d="M19.1204 22.9722V21.417H20.3424V22.9722H19.1204Z" fill="white"/>
<path d="M20.1684 22.9722V21.417H21.6967V22.9722H20.1684Z" fill="white"/>
<path d="M21.5228 22.9722V21.417H22.8979V22.9722H21.5228Z" fill="white"/>
<path d="M22.6863 22.9722V21.417H23.2977V22.9722H22.6863Z" fill="white"/>
<path d="M6 25.9722V24.417H7.52829V25.9722H6Z" fill="white"/>
<path d="M7.20119 25.9722V24.417H8.57632V25.9722H7.20119Z" fill="white"/>
<path d="M8.47896 25.9722V24.417H9.70093V25.9722H8.47896Z" fill="white"/>
<path d="M9.68015 25.9722V24.417H11.0553V25.9722H9.68015Z" fill="white"/>
<path d="M11.0345 25.9722V24.417H12.2565V25.9722H11.0345Z" fill="white"/>
<path d="M12.0825 25.9722V24.417H14.0697V25.9722H12.0825Z" fill="white"/>
<path d="M13.9716 25.9722V24.417H15.0411V25.9722H13.9716Z" fill="white"/>
<path d="M14.8678 25.9722V24.417H16.243V25.9722H14.8678Z" fill="white"/>
<path d="M15.9924 25.9722V24.417H16.6038V25.9722H15.9924Z" fill="white"/>
<path d="M16.5823 25.9722V24.417H17.9574V25.9722H16.5823Z" fill="white"/>
<path d="M17.8601 25.9722V24.417H19.082V25.9722H17.8601Z" fill="white"/>
<path d="M18.9081 25.9722V24.417H19.9776V25.9722H18.9081Z" fill="white"/>
<path d="M19.6511 25.9722V24.417H21.1794V25.9722H19.6511Z" fill="white"/>
<path d="M21.0055 25.9722V24.417H22.3806V25.9722H21.0055Z" fill="white"/>
<path d="M22.2067 25.9722V24.417H23.2762V25.9722H22.2067Z" fill="white"/>
<path d="M22.9497 25.9722V24.417H24.0192V25.9722H22.9497Z" fill="white"/>
<path d="M23.8459 25.9722V24.417H25.3742V25.9722H23.8459Z" fill="white"/>
<path d="M25.1237 25.9722V24.417H26.1932V25.9722H25.1237Z" fill="white"/>
<path d="M26.0199 25.9722V24.417H26.7837V25.9722H26.0199Z" fill="white"/>
<path d="M26.5332 25.9722V24.417H27.1445V25.9722H26.5332Z" fill="white"/>
<path d="M6 28.9722V27.417H7.68146V28.9722H6Z" fill="white"/>
<path d="M7.54514 28.9722V27.417H8.92027V28.9722H7.54514Z" fill="white"/>
<path d="M8.8995 28.9722V27.417H10.2746V28.9722H8.8995Z" fill="white"/>
<path d="M9.94752 28.9722V27.417H11.4758V28.9722H9.94752Z" fill="white"/>
<path d="M11.1487 28.9722V27.417H12.2182V28.9722H11.1487Z" fill="white"/>
<path d="M12.0449 28.9722V27.417H13.1144V28.9722H12.0449Z" fill="white"/>
<path d="M12.9411 28.9722V27.417H14.4694V28.9722H12.9411Z" fill="white"/>
<path d="M14.1423 28.9722V27.417H15.5174V28.9722H14.1423Z" fill="white"/>
<path d="M15.3435 28.9722V27.417H16.8718V28.9722H15.3435Z" fill="white"/>
<path d="M16.7744 28.9722V27.417H18.1496V28.9722H16.7744Z" fill="white"/>
<path d="M17.8225 28.9722V27.417H18.8919V28.9722H17.8225Z" fill="white"/>
<path d="M18.7187 28.9722V27.417H20.247V28.9722H18.7187Z" fill="white"/>
<path d="M19.9199 28.9722V27.417H20.6837V28.9722H19.9199Z" fill="white"/>
<path d="M20.4332 28.9722V27.417H21.0445V28.9722H20.4332Z" fill="white"/>
<path d="M20.8699 28.9722V27.417H22.5513V28.9722H20.8699Z" fill="white"/>
<path d="M22.415 28.9722V27.417H23.7901V28.9722H22.415Z" fill="white"/>
<path d="M23.6162 28.9722V27.417H24.6857V28.9722H23.6162Z" fill="white"/>
<path d="M24.5124 28.9722V27.417H25.5819V28.9722H24.5124Z" fill="white"/>
<path d="M25.4086 28.9722V27.417H27.3957V28.9722H25.4086Z" fill="white"/>
<path d="M27.2977 28.9722V27.417H28.3672V28.9722H27.2977Z" fill="white"/>
<path d="M28.1939 28.9722V27.417H29.2634V28.9722H28.1939Z" fill="white"/>
<path d="M28.9369 28.9722V27.417H30.4652V28.9722H28.9369Z" fill="white"/>
<path d="M30.1381 28.9722V27.417H31.6664V28.9722H30.1381Z" fill="white"/>
<path d="M31.4159 28.9722V27.417H32.1797V28.9722H31.4159Z" fill="white"/>
<path d="M31.9292 28.9722V27.417H32.5405V28.9722H31.9292Z" fill="white"/>
<path d="M6 31.9722V30.417H7.68146V31.9722H6Z" fill="white"/>
<path d="M7.5841 31.9722V30.417H8.95923V31.9722H7.5841Z" fill="white"/>
<path d="M8.78529 31.9722V30.417H10.3136V31.9722H8.78529Z" fill="white"/>
<path d="M10.0631 31.9722V30.417H10.6744V31.9722H10.0631Z" fill="white"/>
<path d="M10.4998 31.9722V30.417H11.7224V31.9722H10.4998Z" fill="white"/>
<path d="M11.5478 31.9722V30.417H12.1591V31.9722H11.5478Z" fill="white"/>
<path d="M11.9845 31.9722V30.417H13.054V31.9722H11.9845Z" fill="white"/>
<path d="M12.7275 31.9722V30.417H14.2558V31.9722H12.7275Z" fill="white"/>
<path d="M14.0819 31.9722V30.417H15.1514V31.9722H14.0819Z" fill="white"/>
<path d="M15.1313 31.9722V30.417H16.5064V31.9722H15.1313Z" fill="white"/>
<path d="M16.3325 31.9722V30.417H17.8608V31.9722H16.3325Z" fill="white"/>
<path d="M17.6492 31.9722V30.417H18.2605V31.9722H17.6492Z" fill="white"/>
<path d="M18.0859 31.9722V30.417H19.1554V31.9722H18.0859Z" fill="white"/>
<path d="M18.8289 31.9722V30.417H20.3572V31.9722H18.8289Z" fill="white"/>
<path d="M20.1833 31.9722V30.417H21.7116V31.9722H20.1833Z" fill="white"/>
<path d="M21.4611 31.9722V30.417H22.5305V31.9722H21.4611Z" fill="white"/>
<path d="M22.2041 31.9722V30.417H22.8154V31.9722H22.2041Z" fill="white"/>
<path d="M22.794 31.9722V30.417H24.1691V31.9722H22.794Z" fill="white"/>
<path d="M24.0718 31.9722V30.417H25.2937V31.9722H24.0718Z" fill="white"/>
<path d="M25.1198 31.9722V30.417H26.6481V31.9722H25.1198Z" fill="white"/>
<path d="M26.4741 31.9722V30.417H27.0855V31.9722H26.4741Z" fill="white"/>
<path d="M26.9109 31.9722V30.417H29.0505V31.9722H26.9109Z" fill="white"/>
<path d="M28.7999 31.9722V30.417H29.8694V31.9722H28.7999Z" fill="white"/>
<path d="M29.6961 31.9722V30.417H30.7656V31.9722H29.6961Z" fill="white"/>
<path d="M30.5924 31.9722V30.417H31.6618V31.9722H30.5924Z" fill="white"/>
<path d="M31.4886 31.9722V30.417H32.0999V31.9722H31.4886Z" fill="white"/>
<path d="M6 34.9722V33.417H7.52829V34.9722H6Z" fill="white"/>
<path d="M7.35436 34.9722V33.417H8.88265V34.9722H7.35436Z" fill="white"/>
<path d="M8.55555 34.9722V33.417H9.93067V34.9722H8.55555Z" fill="white"/>
<path d="M9.83332 34.9722V33.417H11.3616V34.9722H9.83332Z" fill="white"/>
<path d="M11.0345 34.9722V33.417H11.6458V34.9722H11.0345Z" fill="white"/>
<path d="M11.4712 34.9722V33.417H12.9995V34.9722H11.4712Z" fill="white"/>
<path d="M12.749 34.9722V33.417H13.3603V34.9722H12.749Z" fill="white"/>
<path d="M13.1857 34.9722V33.417H14.2552V34.9722H13.1857Z" fill="white"/>
<path d="M13.9287 34.9722V33.417H15.3039V34.9722H13.9287Z" fill="white"/>
<path d="M14.9969 34.9722V33.417H16.5252V34.9722H14.9969Z" fill="white"/>
<path d="M16.1981 34.9722V33.417H18.1852V34.9722H16.1981Z" fill="white"/>
<path d="M18.0872 34.9722V33.417H19.6155V34.9722H18.0872Z" fill="white"/>
<path d="M19.4416 34.9722V33.417H20.8167V34.9722H19.4416Z" fill="white"/>
<path d="M20.6427 34.9722V33.417H22.171V34.9722H20.6427Z" fill="white"/>
<path d="M22.0737 34.9722V33.417H23.2956V34.9722H22.0737Z" fill="white"/>
<path d="M23.1217 34.9722V33.417H24.65V34.9722H23.1217Z" fill="white"/>
<path d="M24.4761 34.9722V33.417H25.8512V34.9722H24.4761Z" fill="white"/>
<path d="M25.6396 34.9722V33.417H26.251V34.9722H25.6396Z" fill="white"/>
<path d="M6 37.9722V36.417H7.22263V37.9722H6Z" fill="white"/>
<path d="M6.8962 37.9722V36.417H8.4245V37.9722H6.8962Z" fill="white"/>
<path d="M8.25056 37.9722V36.417H9.32003V37.9722H8.25056Z" fill="white"/>
<path d="M8.9936 37.9722V36.417H10.5219V37.9722H8.9936Z" fill="white"/>
<path d="M10.348 37.9722V36.417H11.7231V37.9722H10.348Z" fill="white"/>
<path d="M11.4161 37.9722V36.417H12.9444V37.9722H11.4161Z" fill="white"/>
<path d="M12.6173 37.9722V36.417H13.2286V37.9722H12.6173Z" fill="white"/>
<path d="M13.054 37.9722V36.417H15.1936V37.9722H13.054Z" fill="white"/>
<path d="M14.9431 37.9722V36.417H16.0126V37.9722H14.9431Z" fill="white"/>
<path d="M15.8393 37.9722V36.417H16.9088V37.9722H15.8393Z" fill="white"/>
<path d="M16.5824 37.9722V36.417H18.1107V37.9722H16.5824Z" fill="white"/>
<path d="M17.9367 37.9722V36.417H18.548V37.9722H17.9367Z" fill="white"/>
<path d="M18.5266 37.9722V36.417H19.9017V37.9722H18.5266Z" fill="white"/>
<path d="M19.8044 37.9722V36.417H21.0263V37.9722H19.8044Z" fill="white"/>
<path d="M20.8524 37.9722V36.417H22.3807V37.9722H20.8524Z" fill="white"/>
<path d="M22.2068 37.9722V36.417H23.5819V37.9722H22.2068Z" fill="white"/>
<path d="M23.2749 37.9722V36.417H23.8862V37.9722H23.2749Z" fill="white"/>
<path d="M23.7116 37.9722V36.417H25.0868V37.9722H23.7116Z" fill="white"/>
<path d="M24.9894 37.9722V36.417H26.2114V37.9722H24.9894Z" fill="white"/>
<path d="M26.0374 37.9722V36.417H27.5657V37.9722H26.0374Z" fill="white"/>
<path d="M27.545 37.9722V36.417H28.9201V37.9722H27.545Z" fill="white"/>
<path d="M28.7461 37.9722V36.417H29.8156V37.9722H28.7461Z" fill="white"/>
<path d="M29.4892 37.9722V36.417H30.8643V37.9722H29.4892Z" fill="white"/>
<path d="M30.7105 37.9722V36.417H32.0857V37.9722H30.7105Z" fill="white"/>
<path d="M31.8351 37.9722V36.417H32.4465V37.9722H31.8351Z" fill="white"/>
<path d="M6.36069 40.6516V40.5424H7.62643V40.6516H6.36069Z" fill="white"/>
<path d="M7.32077 40.9722V39.417H7.93208V40.9722H7.32077Z" fill="white"/>
<path d="M7.75748 40.9722V39.417H9.28577V40.9722H7.75748Z" fill="white"/>
<path d="M9.03525 40.9722V39.417H9.64657V40.9722H9.03525Z" fill="white"/>
<path d="M9.47196 40.9722V39.417H11.0002V40.9722H9.47196Z" fill="white"/>
<path d="M10.8263 40.9722V39.417H12.2014V40.9722H10.8263Z" fill="white"/>
<path d="M11.8945 40.9722V39.417H13.4228V40.9722H11.8945Z" fill="white"/>
<path d="M13.0957 40.9722V39.417H14.624V40.9722H13.0957Z" fill="white"/>
<path d="M14.3735 40.9722V39.417H15.4429V40.9722H14.3735Z" fill="white"/>
<path d="M15.1165 40.9722V39.417H15.7278V40.9722H15.1165Z" fill="white"/>
<path d="M15.5532 40.9722V39.417H16.6227V40.9722H15.5532Z" fill="white"/>
<path d="M16.4494 40.9722V39.417H17.9777V40.9722H16.4494Z" fill="white"/>
<path d="M17.6506 40.9722V39.417H19.1789V40.9722H17.6506Z" fill="white"/>
<path d="M18.9284 40.9722V39.417H20.4567V40.9722H18.9284Z" fill="white"/>
<path d="M20.2061 40.9722V39.417H21.7344V40.9722H20.2061Z" fill="white"/>
<path d="M21.4073 40.9722V39.417H22.7825V40.9722H21.4073Z" fill="white"/>
<path d="M22.4755 40.9722V39.417H23.2393V40.9722H22.4755Z" fill="white"/>
<path d="M22.9888 40.9722V39.417H23.6001V40.9722H22.9888Z" fill="white"/>
<path d="M23.4255 40.9722V39.417H25.107V40.9722H23.4255Z" fill="white"/>
<path d="M25.0096 40.9722V39.417H26.3847V40.9722H25.0096Z" fill="white"/>
<path d="M26.2108 40.9722V39.417H27.7391V40.9722H26.2108Z" fill="white"/>
<path d="M27.4886 40.9722V39.417H28.0999V40.9722H27.4886Z" fill="white"/>
<path d="M27.9253 40.9722V39.417H29.1479V40.9722H27.9253Z" fill="white"/>
<path d="M28.9733 40.9722V39.417H29.5846V40.9722H28.9733Z" fill="white"/>
<path d="M6 43.9722V42.417H7.06947V43.9722H6Z" fill="white"/>
<path d="M7.04937 43.9722V42.417H8.27133V43.9722H7.04937Z" fill="white"/>
<path d="M8.25056 43.9722V42.417H9.47252V43.9722H8.25056Z" fill="white"/>
<path d="M9.29859 43.9722V42.417H10.8269V43.9722H9.29859Z" fill="white"/>
<path d="M10.6153 43.9722V42.417H11.2266V43.9722H10.6153Z" fill="white"/>
<path d="M11.052 43.9722V42.417H12.2747V43.9722H11.052Z" fill="white"/>
<path d="M12.1014 43.9722V42.417H13.3234V43.9722H12.1014Z" fill="white"/>
<path d="M13.1494 43.9722V42.417H14.5246V43.9722H13.1494Z" fill="white"/>
<path d="M14.2176 43.9722V42.417H16.3572V43.9722H14.2176Z" fill="white"/>
<path d="M16.0301 43.9722V42.417H17.5584V43.9722H16.0301Z" fill="white"/>
<path d="M17.3079 43.9722V42.417H18.683V43.9722H17.3079Z" fill="white"/>
<path d="M18.3761 43.9722V42.417H19.9044V43.9722H18.3761Z" fill="white"/>
<path d="M19.6538 43.9722V42.417H20.2652V43.9722H19.6538Z" fill="white"/>
<path d="M20.0905 43.9722V42.417H21.16V43.9722H20.0905Z" fill="white"/>
<path d="M20.9867 43.9722V42.417H22.2087V43.9722H20.9867Z" fill="white"/>
<path d="M22.0348 43.9722V42.417H22.6461V43.9722H22.0348Z" fill="white"/>
<path d="M22.4715 43.9722V42.417H24.6111V43.9722H22.4715Z" fill="white"/>
<path d="M24.284 43.9722V42.417H25.8123V43.9722H24.284Z" fill="white"/>
<path d="M25.5618 43.9722V42.417H26.6312V43.9722H25.5618Z" fill="white"/>
<path d="M26.3048 43.9722V42.417H27.6799V43.9722H26.3048Z" fill="white"/>
<path d="M27.4294 43.9722V42.417H28.9577V43.9722H27.4294Z" fill="white"/>
<path d="M28.7838 43.9722V42.417H29.8532V43.9722H28.7838Z" fill="white"/>
<path d="M29.8331 43.9722V42.417H31.2083V43.9722H29.8331Z" fill="white"/>
<path d="M31.0343 43.9722V42.417H32.5626V43.9722H31.0343Z" fill="white"/>
<path d="M32.3887 43.9722V42.417H33V43.9722H32.3887Z" fill="white"/>
<path d="M6 46.9722V45.417H7.06947V46.9722H6Z" fill="white"/>
<path d="M6.8962 46.9722V45.417H7.96567V46.9722H6.8962Z" fill="white"/>
<path d="M7.63924 46.9722V45.417H8.25056V46.9722H7.63924Z" fill="white"/>
<path d="M8.07595 46.9722V45.417H9.60424V46.9722H8.07595Z" fill="white"/>
<path d="M9.43031 46.9722V45.417H10.9586V46.9722H9.43031Z" fill="white"/>
<path d="M10.8612 46.9722V45.417H12.2364V46.9722H10.8612Z" fill="white"/>
<path d="M12.139 46.9722V45.417H13.5141V46.9722H12.139Z" fill="white"/>
<path d="M13.2636 46.9722V45.417H14.7919V46.9722H13.2636Z" fill="white"/>
<path d="M14.618 46.9722V45.417H15.9931V46.9722H14.618Z" fill="white"/>
<path d="M15.8192 46.9722V45.417H16.4305V46.9722H15.8192Z" fill="white"/>
<path d="M16.2559 46.9722V45.417H17.7842V46.9722H16.2559Z" fill="white"/>
<path d="M17.6868 46.9722V45.417H19.0619V46.9722H17.6868Z" fill="white"/>
<path d="M18.888 46.9722V45.417H20.4163V46.9722H18.888Z" fill="white"/>
<path d="M20.1658 46.9722V45.417H20.7771V46.9722H20.1658Z" fill="white"/>
<path d="M20.6025 46.9722V45.417H22.1308V46.9722H20.6025Z" fill="white"/>
<path d="M21.9568 46.9722V45.417H23.4851V46.9722H21.9568Z" fill="white"/>
<path d="M23.158 46.9722V45.417H24.2275V46.9722H23.158Z" fill="white"/>
<path d="M24.2074 46.9722V45.417H25.5825V46.9722H24.2074Z" fill="white"/>
<path d="M25.332 46.9722V45.417H26.4015V46.9722H25.332Z" fill="white"/>
<path d="M26.3814 46.9722V45.417H27.7565V46.9722H26.3814Z" fill="white"/>
<path d="M27.5826 46.9722V45.417H29.1109V46.9722H27.5826Z" fill="white"/>
<path d="M28.9369 46.9722V45.417H29.5482V46.9722H28.9369Z" fill="white"/>
<path d="M29.3736 46.9722V45.417H30.4431V46.9722H29.3736Z" fill="white"/>
<path d="M30.2698 46.9722V45.417H31.3393V46.9722H30.2698Z" fill="white"/>
<path d="M31.0129 46.9722V45.417H31.6242V46.9722H31.0129Z" fill="white"/>
<path d="M6 49.9722V48.417H7.06947V49.9722H6Z" fill="white"/>
<path d="M6.8962 49.9722V48.417H8.11817V49.9722H6.8962Z" fill="white"/>
<path d="M7.94423 49.9722V48.417H8.55555V49.9722H7.94423Z" fill="white"/>
<path d="M8.38094 49.9722V48.417H9.90923V49.9722H8.38094Z" fill="white"/>
<path d="M9.73529 49.9722V48.417H11.2636V49.9722H9.73529Z" fill="white"/>
<path d="M11.1662 49.9722V48.417H12.5414V49.9722H11.1662Z" fill="white"/>
<path d="M12.444 49.9722V48.417H13.8191V49.9722H12.444Z" fill="white"/>
<path d="M13.5686 49.9722V48.417H15.0969V49.9722H13.5686Z" fill="white"/>
<path d="M14.923 49.9722V48.417H16.2981V49.9722H14.923Z" fill="white"/>
<path d="M16.1242 49.9722V48.417H16.888V49.9722H16.1242Z" fill="white"/>
<path d="M16.6375 49.9722V48.417H17.2488V49.9722H16.6375Z" fill="white"/>
<path d="M17.0742 49.9722V48.417H18.7556V49.9722H17.0742Z" fill="white"/>
<path d="M18.6583 49.9722V48.417H20.0334V49.9722H18.6583Z" fill="white"/>
<path d="M19.8595 49.9722V48.417H21.3877V49.9722H19.8595Z" fill="white"/>
<path d="M21.1372 49.9722V48.417H21.7485V49.9722H21.1372Z" fill="white"/>
<path d="M21.5739 49.9722V48.417H23.7135V49.9722H21.5739Z" fill="white"/>
<path d="M23.463 49.9722V48.417H24.9913V49.9722H23.463Z" fill="white"/>
<path d="M24.6642 49.9722V48.417H25.2755V49.9722H24.6642Z" fill="white"/>
<path d="M25.1009 49.9722V48.417H27.2405V49.9722H25.1009Z" fill="white"/>
<path d="M26.99 49.9722V48.417H28.0595V49.9722H26.99Z" fill="white"/>
<path d="M27.8862 49.9722V48.417H28.9557V49.9722H27.8862Z" fill="white"/>
<path d="M28.7824 49.9722V48.417H29.8519V49.9722H28.7824Z" fill="white"/>
<path d="M29.6786 49.9722V48.417H30.2899V49.9722H29.6786Z" fill="white"/>
<path d="M6 52.9722V51.417H7.52829V52.9722H6Z" fill="white"/>
<path d="M7.35436 52.9722V51.417H8.88265V52.9722H7.35436Z" fill="white"/>
<path d="M8.55555 52.9722V51.417H9.62501V52.9722H8.55555Z" fill="white"/>
<path d="M9.60492 52.9722V51.417H10.98V52.9722H9.60492Z" fill="white"/>
<path d="M10.7295 52.9722V51.417H11.3408V52.9722H10.7295Z" fill="white"/>
<path d="M11.1662 52.9722V51.417H12.2357V52.9722H11.1662Z" fill="white"/>
<path d="M12.0624 52.9722V51.417H13.1319V52.9722H12.0624Z" fill="white"/>
<path d="M12.8055 52.9722V51.417H13.4168V52.9722H12.8055Z" fill="white"/>
<path d="M13.2422 52.9722V51.417H14.3117V52.9722H13.2422Z" fill="white"/>
<path d="M14.1384 52.9722V51.417H15.3604V52.9722H14.1384Z" fill="white"/>
<path d="M15.1864 52.9722V51.417H15.7977V52.9722H15.1864Z" fill="white"/>
<path d="M15.6231 52.9722V51.417H17.1514V52.9722H15.6231Z" fill="white"/>
<path d="M16.9775 52.9722V51.417H18.5058V52.9722H16.9775Z" fill="white"/>
<path d="M18.4084 52.9722V51.417H19.7835V52.9722H18.4084Z" fill="white"/>
<path d="M19.6862 52.9722V51.417H21.0613V52.9722H19.6862Z" fill="white"/>
<path d="M20.8108 52.9722V51.417H22.3391V52.9722H20.8108Z" fill="white"/>
<path d="M22.1652 52.9722V51.417H23.5403V52.9722H22.1652Z" fill="white"/>
<path d="M23.3663 52.9722V51.417H24.1302V52.9722H23.3663Z" fill="white"/>
<path d="M23.8796 52.9722V51.417H24.6434V52.9722H23.8796Z" fill="white"/>
</g>
<rect width="12" height="14" transform="translate(25 43.9727)" fill="#364B60"/>
<path d="M30.6787 47.834C31.5999 47.834 32.2721 48.0326 32.6953 48.4297C33.1185 48.8236 33.3301 49.3672 33.3301 50.0605C33.3301 50.373 33.2829 50.6725 33.1885 50.959C33.0941 51.2422 32.9395 51.4945 32.7246 51.7158C32.513 51.9372 32.2298 52.113 31.875 52.2432C31.5202 52.3701 31.0824 52.4336 30.5615 52.4336H29.9121V54.9727H28.3984V47.834H30.6787ZM30.6006 49.0742H29.9121V51.1934H30.4102C30.6934 51.1934 30.9391 51.1559 31.1475 51.0811C31.3558 51.0062 31.5169 50.889 31.6309 50.7295C31.7448 50.57 31.8018 50.3649 31.8018 50.1143C31.8018 49.7627 31.7041 49.5023 31.5088 49.333C31.3135 49.1605 31.0107 49.0742 30.6006 49.0742Z" fill="white"/>
<path d="M11.3333 63.9727H2V70.3207H11.3333V63.9727Z" fill="#BB90BB"/>
</g>
<defs>
<clipPath id="clip0_39_124700">
<rect width="39" height="71.9033" fill="white" transform="translate(0 0.416992)"/>
</clipPath>
</defs>
</svg>
