<svg width="39" height="82" viewBox="0 0 39 82" fill="none" xmlns="http://www.w3.org/2000/svg">
<rect width="39" height="82" fill=""/>
<g clip-path="url(#clip0_39_124700)">
<g filter="url(#filter0_d_39_124700)">
<rect width="35" height="65.5552" transform="translate(2 2.22363)" fill="white"/>
<g opacity="0.3">
<rect width="35" height="63.5552" transform="translate(2 2.22363)" fill="white"/>
<path d="M6 7.77881V6.22363H6.77265V7.77881H6Z" fill="black"/>
<path d="M6.5967 7.77881V6.22363H7.83349V7.77881H6.5967Z" fill="black"/>
<path d="M7.8118 7.77881V6.22363H9.20285V7.77881H7.8118Z" fill="black"/>
<path d="M9.0269 7.77881V6.22363H9.64529V7.77881H9.0269Z" fill="black"/>
<path d="M9.46866 7.77881V6.22363H10.5505V7.77881H9.46866Z" fill="black"/>
<path d="M10.2203 7.77881V6.22363H11.7663V7.77881H10.2203Z" fill="black"/>
<path d="M11.5903 7.77881V6.22363H13.1363V7.77881H11.5903Z" fill="black"/>
<path d="M12.8054 7.77881V6.22363H13.8873V7.77881H12.8054Z" fill="black"/>
<path d="M13.712 7.77881V6.22363H15.1031V7.77881H13.712Z" fill="black"/>
<path d="M14.7926 7.77881V6.22363H15.411V7.77881H14.7926Z" fill="black"/>
<path d="M15.2343 7.77881V6.22363H16.6254V7.77881H15.2343Z" fill="black"/>
<path d="M16.4114 7.77881V6.22363H17.4932V7.77881H16.4114Z" fill="black"/>
<path d="M17.163 7.77881V6.22363H18.709V7.77881H17.163Z" fill="black"/>
<path d="M18.4556 7.77881V6.22363H19.5374V7.77881H18.4556Z" fill="black"/>
<path d="M19.2072 7.77881V6.22363H20.7532V7.77881H19.2072Z" fill="black"/>
<path d="M20.4223 7.77881V6.22363H22.4324V7.77881H20.4223Z" fill="black"/>
<path d="M22.3333 7.77881V6.22363H23.8793V7.77881H22.3333Z" fill="black"/>
<path d="M23.7033 7.77881V6.22363H25.0944V7.77881H23.7033Z" fill="black"/>
<path d="M24.9184 7.77881V6.22363H26.0003V7.77881H24.9184Z" fill="black"/>
<path d="M25.6701 7.77881V6.22363H27.0611V7.77881H25.6701Z" fill="black"/>
<path d="M26.8471 7.77881V6.22363H27.6198V7.77881H26.8471Z" fill="black"/>
<path d="M27.3663 7.77881V6.22363H27.9847V7.77881H27.3663Z" fill="black"/>
<path d="M6 10.7788V9.22363H8.01012V10.7788H6Z" fill="black"/>
<path d="M7.91096 10.7788V9.22363H9.45695V10.7788H7.91096Z" fill="black"/>
<path d="M9.281 10.7788V9.22363H10.672V10.7788H9.281Z" fill="black"/>
<path d="M10.4186 10.7788V9.22363H11.9646V10.7788H10.4186Z" fill="black"/>
<path d="M11.7887 10.7788V9.22363H12.4071V10.7788H11.7887Z" fill="black"/>
<path d="M12.2304 10.7788V9.22363H13.7764V10.7788H12.2304Z" fill="black"/>
<path d="M13.6005 10.7788V9.22363H15.1464V10.7788H13.6005Z" fill="black"/>
<path d="M14.893 10.7788V9.22363H16.2841V10.7788H14.893Z" fill="black"/>
<path d="M16.0701 10.7788V9.22363H16.6885V10.7788H16.0701Z" fill="black"/>
<path d="M16.6668 10.7788V9.22363H18.0578V10.7788H16.6668Z" fill="black"/>
<path d="M17.7269 10.7788V9.22363H19.2729V10.7788H17.7269Z" fill="black"/>
<path d="M18.942 10.7788V9.22363H20.488V10.7788H18.942Z" fill="black"/>
<path d="M20.3121 10.7788V9.22363H21.7031V10.7788H20.3121Z" fill="black"/>
<path d="M21.5272 10.7788V9.22363H22.1456V10.7788H21.5272Z" fill="black"/>
<path d="M21.9689 10.7788V9.22363H23.36V10.7788H21.9689Z" fill="black"/>
<path d="M23.146 10.7788V9.22363H24.692V10.7788H23.146Z" fill="black"/>
<path d="M24.4385 10.7788V9.22363H25.5204V10.7788H24.4385Z" fill="black"/>
<path d="M25.3451 10.7788V9.22363H26.8911V10.7788H25.3451Z" fill="black"/>
<path d="M26.6377 10.7788V9.22363H27.2561V10.7788H26.6377Z" fill="black"/>
<path d="M6 13.7788V12.2236H7.54599V13.7788H6Z" fill="black"/>
<path d="M7.44751 13.7788V12.2236H8.83855V13.7788H7.44751Z" fill="black"/>
<path d="M8.6626 13.7788V12.2236H9.89871V13.7788H8.6626Z" fill="black"/>
<path d="M9.72276 13.7788V12.2236H11.2687V13.7788H9.72276Z" fill="black"/>
<path d="M11.0928 13.7788V12.2236H12.1746V13.7788H11.0928Z" fill="black"/>
<path d="M11.8444 13.7788V12.2236H12.4628V13.7788H11.8444Z" fill="black"/>
<path d="M12.2862 13.7788V12.2236H13.9871V13.7788H12.2862Z" fill="black"/>
<path d="M13.8302 13.7788V12.2236H15.0663V13.7788H13.8302Z" fill="black"/>
<path d="M14.8904 13.7788V12.2236H16.2814V13.7788H14.8904Z" fill="black"/>
<path d="M15.9709 13.7788V12.2236H17.0528V13.7788H15.9709Z" fill="black"/>
<path d="M16.7226 13.7788V12.2236H18.2685V13.7788H16.7226Z" fill="black"/>
<path d="M18.0926 13.7788V12.2236H18.711V13.7788H18.0926Z" fill="black"/>
<path d="M18.5344 13.7788V12.2236H20.2353V13.7788H18.5344Z" fill="black"/>
<path d="M20.1368 13.7788V12.2236H21.3729V13.7788H20.1368Z" fill="black"/>
<path d="M21.197 13.7788V12.2236H22.588V13.7788H21.197Z" fill="black"/>
<path d="M22.2775 13.7788V12.2236H23.8235V13.7788H22.2775Z" fill="black"/>
<path d="M23.4926 13.7788V12.2236H25.0386V13.7788H23.4926Z" fill="black"/>
<path d="M24.7852 13.7788V12.2236H25.5578V13.7788H24.7852Z" fill="black"/>
<path d="M25.3819 13.7788V12.2236H26.7729V13.7788H25.3819Z" fill="black"/>
<path d="M26.5589 13.7788V12.2236H27.1773V13.7788H26.5589Z" fill="black"/>
<path d="M27.0007 13.7788V12.2236H28.5467V13.7788H27.0007Z" fill="black"/>
<path d="M28.3707 13.7788V12.2236H29.7618V13.7788H28.3707Z" fill="black"/>
<path d="M29.5858 13.7788V12.2236H31.1318V13.7788H29.5858Z" fill="black"/>
<path d="M30.8784 13.7788V12.2236H31.4968V13.7788H30.8784Z" fill="black"/>
<path d="M6.15494 16.7788V15.2236H7.39105V16.7788H6.15494Z" fill="black"/>
<path d="M7.2151 16.7788V15.2236H8.45189V16.7788H7.2151Z" fill="black"/>
<path d="M8.12168 16.7788V15.2236H8.74007V16.7788H8.12168Z" fill="black"/>
<path d="M8.56344 16.7788V15.2236H9.64529V16.7788H8.56344Z" fill="black"/>
<path d="M9.31508 16.7788V15.2236H10.8611V16.7788H9.31508Z" fill="black"/>
<path d="M10.6851 16.7788V15.2236H12.2311V16.7788H10.6851Z" fill="black"/>
<path d="M11.9002 16.7788V15.2236H12.5186V16.7788H11.9002Z" fill="black"/>
<path d="M12.4969 16.7788V15.2236H13.888V16.7788H12.4969Z" fill="black"/>
<path d="M13.6345 16.7788V15.2236H15.1805V16.7788H13.6345Z" fill="black"/>
<path d="M14.8496 16.7788V15.2236H16.3956V16.7788H14.8496Z" fill="black"/>
<path d="M16.1422 16.7788V15.2236H17.5333V16.7788H16.1422Z" fill="black"/>
<path d="M17.2228 16.7788V15.2236H17.8412V16.7788H17.2228Z" fill="black"/>
<path d="M17.6645 16.7788V15.2236H19.2105V16.7788H17.6645Z" fill="black"/>
<path d="M18.9571 16.7788V15.2236H20.5031V16.7788H18.9571Z" fill="black"/>
<path d="M20.1722 16.7788V15.2236H21.7182V16.7788H20.1722Z" fill="black"/>
<path d="M21.4648 16.7788V15.2236H23.0107V16.7788H21.4648Z" fill="black"/>
<path d="M22.7573 16.7788V15.2236H23.8392V16.7788H22.7573Z" fill="black"/>
<path d="M23.6639 16.7788V15.2236H24.7458V16.7788H23.6639Z" fill="black"/>
<path d="M24.7254 16.7788V15.2236H26.1165V16.7788H24.7254Z" fill="black"/>
<path d="M25.9405 16.7788V15.2236H27.4865V16.7788H25.9405Z" fill="black"/>
<path d="M27.1556 16.7788V15.2236H27.9283V16.7788H27.1556Z" fill="black"/>
<path d="M27.6748 16.7788V15.2236H28.2932V16.7788H27.6748Z" fill="black"/>
<path d="M28.1166 16.7788V15.2236H29.6626V16.7788H28.1166Z" fill="black"/>
<path d="M29.6416 16.7788V15.2236H31.0326V16.7788H29.6416Z" fill="black"/>
<path d="M30.8567 16.7788V15.2236H31.4751V16.7788H30.8567Z" fill="black"/>
<path d="M6 19.7788V18.2236H7.08185V19.7788H6Z" fill="black"/>
<path d="M6.75164 19.7788V18.2236H8.29763V19.7788H6.75164Z" fill="black"/>
<path d="M8.12168 19.7788V18.2236H9.20353V19.7788H8.12168Z" fill="black"/>
<path d="M9.02826 19.7788V18.2236H10.4193V19.7788H9.02826Z" fill="black"/>
<path d="M10.2053 19.7788V18.2236H10.8237V19.7788H10.2053Z" fill="black"/>
<path d="M10.802 19.7788V18.2236H12.1931V19.7788H10.802Z" fill="black"/>
<path d="M12.0946 19.7788V18.2236H13.3307V19.7788H12.0946Z" fill="black"/>
<path d="M13.1547 19.7788V18.2236H14.2366V19.7788H13.1547Z" fill="black"/>
<path d="M14.2162 19.7788V18.2236H15.6073V19.7788H14.2162Z" fill="black"/>
<path d="M15.4313 19.7788V18.2236H16.5132V19.7788H15.4313Z" fill="black"/>
<path d="M16.183 19.7788V18.2236H16.9556V19.7788H16.183Z" fill="black"/>
<path d="M16.7022 19.7788V18.2236H17.3206V19.7788H16.7022Z" fill="black"/>
<path d="M17.144 19.7788V18.2236H18.2258V19.7788H17.144Z" fill="black"/>
<path d="M18.0506 19.7788V18.2236H19.5966V19.7788H18.0506Z" fill="black"/>
<path d="M19.2657 19.7788V18.2236H20.3475V19.7788H19.2657Z" fill="black"/>
<path d="M20.0173 19.7788V18.2236H20.6357V19.7788H20.0173Z" fill="black"/>
<path d="M20.4591 19.7788V18.2236H22.4692V19.7788H20.4591Z" fill="black"/>
<path d="M22.37 19.7788V18.2236H23.916V19.7788H22.37Z" fill="black"/>
<path d="M23.5851 19.7788V18.2236H24.2035V19.7788H23.5851Z" fill="black"/>
<path d="M6 22.7788V21.2236H7.54599V22.7788H6Z" fill="black"/>
<path d="M7.44751 22.7788V21.2236H8.83855V22.7788H7.44751Z" fill="black"/>
<path d="M8.50766 22.7788V21.2236H9.89871V22.7788H8.50766Z" fill="black"/>
<path d="M9.83965 22.7788V21.2236H11.0758V22.7788H9.83965Z" fill="black"/>
<path d="M10.8998 22.7788V21.2236H11.9817V22.7788H10.8998Z" fill="black"/>
<path d="M11.8064 22.7788V21.2236H13.3524V22.7788H11.8064Z" fill="black"/>
<path d="M13.1764 22.7788V21.2236H14.2583V22.7788H13.1764Z" fill="black"/>
<path d="M13.9281 22.7788V21.2236H15.474V22.7788H13.9281Z" fill="black"/>
<path d="M15.1432 22.7788V21.2236H16.225V22.7788H15.1432Z" fill="black"/>
<path d="M16.1272 22.7788V21.2236H17.5183V22.7788H16.1272Z" fill="black"/>
<path d="M17.2648 22.7788V21.2236H17.8832V22.7788H17.2648Z" fill="black"/>
<path d="M17.7066 22.7788V21.2236H19.0976V22.7788H17.7066Z" fill="black"/>
<path d="M18.8442 22.7788V21.2236H19.9261V22.7788H18.8442Z" fill="black"/>
<path d="M19.7508 22.7788V21.2236H21.2968V22.7788H19.7508Z" fill="black"/>
<path d="M20.9659 22.7788V21.2236H22.5119V22.7788H20.9659Z" fill="black"/>
<path d="M22.2585 22.7788V21.2236H23.6495V22.7788H22.2585Z" fill="black"/>
<path d="M23.339 22.7788V21.2236H24.1117V22.7788H23.339Z" fill="black"/>
<path d="M23.8583 22.7788V21.2236H24.4766V22.7788H23.8583Z" fill="black"/>
<path d="M24.3 22.7788V21.2236H25.3819V22.7788H24.3Z" fill="black"/>
<path d="M25.0517 22.7788V21.2236H26.5976V22.7788H25.0517Z" fill="black"/>
<path d="M26.4217 22.7788V21.2236H27.9677V22.7788H26.4217Z" fill="black"/>
<path d="M27.6368 22.7788V21.2236H28.2552V22.7788H27.6368Z" fill="black"/>
<path d="M6 25.7788V24.2236H7.70092V25.7788H6Z" fill="black"/>
<path d="M7.56303 25.7788V24.2236H8.95408V25.7788H7.56303Z" fill="black"/>
<path d="M8.77813 25.7788V24.2236H9.85998V25.7788H8.77813Z" fill="black"/>
<path d="M9.68471 25.7788V24.2236H10.7666V25.7788H9.68471Z" fill="black"/>
<path d="M10.4363 25.7788V24.2236H11.9823V25.7788H10.4363Z" fill="black"/>
<path d="M11.6514 25.7788V24.2236H13.1974V25.7788H11.6514Z" fill="black"/>
<path d="M12.944 25.7788V24.2236H13.5624V25.7788H12.944Z" fill="black"/>
<path d="M13.3858 25.7788V24.2236H14.7768V25.7788H13.3858Z" fill="black"/>
<path d="M14.6783 25.7788V24.2236H15.7602V25.7788H14.6783Z" fill="black"/>
<path d="M15.43 25.7788V24.2236H16.976V25.7788H15.43Z" fill="black"/>
<path d="M16.7226 25.7788V24.2236H17.8044V25.7788H16.7226Z" fill="black"/>
<path d="M17.4742 25.7788V24.2236H19.0202V25.7788H17.4742Z" fill="black"/>
<path d="M18.6893 25.7788V24.2236H20.0803V25.7788H18.6893Z" fill="black"/>
<path d="M19.8663 25.7788V24.2236H20.4847V25.7788H19.8663Z" fill="black"/>
<path d="M20.3081 25.7788V24.2236H21.8541V25.7788H20.3081Z" fill="black"/>
<path d="M21.7556 25.7788V24.2236H22.9917V25.7788H21.7556Z" fill="black"/>
<path d="M22.8158 25.7788V24.2236H24.3617V25.7788H22.8158Z" fill="black"/>
<path d="M24.0309 25.7788V24.2236H25.4219V25.7788H24.0309Z" fill="black"/>
<path d="M25.2079 25.7788V24.2236H25.8263V25.7788H25.2079Z" fill="black"/>
<path d="M25.8046 25.7788V24.2236H27.1957V25.7788H25.8046Z" fill="black"/>
<path d="M27.1746 25.7788V24.2236H28.4108V25.7788H27.1746Z" fill="black"/>
<path d="M28.2348 25.7788V24.2236H29.3167V25.7788H28.2348Z" fill="black"/>
<path d="M28.9864 25.7788V24.2236H29.6048V25.7788H28.9864Z" fill="black"/>
<path d="M6 28.7788V27.2236H7.54599V28.7788H6Z" fill="black"/>
<path d="M7.37004 28.7788V27.2236H8.91602V28.7788H7.37004Z" fill="black"/>
<path d="M8.58513 28.7788V27.2236H9.97618V28.7788H8.58513Z" fill="black"/>
<path d="M9.8777 28.7788V27.2236H11.4237V28.7788H9.8777Z" fill="black"/>
<path d="M11.0928 28.7788V27.2236H11.7112V28.7788H11.0928Z" fill="black"/>
<path d="M11.5346 28.7788V27.2236H13.0805V28.7788H11.5346Z" fill="black"/>
<path d="M12.8271 28.7788V27.2236H13.4455V28.7788H12.8271Z" fill="black"/>
<path d="M13.2689 28.7788V27.2236H14.8149V28.7788H13.2689Z" fill="black"/>
<path d="M14.5615 28.7788V27.2236H16.1074V28.7788H14.5615Z" fill="black"/>
<path d="M15.7766 28.7788V27.2236H17.3225V28.7788H15.7766Z" fill="black"/>
<path d="M17.0691 28.7788V27.2236H18.6151V28.7788H17.0691Z" fill="black"/>
<path d="M18.3617 28.7788V27.2236H19.4435V28.7788H18.3617Z" fill="black"/>
<path d="M19.2683 28.7788V27.2236H20.3501V28.7788H19.2683Z" fill="black"/>
<path d="M20.3298 28.7788V27.2236H21.7208V28.7788H20.3298Z" fill="black"/>
<path d="M21.5449 28.7788V27.2236H23.0909V28.7788H21.5449Z" fill="black"/>
<path d="M22.76 28.7788V27.2236H23.5326V28.7788H22.76Z" fill="black"/>
<path d="M23.2792 28.7788V27.2236H23.8976V28.7788H23.2792Z" fill="black"/>
<path d="M23.721 28.7788V27.2236H25.8854V28.7788H23.721Z" fill="black"/>
<path d="M25.6319 28.7788V27.2236H27.1779V28.7788H25.6319Z" fill="black"/>
<path d="M26.847 28.7788V27.2236H27.4654V28.7788H26.847Z" fill="black"/>
<path d="M27.2888 28.7788V27.2236H28.8348V28.7788H27.2888Z" fill="black"/>
<path d="M28.6588 28.7788V27.2236H30.2048V28.7788H28.6588Z" fill="black"/>
<path d="M29.8739 28.7788V27.2236H31.265V28.7788H29.8739Z" fill="black"/>
<path d="M31.1665 28.7788V27.2236H32.7125V28.7788H31.1665Z" fill="black"/>
<path d="M32.3816 28.7788V27.2236H33V28.7788H32.3816Z" fill="black"/>
<path d="M6 31.7788V30.2236H7.54599V31.7788H6Z" fill="black"/>
<path d="M7.29257 31.7788V30.2236H7.91096V31.7788H7.29257Z" fill="black"/>
<path d="M7.73433 31.7788V30.2236H9.28032V31.7788H7.73433Z" fill="black"/>
<path d="M9.25931 31.7788V30.2236H10.4954V31.7788H9.25931Z" fill="black"/>
<path d="M10.3195 31.7788V30.2236H11.8655V31.7788H10.3195Z" fill="black"/>
<path d="M11.612 31.7788V30.2236H12.6939V31.7788H11.612Z" fill="black"/>
<path d="M12.8835 31.4582V31.349H14.1639V31.4582H12.8835Z" fill="black"/>
<path d="M13.8547 31.7788V30.2236H14.9365V31.7788H13.8547Z" fill="black"/>
<path d="M14.7612 31.7788V30.2236H15.9974V31.7788H14.7612Z" fill="black"/>
<path d="M15.8214 31.7788V30.2236H16.4398V31.7788H15.8214Z" fill="black"/>
<path d="M16.2632 31.7788V30.2236H17.5V31.7788H16.2632Z" fill="black"/>
<path d="M17.1698 31.7788V30.2236H18.7157V31.7788H17.1698Z" fill="black"/>
<path d="M18.5398 31.7788V30.2236H19.6216V31.7788H18.5398Z" fill="black"/>
<path d="M19.4464 31.7788V30.2236H20.6832V31.7788H19.4464Z" fill="black"/>
<path d="M20.3529 31.7788V30.2236H21.4348V31.7788H20.3529Z" fill="black"/>
<path d="M21.2595 31.7788V30.2236H22.3414V31.7788H21.2595Z" fill="black"/>
<path d="M22.1661 31.7788V30.2236H23.248V31.7788H22.1661Z" fill="black"/>
<path d="M23.0727 31.7788V30.2236H23.6911V31.7788H23.0727Z" fill="black"/>
<path d="M23.5145 31.7788V30.2236H24.5963V31.7788H23.5145Z" fill="black"/>
<path d="M24.2661 31.7788V30.2236H25.8121V31.7788H24.2661Z" fill="black"/>
<path d="M25.6361 31.7788V30.2236H27.1821V31.7788H25.6361Z" fill="black"/>
<path d="M26.8512 31.7788V30.2236H27.4696V31.7788H26.8512Z" fill="black"/>
<path d="M6 34.7788V33.2236H7.39105V34.7788H6Z" fill="black"/>
<path d="M7.29257 34.7788V33.2236H8.52868V34.7788H7.29257Z" fill="black"/>
<path d="M8.35273 34.7788V33.2236H10.3628V34.7788H8.35273Z" fill="black"/>
<path d="M10.2637 34.7788V33.2236H12.2738V34.7788H10.2637Z" fill="black"/>
<path d="M12.1746 34.7788V33.2236H13.2565V34.7788H12.1746Z" fill="black"/>
<path d="M13.0812 34.7788V33.2236H14.1631V34.7788H13.0812Z" fill="black"/>
<path d="M13.8329 34.7788V33.2236H15.843V34.7788H13.8329Z" fill="black"/>
<path d="M15.7438 34.7788V33.2236H17.2898V34.7788H15.7438Z" fill="black"/>
<path d="M17.1139 34.7788V33.2236H18.5049V34.7788H17.1139Z" fill="black"/>
<path d="M18.329 34.7788V33.2236H19.4108V34.7788H18.329Z" fill="black"/>
<path d="M19.0806 34.7788V33.2236H20.4717V34.7788H19.0806Z" fill="black"/>
<path d="M20.2576 34.7788V33.2236H20.876V34.7788H20.2576Z" fill="black"/>
<path d="M20.6994 34.7788V33.2236H21.7813V34.7788H20.6994Z" fill="black"/>
<path d="M21.4511 34.7788V33.2236H22.997V34.7788H21.4511Z" fill="black"/>
<path d="M22.8211 34.7788V33.2236H24.3671V34.7788H22.8211Z" fill="black"/>
<path d="M24.0362 34.7788V33.2236H24.6546V34.7788H24.0362Z" fill="black"/>
<path d="M24.478 34.7788V33.2236H25.5598V34.7788H24.478Z" fill="black"/>
<path d="M25.2296 34.7788V33.2236H27.394V34.7788H25.2296Z" fill="black"/>
<path d="M27.2955 34.7788V33.2236H28.5316V34.7788H27.2955Z" fill="black"/>
<path d="M28.3557 34.7788V33.2236H28.974V34.7788H28.3557Z" fill="black"/>
<path d="M6 37.7788V36.2236H7.08185V37.7788H6Z" fill="black"/>
<path d="M6.90658 37.7788V36.2236H8.45257V37.7788H6.90658Z" fill="black"/>
<path d="M8.12168 37.7788V36.2236H9.66766V37.7788H8.12168Z" fill="black"/>
<path d="M9.41424 37.7788V36.2236H10.9602V37.7788H9.41424Z" fill="black"/>
<path d="M10.7068 37.7788V36.2236H12.2528V37.7788H10.7068Z" fill="black"/>
<path d="M11.9219 37.7788V36.2236H13.313V37.7788H11.9219Z" fill="black"/>
<path d="M13.0025 37.7788V36.2236H14.3935V37.7788H13.0025Z" fill="black"/>
<path d="M14.1795 37.7788V36.2236H14.7979V37.7788H14.1795Z" fill="black"/>
<path d="M14.6213 37.7788V36.2236H16.6314V37.7788H14.6213Z" fill="black"/>
<path d="M16.5322 37.7788V36.2236H18.0782V37.7788H16.5322Z" fill="black"/>
<path d="M17.8248 37.7788V36.2236H19.3708V37.7788H17.8248Z" fill="black"/>
<path d="M19.1174 37.7788V36.2236H20.6633V37.7788H19.1174Z" fill="black"/>
<path d="M20.3325 37.7788V36.2236H20.9508V37.7788H20.3325Z" fill="black"/>
<path d="M20.7742 37.7788V36.2236H22.3202V37.7788H20.7742Z" fill="black"/>
<path d="M22.0668 37.7788V36.2236H23.6128V37.7788H22.0668Z" fill="black"/>
<path d="M23.4368 37.7788V36.2236H24.8279V37.7788H23.4368Z" fill="black"/>
<path d="M24.5174 37.7788V36.2236H25.5992V37.7788H24.5174Z" fill="black"/>
<path d="M25.5789 37.7788V36.2236H26.9699V37.7788H25.5789Z" fill="black"/>
<path d="M26.794 37.7788V36.2236H28.34V37.7788H26.794Z" fill="black"/>
<path d="M28.164 37.7788V36.2236H28.7824V37.7788H28.164Z" fill="black"/>
<path d="M6 40.7788V39.2236H7.08185V40.7788H6Z" fill="black"/>
<path d="M6.75164 40.7788V39.2236H8.29763V40.7788H6.75164Z" fill="black"/>
<path d="M8.12168 40.7788V39.2236H9.66766V40.7788H8.12168Z" fill="black"/>
<path d="M9.33678 40.7788V39.2236H10.4186V40.7788H9.33678Z" fill="black"/>
<path d="M10.2434 40.7788V39.2236H11.6344V40.7788H10.2434Z" fill="black"/>
<path d="M11.3239 40.7788V39.2236H11.9423V40.7788H11.3239Z" fill="black"/>
<path d="M11.7657 40.7788V39.2236H13.3117V40.7788H11.7657Z" fill="black"/>
<path d="M13.1357 40.7788V39.2236H14.2176V40.7788H13.1357Z" fill="black"/>
<path d="M14.0423 40.7788V39.2236H15.4333V40.7788H14.0423Z" fill="black"/>
<path d="M15.2193 40.7788V39.2236H16.3012V40.7788H15.2193Z" fill="black"/>
<path d="M16.1259 40.7788V39.2236H17.362V40.7788H16.1259Z" fill="black"/>
<path d="M17.1861 40.7788V39.2236H18.5771V40.7788H17.1861Z" fill="black"/>
<path d="M18.2666 40.7788V39.2236H19.3485V40.7788H18.2666Z" fill="black"/>
<path d="M19.1732 40.7788V39.2236H20.5642V40.7788H19.1732Z" fill="black"/>
<path d="M20.3108 40.7788V39.2236H20.9292V40.7788H20.3108Z" fill="black"/>
<path d="M20.7526 40.7788V39.2236H22.1436V40.7788H20.7526Z" fill="black"/>
<path d="M21.9296 40.7788V39.2236H23.4756V40.7788H21.9296Z" fill="black"/>
<path d="M23.2997 40.7788V39.2236H25.3098V40.7788H23.2997Z" fill="black"/>
<path d="M25.2106 40.7788V39.2236H27.2207V40.7788H25.2106Z" fill="black"/>
<path d="M27.1216 40.7788V39.2236H28.2034V40.7788H27.1216Z" fill="black"/>
<path d="M28.0282 40.7788V39.2236H29.11V40.7788H28.0282Z" fill="black"/>
<path d="M28.7798 40.7788V39.2236H29.3982V40.7788H28.7798Z" fill="black"/>
<path d="M29.2216 40.7788V39.2236H30.3034V40.7788H29.2216Z" fill="black"/>
<path d="M30.2831 40.7788V39.2236H31.6741V40.7788H30.2831Z" fill="black"/>
<path d="M31.4982 40.7788V39.2236H32.1166V40.7788H31.4982Z" fill="black"/>
<path d="M6 43.7788V42.2236H7.39105V43.7788H6Z" fill="black"/>
<path d="M7.29257 43.7788V42.2236H8.37442V43.7788H7.29257Z" fill="black"/>
<path d="M8.35409 43.7788V42.2236H9.74513V43.7788H8.35409Z" fill="black"/>
<path d="M9.56918 43.7788V42.2236H11.1152V43.7788H9.56918Z" fill="black"/>
<path d="M10.9392 43.7788V42.2236H12.4852V43.7788H10.9392Z" fill="black"/>
<path d="M12.3867 43.7788V42.2236H13.7778V43.7788H12.3867Z" fill="black"/>
<path d="M13.6793 43.7788V42.2236H14.9154V43.7788H13.6793Z" fill="black"/>
<path d="M14.7394 43.7788V42.2236H16.1305V43.7788H14.7394Z" fill="black"/>
<path d="M15.82 43.7788V42.2236H17.366V43.7788H15.82Z" fill="black"/>
<path d="M17.0351 43.7788V42.2236H17.8077V43.7788H17.0351Z" fill="black"/>
<path d="M17.5543 43.7788V42.2236H18.327V43.7788H17.5543Z" fill="black"/>
<path d="M18.0736 43.7788V42.2236H18.8462V43.7788H18.0736Z" fill="black"/>
<path d="M18.5928 43.7788V42.2236H20.2937V43.7788H18.5928Z" fill="black"/>
<path d="M20.0403 43.7788V42.2236H21.1222V43.7788H20.0403Z" fill="black"/>
<path d="M20.7919 43.7788V42.2236H21.4103V43.7788H20.7919Z" fill="black"/>
<path d="M21.2337 43.7788V42.2236H22.3156V43.7788H21.2337Z" fill="black"/>
<path d="M21.9853 43.7788V42.2236H23.5313V43.7788H21.9853Z" fill="black"/>
<path d="M23.3554 43.7788V42.2236H24.9014V43.7788H23.3554Z" fill="black"/>
<path d="M24.5705 43.7788V42.2236H25.1889V43.7788H24.5705Z" fill="black"/>
<path d="M6.15494 46.7788V45.2236H7.70092V46.7788H6.15494Z" fill="black"/>
<path d="M7.38906 46.7788V45.2236H8.78011V46.7788H7.38906Z" fill="black"/>
<path d="M8.46961 46.7788V45.2236H10.0156V46.7788H8.46961Z" fill="black"/>
<path d="M9.68471 46.7788V45.2236H11.0758V46.7788H9.68471Z" fill="black"/>
<path d="M10.8617 46.7788V45.2236H11.9436V46.7788H10.8617Z" fill="black"/>
<path d="M11.7683 46.7788V45.2236H13.3143V46.7788H11.7683Z" fill="black"/>
<path d="M13.0609 46.7788V45.2236H14.6069V46.7788H13.0609Z" fill="black"/>
<path d="M14.4309 46.7788V45.2236H15.822V46.7788H14.4309Z" fill="black"/>
<path d="M15.646 46.7788V45.2236H16.7279V46.7788H15.646Z" fill="black"/>
<path d="M16.3977 46.7788V45.2236H17.1703V46.7788H16.3977Z" fill="black"/>
<path d="M16.9944 46.7788V45.2236H18.3854V46.7788H16.9944Z" fill="black"/>
<path d="M18.1714 46.7788V45.2236H18.7898V46.7788H18.1714Z" fill="black"/>
<path d="M18.6132 46.7788V45.2236H20.1592V46.7788H18.6132Z" fill="black"/>
<path d="M19.9057 46.7788V45.2236H20.9876V46.7788H19.9057Z" fill="black"/>
<path d="M20.8123 46.7788V45.2236H22.2034V46.7788H20.8123Z" fill="black"/>
<path d="M21.8929 46.7788V45.2236H23.4389V46.7788H21.8929Z" fill="black"/>
<path d="M23.108 46.7788V45.2236H24.499V46.7788H23.108Z" fill="black"/>
<path d="M24.2456 46.7788V45.2236H25.3274V46.7788H24.2456Z" fill="black"/>
<path d="M24.9972 46.7788V45.2236H26.0791V46.7788H24.9972Z" fill="black"/>
<path d="M26.0588 46.7788V45.2236H27.2949V46.7788H26.0588Z" fill="black"/>
<path d="M27.2739 46.7788V45.2236H28.6649V46.7788H27.2739Z" fill="black"/>
<path d="M28.489 46.7788V45.2236H29.2616V46.7788H28.489Z" fill="black"/>
<path d="M29.0082 46.7788V45.2236H29.6266V46.7788H29.0082Z" fill="black"/>
<path d="M6.15494 49.7788V48.2236H7.39105V49.7788H6.15494Z" fill="black"/>
<path d="M7.2151 49.7788V48.2236H8.76108V49.7788H7.2151Z" fill="black"/>
<path d="M8.58513 49.7788V48.2236H9.97618V49.7788H8.58513Z" fill="black"/>
<path d="M9.66568 49.7788V48.2236H10.2841V49.7788H9.66568Z" fill="black"/>
<path d="M10.1074 49.7788V48.2236H11.1893V49.7788H10.1074Z" fill="black"/>
<path d="M10.8591 49.7788V48.2236H12.4051V49.7788H10.8591Z" fill="black"/>
<path d="M12.0742 49.7788V48.2236H13.6202V49.7788H12.0742Z" fill="black"/>
<path d="M13.3668 49.7788V48.2236H15.3769V49.7788H13.3668Z" fill="black"/>
<path d="M15.2777 49.7788V48.2236H15.8961V49.7788H15.2777Z" fill="black"/>
<path d="M15.7195 49.7788V48.2236H17.1105V49.7788H15.7195Z" fill="black"/>
<path d="M16.8 49.7788V48.2236H18.346V49.7788H16.8Z" fill="black"/>
<path d="M18.0151 49.7788V48.2236H20.0252V49.7788H18.0151Z" fill="black"/>
<path d="M19.9261 49.7788V48.2236H21.4721V49.7788H19.9261Z" fill="black"/>
<path d="M21.2186 49.7788V48.2236H22.3005V49.7788H21.2186Z" fill="black"/>
<path d="M22.2802 49.7788V48.2236H23.6712V49.7788H22.2802Z" fill="black"/>
<path d="M23.4953 49.7788V48.2236H24.8863V49.7788H23.4953Z" fill="black"/>
<path d="M24.6723 49.7788V48.2236H25.2907V49.7788H24.6723Z" fill="black"/>
<path d="M6.15494 52.7788V51.2236H7.54599V52.7788H6.15494Z" fill="black"/>
<path d="M7.29257 52.7788V51.2236H8.68361V52.7788H7.29257Z" fill="black"/>
<path d="M8.37311 52.7788V51.2236H9.9191V52.7788H8.37311Z" fill="black"/>
<path d="M9.74315 52.7788V51.2236H11.1342V52.7788H9.74315Z" fill="black"/>
<path d="M10.8808 52.7788V51.2236H12.4268V52.7788H10.8808Z" fill="black"/>
<path d="M12.1733 52.7788V51.2236H13.5644V52.7788H12.1733Z" fill="black"/>
<path d="M13.2539 52.7788V51.2236H14.7999V52.7788H13.2539Z" fill="black"/>
<path d="M14.469 52.7788V51.2236H16.015V52.7788H14.469Z" fill="black"/>
<path d="M15.7616 52.7788V51.2236H16.3799V52.7788H15.7616Z" fill="black"/>
<path d="M16.2033 52.7788V51.2236H17.2852V52.7788H16.2033Z" fill="black"/>
<path d="M17.1099 52.7788V51.2236H18.346V52.7788H17.1099Z" fill="black"/>
<path d="M18.1701 52.7788V51.2236H18.7885V52.7788H18.1701Z" fill="black"/>
<path d="M18.6118 52.7788V51.2236H20.1578V52.7788H18.6118Z" fill="black"/>
<path d="M19.9819 52.7788V51.2236H21.3729V52.7788H19.9819Z" fill="black"/>
<path d="M21.197 52.7788V51.2236H22.7429V52.7788H21.197Z" fill="black"/>
<path d="M22.567 52.7788V51.2236H24.113V52.7788H22.567Z" fill="black"/>
<path d="M23.8596 52.7788V51.2236H25.4055V52.7788H23.8596Z" fill="black"/>
<path d="M25.2296 52.7788V51.2236H26.7756V52.7788H25.2296Z" fill="black"/>
<path d="M26.4447 52.7788V51.2236H27.0631V52.7788H26.4447Z" fill="black"/>
<path d="M26.8865 52.7788V51.2236H29.0508V52.7788H26.8865Z" fill="black"/>
<path d="M28.7974 52.7788V51.2236H29.8793V52.7788H28.7974Z" fill="black"/>
<path d="M29.704 52.7788V51.2236H30.7858V52.7788H29.704Z" fill="black"/>
<path d="M30.4556 52.7788V51.2236H32.0016V52.7788H30.4556Z" fill="black"/>
<path d="M31.8257 52.7788V51.2236H32.4441V52.7788H31.8257Z" fill="black"/>
<path d="M6.15494 55.7788V54.2236H7.39105V55.7788H6.15494Z" fill="black"/>
<path d="M7.2151 55.7788V54.2236H8.76108V55.7788H7.2151Z" fill="black"/>
<path d="M8.58513 55.7788V54.2236H9.97618V55.7788H8.58513Z" fill="black"/>
<path d="M9.66568 55.7788V54.2236H10.2841V55.7788H9.66568Z" fill="black"/>
<path d="M10.1074 55.7788V54.2236H11.4985V55.7788H10.1074Z" fill="black"/>
<path d="M11.4 55.7788V54.2236H12.6361V55.7788H11.4Z" fill="black"/>
<path d="M12.4602 55.7788V54.2236H14.0062V55.7788H12.4602Z" fill="black"/>
<path d="M13.9851 55.7788V54.2236H15.3762V55.7788H13.9851Z" fill="black"/>
<path d="M15.2002 55.7788V54.2236H16.2821V55.7788H15.2002Z" fill="black"/>
<path d="M15.9519 55.7788V54.2236H17.4979V55.7788H15.9519Z" fill="black"/>
<path d="M17.167 55.7788V54.2236H18.558V55.7788H17.167Z" fill="black"/>
<path d="M18.4025 55.7788V54.2236H19.7935V55.7788H18.4025Z" fill="black"/>
<path d="M19.5401 55.7788V54.2236H21.0861V55.7788H19.5401Z" fill="black"/>
<path d="M20.8327 55.7788V54.2236H22.2237V55.7788H20.8327Z" fill="black"/>
<path d="M21.9132 55.7788V54.2236H22.9951V55.7788H21.9132Z" fill="black"/>
<path d="M22.6648 55.7788V54.2236H24.0559V55.7788H22.6648Z" fill="black"/>
<path d="M23.8419 55.7788V54.2236H24.4603V55.7788H23.8419Z" fill="black"/>
<path d="M24.2837 55.7788V54.2236H25.3655V55.7788H24.2837Z" fill="black"/>
<path d="M25.3452 55.7788V54.2236H26.7362V55.7788H25.3452Z" fill="black"/>
<path d="M26.5603 55.7788V54.2236H27.1787V55.7788H26.5603Z" fill="black"/>
<path d="M6 58.7788V57.2236H7.70092V58.7788H6Z" fill="black"/>
<path d="M7.544 58.7788V57.2236H8.78011V58.7788H7.544Z" fill="black"/>
<path d="M8.60416 58.7788V57.2236H9.99521V58.7788H8.60416Z" fill="black"/>
<path d="M9.68471 58.7788V57.2236H10.7666V58.7788H9.68471Z" fill="black"/>
<path d="M10.4363 58.7788V57.2236H11.9823V58.7788H10.4363Z" fill="black"/>
<path d="M11.8064 58.7788V57.2236H12.4248V58.7788H11.8064Z" fill="black"/>
<path d="M12.2481 58.7788V57.2236H13.9491V58.7788H12.2481Z" fill="black"/>
<path d="M13.8506 58.7788V57.2236H15.0867V58.7788H13.8506Z" fill="black"/>
<path d="M14.9108 58.7788V57.2236H16.3018V58.7788H14.9108Z" fill="black"/>
<path d="M15.9913 58.7788V57.2236H17.5373V58.7788H15.9913Z" fill="black"/>
<path d="M17.2064 58.7788V57.2236H18.7524V58.7788H17.2064Z" fill="black"/>
<path d="M18.499 58.7788V57.2236H19.1174V58.7788H18.499Z" fill="black"/>
<path d="M18.9407 58.7788V57.2236H20.0226V58.7788H18.9407Z" fill="black"/>
<path d="M19.8473 58.7788V57.2236H21.0834V58.7788H19.8473Z" fill="black"/>
<path d="M20.9075 58.7788V57.2236H21.5259V58.7788H20.9075Z" fill="black"/>
<path d="M21.3492 58.7788V57.2236H22.8952V58.7788H21.3492Z" fill="black"/>
<path d="M22.6418 58.7788V57.2236H24.0328V58.7788H22.6418Z" fill="black"/>
<path d="M23.7794 58.7788V57.2236H25.3254V58.7788H23.7794Z" fill="black"/>
<path d="M25.1495 58.7788V57.2236H26.2313V58.7788H25.1495Z" fill="black"/>
<path d="M26.056 58.7788V57.2236H27.602V58.7788H26.056Z" fill="black"/>
<path d="M27.2711 58.7788V57.2236H28.6622V58.7788H27.2711Z" fill="black"/>
<path d="M28.5637 58.7788V57.2236H30.1097V58.7788H28.5637Z" fill="black"/>
<path d="M29.7788 58.7788V57.2236H30.3972V58.7788H29.7788Z" fill="black"/>
<path d="M6 61.7788V60.2236H7.08185V61.7788H6Z" fill="black"/>
<path d="M6.75164 61.7788V60.2236H8.29763V61.7788H6.75164Z" fill="black"/>
<path d="M8.12168 61.7788V60.2236H9.66766V61.7788H8.12168Z" fill="black"/>
<path d="M9.41424 61.7788V60.2236H10.4961V61.7788H9.41424Z" fill="black"/>
<path d="M10.1659 61.7788V60.2236H10.7843V61.7788H10.1659Z" fill="black"/>
<path d="M10.6077 61.7788V60.2236H12.1536V61.7788H10.6077Z" fill="black"/>
<path d="M12.1326 61.7788V60.2236H13.3687V61.7788H12.1326Z" fill="black"/>
<path d="M13.1928 61.7788V60.2236H14.7388V61.7788H13.1928Z" fill="black"/>
<path d="M14.4854 61.7788V60.2236H15.5672V61.7788H14.4854Z" fill="black"/>
<path d="M15.3919 61.7788V60.2236H16.1646V61.7788H15.3919Z" fill="black"/>
<path d="M15.9112 61.7788V60.2236H16.6838V61.7788H15.9112Z" fill="black"/>
<path d="M6.3092 7.67422H27.6755V7.74395H6.3092V7.67422ZM6.3092 10.6742H26.9469V10.7439H6.3092V10.6742ZM6.3092 13.6742H31.1876V13.7439H6.3092V13.6742ZM6.3092 16.6742H31.1659V16.7439H6.3092V16.6742ZM6.3092 19.6742H23.8943V19.7439H6.3092V19.6742ZM6.3092 22.6742H27.946V22.7439H6.3092V22.6742ZM6.3092 25.6742H29.295V25.7439H6.3092V25.6742ZM6.3092 28.6742H32.6908V28.7439H6.3092V28.6742ZM6.3092 31.6742H12.8271V31.7439H6.3092V31.6742ZM12.8278 31.9538H14.1639V32.0238H12.8278V31.9538ZM14.1639 31.6742H27.1604V31.7439H14.1639V31.6742ZM6.3092 34.6742H28.6649V34.7439H6.3092V34.6742ZM6.3092 37.6742H28.4732V37.7439H6.3092V37.6742ZM6.3092 40.6742H31.8074V40.7439H6.3092V40.6742ZM6.3092 43.6742H24.8797V43.7439H6.3092V43.6742ZM6.3092 46.6742H29.3174V46.7439H6.3092V46.6742ZM6.3092 49.6742H24.9808V49.7439H6.3092V49.6742ZM6.3092 52.6742H32.1349V52.7439H6.3092V52.6742ZM6.3092 55.6742H26.8695V55.7439H6.3092V55.6742ZM6.3092 58.6742H30.088V58.7439H6.3092V58.6742ZM6.3092 61.6742H16.8727V61.7439H6.3092V61.6742Z" fill="black"/>
</g>
</g>
<path d="M11.3333 72.7793H2V79.1274H11.3333V72.7793Z" fill="#E1C278"/>
</g>
<defs>
<filter id="filter0_d_39_124700" x="0" y="1.22363" width="39" height="69.5557" filterUnits="userSpaceOnUse" color-interpolation-filters="sRGB">
<feFlood flood-opacity="0" result="BackgroundImageFix"/>
<feColorMatrix in="SourceAlpha" type="matrix" values="0 0 0 0 0 0 0 0 0 0 0 0 0 0 0 0 0 0 127 0" result="hardAlpha"/>
<feOffset dy="1"/>
<feGaussianBlur stdDeviation="1"/>
<feComposite in2="hardAlpha" operator="out"/>
<feColorMatrix type="matrix" values="0 0 0 0 0 0 0 0 0 0 0 0 0 0 0 0 0 0 0.1 0"/>
<feBlend mode="normal" in2="BackgroundImageFix" result="effect1_dropShadow_39_124700"/>
<feBlend mode="normal" in="SourceGraphic" in2="effect1_dropShadow_39_124700" result="shape"/>
</filter>
<clipPath id="clip0_39_124700">
<rect width="39" height="80.9033" fill="white" transform="translate(0 0.223633)"/>
</clipPath>
</defs>
</svg>
