<svg width="39" height="72" viewBox="0 0 39 72" fill="none" xmlns="http://www.w3.org/2000/svg">
<rect width="39" height="72" fill=""/>
<g clip-path="url(#clip0_39_124700)">
<rect width="35" height="56.5552" transform="translate(2 2.09473)" fill="#364B60"/>
<g opacity="0.5">
<path d="M6 7.6499V6.09473H6.76282V7.6499H6Z" fill="white"/>
<path d="M6.58911 7.6499V6.09473H8.11542V7.6499H6.58911Z" fill="white"/>
<path d="M7.94171 7.6499V6.09473H8.55224V7.6499H7.94171Z" fill="white"/>
<path d="M8.53082 7.6499V6.09473H10.6677V7.6499H8.53082Z" fill="white"/>
<path d="M10.455 7.6499V6.09473H11.9814V7.6499H10.455Z" fill="white"/>
<path d="M11.8076 7.6499V6.09473H13.334V7.6499H11.8076Z" fill="white"/>
<path d="M13.1602 7.6499V6.09473H14.5336V7.6499H13.1602Z" fill="white"/>
<path d="M14.3599 7.6499V6.09473H14.9704V7.6499H14.3599Z" fill="white"/>
<path d="M14.949 7.6499V6.09473H16.3223V7.6499H14.949Z" fill="white"/>
<path d="M16.2251 7.6499V6.09473H17.4455V7.6499H16.2251Z" fill="white"/>
<path d="M17.2718 7.6499V6.09473H18.7981V7.6499H17.2718Z" fill="white"/>
<path d="M18.6244 7.6499V6.09473H19.2349V7.6499H18.6244Z" fill="white"/>
<path d="M19.0605 7.6499V6.09473H20.4339V7.6499H19.0605Z" fill="white"/>
<path d="M20.2226 7.6499V6.09473H21.7489V7.6499H20.2226Z" fill="white"/>
<path d="M21.5752 7.6499V6.09473H22.9485V7.6499H21.5752Z" fill="white"/>
<path d="M22.6983 7.6499V6.09473H23.3089V7.6499H22.6983Z" fill="white"/>
<path d="M23.2875 7.6499V6.09473H24.6608V7.6499H23.2875Z" fill="white"/>
<path d="M24.5636 7.6499V6.09473H25.784V7.6499H24.5636Z" fill="white"/>
<path d="M25.6102 7.6499V6.09473H27.1366V7.6499H25.6102Z" fill="white"/>
<path d="M26.9629 7.6499V6.09473H27.7257V7.6499H26.9629Z" fill="white"/>
<path d="M27.552 7.6499V6.09473H28.9253V7.6499H27.552Z" fill="white"/>
<path d="M28.6188 7.6499V6.09473H30.1451V7.6499H28.6188Z" fill="white"/>
<path d="M29.8184 7.6499V6.09473H30.4289V7.6499H29.8184Z" fill="white"/>
<path d="M6 10.6499V9.09473H7.52631V10.6499H6Z" fill="white"/>
<path d="M7.50557 10.6499V9.09473H8.72595V10.6499H7.50557Z" fill="white"/>
<path d="M8.55224 10.6499V9.09473H9.62032V10.6499H8.55224Z" fill="white"/>
<path d="M9.60025 10.6499V9.09473H10.9736V10.6499H9.60025Z" fill="white"/>
<path d="M10.7999 10.6499V9.09473H12.3262V10.6499H10.7999Z" fill="white"/>
<path d="M12.1525 10.6499V9.09473H12.763V10.6499H12.1525Z" fill="white"/>
<path d="M12.5886 10.6499V9.09473H13.6567V10.6499H12.5886Z" fill="white"/>
<path d="M13.4837 10.6499V9.09473H14.7041V10.6499H13.4837Z" fill="white"/>
<path d="M14.5303 10.6499V9.09473H15.1409V10.6499H14.5303Z" fill="white"/>
<path d="M14.9665 10.6499V9.09473H16.4928V10.6499H14.9665Z" fill="white"/>
<path d="M16.3191 10.6499V9.09473H17.8454V10.6499H16.3191Z" fill="white"/>
<path d="M17.6717 10.6499V9.09473H19.198V10.6499H17.6717Z" fill="white"/>
<path d="M18.9478 10.6499V9.09473H20.3212V10.6499H18.9478Z" fill="white"/>
<path d="M19.977 10.6499V9.09473H21.5034V10.6499H19.977Z" fill="white"/>
<path d="M21.4061 10.6499V9.09473H22.7795V10.6499H21.4061Z" fill="white"/>
<path d="M22.6058 10.6499V9.09473H23.6739V10.6499H22.6058Z" fill="white"/>
<path d="M23.3478 10.6499V9.09473H24.8742V10.6499H23.3478Z" fill="white"/>
<path d="M24.5475 10.6499V9.09473H26.0738V10.6499H24.5475Z" fill="white"/>
<path d="M25.7471 10.6499V9.09473H26.3576V10.6499H25.7471Z" fill="white"/>
<path d="M26.1833 10.6499V9.09473H27.8625V10.6499H26.1833Z" fill="white"/>
<path d="M27.6123 10.6499V9.09473H28.6804V10.6499H27.6123Z" fill="white"/>
<path d="M28.5074 10.6499V9.09473H30.4919V10.6499H28.5074Z" fill="white"/>
<path d="M30.394 10.6499V9.09473H31.1569V10.6499H30.394Z" fill="white"/>
<path d="M30.9831 10.6499V9.09473H32.3565V10.6499H30.9831Z" fill="white"/>
<path d="M32.1452 10.6499V9.09473H32.7557V10.6499H32.1452Z" fill="white"/>
<path d="M6 13.6499V12.0947H7.37335V13.6499H6Z" fill="white"/>
<path d="M7.16207 13.6499V12.0947H8.68838V13.6499H7.16207Z" fill="white"/>
<path d="M8.3617 13.6499V12.0947H9.73505V13.6499H8.3617Z" fill="white"/>
<path d="M9.48485 13.6499V12.0947H11.0112V13.6499H9.48485Z" fill="white"/>
<path d="M10.8375 13.6499V12.0947H12.2108V13.6499H10.8375Z" fill="white"/>
<path d="M11.9043 13.6499V12.0947H12.9723V13.6499H11.9043Z" fill="white"/>
<path d="M12.7993 13.6499V12.0947H13.8674V13.6499H12.7993Z" fill="white"/>
<path d="M13.6943 13.6499V12.0947H15.0677V13.6499H13.6943Z" fill="white"/>
<path d="M14.8175 13.6499V12.0947H15.5803V13.6499H14.8175Z" fill="white"/>
<path d="M15.3301 13.6499V12.0947H15.9406V13.6499H15.3301Z" fill="white"/>
<path d="M15.7663 13.6499V12.0947H17.2926V13.6499H15.7663Z" fill="white"/>
<path d="M17.1954 13.6499V12.0947H18.5687V13.6499H17.1954Z" fill="white"/>
<path d="M18.395 13.6499V12.0947H19.9213V13.6499H18.395Z" fill="white"/>
<path d="M19.6711 13.6499V12.0947H20.2816V13.6499H19.6711Z" fill="white"/>
<path d="M20.1073 13.6499V12.0947H21.1753V13.6499H20.1073Z" fill="white"/>
<path d="M20.8493 13.6499V12.0947H22.3756V13.6499H20.8493Z" fill="white"/>
<path d="M22.2019 13.6499V12.0947H23.7282V13.6499H22.2019Z" fill="white"/>
<path d="M23.4016 13.6499V12.0947H24.0121V13.6499H23.4016Z" fill="white"/>
<path d="M23.8377 13.6499V12.0947H25.517V13.6499H23.8377Z" fill="white"/>
<path d="M25.3621 13.6499V12.0947H26.5824V13.6499H25.3621Z" fill="white"/>
<path d="M26.4087 13.6499V12.0947H27.7821V13.6499H26.4087Z" fill="white"/>
<path d="M27.4755 13.6499V12.0947H28.5436V13.6499H27.4755Z" fill="white"/>
<path d="M28.2176 13.6499V12.0947H29.7439V13.6499H28.2176Z" fill="white"/>
<path d="M29.5702 13.6499V12.0947H30.1807V13.6499H29.5702Z" fill="white"/>
<path d="M6 16.6499V15.0947H7.67928V16.6499H6Z" fill="white"/>
<path d="M7.58205 16.6499V15.0947H8.80243V16.6499H7.58205Z" fill="white"/>
<path d="M8.62872 16.6499V15.0947H10.0021V16.6499H8.62872Z" fill="white"/>
<path d="M9.69552 16.6499V15.0947H11.2218V16.6499H9.69552Z" fill="white"/>
<path d="M10.8952 16.6499V15.0947H12.4215V16.6499H10.8952Z" fill="white"/>
<path d="M12.3242 16.6499V15.0947H13.6976V16.6499H12.3242Z" fill="white"/>
<path d="M13.5239 16.6499V15.0947H14.1344V16.6499H13.5239Z" fill="white"/>
<path d="M13.96 16.6499V15.0947H15.3334V16.6499H13.96Z" fill="white"/>
<path d="M15.0268 16.6499V15.0947H16.5531V16.6499H15.0268Z" fill="white"/>
<path d="M16.2265 16.6499V15.0947H17.7528V16.6499H16.2265Z" fill="white"/>
<path d="M17.5791 16.6499V15.0947H18.6471V16.6499H17.5791Z" fill="white"/>
<path d="M18.4741 16.6499V15.0947H20.4586V16.6499H18.4741Z" fill="white"/>
<path d="M20.3607 16.6499V15.0947H21.8871V16.6499H20.3607Z" fill="white"/>
<path d="M21.5604 16.6499V15.0947H22.3232V16.6499H21.5604Z" fill="white"/>
<path d="M22.1495 16.6499V15.0947H23.5228V16.6499H22.1495Z" fill="white"/>
<path d="M23.3116 16.6499V15.0947H23.9221V16.6499H23.3116Z" fill="white"/>
<path d="M6 19.6499V18.0947H7.37335V19.6499H6Z" fill="white"/>
<path d="M7.16207 19.6499V18.0947H8.68838V19.6499H7.16207Z" fill="white"/>
<path d="M8.3617 19.6499V18.0947H9.73505V19.6499H8.3617Z" fill="white"/>
<path d="M9.48485 19.6499V18.0947H11.0112V19.6499H9.48485Z" fill="white"/>
<path d="M10.8375 19.6499V18.0947H12.2108V19.6499H10.8375Z" fill="white"/>
<path d="M11.9043 19.6499V18.0947H12.9723V19.6499H11.9043Z" fill="white"/>
<path d="M12.7993 19.6499V18.0947H13.8674V19.6499H12.7993Z" fill="white"/>
<path d="M13.6943 19.6499V18.0947H15.0677V19.6499H13.6943Z" fill="white"/>
<path d="M14.8175 19.6499V18.0947H15.5803V19.6499H14.8175Z" fill="white"/>
<path d="M15.3301 19.6499V18.0947H15.9406V19.6499H15.3301Z" fill="white"/>
<path d="M15.7663 19.6499V18.0947H17.2926V19.6499H15.7663Z" fill="white"/>
<path d="M17.2718 19.6499V18.0947H18.4922V19.6499H17.2718Z" fill="white"/>
<path d="M18.3185 19.6499V18.0947H20.4553V19.6499H18.3185Z" fill="white"/>
<path d="M20.2052 19.6499V18.0947H20.8157V19.6499H20.2052Z" fill="white"/>
<path d="M20.6413 19.6499V18.0947H22.7781V19.6499H20.6413Z" fill="white"/>
<path d="M22.5279 19.6499V18.0947H23.596V19.6499H22.5279Z" fill="white"/>
<path d="M23.423 19.6499V18.0947H24.4911V19.6499H23.423Z" fill="white"/>
<path d="M24.318 19.6499V18.0947H25.3861V19.6499H24.318Z" fill="white"/>
<path d="M25.2131 19.6499V18.0947H25.8236V19.6499H25.2131Z" fill="white"/>
<path d="M25.8022 19.6499V18.0947H27.1755V19.6499H25.8022Z" fill="white"/>
<path d="M27.0783 19.6499V18.0947H28.2987V19.6499H27.0783Z" fill="white"/>
<path d="M28.125 19.6499V18.0947H29.6513V19.6499H28.125Z" fill="white"/>
<path d="M29.4776 19.6499V18.0947H30.0881V19.6499H29.4776Z" fill="white"/>
<path d="M29.9137 19.6499V18.0947H31.44V19.6499H29.9137Z" fill="white"/>
<path d="M31.3428 19.6499V18.0947H32.5632V19.6499H31.3428Z" fill="white"/>
<path d="M32.3895 19.6499V18.0947H33V19.6499H32.3895Z" fill="white"/>
<path d="M6 22.6499V21.0947H7.06808V22.6499H6Z" fill="white"/>
<path d="M6.74208 22.6499V21.0947H8.26839V22.6499H6.74208Z" fill="white"/>
<path d="M8.09468 22.6499V21.0947H9.62099V22.6499H8.09468Z" fill="white"/>
<path d="M9.3708 22.6499V21.0947H10.4389V22.6499H9.3708Z" fill="white"/>
<path d="M10.1129 22.6499V21.0947H11.3339V22.6499H10.1129Z" fill="white"/>
<path d="M11.1595 22.6499V21.0947H11.7701V22.6499H11.1595Z" fill="white"/>
<path d="M11.5957 22.6499V21.0947H13.275V22.6499H11.5957Z" fill="white"/>
<path d="M13.2153 22.6499V21.0947H14.4357V22.6499H13.2153Z" fill="white"/>
<path d="M14.262 22.6499V21.0947H16.3988V22.6499H14.262Z" fill="white"/>
<path d="M16.1486 22.6499V21.0947H16.7592V22.6499H16.1486Z" fill="white"/>
<path d="M16.5848 22.6499V21.0947H18.7216V22.6499H16.5848Z" fill="white"/>
<path d="M18.6244 22.6499V21.0947H19.8448V22.6499H18.6244Z" fill="white"/>
<path d="M19.6711 22.6499V21.0947H21.1974V22.6499H19.6711Z" fill="white"/>
<path d="M21.0237 22.6499V21.0947H22.0917V22.6499H21.0237Z" fill="white"/>
<path d="M21.9187 22.6499V21.0947H23.445V22.6499H21.9187Z" fill="white"/>
<path d="M23.1948 22.6499V21.0947H23.8053V22.6499H23.1948Z" fill="white"/>
<path d="M23.631 22.6499V21.0947H24.6991V22.6499H23.631Z" fill="white"/>
<path d="M24.373 22.6499V21.0947H25.8994V22.6499H24.373Z" fill="white"/>
<path d="M25.7256 22.6499V21.0947H27.252V22.6499H25.7256Z" fill="white"/>
<path d="M26.9253 22.6499V21.0947H27.5358V22.6499H26.9253Z" fill="white"/>
<path d="M6 25.6499V24.0947H7.67928V25.6499H6Z" fill="white"/>
<path d="M7.54314 25.6499V24.0947H8.91649V25.6499H7.54314Z" fill="white"/>
<path d="M8.74278 25.6499V24.0947H9.81086V25.6499H8.74278Z" fill="white"/>
<path d="M9.63782 25.6499V24.0947H10.7059V25.6499H9.63782Z" fill="white"/>
<path d="M10.3799 25.6499V24.0947H11.9062V25.6499H10.3799Z" fill="white"/>
<path d="M11.5795 25.6499V24.0947H13.1058V25.6499H11.5795Z" fill="white"/>
<path d="M12.8557 25.6499V24.0947H13.4662V25.6499H12.8557Z" fill="white"/>
<path d="M13.2918 25.6499V24.0947H14.6651V25.6499H13.2918Z" fill="white"/>
<path d="M14.5679 25.6499V24.0947H15.636V25.6499H14.5679Z" fill="white"/>
<path d="M15.31 25.6499V24.0947H16.8363V25.6499H15.31Z" fill="white"/>
<path d="M16.5861 25.6499V24.0947H17.6542V25.6499H16.5861Z" fill="white"/>
<path d="M17.3282 25.6499V24.0947H18.8545V25.6499H17.3282Z" fill="white"/>
<path d="M18.5278 25.6499V24.0947H19.9012V25.6499H18.5278Z" fill="white"/>
<path d="M19.6899 25.6499V24.0947H20.3004V25.6499H19.6899Z" fill="white"/>
<path d="M20.126 25.6499V24.0947H21.6524V25.6499H20.126Z" fill="white"/>
<path d="M21.5551 25.6499V24.0947H22.7755V25.6499H21.5551Z" fill="white"/>
<path d="M22.6018 25.6499V24.0947H23.2123V25.6499H22.6018Z" fill="white"/>
<path d="M23.0379 25.6499V24.0947H24.106V25.6499H23.0379Z" fill="white"/>
<path d="M23.78 25.6499V24.0947H25.3063V25.6499H23.78Z" fill="white"/>
<path d="M25.1326 25.6499V24.0947H26.6589V25.6499H25.1326Z" fill="white"/>
<path d="M26.4087 25.6499V24.0947H27.4768V25.6499H26.4087Z" fill="white"/>
<path d="M27.1508 25.6499V24.0947H28.3719V25.6499H27.1508Z" fill="white"/>
<path d="M28.1975 25.6499V24.0947H28.808V25.6499H28.1975Z" fill="white"/>
<path d="M6 28.6499V27.0947H7.52631V28.6499H6Z" fill="white"/>
<path d="M7.3526 28.6499V27.0947H9.03188V28.6499H7.3526Z" fill="white"/>
<path d="M8.81926 28.6499V27.0947H10.4985V28.6499H8.81926Z" fill="white"/>
<path d="M10.1343 28.6499V27.0947H10.7448V28.6499H10.1343Z" fill="white"/>
<path d="M10.7234 28.6499V27.0947H12.2497V28.6499H10.7234Z" fill="white"/>
<path d="M11.9418 28.6499V27.0947H13.6211V28.6499H11.9418Z" fill="white"/>
<path d="M13.4474 28.6499V27.0947H15.1267V28.6499H13.4474Z" fill="white"/>
<path d="M14.7624 28.6499V27.0947H16.1358V28.6499H14.7624Z" fill="white"/>
<path d="M16.0385 28.6499V27.0947H17.2596V28.6499H16.0385Z" fill="white"/>
<path d="M17.0852 28.6499V27.0947H18.7645V28.6499H17.0852Z" fill="white"/>
<path d="M18.4566 28.6499V27.0947H20.1359V28.6499H18.4566Z" fill="white"/>
<path d="M19.7716 28.6499V27.0947H21.4509V28.6499H19.7716Z" fill="white"/>
<path d="M21.143 28.6499V27.0947H22.6693V28.6499H21.143Z" fill="white"/>
<path d="M22.4956 28.6499V27.0947H23.2585V28.6499H22.4956Z" fill="white"/>
<path d="M23.0083 28.6499V27.0947H23.6188V28.6499H23.0083Z" fill="white"/>
<path d="M23.5974 28.6499V27.0947H25.7342V28.6499H23.5974Z" fill="white"/>
<path d="M25.5216 28.6499V27.0947H27.0479V28.6499H25.5216Z" fill="white"/>
<path d="M26.7212 28.6499V27.0947H27.7893V28.6499H26.7212Z" fill="white"/>
<path d="M27.6163 28.6499V27.0947H28.6843V28.6499H27.6163Z" fill="white"/>
<path d="M28.5113 28.6499V27.0947H29.2741V28.6499H28.5113Z" fill="white"/>
<path d="M29.0239 28.6499V27.0947H29.6345V28.6499H29.0239Z" fill="white"/>
<path d="M6 31.6499V30.0947H8.13684V31.6499H6Z" fill="white"/>
<path d="M7.88665 31.6499V30.0947H9.41296V31.6499H7.88665Z" fill="white"/>
<path d="M9.08628 31.6499V30.0947H9.8491V31.6499H9.08628Z" fill="white"/>
<path d="M9.67539 31.6499V30.0947H11.0487V31.6499H9.67539Z" fill="white"/>
<path d="M10.7422 31.6499V30.0947H12.2685V31.6499H10.7422Z" fill="white"/>
<path d="M11.9418 31.6499V30.0947H12.5524V31.6499H11.9418Z" fill="white"/>
<path d="M12.378 31.6499V30.0947H13.9043V31.6499H12.378Z" fill="white"/>
<path d="M13.8835 31.6499V30.0947H15.1039V31.6499H13.8835Z" fill="white"/>
<path d="M14.9302 31.6499V30.0947H15.9983V31.6499H14.9302Z" fill="white"/>
<path d="M15.9782 31.6499V30.0947H17.3516V31.6499H15.9782Z" fill="white"/>
<path d="M17.1779 31.6499V30.0947H18.7042V31.6499H17.1779Z" fill="white"/>
<path d="M18.5305 31.6499V30.0947H19.141V31.6499H18.5305Z" fill="white"/>
<path d="M18.9666 31.6499V30.0947H20.0347V31.6499H18.9666Z" fill="white"/>
<path d="M19.8616 31.6499V30.0947H21.082V31.6499H19.8616Z" fill="white"/>
<path d="M20.9083 31.6499V30.0947H21.5188V31.6499H20.9083Z" fill="white"/>
<path d="M21.3445 31.6499V30.0947H23.329V31.6499H21.3445Z" fill="white"/>
<path d="M23.2311 31.6499V30.0947H24.7574V31.6499H23.2311Z" fill="white"/>
<path d="M24.5072 31.6499V30.0947H26.0335V31.6499H24.5072Z" fill="white"/>
<path d="M25.8223 31.6499V30.0947H27.3486V31.6499H25.8223Z" fill="white"/>
<path d="M27.0219 31.6499V30.0947H27.6324V31.6499H27.0219Z" fill="white"/>
<path d="M27.458 31.6499V30.0947H28.8314V31.6499H27.458Z" fill="white"/>
<path d="M28.6201 31.6499V30.0947H30.1464V31.6499H28.6201Z" fill="white"/>
<path d="M29.9727 31.6499V30.0947H31.3461V31.6499H29.9727Z" fill="white"/>
<path d="M31.0395 31.6499V30.0947H32.5658V31.6499H31.0395Z" fill="white"/>
<path d="M32.2391 31.6499V30.0947H32.8497V31.6499H32.2391Z" fill="white"/>
<path d="M6 34.6499V33.0947H7.06808V34.6499H6Z" fill="white"/>
<path d="M6.89504 34.6499V33.0947H7.96313V34.6499H6.89504Z" fill="white"/>
<path d="M7.63712 34.6499V33.0947H8.39994V34.6499H7.63712Z" fill="white"/>
<path d="M8.22623 34.6499V33.0947H9.59958V34.6499H8.22623Z" fill="white"/>
<path d="M9.3883 34.6499V33.0947H9.99882V34.6499H9.3883Z" fill="white"/>
<path d="M9.82444 34.6499V33.0947H11.1978V34.6499H9.82444Z" fill="white"/>
<path d="M10.9865 34.6499V33.0947H12.5128V34.6499H10.9865Z" fill="white"/>
<path d="M12.1861 34.6499V33.0947H13.5595V34.6499H12.1861Z" fill="white"/>
<path d="M13.3093 34.6499V33.0947H14.8356V34.6499H13.3093Z" fill="white"/>
<path d="M14.6619 34.6499V33.0947H16.0352V34.6499H14.6619Z" fill="white"/>
<path d="M15.7287 34.6499V33.0947H17.255V34.6499H15.7287Z" fill="white"/>
<path d="M16.9283 34.6499V33.0947H17.6912V34.6499H16.9283Z" fill="white"/>
<path d="M17.441 34.6499V33.0947H18.0515V34.6499H17.441Z" fill="white"/>
<path d="M18.0301 34.6499V33.0947H20.1669V34.6499H18.0301Z" fill="white"/>
<path d="M19.9543 34.6499V33.0947H21.4806V34.6499H19.9543Z" fill="white"/>
<path d="M21.1539 34.6499V33.0947H21.9167V34.6499H21.1539Z" fill="white"/>
<path d="M21.743 34.6499V33.0947H23.1164V34.6499H21.743Z" fill="white"/>
<path d="M22.8098 34.6499V33.0947H24.3361V34.6499H22.8098Z" fill="white"/>
<path d="M24.0095 34.6499V33.0947H24.62V34.6499H24.0095Z" fill="white"/>
<path d="M24.4456 34.6499V33.0947H25.9719V34.6499H24.4456Z" fill="white"/>
<path d="M25.9512 34.6499V33.0947H27.1716V34.6499H25.9512Z" fill="white"/>
<path d="M26.9978 34.6499V33.0947H28.0659V34.6499H26.9978Z" fill="white"/>
<path d="M28.0459 34.6499V33.0947H29.4192V34.6499H28.0459Z" fill="white"/>
<path d="M29.2455 34.6499V33.0947H30.7718V34.6499H29.2455Z" fill="white"/>
<path d="M30.5981 34.6499V33.0947H31.2086V34.6499H30.5981Z" fill="white"/>
<path d="M6 37.6499V36.0947H7.06808V37.6499H6Z" fill="white"/>
<path d="M6.89504 37.6499V36.0947H8.11542V37.6499H6.89504Z" fill="white"/>
<path d="M7.94171 37.6499V36.0947H8.55224V37.6499H7.94171Z" fill="white"/>
<path d="M8.37786 37.6499V36.0947H10.3624V37.6499H8.37786Z" fill="white"/>
<path d="M10.2645 37.6499V36.0947H11.7908V37.6499H10.2645Z" fill="white"/>
<path d="M11.5406 37.6499V36.0947H13.0669V37.6499H11.5406Z" fill="white"/>
<path d="M12.8557 37.6499V36.0947H14.382V37.6499H12.8557Z" fill="white"/>
<path d="M14.0553 37.6499V36.0947H14.6658V37.6499H14.0553Z" fill="white"/>
<path d="M14.4914 37.6499V36.0947H15.8648V37.6499H14.4914Z" fill="white"/>
<path d="M15.6535 37.6499V36.0947H17.1798V37.6499H15.6535Z" fill="white"/>
<path d="M17.0061 37.6499V36.0947H18.3795V37.6499H17.0061Z" fill="white"/>
<path d="M18.0729 37.6499V36.0947H19.5992V37.6499H18.0729Z" fill="white"/>
<path d="M19.2725 37.6499V36.0947H19.8831V37.6499H19.2725Z" fill="white"/>
<path d="M19.7087 37.6499V36.0947H21.8455V37.6499H19.7087Z" fill="white"/>
<path d="M21.5953 37.6499V36.0947H23.1216V37.6499H21.5953Z" fill="white"/>
<path d="M22.9479 37.6499V36.0947H24.4742V37.6499H22.9479Z" fill="white"/>
<path d="M24.3005 37.6499V36.0947H25.6739V37.6499H24.3005Z" fill="white"/>
<path d="M25.5002 37.6499V36.0947H26.1107V37.6499H25.5002Z" fill="white"/>
<path d="M25.9363 37.6499V36.0947H27.0044V37.6499H25.9363Z" fill="white"/>
<path d="M26.6784 37.6499V36.0947H28.2047V37.6499H26.6784Z" fill="white"/>
<path d="M28.031 37.6499V36.0947H29.0991V37.6499H28.031Z" fill="white"/>
<path d="M28.926 37.6499V36.0947H30.2994V37.6499H28.926Z" fill="white"/>
<path d="M30.0881 37.6499V36.0947H30.6986V37.6499H30.0881Z" fill="white"/>
<path d="M6 40.6499V39.0947H7.06808V40.6499H6Z" fill="white"/>
<path d="M6.89504 40.6499V39.0947H8.26839V40.6499H6.89504Z" fill="white"/>
<path d="M8.05711 40.6499V39.0947H8.66764V40.6499H8.05711Z" fill="white"/>
<path d="M8.64622 40.6499V39.0947H9.8666V40.6499H8.64622Z" fill="white"/>
<path d="M9.69289 40.6499V39.0947H11.0662V40.6499H9.69289Z" fill="white"/>
<path d="M10.969 40.6499V39.0947H12.4953V40.6499H10.969Z" fill="white"/>
<path d="M12.1686 40.6499V39.0947H13.542V40.6499H12.1686Z" fill="white"/>
<path d="M13.2354 40.6499V39.0947H13.9983V40.6499H13.2354Z" fill="white"/>
<path d="M13.7481 40.6499V39.0947H14.3586V40.6499H13.7481Z" fill="white"/>
<path d="M14.1842 40.6499V39.0947H15.2523V40.6499H14.1842Z" fill="white"/>
<path d="M15.0793 40.6499V39.0947H16.1473V40.6499H15.0793Z" fill="white"/>
<path d="M15.8213 40.6499V39.0947H16.5842V40.6499H15.8213Z" fill="white"/>
<path d="M16.4104 40.6499V39.0947H17.7838V40.6499H16.4104Z" fill="white"/>
<path d="M17.5725 40.6499V39.0947H18.183V40.6499H17.5725Z" fill="white"/>
<path d="M18.1616 40.6499V39.0947H19.382V40.6499H18.1616Z" fill="white"/>
<path d="M19.2083 40.6499V39.0947H20.5816V40.6499H19.2083Z" fill="white"/>
<path d="M20.4844 40.6499V39.0947H22.0107V40.6499H20.4844Z" fill="white"/>
<path d="M21.684 40.6499V39.0947H23.0574V40.6499H21.684Z" fill="white"/>
<path d="M22.7508 40.6499V39.0947H23.5137V40.6499H22.7508Z" fill="white"/>
<path d="M23.2635 40.6499V39.0947H23.874V40.6499H23.2635Z" fill="white"/>
<path d="M23.6996 40.6499V39.0947H24.9207V40.6499H23.6996Z" fill="white"/>
<path d="M24.7463 40.6499V39.0947H25.8144V40.6499H24.7463Z" fill="white"/>
<path d="M25.4884 40.6499V39.0947H26.2512V40.6499H25.4884Z" fill="white"/>
<path d="M26.0775 40.6499V39.0947H27.4508V40.6499H26.0775Z" fill="white"/>
<path d="M27.2395 40.6499V39.0947H27.8501V40.6499H27.2395Z" fill="white"/>
<path d="M27.8286 40.6499V39.0947H29.202V40.6499H27.8286Z" fill="white"/>
<path d="M29.1812 40.6499V39.0947H30.4016V40.6499H29.1812Z" fill="white"/>
<path d="M30.2279 40.6499V39.0947H31.296V40.6499H30.2279Z" fill="white"/>
<path d="M30.97 40.6499V39.0947H31.5805V40.6499H30.97Z" fill="white"/>
<path d="M6 43.6499V42.0947H7.52631V43.6499H6Z" fill="white"/>
<path d="M7.50557 43.6499V42.0947H8.72595V43.6499H7.50557Z" fill="white"/>
<path d="M8.55224 43.6499V42.0947H9.62032V43.6499H8.55224Z" fill="white"/>
<path d="M9.60025 43.6499V42.0947H10.9736V43.6499H9.60025Z" fill="white"/>
<path d="M10.7999 43.6499V42.0947H12.3262V43.6499H10.7999Z" fill="white"/>
<path d="M12.1525 43.6499V42.0947H12.763V43.6499H12.1525Z" fill="white"/>
<path d="M12.5886 43.6499V42.0947H13.6567V43.6499H12.5886Z" fill="white"/>
<path d="M13.4837 43.6499V42.0947H14.7041V43.6499H13.4837Z" fill="white"/>
<path d="M14.5303 43.6499V42.0947H15.1409V43.6499H14.5303Z" fill="white"/>
<path d="M15.1195 43.6499V42.0947H16.4928V43.6499H15.1195Z" fill="white"/>
<path d="M16.1661 43.6499V42.0947H17.6924V43.6499H16.1661Z" fill="white"/>
<path d="M17.3658 43.6499V42.0947H17.9763V43.6499H17.3658Z" fill="white"/>
<path d="M17.8019 43.6499V42.0947H19.1753V43.6499H17.8019Z" fill="white"/>
<path d="M18.964 43.6499V42.0947H20.0321V43.6499H18.964Z" fill="white"/>
<path d="M19.706 43.6499V42.0947H21.2324V43.6499H19.706Z" fill="white"/>
<path d="M20.9822 43.6499V42.0947H22.3555V43.6499H20.9822Z" fill="white"/>
<path d="M22.049 43.6499V42.0947H23.1171V43.6499H22.049Z" fill="white"/>
<path d="M22.791 43.6499V42.0947H23.8591V43.6499H22.791Z" fill="white"/>
<path d="M23.8391 43.6499V42.0947H25.2124V43.6499H23.8391Z" fill="white"/>
<path d="M25.0387 43.6499V42.0947H26.565V43.6499H25.0387Z" fill="white"/>
<path d="M26.3913 43.6499V42.0947H27.0018V43.6499H26.3913Z" fill="white"/>
<path d="M26.8274 43.6499V42.0947H28.3538V43.6499H26.8274Z" fill="white"/>
<path d="M28.333 43.6499V42.0947H29.7064V43.6499H28.333Z" fill="white"/>
<path d="M29.4562 43.6499V42.0947H30.0667V43.6499H29.4562Z" fill="white"/>
<path d="M6 46.6499V45.0947H7.52631V46.6499H6Z" fill="white"/>
<path d="M7.27612 46.6499V45.0947H8.80243V46.6499H7.27612Z" fill="white"/>
<path d="M8.62872 46.6499V45.0947H10.155V46.6499H8.62872Z" fill="white"/>
<path d="M9.90484 46.6499V45.0947H10.9729V46.6499H9.90484Z" fill="white"/>
<path d="M10.9529 46.6499V45.0947H12.3262V46.6499H10.9529Z" fill="white"/>
<path d="M12.1525 46.6499V45.0947H12.9153V46.6499H12.1525Z" fill="white"/>
<path d="M12.6651 46.6499V45.0947H13.2756V46.6499H12.6651Z" fill="white"/>
<path d="M13.1013 46.6499V45.0947H14.7805V46.6499H13.1013Z" fill="white"/>
<path d="M14.6833 46.6499V45.0947H16.0567V46.6499H14.6833Z" fill="white"/>
<path d="M15.883 46.6499V45.0947H17.4093V46.6499H15.883Z" fill="white"/>
<path d="M17.1591 46.6499V45.0947H17.7696V46.6499H17.1591Z" fill="white"/>
<path d="M17.5952 46.6499V45.0947H18.6633V46.6499H17.5952Z" fill="white"/>
<path d="M18.3373 46.6499V45.0947H19.8636V46.6499H18.3373Z" fill="white"/>
<path d="M19.6899 46.6499V45.0947H21.2162V46.6499H19.6899Z" fill="white"/>
<path d="M21.0425 46.6499V45.0947H22.4158V46.6499H21.0425Z" fill="white"/>
<path d="M22.1656 46.6499V45.0947H22.7762V46.6499H22.1656Z" fill="white"/>
<path d="M22.6018 46.6499V45.0947H24.1281V46.6499H22.6018Z" fill="white"/>
<path d="M23.9544 46.6499V45.0947H25.4807V46.6499H23.9544Z" fill="white"/>
<path d="M25.154 46.6499V45.0947H26.5274V46.6499H25.154Z" fill="white"/>
<path d="M26.4302 46.6499V45.0947H27.9565V46.6499H26.4302Z" fill="white"/>
<path d="M27.6298 46.6499V45.0947H28.2403V46.6499H27.6298Z" fill="white"/>
<path d="M28.0659 46.6499V45.0947H29.5922V46.6499H28.0659Z" fill="white"/>
<path d="M29.3421 46.6499V45.0947H29.9526V46.6499H29.3421Z" fill="white"/>
<path d="M6.15297 49.6499V48.0947H7.52631V49.6499H6.15297Z" fill="white"/>
<path d="M7.42909 49.6499V48.0947H8.64947V49.6499H7.42909Z" fill="white"/>
<path d="M8.47576 49.6499V48.0947H9.54384V49.6499H8.47576Z" fill="white"/>
<path d="M9.21783 49.6499V48.0947H10.7441V49.6499H9.21783Z" fill="white"/>
<path d="M10.5704 49.6499V48.0947H11.9438V49.6499H10.5704Z" fill="white"/>
<path d="M11.7701 49.6499V48.0947H12.8382V49.6499H11.7701Z" fill="white"/>
<path d="M12.5121 49.6499V48.0947H13.5802V49.6499H12.5121Z" fill="white"/>
<path d="M13.4072 49.6499V48.0947H14.9335V49.6499H13.4072Z" fill="white"/>
<path d="M14.6833 49.6499V48.0947H15.7514V49.6499H14.6833Z" fill="white"/>
<path d="M15.5784 49.6499V48.0947H16.1889V49.6499H15.5784Z" fill="white"/>
<path d="M16.0145 49.6499V48.0947H17.0826V49.6499H16.0145Z" fill="white"/>
<path d="M16.9095 49.6499V48.0947H18.1299V49.6499H16.9095Z" fill="white"/>
<path d="M17.9562 49.6499V48.0947H18.5667V49.6499H17.9562Z" fill="white"/>
<path d="M18.5453 49.6499V48.0947H19.9187V49.6499H18.5453Z" fill="white"/>
<path d="M19.592 49.6499V48.0947H21.1183V49.6499H19.592Z" fill="white"/>
<path d="M20.7916 49.6499V48.0947H21.4022V49.6499H20.7916Z" fill="white"/>
<path d="M21.2278 49.6499V48.0947H22.7541V49.6499H21.2278Z" fill="white"/>
<path d="M22.5039 49.6499V48.0947H23.1144V49.6499H22.5039Z" fill="white"/>
<path d="M22.94 49.6499V48.0947H24.4664V49.6499H22.94Z" fill="white"/>
<path d="M24.2926 49.6499V48.0947H25.666V49.6499H24.2926Z" fill="white"/>
<path d="M25.3594 49.6499V48.0947H26.8858V49.6499H25.3594Z" fill="white"/>
<path d="M26.5591 49.6499V48.0947H28.0854V49.6499H26.5591Z" fill="white"/>
<path d="M27.8352 49.6499V48.0947H28.9033V49.6499H27.8352Z" fill="white"/>
<path d="M28.5773 49.6499V48.0947H29.1878V49.6499H28.5773Z" fill="white"/>
<path d="M6 52.6499V51.0947H7.37335V52.6499H6Z" fill="white"/>
<path d="M7.27612 52.6499V51.0947H8.4965V52.6499H7.27612Z" fill="white"/>
<path d="M8.32279 52.6499V51.0947H9.8491V52.6499H8.32279Z" fill="white"/>
<path d="M9.82836 52.6499V51.0947H11.2017V52.6499H9.82836Z" fill="white"/>
<path d="M11.028 52.6499V51.0947H12.0961V52.6499H11.028Z" fill="white"/>
<path d="M11.7701 52.6499V51.0947H13.1434V52.6499H11.7701Z" fill="white"/>
<path d="M12.9898 52.6499V51.0947H14.3632V52.6499H12.9898Z" fill="white"/>
<path d="M14.113 52.6499V51.0947H14.8758V52.6499H14.113Z" fill="white"/>
<path d="M14.6256 52.6499V51.0947H15.3884V52.6499H14.6256Z" fill="white"/>
</g>
<rect width="12" height="14" transform="translate(25 43.6504)" fill="#364B60"/>
<path d="M30.6787 47.5117C31.5999 47.5117 32.2721 47.7103 32.6953 48.1074C33.1185 48.5013 33.3301 49.0449 33.3301 49.7383C33.3301 50.0508 33.2829 50.3503 33.1885 50.6367C33.0941 50.9199 32.9395 51.1722 32.7246 51.3936C32.513 51.6149 32.2298 51.7907 31.875 51.9209C31.5202 52.0479 31.0824 52.1113 30.5615 52.1113H29.9121V54.6504H28.3984V47.5117H30.6787ZM30.6006 48.752H29.9121V50.8711H30.4102C30.6934 50.8711 30.9391 50.8337 31.1475 50.7588C31.3558 50.6839 31.5169 50.5667 31.6309 50.4072C31.7448 50.2477 31.8018 50.0426 31.8018 49.792C31.8018 49.4404 31.7041 49.18 31.5088 49.0107C31.3135 48.8382 31.0107 48.752 30.6006 48.752Z" fill="white"/>
<path d="M11.3333 63.6504H2V69.9985H11.3333V63.6504Z" fill="#80A65F"/>
</g>
<defs>
<clipPath id="clip0_39_124700">
<rect width="39" height="71.9033" fill="white" transform="translate(0 0.0947266)"/>
</clipPath>
</defs>
</svg>
