<svg enable-background="new 0 0 50 50" viewBox="0 0 50 50" xmlns="http://www.w3.org/2000/svg"><path d="m8.1 15.39h22.83v22.83h-22.83z" fill="#e8777b" stroke="#232323" transform="matrix(.7071 .7071 -.7071 .7071 24.6715 -5.9523)"/><ellipse cx="19.52" cy="26.8" fill="none" rx="9.81" ry="4.82" stroke="#232323" stroke-miterlimit="10"/><g fill="#232323"><path d="m10.1 5.31-1.7-3.17h1.64l.57 1.23c.15.3.29.64.47 1.05h.04c.15-.41.29-.75.42-1.05l.52-1.23h1.57l-1.69 3.24 1.8 3.28h-1.64l-.65-1.33c-.16-.34-.31-.67-.49-1.07h-.04c-.15.4-.3.73-.44 1.07l-.61 1.33h-1.58z"/><path d="m15.77 5.31-1.7-3.17h1.64l.57 1.23c.15.3.29.64.47 1.05h.04c.15-.41.29-.75.42-1.05l.52-1.23h1.57l-1.69 3.24 1.8 3.28h-1.64l-.65-1.33c-.16-.34-.31-.67-.49-1.07h-.04c-.15.4-.3.73-.44 1.07l-.61 1.33h-1.58z"/><path d="m21.44 5.31-1.7-3.17h1.64l.57 1.23c.15.3.29.64.47 1.05h.04c.15-.41.29-.75.42-1.05l.52-1.23h1.57l-1.69 3.24 1.8 3.28h-1.64l-.65-1.33c-.16-.34-.31-.67-.49-1.07h-.04c-.15.4-.3.73-.44 1.07l-.61 1.33h-1.58z"/><path d="m27.11 5.31-1.7-3.17h1.64l.57 1.23c.15.3.29.64.47 1.05h.04c.15-.41.29-.75.42-1.05l.52-1.23h1.57l-1.69 3.24 1.8 3.28h-1.64l-.65-1.33c-.16-.34-.31-.67-.49-1.07h-.04c-.15.4-.3.73-.44 1.07l-.61 1.33h-1.58z"/><path d="m36.39 5.88c0-1.76.48-3.2 1.32-4.57l.92.38c-.73 1.3-1.05 2.77-1.05 4.19s.32 2.89 1.05 4.19l-.92.38c-.84-1.37-1.32-2.81-1.32-4.57z"/><path d="m39.54 5.66h3.94v.94h-3.94z"/><path d="m44.39 10.07c.74-1.3 1.06-2.77 1.06-4.19s-.32-2.89-1.06-4.19l.92-.38c.84 1.37 1.32 2.81 1.32 4.57s-.48 3.2-1.32 4.57z"/></g><path d="m3.37 48.69v-21.89" fill="none" stroke="#232323"/></svg>