<?xml version="1.0" encoding="utf-8"?>
<!-- Generator: Adobe Illustrator 27.2.0, SVG Export Plug-In . SVG Version: 6.00 Build 0)  -->
<svg version="1.1" xmlns="http://www.w3.org/2000/svg" xmlns:xlink="http://www.w3.org/1999/xlink" x="0px" y="0px"
	 viewBox="0 0 50 50" style="enable-background:new 0 0 50 50;" xml:space="preserve">
<style type="text/css">
	.st0{fill:#E8777B;stroke:#232323;}
	.st1{fill:none;stroke:#232323;}
	.st2{fill:#232323;}
	.st3{fill:none;stroke:#232323;stroke-miterlimit:10;}
	.st4{fill:none;stroke:#232323;stroke-linejoin:round;stroke-miterlimit:10;}
	.st5{fill:none;stroke:#232323;stroke-linecap:round;stroke-linejoin:round;}
	.st6{fill:#7891C9;stroke:#232323;}
</style>
<g id="Russia">
	<g>
		<g>
			
				<rect x="13.58" y="17.49" transform="matrix(0.7071 0.7071 -0.7071 0.7071 27.7611 -9.2117)" class="st0" width="22.83" height="22.83"/>
			<line class="st1" x1="16.93" y1="36.98" x2="33.07" y2="20.83"/>
			<line class="st1" x1="16.93" y1="20.83" x2="33.07" y2="36.98"/>
			<path id="path2985_00000075842727566931444370000008593304683055894968_" class="st4" d="M19.42,37.75c0,0,1.66-2.27,3.33-2.18
				c1.9,0.09,2.24,2.89,2.24,2.89s0.3-2.79,2.24-2.89s3.33,2.18,3.33,2.18"/>
			<g>
				<path class="st2" d="M19.26,4.24h1.47v6.52h-1.47V4.24z"/>
				<path class="st2" d="M24.27,4.24h1.47v6.52h-1.47V4.24z"/>
				<path class="st2" d="M29.28,4.24h1.47v6.52h-1.47V4.24z"/>
			</g>
		</g>
	</g>
</g>
<g id="Ukraine">
</g>
</svg>
