<?xml version="1.0" encoding="utf-8"?>
<!-- Generator: Adobe Illustrator 26.5.0, SVG Export Plug-In . SVG Version: 6.00 Build 0)  -->
<svg version="1.1" xmlns="http://www.w3.org/2000/svg" xmlns:xlink="http://www.w3.org/1999/xlink" x="0px" y="0px"
	 viewBox="0 0 50 50" style="enable-background:new 0 0 50 50;" xml:space="preserve">
<style type="text/css">
	.st0{fill:#E8777B;stroke:#232323;}
	.st1{fill:none;stroke:#232323;stroke-miterlimit:10;}
	.st2{fill:none;stroke:#232323;}
	.st3{fill:#232323;}
	.st4{fill:none;stroke:#232323;stroke-linejoin:round;stroke-miterlimit:10;}
	.st5{fill:none;stroke:#232323;stroke-linecap:round;stroke-linejoin:round;}
	.st6{fill:#7891C9;stroke:#232323;}
</style>
<g id="Russia">
	<g>
		<g>
			
				<rect x="13.58" y="17.49" transform="matrix(0.7071 0.7071 -0.7071 0.7071 27.7611 -9.2117)" class="st0" width="22.83" height="22.83"/>
			<g id="ICON_00000051377093602452400260000013779076038110469808_" transform="translate(0 100)">
				<path id="path2987_00000165217838394268843550000007797316783307351699_" class="st3" d="M29.63-70.98
					c0,2.56-2.07,4.63-4.63,4.63s-4.63-2.07-4.63-4.63c0,0,0,0,0,0c0-2.56,2.07-4.63,4.63-4.63C27.55-75.61,29.63-73.54,29.63-70.98
					C29.63-70.98,29.63-70.98,29.63-70.98z"/>
			</g>
			<g>
				<path class="st3" d="M19.26,4.24h1.47v6.52h-1.47V4.24z"/>
				<path class="st3" d="M24.27,4.24h1.47v6.52h-1.47V4.24z"/>
				<path class="st3" d="M29.28,4.24h1.47v6.52h-1.47V4.24z"/>
			</g>
		</g>
	</g>
</g>
<g id="Ukraine">
</g>
</svg>
