<?xml version="1.0" encoding="utf-8"?>
<!-- Generator: Adobe Illustrator 26.5.0, SVG Export Plug-In . SVG Version: 6.00 Build 0)  -->
<svg version="1.1" xmlns="http://www.w3.org/2000/svg" xmlns:xlink="http://www.w3.org/1999/xlink" x="0px" y="0px"
	 viewBox="0 0 50 50" style="enable-background:new 0 0 50 50;" xml:space="preserve">
<style type="text/css">
	.st0{fill:#E8777B;stroke:#232323;}
	.st1{fill:none;stroke:#232323;stroke-miterlimit:10;}
	.st2{fill:none;stroke:#232323;}
	.st3{fill:#232323;}
	.st4{fill:none;stroke:#232323;stroke-linejoin:round;stroke-miterlimit:10;}
	.st5{fill:#7891C9;stroke:#232323;}
</style>
<g id="Russia">
	<g>
		<g>
			
				<rect x="13.58" y="17.49" transform="matrix(0.7071 0.7071 -0.7071 0.7071 27.7611 -9.2117)" class="st0" width="22.83" height="22.83"/>
			<line class="st2" x1="16.93" y1="36.98" x2="33.07" y2="20.83"/>
			<line class="st2" x1="16.93" y1="20.83" x2="33.07" y2="36.98"/>
			<polyline class="st1" points="28.64,18.2 25,21.84 21.36,18.2 			"/>
			<g>
				<path class="st3" d="M21.25,7.41l-1.7-3.17h1.64l0.57,1.23c0.15,0.3,0.29,0.64,0.47,1.05h0.04c0.15-0.41,0.29-0.75,0.42-1.05
					l0.52-1.23h1.57l-1.69,3.24l1.8,3.28h-1.64L22.6,9.43c-0.16-0.34-0.31-0.67-0.49-1.07h-0.04c-0.15,0.4-0.3,0.73-0.44,1.07
					l-0.61,1.33h-1.58L21.25,7.41z"/>
				<path class="st3" d="M26.92,7.41l-1.7-3.17h1.64l0.57,1.23c0.15,0.3,0.29,0.64,0.47,1.05h0.04c0.15-0.41,0.29-0.75,0.42-1.05
					l0.52-1.23h1.57l-1.69,3.24l1.8,3.28h-1.64l-0.65-1.33c-0.16-0.34-0.31-0.67-0.49-1.07h-0.04c-0.15,0.4-0.3,0.73-0.44,1.07
					l-0.61,1.33h-1.58L26.92,7.41z"/>
			</g>
		</g>
	</g>
</g>
<g id="Ukraine">
</g>
</svg>
