<?xml version="1.0" encoding="utf-8"?>
<!-- Generator: Adobe Illustrator 27.2.0, SVG Export Plug-In . SVG Version: 6.00 Build 0)  -->
<svg version="1.1" xmlns="http://www.w3.org/2000/svg" xmlns:xlink="http://www.w3.org/1999/xlink" x="0px" y="0px"
	 viewBox="0 0 50 50" style="enable-background:new 0 0 50 50;" xml:space="preserve">
<style type="text/css">
	.st0{fill:#E8777B;stroke:#232323;}
	.st1{fill:none;stroke:#232323;}
	.st2{fill:#232323;}
	.st3{fill:none;stroke:#232323;stroke-miterlimit:10;}
	.st4{fill:none;stroke:#232323;stroke-linejoin:round;stroke-miterlimit:10;}
	.st5{fill:none;stroke:#232323;stroke-linecap:round;stroke-linejoin:round;}
	.st6{fill:#7891C9;stroke:#232323;}
</style>
<g id="Russia">
	<g>
		<g>
			
				<rect x="13.58" y="14.97" transform="matrix(0.7071 0.7071 -0.7071 0.7071 25.983 -9.9482)" class="st0" width="22.83" height="22.83"/>
			<line class="st1" x1="16.93" y1="34.46" x2="33.07" y2="18.32"/>
			<line class="st1" x1="16.93" y1="18.32" x2="33.07" y2="34.46"/>
			<path id="path2985_00000101101675278399724160000002670765152351121042_" class="st4" d="M19.42,35.24c0,0,1.66-2.27,3.33-2.18
				c1.9,0.09,2.24,2.89,2.24,2.89s0.3-2.79,2.24-2.89c1.94-0.1,3.33,2.18,3.33,2.18"/>
			<g>
				<path class="st2" d="M21.25,4.9l-1.7-3.17h1.64l0.57,1.23c0.15,0.3,0.29,0.64,0.47,1.05h0.04c0.15-0.41,0.29-0.75,0.42-1.05
					l0.52-1.23h1.57l-1.69,3.24l1.8,3.28h-1.64L22.6,6.91c-0.16-0.34-0.31-0.67-0.49-1.07h-0.04c-0.15,0.4-0.3,0.73-0.44,1.07
					l-0.61,1.33h-1.58L21.25,4.9z"/>
				<path class="st2" d="M26.92,4.9l-1.7-3.17h1.64l0.57,1.23c0.15,0.3,0.29,0.64,0.47,1.05h0.04c0.15-0.41,0.29-0.75,0.42-1.05
					l0.52-1.23h1.57l-1.69,3.24l1.8,3.28h-1.64l-0.65-1.33c-0.16-0.34-0.31-0.67-0.49-1.07h-0.04c-0.15,0.4-0.3,0.73-0.44,1.07
					l-0.61,1.33h-1.58L26.92,4.9z"/>
			</g>
			<g>
				<line class="st1" x1="8.85" y1="48.27" x2="8.85" y2="26.39"/>
			</g>
		</g>
	</g>
</g>
<g id="Ukraine">
</g>
</svg>
