<?xml version="1.0" encoding="utf-8"?>
<!-- Generator: Adobe Illustrator 26.5.0, SVG Export Plug-In . SVG Version: 6.00 Build 0)  -->
<svg version="1.1" xmlns="http://www.w3.org/2000/svg" xmlns:xlink="http://www.w3.org/1999/xlink" x="0px" y="0px"
	 viewBox="0 0 50 50" style="enable-background:new 0 0 50 50;" xml:space="preserve">
<style type="text/css">
	.st0{fill:#E8777B;stroke:#232323;}
	.st1{fill:none;stroke:#232323;stroke-miterlimit:10;}
	.st2{fill:none;stroke:#232323;}
	.st3{fill:#232323;}
	.st4{fill:none;stroke:#232323;stroke-linejoin:round;stroke-miterlimit:10;}
	.st5{fill:#7891C9;stroke:#232323;}
</style>
<g id="Russia">
	<g>
		<g>
			
				<rect x="13.58" y="17.49" transform="matrix(0.7071 0.7071 -0.7071 0.7071 27.7611 -9.2117)" class="st0" width="22.83" height="22.83"/>
			<path class="st3" d="M32.66,25.79c-0.91-0.52-1.81-0.56-2.55-0.12L25,28.73l-5.12-3.06c-0.73-0.44-1.64-0.39-2.55,0.12
				c-1.2,0.68-2.15,2.05-2.15,3.12s0.94,2.43,2.15,3.12c0.49,0.28,0.99,0.42,1.45,0.42c0.39,0,0.76-0.1,1.09-0.3L25,29.08l5.12,3.06
				c0.73,0.44,1.64,0.39,2.55-0.12c1.2-0.68,2.15-2.05,2.15-3.12S33.87,26.47,32.66,25.79z"/>
			<g>
				<path class="st3" d="M19.26,4.24h1.47v6.52h-1.47V4.24z"/>
				<path class="st3" d="M24.27,4.24h1.47v6.52h-1.47V4.24z"/>
				<path class="st3" d="M29.28,4.24h1.47v6.52h-1.47V4.24z"/>
			</g>
		</g>
	</g>
</g>
<g id="Ukraine">
</g>
</svg>
