<?xml version="1.0" encoding="utf-8"?>
<!-- Generator: Adobe Illustrator 26.5.0, SVG Export Plug-In . SVG Version: 6.00 Build 0)  -->
<svg version="1.1" xmlns="http://www.w3.org/2000/svg" xmlns:xlink="http://www.w3.org/1999/xlink" x="0px" y="0px"
	 viewBox="0 0 50 50" style="enable-background:new 0 0 50 50;" xml:space="preserve">
<style type="text/css">
	.st0{fill:#E8777B;stroke:#232323;}
	.st1{fill:none;stroke:#232323;stroke-miterlimit:10;}
	.st2{fill:none;stroke:#232323;}
	.st3{fill:#232323;}
	.st4{fill:none;stroke:#232323;stroke-linejoin:round;stroke-miterlimit:10;}
	.st5{fill:#7891C9;stroke:#232323;}
</style>
<g id="Russia">
	<g>
		<g>
			<g>
				<line class="st2" x1="8.85" y1="49.45" x2="8.85" y2="27.57"/>
			</g>
		</g>
		<g>
			<g>
				
					<rect x="13.58" y="16.15" transform="matrix(0.7071 0.7071 -0.7071 0.7071 26.8187 -9.602)" class="st0" width="22.83" height="22.83"/>
				<ellipse class="st1" cx="25" cy="27.57" rx="9.81" ry="4.82"/>
				<line class="st2" x1="16.93" y1="35.65" x2="33.07" y2="19.5"/>
				<line class="st2" x1="16.93" y1="19.5" x2="33.07" y2="35.65"/>
				<g>
					<g>
						<path class="st3" d="M21.74,2.91h1.47v6.52h-1.47V2.91z"/>
						<path class="st3" d="M26.75,2.91h1.47v6.52h-1.47V2.91z"/>
					</g>
					<polygon class="st3" points="15.19,0.55 15.19,1.28 15.19,2.01 15.19,7.8 16.66,7.8 16.66,2.01 33.34,2.01 33.34,7.8 
						34.81,7.8 34.81,2.01 34.81,1.28 34.81,0.55 					"/>
				</g>
			</g>
		</g>
	</g>
</g>
<g id="Ukraine">
</g>
</svg>
