<svg fill="none" height="50" viewBox="0 0 50 50" width="50" xmlns="http://www.w3.org/2000/svg"><g stroke="#232323"><path d="m19.5156 10.1787 16.1431 16.1431-16.1431 16.1431-16.14307-16.1431z" fill="#e8777b"/><path d="m19.5209 31.15c5.418 0 9.81-2.158 9.81-4.82s-4.392-4.82-9.81-4.82c-5.4179 0-9.80996 2.158-9.80996 4.82s4.39206 4.82 9.80996 4.82z" stroke-miterlimit="10"/><path d="m11.4453 34.4 16.14-16.14"/><path d="m11.4453 18.26 16.14 16.14"/></g><path d="m10.0991 4.82992-1.70004-3.16h1.64004l.57 1.23c.15.3.29.64.47 1.05h.04c.15-.41.29-.75.42-1.05l.52-1.23h1.57l-1.69 3.23 1.8 3.28h-1.64l-.65-1.33c-.16-.34-.31-.67-.49-1.07h-.04c-.15.4-.3.73-.44 1.07l-.61004 1.33h-1.58z" fill="#232323"/><path d="m15.7709 4.82991-1.7-3.17h1.64l.57 1.23c.15.3.29.64.47 1.05h.04c.15-.41.29-.75.42-1.05l.52-1.23h1.57l-1.69 3.24 1.8 3.28h-1.64l-.65-1.33c-.16-.34-.31-.67-.49-1.07h-.04c-.15.4-.3.73-.44 1.07l-.61 1.33h-1.58z" fill="#232323"/><path d="m21.4428 4.82991-1.7-3.17h1.64l.57 1.23c.15.3.29.64.47 1.05h.04c.15-.41.29-.75.42-1.05l.52-1.23h1.57l-1.69 3.24 1.8 3.28h-1.64l-.65-1.33c-.16-.34-.31-.67-.49-1.07h-.04c-.15.4-.3.73-.44 1.07l-.61 1.33h-1.58z" fill="#232323"/><path d="m27.1069 4.82991-1.7-3.17h1.64l.57 1.23c.15.3.29.64.47 1.05h.04c.15-.41.29-.75.42-1.05l.52-1.23h1.57l-1.69 3.24 1.8 3.28h-1.64l-.65-1.33c-.16-.34-.31-.67-.49-1.07h-.04c-.15.4-.3.73-.44 1.07l-.61 1.33h-1.58z" fill="#232323"/><path d="m3.36719 49.1601v-22.83" stroke="#232323"/></svg>