<?xml version="1.0" encoding="utf-8"?>
<!-- Generator: Adobe Illustrator 27.2.0, SVG Export Plug-In . SVG Version: 6.00 Build 0)  -->
<svg version="1.1" xmlns="http://www.w3.org/2000/svg" xmlns:xlink="http://www.w3.org/1999/xlink" x="0px" y="0px"
	 viewBox="0 0 50 50" style="enable-background:new 0 0 50 50;" xml:space="preserve">
<style type="text/css">
	.st0{fill:#E8777B;stroke:#232323;}
	.st1{fill:none;stroke:#232323;}
	.st2{fill:#232323;}
	.st3{fill:none;stroke:#232323;stroke-miterlimit:10;}
	.st4{fill:none;stroke:#232323;stroke-linejoin:round;stroke-miterlimit:10;}
	.st5{fill:none;stroke:#232323;stroke-linecap:round;stroke-linejoin:round;}
	.st6{fill:#7891C9;stroke:#232323;}
</style>
<g id="Russia">
	<g>
		<g>
			
				<rect x="13.58" y="14.5" transform="matrix(0.7071 0.7071 -0.7071 0.7071 25.6465 -10.0876)" class="st0" width="22.83" height="22.83"/>
			<ellipse class="st3" cx="25" cy="25.91" rx="9.81" ry="4.82"/>
			<line class="st1" x1="16.93" y1="33.99" x2="33.07" y2="17.84"/>
			<line class="st1" x1="16.93" y1="17.84" x2="33.07" y2="33.99"/>
			<g>
				<path class="st2" d="M18.42,4.42l-1.7-3.17h1.64l0.57,1.23c0.15,0.3,0.29,0.64,0.47,1.05h0.04c0.15-0.41,0.29-0.75,0.42-1.05
					l0.52-1.23h1.57l-1.69,3.24l1.8,3.28h-1.64l-0.65-1.33c-0.16-0.34-0.31-0.67-0.49-1.07h-0.04c-0.15,0.4-0.3,0.73-0.44,1.07
					l-0.61,1.33h-1.58L18.42,4.42z"/>
				<path class="st2" d="M24.09,4.42l-1.7-3.17h1.64l0.57,1.23c0.15,0.3,0.29,0.64,0.47,1.05h0.04c0.15-0.41,0.29-0.75,0.42-1.05
					l0.52-1.23h1.57l-1.69,3.24l1.8,3.28h-1.64l-0.65-1.33c-0.16-0.34-0.31-0.67-0.49-1.07H24.9c-0.15,0.4-0.3,0.73-0.44,1.07
					l-0.61,1.33h-1.58L24.09,4.42z"/>
				<path class="st2" d="M29.76,4.42l-1.7-3.17h1.64l0.57,1.23c0.15,0.3,0.29,0.64,0.47,1.05h0.04c0.15-0.41,0.29-0.75,0.42-1.05
					l0.52-1.23h1.57l-1.69,3.24l1.8,3.28h-1.64L31.1,6.44c-0.16-0.34-0.31-0.67-0.49-1.07h-0.04c-0.15,0.4-0.3,0.73-0.44,1.07
					l-0.61,1.33h-1.58L29.76,4.42z"/>
			</g>
			<g>
				<line class="st1" x1="8.85" y1="48.75" x2="8.85" y2="25.91"/>
			</g>
		</g>
	</g>
</g>
<g id="Ukraine">
</g>
</svg>
