<svg enable-background="new 0 0 50 50" viewBox="0 0 50 50" xmlns="http://www.w3.org/2000/svg"><path d="m13.58 17.84h22.83v22.83h-22.83z" fill="#e8777b" stroke="#232323" transform="matrix(.7071 .7071 -.7071 .7071 28.0111 -9.1081)"/><path d="m24.09 7.76-1.7-3.17h1.64l.57 1.23c.15.3.29.64.47 1.05h.04c.15-.41.29-.75.42-1.05l.52-1.23h1.57l-1.69 3.24 1.8 3.28h-1.64l-.65-1.33c-.16-.34-.31-.67-.49-1.07h-.05c-.15.4-.3.73-.44 1.07l-.61 1.33h-1.58z" fill="#232323"/><path d="m16.93 37.33 16.14-16.14" fill="none" stroke="#232323"/><path d="m16.93 21.19 16.14 16.14" fill="none" stroke="#232323"/><path d="m31.74 31.49c-.13-.61-.36-1.12-.53-1.21-.11-.06-.14-.04-.23.11-.16.25-.38.46-.8.73-.51.33-.82.67-.91 1s-.05.44.12.35c.19-.1.31-.07.38.09.1.22-.05.41-.65.76-1.01.6-2.38 1.1-3.02 1.1-.31 0-.59-.12-.64-.26-.02-.07-.02-.89 0-1.83s.05-2.67.07-3.86.05-2.18.06-2.2.66-.03 1.44-.02c1.62.02 1.53.05 1.52-.54l-.01-.34c-.96-.07-1.95.06-2.91-.07-.02-.02-.04-.24-.04-.5l-.01-.42c.53-.19.91-.68.91-1.25 0-.74-.63-1.35-1.4-1.35s-1.4.6-1.4 1.35c0 .56.35 1.04.86 1.24.01.09.02.21.02.41v.57l-1.37-.02c-1.08-.02-1.39 0-1.47.07-.13.11-.15.82-.02.82l2.81-.01c0 .67.01 1.34 0 2.01-.03 1.38-.06 2.77-.07 4.15-.01.75-.03 1.47-.06 1.6-.11.49-.42.55-1.37.29-.99-.27-2.21-.87-2.42-1.19-.16-.25-.19-.46-.07-.6.06-.07.15-.1.2-.08s.11-.02.14-.11c.12-.32-.28-.78-1.06-1.25-.19-.11-.5-.35-.69-.54-.2-.19-.37-.31-.41-.29-.13.08-.38.66-.46 1.05-.16.77.04 1.91.42 2.35.2.24.31.24.35.01.08-.41.59-.29 1.14.26.44.44 1.27 1.07 1.63 1.24.14.07.34.17.44.24.1.06.41.19.69.29.58.2 1.25.55 1.52.79.1.09.26.21.34.27.15.1.16.1.26-.06.21-.33.58-.61 1.14-.88.31-.15.62-.28.67-.28.12 0 1.15-.46 1.77-.78.49-.26.71-.41 1.25-.89.61-.53.92-.59 1.25-.24l.2.22.13-.14c.23-.26.32-.51.36-1.09.03-.45.02-.69-.07-1.07zm-6.68-9.08c.38 0 .68.29.68.65s-.31.65-.68.65c-.38 0-.68-.29-.68-.65 0-.35.3-.65.68-.65z" fill="#232323"/></svg>