<?xml version="1.0" encoding="utf-8"?>
<!-- Generator: Adobe Illustrator 26.5.0, SVG Export Plug-In . SVG Version: 6.00 Build 0)  -->
<svg version="1.1" xmlns="http://www.w3.org/2000/svg" xmlns:xlink="http://www.w3.org/1999/xlink" x="0px" y="0px"
	 viewBox="0 0 50 50" style="enable-background:new 0 0 50 50;" xml:space="preserve">
<style type="text/css">
	.st0{fill:#E8777B;stroke:#232323;}
	.st1{fill:none;stroke:#232323;stroke-miterlimit:10;}
	.st2{fill:none;stroke:#232323;}
	.st3{fill:#232323;}
	.st4{fill:none;stroke:#232323;stroke-linejoin:round;stroke-miterlimit:10;}
	.st5{fill:#7891C9;stroke:#232323;}
</style>
<g id="Russia">
	<g>
		<g>
			
				<rect x="13.58" y="13.58" transform="matrix(0.7071 0.7071 -0.7071 0.7071 25 -10.3553)" class="st0" width="22.83" height="22.83"/>
			<path class="st3" d="M31.74,27.23c-0.13-0.61-0.36-1.12-0.53-1.21c-0.11-0.06-0.14-0.04-0.23,0.11c-0.16,0.25-0.38,0.46-0.8,0.73
				c-0.51,0.33-0.82,0.67-0.91,1c-0.09,0.33-0.05,0.44,0.12,0.35c0.19-0.1,0.31-0.07,0.38,0.09c0.1,0.22-0.05,0.41-0.65,0.76
				c-1.01,0.6-2.38,1.1-3.02,1.1c-0.31,0-0.59-0.12-0.64-0.26c-0.02-0.07-0.02-0.89,0-1.83c0.02-0.94,0.05-2.67,0.07-3.86
				c0.02-1.19,0.05-2.18,0.06-2.2c0.01-0.02,0.66-0.03,1.44-0.02c1.62,0.02,1.53,0.05,1.52-0.54l-0.01-0.34
				c-0.96-0.07-1.95,0.06-2.91-0.07c-0.02-0.02-0.04-0.24-0.04-0.5l-0.01-0.42c0.53-0.19,0.91-0.68,0.91-1.25
				c0-0.74-0.63-1.35-1.4-1.35s-1.4,0.6-1.4,1.35c0,0.56,0.35,1.04,0.86,1.24c0.01,0.09,0.02,0.21,0.02,0.41v0.57l-1.37-0.02
				c-1.08-0.02-1.39,0-1.47,0.07c-0.13,0.11-0.15,0.82-0.02,0.82l2.81-0.01c0,0.67,0.01,1.34,0,2.01c-0.03,1.38-0.06,2.77-0.07,4.15
				c-0.01,0.75-0.03,1.47-0.06,1.6c-0.11,0.49-0.42,0.55-1.37,0.29c-0.99-0.27-2.21-0.87-2.42-1.19c-0.16-0.25-0.19-0.46-0.07-0.6
				c0.06-0.07,0.15-0.1,0.2-0.08c0.05,0.02,0.11-0.02,0.14-0.11c0.12-0.32-0.28-0.78-1.06-1.25c-0.19-0.11-0.5-0.35-0.69-0.54
				c-0.2-0.19-0.37-0.31-0.41-0.29c-0.13,0.08-0.38,0.66-0.46,1.05c-0.16,0.77,0.04,1.91,0.42,2.35c0.2,0.24,0.31,0.24,0.35,0.01
				c0.08-0.41,0.59-0.29,1.14,0.26c0.44,0.44,1.27,1.07,1.63,1.24c0.14,0.07,0.34,0.17,0.44,0.24c0.1,0.06,0.41,0.19,0.69,0.29
				c0.58,0.2,1.25,0.55,1.52,0.79c0.1,0.09,0.26,0.21,0.34,0.27c0.15,0.1,0.16,0.1,0.26-0.06c0.21-0.33,0.58-0.61,1.14-0.88
				c0.31-0.15,0.62-0.28,0.67-0.28c0.12,0,1.15-0.46,1.77-0.78c0.49-0.26,0.71-0.41,1.25-0.89c0.61-0.53,0.92-0.59,1.25-0.24
				l0.2,0.22l0.13-0.14c0.23-0.26,0.32-0.51,0.36-1.09C31.84,27.85,31.83,27.61,31.74,27.23z M25.06,18.16
				c0.38,0,0.68,0.29,0.68,0.65c0,0.36-0.31,0.65-0.68,0.65c-0.38,0-0.68-0.29-0.68-0.65C24.38,18.45,24.68,18.16,25.06,18.16z"/>
		</g>
	</g>
</g>
<g id="Ukraine">
</g>
</svg>
