<?xml version="1.0" encoding="utf-8"?>
<!-- Generator: Adobe Illustrator 27.2.0, SVG Export Plug-In . SVG Version: 6.00 Build 0)  -->
<svg version="1.1" xmlns="http://www.w3.org/2000/svg" xmlns:xlink="http://www.w3.org/1999/xlink" x="0px" y="0px"
	 viewBox="0 0 50 50" style="enable-background:new 0 0 50 50;" xml:space="preserve">
<style type="text/css">
	.st0{fill:#E8777B;stroke:#232323;}
	.st1{fill:none;stroke:#232323;}
	.st2{fill:#232323;}
	.st3{fill:none;stroke:#232323;stroke-miterlimit:10;}
	.st4{fill:none;stroke:#232323;stroke-linejoin:round;stroke-miterlimit:10;}
	.st5{fill:none;stroke:#232323;stroke-linecap:round;stroke-linejoin:round;}
	.st6{fill:#7891C9;stroke:#232323;}
</style>
<g id="Russia">
	<g>
		<g>
			
				<rect x="13.58" y="17.49" transform="matrix(0.7071 0.7071 -0.7071 0.7071 27.7611 -9.2117)" class="st0" width="22.83" height="22.83"/>
			<g>
				<path class="st2" d="M21.76,4.24h1.47v6.52h-1.47V4.24z"/>
				<path class="st2" d="M26.77,4.24h1.47v6.52h-1.47V4.24z"/>
			</g>
			<g>
				<g>
					<path class="st2" d="M15.8,25.65h2.24c1.43,0,2.59,0.52,2.59,2.1c0,1.53-1.17,2.21-2.55,2.21h-0.81v2.21H15.8V25.65z
						 M17.99,28.79c0.81,0,1.2-0.36,1.2-1.04s-0.44-0.93-1.24-0.93h-0.68v1.97H17.99z"/>
					<path class="st2" d="M21.76,25.65h1.61l1.05,2.9c0.13,0.38,0.25,0.8,0.38,1.2h0.04c0.13-0.4,0.24-0.82,0.37-1.2l1.03-2.9h1.6
						v6.52h-1.34v-2.39c0-0.64,0.12-1.59,0.19-2.22h-0.04l-0.53,1.55l-0.93,2.49h-0.81l-0.93-2.49l-0.52-1.55h-0.04
						c0.07,0.63,0.19,1.58,0.19,2.22v2.39h-1.32V25.65z"/>
					<path class="st2" d="M29.07,28.94c0-2.16,1.43-3.42,3.08-3.42c0.84,0,1.52,0.4,1.96,0.85l-0.78,0.94
						c-0.33-0.3-0.68-0.52-1.15-0.52c-0.89,0-1.6,0.79-1.6,2.1c0,1.34,0.62,2.12,1.58,2.12c0.53,0,0.95-0.27,1.27-0.61l0.78,0.92
						c-0.54,0.63-1.26,0.96-2.11,0.96C30.45,32.28,29.07,31.13,29.07,28.94z"/>
				</g>
			</g>
		</g>
	</g>
</g>
<g id="Ukraine">
</g>
</svg>
