<svg enable-background="new 0 0 50 50" viewBox="0 0 50 50" xmlns="http://www.w3.org/2000/svg"><path d="m13.58 17.84h22.83v22.83h-22.83z" fill="#e8777b" stroke="#232323" transform="matrix(.7071 .7071 -.7071 .7071 28.0111 -9.1081)"/><path d="m24.09 7.76-1.7-3.17h1.64l.57 1.23c.15.3.29.64.47 1.05h.04c.15-.41.29-.75.42-1.05l.52-1.23h1.57l-1.69 3.24 1.8 3.28h-1.64l-.65-1.33c-.16-.34-.31-.67-.49-1.07h-.05c-.15.4-.3.73-.44 1.07l-.61 1.33h-1.58z" fill="#232323"/><g fill="none" stroke="#232323"><path d="m16.93 37.33 16.14-16.14"/><path d="m19.43 38.03s1.66-2.27 3.33-2.18c1.9.09 2.24 2.89 2.24 2.89s.3-2.79 2.24-2.89 3.33 2.18 3.33 2.18" stroke-linejoin="round" stroke-miterlimit="10"/></g></svg>