<svg enable-background="new 0 0 50 50" viewBox="0 0 50 50" xmlns="http://www.w3.org/2000/svg"><g stroke="#232323"><path d="m8.1 15.39h22.83v22.83h-22.83z" fill="#e8777b" transform="matrix(.7071 .7071 -.7071 .7071 24.6715 -5.9524)"/><path d="m11.45 34.88 16.14-16.15" fill="none"/><path d="m11.45 18.73 16.14 16.15" fill="none"/><path d="m13.94 35.66s1.66-2.27 3.33-2.18c1.9.09 2.24 2.89 2.24 2.89s.3-2.79 2.24-2.89 3.33 2.18 3.33 2.18" fill="none" stroke-linejoin="round" stroke-miterlimit="10"/></g><path d="m15.77 5.31-1.7-3.17h1.64l.57 1.23c.15.3.29.64.47 1.05h.04c.15-.41.29-.75.42-1.05l.52-1.23h1.57l-1.69 3.24 1.8 3.28h-1.64l-.65-1.33c-.16-.34-.31-.67-.49-1.07h-.04c-.15.4-.3.73-.44 1.07l-.61 1.33h-1.58z" fill="#232323"/><path d="m21.44 5.31-1.7-3.17h1.64l.57 1.23c.15.3.29.64.47 1.05h.04c.15-.41.29-.75.42-1.05l.52-1.23h1.57l-1.69 3.24 1.8 3.28h-1.64l-.65-1.33c-.16-.34-.31-.67-.49-1.07h-.04c-.15.4-.3.73-.44 1.07l-.61 1.33h-1.58z" fill="#232323"/><path d="m3.37 48.69v-21.89" fill="none" stroke="#232323"/><path d="m36.39 5.88c0-1.76.48-3.2 1.32-4.57l.92.38c-.73 1.3-1.05 2.77-1.05 4.19s.32 2.89 1.05 4.19l-.92.38c-.84-1.37-1.32-2.81-1.32-4.57z" fill="#232323"/><path d="m39.54 5.66h3.94v.94h-3.94z" fill="#232323"/><path d="m44.39 10.07c.74-1.3 1.06-2.77 1.06-4.19s-.32-2.89-1.06-4.19l.92-.38c.84 1.37 1.32 2.81 1.32 4.57s-.48 3.2-1.32 4.57z" fill="#232323"/></svg>