<svg enable-background="new 0 0 50 50" viewBox="0 0 50 50" xmlns="http://www.w3.org/2000/svg"><path d="m7.82 17.84h34.36v22.83h-34.36z" fill="#7891c9" stroke="#232323"/><path d="m24.09 12.49-1.7-3.17h1.64l.57 1.23c.15.3.29.64.47 1.05h.04c.15-.41.29-.75.42-1.05l.52-1.23h1.57l-1.69 3.24 1.8 3.28h-1.64l-.65-1.33c-.16-.34-.31-.67-.49-1.07h-.05c-.15.4-.3.73-.44 1.07l-.61 1.33h-1.58z" fill="#232323"/><g fill="none" stroke="#232323"><path d="m7.82 17.84 34.36 22.84"/><path d="m7.82 40.68 34.36-22.84"/><path d="m25 40.68v-22.84"/></g></svg>