<?xml version="1.0" encoding="utf-8"?>
<!-- Generator: Adobe Illustrator 27.2.0, SVG Export Plug-In . SVG Version: 6.00 Build 0)  -->
<svg version="1.1" xmlns="http://www.w3.org/2000/svg" xmlns:xlink="http://www.w3.org/1999/xlink" x="0px" y="0px"
	 viewBox="0 0 50 50" style="enable-background:new 0 0 50 50;" xml:space="preserve">
<style type="text/css">
	.st0{fill:#E8777B;stroke:#232323;}
	.st1{fill:none;stroke:#232323;}
	.st2{fill:#232323;}
	.st3{fill:none;stroke:#232323;stroke-miterlimit:10;}
	.st4{fill:none;stroke:#232323;stroke-linejoin:round;stroke-miterlimit:10;}
	.st5{fill:none;stroke:#232323;stroke-linecap:round;stroke-linejoin:round;}
	.st6{fill:#7891C9;stroke:#232323;}
</style>
<g id="Russia">
</g>
<g id="Ukraine">
	<g>
		<g>
			<rect x="7.82" y="17.84" class="st6" width="34.36" height="22.83"/>
			<g>
				<g>
					<path class="st2" d="M16.86,31.7l0.84-1.01c0.47,0.4,1.07,0.68,1.61,0.68c0.61,0,0.91-0.24,0.91-0.63
						c0-0.41-0.37-0.54-0.94-0.78l-0.85-0.36c-0.67-0.27-1.31-0.83-1.31-1.78c0-1.08,0.96-1.94,2.32-1.94c0.75,0,1.54,0.3,2.1,0.86
						l-0.75,0.93c-0.43-0.33-0.83-0.52-1.35-0.52c-0.51,0-0.83,0.22-0.83,0.59c0,0.4,0.43,0.54,0.99,0.77l0.84,0.34
						c0.79,0.32,1.29,0.85,1.29,1.77c0,1.08-0.9,2.02-2.46,2.02C18.42,32.64,17.52,32.32,16.86,31.7z"/>
					<path class="st2" d="M22.84,26h4.08v1.24h-2.61v1.31h2.22v1.23h-2.22v1.5h2.71v1.24h-4.18V26z"/>
					<path class="st2" d="M28.01,29.3c0-2.16,1.43-3.42,3.08-3.42c0.84,0,1.52,0.4,1.96,0.85l-0.78,0.94
						c-0.33-0.3-0.68-0.52-1.15-0.52c-0.89,0-1.6,0.79-1.6,2.1c0,1.34,0.62,2.12,1.58,2.12c0.53,0,0.95-0.27,1.27-0.61l0.78,0.92
						c-0.54,0.63-1.26,0.96-2.11,0.96C29.39,32.64,28.01,31.49,28.01,29.3z"/>
				</g>
			</g>
			<g>
				<path class="st2" d="M24.09,12.49l-1.7-3.17h1.64l0.57,1.23c0.15,0.3,0.29,0.64,0.47,1.05h0.04c0.15-0.41,0.29-0.75,0.42-1.05
					l0.52-1.23h1.57l-1.69,3.24l1.8,3.28h-1.64l-0.65-1.33c-0.16-0.34-0.31-0.67-0.49-1.07H24.9c-0.15,0.4-0.3,0.73-0.44,1.07
					l-0.61,1.33h-1.58L24.09,12.49z"/>
			</g>
		</g>
	</g>
</g>
</svg>
