<?xml version="1.0" encoding="utf-8"?>
<!-- Generator: Adobe Illustrator 27.2.0, SVG Export Plug-In . SVG Version: 6.00 Build 0)  -->
<svg version="1.1" xmlns="http://www.w3.org/2000/svg" xmlns:xlink="http://www.w3.org/1999/xlink" x="0px" y="0px"
	 viewBox="0 0 50 50" style="enable-background:new 0 0 50 50;" xml:space="preserve">
<style type="text/css">
	.st0{fill:#E8777B;stroke:#232323;}
	.st1{fill:none;stroke:#232323;}
	.st2{fill:#232323;}
	.st3{fill:none;stroke:#232323;stroke-miterlimit:10;}
	.st4{fill:none;stroke:#232323;stroke-linejoin:round;stroke-miterlimit:10;}
	.st5{fill:none;stroke:#232323;stroke-linecap:round;stroke-linejoin:round;}
	.st6{fill:#7891C9;stroke:#232323;}
</style>
<g id="Russia">
</g>
<g id="Ukraine">
	<g>
		<g>
			<rect x="7.82" y="17.84" class="st6" width="34.36" height="22.83"/>
			<g>
				<path class="st2" d="M16.54,31.7l0.84-1.01c0.47,0.4,1.07,0.68,1.61,0.68c0.61,0,0.91-0.24,0.91-0.63
					c0-0.41-0.37-0.54-0.94-0.78l-0.85-0.36c-0.67-0.27-1.31-0.83-1.31-1.78c0-1.08,0.96-1.94,2.32-1.94c0.75,0,1.54,0.3,2.1,0.86
					l-0.75,0.93c-0.43-0.33-0.83-0.52-1.35-0.52c-0.51,0-0.83,0.22-0.83,0.59c0,0.4,0.43,0.54,0.99,0.77l0.84,0.34
					c0.79,0.32,1.29,0.85,1.29,1.77c0,1.08-0.9,2.02-2.46,2.02C18.1,32.64,17.2,32.32,16.54,31.7z"/>
				<path class="st2" d="M22.21,29.23c0-2.13,1.2-3.35,2.96-3.35c1.76,0,2.96,1.23,2.96,3.35c0,2.13-1.2,3.41-2.96,3.41
					C23.41,32.64,22.21,31.36,22.21,29.23z M26.61,29.23c0-1.3-0.56-2.08-1.45-2.08c-0.89,0-1.45,0.78-1.45,2.08
					c0,1.31,0.56,2.14,1.45,2.14C26.05,31.37,26.61,30.54,26.61,29.23z"/>
				<path class="st2" d="M29.36,26h4.11v1.24h-2.64v1.51h2.26v1.24h-2.26v2.53h-1.47V26z"/>
			</g>
			<g>
				<path class="st2" d="M19.26,9.32h1.47v6.52h-1.47V9.32z"/>
				<path class="st2" d="M24.27,9.32h1.47v6.52h-1.47V9.32z"/>
				<path class="st2" d="M29.28,9.32h1.47v6.52h-1.47V9.32z"/>
			</g>
		</g>
	</g>
</g>
</svg>
