<?xml version="1.0" encoding="utf-8"?>
<!-- Generator: Adobe Illustrator 27.2.0, SVG Export Plug-In . SVG Version: 6.00 Build 0)  -->
<svg version="1.1" xmlns="http://www.w3.org/2000/svg" xmlns:xlink="http://www.w3.org/1999/xlink" x="0px" y="0px"
	 viewBox="0 0 50 50" style="enable-background:new 0 0 50 50;" xml:space="preserve">
<style type="text/css">
	.st0{fill:#E8777B;stroke:#232323;}
	.st1{fill:none;stroke:#232323;}
	.st2{fill:#232323;}
	.st3{fill:none;stroke:#232323;stroke-miterlimit:10;}
	.st4{fill:none;stroke:#232323;stroke-linejoin:round;stroke-miterlimit:10;}
	.st5{fill:none;stroke:#232323;stroke-linecap:round;stroke-linejoin:round;}
	.st6{fill:#7891C9;stroke:#232323;}
</style>
<g id="Russia">
</g>
<g id="Ukraine">
	<g>
		<g>
			<rect x="7.82" y="17.84" class="st6" width="34.36" height="22.83"/>
			<line class="st1" x1="7.82" y1="17.84" x2="42.18" y2="40.68"/>
			<line class="st1" x1="7.82" y1="40.68" x2="42.18" y2="17.84"/>
			<path class="st2" d="M31.09,31.14c-0.12-0.55-0.32-1.01-0.48-1.1c-0.1-0.05-0.13-0.04-0.21,0.1c-0.14,0.23-0.34,0.41-0.73,0.66
				c-0.46,0.3-0.74,0.6-0.82,0.91c-0.08,0.29-0.04,0.4,0.11,0.32c0.17-0.09,0.28-0.07,0.35,0.08c0.09,0.2-0.05,0.37-0.58,0.69
				c-0.92,0.55-2.15,0.99-2.73,0.99c-0.28,0-0.53-0.11-0.58-0.24c-0.02-0.06-0.02-0.81,0-1.65c0.02-0.85,0.05-2.42,0.07-3.49
				c0.02-1.07,0.04-1.97,0.05-1.98c0.01-0.02,0.59-0.03,1.3-0.02c1.46,0.01,1.38,0.04,1.37-0.49L28.2,25.6
				c-0.87-0.06-1.76,0.05-2.63-0.06c-0.02-0.02-0.03-0.22-0.04-0.45l-0.01-0.38c0.48-0.17,0.82-0.61,0.82-1.13
				c0-0.67-0.57-1.22-1.27-1.22s-1.27,0.55-1.27,1.22c0,0.5,0.32,0.94,0.77,1.12c0.01,0.08,0.02,0.19,0.02,0.37v0.51l-1.24-0.02
				c-0.97-0.01-1.26,0-1.33,0.06c-0.12,0.1-0.13,0.74-0.02,0.74l2.53-0.01c0,0.61,0.01,1.21,0,1.82c-0.03,1.25-0.05,2.5-0.06,3.75
				c-0.01,0.68-0.03,1.33-0.06,1.44c-0.1,0.44-0.38,0.5-1.23,0.27c-0.89-0.24-2-0.79-2.18-1.07c-0.15-0.23-0.17-0.42-0.06-0.54
				c0.05-0.06,0.13-0.09,0.18-0.08c0.05,0.02,0.1-0.02,0.13-0.1c0.11-0.29-0.25-0.71-0.96-1.13c-0.17-0.1-0.45-0.32-0.62-0.49
				c-0.18-0.17-0.34-0.28-0.37-0.26c-0.11,0.07-0.35,0.6-0.42,0.95c-0.14,0.7,0.04,1.72,0.38,2.13c0.18,0.21,0.28,0.21,0.32,0.01
				c0.07-0.37,0.53-0.26,1.03,0.24c0.39,0.4,1.15,0.97,1.47,1.12c0.12,0.06,0.3,0.16,0.4,0.21c0.09,0.06,0.37,0.18,0.62,0.26
				c0.52,0.18,1.13,0.49,1.38,0.71c0.09,0.08,0.23,0.19,0.31,0.24c0.14,0.09,0.15,0.09,0.24-0.05c0.19-0.29,0.52-0.55,1.03-0.8
				c0.28-0.14,0.56-0.25,0.61-0.25c0.11,0,1.04-0.41,1.6-0.71c0.44-0.23,0.64-0.37,1.13-0.8c0.55-0.48,0.84-0.54,1.13-0.22l0.18,0.2
				l0.12-0.13c0.21-0.23,0.29-0.46,0.33-0.98C31.18,31.7,31.17,31.49,31.09,31.14z M25.05,22.94c0.34,0,0.62,0.26,0.62,0.59
				c0,0.33-0.28,0.59-0.62,0.59c-0.34,0-0.62-0.26-0.62-0.59C24.44,23.21,24.71,22.94,25.05,22.94z"/>
			<g>
				<path class="st2" d="M19.26,9.32h1.47v6.52h-1.47V9.32z"/>
				<path class="st2" d="M24.27,9.32h1.47v6.52h-1.47V9.32z"/>
				<path class="st2" d="M29.28,9.32h1.47v6.52h-1.47V9.32z"/>
			</g>
		</g>
	</g>
</g>
</svg>
