<?xml version="1.0" encoding="utf-8"?>
<!-- Generator: Adobe Illustrator 27.2.0, SVG Export Plug-In . SVG Version: 6.00 Build 0)  -->
<svg version="1.1" xmlns="http://www.w3.org/2000/svg" xmlns:xlink="http://www.w3.org/1999/xlink" x="0px" y="0px"
	 viewBox="0 0 50 50" style="enable-background:new 0 0 50 50;" xml:space="preserve">
<style type="text/css">
	.st0{fill:#E8777B;stroke:#232323;}
	.st1{fill:none;stroke:#232323;}
	.st2{fill:#232323;}
	.st3{fill:none;stroke:#232323;stroke-miterlimit:10;}
	.st4{fill:none;stroke:#232323;stroke-linejoin:round;stroke-miterlimit:10;}
	.st5{fill:none;stroke:#232323;stroke-linecap:round;stroke-linejoin:round;}
	.st6{fill:#7891C9;stroke:#232323;}
</style>
<g id="Russia">
</g>
<g id="Ukraine">
	<g>
		<g>
			<rect x="7.82" y="17.84" class="st6" width="34.36" height="22.83"/>
			<line class="st1" x1="7.82" y1="17.84" x2="36.24" y2="36.73"/>
			<line class="st1" x1="13.77" y1="36.72" x2="42.18" y2="17.84"/>
			<g>
				<path class="st2" d="M21.76,9.32h1.47v6.52h-1.47V9.32z"/>
				<path class="st2" d="M26.77,9.32h1.47v6.52h-1.47V9.32z"/>
			</g>
			<path id="path2991-5-1_00000102532195843932562060000011976515797969750657_" class="st1" d="M7.83,39.31
				c2.09,0,2.2-3.61,4.29-3.61s2.2,3.57,4.29,3.61l0,0c2.09,0,2.2-3.61,4.29-3.61s2.2,3.61,4.29,3.61s2.2-3.61,4.29-3.61
				s2.2,3.61,4.29,3.61c2.09,0,2.2-3.61,4.29-3.61s2.2,3.57,4.29,3.61"/>
		</g>
	</g>
</g>
</svg>
