<?xml version="1.0" encoding="utf-8"?>
<!-- Generator: Adobe Illustrator 26.5.0, SVG Export Plug-In . SVG Version: 6.00 Build 0)  -->
<svg version="1.1" xmlns="http://www.w3.org/2000/svg" xmlns:xlink="http://www.w3.org/1999/xlink" x="0px" y="0px"
	 viewBox="0 0 50 50" style="enable-background:new 0 0 50 50;" xml:space="preserve">
<style type="text/css">
	.st0{fill:#E8777B;stroke:#232323;}
	.st1{fill:none;stroke:#232323;stroke-miterlimit:10;}
	.st2{fill:none;stroke:#232323;}
	.st3{fill:#232323;}
	.st4{fill:none;stroke:#232323;stroke-linejoin:round;stroke-miterlimit:10;}
	.st5{fill:none;stroke:#232323;stroke-linecap:round;stroke-linejoin:round;}
	.st6{fill:#7891C9;stroke:#232323;}
</style>
<g id="Russia">
</g>
<g id="Ukraine">
	<g>
		<g>
			<rect x="7.82" y="17.84" class="st6" width="34.36" height="22.83"/>
			<g>
				<path class="st3" d="M21.25,12.49l-1.7-3.17h1.64l0.57,1.23c0.15,0.3,0.29,0.64,0.47,1.05h0.04c0.15-0.41,0.29-0.75,0.42-1.05
					l0.52-1.23h1.57l-1.69,3.24l1.8,3.28h-1.64l-0.65-1.33c-0.16-0.34-0.31-0.67-0.49-1.07h-0.04c-0.15,0.4-0.3,0.73-0.44,1.07
					l-0.61,1.33h-1.58L21.25,12.49z"/>
				<path class="st3" d="M26.92,12.49l-1.7-3.17h1.64l0.57,1.23c0.15,0.3,0.29,0.64,0.47,1.05h0.04c0.15-0.41,0.29-0.75,0.42-1.05
					l0.52-1.23h1.57l-1.69,3.24l1.8,3.28h-1.64l-0.65-1.33c-0.16-0.34-0.31-0.67-0.49-1.07h-0.04c-0.15,0.4-0.3,0.73-0.44,1.07
					l-0.61,1.33h-1.58L26.92,12.49z"/>
			</g>
			<g>
				<path id="path2987_00000143601780439113222090000013270828095652068536_" class="st2" d="M7.82,40.68
					c0-3.02,7.95-5.42,17.18-5.42s17.18,2.4,17.18,5.42"/>
				<g id="g3758" transform="matrix(0.9976829,0,0,1.0554964,5.1535415,29.554151)">
					<path id="path2986" class="st2" d="M17.62,5.39v-8.25c0-1.29,1.48-3.11,2.27-3.11c0.79,0,2.27,1.83,2.27,3.11v8.13"/>
					<path id="path2988" class="st2" d="M19.89-5.99V5.27"/>
				</g>
			</g>
		</g>
	</g>
</g>
</svg>
