<svg enable-background="new 0 0 50 50" viewBox="0 0 50 50" xmlns="http://www.w3.org/2000/svg"><path d="m7.82 17.84h34.36v22.83h-34.36z" fill="#7891c9" stroke="#232323"/><path d="m24.09 12.49-1.7-3.17h1.64l.57 1.23c.15.3.29.64.47 1.05h.04c.15-.41.29-.75.42-1.05l.52-1.23h1.57l-1.69 3.24 1.8 3.28h-1.64l-.65-1.33c-.16-.34-.31-.67-.49-1.07h-.05c-.15.4-.3.73-.44 1.07l-.61 1.33h-1.58z" fill="#232323"/><path d="m7.82 17.84 34.36 22.84" fill="none" stroke="#232323"/><path d="m7.82 40.68 34.36-22.84" fill="none" stroke="#232323"/><path d="m31.09 31.14c-.12-.55-.32-1.01-.48-1.1-.1-.05-.13-.04-.21.1-.14.23-.34.41-.73.66-.46.3-.74.6-.82.91-.08.29-.04.4.11.32.17-.09.28-.07.35.08.09.2-.05.37-.58.69-.92.55-2.15.99-2.73.99-.28 0-.53-.11-.58-.24-.02-.06-.02-.81 0-1.65.02-.85.05-2.42.07-3.49s.04-1.97.05-1.98c.01-.02.59-.03 1.3-.02 1.46.01 1.38.04 1.37-.49l-.01-.32c-.87-.06-1.76.05-2.63-.06-.02-.02-.03-.22-.04-.45l-.01-.38c.48-.17.82-.61.82-1.13 0-.67-.57-1.22-1.27-1.22s-1.27.55-1.27 1.22c0 .5.32.94.77 1.12.01.08.02.19.02.37v.51l-1.24-.02c-.97-.01-1.26 0-1.33.06-.12.1-.13.74-.02.74l2.53-.01c0 .61.01 1.21 0 1.82-.03 1.25-.05 2.5-.06 3.75-.01.68-.03 1.33-.06 1.44-.1.44-.38.5-1.23.27-.89-.24-2-.79-2.18-1.07-.15-.23-.17-.42-.06-.54.05-.06.13-.09.18-.08.05.02.1-.02.13-.1.11-.29-.25-.71-.96-1.13-.17-.1-.45-.32-.62-.49-.18-.17-.34-.28-.37-.26-.11.07-.35.6-.42.95-.14.7.04 1.72.38 2.13.18.21.28.21.32.01.07-.37.53-.26 1.03.24.39.4 1.15.97 1.47 1.12.12.06.3.16.4.21.09.06.37.18.62.26.52.18 1.13.49 1.38.71.09.08.23.19.31.24.14.09.15.09.24-.05.19-.29.52-.55 1.03-.8.28-.14.56-.25.61-.25.11 0 1.04-.41 1.6-.71.44-.23.64-.37 1.13-.8.55-.48.84-.54 1.13-.22l.18.2.12-.13c.21-.23.29-.46.33-.98.02-.39.01-.6-.07-.95zm-6.04-8.2c.34 0 .62.26.62.59s-.28.59-.62.59-.62-.26-.62-.59c.01-.32.28-.59.62-.59z" fill="#232323"/></svg>