<?xml version="1.0" encoding="utf-8"?>
<!-- Generator: Adobe Illustrator 27.2.0, SVG Export Plug-In . SVG Version: 6.00 Build 0)  -->
<svg version="1.1" xmlns="http://www.w3.org/2000/svg" xmlns:xlink="http://www.w3.org/1999/xlink" x="0px" y="0px"
	 viewBox="0 0 50 50" style="enable-background:new 0 0 50 50;" xml:space="preserve">
<style type="text/css">
	.st0{fill:#E8777B;stroke:#232323;}
	.st1{fill:none;stroke:#232323;}
	.st2{fill:#232323;}
	.st3{fill:none;stroke:#232323;stroke-miterlimit:10;}
	.st4{fill:none;stroke:#232323;stroke-linejoin:round;stroke-miterlimit:10;}
	.st5{fill:none;stroke:#232323;stroke-linecap:round;stroke-linejoin:round;}
	.st6{fill:#7891C9;stroke:#232323;}
</style>
<g id="Russia">
</g>
<g id="Ukraine">
	<g>
		<g>
			<g>
				<path class="st2" d="M21.76,9.32h1.47v6.52h-1.47V9.32z"/>
				<path class="st2" d="M26.77,9.32h1.47v6.52h-1.47V9.32z"/>
			</g>
			<rect x="7.82" y="17.84" class="st6" width="34.36" height="22.83"/>
			<g>
				<g>
					<path class="st2" d="M18.78,26h1.61l1.05,2.9c0.13,0.38,0.25,0.8,0.38,1.2h0.04c0.13-0.4,0.24-0.82,0.37-1.2l1.03-2.9h1.6v6.52
						h-1.34v-2.39c0-0.64,0.12-1.59,0.19-2.22h-0.04l-0.53,1.55l-0.93,2.49h-0.81l-0.93-2.49l-0.52-1.55h-0.04
						c0.07,0.63,0.19,1.58,0.19,2.22v2.39h-1.32V26z"/>
					<path class="st2" d="M26.4,26h2.24c1.43,0,2.59,0.52,2.59,2.1c0,1.53-1.17,2.21-2.55,2.21h-0.81v2.21H26.4V26z M28.59,29.14
						c0.81,0,1.2-0.36,1.2-1.04s-0.44-0.93-1.24-0.93h-0.68v1.97H28.59z"/>
				</g>
			</g>
		</g>
	</g>
</g>
</svg>
