<?xml version="1.0" encoding="utf-8"?>
<!-- Generator: Adobe Illustrator 27.2.0, SVG Export Plug-In . SVG Version: 6.00 Build 0)  -->
<svg version="1.1" xmlns="http://www.w3.org/2000/svg" xmlns:xlink="http://www.w3.org/1999/xlink" x="0px" y="0px"
	 viewBox="0 0 50 50" style="enable-background:new 0 0 50 50;" xml:space="preserve">
<style type="text/css">
	.st0{fill:#E8777B;stroke:#232323;}
	.st1{fill:none;stroke:#232323;}
	.st2{fill:#232323;}
	.st3{fill:none;stroke:#232323;stroke-miterlimit:10;}
	.st4{fill:none;stroke:#232323;stroke-linejoin:round;stroke-miterlimit:10;}
	.st5{fill:none;stroke:#232323;stroke-linecap:round;stroke-linejoin:round;}
	.st6{fill:#7891C9;stroke:#232323;}
</style>
<g id="Russia">
</g>
<g id="Ukraine">
	<g>
		<g>
			<rect x="7.82" y="17.84" class="st6" width="34.36" height="22.83"/>
			<g>
				<path class="st2" d="M24.09,12.49l-1.7-3.17h1.64l0.57,1.23c0.15,0.3,0.29,0.64,0.47,1.05h0.04c0.15-0.41,0.29-0.75,0.42-1.05
					l0.52-1.23h1.57l-1.69,3.24l1.8,3.28h-1.64l-0.65-1.33c-0.16-0.34-0.31-0.67-0.49-1.07H24.9c-0.15,0.4-0.3,0.73-0.44,1.07
					l-0.61,1.33h-1.58L24.09,12.49z"/>
			</g>
			<g>
				<g>
					<path class="st2" d="M18.94,31.07l0.62-0.75c0.35,0.3,0.8,0.51,1.2,0.51c0.45,0,0.68-0.18,0.68-0.47c0-0.3-0.27-0.4-0.7-0.58
						l-0.63-0.27c-0.5-0.2-0.97-0.62-0.97-1.32c0-0.8,0.71-1.44,1.72-1.44c0.56,0,1.14,0.22,1.56,0.64l-0.56,0.69
						c-0.32-0.25-0.62-0.39-1-0.39c-0.38,0-0.62,0.16-0.62,0.44c0,0.3,0.32,0.4,0.74,0.57l0.62,0.25c0.59,0.24,0.96,0.63,0.96,1.32
						c0,0.8-0.67,1.5-1.83,1.5C20.1,31.77,19.44,31.53,18.94,31.07z"/>
					<path class="st2" d="M23.39,26.84h3.03v0.92h-1.94v0.97h1.65v0.91h-1.65v1.11h2.01v0.92h-3.11V26.84z"/>
					<path class="st2" d="M27.24,29.29c0-1.61,1.06-2.54,2.29-2.54c0.62,0,1.13,0.3,1.46,0.63l-0.58,0.7
						c-0.25-0.22-0.51-0.39-0.85-0.39c-0.66,0-1.19,0.59-1.19,1.56c0,1,0.46,1.58,1.17,1.58c0.39,0,0.71-0.2,0.94-0.45l0.58,0.68
						c-0.4,0.47-0.94,0.71-1.57,0.71C28.26,31.77,27.24,30.92,27.24,29.29z"/>
				</g>
			</g>
			<ellipse class="st3" cx="25" cy="29.26" rx="9.81" ry="4.82"/>
		</g>
	</g>
</g>
</svg>
