<?xml version="1.0" encoding="UTF-8"?>
<svg xmlns="http://www.w3.org/2000/svg" viewBox="0 0 665.13 387.15">
  <defs>
    <style>
      .cls-1 {
        fill: none;
      }

      .cls-2 {
        fill: #004d05;
      }

      .cls-3 {
        fill: #047c1a;
      }

      .cls-4 {
        fill: #9bb35c;
      }

      .cls-5 {
        fill: #2e9b26;
      }

      .cls-6 {
        fill: #a9c959;
      }

      .cls-7 {
        fill: #d9d9d9;
      }

      .cls-8 {
        fill: #afafaf;
      }

      .cls-9 {
        fill: #198b20;
      }

      .cls-10 {
        fill: #6c7e35;
      }

      .cls-11 {
        fill: #63161b;
      }
    </style>
  </defs>
  <g id="frame">
    <rect class="cls-1" x="40.83" y="37.15" width="525" height="350"/>
  </g>
  <g id="tunnel_back">
    <g>
      <path class="cls-6" d="m85.35,310.27l-18.84-10.87,56.79-32.79,11.08-6.39,20.96-12.11,18.84,10.88-22.77,13.03h-.01s-66.06,38.26-66.06,38.26Z"/>
      <path class="cls-6" d="m101.03,279.36c5.8-12.14,22.67-24.62,22.67-24.62l.77,24.18-11.04,2.04s-13.06,9.76-12.4-1.6Z"/>
      <path class="cls-10" d="m85.35,321.03l88.59-51.32v-10.77l-88.59,51.32v10.77Z"/>
      <path class="cls-7" d="m92.99,296.58c-1.16.66-1.16,1.72-.02,2.4,1.13.66,2.99.66,4.14,0,1.16-.66,1.16-1.75.02-2.4-1.16-.67-3.01-.67-4.14,0Z"/>
      <path class="cls-11" d="m94.38,296.3l1.31.11c0,.59-.02,1.26-.28,1.77-.17.17-.64.17-.83.02.02-.61-.11-1.33-.2-1.9Z"/>
      <path class="cls-8" d="m95.69,296.4c0,.28,0,.59-.05.87-.2.07-.39.11-.61.11-.17,0-.35,0-.5-.05-.05-.37-.11-.74-.17-1.04l1.33.11h0Z"/>
      <path class="cls-2" d="m92.12,291.85c.07-.63.28-1.13.5-1.24.04-.02.11-.07.11-.13l.2-1.44c.02-.17,0-.35-.04-.52-.09-.39-.11-1.03-.02-1.7.09-.87.3-1.59.52-1.92.09-.11.17-.22.17-.35l.3-2.14c.07-.48.5-.79.98-.81.48-.02,1.07.24,1.18.96l-.28.46c0,.17.11.3.17.46.11.22.17.63.2,1.09.02.48-.02.89-.1,1.11-.07.15-.15.3-.15.46l.07,1.87c0,.13.09.24.2.33.3.3.52,1.11.57,2.05.04.98-.15,1.83-.44,2.12-.09.09-.15.17-.15.28l.02.46c.04,1.11-.87,2-1.98,1.94-.98-.05-1.75-.85-1.79-1.79,0-.15-.07-.32-.13-.48-.11-.22-.13-.61-.09-1.07v-.02Z"/>
      <path class="cls-3" d="m92.66,293.24c.05-.7.24-1.26.46-1.4.07-.02.11-.09.11-.13l.13-1.6c.02-.2-.02-.39-.07-.57-.11-.44-.17-1.11-.13-1.87.04-.96.24-1.77.46-2.14.09-.13.17-.26.17-.39l.2-2.36c.05-.54.5-.94,1.03-.94s.98.42,1.03.94l.04.54c.02.17.15.32.22.5.13.24.24.67.28,1.2.04.53.02.98-.07,1.24-.04.17-.15.32-.15.52l.17,2.05c.02.15.11.26.22.35.35.3.66,1.18.74,2.22.11,1.09-.04,2.03-.35,2.36-.09.09-.15.2-.15.33l.04.52c.11,1.2-.85,2.24-2.07,2.24-1.09,0-1.96-.83-2.07-1.87-.02-.17-.09-.35-.17-.5-.04-.3-.11-.76-.07-1.26h0Z"/>
      <path class="cls-9" d="m95.24,282.52c.37,0,.69.28.72.66l.04.5c.02.17.09.3.17.44.02.04.05.09.07.11.09.15.2.52.24,1.03.04.52,0,.89-.04,1.07-.02.04-.02.09-.05.13-.04.13-.1.28-.09.46l.17,1.92c.02.22.15.37.28.48.24.22.52.89.61,1.92.09,1.03-.07,1.79-.28,2.02-.07.07-.22.27-.2.5l.04.48c.05.48-.1.94-.44,1.29-.33.35-.76.54-1.24.54-.87,0-1.6-.66-1.68-1.53-.02-.2-.09-.37-.15-.5l-.02-.05c-.1-.22-.15-.61-.13-1.03.04-.67.22-1.07.3-1.11.17-.11.22-.24.22-.32l.13-1.48c.02-.22-.02-.44-.07-.61-.11-.39-.15-1.03-.11-1.68.04-.94.24-1.61.39-1.87l.02-.02c.09-.13.17-.26.2-.46l.2-2.2c-.02-.39.3-.67.67-.67h0Z"/>
      <path class="cls-5" d="m95.37,290.49c.07.02.13,0,.13-.07-.02-1.26.61-1.65.79-.52.02.09.13.11.17.05.3-.32.64.3.64,1.24,0,.74-.22,1.33-.48,1.33-.22,0-.42-.42-.46-.98-.02-.35-.35-.32-.35.39,0,.83-.24,1.48-.52,1.48s-.52-.67-.52-1.48c.02-.87.3-1.57.61-1.44h0Z"/>
      <path class="cls-5" d="m94.8,284.3c-.02-.79.2-1.48.5-1.48s.44.64.48,1.11c.02.15.17.24.26.37.41.5.28,2.24-.17,2.24-.2,0-.32-.37-.39-.87-.04-.37-.3-.28-.35,0-.13.85-.57.66-.57-.26,0-.67.26-.79.24-1.11Z"/>
      <path class="cls-7" d="m85.82,292.92c-1.01.59-1.03,1.53-.02,2.12,1,.59,2.64.59,3.64,0,1-.59,1-1.53.02-2.12-1.01-.59-2.64-.59-3.64,0Z"/>
      <path class="cls-11" d="m87.04,292.68l1.16.09c0,.52-.02,1.11-.24,1.57-.15.15-.54.15-.72.02,0-.57-.11-1.2-.2-1.68h0Z"/>
      <path class="cls-8" d="m88.2,292.76c0,.24,0,.5-.05.76-.17.07-.35.09-.52.11-.15,0-.3,0-.46-.05-.04-.32-.09-.66-.15-.92l1.18.09Z"/>
      <path class="cls-2" d="m85.06,288.76c.07-.54.24-1,.44-1.09.04-.02.09-.07.09-.11l.17-1.26c.02-.15,0-.3-.04-.46-.07-.35-.09-.89-.02-1.5.09-.76.26-1.41.46-1.68.07-.09.15-.2.15-.3l.26-1.87c.07-.42.44-.7.87-.72.41-.02.94.22,1.04.85l-.24.39c0,.15.11.26.15.39.09.2.15.54.17.96.02.42-.02.79-.11.98-.04.13-.15.26-.13.42l.07,1.65c0,.11.09.22.17.28.26.26.46.98.5,1.81.02.87-.13,1.61-.39,1.87-.07.07-.13.15-.13.26l.02.42c.02.98-.79,1.77-1.74,1.7-.87-.04-1.53-.74-1.57-1.59,0-.15-.07-.28-.11-.42-.11-.22-.13-.59-.09-.98Z"/>
      <path class="cls-3" d="m85.51,290c.02-.61.2-1.11.42-1.24.04-.02.09-.07.11-.13l.13-1.4c.02-.17-.02-.35-.07-.5-.11-.39-.15-.98-.11-1.65.05-.85.22-1.57.42-1.87.07-.11.15-.22.15-.35l.17-2.07c.04-.48.44-.83.92-.83s.87.37.91.83l.05.48c.02.15.13.28.2.44.11.22.2.61.24,1.04.04.46.02.85-.05,1.09-.04.15-.15.3-.13.46l.15,1.81c.02.13.11.22.2.3.3.28.57,1.04.66,1.97.09.96-.05,1.79-.3,2.07-.07.09-.15.17-.13.28l.04.46c.09,1.07-.74,1.98-1.81,1.98-.96,0-1.72-.72-1.81-1.63-.02-.15-.09-.3-.15-.46-.15-.24-.22-.64-.2-1.07h-.02Z"/>
      <path class="cls-9" d="m87.78,280.53c.32,0,.61.26.63.59l.04.46c.02.15.09.28.15.39.02.05.05.07.07.11.07.15.17.46.22.91.05.45,0,.79-.04.94,0,.04-.02.07-.04.11-.05.11-.11.24-.09.39l.15,1.7c.02.2.13.32.26.44.2.2.46.79.54,1.7.09.89-.07,1.57-.24,1.79-.04.07-.2.22-.17.44l.05.42c.04.42-.11.83-.39,1.13-.28.3-.67.48-1.09.48-.76,0-1.41-.59-1.48-1.35-.02-.17-.09-.32-.13-.46l-.02-.04c-.09-.2-.13-.54-.11-.89.02-.59.2-.94.28-.98.15-.09.2-.22.2-.28l.11-1.31c.02-.2-.02-.39-.07-.54-.09-.35-.13-.92-.11-1.48.05-.83.2-1.43.35-1.65l.02-.02c.07-.11.15-.24.17-.39l.17-1.94c-.04-.37.24-.64.57-.64Z"/>
      <path class="cls-5" d="m87.92,287.55s.13,0,.13-.07c-.02-1.11.52-1.46.7-.46.02.07.11.09.15.05.26-.28.57.28.57,1.11,0,.66-.2,1.18-.42,1.18-.2,0-.35-.37-.39-.87-.02-.3-.3-.3-.3.35,0,.72-.22,1.31-.46,1.31-.26,0-.46-.59-.46-1.31-.04-.79.2-1.4.48-1.28h.01Z"/>
      <path class="cls-5" d="m87.41,282.11c-.02-.7.17-1.31.44-1.31s.39.54.42.98c.02.13.15.22.24.32.37.46.24,1.98-.15,1.98-.17,0-.3-.32-.35-.79-.04-.32-.28-.24-.3,0-.11.76-.5.57-.5-.24.02-.57.24-.67.22-.96h-.01Z"/>
      <path class="cls-7" d="m72.99,296.69c-1.7.98-1.7,2.57-.02,3.55,1.68.98,4.43.98,6.12,0,1.69-.98,1.7-2.57.02-3.55-1.68-.98-4.43-.98-6.12,0Z"/>
      <path class="cls-11" d="m75.03,296.27l1.96.15c0,.89-.02,1.87-.42,2.64-.26.26-.91.24-1.22.05.02-.94-.17-2-.32-2.83Z"/>
      <path class="cls-8" d="m77,296.42c0,.42,0,.85-.07,1.29-.28.11-.59.15-.89.17-.26.02-.52,0-.76-.07-.07-.54-.17-1.09-.24-1.55l1.97.15h0Z"/>
      <path class="cls-2" d="m71.7,289.67c.11-.94.42-1.68.72-1.85.09-.05.15-.09.15-.17l.3-2.14c.05-.26,0-.52-.07-.79-.13-.59-.15-1.53-.04-2.53.13-1.29.44-2.37.79-2.83.1-.17.24-.32.26-.52l.46-3.16c.11-.72.74-1.18,1.46-1.2.7-.02,1.6.35,1.77,1.41l-.42.66c0,.24.17.46.26.67.15.33.26.94.28,1.63.01.7-.05,1.31-.17,1.65-.09.22-.24.44-.24.67l.09,2.77c0,.2.13.35.28.5.44.44.79,1.63.83,3.05.04,1.46-.22,2.73-.66,3.16-.11.13-.24.26-.22.44l.02.7c.04,1.63-1.31,2.96-2.94,2.88-1.46-.09-2.57-1.26-2.64-2.66,0-.24-.1-.48-.2-.7-.11-.37-.17-.98-.09-1.65v.02Z"/>
      <path class="cls-3" d="m72.49,291.76c.05-1.03.35-1.87.69-2.07.09-.05.15-.11.17-.22l.2-2.36c.02-.28-.05-.57-.11-.85-.17-.66-.26-1.65-.2-2.79.07-1.41.35-2.64.67-3.16.11-.2.24-.37.26-.59l.3-3.48c.07-.79.74-1.4,1.53-1.4s1.46.61,1.53,1.4l.07.81c.02.27.22.48.33.72.17.37.35,1.01.42,1.77.07.76.02,1.44-.09,1.83-.09.27-.24.5-.22.76l.27,3.05c.02.22.17.39.32.52.5.46.96,1.75,1.11,3.31.15,1.61-.09,2.99-.52,3.51-.13.13-.24.3-.22.5l.07.76c.15,1.79-1.26,3.33-3.05,3.33-1.61,0-2.9-1.23-3.05-2.77-.02-.26-.15-.5-.26-.76-.15-.44-.26-1.09-.22-1.83h0Z"/>
      <path class="cls-9" d="m76.29,275.83c.54,0,1.03.44,1.06.98l.07.76c.02.27.15.46.26.66.05.07.07.11.09.17.13.24.28.76.35,1.53s.02,1.31-.07,1.57c-.02.07-.04.13-.07.2-.07.17-.17.42-.15.67l.24,2.86c.02.33.24.54.44.72.35.3.76,1.33.92,2.86.13,1.5-.11,2.66-.42,3.01-.09.11-.33.37-.3.72l.07.72c.07.72-.17,1.4-.66,1.92-.48.52-1.13.81-1.85.81-1.31,0-2.37-.98-2.51-2.27-.02-.28-.13-.54-.24-.76l-.02-.07c-.15-.33-.22-.91-.2-1.53.05-1.01.32-1.57.48-1.65.26-.15.33-.37.33-.48l.2-2.22c.02-.33-.05-.66-.11-.91-.15-.59-.22-1.53-.17-2.51.07-1.4.35-2.42.59-2.79l.02-.05c.11-.17.26-.39.28-.67l.28-3.27c.07-.52.54-.96,1.09-.96h0Z"/>
      <path class="cls-5" d="m76.51,287.66c.09.04.2,0,.2-.09-.02-1.87.89-2.46,1.16-.76.02.13.17.15.26.07.46-.48.96.48.96,1.85,0,1.09-.3,1.98-.69,1.98-.32,0-.61-.61-.67-1.46-.05-.5-.52-.5-.52.59,0,1.23-.35,2.2-.79,2.2s-.79-.98-.79-2.2c.02-1.33.44-2.37.89-2.18h0Z"/>
      <path class="cls-5" d="m75.69,278.49c-.02-1.16.3-2.18.74-2.18.46,0,.66.94.72,1.65.02.22.26.35.39.52.63.76.42,3.33-.24,3.33-.28,0-.5-.57-.59-1.31-.07-.54-.46-.42-.52,0-.2,1.26-.83.96-.83-.39-.04-.98.33-1.16.33-1.63h0Z"/>
      <path class="cls-7" d="m116.35,263.02c-.83.48-.83,1.26,0,1.75.83.48,2.18.48,3.01,0,.83-.48.83-1.26,0-1.75-.83-.48-2.18-.48-3.01,0Z"/>
      <path class="cls-11" d="m117.35,262.8l.96.07c0,.44-.02.92-.2,1.29-.13.13-.46.11-.59.02,0-.44-.11-.96-.17-1.38Z"/>
      <path class="cls-8" d="m118.31,262.88c0,.2,0,.42-.02.64-.13.05-.28.09-.44.09-.13,0-.26,0-.37-.02-.02-.26-.09-.52-.11-.76l.94.07h0Z"/>
      <path class="cls-2" d="m115.72,259.58c.05-.46.2-.83.35-.92.04-.02.07-.04.09-.09l.15-1.04c.02-.13,0-.26-.02-.37-.07-.28-.07-.74-.02-1.24.07-.64.22-1.16.37-1.4.07-.09.1-.15.13-.26l.22-1.55c.05-.35.35-.57.72-.59.35,0,.79.17.87.69l-.2.33c0,.13.09.22.13.33.07.17.13.46.13.81.02.35-.02.66-.09.81-.04.11-.11.22-.11.33l.05,1.35c0,.09.07.17.13.24.22.22.39.81.42,1.5.02.72-.11,1.33-.32,1.55-.07.07-.11.13-.11.22l.02.35c.02.81-.63,1.46-1.44,1.41-.72-.05-1.26-.61-1.29-1.31,0-.11-.04-.24-.09-.35-.1-.2-.13-.48-.09-.81h0Z"/>
      <path class="cls-3" d="m116.1,260.6c.02-.5.17-.91.32-1.03.04-.02.09-.07.09-.11l.11-1.16c.02-.13-.02-.28-.05-.42-.09-.32-.13-.81-.09-1.38.04-.7.17-1.28.32-1.55.07-.09.13-.17.13-.28l.15-1.72c.04-.39.37-.7.74-.7.39,0,.72.3.74.7l.05.39c0,.13.1.24.17.35.09.17.17.5.2.87.05.37.02.7-.04.89-.05.13-.11.24-.11.37l.13,1.48c0,.1.09.2.15.26.24.22.48.85.54,1.61.07.79-.04,1.46-.26,1.72-.07.07-.11.15-.11.24l.02.37c.09.87-.61,1.63-1.5,1.63-.79,0-1.41-.61-1.5-1.35-.02-.13-.07-.24-.13-.37-.07-.17-.11-.5-.09-.85h.01Z"/>
      <path class="cls-9" d="m117.99,252.8c.26,0,.5.22.52.48l.02.37c.02.13.07.22.13.33.02.02.04.07.04.09.07.11.13.37.17.74.05.37,0,.66-.04.76,0,.02-.02.07-.05.09-.04.09-.09.2-.07.33l.13,1.4c.02.15.11.27.22.35.17.15.37.66.46,1.4.07.74-.04,1.31-.2,1.48-.04.04-.15.17-.15.35l.02.35c.02.35-.09.67-.33.94-.24.27-.57.39-.91.39-.64,0-1.16-.48-1.23-1.11-.02-.13-.07-.26-.1-.37l-.02-.02c-.07-.15-.11-.46-.09-.74.02-.48.17-.76.24-.81.13-.09.15-.17.15-.24l.09-1.09c.02-.15-.02-.33-.04-.46-.09-.28-.11-.74-.09-1.22.04-.7.17-1.18.28-1.38l.02-.02c.07-.09.13-.2.13-.33l.13-1.61c.04-.24.26-.44.54-.44h.01Z"/>
      <path class="cls-5" d="m118.09,258.59s.11,0,.11-.04c-.02-.92.44-1.2.57-.37,0,.07.09.09.13.02.22-.24.46.24.46.92,0,.54-.15.98-.35.98-.15,0-.3-.3-.32-.72-.02-.24-.26-.24-.26.28,0,.59-.17,1.07-.39,1.07s-.39-.48-.39-1.07c.02-.66.22-1.16.46-1.07Z"/>
      <path class="cls-5" d="m117.68,254.1c-.02-.57.15-1.07.35-1.07.22,0,.33.46.35.81,0,.11.13.17.2.27.3.37.2,1.63-.11,1.63-.13,0-.24-.28-.28-.64-.04-.26-.22-.2-.26,0-.09.64-.42.48-.42-.2,0-.5.17-.59.17-.81Z"/>
      <path class="cls-7" d="m109.62,280.53c-1.18.67-1.18,1.79-.02,2.46,1.18.67,3.08.67,4.25,0,1.17-.67,1.18-1.79.02-2.46-1.18-.67-3.08-.67-4.25,0Z"/>
      <path class="cls-11" d="m111.04,280.26l1.35.11c0,.61-.02,1.31-.28,1.83-.17.17-.63.17-.85.02.02-.66-.11-1.4-.22-1.97h0Z"/>
      <path class="cls-8" d="m112.4,280.36c0,.28,0,.59-.05.89-.2.07-.39.11-.61.13-.17,0-.35,0-.52-.05-.05-.37-.11-.76-.17-1.07l1.36.09Z"/>
      <path class="cls-2" d="m108.73,275.68c.07-.66.28-1.18.5-1.28.04-.02.11-.07.11-.13l.22-1.48c.02-.17,0-.37-.05-.54-.09-.42-.11-1.04-.02-1.77.09-.89.3-1.63.54-1.97.09-.11.17-.22.2-.37l.3-2.18c.07-.5.5-.81,1-.83.5-.02,1.11.24,1.22.98l-.28.46c0,.17.11.3.2.48.11.24.17.66.2,1.13.02.48-.02.91-.11,1.16-.07.15-.17.3-.15.48l.07,1.92c0,.13.09.24.2.35.3.3.54,1.13.59,2.12.05,1.03-.15,1.87-.46,2.18-.09.09-.15.17-.15.3l.02.48c.05,1.13-.89,2.05-2.02,2-1.01-.07-1.79-.87-1.83-1.85,0-.17-.07-.33-.13-.48-.17-.28-.2-.7-.15-1.16h-.01Z"/>
      <path class="cls-3" d="m109.27,277.11c.04-.72.24-1.31.48-1.44.07-.05.11-.09.11-.15l.15-1.63c.02-.2-.02-.39-.07-.59-.13-.46-.17-1.16-.13-1.94.04-.98.24-1.83.48-2.2.09-.13.17-.26.2-.42l.22-2.42c.05-.54.5-.98,1.07-.98s1.01.42,1.07.98l.05.57c.02.2.15.35.24.5.13.24.24.7.28,1.22.04.52.02,1.01-.07,1.26-.07.17-.17.35-.15.52l.17,2.12c.02.15.13.26.24.37.35.32.66,1.22.76,2.29.11,1.11-.07,2.07-.37,2.42-.09.09-.17.22-.15.35l.05.52c.11,1.24-.87,2.31-2.12,2.31-1.11,0-2.02-.85-2.12-1.92-.02-.2-.11-.35-.17-.52-.17-.26-.24-.72-.22-1.22h.01Z"/>
      <path class="cls-9" d="m111.93,266.06c.39,0,.72.3.74.67l.05.52c.02.17.11.32.17.46.02.04.05.09.07.11.09.17.2.52.24,1.07.05.52,0,.92-.04,1.09-.02.05-.02.09-.04.13-.05.13-.11.28-.11.46l.17,1.98c.02.22.15.37.3.5.24.22.54.94.64,1.98.09,1.04-.07,1.85-.28,2.09-.07.07-.22.26-.2.5l.04.5c.05.5-.11.96-.46,1.33-.32.37-.79.57-1.28.57-.89,0-1.65-.67-1.75-1.57-.02-.2-.09-.37-.17-.52l-.02-.05c-.11-.24-.15-.63-.13-1.04.04-.7.24-1.09.32-1.16.17-.11.22-.26.24-.33l.13-1.53c.02-.24-.02-.46-.09-.63-.1-.42-.15-1.04-.1-1.72.04-.98.24-1.68.41-1.94l.02-.02c.09-.13.17-.28.2-.48l.2-2.27c.02-.42.35-.72.74-.72v.02Z"/>
      <path class="cls-5" d="m112.08,274.26c.07.02.15,0,.13-.07-.02-1.31.61-1.72.81-.52.02.09.13.11.17.05.32-.33.66.32.66,1.28,0,.76-.22,1.38-.48,1.38-.22,0-.42-.44-.48-1.03-.02-.35-.37-.35-.37.42,0,.85-.24,1.53-.54,1.53s-.54-.67-.54-1.53c.02-.89.32-1.61.66-1.5h-.01Z"/>
      <path class="cls-5" d="m111.5,267.92c-.02-.81.22-1.53.5-1.53.3,0,.46.66.5,1.13.02.15.17.24.28.37.44.52.28,2.31-.17,2.31-.2,0-.35-.39-.42-.91-.04-.39-.32-.28-.37,0-.13.87-.59.67-.59-.28,0-.63.26-.76.26-1.09h0Z"/>
      <path class="cls-4" d="m85.35,321.04l-18.83-10.87v-10.77s18.83,10.88,18.83,10.88v10.77Z"/>
    </g>
  </g>
</svg>