<?xml version="1.0" encoding="UTF-8"?>
<svg xmlns="http://www.w3.org/2000/svg" xmlns:xlink="http://www.w3.org/1999/xlink" viewBox="0 0 665.13 387.15">
  <defs>
    <style>
      .cls-1, .cls-2 {
        fill: none;
      }

      .cls-3 {
        fill: url(#linear-gradient);
      }

      .cls-4, .cls-5 {
        fill: #f8f8f8;
      }

      .cls-6 {
        fill: #414f52;
      }

      .cls-7 {
        fill: #151b1c;
      }

      .cls-8 {
        fill: #18292b;
      }

      .cls-9 {
        fill: #2c3638;
      }

      .cls-10 {
        fill: url(#linear-gradient-4);
      }

      .cls-11 {
        fill: url(#linear-gradient-2);
      }

      .cls-12 {
        fill: url(#linear-gradient-5);
      }

      .cls-2 {
        stroke: #fff;
        stroke-dasharray: 0 0 6.5 7;
        stroke-miterlimit: 10;
        stroke-width: .5px;
      }

      .cls-5, .cls-13 {
        fill-rule: evenodd;
      }

      .cls-13 {
        fill: url(#linear-gradient-3);
      }
    </style>
    <linearGradient id="linear-gradient" x1="191.96" y1="328.11" x2="167.82" y2="328.11" gradientTransform="translate(0 363.62) scale(1 -1)" gradientUnits="userSpaceOnUse">
      <stop offset="0" stop-color="#151b1c"/>
      <stop offset="1" stop-color="#18292b"/>
    </linearGradient>
    <linearGradient id="linear-gradient-2" x1="163.24" y1="286.25" x2="127.82" y2="286.25" xlink:href="#linear-gradient"/>
    <linearGradient id="linear-gradient-3" x1="281.97" y1="150.55" x2="317.36" y2="150.55" xlink:href="#linear-gradient"/>
    <linearGradient id="linear-gradient-4" x1="281.74" y1="130.25" x2="405.69" y2="130.25" xlink:href="#linear-gradient"/>
    <linearGradient id="linear-gradient-5" x1="405.69" y1="129.08" x2="433.82" y2="129.08" xlink:href="#linear-gradient"/>
  </defs>
  <g id="frame">
    <rect class="cls-1" x="40.83" y="37.15" width="525" height="350"/>
  </g>
  <g id="left_turn">
    <g>
      <path class="cls-3" d="m191.96,16.24v4.74c-16.12,9.31-24.18,21.56-24.14,33.8v-4.74c-.05-12.24,8.01-24.49,24.14-33.8Z"/>
      <path class="cls-9" d="m163.24,99.8v4.74s28.39-16.27,28.39-16.27v-4.72l-28.39,16.25Z"/>
      <path class="cls-11" d="m127.83,51.57c.01.31.03.62.05.93.02.27.03.53.05.8.02.31.06.62.09.93.03.26.05.53.08.79.04.31.08.62.13.93.04.26.07.52.11.78.05.32.11.63.17.95.05.25.09.51.14.76.06.31.13.61.2.92.06.26.11.51.18.77.08.31.16.62.25.93.07.25.13.5.2.75.09.31.19.63.29.94.08.24.15.49.23.73.11.32.23.65.34.97.08.23.16.46.25.69.2.54.42,1.07.64,1.61.01.03.02.05.03.08.24.56.49,1.12.75,1.68.09.18.18.36.27.55.18.37.36.75.55,1.12.11.22.23.44.35.66.18.33.35.67.54,1,.26.46.52.91.79,1.37.05.09.11.17.16.26.24.39.48.78.73,1.18.08.13.16.26.25.38.31.47.62.94.94,1.4.36.52.73,1.04,1.12,1.55.12.17.26.33.38.5.27.36.54.71.82,1.07.08.11.17.21.26.32.33.42.67.83,1.02,1.24.06.07.12.14.18.21.39.46.8.92,1.21,1.37.1.11.2.22.29.32.38.42.77.83,1.16,1.24.05.05.1.1.14.15.43.45.88.9,1.33,1.34.11.11.22.21.33.32.44.43.88.85,1.33,1.27.03.02.05.05.08.07.2.18.4.36.6.54.35.32.7.64,1.06.95.23.2.47.4.71.61.33.29.67.57,1.01.86.25.21.52.42.78.63.34.27.67.54,1.01.81.27.21.55.42.82.63.34.26.68.52,1.02.78.29.21.58.42.87.63.35.25.69.51,1.05.76.3.21.61.42.91.63.35.25.71.49,1.07.73.31.21.63.42.95.63.36.24.72.48,1.09.71.32.21.66.41.99.62.37.23.74.47,1.12.69.64.39,1.28.8,1.94,1.19v4.74c-.59-.35-1.17-.73-1.76-1.09-.06-.03-.11-.07-.17-.1-.38-.23-.75-.46-1.12-.69-.33-.21-.66-.41-.99-.62-.37-.23-.73-.47-1.09-.71-.32-.21-.64-.42-.95-.63-.36-.24-.71-.49-1.06-.73-.31-.21-.62-.42-.92-.63-.35-.25-.7-.5-1.05-.76-.29-.21-.58-.42-.87-.63-.35-.26-.69-.52-1.03-.79-.27-.21-.55-.42-.82-.63-.34-.27-.67-.54-1.01-.81-.26-.21-.52-.42-.78-.63-.34-.29-.68-.57-1.01-.86-.23-.2-.47-.4-.71-.6-.36-.32-.71-.64-1.06-.96-.19-.17-.39-.34-.57-.52,0,0,0-.01-.02-.02-.03-.02-.05-.05-.08-.07-.45-.42-.89-.84-1.33-1.27-.11-.11-.22-.21-.33-.32-.45-.44-.89-.89-1.33-1.34-.05-.05-.1-.1-.14-.15-.39-.41-.78-.83-1.16-1.24-.1-.11-.2-.22-.29-.32-.41-.46-.81-.91-1.21-1.37-.06-.07-.12-.14-.18-.21-.35-.41-.69-.82-1.02-1.24-.09-.11-.17-.21-.26-.32-.06-.07-.12-.15-.18-.22-.22-.28-.43-.56-.64-.84-.13-.17-.26-.34-.38-.5-.38-.51-.75-1.03-1.12-1.55-.32-.47-.63-.93-.94-1.4-.08-.13-.17-.26-.25-.38-.25-.39-.5-.78-.73-1.18-.05-.09-.11-.17-.16-.26-.24-.4-.48-.81-.71-1.22-.03-.05-.05-.1-.08-.15-.19-.33-.36-.67-.54-1-.12-.22-.24-.44-.35-.66-.19-.37-.37-.75-.55-1.12-.09-.18-.18-.36-.27-.55-.26-.56-.51-1.12-.75-1.68,0-.02-.02-.05-.03-.07-.22-.54-.44-1.07-.64-1.61,0-.02-.01-.04-.02-.05-.08-.21-.15-.42-.22-.64-.12-.32-.23-.65-.34-.97-.08-.24-.15-.49-.23-.73-.1-.31-.2-.63-.29-.94-.07-.25-.14-.5-.2-.75-.08-.31-.17-.62-.25-.93-.06-.26-.12-.51-.18-.77-.07-.31-.14-.61-.2-.92-.01-.05-.02-.1-.03-.15-.04-.2-.07-.41-.11-.61-.06-.31-.12-.63-.17-.95-.04-.26-.08-.52-.11-.78-.04-.31-.09-.62-.13-.93-.03-.26-.06-.53-.08-.79-.03-.31-.06-.62-.09-.93-.02-.27-.04-.53-.05-.8-.02-.31-.04-.62-.05-.93,0-.1-.01-.19-.01-.28-.01-.37-.02-.74-.02-1.1v-4.74c-.01.46,0,.93.02,1.39v-.02Z"/>
      <path class="cls-6" d="m163.6,0c-11.67,6.74-20.73,14.6-26.92,23.38-5.97,8.47-9.03,17.41-9.08,26.58-.05,9.17,2.9,18.11,8.78,26.58,6.09,8.77,15.06,16.64,26.66,23.38l28.6-16.37c-31.98-18.58-31.95-48.65.13-67.17L163.61,0h-.01Z"/>
      <path class="cls-4" d="m191.06,83.8c-.06-.03-8.48-5.33-12.17-9.22-5.98-6.3-12.11-13.85-11.42-26.58.92-19.71,23.52-32.06,23.75-32.18l-.76-.46c-.23.12-22.6,12.38-23.54,32.53-1.05,11.85,5.59,21.45,11.19,26.88,4.67,4.83,12.38,9.28,12.44,9.31l.51-.29Z"/>
      <path class="cls-4" d="m163.84,99.52l.77-.23c-.09-.05-9.56-5.43-18.23-14.12-7.98-8-17.31-21.09-16.46-38.02.76-14.99,10.14-26.9,17.87-34.25,8.4-7.99,16.9-12.4,16.99-12.45l-.68-.4c-.08.04-8.35,4.21-16.83,12.27-7.84,7.45-17.35,19.54-18.12,34.79-.87,17.22,8.6,30.51,16.7,38.63,8.76,8.77,17.91,13.74,18,13.79h0Z"/>
      <path class="cls-4" d="m174.92,90.39l.36-.69c-.07-.04-7.41-3.9-14.49-10.99-6.5-6.52-14.11-17.19-13.41-30.99,1.19-23.4,30.46-39.38,30.73-39.53l-.84-.47c-.07.04-8.92,4.92-15.85,11.51-6.41,6.09-14.19,15.97-14.82,28.45-.71,14.09,7.03,24.95,13.65,31.59,7.16,7.17,14.59,11.08,14.66,11.12h.01Z"/>
    </g>
  </g>
  <g id="left_hori_short_1">
    <polygon class="cls-6" points="281.62 135.51 281.12 135.8 280.61 136.1 280.6 136.1 254.6 151.12 254.01 151.45 253.31 151.86 204.74 123.82 163.24 99.86 163.79 99.55 164.37 99.21 190.55 84.09 191.57 83.51 226.32 103.58 281.62 135.51"/>
    <polygon class="cls-9" points="253.31 151.86 253.31 156.54 201.66 126.72 163.24 104.54 163.24 99.86 204.74 123.82 253.31 151.86"/>
    <path class="cls-7" d="m281.62,135.51v4.67l-28.31,16.35v-4.67l28.31-16.35Z"/>
    <polygon class="cls-4" points="254.6 151.12 254.02 151.46 254.01 151.45 205.21 123.38 163.79 99.55 164.37 99.21 205.66 122.96 254.6 151.12"/>
    <path class="cls-4" d="m266.23,142.77l-5.77-3.34-.55.32,5.76,3.32.56-.3Z"/>
    <path class="cls-4" d="m254.69,136.1l-5.78-3.34-.55.32,5.76,3.33.57-.31Z"/>
    <path class="cls-4" d="m243.15,129.43l-5.78-3.34-.55.32,5.76,3.33.57-.31Z"/>
    <path class="cls-4" d="m220.05,116.11l-5.78-3.35-.55.32,5.76,3.33.57-.3Z"/>
    <path class="cls-4" d="m231.61,122.76l-5.79-3.34-.55.32,5.77,3.33.57-.31Z"/>
    <path class="cls-4" d="m202.17,106.41l5.77,3.33.57-.3-5.79-3.34-.55.31Z"/>
    <path class="cls-4" d="m190.7,99.77l5.76,3.33.57-.3-5.79-3.34-.54.31Z"/>
    <path class="cls-4" d="m179.22,93.14l5.76,3.33.57-.3-5.78-3.34-.55.31Z"/>
    <polygon class="cls-4" points="281.12 135.8 280.61 136.1 280.6 136.1 225.55 104.3 190.55 84.09 191.06 83.8 225.93 103.94 281.12 135.8"/>
  </g>
  <g id="fork">
    <path class="cls-9" d="m253.3,151.85v4.73c16.11,9.34,24.15,21.62,24.11,33.9v-4.75c.05-12.28-8.01-24.54-24.11-33.88Z"/>
    <path class="cls-13" d="m317.29,188.2c.02-.31.04-.62.05-.93v.02c0-.21,0-.42.01-.63v3.99c0,.36-.01.73-.02,1.1,0,.04,0,.08,0,.12,0,.05,0,.11,0,.16-.01.31-.03.62-.05.93,0,.13-.01.26-.02.39,0,.14-.02.28-.03.42l-.09.93c-.01.17-.03.34-.05.51-.01.1-.02.19-.03.28-.02.15-.04.3-.06.45-.02.16-.05.32-.07.48-.03.26-.07.52-.11.78-.05.32-.11.64-.17.95-.02.08-.03.17-.04.25-.02.12-.04.24-.07.36l-.03.15c-.06.31-.13.61-.2.92-.03.13-.06.26-.09.39-.03.13-.06.26-.09.39-.04.16-.08.32-.13.48-.04.15-.08.3-.12.45-.06.25-.13.5-.2.75-.09.31-.19.63-.29.94-.04.13-.08.27-.13.41-.03.11-.07.22-.1.32l-.07.21c-.09.26-.18.51-.27.77-.07.22-.14.43-.22.64-.01,0-.02.03-.02.05-.17.46-.36.92-.54,1.38l-.1.23s-.01.02-.02.04c0,.01,0,.02-.01.04-.24.56-.49,1.12-.75,1.68-.09.19-.18.37-.27.55l-.13.27c-.14.29-.28.57-.42.86-.11.22-.23.44-.35.66-.07.13-.14.25-.2.38-.11.21-.22.42-.34.62-.03.05-.05.1-.08.15-.23.41-.47.82-.71,1.22-.02.04-.05.09-.08.13-.03.04-.05.09-.08.13-.23.4-.48.79-.73,1.18-.08.12-.17.25-.25.38-.31.47-.62.93-.94,1.4-.37.52-.74,1.04-1.12,1.55-.12.16-.25.33-.38.5-.21.28-.42.56-.64.84-.03.04-.06.07-.09.11-.03.04-.06.08-.09.11-.09.11-.17.21-.26.32-.33.42-.67.83-1.02,1.24l-.18.21c-.4.46-.8.91-1.21,1.37-.09.1-.19.21-.29.32-.38.41-.77.83-1.16,1.24-.02.03-.05.05-.07.08-.02.02-.05.05-.07.07l-.02.02c-.43.45-.87.89-1.31,1.33-.08.08-.15.15-.23.22-.03.03-.07.06-.1.1-.44.43-.88.85-1.33,1.27-.01.01-.03.02-.04.04-.01.01-.02.03-.04.04l-.02.02c-.14.14-.28.27-.43.4l-.14.12c-.35.32-.7.64-1.06.96-.13.11-.26.22-.39.33-.11.09-.21.18-.32.27-.21.19-.43.37-.65.56-.12.1-.24.2-.36.3l-.78.63c-.17.14-.33.27-.5.4-.17.14-.34.27-.51.41-.09.07-.18.14-.27.21-.18.14-.37.28-.55.42-.34.27-.68.53-1.03.79l-.87.63c-.15.11-.3.22-.44.33-.2.15-.4.29-.6.44-.3.21-.61.42-.92.63-.24.16-.48.33-.72.5-.11.08-.22.15-.34.23-.31.21-.63.42-.95.63-.36.24-.72.48-1.09.71-.33.21-.66.41-.99.62l-.33.21-.26.16-.14.07-.17.09c-.18.1-.36.19-.54.29-.26.14-.51.28-.77.42-.29.16-.58.33-.86.49v-4.62l.04-.02c.65-.38,1.29-.76,1.92-1.15.2-.11.39-.24.59-.36.18-.11.35-.22.53-.33.33-.21.67-.41.99-.62.37-.23.73-.47,1.09-.71.32-.21.64-.42.95-.63.36-.24.72-.48,1.07-.73.3-.21.61-.42.91-.63.21-.15.42-.3.62-.45.14-.11.28-.21.43-.31l.87-.63,1.02-.78c.27-.21.55-.42.82-.63.34-.27.67-.54,1.01-.81.26-.21.53-.42.78-.63.34-.29.68-.57,1.01-.86.24-.21.48-.41.71-.61.36-.31.71-.63,1.06-.95l.6-.54s.03-.02.04-.04c.01-.01.02-.02.04-.04.45-.42.89-.84,1.33-1.27.11-.11.22-.21.33-.32.45-.44.9-.89,1.33-1.34.04-.05.09-.1.14-.15v-.02c.4-.41.78-.81,1.16-1.23.06-.07.13-.14.2-.22l.09-.1c.41-.45.82-.91,1.21-1.37l.18-.21c.35-.41.69-.82,1.02-1.24.05-.07.11-.13.16-.19.04-.04.07-.09.1-.13.13-.16.25-.32.37-.48.15-.2.3-.39.45-.59.12-.17.26-.33.38-.5.39-.51.76-1.03,1.12-1.56.32-.46.63-.93.94-1.4.06-.08.12-.16.17-.25.03-.04.06-.09.08-.13.25-.4.49-.79.73-1.18.03-.06.07-.12.11-.18.02-.03.03-.05.05-.08.27-.46.53-.91.79-1.37.12-.2.23-.41.34-.62.07-.13.13-.25.2-.38.06-.11.12-.21.17-.32.06-.12.12-.23.18-.35.09-.17.17-.35.26-.53.1-.2.19-.4.29-.6.05-.11.1-.22.16-.32l.11-.23c.26-.56.51-1.12.75-1.68,0-.02.01-.03.02-.04,0-.01,0-.02.01-.04l.1-.24c.19-.46.37-.92.54-1.38.09-.23.17-.46.25-.69.06-.16.11-.32.17-.49.06-.16.11-.33.17-.49.04-.11.07-.22.1-.33.04-.14.08-.27.13-.41.1-.31.2-.63.29-.94.07-.25.13-.5.2-.75.09-.3.17-.61.24-.91v-.02c.08-.26.13-.51.19-.77l.03-.14c.06-.26.12-.52.17-.78.05-.25.09-.51.14-.76.06-.32.12-.63.17-.95.04-.26.07-.52.11-.78.05-.3.09-.61.13-.91v-.02c.02-.13.03-.26.04-.4.01-.13.02-.27.04-.4.01-.1.02-.21.03-.31.02-.21.04-.41.06-.62.02-.27.03-.53.05-.8Zm.06-2.31c0,.25,0,.51,0,.77v-.77Z"/>
    <path class="cls-10" d="m397.59,235.55c-.48-.28-.97-.55-1.46-.82-.16-.09-.33-.18-.49-.26-.33-.18-.66-.36-1-.53-.2-.1-.4-.2-.59-.3-.31-.16-.61-.31-.92-.47-.21-.11-.43-.21-.64-.32-.3-.15-.6-.29-.9-.43-.22-.11-.45-.21-.67-.31-.3-.14-.59-.27-.89-.41-.23-.1-.46-.21-.69-.31-.3-.13-.6-.26-.9-.39-.23-.1-.47-.2-.7-.3-.3-.13-.61-.25-.91-.38-.23-.1-.47-.19-.7-.28-.11-.04-.21-.09-.32-.13-.11-.05-.23-.09-.35-.13-.57-.22-1.15-.44-1.74-.66-.17-.06-.33-.12-.5-.18-.72-.26-1.45-.52-2.18-.77-.16-.05-.31-.1-.47-.16-.6-.2-1.21-.4-1.82-.59-.2-.06-.4-.13-.61-.19-.75-.23-1.5-.46-2.26-.67h-.02c-.07-.02-.15-.04-.23-.06-.57-.16-1.15-.32-1.72-.47-.23-.06-.45-.12-.68-.18-.44-.11-.88-.23-1.32-.34-.26-.06-.52-.13-.78-.19-.42-.1-.83-.2-1.25-.29-.27-.06-.53-.12-.8-.18-.42-.09-.84-.19-1.27-.27-.17-.04-.33-.07-.5-.11-.1-.02-.2-.04-.3-.06-.37-.08-.74-.15-1.11-.22-.28-.06-.57-.11-.85-.16-.38-.07-.76-.14-1.14-.21-.27-.05-.55-.1-.82-.15-.4-.07-.81-.14-1.21-.2-.25-.04-.51-.08-.76-.12-.46-.07-.93-.14-1.4-.21-.18-.03-.36-.06-.54-.08h-.05c-.47-.07-.93-.13-1.4-.19-.18-.02-.37-.05-.55-.07-.65-.08-1.31-.16-1.97-.23-.1,0-.2-.02-.3-.03-.56-.06-1.12-.12-1.68-.18-.23-.02-.46-.04-.68-.06-.43-.04-.86-.08-1.29-.12h-.06c-.24-.02-.48-.04-.73-.05-.4-.03-.8-.06-1.2-.09-.28-.02-.56-.03-.84-.05-.38-.02-.77-.05-1.15-.07-.29-.02-.59-.03-.88-.04-.37-.02-.74-.04-1.11-.05-.3-.01-.6-.02-.9-.03-.37-.01-.73-.03-1.1-.04h-.19c-.22,0-.44,0-.67-.01-.4,0-.79-.02-1.19-.02h-2.94c-.38,0-.76,0-1.14.01-.3,0-.61,0-.91.02-.38,0-.75.02-1.13.03-.15,0-.29,0-.44.01-.15,0-.29,0-.44.02-.45.02-.89.04-1.34.06-.28.01-.55.03-.82.04-.47.02-.94.05-1.42.08-.24.02-.48.03-.73.05-.63.04-1.25.09-1.88.14-.08,0-.17.01-.25.02-.71.06-1.42.12-2.12.19-.04,0-.08,0-.12.01-.12.01-.24.03-.36.04-.65.07-1.29.14-1.93.21-.24.03-.47.06-.71.08-.64.08-1.28.16-1.92.25-.16.02-.31.04-.47.06-.78.11-1.55.23-2.33.35-.19.03-.39.06-.58.1-.6.1-1.2.2-1.8.31-.13.02-.26.04-.39.07-.12.02-.25.05-.37.07-.36.07-.71.13-1.07.2-.29.06-.59.11-.88.17-.36.07-.71.15-1.07.22-.29.06-.58.12-.86.18-.36.08-.72.16-1.08.24-.28.06-.56.13-.84.19-.37.09-.73.17-1.09.26-.27.07-.54.13-.8.2-.38.1-.76.19-1.14.29-.25.06-.5.13-.75.19-.41.11-.82.23-1.24.34-.21.06-.42.11-.63.17-.6.17-1.19.35-1.79.53-.02,0-.04,0-.06.02-.61.19-1.22.38-1.82.57-.02,0-.03.01-.05.02-.07.02-.13.04-.19.07-.64.21-1.28.43-1.91.65-.21.07-.42.15-.63.22-.55.2-1.1.4-1.65.6-.17.06-.34.12-.5.19-.69.26-1.38.53-2.06.81-.15.06-.29.12-.44.18-.55.23-1.09.45-1.63.69-.2.09-.4.17-.6.26-.56.25-1.12.5-1.68.76-.11.05-.22.1-.33.15-.65.31-1.3.62-1.94.95-.17.08-.34.17-.5.26-.49.25-.98.51-1.46.76-.18.1-.36.19-.54.29-.63.34-1.25.69-1.86,1.04v4.75c.08-.04.15-.09.23-.13.54-.31,1.08-.61,1.63-.91.18-.1.36-.19.54-.29.1-.06.2-.11.31-.17.38-.2.77-.4,1.15-.6.17-.09.33-.17.5-.26.64-.32,1.28-.64,1.94-.95.11-.05.22-.1.33-.15.55-.26,1.11-.51,1.67-.76.2-.09.4-.18.6-.26.54-.23,1.08-.46,1.63-.69.14-.06.29-.12.43-.18.68-.28,1.37-.55,2.06-.81.17-.06.34-.13.5-.19.55-.2,1.09-.4,1.65-.6.21-.07.42-.15.63-.22.64-.22,1.27-.44,1.92-.65.08-.03.16-.05.24-.08.61-.2,1.21-.39,1.83-.57.02,0,.04-.01.06-.02.59-.18,1.19-.36,1.79-.53.21-.06.41-.11.62-.17.41-.12.83-.23,1.24-.34.25-.07.5-.13.75-.2.38-.1.75-.2,1.13-.29.27-.07.54-.13.81-.2.36-.09.72-.18,1.09-.26.28-.07.56-.13.84-.19.36-.08.71-.16,1.07-.24.29-.06.57-.12.86-.18.36-.07.71-.15,1.07-.22.29-.06.58-.11.88-.17.35-.07.71-.14,1.07-.2.25-.05.51-.09.76-.14.6-.11,1.19-.21,1.79-.3.2-.03.39-.07.59-.1.77-.12,1.55-.24,2.33-.35.16-.02.31-.04.47-.06.64-.09,1.28-.17,1.92-.25.24-.03.47-.06.71-.08.64-.07,1.28-.14,1.93-.21.16-.02.32-.03.48-.05.71-.07,1.41-.13,2.12-.19.09,0,.18-.01.27-.02.62-.05,1.24-.1,1.86-.14.24-.02.48-.03.72-.05.47-.03.95-.06,1.42-.08.27-.01.55-.03.82-.04.45-.02.89-.04,1.34-.06.29-.01.58-.02.87-.03.38-.01.75-.02,1.13-.03.3,0,.61-.01.91-.02.38,0,.76-.01,1.14-.01h2.94c.39,0,.79.01,1.18.02.29,0,.58.01.86.02.36,0,.73.02,1.09.03.3,0,.61.02.91.03.37.02.74.03,1.11.05.29,0,.59.03.88.04.38.02.77.05,1.15.07.28.02.56.03.84.05.4.03.8.06,1.2.09.26.02.53.04.79.06.43.04.85.08,1.27.11.24.02.47.04.71.06.54.05,1.07.11,1.61.17.12,0,.25.02.37.04.66.07,1.31.15,1.97.23.18.02.36.05.55.07.47.06.94.12,1.41.19.2.03.39.06.59.09.47.07.93.14,1.4.21.26.04.51.08.76.12.41.07.81.13,1.21.2.28.05.55.1.82.15.38.07.76.14,1.14.21.28.05.56.11.85.16.37.07.74.14,1.11.22.27.05.53.11.79.17.42.09.85.18,1.27.28.27.06.53.12.8.18.42.1.84.19,1.25.3.26.06.52.12.77.19.44.11.88.22,1.32.34.23.06.45.12.68.18.58.15,1.15.31,1.72.47.08.02.17.05.25.07.76.22,1.51.44,2.26.67.2.06.41.13.61.19.61.19,1.22.39,1.82.59.16.05.31.1.47.16.73.25,1.46.5,2.18.77.17.06.33.12.5.18.58.22,1.16.43,1.74.66.22.09.44.17.66.26.24.09.47.19.7.29.31.12.61.25.91.38.23.1.47.2.7.3.3.13.6.26.9.39.23.1.46.2.69.31.3.13.59.27.89.41.22.1.45.21.67.31.3.14.6.29.9.43.21.1.43.21.64.31.31.15.61.31.92.47.2.1.4.2.59.3.33.18.67.35,1,.53.16.09.33.18.49.26.49.27.98.54,1.46.82l8.07,4.7.09-4.72-8.16-4.73.06-.05Z"/>
    <path class="cls-6" d="m281.43,135.43c11.65,6.76,20.7,14.64,26.88,23.45,5.96,8.49,9.02,17.46,9.07,26.66.03,4.87-.79,9.67-2.43,14.37,8.01-.95,16.19-1.43,24.48-1.43,15.81,0,31.23,1.74,45.84,5.18,15.14,3.57,28.73,8.81,40.38,15.57l8.16,4.73h.01l-28.13,16.42-8.16-4.73c-32.03-18.57-83.87-18.59-115.69-.02l-.05-.03s-.05.03-.07.04l-27.04-15.69-.27-.15-.5-.29-.49-.28s.05-.03.07-.04c31.86-18.64,31.81-48.76-.2-67.32l28.12-16.42h0Z"/>
    <path class="cls-4" d="m270.33,226.2l-.04-.08-.32-.61s0,0,.02-.01c.14-.08,1.01-.54,2.35-1.38,2.74-1.71,7.48-4.98,12.1-9.63,6.49-6.54,14.09-17.24,13.39-31.08-1.19-23.47-23.04-34.47-26.7-36.94l.5-.37c4.3,2.64,7.72,4.41,13.82,10.03,6.4,6.11,12.53,14.73,13.16,27.25.71,14.13-7.02,25.02-13.63,31.68-7.15,7.19-14.57,11.11-14.64,11.15h-.01Z"/>
    <path class="cls-9" d="m281.74,235.64v4.75l-28.32-16.5v-4.67s28.32,16.42,28.32,16.42Z"/>
    <path class="cls-12" d="m433.82,223.96v4.67s-28.13,16.5-28.13,16.5v-4.75l28.13-16.42Z"/>
    <path class="cls-5" d="m395.79,220.66c10.83,3.99,18.5,8.64,18.5,8.64l.6-.22c-5.04-2.89-11.38-6.16-19.28-9.05-12.53-4.75-35.42-10.41-56.16-10.81-33.01-.54-58.47,10.38-67.12,14.89-.26.16-.5.31-.73.45-.42.25-.76.45-1.03.61-.33.19-.53.3-.6.33h-.02s.32.62.32.62c5.17-2.97,33.44-17.36,69.15-16.12,26-.01,54.43,9.96,56.35,10.67Z"/>
    <path class="cls-4" d="m406.12,240.14c-1.55-.92-11.84-7.89-26.31-12.55-11.91-3.81-25.79-5.92-40.13-6.11-36.29-.48-58.08,13.76-58.36,13.91l-.56-.36c.32-.18,22.37-14.82,58.93-14.32,14.41.19,28.32,2.48,40.3,6.31,11.6,3.38,24.45,11.41,26.63,12.73v.26s-.5.12-.5.12Z"/>
    <path class="cls-5" d="m253.94,219.51h0c.09-.07.26-.16.49-.3,1.73-1.01,7.03-4.08,11.93-8.87,5.46-5.34,11.85-14.3,11.28-26.73-.92-19.77-23.42-32.06-23.65-32.18l.57-.35c.23.12,22.91,12.28,23.85,32.49.59,12.73-6.08,21.74-11.68,27.18-5.27,5.14-10.64,8.11-11.98,8.86-.16.09-.26.14-.3.17h-.02s-.5-.28-.5-.28Z"/>
    <path class="cls-5" d="m281.39,235.36s0,0,0,0h0Zm31.78-34.61c2.02-5.37,3.19-11.37,2.86-17.95-.77-15.29-10.26-27.42-18.09-34.89-7.36-6.72-14.78-10.91-16.99-12.21l-.49.3h.02c.49.27,11.04,6.44,17.34,12.74,7.72,7.37,16.69,19.06,17.45,34.1.33,6.62-.88,12.65-2.96,18.02-.11.28-.22.56-.33.84.29-.04.59-.07.88-.11,8.41-1.05,17.26-1.65,26.36-1.8,42.88-.67,71.82,12.58,82.26,18.31,9.08,4.98,11.36,6.46,11.36,6.46l.03-.07.46-.23c-.26-.14-1.15-.68-1.61-.96-.46-.28-1.97-1.27-10.1-5.73-11.59-6.24-42.46-19.28-82.4-18.59-8.98.14-17.72.73-26.04,1.75Z"/>
    <path class="cls-6" d="m119.47,296.57l28.42,16.4,133.96-77.35-28.41-16.4-133.97,77.35Z"/>
    <path class="cls-7" d="m147.89,312.97v4.69l133.96-77.35v-4.69l-133.96,77.35Z"/>
    <path class="cls-9" d="m119.47,296.57v4.68l28.42,16.41v-4.69l-28.42-16.4Z"/>
    <path class="cls-4" d="m147.17,312.56l134.21-77.21-.59-.34-134.21,77.21.59.34Z"/>
    <path class="cls-4" d="m142.15,299.71l5.8-3.34.55.31-5.78,3.34-.57-.31Z"/>
    <path class="cls-4" d="m153.74,293.03l5.8-3.35.54.32-5.77,3.33-.57-.3Z"/>
    <path class="cls-4" d="m165.32,286.34l5.8-3.35.55.32-5.78,3.33-.57-.3Z"/>
    <path class="cls-4" d="m188.49,272.96l5.8-3.35.55.32-5.79,3.34-.56-.31Z"/>
    <path class="cls-4" d="m176.9,279.65l5.81-3.35.54.32-5.78,3.34-.57-.31Z"/>
    <path class="cls-4" d="m206.43,263.24l-5.79,3.34-.57-.31,5.81-3.35.55.32Z"/>
    <path class="cls-4" d="m217.94,256.58l-5.78,3.34-.57-.31,5.8-3.35.55.32Z"/>
    <path class="cls-4" d="m229.46,249.92l-5.79,3.34-.56-.31,5.8-3.35.55.32Z"/>
    <path class="cls-4" d="m240.98,243.26l-5.79,3.34-.57-.3,5.81-3.36.55.32Z"/>
    <path class="cls-4" d="m252.5,236.6l-5.79,3.34-.57-.3,5.81-3.36.55.32Z"/>
    <path class="cls-4" d="m264.02,229.94l-5.79,3.34-.57-.3,5.81-3.36.55.32Z"/>
    <path class="cls-4" d="m120.49,297.15l133.96-77.35-.51-.3-133.96,77.35.51.3Z"/>
    <path class="cls-6" d="m0,365.64l28.42,16.41,133.96-77.35-28.41-16.41L0,365.64Z"/>
    <path class="cls-7" d="m28.42,382.05v4.69l133.96-77.35v-4.69L28.42,382.05Z"/>
    <path class="cls-9" d="m0,365.64v4.69l28.42,16.41v-4.69L0,365.64Z"/>
    <path class="cls-4" d="m27.96,381.81l133.94-77.38-.58-.34L27.37,381.47l.59.34Z"/>
    <path class="cls-4" d="m15.45,372.92l5.79-3.35.55.32-5.77,3.33-.57-.3Z"/>
    <path class="cls-4" d="m27.03,366.23l5.8-3.35.55.32-5.78,3.33-.57-.3Z"/>
    <path class="cls-4" d="m38.61,359.54l5.8-3.35.55.32-5.78,3.34-.57-.31Z"/>
    <path class="cls-4" d="m61.78,346.17l5.8-3.36.55.32-5.78,3.34-.57-.3Z"/>
    <path class="cls-4" d="m50.2,352.85l5.8-3.35.55.32-5.78,3.34-.57-.31Z"/>
    <path class="cls-4" d="m79.72,336.44l-5.79,3.34-.57-.3,5.81-3.36.55.32Z"/>
    <path class="cls-4" d="m91.24,329.78l-5.79,3.34-.57-.3,5.81-3.36.55.32Z"/>
    <path class="cls-4" d="m102.76,323.12l-5.79,3.34-.57-.3,5.81-3.36.55.32Z"/>
    <path class="cls-4" d="m114.27,316.46l-5.78,3.34-.57-.3,5.8-3.35.55.31Z"/>
    <path class="cls-4" d="m125.79,309.8l-5.79,3.34-.56-.3,5.8-3.35.55.31Z"/>
    <path class="cls-4" d="m137.31,303.14l-5.79,3.34-.57-.3,5.81-3.35.55.31Z"/>
    <path class="cls-4" d="m148.51,296.68l-5.47,3.14-.57-.3,5.49-3.16.55.32Z"/>
    <path class="cls-4" d="m1.02,366.23l133.96-77.36-.51-.29L.5,365.93l.52.3Z"/>
  </g>
  <g id="right_hori_short_1">
    <polygon class="cls-6" points="512.79 269.56 512.29 269.85 511.77 270.15 485.66 285.22 485.08 285.56 484.47 285.91 484.47 285.92 484.46 285.91 405.48 240.31 405.96 240.04 406.53 239.7 419.3 232.32 419.31 232.32 419.85 232.01 432.79 224.53 433.29 224.24 433.8 223.95 484.47 253.21 512.79 269.56"/>
    <polygon class="cls-8" points="484.46 285.91 484.47 285.92 484.47 290.54 480.45 288.23 405.48 244.98 405.48 240.31 484.46 285.91"/>
    <polygon class="cls-4" points="485.66 285.22 485.08 285.56 484.47 285.21 405.96 240.04 406.53 239.7 484.47 284.54 485.66 285.22"/>
    <path class="cls-4" d="m487.86,271.94l5.77,3.33.57-.3-5.79-3.34-.55.31Z"/>
    <path class="cls-4" d="m476.39,265.3l5.76,3.33.57-.3-5.79-3.34-.54.31Z"/>
    <path class="cls-4" d="m464.91,258.67l5.76,3.33.57-.3-5.78-3.34-.55.31Z"/>
    <path class="cls-4" d="m453.43,252.03l5.77,3.34.56-.31-5.78-3.34-.55.31Z"/>
    <path class="cls-4" d="m441.95,245.39l5.77,3.34.57-.31-5.79-3.34-.55.31Z"/>
    <path class="cls-4" d="m430.47,238.75l5.77,3.34.57-.31-5.79-3.34-.55.31Z"/>
    <path class="cls-4" d="m419.3,232.32l5.45,3.14.57-.31-5.47-3.14-.55.31Z"/>
    <polygon class="cls-4" points="512.29 269.85 511.77 270.15 484.47 254.38 432.79 224.53 433.29 224.24 484.47 253.79 512.29 269.85"/>
  </g>
  <g id="right_turn">
    <g>
      <path class="cls-8" d="m484.53,290.59l-.05-.03v-4.6s8.18,4.71,8.18,4.71c11.67,6.74,25.28,11.96,40.44,15.52,14.63,3.43,30.08,5.17,45.91,5.17s31.26-1.74,45.86-5.17c15.12-3.56,28.67-8.78,40.27-15.52v4.62s-.03-.02-.03-.02c-11.6,6.74-25.15,11.96-40.26,15.52-14.6,3.43-30.02,5.17-45.86,5.17s-31.28-1.74-45.91-5.17c-15.16-3.56-28.77-8.78-40.44-15.52l-8.1-4.68Z"/>
      <path class="cls-6" d="m484.46,285.97l28.17-16.37,8.17,4.72c32.08,18.52,84.1,18.52,115.97,0l28.35,16.37c-11.6,6.74-25.15,11.96-40.27,15.52-14.6,3.43-30.02,5.17-45.86,5.17s-31.28-1.74-45.91-5.17c-15.16-3.56-28.77-8.78-40.44-15.52l-8.17-4.72h-.01Z"/>
      <path class="cls-6" d="m503.14,280.33c.32.2,29.94,18.79,75.84,19.56,42.24.7,69.93-16.45,70.2-16.63l.41.66c-.28.17-28.13,17.45-70.63,16.74-24.1-.4-44.44-6.09-56.99-10.83-13.61-5.13-19.36-9.07-19.44-9.12l.62-.39Z"/>
      <path class="cls-4" d="m512.18,269.84c7.43,4.03,10.95,7.55,26.31,12.68,11.93,3.8,25.55,6.02,40.26,6.04,36.35.48,58.44-13.93,58.66-14.08l.61.33c-.22.15-22.67,14.9-59.28,14.4-15.92-.15-28.41-2.31-40.41-6.13-13.24-4.4-16.24-6.89-26.69-12.96l.22-.34.33.05Z"/>
      <path class="cls-4" d="m485.76,285.21s2.06,1.21,11.15,6.18c10.46,5.72,39.35,19.35,82.3,18.68,20.17-.32,39.11-2.9,54.75-7.45,18.92-5.51,30.25-12.5,30.36-12.57l.53.28c-.11.07-11.65,7.49-30.68,13.04-15.71,4.58-34.72,7.17-54.96,7.49-42.12.57-72.03-13.09-82.55-18.84-9.12-4.98-11.46-6.45-11.49-6.46l.17-.17.42-.17Z"/>
    </g>
    <path class="cls-2" d="m649.59,283.58c-.28.17-28.13,17.45-70.63,16.74-24.1-.4-44.44-6.09-56.99-10.83-12.06-4.54-22.78-11.17-22.79-11.17"/>
  </g>
</svg>