<?xml version="1.0" encoding="UTF-8"?>
<svg id="Layer_2" data-name="Layer 2" xmlns="http://www.w3.org/2000/svg" xmlns:xlink="http://www.w3.org/1999/xlink" viewBox="0 0 918.51 533.19">
  <defs>
    <style>
      .cls-1 {
        fill: none;
      }

      .cls-2 {
        fill: url(#linear-gradient);
      }

      .cls-3, .cls-4 {
        fill: #f8f8f8;
      }

      .cls-5 {
        fill: #fff;
      }

      .cls-6 {
        fill: #414f52;
      }

      .cls-7 {
        fill: #151b1c;
      }

      .cls-8 {
        fill: #2c3638;
      }

      .cls-9 {
        fill: url(#linear-gradient-3);
      }

      .cls-10 {
        fill: url(#linear-gradient-4);
      }

      .cls-11 {
        fill: url(#linear-gradient-5);
      }

      .cls-4, .cls-12 {
        fill-rule: evenodd;
      }

      .cls-12 {
        fill: url(#linear-gradient-2);
      }
    </style>
    <linearGradient id="linear-gradient" x1="445.41" y1="328.07" x2="418.4" y2="328.07" gradientTransform="translate(0 363.68) scale(1 -1)" gradientUnits="userSpaceOnUse">
      <stop offset="0" stop-color="#151b1c"/>
      <stop offset="1" stop-color="#18292b"/>
    </linearGradient>
    <linearGradient id="linear-gradient-2" x1="535.41" y1="150.58" x2="570.8" y2="150.58" xlink:href="#linear-gradient"/>
    <linearGradient id="linear-gradient-3" x1="535.19" y1="233.4" x2="659.13" y2="233.4" gradientUnits="userSpaceOnUse">
      <stop offset="0" stop-color="#151b1c"/>
      <stop offset="1" stop-color="#2c3638"/>
    </linearGradient>
    <linearGradient id="linear-gradient-4" x1="659.13" y1="129.11" x2="687.26" y2="129.11" xlink:href="#linear-gradient"/>
    <linearGradient id="linear-gradient-5" x1="737.91" y1="300.94" x2="918.51" y2="300.94" gradientUnits="userSpaceOnUse">
      <stop offset="0" stop-color="#2c3638"/>
      <stop offset="1" stop-color="#151b1c"/>
    </linearGradient>
  </defs>
  <g id="frame">
    <rect class="cls-1" x="294.28" y="37.18" width="525" height="350"/>
  </g>
  <g id="left_turn_new">
    <g>
      <path class="cls-2" d="m445.21,16.41l.2,4.6c-16.12,9.31-24.18,21.56-24.14,33.8l-2.87-5.08c-.05-12.24,10.68-24.01,26.81-33.32Z"/>
      <path class="cls-8" d="m416.69,99.83v4.74s28.39-16.27,28.39-16.27v-4.72l-28.39,16.25Z"/>
      <path class="cls-8" d="m381.28,51.6c.01.31.03.62.05.93.02.27.03.53.05.8.02.31.06.62.09.93.03.26.05.53.08.79.04.31.08.62.13.93.04.26.07.52.11.78.05.32.11.63.17.95.05.25.09.51.14.76.06.31.13.61.2.92.06.26.11.51.18.77.08.31.16.62.25.93.07.25.13.5.2.75.09.31.19.63.29.94.08.24.15.49.23.73.11.32.23.65.34.97.08.23.16.46.25.69.2.54.42,1.07.64,1.61.01.03.02.05.03.08.24.56.49,1.12.75,1.68.09.18.18.36.27.55.18.37.36.75.55,1.12.11.22.23.44.35.66.18.33.35.67.54,1,.26.46.52.91.79,1.37.05.09.11.17.16.26.24.39.48.78.73,1.18.08.13.16.26.25.38.31.47.62.94.94,1.4.36.52.73,1.04,1.12,1.55.12.17.26.33.38.5.27.36.54.71.82,1.07.08.11.17.21.26.32.33.42.67.83,1.02,1.24.06.07.12.14.18.21.39.46.8.92,1.21,1.37.1.11.2.22.29.32.38.42.77.83,1.16,1.24.05.05.1.1.14.15.43.45.88.9,1.33,1.34.11.11.22.21.33.32.44.43.88.85,1.33,1.27.03.02.05.05.08.07.2.18.4.36.6.54.35.32.7.64,1.06.95.23.2.47.4.71.61.33.29.67.57,1.01.86.25.21.52.42.78.63.34.27.67.54,1.01.81.27.21.55.42.82.63.34.26.68.52,1.02.78.29.21.58.42.87.63.35.25.69.51,1.05.76.3.21.61.42.91.63.35.25.71.49,1.07.73.31.21.63.42.95.63.36.24.72.48,1.09.71.32.21.66.41.99.62.37.23.74.47,1.12.69.64.39,1.28.8,1.94,1.19v4.74c-.59-.35-1.17-.73-1.76-1.09-.06-.03-.11-.07-.17-.1-.38-.23-.75-.46-1.12-.69-.33-.21-.66-.41-.99-.62-.37-.23-.73-.47-1.09-.71-.32-.21-.64-.42-.95-.63-.36-.24-.71-.49-1.06-.73-.31-.21-.62-.42-.92-.63-.35-.25-.7-.5-1.05-.76-.29-.21-.58-.42-.87-.63-.35-.26-.69-.52-1.03-.79-.27-.21-.55-.42-.82-.63-.34-.27-.67-.54-1.01-.81-.26-.21-.52-.42-.78-.63-.34-.29-.68-.57-1.01-.86-.23-.2-.47-.4-.71-.6-.36-.32-.71-.64-1.06-.96-.19-.17-.39-.34-.57-.52,0,0,0-.01-.02-.02-.03-.02-.05-.05-.08-.07-.45-.42-.89-.84-1.33-1.27-.11-.11-.22-.21-.33-.32-.45-.44-.89-.89-1.33-1.34-.05-.05-.1-.1-.14-.15-.39-.41-.78-.83-1.16-1.24-.1-.11-.2-.22-.29-.32-.41-.46-.81-.91-1.21-1.37-.06-.07-.12-.14-.18-.21-.35-.41-.69-.82-1.02-1.24-.09-.11-.17-.21-.26-.32-.06-.07-.12-.15-.18-.22-.22-.28-.43-.56-.64-.84-.13-.17-.26-.34-.38-.5-.38-.51-.75-1.03-1.12-1.55-.32-.47-.63-.93-.94-1.4-.08-.13-.17-.26-.25-.38-.25-.39-.5-.78-.73-1.18-.05-.09-.11-.17-.16-.26-.24-.4-.48-.81-.71-1.22-.03-.05-.05-.1-.08-.15-.19-.33-.36-.67-.54-1-.12-.22-.24-.44-.35-.66-.19-.37-.37-.75-.55-1.12-.09-.18-.18-.36-.27-.55-.26-.56-.51-1.12-.75-1.68,0-.02-.02-.05-.03-.07-.22-.54-.44-1.07-.64-1.61,0-.02-.01-.04-.02-.05-.08-.21-.15-.42-.22-.64-.12-.32-.23-.65-.34-.97-.08-.24-.15-.49-.23-.73-.1-.31-.2-.63-.29-.94-.07-.25-.14-.5-.2-.75-.08-.31-.17-.62-.25-.93-.06-.26-.12-.51-.18-.77-.07-.31-.14-.61-.2-.92-.01-.05-.02-.1-.03-.15-.04-.2-.07-.41-.11-.61-.06-.31-.12-.63-.17-.95-.04-.26-.08-.52-.11-.78-.04-.31-.09-.62-.13-.93-.03-.26-.06-.53-.08-.79-.03-.31-.06-.62-.09-.93-.02-.27-.04-.53-.05-.8-.02-.31-.04-.62-.05-.93,0-.1-.01-.19-.01-.28-.01-.37-.02-.74-.02-1.1v-4.74c-.01.46,0,.93.02,1.39v-.02Z"/>
      <path class="cls-6" d="m416.79,0c-11.67,6.74-20.48,14.63-26.67,23.41-5.97,8.47-9.03,17.41-9.08,26.58-.05,9.17,2.9,18.11,8.78,26.58,6.09,8.77,15.06,16.64,26.66,23.38l28.6-16.37c-31.98-18.58-31.95-48.65.13-67.17L416.79,0h0Z"/>
      <path class="cls-3" d="m431.56,74.81c4.67,4.83,12.38,9.28,12.44,9.31l.51-.29c-.06-.03-8.48-5.33-12.17-9.22-5.98-6.3-12.11-13.85-11.42-26.58.92-19.71,23.67-31.7,23.87-31.88-.23-.13-.56-.3-.59-.34-.26.17-6.25,3.52-12.21,9.28s-11.16,13.01-11.62,22.84c-1.05,11.85,5.59,21.45,11.19,26.88Z"/>
      <path class="cls-3" d="m417.29,99.55l.77-.23c-.09-.05-9.56-5.43-18.23-14.12-7.98-8-17.31-21.09-16.46-38.02.76-14.99,10.14-26.9,17.87-34.25,8.4-7.99,15.63-11.7,16.57-12.34l-.52-.3c-.91.61-8.73,4.65-16.57,12.06-7.84,7.45-17.35,19.54-18.12,34.79-.87,17.22,8.6,30.51,16.7,38.63,8.76,8.77,17.91,13.74,18,13.79h0Z"/>
      <path class="cls-5" d="m428.08,90.58c-.69-.38-2.58-1.45-5.11-3.21l.31-.45c2.51,1.74,4.37,2.8,5.06,3.18l-.26.48Zm-9.91-6.85c-1.57-1.3-3.08-2.66-4.47-4.04l.39-.39c1.38,1.37,2.87,2.72,4.43,4.01l-.35.42Zm-8.52-8.5c-1.3-1.59-2.49-3.23-3.54-4.88l.46-.29c1.04,1.63,2.21,3.26,3.5,4.83l-.43.35Zm-6.43-10.18c-.85-1.85-1.56-3.76-2.1-5.66l.53-.15c.53,1.87,1.23,3.75,2.07,5.58l-.5.23Zm-3.27-11.58c-.15-1.31-.22-2.64-.22-3.96,0-.6.02-1.21.05-1.82v-.26s.56.03.56.03v.26c-.04.6-.06,1.2-.06,1.79,0,1.3.07,2.61.22,3.9l-.55.06Zm1.28-11.88l-.53-.13c.47-1.91,1.12-3.84,1.93-5.72l.51.22c-.8,1.86-1.44,3.76-1.9,5.64Zm4.64-10.93l-.47-.29c1.02-1.67,2.18-3.33,3.45-4.95l.43.34c-1.26,1.6-2.41,3.25-3.41,4.89Zm7.35-9.38l-.39-.38c.6-.62,1.22-1.24,1.86-1.84.79-.75,1.64-1.51,2.54-2.28l.36.42c-.89.76-1.74,1.51-2.52,2.26-.63.6-1.25,1.21-1.85,1.83Zm9.07-7.76l-.32-.45c1.59-1.15,3.27-2.29,4.98-3.38l.29.46c-1.71,1.08-3.37,2.21-4.95,3.36Z"/>
    </g>
  </g>
  <g id="left_hori_short_1">
    <polygon class="cls-6" points="535.07 135.54 534.57 135.83 534.06 136.13 534.05 136.13 508.05 151.15 507.46 151.48 506.76 151.89 458.19 123.85 416.69 99.89 417.24 99.58 417.82 99.24 444 84.12 445.02 83.54 479.77 103.61 535.07 135.54"/>
    <polygon class="cls-8" points="506.76 151.89 506.76 156.57 455.11 126.75 416.69 104.57 416.69 99.89 458.19 123.85 506.76 151.89"/>
    <path class="cls-7" d="m535.07,135.54v4.67l-28.31,16.35v-4.67l28.31-16.35Z"/>
    <polygon class="cls-3" points="508.05 151.15 507.47 151.49 507.46 151.48 458.66 123.41 417.24 99.58 417.82 99.24 459.11 122.99 508.05 151.15"/>
    <path class="cls-3" d="m519.67,142.8l-5.77-3.34-.55.32,5.76,3.32.56-.3Z"/>
    <path class="cls-3" d="m508.13,136.13l-5.78-3.34-.55.32,5.76,3.33.57-.31Z"/>
    <path class="cls-3" d="m496.59,129.46l-5.78-3.34-.55.32,5.76,3.33.57-.31Z"/>
    <path class="cls-3" d="m473.5,116.14l-5.78-3.35-.55.32,5.76,3.33.57-.3Z"/>
    <path class="cls-3" d="m485.05,122.79l-5.79-3.34-.55.32,5.77,3.33.57-.31Z"/>
    <path class="cls-3" d="m455.62,106.44l5.77,3.33.57-.3-5.79-3.34-.55.31Z"/>
    <path class="cls-3" d="m444.15,99.8l5.76,3.33.57-.3-5.79-3.34-.54.31Z"/>
    <path class="cls-3" d="m432.67,93.17l5.76,3.33.57-.3-5.78-3.34-.55.31Z"/>
    <polygon class="cls-3" points="534.57 135.83 534.06 136.13 534.05 136.13 479 104.33 444 84.12 444.51 83.83 479.38 103.97 534.57 135.83"/>
  </g>
  <g id="fork_extended">
    <g>
      <path class="cls-8" d="m506.75,151.88v4.73c16.11,9.34,24.15,21.62,24.11,33.9v-4.75c.05-12.28-8.01-24.54-24.11-33.88Z"/>
      <path class="cls-12" d="m570.74,188.23c.02-.31.04-.62.05-.93v.02c0-.21,0-.42.01-.63v3.99c0,.36-.01.73-.02,1.1,0,.04,0,.08,0,.12,0,.05,0,.11,0,.16-.01.31-.03.62-.05.93,0,.13-.01.26-.02.39,0,.14-.02.28-.03.42l-.09.93c-.01.17-.03.34-.05.51-.01.1-.02.19-.03.28-.02.15-.04.3-.06.45-.02.16-.05.32-.07.48-.03.26-.07.52-.11.78-.05.32-.11.64-.17.95-.02.08-.03.17-.04.25-.02.12-.04.24-.07.36l-.03.15c-.06.31-.13.61-.2.92-.03.13-.06.26-.09.39-.03.13-.06.26-.09.39-.04.16-.08.32-.13.48-.04.15-.08.3-.12.45-.06.25-.13.5-.2.75-.09.31-.19.63-.29.94-.04.13-.08.27-.13.41-.03.11-.07.22-.1.32l-.07.21c-.09.26-.18.51-.27.77-.07.22-.14.43-.22.64-.01,0-.02.03-.02.05-.17.46-.36.92-.54,1.38l-.1.23s-.01.02-.02.04c0,.01,0,.02-.01.04-.24.56-.49,1.12-.75,1.68-.09.19-.18.37-.27.55l-.13.27c-.14.29-.28.57-.42.86-.11.22-.23.44-.35.66-.07.13-.14.25-.2.38-.11.21-.22.42-.34.62-.03.05-.05.1-.08.15-.23.41-.47.82-.71,1.22-.02.04-.05.09-.08.13-.03.04-.05.09-.08.13-.23.4-.48.79-.73,1.18-.08.12-.17.25-.25.38-.31.47-.62.93-.94,1.4-.37.52-.74,1.04-1.12,1.55-.12.16-.25.33-.38.5-.21.28-.42.56-.64.84-.03.04-.06.07-.09.11-.03.04-.06.08-.09.11-.09.11-.17.21-.26.32-.33.42-.67.83-1.02,1.24l-.18.21c-.4.46-.8.91-1.21,1.37-.09.1-.19.21-.29.32-.38.41-.77.83-1.16,1.24-.02.03-.05.05-.07.08-.02.02-.05.05-.07.07l-.02.02c-.43.45-.87.89-1.31,1.33-.08.08-.15.15-.23.22-.03.03-.07.06-.1.1-.44.43-.88.85-1.33,1.27-.01.01-.03.02-.04.04-.01.01-.02.03-.04.04l-.02.02c-.14.14-.28.27-.43.4l-.14.12c-.35.32-.7.64-1.06.96-.13.11-.26.22-.39.33-.11.09-.21.18-.32.27-.21.19-.43.37-.65.56-.12.1-.24.2-.36.3l-.78.63c-.17.14-.33.27-.5.4-.17.14-.34.27-.51.41-.09.07-.18.14-.27.21-.18.14-.37.28-.55.42-.34.27-.68.53-1.03.79l-.87.63c-.15.11-.3.22-.44.33-.2.15-.4.29-.6.44-.3.21-.61.42-.92.63-.24.16-.48.33-.72.5-.11.08-.22.15-.34.23-.31.21-.63.42-.95.63-.36.24-.72.48-1.09.71-.33.21-.66.41-.99.62l-.33.21-.26.16-.14.07-.17.09c-.18.1-.36.19-.54.29-.26.14-.51.28-.77.42-.29.16-.58.33-.86.49v-4.62l.04-.02c.65-.38,1.29-.76,1.92-1.15.2-.11.39-.24.59-.36.18-.11.35-.22.53-.33.33-.21.67-.41.99-.62.37-.23.73-.47,1.09-.71.32-.21.64-.42.95-.63.36-.24.72-.48,1.07-.73.3-.21.61-.42.91-.63.21-.15.42-.3.62-.45.14-.11.28-.21.43-.31l.87-.63,1.02-.78c.27-.21.55-.42.82-.63.34-.27.67-.54,1.01-.81.26-.21.53-.42.78-.63.34-.29.68-.57,1.01-.86.24-.21.48-.41.71-.61.36-.31.71-.63,1.06-.95l.6-.54s.03-.02.04-.04c.01-.01.02-.02.04-.04.45-.42.89-.84,1.33-1.27.11-.11.22-.21.33-.32.45-.44.9-.89,1.33-1.34.04-.05.09-.1.14-.15v-.02c.4-.41.78-.81,1.16-1.23.06-.07.13-.14.2-.22l.09-.1c.41-.45.82-.91,1.21-1.37l.18-.21c.35-.41.69-.82,1.02-1.24.05-.07.11-.13.16-.19.04-.04.07-.09.1-.13.13-.16.25-.32.37-.48.15-.2.3-.39.45-.59.12-.17.26-.33.38-.5.39-.51.76-1.03,1.12-1.56.32-.46.63-.93.94-1.4.06-.08.12-.16.17-.25.03-.04.06-.09.08-.13.25-.4.49-.79.73-1.18.03-.06.07-.12.11-.18.02-.03.03-.05.05-.08.27-.46.53-.91.79-1.37.12-.2.23-.41.34-.62.07-.13.13-.25.2-.38.06-.11.12-.21.17-.32.06-.12.12-.23.18-.35.09-.17.17-.35.26-.53.1-.2.19-.4.29-.6.05-.11.1-.22.16-.32l.11-.23c.26-.56.51-1.12.75-1.68,0-.02.01-.03.02-.04,0-.01,0-.02.01-.04l.1-.24c.19-.46.37-.92.54-1.38.09-.23.17-.46.25-.69.06-.16.11-.32.17-.49.06-.16.11-.33.17-.49.04-.11.07-.22.1-.33.04-.14.08-.27.13-.41.1-.31.2-.63.29-.94.07-.25.13-.5.2-.75.09-.3.17-.61.24-.91v-.02c.08-.26.13-.51.19-.77l.03-.14c.06-.26.12-.52.17-.78.05-.25.09-.51.14-.76.06-.32.12-.63.17-.95.04-.26.07-.52.11-.78.05-.3.09-.61.13-.91v-.02c.02-.13.03-.26.04-.4.01-.13.02-.27.04-.4.01-.1.02-.21.03-.31.02-.21.04-.41.06-.62.02-.27.03-.53.05-.8Zm.06-2.31c0,.25,0,.51,0,.77v-.77Z"/>
      <path class="cls-9" d="m651.03,235.58c-.48-.28-.97-.55-1.46-.82-.16-.09-.33-.18-.49-.26-.33-.18-.66-.36-1-.53-.2-.1-.4-.2-.59-.3-.31-.16-.61-.31-.92-.47-.21-.11-.43-.21-.64-.32-.3-.15-.6-.29-.9-.43-.22-.11-.45-.21-.67-.31-.3-.14-.59-.27-.89-.41-.23-.1-.46-.21-.69-.31-.3-.13-.6-.26-.9-.39-.23-.1-.47-.2-.7-.3-.3-.13-.61-.25-.91-.38-.23-.1-.47-.19-.7-.28-.11-.04-.21-.09-.32-.13-.11-.05-.23-.09-.35-.13-.57-.22-1.15-.44-1.74-.66-.17-.06-.33-.12-.5-.18-.72-.26-1.45-.52-2.18-.77-.16-.05-.31-.1-.47-.16-.6-.2-1.21-.4-1.82-.59-.2-.06-.4-.13-.61-.19-.75-.23-1.5-.46-2.26-.67h-.02c-.07-.02-.15-.04-.23-.06-.57-.16-1.15-.32-1.72-.47-.23-.06-.45-.12-.68-.18-.44-.11-.88-.23-1.32-.34-.26-.06-.52-.13-.78-.19-.42-.1-.83-.2-1.25-.29-.27-.06-.53-.12-.8-.18-.42-.09-.84-.19-1.27-.27-.17-.04-.33-.07-.5-.11-.1-.02-.2-.04-.3-.06-.37-.08-.74-.15-1.11-.22-.28-.06-.57-.11-.85-.16-.38-.07-.76-.14-1.14-.21-.27-.05-.55-.1-.82-.15-.4-.07-.81-.14-1.21-.2-.25-.04-.51-.08-.76-.12-.46-.07-.93-.14-1.4-.21-.18-.03-.36-.06-.54-.08h-.05c-.47-.07-.93-.13-1.4-.19-.18-.02-.37-.05-.55-.07-.65-.08-1.31-.16-1.97-.23-.1,0-.2-.02-.3-.03-.56-.06-1.12-.12-1.68-.18-.23-.02-.46-.04-.68-.06-.43-.04-.86-.08-1.29-.12h-.06c-.24-.02-.48-.04-.73-.05-.4-.03-.8-.06-1.2-.09-.28-.02-.56-.03-.84-.05-.38-.02-.77-.05-1.15-.07-.29-.02-.59-.03-.88-.04-.37-.02-.74-.04-1.11-.05-.3-.01-.6-.02-.9-.03-.37-.01-.73-.03-1.1-.04h-.19c-.22,0-.44,0-.67-.01-.4,0-.79-.02-1.19-.02h-2.94c-.38,0-.76,0-1.14.01-.3,0-.61,0-.91.02-.38,0-.75.02-1.13.03-.15,0-.29,0-.44.01-.15,0-.29,0-.44.02-.45.02-.89.04-1.34.06-.28.01-.55.03-.82.04-.47.02-.94.05-1.42.08-.24.02-.48.03-.73.05-.63.04-1.25.09-1.88.14-.08,0-.17.01-.25.02-.71.06-1.42.12-2.12.19-.04,0-.08,0-.12.01-.12.01-.24.03-.36.04-.65.07-1.29.14-1.93.21-.24.03-.47.06-.71.08-.64.08-1.28.16-1.92.25-.16.02-.31.04-.47.06-.78.11-1.55.23-2.33.35-.19.03-.39.06-.58.1-.6.1-1.2.2-1.8.31-.13.02-.26.04-.39.07-.12.02-.25.05-.37.07-.36.07-.71.13-1.07.2-.29.06-.59.11-.88.17-.36.07-.71.15-1.07.22-.29.06-.58.12-.86.18-.36.08-.72.16-1.08.24-.28.06-.56.13-.84.19-.37.09-.73.17-1.09.26-.27.07-.54.13-.8.2-.38.1-.76.19-1.14.29-.25.06-.5.13-.75.19-.41.11-.82.23-1.24.34-.21.06-.42.11-.63.17-.6.17-1.19.35-1.79.53-.02,0-.04,0-.06.02-.61.19-1.22.38-1.82.57-.02,0-.03.01-.05.02-.07.02-.13.04-.19.07-.64.21-1.28.43-1.91.65-.21.07-.42.15-.63.22-.55.2-1.1.4-1.65.6-.17.06-.34.12-.5.19-.69.26-1.38.53-2.06.81-.15.06-.29.12-.44.18-.55.23-1.09.45-1.63.69-.2.09-.4.17-.6.26-.56.25-1.12.5-1.68.76-.11.05-.22.1-.33.15-.65.31-1.3.62-1.94.95-.17.08-.34.17-.5.26-.49.25-.98.51-1.46.76-.18.1-.36.19-.54.29-.63.34-1.25.69-1.86,1.04v4.75c.08-.04.15-.09.23-.13.54-.31,1.08-.61,1.63-.91.18-.1.36-.19.54-.29.1-.06.2-.11.31-.17.38-.2.77-.4,1.15-.6.17-.09.33-.17.5-.26.64-.32,1.28-.64,1.94-.95.11-.05.22-.1.33-.15.55-.26,1.11-.51,1.67-.76.2-.09.4-.18.6-.26.54-.23,1.08-.46,1.63-.69.14-.06.29-.12.43-.18.68-.28,1.37-.55,2.06-.81.17-.06.34-.13.5-.19.55-.2,1.09-.4,1.65-.6.21-.07.42-.15.63-.22.64-.22,1.27-.44,1.92-.65.08-.03.16-.05.24-.08.61-.2,1.21-.39,1.83-.57.02,0,.04-.01.06-.02.59-.18,1.19-.36,1.79-.53.21-.06.41-.11.62-.17.41-.12.83-.23,1.24-.34.25-.07.5-.13.75-.2.38-.1.75-.2,1.13-.29.27-.07.54-.13.81-.2.36-.09.72-.18,1.09-.26.28-.07.56-.13.84-.19.36-.08.71-.16,1.07-.24.29-.06.57-.12.86-.18.36-.07.71-.15,1.07-.22.29-.06.58-.11.88-.17.35-.07.71-.14,1.07-.2.25-.05.51-.09.76-.14.6-.11,1.19-.21,1.79-.3.2-.03.39-.07.59-.1.77-.12,1.55-.24,2.33-.35.16-.02.31-.04.47-.06.64-.09,1.28-.17,1.92-.25.24-.03.47-.06.71-.08.64-.07,1.28-.14,1.93-.21.16-.02.32-.03.48-.05.71-.07,1.41-.13,2.12-.19.09,0,.18-.01.27-.02.62-.05,1.24-.1,1.86-.14.24-.02.48-.03.72-.05.47-.03.95-.06,1.42-.08.27-.01.55-.03.82-.04.45-.02.89-.04,1.34-.06.29-.01.58-.02.87-.03.38-.01.75-.02,1.13-.03.3,0,.61-.01.91-.02.38,0,.76-.01,1.14-.01h2.94c.39,0,.79.01,1.18.02.29,0,.58.01.86.02.36,0,.73.02,1.09.03.3,0,.61.02.91.03.37.02.74.03,1.11.05.29,0,.59.03.88.04.38.02.77.05,1.15.07.28.02.56.03.84.05.4.03.8.06,1.2.09.26.02.53.04.79.06.43.04.85.08,1.27.11.24.02.47.04.71.06.54.05,1.07.11,1.61.17.12,0,.25.02.37.04.66.07,1.31.15,1.97.23.18.02.36.05.55.07.47.06.94.12,1.41.19.2.03.39.06.59.09.47.07.93.14,1.4.21.26.04.51.08.76.12.41.07.81.13,1.21.2.28.05.55.1.82.15.38.07.76.14,1.14.21.28.05.56.11.85.16.37.07.74.14,1.11.22.27.05.53.11.79.17.42.09.85.18,1.27.28.27.06.53.12.8.18.42.1.84.19,1.25.3.26.06.52.12.77.19.44.11.88.22,1.32.34.23.06.45.12.68.18.58.15,1.15.31,1.72.47.08.02.17.05.25.07.76.22,1.51.44,2.26.67.2.06.41.13.61.19.61.19,1.22.39,1.82.59.16.05.31.1.47.16.73.25,1.46.5,2.18.77.17.06.33.12.5.18.58.22,1.16.43,1.74.66.22.09.44.17.66.26.24.09.47.19.7.29.31.12.61.25.91.38.23.1.47.2.7.3.3.13.6.26.9.39.23.1.46.2.69.31.3.13.59.27.89.41.22.1.45.21.67.31.3.14.6.29.9.43.21.1.43.21.64.31.31.15.61.31.92.47.2.1.4.2.59.3.33.18.67.35,1,.53.16.09.33.18.49.26.49.27.98.54,1.46.82l8.07,4.7.09-4.72-8.16-4.73.06-.05Z"/>
      <path class="cls-6" d="m534.88,135.46c11.65,6.76,20.7,14.64,26.88,23.45,5.96,8.49,9.02,17.46,9.07,26.66.03,4.87-.79,9.67-2.43,14.37,8.01-.95,16.19-1.43,24.48-1.43,15.81,0,31.23,1.74,45.84,5.18,15.14,3.57,28.73,8.81,40.38,15.57l8.16,4.73h.01l-28.13,16.42-8.16-4.73c-32.03-18.57-83.87-18.59-115.69-.02l-.05-.03s-.05.03-.07.04l-27.04-15.69-.27-.15-.5-.29-.49-.28s.05-.03.07-.04c31.86-18.64,31.81-48.76-.2-67.32l28.12-16.42h0Z"/>
      <path class="cls-5" d="m531.93,220.2l-.33-.44c1.83-1.38,3.39-2.64,4.65-3.76l.37.41c-1.27,1.12-2.84,2.4-4.68,3.79Zm8.9-8.1l-.42-.36c1.33-1.53,2.56-3.12,3.65-4.72l.45.31c-1.11,1.62-2.35,3.22-3.69,4.77Zm6.78-9.95l-.49-.25c.91-1.8,1.68-3.65,2.29-5.5l.52.17c-.61,1.87-1.4,3.74-2.32,5.57Zm3.73-11.44l-.54-.08c.26-1.72.4-3.47.4-5.21,0-.24,0-.48,0-.72h.55c0,.23,0,.48,0,.72,0,1.77-.14,3.55-.4,5.29Zm-.72-11.94c-.33-1.98-.81-3.92-1.43-5.77l.52-.17c.62,1.88,1.11,3.85,1.45,5.86l-.54.09Zm-3.75-11.24c-.91-1.73-1.97-3.43-3.17-5.03l.44-.33c1.21,1.63,2.29,3.35,3.21,5.11l-.49.25Zm-7.06-9.55c-1.34-1.36-2.84-2.7-4.44-3.98l.34-.43c1.62,1.3,3.14,2.65,4.49,4.02l-.39.39Zm-9.28-7.5c-1.14-.77-2.22-1.45-3.19-2.06-.68-.43-1.3-.83-1.86-1.19l.3-.46c.56.37,1.18.76,1.85,1.19.97.62,2.05,1.3,3.2,2.07l-.31.46Z"/>
      <path class="cls-8" d="m535.19,235.67v4.75l-28.32-16.5v-4.67s28.32,16.42,28.32,16.42Z"/>
      <path class="cls-10" d="m687.26,223.99v4.67s-28.13,16.5-28.13,16.5v-4.75l28.13-16.42Z"/>
      <path class="cls-5" d="m665.47,227.97c-1.79-.94-3.59-1.85-5.35-2.7l.24-.5c1.76.85,3.57,1.76,5.37,2.71l-.26.49Zm-143.08-1.13l-.27-.48c.15-.09,2.43-1.39,2.62-1.5.78-.43,1.7-.92,2.66-1.4l.25.49c-.95.48-1.87.96-2.64,1.39-.19.11-2.46,1.41-2.61,1.49Zm131.37-4.46c-1.8-.76-3.4-1.37-4.78-1.83-.15-.05-.42-.15-.83-.29l.18-.52c.41.14.69.24.83.29,1.38.46,3,1.08,4.81,1.84l-.21.51Zm-119.77-1.35l-.22-.51c1.8-.77,3.68-1.52,5.58-2.24l.19.52c-1.89.71-3.77,1.46-5.56,2.23Zm107.5-2.91c-1.9-.57-3.84-1.13-5.77-1.65l.14-.53c1.94.53,3.88,1.08,5.78,1.66l-.16.53Zm-95.33-1.61l-.17-.52c1.91-.61,3.85-1.18,5.76-1.71l.15.53c-1.91.52-3.84,1.1-5.74,1.7Zm82.79-1.78c-1.95-.47-3.92-.91-5.85-1.31l.11-.54c1.94.41,3.91.85,5.87,1.32l-.13.54Zm-70.26-1.61l-.12-.54c1.94-.43,3.93-.83,5.9-1.18l.1.54c-1.96.35-3.94.75-5.87,1.18Zm57.54-1.02c-1.99-.34-3.98-.65-5.92-.92l.08-.54c1.95.27,3.95.58,5.94.92l-.09.54Zm-44.76-1.21l-.07-.54c1.99-.25,4-.46,5.98-.63l.04.55c-1.97.16-3.97.37-5.96.62Zm31.89-.5c-2.04-.18-4.05-.32-5.98-.4l.02-.55c1.94.08,3.96.22,6,.4l-.05.55Zm-18.96-.52l-.02-.55c1.99-.06,4-.08,6.01-.04v.55c-2.02-.03-4.01-.02-6,.04Z"/>
      <path class="cls-3" d="m659.57,240.17c-1.55-.92-11.84-7.89-26.31-12.55-11.91-3.81-25.79-5.92-40.13-6.11-36.29-.48-58.08,13.76-58.36,13.91l-.56-.36c.32-.18,22.37-14.82,58.93-14.32,14.41.19,28.32,2.48,40.3,6.31,11.6,3.38,24.45,11.41,26.63,12.73v.26s-.5.12-.5.12Z"/>
      <path class="cls-4" d="m507.38,219.54h0c.09-.07.26-.16.49-.3,1.73-1.01,7.03-4.08,11.93-8.87,5.46-5.34,11.85-14.3,11.28-26.73-.92-19.77-23.42-32.06-23.65-32.18l.57-.35c.23.12,22.91,12.28,23.85,32.49.59,12.73-6.08,21.74-11.68,27.18-5.27,5.14-10.64,8.11-11.98,8.86-.16.09-.26.14-.3.17h-.02s-.5-.28-.5-.28Z"/>
      <path class="cls-4" d="m534.84,235.39s0,0,0,0h0Zm31.78-34.61c2.02-5.37,3.19-11.37,2.86-17.95-.77-15.29-10.26-27.42-18.09-34.89-7.36-6.72-14.78-10.91-16.99-12.21l-.49.3h.02c.49.27,11.04,6.44,17.34,12.74,7.72,7.37,16.69,19.06,17.45,34.1.33,6.62-.88,12.65-2.96,18.02-.11.28-.22.56-.33.84,9.25-1.37,25.84-3.99,53.02-.61,28.84,3.58,48.3,12.52,56.48,17.02,9.08,4.98,11.36,6.46,11.36,6.46l.03-.07.46-.23c-.26-.14-1.15-.68-1.61-.96-.46-.28-1.97-1.27-10.1-5.73-11.12-5.98-30.86-14.01-56.68-17.08-26.93-3.2-43.44-.78-51.75.24Z"/>
      <path class="cls-6" d="m372.92,296.6l28.42,16.4,133.96-77.35-28.41-16.4-133.97,77.35Z"/>
      <path class="cls-7" d="m401.34,313v4.69l133.96-77.35v-4.69l-133.96,77.35Z"/>
      <path class="cls-8" d="m372.92,296.6v4.68l28.42,16.41v-4.69l-28.42-16.4Z"/>
      <path class="cls-3" d="m400.62,312.59l134.21-77.21-.59-.34-134.21,77.21.59.34Z"/>
      <path class="cls-3" d="m395.6,299.74l5.8-3.34.55.31-5.78,3.34-.57-.31Z"/>
      <path class="cls-3" d="m407.19,293.06l5.8-3.35.54.32-5.77,3.33-.57-.3Z"/>
      <path class="cls-3" d="m418.77,286.37l5.8-3.35.55.32-5.78,3.33-.57-.3Z"/>
      <path class="cls-3" d="m441.94,272.99l5.8-3.35.55.32-5.79,3.34-.56-.31Z"/>
      <path class="cls-3" d="m430.35,279.68l5.81-3.35.54.32-5.78,3.34-.57-.31Z"/>
      <path class="cls-3" d="m459.88,263.27l-5.79,3.34-.57-.31,5.81-3.35.55.32Z"/>
      <path class="cls-3" d="m471.39,256.61l-5.78,3.34-.57-.31,5.8-3.35.55.32Z"/>
      <path class="cls-3" d="m482.91,249.95l-5.79,3.34-.56-.31,5.8-3.35.55.32Z"/>
      <path class="cls-3" d="m494.43,243.29l-5.79,3.34-.57-.3,5.81-3.36.55.32Z"/>
      <path class="cls-3" d="m505.95,236.63l-5.79,3.34-.57-.3,5.81-3.36.55.32Z"/>
      <path class="cls-3" d="m517.47,229.97l-5.79,3.34-.57-.3,5.81-3.36.55.32Z"/>
      <path class="cls-3" d="m373.94,297.18l133.96-77.35-.51-.3-133.96,77.35.51.3Z"/>
      <path class="cls-6" d="m253.44,365.67l28.42,16.41,133.96-77.35-28.41-16.41-133.97,77.35Z"/>
      <path class="cls-7" d="m281.86,382.08v4.69l133.96-77.35v-4.69l-133.96,77.35Z"/>
      <path class="cls-8" d="m253.44,365.67v4.69l28.42,16.41v-4.69l-28.42-16.41Z"/>
      <path class="cls-3" d="m281.4,381.84l133.94-77.38-.58-.34-133.95,77.38.59.34Z"/>
      <path class="cls-3" d="m268.89,372.95l5.79-3.35.55.32-5.77,3.33-.57-.3Z"/>
      <path class="cls-3" d="m280.47,366.26l5.8-3.35.55.32-5.78,3.33-.57-.3Z"/>
      <path class="cls-3" d="m292.05,359.57l5.8-3.35.55.32-5.78,3.34-.57-.31Z"/>
      <path class="cls-3" d="m315.22,346.2l5.8-3.36.55.32-5.78,3.34-.57-.3Z"/>
      <path class="cls-3" d="m303.64,352.88l5.8-3.35.55.32-5.78,3.34-.57-.31Z"/>
      <path class="cls-3" d="m333.16,336.47l-5.79,3.34-.57-.3,5.81-3.36.55.32Z"/>
      <path class="cls-3" d="m344.68,329.81l-5.79,3.34-.57-.3,5.81-3.36.55.32Z"/>
      <path class="cls-3" d="m356.2,323.15l-5.79,3.34-.57-.3,5.81-3.36.55.32Z"/>
      <path class="cls-3" d="m367.71,316.49l-5.78,3.34-.57-.3,5.8-3.35.55.31Z"/>
      <path class="cls-3" d="m379.23,309.83l-5.79,3.34-.56-.3,5.8-3.35.55.31Z"/>
      <path class="cls-3" d="m390.75,303.17l-5.79,3.34-.57-.3,5.81-3.35.55.31Z"/>
      <path class="cls-3" d="m401.95,296.71l-5.47,3.14-.57-.3,5.49-3.16.55.32Z"/>
      <path class="cls-3" d="m254.46,366.26l133.96-77.36-.51-.29-133.97,77.35.52.3Z"/>
    </g>
    <g>
      <path class="cls-6" d="m119.47,443.02l28.42,16.4,133.97-77.34-28.42-16.41-133.97,77.35Z"/>
      <path class="cls-7" d="m147.89,459.42v4.69l133.97-77.34v-4.69l-133.97,77.34Z"/>
      <path class="cls-8" d="m119.47,443.02v4.68l28.42,16.41v-4.69l-28.42-16.4Z"/>
      <path class="cls-3" d="m147.17,459.01l134.3-77.21-.6-.34-134.29,77.21.59.34Z"/>
      <path class="cls-3" d="m142.15,446.16l5.8-3.34.55.31-5.78,3.34-.57-.31Z"/>
      <path class="cls-3" d="m153.74,439.48l5.8-3.35.54.32-5.77,3.33-.57-.3Z"/>
      <path class="cls-3" d="m165.32,432.79l5.8-3.35.55.32-5.78,3.33-.57-.3Z"/>
      <path class="cls-3" d="m188.49,419.41l5.8-3.35.55.32-5.79,3.34-.56-.31Z"/>
      <path class="cls-3" d="m176.9,426.1l5.81-3.35.54.32-5.78,3.34-.57-.31Z"/>
      <path class="cls-3" d="m206.43,409.69l-5.79,3.34-.57-.31,5.81-3.35.55.32Z"/>
      <path class="cls-3" d="m217.94,403.03l-5.78,3.34-.57-.31,5.8-3.35.55.32Z"/>
      <path class="cls-3" d="m229.46,396.37l-5.79,3.34-.56-.31,5.8-3.35.55.32Z"/>
      <path class="cls-3" d="m240.98,389.71l-5.79,3.34-.57-.3,5.81-3.36.55.32Z"/>
      <path class="cls-3" d="m252.5,383.05l-5.79,3.34-.57-.3,5.81-3.36.55.32Z"/>
      <path class="cls-3" d="m264.02,376.39l-5.79,3.34-.57-.3,5.81-3.36.55.32Z"/>
      <path class="cls-3" d="m120.49,443.6l133.99-77.35-.52-.3-133.98,77.35.51.3Z"/>
      <path class="cls-6" d="m0,512.09l28.42,16.41,133.96-77.35-28.41-16.41L0,512.09Z"/>
      <path class="cls-7" d="m28.42,528.5v4.69l133.96-77.35v-4.69l-133.96,77.35Z"/>
      <path class="cls-8" d="m0,512.09v4.69l28.42,16.41v-4.69l-28.42-16.41Z"/>
      <path class="cls-3" d="m27.96,528.26l133.94-77.38-.58-.34-133.95,77.38.59.34Z"/>
      <path class="cls-3" d="m15.45,519.37l5.79-3.35.55.32-5.77,3.33-.57-.3Z"/>
      <path class="cls-3" d="m27.03,512.68l5.8-3.35.55.32-5.78,3.33-.57-.3Z"/>
      <path class="cls-3" d="m38.61,505.99l5.8-3.35.55.32-5.78,3.34-.57-.31Z"/>
      <path class="cls-3" d="m61.78,492.62l5.8-3.36.55.32-5.78,3.34-.57-.3Z"/>
      <path class="cls-3" d="m50.2,499.3l5.8-3.35.55.32-5.78,3.34-.57-.31Z"/>
      <path class="cls-3" d="m79.72,482.89l-5.79,3.34-.57-.3,5.81-3.36.55.32Z"/>
      <path class="cls-3" d="m91.24,476.23l-5.79,3.34-.57-.3,5.81-3.36.55.32Z"/>
      <path class="cls-3" d="m102.76,469.57l-5.79,3.34-.57-.3,5.81-3.36.55.32Z"/>
      <path class="cls-3" d="m114.27,462.91l-5.78,3.34-.57-.3,5.8-3.35.55.31Z"/>
      <path class="cls-3" d="m125.79,456.25l-5.79,3.34-.56-.3,5.8-3.35.55.31Z"/>
      <path class="cls-3" d="m137.31,449.59l-5.79,3.34-.57-.3,5.81-3.35.55.31Z"/>
      <path class="cls-3" d="m148.51,443.13l-5.47,3.14-.57-.3,5.49-3.16.55.32Z"/>
      <path class="cls-3" d="m1.02,512.68l133.96-77.36-.51-.29L.5,512.38l.52.3Z"/>
    </g>
  </g>
  <g id="right_hori_short_1">
    <polygon class="cls-6" points="766.24 269.59 765.74 269.88 765.22 270.18 739.11 285.25 738.53 285.59 737.92 285.94 737.92 285.95 737.91 285.94 658.93 240.34 659.41 240.07 659.98 239.73 672.75 232.35 672.76 232.35 673.3 232.04 686.24 224.56 686.74 224.27 687.25 223.98 737.92 253.24 766.24 269.59"/>
    <polygon class="cls-8" points="737.91 285.94 737.92 285.95 737.92 290.57 733.9 288.26 658.93 245.01 658.93 240.34 737.91 285.94"/>
    <polygon class="cls-3" points="739.11 285.25 738.53 285.59 737.92 285.24 659.41 240.07 659.98 239.73 737.92 284.57 739.11 285.25"/>
    <path class="cls-3" d="m741.31,271.97l5.77,3.33.57-.3-5.79-3.34-.55.31Z"/>
    <path class="cls-3" d="m729.83,265.33l5.76,3.33.57-.3-5.79-3.34-.54.31Z"/>
    <path class="cls-3" d="m718.35,258.7l5.76,3.33.57-.3-5.78-3.34-.55.31Z"/>
    <path class="cls-3" d="m706.87,252.06l5.77,3.34.56-.31-5.78-3.34-.55.31Z"/>
    <path class="cls-3" d="m695.39,245.42l5.77,3.34.57-.31-5.79-3.34-.55.31Z"/>
    <path class="cls-3" d="m683.91,238.78l5.77,3.34.57-.31-5.79-3.34-.55.31Z"/>
    <path class="cls-3" d="m672.75,232.35l5.45,3.14.57-.31-5.47-3.14-.55.31Z"/>
    <polygon class="cls-3" points="765.74 269.88 765.22 270.18 737.92 254.41 686.24 224.56 686.74 224.27 737.92 253.82 765.74 269.88"/>
  </g>
  <g id="right_turn_new">
    <g>
      <path class="cls-11" d="m737.92,290.57v-4.63s8.13,4.29,8.13,4.29c12.48,5.72,25.11,7.86,40.3,15.18,14.63,3.43,30.2,5.96,46.03,5.96s29.17-4.52,43.77-7.95c15.12-3.56,30.76-6,42.36-12.74v4.69c-15.29,8.23-44.85,20.75-86,20.57-40.21-.18-71.9-12.09-94.59-25.37Z"/>
      <path class="cls-6" d="m918.51,290.69c-8.34,4.92-22.19,11.29-41.59,16.06-12.22,3-26.4,4.79-44.18,5.25-24.46.64-58.84-7.79-81.45-18.78-4.67-2.27-9.07-4.67-13.13-7.14-.08-.04-.16-.09-.24-.14l.61-.35.58-.34,2.92-1.68,24.21-13.98c15.57,8.07,34.85,14.67,63.58,16.37,26.08,1.54,50.44-6.56,60.27-11.68l24.21,13.97,3.16,1.83s1.05.6,1.05.6Z"/>
      <path class="cls-3" d="m834.57,299.87c-.63,0-1.27,0-1.91-.01-1.33-.01-2.72-.05-4.1-.09l.02-.5c1.38.04,2.76.08,4.09.09.64,0,1.27.01,1.9.01h.99s0,.5,0,.5h-.99Zm7.5-.17l-.02-.5c2.32-.11,4.67-.26,6.97-.47l.04.5c-2.32.21-4.67.36-6.99.47Zm-20.02-.27c-2.33-.16-4.67-.37-6.98-.62l.05-.5c2.3.25,4.64.46,6.96.62l-.04.5Zm33.48-.91l-.06-.5c2.29-.3,4.62-.65,6.91-1.05l.09.49c-2.3.4-4.63.76-6.93,1.06Zm-46.92-.55c-2.33-.35-4.65-.74-6.91-1.18l.1-.49c2.25.44,4.57.83,6.89,1.18l-.07.49Zm60.24-1.77l-.11-.49c2.27-.5,4.56-1.06,6.79-1.66l.13.48c-2.24.6-4.53,1.16-6.81,1.66Zm-73.51-.78c-2.27-.54-4.56-1.13-6.78-1.77l.14-.48c2.22.63,4.5,1.23,6.76,1.76l-.12.49Zm86.57-2.71l-.15-.48c2.23-.71,4.45-1.48,6.6-2.28l.18.47c-2.16.81-4.39,1.58-6.63,2.29Zm-99.57-.98c-1.58-.53-3.18-1.09-4.74-1.67-.6-.22-1.22-.46-1.86-.72l.19-.46c.64.26,1.26.5,1.85.72,1.55.58,3.14,1.14,4.72,1.66l-.16.47Zm112.25-3.75l-.2-.46c2.22-.96,4.34-1.96,6.32-2.98l.23.45c-1.99,1.02-4.12,2.03-6.35,2.99Zm-124.82-1.24c-1.93-.89-4.06-1.91-6.33-3.03l.22-.45c2.27,1.12,4.39,2.14,6.32,3.02l-.21.46Zm-12.14-5.96c-2.44-1.26-5.76-3.01-5.83-3.08l.3-.4s2.32,1.26,5.76,3.03l-.23.45Z"/>
      <path class="cls-3" d="m836.81,287.14c-1.31,0-2.65-.02-4.02-.06-16.28-.5-34.87-3.77-48.49-8.54-9.81-3.23-18.82-8.21-19.2-8.42l.24-.46c.39.22,9.36,5.17,19.13,8.39,13.58,4.76,32.11,8.02,48.34,8.52,14.49.44,24.93-1.58,33.57-3.51,11.71-2.61,21.12-6.73,24.21-8.49.16-.09.43-.25.43-.25l.09.55c-2.85,1.69-12.53,5.99-24.62,8.7-7.85,1.75-17.18,3.58-29.67,3.58Z"/>
      <path class="cls-3" d="m918.08,290.43c-8.37,4.84-19.07,9.39-30.14,12.83-16.57,5.14-34.73,7.79-55.51,8.1-.67.01-1.35.02-2.03.02-29.84,0-64.82-9.8-91.87-25.79-.05-.04-.11-.07-.16-.1l.29-.5c.15.09.3.18.45.26,27.54,16.21,63.21,25.97,93.31,25.53,20.72-.31,38.83-2.95,55.35-8.08,10.89-3.38,21.48-7.89,29.77-12.64l.54.37Z"/>
    </g>
  </g>
</svg>