<svg width="37" height="25" viewBox="0 0 37 25" fill="none" xmlns="http://www.w3.org/2000/svg">
<path d="M31.7981 9.36481L31.3429 9.69525L31.0249 9.51446L31.2369 9.29624L31.4302 9.15283L31.7981 9.36481Z" fill="#909090"/>
<path d="M31.4304 9.15266L31.2371 9.29607L31.0251 9.51429L30.7071 9.85095L30.6198 9.97565L30.2582 10.5118L29.9776 11.0917L29.909 11.2288L29.7781 11.6715L29.6908 11.9645L29.6658 12.2015L29.6159 12.6566L18.0682 19.3215L17.9934 18.7168L17.7751 18.2367L17.4322 17.9187L16.9833 17.7815L16.6278 17.819L16.4595 17.8377L16.2662 17.9187L16.1664 17.9624L15.8858 18.0871L15.5367 18.3427L15.3371 18.4861L15.1314 18.6981L14.8134 19.0347L14.7261 19.1594L14.3644 19.6956L14.0838 20.2754L14.0215 20.4126L10.7979 21.8778V20.0198L13.7596 18.3115L16.048 16.9897L21.1796 14.022L21.9528 13.5731L27.6331 10.2874V10.4744L28.4312 10.9358L28.8428 10.6989V10.4059L28.5622 9.85719L28.4998 9.78862L28.7368 9.65145L36.1006 6.18494L36.3127 6.33456L35.6268 6.93309L35.4397 7.90571L33.5816 8.97809L33.3259 8.74117L32.877 8.604L32.5278 8.64141L32.3532 8.66013L32.1475 8.74741L32.0477 8.79105L31.7671 8.91574L31.4179 9.17137L31.4304 9.15266ZM22.5576 14.103V14.3774L22.6137 14.4085L23.6114 13.8287V13.5544L23.5552 13.5232L22.5514 14.103H22.5576Z" fill="#B29918"/>
<path d="M16.1787 17.95L16.2785 17.9126L16.7336 18.1744L17.1514 18.4176L16.7898 18.3054L16.1787 17.95Z" fill="#616161"/>
<path d="M16.4659 17.8316L16.6342 17.8129L16.7028 17.9687L16.734 18.1745L16.2788 17.9126L16.4659 17.8316Z" fill="#616161"/>
<path d="M15.8982 18.0746L16.1788 17.95L16.7899 18.3053L16.3596 18.349L15.8982 18.0746Z" fill="#6C6C6C"/>
<path d="M15.3433 18.4801L15.5491 18.3304L15.9045 18.5424L15.4493 18.8729L15.1438 18.6921L15.3433 18.4801Z" fill="#909090"/>
<path d="M14.8256 19.0286L15.1436 18.6919L15.4491 18.8727L15.0251 19.3216L14.7383 19.1533L14.8256 19.0286Z" fill="#9E9E9E"/>
<path d="M14.3767 19.6895L14.7384 19.1533L15.0252 19.3217L14.6635 19.8516L14.3767 19.6895Z" fill="#A7A7A7"/>
<path d="M14.0274 20.4066L14.096 20.2694L14.3828 20.4377L14.2082 21.0238L13.8965 20.8492L14.0274 20.4066Z" fill="#AAAAAA"/>
<path d="M32.3658 8.64151L32.5342 8.6228L32.609 8.78491L32.6339 9.00313L32.1538 8.7288L32.3658 8.64151Z" fill="#616161"/>
<path d="M31.7793 8.89727L32.0599 8.77258L32.6772 9.12797L32.2532 9.1716L31.7793 8.89727Z" fill="#6C6C6C"/>
<path d="M30.7135 9.85119L31.0253 9.51453L31.3433 9.69532L30.9193 10.1442L30.6262 9.97589L30.7135 9.85119Z" fill="#9E9E9E"/>
<path d="M29.6968 11.9584L29.7841 11.6716L30.1021 11.8524L30.0398 12.4136L29.6719 12.2016L29.6968 11.9584Z" fill="#A5A5A5"/>
<path d="M29.6221 12.6566L30.1022 12.906L30.2518 13.2365L29.7655 12.9559L29.7405 12.719L29.6221 12.6566Z" fill="#8E8E8E"/>
<path d="M29.9154 11.2288L29.9777 11.0917L30.277 11.26L30.1024 11.8523L29.7844 11.6715L29.9154 11.2288Z" fill="#AAAAAA"/>
<path d="M32.1536 8.72888L32.6337 9.00321L33.0452 9.24014L32.6773 9.12791L32.0601 8.77253L32.1536 8.72888Z" fill="#616161"/>
<path d="M28.5059 9.78248L28.5682 9.85105L28.2939 10.0069L27.6392 9.63285L28.0569 9.38969L28.1068 9.35852L28.35 9.61415L28.3812 9.65155L28.5059 9.78248Z" fill="#F6DE67"/>
<path d="M27.6454 9.62661L27.6392 10.2813L21.9588 13.567L21.2729 9.95081L22.0087 9.52686L27.6454 9.62661Z" fill="#605B51"/>
<path d="M27.6392 10.2813V9.63293L28.2939 10.0132L28.4373 10.643V10.936L27.6392 10.4746V10.2876V10.2813ZM27.7202 9.7701V10.4185L28.3562 10.7863V10.5993L28.2315 10.0631L27.7202 9.7701Z" fill="#FFE57E"/>
<path d="M28.3501 9.61418L28.107 9.35856L28.0571 9.38972L25.5754 7.46943L25.7874 7.34473L28.743 9.64535L28.3813 9.65159L28.3501 9.61418Z" fill="#B29918"/>
<path d="M15.5491 18.3305L15.8982 18.0748L16.3597 18.3492L15.9045 18.5424L15.5491 18.3305Z" fill="#808080"/>
<path d="M31.4304 9.15284L31.7796 8.89722L32.2535 9.17155L31.7983 9.36482L31.4304 9.15284Z" fill="#808080"/>
<path d="M29.6221 12.6568L29.6719 12.2017L30.0398 12.4136L30.1022 12.9062L29.6221 12.6568Z" fill="#9C9C9C"/>
<path d="M28.057 9.38977L27.6455 9.6267L22.0088 9.52694L25.5754 7.46948L28.057 9.38977Z" fill="#605B51"/>
<path d="M28.5061 9.78245L28.3813 9.65151L28.743 9.64526L28.5061 9.78245Z" fill="#B29918"/>
<path d="M31.343 9.69515L31.7981 9.36471L32.2533 9.17144L32.6773 9.12781L33.039 9.24003L33.3195 9.50188L33.4817 9.85726L33.5004 9.89467L33.5627 10.3872L33.5378 10.6241L33.5066 10.9483L33.4879 11.0107L33.332 11.5407L33.0514 12.1205L32.6898 12.6567L32.2658 13.1056L31.8106 13.436L31.3554 13.6293L30.9314 13.6729L30.5698 13.5607L30.2892 13.2988L30.2642 13.2427L30.1146 12.9123L30.0522 12.4198L30.1146 11.8586L30.2892 11.2663L30.5698 10.6865L30.9314 10.1503L31.3554 9.70139L31.343 9.69515ZM31.7981 12.7502L32.1037 12.5257L32.3905 12.2265L32.6336 11.8711L32.8207 11.4845L32.9392 11.0917L32.9766 10.7177L32.9392 10.3872L32.8207 10.1254L32.6336 9.95078L32.5339 9.91961L32.3905 9.87597L32.1037 9.90715L31.7981 10.0381L31.4926 10.2625L31.212 10.5618L30.9688 10.9172L30.7818 11.3037L30.6633 11.6965L30.6259 12.0706L30.6633 12.401L30.7818 12.6629L30.894 12.7627L30.9688 12.8312L31.212 12.9061L31.4926 12.8749L31.7981 12.744V12.7502Z" fill="#616161"/>
<path d="M33.5316 10.6181L33.5565 10.3811L33.5004 9.88859L33.4817 9.85742L34.1551 10.244L34.0803 10.936L33.5316 10.6181Z" fill="#A5A5A5"/>
<path d="M33.4816 9.85729L33.3257 9.5019L33.0451 9.24006L32.6336 9.00313L32.6086 8.78491L34.0802 9.63285L34.155 10.2438L33.4816 9.85729Z" fill="#9C9C9C"/>
<path d="M33.4817 11.0045L33.5004 10.9421L33.5316 10.6179L34.0803 10.9359L33.9743 11.2913L33.4817 11.0045Z" fill="#AAAAAA"/>
<path d="M36.3188 6.32227V6.66517V7.39462L35.4521 7.89341L35.6392 6.9208L36.3188 6.32227Z" fill="#BA622C"/>
<path d="M3.07861 20.4251V20.157V19.2467L4.90555 20.3004V21.4788L3.07861 20.4251Z" fill="white"/>
<path d="M13.7906 22.2208L13.8155 22.4265L13.9215 22.6635L10.4485 24.0538V22.4702L14.0275 20.4065L13.8966 20.8492L13.8155 21.1297L13.7844 21.3791L13.7407 21.8093L13.7719 22.0712L13.7781 22.1148L13.7906 22.2208Z" fill="#B29918"/>
<path d="M13.7719 22.0712L13.7407 21.8093L14.2084 22.0774L14.358 22.4079L13.7719 22.0712Z" fill="#8E8E8E"/>
<path d="M13.8158 21.1297L13.8969 20.8491L14.2087 21.0237L14.1463 21.5848L13.7847 21.3791L13.8158 21.1297Z" fill="#A5A5A5"/>
<path d="M13.7782 22.1148L13.772 22.0712L14.3581 22.4078L14.383 22.464L13.7782 22.1148Z" fill="#8E8E8E"/>
<path d="M13.7407 21.8093L13.7844 21.3792L14.146 21.5849L14.2084 22.0774L13.7407 21.8093Z" fill="#9C9C9C"/>
<path d="M29.7842 13.1057L29.8154 13.3301L29.9214 13.5608L18.012 20.4377L18.118 20.0761L18.1928 19.3903L29.7405 12.7191L29.7655 12.956L29.7717 12.9997L29.7842 13.1057Z" fill="#B29918"/>
<path d="M29.7718 12.9996L29.7656 12.9559L30.252 13.2365L30.2769 13.2926L29.7718 12.9996Z" fill="#8E8E8E"/>
<path d="M30.919 10.1442L30.5574 10.6804L30.2581 10.5058L30.6259 9.97583L30.919 10.1442Z" fill="#A7A7A7"/>
<path d="M30.5572 10.6803L30.2766 11.2601L29.9773 11.0918L30.2579 10.5057L30.5572 10.6803Z" fill="#AAAAAA"/>
<path d="M30.2768 13.2925L30.5574 13.5544L29.7842 13.1055L29.7717 12.9995L30.2768 13.2925Z" fill="#7C7C7C"/>
<path d="M15.4492 18.8728L15.9044 18.5423L16.3595 18.3491L16.7835 18.3054L17.1452 18.4177L17.4258 18.6795L17.5941 19.0474L17.6627 19.5586L17.6378 19.808L17.6066 20.1197L17.5816 20.1946L17.4258 20.712L17.1452 21.2919L16.7835 21.8281L16.3595 22.277L15.9044 22.6074L15.4492 22.8007L15.0252 22.8443L14.6635 22.7321L14.3829 22.4702L14.358 22.4141L14.2084 22.0837L14.146 21.5911L14.2084 21.03L14.3829 20.4377L14.6635 19.8579L15.0252 19.3217L15.4492 18.8728ZM15.9044 21.9278L16.2099 21.7034L16.4967 21.4041L16.7399 21.0487L16.9269 20.6622L17.0454 20.2694L17.0828 19.8953L17.0454 19.5649L16.9269 19.303L16.7399 19.1284L16.6401 19.0972L16.4967 19.0536L16.2099 19.0848L15.9044 19.2157L15.5988 19.4401L15.3182 19.7394L15.0751 20.0948L14.888 20.4814L14.7695 20.8741L14.7321 21.2482L14.7695 21.5787L14.888 21.8405L15.0002 21.9403L15.0751 22.0089L15.3182 22.0837L15.5988 22.0525L15.9044 21.9216V21.9278Z" fill="#616161"/>
<path d="M17.638 19.8018L17.6692 19.5586L17.6006 19.0474L18.0745 19.3217L18.1929 19.3903L18.1181 20.0761L17.638 19.8018Z" fill="#A5A5A5"/>
<path d="M17.6005 19.0473L17.4322 18.6733L17.1516 18.4177L16.7338 18.1745L16.7026 17.9688L17.9996 18.7169L18.0744 19.3217L17.6005 19.0473Z" fill="#9C9C9C"/>
<path d="M17.5818 20.1883L17.6067 20.1135L17.6379 19.8018L18.118 20.0761L18.012 20.4377L17.5818 20.1883Z" fill="#AAAAAA"/>
<path d="M14.6638 19.8517L14.3833 20.4378L14.0964 20.2694L14.377 19.6896L14.6638 19.8517Z" fill="#AAAAAA"/>
<path d="M14.3829 22.4639L14.6635 22.7258L13.7905 22.2207L13.7781 22.1147L14.3829 22.4639Z" fill="#7C7C7C"/>
<path d="M16.634 17.8129L16.9894 17.7755L17.7813 18.2369L17.9995 18.7169L16.7026 17.9688L16.634 17.8129Z" fill="#8E8E8E"/>
<path d="M17.4384 17.9189L17.7814 18.2369L16.9895 17.7755L17.4384 17.9189Z" fill="#7C7C7C"/>
<path d="M32.5342 8.62284L32.8896 8.59167L33.8623 9.1528L34.0805 9.63289L32.609 8.78495L32.5342 8.62284Z" fill="#8E8E8E"/>
<path d="M32.8894 8.59167L33.3383 8.72884L33.594 8.96576L33.7686 9.06552L33.8621 9.1528L32.8894 8.59167Z" fill="#7C7C7C"/>
<path d="M28.7427 9.64528L25.7872 7.34466L25.4255 7.06409L27.9009 8.64772L28.7427 9.64528Z" fill="#B29918"/>
<path d="M28.7429 9.64535L27.9011 8.64779L35.4271 5.10022L36.1068 6.17884L28.7429 9.64535Z" fill="#D7C25A"/>
<path d="M13.7658 18.3053L10.804 20.0136L9.50708 19.2655L12.6247 17.4636L13.7658 18.3053Z" fill="#E1CB5E"/>
<path d="M13.7656 18.3052L12.6245 17.4636L15.0875 13.0306L13.7656 18.3052Z" fill="#FFE67B"/>
<path d="M13.7659 18.3054L15.0877 13.0309L16.0854 12.4573V12.9498L16.0604 16.9775L13.7659 18.3054Z" fill="#B29918"/>
<path d="M12.6246 17.4637L9.50698 19.2656L5.49146 16.9462L8.6091 15.1506L12.6246 17.4637Z" fill="#F6DE67"/>
<path d="M8.60911 15.1506L5.49146 16.9462L1.48218 14.6331L4.59982 12.8313L8.60911 15.1506Z" fill="#F6DE67"/>
<path d="M9.50708 19.2655L10.804 20.0137V20.4314L9.50708 19.8765V19.2655Z" fill="#FFE671"/>
<path d="M9.50698 19.2656V19.8766L8.1851 19.1097L7.49922 20.3193L5.49146 19.1596V16.9463L9.50698 19.2656Z" fill="#FFE57E"/>
<path d="M5.49146 16.9461V19.1595L3.4837 18.0061L2.80406 16.0047L1.48218 15.2441V14.6331L5.49146 16.9461Z" fill="#FFE57E"/>
<path d="M10.4483 24.0537L9.15137 23.6609V22.0773L10.4483 22.4701V24.0537Z" fill="#FFE671"/>
<path d="M9.15151 23.6611L6.96292 22.3955V21.2171L5.13599 20.1634V19.7582L9.15151 22.0775V23.6611Z" fill="#FFE57E"/>
<path d="M12.6247 17.4637L8.60913 15.1506L10.1742 11.8213L14.0151 14.0346L12.6247 17.4637Z" fill="#A9A191"/>
<path d="M36.3188 7.39462V6.66516L36.8364 7.23253L36.3188 7.39462Z" fill="#F6DE67"/>
<path d="M36.8362 8.66028L36.3623 9.84488L36.0256 10.1067L36.4995 8.91589L36.8362 8.66028Z" fill="#B29918"/>
<path d="M36.3188 7.39463L36.8364 7.23254L36.4997 7.49439L36.3188 7.39463Z" fill="#F6DE67"/>
<path d="M35.4521 7.89344L36.3188 7.39465L36.4996 7.49441L33.7686 9.06558L33.594 8.96582L35.4521 7.89344Z" fill="#F6DE67"/>
<path d="M33.8623 9.15271L33.7688 9.06543L36.4999 7.49426V8.91578L36.026 10.1066L33.9746 11.2912L34.0806 10.9359L34.1554 10.2438L34.0806 9.63279L33.8623 9.15271Z" fill="#B29918"/>
<path d="M36.4995 7.49439L36.8362 7.23254V8.66031L36.4995 8.91591V7.49439Z" fill="#B29918"/>
<path d="M36.3186 6.32224L36.1066 6.17884L35.427 5.10022L35.639 5.24987L36.3186 6.32224Z" fill="#B29918"/>
<path d="M35.4271 5.10032L27.9011 8.64789L25.1388 6.68395L24.241 6.16023L31.4115 2.78723L35.4271 5.10032Z" fill="#EBD463"/>
<path d="M24.2411 6.16015L25.139 6.68387L14.5078 12.8189L10.7292 10.6367L21.3604 4.50171L24.2411 6.16015Z" fill="#F6DE67"/>
<path d="M24.2409 6.1601L21.3602 4.50165L20.2253 3.84701L27.3959 0.467773L31.4114 2.7871L24.2409 6.1601Z" fill="#EBD463"/>
<path d="M20.2255 3.84698L21.3603 4.50162L10.7291 10.6366L6.95679 8.46068L17.588 2.31946L19.577 3.47289L20.2255 3.84698Z" fill="#F6DE67"/>
<path d="M20.2256 3.8471L19.5771 3.47302L26.0993 0.399292L27.3962 0.467865L20.2256 3.8471Z" fill="#FBE36A"/>
<path d="M14.5078 12.8188L25.139 6.68384L25.4258 7.06415L21.1858 9.50818L20.3877 9.97578L16.0853 12.4572L15.0877 13.0308L14.5078 12.8188Z" fill="#F1D965"/>
<path d="M25.4257 7.06415L25.1389 6.68384L27.9011 8.64778L25.4257 7.06415Z" fill="#B29918"/>
<path d="M21.1855 9.50811L25.4255 7.06409L25.7872 7.34466L25.5752 7.46936L22.0086 9.52682L21.1855 9.50811Z" fill="#B29918"/>
<path d="M14.5076 12.8188L15.0875 13.0308L12.6245 17.4637L14.015 14.0346L14.5076 12.8188Z" fill="#FFE57B"/>
<path d="M14.5078 12.8189L14.0153 14.0347L10.1743 11.8213L10.7293 10.6367L14.5078 12.8189Z" fill="#FFE589"/>
<path d="M10.7292 10.6366L10.1743 11.8212L6.3396 9.60164L6.95689 8.46069L10.7292 10.6366Z" fill="#FFE589"/>
<path d="M20.3875 9.97578L21.1856 9.50818L21.2729 9.95084L21.9587 13.567L21.1856 14.0159L20.4747 10.4122L20.3875 9.97578Z" fill="#B29918"/>
<path d="M21.1857 14.0158L16.0603 16.9773L16.0852 12.9497L16.6464 12.6255L21.1857 14.0158Z" fill="#605B51"/>
<path d="M16.0854 12.4573L20.3878 9.97583L20.4751 10.4123L16.6466 12.6256L16.0854 12.4573Z" fill="#B29918"/>
<path d="M20.4749 10.4122L21.1858 14.0159L16.6465 12.6256L20.4749 10.4122Z" fill="#605B51"/>
<path d="M21.1855 9.50818L22.0086 9.52688L21.2728 9.95084L21.1855 9.50818Z" fill="#B29918"/>
<path d="M16.0854 12.4573L16.6466 12.6256L16.0854 12.9498V12.4573Z" fill="#B29918"/>
<path d="M10.174 11.8214L8.60889 15.1507L4.59961 12.8314L6.33926 9.60181L10.174 11.8214Z" fill="#A9A191"/>
<path d="M14.0275 20.4065L10.4485 22.4702L10.8039 21.8716L14.0275 20.4065Z" fill="#B29918"/>
<path d="M10.4483 22.4701L9.15137 22.0773L9.50676 21.4788L10.8037 21.8715L10.4483 22.4701Z" fill="#FFE57E"/>
<path d="M5.13601 19.758V20.1633L3.3153 19.1096L3.07836 19.2468V20.157L1.12671 19.0286V17.4449L5.13601 19.758Z" fill="#FFE57E"/>
<path d="M9.15151 22.0775L5.13599 19.7582L5.49138 19.1597L7.49915 20.3193L9.50691 21.479L9.15151 22.0775Z" fill="#FFE587"/>
<path d="M10.804 21.8717L9.50708 21.4789V19.8766L10.804 20.4315V21.8717Z" fill="#A4004C"/>
<path d="M5.49141 19.1595L5.13601 19.7581L1.12671 17.445L1.48212 16.8464L3.48365 18.0061L5.49141 19.1595Z" fill="#FFE587"/>
<path d="M9.50703 21.4788L7.49927 20.3192L8.18515 19.1096L9.50703 19.8765V21.4788Z" fill="#FF0036"/>
<path d="M28.849 10.6927L28.4375 10.9296V10.6366L28.849 10.3997V10.6927Z" fill="#B29918"/>
<path d="M28.5683 9.85107L28.8489 10.3997L28.4374 10.6367L28.2939 10.0069L28.5683 9.85107Z" fill="#B29918"/>
<path d="M6.65771 8.16772L16.9958 2.19482L17.5882 2.31953L6.957 8.46075L6.65771 8.16772Z" fill="#FAE36A"/>
<path d="M18.0742 19.3216L29.622 12.6566L29.7404 12.719L18.1927 19.3902L18.0742 19.3216Z" fill="#F6DE67"/>
<path d="M5.13624 20.1633L6.96317 21.217L6.72623 21.3542L4.90552 20.3005L5.13624 20.1633Z" fill="#EDEDED"/>
<path d="M6.96326 21.217V22.3954L6.72632 22.5326V21.3542L6.96326 21.217Z" fill="#ACACAC"/>
<path d="M6.72623 22.5326L4.90552 21.4789V20.3005L6.72623 21.3542V22.5326Z" fill="white"/>
<path d="M5.13627 20.1633L4.90555 20.3005L3.07861 19.2468L3.31556 19.1096L5.13627 20.1633Z" fill="#EDEDED"/>
<path d="M6.65726 8.1676L6.95655 8.46064L6.33926 9.60159L4.59961 12.8312L6.65726 8.1676Z" fill="#FFE48F"/>
<path d="M3.7644 12.5257L6.65759 8.1676L4.59993 12.8312L3.7644 12.5257Z" fill="#FFE48F"/>
<path d="M3.76439 12.5259L4.59992 12.8314L1.48227 14.6332L0.796387 14.2404L3.76439 12.5259Z" fill="#FFE66F"/>
<path d="M0.796387 14.2404L1.48227 14.6331V15.2442L0.796387 14.6519V14.2404Z" fill="#FFE586"/>
<path d="M1.12691 19.0286L0.447266 18.2804V16.6906L1.12691 17.445V19.0286Z" fill="#FFE586"/>
<path d="M1.12691 17.445L0.447266 16.6906L0.79644 16.092L1.48233 16.8464L1.12691 17.445Z" fill="#FFE48C"/>
<path d="M1.48227 16.8465L0.796387 16.0921V14.6519L1.48227 15.2442V16.8465Z" fill="#FF0036"/>
<path d="M3.4837 18.0062L1.48218 16.8466V15.2443L2.80406 16.0049L3.4837 18.0062Z" fill="#FF0036"/>
<path d="M32.1035 12.5321L31.7979 12.7566L31.6233 12.6506L31.9289 12.4324L32.1035 12.5321Z" fill="#FAFAFA"/>
<path d="M30.8877 12.769L30.7755 12.6693L30.657 12.4074L30.6196 12.0769L30.657 11.7029L30.7755 11.3101L30.9626 10.9235L31.2057 10.5681L31.4863 10.2689L31.7919 10.0444L32.0974 9.91349L32.3842 9.88232L32.5276 9.92597L32.6399 10.0257L32.7583 10.2876L32.7957 10.618L32.7583 10.9921L32.6399 11.3849L32.4528 11.7715L32.2096 12.1268L31.9228 12.4261L31.6173 12.6506L31.3117 12.7815L31.0249 12.8064L30.8815 12.7628L30.8877 12.769ZM32.0849 11.5657L32.1909 11.3475L32.2595 11.1293L32.2844 10.9173L32.2595 10.7365L32.1909 10.5931L32.0849 10.4933L31.9477 10.4497L31.7919 10.4622L31.6235 10.537L31.4552 10.6617L31.2993 10.83L31.1621 11.0295L31.0561 11.2477L30.9875 11.466L30.9626 11.6779L30.9875 11.8587L31.0561 12.0021L31.1621 12.1019L31.2993 12.1455L31.4552 12.1331L31.6235 12.0582L31.7919 11.9336L31.9477 11.7652L32.0849 11.5657Z" fill="#ACACAC"/>
<path d="M32.5342 9.92603L32.6334 9.95702L32.8194 10.1306L32.6396 10.0252L32.5342 9.92603Z" fill="#D9D9D9"/>
<path d="M30.9683 12.8371L30.8877 12.7689L31.0303 12.8123L31.2101 12.9115L30.9683 12.8371Z" fill="#ACACAC"/>
<path d="M31.7983 12.7565L31.4927 12.8875L31.3181 12.7815L31.6237 12.6505L31.7983 12.7565Z" fill="#DFDFDF"/>
<path d="M31.4927 12.8874L31.2121 12.9123L31.0312 12.8125L31.3181 12.7814L31.4927 12.8874Z" fill="#C0C0C0"/>
<path d="M32.8207 10.1316L32.933 10.3873L32.7584 10.2875L32.6399 10.0256L32.8207 10.1316Z" fill="#F6F6F6"/>
<path d="M32.9329 10.3872L32.9765 10.7177L32.802 10.6179L32.7583 10.2875L32.9329 10.3872Z" fill="white"/>
<path d="M32.9765 10.7177L32.9329 11.0918L32.7583 10.992L32.802 10.6179L32.9765 10.7177Z" fill="white"/>
<path d="M32.933 11.0917L32.8207 11.4907L32.6399 11.3847L32.7584 10.9919L32.933 11.0917Z" fill="white"/>
<path d="M32.8208 11.4909L32.6337 11.8774L32.4529 11.7777L32.6399 11.3849L32.8208 11.4909Z" fill="white"/>
<path d="M32.6337 11.8773L32.3905 12.2327L32.2097 12.133L32.4529 11.7776L32.6337 11.8773Z" fill="white"/>
<path d="M32.3906 12.2327L32.1038 12.532L31.9292 12.4322L32.2098 12.1329L32.3906 12.2327Z" fill="white"/>
<path d="M16.2101 21.7096L15.9046 21.9279L15.73 21.8281L16.0355 21.6036L16.2101 21.7096Z" fill="#FAFAFA"/>
<path d="M15.0003 21.9403L14.8881 21.8405L14.7696 21.5787L14.7322 21.2482L14.7696 20.8741L14.8881 20.4814L15.0751 20.0948L15.3183 19.7394L15.5989 19.4401L15.9044 19.2157L16.2099 19.0848L16.4968 19.0536L16.6402 19.0972L16.7524 19.197L16.8709 19.4588L16.9083 19.7893L16.8709 20.1634L16.7524 20.5562L16.5654 20.9427L16.3222 21.2981L16.0353 21.5974L15.7298 21.8218L15.4243 21.9527L15.1375 21.9839L14.9941 21.9403H15.0003ZM15.1624 21.1796L15.2684 21.2794L15.4056 21.323L15.5615 21.3043L15.7298 21.2295L15.8982 21.1048L16.0541 20.9365L16.1912 20.737L16.2972 20.5188L16.3658 20.2943L16.3908 20.0823L16.3658 19.9015L16.2972 19.7581L16.1912 19.6584L16.0541 19.6147L15.8982 19.6334L15.7298 19.7082L15.5615 19.8329L15.4056 20.0013L15.2684 20.2008L15.1624 20.419L15.0938 20.6434L15.0689 20.8554L15.0938 21.0362L15.1624 21.1796Z" fill="#ACACAC"/>
<path d="M16.6404 19.0972L16.7396 19.1282L16.9256 19.3018L16.7458 19.2026L16.6404 19.0972Z" fill="#D9D9D9"/>
<path d="M15.0747 22.0146L15.0002 21.9402L15.1429 21.9836L15.3165 22.089L15.0747 22.0146Z" fill="#ACACAC"/>
<path d="M15.9042 21.9279L15.6049 22.0588L15.4241 21.9591L15.7296 21.8281L15.9042 21.9279Z" fill="#DFDFDF"/>
<path d="M15.6052 22.0586L15.3184 22.0898L15.1438 21.9838L15.4244 21.9589L15.6052 22.0586Z" fill="#C0C0C0"/>
<path d="M16.9269 19.303L17.0454 19.5649L16.8646 19.4589L16.7461 19.2032L16.9269 19.303Z" fill="#F6F6F6"/>
<path d="M17.0458 19.5649L17.0832 19.8953L16.9086 19.7893L16.865 19.4589L17.0458 19.5649Z" fill="white"/>
<path d="M17.0832 19.8953L17.0458 20.2694L16.865 20.1634L16.9086 19.7893L17.0832 19.8953Z" fill="white"/>
<path d="M17.0454 20.2693L16.9269 20.6621L16.7461 20.5624L16.8646 20.1633L17.0454 20.2693Z" fill="white"/>
<path d="M16.9271 20.6623L16.74 21.0488L16.5654 20.9491L16.7463 20.5625L16.9271 20.6623Z" fill="white"/>
<path d="M16.7399 21.0486L16.4967 21.4102L16.3159 21.3042L16.5653 20.9489L16.7399 21.0486Z" fill="white"/>
<path d="M16.4968 21.4104L16.21 21.7097L16.0354 21.6037L16.316 21.3044L16.4968 21.4104Z" fill="white"/>
<path d="M32.191 11.3474L32.085 11.5656L31.9478 11.7651L31.792 11.9335L31.6236 12.0581L31.4552 12.133L31.2994 12.1454L31.1622 12.1018L31.0562 12.002L30.9876 11.8586L30.9626 11.6778L30.9876 11.4659L31.0562 11.2476L31.1622 11.0294L31.2994 10.8299L31.4552 10.6616L31.6236 10.5369L31.792 10.462L31.9478 10.4496L32.085 10.4932L32.191 10.593L32.2596 10.7364L32.2845 10.9172L32.2596 11.1292L32.191 11.3474ZM31.3991 10.9795L31.3056 11.1167L31.237 11.2663L31.1933 11.416L31.1809 11.5594L31.1933 11.6841L31.237 11.7838L31.3056 11.8524L31.3991 11.8836L31.5051 11.8711L31.6174 11.8212L31.7296 11.7339L31.8356 11.6217L31.9291 11.4846L31.9977 11.3349L32.0414 11.1853L32.0538 11.0419L32.0414 10.9172L31.9977 10.8174L31.9291 10.7488L31.8356 10.7177L31.7296 10.7301L31.6174 10.78L31.5051 10.8673L31.3991 10.9795Z" fill="#8B8B8B"/>
<path d="M15.262 21.2731L15.156 21.1733L15.0874 21.0299L15.0625 20.8491L15.0874 20.6371L15.156 20.4127L15.262 20.1945L15.3992 19.9949L15.5551 19.8266L15.7234 19.7019L15.8918 19.6271L16.0477 19.6084L16.1849 19.652L16.2909 19.7518L16.3594 19.8952L16.3844 20.076L16.3594 20.288L16.2909 20.5124L16.1849 20.7306L16.0477 20.9302L15.8918 21.0985L15.7234 21.2232L15.5551 21.298L15.3992 21.3167L15.262 21.2731ZM15.6112 20.0386L15.5052 20.1508L15.4117 20.288L15.3431 20.4376L15.2994 20.5872L15.287 20.7306L15.2994 20.8553L15.3431 20.9551L15.4117 21.0237L15.5052 21.0548L15.6112 21.0424L15.7234 20.9925L15.8357 20.9115L15.9417 20.7992L16.0352 20.6621L16.1038 20.5124L16.1474 20.3628L16.1599 20.2194L16.1474 20.0947L16.1038 19.9949L16.0352 19.9264L15.9417 19.8952L15.8357 19.9077L15.7234 19.9575L15.6112 20.0386Z" fill="#8B8B8B"/>
<path d="M31.3058 11.1104L31.3993 10.9795L31.5053 10.8673L31.6237 10.78L31.736 10.7301L31.8482 10.7239L31.9355 10.7488L32.0103 10.8174L32.054 10.9109L32.0665 11.0356L32.054 11.179L32.0103 11.3286L31.9355 11.4783L31.8482 11.6092L31.736 11.7277L31.6237 11.8087L31.5053 11.8586L31.3993 11.8711L31.3058 11.8399L31.2372 11.7775L31.1935 11.6778L31.1748 11.5531L31.1935 11.4097L31.2372 11.2601L31.3058 11.1104Z" fill="#ACACAC"/>
<path d="M15.5051 20.151L15.6173 20.0388L15.7296 19.9577L15.848 19.9078L15.954 19.8954L16.0476 19.9266L16.1161 19.9889L16.1598 20.0887L16.1785 20.2134L16.1598 20.3568L16.1161 20.5064L16.0476 20.6498L15.954 20.7869L15.848 20.8992L15.7296 20.9865L15.6173 21.0301L15.5051 21.0426L15.4178 21.0176L15.343 20.9491L15.2993 20.8493L15.2869 20.7246L15.2993 20.5874L15.343 20.4378L15.4178 20.2882L15.5051 20.151Z" fill="#ACACAC"/>
<path d="M27.7205 9.77625L28.2317 10.0693L28.3565 10.6055V10.7863L27.7205 10.4247V9.77625Z" fill="#A09888"/>
<path d="M22.5576 14.3752V14.1031L22.6193 14.1402V14.4061L22.5576 14.3752Z" fill="#A2A2A2"/>
<path d="M22.5576 14.1031L23.5615 13.5295L23.6176 13.5607L22.62 14.1405L22.5576 14.1031Z" fill="#888888"/>
<path d="M22.6199 14.4087V14.1406L23.6175 13.5608V13.8351L22.6199 14.4087Z" fill="#616161"/>
<g style="mix-blend-mode:multiply">
<path d="M20.4749 3.99048L24.0851 4.07153L24.5901 4.21494L30.2518 7.53805L32.06 8.08047L28.7428 9.64539L27.9011 8.64783L25.1389 6.68389L20.4749 3.99048Z" fill="#C5C5C5"/>
</g>
</svg>
