<?xml version="1.0" encoding="UTF-8"?>
<svg xmlns="http://www.w3.org/2000/svg" xmlns:xlink="http://www.w3.org/1999/xlink" viewBox="0 0 665.13 387.15">
  <defs>
    <style>
      .cls-1 {
        fill: none;
      }

      .cls-2 {
        fill: url(#linear-gradient);
      }

      .cls-3 {
        fill: #f7f1f1;
      }

      .cls-4 {
        fill: #004d05;
      }

      .cls-5 {
        fill: #047c1a;
      }

      .cls-6 {
        fill: #fff;
      }

      .cls-7 {
        fill: #ececec;
      }

      .cls-8 {
        fill: #9bb35c;
      }

      .cls-9 {
        fill: #b3b3b3;
      }

      .cls-10 {
        fill: #bad36c;
      }

      .cls-11 {
        fill: #8da444;
      }

      .cls-12 {
        fill: #2e9b26;
      }

      .cls-13 {
        fill: #a9c959;
      }

      .cls-14 {
        fill: #cac4c4;
      }

      .cls-15 {
        fill: #d9d9d9;
      }

      .cls-16 {
        fill: #afafaf;
      }

      .cls-17 {
        fill: #198b20;
      }

      .cls-18 {
        fill: #6c7e35;
      }

      .cls-19 {
        fill: #3b2314;
      }

      .cls-20 {
        fill: #63161b;
      }

      .cls-21 {
        fill: #89898a;
        isolation: isolate;
        opacity: .4;
      }

      .cls-22 {
        fill: url(#linear-gradient-8);
      }

      .cls-23 {
        fill: url(#linear-gradient-9);
      }

      .cls-24 {
        fill: url(#linear-gradient-3);
      }

      .cls-25 {
        fill: url(#linear-gradient-4);
      }

      .cls-26 {
        fill: url(#linear-gradient-2);
      }

      .cls-27 {
        fill: url(#linear-gradient-6);
      }

      .cls-28 {
        fill: url(#linear-gradient-7);
      }

      .cls-29 {
        fill: url(#linear-gradient-5);
      }

      .cls-30 {
        fill: url(#linear-gradient-14);
      }

      .cls-31 {
        fill: url(#linear-gradient-18);
      }

      .cls-32 {
        fill: url(#linear-gradient-22);
      }

      .cls-33 {
        fill: url(#linear-gradient-20);
      }

      .cls-34 {
        fill: url(#linear-gradient-21);
      }

      .cls-35 {
        fill: url(#linear-gradient-15);
      }

      .cls-36 {
        fill: url(#linear-gradient-19);
      }

      .cls-37 {
        fill: url(#linear-gradient-16);
      }

      .cls-38 {
        fill: url(#linear-gradient-17);
      }

      .cls-39 {
        fill: url(#linear-gradient-13);
      }

      .cls-40 {
        fill: url(#linear-gradient-12);
      }

      .cls-41 {
        fill: url(#linear-gradient-10);
      }

      .cls-42 {
        fill: url(#linear-gradient-11);
      }
    </style>
    <linearGradient id="linear-gradient" x1="-146.36" y1="158.86" x2="-142.85" y2="158.75" gradientTransform="translate(0 363.62) scale(1 -1)" gradientUnits="userSpaceOnUse">
      <stop offset="0" stop-color="#fff"/>
      <stop offset="1" stop-color="#a3b3b2"/>
    </linearGradient>
    <linearGradient id="linear-gradient-2" x1="-92.57" y1="152.54" x2="-89.11" y2="152.43" xlink:href="#linear-gradient"/>
    <linearGradient id="linear-gradient-3" x1="134.62" y1="127.7" x2="134.62" y2="104.39" gradientTransform="translate(0 363.62) scale(1 -1)" gradientUnits="userSpaceOnUse">
      <stop offset="0" stop-color="#74a5c5"/>
      <stop offset=".98" stop-color="#617a91"/>
    </linearGradient>
    <linearGradient id="linear-gradient-4" x1="140.99" y1="127.71" x2="140.99" y2="104.39" xlink:href="#linear-gradient-3"/>
    <linearGradient id="linear-gradient-5" x1="147.36" y1="127.71" x2="147.36" y2="104.39" xlink:href="#linear-gradient-3"/>
    <linearGradient id="linear-gradient-6" x1="153.57" y1="127.71" x2="153.57" y2="104.39" xlink:href="#linear-gradient-3"/>
    <linearGradient id="linear-gradient-7" x1="152.93" y1="140.17" x2="165.53" y2="91.6" gradientTransform="translate(0 363.62) scale(1 -1)" gradientUnits="userSpaceOnUse">
      <stop offset="0" stop-color="#4f748f"/>
      <stop offset="1" stop-color="#283640"/>
    </linearGradient>
    <linearGradient id="linear-gradient-8" x1="161.03" y1="142.27" x2="173.64" y2="93.71" xlink:href="#linear-gradient-7"/>
    <linearGradient id="linear-gradient-9" x1="155.14" y1="140.74" x2="167.74" y2="92.18" xlink:href="#linear-gradient-7"/>
    <linearGradient id="linear-gradient-10" x1="163.24" y1="142.85" x2="175.85" y2="94.28" xlink:href="#linear-gradient-7"/>
    <linearGradient id="linear-gradient-11" x1="169.54" y1="144.48" x2="182.15" y2="95.92" xlink:href="#linear-gradient-7"/>
    <linearGradient id="linear-gradient-12" x1="178.03" y1="146.68" x2="190.63" y2="98.13" xlink:href="#linear-gradient-7"/>
    <linearGradient id="linear-gradient-13" x1="134.44" y1="130.77" x2="135.06" y2="107.45" xlink:href="#linear-gradient-3"/>
    <linearGradient id="linear-gradient-14" x1="140.99" y1="127.71" x2="140.99" y2="104.4" xlink:href="#linear-gradient-3"/>
    <linearGradient id="linear-gradient-15" x1="147.36" y1="127.71" x2="147.36" y2="104.39" xlink:href="#linear-gradient-3"/>
    <linearGradient id="linear-gradient-16" x1="153.57" y1="127.71" x2="153.57" y2="104.39" xlink:href="#linear-gradient-3"/>
    <linearGradient id="linear-gradient-17" x1="172.54" y1="145.26" x2="185.14" y2="96.7" xlink:href="#linear-gradient-7"/>
    <linearGradient id="linear-gradient-18" x1="181.02" y1="147.46" x2="193.64" y2="98.9" xlink:href="#linear-gradient-7"/>
    <linearGradient id="linear-gradient-19" x1="225.66" y1="164.89" x2="222.18" y2="164.85" gradientTransform="translate(0 363.62) scale(1 -1)" gradientUnits="userSpaceOnUse">
      <stop offset="0" stop-color="#800"/>
      <stop offset="1" stop-color="#ec1c24"/>
    </linearGradient>
    <linearGradient id="linear-gradient-20" x1="225.72" y1="161.06" x2="222.22" y2="161.03" xlink:href="#linear-gradient-19"/>
    <linearGradient id="linear-gradient-21" x1="234.37" y1="159.67" x2="230.89" y2="159.63" xlink:href="#linear-gradient-19"/>
    <linearGradient id="linear-gradient-22" x1="234.43" y1="155.84" x2="230.92" y2="155.81" xlink:href="#linear-gradient-19"/>
  </defs>
  <g id="frame">
    <rect class="cls-1" x="40.83" y="37.15" width="525" height="350"/>
  </g>
  <g id="tunnel_front">
    <g>
      <path class="cls-13" d="m132.56,337.53l-18.79-10.85,64.25-37.09,2.04-1.18,22.55-13.02,18.79,10.85-22.72,13.06h0s-66.12,38.22-66.12,38.22Z"/>
      <path class="cls-11" d="m132.58,348.31l88.83-51.29v-10.78l-88.83,51.29v10.79Z"/>
      <path class="cls-15" d="m145.27,322.01c-1.16.66-1.16,1.72-.02,2.4,1.13.66,2.99.66,4.14,0,1.16-.66,1.16-1.75.02-2.4-1.16-.67-3.01-.67-4.14,0Z"/>
      <path class="cls-20" d="m146.65,321.73l1.31.11c0,.59-.02,1.26-.28,1.77-.17.17-.64.17-.83.02.04-.61-.09-1.33-.2-1.9Z"/>
      <path class="cls-16" d="m147.98,321.84c0,.28,0,.59-.04.87-.2.07-.39.11-.61.11-.17,0-.35,0-.5-.04-.04-.37-.11-.74-.17-1.05l1.33.11h0Z"/>
      <path class="cls-4" d="m144.4,317.29c.07-.63.28-1.13.5-1.24.05-.02.11-.07.11-.13l.2-1.44c.02-.17,0-.35-.05-.52-.09-.39-.11-1.03-.02-1.7.09-.87.3-1.59.52-1.92.09-.11.17-.22.17-.35l.3-2.14c.07-.48.5-.79.98-.81.48-.02,1.06.24,1.2.96l-.28.46c0,.17.11.3.17.46.11.22.17.64.2,1.09.02.48-.02.89-.11,1.11-.07.15-.15.3-.15.46l.07,1.88c0,.13.09.24.2.33.3.3.52,1.11.57,2.05.04.98-.15,1.83-.44,2.12-.09.09-.15.17-.15.28l.02.46c.05,1.11-.87,2-1.98,1.94-.98-.05-1.74-.85-1.79-1.79,0-.17-.07-.33-.13-.48-.13-.22-.17-.63-.11-1.07v-.02Z"/>
      <path class="cls-5" d="m144.93,318.68c.04-.7.24-1.26.46-1.4.07-.02.11-.09.11-.13l.13-1.6c.02-.2-.02-.39-.07-.57-.11-.44-.17-1.11-.13-1.87.05-.96.24-1.77.46-2.14.09-.13.17-.27.17-.39l.2-2.36c.04-.54.5-.94,1.03-.94s.98.41,1.03.94l.05.54c.02.17.15.33.22.5.13.24.24.67.28,1.2.05.52.02.98-.07,1.24-.04.17-.15.32-.15.52l.17,2.05c.02.15.11.26.22.35.35.3.66,1.18.74,2.22.1,1.09-.05,2.03-.35,2.36-.09.09-.15.2-.15.32l.04.5c.11,1.22-.85,2.24-2.07,2.24-1.09,0-1.97-.83-2.07-1.87-.02-.17-.09-.35-.17-.5-.02-.28-.09-.74-.07-1.24v.02Z"/>
      <path class="cls-17" d="m147.5,307.95c.37,0,.69.28.72.66l.04.5c.02.17.11.3.17.44.02.05.04.09.07.11.09.15.2.52.24,1.03.04.52,0,.89-.05,1.07-.02.05-.02.09-.05.13-.04.13-.11.28-.09.46l.17,1.92c.02.22.15.37.28.48.24.22.52.89.61,1.92.09,1.03-.07,1.79-.28,2.03-.07.07-.22.26-.2.5l.04.48c.04.48-.11.94-.44,1.28-.33.35-.76.54-1.24.54-.87,0-1.61-.66-1.68-1.53-.02-.2-.09-.37-.15-.5l-.02-.05c-.11-.22-.15-.61-.13-1.03.04-.67.22-1.07.32-1.11.17-.11.22-.24.22-.33l.13-1.48c.02-.22-.02-.44-.07-.61-.11-.39-.15-1.03-.11-1.68.05-.94.24-1.61.39-1.87l.02-.02c.09-.11.17-.27.2-.46l.2-2.2c-.02-.39.28-.67.66-.67h0Z"/>
      <path class="cls-12" d="m147.65,315.91c.07.02.13,0,.13-.07-.02-1.26.61-1.65.79-.52.02.09.13.11.17.05.3-.33.63.3.63,1.24,0,.74-.22,1.33-.48,1.33-.22,0-.41-.42-.46-.98-.02-.35-.35-.32-.35.39,0,.83-.24,1.48-.52,1.48s-.52-.67-.52-1.48c.02-.85.3-1.55.61-1.44h0Z"/>
      <path class="cls-12" d="m147.09,309.75c-.02-.79.2-1.48.5-1.48s.44.64.48,1.11c.02.15.17.24.27.37.41.5.28,2.24-.17,2.24-.2,0-.32-.37-.39-.87-.04-.37-.3-.28-.35,0-.13.85-.57.66-.57-.27,0-.67.26-.81.24-1.11Z"/>
      <path class="cls-15" d="m137.14,328.46c-.89.52-.89,1.35,0,1.87.89.52,2.33.52,3.23,0,.89-.52.89-1.35,0-1.87-.89-.52-2.33-.52-3.23,0Z"/>
      <path class="cls-20" d="m138.22,328.24l1.03.09c0,.46-.02.98-.22,1.4-.13.13-.48.13-.64.02.02-.52-.09-1.07-.17-1.51h0Z"/>
      <path class="cls-16" d="m139.26,328.31c0,.22,0,.46-.02.67-.15.05-.3.09-.48.09-.13,0-.26,0-.39-.04-.05-.28-.09-.57-.13-.81l1.03.09h0Z"/>
      <path class="cls-4" d="m136.45,324.76c.05-.48.22-.89.39-.98.04-.02.09-.04.09-.09l.15-1.13c.02-.13,0-.28-.02-.42-.07-.3-.09-.81-.02-1.33.07-.67.24-1.24.42-1.5.07-.09.13-.17.15-.28l.24-1.65c.04-.37.39-.61.76-.64.37,0,.85.2.94.74l-.22.35c0,.13.09.24.15.35.09.17.13.5.15.85.02.37-.02.7-.09.87-.05.13-.13.24-.13.37l.04,1.46c0,.11.07.2.15.26.24.24.41.87.44,1.61.02.76-.11,1.44-.35,1.65-.07.07-.13.13-.13.22l.02.37c.02.87-.69,1.57-1.55,1.53-.76-.04-1.35-.66-1.4-1.4,0-.13-.07-.24-.11-.37-.09-.17-.11-.5-.09-.85v.02Z"/>
      <path class="cls-5" d="m136.89,325.85c.02-.55.17-.98.37-1.09.05-.02.09-.07.09-.11l.11-1.24c.02-.15-.02-.3-.07-.46-.09-.35-.13-.87-.1-1.46.04-.74.17-1.4.35-1.65.07-.09.13-.2.13-.3l.15-1.85c.04-.41.39-.74.81-.74s.76.33.81.74l.04.44c.02.15.11.26.17.39.09.2.17.52.22.94.05.39.02.76-.04.96-.04.13-.13.26-.11.39l.13,1.61c0,.11.09.2.17.28.26.24.5.92.59,1.75.09.85-.05,1.59-.28,1.85-.07.07-.13.15-.11.26l.05.39c.09.94-.66,1.77-1.61,1.77-.85,0-1.53-.66-1.61-1.46-.02-.13-.07-.26-.13-.39-.09-.26-.13-.61-.11-1.01h-.02Z"/>
      <path class="cls-17" d="m138.89,317.46c.28,0,.54.22.57.52l.04.39c.02.13.09.24.13.35.02.02.05.07.05.09.07.13.15.42.17.81.04.41,0,.69-.05.83,0,.02-.02.07-.04.11-.04.09-.09.22-.07.35l.13,1.5c.02.17.13.28.22.39.17.17.42.69.48,1.5.07.81-.05,1.4-.22,1.59-.05.05-.17.2-.15.39l.05.37c.04.37-.09.74-.35,1-.26.28-.61.44-.98.44-.67,0-1.24-.52-1.33-1.2-.02-.15-.07-.28-.13-.39l-.02-.05c-.09-.17-.11-.48-.11-.81.02-.52.17-.83.24-.87.13-.09.17-.2.17-.24l.11-1.18c.02-.17-.02-.35-.07-.48-.09-.3-.11-.81-.09-1.31.04-.74.17-1.26.3-1.46l.02-.02c.07-.09.13-.22.15-.35l.15-1.72c.07-.33.32-.57.61-.57h.01Z"/>
      <path class="cls-12" d="m139,323.69s.11,0,.11-.05c-.02-1.01.48-1.31.61-.39,0,.07.09.09.13.05.24-.26.5.24.5.98,0,.57-.17,1.04-.37,1.04-.17,0-.32-.32-.35-.76-.02-.26-.28-.26-.28.3,0,.64-.17,1.16-.41,1.16-.22,0-.42-.52-.42-1.16.02-.72.24-1.26.48-1.18h0Z"/>
      <path class="cls-12" d="m138.56,318.87c-.02-.61.15-1.16.39-1.16s.35.5.37.87c0,.11.13.2.22.28.32.39.22,1.77-.13,1.77-.15,0-.26-.3-.3-.7-.05-.28-.24-.22-.28,0-.11.67-.44.5-.44-.22-.02-.52.17-.61.17-.85h0Z"/>
      <path class="cls-15" d="m126.86,327.2c-1.18.67-1.2,1.79-.02,2.46,1.18.67,3.1.67,4.27,0,1.17-.67,1.2-1.79.02-2.46-1.18-.67-3.1-.67-4.27,0Z"/>
      <path class="cls-20" d="m128.29,326.91l1.35.11c0,.61-.02,1.31-.28,1.83-.17.17-.66.17-.85.02.02-.66-.11-1.4-.22-1.97h0Z"/>
      <path class="cls-16" d="m129.65,327.03c0,.28,0,.59-.04.89-.2.07-.42.11-.64.13-.17,0-.35,0-.52-.05-.05-.37-.11-.76-.17-1.07l1.38.09Z"/>
      <path class="cls-4" d="m125.97,322.32c.07-.66.28-1.18.5-1.29.05-.02.11-.07.11-.13l.22-1.48c.02-.17,0-.37-.04-.54-.09-.41-.11-1.04-.02-1.77.09-.89.3-1.65.54-1.98.09-.11.17-.24.2-.37l.3-2.2c.07-.5.5-.83,1.01-.83.5-.02,1.11.24,1.22.98l-.28.46c0,.17.11.33.2.48.11.24.17.66.2,1.13.02.48-.02.91-.11,1.16-.07.15-.17.3-.15.48l.07,1.94c0,.13.09.24.2.35.3.3.54,1.13.59,2.12.04,1.03-.15,1.9-.46,2.2-.09.09-.15.17-.15.3l.02.48c.05,1.13-.91,2.07-2.05,2-1.03-.07-1.79-.87-1.83-1.85,0-.17-.07-.33-.13-.48-.13-.26-.17-.67-.13-1.16h-.01Z"/>
      <path class="cls-5" d="m126.51,323.78c.05-.72.24-1.31.48-1.44.07-.02.11-.09.11-.15l.15-1.63c.02-.2-.02-.39-.07-.59-.11-.46-.17-1.16-.13-1.94.04-.98.24-1.83.48-2.2.09-.13.17-.26.2-.42l.22-2.44c.04-.54.5-.98,1.07-.98s1.03.42,1.07.98l.04.57c.02.2.15.35.24.5.13.24.24.7.28,1.23.05.52.02,1.01-.07,1.28-.07.17-.17.35-.15.52l.2,2.12c.02.15.13.26.24.37.35.33.67,1.22.76,2.29.11,1.11-.07,2.09-.37,2.44-.09.09-.17.22-.15.35l.05.52c.11,1.24-.87,2.33-2.14,2.33-1.11,0-2.02-.85-2.14-1.92-.02-.17-.11-.35-.17-.52-.15-.3-.22-.76-.2-1.26h.01Z"/>
      <path class="cls-17" d="m129.17,312.68c.39,0,.72.3.74.67l.05.52c.02.17.11.33.17.46.02.05.05.09.07.11.09.17.2.54.24,1.07.05.52,0,.91-.04,1.09-.02.04-.02.09-.04.13-.05.13-.11.28-.11.46l.17,1.98c.02.22.15.37.3.5.24.22.54.94.64,1.98.09,1.04-.07,1.85-.28,2.09-.07.07-.22.27-.22.5l.04.5c.05.5-.1.96-.46,1.33-.32.37-.79.57-1.28.57-.92,0-1.65-.67-1.75-1.57-.02-.2-.09-.37-.17-.52l-.02-.04c-.11-.24-.15-.64-.13-1.07.04-.7.24-1.09.32-1.16.17-.11.22-.26.24-.32l.13-1.55c.02-.24-.02-.46-.09-.64-.11-.42-.15-1.07-.11-1.75.04-.98.24-1.68.42-1.94l.02-.02c.09-.13.17-.28.2-.48l.2-2.27c.07-.35.39-.66.76-.66v.03Z"/>
      <path class="cls-12" d="m129.32,320.92c.07.02.15,0,.13-.07-.02-1.31.63-1.72.81-.52.02.09.13.11.17.05.33-.32.66.33.66,1.28,0,.76-.22,1.38-.48,1.38-.22,0-.41-.44-.48-1.03-.02-.35-.37-.35-.37.41,0,.85-.24,1.53-.54,1.53s-.54-.69-.54-1.53c.04-.91.32-1.63.66-1.5h-.01Z"/>
      <path class="cls-12" d="m128.76,314.54c-.02-.81.22-1.53.5-1.53.3,0,.46.66.5,1.16.02.15.17.24.28.37.44.52.28,2.34-.17,2.34-.2,0-.35-.39-.42-.92-.04-.39-.32-.28-.37,0-.13.89-.59.67-.59-.28,0-.67.26-.81.26-1.13h0Z"/>
      <path class="cls-8" d="m132.58,348.31l-18.8-10.86v-10.77s18.8,10.86,18.8,10.86v10.76Z"/>
      <path class="cls-18" d="m157.42,268.57l-9.88-11.11c-3.55,1.15-7.28,2.61-9.59,3.52-1.79.7-2.75,1.08-2.14.72l-4.17,2.43c-2.56,1.48-4.15,4.63-4.16,9.13l-.04,12.62,30.44-16.8-.46-.52Z"/>
      <path class="cls-10" d="m160.69,270.7l35.02-21.27-36.88-21.26-35.92,20.76,37.79,21.76Z"/>
      <path class="cls-11" d="m160.61,304.99l4.18-2.42,30.92-19.33v-33.8l-35.02,21.27-.09,34.28Z"/>
      <path class="cls-11" d="m195.7,249.44l10.11,35.71-25.64,14.96-19.57,4.88s15.46-15.25,21.99-20.29c9.7-7.51,5.85-30.96,13.11-35.26Z"/>
      <path class="cls-8" d="m160.69,270.7l-37.79-21.76-.09,34.28,4.63,2.67.04-12.62c.02-9.04,6.44-12.67,14.3-8.13,7.88,4.54,14.25,15.53,14.22,24.57l-.04,12.62,4.63,2.67.1-34.28h0Z"/>
    </g>
    <g>
      <path class="cls-21" d="m164.77,238.12l-6.82,28.01,16.02-3.48,20.17-12.26-4.28-2.6-25.09-9.67Z"/>
      <path class="cls-3" d="m172.52,257.92l-27.17-15.39.04-27.65,27.13,15.37v27.68Z"/>
      <path class="cls-6" d="m172.52,230.24l-27.13-15.37,17.68-9.95,27.15,15.41-17.7,9.9Z"/>
      <path class="cls-7" d="m172.02,228.46l-23.61-13.33,14.77-8.31,23.64,13.37-14.8,8.27Z"/>
      <path class="cls-3" d="m157.95,266.1l-27.2-15.41.04-20.7,27.17,15.39v20.72Z"/>
      <path class="cls-7" d="m157.95,245.38l-27.17-15.39,14.55-8.19,27.19,15.41-14.57,8.17Z"/>
      <path class="cls-6" d="m157.95,243.7l-24.11-13.49,13.22-7.42-1.73-.98-14.55,8.19,27.17,15.39,14.57-8.17-1.48-.86-13.1,7.34Z"/>
      <path class="cls-14" d="m172.52,230.24v6.98l-14.57,8.17v20.75l32.27-18.12v-27.68l-17.7,9.9Z"/>
      <path class="cls-2" d="m150.35,194.88l.1,37.48c0,.27-.2.52-.59.71-.69.34-1.81.36-2.44,0-.28-.16-.41-.36-.41-.55l-.1-37.48c0,.2.14.41.41.55.62.36,1.76.32,2.44,0,.39-.18.59-.44.59-.71Z"/>
      <path class="cls-9" d="m149.76,195.8c-.73.34-1.81.26-2.45-.16-.62-.42-.55-1.06.16-1.4.71-.36,1.81-.26,2.44.16.66.43.59,1.05-.14,1.4Z"/>
      <path class="cls-19" d="m149.41,195.56c-.5.23-1.25.2-1.67-.11-.43-.3-.38-.73.1-.98.5-.23,1.25-.2,1.67.1.44.3.39.73-.1.98Z"/>
      <path class="cls-26" d="m159.05,199.6v37.23c0,.25-.2.52-.59.71-.69.34-1.83.36-2.46,0-.28-.16-.41-.36-.41-.55v-37.35c0,.2.14.41.41.55.62.34,1.76.32,2.46,0,.39-.2.59-.34.59-.59Z"/>
      <path class="cls-9" d="m158.46,200.4c-.73.34-1.81.26-2.44-.16-.64-.42-.55-1.05.16-1.4.73-.36,1.81-.28,2.44.14.62.44.55,1.08-.16,1.42Z"/>
      <path class="cls-19" d="m158.15,200.18c-.52.25-1.3.2-1.77-.1-.44-.3-.39-.76.12-1,.52-.25,1.3-.2,1.75.1.46.28.41.75-.1,1Z"/>
      <path class="cls-24" d="m136.81,251.92l-4.38-2.47v-3.34l4.38,2.47v3.34Z"/>
      <path class="cls-25" d="m143.18,255.75l-4.37-2.49v-3.32l4.37,2.47v3.34Z"/>
      <path class="cls-29" d="m149.55,259.52l-4.38-2.49v-3.32l4.38,2.47v3.34Z"/>
      <path class="cls-27" d="m155.76,263.05l-4.37-2.47v-3.34l4.37,2.47v3.34Z"/>
      <path class="cls-28" d="m160.05,262.23l4.38-2.57-.02-3.34-4.36,2.58v3.34Z"/>
      <path class="cls-22" d="m167.56,257.84l4.37-2.57v-3.32l-4.37,2.55v3.34Z"/>
      <path class="cls-23" d="m160.05,256.37l4.38-2.57-.02-9.8-4.36,2.57v9.8Z"/>
      <path class="cls-41" d="m167.56,251.99l4.37-2.58v-9.78l-4.37,2.56v9.8Z"/>
      <path class="cls-42" d="m175.47,253.37l4.38-2.56v-3.34l-4.38,2.55v3.34Z"/>
      <path class="cls-40" d="m183.39,248.97l4.37-2.57v-3.32l-4.37,2.55v3.34Z"/>
      <path class="cls-39" d="m136.81,246.29l-4.38-2.49v-10.74l4.38,2.47v10.76Z"/>
      <path class="cls-30" d="m143.18,250.1l-4.37-2.47v-10.76l4.37,2.49v10.74Z"/>
      <path class="cls-35" d="m149.55,253.87l-4.38-2.47v-10.75l4.38,2.48v10.74Z"/>
      <path class="cls-37" d="m155.76,257.42l-4.37-2.49v-10.74l4.37,2.47v10.76Z"/>
      <path class="cls-38" d="m175.51,247.16l4.37-2.57v-15.28l-4.37,2.57v15.28Z"/>
      <path class="cls-31" d="m183.42,242.76l4.38-2.57v-15.29l-4.38,2.57v15.29Z"/>
      <path class="cls-36" d="m147.5,200.8c.73.39,1.83.32,2.47-.14.27-.2.39-.43.43-.66v-2.15c0,.25-.14.52-.43.71-.64.46-1.73.54-2.45.14-.39-.21-.6-.52-.6-.82v2.13c.02.3.22.58.59.78h0Z"/>
      <path class="cls-33" d="m147.5,204.64c.73.39,1.85.32,2.49-.16.26-.2.39-.42.43-.66v-2.15c0,.25-.14.52-.43.71-.64.46-1.74.54-2.47.14-.41-.21-.6-.52-.6-.82v2.13c.02.32.22.58.59.8h0Z"/>
      <path class="cls-34" d="m156.17,206.02c.73.39,1.83.32,2.47-.14.26-.2.39-.42.43-.66v-2.15c0,.25-.14.52-.43.71-.62.46-1.73.54-2.45.14-.39-.21-.6-.52-.6-.82v2.13c.02.3.22.59.59.78h0Z"/>
      <path class="cls-32" d="m156.17,209.86c.73.39,1.85.32,2.49-.14.26-.2.41-.42.43-.66v-2.15c0,.25-.14.52-.43.71-.64.46-1.74.54-2.47.14-.41-.22-.6-.52-.6-.84v2.13c.02.32.22.6.59.8h0Z"/>
    </g>
  </g>
</svg>