<?xml version="1.0" encoding="UTF-8"?>
<svg xmlns="http://www.w3.org/2000/svg" xmlns:xlink="http://www.w3.org/1999/xlink" viewBox="0 0 665.13 387.15">
  <defs>
    <style>
      .cls-1, .cls-2, .cls-3, .cls-4, .cls-5 {
        fill: none;
      }

      .cls-6 {
        fill: url(#linear-gradient);
      }

      .cls-2 {
        isolation: isolate;
      }

      .cls-7 {
        fill: #f2f4f7;
      }

      .cls-8 {
        fill: #004d05;
      }

      .cls-9 {
        fill: #047c1a;
      }

      .cls-10 {
        fill: #f5caca;
      }

      .cls-11 {
        fill: #e9edf2;
      }

      .cls-12 {
        fill: #fcfcfc;
      }

      .cls-13 {
        fill: #e88686;
      }

      .cls-14 {
        fill: #fff;
      }

      .cls-15 {
        fill: #fafafa;
      }

      .cls-16 {
        fill: #f0b3b3;
      }

      .cls-17, .cls-18 {
        fill: #7cadeb;
      }

      .cls-19 {
        fill: #9bb35c;
      }

      .cls-20 {
        fill: #bad36c;
      }

      .cls-21 {
        fill: #8da444;
      }

      .cls-22 {
        fill: #2e9b26;
      }

      .cls-23 {
        fill: #a4aeba;
      }

      .cls-24 {
        fill: #bfc6cf;
      }

      .cls-25 {
        fill: #a9c959;
      }

      .cls-26 {
        fill: #bed6f5;
      }

      .cls-27, .cls-28, .Shadow_2, .cls-29 {
        fill: #d1d6dd;
      }

      .cls-30 {
        fill: #d9d9d9;
      }

      .cls-31 {
        fill: #afafaf;
      }

      .cls-32 {
        fill: #e26868;
      }

      .cls-33 {
        fill: #c8ced6;
      }

      .cls-34, .cls-35, .cls-36 {
        fill: #131c26;
      }

      .cls-37 {
        fill: #1cb21c;
      }

      .cls-38 {
        fill: #202f40;
      }

      .cls-39 {
        fill: #356daa;
      }

      .cls-40 {
        fill: #198b20;
      }

      .cls-41 {
        fill: #6c7e35;
      }

      .cls-42 {
        fill: #586370;
      }

      .cls-43 {
        fill: #5a6067;
      }

      .cls-44 {
        fill: #4ac14a;
      }

      .cls-45 {
        fill: #63161b;
      }

      .cls-28, .Shadow_2, .cls-46, .cls-29, .cls-3 {
        mix-blend-mode: multiply;
      }

      .cls-28, .cls-5 {
        opacity: .2;
      }

      .cls-46 {
        fill: #e4e7ea;
      }

      .cls-29 {
        opacity: .5;
      }

      .cls-47 {
        fill: url(#linear-gradient-8);
      }

      .cls-48 {
        fill: url(#linear-gradient-9);
      }

      .cls-49 {
        fill: url(#linear-gradient-3);
      }

      .cls-50 {
        fill: url(#linear-gradient-4);
      }

      .cls-51 {
        fill: url(#linear-gradient-2);
      }

      .cls-52 {
        fill: url(#linear-gradient-6);
      }

      .cls-53 {
        fill: url(#linear-gradient-7);
      }

      .cls-54 {
        fill: url(#linear-gradient-5);
      }

      .cls-55 {
        fill: url(#linear-gradient-17);
      }

      .cls-55, .cls-56, .cls-18 {
        opacity: .4;
      }

      .cls-56 {
        fill: url(#linear-gradient-16);
      }

      .cls-4 {
        opacity: .15;
        stroke: #fafafa;
        stroke-miterlimit: 10;
        stroke-width: 1.02px;
      }

      .cls-57 {
        fill: url(#linear-gradient-14);
      }

      .cls-58 {
        fill: url(#linear-gradient-18);
      }

      .cls-59 {
        fill: url(#linear-gradient-15);
      }

      .cls-60 {
        fill: url(#linear-gradient-19);
      }

      .cls-61 {
        fill: url(#linear-gradient-13);
      }

      .cls-62 {
        fill: url(#linear-gradient-12);
      }

      .cls-63 {
        fill: url(#linear-gradient-10);
      }

      .cls-64 {
        fill: url(#linear-gradient-11);
      }

      .cls-35 {
        opacity: .8;
      }

      .cls-36 {
        opacity: .7;
      }
    </style>
    <linearGradient id="linear-gradient" x1="-1658.27" y1="3891.59" x2="-1644.75" y2="3930.24" gradientTransform="translate(1803.12 -3694.34)" gradientUnits="userSpaceOnUse">
      <stop offset="0" stop-color="#fafafa"/>
      <stop offset="1" stop-color="#fff" stop-opacity="0"/>
    </linearGradient>
    <linearGradient id="linear-gradient-2" x1="-1649.73" y1="3951.08" x2="-1648.86" y2="3937.08" xlink:href="#linear-gradient"/>
    <linearGradient id="linear-gradient-3" x1="-1653.53" y1="3953.27" x2="-1652.66" y2="3939.28" xlink:href="#linear-gradient"/>
    <linearGradient id="linear-gradient-4" x1="-1640.85" y1="3948.9" x2="-1639.98" y2="3934.9" xlink:href="#linear-gradient"/>
    <linearGradient id="linear-gradient-5" x1="-1636.45" y1="3960.13" x2="-1634.65" y2="3931.27" xlink:href="#linear-gradient"/>
    <linearGradient id="linear-gradient-6" x1="-1638.06" y1="3937.36" x2="-1634.19" y2="3920.93" xlink:href="#linear-gradient"/>
    <linearGradient id="linear-gradient-7" x1="-1632.97" y1="3934.5" x2="-1632.84" y2="3934.29" gradientTransform="translate(1803.12 -3694.34)" gradientUnits="userSpaceOnUse">
      <stop offset="0" stop-color="#fafafa"/>
      <stop offset="1" stop-color="#e9edf2"/>
    </linearGradient>
    <linearGradient id="linear-gradient-8" x1="-1632.84" y1="3934.84" x2="-1632.99" y2="3935.09" xlink:href="#linear-gradient-7"/>
    <linearGradient id="linear-gradient-9" x1="-1655.08" y1="3945.77" x2="-1654.46" y2="3945.77" gradientTransform="translate(1803.12 -3694.34)" gradientUnits="userSpaceOnUse">
      <stop offset="0" stop-color="#fafafa"/>
      <stop offset="1" stop-color="#a4aeba"/>
    </linearGradient>
    <linearGradient id="linear-gradient-10" x1="-1638.31" y1="3951.26" x2="-1636.94" y2="3951.26" xlink:href="#linear-gradient-9"/>
    <linearGradient id="linear-gradient-11" x1="-1638.25" y1="3952.44" x2="-1637.25" y2="3952.44" gradientTransform="translate(1803.12 -3694.34)" gradientUnits="userSpaceOnUse">
      <stop offset="0" stop-color="#7cadeb"/>
      <stop offset="1" stop-color="#356daa"/>
    </linearGradient>
    <linearGradient id="linear-gradient-12" x1="-1637.65" y1="3949.04" x2="-1636.45" y2="3949.04" xlink:href="#linear-gradient-9"/>
    <linearGradient id="linear-gradient-13" x1="-1637.38" y1="3953.06" x2="-1636.61" y2="3953.06" xlink:href="#linear-gradient-11"/>
    <linearGradient id="linear-gradient-14" x1="-1633.55" y1="3948.8" x2="-1633.34" y2="3948.87" xlink:href="#linear-gradient-9"/>
    <linearGradient id="linear-gradient-15" x1="-1635.61" y1="3940.74" x2="-1636.06" y2="3948.63" xlink:href="#linear-gradient"/>
    <linearGradient id="linear-gradient-16" x1="-1637.88" y1="3951.42" x2="-1636.14" y2="3950.6" xlink:href="#linear-gradient"/>
    <linearGradient id="linear-gradient-17" x1="-1642.24" y1="3948.95" x2="-1640.34" y2="3947.37" xlink:href="#linear-gradient"/>
    <linearGradient id="linear-gradient-18" x1="-1622.97" y1="3946.04" x2="-1622.65" y2="3946.44" gradientTransform="translate(1803.12 -3694.34)" gradientUnits="userSpaceOnUse">
      <stop offset="0" stop-color="#e9edf2"/>
      <stop offset="1" stop-color="#a4aeba"/>
    </linearGradient>
    <linearGradient id="linear-gradient-19" x1="-1622.35" y1="3947.31" x2="-1622.08" y2="3947.14" xlink:href="#linear-gradient-9"/>
  </defs>
  <g class="cls-2">
    <g id="frame">
      <rect class="cls-1" x="40.83" y="37.15" width="525" height="350"/>
    </g>
    <g id="tunnel_front_adoption">
      <g>
        <path class="cls-25" d="m132.56,337.53l-18.79-10.85,64.25-37.09,2.04-1.18,22.55-13.02,18.79,10.85-22.72,13.06h0s-66.12,38.22-66.12,38.22Z"/>
        <path class="cls-21" d="m132.58,348.31l88.83-51.29v-10.78l-88.83,51.29v10.79Z"/>
        <path class="cls-30" d="m145.27,322.01c-1.16.66-1.16,1.72-.02,2.4,1.13.66,2.99.66,4.14,0,1.16-.66,1.16-1.75.02-2.4-1.16-.67-3.01-.67-4.14,0Z"/>
        <path class="cls-45" d="m146.65,321.73l1.31.11c0,.59-.02,1.26-.28,1.77-.17.17-.64.17-.83.02.04-.61-.09-1.33-.2-1.9Z"/>
        <path class="cls-31" d="m147.98,321.84c0,.28,0,.59-.04.87-.2.07-.39.11-.61.11-.17,0-.35,0-.5-.04-.04-.37-.11-.74-.17-1.05l1.33.11h0Z"/>
        <path class="cls-8" d="m144.4,317.29c.07-.63.28-1.13.5-1.24.05-.02.11-.07.11-.13l.2-1.44c.02-.17,0-.35-.05-.52-.09-.39-.11-1.03-.02-1.7.09-.87.3-1.59.52-1.92.09-.11.17-.22.17-.35l.3-2.14c.07-.48.5-.79.98-.81.48-.02,1.06.24,1.2.96l-.28.46c0,.17.11.3.17.46.11.22.17.64.2,1.09.02.48-.02.89-.11,1.11-.07.15-.15.3-.15.46l.07,1.88c0,.13.09.24.2.33.3.3.52,1.11.57,2.05.04.98-.15,1.83-.44,2.12-.09.09-.15.17-.15.28l.02.46c.05,1.11-.87,2-1.98,1.94-.98-.05-1.74-.85-1.79-1.79,0-.17-.07-.33-.13-.48-.13-.22-.17-.63-.11-1.07v-.02Z"/>
        <path class="cls-9" d="m144.93,318.68c.04-.7.24-1.26.46-1.4.07-.02.11-.09.11-.13l.13-1.6c.02-.2-.02-.39-.07-.57-.11-.44-.17-1.11-.13-1.87.05-.96.24-1.77.46-2.14.09-.13.17-.27.17-.39l.2-2.36c.04-.54.5-.94,1.03-.94s.98.41,1.03.94l.05.54c.02.17.15.33.22.5.13.24.24.67.28,1.2.05.52.02.98-.07,1.24-.04.17-.15.32-.15.52l.17,2.05c.02.15.11.26.22.35.35.3.66,1.18.74,2.22.1,1.09-.05,2.03-.35,2.36-.09.09-.15.2-.15.32l.04.5c.11,1.22-.85,2.24-2.07,2.24-1.09,0-1.97-.83-2.07-1.87-.02-.17-.09-.35-.17-.5-.02-.28-.09-.74-.07-1.24v.02Z"/>
        <path class="cls-40" d="m147.5,307.95c.37,0,.69.28.72.66l.04.5c.02.17.11.3.17.44.02.05.04.09.07.11.09.15.2.52.24,1.03.04.52,0,.89-.05,1.07-.02.05-.02.09-.05.13-.04.13-.11.28-.09.46l.17,1.92c.02.22.15.37.28.48.24.22.52.89.61,1.92.09,1.03-.07,1.79-.28,2.03-.07.07-.22.26-.2.5l.04.48c.04.48-.11.94-.44,1.28-.33.35-.76.54-1.24.54-.87,0-1.61-.66-1.68-1.53-.02-.2-.09-.37-.15-.5l-.02-.05c-.11-.22-.15-.61-.13-1.03.04-.67.22-1.07.32-1.11.17-.11.22-.24.22-.33l.13-1.48c.02-.22-.02-.44-.07-.61-.11-.39-.15-1.03-.11-1.68.05-.94.24-1.61.39-1.87l.02-.02c.09-.11.17-.27.2-.46l.2-2.2c-.02-.39.28-.67.66-.67h0Z"/>
        <path class="cls-22" d="m147.65,315.91c.07.02.13,0,.13-.07-.02-1.26.61-1.65.79-.52.02.09.13.11.17.05.3-.33.63.3.63,1.24,0,.74-.22,1.33-.48,1.33-.22,0-.41-.42-.46-.98-.02-.35-.35-.32-.35.39,0,.83-.24,1.48-.52,1.48s-.52-.67-.52-1.48c.02-.85.3-1.55.61-1.44h0Z"/>
        <path class="cls-22" d="m147.09,309.75c-.02-.79.2-1.48.5-1.48s.44.64.48,1.11c.02.15.17.24.27.37.41.5.28,2.24-.17,2.24-.2,0-.32-.37-.39-.87-.04-.37-.3-.28-.35,0-.13.85-.57.66-.57-.27,0-.67.26-.81.24-1.11Z"/>
        <path class="cls-30" d="m137.14,328.46c-.89.52-.89,1.35,0,1.87.89.52,2.33.52,3.23,0,.89-.52.89-1.35,0-1.87-.89-.52-2.33-.52-3.23,0Z"/>
        <path class="cls-45" d="m138.22,328.24l1.03.09c0,.46-.02.98-.22,1.4-.13.13-.48.13-.64.02.02-.52-.09-1.07-.17-1.51h0Z"/>
        <path class="cls-31" d="m139.26,328.31c0,.22,0,.46-.02.67-.15.05-.3.09-.48.09-.13,0-.26,0-.39-.04-.05-.28-.09-.57-.13-.81l1.03.09h0Z"/>
        <path class="cls-8" d="m136.45,324.76c.05-.48.22-.89.39-.98.04-.02.09-.04.09-.09l.15-1.13c.02-.13,0-.28-.02-.42-.07-.3-.09-.81-.02-1.33.07-.67.24-1.24.42-1.5.07-.09.13-.17.15-.28l.24-1.65c.04-.37.39-.61.76-.64.37,0,.85.2.94.74l-.22.35c0,.13.09.24.15.35.09.17.13.5.15.85.02.37-.02.7-.09.87-.05.13-.13.24-.13.37l.04,1.46c0,.11.07.2.15.26.24.24.41.87.44,1.61.02.76-.11,1.44-.35,1.65-.07.07-.13.13-.13.22l.02.37c.02.87-.69,1.57-1.55,1.53-.76-.04-1.35-.66-1.4-1.4,0-.13-.07-.24-.11-.37-.09-.17-.11-.5-.09-.85v.02Z"/>
        <path class="cls-9" d="m136.89,325.85c.02-.55.17-.98.37-1.09.05-.02.09-.07.09-.11l.11-1.24c.02-.15-.02-.3-.07-.46-.09-.35-.13-.87-.1-1.46.04-.74.17-1.4.35-1.65.07-.09.13-.2.13-.3l.15-1.85c.04-.41.39-.74.81-.74s.76.33.81.74l.04.44c.02.15.11.26.17.39.09.2.17.52.22.94.05.39.02.76-.04.96-.04.13-.13.26-.11.39l.13,1.61c0,.11.09.2.17.28.26.24.5.92.59,1.75.09.85-.05,1.59-.28,1.85-.07.07-.13.15-.11.26l.05.39c.09.94-.66,1.77-1.61,1.77-.85,0-1.53-.66-1.61-1.46-.02-.13-.07-.26-.13-.39-.09-.26-.13-.61-.11-1.01h-.02Z"/>
        <path class="cls-40" d="m138.89,317.46c.28,0,.54.22.57.52l.04.39c.02.13.09.24.13.35.02.02.05.07.05.09.07.13.15.42.17.81.04.41,0,.69-.05.83,0,.02-.02.07-.04.11-.04.09-.09.22-.07.35l.13,1.5c.02.17.13.28.22.39.17.17.42.69.48,1.5.07.81-.05,1.4-.22,1.59-.05.05-.17.2-.15.39l.05.37c.04.37-.09.74-.35,1-.26.28-.61.44-.98.44-.67,0-1.24-.52-1.33-1.2-.02-.15-.07-.28-.13-.39l-.02-.05c-.09-.17-.11-.48-.11-.81.02-.52.17-.83.24-.87.13-.09.17-.2.17-.24l.11-1.18c.02-.17-.02-.35-.07-.48-.09-.3-.11-.81-.09-1.31.04-.74.17-1.26.3-1.46l.02-.02c.07-.09.13-.22.15-.35l.15-1.72c.07-.33.32-.57.61-.57h.01Z"/>
        <path class="cls-22" d="m139,323.69s.11,0,.11-.05c-.02-1.01.48-1.31.61-.39,0,.07.09.09.13.05.24-.26.5.24.5.98,0,.57-.17,1.04-.37,1.04-.17,0-.32-.32-.35-.76-.02-.26-.28-.26-.28.3,0,.64-.17,1.16-.41,1.16-.22,0-.42-.52-.42-1.16.02-.72.24-1.26.48-1.18h0Z"/>
        <path class="cls-22" d="m138.56,318.87c-.02-.61.15-1.16.39-1.16s.35.5.37.87c0,.11.13.2.22.28.32.39.22,1.77-.13,1.77-.15,0-.26-.3-.3-.7-.05-.28-.24-.22-.28,0-.11.67-.44.5-.44-.22-.02-.52.17-.61.17-.85h0Z"/>
        <path class="cls-30" d="m126.86,327.2c-1.18.67-1.2,1.79-.02,2.46,1.18.67,3.1.67,4.27,0,1.17-.67,1.2-1.79.02-2.46-1.18-.67-3.1-.67-4.27,0Z"/>
        <path class="cls-45" d="m128.29,326.91l1.35.11c0,.61-.02,1.31-.28,1.83-.17.17-.66.17-.85.02.02-.66-.11-1.4-.22-1.97h0Z"/>
        <path class="cls-31" d="m129.65,327.03c0,.28,0,.59-.04.89-.2.07-.42.11-.64.13-.17,0-.35,0-.52-.05-.05-.37-.11-.76-.17-1.07l1.38.09Z"/>
        <path class="cls-8" d="m125.97,322.32c.07-.66.28-1.18.5-1.29.05-.02.11-.07.11-.13l.22-1.48c.02-.17,0-.37-.04-.54-.09-.41-.11-1.04-.02-1.77.09-.89.3-1.65.54-1.98.09-.11.17-.24.2-.37l.3-2.2c.07-.5.5-.83,1.01-.83.5-.02,1.11.24,1.22.98l-.28.46c0,.17.11.33.2.48.11.24.17.66.2,1.13.02.48-.02.91-.11,1.16-.07.15-.17.3-.15.48l.07,1.94c0,.13.09.24.2.35.3.3.54,1.13.59,2.12.04,1.03-.15,1.9-.46,2.2-.09.09-.15.17-.15.3l.02.48c.05,1.13-.91,2.07-2.05,2-1.03-.07-1.79-.87-1.83-1.85,0-.17-.07-.33-.13-.48-.13-.26-.17-.67-.13-1.16h-.01Z"/>
        <path class="cls-9" d="m126.51,323.78c.05-.72.24-1.31.48-1.44.07-.02.11-.09.11-.15l.15-1.63c.02-.2-.02-.39-.07-.59-.11-.46-.17-1.16-.13-1.94.04-.98.24-1.83.48-2.2.09-.13.17-.26.2-.42l.22-2.44c.04-.54.5-.98,1.07-.98s1.03.42,1.07.98l.04.57c.02.2.15.35.24.5.13.24.24.7.28,1.23.05.52.02,1.01-.07,1.28-.07.17-.17.35-.15.52l.2,2.12c.02.15.13.26.24.37.35.33.67,1.22.76,2.29.11,1.11-.07,2.09-.37,2.44-.09.09-.17.22-.15.35l.05.52c.11,1.24-.87,2.33-2.14,2.33-1.11,0-2.02-.85-2.14-1.92-.02-.17-.11-.35-.17-.52-.15-.3-.22-.76-.2-1.26h.01Z"/>
        <path class="cls-40" d="m129.17,312.68c.39,0,.72.3.74.67l.05.52c.02.17.11.33.17.46.02.05.05.09.07.11.09.17.2.54.24,1.07.05.52,0,.91-.04,1.09-.02.04-.02.09-.04.13-.05.13-.11.28-.11.46l.17,1.98c.02.22.15.37.3.5.24.22.54.94.64,1.98.09,1.04-.07,1.85-.28,2.09-.07.07-.22.27-.22.5l.04.5c.05.5-.1.96-.46,1.33-.32.37-.79.57-1.28.57-.92,0-1.65-.67-1.75-1.57-.02-.2-.09-.37-.17-.52l-.02-.04c-.11-.24-.15-.64-.13-1.07.04-.7.24-1.09.32-1.16.17-.11.22-.26.24-.32l.13-1.55c.02-.24-.02-.46-.09-.64-.11-.42-.15-1.07-.11-1.75.04-.98.24-1.68.42-1.94l.02-.02c.09-.13.17-.28.2-.48l.2-2.27c.07-.35.39-.66.76-.66v.03Z"/>
        <path class="cls-22" d="m129.32,320.92c.07.02.15,0,.13-.07-.02-1.31.63-1.72.81-.52.02.09.13.11.17.05.33-.32.66.33.66,1.28,0,.76-.22,1.38-.48,1.38-.22,0-.41-.44-.48-1.03-.02-.35-.37-.35-.37.41,0,.85-.24,1.53-.54,1.53s-.54-.69-.54-1.53c.04-.91.32-1.63.66-1.5h-.01Z"/>
        <path class="cls-22" d="m128.76,314.54c-.02-.81.22-1.53.5-1.53.3,0,.46.66.5,1.16.02.15.17.24.28.37.44.52.28,2.34-.17,2.34-.2,0-.35-.39-.42-.92-.04-.39-.32-.28-.37,0-.13.89-.59.67-.59-.28,0-.67.26-.81.26-1.13h0Z"/>
        <path class="cls-19" d="m132.58,348.31l-18.8-10.86v-10.77s18.8,10.86,18.8,10.86v10.76Z"/>
        <path class="cls-41" d="m157.42,268.57l-9.88-11.11c-3.55,1.15-7.28,2.61-9.59,3.52-1.79.7-2.75,1.08-2.14.72l-4.17,2.43c-2.56,1.48-4.15,4.63-4.16,9.13l-.04,12.62,30.44-16.8-.46-.52Z"/>
        <path class="cls-20" d="m160.69,270.7l35.02-21.27-36.88-21.26-35.92,20.76,37.79,21.76Z"/>
        <path class="cls-21" d="m160.61,304.99l4.18-2.42,30.92-19.33v-33.8l-35.02,21.27-.09,34.28Z"/>
        <path class="cls-21" d="m195.7,249.44l10.11,35.71-25.64,14.96-19.57,4.88s15.46-15.25,21.99-20.29c9.7-7.51,5.85-30.96,13.11-35.26Z"/>
        <path class="cls-19" d="m160.69,270.7l-37.79-21.76-.09,34.28,4.63,2.67.04-12.62c.02-9.04,6.44-12.67,14.3-8.13,7.88,4.54,14.25,15.53,14.22,24.57l-.04,12.62,4.63,2.67.1-34.28h0Z"/>
      </g>
      <g>
        <path class="cls-37" d="m147.1,257.15c-.22,0-.44-.06-.64-.17l-4.3-2.49c-.24-.14-.38-.38-.38-.66s.14-.52.38-.66l2.87-1.81.27.42-2.88,1.82c-.13.07-.14.19-.14.23s.01.16.13.23l4.3,2.49c.24.14.54.14.77,0l.48-.28.25.43-.48.28c-.2.11-.42.17-.64.17Z"/>
        <path class="Shadow_2" d="m185.01,254c-1.45-1.79-2.79-2.34-5.69-3.13-.34-.09-.75-.05-1.01.1l-13.06,7.54c-.27.15-.34.39-.18.59.68.84,1.59,1.58,2.66,2.22v1.76s1.96,0,1.96,0c.05,0,.09,0,.14,0h.02c.2-.01.4-.06.55-.15l14.44-8.34c.27-.15.34-.39.18-.59Z"/>
        <g>
          <polygon class="Shadow_2" points="182.88 242.16 172.03 235.87 172.03 243.3 170.76 244.03 170.44 243.84 165.7 246.58 165.7 246.95 160.63 249.87 158.09 248.4 146.69 254.98 148.95 254.98 148.26 256.52 154.6 256.52 154.92 257.08 157.39 257.08 158.14 256.59 160.07 255.16 159.86 254.98 165.7 254.98 176.08 248.99 181.47 248.99 188.08 245.17 182.88 242.16"/>
          <polygon class="cls-24" points="132.68 246.16 142.81 240.31 142.81 231.49 132.68 237.33 132.68 246.16"/>
          <polygon class="cls-15" points="145.35 220.46 145.35 223.43 145.67 223.61 145.67 226.16 145.35 226.34 145.35 241.05 160.63 249.87 160.63 229.28 145.35 220.46"/>
          <polygon class="cls-23" points="146.69 244.68 158.09 238.11 158.09 248.4 146.69 254.98 146.69 244.68"/>
          <polygon class="cls-15" points="151.76 244.73 151.44 244.91 151.44 248.93 151.76 249.11 151.76 244.73"/>
          <polygon class="Shadow_2" points="149.21 250.22 149.21 250.59 151.76 249.11 151.76 244.73 151.44 244.91 151.44 248.93 149.21 250.22"/>
          <polygon class="cls-15" points="151.44 244.91 151.12 245.1 151.12 248.75 151.44 248.93 151.44 244.91"/>
          <polygon class="cls-23" points="133.95 246.89 133.32 247.26 133.32 238.43 133.95 238.07 133.95 246.89"/>
          <polygon class="cls-15" points="133.32 238.43 144.78 245.05 144.78 253.88 146.69 254.98 146.69 244.68 131.41 235.86 131.41 246.15 133.32 247.26 133.32 238.43"/>
          <polygon class="cls-23" points="158.09 235.16 146.69 244.68 158.09 238.11 158.09 235.16"/>
          <polygon class="cls-23" points="145.35 220.46 156.74 213.88 151.05 214.96 145.35 220.46"/>
          <polygon class="cls-23" points="160.63 229.28 160.63 249.87 165.7 246.95 165.7 246.58 170.44 243.84 170.76 244.03 172.03 243.3 172.03 222.7 166.33 223.79 160.63 229.28"/>
          <polygon class="cls-15" points="164.43 240.35 164.11 240.54 164.11 244.55 164.43 244.74 164.43 240.35"/>
          <polygon class="cls-11" points="164.43 244.74 161.88 246.21 161.88 245.84 164.11 244.55 164.43 244.74"/>
          <polygon class="cls-15" points="164.11 240.54 163.79 240.72 163.79 244.37 164.11 244.55 164.11 240.54"/>
          <polygon class="cls-11" points="164.11 244.55 161.88 245.84 161.88 245.47 163.79 244.37 164.11 244.55"/>
          <polygon class="cls-35" points="164.11 244.55 161.88 245.84 161.88 241.82 164.11 240.54 164.11 244.55"/>
          <polygon class="cls-11" points="158.09 235.16 142.8 226.34 131.41 235.86 146.69 244.68 158.09 235.16"/>
          <polygon class="cls-16" points="158.34 234.58 142.55 225.46 130.51 235.51 146.31 244.63 158.34 234.58"/>
          <polygon class="cls-10" points="146.31 244.63 146.31 245.37 130.51 236.25 130.51 235.51 146.31 244.63"/>
          <polygon class="cls-15" points="155.55 242.54 155.24 242.72 155.24 246.74 155.55 246.92 155.55 242.54"/>
          <polygon class="cls-11" points="155.55 246.92 153.01 248.39 153.01 248.03 155.24 246.74 155.55 246.92"/>
          <polygon class="cls-15" points="155.24 242.72 154.92 242.9 154.92 246.55 155.24 246.74 155.24 242.72"/>
          <polygon class="cls-11" points="155.24 246.74 153.01 248.03 153.01 247.66 154.92 246.55 155.24 246.74"/>
          <polygon class="cls-35" points="155.24 246.74 153.01 248.03 153.01 244.01 155.24 242.72 155.24 246.74"/>
          <g>
            <polygon class="cls-15" points="170.76 236.7 170.44 236.88 170.44 243.84 170.76 244.03 170.76 236.7"/>
            <polygon class="cls-15" points="170.44 236.88 170.12 237.07 170.12 243.66 170.44 243.84 170.44 236.88"/>
            <polygon class="cls-11" points="170.44 243.84 165.7 246.58 165.7 246.21 170.12 243.66 170.44 243.84"/>
            <polygon class="cls-35" points="170.44 243.84 165.7 246.58 165.7 239.62 170.44 236.88 170.44 243.84"/>
          </g>
          <g>
            <polygon class="cls-15" points="170.76 226.4 170.44 226.59 170.44 229.13 170.76 229.32 170.76 226.4"/>
            <polygon class="cls-11" points="170.76 229.32 165.7 232.24 165.7 231.87 170.44 229.13 170.76 229.32"/>
            <polygon class="cls-15" points="170.44 226.59 170.12 226.77 170.12 228.95 170.44 229.13 170.44 226.59"/>
            <polygon class="cls-11" points="170.44 229.13 165.7 231.87 165.7 231.51 170.12 228.95 170.44 229.13"/>
            <polygon class="cls-35" points="170.44 229.13 165.7 231.87 165.7 229.33 170.44 226.59 170.44 229.13"/>
          </g>
          <g>
            <polygon class="cls-11" points="145.35 226.34 160.63 235.16 160.63 234.8 145.67 226.16 145.35 226.34"/>
            <polygon class="cls-15" points="145.67 223.61 145.99 223.79 145.99 225.97 145.67 226.16 145.67 223.61"/>
            <polygon class="cls-11" points="145.67 226.16 160.63 234.8 160.63 234.43 145.99 225.97 145.67 226.16"/>
            <polygon class="cls-36" points="145.67 226.16 160.63 234.8 160.63 232.25 145.67 223.61 145.67 226.16"/>
          </g>
          <g>
            <polygon class="cls-15" points="164.43 230.06 164.11 230.24 164.11 232.79 164.43 232.97 164.43 230.06"/>
            <polygon class="cls-11" points="164.43 232.97 160.63 235.16 160.63 234.8 164.11 232.79 164.43 232.97"/>
            <polygon class="cls-15" points="164.11 230.24 163.79 230.43 163.79 232.6 164.11 232.79 164.11 230.24"/>
            <polygon class="cls-11" points="164.11 232.79 160.63 234.8 160.63 234.43 163.79 232.6 164.11 232.79"/>
            <polygon class="cls-35" points="164.11 232.79 160.63 234.8 160.63 232.25 164.11 230.24 164.11 232.79"/>
          </g>
          <polygon class="cls-13" points="150.79 214.85 156.92 212.91 172.72 222.03 166.59 223.97 150.79 214.85"/>
          <polygon class="cls-16" points="160.36 229.2 166.59 223.97 150.79 214.85 144.56 220.08 160.36 229.2"/>
          <polygon class="cls-32" points="172.72 222.03 172.72 222.77 166.59 224.7 160.36 229.94 160.36 229.2 166.59 223.97 172.72 222.03"/>
          <polygon class="cls-10" points="160.36 229.2 160.36 229.94 144.56 220.82 144.56 220.08 160.36 229.2"/>
          <polygon class="Shadow_2" points="160.63 234.8 161.27 234.8 164.43 232.97 164.43 230.06 164.11 230.24 164.11 232.79 160.63 234.8"/>
          <polygon class="Shadow_2" points="165.7 231.87 165.7 232.24 170.76 229.32 170.76 226.4 170.44 226.59 170.44 229.13 165.7 231.87"/>
          <polygon class="Shadow_2" points="161.88 245.84 161.88 246.21 164.43 244.74 164.43 240.35 164.11 240.54 164.11 244.55 161.88 245.84"/>
          <polygon class="Shadow_2" points="153.01 248.03 153.01 248.39 155.55 246.92 155.55 242.54 155.24 242.72 155.24 246.74 153.01 248.03"/>
          <polygon class="Shadow_2" points="160.63 229.71 166.59 224.7 172.03 222.99 172.03 223.63 166.59 225.44 161.09 230.12 160.63 230.12 160.63 229.71"/>
          <polygon class="Shadow_2" points="133.32 247.26 144.78 247.26 144.78 245.05 139.69 242.11 133.95 245.42 133.95 246.89 133.32 247.26"/>
          <polygon class="cls-6" points="151.76 227.13 153.52 230.69 160.63 234.8 160.63 232.25 151.76 227.13"/>
          <polygon class="cls-32" points="158.34 234.58 158.34 235.31 146.31 245.37 146.31 244.63 158.34 234.58"/>
          <polygon class="Shadow_2" points="170.76 244.03 170.44 243.84 170.44 236.88 170.76 236.7 170.76 244.03"/>
          <polygon class="cls-7" points="166.71 222.28 165.18 221.39 167.2 220.22 168.73 221.11 166.71 222.28"/>
          <polygon class="cls-7" points="166.71 219.78 165.18 218.89 167.2 217.72 168.73 218.61 166.71 219.78"/>
          <polygon class="cls-23" points="167.21 218.02 167.21 219.19 166.71 219.48 165.69 218.89 167.21 218.02"/>
          <polygon class="cls-12" points="167.21 218.02 167.21 219.19 168.23 218.61 167.21 218.02"/>
          <polygon class="cls-33" points="168.73 221.11 168.73 221.93 166.71 222.57 166.71 222.28 168.73 221.11"/>
          <polygon class="cls-12" points="166.71 222.28 166.71 222.57 165.18 221.69 165.18 221.39 166.71 222.28"/>
          <polygon class="cls-33" points="168.73 218.61 168.73 218.9 166.71 220.07 166.71 219.78 168.73 218.61"/>
          <polygon class="cls-12" points="166.71 219.78 166.71 220.07 165.18 219.19 165.18 218.89 166.71 219.78"/>
          <polygon class="cls-33" points="168.23 218.9 166.71 219.78 166.71 221.98 168.23 221.11 168.23 218.9"/>
          <polygon class="cls-12" points="166.71 219.78 165.69 219.19 165.69 221.39 166.71 221.98 166.71 219.78"/>
          <polygon class="Shadow_2" points="166.71 221.98 167.22 221.98 168.73 221.11 168.23 220.81 168.23 221.11 166.71 221.98"/>
          <polygon class="cls-46" points="166.71 220.07 167.14 220.07 168.23 219.45 168.23 219.19 166.71 220.07"/>
          <polygon class="Shadow_2" points="168.73 221.93 166.71 222.57 167.47 222.7 167.92 222.57 169.81 222.57 170.97 222.22 169.29 221.25 168.73 221.25 168.73 221.93"/>
          <polygon class="cls-38" points="133.64 238.62 144.78 245.05 144.78 245.42 133.64 238.98 133.64 238.62"/>
          <polygon class="cls-1" points="146.69 254.98 150.49 252.79 154.31 254.99 150.52 257.19 146.69 254.98"/>
          <g class="cls-3">
            <g>
              <polygon class="cls-27" points="168.27 234.49 167.25 235.07 167.25 234.69 168.27 234.1 168.27 234.49"/>
              <polygon class="cls-27" points="169.45 233.8 168.43 234.39 168.43 234 169.45 233.42 169.45 233.8"/>
              <polygon class="cls-27" points="168.86 234.73 167.84 235.31 167.84 234.93 168.86 234.34 168.86 234.73"/>
              <polygon class="cls-27" points="168.86 233.56 167.84 234.15 167.84 233.76 168.86 233.18 168.86 233.56"/>
            </g>
            <g>
              <polygon class="cls-26" points="168.27 234.49 167.25 235.07 167.25 234.69 168.27 234.1 168.27 234.49"/>
              <polygon class="cls-26" points="169.45 233.8 168.43 234.39 168.43 234 169.45 233.42 169.45 233.8"/>
              <polygon class="cls-26" points="168.86 234.73 167.84 235.31 167.84 234.93 168.86 234.34 168.86 234.73"/>
              <polygon class="cls-26" points="168.86 233.56 167.84 234.15 167.84 233.76 168.86 233.18 168.86 233.56"/>
            </g>
          </g>
          <g class="cls-3">
            <g>
              <polygon class="cls-27" points="156.54 238.88 155.53 239.47 155.53 239.08 156.54 238.49 156.54 238.88"/>
              <polygon class="cls-27" points="155.95 239.8 154.94 240.39 154.94 240 155.95 239.42 155.95 239.8"/>
            </g>
            <g>
              <polygon class="cls-26" points="156.54 238.88 155.53 239.47 155.53 239.08 156.54 238.49 156.54 238.88"/>
              <polygon class="cls-26" points="155.95 239.8 154.94 240.39 154.94 240 155.95 239.42 155.95 239.8"/>
            </g>
          </g>
          <polygon class="cls-51" points="155.24 242.72 155.24 246.1 153.01 244.01 155.24 242.72"/>
          <polygon class="cls-49" points="151.44 244.91 151.44 248.29 149.21 246.2 151.44 244.91"/>
          <polygon class="cls-50" points="164.11 240.54 164.11 243.91 161.88 241.82 164.11 240.54"/>
          <polygon class="cls-54" points="170.44 236.88 170.44 243.84 165.91 239.5 170.44 236.88"/>
          <polygon class="cls-52" points="170.44 226.59 170.44 229.13 166.26 229 170.44 226.59"/>
          <path class="cls-53" d="m170.06,239.72s-.06,0-.1.01c-.09.05-.16.19-.16.3v1.04c0,.07.02.11.06.13l.12.07s.01,0,.01,0l.2-1.46-.14-.08Z"/>
          <path class="cls-23" d="m170.25,239.93v1.04c0,.12-.07.25-.16.3h0c-.09.05-.16,0-.16-.12v-1.04c0-.12.07-.25.16-.3h0c.09-.05.16,0,.16.12Z"/>
          <path class="cls-47" d="m170.46,240.49l-.25-.14s-.07-.02-.12,0c-.09.05-.16.17-.16.27,0,.05.02.08.04.1l.25.15s.07.02.12,0c.09-.05.16-.17.16-.27,0-.05-.02-.08-.04-.1Z"/>
          <ellipse class="cls-23" cx="170.35" cy="240.68" rx=".22" ry=".13" transform="translate(-123.41 266.27) rotate(-59.69)"/>
          <path class="Shadow_2" d="m170.51,240.59s0,0,0,0c0-.02,0-.04-.01-.06,0,0,0,0,0,0,0-.02-.02-.03-.03-.04,0,0,0,0,0,0h0s0,0,0,0l-.2-.12v-.45c0-.06-.02-.1-.05-.13h0s-.14-.08-.14-.08c-.03-.01-.06,0-.1.01-.09.05-.16.19-.16.3v1.04c0,.07.02.11.06.13l.11.06s.07.02.11,0c.09-.05.16-.19.16-.3v-.08s.02,0,.03,0c0,0,0,0,0,0,0,0,.02,0,.03,0,0,0,0,0,0,0,.01,0,.02,0,.03-.02,0,0,0,0,0,0,.02-.01.03-.03.05-.04,0,0,0,0,.01,0,.06-.06.1-.15.1-.22Z"/>
          <polygon class="cls-29" points="164.61 258.7 164.46 258.86 164.46 258.2 164.61 258.25 164.61 258.7"/>
          <path class="cls-28" d="m166.43,258.93c-.23.12-.56.15-.85.07-.33-.09-.66-.19-.98-.3l-.15.15c.36.12.74.24,1.12.34.32.09.7.05.97-.08l-.12-.19Z"/>
          <g>
            <polygon class="Shadow_2" points="158.09 246.93 146.69 253.51 146.69 254.98 158.09 248.4 158.09 246.93"/>
            <polygon class="Shadow_2" points="131.41 246.15 133.32 247.26 133.32 245.79 131.41 244.68 131.41 246.15"/>
            <polygon class="Shadow_2" points="144.78 253.88 146.69 254.98 146.69 253.51 144.78 252.41 144.78 253.88"/>
            <polygon class="Shadow_2" points="165.7 245.48 160.63 248.4 160.63 249.87 165.7 246.95 165.7 245.48"/>
            <polygon class="Shadow_2" points="170.76 242.56 170.44 242.37 170.44 243.84 170.76 244.03 172.03 243.3 172.03 241.82 170.76 242.56"/>
            <polygon class="Shadow_2" points="158.09 246.93 158.09 248.4 160.63 249.87 160.63 248.4 158.09 246.93"/>
          </g>
        </g>
        <g>
          <polygon class="cls-11" points="151.76 249.11 149.21 250.59 149.21 250.22 151.44 248.93 151.76 249.11"/>
          <polygon class="cls-11" points="151.44 248.93 149.21 250.22 149.21 249.85 151.12 248.75 151.44 248.93"/>
          <polygon class="cls-35" points="151.44 248.93 149.21 250.22 149.21 246.2 151.44 244.91 151.44 248.93"/>
          <path class="cls-48" d="m149.34,246.34v9.56c0,.08-.06.16-.17.22l-.53.31c-.11.06-.25.1-.39.1-.11,0-.22-.02-.3-.07-.08-.05-.12-.11-.12-.17v-9.56c0,.06.04.13.12.17.08.05.19.07.3.07.14,0,.28-.03.39-.1l.53-.31c.11-.06.17-.15.17-.22Z"/>
          <path class="cls-11" d="m148.54,246.19l-.53.31c-.2.12-.23.29-.05.4h0c.18.1.48.09.69-.03l.53-.31c.2-.12.23-.29.05-.4h0c-.18-.1-.48-.09-.69.03Z"/>
          <path class="cls-37" d="m166.06,265.84c-.68,0-1.35-.17-1.95-.52l-13.82-7.98c-.62-.36-1-1.02-1-1.73v-3.37h.5v3.37c0,.53.29,1.03.75,1.3l13.82,7.98c1.05.61,2.36.61,3.41,0l12.74-7.35c.46-.27.75-.76.75-1.3v-2.16h.5v2.16c0,.71-.38,1.37-1,1.73l-12.74,7.35c-.6.35-1.28.52-1.95.52Z"/>
          <path class="cls-37" d="m150.23,248.94l-1.36.79c-.15.09-.27,0-.27-.21h0c0-.2.12-.44.27-.52l1.36-.79c.15-.09.27,0,.27.21h0c0,.2-.12.44-.27.52Z"/>
          <path class="Shadow_2" d="m150.48,247.4h0l-.54-.31c-.11-.05-.24-.04-.39.05l-1.14.66h.73c.13,0,.26-.03.37-.1l.4-.23c.09-.05.19-.08.3-.07h.27Z"/>
        </g>
        <polygon class="Shadow_2" points="158.34 234.58 160.63 236.97 160.63 249.87 158.09 248.4 158.09 235.53 158.34 235.31 158.34 234.58"/>
        <line class="cls-4" x1="167.63" y1="245.47" x2="167.63" y2="238.51"/>
        <line class="cls-4" x1="168.51" y1="244.96" x2="168.51" y2="238"/>
        <g>
          <g>
            <polygon class="cls-34" points="170.27 260.87 169.35 260.33 169.12 259.47 170.27 260.13 170.27 260.87"/>
            <g>
              <path class="cls-34" d="m169.45,259.54h0s-.01,0-.01,0c-.04-.03-.08-.05-.13-.07l-1.15-.66s-.08-.05-.13-.07h-.01s0,0,0,0c-.25-.1-.58-.07-.94.14-.79.46-1.43,1.56-1.43,2.47,0,.45.16.77.42.92h0s0,0,0,0c0,0,0,0,0,0l1.27.74s0,0,0,0h0s0,0,0,0c.26.15.62.12,1.01-.1.79-.46,1.43-1.56,1.43-2.47,0-.41-.13-.71-.35-.87Z"/>
              <ellipse class="cls-14" cx="168.49" cy="261.31" rx="1.35" ry=".78" transform="translate(-142.13 274.88) rotate(-59.69)"/>
              <ellipse class="cls-38" cx="168.36" cy="261.23" rx=".67" ry=".39" transform="translate(-142.13 274.74) rotate(-59.69)"/>
            </g>
            <g>
              <path class="cls-34" d="m179.28,253.86h0s-.01,0-.01,0c-.04-.03-.08-.05-.13-.07l-1.15-.66s-.08-.05-.13-.07h-.01s0,0,0,0c-.25-.1-.58-.07-.94.14-.79.46-1.43,1.56-1.43,2.47,0,.45.16.77.42.92h0s0,0,0,0c0,0,0,0,0,0l1.27.74s0,0,0,0h0s0,0,0,0c.26.15.62.12,1.01-.1.79-.46,1.43-1.56,1.43-2.47,0-.41-.13-.71-.35-.87Z"/>
              <ellipse class="cls-14" cx="178.32" cy="255.63" rx="1.35" ry=".78" transform="translate(-132.37 280.56) rotate(-59.69)"/>
              <ellipse class="cls-38" cx="178.19" cy="255.56" rx=".67" ry=".39" transform="translate(-132.37 280.41) rotate(-59.69)"/>
            </g>
            <path class="cls-11" d="m165.95,259.68l14.33-8.27c.27-.15.34-.39.18-.59-1.45-1.79-3.91-3.14-6.81-3.93-.34-.09-.75-.05-1.01.1l-14.33,8.27c-.27.15-.34.39-.18.59,1.45,1.79,3.91,3.14,6.81,3.93.34.09.75.05,1.01-.1Z"/>
            <path class="cls-11" d="m166.59,258.21l13.7-7.91c.27-.15.34-.39.18-.59-1.45-1.79-3.91-3.14-6.81-3.93-.34-.09-.75-.05-1.01.1l-13.7,7.91c-.27.15-.34.39-.18.59,1.45,1.79,3.91,3.14,6.81,3.93.34.09.75.05,1.01-.1Z"/>
            <path class="cls-11" d="m170.08,253.25l8.61-4.97c-1.12-1.56-3.23-2.71-5.73-3.31l-8.61,4.97c1.12,1.56,3.23,2.71,5.73,3.31Z"/>
            <path class="cls-34" d="m170.08,253.25l-.81,2.5c-.04.12-.17.2-.29.16-2.53-.64-4.67-1.79-5.92-3.33-.14-.17-.15-.4-.03-.58l1.33-2.05c.25.34.54.66.88.96,1.19,1.07,2.9,1.88,4.86,2.34Z"/>
            <path class="cls-34" d="m179.39,250.08l-9.9,5.72c-.1.06-.23-.04-.19-.15l.78-2.39,8.12-4.69.49-.28.79,1.51c.05.1.02.23-.08.29Z"/>
            <path class="cls-63" d="m180.29,251.41l-1.44.83-12.89,7.45c-.26.15-.67.2-1.01.1-2.01-.54-3.8-1.36-5.19-2.4-.62-.46-1.16-.98-1.61-1.53-.06-.07-.09-.15-.09-.22v2.94c0,.08.03.15.09.22,1.45,1.79,3.91,3.14,6.81,3.93.34.09.75.05,1.01-.1l.5-.29h0c0-1.21.86-2.69,1.91-3.3,1.06-.61,1.91-.12,1.91,1.09h0s6.01-3.47,6.01-3.47h0c0-1.21.86-2.69,1.91-3.3,1.06-.61,1.91-.12,1.91,1.09h0c.16-.1.44-.65.45-.77v-2.62c0,.13-.1.25-.26.35Z"/>
            <path class="cls-64" d="m167.01,259.37l-1.05.61c-.26.15-.67.2-1.01.1-2.01-.54-3.8-1.36-5.19-2.4-.62-.46-1.16-.98-1.61-1.53-.06-.07-.09-.15-.09-.22v.15c0,.07.03.15.09.22.45.55.99,1.06,1.61,1.53,1.4,1.04,3.19,1.86,5.19,2.4.34.09.75.05,1.01-.1l1.05-.61.12-.36-.06.03-.06.18Z"/>
            <path class="cls-38" d="m180.29,252.14l-2.08,1.21h0c1.05-.59,1.89-.1,1.89,1.1h0s0,0,0,0c.28-.16.45-.45.45-.77v-1.89c0,.13-.1.25-.26.35Z"/>
            <path class="cls-62" d="m180.55,249.94v1.1c0,.14-.09.27-.26.37l-13.7,7.91c-.26.15-.67.19-1.01.1-2.9-.79-5.36-2.14-6.81-3.93-.05-.07-.08-.14-.08-.2v-1.1c0,.07.03.14.08.2.11.14.23.28.36.41,1.48,1.59,3.77,2.79,6.45,3.52.34.09.75.05,1.01-.1l13.52-7.8.18-.11c.17-.1.26-.23.26-.37Z"/>
            <path class="cls-32" d="m180.29,250.67l-.18.11v.37l.18-.11c.17-.1.26-.23.26-.37v-.37c0,.14-.09.27-.26.37Z"/>
            <g class="cls-5">
              <path class="cls-38" d="m175.03,251.25v1.67h1.28v.88c-.49.68-.83,1.46-.99,2.21l-3.79,2.19v-3.14h-1l.48-1.48,4.01-2.32m.74-1.27l-5.36,3.1-.88,2.72h1.27v3.68l5.19-3c.1-.83.5-1.72,1.05-2.43v-1.86h-1.28v-2.21h0Z"/>
            </g>
            <path class="cls-32" d="m180.29,251.41l-.18.11v.37l.18-.11c.17-.1.26-.23.26-.37v-.37c0,.14-.09.27-.26.37Z"/>
            <path class="cls-38" d="m159.85,256.22c1.07.91,2.42,1.67,3.97,2.26v-.37c-1.54-.58-2.9-1.35-3.97-2.26v.37Z"/>
            <path class="cls-17" d="m159.13,255.02c-.13-.13-.25-.27-.36-.41-.05-.07-.08-.14-.08-.2v.66c0,.07.03.14.08.2.18.23.38.44.6.66v-.66c-.08-.08-.16-.16-.24-.24Z"/>
            <path class="cls-61" d="m166.81,258.31l-.22.13c-.26.15-.67.19-1.01.1-.38-.1-.75-.22-1.12-.34v.66c.37.12.74.24,1.12.34.32.09.7.05.97-.08l.26-.81Z"/>
            <polygon class="cls-32" points="166.94 258.38 166.79 258.83 167.33 258.52 167.48 258.07 166.94 258.38"/>
            <polygon class="cls-39" points="166.61 259.37 166.47 259.83 167.01 259.51 167.16 259.06 166.61 259.37"/>
            <path class="cls-57" d="m169.84,253.2h0s-.88,2.72-.88,2.72h0c.15.04.31.01.45-.06l.11-.06.88-2.72-.11.06c-.14.08-.3.1-.45.06Z"/>
            <path class="cls-38" d="m168.36,259.03l-2.41,1.39c-.26.15-.67.2-1.01.1-2.9-.79-5.36-2.14-6.81-3.93-.06-.07-.09-.15-.09-.22v2.21c0,.08.03.15.09.22,1.45,1.79,3.91,3.14,6.81,3.93.34.09.75.05,1.01-.1l.5-.29c0-1.21.86-2.69,1.91-3.3h0Z"/>
            <path class="cls-34" d="m168.37,259.03l1.9,1.1c0-1.21-.85-1.69-1.9-1.1Z"/>
            <path class="cls-34" d="m178.2,253.36l1.9,1.1c0-1.21-.85-1.69-1.9-1.1Z"/>
            <path class="cls-18" d="m163.82,262.38c-2.06-.69-3.84-1.69-5.09-2.94v-.71c0-.15.17-.22.28-.12,1.17,1.06,2.72,1.93,4.5,2.57.19.07.32.24.32.44v.77Z"/>
            <path class="cls-42" d="m163.48,251.09l-.48.27s-.1.04-.15,0c-.17-.12-.23-.23-.23-.23-.04-.17-.02-.39,0-.49,0-.04.02-.07.05-.1.05-.06.12-.13.18-.18.07-.06.17-.07.25-.02.13.09.24.2.31.28.05.05.07.13.07.2v.27Z"/>
            <path class="cls-38" d="m158.05,256.37l-.08.04c-.08.05-.13.13-.13.22v1.37c0,.24.07.47.2.66l.09.13-.09-2.43Z"/>
            <polygon class="cls-23" points="175.76 252.18 176.08 252 176.08 249.79 175.76 249.97 175.76 252.18"/>
            <path class="cls-38" d="m171.19,254.53c.58.05.96.5.96.5v.22c-.69.63-1.4.15-1.4.15v-.29c.13-.22.44-.58.44-.58Z"/>
            <path class="cls-37" d="m172.22,250.25l-2.67-1.54c-.14-.08-.12-.22.04-.32l.68-.39c.16-.09.41-.1.55-.02l2.67,1.54c.14.08.12.22-.04.32l-.68.39c-.16.09-.41.1-.55.02Z"/>
            <path class="cls-37" d="m173.8,249.34l-2.67-1.54c-.14-.08-.12-.22.04-.32l.68-.39c.16-.09.41-.1.55-.02l2.67,1.54c.14.08.12.22-.04.32l-.68.39c-.16.09-.41.1-.55.02Z"/>
            <path class="cls-37" d="m170.64,251.17l-2.67-1.54c-.14-.08-.12-.22.04-.32l.68-.39c.16-.09.41-.1.55-.02l2.67,1.54c.14.08.12.22-.04.32l-.68.39c-.16.09-.41.1-.55.02Z"/>
            <path class="cls-44" d="m175.07,248.76l-2.67-1.54c-.14-.08-.39-.07-.55.02l-.68.39c-.05.03-.09.07-.11.1.02.02.04.05.07.07l2.67,1.54c.14.08.39.07.55-.02l.68-.39c.05-.03.09-.07.11-.1-.02-.02-.04-.05-.07-.07Z"/>
            <path class="cls-44" d="m173.49,249.67l-2.67-1.54c-.14-.08-.39-.07-.55.02l-.68.39c-.05.03-.09.07-.11.1.02.02.04.05.07.07l2.67,1.54c.14.08.39.07.55-.02l.68-.39c.05-.03.09-.07.11-.1-.02-.02-.04-.05-.07-.07Z"/>
            <path class="cls-44" d="m171.91,250.58l-2.67-1.54c-.14-.08-.39-.07-.55.02l-.68.39c-.05.03-.09.07-.11.1.02.02.04.05.07.07l2.67,1.54c.14.08.39.07.55-.02l.68-.39c.05-.03.09-.07.11-.1-.02-.02-.04-.05-.07-.07Z"/>
            <path class="cls-37" d="m175,247.84c.18.1.18.27,0,.37l.45.26c.28.16.28.43,0,.59l-4.05,2.34c-.28.16-.73.16-1.02,0l-2.8-1.62c-.28-.16-.28-.43,0-.59l4.05-2.34c.28-.16.73-.16,1.02,0l.45.26c.17-.1.46-.1.63,0l1.27.74m.13-.07l-1.27-.74c-.2-.12-.51-.14-.74-.06l-.34-.19c-.35-.2-.92-.2-1.27,0l-4.05,2.34c-.35.2-.35.53,0,.73l2.8,1.62c.35.2.92.2,1.27,0l4.05-2.34c.35-.2.35-.53,0-.73l-.34-.19c.13-.14.09-.31-.11-.43h0Z"/>
            <polygon class="cls-34" points="176.4 252.92 175.13 253.65 175.13 254.02 176.4 253.28 176.4 252.92"/>
            <path class="cls-43" d="m163.86,251.06l.95-.55c-.12-.13-.23-.26-.34-.4l-.61.95Z"/>
            <polygon class="cls-38" points="170.27 260.87 176.28 257.4 176.28 256.66 170.27 260.13 170.27 260.87"/>
            <path class="cls-59" d="m169.27,255.75l.81-2.5c-1.95-.47-3.66-1.27-4.86-2.34-.34-.3-.63-.62-.88-.96.74,3.49,4.62,5.97,4.62,5.97l.21-.05s.06-.07.08-.12Z"/>
            <path class="cls-56" d="m166.73,255.84l-2.43,1.4,3.83-.98c-.48-.12-.95-.27-1.4-.43Z"/>
            <path class="cls-55" d="m162.17,252.83l-1.69,2.21,2.43-1.4c-.27-.26-.52-.53-.74-.81Z"/>
            <path class="Shadow_2" d="m180.46,249.72c-.5-.61-1.11-1.17-1.82-1.67h-.14c.06.09.12.16.18.24h0s.79,1.51.79,1.51c.05.1.02.23-.08.29l-9.88,5.7h0s-.11.06-.11.06c-.08.04-.16.07-.25.08h0s1.39,0,1.39,0l.12-.07,9.62-5.56c.27-.15.34-.39.18-.59Z"/>
          </g>
          <polygon class="cls-1" points="179.47 252.26 178.51 252.81 178.51 251.71 179.47 251.16 179.47 252.26"/>
          <path class="cls-33" d="m179.21,252.41l-.45.26c-.14.08-.25,0-.25-.19v-.42c0-.19.11-.41.25-.49l.45-.26c.14-.08.25,0,.25.19v.42c0,.19-.11.41-.25.49Z"/>
          <path class="cls-58" d="m180.8,251.98c0-.19-.11-.41-.25-.49l-.45-.26c-.06-.04-.12-.04-.16-.02h0s-.02,0-.02,0c0,0,0,0,0,0l-.13.08.06.1s0,0,0,.01v.42c0,.19.11.41.25.49l.39.23.07.13.14-.08s.02,0,.03-.02h0s0,0,0,0c.04-.04.07-.1.07-.19v-.42Z"/>
          <path class="cls-15" d="m179.98,252.41l.45.26c.14.08.25,0,.25-.19v-.42c0-.19-.11-.41-.25-.49l-.45-.26c-.14-.08-.25,0-.25.19v.42c0,.19.11.41.25.49Z"/>
          <path class="cls-23" d="m179.21,251.36s0-.03,0-.04l-.44.26c-.14.08-.25.3-.25.49v.42s0,.03,0,.04l.44-.26c.14-.08.25-.3.25-.49v-.42Z"/>
          <path class="cls-38" d="m179.47,251.74l-.43.78-.27-.16-.25-.14v-.18c0-.19.11-.41.25-.49l.2-.11.25.14.25.15Z"/>
          <ellipse class="cls-34" cx="179.24" cy="252.13" rx=".45" ry=".26" transform="translate(-128.89 279.63) rotate(-59.69)"/>
          <path class="cls-44" d="m179.47,251.75c-.12-.07-.33.05-.45.26-.12.21-.12.45,0,.52,0,0,0,0,.01,0h0s.27.16.27.16l.42-.79-.25-.15Z"/>
          <ellipse class="cls-37" cx="179.5" cy="252.28" rx=".45" ry=".26" transform="translate(-128.89 279.92) rotate(-59.69)"/>
          <path class="cls-60" d="m180.91,252.73c-.05-.08-.12-.15-.2-.21l-.92-.59h0c-.12-.07-.33.05-.45.26-.12.21-.12.45,0,.52.01,0,.02,0,.04.01h0s.86.46.86.46c.09.05.19.04.28,0l.05-.03.16.09c.09.05.17.13.22.22l.4.7c.05.08.15.11.23.06h0c.08-.05.11-.15.06-.23l-.73-1.26Z"/>
          <path class="Shadow_2" d="m179.79,251.93c-.12-.07-.33.05-.45.26-.12.21-.12.45,0,.52.01,0,.02,0,.04.01h0s.55.29.55.29h0c.04-.36.43-.48.74-.53l-.87-.56Z"/>
        </g>
      </g>
      <circle class="cls-14" cx="148.09" cy="256.49" r=".79"/>
      <path class="cls-37" d="m148.09,256.78c-.16,0-.29-.13-.29-.29s.13-.29.29-.29.29.13.29.29-.13.29-.29.29Z"/>
    </g>
  </g>
</svg>