<?xml version="1.0" encoding="UTF-8"?>
<svg xmlns="http://www.w3.org/2000/svg" viewBox="0 0 665.13 387.15">
  <defs>
    <style>
      .cls-1 {
        fill: none;
      }

      .cls-2 {
        fill: #4473c8;
      }

      .cls-3 {
        fill: #74a3f8;
      }
    </style>
  </defs>
  <g id="frame">
    <rect class="cls-1" x="40.83" y="37.15" width="525" height="350"/>
  </g>
  <g id="button">
    <g>
      <path class="cls-2" d="m291.82,110.02v21.17c0,1.91-1.4,3.92-4.12,5.49l-2.16,1.25c-1.33-.85-2.7-1.68-4.11-2.5h-.01s-28.12,16.42-28.12,16.42v4.69s-6.99,4.04-6.99,4.04c-4.98,2.87-12.5,3.18-16.81.7l-63.36-36.58c-1.95-1.13-2.9-2.63-2.9-4.21v-21.17c0-1.91,1.39-3.92,4.11-5.49l10.53-6.08h79.75l31.28,18.06c1.95,1.13,2.91,2.64,2.91,4.21Z"/>
      <path class="cls-3" d="m291.82,110.02c0,1.91-1.4,3.92-4.12,5.49l-9.33,5.39-32.06,18.51c-4.98,2.87-12.5,3.19-16.81.7l-52.83-30.5-10.53-6.08c-1.95-1.13-2.9-2.63-2.9-4.21,0-1.91,1.39-3.92,4.11-5.49l10.53-6.08,30.86-17.82c4.98-2.88,12.51-3.19,16.81-.7l32.08,18.52,31.28,18.06c1.95,1.13,2.91,2.64,2.91,4.21Z"/>
    </g>
    <g>
      <path class="cls-2" d="m523.49,243.73v21.17c0,1.91-1.4,3.92-4.12,5.49l-2.69,1.55-4.05-2.34-28.16,16.37h0v4.57s-6.5,3.75-6.5,3.75c-4.98,2.87-12.5,3.18-16.81.7l-63.36-36.58c-1.95-1.13-2.9-2.63-2.9-4.21v-21.17c0-1.91,1.39-3.92,4.11-5.49l10.53-6.08h79.75l31.28,18.06c1.95,1.13,2.91,2.64,2.91,4.21Z"/>
      <path class="cls-3" d="m523.5,243.73c0,1.91-1.4,3.92-4.12,5.49l-9.33,5.39-32.06,18.51c-4.98,2.87-12.5,3.19-16.81.7l-52.83-30.5-10.53-6.08c-1.95-1.13-2.9-2.63-2.9-4.21,0-1.91,1.39-3.92,4.11-5.49l10.53-6.08,30.86-17.82c4.98-2.88,12.51-3.19,16.81-.7l32.08,18.52,31.28,18.06c1.95,1.13,2.91,2.64,2.91,4.21Z"/>
    </g>
  </g>
</svg>