<svg id="Layer_1" xmlns="http://www.w3.org/2000/svg" viewBox="0 0 1000 850"><path d="M795.7 16.9l-7.2 3.2-11.1 2.7-11.4 6.4-5.8 1.8-5.3 9.6-2.7 2.1-.4 5 2.9-.4 5.8.5.9 3.8 1.8 3-.4 7.8-5.6 6.7-4.1 14.8-1.8 7.8-2.8 8.3 3.1 4.9-2.7 5.4-5.9 1.4-6.4 7.6-5 3.7-8.4-.4-8.7-3.4-6.9 21.8 1 3.4-2.1 2.9-.9 9.1-3.8 3.3 3 6.4 4.5 3.2 3.3-3.7 12.2-2.5 6.5 3 4.1-7.5 10.3-1.9 6.1 3.7 4.4.6 2.8 4.2 9.1 5.4 5 9.6-3.2 3.8-5.7 1.3-7.3-1.8-3 1.6-4.6-.8-8.8 7-4.2-.8-1.5 4.3-7.2.9-5.2 5.3-2.8 6.6v4.3l-8.1 8.5-15.2 2.1-2.8 5.4-11.3 11.1-15.7-.7-3.6-3-9.2-.3-6 16.4 10.5 12.6-3.5 2.8-3 3.3-7.5 4.2-10.8 14.6-14.6 7.7-19.6 1.7-6.3 1.6-8-1.1-3.1 2.7-8.8 2.3-13.8 7.1L545 320l-4.6-1.4-3.2-4.4-6.4 1.7-17.7-4.7-13.4-3.3-5.6-6.7-28-4.5L451 299l-16.6-3-14.2-1.2-14-3.5-7.8-10.4-5.4-18-3.2-2.1.1-4.2-7.5-1.9-13.2-9.4-7.8-7.4-27.4-4-7.2-3.9-5.5-1.1-2.6-3 .7-7.1 6.2-8.5-1.3-6.6 2.6-3.3.5-5.2-5.7-10.9-1.5-9.1-5.1-7.6-2.8.6-5.4-5.7-2.9.9h-4.2l-2.1-2.8-3.3-7.3-7.1-4.8.1-2.8-3.3-5.6 1.7-2.5-.2-4.1-4.6 1.1-4.8-2.1-5.7 1-.7 4.6-2.3 5.4-7.4 3.2-7.1-1.2-5.7 13.1.8 10.3-1.5 5.4-6.5 1.2-6.2 3-2.4-2.8-4.3-2.3-5.8-.3-13.4-7.6-2 5-11 18.6-5.3 11 4.3 4.2-2.9 5.8-3.6-2.4-5.8.1-4-5.1-10.9 1.9h-14.6l-3.6 3 8 4.8-2 3.2-2.6 10.2 2.7 13.3-1.1 4.1.6 4.5-5.7 1.6-.3 4.1-5.7 2.2-.4 4.9-2.2 10-4.3-1.4-3.7 2.3-8.9 1.5-14.2 4.2-7.9 6.8-10.6-1.1-9.3-3.5-7.4 8.2-5.3 4-4.4-1.6-5.2.5-2.2-7.6-5.7 2.1-6.7-2.5-.3 2.4-9 2.9-5.6-.9-4 3.4L24 298l-4.8.9-1.9 4.2 1.9 6.2-2.9 1.5 1.3 9.1 5.1-2.6 10.2 6.5-2.5 6.4.8 4.5-.8 10.5.1 5.2-11.4.1-.2 3.2 5.9 3.9 7.1 1.7 1.8 5.4 5.1 2.1 1.4 8.7-1.9 5.6 2.9 6.6 4.5.9 6.3 7.2 14.2 6.7h.9v.1l.8-.1h1.7l.7 1.4-1.2 2-.6 1.8 1.1 4.2.1 1.6-.2 2.2.7 1.6.2 2.6-.2 1.4 1 2.3 2 .9 3.3 1.5 1.5 1.8.7 1.4 1.9 1.1.8 1.3-.4 2.4-1.2 1.1-4 .6-.4 2.1.1 2.1.2 2.2-.3 1.7-1 3.7.7 2.8-.1.4.2.3.1.3.5.5v-.1l4.9 5.9v.2L79 457l-.5 1.5-.8 1-.3.9.5.8.8.3.6 1.9-.5 1.3-.7.4.5 1v.9l-.7 1.5.2.9-.9 1.1-.2 1.4 1.2-.2 1-.5-.1.5-9.2 1.8-1.6-5.2-5.1-1-.9 6.1 3 7.8-.2.8-.4-.9-2-2.5-1-2.7-1.3.4.1 1.7.8-.2 1.2 2.1 1.4 2.3.4 1.9.2-.2-.4 1.1.3 4-1.2 3.8-.1 2.5 1.9 1.8-.4.1.9 1.9.1 1.8.5 1.1 3 1.2h1.3l.8.1L75 507l6.4 1.7 3.2 5-.8-1-.2 1.4-.1 1 1 .4.9 1.2.8-.5.4.7 7 6.6 5.1 5.7 2.2 4.4 10.4-7 1.2 3.7 4.6 3.2 9.2 6.5 4.1 5.8 7.5 5.9 1.8 8.1 4.8 4.6 4.1-5.3 3.7 2.1-1.1 9.1 12.5 8 5.5-.5-.5 3.2 1 4.7 5.6 1.2 6.6 4.3 1.7 5.1 2.9-3 3.1 3.5 2.7 1.2 4.7-2.9 10.2 8.4 5.7-.9 3.1 2.2 18.8-4.2 4.4 2.5.1 3.6-2.8 6.2 1.1 3.6 1.8-.2 5.9-6.3 7.1-6 10.1-4.6 5.8 2 6.2 6.2 11.5 1.5 7.4 5.2-1.8 3.8 1 2.8 1.9 2 4.5.2 1.5 1.6-.2 1.9-1.8 2.3.1 2.1 1.2.9.6 2.3-.2.8 3.8.1 3.9-.7 3-1 2.7 2.1 3.4.1 3.5.8 3.4-.4 1.7.3 1-.3 4.2-.8 2.3-.6.8-3.3 3.1-2.9 2.7-1.6 2.9-3.1 4-.8 6.8-1.4 3-1.9 2.5-.6 2.1-1.2 2.1-.8 1.2-3.5 11.4-3.5.6 1.4 1.6 1.1h2.8l1.8-.7 1.3 2.1 1.4.2.4-.5 3.5 2.8 3.9 3.2 2.8 1.1 1.4 1.6.1 1.3 6.8-4.4.6-1.9-.6-2.5.6-2h-.6l3.5-4 3.7-1.3 2.7 3.2 3.9 1.7 2.1 7.2 4.3 9.4 2-2.5 4.5 2.8-.8 7.7.8 3.4.2 15.6-3 6.3 1 4.9-3.2 1.4-3.4 4.7-3.1.1-1.6 4.6-6.2 2.5-1.7 5.8.6 2.4-3.3 1.1-1.5 2.5.7 5 1.7 1.8.8 4.3-2.7 4.4.6 2.5 5.3-1.8 2.9-3 9.2-.6 2.4 1.5 5.1-.5-3.6 5.1 2.7 4 1.7 10.9 3.6 3.1 7.9.1.8 2.8-3.7 5.6.8 4.3-3.1 4.1-1 4.2 3.6 1.6 2-.4 10.4 2.5-.6 5.1 2.9 3.1 2.9 5.9 2.6-2.6 4.7 2 5-4.1 5.3-1.9 4.7 12 4.8-.9 4.5 1.1.9-10.3-4.7-12.7 3.1-5.8 2.6 1.2 7-.3 3.8-2.9 3-4.4 6.6 3.2 2.3 3 2 .2 6.9-7.4 3.3 4.7 2.6-4.6 6.3 6.3 1.8-4.2 3.2-3.2 2.7 2.5 3.3-1.6 7.1-2.7.2-4.2 9.6-6.5 5.2 5 7.5 4 4.8-1.6 3.2 3.1 4-1.7 5.8 2.1.1 3.1-3.7 2.9-.3 3.4 1.6 1.6 1.8 7 6 1.5 3.2 3.8 7.4 3 6.8-1.9 3.6 2.4 3.3-1.3.5.5h2l1-2.2 2.8-.8v-4.8l2.8-.8.8 3 2.5 3.3 1.5-1.5 2.8 1.5 2.8.8 1 4 1.8-1.2 6.1-1.3-1-4.3 1.2-.2 3 3.8 5.8.5-1.2 2.3-2.8 4.3-1 8.1 2.8.8.5 5.8 4.3 2.3-1.3 1 .8 2.5 7.6-.2 3.5-3.5.2-1.5-3.5-3.5-.8-3.5-2.8-1-1-3.3 2.2-2.3 3.6-2.5 2.5-.2 3.6-4.8 4-.2 1.8-2.2 5.6-.3 1.8-1.5h3.3l3.3-2.3V752l3-1 2.3-1.2h7.3l.8-2.3 3.8 1 4.3-3h4l-.4-5.9 1-2.1 3.4 4.4 3.5-4.6-1.3-3.2 2.8 2.7 1.5-.3 1-1.8-.2-1.8-1.4-3.7-.4-3.5-.8-1.3.8-2 2 2 2.2-.2 1 2.4 2.4 2.2 2.8-.2-1 3.6 2.5-.2 1.7.4 2.8.5-.6-1.8 2-1.3-3.2-2.7 3.4-1.3 2.9 1.3.3-3.8 3.5-1.8.5 3.8 3.3-.2 1.5-2.5 3.5-3.3 3-.2 1.2.8.2 2.3h2.8l.8-4.3 1-1.3 4 2.3 3.8-2.8 2.3-.5 3-2.3 4.8-.8.5-5.3 4-1.8-1.5-2.5-2-.8 5.8-.5 3.8-1.8-2-1.8 1.8-2.5 3.5.2.8-3.5 2.8.5-1-4.5 3.8 1v-4.3h2.8l2-3.3 2-2-1.2-2.5-2.3-2 4-.8 1.8-2.5 3-1.5h4.3l1.3-1.8 1-2.3-2-1.2-.8-2 5.3-.2 1-1.8-1.5-2.8 2-1.8 2-1.8 2.3-.8-2.3-2.8.5-2.8 1.8-2 2.8 1.8 2.2.5.5-1.8-2.3-3.3 2.3-3.6-1.3-2.2.5-2.3-1.5-2.5 1.2-4 1.8-2.3-1-1.8-3.8-3.3.8-2.8 3.3.5 1 1.2.8-4 3.3-2.3 1.5-1.2.2-3.5 2-2-1.8-1.3h2.5l2.8-3.8-.3-3.8.3-2.3 1.8-5 1.5-3.5 1.8-1.3.5-6.1 3-1.2.8 5.1 2.8-3.8 3.3-2.2-2-4.3-1.8-3 2.8-2.5v-3.5l2.8-3.8-1-3 1.8-1.5-1-3.8-.5-6.1-1.8 4.3-2.8.2 3.6-4.8 4.3-3.3 3.5-1.8-.5-2.5-5.6-2.3-2.3.8-1.5 3.6-2.5 1-3.3-2.3-4.5-3.5-3.8.5-4.8 4.3-2.5 1-4.6-.8-4-1-.8-1.2 3.3-1.8 5.3-.5 3-1 .2-3 6.3-5.1 4.5-3.3 3.3-4 .8-4-3.6-3-5.3-2-4.1-2.3-2-2.2-4.1-.8-4.8-.8-.5-2.8-3.8-.8-4.1 2-1.5.5 1.8-2.8 3.3-1.5 4.8.5 1.8 2.5 2.8 1h4.8l3.5.5 3.5 2 4.6.8 2.2-.5.8-1.5-2.8-3.8-5.3-4.8-4.8-1.2-1.8-5.1-4.6-1.8-5-1.3-1.8-1.2.8-3.3-1.3-3.3-6.1-8.8-3.8-6.3-4.8-9.1-2.5-2.5-6.6-2-5.8-1.8-2.3-2.5-5.6-1-.5-4.6 2.5-2.5.5-4.3 1.5-2.3 2-5 3.3-1 .8-2.5 1.5-4.1 2.5-2.2-2.8-3 1.5-1.5 2.5 1.3 3.3.5 2.8-2.8-.2-6.1 1.5-2.8 2.3-.5 4.6-3.8 3.3-2.3 4.3-3.3 2.5-3.3 2.8.5 1.2-1.2 2.8 2.5 3.3-2.5-1.2-3.3 1-2.5-.2-4.6-3.3-1.2-2.8 1.5-3.3-1.5-5.1 2-4 2-2.3-1-1.8-2-2.3.5-4.3-2.8-3.3-1.5-4.1 1.5-4.3 3.3-.8 4.1-4.6 4-.8 4.3-3.3 3.6-7.1-.8-5.3-2-.8-9.6-3.3-3.6-4.8-1.2-3-2.3-2.8 1-3.3 2-3-2.5-4-3.3-2.8-5.3-.5-6.6 1.8-4.3 4.1-2.8 2.2-.5 3.6 1.8 2.5-1.3 1.5-1.8h3.5l1.5-1 1.3.5.8-5.1 1.2-4.6 2.8-4.5 2.5-1.5V333l5.3-3.3 6.1-4.6 3-2 .2-5.1 3.8-5.3 1.5-1.5.5-3.3 3.3-2 5-.2 3.6-2 3 .8 5 5 2.8 2-1.8 4-1.8 4-1.2 3.8-4.1 3-1.8 2-.2 5.1-2.3 1.2 3.5 2 2 1.8 3.5-1-1.5 4.3-.5 2.5-2.8 1.5-1 2-2.3.2-1 3.8 1.5 1.8 4.1-3.3 3.5-4 4-2.8 2.3-2.5 1.8-4 7.6-6.8 5.3-4.3 2.5-.2 1.1-2.5 4.6-.8 2.1-2.1 5.4-.5 3.5-2.1 1.3-6.5 9.3-11.7 10.8-9.2 7.1-12 .5-7.8 5.6-3.9 6.8 4.8 14.6-1.9.4-3.9-5.3-5.9.9-3.3 7.6-1.9 7.2-4.8 1.1-6.5 5.4-1.4.5-13.2 4.7-.8 3.3 5.1 4.7.8-2-2.3 1.8-3.1 4.8-3.5 2.4-12-2.6-2.8-1.6-11.3-9.5-16.4 5.2-2.5 5.1-10.6 3.9 1.5 15.4-1.2.2-9.4 2.8-3.4.8-12.5 1.8-4.2-1.8-5.9.5-4-.6-10.3-.9-3.6 1.4-3.4 2.7-2.2 1.3-5.9-4.6-5.1-.1-6.6-4.8-2.1-7.7 5.7-4 5.5-3.9.7-4.2 3.2-3.2 7.9-9.9 4.5-6.9.6-4.7 2.4-8.4-6.8 1.2-5.1-5.7-5.8-1.3-6.2-5.2 1.8-14.3-8.6-4.5 2.2-8.4-3.8-5.3 3.4-6.8.4-6.1-6.1-1-6.6-3.6-1.5-1.3-7.2-9.1-9.4-.4-4.3-9.2-11.5-1.7-6.1-4.1-5.8-4.8-3.7-2.2-4-13.2-6.6-5.6 2.5-18.3-5.6zM683.2 788.6l-4.8 2.1-4.3 1.2-6.6.9-.9 1.6-3.2.7-5.2-.9-1.2.2-1.8.9v1.8l-1.4.7-3.9-.2-2.2 1.4v2.1l2.5.2-1.4 2.3-2.7.7-7.7 5.4-1.2 2.7.7 2.5-.9 2.3.9 4.8 1.2 3 .7 4.3 5.3 2.3 4.3 1.9 6.1-.3 2.1 2 4.5-.7v-3.6l3.6-.9 3.2-.2.2-1.9 3.6-4.5h2.2l2.3-1.1.7-4.6.9-6.2 2.7-5.7 2.7-3.8 2.5-2.2-.5-3.4-1.4-3.9v-3.6l-1.6-.3z" fill="#f1f1f1"/></svg>