<svg enable-background="new 0 0 360 360" viewBox="0 0 360 360" xmlns="http://www.w3.org/2000/svg" xmlns:xlink="http://www.w3.org/1999/xlink"><linearGradient id="a" gradientTransform="matrix(.6581 -.7529 .7529 .6581 -1273.3988 -297.5467)" gradientUnits="userSpaceOnUse" x1="451.4525" x2="749.0248" y1="1406.8593" y2="1406.8593"><stop offset=".0401" stop-color="#b3d88f"/><stop offset=".574" stop-color="#84a9b5"/><stop offset=".9704" stop-color="#668bcd"/></linearGradient><linearGradient id="b"><stop offset="0" stop-color="#8e76ff"/><stop offset=".2497" stop-color="#8b72fa"/><stop offset=".5274" stop-color="#8164ed"/><stop offset=".8173" stop-color="#724fd7"/><stop offset="1" stop-color="#653dc5"/></linearGradient><linearGradient id="c" gradientUnits="userSpaceOnUse" x1="109.6994" x2="305.6732" xlink:href="#b" y1="164.2489" y2="164.2489"/><linearGradient id="d" gradientUnits="userSpaceOnUse" x1="160.938" x2="305.6732" xlink:href="#b" y1="164.2908" y2="164.2908"/><circle cx="180.85" cy="176.46" fill="url(#a)" r="148.79"/><path d="m305.67 110.19-.07 108.23c0 5.32-4.32 9.64-9.65 9.64l-176.63-.12c-5.32 0-9.62-4.34-9.62-9.65l.07-108.23c0-5.32 4.32-9.63 9.63-9.62l176.63.12c5.34 0 9.65 4.32 9.64 9.63z" fill="url(#c)"/><path d="m305.67 110.19-.07 108.23c0 5.32-4.32 9.64-9.65 9.64l-135.01-.09 82.41-127.45 52.69.04c5.33 0 9.64 4.32 9.63 9.63z" fill="url(#d)"/><path d="m119.55 113.22h74.32v6.22h-74.32z" fill="#c1beed" opacity=".75"/><path d="m119.55 123.78h53.33v6.22h-53.33z" fill="#c1beed" opacity=".75"/><path d="m119.52 162.33h34v10.13h-34z" fill="#2d1c56" opacity=".54"/><path d="m166.96 162.36h34v10.13h-34z" fill="#2d1c56" opacity=".54"/><path d="m214.4 162.39h34v10.13h-34z" fill="#2d1c56" opacity=".54"/><path d="m261.84 162.43h34v10.13h-34z" fill="#2d1c56" opacity=".54"/><g fill="#c1beed"><path d="m267.98 203.33c.01-7.73 6.27-13.99 14-13.98s13.99 6.27 13.98 14-6.27 13.99-14 13.98c-7.72 0-13.98-6.27-13.98-14z" opacity=".75"/><path d="m180.38 200.91h19.36v8.4h-19.36z" opacity=".75"/><path d="m216.56 200.93h19.36v8.4h-19.36z" opacity=".75"/><path d="m202.44 217.62c-.14 0-.28-.03-.41-.1-.45-.23-.63-.78-.4-1.23l9.81-19.35c.23-.45.78-.63 1.23-.4s.63.78.4 1.23l-9.81 19.35c-.17.31-.49.5-.82.5z" opacity=".75"/></g><path d="m59.77 145.22v99.93c0 4.91 3.98 8.91 8.91 8.91h163.09c4.91 0 8.89-4 8.89-8.91v-99.93c0-4.91-3.98-8.89-8.89-8.89h-163.09c-4.93 0-8.91 3.98-8.91 8.89z" fill="#1d71b8"/><path d="m59.77 145.22v99.93c0 4.91 3.98 8.91 8.91 8.91h131.12l-76.01-117.73h-55.11c-4.93 0-8.91 3.98-8.91 8.89z" fill="#19619e"/><path d="m59.77 148.1h180.88v22.82h-180.88z" fill="#0f3d63"/><path d="m71.51 197.2h159.98c.54 0 .98-.44.98-.98v-12.69c0-.54-.44-.98-.98-.98h-159.98c-.54 0-.98.44-.98.98v12.69c0 .54.44.98.98.98z" fill="#fff"/><path d="m103.12 188.01h21.82v5.46h-21.82z" fill="#0f3d63" transform="matrix(-1 0 0 -1 228.0635 381.4697)"/><path d="m77.85 188.01h17.23v5.46h-17.23z" fill="#0f3d63" transform="matrix(-1 0 0 -1 172.9348 381.4697)"/><path d="m72.11 210.12h85.28v5.74h-85.28z" fill="#16558a" transform="matrix(-1 0 0 -1 229.4992 425.9747)"/><path d="m72.11 220.45h85.28v5.74h-85.28z" fill="#16558a" transform="matrix(-1 0 0 -1 229.4992 446.6479)"/><path d="m72.11 230.79h68.62v5.74h-68.62z" fill="#16558a" transform="matrix(-1 0 0 -1 212.8457 467.3212)"/></svg>